<?xml version="1.0" encoding="utf-8"?>
<COLLADA xmlns="http://www.collada.org/2005/11/COLLADASchema" version="1.4.1" xmlns:xsi="http://www.w3.org/2001/XMLSchema-instance">
  <asset>
    <contributor>
      <author>Blender User</author>
      <authoring_tool>Blender 3.0.1</authoring_tool>
    </contributor>
    <created>2026-06-04T16:18:34</created>
    <modified>2026-06-04T16:18:34</modified>
    <unit name="meter" meter="1"/>
    <up_axis>Z_UP</up_axis>
  </asset>
  <library_images/>
  <library_geometries>
    <geometry id="chassis_default_as_machined__20-mesh" name="chassis_default_as_machined__20">
      <mesh>
        <source id="chassis_default_as_machined__20-mesh-positions">
          <float_array id="chassis_default_as_machined__20-mesh-positions-array" count="1020">0.01239997 0.185 0.3098 0.01499998 0.185 0.3098 0.01239997 0.185 0.2902 0.01499998 0.185 0.2902 0.01239007 0.185 0.2899734 0.01498019 0.185 0.2897468 0.01236045 0.185 0.2897485 0.01492094 0.185 0.2892971 0.01231139 0.185 0.2895271 0.01482278 0.185 0.2888541 0.01224315 0.185 0.2893108 0.0146864 0.185 0.2884215 0.01215636 0.185 0.2891012 0.01451277 0.185 0.2880024 0.01205164 0.185 0.2889 0.01430332 0.185 0.2876 0.01192975 0.185 0.2887087 0.01405954 0.185 0.2872174 0.0117917 0.185 0.2885288 0.01378339 0.185 0.2868575 0.01163846 0.185 0.2883615 0.0134769 0.185 0.2865231 0.01147121 0.185 0.2882083 0.01314246 0.185 0.2862166 0.01129126 0.185 0.2880702 0.01278257 0.185 0.2859404 0.01109999 0.185 0.2879483 0.01239997 0.185 0.2856966 0.01089876 0.185 0.2878436 0.01199758 0.185 0.2854872 0.01068919 0.185 0.2877568 0.0115785 0.185 0.2853136 0.01047289 0.185 0.2876886 0.01114583 0.185 0.2851772 0.01025146 0.185 0.2876395 0.01070296 0.185 0.285079 0.01002657 0.185 0.2876099 0.01025319 0.185 0.2850198 0.009799957 0.185 0.2876 0.009799957 0.185 0.285 -0.009799957 0.185 0.2876 -0.009799957 0.185 0.285 -0.01002657 0.185 0.2876099 -0.01025319 0.185 0.2850198 -0.01025146 0.185 0.2876395 -0.01070296 0.185 0.285079 -0.01047289 0.185 0.2876886 -0.01114583 0.185 0.2851772 -0.01068919 0.185 0.2877568 -0.0115785 0.185 0.2853136 -0.01089876 0.185 0.2878436 -0.01199758 0.185 0.2854872 -0.01109999 0.185 0.2879483 -0.01239997 0.185 0.2856966 -0.01129126 0.185 0.2880702 -0.01278257 0.185 0.2859404 -0.01147121 0.185 0.2882083 -0.01314246 0.185 0.2862166 -0.01163846 0.185 0.2883615 -0.0134769 0.185 0.2865231 -0.0117917 0.185 0.2885288 -0.01378339 0.185 0.2868575 -0.01192975 0.185 0.2887087 -0.01405954 0.185 0.2872174 -0.01205164 0.185 0.2889 -0.01430332 0.185 0.2876 -0.01215636 0.185 0.2891012 -0.01451277 0.185 0.2880024 -0.01224315 0.185 0.2893108 -0.0146864 0.185 0.2884215 -0.01231139 0.185 0.2895271 -0.01482278 0.185 0.2888541 -0.01236045 0.185 0.2897485 -0.01492094 0.185 0.2892971 -0.01239007 0.185 0.2899734 -0.01498019 0.185 0.2897468 -0.01239997 0.185 0.2902 -0.01499998 0.185 0.2902 -0.01239997 0.185 0.3098 -0.01499998 0.185 0.3098 -0.01239007 0.185 0.3100266 -0.01498019 0.185 0.3102532 -0.01236045 0.185 0.3102515 -0.01492094 0.185 0.310703 -0.01231139 0.185 0.3104729 -0.01482278 0.185 0.3111459 -0.01224315 0.185 0.3106892 -0.0146864 0.185 0.3115785 -0.01215636 0.185 0.3108988 -0.01451277 0.185 0.3119976 -0.01205164 0.185 0.3111 -0.01430332 0.185 0.3124 -0.01192975 0.185 0.3112913 -0.01405954 0.185 0.3127826 -0.0117917 0.185 0.3114712 -0.01378339 0.185 0.3131425 -0.01163846 0.185 0.3116385 -0.0134769 0.185 0.3134769 -0.01147121 0.185 0.3117917 -0.01314246 0.185 0.3137834 -0.01129126 0.185 0.3119298 -0.01278257 0.185 0.3140596 -0.01109999 0.185 0.3120517 -0.01239997 0.185 0.3143033 -0.01089876 0.185 0.3121564 -0.01199758 0.185 0.3145128 -0.01068919 0.185 0.3122432 -0.0115785 0.185 0.3146864 -0.01047289 0.185 0.3123114 -0.01114583 0.185 0.3148228 -0.01025146 0.185 0.3123605 -0.01070296 0.185 0.314921 -0.01002657 0.185 0.3123901 -0.01025319 0.185 0.3149802 -0.009799957 0.185 0.3124 -0.009799957 0.185 0.315 0.009799957 0.185 0.3124 0.009799957 0.185 0.315 0.01002657 0.185 0.3123901 0.01025319 0.185 0.3149802 0.01025146 0.185 0.3123605 0.01070296 0.185 0.314921 0.01047289 0.185 0.3123114 0.01114583 0.185 0.3148228 0.01068919 0.185 0.3122432 0.0115785 0.185 0.3146864 0.01089876 0.185 0.3121564 0.01199758 0.185 0.3145128 0.01109999 0.185 0.3120517 0.01239997 0.185 0.3143033 0.01129126 0.185 0.3119298 0.01278257 0.185 0.3140596 0.01147121 0.185 0.3117917 0.01314246 0.185 0.3137834 0.01163846 0.185 0.3116385 0.0134769 0.185 0.3134769 0.0117917 0.185 0.3114712 0.01378339 0.185 0.3131425 0.01192975 0.185 0.3112913 0.01405954 0.185 0.3127826 0.01205164 0.185 0.3111 0.01430332 0.185 0.3124 0.01215636 0.185 0.3108988 0.01451277 0.185 0.3119976 0.01224315 0.185 0.3106892 0.0146864 0.185 0.3115785 0.01231139 0.185 0.3104729 0.01482278 0.185 0.3111459 0.01236045 0.185 0.3102515 0.01492094 0.185 0.310703 0.01239007 0.185 0.3100266 0.01498019 0.185 0.3102532 0.01239997 0.01499998 0.3045417 0.01499998 0.01499998 0.3045417 0.01239997 0.01499998 0.3098 0.01499998 0.01499998 0.3098 0.01239007 0.01499998 0.3100266 0.01498019 0.01499998 0.3102532 0.01236045 0.01499998 0.3102515 0.01492094 0.01499998 0.310703 0.01231139 0.01499998 0.3104729 0.01482278 0.01499998 0.3111459 0.01224315 0.01499998 0.3106892 0.0146864 0.01499998 0.3115785 0.01215636 0.01499998 0.3108988 0.01451277 0.01499998 0.3119976 0.01205164 0.01499998 0.3111 0.01430332 0.01499998 0.3124 0.01192975 0.01499998 0.3112913 0.01405954 0.01499998 0.3127826 0.0117917 0.01499998 0.3114712 0.01378339 0.01499998 0.3131425 0.01163846 0.01499998 0.3116385 0.0134769 0.01499998 0.3134769 0.01147121 0.01499998 0.3117917 0.01314246 0.01499998 0.3137834 0.01129126 0.01499998 0.3119298 0.01278257 0.01499998 0.3140596 0.01109999 0.01499998 0.3120517 0.01239997 0.01499998 0.3143033 0.01089876 0.01499998 0.3121564 0.01199758 0.01499998 0.3145128 0.01068919 0.01499998 0.3122432 0.0115785 0.01499998 0.3146864 0.01047289 0.01499998 0.3123114 0.01114583 0.01499998 0.3148228 0.01025146 0.01499998 0.3123605 0.01070296 0.01499998 0.314921 0.01002657 0.01499998 0.3123901 0.01025319 0.01499998 0.3149802 0.009799957 0.01499998 0.3124 0.009799957 0.01499998 0.315 -0.009799957 0.01499998 0.3124 -0.009799957 0.01499998 0.315 -0.01002657 0.01499998 0.3123901 -0.01025319 0.01499998 0.3149802 -0.01025146 0.01499998 0.3123605 -0.01070296 0.01499998 0.314921 -0.01047289 0.01499998 0.3123114 -0.01114583 0.01499998 0.3148228 -0.01068919 0.01499998 0.3122432 -0.0115785 0.01499998 0.3146864 -0.01089876 0.01499998 0.3121564 -0.01199758 0.01499998 0.3145128 -0.01109999 0.01499998 0.3120517 -0.01239997 0.01499998 0.3143033 -0.01129126 0.01499998 0.3119298 -0.01278257 0.01499998 0.3140596 -0.01147121 0.01499998 0.3117917 -0.01314246 0.01499998 0.3137834 -0.01163846 0.01499998 0.3116385 -0.0134769 0.01499998 0.3134769 -0.0117917 0.01499998 0.3114712 -0.01378339 0.01499998 0.3131425 -0.01192975 0.01499998 0.3112913 -0.01405954 0.01499998 0.3127826 -0.01205164 0.01499998 0.3111 -0.01430332 0.01499998 0.3124 -0.01215636 0.01499998 0.3108988 -0.01451277 0.01499998 0.3119976 -0.01224315 0.01499998 0.3106892 -0.0146864 0.01499998 0.3115785 -0.01231139 0.01499998 0.3104729 -0.01482278 0.01499998 0.3111459 -0.01236045 0.01499998 0.3102515 -0.01492094 0.01499998 0.310703 -0.01239007 0.01499998 0.3100266 -0.01498019 0.01499998 0.3102532 -0.01239997 0.01499998 0.3098 -0.01499998 0.01499998 0.3098 -0.01239997 0.01499998 0.3045417 -0.01499998 0.01499998 0.3045417 0.01002657 0.02628779 0.2876099 0.009913384 0.02629274 0.2876025 0.01002681 0.02802443 0.2850049 0.01482278 0.02545827 0.2888541 0.01224315 0.02515387 0.2893108 0.0146864 0.02574676 0.2884215 0.01215636 0.02529358 0.2891012 0.01451277 0.02602612 0.2880024 0.01205164 0.02542775 0.2889 0.01430332 0.02629441 0.2876 0.01192975 0.02555525 0.2887087 0.01405954 0.02654945 0.2872174 0.0117917 0.02567523 0.2885288 0.01378339 0.02678936 0.2868575 0.01163846 0.02578669 0.2883615 0.0134769 0.02701234 0.2865231 -0.0134769 0.02701234 0.2865231 -0.01147121 0.02588886 0.2882083 -0.01378339 0.02678936 0.2868575 -0.01163846 0.02578669 0.2883615 -0.01405954 0.02654945 0.2872174 -0.0117917 0.02567523 0.2885288 -0.01430332 0.02629441 0.2876 -0.01192975 0.02555525 0.2887087 -0.01451277 0.02602612 0.2880024 -0.01205164 0.02542775 0.2889 -0.0146864 0.02574676 0.2884215 -0.01215636 0.02529358 0.2891012 -0.01482278 0.02545827 0.2888541 0.009799957 0.02802771 0.285 0.009799957 0.02629441 0.2876 -0.009799957 0.02802771 0.285 -0.009799957 0.02629441 0.2876 -0.01002681 0.02802443 0.2850049 -0.009913384 0.02629274 0.2876025 -0.01025319 0.02801454 0.2850198 -0.01002657 0.02628779 0.2876099 -0.01047873 0.02799808 0.2850445 -0.01013934 0.02627956 0.2876222 -0.01070296 0.02797508 0.285079 0.01499998 0.02456104 0.2902 0.01239997 0.02456104 0.2902 0.01498019 0.02486318 0.2897468 0.01239007 0.02471214 0.2899734 0.01492094 0.02516305 0.2892971 0.01236045 0.02486205 0.2897485 0.01231139 0.02500969 0.2895271 0.01025319 0.02801454 0.2850198 0.01047873 0.02799808 0.2850445 0.01013934 0.02627956 0.2876222 0.01070296 0.02797508 0.285079 0.01025146 0.02626806 0.2876395 0.01092547 0.02794557 0.2851232 0.01036274 0.02625334 0.2876616 0.01114583 0.02790963 0.2851772 0.01047289 0.02623534 0.2876886 0.01136362 0.02786725 0.2852407 0.01058179 0.02621418 0.2877203 -0.01239997 0.02456104 0.2902 -0.01499998 0.02456104 0.2902 -0.01239007 0.02471214 0.2899734 -0.01498019 0.02486318 0.2897468 -0.01236045 0.02486205 0.2897485 -0.01492094 0.02516305 0.2892971 -0.01231139 0.02500969 0.2895271 -0.01224315 0.02515387 0.2893108 -0.01092547 0.02794557 0.2851232 -0.01025146 0.02626806 0.2876395 -0.01114583 0.02790963 0.2851772 -0.01036274 0.02625334 0.2876616 -0.01136362 0.02786725 0.2852407 -0.01047289 0.02623534 0.2876886 -0.0115785 0.02781867 0.2853136 -0.01058179 0.02621418 0.2877203 -0.01178991 0.02776384 0.2853958 -0.01068919 0.02618986 0.2877568 -0.01199758 0.02770292 0.2854872 0.0115785 0.02781867 0.2853136 0.01178991 0.02776384 0.2853958 0.01068919 0.02618986 0.2877568 0.01199758 0.02770292 0.2854872 0.01079493 0.02616244 0.2877979 0.01220107 0.02763605 0.2855876 0.01089876 0.02613198 0.2878436 0.01239997 0.02756327 0.2856966 0.01100051 0.02609854 0.2878938 0.01259392 0.02748483 0.2858144 0.01109999 0.02606219 0.2879483 0.01278257 0.02740079 0.2859404 0.01119697 0.02602297 0.2880071 0.01296555 0.02731138 0.2860745 0.01129126 0.02598094 0.2880702 0.01314246 0.02721667 0.2862166 0.01138275 0.02593618 0.2881373 0.01147121 0.02588886 0.2882083 -0.01220107 0.02763605 0.2855876 -0.01079493 0.02616244 0.2877979 -0.01239997 0.02756327 0.2856966 -0.01089876 0.02613198 0.2878436 -0.01259392 0.02748483 0.2858144 -0.01100051 0.02609854 0.2878938 -0.01278257 0.02740079 0.2859404 -0.01109999 0.02606219 0.2879483 -0.01296555 0.02731138 0.2860745 -0.01119697 0.02602297 0.2880071 -0.01314246 0.02721667 0.2862166 -0.01129126 0.02598094 0.2880702 -0.01138275 0.02593618 0.2881373</float_array>
          <technique_common>
            <accessor source="#chassis_default_as_machined__20-mesh-positions-array" count="340" stride="3">
              <param name="X" type="float"/>
              <param name="Y" type="float"/>
              <param name="Z" type="float"/>
            </accessor>
          </technique_common>
        </source>
        <source id="chassis_default_as_machined__20-mesh-normals">
          <float_array id="chassis_default_as_machined__20-mesh-normals-array" count="1419">0 1 0 0 1 4.94001e-5 0 1 -2.46995e-5 0 1 -4.93983e-5 0 1 1.8524e-5 0 1 3.47325e-6 0 1 2.46984e-5 0 1 -4.93961e-5 0 1 4.93986e-5 0 1 9.87953e-5 0 1 -4.9397e-5 0 1 2.46995e-5 0 1 4.9397e-5 0 1 -1.85242e-5 0 1 -3.47325e-6 0 1 -2.46984e-5 0 1 4.93961e-5 0 1 -4.93986e-5 0 1 -9.87947e-5 0 -1 0 0 -1 6.17481e-6 0 -1 -6.1745e-6 0 -1 1.23503e-5 0 -1 -6.17477e-6 0 -1 -6.17472e-6 0 -1 6.17463e-6 0 -1 -1.23493e-5 0 -1 -3.08723e-6 0 -1 1.23498e-5 0 -1 -3.08747e-6 0 -1 -6.17482e-6 0 -1 3.0873e-6 0 -1 -3.08744e-6 0 -1 6.17494e-6 0 -1 7.71843e-7 0 -1 -3.85922e-7 0 -1 0 0 -1 -7.71841e-7 0 -1 7.71848e-7 0 -1 3.08732e-6 0 -1 -3.08741e-6 0 -1 6.17459e-6 0 -1 -6.17494e-6 0 -1 3.08746e-6 0 -1 6.17471e-6 0 -1 -6.17501e-6 0 -1 6.17464e-6 0 -1 -1.23487e-5 0 -1 -6.17451e-6 0 -1 6.17481e-6 3.28497e-4 -0.8320518 -0.5546978 2.055e-5 -0.8320665 -0.5546759 0 -0.8320637 -0.5546801 2.05508e-5 -0.8320531 -0.554696 -4.11006e-5 -0.8320409 -0.5547145 4.11029e-5 -0.8320409 -0.5547145 -4.11017e-5 -0.8320582 -0.5546883 4.11013e-5 -0.8320488 -0.5547026 -8.22032e-5 -0.8320456 -0.5547073 0 -0.8320464 -0.5547062 8.22051e-5 -0.832044 -0.5547097 8.2202e-5 -0.8320511 -0.554699 0 -0.8320542 -0.5546943 -8.34729e-5 -0.8320584 -0.5546882 0 -0.832044 -0.5547096 -8.34762e-5 -0.8320439 -0.5547099 2.03954e-5 -0.8320488 -0.5547026 -4.17371e-5 -0.8320456 -0.5547074 2.03963e-5 -0.832039 -0.5547173 -4.17368e-5 -0.8320624 -0.5546821 2.03954e-5 -0.8320472 -0.5547049 0 -0.8320527 -0.5546966 -1.01973e-5 -0.8320608 -0.5546845 -1.64248e-4 -0.8320519 -0.5546978 3.285e-4 -0.8320499 -0.5547008 0 -0.8320515 -0.5546985 -1.64249e-4 -0.8320525 -0.5546969 3.285e-4 -0.8320487 -0.5547026 -1.64248e-4 -0.8320547 -0.5546937 3.28503e-4 -0.8320467 -0.5547055 0 -0.8320547 -0.5546937 -3.28502e-4 -0.8320432 -0.5547108 8.2124e-5 -0.8320496 -0.5547014 0 -0.8320505 -0.5547 0 -0.8320506 -0.5546998 0 -0.8320493 -0.5547017 -1.0276e-5 -0.8320379 -0.5547189 0 -0.8320408 -0.5547145 4.11003e-5 -0.832057 -0.5546901 0 -0.8320756 -0.5546622 -3.08274e-5 -0.8320204 -0.5547452 -1.64249e-4 -0.8320516 -0.5546985 3.28502e-4 -0.8320432 -0.5547108 -8.2124e-5 -0.8320496 -0.5547014 0 -0.832048 -0.5547038 0 -0.8320528 -0.5546967 1.64247e-4 -0.8320551 -0.5546931 -8.21249e-5 -0.8320487 -0.5547026 -1.64258e-4 -0.8320378 -0.5547192 8.21226e-5 -0.8320558 -0.5546919 0 -0.8320535 -0.5546955 0 -0.8320507 -0.5546997 0 -0.8320504 -0.5547001 0 -0.832028 -0.5547338 5.13777e-6 -0.8320543 -0.5546942 4.57562e-6 -0.8320573 -0.5546897 -1.02755e-5 -0.8320404 -0.554715 2.05499e-5 -0.8320759 -0.554662 -2.05507e-5 -0.8320547 -0.5546937 2.05515e-5 -0.8320187 -0.5547477 -1.04338e-5 -0.8320759 -0.5546618 -8.1969e-5 -0.8320472 -0.5547049 1.64877e-4 -0.8320519 -0.5546979 -8.19696e-5 -0.8320479 -0.5547038 1.64872e-4 -0.8320567 -0.5546907 -1.63933e-4 -0.8320622 -0.5546825 3.29772e-4 -0.8320248 -0.5547382 -8.19691e-5 -0.8320535 -0.5546955 1.6488e-4 -0.8320456 -0.5547074 -8.19686e-5 -0.8320425 -0.5547121 0 -0.8320646 -0.5546788 8.19683e-5 -0.8320503 -0.5547002 0 -0.8320472 -0.554705 8.19686e-5 -0.8320425 -0.5547121 -8.19683e-5 -0.8320503 -0.5547002 1.64871e-4 -0.8320726 -0.5546669 -1.64893e-4 -0.8320091 -0.5547621 0 -0.8320425 -0.5547121 0 -0.8320693 -0.5546717 2.45896e-4 -0.8320646 -0.5546789 -1.64877e-4 -0.8320599 -0.554686 0 -0.832044 -0.5547097 -3.29775e-4 -0.8320217 -0.5547429 0 -0.8320392 -0.5547168 0 -0.8320599 -0.554686 1.63937e-4 -0.8320567 -0.5546907 -1.64871e-4 -0.8320726 -0.5546669 4.09836e-5 -0.8320519 -0.5546979 1.66156e-4 -0.832028 -0.5547338 -1.23304e-4 -0.8320629 -0.5546815 -8.16596e-5 -0.832055 -0.5546932 -1.66134e-4 -0.8320631 -0.554681 8.16617e-5 -0.8320457 -0.5547073 0 -0.8320024 -0.5547721 -1.63311e-4 -0.8320676 -0.5546743 0 -0.8320631 -0.554681 1.63321e-4 -0.8320441 -0.5547096 -1.66142e-4 -0.8320599 -0.5546858 8.16609e-5 -0.8320425 -0.554712 1.66156e-4 -0.8320152 -0.554753 -1.63318e-4 -0.8320581 -0.5546884 0 -0.8320567 -0.5546906 0 -0.8320551 -0.5546932 0 -0.83206 -0.5546857 -9.34629e-5 -0.8320223 -0.5547425 -0.9990484 0 -0.0436173 -0.999048 0 -0.04362571 -0.991448 0 -0.1305025 -0.9914382 0 -0.1305776 -0.976308 0 -0.2163856 -0.9762991 0 -0.2164264 -0.9537023 0 -0.3007525 -0.9537198 0 -0.300697 -0.9238668 0 -0.3827144 -0.9238951 0 -0.382646 -0.8869865 0 -0.4617955 -0.8870276 0 -0.4617164 -0.8434542 0 -0.5372012 -0.8433426 0 -0.5373763 -0.7933605 0 -0.6087521 -0.7372168 0 -0.6756563 -0.737305 0 -0.6755601 -0.6755462 0 -0.7373176 -0.6756513 0 -0.7372214 -0.608692 0 -0.7934066 -0.6088137 0 -0.7933133 -0.5373362 0 -0.8433681 -0.5371988 0 -0.8434557 -0.4619426 0 -0.8869099 -0.4616386 0 -0.8870682 -0.3825962 0 -0.9239157 -0.3827611 0 -0.9238474 -0.3008349 0 -0.9536764 -0.3006591 0 -0.9537317 -0.2164108 0 -0.9763024 -0.1306172 0 -0.9914329 -0.1304273 0 -0.9914579 -0.04366827 0 -0.9990462 -0.04366827 0 -0.9990461 -1 0 0 -1 0 0 0.04366827 0 0.9990461 0.04357182 0 0.9990503 0.130617 0 0.9914329 0.130522 0 0.9914455 0.2164108 0 0.9763024 0.2163187 0 0.9763229 0.3008349 0 0.9536764 0.300747 0 0.953704 0.3826786 0 0.9238815 0.3826786 0 0.9238815 0.4617146 0 0.8870285 0.4617146 0 0.8870286 0.5373371 0 0.8433676 0.5372684 0 0.8434113 0.6087539 0 0.7933592 0.6755967 0 0.7372714 0.6755968 0 0.7372713 0.737262 0 0.6756071 0.7933964 0 0.6087055 0.7933605 0 0.6087521 0.8433426 0 0.5373763 0.8433985 0 0.5372888 0.8870062 0 0.4617576 0.8870269 0 0.4617181 0.9238675 0 0.3827126 0.9238817 0 0.3826785 0.953711 0 0.3007248 0.9537285 0 0.3006694 0.9762991 0 0.2164264 0.9762945 0 0.2164468 0.9914444 0 0.1305296 0.991446 0 0.1305171 0.9990484 0 0.04361742 0.9990482 0 0.04362159 0 0 1 -0.9990482 0 0.04362159 -0.9990484 0 0.04361742 -0.991446 0 0.1305171 -0.9914444 0 0.1305296 -0.9762945 0 0.2164468 -0.9762989 0 0.2164263 -0.9537285 0 0.3006694 -0.953711 0 0.3007248 -0.9238816 0 0.3826785 -0.9238675 0 0.3827126 -0.8870269 0 0.461718 -0.8870062 0 0.4617576 -0.8433984 0 0.5372887 -0.8433427 0 0.5373764 -0.7933605 0 0.6087521 -0.7933964 0 0.6087055 -0.737262 0 0.6756071 -0.6755967 0 0.7372714 -0.6755968 0 0.7372713 -0.6087539 0 0.7933592 -0.5372684 0 0.8434113 -0.5373371 0 0.8433676 -0.4617146 0 0.8870285 -0.4617146 0 0.8870286 -0.3826786 0 0.9238815 -0.3826786 0 0.9238815 -0.300747 0 0.953704 -0.3008349 0 0.9536764 -0.2163187 0 0.9763229 -0.2164108 0 0.9763024 -0.130522 0 0.9914454 -0.1306169 0 0.9914329 -0.04357182 0 0.9990503 -0.04366827 0 0.9990462 0 0 -1 0.04366827 0 -0.9990462 0.04366827 0 -0.9990461 0.1304273 0 -0.9914579 0.1306172 0 -0.9914329 0.2164108 0 -0.9763024 0.3006591 0 -0.9537317 0.3008349 0 -0.9536764 0.3827611 0 -0.9238474 0.3825962 0 -0.9239158 0.4616386 0 -0.8870682 0.4619426 0 -0.8869099 0.5371988 0 -0.8434557 0.5373362 0 -0.8433681 0.6088137 0 -0.7933133 0.608692 0 -0.7934066 0.6756513 0 -0.7372214 0.6755462 0 -0.7373176 0.737305 0 -0.6755601 0.7372168 0 -0.6756563 0.7933605 0 -0.6087521 0.8433427 0 -0.5373764 0.8434542 0 -0.5372012 0.8870276 0 -0.4617164 0.8869865 0 -0.4617956 0.9238951 0 -0.3826461 0.9238668 0 -0.3827143 0.9537198 0 -0.300697 0.9537023 0 -0.3007525 0.9762989 0 -0.2164263 0.976308 0 -0.2163856 0.9914382 0 -0.1305776 0.991448 0 -0.1305025 0.999048 0 -0.04362571 0.9990484 0 -0.0436173 1 0 0 1 0 0 0.1306365 0 -0.9914304 0.1518851 6.29866e-5 -0.9883983 0.1089875 0 -0.9940432 0.04362684 0 -0.9990479 0.065485 6.30797e-5 -0.9978536 0.02168047 0 -0.999765 0.3007216 0 -0.953712 0.3211511 6.2869e-5 -0.9470281 0.2802986 0 -0.9599129 0.2164211 0 -0.9763001 0.2375974 6.2973e-5 -0.9713638 0.1948668 0 -0.9808297 0.461647 0 -0.8870638 0.4813536 6.27977e-5 -0.8765267 0.442041 0 -0.8969949 0.3826767 0 -0.9238823 0.4026484 6.29888e-5 -0.9153548 0.362644 0 -0.9319279 0.6260952 6.28525e-5 -0.7797467 0.5913534 0 -0.8064126 0.5373168 0 -0.8433806 0.5555261 6.26884e-5 -0.8314992 0.5188131 0 -0.8548877 0.6087414 0 -0.7933689 0.6756271 0 -0.7372435 0.6755478 0 -0.7373163 0.7373195 0 -0.6755442 0.7372244 0 -0.6756481 0.7933413 0 -0.6087772 0.793357 0 -0.6087567 0.8434014 0 -0.537284 0.8433985 0 -0.5372887 0.8870275 0 -0.4617167 0.8869947 0 -0.4617797 0.9239007 0 -0.3826327 0.9238444 0 -0.3827682 0.9537204 0 -0.300695 0.9537227 0 -0.3006876 0.9762976 0 -0.2164325 0.9762949 0 -0.2164445 0.9914454 0 -0.130523 0.9914434 0 -0.1305376 0.9990481 0 -0.04362201 0.9990485 0 -0.04361474 -0.9990485 0 -0.04361474 -0.9990481 0 -0.04362201 -0.9914434 0 -0.1305376 -0.9914454 0 -0.130523 -0.9762949 0 -0.2164445 -0.9762976 0 -0.2164325 -0.9537227 0 -0.3006876 -0.9537204 0 -0.300695 -0.9238596 0 -0.3827318 -0.9238855 0 -0.3826692 -0.8869727 0 -0.461822 -0.8870495 0 -0.4616743 -0.8433985 0 -0.5372887 -0.8434014 0 -0.537284 -0.7933186 0 -0.6088067 -0.7933798 0 -0.6087271 -0.7372717 0 -0.6755963 -0.7372721 0 -0.6755959 -0.6756044 0 -0.7372645 -0.6755706 0 -0.7372954 -0.5373402 0 -0.8433656 -0.5188559 6.26183e-5 -0.8548619 -0.5553988 0 -0.8315841 -0.6087954 0 -0.7933273 -0.5914659 6.27816e-5 -0.8063302 -0.6259067 0 -0.7798979 -0.3826497 0 -0.9238935 -0.3626326 6.29341e-5 -0.9319322 -0.4027346 0 -0.9153169 -0.461723 0 -0.8870242 -0.4420779 6.27634e-5 -0.8969768 -0.4811421 0 -0.8766427 -0.2164074 0 -0.9763032 -0.1952564 6.29433e-5 -0.9807522 -0.2372969 0 -0.9714372 -0.3007849 0 -0.953692 -0.2799679 6.28235e-5 -0.9600095 -0.3213447 0 -0.9469623 -0.04363048 0 -0.9990478 -0.02175688 6.30745e-5 -0.9997633 -0.06547677 0 -0.9978542 -0.1304631 0 -0.9914532 -0.1089649 6.29678e-5 -0.9940457 -0.1523147 0 -0.9883321 0.1303746 0 0.9914649 0.1526945 -3.1241e-5 0.9882735 0.1084287 0 0.9941043 0.04346293 0 0.9990551 0.06580144 -3.11928e-5 0.9978328 0.02176547 0 0.9997632 0.3005501 0 0.9537661 0.3214481 -3.12727e-5 0.9469272 0.2800512 0 0.9599851 0.2162178 0 0.9763452 0.2379166 -3.0965e-5 0.9712856 0.1952562 0 0.9807523 0.4617128 0 0.8870295 0.4811828 -3.10974e-5 0.8766204 0.4420157 0 0.8970074 0.3827118 0 0.9238678 0.4024726 -3.09177e-5 0.9154321 0.3629143 0 0.9318226 0.6253215 -3.10151e-5 0.7803674 0.5916778 0 0.8061745 0.5371357 0 0.8434959 0.5560336 -3.12712e-5 0.83116 0.5187525 0 0.8549245 0.6087914 0 0.7933304 0.6756502 0 0.7372223 0.6755268 0 0.7373355 0.7372231 0 0.6756494 0.7373641 0 0.6754956 0.7933483 0 0.6087682 0.7933561 0 0.6087579 0.8433998 0 0.5372867 0.843324 0 0.5374056 0.8870106 0 0.4617492 0.8870271 0 0.4617173 0.9238817 0 0.3826786 0.9239138 0 0.3826007 0.9536979 0 0.3007665 0.953713 0 0.3007186 0.976304 0 0.2164036 0.9763004 0 0.2164205 0.9914435 0 0.1305366 0.9914453 0 0.1305239 0.9990477 0 0.04363137 0.9990483 0 0.04361885 -0.9990483 0 0.04361885 -0.9990477 0 0.04363137 -0.9914453 0 0.1305239 -0.9914435 0 0.1305366 -0.9763004 0 0.2164205 -0.976304 0 0.2164036 -0.953713 0 0.3007186 -0.9536979 0 0.3007665 -0.9238837 0 0.3826734 -0.9239117 0 0.3826057 -0.8870272 0 0.4617174 -0.8870105 0 0.4617492 -0.843324 0 0.5374056 -0.8433998 0 0.5372867 -0.7933561 0 0.608758 -0.7933483 0 0.6087681 -0.73727 0 0.6755983 -0.7373173 0 0.6755467 -0.6756389 0 0.7372328 -0.6755381 0 0.7373251 -0.537478 0 0.8432778 -0.5181732 -3.128e-5 0.8552758 -0.5558276 0 0.8312976 -0.6086232 0 0.7934595 -0.5917333 -3.0966e-5 0.8061338 -0.6256776 0 0.7800819 -0.3826544 0 0.9238916 -0.362922 -3.08928e-5 0.9318196 -0.4026886 0 0.915337 -0.4618725 0 0.8869464 -0.4422001 -3.10887e-5 0.8969164 -0.4805649 0 0.8769592 -0.2164576 0 0.976292 -0.1948619 -3.09614e-5 0.9808307 -0.2378655 0 0.9712982 -0.3010047 0 0.9536228 -0.2796016 -3.12658e-5 0.9601161 -0.3211227 0 0.9470376 -0.04367136 0 0.999046 -0.02193355 -3.11923e-5 0.9997594 -0.06538528 0 0.9978601 -0.1307974 0 0.9914091 -0.1075996 -3.12439e-5 0.9941943 -0.1525323 0 0.9882986</float_array>
          <technique_common>
            <accessor source="#chassis_default_as_machined__20-mesh-normals-array" count="473" stride="3">
              <param name="X" type="float"/>
              <param name="Y" type="float"/>
              <param name="Z" type="float"/>
            </accessor>
          </technique_common>
        </source>
        <vertices id="chassis_default_as_machined__20-mesh-vertices">
          <input semantic="POSITION" source="#chassis_default_as_machined__20-mesh-positions"/>
        </vertices>
        <triangles count="680">
          <input semantic="VERTEX" source="#chassis_default_as_machined__20-mesh-vertices" offset="0"/>
          <input semantic="NORMAL" source="#chassis_default_as_machined__20-mesh-normals" offset="1"/>
          <p>0 0 1 0 2 0 1 0 3 0 2 0 2 0 3 0 4 0 3 0 5 0 4 0 4 0 5 0 6 0 5 0 7 0 6 0 6 0 7 0 8 0 7 0 9 0 8 0 8 0 9 0 10 0 9 0 11 0 10 0 10 0 11 0 12 0 11 0 13 0 12 0 12 0 13 0 14 0 13 1 15 1 14 1 14 0 15 0 16 0 15 0 17 0 16 0 16 0 17 0 18 0 17 0 19 0 18 0 18 0 19 0 20 0 19 0 21 0 20 0 20 0 21 0 22 0 21 0 23 0 22 0 22 0 23 0 24 0 23 0 25 0 24 0 24 0 25 0 26 0 25 0 27 0 26 0 26 0 27 0 28 0 27 2 29 2 28 2 28 0 29 0 30 0 29 0 31 0 30 0 30 0 31 0 32 0 31 0 33 0 32 0 32 0 33 0 34 0 33 0 35 0 34 0 34 3 35 3 36 3 35 4 37 4 36 4 36 0 37 0 38 0 37 0 39 0 38 0 38 0 39 0 40 0 39 0 41 0 40 0 40 0 41 0 42 0 41 0 43 0 42 0 42 5 43 5 44 5 43 0 45 0 44 0 44 0 45 0 46 0 45 0 47 0 46 0 46 6 47 6 48 6 47 0 49 0 48 0 48 0 49 0 50 0 49 0 51 0 50 0 50 7 51 7 52 7 51 0 53 0 52 0 52 0 53 0 54 0 53 0 55 0 54 0 54 8 55 8 56 8 55 0 57 0 56 0 56 0 57 0 58 0 57 0 59 0 58 0 58 0 59 0 60 0 59 0 61 0 60 0 60 0 61 0 62 0 61 0 63 0 62 0 62 0 63 0 64 0 63 0 65 0 64 0 64 9 65 9 66 9 65 0 67 0 66 0 66 0 67 0 68 0 67 0 69 0 68 0 68 0 69 0 70 0 69 0 71 0 70 0 70 0 71 0 72 0 71 0 73 0 72 0 72 0 73 0 74 0 73 0 75 0 74 0 74 0 75 0 76 0 75 0 77 0 76 0 76 0 77 0 78 0 77 0 79 0 78 0 78 0 79 0 80 0 79 0 81 0 80 0 80 0 81 0 82 0 81 0 83 0 82 0 82 0 83 0 84 0 83 0 85 0 84 0 84 0 85 0 86 0 85 0 87 0 86 0 86 0 87 0 88 0 87 0 89 0 88 0 88 0 89 0 90 0 89 10 91 10 90 10 90 0 91 0 92 0 91 0 93 0 92 0 92 0 93 0 94 0 93 0 95 0 94 0 94 0 95 0 96 0 95 0 97 0 96 0 96 0 97 0 98 0 97 0 99 0 98 0 98 0 99 0 100 0 99 0 101 0 100 0 100 0 101 0 102 0 101 0 103 0 102 0 102 0 103 0 104 0 103 11 105 11 104 11 104 0 105 0 106 0 105 0 107 0 106 0 106 0 107 0 108 0 107 0 109 0 108 0 108 0 109 0 110 0 109 0 111 0 110 0 110 12 111 12 112 12 111 13 113 13 112 13 112 0 113 0 114 0 113 0 115 0 114 0 114 0 115 0 116 0 115 0 117 0 116 0 116 0 117 0 118 0 117 0 119 0 118 0 118 14 119 14 120 14 119 0 121 0 120 0 120 0 121 0 122 0 121 0 123 0 122 0 122 15 123 15 124 15 123 0 125 0 124 0 124 0 125 0 126 0 125 0 127 0 126 0 126 16 127 16 128 16 127 0 129 0 128 0 128 0 129 0 130 0 129 0 131 0 130 0 130 17 131 17 132 17 131 0 133 0 132 0 132 0 133 0 134 0 133 0 135 0 134 0 134 0 135 0 136 0 135 0 137 0 136 0 136 0 137 0 138 0 137 0 139 0 138 0 138 0 139 0 140 0 139 0 141 0 140 0 140 18 141 18 142 18 141 0 143 0 142 0 142 0 143 0 144 0 143 0 145 0 144 0 144 0 145 0 146 0 145 0 147 0 146 0 146 0 147 0 148 0 147 0 149 0 148 0 148 0 149 0 150 0 149 0 151 0 150 0 150 0 151 0 0 0 151 0 1 0 0 0 152 19 153 19 154 19 153 19 155 19 154 19 154 19 155 19 156 19 155 20 157 20 156 20 156 19 157 19 158 19 157 21 159 21 158 21 158 19 159 19 160 19 159 19 161 19 160 19 160 22 161 22 162 22 161 23 163 23 162 23 162 19 163 19 164 19 163 24 165 24 164 24 164 19 165 19 166 19 165 25 167 25 166 25 166 26 167 26 168 26 167 19 169 19 168 19 168 19 169 19 170 19 169 27 171 27 170 27 170 28 171 28 172 28 171 29 173 29 172 29 172 19 173 19 174 19 173 19 175 19 174 19 174 30 175 30 176 30 175 19 177 19 176 19 176 19 177 19 178 19 177 31 179 31 178 31 178 19 179 19 180 19 179 32 181 32 180 32 180 33 181 33 182 33 181 19 183 19 182 19 182 19 183 19 184 19 183 19 185 19 184 19 184 19 185 19 186 19 185 34 187 34 186 34 186 19 187 19 188 19 187 35 189 35 188 35 188 19 189 19 190 19 189 19 191 19 190 19 190 19 191 19 192 19 191 19 193 19 192 19 192 19 193 19 194 19 193 19 195 19 194 19 194 36 195 36 196 36 195 37 197 37 196 37 196 38 197 38 198 38 197 19 199 19 198 19 198 19 199 19 200 19 199 19 201 19 200 19 200 19 201 19 202 19 201 19 203 19 202 19 202 19 203 19 204 19 203 19 205 19 204 19 204 19 205 19 206 19 205 39 207 39 206 39 206 19 207 19 208 19 207 40 209 40 208 40 208 41 209 41 210 41 209 19 211 19 210 19 210 42 211 42 212 42 211 43 213 43 212 43 212 19 213 19 214 19 213 19 215 19 214 19 214 44 215 44 216 44 215 45 217 45 216 45 216 19 217 19 218 19 217 46 219 46 218 46 218 47 219 47 220 47 219 44 221 44 220 44 220 19 221 19 222 19 221 19 223 19 222 19 222 19 223 19 224 19 223 19 225 19 224 19 224 19 225 19 226 19 225 48 227 48 226 48 226 19 227 19 228 19 227 49 229 49 228 49 228 19 229 19 230 19 229 19 231 19 230 19 232 50 233 50 234 50 235 51 236 51 237 51 236 52 238 52 237 52 237 53 238 53 239 53 238 54 240 54 239 54 239 55 240 55 241 55 240 56 242 56 241 56 241 57 242 57 243 57 242 58 244 58 243 58 243 59 244 59 245 59 244 60 246 60 245 60 245 61 246 61 247 61 248 62 249 62 250 62 249 63 251 63 250 63 250 64 251 64 252 64 251 65 253 65 252 65 252 66 253 66 254 66 253 67 255 67 254 67 254 68 255 68 256 68 255 69 257 69 256 69 256 70 257 70 258 70 257 71 259 71 258 71 258 72 259 72 260 72 234 73 233 73 261 73 233 74 262 74 261 74 261 75 262 75 263 75 262 75 264 75 263 75 263 76 264 76 265 76 264 77 266 77 265 77 265 78 266 78 267 78 266 79 268 79 267 79 267 80 268 80 269 80 268 81 270 81 269 81 269 82 270 82 271 82 153 83 152 83 272 83 152 84 273 84 272 84 272 85 273 85 274 85 273 86 275 86 274 86 274 87 275 87 276 87 275 88 277 88 276 88 276 80 277 80 235 80 277 89 278 89 235 89 235 90 278 90 236 90 234 91 279 91 232 91 279 80 280 80 232 80 232 92 280 92 281 92 280 93 282 93 281 93 281 94 282 94 283 94 282 95 284 95 283 95 283 96 284 96 285 96 284 97 286 97 285 97 285 98 286 98 287 98 286 99 288 99 287 99 287 100 288 100 289 100 230 101 231 101 290 101 231 102 291 102 290 102 290 103 291 103 292 103 291 104 293 104 292 104 292 105 293 105 294 105 293 106 295 106 294 106 294 107 295 107 296 107 295 108 260 108 296 108 296 109 260 109 297 109 260 110 259 110 297 110 271 111 270 111 298 111 270 112 299 112 298 112 298 113 299 113 300 113 299 114 301 114 300 114 300 115 301 115 302 115 301 116 303 116 302 116 302 117 303 117 304 117 303 118 305 118 304 118 304 119 305 119 306 119 305 120 307 120 306 120 306 121 307 121 308 121 288 122 309 122 289 122 309 123 310 123 289 123 289 120 310 120 311 120 310 124 312 124 311 124 311 125 312 125 313 125 312 121 314 121 313 121 313 126 314 126 315 126 314 127 316 127 315 127 315 128 316 128 317 128 316 129 318 129 317 129 317 130 318 130 319 130 318 131 320 131 319 131 319 132 320 132 321 132 320 133 322 133 321 133 321 134 322 134 323 134 322 135 324 135 323 135 323 136 324 136 325 136 324 137 247 137 325 137 325 138 247 138 326 138 247 139 246 139 326 139 308 140 307 140 327 140 307 141 328 141 327 141 327 142 328 142 329 142 328 143 330 143 329 143 329 144 330 144 331 144 330 145 332 145 331 145 331 146 332 146 333 146 332 147 334 147 333 147 333 148 334 148 335 148 334 149 336 149 335 149 335 150 336 150 337 150 336 151 338 151 337 151 337 152 338 152 248 152 338 153 339 153 248 153 248 154 339 154 249 154 0 155 154 155 150 155 154 156 156 156 150 156 150 157 156 157 148 157 156 158 158 158 148 158 148 159 158 159 146 159 158 160 160 160 146 160 146 161 160 161 144 161 160 162 162 162 144 162 144 163 162 163 142 163 162 164 164 164 142 164 142 165 164 165 140 165 164 166 166 166 140 166 140 167 166 167 138 167 166 168 168 168 138 168 138 169 168 169 136 169 168 169 170 169 136 169 136 170 170 170 134 170 170 171 172 171 134 171 134 172 172 172 132 172 172 173 174 173 132 173 132 174 174 174 130 174 174 175 176 175 130 175 130 176 176 176 128 176 176 177 178 177 128 177 128 178 178 178 126 178 178 179 180 179 126 179 126 180 180 180 124 180 180 181 182 181 124 181 124 182 182 182 122 182 182 183 184 183 122 183 122 184 184 184 120 184 184 184 186 184 120 184 120 185 186 185 118 185 186 186 188 186 118 186 118 187 188 187 116 187 188 188 190 188 116 188 2 189 273 189 0 189 273 190 152 190 0 190 0 189 152 189 154 189 117 191 191 191 189 191 117 192 189 192 119 192 189 193 187 193 119 193 119 194 187 194 121 194 187 195 185 195 121 195 121 196 185 196 123 196 185 197 183 197 123 197 123 198 183 198 125 198 183 199 181 199 125 199 125 200 181 200 127 200 181 201 179 201 127 201 127 202 179 202 129 202 179 203 177 203 129 203 129 204 177 204 131 204 177 205 175 205 131 205 131 205 175 205 133 205 175 206 173 206 133 206 133 207 173 207 135 207 173 208 171 208 135 208 135 208 171 208 137 208 171 209 169 209 137 209 137 210 169 210 139 210 169 211 167 211 139 211 139 212 167 212 141 212 167 213 165 213 141 213 141 214 165 214 143 214 165 215 163 215 143 215 143 216 163 216 145 216 163 217 161 217 145 217 145 218 161 218 147 218 161 219 159 219 147 219 147 220 159 220 149 220 159 221 157 221 149 221 149 222 157 222 151 222 157 223 155 223 151 223 151 224 155 224 1 224 193 225 191 225 115 225 191 225 117 225 115 225 77 189 291 189 79 189 291 190 231 190 79 190 79 189 231 189 229 189 79 226 229 226 227 226 79 227 227 227 81 227 227 228 225 228 81 228 81 229 225 229 83 229 225 230 223 230 83 230 83 231 223 231 85 231 223 232 221 232 85 232 85 233 221 233 87 233 221 234 219 234 87 234 87 235 219 235 89 235 219 236 217 236 89 236 89 237 217 237 91 237 217 238 215 238 91 238 91 239 215 239 93 239 215 240 213 240 93 240 93 241 213 241 95 241 213 242 211 242 95 242 95 242 211 242 97 242 211 243 209 243 97 243 97 244 209 244 99 244 209 245 207 245 99 245 99 245 207 245 101 245 207 246 205 246 101 246 101 247 205 247 103 247 205 248 203 248 103 248 103 249 203 249 105 249 203 250 201 250 105 250 105 251 201 251 107 251 201 252 199 252 107 252 107 253 199 253 109 253 199 254 197 254 109 254 109 255 197 255 111 255 197 256 195 256 111 256 111 257 195 257 113 257 195 258 193 258 113 258 113 259 193 259 115 259 116 260 190 260 114 260 190 260 192 260 114 260 114 261 192 261 112 261 192 262 194 262 112 262 112 263 194 263 110 263 194 264 196 264 110 264 110 265 196 265 108 265 196 265 198 265 108 265 108 266 198 266 106 266 198 267 200 267 106 267 106 268 200 268 104 268 200 269 202 269 104 269 104 270 202 270 102 270 202 271 204 271 102 271 102 272 204 272 100 272 204 273 206 273 100 273 100 274 206 274 98 274 206 275 208 275 98 275 98 276 208 276 96 276 208 277 210 277 96 277 96 278 210 278 94 278 210 279 212 279 94 279 94 280 212 280 92 280 212 280 214 280 92 280 92 281 214 281 90 281 214 282 216 282 90 282 90 283 216 283 88 283 216 284 218 284 88 284 88 285 218 285 86 285 218 286 220 286 86 286 86 287 220 287 84 287 220 288 222 288 84 288 84 289 222 289 82 289 222 290 224 290 82 290 82 291 224 291 80 291 224 292 226 292 80 292 80 293 226 293 78 293 226 294 228 294 78 294 290 295 76 295 230 295 76 296 78 296 230 296 230 295 78 295 228 295 272 295 3 295 153 295 3 296 1 296 153 296 153 295 1 295 155 295 37 297 35 297 282 297 282 298 280 298 37 298 280 299 279 299 37 299 37 300 279 300 39 300 279 301 234 301 39 301 39 302 234 302 261 302 33 303 31 303 309 303 309 304 288 304 33 304 288 305 286 305 33 305 33 306 286 306 35 306 286 307 284 307 35 307 35 308 284 308 282 308 29 309 27 309 316 309 316 310 314 310 29 310 314 311 312 311 29 311 29 312 312 312 31 312 312 313 310 313 31 313 31 314 310 314 309 314 324 315 322 315 25 315 322 316 320 316 25 316 25 317 320 317 27 317 320 318 318 318 27 318 27 319 318 319 316 319 25 320 23 320 324 320 23 321 21 321 324 321 324 322 21 322 247 322 21 323 19 323 247 323 247 324 19 324 245 324 19 325 17 325 245 325 245 326 17 326 243 326 17 327 15 327 243 327 243 328 15 328 241 328 15 329 13 329 241 329 241 330 13 330 239 330 13 331 11 331 239 331 239 332 11 332 237 332 11 333 9 333 237 333 237 334 9 334 235 334 9 335 7 335 235 335 235 336 7 336 276 336 7 337 5 337 276 337 276 338 5 338 274 338 5 339 3 339 274 339 274 340 3 340 272 340 261 260 263 260 39 260 263 260 41 260 39 260 291 341 77 341 75 341 291 342 75 342 293 342 75 343 73 343 293 343 293 344 73 344 295 344 73 345 71 345 295 345 295 346 71 346 260 346 71 347 69 347 260 347 260 348 69 348 258 348 69 349 67 349 258 349 258 350 67 350 256 350 67 351 65 351 256 351 256 352 65 352 254 352 65 353 63 353 254 353 254 354 63 354 252 354 63 355 61 355 252 355 252 356 61 356 250 356 61 357 59 357 250 357 250 358 59 358 248 358 59 359 57 359 248 359 248 360 57 360 337 360 55 361 53 361 329 361 329 362 331 362 55 362 331 363 333 363 55 363 55 364 333 364 57 364 333 365 335 365 57 365 57 366 335 366 337 366 51 367 49 367 304 367 304 368 306 368 51 368 306 369 308 369 51 369 51 370 308 370 53 370 308 371 327 371 53 371 53 372 327 372 329 372 47 373 45 373 271 373 271 374 298 374 47 374 298 375 300 375 47 375 47 376 300 376 49 376 300 377 302 377 49 377 49 378 302 378 304 378 43 379 41 379 263 379 263 380 265 380 43 380 265 381 267 381 43 381 43 382 267 382 45 382 267 383 269 383 45 383 45 384 269 384 271 384 42 385 44 385 299 385 299 386 270 386 42 386 270 387 268 387 42 387 42 388 268 388 40 388 268 389 266 389 40 389 40 390 266 390 264 390 46 391 48 391 307 391 307 392 305 392 46 392 305 393 303 393 46 393 46 394 303 394 44 394 303 395 301 395 44 395 44 396 301 396 299 396 50 397 52 397 334 397 334 398 332 398 50 398 332 399 330 399 50 399 50 400 330 400 48 400 330 401 328 401 48 401 48 402 328 402 307 402 249 403 339 403 54 403 339 404 338 404 54 404 54 405 338 405 52 405 338 406 336 406 52 406 52 407 336 407 334 407 54 408 56 408 249 408 56 409 58 409 249 409 249 410 58 410 251 410 58 411 60 411 251 411 251 412 60 412 253 412 60 413 62 413 253 413 253 414 62 414 255 414 62 415 64 415 255 415 255 416 64 416 257 416 64 417 66 417 257 417 257 418 66 418 259 418 66 419 68 419 259 419 259 420 68 420 297 420 68 421 70 421 297 421 297 422 70 422 296 422 70 423 72 423 296 423 296 424 72 424 294 424 72 425 74 425 294 425 294 426 74 426 292 426 74 427 76 427 292 427 292 428 76 428 290 428 40 225 264 225 38 225 264 225 262 225 38 225 273 429 2 429 4 429 273 430 4 430 275 430 4 431 6 431 275 431 275 432 6 432 277 432 6 433 8 433 277 433 277 434 8 434 278 434 8 435 10 435 278 435 278 436 10 436 236 436 10 437 12 437 236 437 236 438 12 438 238 438 12 439 14 439 238 439 238 440 14 440 240 440 14 441 16 441 240 441 240 442 16 442 242 442 16 443 18 443 242 443 242 444 18 444 244 444 18 445 20 445 244 445 244 446 20 446 246 446 20 447 22 447 246 447 246 448 22 448 326 448 24 449 26 449 319 449 319 450 321 450 24 450 321 451 323 451 24 451 24 452 323 452 22 452 323 453 325 453 22 453 22 454 325 454 326 454 28 455 30 455 311 455 311 456 313 456 28 456 313 457 315 457 28 457 28 458 315 458 26 458 315 459 317 459 26 459 26 460 317 460 319 460 32 461 34 461 283 461 283 462 285 462 32 462 285 463 287 463 32 463 32 464 287 464 30 464 287 465 289 465 30 465 30 466 289 466 311 466 36 467 38 467 262 467 262 468 233 468 36 468 233 469 232 469 36 469 36 470 232 470 34 470 232 471 281 471 34 471 34 472 281 472 283 472</p>
        </triangles>
      </mesh>
    </geometry>
  </library_geometries>
  <library_visual_scenes>
    <visual_scene id="Scene" name="Scene">
      <node id="chassis_default_as_machined__20" name="chassis_default_as_machined__20" type="NODE">
        <matrix sid="transform">1 0 0 0 0 1 0 0 0 0 1 0 0 0 0 1</matrix>
        <instance_geometry url="#chassis_default_as_machined__20-mesh" name="chassis_default_as_machined__20"/>
      </node>
    </visual_scene>
  </library_visual_scenes>
  <scene>
    <instance_visual_scene url="#Scene"/>
  </scene>
</COLLADA>