<?xml version="1.0" encoding="utf-8"?>
<COLLADA xmlns="http://www.collada.org/2005/11/COLLADASchema" version="1.4.1" xmlns:xsi="http://www.w3.org/2001/XMLSchema-instance">
  <asset>
    <contributor>
      <author>Blender User</author>
      <authoring_tool>Blender 3.0.1</authoring_tool>
    </contributor>
    <created>2026-06-04T16:18:47</created>
    <modified>2026-06-04T16:18:47</modified>
    <unit name="meter" meter="1"/>
    <up_axis>Z_UP</up_axis>
  </asset>
  <library_images/>
  <library_geometries>
    <geometry id="chassis_to_trapezoid_rod__4-mesh" name="chassis_to_trapezoid_rod__4">
      <mesh>
        <source id="chassis_to_trapezoid_rod__4-mesh-positions">
          <float_array id="chassis_to_trapezoid_rod__4-mesh-positions-array" count="438">0 -0.03519767 0.03049999 8.71557e-4 -0.325 0.0304619 8.71557e-4 -0.03519767 0.0304619 0.001736462 -0.325 0.03034806 0.001736462 -0.03519767 0.03034806 0.002588152 -0.325 0.03015923 0.002588152 -0.03519767 0.03015923 0.003420174 -0.325 0.02989691 0.003420174 -0.03519767 0.02989691 0.004226148 -0.325 0.02956306 0.004226148 -0.03519767 0.02956306 0.004999995 -0.325 0.0291602 0.004999995 -0.03519767 0.0291602 0.005735754 -0.325 0.02869147 0.005735754 -0.03519767 0.02869147 0.006427824 -0.325 0.02816039 0.006427824 -0.03519767 0.02816039 0.007071018 -0.325 0.02757102 0.007071018 -0.03519767 0.02757102 0.007660388 -0.325 0.02692782 0.007660388 -0.03519767 0.02692782 0.008191466 -0.325 0.02623575 0.008191466 -0.03519767 0.02623575 0.008660197 -0.325 0.02549999 0.008660197 -0.03519767 0.02549999 0.009063065 -0.325 0.02472615 0.009063065 -0.03519767 0.02472615 0.00939691 -0.325 0.02392017 0.00939691 -0.03519767 0.02392017 0.00965923 -0.325 0.02308815 0.00965923 -0.03519767 0.02308815 0.009848058 -0.325 0.02223646 0.009848058 -0.03519767 0.02223646 0.009961903 -0.325 0.02137154 0.009961903 -0.03519767 0.02137154 0.00999999 -0.325 0.0205 0.00999999 -0.03519767 0.0205 0.009961903 -0.325 0.0196284 0.009961903 -0.03519767 0.0196284 0.009848058 -0.325 0.01876348 0.009848058 -0.03519767 0.01876348 0.00965923 -0.325 0.01791179 0.00965923 -0.03519767 0.01791179 0.00939691 -0.325 0.01707977 0.00939691 -0.03519767 0.01707977 0.009063065 -0.325 0.01627379 0.009063065 -0.03519767 0.01627379 0.008660197 -0.325 0.01549994 0.008660197 -0.03519767 0.01549994 0.008191466 -0.325 0.01476418 0.008191466 -0.03519767 0.01476418 0.007660388 -0.325 0.01407212 0.007660388 -0.03519767 0.01407212 0.007071018 -0.325 0.01342892 0.007071018 -0.03519767 0.01342892 0.006427824 -0.325 0.01283955 0.006427824 -0.03519767 0.01283955 0.005735754 -0.325 0.01230847 0.005735754 -0.03519767 0.01230847 0.004999995 -0.325 0.01183974 0.004999995 -0.03519767 0.01183974 0.004226148 -0.325 0.01143687 0.004226148 -0.03519767 0.01143687 0.003420174 -0.325 0.01110303 0.003420174 -0.03519767 0.01110303 0.002588152 -0.325 0.01084071 0.002588152 -0.03519767 0.01084071 0.001736462 -0.325 0.01065188 0.001736462 -0.03519767 0.01065188 8.71557e-4 -0.325 0.01053804 8.71557e-4 -0.03519767 0.01053804 0 -0.325 0.01049995 0 -0.03519767 0.01049995 -8.71557e-4 -0.325 0.01053804 -8.71557e-4 -0.03519767 0.01053804 -0.001736462 -0.325 0.01065188 -0.001736462 -0.03519767 0.01065188 -0.002588152 -0.325 0.01084071 -0.002588152 -0.03519767 0.01084071 -0.003420174 -0.325 0.01110303 -0.003420174 -0.03519767 0.01110303 -0.004226148 -0.325 0.01143687 -0.004226148 -0.03519767 0.01143687 -0.004999995 -0.325 0.01183974 -0.004999995 -0.03519767 0.01183974 -0.005735754 -0.325 0.01230847 -0.005735754 -0.03519767 0.01230847 -0.006427824 -0.325 0.01283955 -0.006427824 -0.03519767 0.01283955 -0.007071018 -0.325 0.01342892 -0.007071018 -0.03519767 0.01342892 -0.007660388 -0.325 0.01407212 -0.007660388 -0.03519767 0.01407212 -0.008191466 -0.325 0.01476418 -0.008191466 -0.03519767 0.01476418 -0.008660197 -0.325 0.01549994 -0.008660197 -0.03519767 0.01549994 -0.009063065 -0.325 0.01627379 -0.009063065 -0.03519767 0.01627379 -0.00939691 -0.325 0.01707977 -0.00939691 -0.03519767 0.01707977 -0.00965923 -0.325 0.01791179 -0.00965923 -0.03519767 0.01791179 -0.009848058 -0.325 0.01876348 -0.009848058 -0.03519767 0.01876348 -0.009961903 -0.325 0.0196284 -0.009961903 -0.03519767 0.0196284 -0.00999999 -0.325 0.0205 -0.00999999 -0.03519767 0.0205 -0.009961903 -0.325 0.02137154 -0.009961903 -0.03519767 0.02137154 -0.009848058 -0.325 0.02223646 -0.009848058 -0.03519767 0.02223646 -0.00965923 -0.325 0.02308815 -0.00965923 -0.03519767 0.02308815 -0.00939691 -0.325 0.02392017 -0.00939691 -0.03519767 0.02392017 -0.009063065 -0.325 0.02472615 -0.009063065 -0.03519767 0.02472615 -0.008660197 -0.325 0.02549999 -0.008660197 -0.03519767 0.02549999 -0.008191466 -0.325 0.02623575 -0.008191466 -0.03519767 0.02623575 -0.007660388 -0.325 0.02692782 -0.007660388 -0.03519767 0.02692782 -0.007071018 -0.325 0.02757102 -0.007071018 -0.03519767 0.02757102 -0.006427824 -0.325 0.02816039 -0.006427824 -0.03519767 0.02816039 -0.005735754 -0.325 0.02869147 -0.005735754 -0.03519767 0.02869147 -0.004999995 -0.325 0.0291602 -0.004999995 -0.03519767 0.0291602 -0.004226148 -0.325 0.02956306 -0.004226148 -0.03519767 0.02956306 -0.003420174 -0.325 0.02989691 -0.003420174 -0.03519767 0.02989691 -0.002588152 -0.325 0.03015923 -0.002588152 -0.03519767 0.03015923 -0.001736462 -0.325 0.03034806 -0.001736462 -0.03519767 0.03034806 -8.71557e-4 -0.325 0.0304619 -8.71557e-4 -0.03519767 0.0304619 0 -0.325 0.03049999 0 -0.03519767 0.0205 0 -0.325 0.0205</float_array>
          <technique_common>
            <accessor source="#chassis_to_trapezoid_rod__4-mesh-positions-array" count="146" stride="3">
              <param name="X" type="float"/>
              <param name="Y" type="float"/>
              <param name="Z" type="float"/>
            </accessor>
          </technique_common>
        </source>
        <source id="chassis_to_trapezoid_rod__4-mesh-normals">
          <float_array id="chassis_to_trapezoid_rod__4-mesh-normals-array" count="609">0.04362279 0 0.9990481 0.1305295 0 0.9914444 0.1305223 0 0.9914454 0.2164416 0 0.9762956 0.2164346 0 0.9762972 0.3007104 0 0.9537155 0.3007038 0 0.9537177 0.3826817 0 0.9238802 0.3826817 0 0.9238803 0.4617491 0 0.8870106 0.4617491 0 0.8870106 0.5372966 0 0.8433935 0.5373018 0 0.8433902 0.608765 0 0.7933506 0.6087604 0 0.7933542 0.6755904 0 0.7372772 0.6755904 0 0.7372772 0.7372776 0 0.6755899 0.7372776 0 0.6755899 0.7933529 0 0.608762 0.7933529 0 0.6087621 0.8433905 0 0.5373013 0.8433926 0 0.5372979 0.8870108 0 0.4617487 0.8870108 0 0.4617487 0.9238793 0 0.3826842 0.9238799 0 0.3826828 0.9537169 0 0.3007062 0.976296 0 0.2164399 0.9762962 0 0.2164391 0.991445 0 0.1305258 0.991445 0 0.1305262 0.9990482 0 0.04361921 0.9990482 0 0.04361909 0.9990482 0 -0.04361921 0.9990482 0 -0.04361921 0.991445 0 -0.1305263 0.991445 0 -0.1305252 0.9762962 0 -0.2164391 0.9762958 0 -0.2164407 0.9537176 0 -0.300704 0.9537165 0 -0.3007072 0.9238799 0 -0.3826828 0.9238799 0 -0.3826828 0.88701 0 -0.4617502 0.8870108 0 -0.4617487 0.8433915 0 -0.5372996 0.7933543 0 -0.6087603 0.7933529 0 -0.6087621 0.7372776 0 -0.6755899 0.7372767 0 -0.6755909 0.6755904 0 -0.7372772 0.6755895 0 -0.7372781 0.6087628 0 -0.7933524 0.6087615 0 -0.7933534 0.5372979 0 -0.8433926 0.5373005 0 -0.843391 0.4617491 0 -0.8870106 0.4617477 0 -0.8870114 0.3826833 0 -0.9238796 0.3826833 0 -0.9238796 0.3007071 0 -0.9537166 0.3007054 0 -0.9537171 0.2164399 0 -0.976296 0.2164381 0 -0.9762964 0.1305259 0 -0.9914449 0.1305277 0 -0.9914447 0.04362094 0 -0.9990482 0.0436173 0 -0.9990484 -0.04361724 0 -0.9990484 -0.04362094 0 -0.9990482 -0.1305277 0 -0.9914447 -0.1305259 0 -0.9914449 -0.2164381 0 -0.9762964 -0.2164399 0 -0.976296 -0.3007054 0 -0.9537171 -0.3007072 0 -0.9537166 -0.3826833 0 -0.9238796 -0.3826833 0 -0.9238796 -0.4617477 0 -0.8870114 -0.4617491 0 -0.8870106 -0.5373005 0 -0.843391 -0.5372979 0 -0.8433926 -0.6087616 0 -0.7933533 -0.6087626 0 -0.7933524 -0.6755894 0 -0.7372781 -0.6755904 0 -0.7372772 -0.7372768 0 -0.6755909 -0.7372776 0 -0.6755899 -0.7933529 0 -0.608762 -0.7933543 0 -0.6087604 -0.8433915 0 -0.5372996 -0.8870108 0 -0.4617487 -0.88701 0 -0.4617503 -0.9238799 0 -0.3826828 -0.9238799 0 -0.3826828 -0.9537165 0 -0.3007072 -0.9537176 0 -0.300704 -0.9762958 0 -0.2164407 -0.9762962 0 -0.2164391 -0.991445 0 -0.1305252 -0.991445 0 -0.1305262 -0.9990482 0 -0.04361921 -0.9990482 0 -0.04361921 -0.9990482 0 0.04361909 -0.9990482 0 0.04361921 -0.991445 0 0.1305263 -0.991445 0 0.1305257 -0.9762962 0 0.2164391 -0.976296 0 0.2164399 -0.9537169 0 0.3007062 -0.9238799 0 0.3826828 -0.9238793 0 0.3826841 -0.8870108 0 0.4617487 -0.8870108 0 0.4617487 -0.8433926 0 0.5372979 -0.8433905 0 0.5373013 -0.7933529 0 0.608762 -0.7933529 0 0.6087621 -0.7372776 0 0.6755899 -0.7372776 0 0.6755899 -0.6755904 0 0.7372772 -0.6755904 0 0.7372772 -0.6087604 0 0.7933541 -0.608765 0 0.7933506 -0.5373018 0 0.8433901 -0.5372965 0 0.8433935 -0.4617491 0 0.8870106 -0.4617491 0 0.8870106 -0.3826817 0 0.9238802 -0.3826817 0 0.9238803 -0.3007037 0 0.9537176 -0.3007104 0 0.9537155 -0.2164346 0 0.9762971 -0.2164416 0 0.9762956 -0.1305223 0 0.9914454 -0.1305295 0 0.9914445 -0.04362279 0 0.9990481 -0.04361546 0 0.9990485 0.04361546 0 0.9990485 0 1 0 0 1 0 0 1 1.66964e-6 0 1 -1.25223e-6 0 1 -1.25223e-6 0 1 -6.67858e-6 0 1 4.59153e-6 0 1 -4.17411e-7 0 1 6.67858e-6 0 1 -1.87835e-6 0 1 -6.67859e-6 0 1 6.67858e-6 0 1 -3.86105e-6 0 1 -1.14788e-6 0 1 -6.26117e-7 0 1 -6.67858e-6 0 1 5.42635e-6 0 1 -3.33929e-6 0 1 8.34823e-7 0 1 1.66965e-6 0 1 -1.66965e-6 0 1 1.25223e-6 0 1 1.25223e-6 0 1 6.67858e-6 0 1 -4.59153e-6 0 1 4.17411e-7 0 1 -6.67859e-6 0 1 1.87835e-6 0 1 6.67858e-6 0 1 -6.67858e-6 0 1 3.86105e-6 0 1 1.14788e-6 0 1 6.26117e-7 0 1 6.67858e-6 0 1 -5.42634e-6 0 1 3.33929e-6 0 1 -8.34823e-7 0 1 -1.66965e-6 0 -1 0 0 -1 0 0 -1 6.67858e-6 0 -1 2.67143e-5 0 -1 -3.33929e-6 0 -1 5.34286e-5 0 -1 -1.66964e-5 0 -1 5.34287e-5 0 -1 -4.84197e-5 0 -1 -1.60703e-5 0 -1 5.34287e-5 0 -1 -4.675e-5 0 -1 -3.67322e-5 0 -1 -1.33572e-5 0 -1 -6.67858e-6 0 -1 -2.67143e-5 0 -1 3.33929e-6 0 -1 -5.34286e-5 0 -1 1.66964e-5 0 -1 -5.34286e-5 0 -1 4.84197e-5 0 -1 1.60703e-5 0 -1 4.67501e-5 0 -1 3.67322e-5 0 -1 1.33572e-5</float_array>
          <technique_common>
            <accessor source="#chassis_to_trapezoid_rod__4-mesh-normals-array" count="203" stride="3">
              <param name="X" type="float"/>
              <param name="Y" type="float"/>
              <param name="Z" type="float"/>
            </accessor>
          </technique_common>
        </source>
        <vertices id="chassis_to_trapezoid_rod__4-mesh-vertices">
          <input semantic="POSITION" source="#chassis_to_trapezoid_rod__4-mesh-positions"/>
        </vertices>
        <triangles count="288">
          <input semantic="VERTEX" source="#chassis_to_trapezoid_rod__4-mesh-vertices" offset="0"/>
          <input semantic="NORMAL" source="#chassis_to_trapezoid_rod__4-mesh-normals" offset="1"/>
          <p>0 0 1 0 2 0 1 1 3 1 2 1 2 2 3 2 4 2 3 3 5 3 4 3 4 4 5 4 6 4 5 5 7 5 6 5 6 6 7 6 8 6 7 7 9 7 8 7 8 8 9 8 10 8 9 9 11 9 10 9 10 10 11 10 12 10 11 11 13 11 12 11 12 12 13 12 14 12 13 13 15 13 14 13 14 14 15 14 16 14 15 15 17 15 16 15 16 16 17 16 18 16 17 17 19 17 18 17 18 18 19 18 20 18 19 19 21 19 20 19 20 20 21 20 22 20 21 21 23 21 22 21 22 22 23 22 24 22 23 23 25 23 24 23 24 24 25 24 26 24 25 25 27 25 26 25 26 26 27 26 28 26 27 27 29 27 28 27 28 27 29 27 30 27 29 28 31 28 30 28 30 29 31 29 32 29 31 30 33 30 32 30 32 31 33 31 34 31 33 32 35 32 34 32 34 33 35 33 36 33 35 34 37 34 36 34 36 35 37 35 38 35 37 36 39 36 38 36 38 37 39 37 40 37 39 38 41 38 40 38 40 39 41 39 42 39 41 40 43 40 42 40 42 41 43 41 44 41 43 42 45 42 44 42 44 43 45 43 46 43 45 44 47 44 46 44 46 45 47 45 48 45 47 46 49 46 48 46 48 46 49 46 50 46 49 47 51 47 50 47 50 48 51 48 52 48 51 49 53 49 52 49 52 50 53 50 54 50 53 51 55 51 54 51 54 52 55 52 56 52 55 53 57 53 56 53 56 54 57 54 58 54 57 55 59 55 58 55 58 56 59 56 60 56 59 57 61 57 60 57 60 58 61 58 62 58 61 59 63 59 62 59 62 60 63 60 64 60 63 61 65 61 64 61 64 62 65 62 66 62 65 63 67 63 66 63 66 64 67 64 68 64 67 65 69 65 68 65 68 66 69 66 70 66 69 67 71 67 70 67 70 68 71 68 72 68 71 69 73 69 72 69 72 70 73 70 74 70 73 71 75 71 74 71 74 72 75 72 76 72 75 73 77 73 76 73 76 74 77 74 78 74 77 75 79 75 78 75 78 76 79 76 80 76 79 77 81 77 80 77 80 78 81 78 82 78 81 79 83 79 82 79 82 80 83 80 84 80 83 81 85 81 84 81 84 82 85 82 86 82 85 83 87 83 86 83 86 84 87 84 88 84 87 85 89 85 88 85 88 86 89 86 90 86 89 87 91 87 90 87 90 88 91 88 92 88 91 89 93 89 92 89 92 90 93 90 94 90 93 91 95 91 94 91 94 91 95 91 96 91 95 92 97 92 96 92 96 93 97 93 98 93 97 94 99 94 98 94 98 95 99 95 100 95 99 96 101 96 100 96 100 97 101 97 102 97 101 98 103 98 102 98 102 99 103 99 104 99 103 100 105 100 104 100 104 101 105 101 106 101 105 102 107 102 106 102 106 103 107 103 108 103 107 104 109 104 108 104 108 105 109 105 110 105 109 106 111 106 110 106 110 107 111 107 112 107 111 108 113 108 112 108 112 109 113 109 114 109 113 110 115 110 114 110 114 110 115 110 116 110 115 111 117 111 116 111 116 112 117 112 118 112 117 113 119 113 118 113 118 114 119 114 120 114 119 115 121 115 120 115 120 116 121 116 122 116 121 117 123 117 122 117 122 118 123 118 124 118 123 119 125 119 124 119 124 120 125 120 126 120 125 121 127 121 126 121 126 122 127 122 128 122 127 123 129 123 128 123 128 124 129 124 130 124 129 125 131 125 130 125 130 126 131 126 132 126 131 127 133 127 132 127 132 128 133 128 134 128 133 129 135 129 134 129 134 130 135 130 136 130 135 131 137 131 136 131 136 132 137 132 138 132 137 133 139 133 138 133 138 134 139 134 140 134 139 135 141 135 140 135 140 136 141 136 142 136 141 137 143 137 142 137 142 138 143 138 0 138 143 139 1 139 0 139 68 140 70 140 144 140 70 141 72 141 144 141 144 140 72 140 74 140 62 142 64 142 144 142 64 140 66 140 144 140 144 143 66 143 68 143 56 140 58 140 144 140 58 140 60 140 144 140 144 144 60 144 62 144 50 140 52 140 144 140 52 145 54 145 144 145 144 146 54 146 56 146 44 140 46 140 144 140 46 140 48 140 144 140 144 147 48 147 50 147 38 148 40 148 144 148 40 140 42 140 144 140 144 149 42 149 44 149 32 150 34 150 144 150 34 151 36 151 144 151 144 152 36 152 38 152 26 140 28 140 144 140 28 140 30 140 144 140 144 153 30 153 32 153 20 140 22 140 144 140 22 140 24 140 144 140 144 154 24 154 26 154 14 140 16 140 144 140 16 155 18 155 144 155 144 156 18 156 20 156 8 157 10 157 144 157 10 140 12 140 144 140 144 158 12 158 14 158 2 140 4 140 144 140 4 159 6 159 144 159 144 140 6 140 8 140 140 140 142 140 144 140 142 140 0 140 144 140 144 140 0 140 2 140 134 160 136 160 144 160 136 140 138 140 144 140 144 161 138 161 140 161 128 140 130 140 144 140 130 140 132 140 144 140 144 162 132 162 134 162 122 140 124 140 144 140 124 163 126 163 144 163 144 164 126 164 128 164 116 140 118 140 144 140 118 140 120 140 144 140 144 165 120 165 122 165 110 166 112 166 144 166 112 140 114 140 144 140 144 167 114 167 116 167 104 168 106 168 144 168 106 169 108 169 144 169 144 170 108 170 110 170 98 140 100 140 144 140 100 140 102 140 144 140 144 171 102 171 104 171 92 140 94 140 144 140 94 140 96 140 144 140 144 172 96 172 98 172 86 140 88 140 144 140 88 173 90 173 144 173 144 174 90 174 92 174 80 175 82 175 144 175 82 140 84 140 144 140 144 176 84 176 86 176 74 140 76 140 144 140 76 177 78 177 144 177 144 140 78 140 80 140 75 178 73 178 145 178 73 179 71 179 145 179 145 178 71 178 69 178 81 178 79 178 145 178 79 178 77 178 145 178 145 180 77 180 75 180 87 178 85 178 145 178 85 181 83 181 145 181 145 178 83 178 81 178 93 178 91 178 145 178 91 178 89 178 145 178 145 182 89 182 87 182 99 178 97 178 145 178 97 183 95 183 145 183 145 184 95 184 93 184 105 178 103 178 145 178 103 185 101 185 145 185 145 186 101 186 99 186 111 178 109 178 145 178 109 178 107 178 145 178 145 187 107 187 105 187 117 178 115 178 145 178 115 188 113 188 145 188 145 189 113 189 111 189 123 178 121 178 145 178 121 178 119 178 145 178 145 190 119 190 117 190 129 178 127 178 145 178 127 178 125 178 145 178 145 178 125 178 123 178 135 178 133 178 145 178 133 178 131 178 145 178 145 191 131 191 129 191 141 178 139 178 145 178 139 178 137 178 145 178 145 178 137 178 135 178 3 178 1 178 145 178 1 178 143 178 145 178 145 178 143 178 141 178 9 178 7 178 145 178 7 178 5 178 145 178 145 192 5 192 3 192 15 178 13 178 145 178 13 193 11 193 145 193 145 178 11 178 9 178 21 178 19 178 145 178 19 178 17 178 145 178 145 194 17 194 15 194 27 178 25 178 145 178 25 195 23 195 145 195 145 196 23 196 21 196 33 178 31 178 145 178 31 197 29 197 145 197 145 198 29 198 27 198 39 178 37 178 145 178 37 178 35 178 145 178 145 199 35 199 33 199 45 178 43 178 145 178 43 197 41 197 145 197 145 200 41 200 39 200 51 178 49 178 145 178 49 178 47 178 145 178 145 201 47 201 45 201 57 178 55 178 145 178 55 178 53 178 145 178 145 178 53 178 51 178 63 178 61 178 145 178 61 178 59 178 145 178 145 202 59 202 57 202 69 178 67 178 145 178 67 178 65 178 145 178 145 178 65 178 63 178</p>
        </triangles>
      </mesh>
    </geometry>
  </library_geometries>
  <library_visual_scenes>
    <visual_scene id="Scene" name="Scene">
      <node id="chassis_to_trapezoid_rod__4" name="chassis_to_trapezoid_rod__4" type="NODE">
        <matrix sid="transform">1 0 0 0 0 1 0 0 0 0 1 0 0 0 0 1</matrix>
        <instance_geometry url="#chassis_to_trapezoid_rod__4-mesh" name="chassis_to_trapezoid_rod__4"/>
      </node>
    </visual_scene>
  </library_visual_scenes>
  <scene>
    <instance_visual_scene url="#Scene"/>
  </scene>
</COLLADA>