<?xml version="1.0" encoding="utf-8"?>
<COLLADA xmlns="http://www.collada.org/2005/11/COLLADASchema" version="1.4.1" xmlns:xsi="http://www.w3.org/2001/XMLSchema-instance">
  <asset>
    <contributor>
      <author>Blender User</author>
      <authoring_tool>Blender 3.0.1</authoring_tool>
    </contributor>
    <created>2026-06-04T16:18:42</created>
    <modified>2026-06-04T16:18:42</modified>
    <unit name="meter" meter="1"/>
    <up_axis>Z_UP</up_axis>
  </asset>
  <library_images/>
  <library_geometries>
    <geometry id="chassis_default_as_machined__7-mesh" name="chassis_default_as_machined__7">
      <mesh>
        <source id="chassis_default_as_machined__7-mesh-positions">
          <float_array id="chassis_default_as_machined__7-mesh-positions-array" count="912">0.01239997 -0.009799957 -0.285 0.01499998 -0.009799957 -0.285 0.01239007 -0.01002657 -0.285 0.01498019 -0.01025319 -0.285 0.01236045 -0.01025146 -0.285 0.01492094 -0.01070296 -0.285 0.01231139 -0.01047289 -0.285 0.01482278 -0.01114583 -0.285 0.01224315 -0.01068919 -0.285 0.0146864 -0.0115785 -0.285 0.01215636 -0.01089876 -0.285 0.01451277 -0.01199758 -0.285 0.01205164 -0.01109999 -0.285 0.01430332 -0.01239997 -0.285 0.01192975 -0.01129126 -0.285 0.01405954 -0.01278257 -0.285 0.0117917 -0.01147121 -0.285 0.01378339 -0.01314246 -0.285 0.01163846 -0.01163846 -0.285 0.0134769 -0.0134769 -0.285 0.01147121 -0.0117917 -0.285 0.01314246 -0.01378339 -0.285 0.01129126 -0.01192975 -0.285 0.01278257 -0.01405954 -0.285 0.01109999 -0.01205164 -0.285 0.01239997 -0.01430332 -0.285 0.01089876 -0.01215636 -0.285 0.01199758 -0.01451277 -0.285 0.01068919 -0.01224315 -0.285 0.0115785 -0.0146864 -0.285 0.01047289 -0.01231139 -0.285 0.01114583 -0.01482278 -0.285 0.01025146 -0.01236045 -0.285 0.01070296 -0.01492094 -0.285 0.01002657 -0.01239007 -0.285 0.01025319 -0.01498019 -0.285 0.009799957 -0.01239997 -0.285 0.009799957 -0.01499998 -0.285 -0.009799957 -0.01239997 -0.285 -0.009799957 -0.01499998 -0.285 -0.01002657 -0.01239007 -0.285 -0.01025319 -0.01498019 -0.285 -0.01025146 -0.01236045 -0.285 -0.01070296 -0.01492094 -0.285 -0.01047289 -0.01231139 -0.285 -0.01114583 -0.01482278 -0.285 -0.01068919 -0.01224315 -0.285 -0.0115785 -0.0146864 -0.285 -0.01089876 -0.01215636 -0.285 -0.01199758 -0.01451277 -0.285 -0.01109999 -0.01205164 -0.285 -0.01239997 -0.01430332 -0.285 -0.01129126 -0.01192975 -0.285 -0.01278257 -0.01405954 -0.285 -0.01147121 -0.0117917 -0.285 -0.01314246 -0.01378339 -0.285 -0.01163846 -0.01163846 -0.285 -0.0134769 -0.0134769 -0.285 -0.0117917 -0.01147121 -0.285 -0.01378339 -0.01314246 -0.285 -0.01192975 -0.01129126 -0.285 -0.01405954 -0.01278257 -0.285 -0.01205164 -0.01109999 -0.285 -0.01430332 -0.01239997 -0.285 -0.01215636 -0.01089876 -0.285 -0.01451277 -0.01199758 -0.285 -0.01224315 -0.01068919 -0.285 -0.0146864 -0.0115785 -0.285 -0.01231139 -0.01047289 -0.285 -0.01482278 -0.01114583 -0.285 -0.01236045 -0.01025146 -0.285 -0.01492094 -0.01070296 -0.285 -0.01239007 -0.01002657 -0.285 -0.01498019 -0.01025319 -0.285 -0.01239997 -0.009799957 -0.285 -0.01499998 -0.009799957 -0.285 -0.01239997 0.009799957 -0.285 -0.01499998 0.009799957 -0.285 -0.01239007 0.01002657 -0.285 -0.01498019 0.01025319 -0.285 -0.01236045 0.01025146 -0.285 -0.01492094 0.01070296 -0.285 -0.01231139 0.01047289 -0.285 -0.01482278 0.01114583 -0.285 -0.01224315 0.01068919 -0.285 -0.0146864 0.0115785 -0.285 -0.01215636 0.01089876 -0.285 -0.01451277 0.01199758 -0.285 -0.01205164 0.01109999 -0.285 -0.01430332 0.01239997 -0.285 -0.01192975 0.01129126 -0.285 -0.01405954 0.01278257 -0.285 -0.0117917 0.01147121 -0.285 -0.01378339 0.01314246 -0.285 -0.01163846 0.01163846 -0.285 -0.0134769 0.0134769 -0.285 -0.01147121 0.0117917 -0.285 -0.01314246 0.01378339 -0.285 -0.01129126 0.01192975 -0.285 -0.01278257 0.01405954 -0.285 -0.01109999 0.01205164 -0.285 -0.01239997 0.01430332 -0.285 -0.01089876 0.01215636 -0.285 -0.01199758 0.01451277 -0.285 -0.01068919 0.01224315 -0.285 -0.0115785 0.0146864 -0.285 -0.01047289 0.01231139 -0.285 -0.01114583 0.01482278 -0.285 -0.01025146 0.01236045 -0.285 -0.01070296 0.01492094 -0.285 -0.01002657 0.01239007 -0.285 -0.01025319 0.01498019 -0.285 -0.009799957 0.01239997 -0.285 -0.009799957 0.01499998 -0.285 0.009799957 0.01239997 -0.285 0.009799957 0.01499998 -0.285 0.01002657 0.01239007 -0.285 0.01025319 0.01498019 -0.285 0.01025146 0.01236045 -0.285 0.01070296 0.01492094 -0.285 0.01047289 0.01231139 -0.285 0.01114583 0.01482278 -0.285 0.01068919 0.01224315 -0.285 0.0115785 0.0146864 -0.285 0.01089876 0.01215636 -0.285 0.01199758 0.01451277 -0.285 0.01109999 0.01205164 -0.285 0.01239997 0.01430332 -0.285 0.01129126 0.01192975 -0.285 0.01278257 0.01405954 -0.285 0.01147121 0.0117917 -0.285 0.01314246 0.01378339 -0.285 0.01163846 0.01163846 -0.285 0.0134769 0.0134769 -0.285 0.0117917 0.01147121 -0.285 0.01378339 0.01314246 -0.285 0.01192975 0.01129126 -0.285 0.01405954 0.01278257 -0.285 0.01205164 0.01109999 -0.285 0.01430332 0.01239997 -0.285 0.01215636 0.01089876 -0.285 0.01451277 0.01199758 -0.285 0.01224315 0.01068919 -0.285 0.0146864 0.0115785 -0.285 0.01231139 0.01047289 -0.285 0.01482278 0.01114583 -0.285 0.01236045 0.01025146 -0.285 0.01492094 0.01070296 -0.285 0.01239007 0.01002657 -0.285 0.01498019 0.01025319 -0.285 0.01239997 0.009799957 -0.285 0.01499998 0.009799957 -0.285 0.01499998 -0.009799957 0.3 0.01498019 -0.01025319 0.3 0.01492094 -0.01070296 0.3 0.01482278 -0.01114583 0.3 0.0146864 -0.0115785 0.3 0.01451277 -0.01199758 0.3 0.01430332 -0.01239997 0.3 0.01405954 -0.01278257 0.3 0.01378339 -0.01314246 0.3 0.0134769 -0.0134769 0.3 0.01314246 -0.01378339 0.3 0.01278257 -0.01405954 0.3 0.01239997 -0.01430332 0.3 0.01199758 -0.01451277 0.3 0.0115785 -0.0146864 0.3 0.01114583 -0.01482278 0.3 0.01070296 -0.01492094 0.3 0.01025319 -0.01498019 0.3 0.009799957 -0.01499998 0.3 0.009799957 -0.01239997 0.3 0.01002657 -0.01239007 0.3 0.01025146 -0.01236045 0.3 0.01047289 -0.01231139 0.3 0.01068919 -0.01224315 0.3 0.01089876 -0.01215636 0.3 0.01109999 -0.01205164 0.3 0.01129126 -0.01192975 0.3 0.01147121 -0.0117917 0.3 0.01163846 -0.01163846 0.3 0.0117917 -0.01147121 0.3 0.01192975 -0.01129126 0.3 0.01205164 -0.01109999 0.3 0.01215636 -0.01089876 0.3 0.01224315 -0.01068919 0.3 0.01231139 -0.01047289 0.3 0.01236045 -0.01025146 0.3 0.01239007 -0.01002657 0.3 0.01239997 -0.009799957 0.3 0.01239997 0.009799957 0.3 0.01239007 0.01002657 0.3 0.01236045 0.01025146 0.3 0.01231139 0.01047289 0.3 0.01224315 0.01068919 0.3 0.01215636 0.01089876 0.3 0.01205164 0.01109999 0.3 0.01192975 0.01129126 0.3 0.0117917 0.01147121 0.3 0.01163846 0.01163846 0.3 0.01147121 0.0117917 0.3 0.01129126 0.01192975 0.3 0.01109999 0.01205164 0.3 0.01089876 0.01215636 0.3 0.01068919 0.01224315 0.3 0.01047289 0.01231139 0.3 0.01025146 0.01236045 0.3 0.01002657 0.01239007 0.3 0.009799957 0.01239997 0.3 -0.009799957 0.01239997 0.3 -0.01239997 0.009799957 0.3 -0.01239997 -0.009799957 0.3 -0.01002657 0.01239007 0.3 -0.01025146 0.01236045 0.3 -0.01047289 0.01231139 0.3 -0.01068919 0.01224315 0.3 -0.01089876 0.01215636 0.3 -0.01109999 0.01205164 0.3 -0.01129126 0.01192975 0.3 -0.01147121 0.0117917 0.3 -0.01163846 0.01163846 0.3 -0.0117917 0.01147121 0.3 -0.01192975 0.01129126 0.3 -0.01205164 0.01109999 0.3 -0.01215636 0.01089876 0.3 -0.01224315 0.01068919 0.3 -0.01231139 0.01047289 0.3 -0.01236045 0.01025146 0.3 -0.01239007 0.01002657 0.3 -0.009799957 -0.01239997 0.3 -0.01239007 -0.01002657 0.3 -0.01236045 -0.01025146 0.3 -0.01231139 -0.01047289 0.3 -0.01224315 -0.01068919 0.3 -0.01215636 -0.01089876 0.3 -0.01205164 -0.01109999 0.3 -0.01192975 -0.01129126 0.3 -0.0117917 -0.01147121 0.3 -0.01163846 -0.01163846 0.3 -0.01147121 -0.0117917 0.3 -0.01129126 -0.01192975 0.3 -0.01109999 -0.01205164 0.3 -0.01089876 -0.01215636 0.3 -0.01068919 -0.01224315 0.3 -0.01047289 -0.01231139 0.3 -0.01025146 -0.01236045 0.3 -0.01002657 -0.01239007 0.3 -0.009799957 0.01499998 0.3 -0.01025319 0.01498019 0.3 -0.01070296 0.01492094 0.3 -0.01114583 0.01482278 0.3 -0.0115785 0.0146864 0.3 -0.01199758 0.01451277 0.3 -0.01239997 0.01430332 0.3 -0.01278257 0.01405954 0.3 -0.01314246 0.01378339 0.3 -0.0134769 0.0134769 0.3 -0.01378339 0.01314246 0.3 -0.01405954 0.01278257 0.3 -0.01430332 0.01239997 0.3 -0.01451277 0.01199758 0.3 -0.0146864 0.0115785 0.3 -0.01482278 0.01114583 0.3 -0.01492094 0.01070296 0.3 -0.01498019 0.01025319 0.3 -0.01499998 0.009799957 0.3 -0.01499998 -0.009799957 0.3 -0.01498019 -0.01025319 0.3 -0.01492094 -0.01070296 0.3 -0.01482278 -0.01114583 0.3 -0.0146864 -0.0115785 0.3 -0.01451277 -0.01199758 0.3 -0.01430332 -0.01239997 0.3 -0.01405954 -0.01278257 0.3 -0.01378339 -0.01314246 0.3 -0.0134769 -0.0134769 0.3 -0.01314246 -0.01378339 0.3 -0.01278257 -0.01405954 0.3 -0.01239997 -0.01430332 0.3 -0.01199758 -0.01451277 0.3 -0.0115785 -0.0146864 0.3 -0.01114583 -0.01482278 0.3 -0.01070296 -0.01492094 0.3 -0.01025319 -0.01498019 0.3 -0.009799957 -0.01499998 0.3 0.01499998 0.009799957 0.3 0.01498019 0.01025319 0.3 0.01492094 0.01070296 0.3 0.01482278 0.01114583 0.3 0.0146864 0.0115785 0.3 0.01451277 0.01199758 0.3 0.01430332 0.01239997 0.3 0.01405954 0.01278257 0.3 0.01378339 0.01314246 0.3 0.0134769 0.0134769 0.3 0.01314246 0.01378339 0.3 0.01278257 0.01405954 0.3 0.01239997 0.01430332 0.3 0.01199758 0.01451277 0.3 0.0115785 0.0146864 0.3 0.01114583 0.01482278 0.3 0.01070296 0.01492094 0.3 0.01025319 0.01498019 0.3 0.009799957 0.01499998 0.3</float_array>
          <technique_common>
            <accessor source="#chassis_default_as_machined__7-mesh-positions-array" count="304" stride="3">
              <param name="X" type="float"/>
              <param name="Y" type="float"/>
              <param name="Z" type="float"/>
            </accessor>
          </technique_common>
        </source>
        <source id="chassis_default_as_machined__7-mesh-normals">
          <float_array id="chassis_default_as_machined__7-mesh-normals-array" count="810">0 0 -1 -9.64804e-7 0 -1 2.46988e-5 0 -1 -2.46991e-5 0 -1 2.46989e-5 0 -1 -4.93977e-5 0 -1 4.9398e-5 0 -1 9.87956e-5 0 -1 -1.97591e-4 0 -1 9.87952e-5 0 -1 -9.87955e-5 0 -1 9.87955e-5 0 -1 -9.87953e-5 0 -1 1.97591e-4 0 -1 -9.87956e-5 0 -1 -4.93978e-5 0 -1 2.46988e-5 0 -1 -1.23494e-5 0 -1 9.64804e-7 0 -1 -2.46988e-5 0 -1 2.46991e-5 0 -1 -2.46989e-5 0 -1 4.93977e-5 0 -1 -4.9398e-5 0 -1 -9.87952e-5 0 -1 9.87953e-5 0 -1 4.93978e-5 0 -1 -2.46988e-5 0 -1 1.23494e-5 0 -1 0.9990482 -0.04362171 0 0.9990485 -0.04361468 0 0.9914447 -0.130528 0 0.9914447 -0.1305281 0 0.9762964 -0.216438 0 0.9762964 -0.216438 0 0.9537171 -0.3007053 0 0.923879 -0.3826846 0 0.9238791 -0.3826847 0 0.8870129 -0.4617449 0 0.88701 -0.4617504 0 0.8433908 -0.5373008 0 0.7933539 -0.6087609 0 0.7933504 -0.6087653 0 0.7372804 -0.6755868 0 0.7372804 -0.6755869 0 0.6755878 -0.7372796 0 0.6755877 -0.7372797 0 0.6087614 -0.7933533 0 0.6087631 -0.7933521 0 0.5372995 -0.8433915 0 0.5373011 -0.8433905 0 0.4617483 -0.8870111 0 0.4617483 -0.8870111 0 0.3826844 -0.9238792 0 0.3826832 -0.9238798 0 0.3007054 -0.9537171 0 0.3007065 -0.9537168 0 0.2164384 -0.9762963 0 0.1305277 -0.9914448 0 0.1305268 -0.9914448 0 0.04361778 -0.9990483 0 0.04361796 -0.9990483 0 -0.04362177 0.9990482 0 -0.04362237 0.9990482 0 -0.1305252 0.9914451 0 -0.1305252 0.9914451 0 -0.2164384 0.9762963 0 -0.3007054 0.9537171 0 -0.3007075 0.9537165 0 -0.382685 0.923879 0 -0.4617466 0.8870119 0 -0.5373011 0.8433905 0 -0.5372979 0.8433926 0 -0.6087614 0.7933534 0 -0.6087614 0.7933533 0 -0.6755889 0.7372786 0 -0.6755959 0.7372722 0 -0.7372751 0.6755927 0 -0.7372751 0.6755927 0 -0.7933546 0.6087598 0 -0.8433914 0.5372998 0 -0.8433914 0.5372998 0 -0.8870129 0.4617449 0 -0.88701 0.4617504 0 -0.9238791 0.3826847 0 -0.923879 0.3826846 0 -0.9537171 0.3007053 0 -0.9762949 0.2164447 0 -0.9762964 0.216438 0 -0.9914455 0.1305214 0 -0.9914447 0.1305283 0 -0.9990482 0.04362171 0 -0.9990482 0.04362171 0 -1 0 0 -0.9990482 -0.04362171 0 -0.9990482 -0.04362171 0 -0.9914447 -0.1305283 0 -0.9914455 -0.1305214 0 -0.9762964 -0.216438 0 -0.9762949 -0.2164447 0 -0.9537171 -0.3007053 0 -0.9238791 -0.3826847 0 -0.923879 -0.3826846 0 -0.88701 -0.4617504 0 -0.8870129 -0.4617449 0 -0.8433914 -0.5372998 0 -0.8433914 -0.5372998 0 -0.7933546 -0.6087598 0 -0.7372751 -0.6755927 0 -0.7372751 -0.6755927 0 -0.6755958 -0.7372722 0 -0.6755889 -0.7372786 0 -0.6087614 -0.7933534 0 -0.6087614 -0.7933533 0 -0.537298 -0.8433926 0 -0.5373011 -0.8433905 0 -0.4617466 -0.8870119 0 -0.382685 -0.923879 0 -0.3007075 -0.9537165 0 -0.3007054 -0.9537171 0 -0.2164384 -0.9762963 0 -0.1305252 -0.9914451 0 -0.1305252 -0.9914451 0 -0.04362237 -0.9990482 0 -0.04362177 -0.9990482 0 0 -1 0 1 0 0 0.04362177 -0.9990482 0 0.04362237 -0.9990482 0 0.1305252 -0.9914451 0 0.1305252 -0.9914451 0 0.3007054 -0.9537171 0 0.3007075 -0.9537165 0 0.382685 -0.923879 0 0.4617466 -0.8870119 0 0.5372979 -0.8433926 0 0.6087614 -0.7933534 0 0.6755889 -0.7372786 0 0.6755959 -0.7372722 0 0.7372751 -0.6755927 0 0.7372751 -0.6755927 0 0.7933546 -0.6087598 0 0.8433914 -0.5372998 0 0.8433914 -0.5372998 0 0.9762949 -0.2164447 0 0.9914455 -0.1305214 0 0.9914447 -0.1305283 0 0.9990482 -0.04362171 0 0 1 0 0.9990482 0.04362171 0 0.9990482 0.04362171 0 0.9914447 0.1305283 0 0.9914455 0.1305214 0 0.9762964 0.216438 0 0.9762949 0.2164447 0 0.9537171 0.3007053 0 0.9238791 0.3826847 0 0.923879 0.3826846 0 0.88701 0.4617504 0 0.8870129 0.4617449 0 0.8433914 0.5372998 0 0.8433914 0.5372998 0 0.7933546 0.6087598 0 0.7372751 0.6755927 0 0.7372751 0.6755927 0 0.6755958 0.7372722 0 0.6755889 0.7372786 0 0.6087614 0.7933534 0 0.6087614 0.7933533 0 0.537298 0.8433926 0 0.5373011 0.8433905 0 0.4617466 0.8870119 0 0.382685 0.923879 0 0.3007075 0.9537165 0 0.3007054 0.9537171 0 0.2164384 0.9762963 0 0.1305252 0.9914451 0 0.1305252 0.9914451 0 0.04362237 0.9990482 0 0.04362177 0.9990482 0 0 0 1 1.97591e-4 0 1 -9.87955e-5 0 1 1.97591e-4 0 1 4.93977e-5 0 1 -9.87953e-5 0 1 -2.46989e-5 0 1 -1.9875e-5 0 1 -4.9398e-5 0 1 -1.97592e-4 0 1 9.87956e-5 0 1 -1.97591e-4 0 1 9.87955e-5 0 1 -1.97591e-4 0 1 -4.93977e-5 0 1 9.87953e-5 0 1 2.46989e-5 0 1 1.9875e-5 0 1 4.9398e-5 0 1 1.97592e-4 0 1 -9.87956e-5 0 1 0.04361796 0.9990483 0 0.04361778 0.9990483 0 0.1305268 0.9914448 0 0.1305277 0.9914447 0 0.3007065 0.9537168 0 0.3007054 0.9537171 0 0.3826832 0.9238798 0 0.3826844 0.9238792 0 0.4617483 0.8870111 0 0.4617483 0.8870111 0 0.5372996 0.8433915 0 0.6087632 0.7933521 0 0.6755878 0.7372796 0 0.6755877 0.7372797 0 0.7372804 0.6755868 0 0.7372804 0.6755869 0 0.7933505 0.6087653 0 0.7933539 0.6087608 0 0.8433908 0.5373008 0 0.9762964 0.216438 0 0.9914447 0.130528 0 0.9914447 0.1305281 0 0.9990485 0.04361468 0 -0.9990485 0.04361468 0 -0.9914447 0.130528 0 -0.9914447 0.1305281 0 -0.9762964 0.216438 0 -0.8433908 0.5373008 0 -0.7933539 0.6087609 0 -0.7933504 0.6087653 0 -0.7372804 0.6755868 0 -0.7372804 0.6755869 0 -0.6755878 0.7372796 0 -0.6755877 0.7372797 0 -0.6087631 0.7933521 0 -0.5372995 0.8433915 0 -0.4617483 0.8870111 0 -0.4617483 0.8870111 0 -0.3826844 0.9238792 0 -0.3826832 0.9238798 0 -0.3007054 0.9537171 0 -0.3007065 0.9537168 0 -0.1305277 0.9914448 0 -0.1305268 0.9914448 0 -0.04361778 0.9990483 0 -0.04361796 0.9990483 0 -0.04361796 -0.9990483 0 -0.04361778 -0.9990483 0 -0.1305268 -0.9914448 0 -0.1305277 -0.9914447 0 -0.3007065 -0.9537168 0 -0.3007054 -0.9537171 0 -0.3826832 -0.9238798 0 -0.3826844 -0.9238792 0 -0.4617483 -0.8870111 0 -0.4617483 -0.8870111 0 -0.5372996 -0.8433915 0 -0.6087632 -0.7933521 0 -0.6755878 -0.7372796 0 -0.6755877 -0.7372797 0 -0.7372804 -0.6755868 0 -0.7372804 -0.6755869 0 -0.7933505 -0.6087653 0 -0.7933539 -0.6087608 0 -0.8433908 -0.5373008 0 -0.9762964 -0.216438 0 -0.9914447 -0.130528 0 -0.9914447 -0.1305281 0 -0.9990485 -0.04361468 0</float_array>
          <technique_common>
            <accessor source="#chassis_default_as_machined__7-mesh-normals-array" count="270" stride="3">
              <param name="X" type="float"/>
              <param name="Y" type="float"/>
              <param name="Z" type="float"/>
            </accessor>
          </technique_common>
        </source>
        <vertices id="chassis_default_as_machined__7-mesh-vertices">
          <input semantic="POSITION" source="#chassis_default_as_machined__7-mesh-positions"/>
        </vertices>
        <triangles count="608">
          <input semantic="VERTEX" source="#chassis_default_as_machined__7-mesh-vertices" offset="0"/>
          <input semantic="NORMAL" source="#chassis_default_as_machined__7-mesh-normals" offset="1"/>
          <p>0 0 1 0 2 0 1 0 3 0 2 0 2 1 3 1 4 1 3 2 5 2 4 2 4 3 5 3 6 3 5 4 7 4 6 4 6 0 7 0 8 0 7 5 9 5 8 5 8 6 9 6 10 6 9 0 11 0 10 0 10 0 11 0 12 0 11 0 13 0 12 0 12 0 13 0 14 0 13 0 15 0 14 0 14 0 15 0 16 0 15 0 17 0 16 0 16 0 17 0 18 0 17 0 19 0 18 0 18 0 19 0 20 0 19 0 21 0 20 0 20 0 21 0 22 0 21 7 23 7 22 7 22 8 23 8 24 8 23 0 25 0 24 0 24 0 25 0 26 0 25 9 27 9 26 9 26 0 27 0 28 0 27 10 29 10 28 10 28 0 29 0 30 0 29 11 31 11 30 11 30 8 31 8 32 8 31 0 33 0 32 0 32 0 33 0 34 0 33 0 35 0 34 0 34 0 35 0 36 0 35 0 37 0 36 0 36 0 37 0 38 0 37 0 39 0 38 0 38 0 39 0 40 0 39 0 41 0 40 0 40 0 41 0 42 0 41 0 43 0 42 0 42 0 43 0 44 0 43 11 45 11 44 11 44 0 45 0 46 0 45 10 47 10 46 10 46 0 47 0 48 0 47 11 49 11 48 11 48 0 49 0 50 0 49 12 51 12 50 12 50 13 51 13 52 13 51 0 53 0 52 0 52 0 53 0 54 0 53 14 55 14 54 14 54 0 55 0 56 0 55 0 57 0 56 0 56 13 57 13 58 13 57 15 59 15 58 15 58 0 59 0 60 0 59 0 61 0 60 0 60 0 61 0 62 0 61 0 63 0 62 0 62 12 63 12 64 12 63 0 65 0 64 0 64 0 65 0 66 0 65 0 67 0 66 0 66 0 67 0 68 0 67 16 69 16 68 16 68 0 69 0 70 0 69 0 71 0 70 0 70 0 71 0 72 0 71 17 73 17 72 17 72 0 73 0 74 0 73 0 75 0 74 0 74 0 75 0 76 0 75 0 77 0 76 0 76 0 77 0 78 0 77 0 79 0 78 0 78 18 79 18 80 18 79 19 81 19 80 19 80 20 81 20 82 20 81 21 83 21 82 21 82 0 83 0 84 0 83 22 85 22 84 22 84 23 85 23 86 23 85 0 87 0 86 0 86 0 87 0 88 0 87 0 89 0 88 0 88 0 89 0 90 0 89 0 91 0 90 0 90 0 91 0 92 0 91 0 93 0 92 0 92 0 93 0 94 0 93 0 95 0 94 0 94 0 95 0 96 0 95 0 97 0 96 0 96 0 97 0 98 0 97 14 99 14 98 14 98 13 99 13 100 13 99 0 101 0 100 0 100 0 101 0 102 0 101 24 103 24 102 24 102 0 103 0 104 0 103 11 105 11 104 11 104 0 105 0 106 0 105 10 107 10 106 10 106 13 107 13 108 13 107 0 109 0 108 0 108 0 109 0 110 0 109 0 111 0 110 0 110 0 111 0 112 0 111 0 113 0 112 0 112 0 113 0 114 0 113 0 115 0 114 0 114 0 115 0 116 0 115 0 117 0 116 0 116 0 117 0 118 0 117 0 119 0 118 0 118 0 119 0 120 0 119 10 121 10 120 10 120 0 121 0 122 0 121 11 123 11 122 11 122 0 123 0 124 0 123 10 125 10 124 10 124 0 125 0 126 0 125 25 127 25 126 25 126 8 127 8 128 8 127 0 129 0 128 0 128 0 129 0 130 0 129 7 131 7 130 7 130 0 131 0 132 0 131 0 133 0 132 0 132 8 133 8 134 8 133 26 135 26 134 26 134 0 135 0 136 0 135 0 137 0 136 0 136 0 137 0 138 0 137 0 139 0 138 0 138 25 139 25 140 25 139 0 141 0 140 0 140 0 141 0 142 0 141 0 143 0 142 0 142 0 143 0 144 0 143 27 145 27 144 27 144 0 145 0 146 0 145 0 147 0 146 0 146 0 147 0 148 0 147 28 149 28 148 28 148 0 149 0 150 0 149 0 151 0 150 0 150 0 151 0 0 0 151 0 1 0 0 0 1 29 152 29 153 29 1 30 153 30 3 30 153 31 154 31 3 31 3 32 154 32 5 32 154 33 155 33 5 33 5 34 155 34 7 34 155 35 156 35 7 35 7 35 156 35 9 35 156 36 157 36 9 36 9 37 157 37 11 37 157 38 158 38 11 38 11 39 158 39 13 39 158 40 159 40 13 40 13 40 159 40 15 40 159 41 160 41 15 41 15 42 160 42 17 42 160 43 161 43 17 43 17 44 161 44 19 44 161 45 162 45 19 45 19 46 162 46 21 46 162 47 163 47 21 47 21 48 163 48 23 48 163 49 164 49 23 49 23 50 164 50 25 50 164 51 165 51 25 51 25 52 165 52 27 52 165 53 166 53 27 53 27 54 166 54 29 54 166 55 167 55 29 55 29 56 167 56 31 56 167 57 168 57 31 57 31 57 168 57 33 57 168 58 169 58 33 58 33 59 169 59 35 59 169 60 170 60 35 60 35 61 170 61 37 61 36 62 171 62 34 62 171 63 172 63 34 63 34 64 172 64 32 64 172 65 173 65 32 65 32 66 173 66 30 66 173 66 174 66 30 66 30 67 174 67 28 67 174 68 175 68 28 68 28 69 175 69 26 69 175 69 176 69 26 69 26 70 176 70 24 70 176 70 177 70 24 70 24 71 177 71 22 71 177 72 178 72 22 72 22 73 178 73 20 73 178 74 179 74 20 74 20 75 179 75 18 75 179 76 180 76 18 76 18 77 180 77 16 77 180 78 181 78 16 78 16 79 181 79 14 79 181 79 182 79 14 79 14 80 182 80 12 80 182 81 183 81 12 81 12 82 183 82 10 82 183 83 184 83 10 83 10 84 184 84 8 84 184 85 185 85 8 85 8 86 185 86 6 86 185 86 186 86 6 86 6 87 186 87 4 87 186 88 187 88 4 88 4 89 187 89 2 89 187 90 188 90 2 90 2 91 188 91 0 91 188 92 189 92 0 92 0 93 189 93 150 93 189 93 190 93 150 93 150 94 190 94 148 94 190 95 191 95 148 95 148 96 191 96 146 96 191 97 192 97 146 97 146 98 192 98 144 98 192 99 193 99 144 99 144 100 193 100 142 100 193 100 194 100 142 100 142 101 194 101 140 101 194 102 195 102 140 102 140 103 195 103 138 103 195 104 196 104 138 104 138 105 196 105 136 105 196 106 197 106 136 106 136 107 197 107 134 107 197 107 198 107 134 107 134 108 198 108 132 108 198 109 199 109 132 109 132 110 199 110 130 110 199 111 200 111 130 111 130 112 200 112 128 112 200 113 201 113 128 113 128 114 201 114 126 114 201 115 202 115 126 115 126 116 202 116 124 116 202 116 203 116 124 116 124 117 203 117 122 117 203 117 204 117 122 117 122 118 204 118 120 118 204 119 205 119 120 119 120 120 205 120 118 120 205 120 206 120 118 120 118 121 206 121 116 121 206 122 207 122 116 122 116 123 207 123 114 123 207 124 208 124 114 124 114 125 208 125 112 125 208 125 209 125 112 125 76 126 210 126 74 126 210 126 211 126 74 126 112 127 209 127 110 127 209 128 212 128 110 128 110 129 212 129 108 129 212 130 213 130 108 130 108 57 213 57 106 57 213 57 214 57 106 57 106 131 214 131 104 131 214 132 215 132 104 132 104 133 215 133 102 133 215 133 216 133 102 133 102 134 216 134 100 134 216 134 217 134 100 134 100 50 217 50 98 50 217 135 218 135 98 135 98 136 218 136 96 136 218 47 219 47 96 47 96 137 219 137 94 137 219 138 220 138 94 138 94 139 220 139 92 139 220 140 221 140 92 140 92 141 221 141 90 141 221 141 222 141 90 141 90 142 222 142 88 142 222 143 223 143 88 143 88 38 223 38 86 38 223 39 224 39 86 39 86 37 224 37 84 37 224 36 225 36 84 36 84 35 225 35 82 35 225 35 226 35 82 35 82 144 226 144 80 144 226 33 227 33 80 33 80 145 227 145 78 145 227 146 228 146 78 146 78 147 228 147 76 147 228 29 210 29 76 29 38 148 229 148 36 148 229 148 171 148 36 148 74 149 211 149 72 149 211 150 230 150 72 150 72 151 230 151 70 151 230 152 231 152 70 152 70 153 231 153 68 153 231 154 232 154 68 154 68 155 232 155 66 155 232 155 233 155 66 155 66 156 233 156 64 156 233 157 234 157 64 157 64 158 234 158 62 158 234 159 235 159 62 159 62 160 235 160 60 160 235 161 236 161 60 161 60 162 236 162 58 162 236 162 237 162 58 162 58 163 237 163 56 163 237 164 238 164 56 164 56 165 238 165 54 165 238 166 239 166 54 166 54 167 239 167 52 167 239 168 240 168 52 168 52 169 240 169 50 169 240 170 241 170 50 170 50 171 241 171 48 171 241 171 242 171 48 171 48 172 242 172 46 172 242 172 243 172 46 172 46 173 243 173 44 173 243 174 244 174 44 174 44 175 244 175 42 175 244 175 245 175 42 175 42 176 245 176 40 176 245 177 246 177 40 177 40 178 246 178 38 178 246 179 229 179 38 179 209 180 247 180 212 180 247 180 248 180 212 180 212 181 248 181 213 181 248 182 249 182 213 182 213 183 249 183 214 183 249 180 250 180 214 180 214 180 250 180 215 180 250 180 251 180 215 180 215 180 251 180 216 180 251 182 252 182 216 182 216 180 252 180 217 180 252 180 253 180 217 180 217 180 253 180 218 180 253 180 254 180 218 180 218 180 254 180 219 180 254 180 255 180 219 180 219 180 255 180 220 180 255 180 256 180 220 180 220 180 256 180 221 180 256 180 257 180 221 180 221 180 257 180 222 180 257 180 258 180 222 180 222 180 258 180 223 180 258 184 259 184 223 184 223 185 259 185 224 185 259 180 260 180 224 180 224 180 260 180 225 180 260 180 261 180 225 180 225 180 261 180 226 180 261 180 262 180 226 180 226 180 262 180 227 180 262 186 263 186 227 186 227 180 263 180 228 180 263 180 264 180 228 180 228 180 264 180 210 180 264 180 265 180 210 180 210 180 265 180 211 180 265 180 266 180 211 180 211 180 266 180 230 180 266 180 267 180 230 180 230 187 267 187 231 187 267 180 268 180 231 180 231 180 268 180 232 180 268 180 269 180 232 180 232 180 269 180 233 180 269 180 270 180 233 180 233 188 270 188 234 188 270 180 271 180 234 180 234 180 271 180 235 180 271 180 272 180 235 180 235 180 272 180 236 180 272 180 273 180 236 180 236 180 273 180 237 180 273 180 274 180 237 180 237 180 274 180 238 180 274 180 275 180 238 180 238 180 275 180 239 180 275 180 276 180 239 180 239 180 276 180 240 180 276 180 277 180 240 180 240 180 277 180 241 180 277 180 278 180 241 180 241 180 278 180 242 180 278 180 279 180 242 180 242 189 279 189 243 189 279 180 280 180 243 180 243 180 280 180 244 180 280 180 281 180 244 180 244 180 281 180 245 180 281 190 282 190 245 190 245 180 282 180 246 180 282 180 283 180 246 180 246 180 283 180 229 180 283 180 284 180 229 180 229 180 284 180 171 180 284 180 170 180 171 180 171 180 170 180 172 180 170 180 169 180 172 180 172 191 169 191 173 191 169 192 168 192 173 192 173 193 168 193 174 193 168 180 167 180 174 180 174 180 167 180 175 180 167 180 166 180 175 180 175 180 166 180 176 180 166 192 165 192 176 192 176 180 165 180 177 180 165 180 164 180 177 180 177 180 164 180 178 180 164 180 163 180 178 180 178 180 163 180 179 180 163 180 162 180 179 180 179 180 162 180 180 180 162 180 161 180 180 180 180 180 161 180 181 180 161 180 160 180 181 180 181 180 160 180 182 180 160 180 159 180 182 180 182 180 159 180 183 180 159 194 158 194 183 194 183 195 158 195 184 195 158 180 157 180 184 180 184 180 157 180 185 180 157 180 156 180 185 180 185 180 156 180 186 180 156 180 155 180 186 180 186 180 155 180 187 180 155 196 154 196 187 196 187 180 154 180 188 180 154 180 153 180 188 180 188 180 153 180 189 180 153 180 152 180 189 180 189 180 152 180 190 180 152 180 285 180 190 180 190 180 285 180 191 180 285 180 286 180 191 180 191 197 286 197 192 197 286 180 287 180 192 180 192 180 287 180 193 180 287 180 288 180 193 180 193 180 288 180 194 180 288 180 289 180 194 180 194 198 289 198 195 198 289 180 290 180 195 180 195 180 290 180 196 180 290 180 291 180 196 180 196 180 291 180 197 180 291 180 292 180 197 180 197 180 292 180 198 180 292 180 293 180 198 180 198 180 293 180 199 180 293 180 294 180 199 180 199 180 294 180 200 180 294 180 295 180 200 180 200 180 295 180 201 180 295 180 296 180 201 180 201 180 296 180 202 180 296 180 297 180 202 180 202 180 297 180 203 180 297 180 298 180 203 180 203 199 298 199 204 199 298 180 299 180 204 180 204 180 299 180 205 180 299 180 300 180 205 180 205 180 300 180 206 180 300 200 301 200 206 200 206 180 301 180 207 180 301 180 302 180 207 180 207 180 302 180 208 180 302 180 303 180 208 180 208 180 303 180 209 180 303 180 247 180 209 180 285 126 152 126 151 126 152 126 1 126 151 126 115 201 303 201 302 201 115 202 302 202 117 202 302 203 301 203 117 203 117 204 301 204 119 204 301 175 300 175 119 175 119 175 300 175 121 175 300 205 299 205 121 205 121 206 299 206 123 206 299 207 298 207 123 207 123 208 298 208 125 208 298 209 297 209 125 209 125 210 297 210 127 210 297 170 296 170 127 170 127 211 296 211 129 211 296 212 295 212 129 212 129 167 295 167 131 167 295 213 294 213 131 213 131 214 294 214 133 214 294 215 293 215 133 215 133 216 293 216 135 216 293 217 292 217 135 217 135 218 292 218 137 218 292 219 291 219 137 219 137 219 291 219 139 219 291 158 290 158 139 158 139 159 290 159 141 159 290 157 289 157 141 157 141 156 289 156 143 156 289 155 288 155 143 155 143 155 288 155 145 155 288 220 287 220 145 220 145 153 287 153 147 153 287 221 286 221 147 221 147 222 286 222 149 222 286 223 285 223 149 223 149 149 285 149 151 149 247 148 303 148 113 148 303 148 115 148 113 148 77 92 265 92 264 92 77 224 264 224 79 224 264 225 263 225 79 225 79 226 263 226 81 226 263 88 262 88 81 88 81 227 262 227 83 227 262 86 261 86 83 86 83 86 261 86 85 86 261 85 260 85 85 85 85 84 260 84 87 84 260 82 259 82 87 82 87 83 259 83 89 83 259 228 258 228 89 228 89 228 258 228 91 228 258 229 257 229 91 229 91 230 257 230 93 230 257 231 256 231 93 231 93 232 256 232 95 232 256 233 255 233 95 233 95 234 255 234 97 234 255 74 254 74 97 74 97 235 254 235 99 235 254 236 253 236 99 236 99 71 253 71 101 71 253 237 252 237 101 237 101 238 252 238 103 238 252 239 251 239 103 239 103 240 251 240 105 240 251 241 250 241 105 241 105 242 250 242 107 242 250 66 249 66 107 66 107 66 249 66 109 66 249 243 248 243 109 243 109 244 248 244 111 244 248 245 247 245 111 245 111 246 247 246 113 246 266 93 265 93 75 93 265 93 77 93 75 93 39 247 284 247 283 247 39 248 283 248 41 248 283 249 282 249 41 249 41 250 282 250 43 250 282 120 281 120 43 120 43 120 281 120 45 120 281 251 280 251 45 251 45 252 280 252 47 252 280 253 279 253 47 253 47 254 279 254 49 254 279 255 278 255 49 255 49 256 278 256 51 256 278 115 277 115 51 115 51 257 277 257 53 257 277 258 276 258 53 258 53 112 276 112 55 112 276 259 275 259 55 259 55 260 275 260 57 260 275 261 274 261 57 261 57 262 274 262 59 262 274 263 273 263 59 263 59 264 273 264 61 264 273 265 272 265 61 265 61 265 272 265 63 265 272 103 271 103 63 103 63 104 271 104 65 104 271 102 270 102 65 102 65 101 270 101 67 101 270 100 269 100 67 100 67 100 269 100 69 100 269 266 268 266 69 266 69 98 268 98 71 98 268 267 267 267 71 267 71 268 267 268 73 268 267 269 266 269 73 269 73 94 266 94 75 94 170 125 284 125 37 125 284 125 39 125 37 125</p>
        </triangles>
      </mesh>
    </geometry>
  </library_geometries>
  <library_visual_scenes>
    <visual_scene id="Scene" name="Scene">
      <node id="chassis_default_as_machined__7" name="chassis_default_as_machined__7" type="NODE">
        <matrix sid="transform">1 0 0 0 0 1 0 0 0 0 1 0 0 0 0 1</matrix>
        <instance_geometry url="#chassis_default_as_machined__7-mesh" name="chassis_default_as_machined__7"/>
      </node>
    </visual_scene>
  </library_visual_scenes>
  <scene>
    <instance_visual_scene url="#Scene"/>
  </scene>
</COLLADA>