<?xml version="1.0" encoding="utf-8"?>
<COLLADA xmlns="http://www.collada.org/2005/11/COLLADASchema" version="1.4.1" xmlns:xsi="http://www.w3.org/2001/XMLSchema-instance">
  <asset>
    <contributor>
      <author>Blender User</author>
      <authoring_tool>Blender 3.0.1</authoring_tool>
    </contributor>
    <created>2026-06-04T16:18:32</created>
    <modified>2026-06-04T16:18:32</modified>
    <unit name="meter" meter="1"/>
    <up_axis>Z_UP</up_axis>
  </asset>
  <library_images/>
  <library_geometries>
    <geometry id="chassis_default_as_machined__19-mesh" name="chassis_default_as_machined__19">
      <mesh>
        <source id="chassis_default_as_machined__19-mesh-positions">
          <float_array id="chassis_default_as_machined__19-mesh-positions-array" count="1296">-0.5900866 0.01239752 -0.2876025 -0.5902 0.01239997 -0.2876 -0.5902 0.01499998 -0.285 -0.6098 0.01499998 -0.285 -0.6098 0.01239997 -0.2876 -0.6100268 0.01499503 -0.2850049 -0.6099134 0.01239752 -0.2876025 -0.6102532 0.01498019 -0.2850198 -0.6100266 0.01239007 -0.2876099 -0.6104788 0.01495546 -0.2850445 -0.610703 0.01492094 -0.285079 -0.6101394 0.01237773 -0.2876222 -0.6109255 0.01487672 -0.2851232 -0.6102515 0.01236045 -0.2876395 -0.6111459 0.01482278 -0.2851772 -0.5899732 0.01499503 -0.2850049 -0.5897468 0.01498019 -0.2850198 -0.5899734 0.01239007 -0.2876099 -0.5895213 0.01495546 -0.2850445 -0.5898606 0.01237773 -0.2876222 -0.6113637 0.0147593 -0.2852407 -0.6103628 0.01233834 -0.2876616 -0.6115785 0.0146864 -0.2853136 -0.6104729 0.01231139 -0.2876886 -0.61179 0.01460415 -0.2853958 -0.5892971 0.01492094 -0.285079 -0.5890745 0.01487672 -0.2851232 -0.5897485 0.01236045 -0.2876395 -0.5888541 0.01482278 -0.2851772 -0.5896373 0.01233834 -0.2876616 -0.6099134 -0.01239752 -0.3123975 -0.6102532 -0.01498019 -0.3149802 -0.6100266 -0.01239007 -0.3123901 -0.6104788 -0.01495546 -0.3149555 -0.6101394 -0.01237773 -0.3123778 -0.5899734 -0.01239007 -0.3123901 -0.5895213 -0.01495546 -0.3149555 -0.5897468 -0.01498019 -0.3149802 -0.5900866 -0.01239752 -0.3123975 -0.5899732 -0.01499503 -0.3149951 -0.5902 -0.01239997 -0.3124 -0.5902 -0.01499998 -0.315 -0.6098 -0.01239997 -0.3124 -0.6098 -0.01499998 -0.315 -0.6100268 -0.01499503 -0.3149951 -0.610703 -0.01492094 -0.314921 -0.6109255 -0.01487672 -0.3148767 -0.6102515 -0.01236045 -0.3123605 -0.6111459 -0.01482278 -0.3148228 -0.6103628 -0.01233834 -0.3123384 -0.5892971 -0.01492094 -0.314921 -0.5898606 -0.01237773 -0.3123778 -0.5890745 -0.01487672 -0.3148767 -0.5897485 -0.01236045 -0.3123605 -0.5888541 -0.01482278 -0.3148228 -0.5886363 0.0147593 -0.2852407 -0.5884215 0.0146864 -0.2853136 -0.5895271 0.01231139 -0.2876886 -0.5882101 0.01460415 -0.2853958 -0.5894182 0.01227962 -0.2877203 -0.5880024 0.01451277 -0.2854872 -0.5893108 0.01224315 -0.2877568 -0.5877989 0.0144124 -0.2855876 -0.589205 0.01220208 -0.2877979 -0.6119976 0.01451277 -0.2854872 -0.6105818 0.01227962 -0.2877203 -0.6122011 0.0144124 -0.2855876 -0.6106892 0.01224315 -0.2877568 -0.6124 0.01430332 -0.2856966 -0.610795 0.01220208 -0.2877979 -0.612594 0.0141856 -0.2858144 -0.6108988 0.01215636 -0.2878436 -0.6127826 0.01405954 -0.2859404 -0.6129656 0.01392543 -0.2860745 -0.6110005 0.01210618 -0.2878938 -0.6131425 0.01378339 -0.2862166 -0.6145128 0.01199758 -0.2880024 -0.6120517 0.01109999 -0.2889 -0.6146864 0.0115785 -0.2884215 -0.6121564 0.01089876 -0.2891012 -0.6148228 0.01114583 -0.2888541 -0.6122432 0.01068919 -0.2893108 -0.614921 0.01070296 -0.2892971 -0.5886363 -0.0147593 -0.3147593 -0.5896373 -0.01233834 -0.3123384 -0.5884215 -0.0146864 -0.3146864 -0.5895271 -0.01231139 -0.3123114 -0.5882101 -0.01460415 -0.3146042 -0.6113637 -0.0147593 -0.3147593 -0.6115785 -0.0146864 -0.3146864 -0.6104729 -0.01231139 -0.3123114 -0.61179 -0.01460415 -0.3146042 -0.6105818 -0.01227962 -0.3122797 -0.6119976 -0.01451277 -0.3145128 -0.6106892 -0.01224315 -0.3122432 -0.6122011 -0.0144124 -0.3144124 -0.610795 -0.01220208 -0.3122021 -0.6111 0.01205164 -0.2879483 -0.611197 0.01199281 -0.2880071 -0.6134769 0.0134769 -0.2865231 -0.614921 -0.01070296 -0.310703 -0.6123114 -0.01047289 -0.3104729 -0.6148228 -0.01114583 -0.3111459 -0.6122432 -0.01068919 -0.3106892 -0.6146864 -0.0115785 -0.3115785 -0.6121564 -0.01089876 -0.3108988 -0.6145128 -0.01199758 -0.3119976 -0.5854872 -0.01199758 -0.3119976 -0.5879483 -0.01109999 -0.3111 -0.5853136 -0.0115785 -0.3115785 -0.5878436 -0.01089876 -0.3108988 -0.5851772 -0.01114583 -0.3111459 -0.5877568 -0.01068919 -0.3106892 -0.585079 -0.01070296 -0.310703 -0.585079 0.01070296 -0.2892971 -0.5876886 0.01047289 -0.2895271 -0.5851772 0.01114583 -0.2888541 -0.5877568 0.01068919 -0.2893108 -0.5853136 0.0115785 -0.2884215 -0.5878436 0.01089876 -0.2891012 -0.5854872 0.01199758 -0.2880024 -0.5876 0.01430332 -0.2856966 -0.587406 0.0141856 -0.2858144 -0.5891012 0.01215636 -0.2878436 -0.5872174 0.01405954 -0.2859404 -0.5889995 0.01210618 -0.2878938 -0.5870345 0.01392543 -0.2860745 -0.5889 0.01205164 -0.2879483 -0.5868575 0.01378339 -0.2862166 -0.6112913 0.01192975 -0.2880702 -0.6113828 0.01186269 -0.2881373 -0.6137834 0.01314246 -0.2868575 -0.6114712 0.0117917 -0.2882083 -0.6140596 0.01278257 -0.2872174 -0.6116385 0.01163846 -0.2883615 -0.6143034 0.01239997 -0.2876 -0.6117917 0.01147121 -0.2885288 -0.6119298 0.01129126 -0.2887087 -0.5880024 -0.01451277 -0.3145128 -0.5894182 -0.01227962 -0.3122797 -0.5877989 -0.0144124 -0.3144124 -0.5893108 -0.01224315 -0.3122432 -0.5876 -0.01430332 -0.3143033 -0.589205 -0.01220208 -0.3122021 -0.587406 -0.0141856 -0.3141856 -0.5891012 -0.01215636 -0.3121564 -0.5872174 -0.01405954 -0.3140596 -0.5865231 0.0134769 -0.2865231 -0.5887087 0.01192975 -0.2880702 -0.588803 0.01199281 -0.2880071 -0.6124 -0.01430332 -0.3143033 -0.612594 -0.0141856 -0.3141856 -0.6108988 -0.01215636 -0.3121564 -0.6127826 -0.01405954 -0.3140596 -0.6110005 -0.01210618 -0.3121062 -0.6129656 -0.01392543 -0.3139255 -0.6111 -0.01205164 -0.3120517 -0.6131425 -0.01378339 -0.3137834 -0.5870345 -0.01392543 -0.3139255 -0.5889995 -0.01210618 -0.3121062 -0.5868575 -0.01378339 -0.3137834 -0.5879483 0.01109999 -0.2889 -0.5880702 0.01129126 -0.2887087 -0.5856967 0.01239997 -0.2876 -0.5882083 0.01147121 -0.2885288 -0.5859404 0.01278257 -0.2872174 -0.5883615 0.01163846 -0.2883615 -0.5862166 0.01314246 -0.2868575 -0.5885288 0.0117917 -0.2882083 -0.5886172 0.01186269 -0.2881373 -0.6134769 -0.0134769 -0.3134769 -0.6112913 -0.01192975 -0.3119298 -0.611197 -0.01199281 -0.3119928 -0.5889 -0.01205164 -0.3120517 -0.588803 -0.01199281 -0.3119928 -0.5865231 -0.0134769 -0.3134769 -0.6123114 0.01047289 -0.2895271 -0.6123605 0.01025146 -0.2897485 -0.6149802 0.01025319 -0.2897468 -0.6123901 0.01002657 -0.2899734 -0.615 0.009799957 -0.2902 -0.6124 0.009799957 -0.2902 -0.615 -0.009799957 -0.3098 -0.6124 -0.009799957 -0.3098 -0.6149802 -0.01025319 -0.3102532 -0.6123901 -0.01002657 -0.3100266 -0.6123605 -0.01025146 -0.3102515 -0.6120517 -0.01109999 -0.3111 -0.6119298 -0.01129126 -0.3112913 -0.6143034 -0.01239997 -0.3124 -0.6117917 -0.01147121 -0.3114712 -0.6140596 -0.01278257 -0.3127826 -0.6116385 -0.01163846 -0.3116385 -0.6137834 -0.01314246 -0.3131425 -0.6114712 -0.0117917 -0.3117917 -0.6113828 -0.01186269 -0.3118627 -0.5887087 -0.01192975 -0.3119298 -0.5886172 -0.01186269 -0.3118627 -0.5862166 -0.01314246 -0.3131425 -0.5885288 -0.0117917 -0.3117917 -0.5859404 -0.01278257 -0.3127826 -0.5883615 -0.01163846 -0.3116385 -0.5856967 -0.01239997 -0.3124 -0.5882083 -0.01147121 -0.3114712 -0.5880702 -0.01129126 -0.3112913 -0.5876886 -0.01047289 -0.3104729 -0.5876395 -0.01025146 -0.3102515 -0.5850198 -0.01025319 -0.3102532 -0.5876099 -0.01002657 -0.3100266 -0.585 -0.009799957 -0.3098 -0.5876 -0.009799957 -0.3098 -0.585 0.009799957 -0.2902 -0.5876 0.009799957 -0.2902 -0.5850198 0.01025319 -0.2897468 -0.5876099 0.01002657 -0.2899734 -0.5876395 0.01025146 -0.2897485 -0.5900866 -0.01239752 0.3123975 -0.5902 -0.01239997 0.3124 -0.5902 -0.01499998 0.315 -0.6098 -0.01499998 0.315 -0.6098 -0.01239997 0.3124 -0.6100268 -0.01499503 0.3149951 -0.6099134 -0.01239752 0.3123975 -0.6102532 -0.01498019 0.3149802 -0.6100266 -0.01239007 0.3123901 -0.6104788 -0.01495546 0.3149555 -0.610703 -0.01492094 0.314921 -0.6101394 -0.01237773 0.3123778 -0.6109255 -0.01487672 0.3148767 -0.6102515 -0.01236045 0.3123605 -0.6111459 -0.01482278 0.3148228 -0.6099134 0.01239752 0.2876025 -0.6102532 0.01498019 0.2850198 -0.6100266 0.01239007 0.2876099 -0.6104788 0.01495546 0.2850445 -0.6101394 0.01237773 0.2876222 -0.5899734 0.01239007 0.2876099 -0.5895213 0.01495546 0.2850445 -0.5897468 0.01498019 0.2850198 -0.5899732 -0.01499503 0.3149951 -0.5897468 -0.01498019 0.3149802 -0.5899734 -0.01239007 0.3123901 -0.5895213 -0.01495546 0.3149555 -0.5898606 -0.01237773 0.3123778 -0.5900866 0.01239752 0.2876025 -0.5899732 0.01499503 0.2850049 -0.5902 0.01239997 0.2876 -0.5902 0.01499998 0.285 -0.6098 0.01239997 0.2876 -0.6098 0.01499998 0.285 -0.6100268 0.01499503 0.2850049 -0.6113637 -0.0147593 0.3147593 -0.6103628 -0.01233834 0.3123384 -0.6115785 -0.0146864 0.3146864 -0.6104729 -0.01231139 0.3123114 -0.61179 -0.01460415 0.3146042 -0.610703 0.01492094 0.285079 -0.6109255 0.01487672 0.2851232 -0.6102515 0.01236045 0.2876395 -0.6111459 0.01482278 0.2851772 -0.6103628 0.01233834 0.2876616 -0.5892971 0.01492094 0.285079 -0.5898606 0.01237773 0.2876222 -0.5890745 0.01487672 0.2851232 -0.5897485 0.01236045 0.2876395 -0.5888541 0.01482278 0.2851772 -0.5892971 -0.01492094 0.314921 -0.5890745 -0.01487672 0.3148767 -0.5897485 -0.01236045 0.3123605 -0.5888541 -0.01482278 0.3148228 -0.5896373 -0.01233834 0.3123384 -0.5886363 0.0147593 0.2852407 -0.5896373 0.01233834 0.2876616 -0.5884215 0.0146864 0.2853136 -0.5895271 0.01231139 0.2876886 -0.5882101 0.01460415 0.2853958 -0.6113637 0.0147593 0.2852407 -0.6115785 0.0146864 0.2853136 -0.6104729 0.01231139 0.2876886 -0.61179 0.01460415 0.2853958 -0.6105818 0.01227962 0.2877203 -0.6119976 0.01451277 0.2854872 -0.6106892 0.01224315 0.2877568 -0.6122011 0.0144124 0.2855876 -0.610795 0.01220208 0.2877979 -0.5886363 -0.0147593 0.3147593 -0.5884215 -0.0146864 0.3146864 -0.5895271 -0.01231139 0.3123114 -0.5882101 -0.01460415 0.3146042 -0.5894182 -0.01227962 0.3122797 -0.5880024 -0.01451277 0.3145128 -0.5893108 -0.01224315 0.3122432 -0.5877989 -0.0144124 0.3144124 -0.589205 -0.01220208 0.3122021 -0.6119976 -0.01451277 0.3145128 -0.6105818 -0.01227962 0.3122797 -0.6122011 -0.0144124 0.3144124 -0.6106892 -0.01224315 0.3122432 -0.6124 -0.01430332 0.3143033 -0.610795 -0.01220208 0.3122021 -0.612594 -0.0141856 0.3141856 -0.6108988 -0.01215636 0.3121564 -0.6127826 -0.01405954 0.3140596 -0.6145128 -0.01199758 0.3119976 -0.6120517 -0.01109999 0.3111 -0.6146864 -0.0115785 0.3115785 -0.6121564 -0.01089876 0.3108988 -0.6148228 -0.01114583 0.3111459 -0.6122432 -0.01068919 0.3106892 -0.614921 -0.01070296 0.310703 -0.614921 0.01070296 0.2892971 -0.6123114 0.01047289 0.2895271 -0.6148228 0.01114583 0.2888541 -0.6122432 0.01068919 0.2893108 -0.6146864 0.0115785 0.2884215 -0.6121564 0.01089876 0.2891012 -0.6145128 0.01199758 0.2880024 -0.5854872 0.01199758 0.2880024 -0.5879483 0.01109999 0.2889 -0.5853136 0.0115785 0.2884215 -0.5878436 0.01089876 0.2891012 -0.5851772 0.01114583 0.2888541 -0.5877568 0.01068919 0.2893108 -0.585079 0.01070296 0.2892971 -0.6129656 -0.01392543 0.3139255 -0.6110005 -0.01210618 0.3121062 -0.6131425 -0.01378339 0.3137834 -0.5880024 0.01451277 0.2854872 -0.5894182 0.01227962 0.2877203 -0.5877989 0.0144124 0.2855876 -0.5893108 0.01224315 0.2877568 -0.5876 0.01430332 0.2856966 -0.589205 0.01220208 0.2877979 -0.587406 0.0141856 0.2858144 -0.5891012 0.01215636 0.2878436 -0.5872174 0.01405954 0.2859404 -0.585079 -0.01070296 0.310703 -0.5876886 -0.01047289 0.3104729 -0.5851772 -0.01114583 0.3111459 -0.5877568 -0.01068919 0.3106892 -0.5853136 -0.0115785 0.3115785 -0.5878436 -0.01089876 0.3108988 -0.5854872 -0.01199758 0.3119976 -0.6111 -0.01205164 0.3120517 -0.611197 -0.01199281 0.3119928 -0.6134769 -0.0134769 0.3134769 -0.6124 0.01430332 0.2856966 -0.612594 0.0141856 0.2858144 -0.6108988 0.01215636 0.2878436 -0.6127826 0.01405954 0.2859404 -0.6110005 0.01210618 0.2878938 -0.6129656 0.01392543 0.2860745 -0.6111 0.01205164 0.2879483 -0.6131425 0.01378339 0.2862166 -0.5870345 0.01392543 0.2860745 -0.5889995 0.01210618 0.2878938 -0.5868575 0.01378339 0.2862166 -0.5876 -0.01430332 0.3143033 -0.587406 -0.0141856 0.3141856 -0.5891012 -0.01215636 0.3121564 -0.5872174 -0.01405954 0.3140596 -0.5889995 -0.01210618 0.3121062 -0.5870345 -0.01392543 0.3139255 -0.5889 -0.01205164 0.3120517 -0.5868575 -0.01378339 0.3137834 -0.6112913 -0.01192975 0.3119298 -0.6113828 -0.01186269 0.3118627 -0.6137834 -0.01314246 0.3131425 -0.6114712 -0.0117917 0.3117917 -0.6140596 -0.01278257 0.3127826 -0.6116385 -0.01163846 0.3116385 -0.6143034 -0.01239997 0.3124 -0.6117917 -0.01147121 0.3114712 -0.6119298 -0.01129126 0.3112913 -0.6134769 0.0134769 0.2865231 -0.6112913 0.01192975 0.2880702 -0.611197 0.01199281 0.2880071 -0.5889 0.01205164 0.2879483 -0.588803 0.01199281 0.2880071 -0.5865231 0.0134769 0.2865231 -0.5865231 -0.0134769 0.3134769 -0.5887087 -0.01192975 0.3119298 -0.588803 -0.01199281 0.3119928 -0.6120517 0.01109999 0.2889 -0.6119298 0.01129126 0.2887087 -0.6143034 0.01239997 0.2876 -0.6117917 0.01147121 0.2885288 -0.6140596 0.01278257 0.2872174 -0.6116385 0.01163846 0.2883615 -0.6137834 0.01314246 0.2868575 -0.6114712 0.0117917 0.2882083 -0.6113828 0.01186269 0.2881373 -0.5879483 -0.01109999 0.3111 -0.5880702 -0.01129126 0.3112913 -0.5856967 -0.01239997 0.3124 -0.5882083 -0.01147121 0.3114712 -0.5859404 -0.01278257 0.3127826 -0.5883615 -0.01163846 0.3116385 -0.5862166 -0.01314246 0.3131425 -0.5885288 -0.0117917 0.3117917 -0.5886172 -0.01186269 0.3118627 -0.6123114 -0.01047289 0.3104729 -0.6123605 -0.01025146 0.3102515 -0.6149802 -0.01025319 0.3102532 -0.6123901 -0.01002657 0.3100266 -0.615 -0.009799957 0.3098 -0.6124 -0.009799957 0.3098 -0.615 0.009799957 0.2902 -0.6124 0.009799957 0.2902 -0.6149802 0.01025319 0.2897468 -0.6123901 0.01002657 0.2899734 -0.6123605 0.01025146 0.2897485 -0.5887087 0.01192975 0.2880702 -0.5886172 0.01186269 0.2881373 -0.5862166 0.01314246 0.2868575 -0.5885288 0.0117917 0.2882083 -0.5859404 0.01278257 0.2872174 -0.5883615 0.01163846 0.2883615 -0.5856967 0.01239997 0.2876 -0.5882083 0.01147121 0.2885288 -0.5880702 0.01129126 0.2887087 -0.5876886 0.01047289 0.2895271 -0.5876395 0.01025146 0.2897485 -0.5850198 0.01025319 0.2897468 -0.5876099 0.01002657 0.2899734 -0.585 0.009799957 0.2902 -0.5876 0.009799957 0.2902 -0.585 -0.009799957 0.3098 -0.5876 -0.009799957 0.3098 -0.5850198 -0.01025319 0.3102532 -0.5876099 -0.01002657 0.3100266 -0.5876395 -0.01025146 0.3102515</float_array>
          <technique_common>
            <accessor source="#chassis_default_as_machined__19-mesh-positions-array" count="432" stride="3">
              <param name="X" type="float"/>
              <param name="Y" type="float"/>
              <param name="Z" type="float"/>
            </accessor>
          </technique_common>
        </source>
        <source id="chassis_default_as_machined__19-mesh-normals">
          <float_array id="chassis_default_as_machined__19-mesh-normals-array" count="2499">0 0.706929 -0.7072846 0 0.7071096 -0.707104 0 0.707108 -0.7071056 0 0.7070686 -0.7071449 -2.79198e-4 0.706929 -0.7072845 1.3953e-4 0.707418 -0.7067955 -2.79336e-4 0.7067193 -0.707494 -1.39577e-4 0.7070948 -0.7071188 1.3934e-4 0.7070088 -0.7072048 -5.60369e-4 0.7071855 -0.7070279 1.39343e-4 0.7070251 -0.7071884 -2.80197e-4 0.7072162 -0.7069973 1.39316e-4 0.7071688 -0.7070448 1.39516e-4 0.7073476 -0.7068659 -1.3964e-4 0.7068596 -0.7073538 2.79005e-4 0.7075568 -0.7066565 1.39622e-4 0.7070479 -0.7071657 -2.79098e-4 0.7072343 -0.7069792 0 0.706803 -0.7074105 2.82139e-4 0.7076048 -0.7066084 0 0.7070049 -0.7072087 0 0.7072127 -0.7070009 -1.38811e-4 0.7071025 -0.7071111 2.7922e-4 0.7069857 -0.7072278 -1.3927e-4 0.7072135 -0.7070002 2.80308e-4 0.706936 -0.7072775 -1.39371e-4 0.7068901 -0.7073234 0 0.7075991 -0.7066143 2.79336e-4 0.7067193 -0.707494 0 0.7072343 -0.7069792 1.11251e-4 0.707118 -0.7070956 -2.79005e-4 0.7075568 -0.7066565 0 0.7068594 -0.7073541 -2.79088e-4 0.7072082 -0.7070054 2.79088e-4 0.7072082 -0.7070054 0 0.7071048 -0.7071088 0 0.7071032 -0.7071105 -2.78978e-4 0.707487 -0.7067264 1.74429e-5 0.7073523 -0.7068612 -1.3961e-4 0.7069836 -0.70723 0 0.7072162 -0.7069973 0 0.7068615 -0.707352 0 0.7070099 -0.7072037 2.80185e-4 0.7071878 -0.7070258 0 0.706936 -0.7072776 0 0.7070873 -0.7071263 0 0.7073251 -0.7068885 1.38795e-4 0.7070222 -0.7071914 -2.82513e-4 0.7068463 -0.7073672 1.38775e-4 0.7071957 -0.7070179 2.82289e-4 0.7074155 -0.706798 -1.38799e-4 0.7070418 -0.7071719 0 0.7073581 -0.7068554 0 0.707137 -0.7070766 0 0.7072541 -0.7069595 0 0.7069839 -0.7072297 -1.38007e-4 0.7071456 -0.707068 -2.85736e-4 0.7069103 -0.7073032 2.76011e-4 0.7071413 -0.7070723 -2.85635e-4 0.7072317 -0.7069818 -1.38003e-4 0.7071262 -0.7070874 0 0.7069462 -0.7072673 0 0.707279 -0.7069346 6.84947e-5 0.7071389 -0.7070747 -1.73322e-5 0.7071187 -0.7070949 0 0.7071112 -0.7071024 3.46653e-5 0.7071198 -0.7070938 3.54674e-5 0.7071489 -0.7070647 -7.58334e-6 0.7070862 -0.7071274 1.38752e-4 0.7073583 -0.7068552 -2.82659e-4 0.7066473 -0.7075659 1.38808e-4 0.7070873 -0.7071263 -2.82253e-4 0.7073251 -0.7068884 0 0.7070222 -0.7071914 0 0.7070317 -0.7071819 -1.38792e-4 0.7070049 -0.7072087 2.82433e-4 0.7072127 -0.7070009 0 0.7071025 -0.7071111 2.82287e-4 0.7074111 -0.7068024 -2.77604e-4 0.7070569 -0.7071567 0 0.7068507 -0.7073628 0 0.7071805 -0.7070331 2.82491e-4 0.7067933 -0.7074201 0 0.7072337 -0.7069799 0 0.7072362 -0.7069774 0 0.7071122 -0.7071014 -1.74652e-5 0.7070981 -0.7071155 3.49287e-5 0.7070959 -0.7071177 3.49312e-5 0.7070773 -0.7071363 -3.4926e-5 0.707181 -0.7070326 0 0.7071352 -0.7070784 0 0.7071003 -0.7071133 3.54711e-5 0.7070802 -0.7071334 -2.59988e-5 0.7071166 -0.7070971 0 0.7071135 -0.7071002 -7.58287e-6 0.7071301 -0.7070835 -3.49305e-5 0.7070981 -0.7071155 6.98573e-5 0.7070959 -0.7071177 -6.98582e-5 0.7071046 -0.707109 0 0.7071199 -0.7070937 3.49315e-5 0.7070839 -0.7071297 2.77607e-4 0.7070655 -0.707148 -2.76011e-4 0.7071413 -0.7070723 2.8575e-4 0.706946 -0.7072675 1.3803e-4 0.7069882 -0.7072254 -2.85516e-4 0.7075082 -0.7067052 1.3804e-4 0.70704 -0.7071737 -2.85783e-4 0.7070264 -0.7071871 0 0.7072383 -0.7069753 0 0.7069117 -0.7073018 -1.42812e-4 0.7072049 -0.7070086 6.88741e-5 0.7071304 -0.7070831 0 0.7070206 -0.707193 0 0.7071324 -0.7070811 0 0.7070633 -0.7071503 1.70747e-5 0.7071324 -0.7070812 0 0.7070702 -0.7071434 0 0.7070791 -0.7071346 0 0.7071251 -0.7070885 1.77343e-5 0.7071018 -0.7071118 1.38005e-4 0.707137 -0.7070766 2.85759e-4 0.7069684 -0.7072452 0 0.7072599 -0.7069537 0 0.7069684 -0.7072452 0 0.7071456 -0.707068 0 0.7071961 -0.7070176 0 0.7070033 -0.7072103 0 0.7072318 -0.7069818 0 0.7069882 -0.7072254 0 0.7071545 -0.7070592 0 0.7071686 -0.707045 -5.35559e-5 0.7069916 -0.707222 -1.38776e-4 0.7072044 -0.7070092 0 0.7069461 -0.7072675 0 0.7072642 -0.7069494 0 0.7069371 -0.7072765 0 0.707109 -0.7071046 2.85611e-4 0.7071737 -0.7070398 -1.38011e-4 0.7071672 -0.7070465 0 0.7072887 -0.7069249 0 0.7069889 -0.7072247 0 0.7072181 -0.7069955 0 0.7070435 -0.7071701 0 0.7071378 -0.7070757 3.4665e-5 0.707096 -0.7071176 -7.0941e-5 0.70714 -0.7070736 3.46662e-5 0.7071209 -0.7070927 -7.09452e-5 0.7070403 -0.7071733 0 0.7071155 -0.7070981 0 0.707098 -0.7071157 0 0.7071382 -0.7070754 -2.8246e-4 0.7069965 -0.7072171 1.60725e-4 0.7069388 -0.7072747 0 0.7070851 -0.7071285 -2.82416e-4 0.7071686 -0.707045 2.94589e-4 0.7071748 -0.7070387 0 0.707066 -0.7071477 -2.85584e-4 0.7071068 -0.7071068 -3.44412e-5 0.7070778 -0.7071359 1.77345e-5 0.707109 -0.7071046 0 0.7071242 -0.7070893 3.68392e-6 0.7071076 -0.707106 1.74641e-5 0.7071199 -0.7070937 -8.73245e-6 0.7071013 -0.7071123 0 0.7070719 -0.7071418 0 0.7071056 -0.707108 0 0.7070915 -0.7071221 -1.74638e-5 0.7071439 -0.7070697 0 0.7070872 -0.7071264 -3.49291e-5 0.7071046 -0.707109 0 0.707141 -0.7070726 0 0.7071134 -0.7071003 3.54686e-5 0.7071024 -0.7071112 0 0.7071089 -0.7071046 0 0.7070624 -0.7071511 -3.4665e-5 0.7070971 -0.7071166 1.41876e-4 0.7071112 -0.7071024 -6.93318e-5 0.7071155 -0.7070981 1.41874e-4 0.7070979 -0.7071157 -6.93273e-5 0.7071382 -0.7070754 5.64806e-4 0.7071376 -0.7070758 -2.23158e-4 0.707162 -0.7070516 1.45037e-4 0.7074919 -0.7067214 2.85739e-4 0.7069192 -0.7072942 -1.03316e-4 0.707096 -0.7071176 1.45119e-4 0.7070206 -0.707193 0 0.7070983 -0.7071154 0 0.7072097 -0.7070039 -3.41538e-5 0.7070854 -0.7071281 0 0.7071502 -0.7070633 0 0.7070876 -0.707126 0 0.7070885 -0.7071251 -2.66004e-5 0.7071284 -0.7070852 0 0.7070558 -0.7071578 0 0.7071592 -0.7070544 7.16308e-6 0.7071182 -0.7070955 1.74654e-5 0.7070675 -0.7071461 8.73245e-6 0.7071013 -0.7071123 0 0.7071186 -0.7070951 0 0.7070927 -0.7071209 1.74655e-5 0.7070741 -0.7071395 1.74645e-5 0.7071046 -0.707109 0 0.7071235 -0.7070901 2.79198e-4 0.706929 0.7072845 0 0.7071048 0.7071088 0 0.7071032 0.7071105 -2.79088e-4 0.7072082 0.7070054 0 0.707418 0.7067955 2.79336e-4 0.7067193 0.707494 -1.39577e-4 0.7070948 0.7071188 0 0.7070088 0.7072048 -2.80184e-4 0.7071856 0.707028 1.39343e-4 0.7070251 0.7071884 0 0.7072162 0.7069973 1.39316e-4 0.7071688 0.7070448 -2.79336e-4 0.7067193 0.707494 2.79098e-4 0.7072343 0.7069792 8.28927e-5 0.707118 0.7070956 0 0.7073476 0.7068659 0 0.7068597 0.7073539 -2.79005e-4 0.7075568 0.7066565 1.39595e-4 0.7071875 0.7070261 0 0.7072343 0.7069792 2.79005e-4 0.7075568 0.7066565 -1.3964e-4 0.7068594 0.7073541 2.79088e-4 0.7072082 0.7070054 0 0.7072082 0.7070054 0 0.7071096 0.707104 0 0.707108 0.7071056 -1.39599e-4 0.706929 0.7072846 1.49355e-4 0.7073523 0.7068612 -1.38861e-4 0.706803 0.7074105 2.82252e-4 0.7073228 0.7068907 -1.38792e-4 0.7070049 0.7072087 2.82433e-4 0.7072127 0.7070009 0 0.7071025 0.7071111 -2.79219e-4 0.7069835 0.70723 -2.80197e-4 0.7072162 0.7069973 0 0.7068615 0.707352 -1.3934e-4 0.7070099 0.7072037 5.60371e-4 0.7071877 0.7070257 -1.3927e-4 0.7072135 0.7070002 2.80308e-4 0.706936 0.7072775 -1.39371e-4 0.7068901 0.7073234 1.3961e-4 0.7069857 0.7072278 0 0.706936 0.7072776 0 0.7075991 0.7066143 0 0.7073583 0.7068552 -2.82659e-4 0.7066473 0.7075659 0 0.7070873 0.7071263 0 0.7073251 0.7068885 1.38795e-4 0.7070222 0.7071914 1.39317e-4 0.707171 0.7070426 0 0.7070049 0.7072087 0 0.7072127 0.7070009 -1.38811e-4 0.7071025 0.7071111 2.82287e-4 0.7074111 0.7068024 -1.38802e-4 0.7070569 0.7071567 -2.82514e-4 0.7068507 0.7073628 1.38772e-4 0.7071805 0.7070331 0 0.7067934 0.7074201 0 0.7068901 0.7073234 1.38808e-4 0.7070873 0.7071263 -2.82253e-4 0.7073251 0.7068884 0 0.7070222 0.7071914 -2.82513e-4 0.7068463 0.7073672 2.77549e-4 0.7071957 0.7070179 0 0.7074155 0.706798 0 0.7070418 0.7071719 -2.82266e-4 0.7073581 0.7068554 -1.38005e-4 0.707137 0.7070766 -2.85644e-4 0.707254 0.7069594 0 0.7069839 0.7072297 0 0.7072541 0.7069595 0 0.7071456 0.707068 0 0.7069103 0.7073032 0 0.7070033 0.7072103 0 0.7069461 0.7072675 0 0.7072642 0.7069494 0 0.7071187 0.7070949 -3.54691e-5 0.7071112 0.7071024 2.59999e-5 0.7070938 0.7071198 0 0.7071135 0.7071002 7.58329e-6 0.7070916 0.707122 3.49305e-5 0.7070981 0.7071155 -6.98608e-5 0.707061 0.7071527 6.98589e-5 0.7071123 0.7071014 0 0.707181 0.7070326 -3.49272e-5 0.7071352 0.7070784 1.73334e-5 0.7071003 0.7071133 0 0.7070802 0.7071334 -3.46647e-5 0.7071252 0.7070884 -3.54692e-5 0.7071135 0.7071002 7.58278e-6 0.7071388 0.7070748 0 0.7069462 0.7072673 0 0.707279 0.7069346 0 0.7071389 0.7070747 0 0.707137 0.7070766 0 0.7069684 0.7072452 0 0.7072599 0.7069537 1.38007e-4 0.7071456 0.707068 2.8562e-4 0.707196 0.7070175 -2.76011e-4 0.7071413 0.7070723 2.8575e-4 0.706946 0.7072675 1.3803e-4 0.7069882 0.7072254 1.74648e-5 0.7071155 0.7070981 -3.49287e-5 0.7070959 0.7071177 -3.49291e-5 0.7071046 0.707109 3.49299e-5 0.7071199 0.7070937 0 0.7070839 0.7071297 0 0.7072337 0.7069799 2.85637e-4 0.7072362 0.7069773 3.44395e-5 0.7071122 0.7071014 -2.77553e-4 0.7072044 0.7070092 2.76011e-4 0.7071413 0.7070723 -2.85635e-4 0.7072317 0.7069818 -1.38003e-4 0.7071262 0.7070874 2.85747e-4 0.7069371 0.7072764 -1.37999e-4 0.707109 0.7071046 2.85611e-4 0.7071737 0.7070398 0 0.7071672 0.7070465 0 0.7072887 0.7069249 0 0.7069889 0.7072247 -6.84758e-5 0.7072181 0.7069955 1.38804e-4 0.7070656 0.707148 0 0.7072318 0.7069818 0 0.7069882 0.7072254 0 0.7075082 0.7067052 0 0.70704 0.7071737 -2.85783e-4 0.7070264 0.7071871 1.37971e-4 0.7072383 0.7069753 -1.45156e-4 0.7069117 0.7073018 -2.85624e-4 0.7072049 0.7070086 1.03311e-4 0.7071304 0.7070831 -1.45119e-4 0.7070206 0.707193 0 0.7071324 0.7070811 0 0.7070633 0.7071503 3.41494e-5 0.7071324 0.7070812 0 0.7070702 0.7071434 0 0.7071132 0.7071004 0 0.7071251 0.7070885 2.66014e-5 0.7071018 0.7071118 0 0.7070851 0.7071285 0 0.7071686 0.707045 5.35617e-5 0.7071749 0.7070388 0 0.707066 0.7071477 0 0.7071068 0.7071068 0 0.7070778 0.7071359 0 0.7071545 0.7070592 2.82416e-4 0.7071686 0.707045 -2.94557e-4 0.7069916 0.7072219 0 0.7071134 0.7071003 0 0.7071024 0.7071112 -3.46656e-5 0.7071089 0.7071046 7.09475e-5 0.7070624 0.7071511 -3.4665e-5 0.7070971 0.7071166 7.09381e-5 0.7071112 0.7071024 0 0.7071155 0.7070981 0 0.707098 0.7071157 0 0.7071382 0.7070754 2.82403e-4 0.7071377 0.7070759 -1.60674e-4 0.707162 0.7070516 0 0.7070435 0.7071701 -3.54668e-5 0.7071378 0.7070757 0 0.707096 0.7071176 0 0.70714 0.7070736 3.46662e-5 0.7071209 0.7070927 -1.4189e-4 0.7070403 0.7071733 6.93318e-5 0.7071155 0.7070981 -1.41859e-4 0.7071688 0.7070447 6.93273e-5 0.7071382 0.7070754 -5.64919e-4 0.7069963 0.707217 2.23229e-4 0.7069388 0.7072747 0 0.707109 0.7071046 0 0.7071592 0.7070544 -7.16319e-6 0.7071076 0.707106 -1.74649e-5 0.707085 0.7071287 -8.73245e-6 0.7071013 0.7071123 0 0.7071242 0.7070893 0 0.7071056 0.707108 0 0.7070915 0.7071221 -1.74651e-5 0.7070915 0.7071221 -1.7465e-5 0.7070872 0.7071264 6.98513e-5 0.7071744 0.7070391 0 0.7071235 0.7070901 0 0.7074919 0.7067214 1.4287e-4 0.7069193 0.7072943 -6.88741e-5 0.7071304 0.7070831 0 0.7070206 0.707193 0 0.7070642 0.7071495 0 0.7072097 0.7070039 -1.70765e-5 0.7071025 0.7071111 0 0.7070771 0.7071366 0 0.7070876 0.707126 0 0.7070885 0.7071251 -1.77336e-5 0.7071284 0.7070852 -1.77358e-5 0.7070558 0.7071578 -3.68396e-6 0.7071007 0.707113 -1.74641e-5 0.7071199 0.7070937 8.73245e-6 0.7071013 0.7071123 0 0.7070893 0.7071242 0 0.7071186 0.7070951 0 0.7070927 0.7071209 0 0.707109 0.7071046 1.74647e-5 0.707109 0.7071046 0 0.7071395 0.7070741 3.49325e-5 0.7070347 0.7071788 0 0.707141 0.7070726 0 -1 0 -0.999044 -0.0437166 0 -0.9990482 -0.04362028 0 -0.991429 -0.1306468 0 -0.9914262 -0.1306688 0 -0.976235 -0.2167147 0 -0.9763448 -0.2162194 0 -0.9538497 -0.3002845 0 -0.9537275 -0.3006726 0 -0.9238029 -0.3828685 0 -0.9239103 -0.3826093 0 -0.8870028 -0.4617642 0 -0.8869881 -0.4617926 0 -0.8433912 -0.5373 0 -0.8434035 -0.5372807 0 -0.7933895 -0.6087144 0 -0.7933221 -0.6088022 0 -0.737303 -0.6755623 0 -0.7373488 -0.6755122 0 -0.6756965 -0.7371799 0 -0.6755337 -0.7373291 0 -0.6261159 -0.7797301 0 -0.6258795 -0.7799199 0 -0.5911567 -0.8065567 0 -0.591321 -0.8064363 0 -0.555552 -0.8314819 0 -0.5553199 -0.8316369 0 -0.5189163 -0.854825 0 -0.5185023 -0.8550763 0 -0.480764 -0.87685 0 -0.4812448 -0.8765863 0 -0.4420704 -0.8969804 0 -0.4423496 -0.8968428 0 -0.4028248 -0.9152771 0 -0.4027689 -0.9153017 0 -0.3623169 -0.9320549 0 -0.3625403 -0.9319682 0 -0.3212436 -0.9469967 0 -0.3215644 -0.9468877 0 -0.279878 -0.9600357 0 -0.2797058 -0.9600858 0 -0.2378726 -0.9712964 0 -0.2376219 -0.9713578 0 -0.1950097 -0.9808013 0 -0.1951958 -0.9807643 0 -0.1521536 -0.9883569 0 -0.1521072 -0.9883641 0 -0.1088867 -0.9940542 0 -0.108805 -0.9940632 0 -0.06542009 -0.9978579 0 -0.06539589 -0.9978595 0 -0.02180832 -0.9997622 0 -0.02181774 -0.9997621 0 -1 0 0 -1 4.09342e-6 0 -0.02180486 0.9997622 0 -0.06539976 0.9978592 -1.73711e-5 -0.02181643 0.999762 1.73722e-5 -0.06540429 0.9978589 0 -0.108812 0.9940624 0 -0.1522321 0.9883449 -1.73721e-5 -0.1088344 0.9940599 1.73506e-5 -0.1521199 0.9883621 0 -0.1951352 0.9807764 0 -0.237618 0.9713587 -1.73478e-5 -0.1950235 0.9807986 1.73407e-5 -0.2377629 0.9713233 0 -0.2798579 0.9600414 0 -0.3213002 0.9469775 -1.73145e-5 -0.2802292 0.9599332 1.73384e-5 -0.3211203 0.9470385 0 -0.3624882 0.9319885 0 -0.4029361 0.9152281 -1.73254e-5 -0.3623688 0.9320349 1.73033e-5 -0.4027906 0.9152922 0 -0.4423238 0.8968555 0 -0.480801 0.8768298 -1.73386e-5 -0.4425848 0.8967267 1.73442e-5 -0.4809495 0.8767483 0 -0.5186429 0.854991 0 -0.5558753 0.8312659 -1.73175e-5 -0.591118 0.8065851 1.73411e-5 -0.5181519 0.8552887 1.72725e-5 -0.5557653 0.8313392 0 -0.5916228 0.8062149 0 -0.6258873 0.7799136 -1.73623e-5 -0.6262094 0.7796549 0 -0.6754857 0.7373731 0 -0.6756503 0.7372223 0 -0.7372203 0.6756525 0 -0.7373846 0.6754732 0 -0.7932567 0.6088876 0 -0.7935147 0.6085512 0 -0.8432919 0.537456 0 -0.8434088 0.5372723 0 -0.8869571 0.461852 0 -0.8870345 0.4617031 0 -0.9238505 0.3827539 0 -0.923886 0.3826679 0 -0.9537286 0.300669 0 -0.9537274 0.3006731 0 -0.9763274 0.2162982 0 -0.9763494 0.2161991 0 -0.9914091 0.1307976 0 -0.9914354 0.130598 0 -0.9990521 0.04353332 0 -0.9990451 0.04369139 0 0.02180486 0.9997622 0 0.1089618 0.994046 0 0.2376565 0.9713493 0 0.2798579 0.9600414 0 0.4027906 0.9152922 0 0.4811434 0.8766419 0 0.5551289 0.8317644 0 0.5911846 0.8065363 0 0.9990526 0.0435208 0 0.9990521 0.04353332 0 0.991406 0.1308209 0 0.9914386 0.1305744 0 0.9763014 0.2164155 0 0.9762794 0.216515 0 0.9537274 0.3006731 0 0.9535979 0.3010833 0 0.9239665 0.3824735 0 0.923931 0.3825591 0 0.8870345 0.4617031 0 0.8869571 0.461852 0 0.8434088 0.5372723 0 0.8433955 0.5372933 0 0.7932938 0.6088392 0 0.7934778 0.6085993 0 0.7371564 0.6757221 0 0.7373346 0.6755279 0 0.6755361 0.737327 0 0.6756001 0.7372683 0 0.6260662 0.77977 1.7241e-5 0.5915558 0.8062641 -1.72279e-5 0.6255826 0.780158 0 0.5191702 0.854671 -1.73065e-5 0.5552256 0.8316999 1.72973e-5 0.5189208 0.8548223 0 0.4420376 0.8969965 -1.73192e-5 0.4810664 0.8766842 1.73481e-5 0.4422396 0.896897 0 0.3625242 0.9319745 -1.73529e-5 0.4025854 0.9153825 1.7356e-5 0.3624628 0.9319983 0 0.3214026 0.9469428 1.73517e-5 0.2797339 0.9600777 -1.73394e-5 0.3215221 0.9469021 0 0.1951999 0.9807636 -1.73845e-5 0.2376856 0.9713422 1.73808e-5 0.1950523 0.9807929 0 0.1519506 0.9883881 1.73294e-5 0.1089342 0.994049 -1.73524e-5 0.1520828 0.9883678 0 0.06539976 0.9978592 1.73711e-5 0.02181643 0.999762 -1.73722e-5 0.06538176 0.9978604 0 0 1 0 0.02181774 -0.9997621 0 0.02180832 -0.9997622 0 0.06539589 -0.9978595 0 0.06542009 -0.9978579 0 0.1089404 -0.9940484 0 0.1088417 -0.9940592 0 0.1521699 -0.9883544 0 0.1521536 -0.9883569 0 0.1950362 -0.9807962 0 0.1950895 -0.9807855 0 0.2377181 -0.9713342 0 0.2375835 -0.9713671 0 0.27993 -0.9600205 0 0.279878 -0.9600357 0 0.3213104 -0.946974 0 0.3214976 -0.9469105 0 0.3625403 -0.9319682 0 0.3623169 -0.9320549 0 0.402615 -0.9153695 0 0.4028248 -0.9152771 0 0.4420184 -0.897006 0 0.4424018 -0.896817 0 0.4807163 -0.8768762 0 0.4812929 -0.8765599 0 0.5188729 -0.8548515 0 0.5187309 -0.8549377 0 0.5557061 -0.8313788 0 0.5553588 -0.8316109 0 0.5911216 -0.8065825 0 0.5917556 -0.8061175 0 0.6260424 -0.7797891 0 0.6257072 -0.7800581 0 0.6757423 -0.737138 0 0.6755921 -0.7372756 0 0.7372444 -0.6756262 0 0.7371985 -0.6756763 0 0.7933221 -0.6088022 0 0.7933895 -0.6087144 0 0.8434035 -0.5372807 0 0.8433912 -0.5373 0 0.8869881 -0.4617926 0 0.8870028 -0.4617642 0 0.9239103 -0.3826093 0 0.9238029 -0.3828685 0 0.9537275 -0.3006726 0 0.9537286 -0.3006687 0 0.9762557 -0.2166219 0 0.976369 -0.2161101 0 0.9914535 -0.1304609 0 0.991429 -0.1306468 0 0.9990482 -0.04362028 0 0.9990454 -0.04368394 0 0.06531351 -0.9978649 0 0.1518639 -0.9884014 0 0.1948872 -0.9808258 0 0.2794111 -0.9601716 0 0.3623852 -0.9320285 0 0.4425141 -0.8967616 0 0.5187762 -0.8549101 0 0.5905529 -0.8069989 0 0.999036 -0.04389947 0 0.9990535 -0.04349935 0 0.9914487 -0.130498 0 0.9914355 -0.1305975 0 0.9763247 -0.2163102 0 0.9762898 -0.2164679 0 0.9536674 -0.300863 0 0.9537331 -0.3006546 0 0.9238201 -0.3828269 0 0.9238827 -0.3826759 0 0.8870086 -0.4617529 0 0.8870632 -0.4616481 0 0.8432685 -0.5374928 0 0.8433132 -0.5374224 0 0.7932749 -0.6088638 0 0.7933115 -0.6088162 0 0.7369496 -0.6759478 0 0.7374351 -0.6754181 0 0.6756093 -0.7372599 0 0.6756411 -0.7372307 0 0.626429 -0.7794786 -8.62099e-6 0.5911716 -0.8065459 8.60789e-6 0.6259074 -0.7798975 0 0.5548605 -0.8319435 -8.59969e-6 0.519747 -0.8543202 8.62321e-6 0.5553518 -0.8316156 0 0.4804396 -0.8770279 -8.58309e-6 0.4426436 -0.8966977 8.59337e-6 0.4808943 -0.8767787 0 0.4029309 -0.9152305 -8.61333e-6 0.3624801 -0.9319915 8.60785e-6 0.4026346 -0.9153609 0 0.3216955 -0.9468433 -8.60446e-6 0.2797171 -0.9600825 8.59556e-6 0.3216018 -0.9468751 0 0.2377802 -0.9713191 -8.61662e-6 0.1950937 -0.9807847 8.61497e-6 0.23778 -0.9713191 0 0.1090968 -0.9940311 8.62437e-6 0.1519856 -0.9883828 -8.59911e-6 0.1089444 -0.9940479 0 0.02184343 -0.9997614 8.61155e-6 0.06543034 -0.9978572 -8.60651e-6 0.02181512 -0.9997621 0 -0.02180284 -0.9997624 0 -0.06543034 -0.9978572 8.60302e-6 -0.0217837 -0.9997627 -8.59147e-6 -0.06549233 -0.9978531 0 -0.1088876 -0.9940541 0 -0.1520546 -0.9883721 8.60302e-6 -0.1087999 -0.9940637 -8.60089e-6 -0.1524133 -0.9883168 0 -0.1952365 -0.9807562 0 -0.2375731 -0.9713698 8.56733e-6 -0.1952686 -0.9807499 -8.57736e-6 -0.2373971 -0.9714128 0 -0.2801468 -0.9599572 0 -0.3210336 -0.9470679 8.59024e-6 -0.2799624 -0.9600111 -8.60309e-6 -0.3214856 -0.9469145 0 -0.3623852 -0.9320285 0 -0.4027347 -0.9153168 8.60914e-6 -0.3624801 -0.9319915 -8.60785e-6 -0.402696 -0.9153338 0 -0.442152 -0.8969402 0 -0.4810676 -0.8766836 8.63609e-6 -0.4426436 -0.8966977 -8.63866e-6 -0.4809585 -0.8767434 0 -0.5187762 -0.8549101 0 -0.5560322 -0.8311607 8.67707e-6 -0.5911716 -0.8065459 -8.60789e-6 -0.5181283 -0.8553029 -8.65542e-6 -0.5558652 -0.8312724 0 -0.5918573 -0.8060428 0 -0.625547 -0.7801865 8.60885e-6 -0.6261659 -0.7796898 0 -0.6754141 -0.7374387 0 -0.6756093 -0.7372599 0 -0.7369812 -0.6759133 0 -0.7374032 -0.675453 0 -0.7935314 -0.6085295 0 -0.7934947 -0.6085773 0 -0.8433132 -0.5374224 0 -0.8434746 -0.5371693 0 -0.8870632 -0.4616481 0 -0.8870086 -0.4617529 0 -0.9238827 -0.3826759 0 -0.9239807 -0.3824392 0 -0.9536029 -0.3010676 0 -0.9536674 -0.300863 0 -0.9762898 -0.2164679 0 -0.9763247 -0.2163102 0 -0.9914355 -0.1305975 0 -0.9915072 -0.1300526 0 -0.9990137 -0.04440379 0 -0.999055 -0.04346543 0 -1 -4.90809e-6 0 -1 5.23958e-6 0 -0.9990482 0.0436213 0 -0.9990469 0.04365205 0 -0.9914441 0.1305327 0 -0.9914563 0.1304396 0 -0.9763027 0.2164099 0 -0.9763352 0.2162627 0 -0.9537845 0.3004916 0 -0.9536018 0.3010706 0 -0.923864 0.3827211 0 -0.9238057 0.3828616 0 -0.8871132 0.4615519 0 -0.8870626 0.4616494 0 -0.8432356 0.5375442 0 -0.8431941 0.5376093 0 -0.7934089 0.608689 0 -0.793375 0.6087332 0 -0.7375969 0.6752414 0 -0.7371472 0.6757323 0 -0.6755269 0.7373355 0 -0.6754974 0.7373624 0 -0.6261506 0.7797021 0 -0.625826 0.7799628 0 -0.5910252 0.8066532 0 -0.5915096 0.806298 0 -0.5560421 0.8311541 0 -0.5553414 0.8316225 0 -0.5184933 0.8550818 0 -0.5181919 0.8552645 0 -0.4807606 0.8768519 0 -0.4811803 0.8766218 0 -0.4424386 0.8967989 0 -0.4421618 0.8969354 0 -0.4026088 0.9153723 0 -0.4026582 0.9153504 0 -0.3625942 0.9319471 0 -0.1952584 0.9807518 0 -0.2376398 0.9713534 0 -0.2378147 0.9713106 0 -0.2801169 0.9599659 0 -0.2796386 0.9601054 0 -0.3213253 0.9469689 0 -0.3212917 0.9469803 0 -0.3625181 0.9319768 0 -0.02182894 0.9997618 0 -0.02179205 0.9997626 0 -0.06543886 0.9978566 0 -0.06538242 0.9978604 0 -0.1089551 0.9940467 0 -0.1088598 0.9940572 0 -0.1518927 0.988397 0 -0.1521371 0.9883595 0 -0.1951996 0.9807636 0 0.02179926 0.9997624 0 0.02182877 0.9997618 0 0.06538397 0.9978602 0 0.06538242 0.9978604 0 0.108864 0.9940567 0 0.1089509 0.9940472 0 0.1522719 0.9883387 0 0.1520107 0.9883788 0 0.1951106 0.9807812 0 0.1949365 0.9808158 0 0.2380287 0.9712582 0 0.2376204 0.9713581 0 0.2796648 0.9600978 0 0.2800907 0.9599736 0 0.3215814 0.946882 0 0.3215478 0.9468934 0 0.3623514 0.9320417 0 0.3625942 0.9319471 0 0.4026582 0.9153504 0 0.4032298 0.9150989 0 0.4424957 0.8967707 0 0.4417712 0.8971279 0 0.4808253 0.8768165 0 0.4811156 0.8766572 0 0.5189382 0.8548119 0 0.5188666 0.8548552 0 0.5557304 0.8313626 0 0.5552638 0.8316744 0 0.5907067 0.8068864 0 0.5918289 0.8060636 0 0.6260648 0.7797712 0 0.6261506 0.7797021 0 0.6754974 0.7373624 0 0.6755269 0.7373355 0 0.7375673 0.6752738 0 0.7369666 0.6759293 0 0.7935788 0.6084676 0 0.7936128 0.6084232 0 0.8433853 0.5373092 0 0.8434271 0.5372439 0 0.8870626 0.4616494 0 0.8871132 0.4615519 0 0.9238057 0.3828616 0 0.9240135 0.3823601 0 0.9537233 0.300686 0 0.9535416 0.3012614 0 0.9763352 0.2162627 0 0.976392 0.2160061 0 0.9914563 0.1304396 0 0.9914441 0.1305327 0 0.9990469 0.04365205 0 0.9990269 0.04410725 0 1 -5.23958e-6 0 1 0 0 1 5.82836e-6 0</float_array>
          <technique_common>
            <accessor source="#chassis_default_as_machined__19-mesh-normals-array" count="833" stride="3">
              <param name="X" type="float"/>
              <param name="Y" type="float"/>
              <param name="Z" type="float"/>
            </accessor>
          </technique_common>
        </source>
        <vertices id="chassis_default_as_machined__19-mesh-vertices">
          <input semantic="POSITION" source="#chassis_default_as_machined__19-mesh-positions"/>
        </vertices>
        <triangles count="864">
          <input semantic="VERTEX" source="#chassis_default_as_machined__19-mesh-vertices" offset="0"/>
          <input semantic="NORMAL" source="#chassis_default_as_machined__19-mesh-normals" offset="1"/>
          <p>0 0 1 0 2 0 2 1 1 1 3 1 1 2 4 2 3 2 3 3 4 3 5 3 4 4 6 4 5 4 5 5 6 5 7 5 6 6 8 6 7 6 7 7 8 7 9 7 9 8 8 8 10 8 8 9 11 9 10 9 10 10 11 10 12 10 11 11 13 11 12 11 12 12 13 12 14 12 2 13 15 13 0 13 15 14 16 14 0 14 0 15 16 15 17 15 16 16 18 16 17 16 17 17 18 17 19 17 14 18 13 18 20 18 13 19 21 19 20 19 20 20 21 20 22 20 21 21 23 21 22 21 22 22 23 22 24 22 18 23 25 23 19 23 25 24 26 24 19 24 19 25 26 25 27 25 26 26 28 26 27 26 27 27 28 27 29 27 30 28 31 28 32 28 31 7 33 7 32 7 32 29 33 29 34 29 35 30 36 30 37 30 35 31 37 31 38 31 37 32 39 32 38 32 38 33 39 33 40 33 39 34 41 34 40 34 40 35 41 35 42 35 41 36 43 36 42 36 42 37 43 37 30 37 43 0 44 0 30 0 30 38 44 38 31 38 33 39 45 39 34 39 45 10 46 10 34 10 34 40 46 40 47 40 46 12 48 12 47 12 47 41 48 41 49 41 36 42 35 42 50 42 35 43 51 43 50 43 50 24 51 24 52 24 51 44 53 44 52 44 52 26 53 26 54 26 28 26 55 26 29 26 55 45 56 45 29 45 29 46 56 46 57 46 56 47 58 47 57 47 57 48 58 48 59 48 58 49 60 49 59 49 59 50 60 50 61 50 60 51 62 51 61 51 61 52 62 52 63 52 24 53 23 53 64 53 23 54 65 54 64 54 64 55 65 55 66 55 65 54 67 54 66 54 66 56 67 56 68 56 67 57 69 57 68 57 68 58 69 58 70 58 69 59 71 59 70 59 70 60 71 60 72 60 72 61 71 61 73 61 71 62 74 62 73 62 73 63 74 63 75 63 76 64 77 64 78 64 77 65 79 65 78 65 78 66 79 66 80 66 79 67 81 67 80 67 80 68 81 68 82 68 54 69 53 69 83 69 53 70 84 70 83 70 83 71 84 71 85 71 84 72 86 72 85 72 85 73 86 73 87 73 48 74 88 74 49 74 88 75 89 75 49 75 49 76 89 76 90 76 89 77 91 77 90 77 90 78 91 78 92 78 91 79 93 79 92 79 92 80 93 80 94 80 93 81 95 81 94 81 94 82 95 82 96 82 74 83 97 83 75 83 97 84 98 84 75 84 75 85 98 85 99 85 100 86 101 86 102 86 101 87 103 87 102 87 102 88 103 88 104 88 103 89 105 89 104 89 104 90 105 90 106 90 107 91 108 91 109 91 108 92 110 92 109 92 109 93 110 93 111 93 110 94 112 94 111 94 111 95 112 95 113 95 114 96 115 96 116 96 115 97 117 97 116 97 116 98 117 98 118 98 117 99 119 99 118 99 118 100 119 100 120 100 62 101 121 101 63 101 121 102 122 102 63 102 63 103 122 103 123 103 122 104 124 104 123 104 123 105 124 105 125 105 124 106 126 106 125 106 125 107 126 107 127 107 126 108 128 108 127 108 98 109 129 109 99 109 129 110 130 110 99 110 99 111 130 111 131 111 130 112 132 112 131 112 131 113 132 113 133 113 132 114 134 114 133 114 133 115 134 115 135 115 134 116 136 116 135 116 135 117 136 117 76 117 136 118 137 118 76 118 76 119 137 119 77 119 87 120 86 120 138 120 86 121 139 121 138 121 138 122 139 122 140 122 139 123 141 123 140 123 140 124 141 124 142 124 141 125 143 125 142 125 142 126 143 126 144 126 143 127 145 127 144 127 144 128 145 128 146 128 147 129 148 129 128 129 148 130 149 130 128 130 128 131 149 131 127 131 95 132 150 132 96 132 150 126 151 126 96 126 96 133 151 133 152 133 151 134 153 134 152 134 152 135 153 135 154 135 153 136 155 136 154 136 154 137 155 137 156 137 155 138 157 138 156 138 146 139 145 139 158 139 145 140 159 140 158 140 158 141 159 141 160 141 119 142 161 142 120 142 161 143 162 143 120 143 120 144 162 144 163 144 162 145 164 145 163 145 163 146 164 146 165 146 164 147 166 147 165 147 165 148 166 148 167 148 166 149 168 149 167 149 167 150 168 150 147 150 168 151 169 151 147 151 147 152 169 152 148 152 170 153 171 153 157 153 171 154 172 154 157 154 157 155 172 155 156 155 159 156 173 156 160 156 173 157 174 157 160 157 160 158 174 158 175 158 81 159 176 159 82 159 176 160 177 160 82 160 82 161 177 161 178 161 177 162 179 162 178 162 178 163 179 163 180 163 179 164 181 164 180 164 180 165 181 165 182 165 181 165 183 165 182 165 182 166 183 166 184 166 183 167 185 167 184 167 184 168 185 168 100 168 185 169 186 169 100 169 100 170 186 170 101 170 105 171 187 171 106 171 187 172 188 172 106 172 106 173 188 173 189 173 188 174 190 174 189 174 189 175 190 175 191 175 190 176 192 176 191 176 191 177 192 177 193 177 192 178 194 178 193 178 193 179 194 179 170 179 194 180 195 180 170 180 170 181 195 181 171 181 174 182 196 182 175 182 196 183 197 183 175 183 175 184 197 184 198 184 197 185 199 185 198 185 198 186 199 186 200 186 199 187 201 187 200 187 200 188 201 188 202 188 201 189 203 189 202 189 202 190 203 190 107 190 203 191 204 191 107 191 107 192 204 192 108 192 112 193 205 193 113 193 205 194 206 194 113 194 113 195 206 195 207 195 206 196 208 196 207 196 207 197 208 197 209 197 208 160 210 160 209 160 209 198 210 198 211 198 210 199 212 199 211 199 211 136 212 136 213 136 212 200 214 200 213 200 213 201 214 201 114 201 214 98 215 98 114 98 114 202 215 202 115 202 216 203 217 203 218 203 218 204 217 204 219 204 217 205 220 205 219 205 219 206 220 206 221 206 220 203 222 203 221 203 221 207 222 207 223 207 222 208 224 208 223 208 223 209 224 209 225 209 225 210 224 210 226 210 224 211 227 211 226 211 226 212 227 212 228 212 227 213 229 213 228 213 228 214 229 214 230 214 231 215 232 215 233 215 232 209 234 209 233 209 233 216 234 216 235 216 236 217 237 217 238 217 218 218 239 218 216 218 239 219 240 219 216 219 216 220 240 220 241 220 240 221 242 221 241 221 241 222 242 222 243 222 236 223 238 223 244 223 238 224 245 224 244 224 244 225 245 225 246 225 245 226 247 226 246 226 246 227 247 227 248 227 247 228 249 228 248 228 248 226 249 226 231 226 249 229 250 229 231 229 231 230 250 230 232 230 230 231 229 231 251 231 229 232 252 232 251 232 251 233 252 233 253 233 252 234 254 234 253 234 253 235 254 235 255 235 234 236 256 236 235 236 256 212 257 212 235 212 235 237 257 237 258 237 257 214 259 214 258 214 258 238 259 238 260 238 237 239 236 239 261 239 236 240 262 240 261 240 261 241 262 241 263 241 262 242 264 242 263 242 263 243 264 243 265 243 242 244 266 244 243 244 266 241 267 241 243 241 243 245 267 245 268 245 267 243 269 243 268 243 268 246 269 246 270 246 265 247 264 247 271 247 264 248 272 248 271 248 271 249 272 249 273 249 272 250 274 250 273 250 273 251 274 251 275 251 259 252 276 252 260 252 276 253 277 253 260 253 260 254 277 254 278 254 277 255 279 255 278 255 278 256 279 256 280 256 279 257 281 257 280 257 280 258 281 258 282 258 281 259 283 259 282 259 282 260 283 260 284 260 269 261 285 261 270 261 285 262 286 262 270 262 270 263 286 263 287 263 286 264 288 264 287 264 287 265 288 265 289 265 288 266 290 266 289 266 289 267 290 267 291 267 290 268 292 268 291 268 291 269 292 269 293 269 255 270 254 270 294 270 254 271 295 271 294 271 294 272 295 272 296 272 295 273 297 273 296 273 296 274 297 274 298 274 297 275 299 275 298 275 298 276 299 276 300 276 299 277 301 277 300 277 300 278 301 278 302 278 303 279 304 279 305 279 304 280 306 280 305 280 305 281 306 281 307 281 306 282 308 282 307 282 307 283 308 283 309 283 310 284 311 284 312 284 311 285 313 285 312 285 312 286 313 286 314 286 313 287 315 287 314 287 314 288 315 288 316 288 317 289 318 289 319 289 318 290 320 290 319 290 319 291 320 291 321 291 320 292 322 292 321 292 321 293 322 293 323 293 302 294 301 294 324 294 301 295 325 295 324 295 324 296 325 296 326 296 275 297 274 297 327 297 274 298 328 298 327 298 327 299 328 299 329 299 328 298 330 298 329 298 329 300 330 300 331 300 330 301 332 301 331 301 331 302 332 302 333 302 332 303 334 303 333 303 333 304 334 304 335 304 336 305 337 305 338 305 337 306 339 306 338 306 338 307 339 307 340 307 339 308 341 308 340 308 340 309 341 309 342 309 325 310 343 310 326 310 343 311 344 311 326 311 326 312 344 312 345 312 283 313 346 313 284 313 346 314 347 314 284 314 284 315 347 315 348 315 347 316 349 316 348 316 348 317 349 317 350 317 349 318 351 318 350 318 350 319 351 319 352 319 351 320 353 320 352 320 335 321 334 321 354 321 334 322 355 322 354 322 354 323 355 323 356 323 292 324 357 324 293 324 357 276 358 276 293 276 293 325 358 325 359 325 358 326 360 326 359 326 359 327 360 327 361 327 360 328 362 328 361 328 361 329 362 329 363 329 362 330 364 330 363 330 344 331 365 331 345 331 365 332 366 332 345 332 345 333 366 333 367 333 366 334 368 334 367 334 367 335 368 335 369 335 368 336 370 336 369 336 369 337 370 337 371 337 370 338 372 338 371 338 371 339 372 339 303 339 372 340 373 340 303 340 303 341 373 341 304 341 374 342 375 342 353 342 375 343 376 343 353 343 353 344 376 344 352 344 355 345 377 345 356 345 377 346 378 346 356 346 356 347 378 347 379 347 380 348 381 348 364 348 381 349 382 349 364 349 364 350 382 350 363 350 315 351 383 351 316 351 383 352 384 352 316 352 316 353 384 353 385 353 384 354 386 354 385 354 385 355 386 355 387 355 386 356 388 356 387 356 387 357 388 357 389 357 388 358 390 358 389 358 389 359 390 359 374 359 390 360 391 360 374 360 374 361 391 361 375 361 341 362 392 362 342 362 392 363 393 363 342 363 342 364 393 364 394 364 393 365 395 365 394 365 394 366 395 366 396 366 395 367 397 367 396 367 396 368 397 368 398 368 397 369 399 369 398 369 398 370 399 370 380 370 399 371 400 371 380 371 380 372 400 372 381 372 308 373 401 373 309 373 401 374 402 374 309 374 309 375 402 375 403 375 402 376 404 376 403 376 403 377 404 377 405 377 404 378 406 378 405 378 405 379 406 379 407 379 406 379 408 379 407 379 407 380 408 380 409 380 408 381 410 381 409 381 409 382 410 382 310 382 410 383 411 383 310 383 310 384 411 384 311 384 378 385 412 385 379 385 412 386 413 386 379 386 379 387 413 387 414 387 413 388 415 388 414 388 414 389 415 389 416 389 415 390 417 390 416 390 416 391 417 391 418 391 417 392 419 392 418 392 418 393 419 393 317 393 419 394 420 394 317 394 317 395 420 395 318 395 322 396 421 396 323 396 421 378 422 378 323 378 323 397 422 397 423 397 422 398 424 398 423 398 423 399 424 399 425 399 424 400 426 400 425 400 425 401 426 401 427 401 426 402 428 402 427 402 427 403 428 403 429 403 428 404 430 404 429 404 429 405 430 405 336 405 430 406 431 406 336 406 336 407 431 407 337 407 218 408 219 408 41 408 219 408 43 408 41 408 405 409 182 409 184 409 405 410 184 410 403 410 184 411 100 411 403 411 403 412 100 412 309 412 100 413 102 413 309 413 309 414 102 414 307 414 102 415 104 415 307 415 307 416 104 416 305 416 104 417 106 417 305 417 305 418 106 418 303 418 106 419 189 419 303 419 303 420 189 420 371 420 189 421 191 421 371 421 371 422 191 422 369 422 191 423 193 423 369 423 369 424 193 424 367 424 193 425 170 425 367 425 367 426 170 426 345 426 170 427 157 427 345 427 345 428 157 428 326 428 326 429 157 429 324 429 157 430 155 430 324 430 324 431 155 431 302 431 155 432 153 432 302 432 302 433 153 433 300 433 153 434 151 434 300 434 300 435 151 435 298 435 151 436 150 436 298 436 298 437 150 437 296 437 150 438 95 438 296 438 296 439 95 439 294 439 95 440 93 440 294 440 294 441 93 441 255 441 93 442 91 442 255 442 255 443 91 443 253 443 91 444 89 444 253 444 89 445 88 445 253 445 253 446 88 446 251 446 88 447 48 447 251 447 251 448 48 448 230 448 230 449 48 449 228 449 48 450 46 450 228 450 228 451 46 451 226 451 46 452 45 452 226 452 226 453 45 453 225 453 45 454 33 454 225 454 225 455 33 455 223 455 33 456 31 456 223 456 31 457 44 457 223 457 223 458 44 458 221 458 44 459 43 459 221 459 221 460 43 460 219 460 405 461 407 461 182 461 407 462 180 462 182 462 250 463 249 463 3 463 250 464 3 464 232 464 3 465 5 465 232 465 5 466 7 466 232 466 232 467 7 467 234 467 7 468 256 468 234 468 7 469 9 469 256 469 9 470 10 470 256 470 256 471 10 471 257 471 10 472 259 472 257 472 10 473 12 473 259 473 12 474 14 474 259 474 259 475 14 475 276 475 14 476 277 476 276 476 14 477 20 477 277 477 20 478 22 478 277 478 277 479 22 479 279 479 22 480 281 480 279 480 22 481 24 481 281 481 24 482 64 482 281 482 281 483 64 483 283 483 64 484 346 484 283 484 64 485 66 485 346 485 66 486 68 486 346 486 346 487 68 487 347 487 68 488 349 488 347 488 72 489 73 489 353 489 68 490 70 490 349 490 70 491 72 491 349 491 349 492 72 492 351 492 72 493 353 493 351 493 73 494 75 494 353 494 75 495 99 495 353 495 353 496 99 496 374 496 99 497 131 497 374 497 374 498 131 498 389 498 131 499 133 499 389 499 389 500 133 500 387 500 133 501 135 501 387 501 387 502 135 502 385 502 135 503 76 503 385 503 385 504 76 504 316 504 76 505 78 505 316 505 316 506 78 506 314 506 78 507 80 507 314 507 314 508 80 508 312 508 80 509 82 509 312 509 312 510 82 510 310 510 82 511 178 511 310 511 310 512 178 512 409 512 178 513 180 513 409 513 409 514 180 514 407 514 15 515 2 515 247 515 18 516 16 516 238 516 263 517 265 517 28 517 28 518 265 518 55 518 275 519 327 519 60 519 329 520 331 520 121 520 333 521 335 521 124 521 124 522 335 522 126 522 425 523 211 523 213 523 425 524 213 524 423 524 213 525 114 525 423 525 423 526 114 526 323 526 114 527 116 527 323 527 323 528 116 528 321 528 116 529 118 529 321 529 321 530 118 530 319 530 118 531 120 531 319 531 319 532 120 532 317 532 120 533 163 533 317 533 317 534 163 534 418 534 163 535 165 535 418 535 418 536 165 536 416 536 165 537 167 537 416 537 416 538 167 538 414 538 167 539 147 539 414 539 414 540 147 540 379 540 147 541 128 541 379 541 379 542 128 542 356 542 126 543 335 543 128 543 335 544 354 544 128 544 128 545 354 545 356 545 333 546 124 546 331 546 124 547 122 547 331 547 331 548 122 548 121 548 329 549 121 549 327 549 121 550 62 550 327 550 327 551 62 551 60 551 275 552 60 552 273 552 60 553 58 553 273 553 273 554 58 554 56 554 55 555 265 555 56 555 265 556 271 556 56 556 56 557 271 557 273 557 263 558 28 558 261 558 28 559 26 559 261 559 261 560 26 560 25 560 18 561 238 561 25 561 238 562 237 562 25 562 25 563 237 563 261 563 15 564 247 564 16 564 247 565 245 565 16 565 16 566 245 566 238 566 249 567 247 567 3 567 247 567 2 567 3 567 218 568 41 568 239 568 41 569 39 569 239 569 239 570 39 570 240 570 39 571 37 571 240 571 37 572 36 572 240 572 240 573 36 573 242 573 36 574 50 574 242 574 242 575 50 575 266 575 50 576 52 576 266 576 266 577 52 577 267 577 52 578 54 578 267 578 267 579 54 579 269 579 269 580 54 580 285 580 54 581 83 581 285 581 285 582 83 582 286 582 83 583 85 583 286 583 85 584 87 584 286 584 286 585 87 585 288 585 87 586 138 586 288 586 288 587 138 587 290 587 138 588 140 588 290 588 290 589 140 589 292 589 140 590 142 590 292 590 292 591 142 591 357 591 142 592 144 592 357 592 357 593 144 593 358 593 144 594 146 594 358 594 358 595 146 595 360 595 146 596 158 596 360 596 360 597 158 597 362 597 158 598 364 598 362 598 158 599 160 599 364 599 160 600 175 600 364 600 364 601 175 601 380 601 175 602 198 602 380 602 380 603 198 603 398 603 198 604 200 604 398 604 398 605 200 605 396 605 200 606 202 606 396 606 396 607 202 607 394 607 202 608 107 608 394 608 394 609 107 609 342 609 107 610 109 610 342 610 342 611 109 611 340 611 109 612 111 612 340 612 340 613 111 613 338 613 111 614 113 614 338 614 338 615 113 615 336 615 113 616 207 616 336 616 336 617 207 617 429 617 207 618 209 618 429 618 429 619 209 619 427 619 231 620 233 620 8 620 235 621 258 621 13 621 13 622 258 622 21 622 65 623 23 623 278 623 69 624 67 624 282 624 74 625 71 625 348 625 98 626 97 626 352 626 130 627 129 627 375 627 408 628 181 628 179 628 408 629 179 629 410 629 179 630 177 630 410 630 410 631 177 631 411 631 177 632 176 632 411 632 411 633 176 633 311 633 176 634 81 634 311 634 311 635 81 635 313 635 81 636 79 636 313 636 313 637 79 637 315 637 79 638 77 638 315 638 315 639 77 639 383 639 77 640 137 640 383 640 383 641 137 641 384 641 137 642 136 642 384 642 384 643 136 643 386 643 136 644 134 644 386 644 386 645 134 645 388 645 134 646 132 646 388 646 388 647 132 647 390 647 130 648 375 648 132 648 375 649 391 649 132 649 132 650 391 650 390 650 98 651 352 651 129 651 352 652 376 652 129 652 129 653 376 653 375 653 74 654 348 654 97 654 348 655 350 655 97 655 97 656 350 656 352 656 69 657 282 657 71 657 282 658 284 658 71 658 71 659 284 659 348 659 65 660 278 660 67 660 278 661 280 661 67 661 67 662 280 662 282 662 21 663 258 663 23 663 258 664 260 664 23 664 23 665 260 665 278 665 235 666 13 666 233 666 13 667 11 667 233 667 233 668 11 668 8 668 231 669 8 669 248 669 8 670 6 670 248 670 248 671 6 671 4 671 1 408 246 408 4 408 246 408 248 408 4 408 244 672 246 672 1 672 244 673 1 673 236 673 1 674 0 674 236 674 0 675 17 675 236 675 236 676 17 676 262 676 17 677 264 677 262 677 17 678 19 678 264 678 19 679 27 679 264 679 264 680 27 680 272 680 27 681 274 681 272 681 27 682 29 682 274 682 29 683 57 683 274 683 274 684 57 684 328 684 57 685 330 685 328 685 57 686 59 686 330 686 59 687 61 687 330 687 330 688 61 688 332 688 61 689 334 689 332 689 61 690 63 690 334 690 63 691 123 691 334 691 334 692 123 692 355 692 123 693 377 693 355 693 123 694 125 694 377 694 125 695 127 695 377 695 377 696 127 696 378 696 127 697 412 697 378 697 148 698 169 698 415 698 127 699 149 699 412 699 149 700 148 700 412 700 412 701 148 701 413 701 148 702 415 702 413 702 169 703 168 703 415 703 168 704 166 704 415 704 415 705 166 705 417 705 166 706 164 706 417 706 417 707 164 707 419 707 164 708 162 708 419 708 419 709 162 709 420 709 162 710 161 710 420 710 420 711 161 711 318 711 161 712 119 712 318 712 318 713 119 713 320 713 119 714 117 714 320 714 320 715 117 715 322 715 117 716 115 716 322 716 322 717 115 717 421 717 115 718 215 718 421 718 421 719 215 719 422 719 215 720 214 720 422 720 422 721 214 721 424 721 214 722 212 722 424 722 424 723 212 723 426 723 210 724 428 724 212 724 428 725 426 725 212 725 428 726 210 726 208 726 428 727 208 727 430 727 208 728 206 728 430 728 430 729 206 729 431 729 206 730 205 730 431 730 431 731 205 731 337 731 205 732 112 732 337 732 337 733 112 733 339 733 112 734 110 734 339 734 339 735 110 735 341 735 110 736 108 736 341 736 341 737 108 737 392 737 108 738 204 738 392 738 392 739 204 739 393 739 204 740 203 740 393 740 393 741 203 741 395 741 203 742 201 742 395 742 395 743 201 743 397 743 201 744 199 744 397 744 397 745 199 745 399 745 399 746 199 746 400 746 199 747 197 747 400 747 400 748 197 748 381 748 197 749 196 749 381 749 381 750 196 750 382 750 196 751 174 751 382 751 382 752 174 752 363 752 174 753 173 753 363 753 363 754 173 754 361 754 173 755 159 755 361 755 361 756 159 756 359 756 159 757 145 757 359 757 359 758 145 758 293 758 145 759 143 759 293 759 293 760 143 760 291 760 53 761 270 761 84 761 270 762 287 762 84 762 84 763 287 763 86 763 287 764 289 764 86 764 86 765 289 765 139 765 289 766 291 766 139 766 139 767 291 767 141 767 291 768 143 768 141 768 40 769 217 769 38 769 217 770 216 770 38 770 38 771 216 771 35 771 216 772 241 772 35 772 35 773 241 773 51 773 241 774 243 774 51 774 51 775 243 775 53 775 243 776 268 776 53 776 53 777 268 777 270 777 42 567 220 567 40 567 220 567 217 567 40 567 220 778 42 778 30 778 220 779 30 779 222 779 30 780 32 780 222 780 222 781 32 781 224 781 32 782 34 782 224 782 224 783 34 783 227 783 34 784 47 784 227 784 227 785 47 785 229 785 229 786 47 786 252 786 47 787 49 787 252 787 252 788 49 788 254 788 49 789 90 789 254 789 254 790 90 790 295 790 90 791 92 791 295 791 295 792 92 792 297 792 92 793 94 793 297 793 94 794 96 794 297 794 297 795 96 795 299 795 96 796 152 796 299 796 299 797 152 797 301 797 152 798 154 798 301 798 301 799 154 799 325 799 154 800 156 800 325 800 325 801 156 801 343 801 156 802 172 802 343 802 343 803 172 803 344 803 172 804 171 804 344 804 344 805 171 805 365 805 171 806 195 806 365 806 365 807 195 807 366 807 195 808 368 808 366 808 195 809 194 809 368 809 194 810 192 810 368 810 368 811 192 811 370 811 192 812 190 812 370 812 370 813 190 813 372 813 190 814 188 814 372 814 372 815 188 815 373 815 188 816 187 816 373 816 373 817 187 817 304 817 187 818 105 818 304 818 304 819 105 819 306 819 105 820 103 820 306 820 306 821 103 821 308 821 103 822 101 822 308 822 308 823 101 823 401 823 101 824 186 824 401 824 401 825 186 825 402 825 186 826 185 826 402 826 402 827 185 827 404 827 185 828 183 828 404 828 404 829 183 829 406 829 181 830 408 830 183 830 408 831 406 831 183 831 425 830 427 830 211 830 427 832 209 832 211 832</p>
        </triangles>
      </mesh>
    </geometry>
  </library_geometries>
  <library_visual_scenes>
    <visual_scene id="Scene" name="Scene">
      <node id="chassis_default_as_machined__19" name="chassis_default_as_machined__19" type="NODE">
        <matrix sid="transform">1 0 0 0 0 1 0 0 0 0 1 0 0 0 0 1</matrix>
        <instance_geometry url="#chassis_default_as_machined__19-mesh" name="chassis_default_as_machined__19"/>
      </node>
    </visual_scene>
  </library_visual_scenes>
  <scene>
    <instance_visual_scene url="#Scene"/>
  </scene>
</COLLADA>