<?xml version="1.0" encoding="utf-8"?>
<COLLADA xmlns="http://www.collada.org/2005/11/COLLADASchema" version="1.4.1" xmlns:xsi="http://www.w3.org/2001/XMLSchema-instance">
  <asset>
    <contributor>
      <author>Blender User</author>
      <authoring_tool>Blender 3.0.1</authoring_tool>
    </contributor>
    <created>2026-06-04T16:18:37</created>
    <modified>2026-06-04T16:18:37</modified>
    <unit name="meter" meter="1"/>
    <up_axis>Z_UP</up_axis>
  </asset>
  <library_images/>
  <library_geometries>
    <geometry id="chassis_default_as_machined__26-mesh" name="chassis_default_as_machined__26">
      <mesh>
        <source id="chassis_default_as_machined__26-mesh-positions">
          <float_array id="chassis_default_as_machined__26-mesh-positions-array" count="2160">-0.5876025 0.2099134 -0.2876025 -0.5876 0.2098 -0.2876 -0.585 0.2098 -0.285 -0.585 0.1902 -0.285 -0.5876 0.1902 -0.2876 -0.5850049 0.1899731 -0.2850049 -0.5876025 0.1900866 -0.2876025 -0.5850198 0.1897467 -0.2850198 -0.5876099 0.1899734 -0.2876099 -0.5850445 0.1895213 -0.2850445 -0.5850049 0.2100268 -0.2850049 -0.5850198 0.2102532 -0.2850198 -0.5876099 0.2100266 -0.2876099 -0.5850445 0.2104787 -0.2850445 -0.5876222 0.2101393 -0.2876222 -0.585079 0.189297 -0.285079 -0.5876222 0.1898606 -0.2876222 -0.5851233 0.1890745 -0.2851232 -0.5876395 0.1897485 -0.2876395 -0.5851772 0.1888541 -0.2851772 -0.585079 0.210703 -0.285079 -0.5851233 0.2109255 -0.2851232 -0.5876395 0.2102515 -0.2876395 -0.5851772 0.2111458 -0.2851772 -0.5876616 0.2103627 -0.2876616 -0.6123901 0.2100266 -0.3123901 -0.6149555 0.2104787 -0.3149555 -0.6149802 0.2102532 -0.3149802 -0.5852407 0.1886363 -0.2852407 -0.5876616 0.1896373 -0.2876616 -0.5853136 0.1884214 -0.2853136 -0.5876886 0.189527 -0.2876886 -0.5853958 0.18821 -0.2853958 -0.6123976 0.1900866 -0.3123975 -0.6149802 0.1897467 -0.3149802 -0.6123901 0.1899734 -0.3123901 -0.6149555 0.1895213 -0.3149555 -0.6123778 0.1898606 -0.3123778 -0.6123976 0.2099134 -0.3123975 -0.6149951 0.2100268 -0.3149951 -0.6124 0.2098 -0.3124 -0.615 0.2098 -0.315 -0.6124 0.1902 -0.3124 -0.615 0.1902 -0.315 -0.6149951 0.1899731 -0.3149951 -0.614921 0.210703 -0.314921 -0.6123778 0.2101393 -0.3123778 -0.6148768 0.2109255 -0.3148767 -0.6123605 0.2102515 -0.3123605 -0.6148228 0.2111458 -0.3148228 -0.5852407 0.2113636 -0.2852407 -0.5853136 0.2115785 -0.2853136 -0.5876886 0.2104729 -0.2876886 -0.5853958 0.2117899 -0.2853958 -0.5877203 0.2105818 -0.2877203 -0.5854872 0.2119976 -0.2854872 -0.5877568 0.2106892 -0.2877568 -0.5855876 0.2122011 -0.2855876 -0.5877979 0.2107949 -0.2877979 -0.614921 0.189297 -0.314921 -0.6148768 0.1890745 -0.3148767 -0.6123605 0.1897485 -0.3123605 -0.6148228 0.1888541 -0.3148228 -0.6123384 0.1896373 -0.3123384 -0.6147593 0.2113636 -0.3147593 -0.6123384 0.2103627 -0.3123384 -0.6146864 0.2115785 -0.3146864 -0.6123114 0.2104729 -0.3123114 -0.6146042 0.2117899 -0.3146042 -0.5854872 0.1880024 -0.2854872 -0.5877203 0.1894181 -0.2877203 -0.5855876 0.1877989 -0.2855876 -0.5877568 0.1893107 -0.2877568 -0.5856967 0.1876 -0.2856966 -0.5877979 0.189205 -0.2877979 -0.5858144 0.187406 -0.2858144 -0.5878436 0.1891012 -0.2878436 -0.5859404 0.1872174 -0.2859404 -0.5860746 0.1870344 -0.2860745 -0.5878938 0.1889994 -0.2878938 -0.5862166 0.1868575 -0.2862166 -0.5880024 0.1854872 -0.2880024 -0.5889 0.1879483 -0.2889 -0.5884215 0.1853136 -0.2884215 -0.5891012 0.1878436 -0.2891012 -0.5888541 0.1851772 -0.2888541 -0.5893108 0.1877568 -0.2893108 -0.5892971 0.185079 -0.2892971 -0.6119976 0.2145128 -0.3119976 -0.6111 0.2120516 -0.3111 -0.6115785 0.2146864 -0.3115785 -0.6108988 0.2121564 -0.3108988 -0.6111459 0.2148228 -0.3111459 -0.6106892 0.2122431 -0.3106892 -0.610703 0.2149209 -0.310703 -0.5892971 0.2149209 -0.2892971 -0.5895271 0.2123114 -0.2895271 -0.5888541 0.2148228 -0.2888541 -0.5893108 0.2122431 -0.2893108 -0.5884215 0.2146864 -0.2884215 -0.5891012 0.2121564 -0.2891012 -0.5880024 0.2145128 -0.2880024 -0.5856967 0.2124 -0.2856966 -0.5858144 0.2125939 -0.2858144 -0.5878436 0.2108988 -0.2878436 -0.5859404 0.2127826 -0.2859404 -0.5878938 0.2110005 -0.2878938 -0.5860746 0.2129656 -0.2860745 -0.5879483 0.2111 -0.2879483 -0.5862166 0.2131425 -0.2862166 -0.6147593 0.1886363 -0.3147593 -0.6146864 0.1884214 -0.3146864 -0.6123114 0.189527 -0.3123114 -0.6146042 0.18821 -0.3146042 -0.6122797 0.1894181 -0.3122797 -0.6145128 0.1880024 -0.3145128 -0.6122432 0.1893107 -0.3122432 -0.6144124 0.1877989 -0.3144124 -0.6122021 0.189205 -0.3122021 -0.5879483 0.1888999 -0.2879483 -0.5880072 0.188803 -0.2880071 -0.5865231 0.186523 -0.2865231 -0.610703 0.185079 -0.310703 -0.6104729 0.1876885 -0.3104729 -0.6111459 0.1851772 -0.3111459 -0.6106892 0.1877568 -0.3106892 -0.6115785 0.1853136 -0.3115785 -0.6108988 0.1878436 -0.3108988 -0.6119976 0.1854872 -0.3119976 -0.6145128 0.2119976 -0.3145128 -0.6122797 0.2105818 -0.3122797 -0.6144124 0.2122011 -0.3144124 -0.6122432 0.2106892 -0.3122432 -0.6143034 0.2124 -0.3143033 -0.6122021 0.2107949 -0.3122021 -0.6141856 0.2125939 -0.3141856 -0.6121564 0.2108988 -0.3121564 -0.6140596 0.2127826 -0.3140596 -0.5865231 0.2134769 -0.2865231 -0.5880702 0.2112913 -0.2880702 -0.5880072 0.211197 -0.2880071 -0.6139255 0.2129656 -0.3139255 -0.6121062 0.2110005 -0.3121062 -0.6137834 0.2131425 -0.3137834 -0.5889 0.2120516 -0.2889 -0.5887087 0.2119297 -0.2887087 -0.5876 0.2143033 -0.2876 -0.5885288 0.2117917 -0.2885288 -0.5872174 0.2140595 -0.2872174 -0.5883615 0.2116385 -0.2883615 -0.5868575 0.2137834 -0.2868575 -0.5882083 0.2114712 -0.2882083 -0.5881373 0.2113828 -0.2881373 -0.5880702 0.1887087 -0.2880702 -0.5881373 0.1886172 -0.2881373 -0.5868575 0.1862165 -0.2868575 -0.5882083 0.1885287 -0.2882083 -0.5872174 0.1859404 -0.2872174 -0.5883615 0.1883615 -0.2883615 -0.5876 0.1856966 -0.2876 -0.5885288 0.1882082 -0.2885288 -0.5887087 0.1880702 -0.2887087 -0.6143034 0.1876 -0.3143033 -0.6141856 0.187406 -0.3141856 -0.6121564 0.1891012 -0.3121564 -0.6140596 0.1872174 -0.3140596 -0.6121062 0.1889994 -0.3121062 -0.6139255 0.1870344 -0.3139255 -0.6120517 0.1888999 -0.3120517 -0.6137834 0.1868575 -0.3137834 -0.6120517 0.2111 -0.3120517 -0.6119928 0.211197 -0.3119928 -0.6134769 0.2134769 -0.3134769 -0.6134769 0.186523 -0.3134769 -0.6119298 0.1887087 -0.3119298 -0.6119928 0.188803 -0.3119928 -0.6119298 0.2112913 -0.3119298 -0.6118627 0.2113828 -0.3118627 -0.6131425 0.2137834 -0.3131425 -0.6117917 0.2114712 -0.3117917 -0.6127826 0.2140595 -0.3127826 -0.6116385 0.2116385 -0.3116385 -0.6124 0.2143033 -0.3124 -0.6114712 0.2117917 -0.3114712 -0.6112913 0.2119297 -0.3112913 -0.6104729 0.2123114 -0.3104729 -0.6102515 0.2123605 -0.3102515 -0.6102532 0.2149802 -0.3102532 -0.6100266 0.2123901 -0.3100266 -0.6098 0.215 -0.3098 -0.6098 0.2124 -0.3098 -0.5902 0.215 -0.2902 -0.5902 0.2124 -0.2902 -0.5897468 0.2149802 -0.2897468 -0.5899734 0.2123901 -0.2899734 -0.5897485 0.2123605 -0.2897485 -0.5895271 0.1876885 -0.2895271 -0.5897485 0.1876395 -0.2897485 -0.5897468 0.1850197 -0.2897468 -0.5899734 0.1876099 -0.2899734 -0.5902 0.185 -0.2902 -0.5902 0.1876 -0.2902 -0.6098 0.185 -0.3098 -0.6098 0.1876 -0.3098 -0.6102532 0.1850197 -0.3102532 -0.6100266 0.1876099 -0.3100266 -0.6102515 0.1876395 -0.3102515 -0.6111 0.1879483 -0.3111 -0.6112913 0.1880702 -0.3112913 -0.6124 0.1856966 -0.3124 -0.6114712 0.1882082 -0.3114712 -0.6127826 0.1859404 -0.3127826 -0.6116385 0.1883615 -0.3116385 -0.6131425 0.1862165 -0.3131425 -0.6117917 0.1885287 -0.3117917 -0.6118627 0.1886172 -0.3118627 0.01237773 0.2101393 -0.3123778 0.01239007 0.2100266 -0.3123901 0.01495546 0.2104787 -0.3149555 0.01498019 0.2102532 -0.3149802 0.01239752 0.2099134 -0.3123975 0.01499503 0.2100268 -0.3149951 0.01499998 0.2098 -0.315 0.01239997 0.2098 -0.3124 0.01499998 0.1902 -0.315 0.01239997 0.1902 -0.3124 0.01499503 0.1899731 -0.3149951 0.01239752 0.1900866 -0.3123975 0.01498019 0.1897467 -0.3149802 0.01239007 0.1899734 -0.3123901 0.01495546 0.1895213 -0.3149555 0.01492094 0.210703 -0.314921 0.01487672 0.2109255 -0.3148767 0.01236045 0.2102515 -0.3123605 0.01482278 0.2111458 -0.3148228 0.01233834 0.2103627 -0.3123384 0.01492094 0.189297 -0.314921 0.01237773 0.1898606 -0.3123778 0.01487672 0.1890745 -0.3148767 0.01236045 0.1897485 -0.3123605 0.01482278 0.1888541 -0.3148228 -0.01239752 0.1900866 -0.2876025 -0.01498019 0.1897467 -0.2850198 -0.01239007 0.1899734 -0.2876099 -0.01495546 0.1895213 -0.2850445 -0.01237773 0.1898606 -0.2876222 -0.01239007 0.2100266 -0.2876099 -0.01495546 0.2104787 -0.2850445 -0.01498019 0.2102532 -0.2850198 -0.01239752 0.2099134 -0.2876025 -0.01499503 0.2100268 -0.2850049 -0.01239997 0.2098 -0.2876 -0.01499998 0.2098 -0.285 -0.01239997 0.1902 -0.2876 -0.01499998 0.1902 -0.285 -0.01499503 0.1899731 -0.2850049 0.0147593 0.1886363 -0.3147593 0.01233834 0.1896373 -0.3123384 0.0146864 0.1884214 -0.3146864 0.01231139 0.189527 -0.3123114 0.01460415 0.18821 -0.3146042 -0.01492094 0.189297 -0.285079 -0.01487672 0.1890745 -0.2851232 -0.01236045 0.1897485 -0.2876395 -0.01482278 0.1888541 -0.2851772 -0.01233834 0.1896373 -0.2876616 -0.01492094 0.210703 -0.285079 -0.01237773 0.2101393 -0.2876222 -0.01487672 0.2109255 -0.2851232 -0.01236045 0.2102515 -0.2876395 -0.01482278 0.2111458 -0.2851772 0.0147593 0.2113636 -0.3147593 0.0146864 0.2115785 -0.3146864 0.01231139 0.2104729 -0.3123114 0.01460415 0.2117899 -0.3146042 0.01227962 0.2105818 -0.3122797 0.01451277 0.2119976 -0.3145128 0.01224315 0.2106892 -0.3122432 0.0144124 0.2122011 -0.3144124 0.01220208 0.2107949 -0.3122021 -0.0147593 0.2113636 -0.2852407 -0.01233834 0.2103627 -0.2876616 -0.0146864 0.2115785 -0.2853136 -0.01231139 0.2104729 -0.2876886 -0.01460415 0.2117899 -0.2853958 0.01199758 0.1854872 -0.3119976 0.01109999 0.1879483 -0.3111 0.0115785 0.1853136 -0.3115785 0.01089876 0.1878436 -0.3108988 0.01114583 0.1851772 -0.3111459 0.01068919 0.1877568 -0.3106892 0.01070296 0.185079 -0.310703 -0.0147593 0.1886363 -0.2852407 -0.0146864 0.1884214 -0.2853136 -0.01231139 0.189527 -0.2876886 -0.01460415 0.18821 -0.2853958 -0.01227962 0.1894181 -0.2877203 -0.01451277 0.1880024 -0.2854872 -0.01224315 0.1893107 -0.2877568 -0.0144124 0.1877989 -0.2855876 -0.01220208 0.189205 -0.2877979 0.01451277 0.1880024 -0.3145128 0.01227962 0.1894181 -0.3122797 0.0144124 0.1877989 -0.3144124 0.01224315 0.1893107 -0.3122432 0.01430332 0.1876 -0.3143033 0.01220208 0.189205 -0.3122021 0.0141856 0.187406 -0.3141856 0.01215636 0.1891012 -0.3121564 0.01405954 0.1872174 -0.3140596 -0.01199758 0.2145128 -0.2880024 -0.01109999 0.2120516 -0.2889 -0.0115785 0.2146864 -0.2884215 -0.01089876 0.2121564 -0.2891012 -0.01114583 0.2148228 -0.2888541 -0.01068919 0.2122431 -0.2893108 -0.01070296 0.2149209 -0.2892971 0.01070296 0.2149209 -0.310703 0.01047289 0.2123114 -0.3104729 0.01114583 0.2148228 -0.3111459 0.01068919 0.2122431 -0.3106892 0.0115785 0.2146864 -0.3115785 0.01089876 0.2121564 -0.3108988 0.01199758 0.2145128 -0.3119976 0.01430332 0.2124 -0.3143033 0.0141856 0.2125939 -0.3141856 0.01215636 0.2108988 -0.3121564 0.01405954 0.2127826 -0.3140596 0.01210618 0.2110005 -0.3121062 0.01392543 0.2129656 -0.3139255 0.01205164 0.2111 -0.3120517 0.01378339 0.2131425 -0.3137834 0.01392543 0.1870344 -0.3139255 0.01210618 0.1889994 -0.3121062 0.01378339 0.1868575 -0.3137834 -0.01070296 0.185079 -0.2892971 -0.01047289 0.1876885 -0.2895271 -0.01114583 0.1851772 -0.2888541 -0.01068919 0.1877568 -0.2893108 -0.0115785 0.1853136 -0.2884215 -0.01089876 0.1878436 -0.2891012 -0.01199758 0.1854872 -0.2880024 -0.01451277 0.2119976 -0.2854872 -0.01227962 0.2105818 -0.2877203 -0.0144124 0.2122011 -0.2855876 -0.01224315 0.2106892 -0.2877568 -0.01430332 0.2124 -0.2856966 -0.01220208 0.2107949 -0.2877979 -0.0141856 0.2125939 -0.2858144 -0.01215636 0.2108988 -0.2878436 -0.01405954 0.2127826 -0.2859404 0.0134769 0.2134769 -0.3134769 0.01192975 0.2112913 -0.3119298 0.01199281 0.211197 -0.3119928 0.01205164 0.1888999 -0.3120517 0.01199281 0.188803 -0.3119928 0.0134769 0.186523 -0.3134769 -0.01430332 0.1876 -0.2856966 -0.0141856 0.187406 -0.2858144 -0.01215636 0.1891012 -0.2878436 -0.01405954 0.1872174 -0.2859404 -0.01210618 0.1889994 -0.2878938 -0.01392543 0.1870344 -0.2860745 -0.01205164 0.1888999 -0.2879483 -0.01378339 0.1868575 -0.2862166 -0.01392543 0.2129656 -0.2860745 -0.01210618 0.2110005 -0.2878938 -0.01378339 0.2131425 -0.2862166 0.01109999 0.2120516 -0.3111 0.01129126 0.2119297 -0.3112913 0.01239997 0.2143033 -0.3124 0.01147121 0.2117917 -0.3114712 0.01278257 0.2140595 -0.3127826 0.01163846 0.2116385 -0.3116385 0.01314246 0.2137834 -0.3131425 0.0117917 0.2114712 -0.3117917 0.01186269 0.2113828 -0.3118627 0.01192975 0.1887087 -0.3119298 0.01186269 0.1886172 -0.3118627 0.01314246 0.1862165 -0.3131425 0.0117917 0.1885287 -0.3117917 0.01278257 0.1859404 -0.3127826 0.01163846 0.1883615 -0.3116385 0.01239997 0.1856966 -0.3124 0.01147121 0.1882082 -0.3114712 0.01129126 0.1880702 -0.3112913 -0.0134769 0.186523 -0.2865231 -0.01192975 0.1887087 -0.2880702 -0.01199281 0.188803 -0.2880071 -0.01205164 0.2111 -0.2879483 -0.01199281 0.211197 -0.2880071 -0.0134769 0.2134769 -0.2865231 -0.01109999 0.1879483 -0.2889 -0.01129126 0.1880702 -0.2887087 -0.01239997 0.1856966 -0.2876 -0.01147121 0.1882082 -0.2885288 -0.01278257 0.1859404 -0.2872174 -0.01163846 0.1883615 -0.2883615 -0.01314246 0.1862165 -0.2868575 -0.0117917 0.1885287 -0.2882083 -0.01186269 0.1886172 -0.2881373 0.01047289 0.1876885 -0.3104729 0.01025146 0.1876395 -0.3102515 0.01025319 0.1850197 -0.3102532 0.01002657 0.1876099 -0.3100266 0.009799957 0.185 -0.3098 0.009799957 0.1876 -0.3098 -0.009799957 0.185 -0.2902 -0.009799957 0.1876 -0.2902 -0.01025319 0.1850197 -0.2897468 -0.01002657 0.1876099 -0.2899734 -0.01025146 0.1876395 -0.2897485 -0.01192975 0.2112913 -0.2880702 -0.01186269 0.2113828 -0.2881373 -0.01314246 0.2137834 -0.2868575 -0.0117917 0.2114712 -0.2882083 -0.01278257 0.2140595 -0.2872174 -0.01163846 0.2116385 -0.2883615 -0.01239997 0.2143033 -0.2876 -0.01147121 0.2117917 -0.2885288 -0.01129126 0.2119297 -0.2887087 -0.01047289 0.2123114 -0.2895271 -0.01025146 0.2123605 -0.2897485 -0.01025319 0.2149802 -0.2897468 -0.01002657 0.2123901 -0.2899734 -0.009799957 0.215 -0.2902 -0.009799957 0.2124 -0.2902 0.009799957 0.215 -0.3098 0.009799957 0.2124 -0.3098 0.01025319 0.2149802 -0.3102532 0.01002657 0.2123901 -0.3100266 0.01025146 0.2123605 -0.3102515 -0.2911368 0.1984372 -0.285 -0.2913067 0.1976706 -0.285 -0.2922058 0.2045 -0.285 -0.2918432 0.2038035 -0.285 -0.2915428 0.2030782 -0.285 -0.2913067 0.2023293 -0.285 -0.2911368 0.2015628 -0.285 -0.2915428 0.1969218 -0.285 -0.2918432 0.1961964 -0.285 -0.2922058 0.1955 -0.285 -0.3081567 0.2038035 -0.285 -0.3077942 0.2045 -0.285 -0.3081567 0.1961964 -0.285 -0.3084572 0.1969218 -0.285 -0.3073723 0.2051622 -0.285 -0.3068944 0.205785 -0.285 -0.3063639 0.2063639 -0.285 -0.2910342 0.2007844 -0.285 -0.291 0.2 -0.285 -0.2910342 0.1992155 -0.285 -0.3023294 0.2086933 -0.285 -0.3015629 0.2088633 -0.285 -0.3077942 0.1955 -0.285 -0.3088633 0.2015628 -0.285 -0.3089658 0.2007844 -0.285 -0.309 0.2 -0.285 -0.3086933 0.2023293 -0.285 -0.3084572 0.2030782 -0.285 -0.3057851 0.2068943 -0.285 -0.3051622 0.2073723 -0.285 -0.3045 0.2077942 -0.285 -0.2961964 0.2081567 -0.285 -0.2955 0.2077942 -0.285 -0.293636 0.2063639 -0.285 -0.2931056 0.205785 -0.285 -0.2926276 0.2051622 -0.285 -0.2976706 0.1913067 -0.285 -0.2984372 0.1911367 -0.285 -0.3086933 0.1976706 -0.285 -0.3088633 0.1984372 -0.285 -0.3089658 0.1992155 -0.285 -0.3038036 0.2081567 -0.285 -0.3030782 0.2084572 -0.285 -0.3007844 0.2089657 -0.285 -0.3 0.209 -0.285 -0.2992156 0.2089657 -0.285 -0.2984372 0.2088633 -0.285 -0.2976706 0.2086933 -0.285 -0.2969218 0.2084572 -0.285 -0.2948378 0.2073723 -0.285 -0.2942149 0.2068943 -0.285 -0.3038036 0.1918432 -0.285 -0.3045 0.1922057 -0.285 -0.3063639 0.193636 -0.285 -0.3068944 0.1942149 -0.285 -0.3073723 0.1948378 -0.285 -0.2926276 0.1948378 -0.285 -0.2931056 0.1942149 -0.285 -0.293636 0.193636 -0.285 -0.2992156 0.1910342 -0.285 -0.3 0.191 -0.285 -0.3007844 0.1910342 -0.285 -0.3015629 0.1911367 -0.285 -0.3023294 0.1913067 -0.285 -0.3030782 0.1915428 -0.285 -0.2942149 0.1931056 -0.285 -0.2948378 0.1926276 -0.285 -0.2955 0.1922057 -0.285 -0.3051622 0.1926276 -0.285 -0.3057851 0.1931056 -0.285 -0.2961964 0.1918432 -0.285 -0.2969218 0.1915428 -0.285 -0.2910342 0.2007844 -0.3124 -0.291 0.2 -0.3124 -0.3081567 0.2038035 -0.3124 -0.3077942 0.2045 -0.3124 -0.2913067 0.1976706 -0.3124 -0.2915428 0.1969218 -0.3124 -0.2918432 0.1961964 -0.3124 -0.2922058 0.1955 -0.3124 -0.3081567 0.1961964 -0.3124 -0.3084572 0.1969218 -0.3124 -0.3073723 0.2051622 -0.3124 -0.3068944 0.205785 -0.3124 -0.3063639 0.2063639 -0.3124 -0.2922058 0.2045 -0.3124 -0.2918432 0.2038035 -0.3124 -0.2915428 0.2030782 -0.3124 -0.2913067 0.2023293 -0.3124 -0.2911368 0.2015628 -0.3124 -0.2910342 0.1992155 -0.3124 -0.2911368 0.1984372 -0.3124 -0.3023294 0.2086933 -0.3124 -0.3015629 0.2088633 -0.3124 -0.3077942 0.1955 -0.3124 -0.3088633 0.2015628 -0.3124 -0.3089658 0.2007844 -0.3124 -0.309 0.2 -0.3124 -0.3086933 0.2023293 -0.3124 -0.3084572 0.2030782 -0.3124 -0.3057851 0.2068943 -0.3124 -0.3051622 0.2073723 -0.3124 -0.3045 0.2077942 -0.3124 -0.2961964 0.2081567 -0.3124 -0.2955 0.2077942 -0.3124 -0.293636 0.2063639 -0.3124 -0.2931056 0.205785 -0.3124 -0.2926276 0.2051622 -0.3124 -0.2976706 0.1913067 -0.3124 -0.2984372 0.1911367 -0.3124 -0.3086933 0.1976706 -0.3124 -0.3088633 0.1984372 -0.3124 -0.3089658 0.1992155 -0.3124 -0.3038036 0.2081567 -0.3124 -0.3030782 0.2084572 -0.3124 -0.3007844 0.2089657 -0.3124 -0.3 0.209 -0.3124 -0.2992156 0.2089657 -0.3124 -0.2984372 0.2088633 -0.3124 -0.2976706 0.2086933 -0.3124 -0.2969218 0.2084572 -0.3124 -0.2948378 0.2073723 -0.3124 -0.2942149 0.2068943 -0.3124 -0.3038036 0.1918432 -0.3124 -0.3045 0.1922057 -0.3124 -0.3063639 0.193636 -0.3124 -0.3068944 0.1942149 -0.3124 -0.3073723 0.1948378 -0.3124 -0.2926276 0.1948378 -0.3124 -0.2931056 0.1942149 -0.3124 -0.293636 0.193636 -0.3124 -0.2992156 0.1910342 -0.3124 -0.3 0.191 -0.3124 -0.3007844 0.1910342 -0.3124 -0.3015629 0.1911367 -0.3124 -0.3023294 0.1913067 -0.3124 -0.3030782 0.1915428 -0.3124 -0.2942149 0.1931056 -0.3124 -0.2948378 0.1926276 -0.3124 -0.2955 0.1922057 -0.3124 -0.3051622 0.1926276 -0.3124 -0.3057851 0.1931056 -0.3124 -0.2961964 0.1918432 -0.3124 -0.2969218 0.1915428 -0.3124 -0.3089658 0.2007844 -0.315 -0.309 0.2 -0.315 -0.2931056 0.1942149 -0.315 -0.2926276 0.1948378 -0.315 -0.3057851 0.2068943 -0.315 -0.3063639 0.2063639 -0.315 -0.3068944 0.205785 -0.315 -0.3073723 0.2051622 -0.315 -0.2922058 0.1955 -0.315 -0.2918432 0.1961964 -0.315 -0.2976706 0.2086933 -0.315 -0.2984372 0.2088633 -0.315 -0.3077942 0.2045 -0.315 -0.3081567 0.2038035 -0.315 -0.3084572 0.2030782 -0.315 -0.3089658 0.1992155 -0.315 -0.3088633 0.1984372 -0.315 -0.3086933 0.1976706 -0.315 -0.2915428 0.1969218 -0.315 -0.2913067 0.1976706 -0.315 -0.2911368 0.1984372 -0.315 -0.3086933 0.2023293 -0.315 -0.3088633 0.2015628 -0.315 -0.3084572 0.1969218 -0.315 -0.3081567 0.1961964 -0.315 -0.3077942 0.1955 -0.315 -0.3038036 0.2081567 -0.315 -0.3045 0.2077942 -0.315 -0.3051622 0.2073723 -0.315 -0.2910342 0.1992155 -0.315 -0.291 0.2 -0.315 -0.2910342 0.2007844 -0.315 -0.2911368 0.2015628 -0.315 -0.2913067 0.2023293 -0.315 -0.2915428 0.2030782 -0.315 -0.293636 0.2063639 -0.315 -0.2931056 0.205785 -0.315 -0.2926276 0.2051622 -0.315 -0.2918432 0.2038035 -0.315 -0.2922058 0.2045 -0.315 -0.2942149 0.2068943 -0.315 -0.2948378 0.2073723 -0.315 -0.2955 0.2077942 -0.315 -0.2961964 0.2081567 -0.315 -0.2969218 0.2084572 -0.315 -0.2992156 0.2089657 -0.315 -0.3 0.209 -0.315 -0.3007844 0.2089657 -0.315 -0.3015629 0.2088633 -0.315 -0.3023294 0.2086933 -0.315 -0.3030782 0.2084572 -0.315 -0.3073723 0.1948378 -0.315 -0.3068944 0.1942149 -0.315 -0.3063639 0.193636 -0.315 -0.3045 0.1922057 -0.315 -0.3038036 0.1918432 -0.315 -0.3030782 0.1915428 -0.315 -0.3023294 0.1913067 -0.315 -0.3015629 0.1911367 -0.315 -0.2992156 0.1910342 -0.315 -0.3 0.191 -0.315 -0.3007844 0.1910342 -0.315 -0.2984372 0.1911367 -0.315 -0.2976706 0.1913067 -0.315 -0.2969218 0.1915428 -0.315 -0.2961964 0.1918432 -0.315 -0.2955 0.1922057 -0.315 -0.2948378 0.1926276 -0.315 -0.2942149 0.1931056 -0.315 -0.293636 0.193636 -0.315 -0.3057851 0.1931056 -0.315 -0.3051622 0.1926276 -0.315 -0.309 0.2 -0.2876 -0.3089658 0.2007844 -0.2876 -0.3088633 0.2015628 -0.2876 -0.3086933 0.2023293 -0.2876 -0.3084572 0.2030782 -0.2876 -0.3081567 0.2038035 -0.2876 -0.3077942 0.2045 -0.2876 -0.3073723 0.2051622 -0.2876 -0.3068944 0.205785 -0.2876 -0.3063639 0.2063639 -0.2876 -0.3057851 0.2068943 -0.2876 -0.3051622 0.2073723 -0.2876 -0.3045 0.2077942 -0.2876 -0.3038036 0.2081567 -0.2876 -0.3030782 0.2084572 -0.2876 -0.3023294 0.2086933 -0.2876 -0.3015629 0.2088633 -0.2876 -0.3007844 0.2089657 -0.2876 -0.3 0.209 -0.2876 -0.2992156 0.2089657 -0.2876 -0.2984372 0.2088633 -0.2876 -0.2976706 0.2086933 -0.2876 -0.2969218 0.2084572 -0.2876 -0.2961964 0.2081567 -0.2876 -0.2955 0.2077942 -0.2876 -0.2948378 0.2073723 -0.2876 -0.2942149 0.2068943 -0.2876 -0.293636 0.2063639 -0.2876 -0.2931056 0.205785 -0.2876 -0.2926276 0.2051622 -0.2876 -0.2922058 0.2045 -0.2876 -0.2918432 0.2038035 -0.2876 -0.2915428 0.2030782 -0.2876 -0.2913067 0.2023293 -0.2876 -0.2911368 0.2015628 -0.2876 -0.2910342 0.2007844 -0.2876 -0.291 0.2 -0.2876 -0.2910342 0.1992155 -0.2876 -0.2911368 0.1984372 -0.2876 -0.2913067 0.1976706 -0.2876 -0.2915428 0.1969218 -0.2876 -0.2918432 0.1961964 -0.2876 -0.2922058 0.1955 -0.2876 -0.2926276 0.1948378 -0.2876 -0.2931056 0.1942149 -0.2876 -0.293636 0.193636 -0.2876 -0.2942149 0.1931056 -0.2876 -0.2948378 0.1926276 -0.2876 -0.2955 0.1922057 -0.2876 -0.2961964 0.1918432 -0.2876 -0.2969218 0.1915428 -0.2876 -0.2976706 0.1913067 -0.2876 -0.2984372 0.1911367 -0.2876 -0.2992156 0.1910342 -0.2876 -0.3 0.191 -0.2876 -0.3007844 0.1910342 -0.2876 -0.3015629 0.1911367 -0.2876 -0.3023294 0.1913067 -0.2876 -0.3030782 0.1915428 -0.2876 -0.3038036 0.1918432 -0.2876 -0.3045 0.1922057 -0.2876 -0.3051622 0.1926276 -0.2876 -0.3057851 0.1931056 -0.2876 -0.3063639 0.193636 -0.2876 -0.3068944 0.1942149 -0.2876 -0.3073723 0.1948378 -0.2876 -0.3077942 0.1955 -0.2876 -0.3081567 0.1961964 -0.2876 -0.3084572 0.1969218 -0.2876 -0.3086933 0.1976706 -0.2876 -0.3088633 0.1984372 -0.2876 -0.3089658 0.1992155 -0.2876</float_array>
          <technique_common>
            <accessor source="#chassis_default_as_machined__26-mesh-positions-array" count="720" stride="3">
              <param name="X" type="float"/>
              <param name="Y" type="float"/>
              <param name="Z" type="float"/>
            </accessor>
          </technique_common>
        </source>
        <source id="chassis_default_as_machined__26-mesh-normals">
          <float_array id="chassis_default_as_machined__26-mesh-normals-array" count="3495">-0.7070894 0 0.7071242 -0.707106 0 0.7071076 -0.7071052 0 0.7071084 -0.7071679 -2.79189e-4 0.7070457 -0.7070893 5.58329e-4 0.7071242 -0.7070893 -2.79165e-4 0.7071242 -0.707194 0 0.7070195 -0.7070543 5.58302e-4 0.7071591 -0.7070806 0 0.7071329 -0.7071068 2.79158e-4 0.7071068 -0.7070195 -5.58274e-4 0.7071939 -0.7071591 0 0.7070546 -0.7070366 -5.60473e-4 0.7071768 -0.7070367 0 0.7071769 -0.707072 2.78622e-4 0.7071416 -0.7071417 2.79199e-4 0.7070719 -0.7072287 0 0.7069849 -0.7071068 0 0.7071068 -0.7071068 -2.78608e-4 0.7071068 -0.7071067 5.60528e-4 0.7071067 -0.7070283 1.96261e-5 0.7071853 -0.7070721 -2.77583e-4 0.7071415 -0.7073186 0 0.7068949 -0.7070721 0 0.7071415 -0.707248 0 0.7069656 -0.7070721 -2.7761e-4 0.7071415 -0.7070545 0 0.7071592 -0.7070719 0 0.7071417 -0.7070718 5.58343e-4 0.7071416 -0.7071635 2.79191e-4 0.70705 -0.7070889 -0.001116633 0.7071238 -0.7070719 2.79172e-4 0.7071416 -0.7071124 0 0.7071012 -0.7070987 0 0.7071149 -0.7071234 -4.07882e-4 0.7070901 -0.7071939 -2.78683e-4 0.7070197 -0.7070016 5.6039e-4 0.7072117 -0.7071765 0 0.7070371 -0.7071419 0 0.7070718 -0.7070372 0 0.7071765 -0.7071765 0 0.7070372 -0.7070721 2.7761e-4 0.7071415 -0.7070361 -5.64613e-4 0.7071773 -0.7071067 -5.64782e-4 0.7071067 -0.7071762 0 0.7070374 -0.7071774 0 0.7070362 -0.7071417 -2.79172e-4 0.7070719 -0.7071416 0 0.707072 -0.707072 0 0.7071416 -0.7071067 -5.60528e-4 0.7071067 -0.7071415 0 0.7070721 -0.7071774 0 0.7070361 -0.7070361 -5.64838e-4 0.7071773 -0.7071068 2.77569e-4 0.7071068 -0.7071068 2.76025e-4 0.7071068 -0.7070353 -5.71457e-4 0.7071781 -0.7071068 2.75998e-4 0.7071068 -0.7070354 0 0.7071782 -0.7070032 2.76065e-4 0.7072103 -0.7071781 -5.71226e-4 0.7070353 -0.7071759 0 0.7070378 -0.7071781 -5.71457e-4 0.7070353 -0.7070723 0 0.7071413 -0.7071068 2.73966e-4 0.7071068 -0.7071067 -5.80309e-4 0.7071067 -0.7072095 2.73953e-4 0.707004 -0.7070548 -3.46663e-5 0.7071588 -0.70716 0 0.7070536 -0.7072043 0 0.7070093 -0.7070891 7.09359e-5 0.7071245 -0.7070468 -4.44158e-5 0.7071668 -0.7071978 0 0.7070158 -0.7070536 -7.09323e-5 0.70716 -0.7070895 -1.73323e-5 0.7071242 -0.7070891 0 0.7071245 -0.707096 -2.16677e-5 0.7071177 -0.7070806 3.49279e-5 0.707133 -0.7070719 6.98688e-5 0.7071418 -0.7072029 0 0.7070108 -0.7070893 6.98567e-5 0.7071242 -0.7070457 0 0.7071679 -0.7070721 0 0.7071415 -0.7072448 0 0.7069688 -0.7071067 5.71515e-4 0.7071067 -0.7069688 0 0.7072448 -0.7071782 0 0.7070354 -0.7069343 0 0.7072793 -0.707321 0 0.7068925 -0.7071068 2.78663e-4 0.7071068 -0.7071773 5.64838e-4 0.7070361 -0.7071068 -2.77569e-4 0.7071068 -0.7070361 5.64838e-4 0.7071773 -0.7071762 -2.77569e-4 0.7070374 -0.7070374 -2.77569e-4 0.7071762 -0.7070362 0 0.7071774 -0.7071793 -5.80369e-4 0.7070342 -0.7071067 5.71169e-4 0.7071067 -0.707124 -6.88735e-5 0.7070896 -0.7071242 0 0.7070893 -0.7071418 0 0.7070719 -0.7070893 -6.98567e-5 0.7071242 -0.7071592 6.98567e-5 0.7070544 -0.7070354 0 0.7071782 -0.7070723 2.76038e-4 0.7071413 -0.7071758 -2.76025e-4 0.7070378 -0.7070352 -5.71572e-4 0.7071781 -0.7071067 5.71399e-4 0.7071067 -0.7070378 0 0.7071759 -0.7071415 1.38655e-4 0.7070721 -0.7070361 0 0.7071774 -0.7070643 -5.53342e-4 0.7071491 -0.7072095 -2.73953e-4 0.707004 -0.7070343 0 0.7071793 -0.7070383 0 0.7071753 -0.7071418 1.39724e-4 0.7070719 -0.7071423 -7.0927e-5 0.7070714 -0.7070721 -6.93344e-5 0.7071415 -0.7071955 1.41865e-4 0.7070181 -0.7070721 6.93344e-5 0.7071415 -0.7070891 -1.41872e-4 0.7071245 -0.7071068 6.9331e-5 0.7071068 -0.7071068 -1.41875e-4 0.7071068 -0.7071242 0 0.7070895 -0.7073186 0 0.706895 -0.7070376 -1.07159e-4 0.707176 -0.7070342 -2.90244e-4 0.7071793 -0.7069639 0 0.7072497 -0.7071843 -6.88726e-5 0.7070293 -0.7072519 2.90214e-4 0.7069616 -0.7070642 0 0.7071495 -0.7071434 0 0.7070702 -0.7070812 0 0.7071324 -0.7070519 0 0.7071617 -0.7071239 3.41507e-5 0.7070897 -0.7070702 0 0.7071434 -0.7070935 7.09292e-5 0.7071201 -0.7072108 5.55219e-4 0.7070026 -0.7071068 -2.75998e-4 0.7071068 -0.7068924 -5.71457e-4 0.7073209 -0.7071413 0 0.7070723 -0.7068924 5.71457e-4 0.7073209 -0.7069638 5.71515e-4 0.7072495 -0.7070896 -6.88768e-5 0.707124 -0.7071415 -1.38655e-4 0.7070721 -0.7070361 5.64725e-4 0.7071773 -0.7069661 -4.46503e-4 0.7072474 -0.7071067 5.80071e-4 0.7071067 -0.7070896 6.88835e-5 0.7071241 -0.7073243 -2.90125e-4 0.7068892 -0.7071154 0 0.7070983 -0.7070702 1.46391e-4 0.7071434 -0.7071324 0 0.7070811 -0.7069604 0 0.7072532 -0.7070854 0 0.7071282 -0.7071617 0 0.7070519 -0.7070624 3.5476e-5 0.7071511 -0.7071378 -3.54704e-5 0.7070757 -0.7071155 0 0.7070981 -0.7070971 -3.87491e-5 0.7071166 -0.7070981 0 0.7071155 -0.7070544 -1.7465e-5 0.7071592 -0.7071636 0 0.70705 -0.7071052 0 0.7071084 -0.7071133 0 0.7071003 -0.7070893 0 0.7071242 -0.7070239 -3.4932e-5 0.7071898 -0.7071068 6.98653e-5 0.7071068 -0.7071592 -6.98498e-5 0.7070544 -0.7071483 0 0.7070653 -0.7071378 3.54704e-5 0.7070757 -0.707133 0 0.7070806 -0.7071416 -2.46973e-5 0.7070721 -0.7071024 0 0.7071112 -0.7070566 1.74651e-5 0.707157 -0.7070937 0 0.7071199 -0.7071084 0 0.7071052 -0.7070544 0 0.7071592 -0.7071679 3.49253e-5 0.7070457 -0.7071177 0 0.7070959 -0.7071418 -1.39696e-4 0.7070719 -0.7070713 -7.09484e-5 0.7071423 -0.7071068 -6.9331e-5 0.7071068 -0.7070181 1.41886e-4 0.7071955 -0.7071242 -6.93327e-5 0.7070895 -0.7070358 0 0.7071778 -0.7072116 3.39186e-4 0.7070019 0.707037 -1.22144e-4 0.7071766 0.707037 -1.74456e-5 0.7071766 0.7070545 0 0.7071592 0.7071635 -1.74494e-5 0.7070501 0.7070719 0 0.7071417 0.7070894 0 0.7071242 0.7071011 0 0.7071124 0.7071141 0 0.7070996 0.7070981 0 0.7071155 0.7072202 0 0.7069934 0.7071417 1.74499e-5 0.7070719 0.7069149 0 0.7072986 0.7071068 1.74474e-5 0.7071068 0.7071242 8.72347e-6 0.7070893 0.7071068 8.70821e-6 0.7071068 0.7071419 0 0.7070718 0.7071068 3.48328e-5 0.7071068 0.7069668 1.22543e-4 0.7072468 0.7070894 -8.70757e-6 0.7071242 0.7071068 1.22591e-4 0.7071068 0.7071416 -8.70778e-6 0.707072 0.7071068 0 0.7071068 0.707072 -3.48277e-5 0.7071416 0.7070894 -1.74478e-5 0.7071242 0.7071592 6.97843e-5 0.7070545 0.7070294 1.97634e-5 0.7071842 0.7071722 8.7246e-6 0.7070413 0.7069498 1.74444e-5 0.7072638 0.7071504 -8.72487e-6 0.7070632 0.7071076 0 0.707106 0.7070894 1.74478e-5 0.7071242 0.7071679 -8.72465e-6 0.7070457 0.7071218 -6.81603e-6 0.7070918 0.7071068 6.07182e-5 0.7071068 0.7070361 -1.05928e-4 0.7071774 0.7070721 0 0.7071415 0.7071068 5.29483e-5 0.7071068 0.7071415 -8.67445e-6 0.7070721 0.7070894 8.72476e-6 0.7071243 0.7071591 8.70757e-6 0.7070546 0.707072 3.48277e-5 0.7071416 0.7071068 -7.00661e-5 0.7071068 0.7071591 -8.70757e-6 0.7070546 0.7068966 -7.00591e-5 0.7073169 0.7071765 -3.48294e-5 0.7070372 0.7071068 -6.96657e-5 0.7071068 0.7071762 0 0.7070374 0.7071774 -5.29642e-5 0.7070361 0.7070721 8.6736e-6 0.7071415 0.7070362 1.76512e-5 0.7071774 0.7071415 -4.3368e-6 0.7070721 0.7071068 -7.94383e-5 0.7071068 0.7071068 -4.33744e-6 0.7071068 0.7071068 9.70913e-5 0.7071068 0.7070721 6.07212e-5 0.7071415 0.7070362 7.05766e-5 0.7071774 0.707248 -1.23571e-4 0.7069656 0.7070027 -8.67445e-6 0.7072109 0.7071458 0 0.7070678 0.7071955 2.21664e-6 0.7070181 0.7071089 -3.79155e-6 0.7071046 0.7071157 3.32525e-6 0.707098 0.7070755 -5.45063e-6 0.7071381 0.7071416 -6.09485e-5 0.707072 0.7071068 1.23546e-4 0.7071068 0.7070721 8.67531e-6 0.7071415 0.7071774 1.76477e-5 0.7070362 0.7070027 -4.33765e-6 0.7072109 0.7071774 -7.94304e-5 0.7070362 0.7071068 -4.33659e-6 0.7071068 0.7071774 -6.17668e-5 0.7070362 0.7071068 4.31289e-6 0.7071068 0.7071068 -1.78526e-5 0.7071068 0.7070378 4.31289e-6 0.7071759 0.7071068 8.0353e-5 0.7071068 0.7071759 -4.31289e-5 0.7070378 0.7070354 -9.81994e-5 0.7071782 0.7071413 -1.72507e-5 0.7070723 0.7069639 0 0.7072497 0.7071413 4.31268e-5 0.7070723 0.7070678 0 0.7071458 0.7071245 2.21686e-6 0.7070891 0.707174 8.6655e-6 0.7070397 0.7071068 9.97561e-6 0.7071068 0.7070755 2.69146e-6 0.7071381 0.7070457 1.74665e-5 0.7071679 0.7071068 7.64076e-6 0.7071068 0.7071068 -8.7323e-6 0.7071068 0.707133 1.09147e-6 0.7070806 0.7070374 4.33744e-5 0.7071762 0.7071068 1.72499e-5 0.7071068 0.7071068 -4.31331e-5 0.7071068 0.7071068 -8.0353e-5 0.7071068 0.7071758 3.44964e-5 0.7070378 0.7069639 -3.57197e-5 0.7072497 0.7071068 8.62494e-6 0.7071068 0.7071411 -2.56856e-5 0.7070725 0.7071068 6.34713e-5 0.7071068 0.7070726 0 0.7071411 0.7071068 -8.18653e-6 0.7071068 0.7070544 9.82505e-6 0.7071592 0.7071679 -8.73133e-6 0.7070457 0.7071242 -8.73252e-6 0.7070893 0.7070719 1.09159e-6 0.7071418 0.706964 -1.78562e-5 0.7072497 0.7072103 4.31268e-6 0.7070033 0.7070378 -4.31289e-5 0.7071759 0.7071782 5.35633e-5 0.7070354 0.7071758 5.17446e-5 0.7070378 0.7070354 -1.51793e-4 0.7071782 0.7070378 -2.15687e-5 0.7071759 0.7071415 -1.08324e-5 0.7070721 0.7070362 -4.41192e-5 0.7071774 0.7070041 7.61887e-5 0.7072095 0.7071068 1.81347e-5 0.7071068 0.7069639 -8.03693e-5 0.7072497 0.7070896 1.0762e-5 0.707124 0.7070721 4.77142e-5 0.7071415 0.7071413 -5.17521e-5 0.7070723 0.7071068 1.51778e-4 0.7071068 0.7070723 2.15655e-5 0.7071413 0.7072497 -8.03368e-5 0.706964 0.7070723 3.45048e-5 0.7071413 0.7073209 -3.56944e-5 0.7068926 0.7071068 8.62662e-6 0.7071068 0.7071068 -2.56843e-5 0.7071068 0.7069617 6.34844e-5 0.7072519 0.7072095 0 0.7070041 0.7071941 -2.18291e-6 0.7070195 0.7070536 -2.21708e-6 0.70716 0.7070981 -2.16657e-6 0.7071154 0.7070895 1.51658e-5 0.7071242 0.7070713 1.10857e-5 0.7071423 0.7071068 -1.73327e-5 0.7071068 0.7070358 -1.33021e-5 0.7071778 0.7071242 1.51665e-5 0.7070895 0.7070362 6.17668e-5 0.7071774 0.7070845 -3.12498e-5 0.7071291 0.7072519 4.53274e-5 0.7069618 0.7071782 3.57016e-5 0.7070354 0.7070379 -1.72213e-5 0.7071757 0.7073244 -5.43984e-5 0.7068892 0.7070897 1.81434e-5 0.7071239 0.7070702 1.14368e-5 0.7071434 0.7071239 -1.49409e-5 0.7070897 0.706997 -1.37256e-5 0.7072166 0.7070983 1.06727e-6 0.7071154 0.7071434 -2.28713e-6 0.7070702 0.7070447 1.66277e-6 0.7071689 0.7069656 -4.41324e-5 0.707248 0.7072296 7.61581e-5 0.7069841 0.707321 -8.03449e-5 0.7068925 0.7071242 -2.18313e-6 0.7070893 0.7071068 -2.2168e-6 0.7071068 0.7070808 1.08336e-5 0.7071328 0.7071777 -4.43316e-6 0.7070358 0.7070375 -6.50042e-6 0.7071762 0.7071777 1.10829e-5 0.7070358 0.7071068 4.33319e-6 0.7071068 0.7070358 -1.77362e-5 0.7071778 0.7071415 -1.51654e-5 0.7070721 0.7073186 6.17668e-5 0.706895 0.7068701 -3.12506e-5 0.7073434 0.7071777 -6.64974e-6 0.7070358 0.7071155 5.45776e-6 0.7070981 0.7071398 -1.05098e-6 0.7070738 0.7071155 -1.09155e-6 0.7070981 0.7070741 4.09348e-6 0.7071395 0.707181 0 0.7070326 0.7071052 0 0.7071084 0.7071101 0 0.7071036 0.7070457 8.18744e-6 0.7071679 0.7070806 4.91222e-6 0.707133 0.7071679 -6.5485e-6 0.7070457 0.7071254 -1.25527e-5 0.7070883 0.7071793 4.53413e-5 0.7070342 0.7069639 3.57197e-5 0.7072497 0.7071412 1.07617e-5 0.7070723 0.7071068 -4.53367e-5 0.7071068 0.7070812 0 0.7071324 0.7071617 1.14359e-5 0.7070519 0.7070897 5.3363e-6 0.7071239 0.7070885 -6.86227e-6 0.7071251 0.7071281 -8.00411e-6 0.7070854 0.7070702 -2.28736e-6 0.7071434 0.70716 1.66254e-6 0.7070536 0.7071068 1.6626e-6 0.7071068 0.7071068 1.20069e-5 0.7071068 0.7071075 -1.05103e-6 0.7071061 0.7070719 -4.09347e-6 0.7071418 0.7071112 0 0.7071025 0.7071117 0 0.707102 0.7070719 0 0.7071418 0.707181 -8.18577e-6 0.7070326 0.7071155 -7.64086e-6 0.7070981 0.7071068 1.74646e-5 0.7071068 0.7071253 -5.45754e-6 0.7070882 0 0 1 4.09775e-7 0 1 1.11583e-6 0 1 2.98529e-7 0 1 -2.98534e-7 0 1 -1.32928e-6 0 1 7.13657e-7 0 1 -2.15793e-6 0 1 -8.09219e-7 0 1 1.19075e-6 0 1 2.15785e-6 0 1 -9.39583e-7 0 1 4.30911e-7 0 1 -7.77247e-7 0 1 4.86407e-7 0 1 1.4117e-7 0 1 -1.42733e-6 0 1 1.32928e-6 0 1 -3.13303e-7 0 1 -4.03917e-7 0 1 -4.3074e-7 0 1 3.66495e-7 0 1 -1.19075e-6 0 1 8.61451e-7 0 1 1.6983e-7 0 1 -9.72853e-7 0 1 7.77242e-7 0 1 -2.82338e-7 0 1 1.42733e-6 0 1 -3.13296e-7 0 1 -7.13684e-7 0 1 -4.8862e-7 0 1 8.61546e-7 0 1 -1.6983e-7 0 1 7.77208e-7 0 1 -4.86427e-7 0 1 9.72853e-7 0 1 -7.77236e-7 0 1 -4.3073e-7 0 1 1.95949e-6 0 1 -1.35957e-7 0 1 2.03186e-6 0 1 -1.04645e-6 0 1 1.3596e-7 0 1 2.09289e-6 0 1 -1.62609e-7 0 1 -2.09282e-6 0 1 0 0 1 -1.36161e-6 0 1 -1.96386e-6 0 1 3.7299e-7 0 1 1.96374e-6 0 1 2.4424e-7 0 1 -2.03186e-6 0 1 1.04644e-6 0 1 2.21774e-7 0 1 7.72585e-7 0 1 -2.85431e-7 0 1 0 0 1 1.98048e-6 0 1 -1.71451e-6 0 1 -1.03013e-6 0 1 6.19843e-7 0 1 -4.64865e-7 0 1 1.77113e-7 0 1 -7.72578e-7 0 1 2.85425e-7 0 1 1.62608e-7 0 1 -2.23203e-7 0 1 4.64828e-7 0 1 -2.21795e-7 0 1 -1.7712e-7 0 1 1.03006e-6 0 1 -6.19794e-7 0 1 1.93738e-6 0 -1 0 0 -1 -4.71787e-6 0 -1 4.32185e-6 0 -1 1.13216e-6 0 -1 -1.07848e-6 0 -1 3.8913e-7 0 -1 6.164e-7 0 -1 -4.26243e-6 0 -1 -6.25272e-7 0 -1 -7.30165e-7 0 -1 -9.43722e-7 0 -1 -1.02164e-6 0 -1 3.89076e-7 0 -1 1.9428e-6 0 -1 -1.21087e-6 0 -1 6.29605e-7 0 -1 1.07848e-6 0 -1 -9.90682e-7 0 -1 7.025e-7 0 -1 1.02164e-6 0 -1 -6.14673e-7 0 -1 1.94948e-7 0 -1 8.85927e-7 0 -1 6.14651e-7 0 -1 -1.27694e-7 0 -1 -1.34795e-7 0 -1 -5.10621e-6 0 -1 5.10287e-6 0 -1 2.21381e-7 0 -1 1.94944e-7 0 -1 -7.02595e-7 0 -1 0 -0.9990467 -0.04365682 0 -0.9990506 -0.04356795 0 -0.9914501 -0.1304862 0 -0.9914472 -0.1305084 0 -0.9762912 -0.2164611 0 -0.9763007 -0.216419 0 -0.9537276 -0.3006722 0 -0.9537113 -0.300724 0 -0.9238775 -0.3826887 0 -0.9238545 -0.3827441 0 -0.8870054 -0.4617592 0 -0.8870552 -0.4616634 0 -0.8433513 -0.5373626 0 -0.8433637 -0.5373432 0 -0.7933593 -0.6087537 0 -0.7933934 -0.6087094 0 -0.7372581 -0.6756112 0 -0.7371996 -0.6756751 0 -0.6756327 -0.7372384 0 -0.6755743 -0.737292 0 -0.625965 -0.7798512 0 -0.6259329 -0.7798769 0 -0.5912218 -0.8065091 0 -0.5912863 -0.8064618 0 -0.555657 -0.8314117 0 -0.555618 -0.8314378 0 -0.5187069 -0.8549522 0 -0.5188025 -0.8548942 0 -0.4809243 -0.8767622 0 -0.4809206 -0.8767642 0 -0.4423604 -0.8968374 0 -0.4422668 -0.8968836 0 -0.4027512 -0.9153095 0 -0.4027339 -0.9153172 0 -0.3624437 -0.9320058 0 -0.362385 -0.9320285 0 -0.3214341 -0.946932 0 -0.3214373 -0.946931 0 -0.2799127 -0.9600255 0 -0.1950898 -0.9807855 0 -0.2376678 -0.9713466 0 -0.2376294 -0.9713559 0 -0.2798837 -0.960034 0 -0.02180498 -0.9997622 0 -0.02180469 -0.9997622 0 -0.06541907 -0.9978579 0 -0.06542277 -0.9978576 0 -0.1088897 -0.9940539 0 -0.1089152 -0.994051 0 -0.1521149 -0.9883629 0 -0.1521142 -0.988363 0 -0.195034 -0.9807965 0 -1 -1.22702e-6 0 -1 -2.04671e-7 0 -0.02180415 0.9997624 -1.7556e-5 -0.06542366 0.9978576 1.74405e-5 -0.0218057 0.9997622 0 -0.06542819 0.9978573 0 -0.1088778 0.9940552 -1.72148e-5 -0.1521089 0.9883638 1.72124e-5 -0.1089002 0.9940527 0 -0.1521292 0.9883607 0 -0.1950494 0.9807935 -1.73255e-5 -0.2376445 0.9713522 1.73185e-5 -0.1950699 0.9807893 0 -0.2376327 0.9713551 0 -0.2799487 0.9600151 -1.73197e-5 -0.3214614 0.9469227 1.73076e-5 -0.2798864 0.9600332 0 -0.3214353 0.9469316 0 -0.3624739 0.931994 -1.71983e-5 -0.4027623 0.9153047 1.71878e-5 -0.3624321 0.9320102 0 -0.4027516 0.9153093 0 -0.4422326 0.8969004 -1.74136e-5 -0.4809522 0.8767468 1.74019e-5 -0.4423567 0.8968392 0 -0.4809381 0.8767546 0 -0.5189188 0.8548236 -1.71168e-5 -0.5554651 0.83154 1.73675e-5 -0.5912475 0.8064903 1.71028e-5 -0.5188344 0.8548748 0 -0.5555721 0.8314685 0 -0.5913142 0.8064413 -1.73833e-5 -0.6258912 0.7799105 0 -0.6259878 0.7798329 0 -0.675586 0.7372812 0 -0.6756363 0.7372352 0 -0.7372601 0.6756091 0 -0.7373102 0.6755543 0 -0.793391 0.6087123 0 -0.7933727 0.6087362 0 -0.8433725 0.5373294 0 -0.8433859 0.5373084 0 -0.8870393 0.461694 0 -0.8869531 0.4618597 0 -0.9238706 0.3827052 0 -0.9239061 0.3826193 0 -0.9537334 0.3006536 0 -0.9537321 0.3006578 0 -0.9762917 0.2164591 0 -0.9762778 0.216522 0 -0.9914454 0.1305226 0 -0.9914496 0.1304906 0 -0.9990471 0.04364699 0 -0.9990451 0.04369193 0.999048 -0.04362529 0 0.9990504 -0.04357087 0 0.9914513 -0.130477 0 0.9914433 -0.1305386 0 0.9762883 -0.2164745 0 0.976299 -0.2164262 0 0.9537179 -0.3007028 0 0.9537154 -0.300711 0 0.9238709 -0.3827043 0 0.923889 -0.3826608 0 0.8870085 -0.4617531 0 0.8870319 -0.4617083 0 0.843382 -0.5373145 0 0.8433778 -0.537321 0 0.7933548 -0.6087595 0 0.7372933 -0.6755729 0 0.7372867 -0.67558 0 0.6755748 -0.7372915 0 0.6755671 -0.7372985 0 0.6087595 -0.7933548 0 0.6087691 -0.7933474 0 0.5373145 -0.843382 0 0.5373044 -0.8433884 0 0.4617186 -0.8870266 0 0.461754 -0.8870081 0 0.3826811 -0.9238806 0 0.3826951 -0.9238747 0 0.3006964 -0.9537199 0 0.3006899 -0.953722 0 0.2164632 -0.9762908 0 0.2164564 -0.9762923 0 0.1305102 -0.991447 0 0.1305176 -0.991446 0 0.04363399 -0.9990476 0 0.04363059 -0.9990478 0 -0.04363399 -0.9990476 0 -0.04362815 -0.9990479 0 -0.1305249 -0.9914451 0 -0.1305102 -0.991447 0 -0.2164632 -0.9762908 0 -0.2164443 -0.976295 0 -0.3006964 -0.9537199 0 -0.3006899 -0.953722 0 -0.3827012 -0.9238722 0 -0.3826749 -0.923883 0 -0.4617419 -0.8870144 0 -0.461754 -0.8870081 0 -0.5372887 -0.8433985 0 -0.5373044 -0.8433884 0 -0.6087321 -0.793376 0 -0.6087691 -0.7933474 0 -0.6756032 -0.7372654 0 -0.675624 -0.7372465 0 -0.7372648 -0.6756039 0 -0.7372583 -0.675611 0 -0.7933548 -0.6087595 0 -0.843382 -0.5373145 0 -0.8434036 -0.5372804 0 -0.8870085 -0.4617531 0 -0.9238911 -0.3826557 0 -0.9238688 -0.3827094 0 -0.9537179 -0.3007028 0 -0.9537154 -0.300711 0 -0.9763004 -0.2164202 0 -0.976299 -0.2164262 0 -0.9914367 -0.1305891 0 -0.9914507 -0.1304825 0 -0.999048 -0.04362529 0 -0.9990479 -0.04362773 0 -0.999048 0.04362529 0 -0.999048 0.04362654 0 -0.9914509 0.1304807 0 -0.9914359 0.1305946 0 -0.9763011 0.2164172 0 -0.9762997 0.2164232 0 -0.9537154 0.300711 0 -0.9537141 0.3007151 0 -0.9238709 0.3827043 0 -0.923889 0.3826608 0 -0.8870085 0.4617531 0 -0.8434161 0.5372611 0 -0.843382 0.5373145 0 -0.7933496 0.6087664 0 -0.7933443 0.6087734 0 -0.7372648 0.6756039 0 -0.7372583 0.675611 0 -0.6756471 0.7372252 0 -0.6756032 0.7372654 0 -0.6087691 0.7933474 0 -0.6087141 0.7933897 0 -0.5373145 0.843382 0 -0.5372786 0.843405 0 -0.4617764 0.8869963 0 -0.4617475 0.8870114 0 -0.3826811 0.9238806 0 -0.3826951 0.9238747 0 -0.3006964 0.9537199 0 -0.3006899 0.953722 0 -0.2164308 0.976298 0 -0.2164394 0.9762961 0 -0.1305312 0.9914443 0 -0.130546 0.9914423 0 -0.04361033 0.9990487 0 -0.04361444 0.9990485 0 0.04361283 0.9990486 0 0.04361444 0.9990485 0 0.1305386 0.9914433 0 0.1305312 0.9914443 0 0.2164428 0.9762954 0 0.2164394 0.9762961 0 0.3006964 0.9537199 0 0.3006899 0.953722 0 0.3827012 0.9238722 0 0.3826749 0.923883 0 0.4617764 0.8869963 0 0.4617242 0.8870236 0 0.5373145 0.843382 0 0.5373044 0.8433884 0 0.6087691 0.7933474 0 0.6087416 0.7933686 0 0.6755903 0.7372772 0 0.6755748 0.7372915 0 0.7372933 0.6755729 0 0.7372867 0.67558 0 0.7933496 0.6087664 0 0.7933443 0.6087734 0 0.8433902 0.5373016 0 0.843382 0.5373145 0 0.8870319 0.4617083 0 0.8870085 0.4617531 0 0.9238911 0.3826557 0 0.9238688 0.3827094 0 0.9537154 0.300711 0 0.9537141 0.3007151 0 0.9763011 0.2164172 0 0.9762876 0.2164775 0 0.9914435 0.1305367 0 0.9914507 0.1304825 0 0.9990505 0.04356837 0 0.999048 0.04362654 0 0.9990455 -0.04368281 0 0.9990504 -0.04356896 0 0.9914438 -0.1305349 0 0.9763004 -0.2164202 0 0.9238911 -0.3826557 0 0.8870116 -0.4617473 0 0.8433562 -0.5373551 0 0.7933602 -0.6087527 0 0.7372997 -0.6755658 0 0.7372648 -0.6756039 0 0.6756032 -0.7372654 0 0.6087506 -0.7933618 0 0.4617129 -0.8870295 0 0.4617419 -0.8870144 0 0.3827012 -0.9238722 0 0.2164598 -0.9762916 0 0.2164511 -0.9762935 0 0.1305211 -0.9914456 0 0.1305137 -0.9914466 0 0.04363238 -0.9990477 0 -0.04363238 -0.9990477 0 -0.04362905 -0.9990479 0 -0.1305285 -0.9914447 0 -0.1305137 -0.9914466 0 -0.2164598 -0.9762916 0 -0.2164391 -0.9762961 0 -0.3826811 -0.9238806 0 -0.4617363 -0.8870173 0 -0.5373145 -0.843382 0 -0.6087781 -0.7933406 0 -0.6755748 -0.7372915 0 -0.6756317 -0.7372394 0 -0.7372997 -0.6755658 0 -0.7372364 -0.6756349 0 -0.7933602 -0.6087527 0 -0.8434079 -0.537274 0 -0.8869882 -0.4617921 0 -0.8870319 -0.4617083 0 -0.9238709 -0.3827043 0 -0.9537342 -0.300651 0 -0.9762883 -0.2164745 0 -0.9914511 -0.1304788 0 -0.9990479 -0.04362589 0 -0.9762889 0.2164715 0 -0.9537317 0.3006591 0 -0.9537167 0.3007069 0 -0.8870349 0.4617024 0 -0.8869851 0.461798 0 -0.8434119 0.5372675 0 -0.8433902 0.5373016 0 -0.7372429 0.6756278 0 -0.7372933 0.6755729 0 -0.6755826 0.7372843 0 -0.6087231 0.793383 0 -0.5372887 0.8433985 0 -0.4617587 0.8870056 0 -0.4617531 0.8870085 0 -0.3827012 0.9238722 0 -0.2164221 0.9763 0 -0.2164428 0.9762954 0 -0.1305477 0.9914421 0 -0.04361283 0.9990486 0 0.04361534 0.9990484 0 0.1305403 0.991443 0 0.2164341 0.9762972 0 0.3826811 0.9238806 0 0.4617587 0.8870056 0 0.4617298 0.8870207 0 0.6087506 0.7933618 0 0.675611 0.7372583 0 0.7372713 0.6755968 0 0.8433861 0.5373081 0 0.8433643 0.5373422 0 0.8870349 0.4617024 0 0.9238709 0.3827043 0 0.9537167 0.3007069 0 0.9762889 0.2164715 0 0.9990455 0.04368221 0 0 0.02180498 -0.9997622 0 0.02180469 -0.9997622 0 0.06541228 -0.9978584 0 0.06542277 -0.9978576 0 0.108901 -0.9940527 0 0.1088926 -0.9940536 0 0.1520991 -0.9883652 0 0.1521142 -0.988363 0 0.1950563 -0.9807921 0 0.1951097 -0.9807814 0 0.2376196 -0.9713583 0 0.2375812 -0.9713677 0 0.2799087 -0.9600267 0 0.2799687 -0.9600092 0 0.3214373 -0.946931 0 0.3213706 -0.9469536 0 0.3624555 -0.9320011 0 0.3625143 -0.9319783 0 0.4027723 -0.9153002 0 0.4027512 -0.9153095 0 0.4423497 -0.8968428 0 0.4422361 -0.8968988 0 0.4809205 -0.8767642 0 0.4808803 -0.8767864 0 0.5187561 -0.8549222 0 0.5187996 -0.854896 0 0.5556663 -0.8314055 0 0.5556087 -0.831444 0 0.5911866 -0.8065348 0 0.5913215 -0.806436 0 0.625944 -0.779868 0 0.6259139 -0.7798922 0 0.6756003 -0.7372681 0 0.6756588 -0.7372146 0 0.7372257 -0.6756466 0 0.7372843 -0.6755828 0 0.7933426 -0.6087755 0 0.7933593 -0.6087537 0 0.8434351 -0.5372312 0 0.8433753 -0.5373252 0 0.8869906 -0.4617876 0 0.8869622 -0.461842 0 0.9238731 -0.3826992 0 0.9239147 -0.3825986 0 0.9536962 -0.300772 0 0.9537579 -0.3005763 0 0.9762784 -0.2165196 0 0.9763025 -0.2164107 0 0.9914541 -0.1304564 0 0.9914433 -0.1305382 0 0.9990482 -0.04362076 0 0.9990454 -0.04368448 0 1 2.61979e-6 0 1 -9.20267e-7 0 0.02180665 0.9997623 0 0.1088778 0.9940552 0 0.1950494 0.9807935 0 0.3214703 0.9469197 0 0.3623961 0.9320243 0 0.4422782 0.8968779 0 0.555572 0.8314685 0 0.6259878 0.7798329 0 0.6755575 0.7373074 0 0.6756362 0.7372352 0 0.7372316 0.6756402 0 0.7373103 0.6755543 0 0.7933081 0.6088205 0 0.7933727 0.6087362 0 0.8434243 0.537248 0 0.8433859 0.5373084 0 0.8870393 0.4616941 0 0.8870232 0.461725 0 0.9238302 0.3828025 0 0.9239061 0.3826193 0 0.9537171 0.3007054 0 0.9537321 0.3006578 0 0.9763038 0.2164049 0 0.9763137 0.2163597 0 0.991438 0.1305784 0 0.9914422 0.1305463 0 0.999052 0.04353386 0 0.9990475 0.04363542 -1.73675e-5 0.5912476 0.8064902 1.73851e-5 0.6259565 0.7798579 0 0.5912286 0.8065042 -1.71588e-5 0.5188344 0.8548748 1.71776e-5 0.5556161 0.831439 0 0.5188552 0.8548622 1.7412e-5 0.4809094 0.8767704 -1.74037e-5 0.4424023 0.8968168 0 0.4808623 0.8767963 1.71981e-5 0.4027584 0.9153063 -1.71859e-5 0.3623933 0.9320253 0 0.4027787 0.9152975 -1.73076e-5 0.2798866 0.9600331 1.73203e-5 0.3214727 0.9469189 0 0.2799144 0.960025 1.73267e-5 0.2376618 0.9713479 -1.73185e-5 0.1950699 0.9807893 0 0.2376433 0.9713526 1.73281e-5 0.1521157 0.9883627 -1.72143e-5 0.1089127 0.9940513 0 0.1521034 0.9883646 1.7554e-5 0.06541615 0.9978582 -1.74385e-5 0.0218032 0.9997623 0 0.06542438 0.9978576 0 0.02180403 0.9997624 0 0.02181136 0.9997622 0 0.06541961 0.9978579 0 0.06540429 0.9978588 0 0.1090263 0.9940389 0 0.109022 0.9940394 0 0.1521056 0.9883643 0 0.1521607 0.9883558 0 0.1948802 0.9808271 0 0.1949875 0.9808058 0 0.2377658 0.9713225 0 0.2377464 0.9713273 0 0.2798039 0.9600571 0 0.2798907 0.9600319 0 0.3215711 0.9468855 0 0.3214734 0.9469187 0 0.362294 0.9320639 0 0.3622527 0.93208 0 0.4028132 0.9152823 0 0.4027639 0.915304 0 0.4423575 0.8968389 0 0.4424673 0.8967847 0 0.4809519 0.876747 0 0.4809759 0.876734 0 0.5187248 0.8549413 0 0.5186533 0.8549847 0 0.5557872 0.8313247 0 0.5556123 0.8314415 0 0.5913568 0.8064101 0 0.591274 0.8064708 0 0.625759 0.7800166 0 0.6259729 0.7798448 0 0.6756158 0.737254 0 0.6756452 0.737227 0 0.7372353 0.6756361 0 0.7373173 0.6755467 0 0.7933705 0.6087392 0 0.7933533 0.6087614 0 0.8433877 0.5373055 0 0.8433337 0.5373904 0 0.8870651 0.4616444 0 0.8870726 0.4616301 0 0.9238528 0.3827482 0 0.9238736 0.3826979 0 0.9537162 0.3007084 0 0.9536865 0.3008027 0 0.976294 0.2164489 0 0.9762837 0.2164952 0 0.9914273 0.1306601 0 0.9914698 0.1303366 0 0.999047 0.04364973 0 0.9990502 0.04357582 0 1 0 0 1 1.22702e-6 0 0.02180457 -0.9997622 0 0.1520614 -0.9883711 0 0.195208 -0.980762 0 0.3214645 -0.9469217 0 0.3625621 -0.9319597 0 0.4423547 -0.8968402 0 0.5555006 -0.8315162 0 0.6258684 -0.7799287 0 0.6755977 -0.7372705 0 0.6756227 -0.7372477 0 0.7371912 -0.6756842 0 0.7372162 -0.675657 0 0.7933619 -0.6087504 0 0.7933802 -0.6087264 0 0.8434188 -0.5372569 0 0.8434253 -0.5372464 0 0.8869727 -0.4618219 0 0.8870579 -0.4616585 0 0.9238522 -0.3827496 0 0.9239501 -0.3825129 0 0.9536936 -0.3007802 0 0.9536929 -0.3007822 0 0.9763172 -0.2163441 0 0.9763281 -0.2162946 0 0.9914214 -0.1307042 0 0.9914492 -0.1304932 0 0.9990485 -0.04361581 0 0.99905 -0.04358178 8.45766e-6 0.5914369 -0.8063514 -8.45941e-6 0.625686 -0.780075 0 0.591365 -0.8064041 8.90634e-6 0.5186143 -0.8550083 -8.85435e-6 0.5556542 -0.8314136 0 0.5186883 -0.8549635 -8.57926e-6 0.4810542 -0.8766909 8.57888e-6 0.4425747 -0.8967317 0 0.4810227 -0.8767083 -8.58278e-6 0.4025424 -0.9154015 8.57964e-6 0.36258 -0.9319528 0 0.4024854 -0.9154265 8.69344e-6 0.2798094 -0.9600557 -8.69607e-6 0.3216046 -0.9468741 0 0.279815 -0.960054 -8.47192e-6 0.2374516 -0.9713994 8.5892e-6 0.1953276 -0.9807381 0 0.2374346 -0.9714036 8.69546e-6 0.1087519 -0.9940689 -8.69749e-6 0.1521148 -0.9883629 0 0.1087532 -0.9940688 -8.69665e-6 0.0654087 -0.9978587 8.69732e-6 0.02180534 -0.9997622 0 0.06543713 -0.9978567 2.1577e-6 0 -1 -6.6483e-7 0 -1 -1.38192e-7 0 -1 -1.31707e-6 0 -1 -5.19556e-6 0 -1 1.53435e-7 0 -1 2.26072e-6 0 -1 -1.51206e-6 0 -1 1.27173e-7 0 -1 1.41291e-7 0 -1 -1.5521e-7 0 -1 -1.46722e-6 0 -1 9.63971e-7 0 -1 2.13204e-7 0 -1 -6.76617e-7 0 -1 1.10553e-6 0 -1 -1.47891e-7 0 -1 -1.24171e-6 0 -1 -1.76788e-7 0 -1 -4.19685e-7 0 -1 6.73201e-7 0 -1 -8.85132e-7 0 -1 2.78025e-6 0 -1 -2.78025e-6 0 -1 1.33138e-6 0 -1 -1.93666e-6 0 -1 1.18014e-6 0 -1 -6.73201e-7 0 -1 -4.82015e-7 0 -1 -1.76782e-7 0 -1 -4.81986e-7 0 -1 -9.68572e-7 0 -1 8.47664e-7 0 -1 -1.68294e-7 0 -1 -1.92528e-7 0 -1 0 -0.5555006 -0.8315162 0 -0.4810925 -0.8766699 0 -0.4025599 -0.9153937 0 -0.3216034 -0.9468744 0 -0.2375426 -0.9713772 0 -0.1521301 -0.9883605 0 -0.06542587 -0.9978575 -8.69931e-6 -0.02181029 -0.9997621 8.69665e-6 -0.0654087 -0.9978587 0 -0.02180308 -0.9997623 -8.69546e-6 -0.1087519 -0.9940689 8.69945e-6 -0.1521492 -0.9883576 0 -0.1087955 -0.9940642 -8.47007e-6 -0.1951526 -0.980773 8.58911e-6 -0.2376097 -0.9713607 0 -0.1951071 -0.980782 -8.69344e-6 -0.2798094 -0.9600557 8.69607e-6 -0.3216046 -0.9468741 0 -0.2797453 -0.9600743 -8.57781e-6 -0.3625028 -0.9319828 8.58457e-6 -0.4026265 -0.9153645 0 -0.3624794 -0.9319918 -8.57537e-6 -0.4423937 -0.8968209 8.57754e-6 -0.4809579 -0.8767437 0 -0.4423103 -0.8968622 -8.79672e-6 -0.5187156 -0.8549469 8.74298e-6 -0.5556541 -0.8314136 0 -0.5187327 -0.8549365 -8.45766e-6 -0.5914369 -0.8063514 8.46242e-6 -0.6259085 -0.7798965 0 -0.5913223 -0.8064354 0 -0.6256461 -0.7801071 0 -0.6756545 -0.7372184 0 -0.6755092 -0.7373516 0 -0.7373047 -0.6755604 0 -0.7373297 -0.6755332 0 -0.7934168 -0.6086787 0 -0.7932703 -0.6088696 0 -0.8434187 -0.5372569 0 -0.8433738 -0.5373272 0 -0.8870193 -0.4617325 0 -0.8870579 -0.4616584 0 -0.9238923 -0.3826526 0 -0.92387 -0.3827068 0 -0.9537261 -0.300677 0 -0.9537254 -0.300679 0 -0.9762933 -0.2164523 0 -0.9762564 -0.2166187 0 -0.9914362 -0.1305928 0 -0.991464 -0.1303819 0 -0.9990485 -0.04361581 0 -0.999045 -0.04369479 0 -1 0 0 -0.6256644 0.7800924 0 -0.6756158 0.737254 0 -0.6755402 0.7373232 0 -0.7371304 0.6757506 0 -0.7373698 0.6754893 0 -0.7934723 0.6086065 0 -0.7933025 0.6088278 0 -0.8433878 0.5373055 0 -0.8434295 0.5372401 0 -0.8869786 0.4618105 0 -0.8870294 0.4617131 0 -0.9238901 0.3826581 0 -0.9239484 0.3825174 0 -0.9536555 0.3009007 0 -0.9537774 0.300514 0 -0.9763388 0.2162472 0 -0.9763062 0.2163943 0 -0.9913998 0.1308682 0 -0.9914699 0.1303366 0 -0.999047 0.04364973 0 -0.9990456 0.04368162 0 -0.6259567 0.7798579 0 -0.591475 0.8063234 0 -0.5915576 0.8062628 0 -0.5555151 0.8315066 0 -0.5557872 0.8313247 0 -0.5185599 0.8550414 0 -0.5184448 0.8551111 0 -0.4811535 0.8766365 0 -0.481218 0.876601 0 -0.4423838 0.8968259 0 -0.442441 0.8967977 0 -0.4027639 0.915304 0 -0.4026581 0.9153504 0 -0.3624657 0.9319971 0 -0.362223 0.9320915 0 -0.3215374 0.9468969 0 -0.3216993 0.946842 0 -0.2798342 0.9600484 0 -0.2797474 0.9600737 0 -0.2376979 0.9713391 0 -0.2378144 0.9713106 0 -0.1950277 0.9807978 0 -0.109022 0.9940394 0 -0.1521373 0.9883595 0 -0.1520658 0.9883704 0 -0.1949529 0.9808127 0 -0.02181154 0.9997622 0 -0.02180218 0.9997623 0 -0.06541961 0.9978579 0 -0.065418 0.997858 0 -0.1090214 0.9940395</float_array>
          <technique_common>
            <accessor source="#chassis_default_as_machined__26-mesh-normals-array" count="1165" stride="3">
              <param name="X" type="float"/>
              <param name="Y" type="float"/>
              <param name="Z" type="float"/>
            </accessor>
          </technique_common>
        </source>
        <vertices id="chassis_default_as_machined__26-mesh-vertices">
          <input semantic="POSITION" source="#chassis_default_as_machined__26-mesh-positions"/>
        </vertices>
        <triangles count="1448">
          <input semantic="VERTEX" source="#chassis_default_as_machined__26-mesh-vertices" offset="0"/>
          <input semantic="NORMAL" source="#chassis_default_as_machined__26-mesh-normals" offset="1"/>
          <p>0 0 1 0 2 0 2 1 1 1 3 1 1 2 4 2 3 2 3 3 4 3 5 3 4 4 6 4 5 4 5 5 6 5 7 5 6 6 8 6 7 6 7 7 8 7 9 7 2 8 10 8 0 8 10 9 11 9 0 9 0 6 11 6 12 6 11 10 13 10 12 10 12 0 13 0 14 0 9 11 8 11 15 11 8 12 16 12 15 12 15 11 16 11 17 11 16 13 18 13 17 13 17 14 18 14 19 14 13 15 20 15 14 15 20 16 21 16 14 16 14 17 21 17 22 17 21 18 23 18 22 18 22 19 23 19 24 19 25 20 26 20 27 20 19 21 18 21 28 21 18 22 29 22 28 22 28 23 29 23 30 23 29 24 31 24 30 24 30 25 31 25 32 25 33 26 34 26 35 26 34 27 36 27 35 27 35 28 36 28 37 28 25 26 27 26 38 26 27 29 39 29 38 29 38 30 39 30 40 30 39 31 41 31 40 31 40 32 41 32 42 32 41 33 43 33 42 33 42 0 43 0 33 0 43 29 44 29 33 29 33 34 44 34 34 34 26 35 25 35 45 35 25 36 46 36 45 36 45 37 46 37 47 37 46 38 48 38 47 38 47 39 48 39 49 39 23 40 50 40 24 40 50 17 51 17 24 17 24 17 51 17 52 17 51 41 53 41 52 41 52 42 53 42 54 42 53 41 55 41 54 41 54 43 55 43 56 43 55 44 57 44 56 44 56 45 57 45 58 45 36 46 59 46 37 46 59 47 60 47 37 47 37 13 60 13 61 13 60 48 62 48 61 48 61 49 62 49 63 49 49 50 48 50 64 50 48 51 65 51 64 51 64 44 65 44 66 44 65 52 67 52 66 52 66 53 67 53 68 53 32 54 31 54 69 54 31 55 70 55 69 55 69 56 70 56 71 56 70 57 72 57 71 57 71 58 72 58 73 58 72 59 74 59 73 59 73 60 74 60 75 60 74 61 76 61 75 61 75 62 76 62 77 62 77 63 76 63 78 63 76 64 79 64 78 64 78 65 79 65 80 65 81 66 82 66 83 66 82 67 84 67 83 67 83 68 84 68 85 68 84 69 86 69 85 69 85 70 86 70 87 70 88 71 89 71 90 71 89 72 91 72 90 72 90 73 91 73 92 73 91 74 93 74 92 74 92 75 93 75 94 75 95 76 96 76 97 76 96 77 98 77 97 77 97 78 98 78 99 78 98 79 100 79 99 79 99 80 100 80 101 80 57 81 102 81 58 81 102 82 103 82 58 82 58 83 103 83 104 83 103 84 105 84 104 84 104 85 105 85 106 85 105 86 107 86 106 86 106 87 107 87 108 87 107 60 109 60 108 60 62 88 110 88 63 88 110 17 111 17 63 17 63 89 111 89 112 89 111 90 113 90 112 90 112 91 113 91 114 91 113 92 115 92 114 92 114 17 115 17 116 17 115 93 117 93 116 93 116 94 117 94 118 94 79 95 119 95 80 95 119 96 120 96 80 96 80 97 120 97 121 97 122 98 123 98 124 98 123 99 125 99 124 99 124 79 125 79 126 79 125 100 127 100 126 100 126 101 127 101 128 101 68 17 67 17 129 17 67 102 130 102 129 102 129 103 130 103 131 103 130 17 132 17 131 17 131 104 132 104 133 104 132 105 134 105 133 105 133 56 134 56 135 56 134 106 136 106 135 106 135 107 136 107 137 107 138 108 139 108 109 108 139 109 140 109 109 109 109 110 140 110 108 110 137 111 136 111 141 111 136 112 142 112 141 112 141 113 142 113 143 113 100 114 144 114 101 114 144 115 145 115 101 115 101 116 145 116 146 116 145 117 147 117 146 117 146 118 147 118 148 118 147 119 149 119 148 119 148 120 149 120 150 120 149 121 151 121 150 121 150 122 151 122 138 122 151 123 152 123 138 123 138 124 152 124 139 124 120 125 153 125 121 125 153 126 154 126 121 126 121 127 154 127 155 127 154 128 156 128 155 128 155 129 156 129 157 129 156 130 158 130 157 130 157 131 158 131 159 131 158 132 160 132 159 132 159 133 160 133 81 133 160 134 161 134 81 134 81 135 161 135 82 135 117 136 162 136 118 136 162 137 163 137 118 137 118 138 163 138 164 138 163 139 165 139 164 139 164 106 165 106 166 106 165 60 167 60 166 60 166 140 167 140 168 140 167 139 169 139 168 139 142 95 170 95 143 95 170 141 171 141 143 141 143 142 171 142 172 142 173 143 174 143 169 143 174 144 175 144 169 144 169 145 175 145 168 145 171 146 176 146 172 146 176 61 177 61 172 61 172 147 177 147 178 147 177 148 179 148 178 148 178 149 179 149 180 149 179 150 181 150 180 150 180 151 181 151 182 151 181 152 183 152 182 152 182 153 183 153 88 153 183 154 184 154 88 154 88 155 184 155 89 155 93 156 185 156 94 156 185 157 186 157 94 157 94 158 186 158 187 158 186 159 188 159 187 159 187 160 188 160 189 160 188 161 190 161 189 161 189 162 190 162 191 162 190 163 192 163 191 163 191 164 192 164 193 164 192 165 194 165 193 165 193 166 194 166 95 166 194 167 195 167 95 167 95 168 195 168 96 168 86 169 196 169 87 169 196 170 197 170 87 170 87 171 197 171 198 171 197 172 199 172 198 172 198 173 199 173 200 173 199 174 201 174 200 174 200 17 201 17 202 17 201 175 203 175 202 175 202 176 203 176 204 176 203 177 205 177 204 177 204 170 205 170 122 170 205 79 206 79 122 79 122 178 206 178 123 178 127 179 207 179 128 179 207 180 208 180 128 180 128 120 208 120 209 120 208 17 210 17 209 17 209 181 210 181 211 181 210 182 212 182 211 182 211 183 212 183 213 183 212 184 214 184 213 184 213 17 214 17 173 17 214 17 215 17 173 17 173 185 215 185 174 185 216 186 217 186 218 186 218 187 217 187 219 187 217 188 220 188 219 188 219 189 220 189 221 189 221 190 220 190 222 190 220 191 223 191 222 191 222 192 223 192 224 192 223 193 225 193 224 193 224 194 225 194 226 194 225 195 227 195 226 195 226 196 227 196 228 196 227 197 229 197 228 197 228 198 229 198 230 198 218 199 231 199 216 199 231 200 232 200 216 200 216 201 232 201 233 201 232 202 234 202 233 202 233 203 234 203 235 203 230 204 229 204 236 204 229 205 237 205 236 205 236 206 237 206 238 206 237 207 239 207 238 207 238 208 239 208 240 208 241 197 242 197 243 197 242 209 244 209 243 209 243 210 244 210 245 210 246 211 247 211 248 211 246 190 248 190 249 190 248 212 250 212 249 212 249 213 250 213 251 213 250 214 252 214 251 214 251 215 252 215 253 215 252 215 254 215 253 215 253 216 254 216 241 216 254 217 255 217 241 217 241 218 255 218 242 218 240 219 239 219 256 219 239 220 257 220 256 220 256 221 257 221 258 221 257 222 259 222 258 222 258 223 259 223 260 223 244 224 261 224 245 224 261 225 262 225 245 225 245 207 262 207 263 207 262 226 264 226 263 226 263 227 264 227 265 227 247 228 246 228 266 228 246 229 267 229 266 229 266 228 267 228 268 228 267 207 269 207 268 207 268 230 269 230 270 230 234 231 271 231 235 231 271 232 272 232 235 232 235 233 272 233 273 233 272 234 274 234 273 234 273 235 274 235 275 235 274 236 276 236 275 236 275 237 276 237 277 237 276 238 278 238 277 238 277 239 278 239 279 239 270 240 269 240 280 240 269 241 281 241 280 241 280 232 281 232 282 232 281 242 283 242 282 242 282 243 283 243 284 243 285 244 286 244 287 244 286 245 288 245 287 245 287 246 288 246 289 246 288 247 290 247 289 247 289 248 290 248 291 248 264 249 292 249 265 249 292 207 293 207 265 207 265 250 293 250 294 250 293 251 295 251 294 251 294 252 295 252 296 252 295 253 297 253 296 253 296 254 297 254 298 254 297 255 299 255 298 255 298 256 299 256 300 256 260 257 259 257 301 257 259 258 302 258 301 258 301 259 302 259 303 259 302 260 304 260 303 260 303 261 304 261 305 261 304 262 306 262 305 262 305 263 306 263 307 263 306 264 308 264 307 264 307 265 308 265 309 265 310 266 311 266 312 266 311 267 313 267 312 267 312 268 313 268 314 268 313 269 315 269 314 269 314 270 315 270 316 270 317 207 318 207 319 207 318 271 320 271 319 271 319 272 320 272 321 272 320 273 322 273 321 273 321 274 322 274 323 274 278 275 324 275 279 275 324 276 325 276 279 276 279 207 325 207 326 207 325 277 327 277 326 277 326 278 327 278 328 278 327 279 329 279 328 279 328 280 329 280 330 280 329 281 331 281 330 281 309 282 308 282 332 282 308 283 333 283 332 283 332 284 333 284 334 284 335 285 336 285 337 285 336 286 338 286 337 286 337 287 338 287 339 287 338 288 340 288 339 288 339 289 340 289 341 289 284 257 283 257 342 257 283 290 343 290 342 290 342 291 343 291 344 291 343 260 345 260 344 260 344 292 345 292 346 292 345 293 347 293 346 293 346 294 347 294 348 294 347 295 349 295 348 295 348 296 349 296 350 296 351 297 352 297 331 297 352 298 353 298 331 298 331 299 353 299 330 299 333 300 354 300 334 300 354 301 355 301 334 301 334 302 355 302 356 302 299 303 357 303 300 303 357 304 358 304 300 304 300 305 358 305 359 305 358 306 360 306 359 306 359 307 360 307 361 307 360 308 362 308 361 308 361 309 362 309 363 309 362 310 364 310 363 310 350 311 349 311 365 311 349 312 366 312 365 312 365 313 366 313 367 313 322 314 368 314 323 314 368 315 369 315 323 315 323 316 369 316 370 316 369 267 371 267 370 267 370 317 371 317 372 317 371 318 373 318 372 318 372 319 373 319 374 319 373 320 375 320 374 320 374 321 375 321 351 321 375 322 376 322 351 322 351 323 376 323 352 323 355 324 377 324 356 324 377 325 378 325 356 325 356 326 378 326 379 326 378 327 380 327 379 327 379 328 380 328 381 328 380 329 382 329 381 329 381 330 382 330 383 330 382 331 384 331 383 331 383 332 384 332 285 332 384 333 385 333 285 333 285 334 385 334 286 334 386 297 387 297 364 297 387 335 388 335 364 335 364 336 388 336 363 336 366 300 389 300 367 300 389 337 390 337 367 337 367 302 390 302 391 302 340 338 392 338 341 338 392 339 393 339 341 339 341 340 393 340 394 340 393 341 395 341 394 341 394 342 395 342 396 342 395 343 397 343 396 343 396 344 397 344 398 344 397 345 399 345 398 345 398 346 399 346 386 346 399 347 400 347 386 347 386 348 400 348 387 348 290 349 401 349 291 349 401 350 402 350 291 350 291 351 402 351 403 351 402 352 404 352 403 352 403 353 404 353 405 353 404 354 406 354 405 354 405 355 406 355 407 355 406 356 408 356 407 356 407 207 408 207 409 207 408 357 410 357 409 357 409 358 410 358 335 358 410 359 411 359 335 359 335 360 411 360 336 360 390 361 412 361 391 361 412 362 413 362 391 362 391 363 413 363 414 363 413 364 415 364 414 364 414 365 415 365 416 365 415 366 417 366 416 366 416 367 417 367 418 367 417 368 419 368 418 368 418 369 419 369 310 369 419 370 420 370 310 370 310 371 420 371 311 371 315 372 421 372 316 372 421 373 422 373 316 373 316 374 422 374 423 374 422 352 424 352 423 352 423 375 424 375 425 375 424 376 426 376 425 376 425 207 426 207 427 207 426 377 428 377 427 377 427 378 428 378 429 378 428 379 430 379 429 379 429 380 430 380 317 380 430 381 431 381 317 381 317 382 431 382 318 382 432 383 433 383 254 383 434 383 435 383 252 383 435 383 436 383 252 383 436 383 437 383 252 383 252 384 437 384 438 384 433 385 439 385 254 385 439 383 440 383 254 383 254 386 440 386 441 386 2 387 442 387 443 387 444 383 445 383 3 383 443 383 446 383 2 383 446 388 447 388 2 388 2 389 447 389 448 389 438 390 449 390 252 390 449 383 450 383 252 383 252 383 450 383 254 383 450 383 451 383 254 383 254 391 451 391 432 391 452 392 453 392 2 392 444 383 3 383 454 383 455 393 2 393 456 393 2 394 457 394 456 394 455 383 458 383 2 383 458 383 459 383 2 383 2 395 459 395 442 395 448 396 460 396 2 396 460 383 461 383 2 383 2 397 461 397 462 397 252 398 463 398 464 398 465 399 466 399 252 399 466 400 467 400 252 400 252 401 467 401 434 401 468 383 469 383 254 383 445 383 470 383 3 383 470 383 471 383 3 383 3 383 471 383 2 383 471 383 472 383 2 383 2 402 472 402 457 402 462 383 473 383 2 383 473 383 474 383 2 383 2 403 474 403 452 403 453 383 475 383 2 383 475 383 476 383 2 383 2 383 476 383 252 383 476 383 477 383 252 383 252 404 477 404 478 404 478 405 479 405 252 405 479 406 480 406 252 406 252 407 480 407 463 407 464 408 481 408 252 408 481 383 482 383 252 383 252 409 482 409 465 409 3 410 483 410 484 410 485 411 486 411 3 411 486 383 487 383 3 383 3 412 487 412 454 412 441 383 488 383 254 383 488 383 489 383 254 383 254 413 489 413 490 413 469 383 491 383 254 383 491 383 492 383 254 383 254 383 492 383 3 383 492 383 493 383 3 383 3 414 493 414 494 414 494 383 495 383 3 383 495 415 496 415 3 415 3 416 496 416 483 416 490 417 497 417 254 417 497 383 498 383 254 383 254 418 498 418 499 418 484 419 500 419 3 419 500 383 501 383 3 383 3 420 501 420 485 420 499 383 502 383 254 383 502 383 503 383 254 383 254 421 503 421 468 421 504 422 505 422 225 422 40 423 506 423 507 423 508 424 509 424 225 424 509 425 510 425 225 425 225 426 510 426 511 426 512 427 513 427 42 427 507 383 514 383 40 383 514 383 515 383 40 383 40 428 515 428 516 428 517 383 518 383 223 383 518 429 519 429 223 429 519 424 520 424 223 424 223 430 520 430 225 430 520 383 521 383 225 383 225 431 521 431 504 431 505 383 522 383 225 383 522 432 523 432 225 432 225 433 523 433 508 433 524 383 525 383 40 383 512 383 42 383 526 383 527 434 40 434 528 434 40 435 529 435 528 435 527 383 530 383 40 383 530 436 531 436 40 436 40 437 531 437 506 437 516 383 532 383 40 383 532 383 533 383 40 383 40 438 533 438 534 438 223 439 535 439 536 439 537 383 538 383 223 383 538 383 539 383 223 383 223 440 539 440 517 440 540 383 541 383 225 383 513 436 542 436 42 436 542 383 543 383 42 383 42 441 543 441 40 441 543 442 544 442 40 442 40 443 544 443 529 443 534 444 545 444 40 444 545 445 546 445 40 445 40 383 546 383 524 383 525 383 547 383 40 383 547 383 548 383 40 383 40 383 548 383 223 383 548 383 549 383 223 383 223 383 549 383 550 383 550 383 551 383 223 383 551 383 552 383 223 383 223 446 552 446 535 446 536 383 553 383 223 383 553 383 554 383 223 383 223 447 554 447 537 447 42 448 555 448 556 448 557 383 558 383 42 383 558 383 559 383 42 383 42 449 559 449 526 449 511 383 560 383 225 383 560 383 561 383 225 383 225 450 561 450 562 450 541 383 563 383 225 383 563 383 564 383 225 383 225 383 564 383 42 383 564 383 565 383 42 383 42 451 565 451 566 451 566 383 567 383 42 383 567 383 568 383 42 383 42 452 568 452 555 452 562 383 569 383 225 383 569 383 570 383 225 383 225 453 570 453 571 453 556 383 572 383 42 383 572 383 573 383 42 383 42 454 573 454 557 454 571 455 574 455 225 455 574 456 575 456 225 456 225 383 575 383 540 383 576 457 577 457 41 457 578 458 579 458 224 458 41 458 577 458 43 458 580 458 581 458 41 458 581 458 582 458 41 458 41 458 582 458 583 458 224 458 579 458 222 458 579 459 584 459 222 459 222 460 584 460 585 460 586 458 587 458 222 458 583 461 588 461 41 461 588 462 589 462 41 462 41 463 589 463 590 463 577 458 591 458 43 458 591 458 592 458 43 458 43 464 592 464 593 464 585 465 594 465 222 465 594 458 595 458 222 458 222 466 595 466 596 466 590 458 597 458 41 458 597 458 598 458 41 458 41 467 598 467 576 467 593 458 599 458 43 458 599 458 600 458 43 458 43 468 600 468 601 468 602 469 603 469 41 469 603 458 604 458 41 458 41 470 604 470 580 470 596 458 605 458 222 458 605 471 606 471 222 471 222 472 606 472 607 472 607 458 608 458 222 458 608 458 609 458 222 458 222 473 609 473 610 473 611 458 222 458 612 458 222 458 613 458 612 458 610 458 614 458 222 458 614 474 615 474 222 474 222 475 615 475 613 475 611 476 616 476 222 476 616 458 617 458 222 458 222 458 617 458 618 458 618 477 619 477 222 477 619 478 620 478 222 478 222 479 620 479 586 479 587 458 621 458 222 458 621 458 622 458 222 458 222 458 622 458 41 458 622 458 623 458 41 458 41 480 623 480 624 480 624 458 625 458 41 458 625 458 626 458 41 458 41 481 626 481 602 481 601 458 627 458 43 458 627 458 628 458 43 458 43 458 628 458 629 458 43 482 630 482 631 482 631 458 632 458 43 458 632 458 633 458 43 458 43 483 633 483 634 483 635 484 224 484 636 484 224 458 43 458 636 458 636 485 43 485 637 485 43 486 634 486 637 486 635 458 638 458 224 458 638 458 639 458 224 458 224 487 639 487 640 487 640 458 641 458 224 458 641 458 642 458 224 458 224 458 642 458 643 458 643 458 644 458 224 458 644 458 645 458 224 458 224 458 645 458 578 458 629 488 646 488 43 488 646 458 647 458 43 458 43 458 647 458 630 458 405 489 202 489 204 489 405 490 204 490 403 490 204 491 122 491 403 491 403 492 122 492 291 492 122 493 124 493 291 493 291 494 124 494 289 494 124 495 126 495 289 495 289 496 126 496 287 496 126 497 128 497 287 497 287 498 128 498 285 498 128 499 209 499 285 499 285 500 209 500 383 500 209 501 211 501 383 501 383 502 211 502 381 502 211 503 213 503 381 503 381 504 213 504 379 504 213 505 173 505 379 505 379 506 173 506 356 506 173 507 169 507 356 507 356 508 169 508 334 508 334 509 169 509 332 509 169 510 167 510 332 510 332 511 167 511 309 511 167 512 165 512 309 512 309 513 165 513 307 513 165 514 163 514 307 514 307 515 163 515 305 515 163 516 162 516 305 516 305 517 162 517 303 517 162 518 117 518 303 518 303 519 117 519 301 519 117 520 115 520 301 520 115 521 113 521 301 521 301 522 113 522 260 522 113 523 111 523 260 523 260 524 111 524 258 524 258 525 111 525 256 525 111 526 110 526 256 526 256 527 110 527 240 527 59 528 238 528 60 528 238 529 240 529 60 529 60 530 240 530 62 530 240 531 110 531 62 531 43 532 224 532 44 532 224 533 226 533 44 533 44 534 226 534 34 534 226 535 228 535 34 535 34 536 228 536 36 536 228 537 230 537 36 537 36 538 230 538 59 538 230 539 236 539 59 539 59 540 236 540 238 540 405 541 407 541 202 541 407 542 200 542 202 542 255 543 254 543 3 543 255 544 3 544 242 544 3 545 5 545 242 545 5 546 7 546 242 546 242 547 7 547 244 547 7 548 261 548 244 548 7 549 9 549 261 549 9 550 15 550 261 550 261 551 15 551 262 551 15 552 264 552 262 552 15 553 17 553 264 553 17 554 19 554 264 554 264 555 19 555 292 555 19 556 293 556 292 556 19 557 28 557 293 557 28 558 30 558 293 558 293 559 30 559 295 559 30 560 297 560 295 560 30 561 32 561 297 561 32 562 69 562 297 562 297 563 69 563 299 563 69 564 357 564 299 564 69 565 71 565 357 565 71 566 73 566 357 566 357 567 73 567 358 567 73 568 360 568 358 568 77 569 78 569 364 569 73 570 75 570 360 570 75 571 77 571 360 571 360 572 77 572 362 572 77 573 364 573 362 573 78 574 80 574 364 574 80 575 121 575 364 575 364 576 121 576 386 576 121 577 155 577 386 577 386 578 155 578 398 578 155 579 157 579 398 579 398 580 157 580 396 580 157 581 159 581 396 581 396 582 159 582 394 582 159 583 81 583 394 583 394 584 81 584 341 584 81 585 83 585 341 585 341 586 83 586 339 586 83 587 85 587 339 587 339 588 85 588 337 588 85 589 87 589 337 589 337 590 87 590 335 590 87 591 198 591 335 591 335 592 198 592 409 592 198 593 200 593 409 593 409 594 200 594 407 594 529 595 577 595 528 595 577 596 576 596 528 596 528 597 576 597 527 597 576 598 598 598 527 598 527 599 598 599 530 599 598 600 597 600 530 600 530 601 597 601 531 601 597 602 590 602 531 602 531 603 590 603 506 603 590 604 589 604 506 604 506 605 589 605 507 605 589 606 588 606 507 606 507 607 588 607 514 607 588 608 583 608 514 608 514 609 583 609 515 609 583 609 582 609 515 609 515 610 582 610 516 610 582 611 581 611 516 611 516 612 581 612 532 612 581 613 580 613 532 613 532 614 580 614 533 614 580 615 604 615 533 615 533 616 604 616 534 616 604 617 603 617 534 617 534 618 603 618 545 618 603 619 602 619 545 619 545 620 602 620 546 620 602 621 626 621 546 621 546 622 626 622 524 622 626 623 625 623 524 623 524 624 625 624 525 624 625 625 624 625 525 625 525 626 624 626 547 626 624 627 623 627 547 627 547 628 623 628 548 628 623 629 622 629 548 629 548 630 622 630 549 630 622 631 621 631 549 631 549 632 621 632 550 632 621 633 587 633 550 633 550 634 587 634 551 634 587 635 586 635 551 635 551 636 586 636 552 636 586 637 620 637 552 637 552 638 620 638 535 638 620 639 619 639 535 639 535 640 619 640 536 640 619 641 618 641 536 641 536 642 618 642 553 642 618 643 617 643 553 643 553 644 617 644 554 644 617 645 616 645 554 645 554 646 616 646 537 646 616 647 611 647 537 647 537 648 611 648 538 648 611 649 612 649 538 649 538 650 612 650 539 650 612 650 613 650 539 650 539 651 613 651 517 651 613 652 615 652 517 652 517 653 615 653 518 653 615 653 614 653 518 653 518 654 614 654 519 654 614 655 610 655 519 655 519 656 610 656 520 656 610 657 609 657 520 657 520 658 609 658 521 658 609 659 608 659 521 659 521 660 608 660 504 660 608 661 607 661 504 661 504 662 607 662 505 662 607 663 606 663 505 663 505 664 606 664 522 664 606 665 605 665 522 665 522 666 605 666 523 666 605 667 596 667 523 667 523 668 596 668 508 668 596 669 595 669 508 669 508 670 595 670 509 670 595 671 594 671 509 671 509 672 594 672 510 672 594 673 585 673 510 673 510 674 585 674 511 674 585 674 584 674 511 674 511 675 584 675 560 675 584 676 579 676 560 676 560 677 579 677 561 677 579 678 578 678 561 678 561 679 578 679 562 679 578 680 645 680 562 680 562 681 645 681 569 681 645 682 644 682 569 682 569 683 644 683 570 683 644 684 643 684 570 684 570 685 643 685 571 685 643 686 642 686 571 686 571 687 642 687 574 687 642 688 641 688 574 688 574 689 641 689 575 689 641 690 640 690 575 690 575 691 640 691 540 691 640 692 639 692 540 692 540 693 639 693 541 693 639 694 638 694 541 694 541 695 638 695 563 695 638 696 635 696 563 696 563 697 635 697 564 697 635 698 636 698 564 698 564 699 636 699 565 699 636 700 637 700 565 700 565 701 637 701 566 701 637 702 634 702 566 702 566 703 634 703 567 703 634 704 633 704 567 704 567 705 633 705 568 705 633 706 632 706 568 706 568 707 632 707 555 707 632 708 631 708 555 708 555 709 631 709 556 709 631 710 630 710 556 710 556 711 630 711 572 711 630 712 647 712 572 712 572 713 647 713 573 713 647 714 646 714 573 714 573 715 646 715 557 715 646 716 629 716 557 716 557 717 629 717 558 717 629 718 628 718 558 718 558 719 628 719 559 719 628 720 627 720 559 720 559 721 627 721 526 721 627 722 601 722 526 722 526 723 601 723 512 723 601 724 600 724 512 724 512 725 600 725 513 725 600 726 599 726 513 726 513 727 599 727 542 727 599 728 593 728 542 728 542 729 593 729 543 729 593 730 592 730 543 730 543 731 592 731 544 731 592 732 591 732 544 732 544 733 591 733 529 733 591 734 577 734 529 734 457 735 648 735 456 735 648 736 649 736 456 736 456 597 649 597 455 597 649 737 650 737 455 737 455 599 650 599 458 599 650 738 651 738 458 738 458 601 651 601 459 601 651 601 652 601 459 601 459 603 652 603 442 603 652 739 653 739 442 739 442 740 653 740 443 740 653 606 654 606 443 606 443 741 654 741 446 741 654 607 655 607 446 607 446 742 655 742 447 742 655 609 656 609 447 609 447 743 656 743 448 743 656 744 657 744 448 744 448 745 657 745 460 745 657 612 658 612 460 612 460 614 658 614 461 614 658 746 659 746 461 746 461 616 659 616 462 616 659 616 660 616 462 616 462 747 660 747 473 747 660 748 661 748 473 748 473 749 661 749 474 749 661 620 662 620 474 620 474 622 662 622 452 622 662 622 663 622 452 622 452 750 663 750 453 750 663 751 664 751 453 751 453 752 664 752 475 752 664 753 665 753 475 753 475 754 665 754 476 754 665 628 666 628 476 628 476 755 666 755 477 755 666 756 667 756 477 756 477 757 667 757 478 757 667 758 668 758 478 758 478 759 668 759 479 759 668 760 669 760 479 760 479 636 669 636 480 636 669 636 670 636 480 636 480 638 670 638 463 638 670 761 671 761 463 761 463 762 671 762 464 762 671 640 672 640 464 640 464 642 672 642 481 642 672 763 673 763 481 763 481 644 673 644 482 644 673 764 674 764 482 764 482 765 674 765 465 765 674 766 675 766 465 766 465 767 675 767 466 767 675 768 676 768 466 768 466 769 676 769 467 769 676 650 677 650 467 650 467 651 677 651 434 651 677 770 678 770 434 770 434 771 678 771 435 771 678 772 679 772 435 772 435 773 679 773 436 773 679 773 680 773 436 773 436 656 680 656 437 656 680 774 681 774 437 774 437 775 681 775 438 775 681 658 682 658 438 658 438 660 682 660 449 660 682 776 683 776 449 776 449 777 683 777 450 777 683 777 684 777 450 777 450 664 684 664 451 664 684 664 685 664 451 664 451 666 685 666 432 666 685 667 686 667 432 667 432 668 686 668 433 668 686 778 687 778 433 778 433 779 687 779 439 779 687 780 688 780 439 780 439 672 688 672 440 672 688 672 689 672 440 672 440 781 689 781 441 781 689 782 690 782 441 782 441 783 690 783 488 783 690 784 691 784 488 784 488 677 691 677 489 677 691 677 692 677 489 677 489 785 692 785 490 785 692 786 693 786 490 786 490 681 693 681 497 681 693 787 694 787 497 787 497 683 694 683 498 683 694 788 695 788 498 788 498 685 695 685 499 685 695 789 696 789 499 789 499 790 696 790 502 790 696 791 697 791 502 791 502 689 697 689 503 689 697 792 698 792 503 792 503 691 698 691 468 691 698 691 699 691 468 691 468 793 699 793 469 793 699 794 700 794 469 794 469 695 700 695 491 695 700 795 701 795 491 795 491 697 701 697 492 697 701 796 702 796 492 796 492 797 702 797 493 797 702 699 703 699 493 699 493 702 703 702 494 702 703 798 704 798 494 798 494 799 704 799 495 799 704 703 705 703 495 703 495 705 705 705 496 705 705 705 706 705 496 705 496 800 706 800 483 800 706 707 707 707 483 707 483 801 707 801 484 801 707 802 708 802 484 802 484 711 708 711 500 711 708 711 709 711 500 711 500 714 709 714 501 714 709 803 710 803 501 803 501 715 710 715 485 715 710 804 711 804 485 804 485 805 711 805 486 805 711 717 712 717 486 717 486 719 712 719 487 719 712 719 713 719 487 719 487 806 713 806 454 806 713 807 714 807 454 807 454 808 714 808 444 808 714 724 715 724 444 724 444 725 715 725 445 725 715 809 716 809 445 809 445 727 716 727 470 727 716 810 717 810 470 810 470 729 717 729 471 729 717 811 718 811 471 811 471 731 718 731 472 731 718 732 719 732 472 732 472 733 719 733 457 733 719 812 648 812 457 812 222 813 41 813 221 813 41 814 39 814 221 814 221 815 39 815 219 815 39 816 27 816 219 816 27 817 26 817 219 817 219 818 26 818 218 818 26 819 45 819 218 819 218 820 45 820 231 820 45 821 47 821 231 821 231 822 47 822 232 822 47 823 49 823 232 823 232 824 49 824 234 824 49 825 64 825 234 825 234 826 64 826 271 826 64 827 66 827 271 827 271 828 66 828 272 828 272 829 66 829 274 829 66 830 68 830 274 830 274 831 68 831 276 831 68 832 129 832 276 832 276 833 129 833 278 833 129 834 131 834 278 834 278 835 131 835 324 835 131 836 133 836 324 836 133 837 135 837 324 837 324 838 135 838 325 838 135 839 137 839 325 839 325 840 137 840 327 840 137 841 141 841 327 841 327 842 141 842 329 842 141 843 331 843 329 843 141 844 143 844 331 844 143 845 172 845 331 845 331 846 172 846 351 846 172 847 178 847 351 847 351 848 178 848 374 848 178 849 180 849 374 849 374 850 180 850 372 850 180 851 182 851 372 851 372 852 182 852 370 852 182 853 88 853 370 853 370 854 88 854 323 854 88 855 90 855 323 855 323 856 90 856 321 856 90 857 92 857 321 857 321 858 92 858 319 858 92 859 94 859 319 859 319 860 94 860 317 860 94 861 187 861 317 861 317 862 187 862 429 862 187 863 189 863 429 863 429 864 189 864 427 864 425 865 427 865 191 865 427 866 189 866 191 866 10 867 2 867 252 867 13 868 11 868 248 868 21 869 20 869 266 869 280 870 282 870 51 870 51 871 282 871 53 871 57 872 55 872 342 872 348 873 350 873 105 873 365 874 367 874 109 874 367 875 391 875 109 875 109 876 391 876 138 876 391 877 414 877 138 877 138 878 414 878 150 878 414 879 416 879 150 879 150 880 416 880 148 880 416 881 418 881 148 881 148 882 418 882 146 882 418 883 310 883 146 883 146 884 310 884 101 884 310 885 312 885 101 885 101 886 312 886 99 886 312 887 314 887 99 887 99 888 314 888 97 888 314 889 316 889 97 889 97 890 316 890 95 890 316 891 423 891 95 891 95 892 423 892 193 892 423 893 425 893 193 893 193 894 425 894 191 894 365 895 109 895 350 895 109 896 107 896 350 896 350 897 107 897 105 897 348 898 105 898 346 898 105 899 103 899 346 899 346 900 103 900 102 900 57 901 342 901 102 901 342 902 344 902 102 902 102 903 344 903 346 903 53 904 282 904 55 904 282 905 284 905 55 905 55 906 284 906 342 906 280 907 51 907 270 907 51 908 50 908 270 908 270 909 50 909 23 909 21 910 266 910 23 910 266 911 268 911 23 911 23 912 268 912 270 912 13 913 248 913 20 913 248 914 247 914 20 914 20 915 247 915 266 915 10 916 252 916 11 916 252 917 250 917 11 917 11 918 250 918 248 918 225 919 42 919 33 919 225 920 33 920 227 920 33 921 35 921 227 921 227 922 35 922 229 922 35 923 37 923 229 923 229 924 37 924 237 924 37 925 61 925 237 925 237 926 61 926 239 926 239 927 61 927 257 927 61 928 63 928 257 928 257 929 63 929 259 929 63 930 112 930 259 930 112 931 114 931 259 931 259 932 114 932 302 932 114 933 116 933 302 933 302 934 116 934 304 934 304 935 116 935 306 935 116 936 118 936 306 936 306 937 118 937 308 937 118 938 164 938 308 938 308 939 164 939 333 939 164 940 166 940 333 940 333 941 166 941 354 941 166 942 168 942 354 942 354 943 168 943 355 943 168 944 175 944 355 944 355 945 175 945 377 945 175 946 174 946 377 946 174 947 215 947 377 947 377 948 215 948 378 948 215 949 380 949 378 949 215 950 214 950 380 950 214 951 212 951 380 951 380 952 212 952 382 952 212 953 210 953 382 953 382 954 210 954 384 954 210 955 208 955 384 955 384 956 208 956 385 956 208 957 207 957 385 957 385 958 207 958 286 958 207 959 127 959 286 959 286 960 127 960 288 960 127 961 125 961 288 961 288 962 125 962 290 962 125 963 123 963 290 963 290 964 123 964 401 964 123 965 206 965 401 965 401 966 206 966 402 966 206 967 205 967 402 967 402 968 205 968 404 968 205 969 203 969 404 969 404 970 203 970 406 970 201 971 408 971 203 971 408 972 406 972 203 972 6 973 4 973 253 973 245 974 263 974 18 974 18 975 263 975 29 975 296 976 298 976 72 976 72 977 298 977 74 977 79 978 76 978 359 978 388 979 387 979 153 979 400 980 399 980 156 980 399 981 397 981 156 981 156 982 397 982 158 982 397 983 395 983 158 983 158 984 395 984 160 984 395 985 393 985 160 985 160 986 393 986 161 986 393 987 392 987 161 987 161 988 392 988 82 988 392 989 340 989 82 989 82 990 340 990 84 990 340 991 338 991 84 991 84 992 338 992 86 992 338 993 336 993 86 993 86 994 336 994 196 994 336 995 411 995 196 995 196 996 411 996 197 996 411 997 410 997 197 997 197 998 410 998 199 998 410 999 408 999 199 999 199 1000 408 1000 201 1000 400 1001 156 1001 387 1001 156 1002 154 1002 387 1002 387 1003 154 1003 153 1003 388 1004 153 1004 363 1004 153 1005 120 1005 363 1005 363 1006 120 1006 119 1006 79 1007 359 1007 119 1007 359 1008 361 1008 119 1008 119 1009 361 1009 363 1009 74 1010 298 1010 76 1010 298 1011 300 1011 76 1011 76 1012 300 1012 359 1012 296 1013 72 1013 294 1013 72 1014 70 1014 294 1014 294 1015 70 1015 31 1015 29 1016 263 1016 31 1016 263 1017 265 1017 31 1017 31 1018 265 1018 294 1018 245 1019 18 1019 243 1019 18 1020 16 1020 243 1020 243 1021 16 1021 8 1021 6 1022 253 1022 8 1022 253 1023 241 1023 8 1023 8 1024 241 1024 243 1024 658 458 657 458 1 458 650 1025 649 1025 4 1025 649 458 648 458 4 458 4 1026 648 1026 719 1026 719 458 718 458 4 458 718 458 717 458 4 458 4 1027 717 1027 716 1027 657 458 656 458 1 458 656 1028 655 1028 1 1028 1 458 655 458 4 458 655 1029 654 1029 4 1029 4 1030 654 1030 653 1030 653 458 652 458 4 458 652 1031 651 1031 4 1031 4 1032 651 1032 650 1032 690 458 251 458 691 458 251 1033 253 1033 691 1033 691 458 253 458 692 458 690 458 689 458 251 458 689 458 688 458 251 458 251 1034 688 1034 687 1034 669 458 668 458 251 458 716 458 715 458 4 458 715 458 714 458 4 458 4 1035 714 1035 713 1035 687 458 686 458 251 458 686 458 685 458 251 458 251 1036 685 1036 684 1036 661 458 660 458 1 458 660 1037 659 1037 1 1037 1 1038 659 1038 658 1038 684 458 683 458 251 458 683 458 682 458 251 458 251 1039 682 1039 681 1039 681 1040 680 1040 251 1040 680 458 679 458 251 458 251 1041 679 1041 678 1041 678 1042 677 1042 251 1042 677 458 676 458 251 458 251 1043 676 1043 675 1043 710 458 709 458 4 458 709 458 708 458 4 458 4 1044 708 1044 707 1044 707 1045 706 1045 4 1045 706 458 705 458 4 458 4 1046 705 1046 704 1046 701 1047 253 1047 702 1047 253 458 4 458 702 458 702 1048 4 1048 703 1048 4 1049 704 1049 703 1049 701 1050 700 1050 253 1050 700 1051 699 1051 253 1051 253 458 699 458 698 458 698 1052 697 1052 253 1052 697 458 696 458 253 458 253 1053 696 1053 695 1053 695 458 694 458 253 458 694 458 693 458 253 458 253 1054 693 1054 692 1054 675 458 674 458 251 458 674 458 673 458 251 458 251 1055 673 1055 672 1055 672 458 671 458 251 458 671 458 670 458 251 458 251 458 670 458 669 458 668 1056 667 1056 251 1056 667 458 666 458 251 458 251 458 666 458 1 458 666 458 665 458 1 458 1 1057 665 1057 664 1057 664 458 663 458 1 458 663 458 662 458 1 458 1 1058 662 1058 661 1058 713 458 712 458 4 458 712 458 711 458 4 458 4 1059 711 1059 710 1059 140 1060 139 1060 412 1060 106 1061 108 1061 389 1061 58 1062 104 1062 349 1062 54 1063 56 1063 345 1063 24 1064 52 1064 283 1064 14 1065 22 1065 269 1065 0 1066 12 1066 246 1066 0 1067 246 1067 1 1067 246 1068 249 1068 1 1068 1 1069 249 1069 251 1069 14 1070 269 1070 12 1070 269 1071 267 1071 12 1071 12 1072 267 1072 246 1072 24 1073 283 1073 22 1073 283 1074 281 1074 22 1074 22 1075 281 1075 269 1075 54 1076 345 1076 52 1076 345 1077 343 1077 52 1077 52 1078 343 1078 283 1078 58 1079 349 1079 56 1079 349 1080 347 1080 56 1080 56 1081 347 1081 345 1081 106 1082 389 1082 104 1082 389 1083 366 1083 104 1083 104 1084 366 1084 349 1084 140 1085 412 1085 108 1085 412 1086 390 1086 108 1086 108 1087 390 1087 389 1087 152 1088 415 1088 139 1088 415 1089 413 1089 139 1089 139 1090 413 1090 412 1090 152 1091 151 1091 415 1091 151 1092 149 1092 415 1092 415 1093 149 1093 417 1093 149 1094 147 1094 417 1094 417 1095 147 1095 419 1095 147 1096 145 1096 419 1096 419 1097 145 1097 420 1097 145 1098 144 1098 420 1098 420 1099 144 1099 311 1099 144 1100 100 1100 311 1100 311 1101 100 1101 313 1101 100 1102 98 1102 313 1102 313 1103 98 1103 315 1103 98 1104 96 1104 315 1104 315 1105 96 1105 421 1105 96 1106 195 1106 421 1106 421 1107 195 1107 422 1107 195 1108 194 1108 422 1108 422 1109 194 1109 424 1109 194 1110 192 1110 424 1110 424 1111 192 1111 426 1111 190 1112 428 1112 192 1112 428 1112 426 1112 192 1112 376 1113 375 1113 179 1113 375 1114 373 1114 179 1114 179 1115 373 1115 181 1115 373 1116 371 1116 181 1116 181 1117 371 1117 183 1117 371 1118 369 1118 183 1118 183 1119 369 1119 184 1119 369 1120 368 1120 184 1120 184 1121 368 1121 89 1121 368 1122 322 1122 89 1122 89 1123 322 1123 91 1123 322 1124 320 1124 91 1124 91 1125 320 1125 93 1125 320 1126 318 1126 93 1126 93 1127 318 1127 185 1127 318 1128 431 1128 185 1128 185 1129 431 1129 186 1129 431 1130 430 1130 186 1130 186 1131 430 1131 188 1131 430 1132 428 1132 188 1132 188 1133 428 1133 190 1133 179 1134 177 1134 376 1134 177 1135 176 1135 376 1135 376 1136 176 1136 352 1136 176 1137 171 1137 352 1137 352 1138 171 1138 353 1138 171 1139 170 1139 353 1139 353 1140 170 1140 330 1140 330 1141 170 1141 328 1141 170 1142 142 1142 328 1142 328 1143 142 1143 326 1143 142 1144 136 1144 326 1144 326 1145 136 1145 279 1145 136 1146 134 1146 279 1146 279 1147 134 1147 277 1147 134 1148 132 1148 277 1148 132 1149 130 1149 277 1149 277 1150 130 1150 275 1150 130 1151 67 1151 275 1151 275 1152 67 1152 273 1152 273 1153 67 1153 235 1153 67 1154 65 1154 235 1154 235 1155 65 1155 233 1155 25 1156 216 1156 46 1156 216 1157 233 1157 46 1157 46 1158 233 1158 48 1158 233 1159 65 1159 48 1159 40 1160 223 1160 38 1160 223 1161 220 1161 38 1161 38 1162 220 1162 25 1162 220 1163 217 1163 25 1163 25 1164 217 1164 216 1164</p>
        </triangles>
      </mesh>
    </geometry>
  </library_geometries>
  <library_visual_scenes>
    <visual_scene id="Scene" name="Scene">
      <node id="chassis_default_as_machined__26" name="chassis_default_as_machined__26" type="NODE">
        <matrix sid="transform">1 0 0 0 0 1 0 0 0 0 1 0 0 0 0 1</matrix>
        <instance_geometry url="#chassis_default_as_machined__26-mesh" name="chassis_default_as_machined__26"/>
      </node>
    </visual_scene>
  </library_visual_scenes>
  <scene>
    <instance_visual_scene url="#Scene"/>
  </scene>
</COLLADA>