<?xml version="1.0" encoding="utf-8"?>
<COLLADA xmlns="http://www.collada.org/2005/11/COLLADASchema" version="1.4.1" xmlns:xsi="http://www.w3.org/2001/XMLSchema-instance">
  <asset>
    <contributor>
      <author>Blender User</author>
      <authoring_tool>Blender 3.0.1</authoring_tool>
    </contributor>
    <created>2026-06-04T16:18:38</created>
    <modified>2026-06-04T16:18:38</modified>
    <unit name="meter" meter="1"/>
    <up_axis>Z_UP</up_axis>
  </asset>
  <library_images/>
  <library_geometries>
    <geometry id="chassis_default_as_machined__28-mesh" name="chassis_default_as_machined__28">
      <mesh>
        <source id="chassis_default_as_machined__28-mesh-positions">
          <float_array id="chassis_default_as_machined__28-mesh-positions-array" count="2160">-0.309 0.2 -0.3124 -0.309 0.2 -0.315 -0.3089658 0.2007844 -0.3124 -0.3089658 0.2007844 -0.315 -0.3088633 0.2015628 -0.3124 -0.3088633 0.2015628 -0.315 -0.3086933 0.2023293 -0.3124 -0.3086933 0.2023293 -0.315 -0.3084572 0.2030782 -0.3124 -0.3084572 0.2030782 -0.315 -0.3081567 0.2038035 -0.3124 -0.3081567 0.2038035 -0.315 -0.3077942 0.2045 -0.3124 -0.3077942 0.2045 -0.315 -0.3073723 0.2051622 -0.3124 -0.3073723 0.2051622 -0.315 -0.3068944 0.205785 -0.3124 -0.3068944 0.205785 -0.315 -0.3063639 0.2063639 -0.3124 -0.3063639 0.2063639 -0.315 -0.3057851 0.2068943 -0.3124 -0.3057851 0.2068943 -0.315 -0.3051622 0.2073723 -0.3124 -0.3051622 0.2073723 -0.315 -0.3045 0.2077942 -0.3124 -0.3045 0.2077942 -0.315 -0.3038036 0.2081567 -0.3124 -0.3038036 0.2081567 -0.315 -0.3030782 0.2084572 -0.3124 -0.3030782 0.2084572 -0.315 -0.3023294 0.2086933 -0.3124 -0.3023294 0.2086933 -0.315 -0.3015629 0.2088633 -0.3124 -0.3015629 0.2088633 -0.315 -0.3007844 0.2089657 -0.3124 -0.3007844 0.2089657 -0.315 -0.3 0.209 -0.3124 -0.3 0.209 -0.315 -0.2992156 0.2089657 -0.3124 -0.2992156 0.2089657 -0.315 -0.2984372 0.2088633 -0.3124 -0.2984372 0.2088633 -0.315 -0.2976706 0.2086933 -0.3124 -0.2976706 0.2086933 -0.315 -0.2969218 0.2084572 -0.3124 -0.2969218 0.2084572 -0.315 -0.2961964 0.2081567 -0.3124 -0.2961964 0.2081567 -0.315 -0.2955 0.2077942 -0.3124 -0.2955 0.2077942 -0.315 -0.2948378 0.2073723 -0.3124 -0.2948378 0.2073723 -0.315 -0.2942149 0.2068943 -0.3124 -0.2942149 0.2068943 -0.315 -0.293636 0.2063639 -0.3124 -0.293636 0.2063639 -0.315 -0.2931056 0.205785 -0.3124 -0.2931056 0.205785 -0.315 -0.2926276 0.2051622 -0.3124 -0.2926276 0.2051622 -0.315 -0.2922058 0.2045 -0.3124 -0.2922058 0.2045 -0.315 -0.2918432 0.2038035 -0.3124 -0.2918432 0.2038035 -0.315 -0.2915428 0.2030782 -0.3124 -0.2915428 0.2030782 -0.315 -0.2913067 0.2023293 -0.3124 -0.2913067 0.2023293 -0.315 -0.2911368 0.2015628 -0.3124 -0.2911368 0.2015628 -0.315 -0.2910342 0.2007844 -0.3124 -0.2910342 0.2007844 -0.315 -0.291 0.2 -0.3124 -0.291 0.2 -0.315 -0.2910342 0.1992155 -0.3124 -0.2910342 0.1992155 -0.315 -0.2911368 0.1984372 -0.3124 -0.2911368 0.1984372 -0.315 -0.2913067 0.1976706 -0.3124 -0.2913067 0.1976706 -0.315 -0.2915428 0.1969218 -0.3124 -0.2915428 0.1969218 -0.315 -0.2918432 0.1961964 -0.3124 -0.2918432 0.1961964 -0.315 -0.2922058 0.1955 -0.3124 -0.2922058 0.1955 -0.315 -0.2926276 0.1948378 -0.3124 -0.2926276 0.1948378 -0.315 -0.2931056 0.1942149 -0.3124 -0.2931056 0.1942149 -0.315 -0.293636 0.193636 -0.3124 -0.293636 0.193636 -0.315 -0.2942149 0.1931056 -0.3124 -0.2942149 0.1931056 -0.315 -0.2948378 0.1926276 -0.3124 -0.2948378 0.1926276 -0.315 -0.2955 0.1922057 -0.3124 -0.2955 0.1922057 -0.315 -0.2961964 0.1918432 -0.3124 -0.2961964 0.1918432 -0.315 -0.2969218 0.1915428 -0.3124 -0.2969218 0.1915428 -0.315 -0.2976706 0.1913067 -0.3124 -0.2976706 0.1913067 -0.315 -0.2984372 0.1911367 -0.3124 -0.2984372 0.1911367 -0.315 -0.2992156 0.1910342 -0.3124 -0.2992156 0.1910342 -0.315 -0.3 0.191 -0.3124 -0.3 0.191 -0.315 -0.3007844 0.1910342 -0.3124 -0.3007844 0.1910342 -0.315 -0.3015629 0.1911367 -0.3124 -0.3015629 0.1911367 -0.315 -0.3023294 0.1913067 -0.3124 -0.3023294 0.1913067 -0.315 -0.3030782 0.1915428 -0.3124 -0.3030782 0.1915428 -0.315 -0.3038036 0.1918432 -0.3124 -0.3038036 0.1918432 -0.315 -0.3045 0.1922057 -0.3124 -0.3045 0.1922057 -0.315 -0.3051622 0.1926276 -0.3124 -0.3051622 0.1926276 -0.315 -0.3057851 0.1931056 -0.3124 -0.3057851 0.1931056 -0.315 -0.3063639 0.193636 -0.3124 -0.3063639 0.193636 -0.315 -0.3068944 0.1942149 -0.3124 -0.3068944 0.1942149 -0.315 -0.3073723 0.1948378 -0.3124 -0.3073723 0.1948378 -0.315 -0.3077942 0.1955 -0.3124 -0.3077942 0.1955 -0.315 -0.3081567 0.1961964 -0.3124 -0.3081567 0.1961964 -0.315 -0.3084572 0.1969218 -0.3124 -0.3084572 0.1969218 -0.315 -0.3086933 0.1976706 -0.3124 -0.3086933 0.1976706 -0.315 -0.3088633 0.1984372 -0.3124 -0.3088633 0.1984372 -0.315 -0.3089658 0.1992155 -0.3124 -0.3089658 0.1992155 -0.315 -0.309 0.2 -0.285 -0.309 0.2 -0.2876 -0.3089658 0.2007844 -0.285 -0.3089658 0.2007844 -0.2876 -0.3088633 0.2015628 -0.285 -0.3088633 0.2015628 -0.2876 -0.3086933 0.2023293 -0.285 -0.3086933 0.2023293 -0.2876 -0.3084572 0.2030782 -0.285 -0.3084572 0.2030782 -0.2876 -0.3081567 0.2038035 -0.285 -0.3081567 0.2038035 -0.2876 -0.3077942 0.2045 -0.285 -0.3077942 0.2045 -0.2876 -0.3073723 0.2051622 -0.285 -0.3073723 0.2051622 -0.2876 -0.3068944 0.205785 -0.285 -0.3068944 0.205785 -0.2876 -0.3063639 0.2063639 -0.285 -0.3063639 0.2063639 -0.2876 -0.3057851 0.2068943 -0.285 -0.3057851 0.2068943 -0.2876 -0.3051622 0.2073723 -0.285 -0.3051622 0.2073723 -0.2876 -0.3045 0.2077942 -0.285 -0.3045 0.2077942 -0.2876 -0.3038036 0.2081567 -0.285 -0.3038036 0.2081567 -0.2876 -0.3030782 0.2084572 -0.285 -0.3030782 0.2084572 -0.2876 -0.3023294 0.2086933 -0.285 -0.3023294 0.2086933 -0.2876 -0.3015629 0.2088633 -0.285 -0.3015629 0.2088633 -0.2876 -0.3007844 0.2089657 -0.285 -0.3007844 0.2089657 -0.2876 -0.3 0.209 -0.285 -0.3 0.209 -0.2876 -0.2992156 0.2089657 -0.285 -0.2992156 0.2089657 -0.2876 -0.2984372 0.2088633 -0.285 -0.2984372 0.2088633 -0.2876 -0.2976706 0.2086933 -0.285 -0.2976706 0.2086933 -0.2876 -0.2969218 0.2084572 -0.285 -0.2969218 0.2084572 -0.2876 -0.2961964 0.2081567 -0.285 -0.2961964 0.2081567 -0.2876 -0.2955 0.2077942 -0.285 -0.2955 0.2077942 -0.2876 -0.2948378 0.2073723 -0.285 -0.2948378 0.2073723 -0.2876 -0.2942149 0.2068943 -0.285 -0.2942149 0.2068943 -0.2876 -0.293636 0.2063639 -0.285 -0.293636 0.2063639 -0.2876 -0.2931056 0.205785 -0.285 -0.2931056 0.205785 -0.2876 -0.2926276 0.2051622 -0.285 -0.2926276 0.2051622 -0.2876 -0.2922058 0.2045 -0.285 -0.2922058 0.2045 -0.2876 -0.2918432 0.2038035 -0.285 -0.2918432 0.2038035 -0.2876 -0.2915428 0.2030782 -0.285 -0.2915428 0.2030782 -0.2876 -0.2913067 0.2023293 -0.285 -0.2913067 0.2023293 -0.2876 -0.2911368 0.2015628 -0.285 -0.2911368 0.2015628 -0.2876 -0.2910342 0.2007844 -0.285 -0.2910342 0.2007844 -0.2876 -0.291 0.2 -0.285 -0.291 0.2 -0.2876 -0.2910342 0.1992155 -0.285 -0.2910342 0.1992155 -0.2876 -0.2911368 0.1984372 -0.285 -0.2911368 0.1984372 -0.2876 -0.2913067 0.1976706 -0.285 -0.2913067 0.1976706 -0.2876 -0.2915428 0.1969218 -0.285 -0.2915428 0.1969218 -0.2876 -0.2918432 0.1961964 -0.285 -0.2918432 0.1961964 -0.2876 -0.2922058 0.1955 -0.285 -0.2922058 0.1955 -0.2876 -0.2926276 0.1948378 -0.285 -0.2926276 0.1948378 -0.2876 -0.2931056 0.1942149 -0.285 -0.2931056 0.1942149 -0.2876 -0.293636 0.193636 -0.285 -0.293636 0.193636 -0.2876 -0.2942149 0.1931056 -0.285 -0.2942149 0.1931056 -0.2876 -0.2948378 0.1926276 -0.285 -0.2948378 0.1926276 -0.2876 -0.2955 0.1922057 -0.285 -0.2955 0.1922057 -0.2876 -0.2961964 0.1918432 -0.285 -0.2961964 0.1918432 -0.2876 -0.2969218 0.1915428 -0.285 -0.2969218 0.1915428 -0.2876 -0.2976706 0.1913067 -0.285 -0.2976706 0.1913067 -0.2876 -0.2984372 0.1911367 -0.285 -0.2984372 0.1911367 -0.2876 -0.2992156 0.1910342 -0.285 -0.2992156 0.1910342 -0.2876 -0.3 0.191 -0.285 -0.3 0.191 -0.2876 -0.3007844 0.1910342 -0.285 -0.3007844 0.1910342 -0.2876 -0.3015629 0.1911367 -0.285 -0.3015629 0.1911367 -0.2876 -0.3023294 0.1913067 -0.285 -0.3023294 0.1913067 -0.2876 -0.3030782 0.1915428 -0.285 -0.3030782 0.1915428 -0.2876 -0.3038036 0.1918432 -0.285 -0.3038036 0.1918432 -0.2876 -0.3045 0.1922057 -0.285 -0.3045 0.1922057 -0.2876 -0.3051622 0.1926276 -0.285 -0.3051622 0.1926276 -0.2876 -0.3057851 0.1931056 -0.285 -0.3057851 0.1931056 -0.2876 -0.3063639 0.193636 -0.285 -0.3063639 0.193636 -0.2876 -0.3068944 0.1942149 -0.285 -0.3068944 0.1942149 -0.2876 -0.3073723 0.1948378 -0.285 -0.3073723 0.1948378 -0.2876 -0.3077942 0.1955 -0.285 -0.3077942 0.1955 -0.2876 -0.3081567 0.1961964 -0.285 -0.3081567 0.1961964 -0.2876 -0.3084572 0.1969218 -0.285 -0.3084572 0.1969218 -0.2876 -0.3086933 0.1976706 -0.285 -0.3086933 0.1976706 -0.2876 -0.3088633 0.1984372 -0.285 -0.3088633 0.1984372 -0.2876 -0.3089658 0.1992155 -0.285 -0.3089658 0.1992155 -0.2876 -0.01499503 0.1899731 -0.2850049 -0.01499998 0.1902 -0.285 -0.585 0.1902 -0.285 -0.01498019 0.1897467 -0.2850198 -0.5850049 0.1899731 -0.2850049 -0.5850198 0.1897467 -0.2850198 -0.01495546 0.1895213 -0.2850445 -0.01492094 0.189297 -0.285079 -0.5850445 0.1895213 -0.2850445 -0.585079 0.189297 -0.285079 -0.01487672 0.1890745 -0.2851232 -0.01482278 0.1888541 -0.2851772 -0.5851233 0.1890745 -0.2851232 -0.5851772 0.1888541 -0.2851772 -0.0147593 0.1886363 -0.2852407 -0.0146864 0.1884214 -0.2853136 -0.5852407 0.1886363 -0.2852407 -0.5853136 0.1884214 -0.2853136 -0.01460415 0.18821 -0.2853958 -0.01451277 0.1880024 -0.2854872 -0.5853958 0.18821 -0.2853958 -0.5854872 0.1880024 -0.2854872 -0.0144124 0.1877989 -0.2855876 -0.01430332 0.1876 -0.2856966 -0.5855876 0.1877989 -0.2855876 -0.5856967 0.1876 -0.2856966 -0.0141856 0.187406 -0.2858144 -0.01405954 0.1872174 -0.2859404 -0.5859404 0.1872174 -0.2859404 -0.5860746 0.1870344 -0.2860745 -0.01378339 0.1868575 -0.2862166 -0.5858144 0.187406 -0.2858144 -0.01392543 0.1870344 -0.2860745 -0.5862166 0.1868575 -0.2862166 -0.5865231 0.186523 -0.2865231 -0.0134769 0.186523 -0.2865231 -0.5868575 0.1862165 -0.2868575 -0.01314246 0.1862165 -0.2868575 -0.5872174 0.1859404 -0.2872174 -0.01278257 0.1859404 -0.2872174 -0.5876 0.1856966 -0.2876 -0.01239997 0.1856966 -0.2876 -0.5880024 0.1854872 -0.2880024 -0.01199758 0.1854872 -0.2880024 -0.5884215 0.1853136 -0.2884215 -0.0115785 0.1853136 -0.2884215 -0.5888541 0.1851772 -0.2888541 -0.01114583 0.1851772 -0.2888541 -0.5892971 0.185079 -0.2892971 -0.01070296 0.185079 -0.2892971 -0.5897468 0.1850197 -0.2897468 -0.01025319 0.1850197 -0.2897468 -0.5902 0.185 -0.2902 -0.009799957 0.185 -0.2902 0.009799957 0.185 -0.3098 -0.6098 0.185 -0.3098 -0.6098 0.2124 -0.3098 0.009799957 0.2124 -0.3098 -0.5902 0.2124 -0.2902 -0.009799957 0.2124 -0.2902 0.01186269 0.2113828 -0.3118627 0.0117917 0.2114712 -0.3117917 -0.6117917 0.2114712 -0.3117917 0.01163846 0.2116385 -0.3116385 -0.6116385 0.2116385 -0.3116385 0.01147121 0.2117917 -0.3114712 -0.6114712 0.2117917 -0.3114712 0.01129126 0.2119297 -0.3112913 -0.6112913 0.2119297 -0.3112913 0.01109999 0.2120516 -0.3111 -0.6111 0.2120516 -0.3111 0.01089876 0.2121564 -0.3108988 -0.6108988 0.2121564 -0.3108988 0.01068919 0.2122431 -0.3106892 -0.6106892 0.2122431 -0.3106892 0.01047289 0.2123114 -0.3104729 -0.6104729 0.2123114 -0.3104729 0.01025146 0.2123605 -0.3102515 -0.6102515 0.2123605 -0.3102515 0.01002657 0.2123901 -0.3100266 -0.6100266 0.2123901 -0.3100266 -0.6118627 0.2113828 -0.3118627 -0.6119298 0.2112913 -0.3119298 0.01192975 0.2112913 -0.3119298 -0.6119928 0.211197 -0.3119928 0.01199281 0.211197 -0.3119928 -0.6120517 0.2111 -0.3120517 0.01205164 0.2111 -0.3120517 0.01210618 0.2110005 -0.3121062 -0.6121062 0.2110005 -0.3121062 0.01215636 0.2108988 -0.3121564 -0.6121564 0.2108988 -0.3121564 0.01220208 0.2107949 -0.3122021 -0.6122021 0.2107949 -0.3122021 0.01224315 0.2106892 -0.3122432 -0.6122432 0.2106892 -0.3122432 -0.6122797 0.2105818 -0.3122797 0.01227962 0.2105818 -0.3122797 -0.6123114 0.2104729 -0.3123114 0.01231139 0.2104729 -0.3123114 0.01233834 0.2103627 -0.3123384 -0.6123384 0.2103627 -0.3123384 0.01236045 0.2102515 -0.3123605 -0.6123901 0.2100266 -0.3123901 0.01237773 0.2101393 -0.3123778 -0.6123778 0.2101393 -0.3123778 -0.6123605 0.2102515 -0.3123605 -0.6124 0.2098 -0.3124 0.01239997 0.2098 -0.3124 -0.6123976 0.2099134 -0.3123975 0.01239752 0.2099134 -0.3123975 0.01239007 0.2100266 -0.3123901 0.01239997 0.1902 -0.3124 -0.6124 0.1902 -0.3124 -0.01499998 0.2098 -0.285 -0.585 0.2098 -0.285 -0.5876222 0.2101393 -0.2876222 -0.5876099 0.2100266 -0.2876099 -0.5850445 0.2104787 -0.2850445 -0.5850198 0.2102532 -0.2850198 -0.5876025 0.2099134 -0.2876025 -0.5850049 0.2100268 -0.2850049 -0.5876 0.2098 -0.2876 -0.5876 0.1902 -0.2876 -0.5876025 0.1900866 -0.2876025 -0.5876099 0.1899734 -0.2876099 -0.6149555 0.2104787 -0.3149555 -0.6149802 0.2102532 -0.3149802 -0.585079 0.210703 -0.285079 -0.5851233 0.2109255 -0.2851232 -0.5876395 0.2102515 -0.2876395 -0.5851772 0.2111458 -0.2851772 -0.5876616 0.2103627 -0.2876616 -0.5876222 0.1898606 -0.2876222 -0.5876395 0.1897485 -0.2876395 -0.6123976 0.1900866 -0.3123975 -0.6149802 0.1897467 -0.3149802 -0.6123901 0.1899734 -0.3123901 -0.6149555 0.1895213 -0.3149555 -0.6123778 0.1898606 -0.3123778 -0.6149951 0.2100268 -0.3149951 -0.615 0.2098 -0.315 -0.615 0.1902 -0.315 -0.6149951 0.1899731 -0.3149951 -0.614921 0.210703 -0.314921 -0.6148768 0.2109255 -0.3148767 -0.6148228 0.2111458 -0.3148228 -0.5852407 0.2113636 -0.2852407 -0.5853136 0.2115785 -0.2853136 -0.5876886 0.2104729 -0.2876886 -0.5853958 0.2117899 -0.2853958 -0.5877203 0.2105818 -0.2877203 -0.5854872 0.2119976 -0.2854872 -0.5877568 0.2106892 -0.2877568 -0.5855876 0.2122011 -0.2855876 -0.5877979 0.2107949 -0.2877979 -0.5876616 0.1896373 -0.2876616 -0.5876886 0.189527 -0.2876886 -0.614921 0.189297 -0.314921 -0.6148768 0.1890745 -0.3148767 -0.6123605 0.1897485 -0.3123605 -0.6148228 0.1888541 -0.3148228 -0.6123384 0.1896373 -0.3123384 -0.6147593 0.2113636 -0.3147593 -0.6146864 0.2115785 -0.3146864 -0.6146042 0.2117899 -0.3146042 -0.6119976 0.2145128 -0.3119976 -0.6115785 0.2146864 -0.3115785 -0.6111459 0.2148228 -0.3111459 -0.610703 0.2149209 -0.310703 -0.5892971 0.2149209 -0.2892971 -0.5895271 0.2123114 -0.2895271 -0.5888541 0.2148228 -0.2888541 -0.5893108 0.2122431 -0.2893108 -0.5884215 0.2146864 -0.2884215 -0.5891012 0.2121564 -0.2891012 -0.5880024 0.2145128 -0.2880024 -0.5889 0.1879483 -0.2889 -0.5891012 0.1878436 -0.2891012 -0.5893108 0.1877568 -0.2893108 -0.6147593 0.1886363 -0.3147593 -0.6146864 0.1884214 -0.3146864 -0.6123114 0.189527 -0.3123114 -0.6146042 0.18821 -0.3146042 -0.6122797 0.1894181 -0.3122797 -0.6145128 0.1880024 -0.3145128 -0.6122432 0.1893107 -0.3122432 -0.6144124 0.1877989 -0.3144124 -0.6122021 0.189205 -0.3122021 -0.5856967 0.2124 -0.2856966 -0.5858144 0.2125939 -0.2858144 -0.5878436 0.2108988 -0.2878436 -0.5859404 0.2127826 -0.2859404 -0.5878938 0.2110005 -0.2878938 -0.5860746 0.2129656 -0.2860745 -0.5879483 0.2111 -0.2879483 -0.5862166 0.2131425 -0.2862166 -0.5877203 0.1894181 -0.2877203 -0.5877568 0.1893107 -0.2877568 -0.5877979 0.189205 -0.2877979 -0.5878436 0.1891012 -0.2878436 -0.6145128 0.2119976 -0.3145128 -0.6144124 0.2122011 -0.3144124 -0.6143034 0.2124 -0.3143033 -0.6141856 0.2125939 -0.3141856 -0.6140596 0.2127826 -0.3140596 -0.5878938 0.1889994 -0.2878938 -0.610703 0.185079 -0.310703 -0.6104729 0.1876885 -0.3104729 -0.6111459 0.1851772 -0.3111459 -0.6106892 0.1877568 -0.3106892 -0.6115785 0.1853136 -0.3115785 -0.6108988 0.1878436 -0.3108988 -0.6119976 0.1854872 -0.3119976 -0.6139255 0.2129656 -0.3139255 -0.6137834 0.2131425 -0.3137834 -0.5865231 0.2134769 -0.2865231 -0.5880702 0.2112913 -0.2880702 -0.5880072 0.211197 -0.2880071 -0.5889 0.2120516 -0.2889 -0.5887087 0.2119297 -0.2887087 -0.5876 0.2143033 -0.2876 -0.5885288 0.2117917 -0.2885288 -0.5872174 0.2140595 -0.2872174 -0.5883615 0.2116385 -0.2883615 -0.5868575 0.2137834 -0.2868575 -0.5882083 0.2114712 -0.2882083 -0.5881373 0.2113828 -0.2881373 -0.5879483 0.1888999 -0.2879483 -0.5880072 0.188803 -0.2880071 -0.6143034 0.1876 -0.3143033 -0.6141856 0.187406 -0.3141856 -0.6121564 0.1891012 -0.3121564 -0.6140596 0.1872174 -0.3140596 -0.6121062 0.1889994 -0.3121062 -0.6139255 0.1870344 -0.3139255 -0.6120517 0.1888999 -0.3120517 -0.6137834 0.1868575 -0.3137834 -0.6134769 0.2134769 -0.3134769 -0.5880702 0.1887087 -0.2880702 -0.5881373 0.1886172 -0.2881373 -0.5882083 0.1885287 -0.2882083 -0.5883615 0.1883615 -0.2883615 -0.5885288 0.1882082 -0.2885288 -0.5887087 0.1880702 -0.2887087 -0.6134769 0.186523 -0.3134769 -0.6119298 0.1887087 -0.3119298 -0.6119928 0.188803 -0.3119928 -0.6131425 0.2137834 -0.3131425 -0.6127826 0.2140595 -0.3127826 -0.6124 0.2143033 -0.3124 -0.6102532 0.2149802 -0.3102532 -0.6098 0.215 -0.3098 -0.5902 0.215 -0.2902 -0.5897468 0.2149802 -0.2897468 -0.5899734 0.2123901 -0.2899734 -0.5897485 0.2123605 -0.2897485 -0.6111 0.1879483 -0.3111 -0.6112913 0.1880702 -0.3112913 -0.6124 0.1856966 -0.3124 -0.6114712 0.1882082 -0.3114712 -0.6127826 0.1859404 -0.3127826 -0.6116385 0.1883615 -0.3116385 -0.6131425 0.1862165 -0.3131425 -0.6117917 0.1885287 -0.3117917 -0.6118627 0.1886172 -0.3118627 -0.5895271 0.1876885 -0.2895271 -0.5897485 0.1876395 -0.2897485 -0.5899734 0.1876099 -0.2899734 -0.5902 0.1876 -0.2902 -0.6098 0.1876 -0.3098 -0.6102532 0.1850197 -0.3102532 -0.6100266 0.1876099 -0.3100266 -0.6102515 0.1876395 -0.3102515 0.01499998 0.2098 -0.315 0.01499998 0.1902 -0.315 0.01499503 0.1899731 -0.3149951 0.01239752 0.1900866 -0.3123975 0.01498019 0.1897467 -0.3149802 0.01239007 0.1899734 -0.3123901 0.01495546 0.1895213 -0.3149555 0.01499503 0.2100268 -0.3149951 0.01498019 0.2102532 -0.3149802 0.01495546 0.2104787 -0.3149555 0.01492094 0.189297 -0.314921 0.01237773 0.1898606 -0.3123778 0.01487672 0.1890745 -0.3148767 0.01236045 0.1897485 -0.3123605 0.01482278 0.1888541 -0.3148228 0.01492094 0.210703 -0.314921 0.01487672 0.2109255 -0.3148767 0.01482278 0.2111458 -0.3148228 -0.01239007 0.2100266 -0.2876099 -0.01495546 0.2104787 -0.2850445 -0.01498019 0.2102532 -0.2850198 0.0147593 0.1886363 -0.3147593 0.01233834 0.1896373 -0.3123384 0.0146864 0.1884214 -0.3146864 0.01231139 0.189527 -0.3123114 0.01460415 0.18821 -0.3146042 -0.01239752 0.1900866 -0.2876025 -0.01239007 0.1899734 -0.2876099 -0.01237773 0.1898606 -0.2876222 -0.01239752 0.2099134 -0.2876025 -0.01499503 0.2100268 -0.2850049 -0.01239997 0.2098 -0.2876 -0.01239997 0.1902 -0.2876 -0.01492094 0.210703 -0.285079 -0.01237773 0.2101393 -0.2876222 -0.01487672 0.2109255 -0.2851232 -0.01236045 0.2102515 -0.2876395 -0.01482278 0.2111458 -0.2851772 0.0147593 0.2113636 -0.3147593 0.0146864 0.2115785 -0.3146864 0.01460415 0.2117899 -0.3146042 0.01451277 0.2119976 -0.3145128 0.0144124 0.2122011 -0.3144124 -0.01236045 0.1897485 -0.2876395 -0.01233834 0.1896373 -0.2876616 -0.0147593 0.2113636 -0.2852407 -0.01233834 0.2103627 -0.2876616 -0.0146864 0.2115785 -0.2853136 -0.01231139 0.2104729 -0.2876886 -0.01460415 0.2117899 -0.2853958 0.01451277 0.1880024 -0.3145128 0.01227962 0.1894181 -0.3122797 0.0144124 0.1877989 -0.3144124 0.01224315 0.1893107 -0.3122432 0.01430332 0.1876 -0.3143033 0.01220208 0.189205 -0.3122021 0.0141856 0.187406 -0.3141856 0.01215636 0.1891012 -0.3121564 0.01405954 0.1872174 -0.3140596 0.01392543 0.1870344 -0.3139255 0.01210618 0.1889994 -0.3121062 0.01378339 0.1868575 -0.3137834 0.01199758 0.1854872 -0.3119976 0.01109999 0.1879483 -0.3111 0.0115785 0.1853136 -0.3115785 0.01089876 0.1878436 -0.3108988 0.01114583 0.1851772 -0.3111459 0.01068919 0.1877568 -0.3106892 0.01070296 0.185079 -0.310703 -0.01199758 0.2145128 -0.2880024 -0.01109999 0.2120516 -0.2889 -0.0115785 0.2146864 -0.2884215 -0.01089876 0.2121564 -0.2891012 -0.01114583 0.2148228 -0.2888541 -0.01068919 0.2122431 -0.2893108 -0.01070296 0.2149209 -0.2892971 0.01070296 0.2149209 -0.310703 0.01114583 0.2148228 -0.3111459 0.0115785 0.2146864 -0.3115785 0.01199758 0.2145128 -0.3119976 0.01430332 0.2124 -0.3143033 0.0141856 0.2125939 -0.3141856 0.01405954 0.2127826 -0.3140596 0.01392543 0.2129656 -0.3139255 0.01378339 0.2131425 -0.3137834 -0.01231139 0.189527 -0.2876886 -0.01227962 0.1894181 -0.2877203 -0.01224315 0.1893107 -0.2877568 -0.01220208 0.189205 -0.2877979 0.01205164 0.1888999 -0.3120517 0.01199281 0.188803 -0.3119928 0.0134769 0.186523 -0.3134769 -0.01047289 0.1876885 -0.2895271 -0.01068919 0.1877568 -0.2893108 -0.01089876 0.1878436 -0.2891012 -0.01451277 0.2119976 -0.2854872 -0.01227962 0.2105818 -0.2877203 -0.0144124 0.2122011 -0.2855876 -0.01224315 0.2106892 -0.2877568 -0.01430332 0.2124 -0.2856966 -0.01220208 0.2107949 -0.2877979 -0.0141856 0.2125939 -0.2858144 -0.01215636 0.2108988 -0.2878436 -0.01405954 0.2127826 -0.2859404 0.0134769 0.2134769 -0.3134769 -0.01392543 0.2129656 -0.2860745 -0.01210618 0.2110005 -0.2878938 -0.01378339 0.2131425 -0.2862166 0.01239997 0.2143033 -0.3124 0.01278257 0.2140595 -0.3127826 0.01314246 0.2137834 -0.3131425 0.01192975 0.1887087 -0.3119298 0.01186269 0.1886172 -0.3118627 0.01314246 0.1862165 -0.3131425 0.0117917 0.1885287 -0.3117917 0.01278257 0.1859404 -0.3127826 0.01163846 0.1883615 -0.3116385 0.01239997 0.1856966 -0.3124 0.01147121 0.1882082 -0.3114712 0.01129126 0.1880702 -0.3112913 -0.01215636 0.1891012 -0.2878436 -0.01210618 0.1889994 -0.2878938 -0.01205164 0.1888999 -0.2879483 -0.01205164 0.2111 -0.2879483 -0.01199281 0.211197 -0.2880071 -0.0134769 0.2134769 -0.2865231 -0.01192975 0.1887087 -0.2880702 -0.01199281 0.188803 -0.2880071 -0.01192975 0.2112913 -0.2880702 -0.01186269 0.2113828 -0.2881373 -0.01314246 0.2137834 -0.2868575 -0.0117917 0.2114712 -0.2882083 -0.01278257 0.2140595 -0.2872174 -0.01163846 0.2116385 -0.2883615 -0.01239997 0.2143033 -0.2876 -0.01147121 0.2117917 -0.2885288 -0.01129126 0.2119297 -0.2887087 -0.01047289 0.2123114 -0.2895271 -0.01025146 0.2123605 -0.2897485 -0.01025319 0.2149802 -0.2897468 -0.01002657 0.2123901 -0.2899734 -0.009799957 0.215 -0.2902 0.009799957 0.215 -0.3098 0.01025319 0.2149802 -0.3102532 0.01047289 0.1876885 -0.3104729 0.01025146 0.1876395 -0.3102515 0.01025319 0.1850197 -0.3102532 0.01002657 0.1876099 -0.3100266 0.009799957 0.1876 -0.3098 -0.009799957 0.1876 -0.2902 -0.01002657 0.1876099 -0.2899734 -0.01025146 0.1876395 -0.2897485 -0.01109999 0.1879483 -0.2889 -0.01129126 0.1880702 -0.2887087 -0.01147121 0.1882082 -0.2885288 -0.01163846 0.1883615 -0.2883615 -0.0117917 0.1885287 -0.2882083 -0.01186269 0.1886172 -0.2881373</float_array>
          <technique_common>
            <accessor source="#chassis_default_as_machined__28-mesh-positions-array" count="720" stride="3">
              <param name="X" type="float"/>
              <param name="Y" type="float"/>
              <param name="Z" type="float"/>
            </accessor>
          </technique_common>
        </source>
        <source id="chassis_default_as_machined__28-mesh-normals">
          <float_array id="chassis_default_as_machined__28-mesh-normals-array" count="3486">0.999048 -0.04362529 0 0.9990504 -0.04357087 0 0.9914513 -0.130477 0 0.9914433 -0.1305386 0 0.9762883 -0.2164745 0 0.976299 -0.2164262 0 0.9537179 -0.3007028 0 0.9537154 -0.300711 0 0.9238709 -0.3827043 0 0.923889 -0.3826608 0 0.8870085 -0.4617531 0 0.8870319 -0.4617083 0 0.843382 -0.5373145 0 0.8433778 -0.537321 0 0.7933548 -0.6087595 0 0.7372933 -0.6755729 0 0.7372867 -0.67558 0 0.6755748 -0.7372915 0 0.6755671 -0.7372985 0 0.6087595 -0.7933548 0 0.6087691 -0.7933474 0 0.5373145 -0.843382 0 0.5373044 -0.8433884 0 0.4617186 -0.8870266 0 0.461754 -0.8870081 0 0.3826811 -0.9238806 0 0.3826951 -0.9238747 0 0.3006964 -0.9537199 0 0.3006899 -0.953722 0 0.2164632 -0.9762908 0 0.2164564 -0.9762923 0 0.1305102 -0.991447 0 0.1305176 -0.991446 0 0.04363399 -0.9990476 0 0.04363059 -0.9990478 0 -0.04363399 -0.9990476 0 -0.04362815 -0.9990479 0 -0.1305249 -0.9914451 0 -0.1305102 -0.991447 0 -0.2164632 -0.9762908 0 -0.2164443 -0.976295 0 -0.3006964 -0.9537199 0 -0.3006899 -0.953722 0 -0.3827012 -0.9238722 0 -0.3826749 -0.923883 0 -0.4617419 -0.8870144 0 -0.461754 -0.8870081 0 -0.5372887 -0.8433985 0 -0.5373044 -0.8433884 0 -0.6087321 -0.793376 0 -0.6087691 -0.7933474 0 -0.6756032 -0.7372654 0 -0.675624 -0.7372465 0 -0.7372648 -0.6756039 0 -0.7372583 -0.675611 0 -0.7933548 -0.6087595 0 -0.843382 -0.5373145 0 -0.8434036 -0.5372804 0 -0.8870085 -0.4617531 0 -0.9238911 -0.3826557 0 -0.9238688 -0.3827094 0 -0.9537179 -0.3007028 0 -0.9537154 -0.300711 0 -0.9763004 -0.2164202 0 -0.976299 -0.2164262 0 -0.9914367 -0.1305891 0 -0.9914507 -0.1304825 0 -0.999048 -0.04362529 0 -0.9990479 -0.04362773 0 -0.999048 0.04362529 0 -0.999048 0.04362654 0 -0.9914509 0.1304807 0 -0.9914359 0.1305946 0 -0.9763011 0.2164172 0 -0.9762997 0.2164232 0 -0.9537154 0.300711 0 -0.9537141 0.3007151 0 -0.9238709 0.3827043 0 -0.923889 0.3826608 0 -0.8870085 0.4617531 0 -0.8434161 0.5372611 0 -0.843382 0.5373145 0 -0.7933496 0.6087664 0 -0.7933443 0.6087734 0 -0.7372648 0.6756039 0 -0.7372583 0.675611 0 -0.6756471 0.7372252 0 -0.6756032 0.7372654 0 -0.6087691 0.7933474 0 -0.6087141 0.7933897 0 -0.5373145 0.843382 0 -0.5372786 0.843405 0 -0.4617764 0.8869963 0 -0.4617475 0.8870114 0 -0.3826811 0.9238806 0 -0.3826951 0.9238747 0 -0.3006964 0.9537199 0 -0.3006899 0.953722 0 -0.2164308 0.976298 0 -0.2164394 0.9762961 0 -0.1305312 0.9914443 0 -0.130546 0.9914423 0 -0.04361033 0.9990487 0 -0.04361444 0.9990485 0 0.04361283 0.9990486 0 0.04361444 0.9990485 0 0.1305386 0.9914433 0 0.1305312 0.9914443 0 0.2164428 0.9762954 0 0.2164394 0.9762961 0 0.3006964 0.9537199 0 0.3006899 0.953722 0 0.3827012 0.9238722 0 0.3826749 0.923883 0 0.4617764 0.8869963 0 0.4617242 0.8870236 0 0.5373145 0.843382 0 0.5373044 0.8433884 0 0.6087691 0.7933474 0 0.6087416 0.7933686 0 0.6755903 0.7372772 0 0.6755748 0.7372915 0 0.7372933 0.6755729 0 0.7372867 0.67558 0 0.7933496 0.6087664 0 0.7933443 0.6087734 0 0.8433902 0.5373016 0 0.843382 0.5373145 0 0.8870319 0.4617083 0 0.8870085 0.4617531 0 0.9238911 0.3826557 0 0.9238688 0.3827094 0 0.9537154 0.300711 0 0.9537141 0.3007151 0 0.9763011 0.2164172 0 0.9762876 0.2164775 0 0.9914435 0.1305367 0 0.9914507 0.1304825 0 0.9990505 0.04356837 0 0.999048 0.04362654 0 0.9990455 -0.04368281 0 0.9990504 -0.04356896 0 0.9914438 -0.1305349 0 0.9763004 -0.2164202 0 0.9238911 -0.3826557 0 0.8870116 -0.4617473 0 0.8433562 -0.5373551 0 0.7933602 -0.6087527 0 0.7372997 -0.6755658 0 0.7372648 -0.6756039 0 0.6756032 -0.7372654 0 0.6087506 -0.7933618 0 0.4617129 -0.8870295 0 0.4617419 -0.8870144 0 0.3827012 -0.9238722 0 0.2164598 -0.9762916 0 0.2164511 -0.9762935 0 0.1305211 -0.9914456 0 0.1305137 -0.9914466 0 0.04363238 -0.9990477 0 -0.04363238 -0.9990477 0 -0.04362905 -0.9990479 0 -0.1305285 -0.9914447 0 -0.1305137 -0.9914466 0 -0.2164598 -0.9762916 0 -0.2164391 -0.9762961 0 -0.3826811 -0.9238806 0 -0.4617363 -0.8870173 0 -0.5373145 -0.843382 0 -0.6087781 -0.7933406 0 -0.6755748 -0.7372915 0 -0.6756317 -0.7372394 0 -0.7372997 -0.6755658 0 -0.7372364 -0.6756349 0 -0.7933602 -0.6087527 0 -0.8434079 -0.537274 0 -0.8869882 -0.4617921 0 -0.8870319 -0.4617083 0 -0.9238709 -0.3827043 0 -0.9537342 -0.300651 0 -0.9762883 -0.2164745 0 -0.9914511 -0.1304788 0 -0.9990479 -0.04362589 0 -0.9762889 0.2164715 0 -0.9537317 0.3006591 0 -0.9537167 0.3007069 0 -0.8870349 0.4617024 0 -0.8869851 0.461798 0 -0.8434119 0.5372675 0 -0.8433902 0.5373016 0 -0.7372429 0.6756278 0 -0.7372933 0.6755729 0 -0.6755826 0.7372843 0 -0.6087231 0.793383 0 -0.5372887 0.8433985 0 -0.4617587 0.8870056 0 -0.4617531 0.8870085 0 -0.3827012 0.9238722 0 -0.2164221 0.9763 0 -0.2164428 0.9762954 0 -0.1305477 0.9914421 0 -0.04361283 0.9990486 0 0.04361534 0.9990484 0 0.1305403 0.991443 0 0.2164341 0.9762972 0 0.3826811 0.9238806 0 0.4617587 0.8870056 0 0.4617298 0.8870207 0 0.6087506 0.7933618 0 0.675611 0.7372583 0 0.7372713 0.6755968 0 0.8433861 0.5373081 0 0.8433643 0.5373422 0 0.8870349 0.4617024 0 0.9238709 0.3827043 0 0.9537167 0.3007069 0 0.9762889 0.2164715 0 0.9990455 0.04368221 0 0 -0.02180415 0.9997624 -1.7556e-5 -0.06542366 0.9978576 1.74405e-5 -0.0218057 0.9997622 0 -0.06542819 0.9978573 0 -0.1088778 0.9940552 -1.72148e-5 -0.1521089 0.9883638 1.72124e-5 -0.1089002 0.9940527 0 -0.1521292 0.9883607 0 -0.1950494 0.9807935 -1.73255e-5 -0.2376445 0.9713522 1.73185e-5 -0.1950699 0.9807893 0 -0.2376327 0.9713551 0 -0.2799487 0.9600151 -1.73197e-5 -0.3214614 0.9469227 1.73076e-5 -0.2798864 0.9600332 0 -0.3214353 0.9469316 0 -0.3624739 0.931994 -1.71983e-5 -0.4027623 0.9153047 1.71878e-5 -0.3624321 0.9320102 0 -0.4027516 0.9153093 0 -0.4422326 0.8969004 -1.74136e-5 -0.4809522 0.8767468 1.74019e-5 -0.4423567 0.8968392 0 -0.4809381 0.8767546 0 -0.5189188 0.8548236 -1.71168e-5 -0.5554651 0.83154 1.73675e-5 -0.5912475 0.8064903 1.71028e-5 -0.5188344 0.8548748 0 -0.5555721 0.8314685 0 -0.5913142 0.8064413 -1.73833e-5 -0.6258912 0.7799105 0 -0.6259878 0.7798329 0 -0.675586 0.7372812 0 -0.6756363 0.7372352 0 -0.7372601 0.6756091 0 -0.7373102 0.6755543 0 -0.793391 0.6087123 0 -0.7933727 0.6087362 0 -0.8433725 0.5373294 0 -0.8433859 0.5373084 0 -0.8870393 0.461694 0 -0.8869531 0.4618597 0 -0.9238706 0.3827052 0 -0.9239061 0.3826193 0 -0.9537334 0.3006536 0 -0.9537321 0.3006578 0 -0.9762917 0.2164591 0 -0.9762778 0.216522 0 -0.9914454 0.1305226 0 -0.9914496 0.1304906 0 -0.9990471 0.04364699 0 -0.9990451 0.04369193 0 -1 -1.22702e-6 0 -1 -2.04671e-7 0 -1 0 0 -0.6256644 0.7800924 0 -0.6756158 0.737254 0 -0.6755402 0.7373232 0 -0.7371304 0.6757506 0 -0.7373698 0.6754893 0 -0.7934723 0.6086065 0 -0.7933025 0.6088278 0 -0.8433878 0.5373055 0 -0.8434295 0.5372401 0 -0.8869786 0.4618105 0 -0.8870294 0.4617131 0 -0.9238901 0.3826581 0 -0.9239484 0.3825174 0 -0.9536555 0.3009007 0 -0.9537774 0.300514 0 -0.9763388 0.2162472 0 -0.9763062 0.2163943 0 -0.9913998 0.1308682 0 -0.9914699 0.1303366 0 -0.999047 0.04364973 0 -0.9990456 0.04368162 0 -0.6259567 0.7798579 0 -0.591475 0.8063234 0 -0.5915576 0.8062628 0 -0.5555151 0.8315066 0 -0.5557872 0.8313247 0 -0.5185599 0.8550414 0 -0.5184448 0.8551111 0 -0.4811535 0.8766365 0 -0.481218 0.876601 0 -0.4423838 0.8968259 0 -0.442441 0.8967977 0 -0.4027639 0.915304 0 -0.4026581 0.9153504 0 -0.3624657 0.9319971 0 -0.362223 0.9320915 0 -0.3215374 0.9468969 0 -0.3216993 0.946842 0 -0.2798342 0.9600484 0 -0.2797474 0.9600737 0 -0.2376979 0.9713391 0 -0.2378144 0.9713106 0 -0.1950277 0.9807978 0 -0.109022 0.9940394 0 -0.1521373 0.9883595 0 -0.1520658 0.9883704 0 -0.1949529 0.9808127 0 -0.02181154 0.9997622 0 -0.02180218 0.9997623 0 -0.06541961 0.9978579 0 -0.065418 0.997858 0 -0.1090214 0.9940395 1.95949e-6 0 1 -1.35957e-7 0 1 2.03186e-6 0 1 -1.04645e-6 0 1 1.3596e-7 0 1 2.09289e-6 0 1 0 0 1 -1.62609e-7 0 1 -2.09282e-6 0 1 0 0 1 -1.36161e-6 0 1 -1.96386e-6 0 1 3.7299e-7 0 1 1.96374e-6 0 1 2.4424e-7 0 1 -2.03186e-6 0 1 1.04644e-6 0 1 2.21774e-7 0 1 7.72585e-7 0 1 -2.85431e-7 0 1 0 0 1 1.98048e-6 0 1 -1.71451e-6 0 1 -1.03013e-6 0 1 6.19843e-7 0 1 -4.64865e-7 0 1 1.77113e-7 0 1 -7.72578e-7 0 1 2.85425e-7 0 1 1.62608e-7 0 1 -2.23203e-7 0 1 4.64828e-7 0 1 -2.21795e-7 0 1 -1.7712e-7 0 1 1.03006e-6 0 1 -6.19794e-7 0 1 4.09775e-7 0 1 1.11583e-6 0 1 2.98529e-7 0 1 -2.98534e-7 0 1 -1.32928e-6 0 1 7.13657e-7 0 1 -2.15793e-6 0 1 -8.09219e-7 0 1 1.19075e-6 0 1 2.15785e-6 0 1 -9.39583e-7 0 1 4.30911e-7 0 1 -7.77247e-7 0 1 4.86407e-7 0 1 1.4117e-7 0 1 -1.42733e-6 0 1 1.32928e-6 0 1 -3.13303e-7 0 1 -4.03917e-7 0 1 -4.3074e-7 0 1 3.66495e-7 0 1 -1.19075e-6 0 1 8.61451e-7 0 1 1.6983e-7 0 1 -9.72853e-7 0 1 7.77242e-7 0 1 -2.82338e-7 0 1 1.42733e-6 0 1 -3.13296e-7 0 1 -7.13684e-7 0 1 -4.8862e-7 0 1 8.61546e-7 0 1 -1.6983e-7 0 1 7.77208e-7 0 1 -4.86427e-7 0 1 9.72853e-7 0 1 -7.77236e-7 0 1 -4.3073e-7 0 1 -0.7071068 0 0.7071068 -0.7070195 -5.58274e-4 0.7071939 -0.7072115 0 0.7070021 -0.7071024 2.7916e-4 0.7071111 -0.7070806 0 0.7071329 -0.7070894 0 0.7071242 -0.707106 0 0.7071076 -0.7071052 0 0.7071084 -0.7071679 -2.79189e-4 0.7070457 -0.7070893 5.58329e-4 0.7071242 -0.7070893 -2.79165e-4 0.7071242 -0.707194 0 0.7070195 -0.7070543 5.58302e-4 0.7071591 -0.7070283 1.96261e-5 0.7071853 -0.7071417 2.79199e-4 0.7070719 -0.7072287 0 0.7069849 -0.7071068 -2.78608e-4 0.7071068 -0.7071067 5.60528e-4 0.7071067 -0.7071591 0 0.7070546 -0.7070366 -5.60473e-4 0.7071768 -0.7070367 0 0.7071769 -0.707072 2.78622e-4 0.7071416 -0.7070545 0 0.7071592 -0.7070719 0 0.7071417 -0.7070718 5.58343e-4 0.7071416 -0.7071635 2.79191e-4 0.70705 -0.7070889 -0.001116633 0.7071238 -0.7070719 2.79172e-4 0.7071416 -0.7071124 0 0.7071012 -0.7070987 0 0.7071149 -0.7071234 -4.07882e-4 0.7070901 -0.7071939 -2.78683e-4 0.7070197 -0.7070016 5.6039e-4 0.7072117 -0.7071765 0 0.7070371 -0.7071419 0 0.7070718 -0.7070372 0 0.7071765 -0.7071765 0 0.7070372 -0.7070721 2.7761e-4 0.7071415 -0.7070361 -5.64613e-4 0.7071773 -0.7071067 -5.64782e-4 0.7071067 -0.7071762 0 0.7070374 -0.7071774 0 0.7070362 -0.7070721 -2.77583e-4 0.7071415 -0.7073186 0 0.7068949 -0.7070721 0 0.7071415 -0.707248 0 0.7069656 -0.7070721 -2.7761e-4 0.7071415 -0.7071417 -2.79172e-4 0.7070719 -0.7071416 0 0.707072 -0.707072 0 0.7071416 -0.7071067 -5.60528e-4 0.7071067 -0.7071415 0 0.7070721 -0.7071774 0 0.7070361 -0.7070361 -5.64838e-4 0.7071773 -0.7071068 2.77569e-4 0.7071068 -0.7071978 0 0.7070158 -0.7070536 -7.09323e-5 0.70716 -0.7070895 -1.73323e-5 0.7071242 -0.7070891 0 0.7071245 -0.707096 -2.16677e-5 0.7071177 -0.7070806 3.49279e-5 0.707133 -0.7070719 6.98688e-5 0.7071418 -0.7072029 0 0.7070108 -0.7070893 6.98567e-5 0.7071242 -0.7070457 0 0.7071679 -0.7070548 -3.46663e-5 0.7071588 -0.70716 0 0.7070536 -0.7072043 0 0.7070093 -0.7070891 7.09359e-5 0.7071245 -0.7070468 -4.44158e-5 0.7071668 -0.7071068 2.78663e-4 0.7071068 -0.7071773 5.64838e-4 0.7070361 -0.7071068 -2.77569e-4 0.7071068 -0.7070361 5.64838e-4 0.7071773 -0.7071762 -2.77569e-4 0.7070374 -0.7070374 -2.77569e-4 0.7071762 -0.7070362 0 0.7071774 -0.7070721 0 0.7071415 -0.7072448 0 0.7069688 -0.7071067 5.71515e-4 0.7071067 -0.7069688 0 0.7072448 -0.7071782 0 0.7070354 -0.7069343 0 0.7072793 -0.707321 0 0.7068925 -0.7071759 0 0.7070378 -0.7071068 2.76025e-4 0.7071068 -0.7070353 -5.71457e-4 0.7071781 -0.7071068 2.75998e-4 0.7071068 -0.7070354 0 0.7071782 -0.7070032 2.76065e-4 0.7072103 -0.7071781 -5.71226e-4 0.7070353 -0.7071781 -5.71457e-4 0.7070353 -0.7070723 0 0.7071413 -0.7070354 0 0.7071782 -0.7070723 2.76038e-4 0.7071413 -0.7071758 -2.76025e-4 0.7070378 -0.7070352 -5.71572e-4 0.7071781 -0.7071067 5.71399e-4 0.7071067 -0.7070378 0 0.7071759 -0.7071068 2.73966e-4 0.7071068 -0.7071067 -5.80309e-4 0.7071067 -0.7072095 2.73953e-4 0.707004 -0.7071242 0 0.7070893 -0.7071418 0 0.7070719 -0.7070893 -6.98567e-5 0.7071242 -0.7071592 6.98567e-5 0.7070544 -0.7072095 -2.73953e-4 0.707004 -0.7070343 0 0.7071793 -0.7070383 0 0.7071753 -0.7071415 1.38655e-4 0.7070721 -0.7070361 0 0.7071774 -0.7070643 -5.53342e-4 0.7071491 -0.7071418 1.39724e-4 0.7070719 -0.7071423 -7.0927e-5 0.7070714 -0.7070721 -6.93344e-5 0.7071415 -0.7071955 1.41865e-4 0.7070181 -0.7070721 6.93344e-5 0.7071415 -0.7070891 -1.41872e-4 0.7071245 -0.7071068 6.9331e-5 0.7071068 -0.7071068 -1.41875e-4 0.7071068 -0.7071242 0 0.7070895 -0.7073186 0 0.706895 -0.7070376 -1.07159e-4 0.707176 -0.7071793 -5.80369e-4 0.7070342 -0.7071067 5.71169e-4 0.7071067 -0.707124 -6.88735e-5 0.7070896 -0.7072108 5.55219e-4 0.7070026 -0.7071068 -2.75998e-4 0.7071068 -0.7068924 -5.71457e-4 0.7073209 -0.7071413 0 0.7070723 -0.7068924 5.71457e-4 0.7073209 -0.7069638 5.71515e-4 0.7072495 -0.7070896 -6.88768e-5 0.707124 -0.7070342 -2.90244e-4 0.7071793 -0.7069639 0 0.7072497 -0.7071843 -6.88726e-5 0.7070293 -0.7072519 2.90214e-4 0.7069616 -0.7070642 0 0.7071495 -0.7071434 0 0.7070702 -0.7070812 0 0.7071324 -0.7070519 0 0.7071617 -0.7071239 3.41507e-5 0.7070897 -0.7070702 0 0.7071434 -0.7070935 7.09292e-5 0.7071201 -0.7071415 -1.38655e-4 0.7070721 -0.7070361 5.64725e-4 0.7071773 -0.7069661 -4.46503e-4 0.7072474 -0.7071067 5.80071e-4 0.7071067 -0.7070896 6.88835e-5 0.7071241 -0.7073243 -2.90125e-4 0.7068892 -0.7071154 0 0.7070983 -0.7070702 1.46391e-4 0.7071434 -0.7071324 0 0.7070811 -0.7069604 0 0.7072532 -0.7070854 0 0.7071282 -0.7071617 0 0.7070519 -0.7070624 3.5476e-5 0.7071511 -0.7071378 -3.54704e-5 0.7070757 -0.7071155 0 0.7070981 -0.7070971 -3.87491e-5 0.7071166 -0.7070981 0 0.7071155 -0.7070544 -1.7465e-5 0.7071592 -0.7071636 0 0.70705 -0.7071052 0 0.7071084 -0.7071133 0 0.7071003 -0.7070893 0 0.7071242 -0.7070239 -3.4932e-5 0.7071898 -0.7071068 6.98653e-5 0.7071068 -0.7071592 -6.98498e-5 0.7070544 -0.7071483 0 0.7070653 -0.7071418 -1.39696e-4 0.7070719 -0.7070713 -7.09484e-5 0.7071423 -0.7071068 -6.9331e-5 0.7071068 -0.7070181 1.41886e-4 0.7071955 -0.7071242 -6.93327e-5 0.7070895 -0.7070358 0 0.7071778 -0.7072116 3.39186e-4 0.7070019 -0.7071378 3.54704e-5 0.7070757 -0.707133 0 0.7070806 -0.7071416 -2.46973e-5 0.7070721 -0.7071024 0 0.7071112 -0.7070566 1.74651e-5 0.707157 -0.7070937 0 0.7071199 -0.7071084 0 0.7071052 -0.7070544 0 0.7071592 -0.7071679 3.49253e-5 0.7070457 -0.7071177 0 0.7070959 0.7070894 0 0.7071242 0.7071011 0 0.7071124 0.7071141 0 0.7070996 0.7070981 0 0.7071155 0.7072202 0 0.7069934 0.7071417 1.74499e-5 0.7070719 0.7069149 0 0.7072986 0.7071068 1.74474e-5 0.7071068 0.7070719 0 0.7071417 0.7071679 -1.74493e-5 0.7070457 0.7070545 0 0.7071592 0.707037 -1.74456e-5 0.7071766 0.707037 -1.22144e-4 0.7071766 0.7070894 -8.70757e-6 0.7071242 0.7071068 1.22591e-4 0.7071068 0.7071416 -8.70778e-6 0.707072 0.7071068 0 0.7071068 0.707072 -3.48277e-5 0.7071416 0.7071242 8.72347e-6 0.7070893 0.7071068 8.70821e-6 0.7071068 0.7071419 0 0.7070718 0.7071068 3.48328e-5 0.7071068 0.7069668 1.22543e-4 0.7072468 0.7070294 1.97634e-5 0.7071842 0.7071068 6.07182e-5 0.7071068 0.7070361 -1.05928e-4 0.7071774 0.7070721 0 0.7071415 0.7071068 5.29483e-5 0.7071068 0.7071415 -8.67445e-6 0.7070721 0.7070894 -1.74478e-5 0.7071242 0.7071592 6.97843e-5 0.7070545 0.7071722 8.7246e-6 0.7070413 0.7069498 1.74444e-5 0.7072638 0.7071504 -8.72487e-6 0.7070632 0.7071076 0 0.707106 0.7070894 1.74478e-5 0.7071242 0.7071679 -8.72465e-6 0.7070457 0.7071218 -6.81603e-6 0.7070918 0.7071591 -8.70757e-6 0.7070546 0.7068966 -7.00591e-5 0.7073169 0.7071765 -3.48294e-5 0.7070372 0.7071068 -6.96657e-5 0.7071068 0.7071762 0 0.7070374 0.7071774 -5.29642e-5 0.7070361 0.7070721 8.6736e-6 0.7071415 0.7070362 1.76512e-5 0.7071774 0.7071415 -4.3368e-6 0.7070721 0.7071068 -7.94383e-5 0.7071068 0.7071068 -4.33744e-6 0.7071068 0.7071068 9.70913e-5 0.7071068 0.7070894 8.72476e-6 0.7071243 0.7071591 8.70757e-6 0.7070546 0.707072 3.48277e-5 0.7071416 0.7071068 -7.00661e-5 0.7071068 0.7070721 6.07212e-5 0.7071415 0.7070362 7.05766e-5 0.7071774 0.707248 -1.23571e-4 0.7069656 0.7070027 -8.67445e-6 0.7072109 0.7071068 4.31289e-6 0.7071068 0.7071068 -1.78526e-5 0.7071068 0.7070378 4.31289e-6 0.7071759 0.7071068 8.0353e-5 0.7071068 0.7071759 -4.31289e-5 0.7070378 0.7070354 -9.81994e-5 0.7071782 0.7071413 -1.72507e-5 0.7070723 0.7069639 0 0.7072497 0.7071413 4.31268e-5 0.7070723 0.7071411 -2.56856e-5 0.7070725 0.7071068 6.34713e-5 0.7071068 0.7070726 0 0.7071411 0.7071458 0 0.7070678 0.7071955 2.21664e-6 0.7070181 0.7071089 -3.79155e-6 0.7071046 0.7071157 3.32525e-6 0.707098 0.7070755 -5.45063e-6 0.7071381 0.7070678 0 0.7071458 0.7071245 2.21686e-6 0.7070891 0.707174 8.6655e-6 0.7070397 0.7071068 9.97561e-6 0.7071068 0.7070755 2.69146e-6 0.7071381 0.7070457 1.74665e-5 0.7071679 0.7071068 7.64076e-6 0.7071068 0.7071068 -8.7323e-6 0.7071068 0.707133 1.09147e-6 0.7070806 0.7070374 4.33744e-5 0.7071762 0.7071068 1.72499e-5 0.7071068 0.7071068 -4.31331e-5 0.7071068 0.7071068 -8.0353e-5 0.7071068 0.7071758 3.44964e-5 0.7070378 0.7069639 -3.57197e-5 0.7072497 0.7071068 8.62494e-6 0.7071068 0.7071416 -6.09485e-5 0.707072 0.7071068 1.23546e-4 0.7071068 0.7070721 8.67531e-6 0.7071415 0.7071774 1.76477e-5 0.7070362 0.7070027 -4.33765e-6 0.7072109 0.7071774 -7.94304e-5 0.7070362 0.7071068 -4.33659e-6 0.7071068 0.7071774 -6.17668e-5 0.7070362 0.7071068 1.81347e-5 0.7071068 0.7069639 -8.03693e-5 0.7072497 0.7070896 1.0762e-5 0.707124 0.7071068 -8.18653e-6 0.7071068 0.7070544 9.82505e-6 0.7071592 0.7071679 -8.73133e-6 0.7070457 0.7071242 -8.73252e-6 0.7070893 0.7070719 1.09159e-6 0.7071418 0.706964 -1.78562e-5 0.7072497 0.7072103 4.31268e-6 0.7070033 0.7070378 -4.31289e-5 0.7071759 0.7071782 5.35633e-5 0.7070354 0.7071758 5.17446e-5 0.7070378 0.7070354 -1.51793e-4 0.7071782 0.7070378 -2.15687e-5 0.7071759 0.7071415 -1.08324e-5 0.7070721 0.7070362 -4.41192e-5 0.7071774 0.7070041 7.61887e-5 0.7072095 0.7071068 -2.56843e-5 0.7071068 0.7069617 6.34844e-5 0.7072519 0.7072095 0 0.7070041 0.7071941 -2.18291e-6 0.7070195 0.7070536 -2.21708e-6 0.70716 0.7070981 -2.16657e-6 0.7071154 0.7070895 1.51658e-5 0.7071242 0.7070713 1.10857e-5 0.7071423 0.7071068 -1.73327e-5 0.7071068 0.7070358 -1.33021e-5 0.7071778 0.7071242 1.51665e-5 0.7070895 0.7070362 6.17668e-5 0.7071774 0.7070845 -3.12498e-5 0.7071291 0.7072519 4.53274e-5 0.7069618 0.7071782 3.57016e-5 0.7070354 0.7070379 -1.72213e-5 0.7071757 0.7073244 -5.43984e-5 0.7068892 0.7070897 1.81434e-5 0.7071239 0.7070702 1.14368e-5 0.7071434 0.7071239 -1.49409e-5 0.7070897 0.706997 -1.37256e-5 0.7072166 0.7070983 1.06727e-6 0.7071154 0.7071434 -2.28713e-6 0.7070702 0.7070447 1.66277e-6 0.7071689 0.7070721 4.77142e-5 0.7071415 0.7071413 -5.17521e-5 0.7070723 0.7071068 1.51778e-4 0.7071068 0.7070723 2.15655e-5 0.7071413 0.7072497 -8.03368e-5 0.706964 0.7070723 3.45048e-5 0.7071413 0.7073209 -3.56944e-5 0.7068926 0.7071068 8.62662e-6 0.7071068 0.707321 -8.03449e-5 0.7068925 0.7069656 -4.41324e-5 0.707248 0.7072296 7.61581e-5 0.7069841 0.7071793 4.53413e-5 0.7070342 0.7069639 3.57197e-5 0.7072497 0.7071412 1.07617e-5 0.7070723 0.7071068 -4.53367e-5 0.7071068 0.7070812 0 0.7071324 0.7071617 1.14359e-5 0.7070519 0.7070897 5.3363e-6 0.7071239 0.7070885 -6.86227e-6 0.7071251 0.7071281 -8.00411e-6 0.7070854 0.7070702 -2.28736e-6 0.7071434 0.70716 1.66254e-6 0.7070536 0.7071068 1.6626e-6 0.7071068 0.7071068 1.20069e-5 0.7071068 0.7071075 -1.05103e-6 0.7071061 0.7071155 -1.09155e-6 0.7070981 0.7070719 -4.09347e-6 0.7071418 0.7071112 0 0.7071025 0.7071117 0 0.707102 0.7070719 0 0.7071418 0.707181 -8.18577e-6 0.7070326 0.7071155 -7.64086e-6 0.7070981 0.7071068 1.74646e-5 0.7071068 0.7071253 -5.45754e-6 0.7070882 0.7071777 -6.64974e-6 0.7070358 0.7071155 5.45776e-6 0.7070981 0.7071398 -1.05098e-6 0.7070738 0.7070741 4.09348e-6 0.7071395 0.707181 0 0.7070326 0.7071052 0 0.7071084 0.7071101 0 0.7071036 0.7070457 8.18744e-6 0.7071679 0.7070806 4.91222e-6 0.707133 0.7071679 -6.5485e-6 0.7070457 0.7071254 -1.25527e-5 0.7070883 0.7071242 -2.18313e-6 0.7070893 0.7071068 -2.2168e-6 0.7071068 0.7070808 1.08336e-5 0.7071328 0.7071777 -4.43316e-6 0.7070358 0.7070375 -6.50042e-6 0.7071762 0.7071777 1.10829e-5 0.7070358 0.7071068 4.33319e-6 0.7071068 0.7070358 -1.77362e-5 0.7071778 0.7071415 -1.51654e-5 0.7070721 0.7073186 6.17668e-5 0.706895 0.7068701 -3.12506e-5 0.7073434 0 -0.02180457 -0.9997622 8.69665e-6 -0.0654087 -0.9978587 -8.69931e-6 -0.02181029 -0.9997621 0 -0.06542587 -0.9978575 0 -0.1087902 -0.9940648 8.69913e-6 -0.1521436 -0.9883584 -8.69546e-6 -0.1087519 -0.9940689 0 -0.1521301 -0.9883605 0 -0.1951206 -0.9807793 8.58996e-6 -0.2376334 -0.9713549 -8.58151e-6 -0.1951526 -0.980773 0 -0.2375426 -0.9713772 0 -0.2797483 -0.9600734 8.69579e-6 -0.3215942 -0.9468776 -8.69344e-6 -0.2798094 -0.9600557 0 -0.3216034 -0.9468744 0 -0.362485 -0.9319896 8.58442e-6 -0.4026192 -0.9153677 -8.57781e-6 -0.3625028 -0.9319828 0 -0.4025599 -0.9153937 0 -0.4423547 -0.8968402 8.57681e-6 -0.480917 -0.8767662 -8.57537e-6 -0.4423937 -0.8968209 0 -0.4810925 -0.8766699 0 -0.5187574 -0.8549215 8.74275e-6 -0.5556395 -0.8314234 -8.45766e-6 -0.5914369 -0.8063514 -8.74105e-6 -0.5187156 -0.854947 0 -0.5555006 -0.8315162 0 -0.5913614 -0.8064067 8.46223e-6 -0.6258944 -0.7799078 0 -0.6256461 -0.7801071 0 -0.6756545 -0.7372184 0 -0.6755092 -0.7373516 0 -0.7373047 -0.6755604 0 -0.7373297 -0.6755332 0 -0.7934168 -0.6086787 0 -0.7932703 -0.6088696 0 -0.8434187 -0.5372569 0 -0.8433738 -0.5373272 0 -0.8870193 -0.4617325 0 -0.8870579 -0.4616584 0 -0.9238923 -0.3826526 0 -0.92387 -0.3827068 0 -0.9537261 -0.300677 0 -0.9537254 -0.300679 0 -0.9762933 -0.2164523 0 -0.9762564 -0.2166187 0 -0.9914362 -0.1305928 0 -0.991464 -0.1303819 0 -0.9990485 -0.04361581 0 -0.999045 -0.04369479 0 0 -1 6.76632e-7 0 -1 -1.38192e-7 0 -1 -1.31707e-6 0 -1 9.31305e-7 0 -1 1.27173e-7 0 -1 1.41291e-7 0 -1 -1.5521e-7 0 -1 -1.46722e-6 0 -1 9.63971e-7 0 -1 2.13204e-7 0 -1 -6.76617e-7 0 -1 1.10553e-6 0 -1 -1.47891e-7 0 -1 -1.24171e-6 0 -1 -1.76788e-7 0 -1 -4.19685e-7 0 -1 6.73201e-7 0 -1 -8.85132e-7 0 -1 2.78025e-6 0 -1 -2.78025e-6 0 -1 1.33138e-6 0 -1 -1.93666e-6 0 -1 1.18014e-6 0 -1 -6.73201e-7 0 -1 -4.82015e-7 0 -1 -1.76782e-7 0 -1 -4.81986e-7 0 -1 -9.68572e-7 0 -1 8.47664e-7 0 -1 -1.68294e-7 0 -1 -1.92528e-7 0 -1 0 0.02180457 -0.9997622 0 0.1520614 -0.9883711 0 0.195208 -0.980762 0 0.3214645 -0.9469217 0 0.3625621 -0.9319597 0 0.4423547 -0.8968402 0 0.5186561 -0.8549829 0 0.6258684 -0.7799287 0 0.6755977 -0.7372705 0 0.6756227 -0.7372477 0 0.7371912 -0.6756842 0 0.7372162 -0.675657 0 0.7933619 -0.6087504 0 0.7933802 -0.6087264 0 0.8434188 -0.5372569 0 0.8434253 -0.5372464 0 0.8869727 -0.4618219 0 0.8870579 -0.4616585 0 0.9238522 -0.3827496 0 0.9239501 -0.3825129 0 0.9536936 -0.3007802 0 0.9536929 -0.3007822 0 0.9763172 -0.2163441 0 0.9763281 -0.2162946 0 0.9914214 -0.1307042 0 0.9914492 -0.1304932 0 0.9990485 -0.04361581 0 0.99905 -0.04358178 8.45766e-6 0.5914369 -0.8063514 -8.45941e-6 0.625686 -0.780075 0 0.591365 -0.8064041 -8.91004e-6 0.5556542 -0.8314135 8.85067e-6 0.5186143 -0.8550083 0 0.5555387 -0.8314908 -8.57926e-6 0.4810542 -0.8766909 8.57888e-6 0.4425747 -0.8967317 0 0.4810227 -0.8767083 -8.58278e-6 0.4025424 -0.9154015 8.57964e-6 0.36258 -0.9319528 0 0.4024854 -0.9154265 8.69344e-6 0.2798094 -0.9600557 -8.69607e-6 0.3216046 -0.9468741 0 0.279815 -0.960054 -8.47192e-6 0.2374516 -0.9713994 8.5892e-6 0.1953276 -0.9807381 0 0.2374346 -0.9714036 8.69546e-6 0.1087519 -0.9940689 -8.69749e-6 0.1521148 -0.9883629 0 0.1087532 -0.9940688 -8.69665e-6 0.0654087 -0.9978587 8.69732e-6 0.02180534 -0.9997622 0 0.06543713 -0.9978567 0 1 0 0 1 1.22702e-6 0 0.02180695 0.9997622 0 0.02180677 0.9997622 0 0.06540584 0.9978588 0 0.06541806 0.997858 0 0.1090263 0.9940389 0 0.109022 0.9940394 0 0.1521056 0.9883643 0 0.1521607 0.9883558 0 0.1948802 0.9808271 0 0.1949875 0.9808058 0 0.2377658 0.9713225 0 0.2377464 0.9713273 0 0.2798039 0.9600571 0 0.2798907 0.9600319 0 0.3215711 0.9468855 0 0.3214734 0.9469187 0 0.362294 0.9320639 0 0.3622527 0.93208 0 0.4028132 0.9152823 0 0.4027639 0.915304 0 0.4423575 0.8968389 0 0.4424673 0.8967847 0 0.4809519 0.876747 0 0.4809759 0.876734 0 0.5187248 0.8549413 0 0.5186533 0.8549847 0 0.5557872 0.8313247 0 0.5556123 0.8314415 0 0.5913568 0.8064101 0 0.591274 0.8064708 0 0.625759 0.7800166 0 0.6259729 0.7798448 0 0.6756158 0.737254 0 0.6756452 0.737227 0 0.7372353 0.6756361 0 0.7373173 0.6755467 0 0.7933705 0.6087392 0 0.7933533 0.6087614 0 0.8433877 0.5373055 0 0.8433337 0.5373904 0 0.8870651 0.4616444 0 0.8870726 0.4616301 0 0.9238528 0.3827482 0 0.9238736 0.3826979 0 0.9537162 0.3007084 0 0.9536865 0.3008027 0 0.976294 0.2164489 0 0.9762837 0.2164952 0 0.9914273 0.1306601 0 0.9914698 0.1303366 0 0.999047 0.04364973 0 0.9990502 0.04357582 0 0.02180665 0.9997623 0 0.1088778 0.9940552 0 0.1950494 0.9807935 0 0.3214703 0.9469197 0 0.3623961 0.9320243 0 0.4422782 0.8968779 0 0.555572 0.8314685 0 0.6259878 0.7798329 0 0.6755575 0.7373074 0 0.6756362 0.7372352 0 0.7372316 0.6756402 0 0.7373103 0.6755543 0 0.7933081 0.6088205 0 0.7933727 0.6087362 0 0.8434243 0.537248 0 0.8433859 0.5373084 0 0.8870393 0.4616941 0 0.8870232 0.461725 0 0.9238302 0.3828025 0 0.9239061 0.3826193 0 0.9537171 0.3007054 0 0.9537321 0.3006578 0 0.9763038 0.2164049 0 0.9763137 0.2163597 0 0.991438 0.1305784 0 0.9914422 0.1305463 0 0.999052 0.04353386 0 0.9990475 0.04363542 -1.73675e-5 0.5912476 0.8064902 1.73851e-5 0.6259565 0.7798579 0 0.5912286 0.8065042 -1.71588e-5 0.5188344 0.8548748 1.71776e-5 0.5556161 0.831439 0 0.5188552 0.8548622 1.7412e-5 0.4809094 0.8767704 -1.74037e-5 0.4424023 0.8968168 0 0.4808623 0.8767963 1.71981e-5 0.4027584 0.9153063 -1.71859e-5 0.3623933 0.9320253 0 0.4027787 0.9152975 -1.73076e-5 0.2798866 0.9600331 1.73203e-5 0.3214727 0.9469189 0 0.2799144 0.960025 1.73267e-5 0.2376618 0.9713479 -1.73185e-5 0.1950699 0.9807893 0 0.2376433 0.9713526 1.73281e-5 0.1521157 0.9883627 -1.72143e-5 0.1089127 0.9940513 0 0.1521034 0.9883646 1.7554e-5 0.06541615 0.9978582 -1.74385e-5 0.0218032 0.9997623 0 0.06542438 0.9978576 0 1 2.61979e-6 0 1 -9.20267e-7 0 0.02180498 -0.9997622 0 0.02180469 -0.9997622 0 0.06541228 -0.9978584 0 0.06542277 -0.9978576 0 0.108901 -0.9940527 0 0.1088926 -0.9940536 0 0.1520991 -0.9883652 0 0.1521142 -0.988363 0 0.1950563 -0.9807921 0 0.1951097 -0.9807814 0 0.2376196 -0.9713583 0 0.2375812 -0.9713677 0 0.2799087 -0.9600267 0 0.2799687 -0.9600092 0 0.3214373 -0.946931 0 0.3213706 -0.9469536 0 0.3624555 -0.9320011 0 0.3625143 -0.9319783 0 0.4027723 -0.9153002 0 0.4027512 -0.9153095 0 0.4423497 -0.8968428 0 0.4422361 -0.8968988 0 0.4809205 -0.8767642 0 0.4808803 -0.8767864 0 0.5187561 -0.8549222 0 0.5187996 -0.854896 0 0.5556663 -0.8314055 0 0.5556087 -0.831444 0 0.5911866 -0.8065348 0 0.5913215 -0.806436 0 0.625944 -0.779868 0 0.6259139 -0.7798922 0 0.6756003 -0.7372681 0 0.6756588 -0.7372146 0 0.7372257 -0.6756466 0 0.7372843 -0.6755828 0 0.7933426 -0.6087755 0 0.7933593 -0.6087537 0 0.8434351 -0.5372312 0 0.8433753 -0.5373252 0 0.8869906 -0.4617876 0 0.8869622 -0.461842 0 0.9238731 -0.3826992 0 0.9239147 -0.3825986 0 0.9536962 -0.300772 0 0.9537579 -0.3005763 0 0.9762784 -0.2165196 0 0.9763025 -0.2164107 0 0.9914541 -0.1304564 0 0.9914433 -0.1305382 0 0.9990482 -0.04362076 0 0.9990454 -0.04368448 1.93738e-6 0 -1 -4.71787e-6 0 -1 4.32185e-6 0 -1 1.13216e-6 0 -1 -1.07848e-6 0 -1 3.8913e-7 0 -1 6.164e-7 0 -1 -4.26243e-6 0 -1 -6.25272e-7 0 -1 -7.30165e-7 0 -1 -9.43722e-7 0 -1 -1.02164e-6 0 -1 3.89076e-7 0 -1 1.9428e-6 0 -1 -1.21087e-6 0 -1 6.29605e-7 0 -1 1.07848e-6 0 -1 -9.90682e-7 0 -1 7.025e-7 0 -1 1.02164e-6 0 -1 -6.14673e-7 0 -1 1.94948e-7 0 -1 8.85927e-7 0 -1 6.14651e-7 0 -1 -1.27694e-7 0 -1 -1.34795e-7 0 -1 -5.10621e-6 0 -1 5.10287e-6 0 -1 2.21381e-7 0 -1 1.94944e-7 0 -1 -7.02595e-7 0 -1 0 -0.9990467 -0.04365682 0 -0.9990506 -0.04356795 0 -0.9914501 -0.1304862 0 -0.9914472 -0.1305084 0 -0.9762912 -0.2164611 0 -0.9763007 -0.216419 0 -0.9537276 -0.3006722 0 -0.9537113 -0.300724 0 -0.9238775 -0.3826887 0 -0.9238545 -0.3827441 0 -0.8870054 -0.4617592 0 -0.8870552 -0.4616634 0 -0.8433513 -0.5373626 0 -0.8433637 -0.5373432 0 -0.7933593 -0.6087537 0 -0.7933934 -0.6087094 0 -0.7372581 -0.6756112 0 -0.7371996 -0.6756751 0 -0.6756327 -0.7372384 0 -0.6755743 -0.737292 0 -0.625965 -0.7798512 0 -0.6259329 -0.7798769 0 -0.5912218 -0.8065091 0 -0.5912863 -0.8064618 0 -0.555657 -0.8314117 0 -0.555618 -0.8314378 0 -0.5187069 -0.8549522 0 -0.5188025 -0.8548942 0 -0.4809243 -0.8767622 0 -0.4809206 -0.8767642 0 -0.4423604 -0.8968374 0 -0.4422668 -0.8968836 0 -0.4027512 -0.9153095 0 -0.4027339 -0.9153172 0 -0.3624437 -0.9320058 0 -0.362385 -0.9320285 0 -0.3214341 -0.946932 0 -0.3214373 -0.946931 0 -0.2799127 -0.9600255 0 -0.1950898 -0.9807855 0 -0.2376678 -0.9713466 0 -0.2376294 -0.9713559 0 -0.2798837 -0.960034 0 -0.02180498 -0.9997622 0 -0.02180469 -0.9997622 0 -0.06541907 -0.9978579 0 -0.06542277 -0.9978576 0 -0.1088897 -0.9940539 0 -0.1089152 -0.994051 0 -0.1521149 -0.9883629 0 -0.1521142 -0.988363 0 -0.195034 -0.9807965</float_array>
          <technique_common>
            <accessor source="#chassis_default_as_machined__28-mesh-normals-array" count="1162" stride="3">
              <param name="X" type="float"/>
              <param name="Y" type="float"/>
              <param name="Z" type="float"/>
            </accessor>
          </technique_common>
        </source>
        <vertices id="chassis_default_as_machined__28-mesh-vertices">
          <input semantic="POSITION" source="#chassis_default_as_machined__28-mesh-positions"/>
        </vertices>
        <triangles count="1448">
          <input semantic="VERTEX" source="#chassis_default_as_machined__28-mesh-vertices" offset="0"/>
          <input semantic="NORMAL" source="#chassis_default_as_machined__28-mesh-normals" offset="1"/>
          <p>0 0 1 0 2 0 1 1 3 1 2 1 2 2 3 2 4 2 3 3 5 3 4 3 4 4 5 4 6 4 5 5 7 5 6 5 6 6 7 6 8 6 7 7 9 7 8 7 8 8 9 8 10 8 9 9 11 9 10 9 10 10 11 10 12 10 11 11 13 11 12 11 12 12 13 12 14 12 13 13 15 13 14 13 14 14 15 14 16 14 15 14 17 14 16 14 16 15 17 15 18 15 17 16 19 16 18 16 18 17 19 17 20 17 19 18 21 18 20 18 20 19 21 19 22 19 21 20 23 20 22 20 22 21 23 21 24 21 23 22 25 22 24 22 24 23 25 23 26 23 25 24 27 24 26 24 26 25 27 25 28 25 27 26 29 26 28 26 28 27 29 27 30 27 29 28 31 28 30 28 30 29 31 29 32 29 31 30 33 30 32 30 32 31 33 31 34 31 33 32 35 32 34 32 34 33 35 33 36 33 35 34 37 34 36 34 36 35 37 35 38 35 37 36 39 36 38 36 38 37 39 37 40 37 39 38 41 38 40 38 40 39 41 39 42 39 41 40 43 40 42 40 42 41 43 41 44 41 43 42 45 42 44 42 44 43 45 43 46 43 45 44 47 44 46 44 46 45 47 45 48 45 47 46 49 46 48 46 48 47 49 47 50 47 49 48 51 48 50 48 50 49 51 49 52 49 51 50 53 50 52 50 52 51 53 51 54 51 53 52 55 52 54 52 54 53 55 53 56 53 55 54 57 54 56 54 56 55 57 55 58 55 57 55 59 55 58 55 58 56 59 56 60 56 59 57 61 57 60 57 60 58 61 58 62 58 61 58 63 58 62 58 62 59 63 59 64 59 63 60 65 60 64 60 64 61 65 61 66 61 65 62 67 62 66 62 66 63 67 63 68 63 67 64 69 64 68 64 68 65 69 65 70 65 69 66 71 66 70 66 70 67 71 67 72 67 71 68 73 68 72 68 72 69 73 69 74 69 73 70 75 70 74 70 74 71 75 71 76 71 75 72 77 72 76 72 76 73 77 73 78 73 77 74 79 74 78 74 78 75 79 75 80 75 79 76 81 76 80 76 80 77 81 77 82 77 81 78 83 78 82 78 82 79 83 79 84 79 83 79 85 79 84 79 84 80 85 80 86 80 85 81 87 81 86 81 86 82 87 82 88 82 87 83 89 83 88 83 88 84 89 84 90 84 89 85 91 85 90 85 90 86 91 86 92 86 91 87 93 87 92 87 92 88 93 88 94 88 93 89 95 89 94 89 94 90 95 90 96 90 95 91 97 91 96 91 96 92 97 92 98 92 97 93 99 93 98 93 98 94 99 94 100 94 99 95 101 95 100 95 100 96 101 96 102 96 101 97 103 97 102 97 102 98 103 98 104 98 103 99 105 99 104 99 104 100 105 100 106 100 105 101 107 101 106 101 106 102 107 102 108 102 107 103 109 103 108 103 108 104 109 104 110 104 109 105 111 105 110 105 110 106 111 106 112 106 111 107 113 107 112 107 112 108 113 108 114 108 113 109 115 109 114 109 114 110 115 110 116 110 115 111 117 111 116 111 116 112 117 112 118 112 117 113 119 113 118 113 118 114 119 114 120 114 119 115 121 115 120 115 120 116 121 116 122 116 121 117 123 117 122 117 122 118 123 118 124 118 123 119 125 119 124 119 124 120 125 120 126 120 125 121 127 121 126 121 126 122 127 122 128 122 127 123 129 123 128 123 128 124 129 124 130 124 129 125 131 125 130 125 130 126 131 126 132 126 131 127 133 127 132 127 132 128 133 128 134 128 133 129 135 129 134 129 134 130 135 130 136 130 135 131 137 131 136 131 136 132 137 132 138 132 137 133 139 133 138 133 138 134 139 134 140 134 139 135 141 135 140 135 140 136 141 136 142 136 141 137 143 137 142 137 142 138 143 138 0 138 143 139 1 139 0 139 144 140 145 140 146 140 145 141 147 141 146 141 146 2 147 2 148 2 147 142 149 142 148 142 148 4 149 4 150 4 149 143 151 143 150 143 150 6 151 6 152 6 151 6 153 6 152 6 152 8 153 8 154 8 153 144 155 144 154 144 154 145 155 145 156 145 155 11 157 11 156 11 156 146 157 146 158 146 157 12 159 12 158 12 158 147 159 147 160 147 159 14 161 14 160 14 160 148 161 148 162 148 161 149 163 149 162 149 162 150 163 150 164 150 163 17 165 17 164 17 164 19 165 19 166 19 165 151 167 151 166 151 166 21 167 21 168 21 167 21 169 21 168 21 168 152 169 152 170 152 169 153 171 153 170 153 170 154 171 154 172 154 171 25 173 25 172 25 172 27 173 27 174 27 173 27 175 27 174 27 174 155 175 155 176 155 175 156 177 156 176 156 176 157 177 157 178 157 177 158 179 158 178 158 178 159 179 159 180 159 179 33 181 33 180 33 180 160 181 160 182 160 181 161 183 161 182 161 182 162 183 162 184 162 183 163 185 163 184 163 184 164 185 164 186 164 185 165 187 165 186 165 186 41 187 41 188 41 187 41 189 41 188 41 188 43 189 43 190 43 189 166 191 166 190 166 190 167 191 167 192 167 191 45 193 45 192 45 192 47 193 47 194 47 193 168 195 168 194 168 194 49 195 49 196 49 195 169 197 169 196 169 196 170 197 170 198 170 197 171 199 171 198 171 198 172 199 172 200 172 199 173 201 173 200 173 200 174 201 174 202 174 201 55 203 55 202 55 202 56 203 56 204 56 203 175 205 175 204 175 204 176 205 176 206 176 205 177 207 177 206 177 206 178 207 178 208 178 207 178 209 178 208 178 208 61 209 61 210 61 209 179 211 179 210 179 210 180 211 180 212 180 211 63 213 63 212 63 212 65 213 65 214 65 213 181 215 181 214 181 214 182 215 182 216 182 215 182 217 182 216 182 216 69 217 69 218 69 217 69 219 69 218 69 218 71 219 71 220 71 219 72 221 72 220 72 220 73 221 73 222 73 221 183 223 183 222 183 222 184 223 184 224 184 223 185 225 185 224 185 224 77 225 77 226 77 225 77 227 77 226 77 226 186 227 186 228 186 227 187 229 187 228 187 228 188 229 188 230 188 229 189 231 189 230 189 230 82 231 82 232 82 231 82 233 82 232 82 232 190 233 190 234 190 233 191 235 191 234 191 234 86 235 86 236 86 235 192 237 192 236 192 236 88 237 88 238 88 237 193 239 193 238 193 238 90 239 90 240 90 239 194 241 194 240 194 240 195 241 195 242 195 241 196 243 196 242 196 242 94 243 94 244 94 243 197 245 197 244 197 244 96 245 96 246 96 245 96 247 96 246 96 246 198 247 198 248 198 247 199 249 199 248 199 248 100 249 100 250 100 249 200 251 200 250 200 250 102 251 102 252 102 251 201 253 201 252 201 252 202 253 202 254 202 253 104 255 104 254 104 254 107 255 107 256 107 255 203 257 203 256 203 256 204 257 204 258 204 257 108 259 108 258 108 258 110 259 110 260 110 259 110 261 110 260 110 260 205 261 205 262 205 261 112 263 112 262 112 262 206 263 206 264 206 263 207 265 207 264 207 264 116 265 116 266 116 265 116 267 116 266 116 266 119 267 119 268 119 267 208 269 208 268 208 268 120 269 120 270 120 269 209 271 209 270 209 270 210 271 210 272 210 271 122 273 122 272 122 272 124 273 124 274 124 273 124 275 124 274 124 274 211 275 211 276 211 275 212 277 212 276 212 276 213 277 213 278 213 277 129 279 129 278 129 278 130 279 130 280 130 279 214 281 214 280 214 280 132 281 132 282 132 281 215 283 215 282 215 282 134 283 134 284 134 283 216 285 216 284 216 284 136 285 136 286 136 285 137 287 137 286 137 286 138 287 138 144 138 287 217 145 217 144 217 288 218 289 218 290 218 288 219 290 219 291 219 290 220 292 220 291 220 292 221 293 221 291 221 291 222 293 222 294 222 293 223 295 223 294 223 293 224 296 224 295 224 296 225 297 225 295 225 295 226 297 226 298 226 297 227 299 227 298 227 297 228 300 228 299 228 300 229 301 229 299 229 299 230 301 230 302 230 301 231 303 231 302 231 301 232 304 232 303 232 304 233 305 233 303 233 303 234 305 234 306 234 305 235 307 235 306 235 305 236 308 236 307 236 308 237 309 237 307 237 307 238 309 238 310 238 309 239 311 239 310 239 309 240 312 240 311 240 312 241 313 241 311 241 311 242 313 242 314 242 313 243 315 243 314 243 316 244 317 244 318 244 313 245 319 245 315 245 319 246 316 246 315 246 315 247 316 247 320 247 316 248 318 248 320 248 317 249 321 249 318 249 321 250 322 250 318 250 318 251 322 251 323 251 322 252 324 252 323 252 323 253 324 253 325 253 324 254 326 254 325 254 325 255 326 255 327 255 326 256 328 256 327 256 327 257 328 257 329 257 328 258 330 258 329 258 329 259 330 259 331 259 330 260 332 260 331 260 331 261 332 261 333 261 332 262 334 262 333 262 333 263 334 263 335 263 334 264 336 264 335 264 335 265 336 265 337 265 336 266 338 266 337 266 337 267 338 267 339 267 338 268 340 268 339 268 339 269 340 269 341 269 342 270 341 270 343 270 341 271 340 271 343 271 344 272 345 272 346 272 345 272 347 272 346 272 348 273 349 273 350 273 349 274 351 274 350 274 350 275 351 275 352 275 351 276 353 276 352 276 352 277 353 277 354 277 353 278 355 278 354 278 354 279 355 279 356 279 355 280 357 280 356 280 356 281 357 281 358 281 357 282 359 282 358 282 358 283 359 283 360 283 359 284 361 284 360 284 360 285 361 285 362 285 361 286 363 286 362 286 362 287 363 287 364 287 363 288 365 288 364 288 364 289 365 289 366 289 365 290 367 290 366 290 366 291 367 291 368 291 367 292 345 292 368 292 368 293 345 293 344 293 350 294 369 294 348 294 369 295 370 295 348 295 348 296 370 296 371 296 370 297 372 297 371 297 371 298 372 298 373 298 372 299 374 299 373 299 373 300 374 300 375 300 375 301 374 301 376 301 374 302 377 302 376 302 376 303 377 303 378 303 377 304 379 304 378 304 378 305 379 305 380 305 379 306 381 306 380 306 380 307 381 307 382 307 381 308 383 308 382 308 383 309 384 309 382 309 382 310 384 310 385 310 384 311 386 311 385 311 385 312 386 312 387 312 387 313 386 313 388 313 386 314 389 314 388 314 388 315 389 315 390 315 391 316 392 316 393 316 392 317 390 317 393 317 393 318 390 318 394 318 390 319 389 319 394 319 395 320 396 320 397 320 396 321 398 321 397 321 397 322 398 322 391 322 398 323 399 323 391 323 391 324 399 324 392 324 70 325 72 325 400 325 395 326 10 326 12 326 78 327 80 327 400 327 80 328 82 328 400 328 400 329 82 329 84 329 134 330 136 330 401 330 12 331 14 331 395 331 14 331 16 331 395 331 395 332 16 332 18 332 60 331 62 331 396 331 62 333 64 333 396 333 64 327 66 327 396 327 396 334 66 334 400 334 66 331 68 331 400 331 400 335 68 335 70 335 72 331 74 331 400 331 74 336 76 336 400 336 400 337 76 337 78 337 30 331 32 331 395 331 134 331 401 331 132 331 4 338 395 338 2 338 395 339 0 339 2 339 4 331 6 331 395 331 6 340 8 340 395 340 395 341 8 341 10 341 18 331 20 331 395 331 20 331 22 331 395 331 395 342 22 342 24 342 396 343 46 343 48 343 54 331 56 331 396 331 56 331 58 331 396 331 396 344 58 344 60 344 102 331 104 331 400 331 136 340 138 340 401 340 138 331 140 331 401 331 401 345 140 345 395 345 140 346 142 346 395 346 395 347 142 347 0 347 24 348 26 348 395 348 26 349 28 349 395 349 395 331 28 331 30 331 32 331 34 331 395 331 34 331 36 331 395 331 395 331 36 331 396 331 36 331 38 331 396 331 396 331 38 331 40 331 40 331 42 331 396 331 42 331 44 331 396 331 396 350 44 350 46 350 48 331 50 331 396 331 50 331 52 331 396 331 396 351 52 351 54 351 401 352 118 352 120 352 126 331 128 331 401 331 128 331 130 331 401 331 401 353 130 353 132 353 84 331 86 331 400 331 86 331 88 331 400 331 400 354 88 354 90 354 104 331 106 331 400 331 106 331 108 331 400 331 400 331 108 331 401 331 108 331 110 331 401 331 401 355 110 355 112 355 112 331 114 331 401 331 114 331 116 331 401 331 401 356 116 356 118 356 90 331 92 331 400 331 92 331 94 331 400 331 400 357 94 357 96 357 120 331 122 331 401 331 122 331 124 331 401 331 401 358 124 358 126 358 96 359 98 359 400 359 98 360 100 360 400 360 400 331 100 331 102 331 220 331 222 331 289 331 204 331 206 331 402 331 206 331 208 331 402 331 208 331 210 331 402 331 402 361 210 361 212 361 222 362 224 362 289 362 224 331 226 331 289 331 289 363 226 363 228 363 403 364 154 364 156 364 278 331 280 331 290 331 156 331 158 331 403 331 158 365 160 365 403 365 403 366 160 366 162 366 212 367 214 367 402 367 214 331 216 331 402 331 402 331 216 331 289 331 216 331 218 331 289 331 289 368 218 368 220 368 174 369 176 369 403 369 278 331 290 331 276 331 148 370 403 370 146 370 403 371 144 371 146 371 148 331 150 331 403 331 150 331 152 331 403 331 403 372 152 372 154 372 162 373 164 373 403 373 164 331 166 331 403 331 403 374 166 374 168 374 402 375 190 375 192 375 198 376 200 376 402 376 200 377 202 377 402 377 402 378 202 378 204 378 246 331 248 331 289 331 280 331 282 331 290 331 282 331 284 331 290 331 290 331 284 331 403 331 284 331 286 331 403 331 403 379 286 379 144 379 168 331 170 331 403 331 170 331 172 331 403 331 403 380 172 380 174 380 176 331 178 331 403 331 178 331 180 331 403 331 403 331 180 331 402 331 180 331 182 331 402 331 402 381 182 381 184 381 184 382 186 382 402 382 186 383 188 383 402 383 402 384 188 384 190 384 192 385 194 385 402 385 194 331 196 331 402 331 402 386 196 386 198 386 290 387 262 387 264 387 270 388 272 388 290 388 272 331 274 331 290 331 290 389 274 389 276 389 228 331 230 331 289 331 230 331 232 331 289 331 289 390 232 390 234 390 248 331 250 331 289 331 250 331 252 331 289 331 289 331 252 331 290 331 252 331 254 331 290 331 290 391 254 391 256 391 256 331 258 331 290 331 258 392 260 392 290 392 290 393 260 393 262 393 234 394 236 394 289 394 236 331 238 331 289 331 289 395 238 395 240 395 264 396 266 396 290 396 266 331 268 331 290 331 290 397 268 397 270 397 240 331 242 331 289 331 242 331 244 331 289 331 289 398 244 398 246 398 404 399 405 399 406 399 406 400 405 400 407 400 405 401 408 401 407 401 407 402 408 402 409 402 409 403 408 403 403 403 408 404 410 404 403 404 403 405 410 405 290 405 410 406 411 406 290 406 290 407 411 407 292 407 411 408 412 408 292 408 292 409 412 409 293 409 412 410 413 410 293 410 293 411 413 411 296 411 391 412 414 412 415 412 406 413 416 413 404 413 416 414 417 414 404 414 404 399 417 399 418 399 417 415 419 415 418 415 418 416 419 416 420 416 296 417 413 417 297 417 413 418 421 418 297 418 297 417 421 417 300 417 421 419 422 419 300 419 300 420 422 420 301 420 423 421 424 421 425 421 424 422 426 422 425 422 425 423 426 423 427 423 391 421 415 421 397 421 415 424 428 424 397 424 397 425 428 425 395 425 428 426 429 426 395 426 395 427 429 427 401 427 429 428 430 428 401 428 401 404 430 404 423 404 430 424 431 424 423 424 423 429 431 429 424 429 414 430 391 430 432 430 391 431 393 431 432 431 432 432 393 432 433 432 393 433 394 433 433 433 433 434 394 434 434 434 419 435 435 435 420 435 435 399 436 399 420 399 420 399 436 399 437 399 436 436 438 436 437 436 437 437 438 437 439 437 438 436 440 436 439 436 439 438 440 438 441 438 440 439 442 439 441 439 441 440 442 440 443 440 301 441 422 441 304 441 422 442 444 442 304 442 304 443 444 443 305 443 444 444 445 444 305 444 305 445 445 445 308 445 426 446 446 446 427 446 446 447 447 447 427 447 427 419 447 419 448 419 447 448 449 448 448 448 448 449 449 449 450 449 434 450 394 450 451 450 394 451 389 451 451 451 451 439 389 439 452 439 389 452 386 452 452 452 452 453 386 453 453 453 454 454 358 454 455 454 358 455 360 455 455 455 455 456 360 456 456 456 360 457 362 457 456 457 456 458 362 458 457 458 458 459 459 459 460 459 459 460 461 460 460 460 460 461 461 461 462 461 461 462 463 462 462 462 462 463 463 463 464 463 330 464 465 464 332 464 465 465 466 465 332 465 332 466 466 466 334 466 466 467 467 467 334 467 334 468 467 468 336 468 449 469 468 469 450 469 468 399 469 399 450 399 450 470 469 470 470 470 469 471 471 471 470 471 470 472 471 472 472 472 471 473 473 473 472 473 472 399 473 399 474 399 473 474 475 474 474 474 474 475 475 475 476 475 442 476 477 476 443 476 477 477 478 477 443 477 443 478 478 478 479 478 478 479 480 479 479 479 479 480 480 480 481 480 480 481 482 481 481 481 481 482 482 482 483 482 482 483 484 483 483 483 308 484 445 484 309 484 445 485 485 485 309 485 309 486 485 486 312 486 485 487 486 487 312 487 312 488 486 488 313 488 486 489 487 489 313 489 313 483 487 483 319 483 487 490 488 490 319 490 319 491 488 491 316 491 453 399 386 399 489 399 386 492 384 492 489 492 489 493 384 493 490 493 384 399 383 399 490 399 490 494 383 494 491 494 383 495 381 495 491 495 491 486 381 486 492 486 381 496 379 496 492 496 492 497 379 497 493 497 316 498 488 498 317 498 488 499 494 499 317 499 317 500 494 500 321 500 495 501 496 501 497 501 496 502 498 502 497 502 497 462 498 462 499 462 498 503 500 503 499 503 499 504 500 504 501 504 493 505 379 505 502 505 379 506 377 506 502 506 502 507 377 507 503 507 504 508 505 508 484 508 505 509 506 509 484 509 484 510 506 510 483 510 463 511 507 511 464 511 507 512 508 512 464 512 464 513 508 513 509 513 508 514 510 514 509 514 509 515 510 515 511 515 510 516 512 516 511 516 511 517 512 517 513 517 512 518 514 518 513 518 513 519 514 519 504 519 514 520 515 520 504 520 504 521 515 521 505 521 494 522 516 522 321 522 516 523 517 523 321 523 321 524 517 524 322 524 475 525 518 525 476 525 518 526 519 526 476 526 476 527 519 527 520 527 519 528 521 528 520 528 520 496 521 496 522 496 521 483 523 483 522 483 522 529 523 529 524 529 523 528 525 528 524 528 377 522 374 522 503 522 374 530 372 530 503 530 503 531 372 531 526 531 517 532 527 532 322 532 527 533 528 533 322 533 322 534 528 534 324 534 528 535 529 535 324 535 324 536 529 536 326 536 529 537 530 537 326 537 326 538 530 538 328 538 530 539 531 539 328 539 328 540 531 540 330 540 531 541 532 541 330 541 330 542 532 542 465 542 533 543 534 543 525 543 534 544 535 544 525 544 525 545 535 545 524 545 372 546 370 546 526 546 370 490 369 490 526 490 526 547 369 547 536 547 369 548 350 548 536 548 536 549 350 549 537 549 350 550 352 550 537 550 537 551 352 551 538 551 352 552 354 552 538 552 538 553 354 553 454 553 354 554 356 554 454 554 454 555 356 555 358 555 362 556 364 556 457 556 364 557 366 557 457 557 457 558 366 558 539 558 366 559 368 559 539 559 539 560 368 560 540 560 368 561 344 561 540 561 540 562 344 562 541 562 344 563 346 563 541 563 541 564 346 564 542 564 346 565 543 565 542 565 542 566 543 566 458 566 543 567 544 567 458 567 458 568 544 568 459 568 500 569 545 569 501 569 545 570 546 570 501 570 501 517 546 517 547 517 546 399 548 399 547 399 547 571 548 571 549 571 548 572 550 572 549 572 549 573 550 573 551 573 550 574 552 574 551 574 551 399 552 399 533 399 552 399 553 399 533 399 533 575 553 575 534 575 467 576 554 576 336 576 554 577 555 577 336 577 336 578 555 578 338 578 555 579 556 579 338 579 338 580 556 580 340 580 556 581 557 581 340 581 340 399 557 399 343 399 557 582 558 582 343 582 343 583 558 583 559 583 558 584 560 584 559 584 559 577 560 577 495 577 560 462 561 462 495 462 495 585 561 585 496 585 398 586 396 586 562 586 562 587 396 587 563 587 396 588 400 588 563 588 563 589 400 589 564 589 400 590 565 590 564 590 564 591 565 591 566 591 565 592 567 592 566 592 566 593 567 593 568 593 562 594 569 594 398 594 569 595 570 595 398 595 398 596 570 596 399 596 570 597 571 597 399 597 399 598 571 598 392 598 568 599 567 599 572 599 567 600 573 600 572 600 572 601 573 601 574 601 573 602 575 602 574 602 574 603 575 603 576 603 571 604 577 604 392 604 577 605 578 605 392 605 392 606 578 606 390 606 578 607 579 607 390 607 390 608 579 608 388 608 580 609 581 609 582 609 576 610 575 610 583 610 575 611 584 611 583 611 583 612 584 612 585 612 584 613 586 613 585 613 585 614 586 614 587 614 588 592 291 592 589 592 291 615 294 615 589 615 589 616 294 616 590 616 580 594 582 594 591 594 582 617 592 617 591 617 591 618 592 618 593 618 592 619 402 619 593 619 593 620 402 620 594 620 402 620 289 620 594 620 594 621 289 621 588 621 289 622 288 622 588 622 588 623 288 623 291 623 581 624 580 624 595 624 580 625 596 625 595 625 595 624 596 624 597 624 596 602 598 602 597 602 597 626 598 626 599 626 579 627 600 627 388 627 600 628 601 628 388 628 388 629 601 629 387 629 601 630 602 630 387 630 387 631 602 631 385 631 602 632 603 632 385 632 385 633 603 633 382 633 603 634 604 634 382 634 382 635 604 635 380 635 294 636 295 636 590 636 295 637 298 637 590 637 590 602 298 602 605 602 298 638 299 638 605 638 605 639 299 639 606 639 599 640 598 640 607 640 598 641 608 641 607 641 607 628 608 628 609 628 608 642 610 642 609 642 609 643 610 643 611 643 587 644 586 644 612 644 586 645 613 645 612 645 612 646 613 646 614 646 613 647 615 647 614 647 614 648 615 648 616 648 615 649 617 649 616 649 616 650 617 650 618 650 617 651 619 651 618 651 618 652 619 652 620 652 620 653 619 653 621 653 619 654 622 654 621 654 621 655 622 655 623 655 624 656 625 656 626 656 625 657 627 657 626 657 626 658 627 658 628 658 627 659 629 659 628 659 628 660 629 660 630 660 631 661 632 661 633 661 632 662 634 662 633 662 633 663 634 663 635 663 634 664 636 664 635 664 635 665 636 665 637 665 638 602 363 602 639 602 363 666 361 666 639 666 639 667 361 667 640 667 361 668 359 668 640 668 640 669 359 669 641 669 604 670 642 670 380 670 642 671 643 671 380 671 380 602 643 602 378 602 643 672 644 672 378 672 378 673 644 673 376 673 644 674 645 674 376 674 376 675 645 675 375 675 645 676 646 676 375 676 299 677 302 677 606 677 302 602 303 602 606 602 606 678 303 678 647 678 303 679 306 679 647 679 647 680 306 680 648 680 306 681 307 681 648 681 648 682 307 682 649 682 307 683 310 683 649 683 649 684 310 684 650 684 622 685 651 685 623 685 651 686 652 686 623 686 623 687 652 687 653 687 337 688 654 688 335 688 654 689 655 689 335 689 335 690 655 690 333 690 655 691 656 691 333 691 333 692 656 692 331 692 611 644 610 644 657 644 610 693 658 693 657 693 657 694 658 694 659 694 658 647 660 647 659 647 659 695 660 695 661 695 660 696 662 696 661 696 661 697 662 697 663 697 662 698 664 698 663 698 663 699 664 699 665 699 666 700 371 700 646 700 371 701 373 701 646 701 646 702 373 702 375 702 665 703 664 703 667 703 664 704 668 704 667 704 667 705 668 705 669 705 359 706 357 706 641 706 357 707 355 707 641 707 641 708 355 708 670 708 355 662 353 662 670 662 670 709 353 709 671 709 353 710 351 710 671 710 671 711 351 711 672 711 351 712 349 712 672 712 672 713 349 713 666 713 349 714 348 714 666 714 666 715 348 715 371 715 652 716 673 716 653 716 673 717 674 717 653 717 653 718 674 718 675 718 674 719 676 719 675 719 675 720 676 720 677 720 676 721 678 721 677 721 677 722 678 722 679 722 678 723 680 723 679 723 679 724 680 724 624 724 680 725 681 725 624 725 624 726 681 726 625 726 310 727 311 727 650 727 311 728 314 728 650 728 650 729 314 729 682 729 314 730 315 730 682 730 682 731 315 731 683 731 315 732 320 732 683 732 683 733 320 733 684 733 320 734 318 734 684 734 668 685 685 685 669 685 685 735 686 735 669 735 669 687 686 687 687 687 323 700 688 700 318 700 688 736 689 736 318 736 318 737 689 737 684 737 686 738 690 738 687 738 690 739 691 739 687 739 687 740 691 740 692 740 691 741 693 741 692 741 692 742 693 742 694 742 693 743 695 743 694 743 694 744 695 744 696 744 695 745 697 745 696 745 696 746 697 746 631 746 697 747 698 747 631 747 631 748 698 748 632 748 636 749 699 749 637 749 699 750 700 750 637 750 637 751 700 751 701 751 700 752 702 752 701 752 701 753 702 753 703 753 702 754 347 754 703 754 703 602 347 602 704 602 347 755 345 755 704 755 704 756 345 756 705 756 345 757 367 757 705 757 705 758 367 758 638 758 367 759 365 759 638 759 638 760 365 760 363 760 629 761 706 761 630 761 706 762 707 762 630 762 630 763 707 763 708 763 707 752 709 752 708 752 708 764 709 764 342 764 709 765 710 765 342 765 342 766 710 766 341 766 710 767 711 767 341 767 341 602 711 602 339 602 711 768 712 768 339 768 339 769 712 769 337 769 712 770 713 770 337 770 337 771 713 771 654 771 656 772 714 772 331 772 714 773 715 773 331 773 331 774 715 774 329 774 715 775 716 775 329 775 329 776 716 776 327 776 716 777 717 777 327 777 327 778 717 778 325 778 717 779 718 779 325 779 325 780 718 780 323 780 718 781 719 781 323 781 323 782 719 782 688 782 591 783 593 783 410 783 591 784 410 784 580 784 410 785 408 785 580 785 408 786 405 786 580 786 580 787 405 787 596 787 405 788 598 788 596 788 405 789 404 789 598 789 404 790 418 790 598 790 598 791 418 791 608 791 418 792 610 792 608 792 418 793 420 793 610 793 420 794 437 794 610 794 610 795 437 795 658 795 437 796 660 796 658 796 437 797 439 797 660 797 439 798 441 798 660 798 660 799 441 799 662 799 441 800 664 800 662 800 441 801 443 801 664 801 443 802 479 802 664 802 664 803 479 803 668 803 479 804 685 804 668 804 479 805 481 805 685 805 481 806 483 806 685 806 685 807 483 807 686 807 483 808 690 808 686 808 505 809 515 809 693 809 483 810 506 810 690 810 506 811 505 811 690 811 690 812 505 812 691 812 505 813 693 813 691 813 515 814 514 814 693 814 514 815 512 815 693 815 693 816 512 816 695 816 512 817 510 817 695 817 695 818 510 818 697 818 510 819 508 819 697 819 697 820 508 820 698 820 508 821 507 821 698 821 698 822 507 822 632 822 507 823 463 823 632 823 632 824 463 824 634 824 463 825 461 825 634 825 634 826 461 826 636 826 461 827 459 827 636 827 636 828 459 828 699 828 459 829 544 829 699 829 699 830 544 830 700 830 544 831 543 831 700 831 700 832 543 832 702 832 543 833 346 833 702 833 702 834 346 834 347 834 157 835 155 835 410 835 165 835 163 835 410 835 155 835 153 835 410 835 153 835 151 835 410 835 410 836 151 836 149 836 149 835 147 835 410 835 147 835 145 835 410 835 410 835 145 835 411 835 145 835 287 835 411 835 287 835 285 835 411 835 285 835 283 835 411 835 411 837 283 837 281 837 163 835 161 835 410 835 161 838 159 838 410 838 410 839 159 839 157 839 229 835 593 835 231 835 593 840 594 840 231 840 231 835 594 835 233 835 229 835 227 835 593 835 227 835 225 835 593 835 593 841 225 841 223 841 187 835 185 835 593 835 281 835 279 835 411 835 279 835 277 835 411 835 411 842 277 842 275 842 223 835 221 835 593 835 221 835 219 835 593 835 593 843 219 843 217 843 171 835 169 835 410 835 169 844 167 844 410 844 410 845 167 845 165 845 217 835 215 835 593 835 215 835 213 835 593 835 593 846 213 846 211 846 211 847 209 847 593 847 209 835 207 835 593 835 593 848 207 848 205 848 205 849 203 849 593 849 203 835 201 835 593 835 593 850 201 850 199 850 269 835 267 835 411 835 267 835 265 835 411 835 411 851 265 851 263 851 263 852 261 852 411 852 261 835 259 835 411 835 411 853 259 853 257 853 251 854 594 854 253 854 594 835 411 835 253 835 253 855 411 855 255 855 411 856 257 856 255 856 251 857 249 857 594 857 249 858 247 858 594 858 594 835 247 835 245 835 245 859 243 859 594 859 243 835 241 835 594 835 594 860 241 860 239 860 239 835 237 835 594 835 237 835 235 835 594 835 594 861 235 861 233 861 199 835 197 835 593 835 197 835 195 835 593 835 593 862 195 862 193 862 193 835 191 835 593 835 191 835 189 835 593 835 593 835 189 835 187 835 185 863 183 863 593 863 183 835 181 835 593 835 593 835 181 835 410 835 181 835 179 835 410 835 410 864 179 864 177 864 177 835 175 835 410 835 175 835 173 835 410 835 410 865 173 865 171 865 275 835 273 835 411 835 273 835 271 835 411 835 411 866 271 866 269 866 412 867 411 867 594 867 590 868 605 868 422 868 422 869 605 869 444 869 648 870 649 870 486 870 486 871 649 871 487 871 494 872 488 872 682 872 517 873 516 873 684 873 719 874 718 874 529 874 718 875 717 875 529 875 529 876 717 876 530 876 717 877 716 877 530 877 530 878 716 878 531 878 716 879 715 879 531 879 531 880 715 880 532 880 715 881 714 881 532 881 532 882 714 882 465 882 714 883 656 883 465 883 465 884 656 884 466 884 656 885 655 885 466 885 466 886 655 886 467 886 655 887 654 887 467 887 467 888 654 888 554 888 654 889 713 889 554 889 554 890 713 890 555 890 713 891 712 891 555 891 555 892 712 892 556 892 712 893 711 893 556 893 556 894 711 894 557 894 719 895 529 895 688 895 529 896 528 896 688 896 688 897 528 897 527 897 517 898 684 898 527 898 684 899 689 899 527 899 527 900 689 900 688 900 494 901 682 901 516 901 682 902 683 902 516 902 516 903 683 903 684 903 487 904 649 904 488 904 649 905 650 905 488 905 488 906 650 906 682 906 648 907 486 907 647 907 486 908 485 908 647 908 647 909 485 909 445 909 444 910 605 910 445 910 605 911 606 911 445 911 445 912 606 912 647 912 590 913 422 913 589 913 422 914 421 914 589 914 589 915 421 915 413 915 412 916 594 916 413 916 594 917 588 917 413 917 413 918 588 918 589 918 557 919 711 919 558 919 711 920 710 920 558 920 400 921 401 921 565 921 401 922 423 922 565 922 565 923 423 923 567 923 423 924 425 924 567 924 425 925 427 925 567 925 567 926 427 926 573 926 427 927 448 927 573 927 573 928 448 928 575 928 575 929 448 929 584 929 448 930 450 930 584 930 584 931 450 931 586 931 450 932 470 932 586 932 470 933 472 933 586 933 586 934 472 934 613 934 472 935 474 935 613 935 613 936 474 936 615 936 615 937 474 937 617 937 474 938 476 938 617 938 617 939 476 939 619 939 476 940 520 940 619 940 619 941 520 941 622 941 520 942 522 942 622 942 622 943 522 943 651 943 522 944 524 944 651 944 651 945 524 945 652 945 524 946 535 946 652 946 652 947 535 947 673 947 535 948 534 948 673 948 534 949 553 949 673 949 673 950 553 950 674 950 553 951 676 951 674 951 553 952 552 952 676 952 552 953 550 953 676 953 676 954 550 954 678 954 550 955 548 955 678 955 678 956 548 956 680 956 548 957 546 957 680 957 680 958 546 958 681 958 546 959 545 959 681 959 681 960 545 960 625 960 545 961 500 961 625 961 625 962 500 962 627 962 500 963 498 963 627 963 627 964 498 964 629 964 498 965 496 965 629 965 629 966 496 966 706 966 496 967 561 967 706 967 706 968 561 968 707 968 561 969 560 969 707 969 707 970 560 970 709 970 560 971 558 971 709 971 709 972 558 972 710 972 409 973 403 973 402 973 406 974 407 974 582 974 417 975 416 975 595 975 607 976 609 976 436 976 436 977 609 977 438 977 442 978 440 978 657 978 663 979 665 979 480 979 667 980 669 980 484 980 669 981 687 981 484 981 484 982 687 982 504 982 687 983 692 983 504 983 504 984 692 984 513 984 692 985 694 985 513 985 513 986 694 986 511 986 694 987 696 987 511 987 511 988 696 988 509 988 696 989 631 989 509 989 509 990 631 990 464 990 631 991 633 991 464 991 464 992 633 992 462 992 633 993 635 993 462 993 462 994 635 994 460 994 635 995 637 995 460 995 460 996 637 996 458 996 637 997 701 997 458 997 458 998 701 998 542 998 701 999 703 999 542 999 542 1000 703 1000 541 1000 667 1001 484 1001 665 1001 484 1002 482 1002 665 1002 665 1003 482 1003 480 1003 663 1004 480 1004 661 1004 480 1005 478 1005 661 1005 661 1006 478 1006 477 1006 442 1007 657 1007 477 1007 657 1008 659 1008 477 1008 477 1009 659 1009 661 1009 438 1010 609 1010 440 1010 609 1011 611 1011 440 1011 440 1012 611 1012 657 1012 607 1013 436 1013 599 1013 436 1014 435 1014 599 1014 599 1015 435 1015 419 1015 417 1016 595 1016 419 1016 595 1017 597 1017 419 1017 419 1018 597 1018 599 1018 406 1019 582 1019 416 1019 582 1020 581 1020 416 1020 416 1021 581 1021 595 1021 409 1022 402 1022 407 1022 402 1023 592 1023 407 1023 407 1024 592 1024 582 1024 703 1025 704 1025 541 1025 704 1026 540 1026 541 1026 562 1027 429 1027 569 1027 429 1028 428 1028 569 1028 569 1029 428 1029 570 1029 428 1030 415 1030 570 1030 415 1031 414 1031 570 1031 570 1032 414 1032 571 1032 414 1033 432 1033 571 1033 571 1034 432 1034 577 1034 432 1035 433 1035 577 1035 577 1036 433 1036 578 1036 433 1037 434 1037 578 1037 578 1038 434 1038 579 1038 434 1039 451 1039 579 1039 579 1040 451 1040 600 1040 451 1041 452 1041 600 1041 600 1042 452 1042 601 1042 601 1043 452 1043 602 1043 452 1044 453 1044 602 1044 602 1045 453 1045 603 1045 453 1046 489 1046 603 1046 603 1047 489 1047 604 1047 489 1048 490 1048 604 1048 604 1049 490 1049 642 1049 490 1050 491 1050 642 1050 491 1051 492 1051 642 1051 642 1052 492 1052 643 1052 492 1053 493 1053 643 1053 643 1054 493 1054 644 1054 493 1055 502 1055 644 1055 644 1056 502 1056 645 1056 502 1057 646 1057 645 1057 502 1058 503 1058 646 1058 503 1059 526 1059 646 1059 646 1060 526 1060 666 1060 526 1061 536 1061 666 1061 666 1062 536 1062 672 1062 536 1063 537 1063 672 1063 672 1064 537 1064 671 1064 537 1065 538 1065 671 1065 671 1066 538 1066 670 1066 538 1067 454 1067 670 1067 670 1068 454 1068 641 1068 454 1069 455 1069 641 1069 641 1070 455 1070 640 1070 455 1071 456 1071 640 1071 640 1072 456 1072 639 1072 456 1073 457 1073 639 1073 639 1074 457 1074 638 1074 457 1075 539 1075 638 1075 638 1076 539 1076 705 1076 539 1077 540 1077 705 1077 705 1078 540 1078 704 1078 3 1079 1 1079 429 1079 89 835 87 835 563 835 429 835 1 835 430 835 21 835 19 835 429 835 19 835 17 835 429 835 429 835 17 835 15 835 563 835 87 835 562 835 87 1080 85 1080 562 1080 562 1081 85 1081 83 1081 43 835 41 835 562 835 15 1082 13 1082 429 1082 13 1083 11 1083 429 1083 429 1084 11 1084 9 1084 1 835 143 835 430 835 143 835 141 835 430 835 430 1085 141 1085 139 1085 83 1086 81 1086 562 1086 81 835 79 835 562 835 562 1087 79 1087 77 1087 9 835 7 835 429 835 7 835 5 835 429 835 429 1088 5 1088 3 1088 139 835 137 835 430 835 137 835 135 835 430 835 430 1089 135 1089 133 1089 27 1090 25 1090 429 1090 25 835 23 835 429 835 429 1091 23 1091 21 1091 77 835 75 835 562 835 75 1092 73 1092 562 1092 562 1093 73 1093 71 1093 71 835 69 835 562 835 69 835 67 835 562 835 562 1094 67 1094 65 1094 55 835 562 835 57 835 562 835 59 835 57 835 65 835 63 835 562 835 63 1095 61 1095 562 1095 562 1096 61 1096 59 1096 55 1097 53 1097 562 1097 53 835 51 835 562 835 562 835 51 835 49 835 49 1098 47 1098 562 1098 47 1099 45 1099 562 1099 562 1100 45 1100 43 1100 41 835 39 835 562 835 39 835 37 835 562 835 562 835 37 835 429 835 37 835 35 835 429 835 429 1101 35 1101 33 1101 33 835 31 835 429 835 31 835 29 835 429 835 429 1102 29 1102 27 1102 133 835 131 835 430 835 131 835 129 835 430 835 430 835 129 835 127 835 430 1103 121 1103 119 1103 119 835 117 835 430 835 117 835 115 835 430 835 430 1104 115 1104 113 1104 107 1105 563 1105 109 1105 563 835 430 835 109 835 109 1106 430 1106 111 1106 430 1107 113 1107 111 1107 107 835 105 835 563 835 105 835 103 835 563 835 563 1108 103 1108 101 1108 101 835 99 835 563 835 99 835 97 835 563 835 563 835 97 835 95 835 95 835 93 835 563 835 93 835 91 835 563 835 563 835 91 835 89 835 127 1109 125 1109 430 1109 125 835 123 835 430 835 430 835 123 835 121 835 342 1110 343 1110 559 1110 342 1111 559 1111 708 1111 559 1112 495 1112 708 1112 708 1113 495 1113 630 1113 495 1114 497 1114 630 1114 630 1115 497 1115 628 1115 497 1116 499 1116 628 1116 628 1117 499 1117 626 1117 499 1118 501 1118 626 1118 626 1119 501 1119 624 1119 501 1120 547 1120 624 1120 624 1121 547 1121 679 1121 547 1122 549 1122 679 1122 679 1123 549 1123 677 1123 549 1124 551 1124 677 1124 677 1125 551 1125 675 1125 551 1126 533 1126 675 1126 675 1127 533 1127 653 1127 533 1128 525 1128 653 1128 653 1129 525 1129 623 1129 623 1130 525 1130 621 1130 525 1131 523 1131 621 1131 621 1132 523 1132 620 1132 523 1133 521 1133 620 1133 620 1134 521 1134 618 1134 521 1135 519 1135 618 1135 618 1136 519 1136 616 1136 519 1137 518 1137 616 1137 616 1138 518 1138 614 1138 518 1139 475 1139 614 1139 614 1140 475 1140 612 1140 475 1141 473 1141 612 1141 473 1142 471 1142 612 1142 612 1143 471 1143 587 1143 471 1144 469 1144 587 1144 587 1145 469 1145 585 1145 585 1146 469 1146 583 1146 469 1147 468 1147 583 1147 583 1148 468 1148 576 1148 446 1149 574 1149 447 1149 574 1150 576 1150 447 1150 447 1151 576 1151 449 1151 576 1152 468 1152 449 1152 430 1153 563 1153 431 1153 563 1154 564 1154 431 1154 431 1155 564 1155 424 1155 564 1156 566 1156 424 1156 424 1157 566 1157 426 1157 566 1158 568 1158 426 1158 426 1159 568 1159 446 1159 568 1160 572 1160 446 1160 446 1161 572 1161 574 1161</p>
        </triangles>
      </mesh>
    </geometry>
  </library_geometries>
  <library_visual_scenes>
    <visual_scene id="Scene" name="Scene">
      <node id="chassis_default_as_machined__28" name="chassis_default_as_machined__28" type="NODE">
        <matrix sid="transform">1 0 0 0 0 1 0 0 0 0 1 0 0 0 0 1</matrix>
        <instance_geometry url="#chassis_default_as_machined__28-mesh" name="chassis_default_as_machined__28"/>
      </node>
    </visual_scene>
  </library_visual_scenes>
  <scene>
    <instance_visual_scene url="#Scene"/>
  </scene>
</COLLADA>