<?xml version="1.0" encoding="utf-8"?>
<COLLADA xmlns="http://www.collada.org/2005/11/COLLADASchema" version="1.4.1" xmlns:xsi="http://www.w3.org/2001/XMLSchema-instance">
  <asset>
    <contributor>
      <author>Blender User</author>
      <authoring_tool>Blender 3.0.1</authoring_tool>
    </contributor>
    <created>2026-06-04T16:18:38</created>
    <modified>2026-06-04T16:18:38</modified>
    <unit name="meter" meter="1"/>
    <up_axis>Z_UP</up_axis>
  </asset>
  <library_images/>
  <library_geometries>
    <geometry id="chassis_default_as_machined__27-mesh" name="chassis_default_as_machined__27">
      <mesh>
        <source id="chassis_default_as_machined__27-mesh-positions">
          <float_array id="chassis_default_as_machined__27-mesh-positions-array" count="2640">-0.2799468 0.185 -0.08734679 -0.2799468 0.1876 -0.08734679 -0.2795981 0.185 -0.08736205 -0.2795981 0.1876 -0.08736205 -0.2792521 0.185 -0.08740758 -0.2792521 0.1876 -0.08740758 -0.2789115 0.185 -0.0874831 -0.2789115 0.1876 -0.0874831 -0.2785786 0.185 -0.08758801 -0.2785786 0.1876 -0.08758801 -0.2782562 0.185 -0.08772158 -0.2782562 0.1876 -0.08772158 -0.2779467 0.185 -0.08788269 -0.2779467 0.1876 -0.08788269 -0.2776525 0.185 -0.08807021 -0.2776525 0.1876 -0.08807021 -0.2773756 0.185 -0.08828264 -0.2773756 0.1876 -0.08828264 -0.2771183 0.185 -0.08851838 -0.2771183 0.1876 -0.08851838 -0.2768825 0.185 -0.08877563 -0.2768825 0.1876 -0.08877563 -0.2766701 0.185 -0.08905249 -0.2766701 0.1876 -0.08905249 -0.2764827 0.185 -0.08934682 -0.2764827 0.1876 -0.08934682 -0.2763215 0.185 -0.08965635 -0.2763215 0.1876 -0.08965635 -0.276188 0.185 -0.08997869 -0.276188 0.1876 -0.08997869 -0.2760831 0.185 -0.09031152 -0.2760831 0.1876 -0.09031152 -0.2760075 0.185 -0.09065222 -0.2760075 0.1876 -0.09065222 -0.2759619 0.185 -0.09099817 -0.2759619 0.1876 -0.09099817 -0.2759467 0.185 -0.0913468 -0.2759467 0.1876 -0.0913468 -0.2759619 0.185 -0.09169542 -0.2759619 0.1876 -0.09169542 -0.2760075 0.185 -0.09204137 -0.2760075 0.1876 -0.09204137 -0.2760831 0.185 -0.09238207 -0.2760831 0.1876 -0.09238207 -0.276188 0.185 -0.0927149 -0.276188 0.1876 -0.0927149 -0.2763215 0.185 -0.0930373 -0.2763215 0.1876 -0.0930373 -0.2764827 0.185 -0.09334683 -0.2764827 0.1876 -0.09334683 -0.2766701 0.185 -0.0936411 -0.2766701 0.1876 -0.0936411 -0.2768825 0.185 -0.09391796 -0.2768825 0.1876 -0.09391796 -0.2771183 0.185 -0.09417521 -0.2771183 0.1876 -0.09417521 -0.2773756 0.185 -0.09441095 -0.2773756 0.1876 -0.09441095 -0.2776525 0.185 -0.09462338 -0.2776525 0.1876 -0.09462338 -0.2779467 0.185 -0.0948109 -0.2779467 0.1876 -0.0948109 -0.2782562 0.185 -0.09497201 -0.2782562 0.1876 -0.09497201 -0.2785786 0.185 -0.09510558 -0.2785786 0.1876 -0.09510558 -0.2789115 0.185 -0.09521049 -0.2789115 0.1876 -0.09521049 -0.2792521 0.185 -0.09528601 -0.2792521 0.1876 -0.09528601 -0.2795981 0.185 -0.0953316 -0.2795981 0.1876 -0.0953316 -0.2799468 0.185 -0.0953468 -0.2799468 0.1876 -0.0953468 -0.2802954 0.185 -0.0953316 -0.2802954 0.1876 -0.0953316 -0.2806413 0.185 -0.09528601 -0.2806413 0.1876 -0.09528601 -0.280982 0.185 -0.09521049 -0.280982 0.1876 -0.09521049 -0.2813148 0.185 -0.09510558 -0.2813148 0.1876 -0.09510558 -0.2816372 0.185 -0.09497201 -0.2816372 0.1876 -0.09497201 -0.2819467 0.185 -0.0948109 -0.2819467 0.1876 -0.0948109 -0.2822411 0.185 -0.09462338 -0.2822411 0.1876 -0.09462338 -0.2825179 0.185 -0.09441095 -0.2825179 0.1876 -0.09441095 -0.2827752 0.185 -0.09417521 -0.2827752 0.1876 -0.09417521 -0.2830109 0.185 -0.09391796 -0.2830109 0.1876 -0.09391796 -0.2832233 0.185 -0.0936411 -0.2832233 0.1876 -0.0936411 -0.2834109 0.185 -0.09334683 -0.2834109 0.1876 -0.09334683 -0.283572 0.185 -0.0930373 -0.283572 0.1876 -0.0930373 -0.2837055 0.185 -0.0927149 -0.2837055 0.1876 -0.0927149 -0.2838104 0.185 -0.09238207 -0.2838104 0.1876 -0.09238207 -0.283886 0.185 -0.09204137 -0.283886 0.1876 -0.09204137 -0.2839315 0.185 -0.09169542 -0.2839315 0.1876 -0.09169542 -0.2839468 0.185 -0.0913468 -0.2839468 0.1876 -0.0913468 -0.2839315 0.185 -0.09099817 -0.2839315 0.1876 -0.09099817 -0.283886 0.185 -0.09065222 -0.283886 0.1876 -0.09065222 -0.2838104 0.185 -0.09031152 -0.2838104 0.1876 -0.09031152 -0.2837055 0.185 -0.08997869 -0.2837055 0.1876 -0.08997869 -0.283572 0.185 -0.08965635 -0.283572 0.1876 -0.08965635 -0.2834109 0.185 -0.08934682 -0.2834109 0.1876 -0.08934682 -0.2832233 0.185 -0.08905249 -0.2832233 0.1876 -0.08905249 -0.2830109 0.185 -0.08877563 -0.2830109 0.1876 -0.08877563 -0.2827752 0.185 -0.08851838 -0.2827752 0.1876 -0.08851838 -0.2825179 0.185 -0.08828264 -0.2825179 0.1876 -0.08828264 -0.2822411 0.185 -0.08807021 -0.2822411 0.1876 -0.08807021 -0.2819467 0.185 -0.08788269 -0.2819467 0.1876 -0.08788269 -0.2816372 0.185 -0.08772158 -0.2816372 0.1876 -0.08772158 -0.2813148 0.185 -0.08758801 -0.2813148 0.1876 -0.08758801 -0.280982 0.185 -0.0874831 -0.280982 0.1876 -0.0874831 -0.2806413 0.185 -0.08740758 -0.2806413 0.1876 -0.08740758 -0.2802954 0.185 -0.08736205 -0.2802954 0.1876 -0.08736205 -0.3199467 0.185 -0.08734679 -0.3199467 0.1876 -0.08734679 -0.3195981 0.185 -0.08736205 -0.3195981 0.1876 -0.08736205 -0.3192521 0.185 -0.08740758 -0.3192521 0.1876 -0.08740758 -0.3189114 0.185 -0.0874831 -0.3189114 0.1876 -0.0874831 -0.3185787 0.185 -0.08758801 -0.3185787 0.1876 -0.08758801 -0.3182563 0.185 -0.08772158 -0.3182563 0.1876 -0.08772158 -0.3179467 0.185 -0.08788269 -0.3179467 0.1876 -0.08788269 -0.3176524 0.185 -0.08807021 -0.3176524 0.1876 -0.08807021 -0.3173756 0.185 -0.08828264 -0.3173756 0.1876 -0.08828264 -0.3171183 0.185 -0.08851838 -0.3171183 0.1876 -0.08851838 -0.3168826 0.185 -0.08877563 -0.3168826 0.1876 -0.08877563 -0.3166701 0.185 -0.08905249 -0.3166701 0.1876 -0.08905249 -0.3164826 0.185 -0.08934682 -0.3164826 0.1876 -0.08934682 -0.3163215 0.185 -0.08965635 -0.3163215 0.1876 -0.08965635 -0.316188 0.185 -0.08997869 -0.316188 0.1876 -0.08997869 -0.316083 0.185 -0.09031152 -0.316083 0.1876 -0.09031152 -0.3160075 0.185 -0.09065222 -0.3160075 0.1876 -0.09065222 -0.315962 0.185 -0.09099817 -0.315962 0.1876 -0.09099817 -0.3159467 0.185 -0.0913468 -0.3159467 0.1876 -0.0913468 -0.315962 0.185 -0.09169542 -0.315962 0.1876 -0.09169542 -0.3160075 0.185 -0.09204137 -0.3160075 0.1876 -0.09204137 -0.316083 0.185 -0.09238207 -0.316083 0.1876 -0.09238207 -0.316188 0.185 -0.0927149 -0.316188 0.1876 -0.0927149 -0.3163215 0.185 -0.0930373 -0.3163215 0.1876 -0.0930373 -0.3164826 0.185 -0.09334683 -0.3164826 0.1876 -0.09334683 -0.3166701 0.185 -0.0936411 -0.3166701 0.1876 -0.0936411 -0.3168826 0.185 -0.09391796 -0.3168826 0.1876 -0.09391796 -0.3171183 0.185 -0.09417521 -0.3171183 0.1876 -0.09417521 -0.3173756 0.185 -0.09441095 -0.3173756 0.1876 -0.09441095 -0.3176524 0.185 -0.09462338 -0.3176524 0.1876 -0.09462338 -0.3179467 0.185 -0.0948109 -0.3179467 0.1876 -0.0948109 -0.3182563 0.185 -0.09497201 -0.3182563 0.1876 -0.09497201 -0.3185787 0.185 -0.09510558 -0.3185787 0.1876 -0.09510558 -0.3189114 0.185 -0.09521049 -0.3189114 0.1876 -0.09521049 -0.3192521 0.185 -0.09528601 -0.3192521 0.1876 -0.09528601 -0.3195981 0.185 -0.0953316 -0.3195981 0.1876 -0.0953316 -0.3199467 0.185 -0.0953468 -0.3199467 0.1876 -0.0953468 -0.3202953 0.185 -0.0953316 -0.3202953 0.1876 -0.0953316 -0.3206413 0.185 -0.09528601 -0.3206413 0.1876 -0.09528601 -0.320982 0.185 -0.09521049 -0.320982 0.1876 -0.09521049 -0.3213148 0.185 -0.09510558 -0.3213148 0.1876 -0.09510558 -0.3216372 0.185 -0.09497201 -0.3216372 0.1876 -0.09497201 -0.3219467 0.185 -0.0948109 -0.3219467 0.1876 -0.0948109 -0.322241 0.185 -0.09462338 -0.322241 0.1876 -0.09462338 -0.3225179 0.185 -0.09441095 -0.3225179 0.1876 -0.09441095 -0.3227751 0.185 -0.09417521 -0.3227751 0.1876 -0.09417521 -0.3230109 0.185 -0.09391796 -0.3230109 0.1876 -0.09391796 -0.3232234 0.185 -0.0936411 -0.3232234 0.1876 -0.0936411 -0.3234108 0.185 -0.09334683 -0.3234108 0.1876 -0.09334683 -0.323572 0.185 -0.0930373 -0.323572 0.1876 -0.0930373 -0.3237055 0.185 -0.0927149 -0.3237055 0.1876 -0.0927149 -0.3238105 0.185 -0.09238207 -0.3238105 0.1876 -0.09238207 -0.323886 0.185 -0.09204137 -0.323886 0.1876 -0.09204137 -0.3239315 0.185 -0.09169542 -0.3239315 0.1876 -0.09169542 -0.3239467 0.185 -0.0913468 -0.3239467 0.1876 -0.0913468 -0.3239315 0.185 -0.09099817 -0.3239315 0.1876 -0.09099817 -0.323886 0.185 -0.09065222 -0.323886 0.1876 -0.09065222 -0.3238105 0.185 -0.09031152 -0.3238105 0.1876 -0.09031152 -0.3237055 0.185 -0.08997869 -0.3237055 0.1876 -0.08997869 -0.323572 0.185 -0.08965635 -0.323572 0.1876 -0.08965635 -0.3234108 0.185 -0.08934682 -0.3234108 0.1876 -0.08934682 -0.3232234 0.185 -0.08905249 -0.3232234 0.1876 -0.08905249 -0.3230109 0.185 -0.08877563 -0.3230109 0.1876 -0.08877563 -0.3227751 0.185 -0.08851838 -0.3227751 0.1876 -0.08851838 -0.3225179 0.185 -0.08828264 -0.3225179 0.1876 -0.08828264 -0.322241 0.185 -0.08807021 -0.322241 0.1876 -0.08807021 -0.3219467 0.185 -0.08788269 -0.3219467 0.1876 -0.08788269 -0.3216372 0.185 -0.08772158 -0.3216372 0.1876 -0.08772158 -0.3213148 0.185 -0.08758801 -0.3213148 0.1876 -0.08758801 -0.320982 0.185 -0.0874831 -0.320982 0.1876 -0.0874831 -0.3206413 0.185 -0.08740758 -0.3206413 0.1876 -0.08740758 -0.3202953 0.185 -0.08736205 -0.3202953 0.1876 -0.08736205 -0.2799468 0.2124 -0.08734679 -0.2799468 0.215 -0.08734679 -0.2795981 0.2124 -0.08736205 -0.2795981 0.215 -0.08736205 -0.2792521 0.2124 -0.08740758 -0.2792521 0.215 -0.08740758 -0.2789115 0.2124 -0.0874831 -0.2789115 0.215 -0.0874831 -0.2785786 0.2124 -0.08758801 -0.2785786 0.215 -0.08758801 -0.2782562 0.2124 -0.08772158 -0.2782562 0.215 -0.08772158 -0.2779467 0.2124 -0.08788269 -0.2779467 0.215 -0.08788269 -0.2776525 0.2124 -0.08807021 -0.2776525 0.215 -0.08807021 -0.2773756 0.2124 -0.08828264 -0.2773756 0.215 -0.08828264 -0.2771183 0.2124 -0.08851838 -0.2771183 0.215 -0.08851838 -0.2768825 0.2124 -0.08877563 -0.2768825 0.215 -0.08877563 -0.2766701 0.2124 -0.08905249 -0.2766701 0.215 -0.08905249 -0.2764827 0.2124 -0.08934682 -0.2764827 0.215 -0.08934682 -0.2763215 0.2124 -0.08965635 -0.2763215 0.215 -0.08965635 -0.276188 0.2124 -0.08997869 -0.276188 0.215 -0.08997869 -0.2760831 0.2124 -0.09031152 -0.2760831 0.215 -0.09031152 -0.2760075 0.2124 -0.09065222 -0.2760075 0.215 -0.09065222 -0.2759619 0.2124 -0.09099817 -0.2759619 0.215 -0.09099817 -0.2759467 0.2124 -0.0913468 -0.2759467 0.215 -0.0913468 -0.2759619 0.2124 -0.09169542 -0.2759619 0.215 -0.09169542 -0.2760075 0.2124 -0.09204137 -0.2760075 0.215 -0.09204137 -0.2760831 0.2124 -0.09238207 -0.2760831 0.215 -0.09238207 -0.276188 0.2124 -0.0927149 -0.276188 0.215 -0.0927149 -0.2763215 0.2124 -0.0930373 -0.2763215 0.215 -0.0930373 -0.2764827 0.2124 -0.09334683 -0.2764827 0.215 -0.09334683 -0.2766701 0.2124 -0.0936411 -0.2766701 0.215 -0.0936411 -0.2768825 0.2124 -0.09391796 -0.2768825 0.215 -0.09391796 -0.2771183 0.2124 -0.09417521 -0.2771183 0.215 -0.09417521 -0.2773756 0.2124 -0.09441095 -0.2773756 0.215 -0.09441095 -0.2776525 0.2124 -0.09462338 -0.2776525 0.215 -0.09462338 -0.2779467 0.2124 -0.0948109 -0.2779467 0.215 -0.0948109 -0.2782562 0.2124 -0.09497201 -0.2782562 0.215 -0.09497201 -0.2785786 0.2124 -0.09510558 -0.2785786 0.215 -0.09510558 -0.2789115 0.2124 -0.09521049 -0.2789115 0.215 -0.09521049 -0.2792521 0.2124 -0.09528601 -0.2792521 0.215 -0.09528601 -0.2795981 0.2124 -0.0953316 -0.2795981 0.215 -0.0953316 -0.2799468 0.2124 -0.0953468 -0.2799468 0.215 -0.0953468 -0.2802954 0.2124 -0.0953316 -0.2802954 0.215 -0.0953316 -0.2806413 0.2124 -0.09528601 -0.2806413 0.215 -0.09528601 -0.280982 0.2124 -0.09521049 -0.280982 0.215 -0.09521049 -0.2813148 0.2124 -0.09510558 -0.2813148 0.215 -0.09510558 -0.2816372 0.2124 -0.09497201 -0.2816372 0.215 -0.09497201 -0.2819467 0.2124 -0.0948109 -0.2819467 0.215 -0.0948109 -0.2822411 0.2124 -0.09462338 -0.2822411 0.215 -0.09462338 -0.2825179 0.2124 -0.09441095 -0.2825179 0.215 -0.09441095 -0.2827752 0.2124 -0.09417521 -0.2827752 0.215 -0.09417521 -0.2830109 0.2124 -0.09391796 -0.2830109 0.215 -0.09391796 -0.2832233 0.2124 -0.0936411 -0.2832233 0.215 -0.0936411 -0.2834109 0.2124 -0.09334683 -0.2834109 0.215 -0.09334683 -0.283572 0.2124 -0.0930373 -0.283572 0.215 -0.0930373 -0.2837055 0.2124 -0.0927149 -0.2837055 0.215 -0.0927149 -0.2838104 0.2124 -0.09238207 -0.2838104 0.215 -0.09238207 -0.283886 0.2124 -0.09204137 -0.283886 0.215 -0.09204137 -0.2839315 0.2124 -0.09169542 -0.2839315 0.215 -0.09169542 -0.2839468 0.2124 -0.0913468 -0.2839468 0.215 -0.0913468 -0.2839315 0.2124 -0.09099817 -0.2839315 0.215 -0.09099817 -0.283886 0.2124 -0.09065222 -0.283886 0.215 -0.09065222 -0.2838104 0.2124 -0.09031152 -0.2838104 0.215 -0.09031152 -0.2837055 0.2124 -0.08997869 -0.2837055 0.215 -0.08997869 -0.283572 0.2124 -0.08965635 -0.283572 0.215 -0.08965635 -0.2834109 0.2124 -0.08934682 -0.2834109 0.215 -0.08934682 -0.2832233 0.2124 -0.08905249 -0.2832233 0.215 -0.08905249 -0.2830109 0.2124 -0.08877563 -0.2830109 0.215 -0.08877563 -0.2827752 0.2124 -0.08851838 -0.2827752 0.215 -0.08851838 -0.2825179 0.2124 -0.08828264 -0.2825179 0.215 -0.08828264 -0.2822411 0.2124 -0.08807021 -0.2822411 0.215 -0.08807021 -0.2819467 0.2124 -0.08788269 -0.2819467 0.215 -0.08788269 -0.2816372 0.2124 -0.08772158 -0.2816372 0.215 -0.08772158 -0.2813148 0.2124 -0.08758801 -0.2813148 0.215 -0.08758801 -0.280982 0.2124 -0.0874831 -0.280982 0.215 -0.0874831 -0.2806413 0.2124 -0.08740758 -0.2806413 0.215 -0.08740758 -0.2802954 0.2124 -0.08736205 -0.2802954 0.215 -0.08736205 -0.3199467 0.2124 -0.08734679 -0.3199467 0.215 -0.08734679 -0.3195981 0.2124 -0.08736205 -0.3195981 0.215 -0.08736205 -0.3192521 0.2124 -0.08740758 -0.3192521 0.215 -0.08740758 -0.3189114 0.2124 -0.0874831 -0.3189114 0.215 -0.0874831 -0.3185787 0.2124 -0.08758801 -0.3185787 0.215 -0.08758801 -0.3182563 0.2124 -0.08772158 -0.3182563 0.215 -0.08772158 -0.3179467 0.2124 -0.08788269 -0.3179467 0.215 -0.08788269 -0.3176524 0.2124 -0.08807021 -0.3176524 0.215 -0.08807021 -0.3173756 0.2124 -0.08828264 -0.3173756 0.215 -0.08828264 -0.3171183 0.2124 -0.08851838 -0.3171183 0.215 -0.08851838 -0.3168826 0.2124 -0.08877563 -0.3168826 0.215 -0.08877563 -0.3166701 0.2124 -0.08905249 -0.3166701 0.215 -0.08905249 -0.3164826 0.2124 -0.08934682 -0.3164826 0.215 -0.08934682 -0.3163215 0.2124 -0.08965635 -0.3163215 0.215 -0.08965635 -0.316188 0.2124 -0.08997869 -0.316188 0.215 -0.08997869 -0.316083 0.2124 -0.09031152 -0.316083 0.215 -0.09031152 -0.3160075 0.2124 -0.09065222 -0.3160075 0.215 -0.09065222 -0.315962 0.2124 -0.09099817 -0.315962 0.215 -0.09099817 -0.3159467 0.2124 -0.0913468 -0.3159467 0.215 -0.0913468 -0.315962 0.2124 -0.09169542 -0.315962 0.215 -0.09169542 -0.3160075 0.2124 -0.09204137 -0.3160075 0.215 -0.09204137 -0.316083 0.2124 -0.09238207 -0.316083 0.215 -0.09238207 -0.316188 0.2124 -0.0927149 -0.316188 0.215 -0.0927149 -0.3163215 0.2124 -0.0930373 -0.3163215 0.215 -0.0930373 -0.3164826 0.2124 -0.09334683 -0.3164826 0.215 -0.09334683 -0.3166701 0.2124 -0.0936411 -0.3166701 0.215 -0.0936411 -0.3168826 0.2124 -0.09391796 -0.3168826 0.215 -0.09391796 -0.3171183 0.2124 -0.09417521 -0.3171183 0.215 -0.09417521 -0.3173756 0.2124 -0.09441095 -0.3173756 0.215 -0.09441095 -0.3176524 0.2124 -0.09462338 -0.3176524 0.215 -0.09462338 -0.3179467 0.2124 -0.0948109 -0.3179467 0.215 -0.0948109 -0.3182563 0.2124 -0.09497201 -0.3182563 0.215 -0.09497201 -0.3185787 0.2124 -0.09510558 -0.3185787 0.215 -0.09510558 -0.3189114 0.2124 -0.09521049 -0.3189114 0.215 -0.09521049 -0.3192521 0.2124 -0.09528601 -0.3192521 0.215 -0.09528601 -0.3195981 0.2124 -0.0953316 -0.3195981 0.215 -0.0953316 -0.3199467 0.2124 -0.0953468 -0.3199467 0.215 -0.0953468 -0.3202953 0.2124 -0.0953316 -0.3202953 0.215 -0.0953316 -0.3206413 0.2124 -0.09528601 -0.3206413 0.215 -0.09528601 -0.320982 0.2124 -0.09521049 -0.320982 0.215 -0.09521049 -0.3213148 0.2124 -0.09510558 -0.3213148 0.215 -0.09510558 -0.3216372 0.2124 -0.09497201 -0.3216372 0.215 -0.09497201 -0.3219467 0.2124 -0.0948109 -0.3219467 0.215 -0.0948109 -0.322241 0.2124 -0.09462338 -0.322241 0.215 -0.09462338 -0.3225179 0.2124 -0.09441095 -0.3225179 0.215 -0.09441095 -0.3227751 0.2124 -0.09417521 -0.3227751 0.215 -0.09417521 -0.3230109 0.2124 -0.09391796 -0.3230109 0.215 -0.09391796 -0.3232234 0.2124 -0.0936411 -0.3232234 0.215 -0.0936411 -0.3234108 0.2124 -0.09334683 -0.3234108 0.215 -0.09334683 -0.323572 0.2124 -0.0930373 -0.323572 0.215 -0.0930373 -0.3237055 0.2124 -0.0927149 -0.3237055 0.215 -0.0927149 -0.3238105 0.2124 -0.09238207 -0.3238105 0.215 -0.09238207 -0.323886 0.2124 -0.09204137 -0.323886 0.215 -0.09204137 -0.3239315 0.2124 -0.09169542 -0.3239315 0.215 -0.09169542 -0.3239467 0.2124 -0.0913468 -0.3239467 0.215 -0.0913468 -0.3239315 0.2124 -0.09099817 -0.3239315 0.215 -0.09099817 -0.323886 0.2124 -0.09065222 -0.323886 0.215 -0.09065222 -0.3238105 0.2124 -0.09031152 -0.3238105 0.215 -0.09031152 -0.3237055 0.2124 -0.08997869 -0.3237055 0.215 -0.08997869 -0.323572 0.2124 -0.08965635 -0.323572 0.215 -0.08965635 -0.3234108 0.2124 -0.08934682 -0.3234108 0.215 -0.08934682 -0.3232234 0.2124 -0.08905249 -0.3232234 0.215 -0.08905249 -0.3230109 0.2124 -0.08877563 -0.3230109 0.215 -0.08877563 -0.3227751 0.2124 -0.08851838 -0.3227751 0.215 -0.08851838 -0.3225179 0.2124 -0.08828264 -0.3225179 0.215 -0.08828264 -0.322241 0.2124 -0.08807021 -0.322241 0.215 -0.08807021 -0.3219467 0.2124 -0.08788269 -0.3219467 0.215 -0.08788269 -0.3216372 0.2124 -0.08772158 -0.3216372 0.215 -0.08772158 -0.3213148 0.2124 -0.08758801 -0.3213148 0.215 -0.08758801 -0.320982 0.2124 -0.0874831 -0.320982 0.215 -0.0874831 -0.3206413 0.2124 -0.08740758 -0.3206413 0.215 -0.08740758 -0.3202953 0.2124 -0.08736205 -0.3202953 0.215 -0.08736205 -0.1899999 0.1902 -0.0776 -0.41 0.1902 -0.0776 -0.1899999 0.2098 -0.0776 -0.41 0.2098 -0.0776 -0.1899999 0.1876 -0.08019995 -0.41 0.1876 -0.08019995 -0.1899999 0.1876099 -0.07997339 -0.41 0.1876099 -0.07997339 -0.1899999 0.1876395 -0.07974851 -0.41 0.1876395 -0.07974851 -0.1899999 0.1876885 -0.07952708 -0.41 0.1876885 -0.07952708 -0.1899999 0.1877568 -0.07931071 -0.41 0.1877568 -0.07931071 -0.1899999 0.1878436 -0.07910114 -0.41 0.1878436 -0.07910114 -0.1899999 0.1879483 -0.07889997 -0.41 0.1879483 -0.07889997 -0.1899999 0.1880702 -0.0787087 -0.41 0.1880702 -0.0787087 -0.1899999 0.1882082 -0.07852876 -0.41 0.1882082 -0.07852876 -0.1899999 0.1883615 -0.07836151 -0.41 0.1883615 -0.07836151 -0.1899999 0.1885287 -0.07820826 -0.41 0.1885287 -0.07820826 -0.1899999 0.1887087 -0.07807016 -0.41 0.1887087 -0.07807016 -0.1899999 0.1888999 -0.07794833 -0.41 0.1888999 -0.07794833 -0.1899999 0.1891012 -0.0778436 -0.41 0.1891012 -0.0778436 -0.1899999 0.1893107 -0.07775676 -0.41 0.1893107 -0.07775676 -0.1899999 0.189527 -0.07768857 -0.41 0.189527 -0.07768857 -0.1899999 0.1897485 -0.07763946 -0.41 0.1897485 -0.07763946 -0.1899999 0.1899734 -0.07760989 -0.41 0.1899734 -0.07760989 -0.1899999 0.1902 -0.07499998 -0.41 0.1902 -0.07499998 -0.41 0.1897467 -0.07501977 -0.1899999 0.1897467 -0.07501977 -0.41 0.189297 -0.07507896 -0.1899999 0.189297 -0.07507896 -0.41 0.1888541 -0.07517719 -0.1899999 0.1888541 -0.07517719 -0.41 0.1884214 -0.07531356 -0.1899999 0.1884214 -0.07531356 -0.41 0.1880024 -0.07548719 -0.1899999 0.1880024 -0.07548719 -0.41 0.1876 -0.07569664 -0.1899999 0.1876 -0.07569664 -0.41 0.1872174 -0.07594037 -0.1899999 0.1872174 -0.07594037 -0.41 0.1868575 -0.07621657 -0.1899999 0.1868575 -0.07621657 -0.41 0.186523 -0.076523 -0.1899999 0.186523 -0.076523 -0.41 0.1862165 -0.0768575 -0.1899999 0.1862165 -0.0768575 -0.41 0.1859404 -0.0772174 -0.1899999 0.1859404 -0.0772174 -0.41 0.1856966 -0.0776 -0.1899999 0.1856966 -0.0776 -0.41 0.1854872 -0.07800239 -0.1899999 0.1854872 -0.07800239 -0.41 0.1853136 -0.07842147 -0.1899999 0.1853136 -0.07842147 -0.41 0.1851772 -0.07885414 -0.1899999 0.1851772 -0.07885414 -0.41 0.185079 -0.079297 -0.1899999 0.185079 -0.079297 -0.41 0.1850197 -0.07974678 -0.1899999 0.1850197 -0.07974678 -0.41 0.185 -0.08019995 -0.1899999 0.185 -0.08019995 -0.41 0.2098 -0.07499998 -0.1899999 0.2098 -0.07499998 -0.1899999 0.215 -0.08019995 -0.41 0.215 -0.08019995 -0.41 0.2149802 -0.07974678 -0.1899999 0.2149802 -0.07974678 -0.41 0.2149209 -0.079297 -0.1899999 0.2149209 -0.079297 -0.41 0.2148228 -0.07885414 -0.1899999 0.2148228 -0.07885414 -0.41 0.2146864 -0.07842147 -0.1899999 0.2146864 -0.07842147 -0.41 0.2145128 -0.07800239 -0.1899999 0.2145128 -0.07800239 -0.41 0.2143033 -0.0776 -0.1899999 0.2143033 -0.0776 -0.41 0.2140595 -0.0772174 -0.1899999 0.2140595 -0.0772174 -0.41 0.2137834 -0.0768575 -0.1899999 0.2137834 -0.0768575 -0.41 0.2134769 -0.076523 -0.1899999 0.2134769 -0.076523 -0.41 0.2131425 -0.07621657 -0.1899999 0.2131425 -0.07621657 -0.41 0.2127826 -0.07594037 -0.1899999 0.2127826 -0.07594037 -0.41 0.2124 -0.07569664 -0.1899999 0.2124 -0.07569664 -0.41 0.2119976 -0.07548719 -0.1899999 0.2119976 -0.07548719 -0.41 0.2115785 -0.07531356 -0.1899999 0.2115785 -0.07531356 -0.41 0.2111458 -0.07517719 -0.1899999 0.2111458 -0.07517719 -0.41 0.210703 -0.07507896 -0.1899999 0.210703 -0.07507896 -0.41 0.2102532 -0.07501977 -0.1899999 0.2102532 -0.07501977 -0.1899999 0.215 -0.09979999 -0.41 0.215 -0.09979999 -0.1899999 0.1876 -0.09979999 -0.1899999 0.185 -0.09979999 -0.1899999 0.1876099 -0.1000266 -0.1899999 0.1850197 -0.1002532 -0.1899999 0.1876395 -0.1002514 -0.1899999 0.185079 -0.100703 -0.1899999 0.1876885 -0.1004729 -0.1899999 0.1851772 -0.1011458 -0.1899999 0.1877568 -0.1006892 -0.1899999 0.1853136 -0.1015785 -0.1899999 0.1878436 -0.1008988 -0.1899999 0.1854872 -0.1019976 -0.1899999 0.1879483 -0.1011 -0.1899999 0.1856966 -0.1024 -0.1899999 0.1880702 -0.1012912 -0.1899999 0.1859404 -0.1027826 -0.1899999 0.1882082 -0.1014712 -0.1899999 0.1862165 -0.1031424 -0.1899999 0.1883615 -0.1016384 -0.1899999 0.186523 -0.103477 -0.1899999 0.1885287 -0.1017917 -0.1899999 0.1868575 -0.1037834 -0.1899999 0.1887087 -0.1019298 -0.1899999 0.1872174 -0.1040596 -0.1899999 0.1888999 -0.1020516 -0.1899999 0.1876 -0.1043033 -0.1899999 0.1891012 -0.1021564 -0.1899999 0.1880024 -0.1045128 -0.1899999 0.1893107 -0.1022432 -0.1899999 0.1884214 -0.1046864 -0.1899999 0.189527 -0.1023114 -0.1899999 0.1888541 -0.1048228 -0.1899999 0.1897485 -0.1023605 -0.1899999 0.189297 -0.104921 -0.1899999 0.1899734 -0.1023901 -0.1899999 0.1897467 -0.1049802 -0.1899999 0.1902 -0.1024 -0.1899999 0.1902 -0.105 -0.1899999 0.2098 -0.1024 -0.1899999 0.2098 -0.105 -0.1899999 0.2100266 -0.1023901 -0.1899999 0.2102532 -0.1049802 -0.1899999 0.2102515 -0.1023605 -0.1899999 0.210703 -0.104921 -0.1899999 0.2104729 -0.1023114 -0.1899999 0.2111458 -0.1048228 -0.1899999 0.2106892 -0.1022432 -0.1899999 0.2115785 -0.1046864 -0.1899999 0.2108988 -0.1021564 -0.1899999 0.2119976 -0.1045128 -0.1899999 0.2111 -0.1020516 -0.1899999 0.2124 -0.1043033 -0.1899999 0.2112913 -0.1019298 -0.1899999 0.2127826 -0.1040596 -0.1899999 0.2114712 -0.1017917 -0.1899999 0.2131425 -0.1037834 -0.1899999 0.2116385 -0.1016384 -0.1899999 0.2134769 -0.103477 -0.1899999 0.2117917 -0.1014712 -0.1899999 0.2137834 -0.1031424 -0.1899999 0.2119297 -0.1012912 -0.1899999 0.2140595 -0.1027826 -0.1899999 0.2120516 -0.1011 -0.1899999 0.2143033 -0.1024 -0.1899999 0.2121564 -0.1008988 -0.1899999 0.2145128 -0.1019976 -0.1899999 0.2122431 -0.1006892 -0.1899999 0.2146864 -0.1015785 -0.1899999 0.2123114 -0.1004729 -0.1899999 0.2148228 -0.1011458 -0.1899999 0.2123605 -0.1002514 -0.1899999 0.2149209 -0.100703 -0.1899999 0.2123901 -0.1000266 -0.1899999 0.2149802 -0.1002532 -0.1899999 0.2124 -0.09979999 -0.1899999 0.2124 -0.08019995 -0.1899999 0.2123901 -0.07997339 -0.1899999 0.2123605 -0.07974851 -0.1899999 0.2123114 -0.07952708 -0.1899999 0.2122431 -0.07931071 -0.1899999 0.2121564 -0.07910114 -0.1899999 0.2120516 -0.07889997 -0.1899999 0.2119297 -0.0787087 -0.1899999 0.2117917 -0.07852876 -0.1899999 0.2116385 -0.07836151 -0.1899999 0.2114712 -0.07820826 -0.1899999 0.2112913 -0.07807016 -0.1899999 0.2111 -0.07794833 -0.1899999 0.2108988 -0.0778436 -0.1899999 0.2106892 -0.07775676 -0.1899999 0.2104729 -0.07768857 -0.1899999 0.2102515 -0.07763946 -0.1899999 0.2100266 -0.07760989 -0.41 0.2098 -0.105 -0.41 0.2102532 -0.1049802 -0.41 0.210703 -0.104921 -0.41 0.2111458 -0.1048228 -0.41 0.2115785 -0.1046864 -0.41 0.2119976 -0.1045128 -0.41 0.2124 -0.1043033 -0.41 0.2127826 -0.1040596 -0.41 0.2131425 -0.1037834 -0.41 0.2134769 -0.103477 -0.41 0.2137834 -0.1031424 -0.41 0.2140595 -0.1027826 -0.41 0.2143033 -0.1024 -0.41 0.2145128 -0.1019976 -0.41 0.2146864 -0.1015785 -0.41 0.2148228 -0.1011458 -0.41 0.2149209 -0.100703 -0.41 0.2149802 -0.1002532 -0.41 0.185 -0.09979999 -0.41 0.1850197 -0.1002532 -0.41 0.185079 -0.100703 -0.41 0.1851772 -0.1011458 -0.41 0.1853136 -0.1015785 -0.41 0.1854872 -0.1019976 -0.41 0.1856966 -0.1024 -0.41 0.1859404 -0.1027826 -0.41 0.1862165 -0.1031424 -0.41 0.186523 -0.103477 -0.41 0.1868575 -0.1037834 -0.41 0.1872174 -0.1040596 -0.41 0.1876 -0.1043033 -0.41 0.1880024 -0.1045128 -0.41 0.1884214 -0.1046864 -0.41 0.1888541 -0.1048228 -0.41 0.189297 -0.104921 -0.41 0.1897467 -0.1049802 -0.41 0.1902 -0.105 -0.41 0.2098 -0.1024 -0.41 0.1902 -0.1024 -0.41 0.1899734 -0.1023901 -0.41 0.1897485 -0.1023605 -0.41 0.189527 -0.1023114 -0.41 0.1893107 -0.1022432 -0.41 0.1891012 -0.1021564 -0.41 0.1888999 -0.1020516 -0.41 0.1887087 -0.1019298 -0.41 0.1885287 -0.1017917 -0.41 0.1883615 -0.1016384 -0.41 0.1882082 -0.1014712 -0.41 0.1880702 -0.1012912 -0.41 0.1879483 -0.1011 -0.41 0.1878436 -0.1008988 -0.41 0.1877568 -0.1006892 -0.41 0.1876885 -0.1004729 -0.41 0.1876395 -0.1002514 -0.41 0.1876099 -0.1000266 -0.41 0.1876 -0.09979999 -0.41 0.2100266 -0.07760989 -0.41 0.2102515 -0.07763946 -0.41 0.2104729 -0.07768857 -0.41 0.2106892 -0.07775676 -0.41 0.2108988 -0.0778436 -0.41 0.2111 -0.07794833 -0.41 0.2112913 -0.07807016 -0.41 0.2114712 -0.07820826 -0.41 0.2116385 -0.07836151 -0.41 0.2117917 -0.07852876 -0.41 0.2119297 -0.0787087 -0.41 0.2120516 -0.07889997 -0.41 0.2121564 -0.07910114 -0.41 0.2122431 -0.07931071 -0.41 0.2123114 -0.07952708 -0.41 0.2123605 -0.07974851 -0.41 0.2123901 -0.07997339 -0.41 0.2124 -0.08019995 -0.41 0.2124 -0.09979999 -0.41 0.2123901 -0.1000266 -0.41 0.2123605 -0.1002514 -0.41 0.2123114 -0.1004729 -0.41 0.2122431 -0.1006892 -0.41 0.2121564 -0.1008988 -0.41 0.2120516 -0.1011 -0.41 0.2119297 -0.1012912 -0.41 0.2117917 -0.1014712 -0.41 0.2116385 -0.1016384 -0.41 0.2114712 -0.1017917 -0.41 0.2112913 -0.1019298 -0.41 0.2111 -0.1020516 -0.41 0.2108988 -0.1021564 -0.41 0.2106892 -0.1022432 -0.41 0.2104729 -0.1023114 -0.41 0.2102515 -0.1023605 -0.41 0.2100266 -0.1023901</float_array>
          <technique_common>
            <accessor source="#chassis_default_as_machined__27-mesh-positions-array" count="880" stride="3">
              <param name="X" type="float"/>
              <param name="Y" type="float"/>
              <param name="Z" type="float"/>
            </accessor>
          </technique_common>
        </source>
        <source id="chassis_default_as_machined__27-mesh-normals">
          <float_array id="chassis_default_as_machined__27-mesh-normals-array" count="2538">-0.04365783 0 -0.9990466 -0.0435931 0 -0.9990494 -0.1305541 0 -0.9914413 -0.1304931 0 -0.9914492 -0.2164685 0 -0.9762897 -0.2164413 0 -0.9762957 -0.3007307 0 -0.9537091 -0.3006723 0 -0.9537276 -0.3826785 0 -0.9238816 -0.3826842 0 -0.9238793 -0.4617337 0 -0.8870186 -0.4617623 0 -0.8870038 -0.5373103 0 -0.8433848 -0.5372948 0 -0.8433946 -0.6087438 0 -0.7933669 -0.6087275 0 -0.7933795 -0.6756229 0 -0.7372474 -0.6756309 0 -0.73724 -0.7372713 0 -0.6755968 -0.7372421 0 -0.6756288 -0.7933539 0 -0.6087608 -0.7933657 0 -0.6087453 -0.8434002 0 -0.5372859 -0.843391 0 -0.5373005 -0.8869973 0 -0.4617746 -0.8870007 0 -0.4617683 -0.9238992 0 -0.3826362 -0.9239053 0 -0.3826214 -0.953715 0 -0.3007124 -0.9537189 0 -0.3006995 -0.9762827 0 -0.2164999 -0.9762821 0 -0.2165029 -0.9914488 0 -0.1304969 -0.991449 0 -0.130495 -0.9990473 0 -0.04364204 -0.9990474 0 0.04364061 -0.9990473 0 0.04364204 -0.9914482 0 0.130501 -0.991449 0 0.130495 -0.9762827 0 0.2164999 -0.9762835 0 0.2164961 -0.953715 0 0.3007124 -0.953716 0 0.3007088 -0.9239085 0 0.3826135 -0.9239006 0 0.3826327 -0.8869973 0 0.4617746 -0.8870007 0 0.4617683 -0.8434002 0 0.5372859 -0.7933419 0 0.6087763 -0.7933539 0 0.6087608 -0.7372567 0 0.6756128 -0.6756055 0 0.7372634 -0.6756484 0 0.7372241 -0.6087034 0 0.793398 -0.6087477 0 0.7933639 -0.5373103 0 0.8433848 -0.5373176 0 0.84338 -0.4617337 0 0.8870186 -0.461737 0 0.887017 -0.3826785 0 0.9238816 -0.382739 0 0.9238566 -0.3007014 0 0.9537183 -0.2164685 0 0.9762897 -0.2164107 0 0.9763025 -0.130491 0 0.9914495 -0.1305561 0 0.991441 -0.04356181 0 0.9990507 -0.04368913 0 0.9990453 0.04368984 0 0.9990452 0.0435611 0 0.9990508 0.1305541 0 0.9914413 0.1304931 0 0.9914492 0.2164073 0 0.9763032 0.2164719 0 0.9762889 0.3007014 0 0.9537183 0.3827333 0 0.923859 0.3826842 0 0.9238793 0.4617337 0 0.8870186 0.461737 0 0.887017 0.5373103 0 0.8433848 0.5373176 0 0.84338 0.6087825 0 0.7933372 0.6087461 0 0.7933652 0.6755965 0 0.7372717 0.6755695 0 0.7372963 0.7372567 0 0.6756128 0.7933539 0 0.6087608 0.7933419 0 0.6087763 0.8434002 0 0.5372859 0.8870318 0 0.4617083 0.8870368 0 0.461699 0.923868 0 0.3827115 0.9238802 0 0.382682 0.953715 0 0.3007124 0.953716 0 0.3007088 0.9762827 0 0.2164999 0.9762835 0 0.2164961 0.9914488 0 0.1304969 0.9914485 0 0.1304991 0.9990473 0 0.04364204 0.9990474 0 0.04364061 0.9990473 0 -0.04364204 0.9914488 0 -0.1304969 0.991449 0 -0.130495 0.9762812 0 -0.2165067 0.9762835 0 -0.2164961 0.9537178 0 -0.3007032 0.953716 0 -0.3007088 0.9238727 0 -0.3827002 0.9238708 0 -0.3827046 0.8870318 0 -0.4617083 0.8870368 0 -0.461699 0.843391 0 -0.5373005 0.8434002 0 -0.5372859 0.7933657 0 -0.6087453 0.7933539 0 -0.6087608 0.7372421 0 -0.6756288 0.7372713 0 -0.6755968 0.675579 0 -0.7372877 0.675587 0 -0.7372803 0.6087623 0 -0.7933527 0.6087864 0 -0.7933342 0.5372875 0 -0.8433992 0.5373176 0 -0.84338 0.461759 0 -0.8870055 0.461737 0 -0.887017 0.3826785 0 -0.9238816 0.3826842 0 -0.9238793 0.3006723 0 -0.9537276 0.3007307 0 -0.9537091 0.2164379 0 -0.9762964 0.2164719 0 -0.9762889 0.130491 0 -0.9914495 0.1305561 0 -0.991441 0.04359382 0 -0.9990494 0.04365712 0 -0.9990466 -0.1305645 0 -0.9914399 -0.1305034 0 -0.9914479 -0.2164481 0 -0.9762942 -0.216421 0 -0.9763002 -0.6087825 0 -0.7933372 -0.6087662 0 -0.7933497 -0.675579 0 -0.7372877 -0.675587 0 -0.7372803 -0.8870318 0 -0.4617083 -0.8870368 0 -0.461699 -0.923868 0 -0.3827115 -0.9238755 0 -0.3826933 -0.9763008 0 -0.2164177 -0.9762998 0 -0.2164226 -0.9914376 0 -0.1305816 -0.9914381 0 -0.1305777 -0.9914371 0 0.1305858 -0.9914381 0 0.1305777 -0.9763008 0 0.2164177 -0.9763013 0 0.2164158 -0.9238774 0 0.3826888 -0.9238708 0 0.3827046 -0.8870318 0 0.4617083 -0.8870368 0 0.461699 -0.6755616 0 0.7373036 -0.6756044 0 0.7372643 -0.6087422 0 0.7933682 -0.6087864 0 0.7933342 -0.2164481 0 0.9762942 -0.2163904 0 0.9763069 -0.1305014 0 0.9914482 -0.1305665 0 0.9914396 0.6087438 0 0.7933669 0.6087073 0 0.793395 0.6756404 0 0.7372314 0.6756135 0 0.737256 0.8869973 0 0.4617746 0.8870007 0 0.4617683 0.9763008 0 0.2164177 0.9763013 0 0.2164158 0.9762994 0 -0.2164245 0.9763013 0 -0.2164158 0.8869973 0 -0.4617746 0.8870007 0 -0.4617683 0.6756229 0 -0.7372474 0.6756309 0 -0.73724 0.6087236 0 -0.7933824 0.6087477 0 -0.7933639 -0.1305561 0 -0.991441 -0.130491 0 -0.9914495 -0.2164379 0 -0.9762964 -0.4617304 0 -0.8870203 -0.5373176 0 -0.84338 -0.5372875 0 -0.8433992 -0.6087477 0 -0.7933639 -0.6087236 0 -0.7933824 -0.7933619 0 -0.6087504 -0.9239006 0 -0.3826327 -0.9239039 0 -0.3826249 -0.953716 0 -0.3007088 -0.9537178 0 -0.3007032 -0.9762835 0 -0.2164961 -0.9762812 0 -0.2165067 -0.9990473 0 -0.04364252 -0.9990473 0 0.04364252 -0.9914485 0 0.1304991 -0.9914488 0 0.1304969 -0.92391 0 0.3826101 -0.9238992 0 0.3826362 -0.79335 0 0.6087659 -0.6756135 0 0.737256 -0.6756404 0 0.7372314 -0.6087073 0 0.793395 -0.6087438 0 0.7933669 -0.4617304 0 0.8870203 -0.3827333 0 0.923859 -0.2164073 0 0.9763032 -0.1304931 0 0.9914492 -0.1305541 0 0.9914413 0.1305561 0 0.991441 0.130491 0 0.9914495 0.2164685 0 0.9762897 0.3826785 0 0.9238816 0.4617304 0 0.8870203 0.6087864 0 0.7933342 0.6756044 0 0.7372643 0.6755656 0 0.7372999 0.7933381 0 0.6087813 0.8870335 0 0.4617052 0.9238708 0 0.3827046 0.9238774 0 0.3826888 0.991449 0 0.130495 0.9914482 0 0.130501 0.9990473 0 0.04364114 0.9990473 0 -0.04364252 0.9762821 0 -0.2165029 0.9762827 0 -0.2164999 0.9537189 0 -0.3006995 0.953715 0 -0.3007124 0.9238755 0 -0.3826933 0.923868 0 -0.3827115 0.8870335 0 -0.4617052 0.79335 0 -0.6087659 0.675583 0 -0.737284 0.6087662 0 -0.7933497 0.5372948 0 -0.8433946 0.5373103 0 -0.8433848 0.4617556 0 -0.8870071 0.2164685 0 -0.9762897 0.1304931 0 -0.9914492 0.1305541 0 -0.9914413 -0.1305665 0 -0.9914396 -0.2164515 0 -0.9762934 -0.2164176 0 -0.9763009 -0.6087864 0 -0.7933342 -0.675583 0 -0.737284 -0.8870335 0 -0.4617052 -0.9238708 0 -0.3827046 -0.9238727 0 -0.3827002 -0.9763013 0 -0.2164158 -0.9914376 0 0.1305819 -0.9914376 0 0.1305816 -0.9238802 0 0.382682 -0.923868 0 0.3827115 -0.8870335 0 0.4617052 -0.6755695 0 0.7372963 -0.6756005 0 0.737268 -0.6087461 0 0.7933652 -0.2164515 0 0.9762934 -0.216387 0 0.9763078 -0.1305034 0 0.9914479 0.6087477 0 0.7933639 0.6087034 0 0.793398 0.6756484 0 0.7372241 0.6756055 0 0.7372634 0.9762998 0 -0.2164226 0.6087275 0 -0.7933795 0.6087438 0 -0.7933669 0 0 -1 0 0.9990493 -0.04359722 0 0.9990492 -0.04359722 0 0.9914489 -0.1304958 0 0.9914296 -0.1306426 0 0.9763143 -0.2163574 0 0.9762827 -0.2164998 0 0.9537184 -0.3007012 0 0.9537185 -0.3007012 0 0.9238816 -0.3826786 0 0.9238815 -0.3826788 0 0.886981 -0.4618059 0 0.8870421 -0.4616886 0 0.8434342 -0.5372325 0 0.8432989 -0.537445 0 0.7933639 -0.6087477 0 0.7372739 -0.6755939 0 0.7372739 -0.675594 0 0.6756563 -0.7372169 0 0.6755818 -0.7372851 0 0.608804 -0.7933208 0 0.6086596 -0.7934315 0 0.5373386 -0.8433666 0 0.4617311 -0.8870199 0 0.382664 -0.9238877 0 0.3827166 -0.9238658 0 0.3007019 -0.9537182 0 0.3007447 -0.9537047 0 0.216428 -0.9762986 0 0.216428 -0.9762986 0 0.1304903 -0.9914496 0 0.1305096 -0.9914471 0 0.04362303 -0.9990481 0 0.04362303 -0.9990481 0 -0.04360663 0.9990488 0 -0.04360663 0.9990488 0 -0.1305323 0.9914442 0 -0.1305419 0.9914427 0 -0.216428 0.9762986 0 -0.216428 0.9762986 0 -0.3007298 0.9537094 0 -0.300687 0.953723 0 -0.3826638 0.9238877 0 -0.3826903 0.9238767 0 -0.461744 0.8870133 0 -0.4617746 0.8869974 0 -0.5373048 0.8433883 0 -0.537271 0.8434098 0 -0.6087678 0.7933486 0 -0.608804 0.7933208 0 -0.6755446 0.7373192 0 -0.6756191 0.7372509 0 -0.7372664 0.6756022 0 -0.7372664 0.6756021 0 -0.7933639 0.6087477 0 -0.8433665 0.5373388 0 -0.8434005 0.5372856 0 -0.8870151 0.4617406 0 -0.8870152 0.4617405 0 -0.9238815 0.3826788 0 -0.9238816 0.3826786 0 -0.953717 0.300706 0 -0.9537169 0.3007058 0 -0.9762993 0.2164252 0 -0.9762835 0.2164963 0 -0.9914392 0.1305692 0 -0.9914586 0.1304224 0 -0.9990459 0.04367244 0 -0.9990493 0.04359793 0 0 1 0 0.9990493 0.04359793 0 0.9990493 0.04359793 0 0.9914392 0.1305692 0 0.9914393 0.1305692 0 0.976315 0.216354 0 0.9762835 0.2164963 0 0.953717 0.300706 0 0.9537384 0.3006379 0 0.9238815 0.3826788 0 0.9238553 0.3827423 0 0.8870151 0.4617406 0 0.8870152 0.4617405 0 0.8433665 0.5373388 0 0.8434005 0.5372856 0 0.7933639 0.6087477 0 0.7933278 0.6087947 0 0.7373035 0.6755616 0 0.7372664 0.6756021 0 0.675619 0.7372511 0 0.6755819 0.737285 0 0.6087317 0.7933762 0 0.6087679 0.7933484 0 0.5373048 0.8433883 0 0.461744 0.8870133 0 0.4617746 0.8869974 0 0.3826638 0.9238877 0 0.3826903 0.9238767 0 0.3007083 0.9537162 0 0.3007084 0.9537162 0 0.216428 0.9762986 0 0.216428 0.9762986 0 0.1305419 0.9914429 0 0.1305323 0.9914441 0 0.04360663 0.9990488 0 0.04360663 0.9990488 0 1 -1.23795e-4 0 1 0 0 1 1.2363e-4 0 1 -1.23221e-4 0 1 4.95698e-5 0 1 1.97722e-5 0 1 -1.28053e-4 0 1 1.05626e-5 0 1 -2.44771e-5 0 1 1.79107e-4 0 1 1.52663e-4 0 1 -1.43807e-4 0 1 -4.59656e-5 0 1 -1.99426e-5 0 1 -7.8125e-5 0 1 3.53668e-5 0 1 7.81265e-5 0 1 -1.72109e-5 0 1 1.16021e-4 0 1 4.05063e-4 0 1 1.31396e-5 0 1 1.03698e-4 0 1 8.40954e-5 0 1 -1.06602e-4 0 1 1.63441e-5 0 1 9.42701e-5 0 1 -3.40643e-6 0 1 -3.34579e-4 0 1 -1.85768e-4 0 1 9.98678e-6 0 1 8.34813e-5 0 1 -8.3483e-5 0 1 3.44701e-6 0 1 3.94666e-5 0 0.9999946 -0.003318071 0 1 -3.53668e-5 0 1 -1.2134e-4 0 1 4.44531e-4 0 1 -1.64672e-4 0 1 -1.45448e-4 0 1 -3.03762e-5 0 1 -4.71601e-5 0 1 -9.42701e-5 0 1 7.66226e-5 0 1 5.18232e-5 0 1 -3.60168e-5 0 1 3.34503e-4 0 1 2.77641e-5 0 1 -5.72406e-6 0 1 1.47059e-4 0 1 -1.56743e-4 0 1 -1.35533e-5 0 1 3.79251e-5 0 1 -4.49994e-4 0 1 3.43119e-4 0 1 7.22749e-5 0 1 1.61559e-4 0 1 2.58387e-5 0 0.9999999 -5.00141e-4 0 1 1.28559e-4 0 0.999794 0.02030038 0 1 2.58617e-5 0 1 -1.18583e-4 0 1 -5.19681e-5 0 1 -1.38625e-5 1 0 0 1 -1.97585e-4 0 1 1.97589e-4 0 1 -4.93974e-5 0 1 -9.88045e-5 0 1 9.87996e-5 0 1 -4.93986e-5 0 1 9.87947e-5 0 1 4.93974e-5 0 1 -1.23493e-5 0 1 6.17436e-6 0 1 -3.47359e-6 0 1 2.47011e-5 0 1 2.46987e-5 0 1 -9.87947e-5 0 1 4.93998e-5 0 1 -9.87996e-5 0 1 4.93961e-5 0 1 -9.87898e-5 0 1 4.93986e-5 0 1 -4.9398e-5 0 1 1.97598e-4 0 1 -1.97594e-4 0 1 4.9398e-5 0 1 9.87898e-5 0 1 1.23493e-5 0 1 -6.17482e-6 0 1 3.47325e-6 0 1 -2.46987e-5 0 1 4.93925e-5 0 0 0.04360663 -0.9990488 0 0.04360663 -0.9990488 0 0.1305323 -0.9914442 0 0.1305419 -0.9914427 0 0.3007083 -0.9537162 0 0.3007084 -0.9537162 0 0.3826903 -0.9238768 0 0.4617745 -0.8869974 0 0.4617441 -0.8870133 0 0.5373048 -0.8433883 0 0.6087678 -0.7933486 0 0.6087319 -0.7933762 0 0.6756191 -0.7372509 0 0.7372664 -0.6756022 0 0.7373036 -0.6755616 0 0.7933278 -0.6087947 0 0.8434004 -0.5372857 0 0.8433666 -0.5373387 0 0.8870151 -0.4617406 0 0.8870152 -0.4617405 0 0.9238552 -0.3827425 0 0.9537384 -0.3006381 0 0.9537169 -0.3007058 0 0.9762835 -0.2164964 0 0.976315 -0.216354 0 0.9914392 -0.1305692 0 0.9914393 -0.1305692 0 0.9990493 -0.04359793 0 0.9990493 -0.04359793 0 -1 0 0 -1 -1.26594e-4 0 -1 -1.23805e-4 0 -1 7.62152e-5 0 -1 1.29654e-4 0 -1 5.02123e-5 0 -1 7.4798e-5 0 -1 -4.75287e-5 0 -1 -4.73257e-5 0 -1 5.49345e-5 0 -1 8.93002e-5 0 -1 -9.55566e-5 0 -1 -1.04175e-4 0 -1 -2.37927e-4 0 -1 1.295e-4 0 -1 -1.26444e-4 0 -1 7.96909e-5 0 -1 -7.91547e-5 0 -1 -4.02655e-5 0 -1 -3.40756e-5 0 -1 5.73407e-5 0 -1 -1.07224e-4 0 -1 1.47827e-5 0 -1 7.92618e-5 0 -1 3.78953e-6 0 -1 -1.07121e-4 0 -1 -6.88814e-5 0 -1 -3.75011e-5 0 -1 1.25239e-4 0 -1 -1.27904e-4 0 -1 3.69255e-5 0 -1 2.78816e-5 0 -1 2.80307e-5 0 -1 1.06606e-4 0 -1 -9.96214e-5 0 -1 3.68243e-6 0 -1 3.0203e-5 0 -1 -3.68243e-6 0 -1 9.96214e-5 0 -1 -1.06603e-4 0 -1 -2.80307e-5 0 -1 -1.04063e-4 0 -1 6.70885e-5 0 -1 4.8707e-5 0 -1 -4.92789e-5 0 -1 -1.28053e-4 0 -1 1.05306e-4 0 -1 -3.4381e-5 0 -1 4.58797e-5 0 -1 -9.9964e-5 0 -1 -1.01431e-4 0 -1 -7.48112e-5 0 -1 -7.37274e-5 0 -1 -2.36429e-6 0 -1 -6.83776e-5 0 -1 2.04117e-4 0 -1 -8.87243e-5 0 -1 4.47988e-5 0 -1 -7.6213e-5 0 -1 3.2966e-5 0 -0.9990493 -0.04359793 0 -0.9990459 -0.04367244 0 -0.9914585 -0.1304224 0 -0.9914393 -0.1305692 0 -0.9762835 -0.2164964 0 -0.9762993 -0.2164251 0 -0.953717 -0.300706 0 -0.9537169 -0.3007058 0 -0.9238815 -0.3826788 0 -0.9238816 -0.3826786 0 -0.8870151 -0.4617406 0 -0.8870152 -0.4617405 0 -0.8434004 -0.5372857 0 -0.8433666 -0.5373387 0 -0.7933639 -0.6087477 0 -0.7372664 -0.6756022 0 -0.7372664 -0.6756021 0 -0.675619 -0.7372511 0 -0.6755447 -0.7373191 0 -0.6088038 -0.7933209 0 -0.6087679 -0.7933484 0 -0.537271 -0.8434098 0 -0.5373048 -0.8433883 0 -0.4617745 -0.8869974 0 -0.4617441 -0.8870133 0 -0.3826903 -0.9238768 0 -0.382664 -0.9238877 0 -0.300687 -0.953723 0 -0.3007298 -0.9537094 0 -0.216428 -0.9762986 0 -0.216428 -0.9762986 0 -0.1305419 -0.9914429 0 -0.1305323 -0.9914441 0 -0.04360663 -0.9990488 0 -0.04360663 -0.9990488 -1 0 0 -1 -3.95189e-4 0 -1 3.95184e-4 0 -1 -9.87996e-5 0 -1 9.87947e-5 0 -1 1.97589e-4 0 -1 4.93974e-5 0 -1 1.23496e-5 0 -1 -9.64792e-7 0 -1 2.46993e-5 0 -1 -2.46987e-5 0 -1 -4.93986e-5 0 -1 1.97599e-4 0 -1 -3.95169e-4 0 -1 1.97591e-4 0 -1 -3.95184e-4 0 -1 3.95189e-4 0 -1 -3.95176e-4 0 -1 9.87935e-5 0 -1 -9.87984e-5 0 -1 -1.97599e-4 0 -1 -4.93961e-5 0 -1 -1.23487e-5 0 -1 9.64887e-7 0 -1 -2.46975e-5 0 -1 2.46987e-5 0 -1 -1.97589e-4 0 -1 3.95198e-4 0 -1 -1.9759e-4 0 0 -0.04361653 -0.9990484 0 -0.04362952 -0.9990479 0 -0.1305097 -0.9914471 0 -0.1305096 -0.9914471 0 -0.3007019 -0.9537182 0 -0.3007447 -0.9537047 0 -0.3827166 -0.9238658 0 -0.4617311 -0.8870199 0 -0.608804 -0.7933208 0 -0.6087317 -0.7933762 0 -0.6756563 -0.7372169 0 -0.6755074 -0.7373533 0 -0.7372739 -0.6755939 0 -0.7373483 -0.6755129 0 -0.7932918 -0.6088417 0 -0.8434342 -0.5372325 0 -0.8434342 -0.5372326 0 -0.886981 -0.4618059 0 -0.886981 -0.4618061 0 -0.9537613 -0.3005654 0 -0.9536756 -0.300837 0 -0.9763143 -0.2163574 0 -0.9762827 -0.2164998 0 -0.9914296 -0.1306425 0 -0.9914489 -0.1304958 0 -0.9990493 -0.04359722 0 -0.9990492 -0.04359722 0 -1 -1.33963e-4 0 -1 4.66647e-5 0 -1 1.23796e-4 0 -1 -6.93814e-6 0 -1 2.83852e-5 0 -1 1.56923e-4 0 -1 -1.65474e-6 0 -1 -7.27227e-5 0 -1 -1.91113e-4 0 -1 -1.85768e-4 0 -1 -5.18562e-5 0 -1 1.81032e-5 0 -1 -1.65934e-4 0 -1 6.79592e-5 0 -1 -6.75019e-5 0 -1 -3.39569e-5 0 -1 1.80049e-6 0 -1 1.89494e-5 0 -1 -3.41496e-5 0 -1 2.79198e-4 0 -1 -4.00772e-4 0 -1 3.01062e-5 0 -1 -1.64323e-5 0 -1 3.29679e-4 0 -0.9999993 -0.001274287 0 -1 4.91702e-5 0 -1 1.16333e-4 0 -1 -1.39558e-4 0 -1 1.98612e-5 0 -1 -1.95564e-5 0 -1 -3.34579e-4 0 -1 1.2783e-4 0 -1 -3.61686e-6 0 -1 -1.06606e-4 0 -1 -8.40413e-5 0 -1 8.34036e-5 0 -1 -8.3402e-5 0 -1 5.17062e-5 0 -1 1.06603e-4 0 -1 3.61686e-6 0 -1 1.85001e-4 0 -1 1.36965e-4 0 -1 -1.13305e-4 0 -1 3.55382e-4 0 -1 2.51391e-5 0 -1 -1.2783e-4 0 -1 3.39569e-5 0 -0.9999998 5.94663e-4 0 -1 1.58928e-4 0 -1 -1.52832e-4 0 -1 -4.57972e-5 0 -1 1.31904e-4 0 -1 2.92652e-5 0 -1 -3.19519e-5 0 -1 1.79107e-4 0 -1 1.60418e-6 0 -1 -2.61017e-4 0 -1 -2.24883e-4 0 -1 2.10283e-5 0 -1 -3.0489e-4 0 -1 1.55096e-5 0 -1 4.05063e-4 0 -1 -2.3347e-4 0 -0.9999738 0.007246136 0 -1 -4.03753e-4 0 -1 -2.82717e-5 0 -0.9999946 0.003318071 0 -1 -1.55307e-5 0 -1 -8.95977e-5 0 -1 -1.37725e-5 0 -0.9990493 0.04359722 0 -0.9990492 0.04359722 0 -0.9914489 0.1304958 0 -0.9914296 0.1306426 0 -0.9762827 0.2164997 0 -0.9763143 0.2163575 0 -0.9536756 0.300837 0 -0.9537612 0.3005654 0 -0.886981 0.4618059 0 -0.886981 0.4618061 0 -0.8434342 0.5372325 0 -0.8434342 0.5372326 0 -0.7932918 0.6088417 0 -0.7373483 0.6755127 0 -0.7372739 0.675594 0 -0.6755075 0.7373532 0 -0.6756562 0.737217 0 -0.6087319 0.7933762 0 -0.6088038 0.7933209 0 -0.4617311 0.8870199 0 -0.3827167 0.9238658 0 -0.3007447 0.9537047 0 -0.3007019 0.9537182 0 -0.1305097 0.9914471 0 -0.1305096 0.9914471 0 -0.04362952 0.9990479 0 -0.04361653 0.9990484 0 0.04362303 0.9990481 0 0.04362303 0.9990481 0 0.1305097 0.9914471 0 0.1304903 0.9914496 0 0.3007447 0.9537047 0 0.3007019 0.9537182 0 0.3827167 0.9238658 0 0.4617311 0.8870199 0 0.5373386 0.8433666 0 0.6086598 0.7934314 0 0.6088038 0.7933209 0 0.6756562 0.737217 0 0.7372739 0.6755939 0 0.7372739 0.675594 0 0.843299 0.5374449 0 0.8434342 0.5372326 0 0.8870422 0.4616884 0 0.886981 0.4618061 0 0.9238816 0.3826786 0 0.9537184 0.3007012 0 0.9537185 0.3007012 0 0.9762827 0.2164997 0 0.9763143 0.2163575 0 0.9914296 0.1306425 0 0.9914489 0.1304958 0 0.9990493 0.04359722 0 0.9990492 0.04359722 0 1 6.95187e-6 0 1 2.25494e-5 0 1 1.25388e-4 0 1 -4.59861e-5 0 1 -1.43973e-4 0 1 1.00595e-4 0 1 -3.95801e-5 0 1 2.17337e-5 0 1 -2.27437e-5 0 1 -4.83136e-5 0 1 1.67172e-4 0 1 -3.67306e-5 0 1 1.27162e-4 0 1 -2.82717e-5 0 1 -4.05063e-4 0 0.9999999 5.6798e-4 0 1 1.98467e-4 0 1 -3.10864e-5 0 1 -2.17778e-5 0 1 -1.26594e-4 0 1 6.86899e-5 0 1 2.64619e-5 0 1 -4.05365e-5 0 1 -9.29385e-5 0 1 -1.30482e-4 0 1 -1.67172e-4 0 1 3.19577e-5 0 1 -8.40431e-5 0 1 8.34017e-5 0 1 -8.34036e-5 0 1 6.59856e-5 0 1 2.88952e-5 0 1 -1.16477e-5 0 1 4.83136e-5 0 1 -3.10193e-5 0 0.9999945 0.003323614 0 1 2.25114e-4 0 1 -2.6214e-4 0 1 2.74865e-4 0 1 1.16991e-4 0 1 4.63052e-5 0 1 -1.56923e-4 0 1 8.77062e-5 0 1 4.08099e-5 0 1 -6.53423e-5 0 1 -8.6089e-5 0 1 9.29174e-5 0 1 1.88796e-4 0 1 -9.26753e-6 0 1 3.20651e-5 0 1 -2.07216e-4 0 1 9.06503e-5 0 1 4.49994e-4 0 1 -3.43119e-4 0 1 -3.55429e-4 0 1 9.42716e-5 0 1 2.79198e-4 0 1 -2.37058e-4 0 1 4.13274e-5 0 1 -1.2995e-4 0 1 -3.80249e-6 0 1 2.81642e-4 0 1 3.28646e-5 0 1 -3.80166e-4 0 1 2.91521e-5 0 1 -2.59841e-5 0 1 -8.92997e-5 0 1 6.20514e-5</float_array>
          <technique_common>
            <accessor source="#chassis_default_as_machined__27-mesh-normals-array" count="846" stride="3">
              <param name="X" type="float"/>
              <param name="Y" type="float"/>
              <param name="Z" type="float"/>
            </accessor>
          </technique_common>
        </source>
        <vertices id="chassis_default_as_machined__27-mesh-vertices">
          <input semantic="POSITION" source="#chassis_default_as_machined__27-mesh-positions"/>
        </vertices>
        <triangles count="1776">
          <input semantic="VERTEX" source="#chassis_default_as_machined__27-mesh-vertices" offset="0"/>
          <input semantic="NORMAL" source="#chassis_default_as_machined__27-mesh-normals" offset="1"/>
          <p>0 0 1 0 2 0 1 1 3 1 2 1 2 2 3 2 4 2 3 3 5 3 4 3 4 4 5 4 6 4 5 5 7 5 6 5 6 6 7 6 8 6 7 7 9 7 8 7 8 8 9 8 10 8 9 9 11 9 10 9 10 10 11 10 12 10 11 11 13 11 12 11 12 12 13 12 14 12 13 13 15 13 14 13 14 14 15 14 16 14 15 15 17 15 16 15 16 16 17 16 18 16 17 17 19 17 18 17 18 18 19 18 20 18 19 19 21 19 20 19 20 20 21 20 22 20 21 21 23 21 22 21 22 22 23 22 24 22 23 23 25 23 24 23 24 24 25 24 26 24 25 25 27 25 26 25 26 26 27 26 28 26 27 27 29 27 28 27 28 28 29 28 30 28 29 29 31 29 30 29 30 30 31 30 32 30 31 31 33 31 32 31 32 32 33 32 34 32 33 33 35 33 34 33 34 34 35 34 36 34 35 34 37 34 36 34 36 35 37 35 38 35 37 36 39 36 38 36 38 37 39 37 40 37 39 38 41 38 40 38 40 39 41 39 42 39 41 40 43 40 42 40 42 41 43 41 44 41 43 42 45 42 44 42 44 43 45 43 46 43 45 44 47 44 46 44 46 45 47 45 48 45 47 46 49 46 48 46 48 47 49 47 50 47 49 47 51 47 50 47 50 48 51 48 52 48 51 49 53 49 52 49 52 50 53 50 54 50 53 50 55 50 54 50 54 51 55 51 56 51 55 52 57 52 56 52 56 53 57 53 58 53 57 54 59 54 58 54 58 55 59 55 60 55 59 56 61 56 60 56 60 57 61 57 62 57 61 58 63 58 62 58 62 59 63 59 64 59 63 60 65 60 64 60 64 61 65 61 66 61 65 61 67 61 66 61 66 62 67 62 68 62 67 63 69 63 68 63 68 64 69 64 70 64 69 65 71 65 70 65 70 66 71 66 72 66 71 67 73 67 72 67 72 68 73 68 74 68 73 69 75 69 74 69 74 70 75 70 76 70 75 71 77 71 76 71 76 72 77 72 78 72 77 73 79 73 78 73 78 74 79 74 80 74 79 74 81 74 80 74 80 75 81 75 82 75 81 76 83 76 82 76 82 77 83 77 84 77 83 78 85 78 84 78 84 79 85 79 86 79 85 80 87 80 86 80 86 81 87 81 88 81 87 82 89 82 88 82 88 83 89 83 90 83 89 84 91 84 90 84 90 85 91 85 92 85 91 85 93 85 92 85 92 86 93 86 94 86 93 87 95 87 94 87 94 88 95 88 96 88 95 88 97 88 96 88 96 89 97 89 98 89 97 90 99 90 98 90 98 91 99 91 100 91 99 92 101 92 100 92 100 93 101 93 102 93 101 94 103 94 102 94 102 95 103 95 104 95 103 96 105 96 104 96 104 97 105 97 106 97 105 98 107 98 106 98 106 99 107 99 108 99 107 100 109 100 108 100 108 101 109 101 110 101 109 101 111 101 110 101 110 102 111 102 112 102 111 103 113 103 112 103 112 104 113 104 114 104 113 105 115 105 114 105 114 106 115 106 116 106 115 107 117 107 116 107 116 108 117 108 118 108 117 109 119 109 118 109 118 110 119 110 120 110 119 111 121 111 120 111 120 112 121 112 122 112 121 113 123 113 122 113 122 114 123 114 124 114 123 115 125 115 124 115 124 116 125 116 126 116 125 117 127 117 126 117 126 118 127 118 128 118 127 119 129 119 128 119 128 120 129 120 130 120 129 121 131 121 130 121 130 122 131 122 132 122 131 123 133 123 132 123 132 124 133 124 134 124 133 125 135 125 134 125 134 126 135 126 136 126 135 127 137 127 136 127 136 128 137 128 138 128 137 129 139 129 138 129 138 130 139 130 140 130 139 131 141 131 140 131 140 132 141 132 142 132 141 133 143 133 142 133 142 134 143 134 0 134 143 135 1 135 0 135 144 0 145 0 146 0 145 1 147 1 146 1 146 136 147 136 148 136 147 137 149 137 148 137 148 138 149 138 150 138 149 139 151 139 150 139 150 6 151 6 152 6 151 7 153 7 152 7 152 8 153 8 154 8 153 9 155 9 154 9 154 10 155 10 156 10 155 11 157 11 156 11 156 12 157 12 158 12 157 13 159 13 158 13 158 140 159 140 160 140 159 141 161 141 160 141 160 142 161 142 162 142 161 143 163 143 162 143 162 18 163 18 164 18 163 19 165 19 164 19 164 20 165 20 166 20 165 21 167 21 166 21 166 22 167 22 168 22 167 23 169 23 168 23 168 144 169 144 170 144 169 145 171 145 170 145 170 146 171 146 172 146 171 147 173 147 172 147 172 28 173 28 174 28 173 29 175 29 174 29 174 148 175 148 176 148 175 149 177 149 176 149 176 150 177 150 178 150 177 151 179 151 178 151 178 34 179 34 180 34 179 34 181 34 180 34 180 35 181 35 182 35 181 36 183 36 182 36 182 152 183 152 184 152 183 153 185 153 184 153 184 154 185 154 186 154 185 155 187 155 186 155 186 41 187 41 188 41 187 42 189 42 188 42 188 156 189 156 190 156 189 157 191 157 190 157 190 158 191 158 192 158 191 159 193 159 192 159 192 47 193 47 194 47 193 47 195 47 194 47 194 48 195 48 196 48 195 49 197 49 196 49 196 50 197 50 198 50 197 50 199 50 198 50 198 160 199 160 200 160 199 161 201 161 200 161 200 162 201 162 202 162 201 163 203 163 202 163 202 55 203 55 204 55 203 56 205 56 204 56 204 57 205 57 206 57 205 58 207 58 206 58 206 59 207 59 208 59 207 60 209 60 208 60 208 61 209 61 210 61 209 61 211 61 210 61 210 164 211 164 212 164 211 165 213 165 212 165 212 166 213 166 214 166 213 167 215 167 214 167 214 66 215 66 216 66 215 67 217 67 216 67 216 68 217 68 218 68 217 69 219 69 218 69 218 70 219 70 220 70 219 71 221 71 220 71 220 72 221 72 222 72 221 73 223 73 222 73 222 74 223 74 224 74 223 74 225 74 224 74 224 75 225 75 226 75 225 76 227 76 226 76 226 77 227 77 228 77 227 78 229 78 228 78 228 79 229 79 230 79 229 80 231 80 230 80 230 168 231 168 232 168 231 169 233 169 232 169 232 170 233 170 234 170 233 171 235 171 234 171 234 85 235 85 236 85 235 85 237 85 236 85 236 86 237 86 238 86 237 87 239 87 238 87 238 88 239 88 240 88 239 88 241 88 240 88 240 172 241 172 242 172 241 173 243 173 242 173 242 91 243 91 244 91 243 92 245 92 244 92 244 93 245 93 246 93 245 94 247 94 246 94 246 174 247 174 248 174 247 175 249 175 248 175 248 97 249 97 250 97 249 98 251 98 250 98 250 99 251 99 252 99 251 100 253 100 252 100 252 101 253 101 254 101 253 101 255 101 254 101 254 102 255 102 256 102 255 103 257 103 256 103 256 176 257 176 258 176 257 177 259 177 258 177 258 106 259 106 260 106 259 107 261 107 260 107 260 108 261 108 262 108 261 109 263 109 262 109 262 178 263 178 264 178 263 179 265 179 264 179 264 112 265 112 266 112 265 113 267 113 266 113 266 114 267 114 268 114 267 115 269 115 268 115 268 116 269 116 270 116 269 117 271 117 270 117 270 180 271 180 272 180 271 181 273 181 272 181 272 182 273 182 274 182 273 183 275 183 274 183 274 122 275 122 276 122 275 123 277 123 276 123 276 124 277 124 278 124 277 125 279 125 278 125 278 126 279 126 280 126 279 127 281 127 280 127 280 128 281 128 282 128 281 129 283 129 282 129 282 130 283 130 284 130 283 131 285 131 284 131 284 132 285 132 286 132 285 133 287 133 286 133 286 134 287 134 144 134 287 135 145 135 144 135 288 0 289 0 290 0 289 1 291 1 290 1 290 184 291 184 292 184 291 185 293 185 292 185 292 4 293 4 294 4 293 186 295 186 294 186 294 6 295 6 296 6 295 7 297 7 296 7 296 8 297 8 298 8 297 8 299 8 298 8 298 187 299 187 300 187 299 11 301 11 300 11 300 188 301 188 302 188 301 189 303 189 302 189 302 190 303 190 304 190 303 191 305 191 304 191 304 17 305 17 306 17 305 16 307 16 306 16 306 18 307 18 308 18 307 19 309 19 308 19 308 20 309 20 310 20 309 192 311 192 310 192 310 22 311 22 312 22 311 23 313 23 312 23 312 25 313 25 314 25 313 24 315 24 314 24 314 193 315 193 316 193 315 194 317 194 316 194 316 195 317 195 318 195 317 196 319 196 318 196 318 197 319 197 320 197 319 198 321 198 320 198 320 33 321 33 322 33 321 32 323 32 322 32 322 34 323 34 324 34 323 199 325 199 324 199 324 35 325 35 326 35 325 200 327 200 326 200 326 201 327 201 328 201 327 202 329 202 328 202 328 40 329 40 330 40 329 39 331 39 330 39 330 42 331 42 332 42 331 41 333 41 332 41 332 203 333 203 334 203 333 204 335 204 334 204 334 46 335 46 336 46 335 45 337 45 336 45 336 47 337 47 338 47 337 47 339 47 338 47 338 48 339 48 340 48 339 205 341 205 340 205 340 50 341 50 342 50 341 50 343 50 342 50 342 206 343 206 344 206 343 207 345 207 344 207 344 208 345 208 346 208 345 209 347 209 346 209 346 56 347 56 348 56 347 55 349 55 348 55 348 210 349 210 350 210 349 58 351 58 350 58 350 59 351 59 352 59 351 211 353 211 352 211 352 61 353 61 354 61 353 61 355 61 354 61 354 62 355 62 356 62 355 212 357 212 356 212 356 213 357 213 358 213 357 214 359 214 358 214 358 66 359 66 360 66 359 67 361 67 360 67 360 68 361 68 362 68 361 69 363 69 362 69 362 215 363 215 364 215 363 216 365 216 364 216 364 72 365 72 366 72 365 217 367 217 366 217 366 74 367 74 368 74 367 74 369 74 368 74 368 75 369 75 370 75 369 218 371 218 370 218 370 219 371 219 372 219 371 78 373 78 372 78 372 80 373 80 374 80 373 79 375 79 374 79 374 220 375 220 376 220 375 82 377 82 376 82 376 221 377 221 378 221 377 222 379 222 378 222 378 85 379 85 380 85 379 85 381 85 380 85 380 86 381 86 382 86 381 223 383 223 382 223 382 88 383 88 384 88 383 88 385 88 384 88 384 224 385 224 386 224 385 224 387 224 386 224 386 225 387 225 388 225 387 226 389 226 388 226 388 94 389 94 390 94 389 93 391 93 390 93 390 96 391 96 392 96 391 95 393 95 392 95 392 227 393 227 394 227 393 228 395 228 394 228 394 99 395 99 396 99 395 229 397 229 396 229 396 101 397 101 398 101 397 230 399 230 398 230 398 103 399 103 400 103 399 102 401 102 400 102 400 231 401 231 402 231 401 232 403 232 402 232 402 233 403 233 404 233 403 234 405 234 404 234 404 235 405 235 406 235 405 236 407 236 406 236 406 237 407 237 408 237 407 237 409 237 408 237 408 112 409 112 410 112 409 113 411 113 410 113 410 114 411 114 412 114 411 238 413 238 412 238 412 116 413 116 414 116 413 117 415 117 414 117 414 119 415 119 416 119 415 239 417 239 416 239 416 240 417 240 418 240 417 121 419 121 418 121 418 241 419 241 420 241 419 242 421 242 420 242 420 243 421 243 422 243 421 125 423 125 422 125 422 126 423 126 424 126 423 126 425 126 424 126 424 128 425 128 426 128 425 129 427 129 426 129 426 130 427 130 428 130 427 244 429 244 428 244 428 245 429 245 430 245 429 246 431 246 430 246 430 134 431 134 288 134 431 135 289 135 288 135 432 0 433 0 434 0 433 1 435 1 434 1 434 247 435 247 436 247 435 137 437 137 436 137 436 248 437 248 438 248 437 249 439 249 438 249 438 6 439 6 440 6 439 7 441 7 440 7 440 8 441 8 442 8 441 8 443 8 442 8 442 187 443 187 444 187 443 11 445 11 444 11 444 188 445 188 446 188 445 189 447 189 446 189 446 250 447 250 448 250 447 141 449 141 448 141 448 143 449 143 450 143 449 251 451 251 450 251 450 18 451 18 452 18 451 19 453 19 452 19 452 20 453 20 454 20 453 192 455 192 454 192 454 22 455 22 456 22 455 23 457 23 456 23 456 252 457 252 458 252 457 252 459 252 458 252 458 253 459 253 460 253 459 254 461 254 460 254 460 195 461 195 462 195 461 196 463 196 462 196 462 255 463 255 464 255 463 149 465 149 464 149 464 151 465 151 466 151 465 150 467 150 466 150 466 34 467 34 468 34 467 199 469 199 468 199 468 35 469 35 470 35 469 200 471 200 470 200 470 256 471 256 472 256 471 257 473 257 472 257 472 155 473 155 474 155 473 155 475 155 474 155 474 42 475 42 476 42 475 41 477 41 476 41 476 258 477 258 478 258 477 259 479 259 478 259 478 260 479 260 480 260 479 260 481 260 480 260 480 47 481 47 482 47 481 47 483 47 482 47 482 48 483 48 484 48 483 205 485 205 484 205 484 50 485 50 486 50 485 50 487 50 486 50 486 261 487 261 488 261 487 262 489 262 488 262 488 263 489 263 490 263 489 163 491 163 490 163 490 56 491 56 492 56 491 55 493 55 492 55 492 210 493 210 494 210 493 58 495 58 494 58 494 59 495 59 496 59 495 211 497 211 496 211 496 61 497 61 498 61 497 61 499 61 498 61 498 264 499 264 500 264 499 265 501 265 500 265 500 266 501 266 502 266 501 167 503 167 502 167 502 66 503 66 504 66 503 67 505 67 504 67 504 68 505 68 506 68 505 69 507 69 506 69 506 215 507 215 508 215 507 216 509 216 508 216 508 72 509 72 510 72 509 217 511 217 510 217 510 74 511 74 512 74 511 74 513 74 512 74 512 75 513 75 514 75 513 218 515 218 514 218 514 219 515 219 516 219 515 78 517 78 516 78 516 80 517 80 518 80 517 79 519 79 518 79 518 267 519 267 520 267 519 268 521 268 520 268 520 269 521 269 522 269 521 270 523 270 522 270 522 85 523 85 524 85 523 85 525 85 524 85 524 86 525 86 526 86 525 223 527 223 526 223 526 88 527 88 528 88 527 88 529 88 528 88 528 173 529 173 530 173 529 172 531 172 530 172 530 225 531 225 532 225 531 226 533 226 532 226 532 94 533 94 534 94 533 93 535 93 534 93 534 175 535 175 536 175 535 175 537 175 536 175 536 227 537 227 538 227 537 228 539 228 538 228 538 99 539 99 540 99 539 229 541 229 540 229 540 101 541 101 542 101 541 230 543 230 542 230 542 103 543 103 544 103 543 102 545 102 544 102 544 271 545 271 546 271 545 177 547 177 546 177 546 233 547 233 548 233 547 234 549 234 548 234 548 235 549 235 550 235 549 236 551 236 550 236 550 179 551 179 552 179 551 178 553 178 552 178 552 112 553 112 554 112 553 113 555 113 554 113 554 114 555 114 556 114 555 238 557 238 556 238 556 116 557 116 558 116 557 117 559 117 558 117 558 181 559 181 560 181 559 180 561 180 560 180 560 272 561 272 562 272 561 273 563 273 562 273 562 241 563 241 564 241 563 242 565 242 564 242 564 243 565 243 566 243 565 125 567 125 566 125 566 126 567 126 568 126 567 126 569 126 568 126 568 128 569 128 570 128 569 129 571 129 570 129 570 130 571 130 572 130 571 244 573 244 572 244 572 245 573 245 574 245 573 246 575 246 574 246 574 134 575 134 432 134 575 135 433 135 432 135 576 274 577 274 578 274 577 274 579 274 578 274 580 275 581 275 582 275 581 276 583 276 582 276 582 277 583 277 584 277 583 278 585 278 584 278 584 279 585 279 586 279 585 280 587 280 586 280 586 281 587 281 588 281 587 282 589 282 588 282 588 283 589 283 590 283 589 284 591 284 590 284 590 285 591 285 592 285 591 286 593 286 592 286 592 287 593 287 594 287 593 288 595 288 594 288 594 289 595 289 596 289 595 289 597 289 596 289 596 290 597 290 598 290 597 291 599 291 598 291 598 292 599 292 600 292 599 293 601 293 600 293 600 294 601 294 602 294 601 295 603 295 602 295 602 296 603 296 604 296 603 296 605 296 604 296 604 297 605 297 606 297 605 297 607 297 606 297 606 298 607 298 608 298 607 299 609 299 608 299 608 300 609 300 610 300 609 301 611 301 610 301 610 302 611 302 612 302 611 303 613 303 612 303 612 304 613 304 614 304 613 305 615 305 614 305 614 306 615 306 576 306 615 307 577 307 576 307 616 308 617 308 618 308 616 309 618 309 619 309 618 310 620 310 619 310 619 311 620 311 621 311 620 312 622 312 621 312 621 313 622 313 623 313 622 314 624 314 623 314 623 315 624 315 625 315 624 316 626 316 625 316 625 317 626 317 627 317 626 318 628 318 627 318 627 319 628 319 629 319 628 320 630 320 629 320 629 321 630 321 631 321 630 322 632 322 631 322 631 323 632 323 633 323 632 324 634 324 633 324 633 325 634 325 635 325 634 326 636 326 635 326 635 327 636 327 637 327 636 328 638 328 637 328 637 328 638 328 639 328 638 329 640 329 639 329 639 330 640 330 641 330 640 331 642 331 641 331 641 332 642 332 643 332 642 333 644 333 643 333 643 334 644 334 645 334 644 335 646 335 645 335 645 336 646 336 647 336 646 337 648 337 647 337 647 338 648 338 649 338 648 339 650 339 649 339 649 340 650 340 651 340 650 341 652 341 651 341 651 342 652 342 653 342 654 343 617 343 655 343 617 343 616 343 655 343 656 344 657 344 658 344 656 345 658 345 659 345 658 346 660 346 659 346 659 347 660 347 661 347 660 348 662 348 661 348 661 349 662 349 663 349 662 350 664 350 663 350 663 351 664 351 665 351 664 352 666 352 665 352 665 353 666 353 667 353 666 354 668 354 667 354 667 355 668 355 669 355 668 356 670 356 669 356 669 357 670 357 671 357 670 358 672 358 671 358 671 359 672 359 673 359 672 360 674 360 673 360 673 361 674 361 675 361 674 362 676 362 675 362 675 363 676 363 677 363 676 364 678 364 677 364 677 365 678 365 679 365 678 366 680 366 679 366 679 366 680 366 681 366 680 367 682 367 681 367 681 368 682 368 683 368 682 369 684 369 683 369 683 370 684 370 685 370 684 371 686 371 685 371 685 372 686 372 687 372 686 373 688 373 687 373 687 374 688 374 689 374 688 375 690 375 689 375 689 376 690 376 691 376 690 377 654 377 691 377 691 378 654 378 655 378 327 379 325 379 692 379 692 380 325 380 656 380 325 381 323 381 656 381 323 382 321 382 656 382 656 383 321 383 319 383 693 384 541 384 539 384 319 380 317 380 656 380 317 385 315 385 656 385 656 386 315 386 313 386 313 380 311 380 656 380 311 380 309 380 656 380 656 387 309 387 307 387 307 380 305 380 656 380 305 388 303 388 656 388 656 380 303 380 301 380 559 389 557 389 657 389 557 390 555 390 657 390 555 380 553 380 657 380 553 380 551 380 657 380 657 391 551 391 549 391 549 380 547 380 657 380 547 380 545 380 657 380 657 380 545 380 693 380 545 380 543 380 693 380 693 392 543 392 541 392 477 393 363 393 479 393 363 394 481 394 479 394 403 380 401 380 465 380 401 380 399 380 465 380 375 380 373 380 473 380 463 380 461 380 431 380 461 395 459 395 431 395 457 380 455 380 656 380 455 380 453 380 656 380 656 396 453 396 451 396 451 397 449 397 656 397 449 380 447 380 656 380 656 380 447 380 445 380 295 398 293 398 656 398 293 380 291 380 656 380 565 380 563 380 657 380 563 380 561 380 657 380 657 399 561 399 559 399 339 380 337 380 692 380 337 380 335 380 692 380 692 400 335 400 333 400 333 380 331 380 692 380 331 380 329 380 692 380 692 401 329 401 327 401 415 380 413 380 465 380 413 402 411 402 465 402 465 403 411 403 409 403 409 404 407 404 465 404 407 380 405 380 465 380 465 405 405 405 403 405 477 380 475 380 363 380 475 380 473 380 363 380 363 380 473 380 365 380 473 406 367 406 365 406 491 380 489 380 692 380 347 407 345 407 692 407 421 380 419 380 465 380 419 380 417 380 465 380 465 408 417 408 415 408 393 380 473 380 395 380 473 380 471 380 395 380 395 380 471 380 397 380 471 409 469 409 397 409 397 410 469 410 399 410 469 380 467 380 399 380 399 411 467 411 465 411 393 380 391 380 473 380 391 380 389 380 473 380 473 412 389 412 387 412 291 380 289 380 656 380 289 413 431 413 656 413 656 380 431 380 457 380 431 414 459 414 457 414 445 380 443 380 656 380 443 380 441 380 656 380 656 415 441 415 439 415 439 380 437 380 656 380 437 416 435 416 656 416 656 380 435 380 657 380 435 380 433 380 657 380 301 380 299 380 656 380 299 380 297 380 656 380 656 417 297 417 295 417 433 380 575 380 657 380 575 380 573 380 657 380 657 418 573 418 571 418 539 380 537 380 693 380 537 380 535 380 693 380 693 419 535 419 533 419 345 380 343 380 692 380 343 380 341 380 692 380 692 420 341 420 339 420 387 421 385 421 473 421 385 380 383 380 473 380 473 422 383 422 381 422 381 380 379 380 473 380 379 380 377 380 473 380 473 423 377 423 375 423 571 380 569 380 657 380 569 380 567 380 657 380 657 424 567 424 565 424 463 380 431 380 465 380 431 380 429 380 465 380 465 425 429 425 427 425 373 380 371 380 473 380 371 380 369 380 473 380 473 426 369 426 367 426 533 380 531 380 693 380 531 380 529 380 693 380 693 427 529 427 527 427 527 428 525 428 693 428 525 429 523 429 693 429 693 430 523 430 521 430 521 380 519 380 693 380 519 380 517 380 693 380 693 431 517 431 515 431 357 432 355 432 692 432 355 433 353 433 692 433 427 380 425 380 465 380 425 380 423 380 465 380 465 434 423 434 421 434 353 380 351 380 692 380 351 380 349 380 692 380 692 380 349 380 347 380 515 380 513 380 693 380 513 380 511 380 693 380 693 435 511 435 509 435 503 380 692 380 505 380 692 380 693 380 505 380 505 380 693 380 507 380 693 436 509 436 507 436 503 437 501 437 692 437 501 380 499 380 692 380 692 438 499 438 497 438 363 439 361 439 692 439 361 380 359 380 692 380 692 440 359 440 357 440 497 380 495 380 692 380 495 380 493 380 692 380 692 380 493 380 491 380 489 441 487 441 692 441 487 380 485 380 692 380 692 442 485 442 363 442 485 380 483 380 363 380 363 443 483 443 481 443 578 444 655 444 576 444 655 444 616 444 576 444 576 444 616 444 614 444 616 444 619 444 614 444 614 445 619 445 612 445 619 444 621 444 612 444 612 444 621 444 610 444 621 444 623 444 610 444 610 446 623 446 608 446 623 447 625 447 608 447 608 444 625 444 606 444 625 444 627 444 606 444 606 444 627 444 604 444 627 444 629 444 604 444 604 448 629 448 602 448 629 444 631 444 602 444 602 444 631 444 600 444 631 444 633 444 600 444 600 449 633 449 598 449 633 450 635 450 598 450 598 444 635 444 596 444 635 444 637 444 596 444 596 444 637 444 594 444 637 444 639 444 594 444 594 451 639 451 592 451 639 444 641 444 592 444 592 444 641 444 590 444 641 444 643 444 590 444 590 444 643 444 588 444 643 444 645 444 588 444 588 452 645 452 586 452 645 444 647 444 586 444 586 444 647 444 584 444 647 444 649 444 584 444 584 444 649 444 582 444 649 453 651 453 582 453 582 444 651 444 580 444 651 444 653 444 580 444 580 444 653 444 694 444 653 444 695 444 694 444 694 444 695 444 696 444 695 454 697 454 696 454 696 455 697 455 698 455 697 444 699 444 698 444 698 444 699 444 700 444 699 444 701 444 700 444 700 456 701 456 702 456 701 444 703 444 702 444 702 447 703 447 704 447 703 457 705 457 704 457 704 444 705 444 706 444 705 444 707 444 706 444 706 444 707 444 708 444 707 444 709 444 708 444 708 458 709 458 710 458 709 459 711 459 710 459 710 460 711 460 712 460 711 461 713 461 712 461 712 444 713 444 714 444 713 444 715 444 714 444 714 462 715 462 716 462 715 463 717 463 716 463 716 460 717 460 718 460 717 444 719 444 718 444 718 444 719 444 720 444 719 464 721 464 720 464 720 444 721 444 722 444 721 444 723 444 722 444 722 444 723 444 724 444 723 444 725 444 724 444 724 444 725 444 726 444 725 444 727 444 726 444 726 444 727 444 728 444 727 444 729 444 728 444 728 444 729 444 730 444 729 444 731 444 730 444 730 444 731 444 732 444 731 444 733 444 732 444 732 444 733 444 734 444 733 444 735 444 734 444 734 465 735 465 736 465 735 444 737 444 736 444 736 444 737 444 738 444 737 444 739 444 738 444 738 466 739 466 740 466 739 467 741 467 740 467 740 444 741 444 742 444 741 444 743 444 742 444 742 444 743 444 744 444 743 444 745 444 744 444 744 468 745 468 746 468 745 444 747 444 746 444 746 444 747 444 748 444 747 444 749 444 748 444 748 460 749 460 750 460 749 463 751 463 750 463 750 444 751 444 752 444 751 444 753 444 752 444 752 444 753 444 754 444 753 444 755 444 754 444 754 460 755 460 756 460 755 444 757 444 756 444 756 444 757 444 758 444 757 444 759 444 758 444 758 444 759 444 760 444 759 444 761 444 760 444 760 447 761 447 762 447 761 444 763 444 762 444 762 444 763 444 764 444 763 444 765 444 764 444 764 444 765 444 766 444 765 469 767 469 766 469 766 444 767 444 768 444 767 444 692 444 768 444 768 444 692 444 769 444 692 444 656 444 769 444 769 444 656 444 770 444 656 470 659 470 770 470 770 471 659 471 771 471 659 444 661 444 771 444 771 444 661 444 772 444 661 444 663 444 772 444 772 472 663 472 773 472 663 444 665 444 773 444 773 473 665 473 774 473 665 472 667 472 774 472 774 444 667 444 775 444 667 444 669 444 775 444 775 444 669 444 776 444 669 444 671 444 776 444 776 451 671 451 777 451 671 450 673 450 777 450 777 468 673 468 778 468 673 450 675 450 778 450 778 444 675 444 779 444 675 444 677 444 779 444 779 451 677 451 780 451 677 447 679 447 780 447 780 451 679 451 781 451 679 444 681 444 781 444 781 444 681 444 782 444 681 452 683 452 782 452 782 444 683 444 783 444 683 444 685 444 783 444 783 444 685 444 784 444 685 444 687 444 784 444 784 444 687 444 785 444 687 444 689 444 785 444 785 444 689 444 786 444 689 444 691 444 786 444 786 444 691 444 578 444 691 444 655 444 578 444 733 474 787 474 788 474 733 475 788 475 735 475 788 476 789 476 735 476 735 477 789 477 737 477 789 303 790 303 737 303 737 302 790 302 739 302 790 478 791 478 739 478 739 479 791 479 741 479 791 480 792 480 741 480 741 298 792 298 743 298 792 481 793 481 743 481 743 482 793 482 745 482 793 483 794 483 745 483 745 483 794 483 747 483 794 484 795 484 747 484 747 485 795 485 749 485 795 293 796 293 749 293 749 486 796 486 751 486 796 487 797 487 751 487 751 488 797 488 753 488 797 489 798 489 753 489 753 289 798 289 755 289 798 490 799 490 755 490 755 491 799 491 757 491 799 492 800 492 757 492 757 493 800 493 759 493 800 494 801 494 759 494 759 283 801 283 761 283 801 495 802 495 761 495 761 496 802 496 763 496 802 497 803 497 763 497 763 498 803 498 765 498 803 499 804 499 765 499 765 500 804 500 767 500 804 501 693 501 767 501 767 502 693 502 692 502 140 503 142 503 176 503 42 504 44 504 695 504 30 505 32 505 653 505 186 506 188 506 74 506 44 507 46 507 695 507 46 503 48 503 695 503 695 508 48 508 50 508 36 503 38 503 695 503 38 503 40 503 695 503 695 509 40 509 42 509 188 503 190 503 74 503 190 503 192 503 74 503 74 510 192 510 194 510 50 503 52 503 695 503 52 503 54 503 695 503 695 511 54 511 56 511 653 503 32 503 695 503 32 503 34 503 695 503 695 512 34 512 36 512 98 503 100 503 184 503 194 513 196 513 74 513 196 514 198 514 74 514 74 503 198 503 72 503 202 503 204 503 695 503 56 503 58 503 695 503 58 503 60 503 695 503 695 515 60 515 62 515 72 503 695 503 70 503 695 516 68 516 70 516 805 503 228 503 230 503 242 517 244 517 805 517 244 518 246 518 805 518 805 519 246 519 248 519 652 520 256 520 258 520 184 503 84 503 86 503 100 503 102 503 184 503 102 503 104 503 184 503 184 521 104 521 106 521 176 522 112 522 114 522 72 503 198 503 695 503 198 503 200 503 695 503 695 523 200 523 202 523 62 503 64 503 695 503 64 503 66 503 695 503 695 524 66 524 68 524 248 503 250 503 805 503 250 503 252 503 805 503 805 503 252 503 652 503 252 503 254 503 652 503 652 525 254 525 256 525 204 503 206 503 695 503 206 503 208 503 695 503 695 526 208 526 210 526 210 503 212 503 695 503 212 503 214 503 695 503 695 527 214 527 805 527 214 503 216 503 805 503 216 503 218 503 805 503 218 503 220 503 805 503 805 528 220 528 222 528 230 503 232 503 805 503 232 503 234 503 805 503 805 529 234 529 236 529 236 503 238 503 805 503 238 503 240 503 805 503 805 530 240 530 242 530 258 531 260 531 652 531 260 532 262 532 652 532 652 533 262 533 264 533 186 503 74 503 184 503 74 503 76 503 184 503 184 534 76 534 78 534 86 503 88 503 184 503 88 503 90 503 184 503 184 535 90 535 92 535 92 536 94 536 184 536 94 537 96 537 184 537 184 538 96 538 98 538 112 503 176 503 110 503 176 503 178 503 110 503 110 503 178 503 108 503 178 503 180 503 108 503 108 503 180 503 106 503 180 503 182 503 106 503 106 539 182 539 184 539 114 503 116 503 176 503 116 503 118 503 176 503 176 540 118 540 120 540 120 541 122 541 176 541 122 542 124 542 176 542 176 543 124 543 126 543 222 503 224 503 805 503 224 503 226 503 805 503 805 544 226 544 228 544 264 503 266 503 652 503 266 503 268 503 652 503 652 545 268 545 270 545 78 503 80 503 184 503 80 503 82 503 184 503 184 546 82 546 84 546 126 503 128 503 176 503 128 503 130 503 176 503 176 503 130 503 132 503 140 503 176 503 138 503 158 503 160 503 653 503 160 503 162 503 653 503 270 503 272 503 652 503 272 503 274 503 652 503 652 503 274 503 276 503 10 503 12 503 653 503 18 503 20 503 653 503 20 503 22 503 653 503 653 547 22 547 24 547 24 503 26 503 653 503 26 548 28 548 653 548 653 549 28 549 30 549 162 503 164 503 653 503 164 503 166 503 653 503 653 550 166 550 168 550 12 503 14 503 653 503 14 503 16 503 653 503 653 551 16 551 18 551 132 503 134 503 176 503 134 503 136 503 176 503 176 552 136 552 138 552 276 503 278 503 652 503 278 503 280 503 652 503 652 553 280 553 282 553 146 503 148 503 653 503 148 503 150 503 653 503 653 554 150 554 152 554 4 503 6 503 653 503 6 503 8 503 653 503 653 555 8 555 10 555 282 503 284 503 652 503 284 503 286 503 652 503 652 556 286 556 653 556 286 503 144 503 653 503 653 557 144 557 146 557 152 503 154 503 653 503 154 503 156 503 653 503 653 503 156 503 158 503 142 503 0 503 653 503 0 503 2 503 653 503 653 558 2 558 4 558 168 503 170 503 653 503 170 559 172 559 653 559 653 560 172 560 142 560 172 561 174 561 142 561 142 562 174 562 176 562 695 563 805 563 806 563 695 564 806 564 697 564 806 565 807 565 697 565 697 566 807 566 699 566 807 567 808 567 699 567 699 568 808 568 701 568 808 569 809 569 701 569 701 570 809 570 703 570 809 571 810 571 703 571 703 572 810 572 705 572 810 573 811 573 705 573 705 574 811 574 707 574 811 575 812 575 707 575 707 576 812 576 709 576 812 577 813 577 709 577 709 577 813 577 711 577 813 578 814 578 711 578 711 579 814 579 713 579 814 580 815 580 713 580 713 581 815 581 715 581 815 582 816 582 715 582 715 583 816 583 717 583 816 584 817 584 717 584 717 585 817 585 719 585 817 586 818 586 719 586 719 587 818 587 721 587 818 588 819 588 721 588 721 589 819 589 723 589 819 590 820 590 723 590 723 591 820 591 725 591 820 592 821 592 725 592 725 593 821 593 727 593 821 594 822 594 727 594 727 595 822 595 729 595 822 596 823 596 729 596 729 597 823 597 731 597 823 274 787 274 731 274 787 274 733 274 731 274 824 598 787 598 825 598 787 598 823 598 825 598 825 599 823 599 826 599 823 598 822 598 826 598 826 598 822 598 827 598 822 598 821 598 827 598 827 600 821 600 828 600 821 598 820 598 828 598 828 598 820 598 829 598 820 598 819 598 829 598 829 598 819 598 830 598 819 598 818 598 830 598 830 598 818 598 831 598 818 601 817 601 831 601 831 598 817 598 832 598 817 602 816 602 832 602 832 598 816 598 833 598 816 598 815 598 833 598 833 598 815 598 834 598 815 598 814 598 834 598 834 598 814 598 835 598 814 598 813 598 835 598 835 598 813 598 836 598 813 598 812 598 836 598 836 603 812 603 837 603 812 598 811 598 837 598 837 598 811 598 838 598 811 598 810 598 838 598 838 598 810 598 839 598 810 604 809 604 839 604 839 598 809 598 840 598 809 598 808 598 840 598 840 598 808 598 841 598 808 598 807 598 841 598 841 598 807 598 842 598 807 598 806 598 842 598 842 598 806 598 843 598 806 598 805 598 843 598 843 598 805 598 581 598 805 598 652 598 581 598 581 598 652 598 583 598 652 605 650 605 583 605 583 606 650 606 585 606 650 607 648 607 585 607 585 608 648 608 587 608 648 598 646 598 587 598 587 598 646 598 589 598 646 609 644 609 589 609 589 598 644 598 591 598 644 598 642 598 591 598 591 598 642 598 593 598 642 598 640 598 593 598 593 598 640 598 595 598 640 598 638 598 595 598 595 598 638 598 597 598 638 598 636 598 597 598 597 598 636 598 599 598 636 598 634 598 599 598 599 598 634 598 601 598 634 598 632 598 601 598 601 598 632 598 603 598 632 598 630 598 603 598 603 610 630 610 605 610 630 598 628 598 605 598 605 598 628 598 607 598 628 598 626 598 607 598 607 598 626 598 609 598 626 598 624 598 609 598 609 598 624 598 611 598 624 598 622 598 611 598 611 598 622 598 613 598 622 603 620 603 613 603 613 611 620 611 615 611 620 612 618 612 615 612 615 613 618 613 577 613 618 598 617 598 577 598 577 598 617 598 579 598 617 598 654 598 579 598 579 614 654 614 844 614 654 598 690 598 844 598 844 598 690 598 845 598 690 598 688 598 845 598 845 615 688 615 846 615 688 598 686 598 846 598 846 598 686 598 847 598 686 598 684 598 847 598 847 598 684 598 848 598 684 598 682 598 848 598 848 598 682 598 849 598 682 616 680 616 849 616 849 598 680 598 850 598 680 617 678 617 850 617 850 598 678 598 851 598 678 598 676 598 851 598 851 598 676 598 852 598 676 598 674 598 852 598 852 598 674 598 853 598 674 598 672 598 853 598 853 598 672 598 854 598 672 598 670 598 854 598 854 618 670 618 855 618 670 598 668 598 855 598 855 598 668 598 856 598 668 598 666 598 856 598 856 598 666 598 857 598 666 619 664 619 857 619 857 598 664 598 858 598 664 598 662 598 858 598 858 598 662 598 859 598 662 598 660 598 859 598 859 598 660 598 860 598 660 598 658 598 860 598 860 598 658 598 861 598 658 598 657 598 861 598 861 598 657 598 862 598 657 598 693 598 862 598 862 598 693 598 863 598 693 620 804 620 863 620 863 621 804 621 864 621 804 622 803 622 864 622 864 623 803 623 865 623 803 598 802 598 865 598 865 598 802 598 866 598 802 604 801 604 866 604 866 598 801 598 867 598 801 598 800 598 867 598 867 598 800 598 868 598 800 598 799 598 868 598 868 598 799 598 869 598 799 598 798 598 869 598 869 598 798 598 870 598 798 598 797 598 870 598 870 598 797 598 871 598 797 598 796 598 871 598 871 598 796 598 872 598 796 598 795 598 872 598 872 598 795 598 873 598 795 598 794 598 873 598 873 624 794 624 874 624 794 598 793 598 874 598 874 598 793 598 875 598 793 598 792 598 875 598 875 598 792 598 876 598 792 598 791 598 876 598 876 598 791 598 877 598 791 598 790 598 877 598 877 598 790 598 878 598 790 624 789 624 878 624 878 625 789 625 879 625 789 626 788 626 879 626 879 614 788 614 824 614 788 598 787 598 824 598 578 627 579 627 786 627 579 628 844 628 786 628 786 629 844 629 785 629 844 630 845 630 785 630 785 593 845 593 784 593 845 592 846 592 784 592 784 631 846 631 783 631 846 632 847 632 783 632 783 589 847 589 782 589 847 633 848 633 782 633 782 634 848 634 781 634 848 634 849 634 781 634 781 584 849 584 780 584 849 584 850 584 780 584 780 635 850 635 779 635 850 636 851 636 779 636 779 637 851 637 778 637 851 638 852 638 778 638 778 639 852 639 777 639 852 640 853 640 777 640 777 577 853 577 776 577 853 641 854 641 776 641 776 642 854 642 775 642 854 643 855 643 775 643 775 644 855 644 774 644 855 645 856 645 774 645 774 572 856 572 773 572 856 571 857 571 773 571 773 646 857 646 772 646 857 647 858 647 772 647 772 648 858 648 771 648 858 649 859 649 771 649 771 650 859 650 770 650 859 651 860 651 770 651 770 652 860 652 769 652 860 653 861 653 769 653 428 503 430 503 464 503 330 503 332 503 768 503 318 503 320 503 769 503 474 503 476 503 362 503 332 507 334 507 768 507 334 654 336 654 768 654 768 655 336 655 338 655 324 656 326 656 768 656 326 503 328 503 768 503 768 657 328 657 330 657 476 503 478 503 362 503 478 503 480 503 362 503 362 658 480 658 482 658 338 503 340 503 768 503 340 659 342 659 768 659 768 660 342 660 344 660 769 503 320 503 768 503 320 503 322 503 768 503 768 661 322 661 324 661 386 503 388 503 472 503 482 503 484 503 362 503 484 662 486 662 362 662 362 503 486 503 360 503 490 503 492 503 768 503 344 663 346 663 768 663 346 503 348 503 768 503 768 664 348 664 350 664 360 503 768 503 358 503 768 665 356 665 358 665 862 666 516 666 518 666 530 503 532 503 862 503 532 503 534 503 862 503 862 667 534 667 536 667 861 668 544 668 546 668 472 669 372 669 374 669 388 503 390 503 472 503 390 503 392 503 472 503 472 670 392 670 394 670 464 671 400 671 402 671 360 503 486 503 768 503 486 503 488 503 768 503 768 672 488 672 490 672 350 673 352 673 768 673 352 503 354 503 768 503 768 674 354 674 356 674 536 503 538 503 862 503 538 503 540 503 862 503 862 503 540 503 861 503 540 503 542 503 861 503 861 675 542 675 544 675 492 503 494 503 768 503 494 503 496 503 768 503 768 676 496 676 498 676 498 677 500 677 768 677 500 503 502 503 768 503 768 503 502 503 862 503 502 503 504 503 862 503 504 678 506 678 862 678 506 503 508 503 862 503 862 679 508 679 510 679 518 503 520 503 862 503 520 503 522 503 862 503 862 680 522 680 524 680 524 503 526 503 862 503 526 681 528 681 862 681 862 682 528 682 530 682 546 503 548 503 861 503 548 503 550 503 861 503 861 683 550 683 552 683 474 503 362 503 472 503 362 503 364 503 472 503 472 684 364 684 366 684 374 503 376 503 472 503 376 685 378 685 472 685 472 686 378 686 380 686 380 687 382 687 472 687 382 503 384 503 472 503 472 503 384 503 386 503 400 503 464 503 398 503 464 688 466 688 398 688 398 689 466 689 396 689 466 503 468 503 396 503 396 503 468 503 394 503 468 690 470 690 394 690 394 691 470 691 472 691 402 503 404 503 464 503 404 503 406 503 464 503 464 503 406 503 408 503 408 503 410 503 464 503 410 692 412 692 464 692 464 693 412 693 414 693 510 503 512 503 862 503 512 503 514 503 862 503 862 694 514 694 516 694 552 695 554 695 861 695 554 503 556 503 861 503 861 696 556 696 558 696 366 697 368 697 472 697 368 503 370 503 472 503 472 698 370 698 372 698 414 699 416 699 464 699 416 503 418 503 464 503 464 700 418 700 420 700 428 701 464 701 426 701 446 503 448 503 769 503 448 503 450 503 769 503 558 503 560 503 861 503 560 503 562 503 861 503 861 702 562 702 564 702 298 503 300 503 769 503 306 703 308 703 769 703 308 503 310 503 769 503 769 704 310 704 312 704 312 705 314 705 769 705 314 548 316 548 769 548 769 706 316 706 318 706 450 503 452 503 769 503 452 503 454 503 769 503 769 707 454 707 456 707 300 503 302 503 769 503 302 708 304 708 769 708 769 709 304 709 306 709 420 503 422 503 464 503 422 503 424 503 464 503 464 710 424 710 426 710 564 711 566 711 861 711 566 503 568 503 861 503 861 712 568 712 570 712 434 503 436 503 769 503 436 713 438 713 769 713 769 714 438 714 440 714 292 715 294 715 769 715 294 503 296 503 769 503 769 716 296 716 298 716 570 503 572 503 861 503 572 503 574 503 861 503 861 503 574 503 769 503 574 717 432 717 769 717 769 718 432 718 434 718 440 503 442 503 769 503 442 503 444 503 769 503 769 719 444 719 446 719 430 720 288 720 769 720 288 503 290 503 769 503 769 721 290 721 292 721 456 503 458 503 769 503 458 503 460 503 769 503 769 722 460 722 430 722 460 503 462 503 430 503 430 723 462 723 464 723 768 724 862 724 766 724 862 725 863 725 766 725 766 726 863 726 764 726 863 727 864 727 764 727 764 728 864 728 762 728 864 729 865 729 762 729 762 730 865 730 760 730 865 731 866 731 760 731 760 334 866 334 758 334 866 333 867 333 758 333 758 732 867 732 756 732 867 733 868 733 756 733 756 734 868 734 754 734 868 735 869 735 754 735 754 736 869 736 752 736 869 328 870 328 752 328 752 737 870 737 750 737 870 738 871 738 750 738 750 739 871 739 748 739 871 740 872 740 748 740 748 741 872 741 746 741 872 742 873 742 746 742 746 321 873 321 744 321 873 321 874 321 744 321 744 743 874 743 742 743 874 743 875 743 742 743 742 744 875 744 740 744 875 316 876 316 740 316 740 745 876 745 738 745 876 746 877 746 738 746 738 313 877 313 736 313 877 312 878 312 736 312 736 747 878 747 734 747 878 748 879 748 734 748 734 749 879 749 732 749 879 750 824 750 732 750 732 343 824 343 730 343 824 343 825 343 730 343 730 751 825 751 728 751 825 752 826 752 728 752 728 753 826 753 726 753 826 754 827 754 726 754 726 374 827 374 724 374 827 373 828 373 724 373 724 755 828 755 722 755 828 756 829 756 722 756 722 757 829 757 720 757 829 369 830 369 720 369 720 758 830 758 718 758 830 758 831 758 718 758 718 759 831 759 716 759 831 759 832 759 716 759 716 760 832 760 714 760 832 761 833 761 714 761 714 363 833 363 712 363 833 762 834 762 712 762 712 763 834 763 710 763 834 764 835 764 710 764 710 358 835 358 708 358 835 358 836 358 708 358 708 765 836 765 706 765 836 766 837 766 706 766 706 767 837 767 704 767 837 768 838 768 704 768 704 769 838 769 702 769 838 352 839 352 702 352 702 770 839 770 700 770 839 771 840 771 700 771 700 772 840 772 698 772 840 773 841 773 698 773 698 774 841 774 696 774 841 775 842 775 696 775 696 776 842 776 694 776 842 777 843 777 694 777 39 380 37 380 694 380 694 380 37 380 580 380 37 380 35 380 580 380 35 382 33 382 580 382 580 778 33 778 31 778 843 779 253 779 251 779 31 780 29 780 580 780 29 380 27 380 580 380 580 781 27 781 25 781 25 380 23 380 580 380 23 782 21 782 580 782 580 783 21 783 19 783 19 380 17 380 580 380 17 380 15 380 580 380 580 784 15 784 13 784 271 380 269 380 581 380 269 380 267 380 581 380 267 380 265 380 581 380 265 380 263 380 581 380 581 785 263 785 261 785 261 380 259 380 581 380 259 380 257 380 581 380 581 380 257 380 843 380 257 380 255 380 843 380 843 786 255 786 253 786 189 380 75 380 191 380 75 787 193 787 191 787 115 380 113 380 177 380 113 380 111 380 177 380 87 788 85 788 185 788 175 380 173 380 143 380 173 380 171 380 143 380 169 380 167 380 580 380 167 380 165 380 580 380 580 789 165 789 163 789 163 380 161 380 580 380 161 790 159 790 580 790 580 791 159 791 157 791 7 792 5 792 580 792 5 793 3 793 580 793 277 794 275 794 581 794 275 380 273 380 581 380 581 795 273 795 271 795 51 380 49 380 694 380 49 380 47 380 694 380 694 796 47 796 45 796 45 797 43 797 694 797 43 380 41 380 694 380 694 798 41 798 39 798 127 380 125 380 177 380 125 380 123 380 177 380 177 799 123 799 121 799 121 404 119 404 177 404 119 380 117 380 177 380 177 800 117 800 115 800 189 380 187 380 75 380 187 380 185 380 75 380 75 380 185 380 77 380 185 801 79 801 77 801 203 802 201 802 694 802 59 380 57 380 694 380 133 803 131 803 177 803 131 380 129 380 177 380 177 804 129 804 127 804 105 380 185 380 107 380 185 805 183 805 107 805 107 806 183 806 109 806 183 380 181 380 109 380 109 380 181 380 111 380 181 807 179 807 111 807 111 808 179 808 177 808 105 380 103 380 185 380 103 380 101 380 185 380 185 809 101 809 99 809 3 380 1 380 580 380 1 380 143 380 580 380 580 810 143 810 169 810 143 811 171 811 169 811 157 380 155 380 580 380 155 380 153 380 580 380 580 812 153 812 151 812 151 380 149 380 580 380 149 380 147 380 580 380 580 380 147 380 581 380 147 813 145 813 581 813 13 814 11 814 580 814 11 815 9 815 580 815 580 816 9 816 7 816 145 380 287 380 581 380 287 380 285 380 581 380 581 817 285 817 283 817 251 380 249 380 843 380 249 380 247 380 843 380 843 818 247 818 245 818 57 380 55 380 694 380 55 819 53 819 694 819 694 820 53 820 51 820 99 421 97 421 185 421 97 380 95 380 185 380 185 821 95 821 93 821 93 380 91 380 185 380 91 380 89 380 185 380 185 822 89 822 87 822 283 380 281 380 581 380 281 380 279 380 581 380 581 823 279 823 277 823 175 380 143 380 177 380 143 380 141 380 177 380 177 824 141 824 139 824 85 380 83 380 185 380 83 380 81 380 185 380 185 825 81 825 79 825 245 380 243 380 843 380 243 380 241 380 843 380 843 826 241 826 239 826 239 380 237 380 843 380 237 380 235 380 843 380 843 827 235 827 233 827 233 380 231 380 843 380 231 828 229 828 843 828 843 829 229 829 227 829 69 830 67 830 694 830 67 831 65 831 694 831 139 832 137 832 177 832 137 380 135 380 177 380 177 833 135 833 133 833 65 834 63 834 694 834 63 835 61 835 694 835 694 836 61 836 59 836 227 380 225 380 843 380 225 380 223 380 843 380 843 837 223 837 221 837 215 380 694 380 217 380 694 838 843 838 217 838 217 380 843 380 219 380 843 839 221 839 219 839 215 380 213 380 694 380 213 380 211 380 694 380 694 840 211 840 209 840 75 380 73 380 694 380 73 380 71 380 694 380 694 841 71 841 69 841 209 380 207 380 694 380 207 380 205 380 694 380 694 842 205 842 203 842 201 380 199 380 694 380 199 380 197 380 694 380 694 843 197 843 75 843 197 844 195 844 75 844 75 845 195 845 193 845</p>
        </triangles>
      </mesh>
    </geometry>
  </library_geometries>
  <library_visual_scenes>
    <visual_scene id="Scene" name="Scene">
      <node id="chassis_default_as_machined__27" name="chassis_default_as_machined__27" type="NODE">
        <matrix sid="transform">1 0 0 0 0 1 0 0 0 0 1 0 0 0 0 1</matrix>
        <instance_geometry url="#chassis_default_as_machined__27-mesh" name="chassis_default_as_machined__27"/>
      </node>
    </visual_scene>
  </library_visual_scenes>
  <scene>
    <instance_visual_scene url="#Scene"/>
  </scene>
</COLLADA>