<?xml version="1.0" encoding="utf-8"?>
<COLLADA xmlns="http://www.collada.org/2005/11/COLLADASchema" version="1.4.1" xmlns:xsi="http://www.w3.org/2001/XMLSchema-instance">
  <asset>
    <contributor>
      <author>Blender User</author>
      <authoring_tool>Blender 3.0.1</authoring_tool>
    </contributor>
    <created>2026-06-04T16:18:41</created>
    <modified>2026-06-04T16:18:41</modified>
    <unit name="meter" meter="1"/>
    <up_axis>Z_UP</up_axis>
  </asset>
  <library_images/>
  <library_geometries>
    <geometry id="chassis_default_as_machined__6-mesh" name="chassis_default_as_machined__6">
      <mesh>
        <source id="chassis_default_as_machined__6-mesh-positions">
          <float_array id="chassis_default_as_machined__6-mesh-positions-array" count="912">-0.01499998 0.2124 0.1402 -0.01499998 0.215 0.1402 -0.01499998 0.2124 0.1597999 -0.01499998 0.215 0.1597999 -0.01499998 0.2123901 0.1600266 -0.01499998 0.2149802 0.1602532 -0.01499998 0.2123605 0.1602514 -0.01499998 0.2149209 0.160703 -0.01499998 0.2123114 0.1604729 -0.01499998 0.2148228 0.1611458 -0.01499998 0.2122431 0.1606892 -0.01499998 0.2146864 0.1615785 -0.01499998 0.2121564 0.1608988 -0.01499998 0.2145128 0.1619976 -0.01499998 0.2120516 0.1611 -0.01499998 0.2143033 0.1624 -0.01499998 0.2119297 0.1612913 -0.01499998 0.2140595 0.1627826 -0.01499998 0.2117917 0.1614712 -0.01499998 0.2137834 0.1631425 -0.01499998 0.2116385 0.1616384 -0.01499998 0.2134769 0.163477 -0.01499998 0.2114712 0.1617917 -0.01499998 0.2131425 0.1637834 -0.01499998 0.2112913 0.1619298 -0.01499998 0.2127826 0.1640596 -0.01499998 0.2111 0.1620516 -0.01499998 0.2124 0.1643033 -0.01499998 0.2108988 0.1621564 -0.01499998 0.2119976 0.1645128 -0.01499998 0.2106892 0.1622432 -0.01499998 0.2115785 0.1646864 -0.01499998 0.2104729 0.1623114 -0.01499998 0.2111458 0.1648228 -0.01499998 0.2102515 0.1623605 -0.01499998 0.210703 0.164921 -0.01499998 0.2100266 0.1623901 -0.01499998 0.2102532 0.1649802 -0.01499998 0.2098 0.1624 -0.01499998 0.2098 0.165 -0.01499998 0.1902 0.1624 -0.01499998 0.1902 0.165 -0.01499998 0.1899734 0.1623901 -0.01499998 0.1897467 0.1649802 -0.01499998 0.1897485 0.1623605 -0.01499998 0.189297 0.164921 -0.01499998 0.189527 0.1623114 -0.01499998 0.1888541 0.1648228 -0.01499998 0.1893107 0.1622432 -0.01499998 0.1884214 0.1646864 -0.01499998 0.1891012 0.1621564 -0.01499998 0.1880024 0.1645128 -0.01499998 0.1888999 0.1620516 -0.01499998 0.1876 0.1643033 -0.01499998 0.1887087 0.1619298 -0.01499998 0.1872174 0.1640596 -0.01499998 0.1885287 0.1617917 -0.01499998 0.1868575 0.1637834 -0.01499998 0.1883615 0.1616384 -0.01499998 0.186523 0.163477 -0.01499998 0.1882082 0.1614712 -0.01499998 0.1862165 0.1631425 -0.01499998 0.1880702 0.1612913 -0.01499998 0.1859404 0.1627826 -0.01499998 0.1879483 0.1611 -0.01499998 0.1856966 0.1624 -0.01499998 0.1878436 0.1608988 -0.01499998 0.1854872 0.1619976 -0.01499998 0.1877568 0.1606892 -0.01499998 0.1853136 0.1615785 -0.01499998 0.1876885 0.1604729 -0.01499998 0.1851772 0.1611458 -0.01499998 0.1876395 0.1602514 -0.01499998 0.185079 0.160703 -0.01499998 0.1876099 0.1600266 -0.01499998 0.1850197 0.1602532 -0.01499998 0.1876 0.1597999 -0.01499998 0.185 0.1597999 -0.01499998 0.1876 0.1402 -0.01499998 0.185 0.1402 -0.01499998 0.1876099 0.1399734 -0.01499998 0.1850197 0.1397467 -0.01499998 0.1876395 0.1397485 -0.01499998 0.185079 0.139297 -0.01499998 0.1876885 0.139527 -0.01499998 0.1851772 0.1388541 -0.01499998 0.1877568 0.1393107 -0.01499998 0.1853136 0.1384215 -0.01499998 0.1878436 0.1391012 -0.01499998 0.1854872 0.1380023 -0.01499998 0.1879483 0.1389 -0.01499998 0.1856966 0.1376 -0.01499998 0.1880702 0.1387087 -0.01499998 0.1859404 0.1372174 -0.01499998 0.1882082 0.1385287 -0.01499998 0.1862165 0.1368575 -0.01499998 0.1883615 0.1383615 -0.01499998 0.186523 0.136523 -0.01499998 0.1885287 0.1382083 -0.01499998 0.1868575 0.1362165 -0.01499998 0.1887087 0.1380702 -0.01499998 0.1872174 0.1359404 -0.01499998 0.1888999 0.1379483 -0.01499998 0.1876 0.1356967 -0.01499998 0.1891012 0.1378436 -0.01499998 0.1880024 0.1354871 -0.01499998 0.1893107 0.1377568 -0.01499998 0.1884214 0.1353136 -0.01499998 0.189527 0.1376886 -0.01499998 0.1888541 0.1351771 -0.01499998 0.1897485 0.1376395 -0.01499998 0.189297 0.135079 -0.01499998 0.1899734 0.1376098 -0.01499998 0.1897467 0.1350198 -0.01499998 0.1902 0.1376 -0.01499998 0.1902 0.135 -0.01499998 0.2098 0.1376 -0.01499998 0.2098 0.135 -0.01499998 0.2100266 0.1376098 -0.01499998 0.2102532 0.1350198 -0.01499998 0.2102515 0.1376395 -0.01499998 0.210703 0.135079 -0.01499998 0.2104729 0.1376886 -0.01499998 0.2111458 0.1351771 -0.01499998 0.2106892 0.1377568 -0.01499998 0.2115785 0.1353136 -0.01499998 0.2108988 0.1378436 -0.01499998 0.2119976 0.1354871 -0.01499998 0.2111 0.1379483 -0.01499998 0.2124 0.1356967 -0.01499998 0.2112913 0.1380702 -0.01499998 0.2127826 0.1359404 -0.01499998 0.2114712 0.1382083 -0.01499998 0.2131425 0.1362165 -0.01499998 0.2116385 0.1383615 -0.01499998 0.2134769 0.136523 -0.01499998 0.2117917 0.1385287 -0.01499998 0.2137834 0.1368575 -0.01499998 0.2119297 0.1387087 -0.01499998 0.2140595 0.1372174 -0.01499998 0.2120516 0.1389 -0.01499998 0.2143033 0.1376 -0.01499998 0.2121564 0.1391012 -0.01499998 0.2145128 0.1380023 -0.01499998 0.2122431 0.1393107 -0.01499998 0.2146864 0.1384215 -0.01499998 0.2123114 0.139527 -0.01499998 0.2148228 0.1388541 -0.01499998 0.2123605 0.1397485 -0.01499998 0.2149209 0.139297 -0.01499998 0.2123901 0.1399734 -0.01499998 0.2149802 0.1397467 -0.585 0.2124 0.1597999 -0.585 0.215 0.1597999 -0.585 0.2124 0.1402 -0.585 0.215 0.1402 -0.585 0.2123901 0.1399734 -0.585 0.2149802 0.1397467 -0.585 0.2123605 0.1397485 -0.585 0.2149209 0.139297 -0.585 0.2123114 0.139527 -0.585 0.2148228 0.1388541 -0.585 0.2122431 0.1393107 -0.585 0.2146864 0.1384215 -0.585 0.2121564 0.1391012 -0.585 0.2145128 0.1380023 -0.585 0.2120516 0.1389 -0.585 0.2143033 0.1376 -0.585 0.2119297 0.1387087 -0.585 0.2140595 0.1372174 -0.585 0.2117917 0.1385287 -0.585 0.2137834 0.1368575 -0.585 0.2116385 0.1383615 -0.585 0.2134769 0.136523 -0.585 0.2114712 0.1382083 -0.585 0.2131425 0.1362165 -0.585 0.2112913 0.1380702 -0.585 0.2127826 0.1359404 -0.585 0.2111 0.1379483 -0.585 0.2124 0.1356967 -0.585 0.2108988 0.1378436 -0.585 0.2119976 0.1354871 -0.585 0.2106892 0.1377568 -0.585 0.2115785 0.1353136 -0.585 0.2104729 0.1376886 -0.585 0.2111458 0.1351771 -0.585 0.2102515 0.1376395 -0.585 0.210703 0.135079 -0.585 0.2100266 0.1376098 -0.585 0.2102532 0.1350198 -0.585 0.2098 0.1376 -0.585 0.2098 0.135 -0.585 0.1902 0.1376 -0.585 0.1902 0.135 -0.585 0.1899734 0.1376098 -0.585 0.1897467 0.1350198 -0.585 0.1897485 0.1376395 -0.585 0.189297 0.135079 -0.585 0.189527 0.1376886 -0.585 0.1888541 0.1351771 -0.585 0.1893107 0.1377568 -0.585 0.1884214 0.1353136 -0.585 0.1891012 0.1378436 -0.585 0.1880024 0.1354871 -0.585 0.1888999 0.1379483 -0.585 0.1876 0.1356967 -0.585 0.1887087 0.1380702 -0.585 0.1872174 0.1359404 -0.585 0.1885287 0.1382083 -0.585 0.1868575 0.1362165 -0.585 0.1883615 0.1383615 -0.585 0.186523 0.136523 -0.585 0.1882082 0.1385287 -0.585 0.1862165 0.1368575 -0.585 0.1880702 0.1387087 -0.585 0.1859404 0.1372174 -0.585 0.1879483 0.1389 -0.585 0.1856966 0.1376 -0.585 0.1878436 0.1391012 -0.585 0.1854872 0.1380023 -0.585 0.1877568 0.1393107 -0.585 0.1853136 0.1384215 -0.585 0.1876885 0.139527 -0.585 0.1851772 0.1388541 -0.585 0.1876395 0.1397485 -0.585 0.185079 0.139297 -0.585 0.1876099 0.1399734 -0.585 0.1850197 0.1397467 -0.585 0.1876 0.1402 -0.585 0.185 0.1402 -0.585 0.1876 0.1597999 -0.585 0.185 0.1597999 -0.585 0.1876099 0.1600266 -0.585 0.1850197 0.1602532 -0.585 0.1876395 0.1602514 -0.585 0.185079 0.160703 -0.585 0.1876885 0.1604729 -0.585 0.1851772 0.1611458 -0.585 0.1877568 0.1606892 -0.585 0.1853136 0.1615785 -0.585 0.1878436 0.1608988 -0.585 0.1854872 0.1619976 -0.585 0.1879483 0.1611 -0.585 0.1856966 0.1624 -0.585 0.1880702 0.1612913 -0.585 0.1859404 0.1627826 -0.585 0.1882082 0.1614712 -0.585 0.1862165 0.1631425 -0.585 0.1883615 0.1616384 -0.585 0.186523 0.163477 -0.585 0.1885287 0.1617917 -0.585 0.1868575 0.1637834 -0.585 0.1887087 0.1619298 -0.585 0.1872174 0.1640596 -0.585 0.1888999 0.1620516 -0.585 0.1876 0.1643033 -0.585 0.1891012 0.1621564 -0.585 0.1880024 0.1645128 -0.585 0.1893107 0.1622432 -0.585 0.1884214 0.1646864 -0.585 0.189527 0.1623114 -0.585 0.1888541 0.1648228 -0.585 0.1897485 0.1623605 -0.585 0.189297 0.164921 -0.585 0.1899734 0.1623901 -0.585 0.1897467 0.1649802 -0.585 0.1902 0.1624 -0.585 0.1902 0.165 -0.585 0.2098 0.1624 -0.585 0.2098 0.165 -0.585 0.2100266 0.1623901 -0.585 0.2102532 0.1649802 -0.585 0.2102515 0.1623605 -0.585 0.210703 0.164921 -0.585 0.2104729 0.1623114 -0.585 0.2111458 0.1648228 -0.585 0.2106892 0.1622432 -0.585 0.2115785 0.1646864 -0.585 0.2108988 0.1621564 -0.585 0.2119976 0.1645128 -0.585 0.2111 0.1620516 -0.585 0.2124 0.1643033 -0.585 0.2112913 0.1619298 -0.585 0.2127826 0.1640596 -0.585 0.2114712 0.1617917 -0.585 0.2131425 0.1637834 -0.585 0.2116385 0.1616384 -0.585 0.2134769 0.163477 -0.585 0.2117917 0.1614712 -0.585 0.2137834 0.1631425 -0.585 0.2119297 0.1612913 -0.585 0.2140595 0.1627826 -0.585 0.2120516 0.1611 -0.585 0.2143033 0.1624 -0.585 0.2121564 0.1608988 -0.585 0.2145128 0.1619976 -0.585 0.2122431 0.1606892 -0.585 0.2146864 0.1615785 -0.585 0.2123114 0.1604729 -0.585 0.2148228 0.1611458 -0.585 0.2123605 0.1602514 -0.585 0.2149209 0.160703 -0.585 0.2123901 0.1600266 -0.585 0.2149802 0.1602532</float_array>
          <technique_common>
            <accessor source="#chassis_default_as_machined__6-mesh-positions-array" count="304" stride="3">
              <param name="X" type="float"/>
              <param name="Y" type="float"/>
              <param name="Z" type="float"/>
            </accessor>
          </technique_common>
        </source>
        <source id="chassis_default_as_machined__6-mesh-normals">
          <float_array id="chassis_default_as_machined__6-mesh-normals-array" count="960">1 0 0 1 -3.85898e-7 0 1 2.77433e-7 0 1 -1.54382e-6 0 1 -3.08733e-6 0 1 6.17467e-6 0 1 -6.17528e-6 0 1 -1.23499e-5 0 1 6.17463e-6 0 1 -6.17467e-6 0 1 -1.23493e-5 0 1 3.08718e-6 0 1 -1.23518e-5 0 1 3.08733e-6 0 1 -6.17406e-6 0 1 3.08749e-6 0 1 -3.08718e-6 0 1 1.54374e-6 0 1 7.71795e-7 0 1 -3.85936e-7 0 1 3.85898e-7 0 1 -2.7735e-7 0 1 -1.54367e-6 0 1 -3.08749e-6 0 1 1.2349e-5 0 1 -3.08726e-6 0 1 6.17589e-6 0 1 6.17528e-6 0 1 -3.08764e-6 0 1 1.54351e-6 0 -1 0 0 -1 2.46975e-5 0 -1 -1.77504e-5 0 -1 -4.94022e-5 0 -1 -9.87947e-5 0 -1 9.87849e-5 0 -1 1.97589e-4 0 -1 3.95198e-4 0 -1 1.97592e-4 0 -1 -3.95179e-4 0 -1 -1.97585e-4 0 -1 3.95237e-4 0 -1 -1.9758e-4 0 -1 3.95179e-4 0 -1 -1.9757e-4 0 -1 -9.87898e-5 0 -1 -2.46975e-5 0 -1 1.77557e-5 0 -1 -4.93974e-5 0 -1 9.88045e-5 0 -1 -9.88045e-5 0 -1 -1.97589e-4 0 -1 9.87898e-5 0 -1 -1.97609e-4 0 -1 9.87947e-5 0 -1 -3.95218e-4 0 -1 -3.95198e-4 0 -1 -1.97592e-4 0 -1 1.97594e-4 0 -1 1.97599e-4 0 -1 -3.9514e-4 0 -1 4.93925e-5 0 -1 -2.46999e-5 0 0 -1 0 0 -0.04362243 0.9990481 0 -0.04362243 0.9990481 0 -0.1305317 0.9914442 0 -0.1305392 0.9914432 0 -0.2164397 0.9762961 0 -0.2164275 0.9762988 0 -0.3007305 0.9537092 0 -0.3006974 0.9537197 0 -0.3826749 0.9238831 0 -0.4617451 0.8870127 0 -0.4617687 0.8870005 0 -0.5372983 0.8433923 0 -0.5372722 0.8434091 0 -0.6087899 0.7933315 0 -0.6087622 0.7933529 0 -0.6755793 0.7372875 0 -0.6756079 0.7372612 0 -0.7372549 0.6756147 0 -0.7933799 0.6087269 0 -0.7933799 0.608727 0 -0.8433749 0.5373257 0 -0.8870278 0.4617162 0 -0.8870041 0.4617616 0 -0.9238713 0.3827033 0 -0.9238918 0.3826541 0 -0.9537169 0.3007059 0 -0.9762943 0.2164479 0 -0.9914373 0.1305834 0 -0.9914523 0.1304701 0 -0.9990481 0.04362338 0 0 1 0 0.9990481 0.04362338 0 0.9914449 0.1305267 0 0.9914374 0.1305834 0 0.9763063 0.2163929 0 0.9762943 0.2164479 0 0.9537169 0.3007059 0 0.9238917 0.3826541 0 0.923851 0.3827525 0 0.8870278 0.4617162 0 0.8870041 0.4617616 0 0.8433749 0.5373257 0 0.843401 0.5372847 0 0.7933799 0.6087269 0 0.7933521 0.6087633 0 0.7372837 0.6755834 0 0.7372549 0.6756147 0 0.6756079 0.7372612 0 0.6755793 0.7372875 0 0.6087343 0.7933742 0 0.6087899 0.7933315 0 0.5372722 0.843409 0 0.5373243 0.8433757 0 0.4617451 0.8870127 0 0.4617215 0.8870251 0 0.3826953 0.9238746 0 0.3826749 0.9238831 0 0.300714 0.9537144 0 0.3007304 0.9537092 0 0.2164397 0.9762961 0 0.2164275 0.9762988 0 0.1305392 0.9914432 0 0.1305318 0.9914442 0 0.04362243 0.9990481 0 0.04362243 0.9990481 0 0.04362243 -0.9990481 0 0.04362243 -0.9990481 0 0.1304995 -0.9914485 0 0.1305069 -0.9914474 0 0.2164275 -0.9762988 0 0.2164396 -0.9762961 0 0.3007305 -0.9537092 0 0.3007139 -0.9537144 0 0.3826749 -0.9238831 0 0.3826953 -0.9238746 0 0.4617215 -0.8870249 0 0.461745 -0.8870127 0 0.5373244 -0.8433757 0 0.5372722 -0.8434091 0 0.6087899 -0.7933315 0 0.6087343 -0.7933742 0 0.6755793 -0.7372875 0 0.6756079 -0.7372612 0 0.7372699 -0.6755983 0 0.7372986 -0.675567 0 0.7933399 -0.608779 0 0.7933676 -0.6087428 0 0.8434105 -0.5372698 0 0.8433843 -0.5373108 0 0.8869971 -0.461775 0 0.8870207 -0.4617297 0 0.923851 -0.3827525 0 0.9238918 -0.3826541 0 0.95372 -0.3006964 0 0.95372 -0.3006964 0 0.9762926 -0.2164548 0 0.9763049 -0.2163999 0 0.9914373 -0.1305834 0 0.9914449 -0.1305267 0 0.9990481 -0.04362338 0 1 0 0 -0.9990481 -0.04362338 0 -0.9914523 -0.13047 0 -0.9914374 -0.1305834 0 -0.9762926 -0.2164548 0 -0.9762927 -0.2164549 0 -0.95372 -0.3006964 0 -0.95372 -0.3006964 0 -0.9238917 -0.3826541 0 -0.9238714 -0.3827033 0 -0.8869971 -0.461775 0 -0.8870207 -0.4617297 0 -0.8433843 -0.5373108 0 -0.8433843 -0.5373108 0 -0.7933678 -0.6087428 0 -0.7933676 -0.6087428 0 -0.7372699 -0.6755983 0 -0.6756079 -0.7372612 0 -0.6755793 -0.7372875 0 -0.6087622 -0.7933529 0 -0.6087899 -0.7933315 0 -0.5372722 -0.843409 0 -0.5372983 -0.8433924 0 -0.4617687 -0.8870004 0 -0.461745 -0.8870127 0 -0.3826749 -0.9238831 0 -0.3006974 -0.9537197 0 -0.3007304 -0.9537092 0 -0.2164275 -0.9762988 0 -0.2164396 -0.9762961 0 -0.1305069 -0.9914474 0 -0.1304995 -0.9914485 0 -0.04362243 -0.9990481 0 -0.04362243 -0.9990481 0 -0.04361742 -0.9990484 0 -0.0436275 -0.9990479 0 -0.1305392 -0.9914432 0 -0.1305392 -0.9914432 0 -0.2164831 -0.9762865 0 -0.2164344 -0.9762972 0 -0.300684 -0.9537238 0 -0.3007171 -0.9537134 0 -0.3826342 -0.9239 0 -0.3827157 -0.9238662 0 -0.461771 -0.8869993 0 -0.5372488 -0.8434239 0 -0.537301 -0.8433906 0 -0.608755 -0.7933583 0 -0.6088107 -0.7933156 0 -0.6755614 -0.7373038 0 -0.7373273 -0.6755357 0 -0.7933399 -0.6087791 0 -0.7933399 -0.608779 0 -0.8434365 -0.5372288 0 -0.8870277 -0.4617162 0 -0.8869805 -0.461807 0 -0.923851 -0.3827525 0 -0.95375 -0.300601 0 -0.9536839 -0.3008106 0 -0.9763185 -0.216338 0 -0.9762698 -0.2165578 0 -0.9914368 -0.1305876 0 -0.9914517 -0.1304743 0 -0.9990456 -0.04367947 0 -0.9990506 -0.04356443 0 -0.9990506 0.04356729 0 -0.9990455 0.04368233 0 -0.9914528 0.1304658 0 -0.9914379 0.1305791 0 -0.9762698 0.2165578 0 -0.9763185 0.216338 0 -0.9536839 0.3008106 0 -0.95375 0.300601 0 -0.923851 0.3827525 0 -0.8869805 0.461807 0 -0.8434366 0.5372289 0 -0.8433843 0.5373108 0 -0.7933399 0.6087791 0 -0.7933399 0.608779 0 -0.7372974 0.6755684 0 -0.73724 0.6756311 0 -0.675597 0.7372711 0 -0.6755971 0.7372711 0 -0.6087693 0.7933474 0 -0.6087137 0.7933901 0 -0.5373477 0.8433609 0 -0.5372955 0.8433942 0 -0.461771 0.8869993 0 -0.3827157 0.9238662 0 -0.3826342 0.9239 0 -0.3007171 0.9537134 0 -0.300684 0.9537238 0 -0.2164344 0.9762972 0 -0.2164831 0.9762865 0 -0.1304746 0.9914517 0 -0.1304746 0.9914517 0 -0.0436275 0.9990479 0 -0.04361742 0.9990484 0 0.04361742 0.9990484 0 0.0436275 0.9990479 0 0.1304597 0.9914537 0 0.1304746 0.9914517 0 0.2164344 0.9762972 0 0.2164831 0.9762865 0 0.3007171 0.9537134 0 0.300684 0.9537238 0 0.3827157 0.9238662 0 0.3826342 0.9239 0 0.461771 0.8869993 0 0.5373477 0.8433609 0 0.608658 0.7934328 0 0.6087693 0.7933473 0 0.675597 0.7372711 0 0.6756545 0.7372184 0 0.73724 0.6756311 0 0.7933399 0.6087791 0 0.7933955 0.6087065 0 0.8433321 0.5373928 0 0.8434365 0.5372288 0 0.8870277 0.4617162 0 0.9536839 0.3008106 0 0.9763185 0.216338 0 0.9914379 0.1305791 0 0.9914528 0.1304658 0 0.9990506 0.04356729 0 0.9990455 0.04368233 0 0.9990456 -0.04367947 0 0.9990506 -0.04356443 0 0.9914517 -0.1304743 0 0.9914368 -0.1305876 0 0.9762943 -0.2164479 0 0.9763185 -0.216338 0 0.9536839 -0.3008106 0 0.9537169 -0.3007059 0 0.8870277 -0.4617162 0 0.8870278 -0.4617162 0 0.8434366 -0.5372289 0 0.8433322 -0.5373928 0 0.7933956 -0.6087065 0 0.6756188 -0.7372512 0 0.6755614 -0.7373038 0 0.6088107 -0.7933156 0 0.6086993 -0.793401 0 0.537301 -0.8433906 0 0.461771 -0.8869993 0 0.3826342 -0.9239 0 0.3827157 -0.9238662 0 0.300684 -0.9537238 0 0.3007171 -0.9537134 0 0.2164831 -0.9762865 0 0.2164344 -0.9762972 0 0.1305392 -0.9914432 0 0.1305243 -0.9914451 0 0.0436275 -0.9990479 0 0.04361742 -0.9990484 0 0 -1</float_array>
          <technique_common>
            <accessor source="#chassis_default_as_machined__6-mesh-normals-array" count="320" stride="3">
              <param name="X" type="float"/>
              <param name="Y" type="float"/>
              <param name="Z" type="float"/>
            </accessor>
          </technique_common>
        </source>
        <vertices id="chassis_default_as_machined__6-mesh-vertices">
          <input semantic="POSITION" source="#chassis_default_as_machined__6-mesh-positions"/>
        </vertices>
        <triangles count="608">
          <input semantic="VERTEX" source="#chassis_default_as_machined__6-mesh-vertices" offset="0"/>
          <input semantic="NORMAL" source="#chassis_default_as_machined__6-mesh-normals" offset="1"/>
          <p>0 0 1 0 2 0 1 0 3 0 2 0 2 0 3 0 4 0 3 1 5 1 4 1 4 2 5 2 6 2 5 0 7 0 6 0 6 0 7 0 8 0 7 0 9 0 8 0 8 3 9 3 10 3 9 0 11 0 10 0 10 0 11 0 12 0 11 0 13 0 12 0 12 4 13 4 14 4 13 0 15 0 14 0 14 5 15 5 16 5 15 0 17 0 16 0 16 0 17 0 18 0 17 4 19 4 18 4 18 0 19 0 20 0 19 0 21 0 20 0 20 0 21 0 22 0 21 0 23 0 22 0 22 0 23 0 24 0 23 0 25 0 24 0 24 6 25 6 26 6 25 0 27 0 26 0 26 0 27 0 28 0 27 0 29 0 28 0 28 0 29 0 30 0 29 0 31 0 30 0 30 0 31 0 32 0 31 0 33 0 32 0 32 7 33 7 34 7 33 0 35 0 34 0 34 0 35 0 36 0 35 8 37 8 36 8 36 0 37 0 38 0 37 0 39 0 38 0 38 0 39 0 40 0 39 0 41 0 40 0 40 0 41 0 42 0 41 0 43 0 42 0 42 0 43 0 44 0 43 9 45 9 44 9 44 0 45 0 46 0 45 5 47 5 46 5 46 0 47 0 48 0 47 0 49 0 48 0 48 0 49 0 50 0 49 0 51 0 50 0 50 0 51 0 52 0 51 0 53 0 52 0 52 0 53 0 54 0 53 0 55 0 54 0 54 10 55 10 56 10 55 11 57 11 56 11 56 12 57 12 58 12 57 13 59 13 58 13 58 14 59 14 60 14 59 13 61 13 60 13 60 0 61 0 62 0 61 15 63 15 62 15 62 9 63 9 64 9 63 0 65 0 64 0 64 5 65 5 66 5 65 16 67 16 66 16 66 0 67 0 68 0 67 3 69 3 68 3 68 14 69 14 70 14 69 17 71 17 70 17 70 4 71 4 72 4 71 18 73 18 72 18 72 0 73 0 74 0 73 19 75 19 74 19 74 0 75 0 76 0 75 0 77 0 76 0 76 0 77 0 78 0 77 0 79 0 78 0 78 0 79 0 80 0 79 20 81 20 80 20 80 21 81 21 82 21 81 0 83 0 82 0 82 0 83 0 84 0 83 0 85 0 84 0 84 0 85 0 86 0 85 22 87 22 86 22 86 0 87 0 88 0 87 0 89 0 88 0 88 13 89 13 90 13 89 0 91 0 90 0 90 6 91 6 92 6 91 0 93 0 92 0 92 0 93 0 94 0 93 0 95 0 94 0 94 0 95 0 96 0 95 23 97 23 96 23 96 0 97 0 98 0 97 0 99 0 98 0 98 0 99 0 100 0 99 0 101 0 100 0 100 0 101 0 102 0 101 0 103 0 102 0 102 0 103 0 104 0 103 0 105 0 104 0 104 0 105 0 106 0 105 0 107 0 106 0 106 0 107 0 108 0 107 0 109 0 108 0 108 24 109 24 110 24 109 0 111 0 110 0 110 0 111 0 112 0 111 0 113 0 112 0 112 0 113 0 114 0 113 0 115 0 114 0 114 0 115 0 116 0 115 0 117 0 116 0 116 0 117 0 118 0 117 0 119 0 118 0 118 0 119 0 120 0 119 0 121 0 120 0 120 0 121 0 122 0 121 9 123 9 122 9 122 0 123 0 124 0 123 0 125 0 124 0 124 0 125 0 126 0 125 0 127 0 126 0 126 0 127 0 128 0 127 0 129 0 128 0 128 0 129 0 130 0 129 0 131 0 130 0 130 0 131 0 132 0 131 25 133 25 132 25 132 0 133 0 134 0 133 0 135 0 134 0 134 26 135 26 136 26 135 0 137 0 136 0 136 0 137 0 138 0 137 0 139 0 138 0 138 27 139 27 140 27 139 0 141 0 140 0 140 0 141 0 142 0 141 28 143 28 142 28 142 0 143 0 144 0 143 29 145 29 144 29 144 5 145 5 146 5 145 0 147 0 146 0 146 0 147 0 148 0 147 0 149 0 148 0 148 0 149 0 150 0 149 0 151 0 150 0 150 0 151 0 0 0 151 0 1 0 0 0 152 30 153 30 154 30 153 30 155 30 154 30 154 30 155 30 156 30 155 31 157 31 156 31 156 32 157 32 158 32 157 30 159 30 158 30 158 30 159 30 160 30 159 33 161 33 160 33 160 30 161 30 162 30 161 34 163 34 162 34 162 35 163 35 164 35 163 30 165 30 164 30 164 36 165 36 166 36 165 30 167 30 166 30 166 30 167 30 168 30 167 30 169 30 168 30 168 36 169 36 170 36 169 30 171 30 170 30 170 36 171 36 172 36 171 30 173 30 172 30 172 30 173 30 174 30 173 30 175 30 174 30 174 30 175 30 176 30 175 30 177 30 176 30 176 30 177 30 178 30 177 30 179 30 178 30 178 30 179 30 180 30 179 30 181 30 180 30 180 30 181 30 182 30 181 30 183 30 182 30 182 37 183 37 184 37 183 30 185 30 184 30 184 30 185 30 186 30 185 38 187 38 186 38 186 30 187 30 188 30 187 30 189 30 188 30 188 30 189 30 190 30 189 30 191 30 190 30 190 30 191 30 192 30 191 30 193 30 192 30 192 30 193 30 194 30 193 30 195 30 194 30 194 30 195 30 196 30 195 30 197 30 196 30 196 39 197 39 198 39 197 30 199 30 198 30 198 30 199 30 200 30 199 40 201 40 200 40 200 30 201 30 202 30 201 30 203 30 202 30 202 30 203 30 204 30 203 30 205 30 204 30 204 39 205 39 206 39 205 30 207 30 206 30 206 30 207 30 208 30 207 30 209 30 208 30 208 30 209 30 210 30 209 30 211 30 210 30 210 41 211 41 212 41 211 42 213 42 212 42 212 30 213 30 214 30 213 30 215 30 214 30 214 43 215 43 216 43 215 30 217 30 216 30 216 44 217 44 218 44 217 30 219 30 218 30 218 30 219 30 220 30 219 45 221 45 220 45 220 30 221 30 222 30 221 30 223 30 222 30 222 30 223 30 224 30 223 30 225 30 224 30 224 30 225 30 226 30 225 30 227 30 226 30 226 30 227 30 228 30 227 30 229 30 228 30 228 30 229 30 230 30 229 30 231 30 230 30 230 30 231 30 232 30 231 46 233 46 232 46 232 47 233 47 234 47 233 30 235 30 234 30 234 30 235 30 236 30 235 48 237 48 236 48 236 49 237 49 238 49 237 30 239 30 238 30 238 50 239 50 240 50 239 30 241 30 240 30 240 51 241 51 242 51 241 52 243 52 242 52 242 53 243 53 244 53 243 54 245 54 244 54 244 51 245 51 246 51 245 30 247 30 246 30 246 30 247 30 248 30 247 30 249 30 248 30 248 30 249 30 250 30 249 30 251 30 250 30 250 30 251 30 252 30 251 30 253 30 252 30 252 55 253 55 254 55 253 30 255 30 254 30 254 30 255 30 256 30 255 30 257 30 256 30 256 30 257 30 258 30 257 30 259 30 258 30 258 56 259 56 260 56 259 30 261 30 260 30 260 30 261 30 262 30 261 57 263 57 262 57 262 30 263 30 264 30 263 30 265 30 264 30 264 30 265 30 266 30 265 30 267 30 266 30 266 30 267 30 268 30 267 30 269 30 268 30 268 30 269 30 270 30 269 30 271 30 270 30 270 30 271 30 272 30 271 30 273 30 272 30 272 43 273 43 274 43 273 30 275 30 274 30 274 30 275 30 276 30 275 58 277 58 276 58 276 30 277 30 278 30 277 30 279 30 278 30 278 30 279 30 280 30 279 30 281 30 280 30 280 37 281 37 282 37 281 30 283 30 282 30 282 30 283 30 284 30 283 30 285 30 284 30 284 30 285 30 286 30 285 30 287 30 286 30 286 39 287 39 288 39 287 59 289 59 288 59 288 30 289 30 290 30 289 54 291 54 290 54 290 60 291 60 292 60 291 49 293 49 292 49 292 44 293 44 294 44 293 30 295 30 294 30 294 30 295 30 296 30 295 49 297 49 296 49 296 30 297 30 298 30 297 30 299 30 298 30 298 30 299 30 300 30 299 61 301 61 300 61 300 30 301 30 302 30 301 62 303 62 302 62 302 30 303 30 152 30 303 30 153 30 152 30 231 63 229 63 77 63 229 63 79 63 77 63 41 64 267 64 265 64 41 65 265 65 43 65 265 66 263 66 43 66 43 67 263 67 45 67 263 68 261 68 45 68 45 69 261 69 47 69 261 70 259 70 47 70 47 71 259 71 49 71 259 72 257 72 49 72 49 72 257 72 51 72 257 73 255 73 51 73 51 74 255 74 53 74 255 75 253 75 53 75 53 76 253 76 55 76 253 77 251 77 55 77 55 78 251 78 57 78 251 79 249 79 57 79 57 80 249 80 59 80 249 81 247 81 59 81 59 81 247 81 61 81 247 82 245 82 61 82 61 83 245 83 63 83 245 84 243 84 63 84 63 84 243 84 65 84 243 85 241 85 65 85 65 86 241 86 67 86 241 87 239 87 67 87 67 88 239 88 69 88 239 89 237 89 69 89 69 89 237 89 71 89 237 90 235 90 71 90 71 90 235 90 73 90 235 91 233 91 73 91 73 92 233 92 75 92 233 93 231 93 75 93 75 93 231 93 77 93 269 94 267 94 39 94 267 94 41 94 39 94 3 95 153 95 303 95 3 95 303 95 5 95 303 96 301 96 5 96 5 97 301 97 7 97 301 98 299 98 7 98 7 99 299 99 9 99 299 100 297 100 9 100 9 100 297 100 11 100 297 101 295 101 11 101 11 102 295 102 13 102 295 103 293 103 13 103 13 104 293 104 15 104 293 105 291 105 15 105 15 106 291 106 17 106 291 107 289 107 17 107 17 108 289 108 19 108 289 109 287 109 19 109 19 110 287 110 21 110 287 111 285 111 21 111 21 112 285 112 23 112 285 113 283 113 23 113 23 114 283 114 25 114 283 115 281 115 25 115 25 116 281 116 27 116 281 117 279 117 27 117 27 118 279 118 29 118 279 119 277 119 29 119 29 120 277 120 31 120 277 121 275 121 31 121 31 122 275 122 33 122 275 123 273 123 33 123 33 124 273 124 35 124 273 125 271 125 35 125 35 126 271 126 37 126 271 127 269 127 37 127 37 128 269 128 39 128 117 129 191 129 189 129 117 130 189 130 119 130 189 131 187 131 119 131 119 132 187 132 121 132 187 133 185 133 121 133 121 134 185 134 123 134 185 135 183 135 123 135 123 136 183 136 125 136 183 137 181 137 125 137 125 138 181 138 127 138 181 139 179 139 127 139 127 140 179 140 129 140 179 141 177 141 129 141 129 142 177 142 131 142 177 143 175 143 131 143 131 144 175 144 133 144 175 145 173 145 133 145 133 146 173 146 135 146 173 147 171 147 135 147 135 148 171 148 137 148 171 149 169 149 137 149 137 150 169 150 139 150 169 151 167 151 139 151 139 152 167 152 141 152 167 153 165 153 141 153 141 154 165 154 143 154 165 155 163 155 143 155 143 156 163 156 145 156 163 157 161 157 145 157 145 158 161 158 147 158 161 159 159 159 147 159 147 160 159 160 149 160 159 161 157 161 149 161 149 162 157 162 151 162 157 163 155 163 151 163 151 163 155 163 1 163 155 164 153 164 1 164 153 164 3 164 1 164 79 165 229 165 227 165 79 165 227 165 81 165 227 166 225 166 81 166 81 167 225 167 83 167 225 168 223 168 83 168 83 169 223 169 85 169 223 170 221 170 85 170 85 171 221 171 87 171 221 172 219 172 87 172 87 173 219 173 89 173 219 174 217 174 89 174 89 175 217 175 91 175 217 176 215 176 91 176 91 177 215 177 93 177 215 178 213 178 93 178 93 179 213 179 95 179 213 180 211 180 95 180 95 180 211 180 97 180 211 181 209 181 97 181 97 182 209 182 99 182 209 183 207 183 99 183 99 184 207 184 101 184 207 185 205 185 101 185 101 186 205 186 103 186 205 187 203 187 103 187 103 188 203 188 105 188 203 189 201 189 105 189 105 189 201 189 107 189 201 190 199 190 107 190 107 191 199 191 109 191 199 192 197 192 109 192 109 193 197 193 111 193 197 194 195 194 111 194 111 195 195 195 113 195 195 196 193 196 113 196 113 197 193 197 115 197 38 198 268 198 36 198 268 199 270 199 36 199 36 200 270 200 34 200 270 201 272 201 34 201 34 202 272 202 32 202 272 203 274 203 32 203 32 204 274 204 30 204 274 205 276 205 30 205 30 206 276 206 28 206 276 207 278 207 28 207 28 208 278 208 26 208 278 208 280 208 26 208 26 209 280 209 24 209 280 210 282 210 24 210 24 211 282 211 22 211 282 212 284 212 22 212 22 213 284 213 20 213 284 213 286 213 20 213 20 180 286 180 18 180 286 214 288 214 18 214 18 215 288 215 16 215 288 216 290 216 16 216 16 177 290 177 14 177 290 217 292 217 14 217 14 218 292 218 12 218 292 219 294 219 12 219 12 220 294 220 10 220 294 172 296 172 10 172 10 221 296 221 8 221 296 222 298 222 8 222 8 223 298 223 6 223 298 224 300 224 6 224 6 225 300 225 4 225 300 226 302 226 4 226 4 227 302 227 2 227 302 228 152 228 2 228 2 63 152 63 0 63 152 63 154 63 0 63 0 229 154 229 150 229 154 230 156 230 150 230 150 231 156 231 148 231 156 232 158 232 148 232 148 233 158 233 146 233 158 234 160 234 146 234 146 235 160 235 144 235 160 236 162 236 144 236 144 88 162 88 142 88 162 237 164 237 142 237 142 238 164 238 140 238 164 85 166 85 140 85 140 239 166 239 138 239 166 240 168 240 138 240 138 241 168 241 136 241 168 242 170 242 136 242 136 243 170 243 134 243 170 244 172 244 134 244 134 245 172 245 132 245 172 246 174 246 132 246 132 247 174 247 130 247 174 248 176 248 130 248 130 249 176 249 128 249 176 250 178 250 128 250 128 251 178 251 126 251 178 251 180 251 126 251 126 252 180 252 124 252 180 253 182 253 124 253 124 254 182 254 122 254 182 255 184 255 122 255 122 256 184 256 120 256 184 257 186 257 120 257 120 258 186 258 118 258 186 259 188 259 118 259 118 260 188 260 116 260 188 261 190 261 116 261 116 94 190 94 114 94 190 94 192 94 114 94 114 262 192 262 112 262 192 263 194 263 112 263 112 264 194 264 110 264 194 265 196 265 110 265 110 266 196 266 108 266 196 267 198 267 108 267 108 268 198 268 106 268 198 269 200 269 106 269 106 270 200 270 104 270 200 271 202 271 104 271 104 272 202 272 102 272 202 272 204 272 102 272 102 273 204 273 100 273 204 273 206 273 100 273 100 274 206 274 98 274 206 275 208 275 98 275 98 276 208 276 96 276 208 277 210 277 96 277 96 278 210 278 94 278 210 278 212 278 94 278 94 279 212 279 92 279 212 280 214 280 92 280 92 281 214 281 90 281 214 282 216 282 90 282 90 283 216 283 88 283 216 103 218 103 88 103 88 102 218 102 86 102 218 101 220 101 86 101 86 100 220 100 84 100 220 284 222 284 84 284 84 285 222 285 82 285 222 99 224 99 82 99 82 286 224 286 80 286 224 287 226 287 80 287 80 288 226 288 78 288 226 289 228 289 78 289 78 164 228 164 76 164 228 164 230 164 76 164 76 290 230 290 74 290 230 291 232 291 74 291 74 292 232 292 72 292 232 293 234 293 72 293 72 294 234 294 70 294 234 295 236 295 70 295 70 296 236 296 68 296 236 297 238 297 68 297 68 156 238 156 66 156 238 155 240 155 66 155 66 298 240 298 64 298 240 299 242 299 64 299 64 300 242 300 62 300 242 301 244 301 62 301 62 302 244 302 60 302 244 149 246 149 60 149 60 147 246 147 58 147 246 147 248 147 58 147 58 303 248 303 56 303 248 304 250 304 56 304 56 305 250 305 54 305 250 306 252 306 54 306 54 307 252 307 52 307 252 307 254 307 52 307 52 308 254 308 50 308 254 308 256 308 50 308 50 309 256 309 48 309 256 310 258 310 48 310 48 311 258 311 46 311 258 312 260 312 46 312 46 313 260 313 44 313 260 314 262 314 44 314 44 315 262 315 42 315 262 316 264 316 42 316 42 317 264 317 40 317 264 318 266 318 40 318 40 319 266 319 38 319 266 319 268 319 38 319 193 319 191 319 115 319 191 319 117 319 115 319</p>
        </triangles>
      </mesh>
    </geometry>
  </library_geometries>
  <library_visual_scenes>
    <visual_scene id="Scene" name="Scene">
      <node id="chassis_default_as_machined__6" name="chassis_default_as_machined__6" type="NODE">
        <matrix sid="transform">1 0 0 0 0 1 0 0 0 0 1 0 0 0 0 1</matrix>
        <instance_geometry url="#chassis_default_as_machined__6-mesh" name="chassis_default_as_machined__6"/>
      </node>
    </visual_scene>
  </library_visual_scenes>
  <scene>
    <instance_visual_scene url="#Scene"/>
  </scene>
</COLLADA>