<?xml version="1.0" encoding="utf-8"?>
<COLLADA xmlns="http://www.collada.org/2005/11/COLLADASchema" version="1.4.1" xmlns:xsi="http://www.w3.org/2001/XMLSchema-instance">
  <asset>
    <contributor>
      <author>Blender User</author>
      <authoring_tool>Blender 3.0.1</authoring_tool>
    </contributor>
    <created>2026-06-04T16:18:29</created>
    <modified>2026-06-04T16:18:29</modified>
    <unit name="meter" meter="1"/>
    <up_axis>Z_UP</up_axis>
  </asset>
  <library_images/>
  <library_geometries>
    <geometry id="chassis_default_as_machined__13-mesh" name="chassis_default_as_machined__13">
      <mesh>
        <source id="chassis_default_as_machined__13-mesh-positions">
          <float_array id="chassis_default_as_machined__13-mesh-positions-array" count="912">-0.01499998 0.01239997 -0.009799957 -0.01499998 0.01499998 -0.009799957 -0.01499998 0.01239997 0.009799957 -0.01499998 0.01499998 0.009799957 -0.01499998 0.01239007 0.01002657 -0.01499998 0.01498019 0.01025319 -0.01499998 0.01236045 0.01025146 -0.01499998 0.01492094 0.01070296 -0.01499998 0.01231139 0.01047289 -0.01499998 0.01482278 0.01114583 -0.01499998 0.01224315 0.01068919 -0.01499998 0.0146864 0.0115785 -0.01499998 0.01215636 0.01089876 -0.01499998 0.01451277 0.01199758 -0.01499998 0.01205164 0.01109999 -0.01499998 0.01430332 0.01239997 -0.01499998 0.01192975 0.01129126 -0.01499998 0.01405954 0.01278257 -0.01499998 0.0117917 0.01147121 -0.01499998 0.01378339 0.01314246 -0.01499998 0.01163846 0.01163846 -0.01499998 0.0134769 0.0134769 -0.01499998 0.01147121 0.0117917 -0.01499998 0.01314246 0.01378339 -0.01499998 0.01129126 0.01192975 -0.01499998 0.01278257 0.01405954 -0.01499998 0.01109999 0.01205164 -0.01499998 0.01239997 0.01430332 -0.01499998 0.01089876 0.01215636 -0.01499998 0.01199758 0.01451277 -0.01499998 0.01068919 0.01224315 -0.01499998 0.0115785 0.0146864 -0.01499998 0.01047289 0.01231139 -0.01499998 0.01114583 0.01482278 -0.01499998 0.01025146 0.01236045 -0.01499998 0.01070296 0.01492094 -0.01499998 0.01002657 0.01239007 -0.01499998 0.01025319 0.01498019 -0.01499998 0.009799957 0.01239997 -0.01499998 0.009799957 0.01499998 -0.01499998 -0.009799957 0.01239997 -0.01499998 -0.009799957 0.01499998 -0.01499998 -0.01002657 0.01239007 -0.01499998 -0.01025319 0.01498019 -0.01499998 -0.01025146 0.01236045 -0.01499998 -0.01070296 0.01492094 -0.01499998 -0.01047289 0.01231139 -0.01499998 -0.01114583 0.01482278 -0.01499998 -0.01068919 0.01224315 -0.01499998 -0.0115785 0.0146864 -0.01499998 -0.01089876 0.01215636 -0.01499998 -0.01199758 0.01451277 -0.01499998 -0.01109999 0.01205164 -0.01499998 -0.01239997 0.01430332 -0.01499998 -0.01129126 0.01192975 -0.01499998 -0.01278257 0.01405954 -0.01499998 -0.01147121 0.0117917 -0.01499998 -0.01314246 0.01378339 -0.01499998 -0.01163846 0.01163846 -0.01499998 -0.0134769 0.0134769 -0.01499998 -0.0117917 0.01147121 -0.01499998 -0.01378339 0.01314246 -0.01499998 -0.01192975 0.01129126 -0.01499998 -0.01405954 0.01278257 -0.01499998 -0.01205164 0.01109999 -0.01499998 -0.01430332 0.01239997 -0.01499998 -0.01215636 0.01089876 -0.01499998 -0.01451277 0.01199758 -0.01499998 -0.01224315 0.01068919 -0.01499998 -0.0146864 0.0115785 -0.01499998 -0.01231139 0.01047289 -0.01499998 -0.01482278 0.01114583 -0.01499998 -0.01236045 0.01025146 -0.01499998 -0.01492094 0.01070296 -0.01499998 -0.01239007 0.01002657 -0.01499998 -0.01498019 0.01025319 -0.01499998 -0.01239997 0.009799957 -0.01499998 -0.01499998 0.009799957 -0.01499998 -0.01239997 -0.009799957 -0.01499998 -0.01499998 -0.009799957 -0.01499998 -0.01239007 -0.01002657 -0.01499998 -0.01498019 -0.01025319 -0.01499998 -0.01236045 -0.01025146 -0.01499998 -0.01492094 -0.01070296 -0.01499998 -0.01231139 -0.01047289 -0.01499998 -0.01482278 -0.01114583 -0.01499998 -0.01224315 -0.01068919 -0.01499998 -0.0146864 -0.0115785 -0.01499998 -0.01215636 -0.01089876 -0.01499998 -0.01451277 -0.01199758 -0.01499998 -0.01205164 -0.01109999 -0.01499998 -0.01430332 -0.01239997 -0.01499998 -0.01192975 -0.01129126 -0.01499998 -0.01405954 -0.01278257 -0.01499998 -0.0117917 -0.01147121 -0.01499998 -0.01378339 -0.01314246 -0.01499998 -0.01163846 -0.01163846 -0.01499998 -0.0134769 -0.0134769 -0.01499998 -0.01147121 -0.0117917 -0.01499998 -0.01314246 -0.01378339 -0.01499998 -0.01129126 -0.01192975 -0.01499998 -0.01278257 -0.01405954 -0.01499998 -0.01109999 -0.01205164 -0.01499998 -0.01239997 -0.01430332 -0.01499998 -0.01089876 -0.01215636 -0.01499998 -0.01199758 -0.01451277 -0.01499998 -0.01068919 -0.01224315 -0.01499998 -0.0115785 -0.0146864 -0.01499998 -0.01047289 -0.01231139 -0.01499998 -0.01114583 -0.01482278 -0.01499998 -0.01025146 -0.01236045 -0.01499998 -0.01070296 -0.01492094 -0.01499998 -0.01002657 -0.01239007 -0.01499998 -0.01025319 -0.01498019 -0.01499998 -0.009799957 -0.01239997 -0.01499998 -0.009799957 -0.01499998 -0.01499998 0.009799957 -0.01239997 -0.01499998 0.009799957 -0.01499998 -0.01499998 0.01002657 -0.01239007 -0.01499998 0.01025319 -0.01498019 -0.01499998 0.01025146 -0.01236045 -0.01499998 0.01070296 -0.01492094 -0.01499998 0.01047289 -0.01231139 -0.01499998 0.01114583 -0.01482278 -0.01499998 0.01068919 -0.01224315 -0.01499998 0.0115785 -0.0146864 -0.01499998 0.01089876 -0.01215636 -0.01499998 0.01199758 -0.01451277 -0.01499998 0.01109999 -0.01205164 -0.01499998 0.01239997 -0.01430332 -0.01499998 0.01129126 -0.01192975 -0.01499998 0.01278257 -0.01405954 -0.01499998 0.01147121 -0.0117917 -0.01499998 0.01314246 -0.01378339 -0.01499998 0.01163846 -0.01163846 -0.01499998 0.0134769 -0.0134769 -0.01499998 0.0117917 -0.01147121 -0.01499998 0.01378339 -0.01314246 -0.01499998 0.01192975 -0.01129126 -0.01499998 0.01405954 -0.01278257 -0.01499998 0.01205164 -0.01109999 -0.01499998 0.01430332 -0.01239997 -0.01499998 0.01215636 -0.01089876 -0.01499998 0.01451277 -0.01199758 -0.01499998 0.01224315 -0.01068919 -0.01499998 0.0146864 -0.0115785 -0.01499998 0.01231139 -0.01047289 -0.01499998 0.01482278 -0.01114583 -0.01499998 0.01236045 -0.01025146 -0.01499998 0.01492094 -0.01070296 -0.01499998 0.01239007 -0.01002657 -0.01499998 0.01498019 -0.01025319 -0.585 0.009799957 0.01499998 -0.585 0.01025319 0.01498019 -0.585 0.01070296 0.01492094 -0.585 0.01114583 0.01482278 -0.585 0.0115785 0.0146864 -0.585 0.01199758 0.01451277 -0.585 0.01239997 0.01430332 -0.585 0.01278257 0.01405954 -0.585 0.01314246 0.01378339 -0.585 0.0134769 0.0134769 -0.585 0.01378339 0.01314246 -0.585 0.01405954 0.01278257 -0.585 0.01430332 0.01239997 -0.585 0.01451277 0.01199758 -0.585 0.0146864 0.0115785 -0.585 0.01482278 0.01114583 -0.585 0.01492094 0.01070296 -0.585 0.01498019 0.01025319 -0.585 0.01499998 0.009799957 -0.585 0.01239997 0.009799957 -0.585 0.01239007 0.01002657 -0.585 0.01236045 0.01025146 -0.585 0.01231139 0.01047289 -0.585 0.01224315 0.01068919 -0.585 0.01215636 0.01089876 -0.585 0.01205164 0.01109999 -0.585 0.01192975 0.01129126 -0.585 0.0117917 0.01147121 -0.585 0.01163846 0.01163846 -0.585 0.01147121 0.0117917 -0.585 0.01129126 0.01192975 -0.585 0.01109999 0.01205164 -0.585 0.01089876 0.01215636 -0.585 0.01068919 0.01224315 -0.585 0.01047289 0.01231139 -0.585 0.01025146 0.01236045 -0.585 0.01002657 0.01239007 -0.585 0.009799957 0.01239997 -0.585 -0.009799957 0.01239997 -0.585 -0.01002657 0.01239007 -0.585 -0.01025146 0.01236045 -0.585 -0.01047289 0.01231139 -0.585 -0.01068919 0.01224315 -0.585 -0.01089876 0.01215636 -0.585 -0.01109999 0.01205164 -0.585 -0.01129126 0.01192975 -0.585 -0.01147121 0.0117917 -0.585 -0.01163846 0.01163846 -0.585 -0.0117917 0.01147121 -0.585 -0.01192975 0.01129126 -0.585 -0.01205164 0.01109999 -0.585 -0.01215636 0.01089876 -0.585 -0.01224315 0.01068919 -0.585 -0.01231139 0.01047289 -0.585 -0.01236045 0.01025146 -0.585 -0.01239007 0.01002657 -0.585 -0.01239997 0.009799957 -0.585 -0.01239997 -0.009799957 -0.585 0.009799957 -0.01239997 -0.585 -0.009799957 -0.01239997 -0.585 -0.01239007 -0.01002657 -0.585 -0.01236045 -0.01025146 -0.585 -0.01231139 -0.01047289 -0.585 -0.01224315 -0.01068919 -0.585 -0.01215636 -0.01089876 -0.585 -0.01205164 -0.01109999 -0.585 -0.01192975 -0.01129126 -0.585 -0.0117917 -0.01147121 -0.585 -0.01163846 -0.01163846 -0.585 -0.01147121 -0.0117917 -0.585 -0.01129126 -0.01192975 -0.585 -0.01109999 -0.01205164 -0.585 -0.01089876 -0.01215636 -0.585 -0.01068919 -0.01224315 -0.585 -0.01047289 -0.01231139 -0.585 -0.01025146 -0.01236045 -0.585 -0.01002657 -0.01239007 -0.585 0.01239997 -0.009799957 -0.585 0.01002657 -0.01239007 -0.585 0.01025146 -0.01236045 -0.585 0.01047289 -0.01231139 -0.585 0.01068919 -0.01224315 -0.585 0.01089876 -0.01215636 -0.585 0.01109999 -0.01205164 -0.585 0.01129126 -0.01192975 -0.585 0.01147121 -0.0117917 -0.585 0.01163846 -0.01163846 -0.585 0.0117917 -0.01147121 -0.585 0.01192975 -0.01129126 -0.585 0.01205164 -0.01109999 -0.585 0.01215636 -0.01089876 -0.585 0.01224315 -0.01068919 -0.585 0.01231139 -0.01047289 -0.585 0.01236045 -0.01025146 -0.585 0.01239007 -0.01002657 -0.585 -0.01499998 0.009799957 -0.585 -0.01498019 0.01025319 -0.585 -0.01492094 0.01070296 -0.585 -0.01482278 0.01114583 -0.585 -0.0146864 0.0115785 -0.585 -0.01451277 0.01199758 -0.585 -0.01430332 0.01239997 -0.585 -0.01405954 0.01278257 -0.585 -0.01378339 0.01314246 -0.585 -0.0134769 0.0134769 -0.585 -0.01314246 0.01378339 -0.585 -0.01278257 0.01405954 -0.585 -0.01239997 0.01430332 -0.585 -0.01199758 0.01451277 -0.585 -0.0115785 0.0146864 -0.585 -0.01114583 0.01482278 -0.585 -0.01070296 0.01492094 -0.585 -0.01025319 0.01498019 -0.585 -0.009799957 0.01499998 -0.585 0.01499998 -0.009799957 -0.585 0.01498019 -0.01025319 -0.585 0.01492094 -0.01070296 -0.585 0.01482278 -0.01114583 -0.585 0.0146864 -0.0115785 -0.585 0.01451277 -0.01199758 -0.585 0.01430332 -0.01239997 -0.585 0.01405954 -0.01278257 -0.585 0.01378339 -0.01314246 -0.585 0.0134769 -0.0134769 -0.585 0.01314246 -0.01378339 -0.585 0.01278257 -0.01405954 -0.585 0.01239997 -0.01430332 -0.585 0.01199758 -0.01451277 -0.585 0.0115785 -0.0146864 -0.585 0.01114583 -0.01482278 -0.585 0.01070296 -0.01492094 -0.585 0.01025319 -0.01498019 -0.585 0.009799957 -0.01499998 -0.585 -0.009799957 -0.01499998 -0.585 -0.01025319 -0.01498019 -0.585 -0.01070296 -0.01492094 -0.585 -0.01114583 -0.01482278 -0.585 -0.0115785 -0.0146864 -0.585 -0.01199758 -0.01451277 -0.585 -0.01239997 -0.01430332 -0.585 -0.01278257 -0.01405954 -0.585 -0.01314246 -0.01378339 -0.585 -0.0134769 -0.0134769 -0.585 -0.01378339 -0.01314246 -0.585 -0.01405954 -0.01278257 -0.585 -0.01430332 -0.01239997 -0.585 -0.01451277 -0.01199758 -0.585 -0.0146864 -0.0115785 -0.585 -0.01482278 -0.01114583 -0.585 -0.01492094 -0.01070296 -0.585 -0.01498019 -0.01025319 -0.585 -0.01499998 -0.009799957</float_array>
          <technique_common>
            <accessor source="#chassis_default_as_machined__13-mesh-positions-array" count="304" stride="3">
              <param name="X" type="float"/>
              <param name="Y" type="float"/>
              <param name="Z" type="float"/>
            </accessor>
          </technique_common>
        </source>
        <source id="chassis_default_as_machined__13-mesh-normals">
          <float_array id="chassis_default_as_machined__13-mesh-normals-array" count="930">1 0 0 1 0 0 1 -7.71838e-7 0 1 7.71848e-7 0 1 3.08737e-6 0 1 -3.08735e-6 0 1 6.17475e-6 0 1 -6.17478e-6 0 1 3.08735e-6 0 1 6.17471e-6 0 1 -6.17473e-6 0 1 6.1747e-6 0 1 -1.23495e-5 0 1 6.17472e-6 0 1 -6.17472e-6 0 1 6.17473e-6 0 1 -1.23495e-5 0 1 -6.17471e-6 0 1 1.23494e-5 0 1 3.08736e-6 0 1 -7.71841e-7 0 1 3.85919e-7 0 1 0 0 1 7.71838e-7 0 1 -7.71848e-7 0 1 -3.08737e-6 0 1 -6.17475e-6 0 1 6.17478e-6 0 1 6.17473e-6 0 1 -6.1747e-6 0 1 1.23495e-5 0 1 -6.17472e-6 0 1 6.17472e-6 0 1 -6.17473e-6 0 1 1.23495e-5 0 1 -1.23494e-5 0 1 -3.08736e-6 0 1 7.71841e-7 0 1 -3.85919e-7 0 0 0.0436179 0.9990484 0 0.0436179 0.9990484 0 0.1305268 0.9914448 0 0.1305273 0.9914447 0 0.216439 0.9762961 0 0.3007052 0.9537172 0 0.3007062 0.9537168 0 0.3826841 0.9238793 0 0.3826828 0.9238798 0 0.4617484 0.887011 0 0.4617484 0.887011 0 0.5373024 0.8433896 0 0.5372992 0.8433918 0 0.6087622 0.7933529 0 0.675588 0.7372795 0 0.675588 0.7372794 0 0.7372803 0.6755871 0 0.7372784 0.675589 0 0.7933542 0.6087605 0 0.7933505 0.608765 0 0.8433911 0.5373001 0 0.8433912 0.5373001 0 0.8870103 0.4617497 0 0.8870133 0.461744 0 0.923879 0.3826848 0 0.923879 0.3826848 0 0.953716 0.3007089 0 0.9537181 0.3007022 0 0.9762954 0.2164428 0 0.9762969 0.2164359 0 0.9914448 0.130527 0 0.9990484 0.04361706 0 0.9990484 0.04361706 0 -0.9990481 -0.04362428 0 -0.9990481 -0.04362428 0 -0.9914447 -0.1305273 0 -0.9914457 -0.1305202 0 -0.9762969 -0.2164359 0 -0.9762954 -0.2164428 0 -0.9537181 -0.3007022 0 -0.953716 -0.3007089 0 -0.923879 -0.3826848 0 -0.923879 -0.3826848 0 -0.8870104 -0.4617497 0 -0.8870133 -0.461744 0 -0.8433918 -0.5372992 0 -0.8433917 -0.5372992 0 -0.7933514 -0.608764 0 -0.7933549 -0.6087595 0 -0.7372748 -0.6755931 0 -0.7372784 -0.6755892 0 -0.6755909 -0.7372768 0 -0.6087639 -0.7933515 0 -0.608757 -0.7933568 0 -0.5373008 -0.8433907 0 -0.4617484 -0.8870111 0 -0.4617453 -0.8870126 0 -0.3826845 -0.9238791 0 -0.3826845 -0.9238791 0 -0.3007072 -0.9537165 0 -0.3007052 -0.9537172 0 -0.216439 -0.9762961 0 -0.1305243 -0.9914451 0 -0.1305262 -0.9914449 0 -0.04362213 -0.9990481 0 -0.04362183 -0.9990481 0 0 -1 0 0.04362183 -0.9990481 0 0.04362213 -0.9990481 0 0.1305262 -0.9914449 0 0.1305243 -0.9914451 0 0.216439 -0.9762961 0 0.3007052 -0.9537172 0 0.3007072 -0.9537165 0 0.3826845 -0.9238791 0 0.3826845 -0.9238791 0 0.4617454 -0.8870126 0 0.4617483 -0.8870111 0 0.5373008 -0.8433907 0 0.608757 -0.7933568 0 0.6087639 -0.7933515 0 0.6755909 -0.7372768 0 0.7372784 -0.6755892 0 0.7372748 -0.6755931 0 0.7933548 -0.6087595 0 0.7933514 -0.6087641 0 0.8433918 -0.5372992 0 0.8433917 -0.5372992 0 0.8870133 -0.461744 0 0.8870103 -0.4617497 0 0.923879 -0.3826848 0 0.923879 -0.3826848 0 0.9537161 -0.3007088 0 0.9537181 -0.3007023 0 0.9762954 -0.2164428 0 0.9762969 -0.2164359 0 0.9914457 -0.1305202 0 0.9914447 -0.1305273 0 0.9990481 -0.04362428 0 0.9990481 -0.04362428 0 1 0 0 0 1 0 0.9990481 0.04362428 0 0.9990481 0.04362428 0 0.9914447 0.1305273 0 0.9914457 0.1305202 0 0.8870104 0.4617497 0 0.8870133 0.461744 0 0.8433918 0.5372992 0 0.8433917 0.5372992 0 0.7933514 0.608764 0 0.7933549 0.6087595 0 0.7372748 0.6755931 0 0.7372784 0.6755892 0 0.6755909 0.7372768 0 0.6087639 0.7933515 0 0.608757 0.7933568 0 0.5373008 0.8433907 0 0.4617484 0.8870111 0 0.4617453 0.8870126 0 0.3826845 0.9238791 0 0.3826845 0.9238791 0 0.3007072 0.9537165 0 0.1305243 0.9914451 0 0.1305262 0.9914449 0 0.04362213 0.9990481 0 0.04362183 0.9990481 0 -1 0 0 -0.04362183 0.9990481 0 -0.04362213 0.9990481 0 -0.1305262 0.9914449 0 -0.1305243 0.9914451 0 -0.216439 0.9762961 0 -0.3007052 0.9537172 0 -0.3007072 0.9537165 0 -0.3826845 0.9238791 0 -0.3826845 0.9238791 0 -0.4617454 0.8870126 0 -0.4617483 0.8870111 0 -0.5373008 0.8433907 0 -0.608757 0.7933568 0 -0.6087639 0.7933515 0 -0.6755909 0.7372768 0 -0.7372784 0.6755892 0 -0.7372748 0.6755931 0 -0.7933548 0.6087595 0 -0.7933514 0.6087641 0 -0.8433918 0.5372992 0 -0.8433917 0.5372992 0 -0.8870133 0.461744 0 -0.8870103 0.4617497 0 -0.923879 0.3826848 0 -0.923879 0.3826848 0 -0.9537161 0.3007088 0 -0.9537181 0.3007023 0 -0.9762954 0.2164428 0 -0.9762969 0.2164359 0 -0.9914457 0.1305202 0 -0.9914447 0.1305273 0 -0.9990481 0.04362428 0 -0.9990481 0.04362428 -1 0 0 -1 6.17475e-6 0 -1 -4.93977e-5 0 -1 4.93983e-5 0 -1 -9.87953e-5 0 -1 1.97592e-4 0 -1 -3.95186e-4 0 -1 1.97591e-4 0 -1 -1.97591e-4 0 -1 3.95181e-4 0 -1 1.97591e-4 0 -1 -3.95182e-4 0 -1 3.95182e-4 0 -1 -1.97591e-4 0 -1 3.95183e-4 0 -1 -1.97591e-4 0 -1 -1.97591e-4 0 -1 -3.95181e-4 0 -1 3.95184e-4 0 -1 -9.87956e-5 0 -1 -4.93978e-5 0 -1 2.46988e-5 0 -1 -6.17475e-6 0 -1 4.93977e-5 0 -1 -4.93983e-5 0 -1 9.87953e-5 0 -1 -1.97592e-4 0 -1 3.95186e-4 0 -1 1.97591e-4 0 -1 -3.95183e-4 0 -1 1.97591e-4 0 -1 -3.95184e-4 0 -1 9.87956e-5 0 -1 4.93978e-5 0 -1 -2.46988e-5 0 0 -0.9990484 0.04361706 0 -0.9990484 0.04361706 0 -0.9914448 0.130527 0 -0.8870133 0.461744 0 -0.8870104 0.4617497 0 -0.8433911 0.5373001 0 -0.8433912 0.5373001 0 -0.7933506 0.6087651 0 -0.7933541 0.6087605 0 -0.7372784 0.675589 0 -0.7372803 0.6755871 0 -0.675588 0.7372795 0 -0.675588 0.7372794 0 -0.6087622 0.7933529 0 -0.5372992 0.8433918 0 -0.5373025 0.8433897 0 -0.4617484 0.887011 0 -0.4617484 0.887011 0 -0.3826828 0.9238798 0 -0.3826841 0.9238793 0 -0.3007062 0.9537168 0 -0.1305273 0.9914447 0 -0.1305268 0.9914448 0 -0.0436179 0.9990484 0 -0.0436179 0.9990484 0 -0.0436179 -0.9990484 0 -0.0436179 -0.9990484 0 -0.1305268 -0.9914448 0 -0.1305273 -0.9914447 0 -0.3007062 -0.9537168 0 -0.3826841 -0.9238793 0 -0.3826828 -0.9238798 0 -0.4617484 -0.887011 0 -0.4617484 -0.887011 0 -0.5373024 -0.8433896 0 -0.5372992 -0.8433918 0 -0.6087622 -0.7933529 0 -0.675588 -0.7372795 0 -0.675588 -0.7372794 0 -0.7372803 -0.6755871 0 -0.7372784 -0.675589 0 -0.7933542 -0.6087605 0 -0.7933505 -0.608765 0 -0.8433911 -0.5373001 0 -0.8433912 -0.5373001 0 -0.8870103 -0.4617497 0 -0.8870133 -0.461744 0 -0.9914448 -0.130527 0 -0.9990484 -0.04361706 0 -0.9990484 -0.04361706 0 0.9990484 -0.04361706 0 0.9990484 -0.04361706 0 0.9914448 -0.130527 0 0.8870133 -0.461744 0 0.8870104 -0.4617497 0 0.8433911 -0.5373001 0 0.8433912 -0.5373001 0 0.7933506 -0.6087651 0 0.7933541 -0.6087605 0 0.7372784 -0.675589 0 0.7372803 -0.6755871 0 0.675588 -0.7372795 0 0.675588 -0.7372794 0 0.6087622 -0.7933529 0 0.5372992 -0.8433918 0 0.5373025 -0.8433897 0 0.4617484 -0.887011 0 0.4617484 -0.887011 0 0.3826828 -0.9238798 0 0.3826841 -0.9238793 0 0.3007062 -0.9537168 0 0.1305273 -0.9914447 0 0.1305268 -0.9914448 0 0.0436179 -0.9990484 0 0.0436179 -0.9990484</float_array>
          <technique_common>
            <accessor source="#chassis_default_as_machined__13-mesh-normals-array" count="310" stride="3">
              <param name="X" type="float"/>
              <param name="Y" type="float"/>
              <param name="Z" type="float"/>
            </accessor>
          </technique_common>
        </source>
        <vertices id="chassis_default_as_machined__13-mesh-vertices">
          <input semantic="POSITION" source="#chassis_default_as_machined__13-mesh-positions"/>
        </vertices>
        <triangles count="608">
          <input semantic="VERTEX" source="#chassis_default_as_machined__13-mesh-vertices" offset="0"/>
          <input semantic="NORMAL" source="#chassis_default_as_machined__13-mesh-normals" offset="1"/>
          <p>0 0 1 0 2 0 1 0 3 0 2 0 2 0 3 0 4 0 3 0 5 0 4 0 4 1 5 1 6 1 5 2 7 2 6 2 6 3 7 3 8 3 7 0 9 0 8 0 8 0 9 0 10 0 9 0 11 0 10 0 10 0 11 0 12 0 11 0 13 0 12 0 12 0 13 0 14 0 13 0 15 0 14 0 14 0 15 0 16 0 15 4 17 4 16 4 16 0 17 0 18 0 17 5 19 5 18 5 18 6 19 6 20 6 19 0 21 0 20 0 20 7 21 7 22 7 21 8 23 8 22 8 22 0 23 0 24 0 23 0 25 0 24 0 24 9 25 9 26 9 25 10 27 10 26 10 26 0 27 0 28 0 27 11 29 11 28 11 28 12 29 12 30 12 29 13 31 13 30 13 30 0 31 0 32 0 31 0 33 0 32 0 32 0 33 0 34 0 33 0 35 0 34 0 34 0 35 0 36 0 35 14 37 14 36 14 36 0 37 0 38 0 37 15 39 15 38 15 38 0 39 0 40 0 39 0 41 0 40 0 40 0 41 0 42 0 41 10 43 10 42 10 42 0 43 0 44 0 43 13 45 13 44 13 44 0 45 0 46 0 45 0 47 0 46 0 46 16 47 16 48 16 47 13 49 13 48 13 48 0 49 0 50 0 49 13 51 13 50 13 50 0 51 0 52 0 51 17 53 17 52 17 52 18 53 18 54 18 53 0 55 0 54 0 54 0 55 0 56 0 55 19 57 19 56 19 56 12 57 12 58 12 57 19 59 19 58 19 58 0 59 0 60 0 59 0 61 0 60 0 60 6 61 6 62 6 61 0 63 0 62 0 62 0 63 0 64 0 63 5 65 5 64 5 64 0 65 0 66 0 65 19 67 19 66 19 66 17 67 17 68 17 67 0 69 0 68 0 68 0 69 0 70 0 69 0 71 0 70 0 70 0 71 0 72 0 71 20 73 20 72 20 72 0 73 0 74 0 73 21 75 21 74 21 74 0 75 0 76 0 75 0 77 0 76 0 76 0 77 0 78 0 77 0 79 0 78 0 78 0 79 0 80 0 79 0 81 0 80 0 80 22 81 22 82 22 81 23 83 23 82 23 82 24 83 24 84 24 83 0 85 0 84 0 84 0 85 0 86 0 85 0 87 0 86 0 86 0 87 0 88 0 87 0 89 0 88 0 88 0 89 0 90 0 89 0 91 0 90 0 90 0 91 0 92 0 91 25 93 25 92 25 92 0 93 0 94 0 93 8 95 8 94 8 94 26 95 26 96 26 95 0 97 0 96 0 96 27 97 27 98 27 97 5 99 5 98 5 98 0 99 0 100 0 99 0 101 0 100 0 100 17 101 17 102 17 101 28 103 28 102 28 102 0 103 0 104 0 103 29 105 29 104 29 104 30 105 30 106 30 105 31 107 31 106 31 106 0 107 0 108 0 107 0 109 0 108 0 108 0 109 0 110 0 109 0 111 0 110 0 110 0 111 0 112 0 111 32 113 32 112 32 112 0 113 0 114 0 113 33 115 33 114 33 114 0 115 0 116 0 115 0 117 0 116 0 116 0 117 0 118 0 117 28 119 28 118 28 118 0 119 0 120 0 119 31 121 31 120 31 120 0 121 0 122 0 121 0 123 0 122 0 122 34 123 34 124 34 123 31 125 31 124 31 124 0 125 0 126 0 125 31 127 31 126 31 126 0 127 0 128 0 127 9 129 9 128 9 128 35 129 35 130 35 129 0 131 0 130 0 130 0 131 0 132 0 131 36 133 36 132 36 132 30 133 30 134 30 133 36 135 36 134 36 134 0 135 0 136 0 135 0 137 0 136 0 136 26 137 26 138 26 137 0 139 0 138 0 138 0 139 0 140 0 139 8 141 8 140 8 140 0 141 0 142 0 141 36 143 36 142 36 142 9 143 9 144 9 143 0 145 0 144 0 144 0 145 0 146 0 145 0 147 0 146 0 146 0 147 0 148 0 147 37 149 37 148 37 148 0 149 0 150 0 149 38 151 38 150 38 150 0 151 0 0 0 151 0 1 0 0 0 152 39 39 39 37 39 152 40 37 40 153 40 37 41 35 41 153 41 153 42 35 42 154 42 35 43 33 43 154 43 154 43 33 43 155 43 33 44 31 44 155 44 155 45 31 45 156 45 31 46 29 46 156 46 156 47 29 47 157 47 29 48 27 48 157 48 157 49 27 49 158 49 27 50 25 50 158 50 158 51 25 51 159 51 25 52 23 52 159 52 159 52 23 52 160 52 23 53 21 53 160 53 160 54 21 54 161 54 21 55 19 55 161 55 161 56 19 56 162 56 19 57 17 57 162 57 162 58 17 58 163 58 17 59 15 59 163 59 163 60 15 60 164 60 15 61 13 61 164 61 164 62 13 62 165 62 13 63 11 63 165 63 165 64 11 64 166 64 11 65 9 65 166 65 166 66 9 66 167 66 9 67 7 67 167 67 167 68 7 68 168 68 7 69 5 69 168 69 168 69 5 69 169 69 5 70 3 70 169 70 169 71 3 71 170 71 171 72 2 72 172 72 2 73 4 73 172 73 172 74 4 74 173 74 4 75 6 75 173 75 173 76 6 76 174 76 6 77 8 77 174 77 174 78 8 78 175 78 8 79 10 79 175 79 175 80 10 80 176 80 10 81 12 81 176 81 176 82 12 82 177 82 12 83 14 83 177 83 177 84 14 84 178 84 14 85 16 85 178 85 178 86 16 86 179 86 16 87 18 87 179 87 179 88 18 88 180 88 18 89 20 89 180 89 180 90 20 90 181 90 20 90 22 90 181 90 181 91 22 91 182 91 22 92 24 92 182 92 182 93 24 93 183 93 24 93 26 93 183 93 183 94 26 94 184 94 26 95 28 95 184 95 184 96 28 96 185 96 28 97 30 97 185 97 185 98 30 98 186 98 30 99 32 99 186 99 186 100 32 100 187 100 32 100 34 100 187 100 187 101 34 101 188 101 34 102 36 102 188 102 188 103 36 103 189 103 36 104 38 104 189 104 40 105 190 105 38 105 190 105 189 105 38 105 190 106 40 106 191 106 40 107 42 107 191 107 191 108 42 108 192 108 42 109 44 109 192 109 192 110 44 110 193 110 44 110 46 110 193 110 193 111 46 111 194 111 46 112 48 112 194 112 194 113 48 113 195 113 48 114 50 114 195 114 195 115 50 115 196 115 50 116 52 116 196 116 196 117 52 117 197 117 52 117 54 117 197 117 197 118 54 118 198 118 54 119 56 119 198 119 198 120 56 120 199 120 56 120 58 120 199 120 199 121 58 121 200 121 58 122 60 122 200 122 200 123 60 123 201 123 60 124 62 124 201 124 201 125 62 125 202 125 62 126 64 126 202 126 202 127 64 127 203 127 64 128 66 128 203 128 203 129 66 129 204 129 66 130 68 130 204 130 204 131 68 131 205 131 68 132 70 132 205 132 205 133 70 133 206 133 70 134 72 134 206 134 206 135 72 135 207 135 72 136 74 136 207 136 207 137 74 137 208 137 74 138 76 138 208 138 78 139 209 139 76 139 209 139 208 139 76 139 116 140 210 140 114 140 210 140 211 140 114 140 209 141 78 141 212 141 78 142 80 142 212 142 212 143 80 143 213 143 80 144 82 144 213 144 213 68 82 68 214 68 82 67 84 67 214 67 214 66 84 66 215 66 84 65 86 65 215 65 215 64 86 64 216 64 86 63 88 63 216 63 216 145 88 145 217 145 88 146 90 146 217 146 217 147 90 147 218 147 90 148 92 148 218 148 218 149 92 149 219 149 92 150 94 150 219 150 219 151 94 151 220 151 94 152 96 152 220 152 220 153 96 153 221 153 96 153 98 153 221 153 221 154 98 154 222 154 98 155 100 155 222 155 222 156 100 156 223 156 100 156 102 156 223 156 223 157 102 157 224 157 102 158 104 158 224 158 224 159 104 159 225 159 104 160 106 160 225 160 225 161 106 161 226 161 106 44 108 44 226 44 226 43 108 43 227 43 108 43 110 43 227 43 227 162 110 162 228 162 110 163 112 163 228 163 228 164 112 164 211 164 112 165 114 165 211 165 2 166 171 166 0 166 171 166 229 166 0 166 210 167 116 167 230 167 116 168 118 168 230 168 230 169 118 169 231 169 118 170 120 170 231 170 231 171 120 171 232 171 120 171 122 171 232 171 232 172 122 172 233 172 122 173 124 173 233 173 233 174 124 174 234 174 124 175 126 175 234 175 234 176 126 176 235 176 126 177 128 177 235 177 235 178 128 178 236 178 128 178 130 178 236 178 236 179 130 179 237 179 130 180 132 180 237 180 237 181 132 181 238 181 132 181 134 181 238 181 238 182 134 182 239 182 134 183 136 183 239 183 239 184 136 184 240 184 136 185 138 185 240 185 240 186 138 186 241 186 138 187 140 187 241 187 241 188 140 188 242 188 140 189 142 189 242 189 242 190 142 190 243 190 142 191 144 191 243 191 243 192 144 192 244 192 144 193 146 193 244 193 244 194 146 194 245 194 146 195 148 195 245 195 245 196 148 196 246 196 148 197 150 197 246 197 246 198 150 198 229 198 150 199 0 199 229 199 208 200 247 200 207 200 247 200 248 200 207 200 207 201 248 201 206 201 248 202 249 202 206 202 206 203 249 203 205 203 249 200 250 200 205 200 205 200 250 200 204 200 250 200 251 200 204 200 204 200 251 200 203 200 251 204 252 204 203 204 203 205 252 205 202 205 252 200 253 200 202 200 202 200 253 200 201 200 253 200 254 200 201 200 201 200 254 200 200 200 254 200 255 200 200 200 200 205 255 205 199 205 255 200 256 200 199 200 199 206 256 206 198 206 256 207 257 207 198 207 198 200 257 200 197 200 257 208 258 208 197 208 197 209 258 209 196 209 258 200 259 200 196 200 196 200 259 200 195 200 259 200 260 200 195 200 195 200 260 200 194 200 260 200 261 200 194 200 194 200 261 200 193 200 261 200 262 200 193 200 193 200 262 200 192 200 262 210 263 210 192 210 192 211 263 211 191 211 263 200 264 200 191 200 191 212 264 212 190 212 264 213 265 213 190 213 190 200 265 200 189 200 265 200 152 200 189 200 189 200 152 200 188 200 152 200 153 200 188 200 188 214 153 214 187 214 153 200 154 200 187 200 187 200 154 200 186 200 154 215 155 215 186 215 186 200 155 200 185 200 155 200 156 200 185 200 185 200 156 200 184 200 156 200 157 200 184 200 184 200 157 200 183 200 157 200 158 200 183 200 183 200 158 200 182 200 158 216 159 216 182 216 182 200 159 200 181 200 159 210 160 210 181 210 181 200 160 200 180 200 160 200 161 200 180 200 180 217 161 217 179 217 161 200 162 200 179 200 179 218 162 218 178 218 162 204 163 204 178 204 178 218 163 218 177 218 163 204 164 204 177 204 177 200 164 200 176 200 164 219 165 219 176 219 176 207 165 207 175 207 165 200 166 200 175 200 175 200 166 200 174 200 166 200 167 200 174 200 174 200 167 200 173 200 167 220 168 220 173 220 173 200 168 200 172 200 168 221 169 221 172 221 172 200 169 200 171 200 169 200 170 200 171 200 171 200 170 200 229 200 170 200 266 200 229 200 229 200 266 200 246 200 266 200 267 200 246 200 246 222 267 222 245 222 267 223 268 223 245 223 245 224 268 224 244 224 268 200 269 200 244 200 244 200 269 200 243 200 269 200 270 200 243 200 243 200 270 200 242 200 270 225 271 225 242 225 242 226 271 226 241 226 271 200 272 200 241 200 241 200 272 200 240 200 272 200 273 200 240 200 240 200 273 200 239 200 273 200 274 200 239 200 239 226 274 226 238 226 274 200 275 200 238 200 238 227 275 227 237 227 275 216 276 216 237 216 237 200 276 200 236 200 276 210 277 210 236 210 236 217 277 217 235 217 277 200 278 200 235 200 235 200 278 200 234 200 278 200 279 200 234 200 234 200 279 200 233 200 279 200 280 200 233 200 233 200 280 200 232 200 280 200 281 200 232 200 232 200 281 200 231 200 281 208 282 208 231 208 231 212 282 212 230 212 282 200 283 200 230 200 230 211 283 211 210 211 283 228 284 228 210 228 210 200 284 200 211 200 284 200 285 200 211 200 211 200 285 200 228 200 285 200 286 200 228 200 228 229 286 229 227 229 286 200 287 200 227 200 227 200 287 200 226 200 287 230 288 230 226 230 226 200 288 200 225 200 288 200 289 200 225 200 225 200 289 200 224 200 289 200 290 200 224 200 224 200 290 200 223 200 290 200 291 200 223 200 223 200 291 200 222 200 291 207 292 207 222 207 222 200 292 200 221 200 292 208 293 208 221 208 221 200 293 200 220 200 293 200 294 200 220 200 220 209 294 209 219 209 294 200 295 200 219 200 219 231 295 231 218 231 295 225 296 225 218 225 218 231 296 231 217 231 296 225 297 225 217 225 217 200 297 200 216 200 297 232 298 232 216 232 216 216 298 216 215 216 298 200 299 200 215 200 215 200 299 200 214 200 299 200 300 200 214 200 214 200 300 200 213 200 300 233 301 233 213 233 213 200 301 200 212 200 301 234 302 234 212 234 212 200 302 200 209 200 302 200 303 200 209 200 209 200 303 200 208 200 303 200 247 200 208 200 152 140 265 140 39 140 265 140 41 140 39 140 247 235 77 235 75 235 247 236 75 236 248 236 75 237 73 237 248 237 248 237 73 237 249 237 73 195 71 195 249 195 249 194 71 194 250 194 71 193 69 193 250 193 250 192 69 192 251 192 69 191 67 191 251 191 251 190 67 190 252 190 67 238 65 238 252 238 252 239 65 239 253 239 65 240 63 240 253 240 253 241 63 241 254 241 63 242 61 242 254 242 254 243 61 243 255 243 61 244 59 244 255 244 255 245 59 245 256 245 59 246 57 246 256 246 256 247 57 247 257 247 57 248 55 248 257 248 257 248 55 248 258 248 55 249 53 249 258 249 258 250 53 250 259 250 53 251 51 251 259 251 259 252 51 252 260 252 51 253 49 253 260 253 260 254 49 254 261 254 49 255 47 255 261 255 261 172 47 172 262 172 47 171 45 171 262 171 262 171 45 171 263 171 45 256 43 256 263 256 263 257 43 257 264 257 43 258 41 258 264 258 264 259 41 259 265 259 247 166 303 166 77 166 303 166 79 166 77 166 285 260 115 260 113 260 285 261 113 261 286 261 113 262 111 262 286 262 286 263 111 263 287 263 111 100 109 100 287 100 287 100 109 100 288 100 109 99 107 99 288 99 288 264 107 264 289 264 107 265 105 265 289 265 289 266 105 266 290 266 105 267 103 267 290 267 290 268 103 268 291 268 103 269 101 269 291 269 291 270 101 270 292 270 101 271 99 271 292 271 292 271 99 271 293 271 99 272 97 272 293 272 293 273 97 273 294 273 97 274 95 274 294 274 294 275 95 275 295 275 95 276 93 276 295 276 295 277 93 277 296 277 93 278 91 278 296 278 296 279 91 279 297 279 91 280 89 280 297 280 297 281 89 281 298 281 89 81 87 81 298 81 298 80 87 80 299 80 87 79 85 79 299 79 299 78 85 78 300 78 85 77 83 77 300 77 300 76 83 76 301 76 83 282 81 282 301 282 301 282 81 282 302 282 81 283 79 283 302 283 302 284 79 284 303 284 285 105 284 105 115 105 284 105 117 105 115 105 266 285 1 285 151 285 266 286 151 286 267 286 151 287 149 287 267 287 267 287 149 287 268 287 149 134 147 134 268 134 268 133 147 133 269 133 147 132 145 132 269 132 269 131 145 131 270 131 145 130 143 130 270 130 270 129 143 129 271 129 143 288 141 288 271 288 271 289 141 289 272 289 141 290 139 290 272 290 272 291 139 291 273 291 139 292 137 292 273 292 273 293 137 293 274 293 137 294 135 294 274 294 274 295 135 295 275 295 135 296 133 296 275 296 275 297 133 297 276 297 133 298 131 298 276 298 276 298 131 298 277 298 131 299 129 299 277 299 277 300 129 300 278 300 129 301 127 301 278 301 278 302 127 302 279 302 127 303 125 303 279 303 279 304 125 304 280 304 125 305 123 305 280 305 280 111 123 111 281 111 123 110 121 110 281 110 281 110 121 110 282 110 121 306 119 306 282 306 282 307 119 307 283 307 119 308 117 308 283 308 283 309 117 309 284 309 266 139 170 139 1 139 170 139 3 139 1 139</p>
        </triangles>
      </mesh>
    </geometry>
  </library_geometries>
  <library_visual_scenes>
    <visual_scene id="Scene" name="Scene">
      <node id="chassis_default_as_machined__13" name="chassis_default_as_machined__13" type="NODE">
        <matrix sid="transform">1 0 0 0 0 1 0 0 0 0 1 0 0 0 0 1</matrix>
        <instance_geometry url="#chassis_default_as_machined__13-mesh" name="chassis_default_as_machined__13"/>
      </node>
    </visual_scene>
  </library_visual_scenes>
  <scene>
    <instance_visual_scene url="#Scene"/>
  </scene>
</COLLADA>