<?xml version="1.0" encoding="utf-8"?>
<COLLADA xmlns="http://www.collada.org/2005/11/COLLADASchema" version="1.4.1" xmlns:xsi="http://www.w3.org/2001/XMLSchema-instance">
  <asset>
    <contributor>
      <author>Blender User</author>
      <authoring_tool>Blender 3.0.1</authoring_tool>
    </contributor>
    <created>2026-06-04T16:18:40</created>
    <modified>2026-06-04T16:18:40</modified>
    <unit name="meter" meter="1"/>
    <up_axis>Z_UP</up_axis>
  </asset>
  <library_images/>
  <library_geometries>
    <geometry id="chassis_default_as_machined__4-mesh" name="chassis_default_as_machined__4">
      <mesh>
        <source id="chassis_default_as_machined__4-mesh-positions">
          <float_array id="chassis_default_as_machined__4-mesh-positions-array" count="2640">-0.1899999 0.1883615 -0.1983615 -0.1899999 0.186523 -0.196523 -0.1899999 0.1882082 -0.1985287 -0.1899999 0.1862165 -0.1968575 -0.1899999 0.1880702 -0.1987087 -0.1899999 0.1859404 -0.1972174 -0.1899999 0.1879483 -0.1989 -0.1899999 0.1856966 -0.1976 -0.1899999 0.1878436 -0.1991012 -0.1899999 0.1854872 -0.1980023 -0.1899999 0.1877568 -0.1993107 -0.1899999 0.1853136 -0.1984215 -0.1899999 0.1876885 -0.199527 -0.1899999 0.1851772 -0.1988541 -0.1899999 0.1876395 -0.1997485 -0.1899999 0.185079 -0.199297 -0.1899999 0.1876099 -0.1999734 -0.1899999 0.1850197 -0.1997467 -0.1899999 0.1876 -0.2002 -0.1899999 0.185 -0.2002 -0.1899999 0.1876 -0.2197999 -0.1899999 0.185 -0.2197999 -0.1899999 0.1876099 -0.2200266 -0.1899999 0.1850197 -0.2202532 -0.1899999 0.1876395 -0.2202515 -0.1899999 0.185079 -0.220703 -0.1899999 0.1876885 -0.2204729 -0.1899999 0.1851772 -0.2211458 -0.1899999 0.1877568 -0.2206892 -0.1899999 0.1853136 -0.2215785 -0.1899999 0.1878436 -0.2208988 -0.1899999 0.1854872 -0.2219976 -0.1899999 0.1879483 -0.2211 -0.1899999 0.1856966 -0.2224 -0.1899999 0.1880702 -0.2212913 -0.1899999 0.1859404 -0.2227826 -0.1899999 0.1882082 -0.2214712 -0.1899999 0.1862165 -0.2231425 -0.1899999 0.1883615 -0.2216385 -0.1899999 0.186523 -0.223477 -0.1899999 0.1885287 -0.2217917 -0.1899999 0.1868575 -0.2237834 -0.1899999 0.1887087 -0.2219297 -0.1899999 0.1872174 -0.2240596 -0.1899999 0.1888999 -0.2220516 -0.1899999 0.1876 -0.2243033 -0.1899999 0.1891012 -0.2221564 -0.1899999 0.1880024 -0.2245128 -0.1899999 0.1893107 -0.2222432 -0.1899999 0.1884214 -0.2246864 -0.1899999 0.189527 -0.2223114 -0.1899999 0.1888541 -0.2248228 -0.1899999 0.1897485 -0.2223605 -0.1899999 0.189297 -0.224921 -0.1899999 0.1899734 -0.2223901 -0.1899999 0.1897467 -0.2249802 -0.1899999 0.1902 -0.2224 -0.1899999 0.1902 -0.225 -0.1899999 0.2098 -0.2224 -0.1899999 0.2098 -0.225 -0.1899999 0.2100266 -0.2223901 -0.1899999 0.2102532 -0.2249802 -0.1899999 0.2102515 -0.2223605 -0.1899999 0.210703 -0.224921 -0.1899999 0.2104729 -0.2223114 -0.1899999 0.2111458 -0.2248228 -0.1899999 0.2106892 -0.2222432 -0.1899999 0.2115785 -0.2246864 -0.1899999 0.2108988 -0.2221564 -0.1899999 0.2119976 -0.2245128 -0.1899999 0.2111 -0.2220516 -0.1899999 0.2124 -0.2243033 -0.1899999 0.2112913 -0.2219297 -0.1899999 0.2127826 -0.2240596 -0.1899999 0.2114712 -0.2217917 -0.1899999 0.2131425 -0.2237834 -0.1899999 0.2116385 -0.2216385 -0.1899999 0.2134769 -0.223477 -0.1899999 0.2117917 -0.2214712 -0.1899999 0.2137834 -0.2231425 -0.1899999 0.2119297 -0.2212913 -0.1899999 0.2140595 -0.2227826 -0.1899999 0.2120516 -0.2211 -0.1899999 0.2143033 -0.2224 -0.1899999 0.2121564 -0.2208988 -0.1899999 0.2145128 -0.2219976 -0.1899999 0.2122431 -0.2206892 -0.1899999 0.2146864 -0.2215785 -0.1899999 0.2123114 -0.2204729 -0.1899999 0.2148228 -0.2211458 -0.1899999 0.2123605 -0.2202515 -0.1899999 0.2149209 -0.220703 -0.1899999 0.2123901 -0.2200266 -0.1899999 0.2149802 -0.2202532 -0.1899999 0.2124 -0.2197999 -0.1899999 0.215 -0.2197999 -0.1899999 0.2124 -0.2002 -0.1899999 0.215 -0.2002 -0.1899999 0.2123901 -0.1999734 -0.1899999 0.2149802 -0.1997467 -0.1899999 0.2123605 -0.1997485 -0.1899999 0.2149209 -0.199297 -0.1899999 0.2123114 -0.199527 -0.1899999 0.2148228 -0.1988541 -0.1899999 0.2122431 -0.1993107 -0.1899999 0.2146864 -0.1984215 -0.1899999 0.2121564 -0.1991012 -0.1899999 0.2145128 -0.1980023 -0.1899999 0.2120516 -0.1989 -0.1899999 0.2143033 -0.1976 -0.1899999 0.2119297 -0.1987087 -0.1899999 0.2140595 -0.1972174 -0.1899999 0.2117917 -0.1985287 -0.1899999 0.2137834 -0.1968575 -0.1899999 0.2116385 -0.1983615 -0.1899999 0.2134769 -0.196523 -0.1899999 0.2114712 -0.1982083 -0.1899999 0.2131425 -0.1962165 -0.1899999 0.2112913 -0.1980702 -0.1899999 0.2127826 -0.1959404 -0.1899999 0.2111 -0.1979483 -0.1899999 0.2124 -0.1956967 -0.1899999 0.2108988 -0.1978436 -0.1899999 0.2119976 -0.1954872 -0.1899999 0.2106892 -0.1977568 -0.1899999 0.2115785 -0.1953136 -0.1899999 0.2104729 -0.1976886 -0.1899999 0.2111458 -0.1951771 -0.1899999 0.2102515 -0.1976395 -0.1899999 0.210703 -0.195079 -0.1899999 0.2100266 -0.1976099 -0.1899999 0.2102532 -0.1950197 -0.1899999 0.2098 -0.1976 -0.1899999 0.2098 -0.1949999 -0.1899999 0.1902 -0.1976 -0.1899999 0.1902 -0.1949999 -0.1899999 0.1899734 -0.1976099 -0.1899999 0.1897467 -0.1950197 -0.1899999 0.1897485 -0.1976395 -0.1899999 0.189297 -0.195079 -0.1899999 0.189527 -0.1976886 -0.1899999 0.1888541 -0.1951771 -0.1899999 0.1893107 -0.1977568 -0.1899999 0.1884214 -0.1953136 -0.1899999 0.1891012 -0.1978436 -0.1899999 0.1880024 -0.1954872 -0.1899999 0.1888999 -0.1979483 -0.1899999 0.1876 -0.1956967 -0.1899999 0.1887087 -0.1980702 -0.1899999 0.1872174 -0.1959404 -0.1899999 0.1885287 -0.1982083 -0.1899999 0.1868575 -0.1962165 -0.41 0.2098 -0.225 -0.41 0.2102532 -0.2249802 -0.41 0.210703 -0.224921 -0.41 0.2111458 -0.2248228 -0.41 0.2115785 -0.2246864 -0.41 0.2119976 -0.2245128 -0.41 0.2124 -0.2243033 -0.41 0.2127826 -0.2240596 -0.41 0.2131425 -0.2237834 -0.41 0.2134769 -0.223477 -0.41 0.2137834 -0.2231425 -0.41 0.2140595 -0.2227826 -0.41 0.2143033 -0.2224 -0.41 0.2145128 -0.2219976 -0.41 0.2146864 -0.2215785 -0.41 0.2148228 -0.2211458 -0.41 0.2149209 -0.220703 -0.41 0.2149802 -0.2202532 -0.41 0.215 -0.2197999 -0.3202953 0.215 -0.2053584 -0.3206413 0.215 -0.2054039 -0.41 0.215 -0.2002 -0.322241 0.215 -0.2060666 -0.3219467 0.215 -0.2058791 -0.3216372 0.215 -0.2057179 -0.320982 0.215 -0.2054795 -0.3213148 0.215 -0.2055844 -0.323572 0.215 -0.2076527 -0.3237055 0.215 -0.2079751 -0.3238105 0.215 -0.2083079 -0.323886 0.215 -0.2086486 -0.3225179 0.215 -0.206279 -0.3227751 0.215 -0.2065148 -0.3230109 0.215 -0.206772 -0.3232234 0.215 -0.2070489 -0.3234108 0.215 -0.2073432 -0.3239315 0.215 -0.2089946 -0.3239467 0.215 -0.2093432 -0.3239315 0.215 -0.2096918 -0.323886 0.215 -0.2100378 -0.3238105 0.215 -0.2103785 -0.3237055 0.215 -0.2107113 -0.323572 0.215 -0.2110337 -0.3234108 0.215 -0.2113432 -0.3232234 0.215 -0.2116375 -0.3230109 0.215 -0.2119143 -0.3227751 0.215 -0.2121716 -0.3225179 0.215 -0.2124074 -0.322241 0.215 -0.2126198 -0.3195981 0.215 -0.213328 -0.3192521 0.215 -0.2132824 -0.3182563 0.215 -0.2129684 -0.3179467 0.215 -0.2128073 -0.3176524 0.215 -0.2126198 -0.3173756 0.215 -0.2124074 -0.2802954 0.215 -0.2053584 -0.2806413 0.215 -0.2054039 -0.3173756 0.215 -0.206279 -0.2816372 0.215 -0.2057179 -0.2819467 0.215 -0.2058791 -0.3163215 0.215 -0.2110337 -0.316188 0.215 -0.2107113 -0.2830109 0.215 -0.2119143 -0.3176524 0.215 -0.2060666 -0.3179467 0.215 -0.2058791 -0.3182563 0.215 -0.2057179 -0.3185787 0.215 -0.2055844 -0.3189114 0.215 -0.2054795 -0.3192521 0.215 -0.2054039 -0.3195981 0.215 -0.2053584 -0.3199467 0.215 -0.2053432 -0.3219467 0.215 -0.2128073 -0.3216372 0.215 -0.2129684 -0.3213148 0.215 -0.2131019 -0.3199467 0.215 -0.2133432 -0.3202953 0.215 -0.213328 -0.3189114 0.215 -0.2132069 -0.3185787 0.215 -0.2131019 -0.2799468 0.215 -0.2053432 -0.2795981 0.215 -0.2053584 -0.280982 0.215 -0.2054795 -0.2813148 0.215 -0.2055844 -0.320982 0.215 -0.2132069 -0.3206413 0.215 -0.2132824 -0.283572 0.215 -0.2076527 -0.2837055 0.215 -0.2079751 -0.3160075 0.215 -0.2086486 -0.2827752 0.215 -0.2121716 -0.3171183 0.215 -0.2121716 -0.3168826 0.215 -0.2119143 -0.3166701 0.215 -0.2116375 -0.3164826 0.215 -0.2113432 -0.316083 0.215 -0.2083079 -0.316188 0.215 -0.2079751 -0.2825179 0.215 -0.206279 -0.3163215 0.215 -0.2076527 -0.2825179 0.215 -0.2124074 -0.2822411 0.215 -0.2126198 -0.2819467 0.215 -0.2128073 -0.2763215 0.215 -0.2110337 -0.276188 0.215 -0.2107113 -0.3164826 0.215 -0.2073432 -0.3166701 0.215 -0.2070489 -0.3168826 0.215 -0.206772 -0.2822411 0.215 -0.2060666 -0.3171183 0.215 -0.2065148 -0.2795981 0.215 -0.213328 -0.2792521 0.215 -0.2132824 -0.2776525 0.215 -0.2126198 -0.2779467 0.215 -0.2128073 -0.2782562 0.215 -0.2129684 -0.2776525 0.215 -0.2060666 -0.2779467 0.215 -0.2058791 -0.2782562 0.215 -0.2057179 -0.2785786 0.215 -0.2055844 -0.2827752 0.215 -0.2065148 -0.2830109 0.215 -0.206772 -0.2832233 0.215 -0.2070489 -0.2834109 0.215 -0.2073432 -0.2838104 0.215 -0.2103785 -0.2837055 0.215 -0.2107113 -0.3160075 0.215 -0.2100378 -0.283572 0.215 -0.2110337 -0.2834109 0.215 -0.2113432 -0.316083 0.215 -0.2103785 -0.2832233 0.215 -0.2116375 -0.2760075 0.215 -0.2086486 -0.2759619 0.215 -0.2089946 -0.2759467 0.215 -0.2093432 -0.2789115 0.215 -0.2054795 -0.2792521 0.215 -0.2054039 -0.2838104 0.215 -0.2083079 -0.283886 0.215 -0.2086486 -0.315962 0.215 -0.2089946 -0.2839315 0.215 -0.2089946 -0.3159467 0.215 -0.2093432 -0.2839468 0.215 -0.2093432 -0.315962 0.215 -0.2096918 -0.2839315 0.215 -0.2096918 -0.283886 0.215 -0.2100378 -0.2816372 0.215 -0.2129684 -0.2813148 0.215 -0.2131019 -0.280982 0.215 -0.2132069 -0.2806413 0.215 -0.2132824 -0.2802954 0.215 -0.213328 -0.2799468 0.215 -0.2133432 -0.2789115 0.215 -0.2132069 -0.2785786 0.215 -0.2131019 -0.2773756 0.215 -0.2124074 -0.2771183 0.215 -0.2121716 -0.2768825 0.215 -0.2119143 -0.2766701 0.215 -0.2116375 -0.2764827 0.215 -0.2113432 -0.2760831 0.215 -0.2103785 -0.2760075 0.215 -0.2100378 -0.2759619 0.215 -0.2096918 -0.2760831 0.215 -0.2083079 -0.276188 0.215 -0.2079751 -0.2763215 0.215 -0.2076527 -0.2764827 0.215 -0.2073432 -0.2766701 0.215 -0.2070489 -0.2768825 0.215 -0.206772 -0.2771183 0.215 -0.2065148 -0.2773756 0.215 -0.206279 -0.41 0.2149802 -0.1997467 -0.41 0.2149209 -0.199297 -0.41 0.2148228 -0.1988541 -0.41 0.2146864 -0.1984215 -0.41 0.2145128 -0.1980023 -0.41 0.2143033 -0.1976 -0.41 0.2140595 -0.1972174 -0.41 0.2137834 -0.1968575 -0.41 0.2134769 -0.196523 -0.41 0.2131425 -0.1962165 -0.41 0.2127826 -0.1959404 -0.41 0.2124 -0.1956967 -0.41 0.2119976 -0.1954872 -0.41 0.2115785 -0.1953136 -0.41 0.2111458 -0.1951771 -0.41 0.210703 -0.195079 -0.41 0.2102532 -0.1950197 -0.41 0.2098 -0.1949999 -0.41 0.1902 -0.1949999 -0.41 0.1897467 -0.1950197 -0.41 0.189297 -0.195079 -0.41 0.1888541 -0.1951771 -0.41 0.1884214 -0.1953136 -0.41 0.1880024 -0.1954872 -0.41 0.1876 -0.1956967 -0.41 0.1872174 -0.1959404 -0.41 0.1868575 -0.1962165 -0.41 0.186523 -0.196523 -0.41 0.1862165 -0.1968575 -0.41 0.1859404 -0.1972174 -0.41 0.1856966 -0.1976 -0.41 0.1854872 -0.1980023 -0.41 0.1853136 -0.1984215 -0.41 0.1851772 -0.1988541 -0.41 0.185079 -0.199297 -0.41 0.1850197 -0.1997467 -0.41 0.185 -0.2002 -0.41 0.1876 -0.2002 -0.41 0.1876099 -0.1999734 -0.41 0.1876395 -0.1997485 -0.41 0.1876885 -0.199527 -0.41 0.1877568 -0.1993107 -0.41 0.1878436 -0.1991012 -0.41 0.1879483 -0.1989 -0.41 0.1880702 -0.1987087 -0.41 0.1882082 -0.1985287 -0.41 0.1883615 -0.1983615 -0.41 0.1885287 -0.1982083 -0.41 0.1887087 -0.1980702 -0.41 0.1888999 -0.1979483 -0.41 0.1891012 -0.1978436 -0.41 0.1893107 -0.1977568 -0.41 0.189527 -0.1976886 -0.41 0.1897485 -0.1976395 -0.41 0.1899734 -0.1976099 -0.41 0.1902 -0.1976 -0.41 0.2098 -0.1976 -0.2799468 0.2124 -0.2053432 -0.2795981 0.2124 -0.2053584 -0.2792521 0.2124 -0.2054039 -0.2789115 0.2124 -0.2054795 -0.2785786 0.2124 -0.2055844 -0.2782562 0.2124 -0.2057179 -0.2779467 0.2124 -0.2058791 -0.2776525 0.2124 -0.2060666 -0.2773756 0.2124 -0.206279 -0.2771183 0.2124 -0.2065148 -0.2768825 0.2124 -0.206772 -0.2766701 0.2124 -0.2070489 -0.2764827 0.2124 -0.2073432 -0.2763215 0.2124 -0.2076527 -0.276188 0.2124 -0.2079751 -0.2760831 0.2124 -0.2083079 -0.2760075 0.2124 -0.2086486 -0.2759619 0.2124 -0.2089946 -0.2759467 0.2124 -0.2093432 -0.2759619 0.2124 -0.2096918 -0.2760075 0.2124 -0.2100378 -0.2760831 0.2124 -0.2103785 -0.276188 0.2124 -0.2107113 -0.2763215 0.2124 -0.2110337 -0.2764827 0.2124 -0.2113432 -0.2766701 0.2124 -0.2116375 -0.2768825 0.2124 -0.2119143 -0.2771183 0.2124 -0.2121716 -0.2773756 0.2124 -0.2124074 -0.2776525 0.2124 -0.2126198 -0.2779467 0.2124 -0.2128073 -0.2782562 0.2124 -0.2129684 -0.2785786 0.2124 -0.2131019 -0.2789115 0.2124 -0.2132069 -0.2792521 0.2124 -0.2132824 -0.2795981 0.2124 -0.213328 -0.2799468 0.2124 -0.2133432 -0.2802954 0.2124 -0.213328 -0.2806413 0.2124 -0.2132824 -0.280982 0.2124 -0.2132069 -0.2813148 0.2124 -0.2131019 -0.2816372 0.2124 -0.2129684 -0.2819467 0.2124 -0.2128073 -0.2822411 0.2124 -0.2126198 -0.2825179 0.2124 -0.2124074 -0.2827752 0.2124 -0.2121716 -0.2830109 0.2124 -0.2119143 -0.2832233 0.2124 -0.2116375 -0.2834109 0.2124 -0.2113432 -0.283572 0.2124 -0.2110337 -0.2837055 0.2124 -0.2107113 -0.2838104 0.2124 -0.2103785 -0.283886 0.2124 -0.2100378 -0.2839315 0.2124 -0.2096918 -0.2839468 0.2124 -0.2093432 -0.2839315 0.2124 -0.2089946 -0.283886 0.2124 -0.2086486 -0.2838104 0.2124 -0.2083079 -0.2837055 0.2124 -0.2079751 -0.283572 0.2124 -0.2076527 -0.2834109 0.2124 -0.2073432 -0.2832233 0.2124 -0.2070489 -0.2830109 0.2124 -0.206772 -0.2827752 0.2124 -0.2065148 -0.2825179 0.2124 -0.206279 -0.2822411 0.2124 -0.2060666 -0.2819467 0.2124 -0.2058791 -0.2816372 0.2124 -0.2057179 -0.2813148 0.2124 -0.2055844 -0.280982 0.2124 -0.2054795 -0.2806413 0.2124 -0.2054039 -0.2802954 0.2124 -0.2053584 -0.3199467 0.2124 -0.2053432 -0.3195981 0.2124 -0.2053584 -0.3192521 0.2124 -0.2054039 -0.3189114 0.2124 -0.2054795 -0.3185787 0.2124 -0.2055844 -0.3182563 0.2124 -0.2057179 -0.3179467 0.2124 -0.2058791 -0.3176524 0.2124 -0.2060666 -0.3173756 0.2124 -0.206279 -0.3171183 0.2124 -0.2065148 -0.3168826 0.2124 -0.206772 -0.3166701 0.2124 -0.2070489 -0.3164826 0.2124 -0.2073432 -0.3163215 0.2124 -0.2076527 -0.316188 0.2124 -0.2079751 -0.316083 0.2124 -0.2083079 -0.3160075 0.2124 -0.2086486 -0.315962 0.2124 -0.2089946 -0.3159467 0.2124 -0.2093432 -0.315962 0.2124 -0.2096918 -0.3160075 0.2124 -0.2100378 -0.316083 0.2124 -0.2103785 -0.316188 0.2124 -0.2107113 -0.3163215 0.2124 -0.2110337 -0.3164826 0.2124 -0.2113432 -0.3166701 0.2124 -0.2116375 -0.3168826 0.2124 -0.2119143 -0.3171183 0.2124 -0.2121716 -0.3173756 0.2124 -0.2124074 -0.3176524 0.2124 -0.2126198 -0.3179467 0.2124 -0.2128073 -0.3182563 0.2124 -0.2129684 -0.3185787 0.2124 -0.2131019 -0.3189114 0.2124 -0.2132069 -0.3192521 0.2124 -0.2132824 -0.3195981 0.2124 -0.213328 -0.3199467 0.2124 -0.2133432 -0.3202953 0.2124 -0.213328 -0.3206413 0.2124 -0.2132824 -0.320982 0.2124 -0.2132069 -0.3213148 0.2124 -0.2131019 -0.3216372 0.2124 -0.2129684 -0.3219467 0.2124 -0.2128073 -0.322241 0.2124 -0.2126198 -0.3225179 0.2124 -0.2124074 -0.3227751 0.2124 -0.2121716 -0.3230109 0.2124 -0.2119143 -0.3232234 0.2124 -0.2116375 -0.3234108 0.2124 -0.2113432 -0.323572 0.2124 -0.2110337 -0.3237055 0.2124 -0.2107113 -0.3238105 0.2124 -0.2103785 -0.323886 0.2124 -0.2100378 -0.3239315 0.2124 -0.2096918 -0.3239467 0.2124 -0.2093432 -0.3239315 0.2124 -0.2089946 -0.323886 0.2124 -0.2086486 -0.3238105 0.2124 -0.2083079 -0.3237055 0.2124 -0.2079751 -0.323572 0.2124 -0.2076527 -0.3234108 0.2124 -0.2073432 -0.3232234 0.2124 -0.2070489 -0.3230109 0.2124 -0.206772 -0.3227751 0.2124 -0.2065148 -0.3225179 0.2124 -0.206279 -0.322241 0.2124 -0.2060666 -0.3219467 0.2124 -0.2058791 -0.3216372 0.2124 -0.2057179 -0.3213148 0.2124 -0.2055844 -0.320982 0.2124 -0.2054795 -0.3206413 0.2124 -0.2054039 -0.3202953 0.2124 -0.2053584 -0.3199467 0.185 -0.2053432 -0.3199467 0.1876 -0.2053432 -0.3195981 0.185 -0.2053584 -0.3195981 0.1876 -0.2053584 -0.3192521 0.185 -0.2054039 -0.3192521 0.1876 -0.2054039 -0.3189114 0.185 -0.2054795 -0.3189114 0.1876 -0.2054795 -0.3185787 0.185 -0.2055844 -0.3185787 0.1876 -0.2055844 -0.3182563 0.185 -0.2057179 -0.3182563 0.1876 -0.2057179 -0.3179467 0.185 -0.2058791 -0.3179467 0.1876 -0.2058791 -0.3176524 0.185 -0.2060666 -0.3176524 0.1876 -0.2060666 -0.3173756 0.185 -0.206279 -0.3173756 0.1876 -0.206279 -0.3171183 0.185 -0.2065148 -0.3171183 0.1876 -0.2065148 -0.3168826 0.185 -0.206772 -0.3168826 0.1876 -0.206772 -0.3166701 0.185 -0.2070489 -0.3166701 0.1876 -0.2070489 -0.3164826 0.185 -0.2073432 -0.3164826 0.1876 -0.2073432 -0.3163215 0.185 -0.2076527 -0.3163215 0.1876 -0.2076527 -0.316188 0.185 -0.2079751 -0.316188 0.1876 -0.2079751 -0.316083 0.185 -0.2083079 -0.316083 0.1876 -0.2083079 -0.3160075 0.185 -0.2086486 -0.3160075 0.1876 -0.2086486 -0.315962 0.185 -0.2089946 -0.315962 0.1876 -0.2089946 -0.3159467 0.185 -0.2093432 -0.3159467 0.1876 -0.2093432 -0.315962 0.185 -0.2096918 -0.315962 0.1876 -0.2096918 -0.3160075 0.185 -0.2100378 -0.3160075 0.1876 -0.2100378 -0.316083 0.185 -0.2103785 -0.316083 0.1876 -0.2103785 -0.316188 0.185 -0.2107113 -0.316188 0.1876 -0.2107113 -0.3163215 0.185 -0.2110337 -0.3163215 0.1876 -0.2110337 -0.3164826 0.185 -0.2113432 -0.3164826 0.1876 -0.2113432 -0.3166701 0.185 -0.2116375 -0.3166701 0.1876 -0.2116375 -0.3168826 0.185 -0.2119143 -0.3168826 0.1876 -0.2119143 -0.3171183 0.185 -0.2121716 -0.3171183 0.1876 -0.2121716 -0.3173756 0.185 -0.2124074 -0.3173756 0.1876 -0.2124074 -0.3176524 0.185 -0.2126198 -0.3176524 0.1876 -0.2126198 -0.3179467 0.185 -0.2128073 -0.3179467 0.1876 -0.2128073 -0.3182563 0.185 -0.2129684 -0.3182563 0.1876 -0.2129684 -0.3185787 0.185 -0.2131019 -0.3185787 0.1876 -0.2131019 -0.3189114 0.185 -0.2132069 -0.3189114 0.1876 -0.2132069 -0.3192521 0.185 -0.2132824 -0.3192521 0.1876 -0.2132824 -0.3195981 0.185 -0.213328 -0.3195981 0.1876 -0.213328 -0.3199467 0.185 -0.2133432 -0.3199467 0.1876 -0.2133432 -0.3202953 0.185 -0.213328 -0.3202953 0.1876 -0.213328 -0.3206413 0.185 -0.2132824 -0.3206413 0.1876 -0.2132824 -0.320982 0.185 -0.2132069 -0.320982 0.1876 -0.2132069 -0.3213148 0.185 -0.2131019 -0.3213148 0.1876 -0.2131019 -0.3216372 0.185 -0.2129684 -0.3216372 0.1876 -0.2129684 -0.3219467 0.185 -0.2128073 -0.3219467 0.1876 -0.2128073 -0.322241 0.185 -0.2126198 -0.322241 0.1876 -0.2126198 -0.3225179 0.185 -0.2124074 -0.3225179 0.1876 -0.2124074 -0.3227751 0.185 -0.2121716 -0.3227751 0.1876 -0.2121716 -0.3230109 0.185 -0.2119143 -0.3230109 0.1876 -0.2119143 -0.3232234 0.185 -0.2116375 -0.3232234 0.1876 -0.2116375 -0.3234108 0.185 -0.2113432 -0.3234108 0.1876 -0.2113432 -0.323572 0.185 -0.2110337 -0.323572 0.1876 -0.2110337 -0.3237055 0.185 -0.2107113 -0.3237055 0.1876 -0.2107113 -0.3238105 0.185 -0.2103785 -0.3238105 0.1876 -0.2103785 -0.323886 0.185 -0.2100378 -0.323886 0.1876 -0.2100378 -0.3239315 0.185 -0.2096918 -0.3239315 0.1876 -0.2096918 -0.3239467 0.185 -0.2093432 -0.3239467 0.1876 -0.2093432 -0.3239315 0.185 -0.2089946 -0.3239315 0.1876 -0.2089946 -0.323886 0.185 -0.2086486 -0.323886 0.1876 -0.2086486 -0.3238105 0.185 -0.2083079 -0.3238105 0.1876 -0.2083079 -0.3237055 0.185 -0.2079751 -0.3237055 0.1876 -0.2079751 -0.323572 0.185 -0.2076527 -0.323572 0.1876 -0.2076527 -0.3234108 0.185 -0.2073432 -0.3234108 0.1876 -0.2073432 -0.3232234 0.185 -0.2070489 -0.3232234 0.1876 -0.2070489 -0.3230109 0.185 -0.206772 -0.3230109 0.1876 -0.206772 -0.3227751 0.185 -0.2065148 -0.3227751 0.1876 -0.2065148 -0.3225179 0.185 -0.206279 -0.3225179 0.1876 -0.206279 -0.322241 0.185 -0.2060666 -0.322241 0.1876 -0.2060666 -0.3219467 0.185 -0.2058791 -0.3219467 0.1876 -0.2058791 -0.3216372 0.185 -0.2057179 -0.3216372 0.1876 -0.2057179 -0.3213148 0.185 -0.2055844 -0.3213148 0.1876 -0.2055844 -0.320982 0.185 -0.2054795 -0.320982 0.1876 -0.2054795 -0.3206413 0.185 -0.2054039 -0.3206413 0.1876 -0.2054039 -0.3202953 0.185 -0.2053584 -0.3202953 0.1876 -0.2053584 -0.2799468 0.185 -0.2053432 -0.2799468 0.1876 -0.2053432 -0.2795981 0.185 -0.2053584 -0.2795981 0.1876 -0.2053584 -0.2792521 0.185 -0.2054039 -0.2792521 0.1876 -0.2054039 -0.2789115 0.185 -0.2054795 -0.2789115 0.1876 -0.2054795 -0.2785786 0.185 -0.2055844 -0.2785786 0.1876 -0.2055844 -0.2782562 0.185 -0.2057179 -0.2782562 0.1876 -0.2057179 -0.2779467 0.185 -0.2058791 -0.2779467 0.1876 -0.2058791 -0.2776525 0.185 -0.2060666 -0.2776525 0.1876 -0.2060666 -0.2773756 0.185 -0.206279 -0.2773756 0.1876 -0.206279 -0.2771183 0.185 -0.2065148 -0.2771183 0.1876 -0.2065148 -0.2768825 0.185 -0.206772 -0.2768825 0.1876 -0.206772 -0.2766701 0.185 -0.2070489 -0.2766701 0.1876 -0.2070489 -0.2764827 0.185 -0.2073432 -0.2764827 0.1876 -0.2073432 -0.2763215 0.185 -0.2076527 -0.2763215 0.1876 -0.2076527 -0.276188 0.185 -0.2079751 -0.276188 0.1876 -0.2079751 -0.2760831 0.185 -0.2083079 -0.2760831 0.1876 -0.2083079 -0.2760075 0.185 -0.2086486 -0.2760075 0.1876 -0.2086486 -0.2759619 0.185 -0.2089946 -0.2759619 0.1876 -0.2089946 -0.2759467 0.185 -0.2093432 -0.2759467 0.1876 -0.2093432 -0.2759619 0.185 -0.2096918 -0.2759619 0.1876 -0.2096918 -0.2760075 0.185 -0.2100378 -0.2760075 0.1876 -0.2100378 -0.2760831 0.185 -0.2103785 -0.2760831 0.1876 -0.2103785 -0.276188 0.185 -0.2107113 -0.276188 0.1876 -0.2107113 -0.2763215 0.185 -0.2110337 -0.2763215 0.1876 -0.2110337 -0.2764827 0.185 -0.2113432 -0.2764827 0.1876 -0.2113432 -0.2766701 0.185 -0.2116375 -0.2766701 0.1876 -0.2116375 -0.2768825 0.185 -0.2119143 -0.2768825 0.1876 -0.2119143 -0.2771183 0.185 -0.2121716 -0.2771183 0.1876 -0.2121716 -0.2773756 0.185 -0.2124074 -0.2773756 0.1876 -0.2124074 -0.2776525 0.185 -0.2126198 -0.2776525 0.1876 -0.2126198 -0.2779467 0.185 -0.2128073 -0.2779467 0.1876 -0.2128073 -0.2782562 0.185 -0.2129684 -0.2782562 0.1876 -0.2129684 -0.2785786 0.185 -0.2131019 -0.2785786 0.1876 -0.2131019 -0.2789115 0.185 -0.2132069 -0.2789115 0.1876 -0.2132069 -0.2792521 0.185 -0.2132824 -0.2792521 0.1876 -0.2132824 -0.2795981 0.185 -0.213328 -0.2795981 0.1876 -0.213328 -0.2799468 0.185 -0.2133432 -0.2799468 0.1876 -0.2133432 -0.2802954 0.185 -0.213328 -0.2802954 0.1876 -0.213328 -0.2806413 0.185 -0.2132824 -0.2806413 0.1876 -0.2132824 -0.280982 0.185 -0.2132069 -0.280982 0.1876 -0.2132069 -0.2813148 0.185 -0.2131019 -0.2813148 0.1876 -0.2131019 -0.2816372 0.185 -0.2129684 -0.2816372 0.1876 -0.2129684 -0.2819467 0.185 -0.2128073 -0.2819467 0.1876 -0.2128073 -0.2822411 0.185 -0.2126198 -0.2822411 0.1876 -0.2126198 -0.2825179 0.185 -0.2124074 -0.2825179 0.1876 -0.2124074 -0.2827752 0.185 -0.2121716 -0.2827752 0.1876 -0.2121716 -0.2830109 0.185 -0.2119143 -0.2830109 0.1876 -0.2119143 -0.2832233 0.185 -0.2116375 -0.2832233 0.1876 -0.2116375 -0.2834109 0.185 -0.2113432 -0.2834109 0.1876 -0.2113432 -0.283572 0.185 -0.2110337 -0.283572 0.1876 -0.2110337 -0.2837055 0.185 -0.2107113 -0.2837055 0.1876 -0.2107113 -0.2838104 0.185 -0.2103785 -0.2838104 0.1876 -0.2103785 -0.283886 0.185 -0.2100378 -0.283886 0.1876 -0.2100378 -0.2839315 0.185 -0.2096918 -0.2839315 0.1876 -0.2096918 -0.2839468 0.185 -0.2093432 -0.2839468 0.1876 -0.2093432 -0.2839315 0.185 -0.2089946 -0.2839315 0.1876 -0.2089946 -0.283886 0.185 -0.2086486 -0.283886 0.1876 -0.2086486 -0.2838104 0.185 -0.2083079 -0.2838104 0.1876 -0.2083079 -0.2837055 0.185 -0.2079751 -0.2837055 0.1876 -0.2079751 -0.283572 0.185 -0.2076527 -0.283572 0.1876 -0.2076527 -0.2834109 0.185 -0.2073432 -0.2834109 0.1876 -0.2073432 -0.2832233 0.185 -0.2070489 -0.2832233 0.1876 -0.2070489 -0.2830109 0.185 -0.206772 -0.2830109 0.1876 -0.206772 -0.2827752 0.185 -0.2065148 -0.2827752 0.1876 -0.2065148 -0.2825179 0.185 -0.206279 -0.2825179 0.1876 -0.206279 -0.2822411 0.185 -0.2060666 -0.2822411 0.1876 -0.2060666 -0.2819467 0.185 -0.2058791 -0.2819467 0.1876 -0.2058791 -0.2816372 0.185 -0.2057179 -0.2816372 0.1876 -0.2057179 -0.2813148 0.185 -0.2055844 -0.2813148 0.1876 -0.2055844 -0.280982 0.185 -0.2054795 -0.280982 0.1876 -0.2054795 -0.2806413 0.185 -0.2054039 -0.2806413 0.1876 -0.2054039 -0.2802954 0.185 -0.2053584 -0.2802954 0.1876 -0.2053584 -0.41 0.1876 -0.2197999 -0.41 0.1902 -0.2224 -0.41 0.1899734 -0.2223901 -0.41 0.1897485 -0.2223605 -0.41 0.189527 -0.2223114 -0.41 0.1893107 -0.2222432 -0.41 0.1891012 -0.2221564 -0.41 0.1888999 -0.2220516 -0.41 0.1887087 -0.2219297 -0.41 0.1885287 -0.2217917 -0.41 0.1883615 -0.2216385 -0.41 0.1882082 -0.2214712 -0.41 0.1880702 -0.2212913 -0.41 0.1879483 -0.2211 -0.41 0.1878436 -0.2208988 -0.41 0.1877568 -0.2206892 -0.41 0.1876885 -0.2204729 -0.41 0.1876395 -0.2202515 -0.41 0.1876099 -0.2200266 -0.41 0.2098 -0.2224 -0.41 0.2124 -0.2197999 -0.41 0.2123901 -0.2200266 -0.41 0.2123605 -0.2202515 -0.41 0.2123114 -0.2204729 -0.41 0.2122431 -0.2206892 -0.41 0.2121564 -0.2208988 -0.41 0.2120516 -0.2211 -0.41 0.2119297 -0.2212913 -0.41 0.2117917 -0.2214712 -0.41 0.2116385 -0.2216385 -0.41 0.2114712 -0.2217917 -0.41 0.2112913 -0.2219297 -0.41 0.2111 -0.2220516 -0.41 0.2108988 -0.2221564 -0.41 0.2106892 -0.2222432 -0.41 0.2104729 -0.2223114 -0.41 0.2102515 -0.2223605 -0.41 0.2100266 -0.2223901 -0.41 0.2124 -0.2002 -0.41 0.2100266 -0.1976099 -0.41 0.2102515 -0.1976395 -0.41 0.2104729 -0.1976886 -0.41 0.2106892 -0.1977568 -0.41 0.2108988 -0.1978436 -0.41 0.2111 -0.1979483 -0.41 0.2112913 -0.1980702 -0.41 0.2114712 -0.1982083 -0.41 0.2116385 -0.1983615 -0.41 0.2117917 -0.1985287 -0.41 0.2119297 -0.1987087 -0.41 0.2120516 -0.1989 -0.41 0.2121564 -0.1991012 -0.41 0.2122431 -0.1993107 -0.41 0.2123114 -0.199527 -0.41 0.2123605 -0.1997485 -0.41 0.2123901 -0.1999734 -0.41 0.186523 -0.223477 -0.41 0.1862165 -0.2231425 -0.41 0.1859404 -0.2227826 -0.41 0.1856966 -0.2224 -0.41 0.1854872 -0.2219976 -0.41 0.1853136 -0.2215785 -0.41 0.1851772 -0.2211458 -0.41 0.185079 -0.220703 -0.41 0.1850197 -0.2202532 -0.41 0.185 -0.2197999 -0.41 0.1902 -0.225 -0.41 0.1897467 -0.2249802 -0.41 0.189297 -0.224921 -0.41 0.1888541 -0.2248228 -0.41 0.1884214 -0.2246864 -0.41 0.1880024 -0.2245128 -0.41 0.1876 -0.2243033 -0.41 0.1872174 -0.2240596 -0.41 0.1868575 -0.2237834</float_array>
          <technique_common>
            <accessor source="#chassis_default_as_machined__4-mesh-positions-array" count="880" stride="3">
              <param name="X" type="float"/>
              <param name="Y" type="float"/>
              <param name="Z" type="float"/>
            </accessor>
          </technique_common>
        </source>
        <source id="chassis_default_as_machined__4-mesh-normals">
          <float_array id="chassis_default_as_machined__4-mesh-normals-array" count="2538">1 0 0 1 4.93949e-5 0 1 -9.87849e-5 0 1 2.46987e-5 0 1 -2.46987e-5 0 1 -1.23493e-5 0 1 -2.02646e-6 0 1 -9.87947e-5 0 1 9.87996e-5 0 1 4.93998e-5 0 1 9.87947e-5 0 1 -4.93998e-5 0 1 -4.93974e-5 0 1 -2.47011e-5 0 1 1.23493e-5 0 1 2.02606e-6 0 1 1.23518e-5 0 1 9.88045e-5 0 1 -9.87898e-5 0 1 -4.93961e-5 0 1 9.87849e-5 0 0 0.04362303 -0.9990481 0 0.04362303 -0.9990481 0 0.1305 -0.9914484 0 0.1305097 -0.9914471 0 0.216428 -0.9762986 0 0.216428 -0.9762986 0 0.3007233 -0.9537115 0 0.3826903 -0.9238768 0 0.382664 -0.9238877 0 0.4617617 -0.8870041 0 0.4617311 -0.8870199 0 0.5373048 -0.8433883 0 0.6087678 -0.7933486 0 0.6087319 -0.7933762 0 0.6755818 -0.7372851 0 0.6756191 -0.7372509 0 0.7372739 -0.675594 0 0.7373111 -0.6755534 0 0.7933278 -0.6087947 0 0.7933639 -0.6087477 0 0.8434004 -0.5372857 0 0.8433666 -0.5373387 0 0.8870115 -0.4617474 0 0.8870117 -0.4617472 0 0.9238552 -0.3827425 0 0.9238816 -0.3826786 0 0.9537399 -0.3006333 0 0.9537184 -0.3007012 0 0.9762827 -0.2164998 0 0.9763143 -0.2163574 0 0.9914392 -0.1305692 0 0.9914393 -0.1305692 0 0.9990492 -0.04359722 0 0.9990493 -0.04359722 0 1 0 0 1 -3.74179e-5 0 1 -2.14315e-5 0 1 -4.97581e-6 0 1 1.3075e-4 0 1 -1.4621e-4 0 1 1.06719e-5 0 1 -3.94624e-5 0 1 4.61115e-5 0 1 9.83072e-5 0 1 -1.53687e-4 0 1 7.22986e-5 0 0.9999999 -4.57613e-4 0 1 -2.04993e-5 0 0.9999992 0.001358985 0 1 -1.06832e-4 0 1 -1.26643e-4 0 0.9999999 4.84555e-4 0 1 1.4261e-4 0 1 2.07837e-5 0 1 2.36956e-4 0 1 1.50559e-5 0 0.9999707 -0.007658898 0 0.9999998 -7.521e-4 0 1 2.62173e-4 0 1 -6.33831e-5 0 1 2.30109e-5 0 1 1.03969e-4 0 1 -3.84061e-5 0 1 9.3523e-5 0 1 -5.01195e-5 0 1 8.40446e-5 0 1 -1.25772e-4 0 1 1.28462e-4 0 1 2.72322e-5 0 1 1.25772e-4 0 1 -6.66087e-5 0 1 3.65246e-5 0 1 -2.14549e-5 0 1 4.1595e-5 0 1 -1.06603e-4 0 1 5.3027e-5 0 1 -5.3027e-5 0 1 -8.18188e-5 0 1 1.06609e-4 0 1 -1.63437e-5 0 1 -1.23594e-4 0 1 1.03968e-4 0 1 -3.36057e-4 0 1 4.37529e-4 0 1 -2.48066e-5 0 1 -8.34848e-5 0 1 8.34813e-5 0 1 3.39102e-5 0 1 1.66761e-4 0 1 -2.41654e-4 0 0.9999998 7.52092e-4 0 0.9999991 -0.001359522 0 1 -2.37494e-5 0 0.9999911 0.004227161 0 1 -1.24584e-4 0 1 -4.15682e-4 0 1 3.23265e-4 0 1 2.08054e-5 0 1 -1.80768e-4 0 1 2.4641e-5 0 1 -1.06043e-5 0 1 1.27107e-4 0 1 -1.04935e-4 0 1 -1.03369e-4 0 1 4.68875e-5 0 1 1.10338e-4 0 0.9990492 0.04359722 0 0.9990493 0.04359722 0 0.9914392 0.1305692 0 0.9914393 0.1305692 0 0.9763143 0.2163575 0 0.9762827 0.2164997 0 0.9537185 0.3007012 0 0.9537398 0.3006333 0 0.9238815 0.3826788 0 0.9238553 0.3827423 0 0.8870115 0.4617474 0 0.8870117 0.4617472 0 0.8433665 0.5373388 0 0.8434005 0.5372856 0 0.793376 0.608732 0 0.79334 0.6087788 0 0.737296 0.6755698 0 0.737259 0.6756103 0 0.675619 0.7372511 0 0.6755819 0.737285 0 0.6087317 0.7933762 0 0.6087679 0.7933484 0 0.5373048 0.8433883 0 0.4617311 0.8870199 0 0.4617617 0.8870041 0 0.3826638 0.9238877 0 0.3826903 0.9238767 0 0.3007233 0.9537115 0 0.216428 0.9762986 0 0.216428 0.9762986 0 0.1305419 0.9914429 0 0.1305323 0.9914441 0 0.04362303 0.9990481 0 0.04362303 0.9990481 0 0 1 0 -0.04362303 0.9990481 0 -0.04362303 0.9990481 0 -0.1305323 0.9914442 0 -0.1305419 0.9914427 0 -0.216428 0.9762986 0 -0.216428 0.9762986 0 -0.3007447 0.9537047 0 -0.3007019 0.9537182 0 -0.3826638 0.9238877 0 -0.3826903 0.9238767 0 -0.4617311 0.8870199 0 -0.4617617 0.8870041 0 -0.5373048 0.8433883 0 -0.537271 0.8434098 0 -0.6087678 0.7933486 0 -0.608804 0.7933208 0 -0.6755446 0.7373192 0 -0.6756191 0.7372509 0 -0.7372589 0.6756104 0 -0.737259 0.6756103 0 -0.793376 0.608732 0 -0.7933762 0.6087318 0 -0.8433665 0.5373388 0 -0.8434005 0.5372856 0 -0.8870115 0.4617474 0 -0.8870117 0.4617472 0 -0.9238815 0.3826788 0 -0.9238816 0.3826786 0 -0.9537185 0.3007012 0 -0.9537184 0.3007012 0 -0.9762985 0.2164286 0 -0.9762827 0.2164997 0 -0.9914392 0.1305692 0 -0.9914586 0.1304224 0 -0.999046 0.04367178 0 -0.9990493 0.04359722 0 0.9990493 -0.04359579 0 0.9990493 -0.04359585 0 0.9914484 -0.1305 0 0.991429 -0.1306468 0 0.9763158 -0.2163504 0 0.9762842 -0.2164929 0 0.9537155 -0.3007106 0 0.9537155 -0.3007106 0 0.9238815 -0.3826788 0 0.8869881 -0.4617925 0 0.8870491 -0.4616751 0 0.8434342 -0.5372325 0 0.8432989 -0.537445 0 0.7372739 -0.6755939 0 0.6756384 -0.7372332 0 0.6755639 -0.7373015 0 0.6088246 -0.7933049 0 0.6086803 -0.7934156 0 0.5373153 -0.8433815 0 0.5373152 -0.8433815 0 0.4617571 -0.8870065 0 0.4617568 -0.8870067 0 0.3827166 -0.9238658 0 0.3006721 -0.9537276 0 0.3007148 -0.9537142 0 0.2164593 -0.9762917 0 0.2164592 -0.9762917 0 0.1305226 -0.9914454 0 0.1305419 -0.9914429 0 0.04355746 -0.9990509 0 0.04355746 -0.9990509 0 0 -1 -0.04349774 0 -0.9990535 -0.04362511 0 -0.9990481 -0.1306192 0 -0.9914326 -0.130491 0 -0.9914495 -0.2163462 0 -0.9763168 -0.2165908 0 -0.9762626 -0.3006431 0 -0.9537367 -0.3827333 0 -0.923859 -0.3826237 0 -0.9239042 -0.4617809 0 -0.8869941 -0.4616866 0 -0.8870432 -0.5373632 0 -0.843351 -0.537356 0 -0.8433557 -0.6087073 0 -0.793395 -0.6087842 0 -0.7933359 -0.6755438 0 -0.73732 -0.6756753 0 -0.7371994 -0.7372567 0 -0.6756128 -0.7933539 0 -0.6087608 -0.79335 0 -0.6087659 -0.8434002 0 -0.5372859 -0.8870007 0 -0.4617683 -0.8869973 0 -0.4617746 -0.9239006 0 -0.3826327 -0.9238992 0 -0.3826362 -0.9537189 0 -0.3006995 -0.9537178 0 -0.3007032 -0.976279 0 -0.2165164 -0.9762842 0 -0.2164931 -0.991449 0 -0.130495 -0.9914488 0 -0.1304969 -0.9990473 0 -0.04364204 -0.9990473 0 -0.04364252 -0.9990473 0 0.04364204 -0.9990473 0 0.04364252 -0.991449 0 0.130495 -0.9914488 0 0.1304969 -0.976285 0 0.2164893 -0.9762781 0 0.2165203 -0.9537189 0 0.3006995 -0.9537178 0 0.3007032 -0.9239193 0 0.3825874 -0.9238804 0 0.3826816 -0.8870007 0 0.4617683 -0.8869973 0 0.4617746 -0.8434002 0 0.5372859 -0.8434373 0 0.5372278 -0.7933064 0 0.6088228 -0.79335 0 0.6087659 -0.7372567 0 0.6756128 -0.6756135 0 0.737256 -0.6756753 0 0.7371994 -0.6087073 0 0.793395 -0.6087842 0 0.7933359 -0.5372719 0 0.8434092 -0.5372647 0 0.8434138 -0.4617809 0 0.8869941 -0.4616866 0 0.8870432 -0.3827333 0 0.923859 -0.3826237 0 0.9239042 -0.3007598 0 0.9537 -0.2163462 0 0.9763168 -0.2164685 0 0.9762897 -0.1304931 0 0.9914492 -0.1306172 0 0.9914329 -0.04362583 0 0.999048 -0.04362511 0 0.9990481 0.04362583 0 0.999048 0.04362511 0 0.9990481 0.1306192 0 0.9914326 0.130491 0 0.9914495 0.2164685 0 0.9762897 0.2163462 0 0.9763168 0.3007598 0 0.9537 0.3826237 0 0.9239042 0.3827333 0 0.923859 0.4616799 0 0.8870466 0.4617875 0 0.8869906 0.5372719 0 0.8434092 0.5372647 0 0.8434138 0.6088268 0 0.7933033 0.6087461 0 0.7933652 0.6756393 0 0.7372324 0.6755656 0 0.7372999 0.7372567 0 0.6756128 0.7933539 0 0.6087608 0.7933025 0 0.6088279 0.8434373 0 0.5372278 0.8434002 0 0.5372859 0.8870335 0 0.4617052 0.923852 0 0.38275 0.9238867 0 0.3826661 0.9537189 0 0.3006995 0.9537178 0 0.3007032 0.976279 0 0.2165164 0.9762842 0 0.2164931 0.991449 0 0.130495 0.9914488 0 0.1304969 0.9990473 0 0.04364204 0.9990473 0 0.04364252 0.9990473 0 -0.04364204 0.9990473 0 -0.04364252 0.991449 0 -0.130495 0.9914488 0 -0.1304969 0.976285 0 -0.2164893 0.9762781 0 -0.2165203 0.9537189 0 -0.3006995 0.9537178 0 -0.3007032 0.9238708 0 -0.3827046 0.923868 0 -0.3827115 0.8870335 0 -0.4617052 0.8434002 0 -0.5372859 0.7933539 0 -0.6087608 0.79335 0 -0.6087659 0.7372567 0 -0.6756128 0.6756393 0 -0.7372324 0.6754959 0 -0.7373639 0.6088268 0 -0.7933033 0.6087461 0 -0.7933652 0.5373632 0 -0.843351 0.537356 0 -0.8433557 0.4616799 0 -0.8870466 0.4617875 0 -0.8869906 0.3826237 0 -0.9239042 0.3827333 0 -0.923859 0.3006431 0 -0.9537367 0.2165908 0 -0.9762626 0.2163462 0 -0.9763168 0.1304931 0 -0.9914492 0.1306172 0 -0.9914329 0.04362583 0 -0.999048 0.04349708 0 -0.9990536 -0.1306296 0 -0.9914312 -0.1305034 0 -0.9914479 -0.2163292 0 -0.9763205 -0.2165704 0 -0.976267 -0.6087461 0 -0.7933652 -0.6088268 0 -0.7933033 -0.6754998 0 -0.7373602 -0.6756353 0 -0.737236 -0.8870335 0 -0.4617052 -0.9238708 0 -0.3827046 -0.923868 0 -0.3827115 -0.9762969 0 -0.2164362 -0.9763028 0 -0.216409 -0.9914381 0 -0.1305777 -0.9914376 0 -0.1305816 -0.9914381 0 0.1305777 -0.9914376 0 0.1305816 -0.9763028 0 0.216409 -0.9762969 0 0.2164362 -0.9238896 0 0.3826593 -0.9238492 0 0.3827569 -0.8870335 0 0.4617052 -0.6755695 0 0.7372963 -0.6756353 0 0.737236 -0.6087461 0 0.7933652 -0.6088268 0 0.7933033 -0.2163292 0 0.9763205 -0.2164481 0 0.9762942 -0.1305034 0 0.9914479 -0.1306296 0 0.9914312 0.6087881 0 0.793333 0.6087034 0 0.793398 0.6756832 0 0.7371921 0.6756055 0 0.7372634 0.8870007 0 0.4617683 0.8869973 0 0.4617746 0.9762969 0 0.2164362 0.9763028 0 0.216409 0.9763028 0 -0.216409 0.9762969 0 -0.2164362 0.8870007 0 -0.4617683 0.8869973 0 -0.4617746 0.6756832 0 -0.7371921 0.6755357 0 -0.7373273 0.6087881 0 -0.793333 0.6087034 0 -0.793398 -0.1306275 0 -0.9914315 -0.2163258 0 -0.9763213 -0.2165738 0 -0.9762663 -0.3826295 0 -0.9239019 -0.4617842 0 -0.8869923 -0.6087422 0 -0.7933682 -0.6754918 0 -0.7373675 -0.6756393 0 -0.7372324 -0.8870318 0 -0.4617083 -0.8870368 0 -0.461699 -0.9762964 0 -0.2164381 -0.9763024 0 0.2164109 -0.9238867 0 0.3826661 -0.923852 0 0.38275 -0.8870318 0 0.4617083 -0.8870368 0 0.461699 -0.7933539 0 0.6087608 -0.6755616 0 0.7373036 -0.6756393 0 0.7372324 -0.6087422 0 0.7933682 -0.4617842 0 0.8869923 -0.3826295 0 0.9239019 -0.2163258 0 0.9763213 -0.2164515 0 0.9762934 -0.1305014 0 0.9914482 0.1306172 0 0.9914329 0.1304931 0 0.9914492 0.2163496 0 0.976316 0.382739 0 0.9238566 0.4616833 0 0.887045 0.6087842 0 0.7933359 0.6087073 0 0.793395 0.6756753 0 0.7371994 0.6756135 0 0.737256 0.7933064 0 0.6088228 0.9238492 0 0.3827569 0.9238896 0 0.3826593 0.9762964 0 0.2164381 0.9763024 0 -0.2164109 0.6756753 0 -0.7371994 0.6755438 0 -0.73732 0.6087842 0 -0.7933359 0.6087073 0 -0.793395 0.4616833 0 -0.887045 0.382739 0 -0.9238566 0.2163496 0 -0.976316 0.130491 0 -0.9914495 0.1306192 0 -0.9914326 -0.1306172 0 -0.9914329 -0.1304931 0 -0.9914492 -0.2165942 0 -0.9762618 -0.6087034 0 -0.793398 -0.6087881 0 -0.793333 -0.6755357 0 -0.7373273 -0.6756832 0 -0.7371921 -0.9762781 0 -0.2165203 -0.976285 0 -0.2164893 -0.9762842 0 0.2164931 -0.976279 0 0.2165164 -0.9239179 0 0.3825908 -0.9238818 0 0.3826782 -0.6756055 0 0.7372634 -0.6756832 0 0.7371921 -0.6087034 0 0.793398 -0.6087881 0 0.793333 -0.2164719 0 0.9762889 -0.130491 0 0.9914495 -0.1306192 0 0.9914326 0.608823 0 0.7933062 0.6756314 0 0.7372397 0.6755695 0 0.7372963 0.8870318 0 0.4617083 0.8870368 0 0.461699 0.9762781 0 0.2165203 0.976285 0 0.2164893 0.9762842 0 -0.2164931 0.976279 0 -0.2165164 0.8870318 0 -0.4617083 0.8870368 0 -0.461699 0.6756314 0 -0.7372397 0.6754998 0 -0.7373602 0.608823 0 -0.7933062 0 1 2.04892e-4 0 1 -8.94378e-5 0 1 8.46545e-5 0 1 6.79623e-6 0 1 -5.32123e-5 0 1 -4.6462e-5 0 1 -5.48023e-5 0 1 -2.18027e-5 0 1 -5.84758e-5 0 1 2.46873e-5 0 1 -1.10496e-4 0 1 -8.85923e-5 0 1 1.29614e-4 0 1 -3.23748e-5 0 0.9999613 0.008810222 0 1 -3.31223e-4 0 1 -2.00642e-4 0 1 -8.20956e-5 0 1 -2.62254e-6 0 1 -5.94707e-5 0 1 -3.43883e-5 0 1 -2.62173e-4 0 1 4.75373e-5 0 1 2.50819e-4 0 1 3.9241e-5 0 1 -5.3252e-5 0 1 -2.89935e-5 0 1 -3.70661e-5 0 1 -3.81782e-5 0 0.9999998 -5.89514e-4 0 1 -1.40753e-4 0 1 2.33877e-4 0 1 -1.89876e-4 0 1 -4.24992e-5 0 1 5.63411e-5 0 1 -5.63411e-5 0 1 -2.64612e-5 0 1 -2.25702e-5 0 1 3.36057e-4 0 1 -4.37529e-4 0 1 3.64657e-4 0 1 8.40413e-5 0 1 -8.34054e-5 0 1 8.34017e-5 0 1 -8.40413e-5 0 1 -1.9116e-5 0 1 1.39258e-4 0 1 2.89357e-4 0 1 4.15682e-4 0 1 -3.23265e-4 0 1 1.84127e-4 0 1 -1.01269e-4 0 1 1.448e-4 0 1 4.61673e-5 0 1 -1.25691e-4 0 1 2.278e-5 0 1 1.26284e-4 0 1 2.17088e-5 0 1 -8.71994e-5 0 1 1.55859e-4 0 1 -2.51585e-5 0 0.1304774 0.9914514 0 0.130458 0.9914539 0 0.2164593 0.9762917 0 0.2164592 0.9762917 0 0.3007149 0.9537142 0 0.3006719 0.9537277 0 0.3827167 0.9238658 0 0.4617571 0.8870065 0 0.4617568 0.8870067 0 0.5373621 0.8433517 0 0.5373619 0.8433518 0 0.6086391 0.7934473 0 0.6087833 0.7933367 0 0.6755998 0.7372686 0 0.675674 0.7372006 0 0.737244 0.6756267 0 0.7372439 0.6756268 0 0.7933639 0.6087477 0 0.843299 0.5374449 0 0.8434342 0.5372326 0 0.8870491 0.461675 0 0.8869881 0.4617926 0 0.9238816 0.3826786 0 0.9537155 0.3007106 0 0.9537155 0.3007106 0 0.9762843 0.2164928 0 0.9763158 0.2163506 0 0.991429 0.1306468 0 0.9914483 0.1305001 0 0.9990493 0.04359579 0 0.9990493 0.04359585 0 -0.9990493 0.04359579 0 -0.9990493 0.04359585 0 -0.9914484 0.1305 0 -0.991429 0.1306468 0 -0.9762843 0.2164928 0 -0.9763158 0.2163506 0 -0.9536727 0.3008464 0 -0.9537583 0.3005748 0 -0.8869881 0.4617925 0 -0.8869881 0.4617926 0 -0.8434342 0.5372325 0 -0.8434342 0.5372326 0 -0.7932918 0.6088417 0 -0.7933639 0.6087477 0 -0.7373183 0.6755455 0 -0.7372439 0.6756268 0 -0.6755254 0.7373368 0 -0.675674 0.7372006 0 -0.6087112 0.793392 0 -0.6087833 0.7933367 0 -0.5372944 0.8433948 0 -0.5372942 0.843395 0 -0.4617571 0.8870065 0 -0.4617568 0.8870067 0 -0.3827167 0.9238658 0 -0.3007149 0.9537142 0 -0.3006719 0.9537277 0 -0.2164593 0.9762917 0 -0.2164592 0.9762917 0 -0.1304774 0.9914514 0 -0.1304773 0.9914514 0 -0.04362952 0.9990479 0 -0.04361653 0.9990484 0 -1 0 0 -1 2.27816e-4 0 -1 -2.00642e-4 0 -1 2.46873e-5 0 -1 -2.90972e-5 0 -1 1.89879e-4 0 -1 -3.53809e-5 0 -1 -1.59236e-4 0 -1 3.25005e-5 0 -1 1.30287e-4 0 -1 -3.1055e-5 0 -1 3.01982e-5 0 -1 -2.33631e-4 0 -1 1.64074e-4 0 -1 -1.24274e-4 0 -1 -2.97509e-5 0 -1 3.39224e-5 0 -1 1.38882e-4 0 -1 2.99846e-5 0 -1 -1.55684e-4 0 -1 -2.51303e-5 0 -1 2.62134e-4 0 -1 -5.89555e-6 0 -1 -1.57353e-5 0 -1 3.10873e-4 0 -0.9999999 -5.30238e-4 0 -1 -4.78101e-5 0 -0.9999993 0.001177668 0 -1 1.79816e-4 0 -1 -3.22932e-4 0 -1 2.15504e-5 0 -0.9999911 -0.004227161 0 -1 2.37495e-5 0 -0.9999998 -6.79781e-4 0 -1 -2.11528e-4 0 -1 2.89912e-5 0 -1 -1.1333e-4 0 -1 3.24921e-6 0 -1 9.1344e-5 0 -1 -6.70196e-6 0 -1 5.11604e-5 0 -1 -1.29243e-4 0 -1 6.92606e-6 0 -1 -1.0661e-4 0 -1 5.53765e-6 0 -1 -7.04777e-6 0 -1 1.78469e-5 0 -1 1.13331e-4 0 -1 -3.33966e-6 0 -1 2.37181e-4 0 -1 -1.92533e-4 0 -1 3.76046e-4 0 -1 -3.44459e-5 0 -0.9999616 0.008771538 0 -1 -5.70738e-4 0 -1 4.37529e-4 0 -1 -2.44586e-4 0 -1 1.84016e-4 0 -1 -1.15677e-4 0 -1 1.13622e-4 0 -1 -1.23759e-4 0 -1 1.23669e-4 0 -1 -3.0175e-5 0 -1 1.06884e-4 0 -1 -4.15682e-4 0 -1 1.61194e-5 0 -1 8.38029e-5 0 -1 -8.3402e-5 0 -1 8.34053e-5 0 -1 -8.40413e-5 0 -1 1.8949e-5 0 -1 8.74475e-5 0 -1 -1.2783e-4 0 -1 3.61696e-6 0 -1 -1.32424e-4 0 -1 -2.96955e-5 0 -1 1.53857e-4 0 -1 -1.56055e-4 0 -0.04355096 -0.9990513 0 -0.04356396 -0.9990507 0 -0.1305419 -0.9914427 0 -0.1305419 -0.9914429 0 -0.2164593 -0.9762917 0 -0.2164592 -0.9762917 0 -0.3006721 -0.9537276 0 -0.3007148 -0.9537142 0 -0.382664 -0.9238877 0 -0.3827166 -0.9238658 0 -0.4617571 -0.8870065 0 -0.4617568 -0.8870067 0 -0.5372477 -0.8434246 0 -0.5372475 -0.8434246 0 -0.6088246 -0.7933049 0 -0.6087524 -0.7933604 0 -0.6756384 -0.7372332 0 -0.6754895 -0.7373697 0 -0.7372739 -0.6755939 0 -0.7373483 -0.6755129 0 -0.7933639 -0.6087477 0 -0.7932918 -0.6088417 0 -0.8434342 -0.5372325 0 -0.8434342 -0.5372326 0 -0.8869881 -0.4617925 0 -0.8869881 -0.4617926 0 -0.9238816 -0.3826786 0 -0.9238815 -0.3826788 0 -0.9537583 -0.3005748 0 -0.9536726 -0.3008465 0 -0.9763158 -0.2163504 0 -0.9762842 -0.2164929 0 -0.991429 -0.1306468 0 -0.9914483 -0.1305001 0 -0.9990493 -0.04359579 0 -0.9990493 -0.04359585 -1 0 0 -1 4.93974e-5 0 -1 2.46987e-5 0 -1 -4.93974e-5 0 -1 -1.23493e-5 0 -1 2.89438e-6 0 -1 -9.87947e-5 0 -1 9.87996e-5 0 -1 -1.97589e-4 0 -1 -3.95159e-4 0 -1 1.97592e-4 0 -1 -3.95179e-4 0 -1 9.87947e-5 0 -1 -3.95198e-4 0 -1 1.9758e-4 0 -1 -9.87996e-5 0 -1 -4.94022e-5 0 -1 -2.47011e-5 0 -1 4.93876e-5 0 -1 1.23493e-5 0 -1 -2.89495e-6 0 -1 1.97589e-4 0 -1 3.95198e-4 0 -1 -1.97587e-4 0 -1 -3.95189e-4 0 -1 3.95179e-4 0 -1 -1.97609e-4 0 -1 9.87898e-5 0 0 -0.9990492 -0.04359722 0 -0.999046 -0.04367172 0 -0.9914585 -0.1304224 0 -0.9914393 -0.1305692 0 -0.9762827 -0.2164998 0 -0.9762985 -0.2164285 0 -0.9537185 -0.3007012 0 -0.9537184 -0.3007012 0 -0.8870115 -0.4617474 0 -0.8870117 -0.4617472 0 -0.8434004 -0.5372857 0 -0.8433666 -0.5373387 0 -0.7372739 -0.675594 0 -0.675619 -0.7372511 0 -0.6755447 -0.7373191 0 -0.6088038 -0.7933209 0 -0.6087679 -0.7933484 0 -0.537271 -0.8434098 0 -0.5373048 -0.8433883 0 -0.4617617 -0.8870041 0 -0.4617311 -0.8870199 0 -0.3826903 -0.9238768 0 -0.3007019 -0.9537182 0 -0.3007447 -0.9537047 0 -0.216428 -0.9762986 0 -0.216428 -0.9762986 0 -0.1305096 -0.9914471 0 -0.1305 -0.9914484 0 -0.04362303 -0.9990481 0 -0.04362303 -0.9990481 0 -1 7.22986e-5 0 -1 7.48213e-5 0 -1 -2.62134e-4 0 -1 -3.04603e-5 0 -1 7.58999e-5 0 -1 2.61637e-6 0 -1 8.43561e-5 0 -1 -5.93736e-6 0 -0.9999998 6.79781e-4 0 -1 1.76273e-5 0 -1 -1.7232e-5 0 -1 9.74858e-5 0 -1 5.43797e-5 0 -1 -5.69593e-5 0 -1 -1.25541e-4 0 -1 1.2387e-4 0 -1 -5.48832e-5 0 -1 1.26133e-4 0 -1 -9.80772e-5 0 -1 1.74196e-5 0 -1 -7.35959e-5 0 -1 1.04158e-4 0 -1 -3.29233e-6 0 -1 1.5521e-4 0 -1 -5.54152e-5 0 -1 -2.51813e-5 0 -1 -9.68256e-5 0 -1 -3.40494e-6 0 -1 3.35098e-6 0 -1 1.02778e-4 0 -1 1.26284e-4 0 -1 -7.46677e-5 0 -1 1.0661e-4 0 -1 5.34221e-5 0 -1 -9.96183e-5 0 -1 3.52389e-6 0 -1 -9.3523e-5 0 -1 5.19888e-5 0 -1 1.16785e-4 0 -1 -8.09868e-5 0 -1 7.48993e-5 0 -1 1.88436e-4 0 -0.9999998 -6.79521e-4 0 -1 -9.66573e-5 0 -1 -7.72377e-5 0 -1 6.84928e-5 0 -1 3.73962e-5 0 -1 -1.48165e-5 0 -1 1.24019e-4 0 -1 -1.25691e-4 0 -1 1.02744e-4 0 -1 -2.11855e-4 0 -1 -3.40749e-5 0 -1 9.96183e-5 0 -1 -5.57998e-5 0 -1 -8.1813e-5 0 -1 -2.80314e-5 0 -1 -1.72516e-5 0 -1 7.23783e-5</float_array>
          <technique_common>
            <accessor source="#chassis_default_as_machined__4-mesh-normals-array" count="846" stride="3">
              <param name="X" type="float"/>
              <param name="Y" type="float"/>
              <param name="Z" type="float"/>
            </accessor>
          </technique_common>
        </source>
        <vertices id="chassis_default_as_machined__4-mesh-vertices">
          <input semantic="POSITION" source="#chassis_default_as_machined__4-mesh-positions"/>
        </vertices>
        <triangles count="1776">
          <input semantic="VERTEX" source="#chassis_default_as_machined__4-mesh-vertices" offset="0"/>
          <input semantic="NORMAL" source="#chassis_default_as_machined__4-mesh-normals" offset="1"/>
          <p>0 0 1 0 2 0 1 0 3 0 2 0 2 0 3 0 4 0 3 0 5 0 4 0 4 0 5 0 6 0 5 1 7 1 6 1 6 2 7 2 8 2 7 0 9 0 8 0 8 0 9 0 10 0 9 3 11 3 10 3 10 0 11 0 12 0 11 4 13 4 12 4 12 0 13 0 14 0 13 0 15 0 14 0 14 0 15 0 16 0 15 5 17 5 16 5 16 0 17 0 18 0 17 0 19 0 18 0 18 0 19 0 20 0 19 0 21 0 20 0 20 0 21 0 22 0 21 0 23 0 22 0 22 6 23 6 24 6 23 0 25 0 24 0 24 5 25 5 26 5 25 0 27 0 26 0 26 0 27 0 28 0 27 0 29 0 28 0 28 0 29 0 30 0 29 0 31 0 30 0 30 0 31 0 32 0 31 0 33 0 32 0 32 0 33 0 34 0 33 0 35 0 34 0 34 0 35 0 36 0 35 0 37 0 36 0 36 0 37 0 38 0 37 0 39 0 38 0 38 7 39 7 40 7 39 0 41 0 40 0 40 0 41 0 42 0 41 0 43 0 42 0 42 0 43 0 44 0 43 0 45 0 44 0 44 0 45 0 46 0 45 0 47 0 46 0 46 0 47 0 48 0 47 0 49 0 48 0 48 0 49 0 50 0 49 0 51 0 50 0 50 8 51 8 52 8 51 0 53 0 52 0 52 0 53 0 54 0 53 0 55 0 54 0 54 0 55 0 56 0 55 0 57 0 56 0 56 0 57 0 58 0 57 0 59 0 58 0 58 0 59 0 60 0 59 0 61 0 60 0 60 0 61 0 62 0 61 0 63 0 62 0 62 0 63 0 64 0 63 0 65 0 64 0 64 0 65 0 66 0 65 9 67 9 66 9 66 0 67 0 68 0 67 0 69 0 68 0 68 0 69 0 70 0 69 0 71 0 70 0 70 0 71 0 72 0 71 0 73 0 72 0 72 0 73 0 74 0 73 0 75 0 74 0 74 10 75 10 76 10 75 0 77 0 76 0 76 0 77 0 78 0 77 0 79 0 78 0 78 10 79 10 80 10 79 11 81 11 80 11 80 0 81 0 82 0 81 12 83 12 82 12 82 10 83 10 84 10 83 0 85 0 84 0 84 0 85 0 86 0 85 13 87 13 86 13 86 0 87 0 88 0 87 3 89 3 88 3 88 0 89 0 90 0 89 0 91 0 90 0 90 0 91 0 92 0 91 14 93 14 92 14 92 0 93 0 94 0 93 0 95 0 94 0 94 0 95 0 96 0 95 0 97 0 96 0 96 0 97 0 98 0 97 0 99 0 98 0 98 15 99 15 100 15 99 0 101 0 100 0 100 16 101 16 102 16 101 0 103 0 102 0 102 0 103 0 104 0 103 0 105 0 104 0 104 0 105 0 106 0 105 0 107 0 106 0 106 0 107 0 108 0 107 0 109 0 108 0 108 0 109 0 110 0 109 0 111 0 110 0 110 0 111 0 112 0 111 0 113 0 112 0 112 17 113 17 114 17 113 0 115 0 114 0 114 17 115 17 116 17 115 0 117 0 116 0 116 0 117 0 118 0 117 12 119 12 118 12 118 0 119 0 120 0 119 0 121 0 120 0 120 0 121 0 122 0 121 0 123 0 122 0 122 0 123 0 124 0 123 0 125 0 124 0 124 0 125 0 126 0 125 0 127 0 126 0 126 18 127 18 128 18 127 0 129 0 128 0 128 8 129 8 130 8 129 0 131 0 130 0 130 0 131 0 132 0 131 0 133 0 132 0 132 0 133 0 134 0 133 0 135 0 134 0 134 0 135 0 136 0 135 0 137 0 136 0 136 0 137 0 138 0 137 0 139 0 138 0 138 0 139 0 140 0 139 0 141 0 140 0 140 0 141 0 142 0 141 19 143 19 142 19 142 0 143 0 144 0 143 0 145 0 144 0 144 0 145 0 146 0 145 0 147 0 146 0 146 0 147 0 148 0 147 0 149 0 148 0 148 20 149 20 150 20 149 0 151 0 150 0 150 0 151 0 0 0 151 11 1 11 0 11 59 21 152 21 153 21 59 22 153 22 61 22 153 23 154 23 61 23 61 24 154 24 63 24 154 25 155 25 63 25 63 26 155 26 65 26 155 27 156 27 65 27 65 27 156 27 67 27 156 28 157 28 67 28 67 29 157 29 69 29 157 30 158 30 69 30 69 31 158 31 71 31 158 32 159 32 71 32 71 32 159 32 73 32 159 33 160 33 73 33 73 34 160 34 75 34 160 35 161 35 75 35 75 36 161 36 77 36 161 37 162 37 77 37 77 38 162 38 79 38 162 39 163 39 79 39 79 40 163 40 81 40 163 41 164 41 81 41 81 42 164 42 83 42 164 43 165 43 83 43 83 44 165 44 85 44 165 45 166 45 85 45 85 46 166 46 87 46 166 47 167 47 87 47 87 48 167 48 89 48 167 49 168 49 89 49 89 50 168 50 91 50 168 51 169 51 91 51 91 52 169 52 93 52 169 53 170 53 93 53 93 54 170 54 95 54 171 55 172 55 173 55 174 55 173 55 175 55 173 56 176 56 175 56 172 55 177 55 173 55 177 55 178 55 173 55 173 57 178 57 176 57 179 55 180 55 173 55 180 55 181 55 173 55 173 58 181 58 182 58 174 55 183 55 173 55 183 55 184 55 173 55 173 59 184 59 185 59 185 60 186 60 173 60 186 55 187 55 173 55 173 61 187 61 179 61 182 55 188 55 173 55 188 55 189 55 173 55 173 55 189 55 170 55 189 55 190 55 170 55 170 62 190 62 191 62 191 55 192 55 170 55 192 55 193 55 170 55 170 63 193 63 194 63 194 55 195 55 170 55 195 55 196 55 170 55 170 64 196 64 197 64 197 65 198 65 170 65 198 55 199 55 170 55 170 66 199 66 200 66 201 67 202 67 95 67 203 55 204 55 95 55 204 55 205 55 95 55 95 68 205 68 206 68 207 69 208 69 209 69 209 70 210 70 211 70 212 55 213 55 214 55 209 55 215 55 97 55 215 55 216 55 97 55 216 55 217 55 97 55 217 55 218 55 97 55 97 71 218 71 219 71 219 55 220 55 97 55 220 72 221 72 97 72 97 55 221 55 173 55 221 55 222 55 173 55 173 73 222 73 171 73 200 55 223 55 170 55 223 55 224 55 170 55 170 74 224 74 225 74 201 55 95 55 226 55 95 55 170 55 226 55 226 55 170 55 227 55 202 55 228 55 95 55 228 75 229 75 95 75 95 76 229 76 203 76 207 77 209 77 230 77 209 55 97 55 230 55 230 55 97 55 231 55 208 78 232 78 209 78 232 79 233 79 209 79 209 80 233 80 210 80 225 55 234 55 170 55 234 55 235 55 170 55 170 81 235 81 227 81 236 55 237 55 238 55 239 82 206 82 214 82 206 55 240 55 214 55 214 83 240 83 241 83 241 55 242 55 214 55 242 84 243 84 214 84 214 85 243 85 212 85 244 55 245 55 246 55 245 86 247 86 246 86 239 55 248 55 206 55 248 87 249 87 206 87 206 55 249 55 250 55 251 88 252 88 95 88 247 55 253 55 246 55 253 55 254 55 246 55 246 89 254 89 255 89 211 55 256 55 209 55 256 90 246 90 209 90 209 55 246 55 257 55 246 91 255 91 257 91 258 55 259 55 95 55 260 55 95 55 261 55 95 92 262 92 261 92 263 55 264 55 97 55 264 55 265 55 97 55 97 93 265 93 266 93 244 55 246 55 238 55 246 55 267 55 238 55 238 94 267 94 268 94 268 95 269 95 238 95 269 55 270 55 238 55 238 96 270 96 236 96 271 55 272 55 273 55 272 55 274 55 273 55 273 97 274 97 275 97 213 55 276 55 214 55 276 98 273 98 214 98 214 99 273 99 277 99 273 100 275 100 277 100 278 101 97 101 279 101 97 102 280 102 279 102 266 103 281 103 97 103 281 104 282 104 97 104 97 105 282 105 231 105 237 55 283 55 238 55 283 55 284 55 238 55 238 55 284 55 285 55 284 55 286 55 285 55 285 55 286 55 287 55 286 106 288 106 287 106 287 107 288 107 289 107 288 55 290 55 289 55 289 55 290 55 273 55 290 55 291 55 273 55 273 108 291 108 271 108 250 109 292 109 206 109 292 55 293 55 206 55 206 110 293 110 294 110 294 111 295 111 206 111 295 112 296 112 206 112 206 113 296 113 95 113 296 114 297 114 95 114 95 115 297 115 258 115 259 116 298 116 95 116 298 117 299 117 95 117 95 118 299 118 262 118 260 119 300 119 95 119 300 55 301 55 95 55 95 120 301 120 302 120 302 55 303 55 95 55 303 55 304 55 95 55 95 121 304 121 251 121 252 55 305 55 95 55 305 55 306 55 95 55 95 55 306 55 97 55 306 122 307 122 97 122 97 123 307 123 280 123 278 55 308 55 97 55 308 55 309 55 97 55 97 124 309 124 310 124 310 55 311 55 97 55 311 55 312 55 97 55 97 125 312 125 313 125 313 55 314 55 97 55 314 55 315 55 97 55 97 126 315 126 263 126 97 127 173 127 316 127 97 128 316 128 99 128 316 129 317 129 99 129 99 130 317 130 101 130 317 131 318 131 101 131 101 132 318 132 103 132 318 133 319 133 103 133 103 134 319 134 105 134 319 135 320 135 105 135 105 136 320 136 107 136 320 137 321 137 107 137 107 138 321 138 109 138 321 139 322 139 109 139 109 140 322 140 111 140 322 141 323 141 111 141 111 142 323 142 113 142 323 143 324 143 113 143 113 144 324 144 115 144 324 145 325 145 115 145 115 146 325 146 117 146 325 147 326 147 117 147 117 148 326 148 119 148 326 149 327 149 119 149 119 149 327 149 121 149 327 150 328 150 121 150 121 151 328 151 123 151 328 152 329 152 123 152 123 153 329 153 125 153 329 154 330 154 125 154 125 154 330 154 127 154 330 155 331 155 127 155 127 156 331 156 129 156 331 157 332 157 129 157 129 158 332 158 131 158 332 159 333 159 131 159 131 160 333 160 133 160 333 161 334 161 133 161 334 161 135 161 133 161 135 162 334 162 335 162 135 163 335 163 137 163 335 164 336 164 137 164 137 165 336 165 139 165 336 166 337 166 139 166 139 167 337 167 141 167 337 168 338 168 141 168 141 169 338 169 143 169 338 170 339 170 143 170 143 171 339 171 145 171 339 172 340 172 145 172 145 173 340 173 147 173 340 174 341 174 147 174 147 175 341 175 149 175 341 176 342 176 149 176 149 177 342 177 151 177 342 178 343 178 151 178 151 179 343 179 1 179 343 180 344 180 1 180 1 181 344 181 3 181 344 182 345 182 3 182 3 183 345 183 5 183 345 184 346 184 5 184 5 185 346 185 7 185 346 186 347 186 7 186 7 187 347 187 9 187 347 188 348 188 9 188 9 189 348 189 11 189 348 190 349 190 11 190 11 191 349 191 13 191 349 192 350 192 13 192 13 193 350 193 15 193 350 194 351 194 15 194 15 195 351 195 17 195 351 196 352 196 17 196 17 197 352 197 19 197 18 198 353 198 16 198 353 199 354 199 16 199 16 200 354 200 14 200 354 201 355 201 14 201 14 202 355 202 12 202 355 203 356 203 12 203 12 204 356 204 10 204 356 205 357 205 10 205 10 46 357 46 8 46 357 206 358 206 8 206 8 207 358 207 6 207 358 208 359 208 6 208 6 209 359 209 4 209 359 210 360 210 4 210 4 40 360 40 2 40 360 40 361 40 2 40 2 211 361 211 0 211 361 37 362 37 0 37 0 212 362 212 150 212 362 213 363 213 150 213 150 214 363 214 148 214 363 215 364 215 148 215 148 216 364 216 146 216 364 217 365 217 146 217 146 218 365 218 144 218 365 219 366 219 144 219 144 29 366 29 142 29 366 220 367 220 142 220 142 221 367 221 140 221 367 222 368 222 140 222 140 223 368 223 138 223 368 224 369 224 138 224 138 225 369 225 136 225 369 226 370 226 136 226 136 227 370 227 134 227 370 228 371 228 134 228 134 229 371 229 132 229 371 229 372 229 132 229 373 230 230 230 374 230 230 231 231 231 374 231 374 232 231 232 375 232 231 233 282 233 375 233 375 234 282 234 376 234 282 235 281 235 376 235 376 236 281 236 377 236 281 236 266 236 377 236 377 237 266 237 378 237 266 238 265 238 378 238 378 239 265 239 379 239 265 240 264 240 379 240 379 241 264 241 380 241 264 242 263 242 380 242 380 243 263 243 381 243 263 244 315 244 381 244 381 245 315 245 382 245 315 246 314 246 382 246 382 247 314 247 383 247 314 247 313 247 383 247 383 248 313 248 384 248 313 249 312 249 384 249 384 250 312 250 385 250 312 250 311 250 385 250 385 251 311 251 386 251 311 252 310 252 386 252 386 253 310 253 387 253 310 254 309 254 387 254 387 255 309 255 388 255 309 256 308 256 388 256 388 257 308 257 389 257 308 258 278 258 389 258 389 259 278 259 390 259 278 260 279 260 390 260 390 261 279 261 391 261 279 262 280 262 391 262 391 263 280 263 392 263 280 264 307 264 392 264 392 265 307 265 393 265 307 266 306 266 393 266 393 267 306 267 394 267 306 268 305 268 394 268 394 269 305 269 395 269 305 270 252 270 395 270 395 271 252 271 396 271 252 272 251 272 396 272 396 273 251 273 397 273 251 274 304 274 397 274 397 275 304 275 398 275 304 276 303 276 398 276 398 277 303 277 399 277 303 278 302 278 399 278 399 279 302 279 400 279 302 279 301 279 400 279 400 280 301 280 401 280 301 281 300 281 401 281 401 282 300 282 402 282 300 283 260 283 402 283 402 284 260 284 403 284 260 285 261 285 403 285 403 286 261 286 404 286 261 287 262 287 404 287 404 288 262 288 405 288 262 289 299 289 405 289 405 290 299 290 406 290 299 290 298 290 406 290 406 291 298 291 407 291 298 292 259 292 407 292 407 293 259 293 408 293 259 294 258 294 408 294 408 295 258 295 409 295 258 296 297 296 409 296 409 297 297 297 410 297 297 298 296 298 410 298 410 299 296 299 411 299 296 300 295 300 411 300 411 301 295 301 412 301 295 302 294 302 412 302 412 303 294 303 413 303 294 303 293 303 413 303 413 304 293 304 414 304 293 305 292 305 414 305 414 306 292 306 415 306 292 307 250 307 415 307 415 308 250 308 416 308 250 309 249 309 416 309 416 310 249 310 417 310 249 311 248 311 417 311 417 312 248 312 418 312 248 313 239 313 418 313 418 314 239 314 419 314 239 314 214 314 419 314 419 315 214 315 420 315 214 316 277 316 420 316 420 317 277 317 421 317 277 318 275 318 421 318 421 319 275 319 422 319 275 319 274 319 422 319 422 320 274 320 423 320 274 321 272 321 423 321 423 322 272 322 424 322 272 323 271 323 424 323 424 324 271 324 425 324 271 325 291 325 425 325 425 326 291 326 426 326 291 327 290 327 426 327 426 328 290 328 427 328 290 329 288 329 427 329 427 330 288 330 428 330 288 331 286 331 428 331 428 332 286 332 429 332 286 333 284 333 429 333 429 334 284 334 430 334 284 335 283 335 430 335 430 336 283 336 431 336 283 337 237 337 431 337 431 338 237 338 432 338 237 339 236 339 432 339 432 340 236 340 433 340 236 340 270 340 433 340 433 341 270 341 434 341 270 341 269 341 434 341 434 342 269 342 435 342 269 343 268 343 435 343 435 344 268 344 436 344 268 344 267 344 436 344 436 345 267 345 437 345 267 346 246 346 437 346 437 347 246 347 438 347 246 348 256 348 438 348 438 349 256 349 439 349 256 350 211 350 439 350 439 351 211 351 440 351 211 352 210 352 440 352 440 353 210 353 441 353 210 354 233 354 441 354 441 355 233 355 442 355 233 355 232 355 442 355 442 356 232 356 443 356 232 357 208 357 443 357 443 358 208 358 444 358 208 359 207 359 444 359 444 360 207 360 373 360 207 361 230 361 373 361 445 230 222 230 446 230 222 231 221 231 446 231 446 362 221 362 447 362 221 363 220 363 447 363 447 364 220 364 448 364 220 365 219 365 448 365 448 236 219 236 449 236 219 236 218 236 449 236 449 237 218 237 450 237 218 238 217 238 450 238 450 239 217 239 451 239 217 240 216 240 451 240 451 241 216 241 452 241 216 242 215 242 452 242 452 366 215 366 453 366 215 367 209 367 453 367 453 368 209 368 454 368 209 369 257 369 454 369 454 247 257 247 455 247 257 247 255 247 455 247 455 248 255 248 456 248 255 249 254 249 456 249 456 250 254 250 457 250 254 250 253 250 457 250 457 370 253 370 458 370 253 370 247 370 458 370 458 371 247 371 459 371 247 372 245 372 459 372 459 255 245 255 460 255 245 256 244 256 460 256 460 373 244 373 461 373 244 374 238 374 461 374 461 375 238 375 462 375 238 376 285 376 462 376 462 261 285 261 463 261 285 262 287 262 463 262 463 263 287 263 464 263 287 264 289 264 464 264 464 377 289 377 465 377 289 378 273 378 465 378 465 379 273 379 466 379 273 380 276 380 466 380 466 269 276 269 467 269 276 270 213 270 467 270 467 381 213 381 468 381 213 382 212 382 468 382 468 383 212 383 469 383 212 383 243 383 469 383 469 275 243 275 470 275 243 276 242 276 470 276 470 277 242 277 471 277 242 278 241 278 471 278 471 279 241 279 472 279 241 279 240 279 472 279 472 384 240 384 473 384 240 385 206 385 473 385 473 386 206 386 474 386 206 387 205 387 474 387 474 284 205 284 475 284 205 285 204 285 475 285 475 286 204 286 476 286 204 287 203 287 476 287 476 288 203 288 477 288 203 289 229 289 477 289 477 290 229 290 478 290 229 290 228 290 478 290 478 388 228 388 479 388 228 389 202 389 479 389 479 390 202 390 480 390 202 391 201 391 480 391 480 295 201 295 481 295 201 296 226 296 481 296 481 297 226 297 482 297 226 298 227 298 482 298 482 299 227 299 483 299 227 300 235 300 483 300 483 301 235 301 484 301 235 302 234 302 484 302 484 303 234 303 485 303 234 303 225 303 485 303 485 304 225 304 486 304 225 305 224 305 486 305 486 306 224 306 487 306 224 307 223 307 487 307 487 308 223 308 488 308 223 309 200 309 488 309 488 392 200 392 489 392 200 393 199 393 489 393 489 394 199 394 490 394 199 395 198 395 490 395 490 314 198 314 491 314 198 314 197 314 491 314 491 315 197 315 492 315 197 316 196 316 492 316 492 317 196 317 493 317 196 318 195 318 493 318 493 396 195 396 494 396 195 397 194 397 494 397 494 320 194 320 495 320 194 321 193 321 495 321 495 322 193 322 496 322 193 323 192 323 496 323 496 398 192 398 497 398 192 399 191 399 497 399 497 326 191 326 498 326 191 327 190 327 498 327 498 328 190 328 499 328 190 329 189 329 499 329 499 330 189 330 500 330 189 331 188 331 500 331 500 332 188 332 501 332 188 333 182 333 501 333 501 400 182 400 502 400 182 401 181 401 502 401 502 336 181 336 503 336 181 337 180 337 503 337 503 338 180 338 504 338 180 339 179 339 504 339 504 402 179 402 505 402 179 403 187 403 505 403 505 341 187 341 506 341 187 341 186 341 506 341 506 342 186 342 507 342 186 343 185 343 507 343 507 344 185 344 508 344 185 344 184 344 508 344 508 404 184 404 509 404 184 405 183 405 509 405 509 406 183 406 510 406 183 407 174 407 510 407 510 349 174 349 511 349 174 350 175 350 511 350 511 351 175 351 512 351 175 352 176 352 512 352 512 353 176 353 513 353 176 354 178 354 513 354 513 355 178 355 514 355 178 355 177 355 514 355 514 356 177 356 515 356 177 357 172 357 515 357 515 358 172 358 516 358 172 359 171 359 516 359 516 360 171 360 445 360 171 361 222 361 445 361 517 230 518 230 519 230 518 231 520 231 519 231 519 408 520 408 521 408 520 363 522 363 521 363 521 409 522 409 523 409 522 410 524 410 523 410 523 236 524 236 525 236 524 236 526 236 525 236 525 237 526 237 527 237 526 411 528 411 527 411 527 412 528 412 529 412 528 240 530 240 529 240 529 242 530 242 531 242 530 241 532 241 531 241 531 413 532 413 533 413 532 367 534 367 533 367 533 414 534 414 535 414 534 415 536 415 535 415 535 247 536 247 537 247 536 247 538 247 537 247 537 248 538 248 539 248 538 248 540 248 539 248 539 250 540 250 541 250 540 250 542 250 541 250 541 416 542 416 543 416 542 417 544 417 543 417 543 372 544 372 545 372 544 371 546 371 545 371 545 256 546 256 547 256 546 255 548 255 547 255 547 418 548 418 549 418 548 374 550 374 549 374 549 376 550 376 551 376 550 375 552 375 551 375 551 261 552 261 553 261 552 261 554 261 553 261 553 263 554 263 555 263 554 263 556 263 555 263 555 378 556 378 557 378 556 377 558 377 557 377 557 419 558 419 559 419 558 380 560 380 559 380 559 270 560 270 561 270 560 269 562 269 561 269 561 420 562 420 563 420 562 421 564 421 563 421 563 422 564 422 565 422 564 423 566 423 565 423 565 275 566 275 567 275 566 276 568 276 567 276 567 277 568 277 569 277 568 424 570 424 569 424 569 279 570 279 571 279 570 279 572 279 571 279 571 425 572 425 573 425 572 426 574 426 573 426 573 427 574 427 575 427 574 387 576 387 575 387 575 285 576 285 577 285 576 284 578 284 577 284 577 428 578 428 579 428 578 287 580 287 579 287 579 288 580 288 581 288 580 429 582 429 581 429 581 290 582 290 583 290 582 290 584 290 583 290 583 430 584 430 585 430 584 431 586 431 585 431 585 432 586 432 587 432 586 391 588 391 587 391 587 295 588 295 589 295 588 296 590 296 589 296 589 297 590 297 591 297 590 298 592 298 591 298 591 433 592 433 593 433 592 434 594 434 593 434 593 301 594 301 595 301 594 435 596 435 595 435 595 303 596 303 597 303 596 303 598 303 597 303 597 304 598 304 599 304 598 436 600 436 599 436 599 437 600 437 601 437 600 307 602 307 601 307 601 309 602 309 603 309 602 308 604 308 603 308 603 438 604 438 605 438 604 439 606 439 605 439 605 440 606 440 607 440 606 441 608 441 607 441 607 314 608 314 609 314 608 314 610 314 609 314 609 315 610 315 611 315 610 442 612 442 611 442 611 317 612 317 613 317 612 318 614 318 613 318 613 397 614 397 615 397 614 396 616 396 615 396 615 443 616 443 617 443 616 444 618 444 617 444 617 323 618 323 619 323 618 322 620 322 619 322 619 445 620 445 621 445 620 399 622 399 621 399 621 327 622 327 623 327 622 326 624 326 623 326 623 328 624 328 625 328 624 328 626 328 625 328 625 330 626 330 627 330 626 330 628 330 627 330 627 333 628 333 629 333 628 332 630 332 629 332 629 446 630 446 631 446 630 401 632 401 631 401 631 337 632 337 633 337 632 336 634 336 633 336 633 339 634 339 635 339 634 338 636 338 635 338 635 403 636 403 637 403 636 402 638 402 637 402 637 341 638 341 639 341 638 341 640 341 639 341 639 342 640 342 641 342 640 342 642 342 641 342 641 344 642 344 643 344 642 344 644 344 643 344 643 447 644 447 645 447 644 448 646 448 645 448 645 449 646 449 647 449 646 450 648 450 647 450 647 350 648 350 649 350 648 349 650 349 649 349 649 451 650 451 651 451 650 352 652 352 651 352 651 353 652 353 653 353 652 452 654 452 653 452 653 355 654 355 655 355 654 355 656 355 655 355 655 356 656 356 657 356 656 453 658 453 657 453 657 454 658 454 659 454 658 455 660 455 659 455 659 360 660 360 517 360 660 361 518 361 517 361 661 230 662 230 663 230 662 231 664 231 663 231 663 456 664 456 665 456 664 457 666 457 665 457 665 234 666 234 667 234 666 458 668 458 667 458 667 236 668 236 669 236 668 236 670 236 669 236 669 237 670 237 671 237 670 411 672 411 671 411 671 412 672 412 673 412 672 240 674 240 673 240 673 242 674 242 675 242 674 241 676 241 675 241 675 459 676 459 677 459 676 460 678 460 677 460 677 461 678 461 679 461 678 462 680 462 679 462 679 247 680 247 681 247 680 247 682 247 681 247 681 248 682 248 683 248 682 248 684 248 683 248 683 250 684 250 685 250 684 250 686 250 685 250 685 252 686 252 687 252 686 251 688 251 687 251 687 254 688 254 689 254 688 253 690 253 689 253 689 256 690 256 691 256 690 255 692 255 691 255 691 463 692 463 693 463 692 464 694 464 693 464 693 260 694 260 695 260 694 259 696 259 695 259 695 261 696 261 697 261 696 261 698 261 697 261 697 263 698 263 699 263 698 263 700 263 699 263 699 266 700 266 701 266 700 265 702 265 701 265 701 465 702 465 703 465 702 466 704 466 703 466 703 270 704 270 705 270 704 269 706 269 705 269 705 467 706 467 707 467 706 468 708 468 707 468 707 274 708 274 709 274 708 273 710 273 709 273 709 275 710 275 711 275 710 276 712 276 711 276 711 277 712 277 713 277 712 424 714 424 713 424 713 279 714 279 715 279 714 279 716 279 715 279 715 469 716 469 717 469 716 470 718 470 717 470 717 471 718 471 719 471 718 472 720 472 719 472 719 285 720 285 721 285 720 284 722 284 721 284 721 428 722 428 723 428 722 287 724 287 723 287 723 288 724 288 725 288 724 429 726 429 725 429 725 290 726 290 727 290 726 290 728 290 727 290 727 291 728 291 729 291 728 473 730 473 729 473 729 474 730 474 731 474 730 475 732 475 731 475 731 295 732 295 733 295 732 296 734 296 733 296 733 297 734 297 735 297 734 298 736 298 735 298 735 433 736 433 737 433 736 434 738 434 737 434 737 301 738 301 739 301 738 435 740 435 739 435 739 303 740 303 741 303 740 303 742 303 741 303 741 304 742 304 743 304 742 436 744 436 743 436 743 437 744 437 745 437 744 307 746 307 745 307 745 309 746 309 747 309 746 308 748 308 747 308 747 476 748 476 749 476 748 311 750 311 749 311 749 477 750 477 751 477 750 478 752 478 751 478 751 314 752 314 753 314 752 314 754 314 753 314 753 315 754 315 755 315 754 442 756 442 755 442 755 317 756 317 757 317 756 318 758 318 757 318 757 479 758 479 759 479 758 480 760 480 759 480 759 443 760 443 761 443 760 444 762 444 761 444 761 323 762 323 763 323 762 322 764 322 763 322 763 481 764 481 765 481 764 482 766 482 765 482 765 327 766 327 767 327 766 326 768 326 767 326 767 328 768 328 769 328 768 328 770 328 769 328 769 330 770 330 771 330 770 330 772 330 771 330 771 333 772 333 773 333 772 332 774 332 773 332 773 483 774 483 775 483 774 484 776 484 775 484 775 337 776 337 777 337 776 336 778 336 777 336 777 339 778 339 779 339 778 338 780 338 779 338 779 485 780 485 781 485 780 486 782 486 781 486 781 341 782 341 783 341 782 341 784 341 783 341 783 342 784 342 785 342 784 342 786 342 785 342 785 344 786 344 787 344 786 344 788 344 787 344 787 487 788 487 789 487 788 488 790 488 789 488 789 489 790 489 791 489 790 348 792 348 791 348 791 350 792 350 793 350 792 349 794 349 793 349 793 451 794 451 795 451 794 352 796 352 795 352 795 353 796 353 797 353 796 452 798 452 797 452 797 355 798 355 799 355 798 355 800 355 799 355 799 356 800 356 801 356 800 453 802 453 801 453 801 454 802 454 803 454 802 455 804 455 803 455 803 360 804 360 661 360 804 361 662 361 661 361 660 55 658 55 353 55 648 490 353 490 650 490 353 491 652 491 650 491 658 55 656 55 353 55 656 55 654 55 353 55 353 492 654 492 652 492 636 55 634 55 353 55 634 55 632 55 353 55 353 493 632 493 630 493 648 55 646 55 353 55 646 55 644 55 353 55 353 494 644 494 642 494 642 55 640 55 353 55 640 55 638 55 353 55 353 495 638 495 636 495 630 55 628 55 353 55 628 55 626 55 353 55 353 55 626 55 805 55 626 55 624 55 805 55 805 496 624 496 622 496 622 55 620 55 805 55 620 55 618 55 805 55 805 497 618 497 616 497 616 55 614 55 805 55 614 55 612 55 805 55 805 498 612 498 610 498 610 55 608 55 805 55 608 55 606 55 805 55 805 499 606 499 604 499 588 55 586 55 20 55 580 55 578 55 20 55 578 55 576 55 20 55 20 500 576 500 574 500 804 55 802 55 534 55 534 501 796 501 794 501 564 55 562 55 754 55 534 502 532 502 18 502 532 55 530 55 18 55 530 55 528 55 18 55 528 55 526 55 18 55 18 503 526 503 524 503 524 55 522 55 18 55 522 55 520 55 18 55 18 55 520 55 353 55 520 504 518 504 353 504 353 505 518 505 660 505 604 506 602 506 805 506 602 55 600 55 805 55 805 507 600 507 598 507 588 55 20 55 590 55 20 508 805 508 590 508 590 55 805 55 592 55 586 55 584 55 20 55 584 55 582 55 20 55 20 509 582 509 580 509 804 55 534 55 662 55 534 510 18 510 662 510 662 55 18 55 664 55 802 55 800 55 534 55 800 511 798 511 534 511 534 512 798 512 796 512 598 55 596 55 805 55 596 55 594 55 805 55 805 513 594 513 592 513 780 55 778 55 550 55 752 55 574 55 754 55 574 55 572 55 754 55 754 514 572 514 570 514 570 55 568 55 754 55 568 55 566 55 754 55 754 515 566 515 564 515 548 55 546 55 790 55 546 86 544 86 790 86 752 55 750 55 574 55 750 55 748 55 574 55 574 516 748 516 746 516 708 55 706 55 20 55 544 55 542 55 790 55 542 55 540 55 790 55 790 517 540 517 538 517 794 55 792 55 534 55 792 55 790 55 534 55 534 55 790 55 536 55 790 518 538 518 536 518 732 519 730 519 20 519 720 55 20 55 722 55 20 520 724 520 722 520 676 55 674 55 18 55 674 521 672 521 18 521 18 522 672 522 670 522 548 55 790 55 550 55 790 55 788 55 550 55 550 523 788 523 786 523 786 55 784 55 550 55 784 55 782 55 550 55 550 524 782 524 780 524 764 55 762 55 558 55 762 55 760 55 558 55 558 525 760 525 758 525 562 55 560 55 754 55 560 55 558 55 754 55 754 55 558 55 756 55 558 526 758 526 756 526 694 101 18 101 696 101 18 527 698 527 696 527 670 528 668 528 18 528 668 529 666 529 18 529 18 530 666 530 664 530 778 55 776 55 550 55 776 55 774 55 550 55 550 55 774 55 552 55 774 531 772 531 552 531 552 532 772 532 554 532 772 55 770 55 554 55 554 55 770 55 556 55 770 533 768 533 556 533 556 534 768 534 558 534 768 55 766 55 558 55 558 535 766 535 764 535 746 109 744 109 574 109 744 55 742 55 574 55 574 536 742 536 740 536 740 55 738 55 574 55 738 55 736 55 574 55 574 55 736 55 20 55 736 55 734 55 20 55 20 537 734 537 732 537 730 538 728 538 20 538 728 539 726 539 20 539 20 540 726 540 724 540 720 55 718 55 20 55 718 55 716 55 20 55 20 541 716 541 714 541 714 542 712 542 20 542 712 55 710 55 20 55 20 543 710 543 708 543 706 544 704 544 20 544 704 55 702 55 20 55 20 55 702 55 18 55 702 122 700 122 18 122 18 545 700 545 698 545 694 55 692 55 18 55 692 546 690 546 18 546 18 547 690 547 688 547 688 55 686 55 18 55 686 55 684 55 18 55 18 548 684 548 682 548 682 549 680 549 18 549 680 55 678 55 18 55 18 550 678 550 676 550 56 160 806 160 54 160 806 159 807 159 54 159 54 551 807 551 52 551 807 552 808 552 52 552 52 553 808 553 50 553 808 554 809 554 50 554 50 555 809 555 48 555 809 556 810 556 48 556 48 557 810 557 46 557 810 152 811 152 46 152 46 558 811 558 44 558 811 559 812 559 44 559 44 560 812 560 42 560 812 561 813 561 42 561 42 562 813 562 40 562 813 563 814 563 40 563 40 564 814 564 38 564 814 565 815 565 38 565 38 566 815 566 36 566 815 567 816 567 36 567 36 568 816 568 34 568 816 568 817 568 34 568 34 569 817 569 32 569 817 570 818 570 32 570 32 571 818 571 30 571 818 572 819 572 30 572 30 573 819 573 28 573 819 135 820 135 28 135 28 574 820 574 26 574 820 575 821 575 26 575 26 576 821 576 24 576 821 577 822 577 24 577 24 578 822 578 22 578 822 579 823 579 22 579 22 580 823 580 20 580 823 581 805 581 20 581 58 161 824 161 56 161 824 161 806 161 56 161 94 582 825 582 92 582 825 583 826 583 92 583 92 584 826 584 90 584 826 585 827 585 90 585 90 586 827 586 88 586 827 587 828 587 88 587 88 588 828 588 86 588 828 589 829 589 86 589 86 189 829 189 84 189 829 188 830 188 84 188 84 590 830 590 82 590 830 591 831 591 82 591 82 592 831 592 80 592 831 593 832 593 80 593 80 594 832 594 78 594 832 595 833 595 78 595 78 596 833 596 76 596 833 597 834 597 76 597 76 598 834 598 74 598 834 599 835 599 74 599 74 600 835 600 72 600 835 601 836 601 72 601 72 602 836 602 70 602 836 603 837 603 70 603 70 604 837 604 68 604 837 605 838 605 68 605 68 606 838 606 66 606 838 170 839 170 66 170 66 607 839 607 64 607 839 608 840 608 64 608 64 609 840 609 62 609 840 610 841 610 62 610 62 611 841 611 60 611 841 612 842 612 60 612 60 613 842 613 58 613 842 614 824 614 58 614 482 615 483 615 825 615 843 615 825 615 489 615 486 616 487 616 825 616 487 617 488 617 825 617 825 618 488 618 489 618 483 615 484 615 825 615 484 615 485 615 825 615 825 619 485 619 486 619 489 615 490 615 843 615 490 620 491 620 843 620 843 621 491 621 492 621 492 622 493 622 843 622 493 615 494 615 843 615 843 623 494 623 495 623 495 615 496 615 843 615 496 624 497 624 843 624 843 625 497 625 498 625 498 615 499 615 843 615 499 615 500 615 843 615 843 626 500 626 501 626 512 627 843 627 511 627 843 628 510 628 511 628 413 615 414 615 473 615 501 629 502 629 843 629 502 615 503 615 843 615 843 630 503 630 504 630 450 615 451 615 96 615 451 615 452 615 96 615 96 631 452 631 453 631 504 615 505 615 843 615 505 632 506 632 843 632 843 633 506 633 507 633 507 634 508 634 843 634 508 615 509 615 843 615 843 635 509 635 510 635 413 636 473 636 412 636 414 615 415 615 473 615 415 615 416 615 473 615 473 637 416 637 417 637 473 615 474 615 94 615 474 615 475 615 94 615 475 615 476 615 94 615 476 615 477 615 94 615 94 638 477 638 478 638 478 639 479 639 94 639 479 615 480 615 94 615 94 615 480 615 825 615 480 615 481 615 825 615 825 640 481 640 482 640 512 615 513 615 843 615 513 615 514 615 843 615 843 641 514 641 515 641 515 615 516 615 843 615 516 642 445 642 843 642 843 615 445 615 96 615 445 615 446 615 96 615 96 643 446 643 447 643 447 644 448 644 96 644 448 615 449 615 96 615 96 645 449 645 450 645 408 615 409 615 94 615 409 646 410 646 94 646 94 647 410 647 473 647 410 648 411 648 473 648 473 649 411 649 412 649 458 615 459 615 437 615 453 650 438 650 439 650 438 615 453 615 437 615 453 651 454 651 437 651 437 652 454 652 455 652 455 615 456 615 437 615 456 653 457 653 437 653 437 615 457 615 458 615 419 654 467 654 468 654 374 615 375 615 96 615 380 615 96 615 379 615 96 655 378 655 379 655 386 656 387 656 96 656 387 615 388 615 96 615 96 657 388 657 389 657 420 658 465 658 419 658 465 615 466 615 419 615 419 659 466 659 467 659 420 615 421 615 465 615 421 615 422 615 465 615 465 660 422 660 423 660 468 615 469 615 419 615 469 615 470 615 419 615 419 661 470 661 471 661 417 662 418 662 473 662 418 615 419 615 473 615 473 615 419 615 472 615 419 663 471 663 472 663 402 615 403 615 94 615 403 615 404 615 94 615 94 664 404 664 405 664 430 615 431 615 461 615 431 615 432 615 461 615 439 615 440 615 453 615 440 615 441 615 453 615 453 665 441 665 442 665 442 666 443 666 453 666 443 615 444 615 453 615 453 667 444 667 96 667 444 668 373 668 96 668 96 669 373 669 374 669 375 670 376 670 96 670 376 615 377 615 96 615 96 671 377 671 378 671 380 672 381 672 96 672 381 615 382 615 96 615 96 673 382 673 383 673 383 615 384 615 96 615 384 615 385 615 96 615 96 674 385 674 386 674 389 615 390 615 96 615 390 675 391 675 96 675 96 615 391 615 94 615 391 676 392 676 94 676 94 677 392 677 393 677 393 615 394 615 94 615 394 615 395 615 94 615 94 678 395 678 396 678 405 615 406 615 94 615 406 679 407 679 94 679 94 680 407 680 408 680 423 615 424 615 465 615 424 615 425 615 465 615 465 681 425 681 464 681 425 615 426 615 464 615 464 682 426 682 463 682 426 615 427 615 463 615 463 615 427 615 462 615 427 683 428 683 462 683 462 684 428 684 461 684 428 615 429 615 461 615 461 685 429 685 430 685 432 615 433 615 461 615 433 615 434 615 461 615 461 686 434 686 435 686 459 615 460 615 437 615 460 615 461 615 437 615 437 687 461 687 436 687 461 688 435 688 436 688 396 689 397 689 94 689 397 615 398 615 94 615 94 690 398 690 399 690 399 691 400 691 94 691 400 615 401 615 94 615 94 692 401 692 402 692 132 693 372 693 130 693 372 694 844 694 130 694 130 695 844 695 128 695 844 696 845 696 128 696 128 697 845 697 126 697 845 698 846 698 126 698 126 699 846 699 124 699 846 700 847 700 124 700 124 701 847 701 122 701 847 702 848 702 122 702 122 703 848 703 120 703 848 704 849 704 120 704 120 705 849 705 118 705 849 706 850 706 118 706 118 707 850 707 116 707 850 708 851 708 116 708 116 709 851 709 114 709 851 710 852 710 114 710 114 711 852 711 112 711 852 712 853 712 112 712 112 713 853 713 110 713 853 714 854 714 110 714 110 715 854 715 108 715 854 716 855 716 108 716 108 717 855 717 106 717 855 718 856 718 106 718 106 719 856 719 104 719 856 720 857 720 104 720 104 721 857 721 102 721 857 722 858 722 102 722 102 723 858 723 100 723 858 724 859 724 100 724 100 725 859 725 98 725 859 726 860 726 98 726 98 727 860 727 96 727 860 728 843 728 96 728 815 729 861 729 816 729 861 729 862 729 816 729 816 729 862 729 817 729 862 729 863 729 817 729 817 729 863 729 818 729 863 729 864 729 818 729 818 729 864 729 819 729 864 730 865 730 819 730 819 729 865 729 820 729 865 729 866 729 820 729 820 729 866 729 821 729 866 729 867 729 821 729 821 729 867 729 822 729 867 731 868 731 822 731 822 729 868 729 823 729 868 729 869 729 823 729 823 732 869 732 805 732 869 729 870 729 805 729 805 729 870 729 353 729 870 729 352 729 353 729 353 729 352 729 354 729 352 733 351 733 354 733 354 734 351 734 355 734 351 729 350 729 355 729 355 729 350 729 356 729 350 730 349 730 356 730 356 729 349 729 357 729 349 729 348 729 357 729 357 729 348 729 358 729 348 729 347 729 358 729 358 729 347 729 359 729 347 729 346 729 359 729 359 735 346 735 360 735 346 729 345 729 360 729 360 729 345 729 361 729 345 729 344 729 361 729 361 729 344 729 362 729 344 729 343 729 362 729 362 729 343 729 363 729 343 729 342 729 363 729 363 729 342 729 364 729 342 729 341 729 364 729 364 729 341 729 365 729 341 729 340 729 365 729 365 729 340 729 366 729 340 736 339 736 366 736 366 729 339 729 367 729 339 737 338 737 367 737 367 729 338 729 368 729 338 729 337 729 368 729 368 738 337 738 369 738 337 739 336 739 369 739 369 740 336 740 370 740 336 739 335 739 370 739 370 729 335 729 371 729 335 729 334 729 371 729 371 729 334 729 372 729 334 729 333 729 372 729 372 729 333 729 844 729 333 729 332 729 844 729 844 729 332 729 845 729 332 729 331 729 845 729 845 729 331 729 846 729 331 729 330 729 846 729 846 729 330 729 847 729 330 729 329 729 847 729 847 729 329 729 848 729 329 741 328 741 848 741 848 742 328 742 849 742 328 729 327 729 849 729 849 743 327 743 850 743 327 744 326 744 850 744 850 729 326 729 851 729 326 729 325 729 851 729 851 729 325 729 852 729 325 729 324 729 852 729 852 729 324 729 853 729 324 729 323 729 853 729 853 729 323 729 854 729 323 729 322 729 854 729 854 729 322 729 855 729 322 729 321 729 855 729 855 729 321 729 856 729 321 745 320 745 856 745 856 729 320 729 857 729 320 729 319 729 857 729 857 729 319 729 858 729 319 729 318 729 858 729 858 729 318 729 859 729 318 746 317 746 859 746 859 729 317 729 860 729 317 729 316 729 860 729 860 747 316 747 843 747 316 729 173 729 843 729 843 729 173 729 825 729 173 729 170 729 825 729 825 729 170 729 826 729 170 748 169 748 826 748 826 749 169 749 827 749 169 729 168 729 827 729 827 729 168 729 828 729 168 732 167 732 828 732 828 729 167 729 829 729 167 729 166 729 829 729 829 729 166 729 830 729 166 729 165 729 830 729 830 729 165 729 831 729 165 729 164 729 831 729 831 741 164 741 832 741 164 729 163 729 832 729 832 729 163 729 833 729 163 729 162 729 833 729 833 729 162 729 834 729 162 729 161 729 834 729 834 729 161 729 835 729 161 729 160 729 835 729 835 729 160 729 836 729 160 729 159 729 836 729 836 729 159 729 837 729 159 729 158 729 837 729 837 729 158 729 838 729 158 744 157 744 838 744 838 729 157 729 839 729 157 750 156 750 839 750 839 729 156 729 840 729 156 729 155 729 840 729 840 751 155 751 841 751 155 752 154 752 841 752 841 729 154 729 842 729 154 729 153 729 842 729 842 729 153 729 824 729 153 739 152 739 824 739 824 729 152 729 806 729 152 729 871 729 806 729 806 753 871 753 807 753 871 729 872 729 807 729 807 729 872 729 808 729 872 729 873 729 808 729 808 729 873 729 809 729 873 729 874 729 809 729 809 729 874 729 810 729 874 729 875 729 810 729 810 729 875 729 811 729 875 735 876 735 811 735 811 754 876 754 812 754 876 729 877 729 812 729 812 755 877 755 813 755 877 756 878 756 813 756 813 729 878 729 814 729 878 729 879 729 814 729 814 729 879 729 815 729 879 729 861 729 815 729 871 229 152 229 57 229 152 229 59 229 57 229 21 757 870 757 869 757 21 758 869 758 23 758 869 759 868 759 23 759 23 760 868 760 25 760 868 761 867 761 25 761 25 762 867 762 27 762 867 763 866 763 27 763 27 764 866 764 29 764 866 720 865 720 29 720 29 719 865 719 31 719 865 765 864 765 31 765 31 766 864 766 33 766 864 767 863 767 33 767 33 768 863 768 35 768 863 713 862 713 35 713 35 713 862 713 37 713 862 769 861 769 37 769 37 711 861 711 39 711 861 770 879 770 39 770 39 771 879 771 41 771 879 772 878 772 41 772 41 773 878 773 43 773 878 774 877 774 43 774 43 775 877 775 45 775 877 776 876 776 45 776 45 777 876 777 47 777 876 778 875 778 47 778 47 701 875 701 49 701 875 779 874 779 49 779 49 780 874 780 51 780 874 781 873 781 51 781 51 782 873 782 53 782 873 783 872 783 53 783 53 784 872 784 55 784 872 785 871 785 55 785 55 786 871 786 57 786 591 615 593 615 870 615 741 615 743 615 573 615 599 615 601 615 870 615 601 615 603 615 870 615 870 787 603 787 605 787 593 615 595 615 870 615 595 615 597 615 870 615 870 788 597 788 599 788 741 789 573 789 739 789 743 615 745 615 573 615 745 615 747 615 573 615 573 790 747 790 749 790 573 615 575 615 21 615 575 615 577 615 21 615 577 615 579 615 21 615 579 615 581 615 21 615 21 791 581 791 583 791 583 615 585 615 21 615 585 615 587 615 21 615 21 792 587 792 870 792 587 615 589 615 870 615 870 793 589 793 591 793 651 615 352 615 649 615 352 615 647 615 649 615 731 615 733 615 21 615 733 615 735 615 21 615 21 794 735 794 573 794 735 795 737 795 573 795 573 796 737 796 739 796 543 615 545 615 789 615 605 615 607 615 870 615 607 615 609 615 870 615 870 797 609 797 611 797 611 615 613 615 870 615 613 615 615 615 870 615 870 798 615 798 617 798 629 615 352 615 627 615 352 799 625 799 627 799 527 615 529 615 19 615 529 615 531 615 19 615 19 800 531 800 533 800 617 801 619 801 870 801 619 802 621 802 870 802 870 615 621 615 352 615 621 615 623 615 352 615 352 803 623 803 625 803 629 629 631 629 352 629 631 804 633 804 352 804 352 805 633 805 635 805 533 615 791 615 793 615 635 615 637 615 352 615 637 615 639 615 352 615 352 806 639 806 641 806 641 615 643 615 352 615 643 615 645 615 352 615 352 807 645 807 647 807 651 615 653 615 352 615 653 615 655 615 352 615 352 808 655 808 657 808 657 615 659 615 352 615 659 615 517 615 352 615 352 809 517 809 19 809 517 615 519 615 19 615 19 810 519 810 521 810 521 615 523 615 19 615 523 615 525 615 19 615 19 811 525 811 527 811 791 615 533 615 789 615 533 615 535 615 789 615 789 812 535 812 537 812 537 813 539 813 789 813 539 653 541 653 789 653 789 814 541 814 543 814 753 815 561 815 563 815 663 615 665 615 19 615 675 615 19 615 673 615 19 816 671 816 673 816 687 656 689 656 19 656 689 817 691 817 19 817 19 818 691 818 693 818 755 819 557 819 753 819 557 615 559 615 753 615 753 820 559 820 561 820 755 821 757 821 557 821 757 615 759 615 557 615 557 822 759 822 761 822 563 615 565 615 753 615 565 823 567 823 753 823 753 824 567 824 569 824 749 615 751 615 573 615 751 615 753 615 573 615 573 825 753 825 571 825 753 826 569 826 571 826 719 615 721 615 21 615 721 615 723 615 21 615 21 827 723 827 725 827 775 615 777 615 549 615 777 615 779 615 549 615 793 615 795 615 533 615 795 615 797 615 533 615 533 828 797 828 799 828 799 615 801 615 533 615 801 829 803 829 533 829 533 615 803 615 19 615 803 615 661 615 19 615 19 830 661 830 663 830 665 615 667 615 19 615 667 615 669 615 19 615 19 831 669 831 671 831 675 615 677 615 19 615 677 615 679 615 19 615 19 832 679 832 681 832 681 615 683 615 19 615 683 615 685 615 19 615 19 833 685 833 687 833 693 615 695 615 19 615 695 615 697 615 19 615 19 615 697 615 21 615 697 615 699 615 21 615 21 834 699 834 701 834 701 835 703 835 21 835 703 836 705 836 21 836 21 837 705 837 707 837 725 615 727 615 21 615 727 615 729 615 21 615 21 838 729 838 731 838 761 615 763 615 557 615 763 615 765 615 557 615 557 615 765 615 555 615 765 615 767 615 555 615 555 615 767 615 553 615 767 615 769 615 553 615 553 615 769 615 551 615 769 615 771 615 551 615 551 615 771 615 549 615 771 615 773 615 549 615 549 839 773 839 775 839 779 615 781 615 549 615 781 840 783 840 549 840 549 841 783 841 785 841 545 842 547 842 789 842 547 615 549 615 789 615 789 615 549 615 787 615 549 843 785 843 787 843 707 615 709 615 21 615 709 615 711 615 21 615 21 844 711 844 713 844 713 615 715 615 21 615 715 615 717 615 21 615 21 845 717 845 719 845</p>
        </triangles>
      </mesh>
    </geometry>
  </library_geometries>
  <library_visual_scenes>
    <visual_scene id="Scene" name="Scene">
      <node id="chassis_default_as_machined__4" name="chassis_default_as_machined__4" type="NODE">
        <matrix sid="transform">1 0 0 0 0 1 0 0 0 0 1 0 0 0 0 1</matrix>
        <instance_geometry url="#chassis_default_as_machined__4-mesh" name="chassis_default_as_machined__4"/>
      </node>
    </visual_scene>
  </library_visual_scenes>
  <scene>
    <instance_visual_scene url="#Scene"/>
  </scene>
</COLLADA>