<?xml version="1.0" encoding="utf-8"?>
<COLLADA xmlns="http://www.collada.org/2005/11/COLLADASchema" version="1.4.1" xmlns:xsi="http://www.w3.org/2001/XMLSchema-instance">
  <asset>
    <contributor>
      <author>Blender User</author>
      <authoring_tool>Blender 3.0.1</authoring_tool>
    </contributor>
    <created>2026-06-04T16:18:41</created>
    <modified>2026-06-04T16:18:41</modified>
    <unit name="meter" meter="1"/>
    <up_axis>Z_UP</up_axis>
  </asset>
  <library_images/>
  <library_geometries>
    <geometry id="chassis_default_as_machined__5-mesh" name="chassis_default_as_machined__5">
      <mesh>
        <source id="chassis_default_as_machined__5-mesh-positions">
          <float_array id="chassis_default_as_machined__5-mesh-positions-array" count="912">-0.01499998 0.1876 -0.009799957 -0.01499998 0.185 -0.009799957 -0.01499998 0.1876099 -0.01002657 -0.01499998 0.1850197 -0.01025319 -0.01499998 0.1876395 -0.01025146 -0.01499998 0.185079 -0.01070296 -0.01499998 0.1876885 -0.01047289 -0.01499998 0.1851772 -0.01114583 -0.01499998 0.1877568 -0.01068919 -0.01499998 0.1853136 -0.0115785 -0.01499998 0.1878436 -0.01089876 -0.01499998 0.1854872 -0.01199758 -0.01499998 0.1879483 -0.01109999 -0.01499998 0.1856966 -0.01239997 -0.01499998 0.1880702 -0.01129126 -0.01499998 0.1859404 -0.01278257 -0.01499998 0.1882082 -0.01147121 -0.01499998 0.1862165 -0.01314246 -0.01499998 0.1883615 -0.01163846 -0.01499998 0.186523 -0.0134769 -0.01499998 0.1885287 -0.0117917 -0.01499998 0.1868575 -0.01378339 -0.01499998 0.1887087 -0.01192975 -0.01499998 0.1872174 -0.01405954 -0.01499998 0.1888999 -0.01205164 -0.01499998 0.1876 -0.01430332 -0.01499998 0.1891012 -0.01215636 -0.01499998 0.1880024 -0.01451277 -0.01499998 0.1893107 -0.01224315 -0.01499998 0.1884214 -0.0146864 -0.01499998 0.189527 -0.01231139 -0.01499998 0.1888541 -0.01482278 -0.01499998 0.1897485 -0.01236045 -0.01499998 0.189297 -0.01492094 -0.01499998 0.1899734 -0.01239007 -0.01499998 0.1897467 -0.01498019 -0.01499998 0.1902 -0.01239997 -0.01499998 0.1902 -0.01499998 -0.01499998 0.2098 -0.01239997 -0.01499998 0.2098 -0.01499998 -0.01499998 0.2100266 -0.01239007 -0.01499998 0.2102532 -0.01498019 -0.01499998 0.2102515 -0.01236045 -0.01499998 0.210703 -0.01492094 -0.01499998 0.2104729 -0.01231139 -0.01499998 0.2111458 -0.01482278 -0.01499998 0.2106892 -0.01224315 -0.01499998 0.2115785 -0.0146864 -0.01499998 0.2108988 -0.01215636 -0.01499998 0.2119976 -0.01451277 -0.01499998 0.2111 -0.01205164 -0.01499998 0.2124 -0.01430332 -0.01499998 0.2112913 -0.01192975 -0.01499998 0.2127826 -0.01405954 -0.01499998 0.2114712 -0.0117917 -0.01499998 0.2131425 -0.01378339 -0.01499998 0.2116385 -0.01163846 -0.01499998 0.2134769 -0.0134769 -0.01499998 0.2117917 -0.01147121 -0.01499998 0.2137834 -0.01314246 -0.01499998 0.2119297 -0.01129126 -0.01499998 0.2140595 -0.01278257 -0.01499998 0.2120516 -0.01109999 -0.01499998 0.2143033 -0.01239997 -0.01499998 0.2121564 -0.01089876 -0.01499998 0.2145128 -0.01199758 -0.01499998 0.2122431 -0.01068919 -0.01499998 0.2146864 -0.0115785 -0.01499998 0.2123114 -0.01047289 -0.01499998 0.2148228 -0.01114583 -0.01499998 0.2123605 -0.01025146 -0.01499998 0.2149209 -0.01070296 -0.01499998 0.2123901 -0.01002657 -0.01499998 0.2149802 -0.01025319 -0.01499998 0.2124 -0.009799957 -0.01499998 0.215 -0.009799957 -0.01499998 0.2124 0.009799957 -0.01499998 0.215 0.009799957 -0.01499998 0.2123901 0.01002657 -0.01499998 0.2149802 0.01025319 -0.01499998 0.2123605 0.01025146 -0.01499998 0.2149209 0.01070296 -0.01499998 0.2123114 0.01047289 -0.01499998 0.2148228 0.01114583 -0.01499998 0.2122431 0.01068919 -0.01499998 0.2146864 0.0115785 -0.01499998 0.2121564 0.01089876 -0.01499998 0.2145128 0.01199758 -0.01499998 0.2120516 0.01109999 -0.01499998 0.2143033 0.01239997 -0.01499998 0.2119297 0.01129126 -0.01499998 0.2140595 0.01278257 -0.01499998 0.2117917 0.01147121 -0.01499998 0.2137834 0.01314246 -0.01499998 0.2116385 0.01163846 -0.01499998 0.2134769 0.0134769 -0.01499998 0.2114712 0.0117917 -0.01499998 0.2131425 0.01378339 -0.01499998 0.2112913 0.01192975 -0.01499998 0.2127826 0.01405954 -0.01499998 0.2111 0.01205164 -0.01499998 0.2124 0.01430332 -0.01499998 0.2108988 0.01215636 -0.01499998 0.2119976 0.01451277 -0.01499998 0.2106892 0.01224315 -0.01499998 0.2115785 0.0146864 -0.01499998 0.2104729 0.01231139 -0.01499998 0.2111458 0.01482278 -0.01499998 0.2102515 0.01236045 -0.01499998 0.210703 0.01492094 -0.01499998 0.2100266 0.01239007 -0.01499998 0.2102532 0.01498019 -0.01499998 0.2098 0.01239997 -0.01499998 0.2098 0.01499998 -0.01499998 0.1902 0.01239997 -0.01499998 0.1902 0.01499998 -0.01499998 0.1899734 0.01239007 -0.01499998 0.1897467 0.01498019 -0.01499998 0.1897485 0.01236045 -0.01499998 0.189297 0.01492094 -0.01499998 0.189527 0.01231139 -0.01499998 0.1888541 0.01482278 -0.01499998 0.1893107 0.01224315 -0.01499998 0.1884214 0.0146864 -0.01499998 0.1891012 0.01215636 -0.01499998 0.1880024 0.01451277 -0.01499998 0.1888999 0.01205164 -0.01499998 0.1876 0.01430332 -0.01499998 0.1887087 0.01192975 -0.01499998 0.1872174 0.01405954 -0.01499998 0.1885287 0.0117917 -0.01499998 0.1868575 0.01378339 -0.01499998 0.1883615 0.01163846 -0.01499998 0.186523 0.0134769 -0.01499998 0.1882082 0.01147121 -0.01499998 0.1862165 0.01314246 -0.01499998 0.1880702 0.01129126 -0.01499998 0.1859404 0.01278257 -0.01499998 0.1879483 0.01109999 -0.01499998 0.1856966 0.01239997 -0.01499998 0.1878436 0.01089876 -0.01499998 0.1854872 0.01199758 -0.01499998 0.1877568 0.01068919 -0.01499998 0.1853136 0.0115785 -0.01499998 0.1876885 0.01047289 -0.01499998 0.1851772 0.01114583 -0.01499998 0.1876395 0.01025146 -0.01499998 0.185079 0.01070296 -0.01499998 0.1876099 0.01002657 -0.01499998 0.1850197 0.01025319 -0.01499998 0.1876 0.009799957 -0.01499998 0.185 0.009799957 -0.585 0.1876 0.009799957 -0.585 0.185 0.009799957 -0.585 0.1876099 0.01002657 -0.585 0.1850197 0.01025319 -0.585 0.1876395 0.01025146 -0.585 0.185079 0.01070296 -0.585 0.1876885 0.01047289 -0.585 0.1851772 0.01114583 -0.585 0.1877568 0.01068919 -0.585 0.1853136 0.0115785 -0.585 0.1878436 0.01089876 -0.585 0.1854872 0.01199758 -0.585 0.1879483 0.01109999 -0.585 0.1856966 0.01239997 -0.585 0.1880702 0.01129126 -0.585 0.1859404 0.01278257 -0.585 0.1882082 0.01147121 -0.585 0.1862165 0.01314246 -0.585 0.1883615 0.01163846 -0.585 0.186523 0.0134769 -0.585 0.1885287 0.0117917 -0.585 0.1868575 0.01378339 -0.585 0.1887087 0.01192975 -0.585 0.1872174 0.01405954 -0.585 0.1888999 0.01205164 -0.585 0.1876 0.01430332 -0.585 0.1891012 0.01215636 -0.585 0.1880024 0.01451277 -0.585 0.1893107 0.01224315 -0.585 0.1884214 0.0146864 -0.585 0.189527 0.01231139 -0.585 0.1888541 0.01482278 -0.585 0.1897485 0.01236045 -0.585 0.189297 0.01492094 -0.585 0.1899734 0.01239007 -0.585 0.1897467 0.01498019 -0.585 0.1902 0.01239997 -0.585 0.1902 0.01499998 -0.585 0.2098 0.01239997 -0.585 0.2098 0.01499998 -0.585 0.2100266 0.01239007 -0.585 0.2102532 0.01498019 -0.585 0.2102515 0.01236045 -0.585 0.210703 0.01492094 -0.585 0.2104729 0.01231139 -0.585 0.2111458 0.01482278 -0.585 0.2106892 0.01224315 -0.585 0.2115785 0.0146864 -0.585 0.2108988 0.01215636 -0.585 0.2119976 0.01451277 -0.585 0.2111 0.01205164 -0.585 0.2124 0.01430332 -0.585 0.2112913 0.01192975 -0.585 0.2127826 0.01405954 -0.585 0.2114712 0.0117917 -0.585 0.2131425 0.01378339 -0.585 0.2116385 0.01163846 -0.585 0.2134769 0.0134769 -0.585 0.2117917 0.01147121 -0.585 0.2137834 0.01314246 -0.585 0.2119297 0.01129126 -0.585 0.2140595 0.01278257 -0.585 0.2120516 0.01109999 -0.585 0.2143033 0.01239997 -0.585 0.2121564 0.01089876 -0.585 0.2145128 0.01199758 -0.585 0.2122431 0.01068919 -0.585 0.2146864 0.0115785 -0.585 0.2123114 0.01047289 -0.585 0.2148228 0.01114583 -0.585 0.2123605 0.01025146 -0.585 0.2149209 0.01070296 -0.585 0.2123901 0.01002657 -0.585 0.2149802 0.01025319 -0.585 0.2124 0.009799957 -0.585 0.215 0.009799957 -0.585 0.2124 -0.009799957 -0.585 0.215 -0.009799957 -0.585 0.2123901 -0.01002657 -0.585 0.2149802 -0.01025319 -0.585 0.2123605 -0.01025146 -0.585 0.2149209 -0.01070296 -0.585 0.2123114 -0.01047289 -0.585 0.2148228 -0.01114583 -0.585 0.2122431 -0.01068919 -0.585 0.2146864 -0.0115785 -0.585 0.2121564 -0.01089876 -0.585 0.2145128 -0.01199758 -0.585 0.2120516 -0.01109999 -0.585 0.2143033 -0.01239997 -0.585 0.2119297 -0.01129126 -0.585 0.2140595 -0.01278257 -0.585 0.2117917 -0.01147121 -0.585 0.2137834 -0.01314246 -0.585 0.2116385 -0.01163846 -0.585 0.2134769 -0.0134769 -0.585 0.2114712 -0.0117917 -0.585 0.2131425 -0.01378339 -0.585 0.2112913 -0.01192975 -0.585 0.2127826 -0.01405954 -0.585 0.2111 -0.01205164 -0.585 0.2124 -0.01430332 -0.585 0.2108988 -0.01215636 -0.585 0.2119976 -0.01451277 -0.585 0.2106892 -0.01224315 -0.585 0.2115785 -0.0146864 -0.585 0.2104729 -0.01231139 -0.585 0.2111458 -0.01482278 -0.585 0.2102515 -0.01236045 -0.585 0.210703 -0.01492094 -0.585 0.2100266 -0.01239007 -0.585 0.2102532 -0.01498019 -0.585 0.2098 -0.01239997 -0.585 0.2098 -0.01499998 -0.585 0.1902 -0.01239997 -0.585 0.1902 -0.01499998 -0.585 0.1899734 -0.01239007 -0.585 0.1897467 -0.01498019 -0.585 0.1897485 -0.01236045 -0.585 0.189297 -0.01492094 -0.585 0.189527 -0.01231139 -0.585 0.1888541 -0.01482278 -0.585 0.1893107 -0.01224315 -0.585 0.1884214 -0.0146864 -0.585 0.1891012 -0.01215636 -0.585 0.1880024 -0.01451277 -0.585 0.1888999 -0.01205164 -0.585 0.1876 -0.01430332 -0.585 0.1887087 -0.01192975 -0.585 0.1872174 -0.01405954 -0.585 0.1885287 -0.0117917 -0.585 0.1868575 -0.01378339 -0.585 0.1883615 -0.01163846 -0.585 0.186523 -0.0134769 -0.585 0.1882082 -0.01147121 -0.585 0.1862165 -0.01314246 -0.585 0.1880702 -0.01129126 -0.585 0.1859404 -0.01278257 -0.585 0.1879483 -0.01109999 -0.585 0.1856966 -0.01239997 -0.585 0.1878436 -0.01089876 -0.585 0.1854872 -0.01199758 -0.585 0.1877568 -0.01068919 -0.585 0.1853136 -0.0115785 -0.585 0.1876885 -0.01047289 -0.585 0.1851772 -0.01114583 -0.585 0.1876395 -0.01025146 -0.585 0.185079 -0.01070296 -0.585 0.1876099 -0.01002657 -0.585 0.1850197 -0.01025319 -0.585 0.1876 -0.009799957 -0.585 0.185 -0.009799957</float_array>
          <technique_common>
            <accessor source="#chassis_default_as_machined__5-mesh-positions-array" count="304" stride="3">
              <param name="X" type="float"/>
              <param name="Y" type="float"/>
              <param name="Z" type="float"/>
            </accessor>
          </technique_common>
        </source>
        <source id="chassis_default_as_machined__5-mesh-normals">
          <float_array id="chassis_default_as_machined__5-mesh-normals-array" count="1107">1 0 0 1 0 0 1 7.71841e-7 0 1 -7.71843e-7 0 1 -3.08732e-6 0 1 3.08741e-6 0 1 -6.17459e-6 0 1 6.17494e-6 0 1 -3.08738e-6 0 1 -6.17497e-6 0 1 6.17469e-6 0 1 -6.17483e-6 0 1 1.23493e-5 0 1 -6.17473e-6 0 1 6.17471e-6 0 1 -6.17481e-6 0 1 6.1748e-6 0 1 -6.1747e-6 0 1 1.23496e-5 0 1 -6.17478e-6 0 1 -6.17472e-6 0 1 6.17463e-6 0 1 -1.23493e-5 0 1 -3.08731e-6 0 1 1.23492e-5 0 1 -3.08739e-6 0 1 -6.17455e-6 0 1 3.08736e-6 0 1 -3.08737e-6 0 1 6.17478e-6 0 1 -3.85919e-7 0 1 0 0 1 -7.71841e-7 0 1 7.71838e-7 0 1 3.08737e-6 0 1 -3.08734e-6 0 1 6.17486e-6 0 1 -6.17467e-6 0 1 6.17467e-6 0 1 -6.17484e-6 0 1 6.17464e-6 0 1 6.17473e-6 0 1 -6.17471e-6 0 1 6.17481e-6 0 1 -6.1748e-6 0 1 6.17471e-6 0 1 -1.23496e-5 0 1 6.17459e-6 0 1 6.17472e-6 0 1 -6.17482e-6 0 1 1.23501e-5 0 1 3.0874e-6 0 1 -1.23498e-5 0 1 3.08739e-6 0 1 6.17482e-6 0 1 3.08735e-6 0 1 -6.17475e-6 0 1 -7.71831e-7 0 1 3.8592e-7 0 -1 0 0 -1 6.17467e-6 0 -1 -4.93978e-5 0 -1 4.9398e-5 0 -1 -9.87956e-5 0 -1 1.97593e-4 0 -1 1.97587e-4 0 -1 -3.95196e-4 0 -1 1.97592e-4 0 -1 -1.97593e-4 0 -1 3.95198e-4 0 -1 1.9759e-4 0 -1 -3.95169e-4 0 -1 3.95187e-4 0 -1 -1.97594e-4 0 -1 3.95194e-4 0 -1 -1.97589e-4 0 -1 -1.97595e-4 0 -1 1.97588e-4 0 -1 -3.95191e-4 0 -1 3.95172e-4 0 -1 -9.87953e-5 0 -1 3.95189e-4 0 -1 -9.87959e-5 0 -1 2.46988e-5 0 -1 -6.17467e-6 0 -1 4.93978e-5 0 -1 -4.93977e-5 0 -1 9.8795e-5 0 -1 -1.97588e-4 0 -1 -1.97596e-4 0 -1 3.95179e-4 0 -1 -1.97592e-4 0 -1 1.97588e-4 0 -1 -3.95179e-4 0 -1 3.95193e-4 0 -1 -3.95187e-4 0 -1 1.97594e-4 0 -1 -3.95168e-4 0 -1 1.97589e-4 0 -1 1.97589e-4 0 -1 -1.97594e-4 0 -1 3.95174e-4 0 -1 -3.95189e-4 0 -1 9.87971e-5 0 -1 -3.95176e-4 0 -1 9.87938e-5 0 -1 9.87953e-5 0 -1 4.93972e-5 0 -1 -2.46989e-5 0 0 -1 0 0 -0.04361838 0.9990484 0 -0.04361838 0.9990484 0 -0.1305217 0.9914456 0 -0.1305291 0.9914445 0 -0.2164435 0.9762952 0 -0.2164314 0.9762979 0 -0.3007155 0.9537139 0 -0.3006825 0.9537244 0 -0.3826802 0.9238809 0 -0.4617499 0.8870102 0 -0.4617735 0.8869979 0 -0.5373041 0.8433886 0 -0.5372779 0.8434053 0 -0.6087848 0.7933354 0 -0.608757 0.7933568 0 -0.6755826 0.7372844 0 -0.6756113 0.7372581 0 -0.7372587 0.6756106 0 -0.7933714 0.6087378 0 -0.7933715 0.6087379 0 -0.8433814 0.5373154 0 -0.8433814 0.5373155 0 -0.8870251 0.4617213 0 -0.8870015 0.4617667 0 -0.9238713 0.3827033 0 -0.9238918 0.3826541 0 -0.9537181 0.3007022 0 -0.9537181 0.3007023 0 -0.9762939 0.2164496 0 -0.9914373 0.1305837 0 -0.9914523 0.1304703 0 -0.9990481 0.04362428 0 -0.9990481 0.04362428 0 0 1 0 0.9990481 0.04362428 0 0.9990481 0.04362428 0 0.9914448 0.130527 0 0.9914373 0.1305837 0 0.976306 0.2163947 0 0.9762939 0.2164496 0 0.9537181 0.3007022 0 0.9537181 0.3007023 0 0.9238917 0.3826541 0 0.923851 0.3827525 0 0.8870251 0.4617213 0 0.8870015 0.4617667 0 0.8433814 0.5373154 0 0.8434075 0.5372745 0 0.7933714 0.6087378 0 0.7933437 0.6087741 0 0.7372874 0.6755793 0 0.7372587 0.6756106 0 0.6756113 0.7372581 0 0.6755825 0.7372844 0 0.6087291 0.7933781 0 0.6087848 0.7933354 0 0.537278 0.8434053 0 0.5373302 0.8433719 0 0.4617499 0.8870102 0 0.4617263 0.8870225 0 0.3827006 0.9238724 0 0.3826802 0.9238809 0 0.300699 0.9537191 0 0.3007155 0.9537139 0 0.2164435 0.9762952 0 0.2164314 0.9762979 0 0.1305291 0.9914445 0 0.1305217 0.9914456 0 0.04361838 0.9990484 0 0.04361838 0.9990484 0 0.04361838 -0.9990484 0 0.04361838 -0.9990484 0 0.1305217 -0.9914456 0 0.1305291 -0.9914445 0 0.2164314 -0.9762979 0 0.2164435 -0.9762952 0 0.3007155 -0.9537139 0 0.300699 -0.9537191 0 0.3826802 -0.9238809 0 0.3827006 -0.9238724 0 0.4617263 -0.8870225 0 0.4617499 -0.8870103 0 0.5373302 -0.8433719 0 0.5372779 -0.8434053 0 0.6087848 -0.7933354 0 0.6087291 -0.7933781 0 0.6755826 -0.7372844 0 0.6756113 -0.7372581 0 0.7372587 -0.6756106 0 0.7372874 -0.6755793 0 0.7933437 -0.6087741 0 0.7933715 -0.6087379 0 0.8434075 -0.5372745 0 0.8433814 -0.5373155 0 0.8870015 -0.4617667 0 0.8870251 -0.4617213 0 0.923851 -0.3827525 0 0.9238918 -0.3826541 0 0.9537181 -0.3007022 0 0.9537181 -0.3007023 0 0.9762939 -0.2164496 0 0.976306 -0.2163947 0 0.9914373 -0.1305837 0 0.9914448 -0.130527 0 0.9990481 -0.04362428 0 0.9990481 -0.04362428 0 1 0 0 -0.9990481 -0.04362428 0 -0.9990481 -0.04362428 0 -0.9914523 -0.1304703 0 -0.9914373 -0.1305837 0 -0.9762939 -0.2164496 0 -0.9537181 -0.3007022 0 -0.9537181 -0.3007023 0 -0.9238917 -0.3826541 0 -0.9238714 -0.3827033 0 -0.8870015 -0.4617667 0 -0.8870251 -0.4617213 0 -0.8433814 -0.5373154 0 -0.8433814 -0.5373155 0 -0.7933714 -0.6087378 0 -0.7933715 -0.6087379 0 -0.7372587 -0.6756106 0 -0.6756113 -0.7372581 0 -0.6755825 -0.7372844 0 -0.608757 -0.7933568 0 -0.6087848 -0.7933354 0 -0.537278 -0.8434053 0 -0.5373041 -0.8433886 0 -0.4617735 -0.8869979 0 -0.4617499 -0.8870103 0 -0.3826802 -0.9238809 0 -0.3006825 -0.9537244 0 -0.3007155 -0.9537139 0 -0.2164314 -0.9762979 0 -0.2164435 -0.9762952 0 -0.1305291 -0.9914445 0 -0.1305217 -0.9914456 0 -0.04361838 -0.9990484 0 -0.04361838 -0.9990484 0 -0.04361742 -0.9990484 0 -0.0436275 -0.9990479 0 -0.1305271 -0.9914448 0 -0.1305271 -0.9914448 0 -0.2164557 -0.9762925 0 -0.216407 -0.9763032 0 -0.300699 -0.9537191 0 -0.300732 -0.9537087 0 -0.3826412 -0.923897 0 -0.3827227 -0.9238633 0 -0.4617483 -0.8870111 0 -0.4617484 -0.8870111 0 -0.5372779 -0.8434053 0 -0.5373302 -0.8433719 0 -0.6087291 -0.7933781 0 -0.6755837 -0.7372834 0 -0.7372568 -0.6756126 0 -0.7373142 -0.67555 0 -0.7933444 -0.6087732 0 -0.7933444 -0.6087731 0 -0.843382 -0.5373146 0 -0.8434342 -0.5372325 0 -0.8869779 -0.461812 0 -0.923851 -0.3827525 0 -0.9537512 -0.3005975 0 -0.9536851 -0.3008071 0 -0.9763181 -0.2163398 0 -0.9762695 -0.2165595 0 -0.9914373 -0.1305839 0 -0.9914522 -0.1304706 0 -0.9990456 -0.0436818 0 -0.9990506 -0.04356676 0 -0.9990506 0.04356676 0 -0.9990456 0.0436818 0 -0.9914522 0.1304706 0 -0.9914373 0.1305839 0 -0.9762695 0.2165595 0 -0.9763181 0.2163398 0 -0.953685 0.3008072 0 -0.9537512 0.3005974 0 -0.923851 0.3827525 0 -0.8869779 0.461812 0 -0.8434342 0.5372325 0 -0.843382 0.5373145 0 -0.7933444 0.6087732 0 -0.7933444 0.6087731 0 -0.7373142 0.67555 0 -0.7372568 0.6756126 0 -0.6755837 0.7372834 0 -0.6087291 0.7933781 0 -0.5373302 0.8433719 0 -0.537278 0.8434053 0 -0.4617483 0.8870111 0 -0.4617484 0.8870111 0 -0.3827227 0.9238633 0 -0.3826413 0.923897 0 -0.300732 0.9537087 0 -0.300699 0.9537191 0 -0.216407 0.9763032 0 -0.2164557 0.9762925 0 -0.1305271 0.9914448 0 -0.1305271 0.9914448 0 -0.0436275 0.9990479 0 -0.04361742 0.9990484 0 0.04361742 0.9990484 0 0.0436275 0.9990479 0 0.1305122 0.9914467 0 0.1305271 0.9914448 0 0.216407 0.9763032 0 0.2164557 0.9762925 0 0.300732 0.9537087 0 0.3827227 0.9238633 0 0.3826413 0.923897 0 0.4617483 0.8870111 0 0.4617484 0.8870111 0 0.5373302 0.8433719 0 0.6086735 0.7934209 0 0.6755837 0.7372834 0 0.6756411 0.7372307 0 0.7372568 0.6756126 0 0.7933444 0.6087732 0 0.7934001 0.6087006 0 0.8433297 0.5373966 0 0.8434342 0.5372325 0 0.8870251 0.4617213 0 0.9536851 0.3008071 0 0.9763181 0.2163398 0 0.9914373 0.1305839 0 0.9914522 0.1304706 0 0.9990506 0.04356676 0 0.9990456 0.0436818 0 0.9990456 -0.0436818 0 0.9990506 -0.04356676 0 0.9914522 -0.1304706 0 0.9914373 -0.1305839 0 0.9763181 -0.2163398 0 0.953685 -0.3008072 0 0.8870251 -0.4617213 0 0.8434342 -0.5372325 0 0.8433297 -0.5373965 0 0.7934001 -0.6087006 0 0.7933444 -0.6087731 0 0.7372568 -0.6756126 0 0.6756411 -0.7372307 0 0.6755837 -0.7372834 0 0.6086735 -0.7934209 0 0.5373302 -0.8433719 0 0.4617483 -0.8870111 0 0.4617484 -0.8870111 0 0.3826412 -0.923897 0 0.3827227 -0.9238633 0 0.300732 -0.9537087 0 0.2164557 -0.9762925 0 0.216407 -0.9763032 0 0.1305271 -0.9914448 0 0.1305122 -0.9914467 0 0.0436275 -0.9990479 0 0.04361742 -0.9990484 0 0 -1</float_array>
          <technique_common>
            <accessor source="#chassis_default_as_machined__5-mesh-normals-array" count="369" stride="3">
              <param name="X" type="float"/>
              <param name="Y" type="float"/>
              <param name="Z" type="float"/>
            </accessor>
          </technique_common>
        </source>
        <vertices id="chassis_default_as_machined__5-mesh-vertices">
          <input semantic="POSITION" source="#chassis_default_as_machined__5-mesh-positions"/>
        </vertices>
        <triangles count="608">
          <input semantic="VERTEX" source="#chassis_default_as_machined__5-mesh-vertices" offset="0"/>
          <input semantic="NORMAL" source="#chassis_default_as_machined__5-mesh-normals" offset="1"/>
          <p>0 0 1 0 2 0 1 0 3 0 2 0 2 1 3 1 4 1 3 2 5 2 4 2 4 3 5 3 6 3 5 0 7 0 6 0 6 0 7 0 8 0 7 0 9 0 8 0 8 0 9 0 10 0 9 0 11 0 10 0 10 0 11 0 12 0 11 0 13 0 12 0 12 0 13 0 14 0 13 4 15 4 14 4 14 0 15 0 16 0 15 5 17 5 16 5 16 6 17 6 18 6 17 0 19 0 18 0 18 7 19 7 20 7 19 8 21 8 20 8 20 0 21 0 22 0 21 0 23 0 22 0 22 9 23 9 24 9 23 10 25 10 24 10 24 0 25 0 26 0 25 11 27 11 26 11 26 12 27 12 28 12 27 13 29 13 28 13 28 0 29 0 30 0 29 0 31 0 30 0 30 0 31 0 32 0 31 0 33 0 32 0 32 0 33 0 34 0 33 14 35 14 34 14 34 0 35 0 36 0 35 15 37 15 36 15 36 0 37 0 38 0 37 0 39 0 38 0 38 0 39 0 40 0 39 16 41 16 40 16 40 0 41 0 42 0 41 17 43 17 42 17 42 0 43 0 44 0 43 0 45 0 44 0 44 18 45 18 46 18 45 19 47 19 46 19 46 0 47 0 48 0 47 20 49 20 48 20 48 0 49 0 50 0 49 21 51 21 50 21 50 22 51 22 52 22 51 0 53 0 52 0 52 0 53 0 54 0 53 23 55 23 54 23 54 24 55 24 56 24 55 25 57 25 56 25 56 0 57 0 58 0 57 0 59 0 58 0 58 26 59 26 60 26 59 0 61 0 60 0 60 0 61 0 62 0 61 27 63 27 62 27 62 0 63 0 64 0 63 28 65 28 64 28 64 29 65 29 66 29 65 0 67 0 66 0 66 0 67 0 68 0 67 0 69 0 68 0 68 0 69 0 70 0 69 2 71 2 70 2 70 0 71 0 72 0 71 30 73 30 72 30 72 0 73 0 74 0 73 0 75 0 74 0 74 0 75 0 76 0 75 0 77 0 76 0 76 0 77 0 78 0 77 0 79 0 78 0 78 31 79 31 80 31 79 32 81 32 80 32 80 33 81 33 82 33 81 0 83 0 82 0 82 0 83 0 84 0 83 0 85 0 84 0 84 0 85 0 86 0 85 0 87 0 86 0 86 0 87 0 88 0 87 0 89 0 88 0 88 0 89 0 90 0 89 34 91 34 90 34 90 0 91 0 92 0 91 35 93 35 92 35 92 36 93 36 94 36 93 0 95 0 94 0 94 37 95 37 96 37 95 34 97 34 96 34 96 0 97 0 98 0 97 0 99 0 98 0 98 38 99 38 100 38 99 39 101 39 100 39 100 0 101 0 102 0 101 40 103 40 102 40 102 22 103 22 104 22 103 41 105 41 104 41 104 0 105 0 106 0 105 0 107 0 106 0 106 0 107 0 108 0 107 0 109 0 108 0 108 0 109 0 110 0 109 42 111 42 110 42 110 0 111 0 112 0 111 43 113 43 112 43 112 0 113 0 114 0 113 0 115 0 114 0 114 0 115 0 116 0 115 44 117 44 116 44 116 0 117 0 118 0 117 45 119 45 118 45 118 0 119 0 120 0 119 0 121 0 120 0 120 46 121 46 122 46 121 47 123 47 122 47 122 0 123 0 124 0 123 48 125 48 124 48 124 0 125 0 126 0 125 49 127 49 126 49 126 50 127 50 128 50 127 0 129 0 128 0 128 0 129 0 130 0 129 51 131 51 130 51 130 52 131 52 132 52 131 53 133 53 132 53 132 0 133 0 134 0 133 0 135 0 134 0 134 54 135 54 136 54 135 0 137 0 136 0 136 0 137 0 138 0 137 23 139 23 138 23 138 0 139 0 140 0 139 55 141 55 140 55 140 56 141 56 142 56 141 0 143 0 142 0 142 0 143 0 144 0 143 0 145 0 144 0 144 0 145 0 146 0 145 57 147 57 146 57 146 0 147 0 148 0 147 58 149 58 148 58 148 0 149 0 150 0 149 0 151 0 150 0 150 0 151 0 0 0 151 0 1 0 0 0 152 59 153 59 154 59 153 59 155 59 154 59 154 60 155 60 156 60 155 61 157 61 156 61 156 62 157 62 158 62 157 59 159 59 158 59 158 59 159 59 160 59 159 59 161 59 160 59 160 59 161 59 162 59 161 63 163 63 162 63 162 64 163 64 164 64 163 59 165 59 164 59 164 59 165 59 166 59 165 59 167 59 166 59 166 59 167 59 168 59 167 59 169 59 168 59 168 65 169 65 170 65 169 59 171 59 170 59 170 66 171 66 172 66 171 67 173 67 172 67 172 59 173 59 174 59 173 68 175 68 174 68 174 69 175 69 176 69 175 59 177 59 176 59 176 59 177 59 178 59 177 59 179 59 178 59 178 59 179 59 180 59 179 59 181 59 180 59 180 59 181 59 182 59 181 59 183 59 182 59 182 59 183 59 184 59 183 70 185 70 184 70 184 71 185 71 186 71 185 59 187 59 186 59 186 72 187 72 188 72 187 73 189 73 188 73 188 59 189 59 190 59 189 59 191 59 190 59 190 59 191 59 192 59 191 59 193 59 192 59 192 74 193 74 194 74 193 59 195 59 194 59 194 59 195 59 196 59 195 75 197 75 196 75 196 59 197 59 198 59 197 59 199 59 198 59 198 59 199 59 200 59 199 59 201 59 200 59 200 59 201 59 202 59 201 59 203 59 202 59 202 59 203 59 204 59 203 76 205 76 204 76 204 59 205 59 206 59 205 77 207 77 206 77 206 59 207 59 208 59 207 59 209 59 208 59 208 78 209 78 210 78 209 59 211 59 210 59 210 79 211 79 212 79 211 80 213 80 212 80 212 81 213 81 214 81 213 63 215 63 214 63 214 59 215 59 216 59 215 82 217 82 216 82 216 64 217 64 218 64 217 59 219 59 218 59 218 59 219 59 220 59 219 59 221 59 220 59 220 59 221 59 222 59 221 61 223 61 222 61 222 59 223 59 224 59 223 83 225 83 224 83 224 59 225 59 226 59 225 59 227 59 226 59 226 59 227 59 228 59 227 59 229 59 228 59 228 59 229 59 230 59 229 59 231 59 230 59 230 84 231 84 232 84 231 85 233 85 232 85 232 86 233 86 234 86 233 59 235 59 234 59 234 59 235 59 236 59 235 59 237 59 236 59 236 59 237 59 238 59 237 87 239 87 238 87 238 88 239 88 240 88 239 59 241 59 240 59 240 59 241 59 242 59 241 59 243 59 242 59 242 59 243 59 244 59 243 59 245 59 244 59 244 89 245 89 246 89 245 59 247 59 246 59 246 90 247 90 248 90 247 91 249 91 248 91 248 59 249 59 250 59 249 92 251 92 250 92 250 93 251 93 252 93 251 59 253 59 252 59 252 59 253 59 254 59 253 59 255 59 254 59 254 59 255 59 256 59 255 59 257 59 256 59 256 59 257 59 258 59 257 59 259 59 258 59 258 59 259 59 260 59 259 75 261 75 260 75 260 94 261 94 262 94 261 59 263 59 262 59 262 95 263 95 264 95 263 96 265 96 264 96 264 59 265 59 266 59 265 59 267 59 266 59 266 59 267 59 268 59 267 59 269 59 268 59 268 97 269 97 270 97 269 59 271 59 270 59 270 59 271 59 272 59 271 98 273 98 272 98 272 59 273 59 274 59 273 59 275 59 274 59 274 59 275 59 276 59 275 59 277 59 276 59 276 59 277 59 278 59 277 59 279 59 278 59 278 59 279 59 280 59 279 99 281 99 280 99 280 59 281 59 282 59 281 100 283 100 282 100 282 59 283 59 284 59 283 59 285 59 284 59 284 101 285 101 286 101 285 59 287 59 286 59 286 102 287 102 288 102 287 103 289 103 288 103 288 104 289 104 290 104 289 105 291 105 290 105 290 59 291 59 292 59 291 106 293 106 292 106 292 91 293 91 294 91 293 59 295 59 294 59 294 59 295 59 296 59 295 59 297 59 296 59 296 59 297 59 298 59 297 107 299 107 298 107 298 59 299 59 300 59 299 108 301 108 300 108 300 59 301 59 302 59 301 59 303 59 302 59 302 59 303 59 152 59 303 59 153 59 152 59 153 109 303 109 151 109 303 109 1 109 151 109 115 110 189 110 187 110 115 111 187 111 117 111 187 112 185 112 117 112 117 113 185 113 119 113 185 114 183 114 119 114 119 115 183 115 121 115 183 116 181 116 121 116 121 117 181 117 123 117 181 118 179 118 123 118 123 118 179 118 125 118 179 119 177 119 125 119 125 120 177 120 127 120 177 121 175 121 127 121 127 122 175 122 129 122 175 123 173 123 129 123 129 124 173 124 131 124 173 125 171 125 131 125 131 126 171 126 133 126 171 127 169 127 133 127 133 127 169 127 135 127 169 128 167 128 135 128 135 129 167 129 137 129 167 130 165 130 137 130 137 131 165 131 139 131 165 132 163 132 139 132 139 133 163 133 141 133 163 134 161 134 141 134 141 135 161 135 143 135 161 136 159 136 143 136 143 137 159 137 145 137 159 138 157 138 145 138 145 138 157 138 147 138 157 139 155 139 147 139 147 140 155 140 149 140 155 141 153 141 149 141 149 142 153 142 151 142 191 143 189 143 113 143 189 143 115 143 113 143 77 144 227 144 225 144 77 145 225 145 79 145 225 146 223 146 79 146 79 147 223 147 81 147 223 148 221 148 81 148 81 149 221 149 83 149 221 150 219 150 83 150 83 151 219 151 85 151 219 152 217 152 85 152 85 153 217 153 87 153 217 154 215 154 87 154 87 155 215 155 89 155 215 156 213 156 89 156 89 157 213 157 91 157 213 158 211 158 91 158 91 159 211 159 93 159 211 160 209 160 93 160 93 161 209 161 95 161 209 162 207 162 95 162 95 163 207 163 97 163 207 164 205 164 97 164 97 165 205 165 99 165 205 166 203 166 99 166 99 167 203 167 101 167 203 168 201 168 101 168 101 169 201 169 103 169 201 170 199 170 103 170 103 171 199 171 105 171 199 172 197 172 105 172 105 173 197 173 107 173 197 174 195 174 107 174 107 175 195 175 109 175 195 176 193 176 109 176 109 177 193 177 111 177 193 178 191 178 111 178 111 179 191 179 113 179 39 180 265 180 263 180 39 181 263 181 41 181 263 182 261 182 41 182 41 183 261 183 43 183 261 184 259 184 43 184 43 185 259 185 45 185 259 186 257 186 45 186 45 187 257 187 47 187 257 188 255 188 47 188 47 189 255 189 49 189 255 190 253 190 49 190 49 191 253 191 51 191 253 192 251 192 51 192 51 193 251 193 53 193 251 194 249 194 53 194 53 195 249 195 55 195 249 196 247 196 55 196 55 197 247 197 57 197 247 198 245 198 57 198 57 199 245 199 59 199 245 200 243 200 59 200 59 201 243 201 61 201 243 202 241 202 61 202 61 203 241 203 63 203 241 204 239 204 63 204 63 205 239 205 65 205 239 206 237 206 65 206 65 207 237 207 67 207 237 208 235 208 67 208 67 209 235 209 69 209 235 210 233 210 69 210 69 211 233 211 71 211 233 212 231 212 71 212 71 213 231 213 73 213 231 214 229 214 73 214 73 215 229 215 75 215 229 216 227 216 75 216 227 216 77 216 75 216 1 217 303 217 301 217 1 218 301 218 3 218 301 219 299 219 3 219 3 220 299 220 5 220 299 221 297 221 5 221 5 221 297 221 7 221 297 222 295 222 7 222 7 223 295 223 9 223 295 224 293 224 9 224 9 225 293 225 11 225 293 226 291 226 11 226 11 227 291 227 13 227 291 228 289 228 13 228 13 229 289 229 15 229 289 230 287 230 15 230 15 231 287 231 17 231 287 232 285 232 17 232 17 232 285 232 19 232 285 233 283 233 19 233 19 234 283 234 21 234 283 235 281 235 21 235 21 236 281 236 23 236 281 237 279 237 23 237 23 238 279 238 25 238 279 239 277 239 25 239 25 240 277 240 27 240 277 241 275 241 27 241 27 241 275 241 29 241 275 242 273 242 29 242 29 243 273 243 31 243 273 244 271 244 31 244 31 245 271 245 33 245 271 246 269 246 33 246 33 247 269 247 35 247 269 248 267 248 35 248 35 249 267 249 37 249 112 250 190 250 110 250 190 251 192 251 110 251 110 252 192 252 108 252 192 253 194 253 108 253 108 254 194 254 106 254 194 255 196 255 106 255 106 256 196 256 104 256 196 257 198 257 104 257 104 258 198 258 102 258 198 259 200 259 102 259 102 260 200 260 100 260 200 261 202 261 100 261 100 262 202 262 98 262 202 263 204 263 98 263 98 264 204 264 96 264 204 236 206 236 96 236 96 265 206 265 94 265 206 265 208 265 94 265 94 266 208 266 92 266 208 267 210 267 92 267 92 268 210 268 90 268 210 269 212 269 90 269 90 270 212 270 88 270 212 271 214 271 88 271 88 227 214 227 86 227 214 272 216 272 86 272 86 273 216 273 84 273 216 224 218 224 84 224 84 274 218 274 82 274 218 275 220 275 82 275 82 276 220 276 80 276 220 277 222 277 80 277 80 278 222 278 78 278 222 279 224 279 78 279 78 280 224 280 76 280 224 281 226 281 76 281 76 109 226 109 74 109 226 109 228 109 74 109 74 282 228 282 72 282 228 283 230 283 72 283 72 284 230 284 70 284 230 285 232 285 70 285 70 286 232 286 68 286 232 287 234 287 68 287 68 288 234 288 66 288 234 289 236 289 66 289 66 135 236 135 64 135 236 290 238 290 64 290 64 291 238 291 62 291 238 132 240 132 62 132 62 292 240 292 60 292 240 293 242 293 60 293 60 294 242 294 58 294 242 295 244 295 58 295 58 296 244 296 56 296 244 297 246 297 56 297 56 298 246 298 54 298 246 298 248 298 54 298 54 123 248 123 52 123 248 299 250 299 52 299 52 300 250 300 50 300 250 301 252 301 50 301 50 302 252 302 48 302 252 303 254 303 48 303 48 304 254 304 46 304 254 305 256 305 46 305 46 306 256 306 44 306 256 307 258 307 44 307 44 308 258 308 42 308 258 309 260 309 42 309 42 310 260 310 40 310 260 311 262 311 40 311 40 312 262 312 38 312 262 313 264 313 38 313 38 143 264 143 36 143 264 143 266 143 36 143 36 314 266 314 34 314 266 315 268 315 34 315 34 316 268 316 32 316 268 317 270 317 32 317 32 318 270 318 30 318 270 319 272 319 30 319 30 320 272 320 28 320 272 172 274 172 28 172 28 321 274 321 26 321 274 322 276 322 26 322 26 323 276 323 24 323 276 324 278 324 24 324 24 167 278 167 22 167 278 325 280 325 22 325 22 326 280 326 20 326 280 165 282 165 20 165 20 327 282 327 18 327 282 328 284 328 18 328 18 329 284 329 16 329 284 329 286 329 16 329 16 330 286 330 14 330 286 331 288 331 14 331 14 332 288 332 12 332 288 333 290 333 12 333 12 334 290 334 10 334 290 154 292 154 10 154 10 153 292 153 8 153 292 152 294 152 8 152 8 151 294 151 6 151 294 335 296 335 6 335 6 336 296 336 4 336 296 149 298 149 4 149 4 337 298 337 2 337 298 338 300 338 2 338 2 339 300 339 0 339 300 340 302 340 0 340 0 216 302 216 150 216 302 216 152 216 150 216 150 341 152 341 148 341 152 342 154 342 148 342 148 343 154 343 146 343 154 344 156 344 146 344 146 210 156 210 144 210 156 345 158 345 144 345 144 346 158 346 142 346 158 208 160 208 142 208 142 207 160 207 140 207 160 206 162 206 140 206 140 205 162 205 138 205 162 347 164 347 138 347 138 348 164 348 136 348 164 349 166 349 136 349 136 350 166 350 134 350 166 351 168 351 134 351 134 352 168 352 132 352 168 352 170 352 132 352 132 353 170 353 130 353 170 354 172 354 130 354 130 194 172 194 128 194 172 355 174 355 128 355 128 356 174 356 126 356 174 192 176 192 126 192 126 357 176 357 124 357 176 358 178 358 124 358 124 359 178 359 122 359 178 360 180 360 122 360 122 187 180 187 120 187 180 361 182 361 120 361 120 362 182 362 118 362 182 363 184 363 118 363 118 364 184 364 116 364 184 365 186 365 116 365 116 366 186 366 114 366 186 367 188 367 114 367 114 368 188 368 112 368 188 368 190 368 112 368 267 368 265 368 37 368 265 368 39 368 37 368</p>
        </triangles>
      </mesh>
    </geometry>
  </library_geometries>
  <library_visual_scenes>
    <visual_scene id="Scene" name="Scene">
      <node id="chassis_default_as_machined__5" name="chassis_default_as_machined__5" type="NODE">
        <matrix sid="transform">1 0 0 0 0 1 0 0 0 0 1 0 0 0 0 1</matrix>
        <instance_geometry url="#chassis_default_as_machined__5-mesh" name="chassis_default_as_machined__5"/>
      </node>
    </visual_scene>
  </library_visual_scenes>
  <scene>
    <instance_visual_scene url="#Scene"/>
  </scene>
</COLLADA>