<?xml version="1.0" encoding="utf-8"?>
<COLLADA xmlns="http://www.collada.org/2005/11/COLLADASchema" version="1.4.1" xmlns:xsi="http://www.w3.org/2001/XMLSchema-instance">
  <asset>
    <contributor>
      <author>Blender User</author>
      <authoring_tool>Blender 3.0.1</authoring_tool>
    </contributor>
    <created>2026-06-04T16:18:28</created>
    <modified>2026-06-04T16:18:28</modified>
    <unit name="meter" meter="1"/>
    <up_axis>Z_UP</up_axis>
  </asset>
  <library_images/>
  <library_geometries>
    <geometry id="chassis_default_as_machined__11-mesh" name="chassis_default_as_machined__11">
      <mesh>
        <source id="chassis_default_as_machined__11-mesh-positions">
          <float_array id="chassis_default_as_machined__11-mesh-positions-array" count="1104">-0.5882083 0.185 -0.2885288 -0.5862166 0.185 -0.2868575 -0.5880702 0.185 -0.2887087 -0.5859404 0.185 -0.2872174 -0.5879483 0.185 -0.2889 -0.5856967 0.185 -0.2876 -0.5878436 0.185 -0.2891012 -0.5854872 0.185 -0.2880024 -0.5877568 0.185 -0.2893108 -0.5853136 0.185 -0.2884215 -0.5876886 0.185 -0.2895271 -0.5851772 0.185 -0.2888541 -0.5876395 0.185 -0.2897485 -0.585079 0.185 -0.2892971 -0.5876099 0.185 -0.2899734 -0.5850198 0.185 -0.2897468 -0.5876 0.185 -0.2902 -0.585 0.185 -0.2902 -0.5876 0.185 -0.3098 -0.585 0.185 -0.3098 -0.5876099 0.185 -0.3100266 -0.5850198 0.185 -0.3102532 -0.5876395 0.185 -0.3102515 -0.585079 0.185 -0.310703 -0.5876886 0.185 -0.3104729 -0.5851772 0.185 -0.3111459 -0.5877568 0.185 -0.3106892 -0.5853136 0.185 -0.3115785 -0.5878436 0.185 -0.3108988 -0.5854872 0.185 -0.3119976 -0.5879483 0.185 -0.3111 -0.5856967 0.185 -0.3124 -0.5880702 0.185 -0.3112913 -0.5859404 0.185 -0.3127826 -0.5882083 0.185 -0.3114712 -0.5862166 0.185 -0.3131425 -0.5883615 0.185 -0.3116385 -0.5865231 0.185 -0.3134769 -0.5885288 0.185 -0.3117917 -0.5868575 0.185 -0.3137834 -0.5887087 0.185 -0.3119298 -0.5872174 0.185 -0.3140596 -0.5889 0.185 -0.3120517 -0.5876 0.185 -0.3143033 -0.5891012 0.185 -0.3121564 -0.5880024 0.185 -0.3145128 -0.5893108 0.185 -0.3122432 -0.5884215 0.185 -0.3146864 -0.5895271 0.185 -0.3123114 -0.5888541 0.185 -0.3148228 -0.5897485 0.185 -0.3123605 -0.5892971 0.185 -0.314921 -0.5899734 0.185 -0.3123901 -0.5897468 0.185 -0.3149802 -0.5902 0.185 -0.3124 -0.5902 0.185 -0.315 -0.6098 0.185 -0.3124 -0.6098 0.185 -0.315 -0.6100266 0.185 -0.3123901 -0.6102532 0.185 -0.3149802 -0.6102515 0.185 -0.3123605 -0.610703 0.185 -0.314921 -0.6104729 0.185 -0.3123114 -0.6111459 0.185 -0.3148228 -0.6106892 0.185 -0.3122432 -0.6115785 0.185 -0.3146864 -0.6108988 0.185 -0.3121564 -0.6119976 0.185 -0.3145128 -0.6111 0.185 -0.3120517 -0.6124 0.185 -0.3143033 -0.6112913 0.185 -0.3119298 -0.6127826 0.185 -0.3140596 -0.6114712 0.185 -0.3117917 -0.6131425 0.185 -0.3137834 -0.6116385 0.185 -0.3116385 -0.6134769 0.185 -0.3134769 -0.6117917 0.185 -0.3114712 -0.6137834 0.185 -0.3131425 -0.6119298 0.185 -0.3112913 -0.6140596 0.185 -0.3127826 -0.6120517 0.185 -0.3111 -0.6143034 0.185 -0.3124 -0.6121564 0.185 -0.3108988 -0.6145128 0.185 -0.3119976 -0.6122432 0.185 -0.3106892 -0.6146864 0.185 -0.3115785 -0.6123114 0.185 -0.3104729 -0.6148228 0.185 -0.3111459 -0.6123605 0.185 -0.3102515 -0.614921 0.185 -0.310703 -0.6123901 0.185 -0.3100266 -0.6149802 0.185 -0.3102532 -0.6124 0.185 -0.3098 -0.615 0.185 -0.3098 -0.6124 0.185 -0.2902 -0.615 0.185 -0.2902 -0.6123901 0.185 -0.2899734 -0.6149802 0.185 -0.2897468 -0.6123605 0.185 -0.2897485 -0.614921 0.185 -0.2892971 -0.6123114 0.185 -0.2895271 -0.6148228 0.185 -0.2888541 -0.6122432 0.185 -0.2893108 -0.6146864 0.185 -0.2884215 -0.6121564 0.185 -0.2891012 -0.6145128 0.185 -0.2880024 -0.6120517 0.185 -0.2889 -0.6143034 0.185 -0.2876 -0.6119298 0.185 -0.2887087 -0.6140596 0.185 -0.2872174 -0.6117917 0.185 -0.2885288 -0.6137834 0.185 -0.2868575 -0.6116385 0.185 -0.2883615 -0.6134769 0.185 -0.2865231 -0.6114712 0.185 -0.2882083 -0.6131425 0.185 -0.2862166 -0.6112913 0.185 -0.2880702 -0.6127826 0.185 -0.2859404 -0.6111 0.185 -0.2879483 -0.6124 0.185 -0.2856966 -0.6108988 0.185 -0.2878436 -0.6119976 0.185 -0.2854872 -0.6106892 0.185 -0.2877568 -0.6115785 0.185 -0.2853136 -0.6104729 0.185 -0.2876886 -0.6111459 0.185 -0.2851772 -0.6102515 0.185 -0.2876395 -0.610703 0.185 -0.285079 -0.6100266 0.185 -0.2876099 -0.6102532 0.185 -0.2850198 -0.6098 0.185 -0.2876 -0.6098 0.185 -0.285 -0.5902 0.185 -0.2876 -0.5902 0.185 -0.285 -0.5899734 0.185 -0.2876099 -0.5897468 0.185 -0.2850198 -0.5897485 0.185 -0.2876395 -0.5892971 0.185 -0.285079 -0.5895271 0.185 -0.2876886 -0.5888541 0.185 -0.2851772 -0.5893108 0.185 -0.2877568 -0.5884215 0.185 -0.2853136 -0.5891012 0.185 -0.2878436 -0.5880024 0.185 -0.2854872 -0.5889 0.185 -0.2879483 -0.5876 0.185 -0.2856966 -0.5887087 0.185 -0.2880702 -0.5872174 0.185 -0.2859404 -0.5885288 0.185 -0.2882083 -0.5868575 0.185 -0.2862166 -0.5883615 0.185 -0.2883615 -0.5865231 0.185 -0.2865231 -0.585 0.009799957 -0.2902 -0.5850198 0.01025319 -0.2897468 -0.585079 0.01070296 -0.2892971 -0.5851772 0.01114583 -0.2888541 -0.5853136 0.0115785 -0.2884215 -0.5854872 0.01199758 -0.2880024 -0.5856967 0.01239997 -0.2876 -0.5859404 0.01278257 -0.2872174 -0.5862166 0.01314246 -0.2868575 -0.5865231 0.0134769 -0.2865231 -0.5868575 0.01378339 -0.2862166 -0.5876 0.01430332 -0.2856966 -0.587406 0.0141856 -0.2858144 -0.5872174 0.01405954 -0.2859404 -0.5870345 0.01392543 -0.2860745 -0.5884215 0.0146864 -0.2853136 -0.5882101 0.01460415 -0.2853958 -0.5880024 0.01451277 -0.2854872 -0.5877989 0.0144124 -0.2855876 -0.5892971 0.01492094 -0.285079 -0.5890745 0.01487672 -0.2851232 -0.5888541 0.01482278 -0.2851772 -0.5886363 0.0147593 -0.2852407 -0.5902 0.01499998 -0.285 -0.5899732 0.01499503 -0.2850049 -0.5897468 0.01498019 -0.2850198 -0.5895213 0.01495546 -0.2850445 -0.5897485 0.01236045 -0.2876395 -0.5898606 0.01237773 -0.2876222 -0.5899734 0.01239007 -0.2876099 -0.5900866 0.01239752 -0.2876025 -0.5902 0.01239997 -0.2876 -0.5893108 0.01224315 -0.2877568 -0.5894182 0.01227962 -0.2877203 -0.5895271 0.01231139 -0.2876886 -0.5896373 0.01233834 -0.2876616 -0.5889 0.01205164 -0.2879483 -0.5889995 0.01210618 -0.2878938 -0.5891012 0.01215636 -0.2878436 -0.589205 0.01220208 -0.2877979 -0.5885288 0.0117917 -0.2882083 -0.5886172 0.01186269 -0.2881373 -0.5887087 0.01192975 -0.2880702 -0.588803 0.01199281 -0.2880071 -0.5883615 0.01163846 -0.2883615 -0.5882083 0.01147121 -0.2885288 -0.5880702 0.01129126 -0.2887087 -0.5879483 0.01109999 -0.2889 -0.5878436 0.01089876 -0.2891012 -0.5877568 0.01068919 -0.2893108 -0.5876886 0.01047289 -0.2895271 -0.5876395 0.01025146 -0.2897485 -0.5876099 0.01002657 -0.2899734 -0.5876 0.009799957 -0.2902 -0.5876 -0.009799957 -0.3098 -0.5876099 -0.01002657 -0.3100266 -0.5876395 -0.01025146 -0.3102515 -0.5876886 -0.01047289 -0.3104729 -0.5877568 -0.01068919 -0.3106892 -0.5878436 -0.01089876 -0.3108988 -0.5879483 -0.01109999 -0.3111 -0.5880702 -0.01129126 -0.3112913 -0.5882083 -0.01147121 -0.3114712 -0.5883615 -0.01163846 -0.3116385 -0.5885288 -0.0117917 -0.3117917 -0.5886172 -0.01186269 -0.3118627 -0.5887087 -0.01192975 -0.3119298 -0.588803 -0.01199281 -0.3119928 -0.5889 -0.01205164 -0.3120517 -0.5889995 -0.01210618 -0.3121062 -0.5891012 -0.01215636 -0.3121564 -0.589205 -0.01220208 -0.3122021 -0.5893108 -0.01224315 -0.3122432 -0.5894182 -0.01227962 -0.3122797 -0.5895271 -0.01231139 -0.3123114 -0.5896373 -0.01233834 -0.3123384 -0.5897485 -0.01236045 -0.3123605 -0.5898606 -0.01237773 -0.3123778 -0.5899734 -0.01239007 -0.3123901 -0.5900866 -0.01239752 -0.3123975 -0.5902 -0.01239997 -0.3124 -0.6098 -0.01239997 -0.3124 -0.6124 0.009799957 -0.2902 -0.6124 -0.009799957 -0.3098 -0.6099134 -0.01239752 -0.3123975 -0.6101394 -0.01237773 -0.3123778 -0.6100266 -0.01239007 -0.3123901 -0.6103628 -0.01233834 -0.3123384 -0.6102515 -0.01236045 -0.3123605 -0.6105818 -0.01227962 -0.3122797 -0.6104729 -0.01231139 -0.3123114 -0.610795 -0.01220208 -0.3122021 -0.6106892 -0.01224315 -0.3122432 -0.6110005 -0.01210618 -0.3121062 -0.6108988 -0.01215636 -0.3121564 -0.611197 -0.01199281 -0.3119928 -0.6111 -0.01205164 -0.3120517 -0.6114712 -0.0117917 -0.3117917 -0.6113828 -0.01186269 -0.3118627 -0.6112913 -0.01192975 -0.3119298 -0.6116385 -0.01163846 -0.3116385 -0.6117917 -0.01147121 -0.3114712 -0.6119298 -0.01129126 -0.3112913 -0.6120517 -0.01109999 -0.3111 -0.6121564 -0.01089876 -0.3108988 -0.6122432 -0.01068919 -0.3106892 -0.6123114 -0.01047289 -0.3104729 -0.6123605 -0.01025146 -0.3102515 -0.6123901 -0.01002657 -0.3100266 -0.6098 0.01239997 -0.2876 -0.6123901 0.01002657 -0.2899734 -0.6123605 0.01025146 -0.2897485 -0.6123114 0.01047289 -0.2895271 -0.6122432 0.01068919 -0.2893108 -0.6121564 0.01089876 -0.2891012 -0.6120517 0.01109999 -0.2889 -0.6119298 0.01129126 -0.2887087 -0.6117917 0.01147121 -0.2885288 -0.6116385 0.01163846 -0.2883615 -0.6114712 0.0117917 -0.2882083 -0.6111 0.01205164 -0.2879483 -0.611197 0.01199281 -0.2880071 -0.6112913 0.01192975 -0.2880702 -0.6113828 0.01186269 -0.2881373 -0.6106892 0.01224315 -0.2877568 -0.610795 0.01220208 -0.2877979 -0.6108988 0.01215636 -0.2878436 -0.6110005 0.01210618 -0.2878938 -0.6102515 0.01236045 -0.2876395 -0.6103628 0.01233834 -0.2876616 -0.6104729 0.01231139 -0.2876886 -0.6105818 0.01227962 -0.2877203 -0.6099134 0.01239752 -0.2876025 -0.6100266 0.01239007 -0.2876099 -0.6101394 0.01237773 -0.2876222 -0.5902 -0.01499998 -0.315 -0.6098 -0.01499998 -0.315 -0.6100268 -0.01499503 -0.3149951 -0.6102532 -0.01498019 -0.3149802 -0.6104788 -0.01495546 -0.3149555 -0.5899732 -0.01499503 -0.3149951 -0.5897468 -0.01498019 -0.3149802 -0.5895213 -0.01495546 -0.3149555 -0.6102532 0.01498019 -0.2850198 -0.6104788 0.01495546 -0.2850445 -0.610703 -0.01492094 -0.314921 -0.6109255 -0.01487672 -0.3148767 -0.6111459 -0.01482278 -0.3148228 -0.6098 0.01499998 -0.285 -0.6100268 0.01499503 -0.2850049 -0.5892971 -0.01492094 -0.314921 -0.5890745 -0.01487672 -0.3148767 -0.5888541 -0.01482278 -0.3148228 -0.610703 0.01492094 -0.285079 -0.6109255 0.01487672 -0.2851232 -0.6111459 0.01482278 -0.2851772 -0.6113637 -0.0147593 -0.3147593 -0.6115785 -0.0146864 -0.3146864 -0.61179 -0.01460415 -0.3146042 -0.5886363 -0.0147593 -0.3147593 -0.5884215 -0.0146864 -0.3146864 -0.5882101 -0.01460415 -0.3146042 -0.5880024 -0.01451277 -0.3145128 -0.5877989 -0.0144124 -0.3144124 -0.6113637 0.0147593 -0.2852407 -0.6115785 0.0146864 -0.2853136 -0.61179 0.01460415 -0.2853958 -0.6119976 0.01451277 -0.2854872 -0.6122011 0.0144124 -0.2855876 -0.6145128 -0.01199758 -0.3119976 -0.6146864 -0.0115785 -0.3115785 -0.6148228 -0.01114583 -0.3111459 -0.614921 -0.01070296 -0.310703 -0.585079 -0.01070296 -0.310703 -0.5851772 -0.01114583 -0.3111459 -0.5853136 -0.0115785 -0.3115785 -0.5854872 -0.01199758 -0.3119976 -0.6119976 -0.01451277 -0.3145128 -0.6122011 -0.0144124 -0.3144124 -0.6124 -0.01430332 -0.3143033 -0.612594 -0.0141856 -0.3141856 -0.6127826 -0.01405954 -0.3140596 -0.6129656 -0.01392543 -0.3139255 -0.6131425 -0.01378339 -0.3137834 -0.614921 0.01070296 -0.2892971 -0.6148228 0.01114583 -0.2888541 -0.6146864 0.0115785 -0.2884215 -0.6145128 0.01199758 -0.2880024 -0.5876 -0.01430332 -0.3143033 -0.587406 -0.0141856 -0.3141856 -0.5872174 -0.01405954 -0.3140596 -0.5870345 -0.01392543 -0.3139255 -0.5868575 -0.01378339 -0.3137834 -0.6124 0.01430332 -0.2856966 -0.612594 0.0141856 -0.2858144 -0.6127826 0.01405954 -0.2859404 -0.6129656 0.01392543 -0.2860745 -0.6131425 0.01378339 -0.2862166 -0.6134769 -0.0134769 -0.3134769 -0.5865231 -0.0134769 -0.3134769 -0.6134769 0.0134769 -0.2865231 -0.5856967 -0.01239997 -0.3124 -0.5859404 -0.01278257 -0.3127826 -0.5862166 -0.01314246 -0.3131425 -0.6137834 -0.01314246 -0.3131425 -0.6140596 -0.01278257 -0.3127826 -0.6143034 -0.01239997 -0.3124 -0.6143034 0.01239997 -0.2876 -0.6140596 0.01278257 -0.2872174 -0.6137834 0.01314246 -0.2868575 -0.585 -0.009799957 -0.3098 -0.5850198 -0.01025319 -0.3102532 -0.6149802 -0.01025319 -0.3102532 -0.615 -0.009799957 -0.3098 -0.615 0.009799957 -0.2902 -0.6149802 0.01025319 -0.2897468</float_array>
          <technique_common>
            <accessor source="#chassis_default_as_machined__11-mesh-positions-array" count="368" stride="3">
              <param name="X" type="float"/>
              <param name="Y" type="float"/>
              <param name="Z" type="float"/>
            </accessor>
          </technique_common>
        </source>
        <source id="chassis_default_as_machined__11-mesh-normals">
          <float_array id="chassis_default_as_machined__11-mesh-normals-array" count="1737">0 1 0 0 1 9.87752e-5 0 1 -4.94022e-5 0 1 9.87947e-5 0 1 -4.93974e-5 0 1 -4.93876e-5 0 1 -2.02486e-6 0 1 -1.23469e-5 0 1 2.46938e-5 0 1 2.47036e-5 0 1 -9.88142e-5 0 1 4.93974e-5 0 1 -9.87752e-5 0 1 -2.46987e-5 0 1 4.94071e-5 0 1 1.23493e-5 0 1 2.02726e-6 0 1 -2.47036e-5 0.9990481 0 0.04362279 0.9990481 0 0.04362457 0.9914337 0 0.1306108 0.9914356 0 0.1305968 0.9763048 0 0.2164 0.9763107 0 0.2163735 0.9537072 0 0.3007367 0.9536997 0 0.3007606 0.9238866 0 0.3826664 0.9239224 0 0.3825799 0.8869451 0 0.4618749 0.8869803 0 0.4618075 0.8434028 0 0.5372819 0.8434206 0 0.537254 0.7933685 0 0.6087418 0.7933466 0 0.6087702 0.7372757 0 0.675592 0.7372763 0 0.6755914 0.6756353 0 0.737236 0.6756149 0 0.7372547 0.5372782 0 0.8434051 0.5190407 5.70282e-5 0.8547496 0.5553021 0 0.8316487 0.6087675 0 0.7933487 0.5915508 5.73191e-5 0.8062677 0.625842 0 0.7799499 0.3825479 0 0.9239357 0.3624867 5.83088e-5 0.931989 0.4027708 0 0.9153009 0.4617326 0 0.8870192 0.442145 5.82474e-5 0.8969437 0.481247 0 0.8765851 0.2163915 0 0.9763067 0.1952541 5.80324e-5 0.9807528 0.2373933 0 0.9714136 0.3007479 0 0.9537037 0.2798212 5.80048e-5 0.9600521 0.3215313 0 0.9468989 0.0435695 0 0.9990504 0.02182435 5.82332e-5 0.9997618 0.06548202 0 0.9978538 0.1305195 0 0.9914458 0.1087362 5.79977e-5 0.9940707 0.1523501 0 0.9883267 -0.1303327 0 -0.9914703 -0.1525799 -2.86117e-5 -0.9882912 -0.1088184 0 -0.9940617 -0.04376667 0 -0.9990419 -0.0654565 -2.86861e-5 -0.9978555 -0.0216723 0 -0.9997652 -0.3006412 0 -0.9537373 -0.3217673 -2.8414e-5 -0.9468189 -0.2802904 0 -0.9599153 -0.2162936 0 -0.9763283 -0.2373757 -2.81407e-5 -0.971418 -0.1952771 0 -0.9807481 -0.4617722 0 -0.8869987 -0.4811913 -2.8952e-5 -0.8766157 -0.4422897 0 -0.8968723 -0.3825535 0 -0.9239333 -0.4026482 -2.84048e-5 -0.9153548 -0.3622749 0 -0.9320713 -0.6256921 -2.92908e-5 -0.7800701 -0.5912268 0 -0.8065055 -0.5371075 0 -0.8435138 -0.5557065 -2.89332e-5 -0.8313786 -0.518767 0 -0.8549157 -0.6087639 0 -0.7933515 -0.6756047 0 -0.7372641 -0.675589 0 -0.7372785 -0.7371667 0 -0.6757109 -0.7374473 0 -0.6754047 -0.7934198 0 -0.6086748 -0.7933956 0 -0.6087064 -0.8433451 0 -0.5373724 -0.8433499 0 -0.5373648 -0.8869895 0 -0.4617897 -0.8870124 0 -0.4617457 -0.9239111 0 -0.3826073 -0.9239416 0 -0.3825336 -0.9536481 0 -0.3009243 -0.9536774 0 -0.3008314 -0.9763473 0 -0.2162088 -0.9763157 0 -0.216351 -0.9914368 0 -0.1305877 -0.9914374 0 -0.1305826 -0.9990476 0 -0.04363596 -0.9990479 0 -0.04362684 -1 0 0 -0.9990482 0 0.04361993 -0.9990482 0 0.04361915 -0.9914336 0 0.1306121 -0.9914342 0 0.1306075 -0.976338 0 0.2162504 -0.9763255 0 0.2163065 -0.9536586 0 0.3008909 -0.9536696 0 0.3008563 -0.9239058 0 0.38262 -0.9239085 0 0.3826137 -0.8870278 0 0.4617162 -0.8870123 0 0.4617458 -0.8433983 0 0.5372889 -0.8433542 0 0.5373581 -0.7933731 0 0.6087356 -0.7934756 0 0.6086021 -0.7371247 0 0.6757568 -0.7373723 0 0.6754866 -0.6755163 0 0.7373451 -0.675684 0 0.7371915 -0.6259056 0 0.779899 -0.6088292 -1.28721e-5 0.7933015 -0.591056 0 0.8066306 -0.5552632 0 0.8316747 -0.5373239 -1.2699e-5 0.8433761 -0.5186929 0 0.8549607 -0.481099 0 0.8766663 -0.4618287 -1.26952e-5 0.8869692 -0.4420933 0 0.896969 -0.4030368 0 0.9151839 -0.3825979 -1.26875e-5 0.923915 -0.3619813 0 0.9321854 -0.3216711 0 0.9468514 -0.3008801 -1.24393e-5 0.9536621 -0.2799575 0 0.9600124 -0.2373139 0 0.9714331 -0.2165639 -1.24357e-5 0.9762685 -0.1947588 0 0.9808512 -0.151763 0 0.9884169 -0.1309613 -1.25129e-5 0.9913876 -0.1084703 0 0.9940997 -0.06588405 0 0.9978274 -0.04359573 -1.25427e-5 0.9990493 -0.02129143 0 0.9997733 0 0 1 1 0 0 0.02129143 0 0.9997733 0.04359573 -1.25325e-5 0.9990493 0.1309613 -1.25332e-5 0.9913876 0.1084703 0 0.9940997 0.06581431 0 0.997832 0.2165639 -1.27202e-5 0.9762685 0.1946585 0 0.9808712 0.1517722 0 0.9884155 0.3008801 -1.26832e-5 0.9536621 0.2799575 0 0.9600124 0.2372933 0 0.9714381 0.3825979 -1.25248e-5 0.923915 0.3619813 0 0.9321854 0.3215473 0 0.9468936 0.4617211 -1.25295e-5 0.8870252 0.4420933 0 0.896969 0.4031576 0 0.9151306 0.537443 -1.23762e-5 0.8433001 0.5189258 0 0.8548193 0.4809122 0 0.8767688 0.626235 -2.50745e-5 0.7796344 0.591056 0 0.8066306 0.5553544 0 0.8316138 0.6086522 0 0.7934371 0.6755933 0 0.7372745 0.6756071 0 0.737262 0.7372961 0 0.6755697 0.737201 0 0.6756736 0.7934758 0 0.6086021 0.7933731 0 0.6087357 0.8433542 0 0.5373581 0.8433983 0 0.537289 0.887048 0 0.4616773 0.886992 0 0.4617849 0.9239084 0 0.3826137 0.9239059 0 0.38262 0.9536544 0 0.3009045 0.9536738 0 0.3008428 0.9763334 0 0.2162711 0.9763301 0 0.216286 0.9914313 0 0.1306293 0.9914364 0 0.1305903 0.9990482 0 0.04361915 0.9990482 0 0.04361993 0 0 -1 0.9990479 0 -0.04362684 0.9990476 0 -0.04363596 0.9914374 0 -0.1305826 0.9914368 0 -0.1305877 0.9763244 0 -0.2163112 0.9763384 0 -0.2162485 0.9536604 0 -0.3008854 0.9536652 0 -0.3008702 0.923914 0 -0.3826003 0.9239388 0 -0.3825406 0.8870525 0 -0.4616685 0.8869492 0 -0.461867 0.8433499 0 -0.5373649 0.8433451 0 -0.5373724 0.7934656 0 -0.6086151 0.7933497 0 -0.6087663 0.7373609 0 -0.675499 0.7372533 0 -0.6756165 0.675486 0 -0.7373729 0.6757077 0 -0.7371698 0.5374959 0 -0.8432664 0.5185194 -2.81727e-5 -0.855066 0.555685 0 -0.8313931 0.6087112 0 -0.7933919 0.5911805 -2.85144e-5 -0.8065394 0.6259514 0 -0.7798622 0.3825553 0 -0.9239326 0.3624747 -2.83851e-5 -0.9319936 0.4024682 0 -0.9154341 0.4618846 0 -0.8869401 0.442391 -2.85543e-5 -0.8968223 0.4804311 0 -0.8770325 0.2165337 0 -0.9762752 0.1947116 -2.85965e-5 -0.9808605 0.2374266 0 -0.9714055 0.3009223 0 -0.9536488 0.2798457 -2.89625e-5 -0.9600451 0.3215135 0 -0.946905 0.04357922 0 -0.9990501 0.02168655 -2.86557e-5 -0.9997649 0.06582975 0 -0.9978309 0.1305417 0 -0.9914429 0.1084271 -2.87007e-5 -0.9941045 0.1524096 0 -0.9883174 -2.79198e-4 -0.706929 0.7072845 0 -0.7071048 0.7071088 0 -0.7071032 0.7071105 2.79088e-4 -0.7072082 0.7070054 0 -0.707418 0.7067955 -2.79336e-4 -0.7067193 0.707494 1.39577e-4 -0.7070948 0.7071188 0 -0.7073476 0.7068659 0 -0.7068597 0.7073539 2.79005e-4 -0.7075568 0.7066565 -1.39595e-4 -0.7071875 0.7070261 0 -0.7072343 0.7069792 2.79336e-4 -0.7067193 0.707494 -2.79098e-4 -0.7072343 0.7069792 -8.28927e-5 -0.707118 0.7070956 0 -0.7070088 0.7072048 2.80184e-4 -0.7071856 0.707028 -1.39343e-4 -0.7070251 0.7071884 0 -0.7072162 0.7069973 -1.39316e-4 -0.7071688 0.7070448 -2.79005e-4 -0.7075568 0.7066565 1.3964e-4 -0.7068594 0.7073541 -2.79088e-4 -0.7072082 0.7070054 0 -0.7072082 0.7070054 0 -0.7071096 0.707104 0 -0.707108 0.7071056 1.39599e-4 -0.706929 0.7072846 -1.49355e-4 -0.7073523 0.7068612 -1.3961e-4 -0.7069857 0.7072278 1.3927e-4 -0.7072135 0.7070002 0 -0.706936 0.7072776 1.39371e-4 -0.7068901 0.7073234 0 -0.7075991 0.7066143 2.79219e-4 -0.7069835 0.70723 2.80197e-4 -0.7072162 0.7069973 0 -0.7068615 0.707352 1.3934e-4 -0.7070099 0.7072037 -5.60371e-4 -0.7071877 0.7070257 -2.80308e-4 -0.706936 0.7072775 1.38861e-4 -0.706803 0.7074105 -2.82252e-4 -0.7073228 0.7068907 1.38792e-4 -0.7070049 0.7072087 -2.82433e-4 -0.7072127 0.7070009 0 -0.7071025 0.7071111 0 -0.7073583 0.7068552 2.82659e-4 -0.7066473 0.7075659 0 -0.7070873 0.7071263 0 -0.7073251 0.7068885 -1.38795e-4 -0.7070222 0.7071914 0 -0.7068901 0.7073234 -1.38808e-4 -0.7070873 0.7071263 2.82253e-4 -0.7073251 0.7068884 0 -0.7070222 0.7071914 2.82513e-4 -0.7068463 0.7073672 -2.77549e-4 -0.7071957 0.7070179 0 -0.7074155 0.706798 0 -0.7070418 0.7071719 2.82266e-4 -0.7073581 0.7068554 -1.39317e-4 -0.707171 0.7070426 0 -0.7070049 0.7072087 0 -0.7072127 0.7070009 1.38811e-4 -0.7071025 0.7071111 -2.82287e-4 -0.7074111 0.7068024 1.38802e-4 -0.7070569 0.7071567 2.82514e-4 -0.7068507 0.7073628 -1.38772e-4 -0.7071805 0.7070331 0 -0.7067934 0.7074201 0 -0.7071187 0.7070949 3.54691e-5 -0.7071112 0.7071024 -2.59999e-5 -0.7070938 0.7071198 0 -0.7071135 0.7071002 -7.58329e-6 -0.7070916 0.707122 -1.73334e-5 -0.7071003 0.7071133 0 -0.7070802 0.7071334 3.46647e-5 -0.7071252 0.7070884 3.54692e-5 -0.7071135 0.7071002 -7.58278e-6 -0.7071388 0.7070748 -1.74648e-5 -0.7071155 0.7070981 3.49287e-5 -0.7070959 0.7071177 3.49291e-5 -0.7071046 0.707109 -3.49299e-5 -0.7071199 0.7070937 0 -0.7070839 0.7071297 1.38005e-4 -0.707137 0.7070766 2.85644e-4 -0.707254 0.7069594 0 -0.7069839 0.7072297 0 -0.7072541 0.7069595 0 -0.7071456 0.707068 0 -0.7069103 0.7073032 0 -0.7070033 0.7072103 0 -0.7069461 0.7072675 0 -0.7072642 0.7069494 0 -0.7069462 0.7072673 0 -0.707279 0.7069346 0 -0.7071389 0.7070747 -3.49305e-5 -0.7070981 0.7071155 6.98608e-5 -0.707061 0.7071527 -6.98589e-5 -0.7071123 0.7071014 0 -0.707181 0.7070326 3.49272e-5 -0.7071352 0.7070784 0 -0.707137 0.7070766 0 -0.7069684 0.7072452 0 -0.7072599 0.7069537 -1.38007e-4 -0.7071456 0.707068 -2.8562e-4 -0.707196 0.7070175 2.76011e-4 -0.7071413 0.7070723 -2.8575e-4 -0.706946 0.7072675 -1.3803e-4 -0.7069882 0.7072254 -1.38804e-4 -0.7070656 0.707148 0 -0.7072318 0.7069818 0 -0.7069882 0.7072254 0 -0.7075082 0.7067052 0 -0.70704 0.7071737 2.85783e-4 -0.7070264 0.7071871 -1.37971e-4 -0.7072383 0.7069753 2.77553e-4 -0.7072044 0.7070092 -2.76011e-4 -0.7071413 0.7070723 2.85635e-4 -0.7072317 0.7069818 1.38003e-4 -0.7071262 0.7070874 -2.85747e-4 -0.7069371 0.7072764 1.37999e-4 -0.707109 0.7071046 -2.85611e-4 -0.7071737 0.7070398 0 -0.7071672 0.7070465 0 -0.7072887 0.7069249 0 -0.7069889 0.7072247 6.84758e-5 -0.7072181 0.7069955 0 -0.7072337 0.7069799 -2.85637e-4 -0.7072362 0.7069773 -3.44395e-5 -0.7071122 0.7071014 0 -0.7071545 0.7070592 -2.82416e-4 -0.7071686 0.707045 2.94557e-4 -0.7069916 0.7072219 0 -0.7070851 0.7071285 0 -0.7071686 0.707045 -5.35617e-5 -0.7071749 0.7070388 0 -0.707066 0.7071477 0 -0.7071068 0.7071068 0 -0.7070778 0.7071359 0 -0.7070435 0.7071701 3.54668e-5 -0.7071378 0.7070757 0 -0.707096 0.7071176 0 -0.70714 0.7070736 -3.46662e-5 -0.7071209 0.7070927 1.4189e-4 -0.7070403 0.7071733 -6.93318e-5 -0.7071155 0.7070981 1.41859e-4 -0.7071688 0.7070447 -6.93273e-5 -0.7071382 0.7070754 5.64919e-4 -0.7069963 0.707217 -2.23229e-4 -0.7069388 0.7072747 1.45156e-4 -0.7069117 0.7073018 2.85624e-4 -0.7072049 0.7070086 -1.03311e-4 -0.7071304 0.7070831 1.45119e-4 -0.7070206 0.707193 0 -0.7071324 0.7070811 0 -0.7070633 0.7071503 -3.41494e-5 -0.7071324 0.7070812 0 -0.7070702 0.7071434 0 -0.7071132 0.7071004 0 -0.7071251 0.7070885 -2.66014e-5 -0.7071018 0.7071118 0 -0.7071134 0.7071003 0 -0.7071024 0.7071112 3.46656e-5 -0.7071089 0.7071046 -7.09475e-5 -0.7070624 0.7071511 3.4665e-5 -0.7070971 0.7071166 -7.09381e-5 -0.7071112 0.7071024 0 -0.7071155 0.7070981 0 -0.707098 0.7071157 0 -0.7071382 0.7070754 -2.82403e-4 -0.7071377 0.7070759 1.60674e-4 -0.707162 0.7070516 0 -0.7074919 0.7067214 -1.4287e-4 -0.7069193 0.7072943 6.88741e-5 -0.7071304 0.7070831 0 -0.7070206 0.707193 0 -0.7070642 0.7071495 0 -0.7072097 0.7070039 1.70765e-5 -0.7071025 0.7071111 0 -0.7070771 0.7071366 0 -0.7070876 0.707126 0 -0.7070885 0.7071251 1.77336e-5 -0.7071284 0.7070852 1.77358e-5 -0.7070558 0.7071578 0 -0.7071242 0.7070893 3.68396e-6 -0.7071007 0.707113 1.74641e-5 -0.7071199 0.7070937 -8.73245e-6 -0.7071013 0.7071123 0 -0.7070893 0.7071242 0 -0.7071186 0.7070951 0 -0.7070927 0.7071209 0 -0.707109 0.7071046 -1.74647e-5 -0.707109 0.7071046 0 -0.7071395 0.7070741 -3.49325e-5 -0.7070347 0.7071788 0 -0.707141 0.7070726 0 -0.707109 0.7071046 0 -0.7071592 0.7070544 7.16319e-6 -0.7071076 0.707106 1.74649e-5 -0.707085 0.7071287 8.73245e-6 -0.7071013 0.7071123 0 -0.7071056 0.707108 0 -0.7070915 0.7071221 1.74651e-5 -0.7070915 0.7071221 1.7465e-5 -0.7070872 0.7071264 -6.98513e-5 -0.7071744 0.7070391 0 -0.7071235 0.7070901 0.02199935 0 -0.9997581 0.04352235 2.47596e-5 -0.9990525 0.1306105 2.46676e-5 -0.9914339 0.1087332 0 -0.9940711 0.06559103 0 -0.9978466 0.2162644 2.46743e-5 -0.9763349 0.1951041 0 -0.9807826 0.1521518 0 -0.9883572 0.3009229 2.47301e-5 -0.9536485 0.2797441 0 -0.9600747 0.2377344 0 -0.9713302 0.3826009 2.49089e-5 -0.9239138 0.3621344 0 -0.9321259 0.3215318 0 -0.9468988 0.4617202 2.49337e-5 -0.8870257 0.4426598 0 -0.8966896 0.4027148 0 -0.9153256 0.5372806 2.48011e-5 -0.8434036 0.5187352 0 -0.8549349 0.4808129 0 -0.8768233 0.6257316 4.92977e-5 -0.7800386 0.5913607 0 -0.8064073 0.5557886 0 -0.8313237 0.6087666 0 -0.7933494 0.6756166 0 -0.7372533 0.6755988 0 -0.7372695 0.737238 0 -0.6756331 0.7372385 0 -0.6756326 0.7934201 0 -0.6086745 0.7933705 0 -0.6087391 0.8433519 0 -0.5373619 0.8434394 0 -0.5372245 0.8869727 0 -0.4618222 0.8869857 0 -0.4617972 0.9238986 0 -0.3826377 0.9239178 0 -0.3825911 0.9536948 0 -0.3007761 0.9537033 0 -0.3007492 0.9763057 0 -0.2163963 0.976303 0 -0.2164083 0.9914353 0 -0.1305994 0.9914355 0 -0.1305977 0.9990483 0 -0.04361832 0.9990479 0 -0.04362726 -0.9990481 0 -0.04362356 -0.9990482 0 -0.04362201 -0.9914355 0 -0.1305977 -0.9914353 0 -0.1305994 -0.976303 0 -0.2164083 -0.9763057 0 -0.2163963 -0.9537486 0 -0.3006057 -0.953725 0 -0.3006806 -0.9238714 0 -0.3827033 -0.9238522 0 -0.3827498 -0.8870395 0 -0.4616938 -0.8870264 0 -0.4617187 -0.8433558 0 -0.5373557 -0.8433162 0 -0.5374177 -0.7933706 0 -0.6087391 -0.7934201 0 -0.6086744 -0.7372385 0 -0.6756326 -0.7372381 0 -0.6756331 -0.6755988 0 -0.7372695 -0.6756165 0 -0.7372533 -0.6261112 0 -0.7797338 -0.608649 2.49978e-5 -0.7934398 -0.5912354 0 -0.8064991 -0.5558272 0 -0.8312979 -0.5372806 2.52842e-5 -0.8434036 -0.5187352 0 -0.8549349 -0.4808644 0 -0.8767951 -0.4617202 2.4612e-5 -0.8870257 -0.4426598 0 -0.8966896 -0.4026336 0 -0.9153612 -0.3826473 2.48316e-5 -0.9238946 -0.3622231 0 -0.9320914 -0.3213065 0 -0.9469753 -0.3008853 2.45664e-5 -0.9536604 -0.2797441 0 -0.9600747 -0.2376614 0 -0.9713481 -0.2162922 2.47978e-5 -0.9763287 -0.1951544 0 -0.9807726 -0.1521109 0 -0.9883635 -0.1305935 2.47045e-5 -0.9914361 -0.1087048 0 -0.9940742 -0.06568843 0 -0.9978402 -0.04352235 2.47747e-5 -0.9990525 -0.02199935 0 -0.9997581 -0.1305528 0 0.9914414 -0.1520248 5.81019e-5 0.9883767 -0.1089297 0 0.9940496 -0.04366087 0 0.9990465 -0.0654934 5.82866e-5 0.9978531 -0.02170479 0 0.9997645 -0.3007543 0 0.9537017 -0.3212822 5.76626e-5 0.9469835 -0.2798345 0 0.9600483 -0.2163922 0 0.9763066 -0.2377183 5.82724e-5 0.9713342 -0.1949638 0 0.9808105 -0.461741 0 0.8870149 -0.4811697 5.75609e-5 0.8766275 -0.442249 0 0.8968923 -0.3827552 0 0.9238499 -0.4026514 5.81912e-5 0.9153534 -0.3624354 0 0.9320089 -0.6261225 5.81616e-5 0.7797248 -0.5912699 0 0.8064738 -0.5373483 0 0.8433604 -0.555478 5.86239e-5 0.8315313 -0.5186906 0 0.8549621 -0.6087533 0 0.7933597 -0.6756149 0 0.7372548 -0.6756354 0 0.737236 -0.7372763 0 0.6755914 -0.7372757 0 0.675592 -0.7933466 0 0.6087702 -0.7933685 0 0.6087418 -0.843361 0 0.5373474 -0.8433432 0 0.5373753 -0.8870341 0 0.4617041 -0.886999 0 0.4617714 -0.9238759 0 0.3826921 -0.9238402 0 0.3827784 -0.953746 0 0.3006139 -0.9537364 0 0.3006443 -0.9763107 0 0.2163735 -0.9763048 0 0.2164 -0.9914356 0 0.1305968 -0.9914337 0 0.1306108 -0.9990481 0 0.04362457 -0.9990481 0 0.04362279</float_array>
          <technique_common>
            <accessor source="#chassis_default_as_machined__11-mesh-normals-array" count="579" stride="3">
              <param name="X" type="float"/>
              <param name="Y" type="float"/>
              <param name="Z" type="float"/>
            </accessor>
          </technique_common>
        </source>
        <vertices id="chassis_default_as_machined__11-mesh-vertices">
          <input semantic="POSITION" source="#chassis_default_as_machined__11-mesh-positions"/>
        </vertices>
        <triangles count="736">
          <input semantic="VERTEX" source="#chassis_default_as_machined__11-mesh-vertices" offset="0"/>
          <input semantic="NORMAL" source="#chassis_default_as_machined__11-mesh-normals" offset="1"/>
          <p>0 0 1 0 2 0 1 0 3 0 2 0 2 1 3 1 4 1 3 0 5 0 4 0 4 0 5 0 6 0 5 0 7 0 6 0 6 0 7 0 8 0 7 2 9 2 8 2 8 3 9 3 10 3 9 0 11 0 10 0 10 0 11 0 12 0 11 0 13 0 12 0 12 0 13 0 14 0 13 0 15 0 14 0 14 0 15 0 16 0 15 0 17 0 16 0 16 0 17 0 18 0 17 0 19 0 18 0 18 0 19 0 20 0 19 0 21 0 20 0 20 0 21 0 22 0 21 0 23 0 22 0 22 0 23 0 24 0 23 0 25 0 24 0 24 0 25 0 26 0 25 4 27 4 26 4 26 3 27 3 28 3 27 0 29 0 28 0 28 0 29 0 30 0 29 0 31 0 30 0 30 0 31 0 32 0 31 4 33 4 32 4 32 0 33 0 34 0 33 0 35 0 34 0 34 0 35 0 36 0 35 0 37 0 36 0 36 0 37 0 38 0 37 0 39 0 38 0 38 0 39 0 40 0 39 0 41 0 40 0 40 0 41 0 42 0 41 0 43 0 42 0 42 0 43 0 44 0 43 0 45 0 44 0 44 0 45 0 46 0 45 0 47 0 46 0 46 0 47 0 48 0 47 0 49 0 48 0 48 5 49 5 50 5 49 0 51 0 50 0 50 0 51 0 52 0 51 0 53 0 52 0 52 0 53 0 54 0 53 0 55 0 54 0 54 0 55 0 56 0 55 0 57 0 56 0 56 0 57 0 58 0 57 0 59 0 58 0 58 6 59 6 60 6 59 0 61 0 60 0 60 7 61 7 62 7 61 0 63 0 62 0 62 8 63 8 64 8 63 9 65 9 64 9 64 0 65 0 66 0 65 0 67 0 66 0 66 0 67 0 68 0 67 0 69 0 68 0 68 0 69 0 70 0 69 0 71 0 70 0 70 0 71 0 72 0 71 0 73 0 72 0 72 0 73 0 74 0 73 0 75 0 74 0 74 0 75 0 76 0 75 0 77 0 76 0 76 0 77 0 78 0 77 0 79 0 78 0 78 10 79 10 80 10 79 0 81 0 80 0 80 0 81 0 82 0 81 0 83 0 82 0 82 0 83 0 84 0 83 0 85 0 84 0 84 10 85 10 86 10 85 0 87 0 86 0 86 0 87 0 88 0 87 0 89 0 88 0 88 0 89 0 90 0 89 0 91 0 90 0 90 0 91 0 92 0 91 0 93 0 92 0 92 0 93 0 94 0 93 0 95 0 94 0 94 0 95 0 96 0 95 0 97 0 96 0 96 0 97 0 98 0 97 0 99 0 98 0 98 0 99 0 100 0 99 0 101 0 100 0 100 0 101 0 102 0 101 11 103 11 102 11 102 12 103 12 104 12 103 0 105 0 104 0 104 0 105 0 106 0 105 0 107 0 106 0 106 0 107 0 108 0 107 11 109 11 108 11 108 0 109 0 110 0 109 0 111 0 110 0 110 0 111 0 112 0 111 0 113 0 112 0 112 0 113 0 114 0 113 0 115 0 114 0 114 0 115 0 116 0 115 0 117 0 116 0 116 0 117 0 118 0 117 0 119 0 118 0 118 0 119 0 120 0 119 0 121 0 120 0 120 0 121 0 122 0 121 9 123 9 122 9 122 0 123 0 124 0 123 13 125 13 124 13 124 14 125 14 126 14 125 0 127 0 126 0 126 5 127 5 128 5 127 15 129 15 128 15 128 0 129 0 130 0 129 0 131 0 130 0 130 0 131 0 132 0 131 0 133 0 132 0 132 0 133 0 134 0 133 0 135 0 134 0 134 16 135 16 136 16 135 0 137 0 136 0 136 0 137 0 138 0 137 8 139 8 138 8 138 17 139 17 140 17 139 0 141 0 140 0 140 5 141 5 142 5 141 0 143 0 142 0 142 0 143 0 144 0 143 0 145 0 144 0 144 0 145 0 146 0 145 0 147 0 146 0 146 0 147 0 148 0 147 0 149 0 148 0 148 0 149 0 150 0 149 0 151 0 150 0 150 0 151 0 0 0 151 0 1 0 0 0 152 18 17 18 15 18 152 19 15 19 153 19 15 20 13 20 153 20 153 21 13 21 154 21 13 22 11 22 154 22 154 23 11 23 155 23 11 24 9 24 155 24 155 25 9 25 156 25 9 26 7 26 156 26 156 27 7 27 157 27 7 28 5 28 157 28 157 29 5 29 158 29 5 30 3 30 158 30 158 31 3 31 159 31 3 32 1 32 159 32 159 33 1 33 160 33 1 34 151 34 160 34 160 35 151 35 161 35 151 36 149 36 161 36 161 37 149 37 162 37 147 38 145 38 163 38 163 39 164 39 147 39 164 40 165 40 147 40 147 41 165 41 149 41 165 42 166 42 149 42 149 43 166 43 162 43 143 44 141 44 167 44 167 45 168 45 143 45 168 46 169 46 143 46 143 47 169 47 145 47 169 48 170 48 145 48 145 49 170 49 163 49 139 50 137 50 171 50 171 51 172 51 139 51 172 52 173 52 139 52 139 53 173 53 141 53 173 54 174 54 141 54 141 55 174 55 167 55 135 56 133 56 175 56 175 57 176 57 135 57 176 58 177 58 135 58 135 59 177 59 137 59 177 60 178 60 137 60 137 61 178 61 171 61 134 62 136 62 179 62 179 63 180 63 134 63 180 64 181 64 134 64 134 65 181 65 132 65 181 66 182 66 132 66 132 67 182 67 183 67 138 68 140 68 184 68 184 69 185 69 138 69 185 70 186 70 138 70 138 71 186 71 136 71 186 72 187 72 136 72 136 73 187 73 179 73 142 74 144 74 188 74 188 75 189 75 142 75 189 76 190 76 142 76 142 77 190 77 140 77 190 78 191 78 140 78 140 79 191 79 184 79 192 80 193 80 146 80 193 81 194 81 146 81 146 82 194 82 144 82 194 83 195 83 144 83 144 84 195 84 188 84 146 85 148 85 192 85 148 86 150 86 192 86 192 87 150 87 196 87 150 88 0 88 196 88 196 89 0 89 197 89 0 90 2 90 197 90 197 91 2 91 198 91 2 92 4 92 198 92 198 93 4 93 199 93 4 94 6 94 199 94 199 95 6 95 200 95 6 96 8 96 200 96 200 97 8 97 201 97 8 98 10 98 201 98 201 99 10 99 202 99 10 100 12 100 202 100 202 101 12 101 203 101 12 102 14 102 203 102 203 103 14 103 204 103 14 104 16 104 204 104 204 105 16 105 205 105 18 106 206 106 16 106 206 106 205 106 16 106 206 107 18 107 20 107 206 108 20 108 207 108 20 109 22 109 207 109 207 110 22 110 208 110 22 111 24 111 208 111 208 112 24 112 209 112 24 113 26 113 209 113 209 114 26 114 210 114 26 115 28 115 210 115 210 116 28 116 211 116 28 117 30 117 211 117 211 118 30 118 212 118 30 119 32 119 212 119 212 120 32 120 213 120 32 121 34 121 213 121 213 122 34 122 214 122 34 123 36 123 214 123 214 124 36 124 215 124 36 125 38 125 215 125 215 126 38 126 216 126 216 127 38 127 217 127 38 128 40 128 217 128 217 129 40 129 218 129 218 130 40 130 219 130 40 131 42 131 219 131 219 132 42 132 220 132 220 133 42 133 221 133 42 134 44 134 221 134 221 135 44 135 222 135 222 136 44 136 223 136 44 137 46 137 223 137 223 138 46 138 224 138 224 139 46 139 225 139 46 140 48 140 225 140 225 141 48 141 226 141 226 142 48 142 227 142 48 143 50 143 227 143 227 144 50 144 228 144 228 145 50 145 229 145 50 146 52 146 229 146 229 147 52 147 230 147 230 148 52 148 231 148 52 149 54 149 231 149 231 150 54 150 232 150 56 151 233 151 54 151 233 151 232 151 54 151 94 152 234 152 92 152 234 152 235 152 92 152 233 153 56 153 236 153 56 154 58 154 236 154 60 155 237 155 58 155 237 156 238 156 58 156 58 157 238 157 236 157 62 158 239 158 60 158 239 159 240 159 60 159 60 160 240 160 237 160 64 161 241 161 62 161 241 162 242 162 62 162 62 163 242 163 239 163 66 164 243 164 64 164 243 165 244 165 64 165 64 166 244 166 241 166 68 167 245 167 66 167 245 168 246 168 66 168 66 169 246 169 243 169 70 170 247 170 68 170 247 171 248 171 68 171 68 172 248 172 245 172 249 173 250 173 70 173 250 174 251 174 70 174 70 175 251 175 247 175 70 176 72 176 249 176 72 177 74 177 249 177 249 178 74 178 252 178 74 179 76 179 252 179 252 180 76 180 253 180 76 181 78 181 253 181 253 182 78 182 254 182 78 183 80 183 254 183 254 184 80 184 255 184 80 185 82 185 255 185 255 186 82 186 256 186 82 187 84 187 256 187 256 188 84 188 257 188 84 189 86 189 257 189 257 190 86 190 258 190 86 191 88 191 258 191 258 192 88 192 259 192 88 193 90 193 259 193 259 194 90 194 260 194 90 195 92 195 260 195 260 196 92 196 235 196 132 197 183 197 130 197 183 197 261 197 130 197 234 198 94 198 96 198 234 199 96 199 262 199 96 200 98 200 262 200 262 201 98 201 263 201 98 202 100 202 263 202 263 203 100 203 264 203 100 204 102 204 264 204 264 205 102 205 265 205 102 206 104 206 265 206 265 207 104 207 266 207 104 208 106 208 266 208 266 209 106 209 267 209 106 210 108 210 267 210 267 211 108 211 268 211 108 212 110 212 268 212 268 213 110 213 269 213 110 214 112 214 269 214 269 215 112 215 270 215 112 216 114 216 270 216 270 217 114 217 271 217 116 218 118 218 272 218 272 219 273 219 116 219 273 220 274 220 116 220 116 221 274 221 114 221 274 222 275 222 114 222 114 223 275 223 271 223 120 224 122 224 276 224 276 225 277 225 120 225 277 226 278 226 120 226 120 227 278 227 118 227 278 228 279 228 118 228 118 229 279 229 272 229 124 230 126 230 280 230 280 231 281 231 124 231 281 232 282 232 124 232 124 233 282 233 122 233 282 234 283 234 122 234 122 235 283 235 276 235 128 236 130 236 261 236 261 237 284 237 128 237 284 238 285 238 128 238 128 239 285 239 126 239 285 240 286 240 126 240 126 241 286 241 280 241 231 242 232 242 287 242 287 243 232 243 288 243 232 244 233 244 288 244 288 245 233 245 289 245 233 242 236 242 289 242 289 246 236 246 290 246 236 247 238 247 290 247 290 248 238 248 291 248 287 249 292 249 231 249 292 250 293 250 231 250 231 251 293 251 230 251 293 252 294 252 230 252 230 253 294 253 229 253 284 254 295 254 285 254 295 248 296 248 285 248 285 255 296 255 286 255 181 256 178 256 177 256 291 257 238 257 297 257 238 258 237 258 297 258 297 259 237 259 298 259 237 260 240 260 298 260 298 261 240 261 299 261 181 262 177 262 182 262 177 263 176 263 182 263 182 264 176 264 183 264 176 265 175 265 183 265 183 266 175 266 261 266 175 267 300 267 261 267 261 265 300 265 284 265 300 268 301 268 284 268 284 269 301 269 295 269 294 270 302 270 229 270 302 271 303 271 229 271 229 272 303 272 228 272 303 273 304 273 228 273 228 274 304 274 227 274 296 275 305 275 286 275 305 259 306 259 286 259 286 276 306 276 280 276 306 261 307 261 280 261 280 277 307 277 281 277 178 278 181 278 171 278 181 279 180 279 171 279 171 271 180 271 172 271 180 280 179 280 172 280 172 273 179 273 173 273 299 281 240 281 308 281 240 282 239 282 308 282 308 283 239 283 309 283 239 284 242 284 309 284 309 285 242 285 310 285 173 286 179 286 174 286 179 287 187 287 174 287 174 288 187 288 167 288 187 289 186 289 167 289 167 290 186 290 168 290 304 291 311 291 227 291 311 292 312 292 227 292 227 293 312 293 226 293 312 294 313 294 226 294 226 295 313 295 225 295 313 296 314 296 225 296 225 297 314 297 224 297 314 298 315 298 224 298 224 299 315 299 223 299 307 300 316 300 281 300 316 301 317 301 281 301 281 302 317 302 282 302 317 303 318 303 282 303 282 304 318 304 283 304 318 305 319 305 283 305 283 306 319 306 276 306 319 307 320 307 276 307 276 308 320 308 277 308 321 309 255 309 322 309 255 310 256 310 322 310 322 311 256 311 323 311 256 312 257 312 323 312 323 313 257 313 324 313 157 314 199 314 156 314 199 315 200 315 156 315 156 316 200 316 155 316 200 317 201 317 155 317 155 318 201 318 154 318 325 319 209 319 326 319 209 320 210 320 326 320 326 321 210 321 327 321 210 322 211 322 327 322 327 323 211 323 328 323 310 324 242 324 329 324 242 325 241 325 329 325 329 326 241 326 330 326 241 327 244 327 330 327 330 328 244 328 331 328 244 329 243 329 331 329 331 330 243 330 332 330 243 331 246 331 332 331 332 332 246 332 333 332 333 333 246 333 334 333 246 334 245 334 334 334 334 335 245 335 335 335 336 336 264 336 337 336 264 337 265 337 337 337 337 338 265 338 338 338 265 339 266 339 338 339 338 340 266 340 339 340 168 341 186 341 169 341 186 342 185 342 169 342 169 343 185 343 170 343 185 342 184 342 170 342 170 344 184 344 163 344 184 345 191 345 163 345 163 346 191 346 164 346 191 347 190 347 164 347 164 348 190 348 165 348 315 349 340 349 223 349 340 330 341 330 223 330 223 350 341 350 222 350 341 351 342 351 222 351 222 352 342 352 221 352 342 353 343 353 221 353 221 354 343 354 220 354 343 355 344 355 220 355 320 356 345 356 277 356 345 357 346 357 277 357 277 358 346 358 278 358 346 359 347 359 278 359 278 360 347 360 279 360 347 361 348 361 279 361 279 362 348 362 272 362 348 363 349 363 272 363 165 364 190 364 166 364 190 365 189 365 166 365 166 366 189 366 162 366 245 367 248 367 335 367 248 368 247 368 335 368 335 369 247 369 350 369 351 370 218 370 344 370 218 371 219 371 344 371 344 372 219 372 220 372 352 373 274 373 349 373 274 374 273 374 349 374 349 375 273 375 272 375 189 376 188 376 162 376 188 377 195 377 162 377 162 378 195 378 161 378 211 379 212 379 328 379 212 380 213 380 328 380 328 381 213 381 353 381 213 382 214 382 353 382 353 383 214 383 354 383 214 384 215 384 354 384 354 385 215 385 355 385 215 386 216 386 355 386 355 387 216 387 351 387 216 388 217 388 351 388 351 389 217 389 218 389 247 390 251 390 350 390 251 391 250 391 350 391 350 392 250 392 356 392 250 393 249 393 356 393 356 394 249 394 357 394 249 395 252 395 357 395 357 396 252 396 358 396 252 397 253 397 358 397 358 398 253 398 321 398 253 399 254 399 321 399 321 400 254 400 255 400 266 401 267 401 339 401 267 402 268 402 339 402 339 403 268 403 359 403 268 404 269 404 359 404 359 405 269 405 360 405 269 406 270 406 360 406 360 407 270 407 361 407 270 408 271 408 361 408 361 409 271 409 352 409 271 410 275 410 352 410 352 411 275 411 274 411 195 412 194 412 161 412 194 413 193 413 161 413 161 414 193 414 160 414 193 415 192 415 160 415 160 416 192 416 159 416 192 417 196 417 159 417 159 418 196 418 158 418 196 419 197 419 158 419 158 420 197 420 157 420 197 421 198 421 157 421 157 422 198 422 199 422 201 423 202 423 154 423 202 424 203 424 154 424 154 425 203 425 153 425 203 426 204 426 153 426 153 427 204 427 152 427 204 428 205 428 152 428 152 429 205 429 362 429 205 430 206 430 362 430 362 431 206 431 363 431 206 432 207 432 363 432 363 433 207 433 325 433 207 434 208 434 325 434 325 435 208 435 209 435 257 436 258 436 324 436 258 437 259 437 324 437 324 438 259 438 364 438 259 439 260 439 364 439 364 440 260 440 365 440 260 424 235 424 365 424 365 441 235 441 366 441 235 441 234 441 366 441 366 442 234 442 367 442 234 443 262 443 367 443 367 444 262 444 336 444 262 445 263 445 336 445 336 446 263 446 264 446 152 152 362 152 17 152 362 152 19 152 17 152 287 447 55 447 292 447 55 448 53 448 292 448 51 449 294 449 53 449 294 450 293 450 53 450 53 451 293 451 292 451 49 452 303 452 51 452 303 453 302 453 51 453 51 454 302 454 294 454 47 455 311 455 49 455 311 456 304 456 49 456 49 457 304 457 303 457 45 458 313 458 47 458 313 459 312 459 47 459 47 460 312 460 311 460 43 461 315 461 45 461 315 462 314 462 45 462 45 463 314 463 313 463 41 464 341 464 43 464 341 465 340 465 43 465 43 466 340 466 315 466 344 467 343 467 41 467 343 468 342 468 41 468 41 469 342 469 341 469 41 470 39 470 344 470 39 471 37 471 344 471 344 472 37 472 351 472 37 473 35 473 351 473 351 474 35 474 355 474 35 475 33 475 355 475 355 476 33 476 354 476 33 477 31 477 354 477 354 478 31 478 353 478 31 479 29 479 353 479 353 480 29 480 328 480 29 481 27 481 328 481 328 482 27 482 327 482 27 483 25 483 327 483 327 484 25 484 326 484 25 485 23 485 326 485 326 486 23 486 325 486 23 487 21 487 325 487 325 488 21 488 363 488 21 489 19 489 363 489 363 490 19 490 362 490 287 197 288 197 55 197 288 197 57 197 55 197 365 491 93 491 91 491 365 492 91 492 364 492 91 493 89 493 364 493 364 494 89 494 324 494 89 495 87 495 324 495 324 496 87 496 323 496 87 497 85 497 323 497 323 498 85 498 322 498 85 499 83 499 322 499 322 500 83 500 321 500 83 501 81 501 321 501 321 502 81 502 358 502 81 503 79 503 358 503 358 504 79 504 357 504 79 505 77 505 357 505 357 506 77 506 356 506 77 507 75 507 356 507 356 508 75 508 350 508 75 509 73 509 350 509 350 510 73 510 335 510 335 511 73 511 334 511 73 512 71 512 334 512 334 513 71 513 333 513 333 514 71 514 332 514 71 515 69 515 332 515 332 516 69 516 331 516 331 517 69 517 330 517 69 518 67 518 330 518 330 519 67 519 329 519 329 520 67 520 310 520 67 521 65 521 310 521 310 522 65 522 309 522 309 523 65 523 308 523 65 524 63 524 308 524 308 525 63 525 299 525 299 526 63 526 298 526 63 527 61 527 298 527 298 528 61 528 297 528 297 529 61 529 291 529 61 530 59 530 291 530 291 531 59 531 290 531 290 532 59 532 289 532 59 533 57 533 289 533 289 534 57 534 288 534 365 106 366 106 93 106 366 106 95 106 93 106 129 535 127 535 305 535 305 536 296 536 129 536 296 537 295 537 129 537 129 538 295 538 131 538 295 539 301 539 131 539 131 540 301 540 300 540 125 541 123 541 317 541 317 542 316 542 125 542 316 543 307 543 125 543 125 544 307 544 127 544 307 545 306 545 127 545 127 546 306 546 305 546 121 547 119 547 345 547 345 548 320 548 121 548 320 549 319 549 121 549 121 550 319 550 123 550 319 551 318 551 123 551 123 552 318 552 317 552 349 553 348 553 117 553 348 554 347 554 117 554 117 555 347 555 119 555 347 556 346 556 119 556 119 557 346 557 345 557 117 558 115 558 349 558 115 559 113 559 349 559 349 560 113 560 352 560 113 561 111 561 352 561 352 562 111 562 361 562 111 563 109 563 361 563 361 564 109 564 360 564 109 565 107 565 360 565 360 566 107 566 359 566 107 567 105 567 359 567 359 568 105 568 339 568 105 569 103 569 339 569 339 570 103 570 338 570 103 571 101 571 338 571 338 572 101 572 337 572 101 573 99 573 337 573 337 574 99 574 336 574 99 575 97 575 336 575 336 576 97 576 367 576 97 577 95 577 367 577 367 578 95 578 366 578 300 151 175 151 131 151 175 151 133 151 131 151</p>
        </triangles>
      </mesh>
    </geometry>
  </library_geometries>
  <library_visual_scenes>
    <visual_scene id="Scene" name="Scene">
      <node id="chassis_default_as_machined__11" name="chassis_default_as_machined__11" type="NODE">
        <matrix sid="transform">1 0 0 0 0 1 0 0 0 0 1 0 0 0 0 1</matrix>
        <instance_geometry url="#chassis_default_as_machined__11-mesh" name="chassis_default_as_machined__11"/>
      </node>
    </visual_scene>
  </library_visual_scenes>
  <scene>
    <instance_visual_scene url="#Scene"/>
  </scene>
</COLLADA>