<?xml version="1.0" encoding="utf-8"?>
<COLLADA xmlns="http://www.collada.org/2005/11/COLLADASchema" version="1.4.1" xmlns:xsi="http://www.w3.org/2001/XMLSchema-instance">
  <asset>
    <contributor>
      <author>Blender User</author>
      <authoring_tool>Blender 3.0.1</authoring_tool>
    </contributor>
    <created>2026-06-04T16:18:30</created>
    <modified>2026-06-04T16:18:30</modified>
    <unit name="meter" meter="1"/>
    <up_axis>Z_UP</up_axis>
  </asset>
  <library_images/>
  <library_geometries>
    <geometry id="chassis_default_as_machined__14-mesh" name="chassis_default_as_machined__14">
      <mesh>
        <source id="chassis_default_as_machined__14-mesh-positions">
          <float_array id="chassis_default_as_machined__14-mesh-positions-array" count="1104">-0.585 -0.01239997 -0.2902 -0.585 -0.01499998 -0.2902 -0.585 -0.01239007 -0.2899734 -0.585 -0.01498019 -0.2897468 -0.585 -0.01236045 -0.2897485 -0.585 -0.01492094 -0.2892971 -0.585 -0.01231139 -0.2895271 -0.585 -0.01482278 -0.2888541 -0.585 -0.01224315 -0.2893108 -0.585 -0.0146864 -0.2884215 -0.585 -0.01215636 -0.2891012 -0.585 -0.01451277 -0.2880024 -0.585 -0.01205164 -0.2889 -0.585 -0.01430332 -0.2876 -0.585 -0.01192975 -0.2887087 -0.585 -0.01405954 -0.2872174 -0.585 -0.0117917 -0.2885288 -0.585 -0.01378339 -0.2868575 -0.585 -0.01163846 -0.2883615 -0.585 -0.0134769 -0.2865231 -0.585 -0.01147121 -0.2882083 -0.585 -0.01314246 -0.2862166 -0.585 -0.01129126 -0.2880702 -0.585 -0.01278257 -0.2859404 -0.585 -0.01109999 -0.2879483 -0.585 -0.01239997 -0.2856966 -0.585 -0.01089876 -0.2878436 -0.585 -0.01199758 -0.2854872 -0.585 -0.01068919 -0.2877568 -0.585 -0.0115785 -0.2853136 -0.585 -0.01047289 -0.2876886 -0.585 -0.01114583 -0.2851772 -0.585 -0.01025146 -0.2876395 -0.585 -0.01070296 -0.285079 -0.585 -0.01002657 -0.2876099 -0.585 -0.01025319 -0.2850198 -0.585 -0.009799957 -0.2876 -0.585 -0.009799957 -0.285 -0.585 0.009799957 -0.2876 -0.585 0.009799957 -0.285 -0.585 0.01002657 -0.2876099 -0.585 0.01025319 -0.2850198 -0.585 0.01025146 -0.2876395 -0.585 0.01070296 -0.285079 -0.585 0.01047289 -0.2876886 -0.585 0.01114583 -0.2851772 -0.585 0.01068919 -0.2877568 -0.585 0.0115785 -0.2853136 -0.585 0.01089876 -0.2878436 -0.585 0.01199758 -0.2854872 -0.585 0.01109999 -0.2879483 -0.585 0.01239997 -0.2856966 -0.585 0.01129126 -0.2880702 -0.585 0.01278257 -0.2859404 -0.585 0.01147121 -0.2882083 -0.585 0.01314246 -0.2862166 -0.585 0.01163846 -0.2883615 -0.585 0.0134769 -0.2865231 -0.585 0.0117917 -0.2885288 -0.585 0.01378339 -0.2868575 -0.585 0.01192975 -0.2887087 -0.585 0.01405954 -0.2872174 -0.585 0.01205164 -0.2889 -0.585 0.01430332 -0.2876 -0.585 0.01215636 -0.2891012 -0.585 0.01451277 -0.2880024 -0.585 0.01224315 -0.2893108 -0.585 0.0146864 -0.2884215 -0.585 0.01231139 -0.2895271 -0.585 0.01482278 -0.2888541 -0.585 0.01236045 -0.2897485 -0.585 0.01492094 -0.2892971 -0.585 0.01239007 -0.2899734 -0.585 0.01498019 -0.2897468 -0.585 0.01239997 -0.2902 -0.585 0.01499998 -0.2902 -0.585 0.01239997 -0.3098 -0.585 0.01499998 -0.3098 -0.585 0.01239007 -0.3100266 -0.585 0.01498019 -0.3102532 -0.585 0.01236045 -0.3102515 -0.585 0.01492094 -0.310703 -0.585 0.01231139 -0.3104729 -0.585 0.01482278 -0.3111459 -0.585 0.01224315 -0.3106892 -0.585 0.0146864 -0.3115785 -0.585 0.01215636 -0.3108988 -0.585 0.01451277 -0.3119976 -0.585 0.01205164 -0.3111 -0.585 0.01430332 -0.3124 -0.585 0.01192975 -0.3112913 -0.585 0.01405954 -0.3127826 -0.585 0.0117917 -0.3114712 -0.585 0.01378339 -0.3131425 -0.585 0.01163846 -0.3116385 -0.585 0.0134769 -0.3134769 -0.585 0.01147121 -0.3117917 -0.585 0.01314246 -0.3137834 -0.585 0.01129126 -0.3119298 -0.585 0.01278257 -0.3140596 -0.585 0.01109999 -0.3120517 -0.585 0.01239997 -0.3143033 -0.585 0.01089876 -0.3121564 -0.585 0.01199758 -0.3145128 -0.585 0.01068919 -0.3122432 -0.585 0.0115785 -0.3146864 -0.585 0.01047289 -0.3123114 -0.585 0.01114583 -0.3148228 -0.585 0.01025146 -0.3123605 -0.585 0.01070296 -0.314921 -0.585 0.01002657 -0.3123901 -0.585 0.01025319 -0.3149802 -0.585 0.009799957 -0.3124 -0.585 0.009799957 -0.315 -0.585 -0.009799957 -0.3124 -0.585 -0.009799957 -0.315 -0.585 -0.01002657 -0.3123901 -0.585 -0.01025319 -0.3149802 -0.585 -0.01025146 -0.3123605 -0.585 -0.01070296 -0.314921 -0.585 -0.01047289 -0.3123114 -0.585 -0.01114583 -0.3148228 -0.585 -0.01068919 -0.3122432 -0.585 -0.0115785 -0.3146864 -0.585 -0.01089876 -0.3121564 -0.585 -0.01199758 -0.3145128 -0.585 -0.01109999 -0.3120517 -0.585 -0.01239997 -0.3143033 -0.585 -0.01129126 -0.3119298 -0.585 -0.01278257 -0.3140596 -0.585 -0.01147121 -0.3117917 -0.585 -0.01314246 -0.3137834 -0.585 -0.01163846 -0.3116385 -0.585 -0.0134769 -0.3134769 -0.585 -0.0117917 -0.3114712 -0.585 -0.01378339 -0.3131425 -0.585 -0.01192975 -0.3112913 -0.585 -0.01405954 -0.3127826 -0.585 -0.01205164 -0.3111 -0.585 -0.01430332 -0.3124 -0.585 -0.01215636 -0.3108988 -0.585 -0.01451277 -0.3119976 -0.585 -0.01224315 -0.3106892 -0.585 -0.0146864 -0.3115785 -0.585 -0.01231139 -0.3104729 -0.585 -0.01482278 -0.3111459 -0.585 -0.01236045 -0.3102515 -0.585 -0.01492094 -0.310703 -0.585 -0.01239007 -0.3100266 -0.585 -0.01498019 -0.3102532 -0.585 -0.01239997 -0.3098 -0.585 -0.01499998 -0.3098 -0.01239752 0.01239752 -0.2900866 -0.01239997 0.01239997 -0.2902 -0.01499998 0.01499998 -0.2902 -0.01499998 0.01499998 -0.3098 -0.01239997 0.01239997 -0.3098 -0.01499503 0.01499503 -0.3100268 -0.01239752 0.01239752 -0.3099134 -0.01498019 0.01498019 -0.3102532 -0.01239007 0.01239007 -0.3100266 -0.01495546 0.01495546 -0.3104788 -0.01492094 0.01492094 -0.310703 -0.01237773 0.01237773 -0.3101394 -0.01487672 0.01487672 -0.3109255 -0.01236045 0.01236045 -0.3102515 -0.01482278 0.01482278 -0.3111459 0.01239752 -0.01239752 -0.3099134 0.01498019 -0.01498019 -0.3102532 0.01239007 -0.01239007 -0.3100266 0.01495546 -0.01495546 -0.3104788 0.01237773 -0.01237773 -0.3101394 0.01239007 -0.01239007 -0.2899734 0.01495546 -0.01495546 -0.2895213 0.01498019 -0.01498019 -0.2897468 -0.01499503 0.01499503 -0.2899731 -0.01498019 0.01498019 -0.2897468 -0.01239007 0.01239007 -0.2899734 -0.01495546 0.01495546 -0.2895213 -0.01237773 0.01237773 -0.2898606 0.01239752 -0.01239752 -0.2900866 0.01499503 -0.01499503 -0.2899731 0.01239997 -0.01239997 -0.2902 0.01499998 -0.01499998 -0.2902 0.01239997 -0.01239997 -0.3098 0.01499998 -0.01499998 -0.3098 0.01499503 -0.01499503 -0.3100268 -0.0147593 0.0147593 -0.3113636 -0.01233834 0.01233834 -0.3103628 -0.0146864 0.0146864 -0.3115785 -0.01231139 0.01231139 -0.3104729 -0.01460415 0.01460415 -0.3117899 0.01492094 -0.01492094 -0.310703 0.01487672 -0.01487672 -0.3109255 0.01236045 -0.01236045 -0.3102515 0.01482278 -0.01482278 -0.3111459 0.01233834 -0.01233834 -0.3103628 0.01492094 -0.01492094 -0.2892971 0.01237773 -0.01237773 -0.2898606 0.01487672 -0.01487672 -0.2890745 0.01236045 -0.01236045 -0.2897485 0.01482278 -0.01482278 -0.2888541 -0.01492094 0.01492094 -0.2892971 -0.01487672 0.01487672 -0.2890745 -0.01236045 0.01236045 -0.2897485 -0.01482278 0.01482278 -0.2888541 -0.01233834 0.01233834 -0.2896373 0.0147593 -0.0147593 -0.2886363 0.01233834 -0.01233834 -0.2896373 0.0146864 -0.0146864 -0.2884215 0.01231139 -0.01231139 -0.2895271 0.01460415 -0.01460415 -0.28821 -0.01199758 0.01199758 -0.3145128 -0.01109999 0.01109999 -0.3120517 -0.0115785 0.0115785 -0.3146864 -0.01089876 0.01089876 -0.3121564 -0.01114583 0.01114583 -0.3148228 -0.01068919 0.01068919 -0.3122432 -0.01070296 0.01070296 -0.314921 0.0147593 -0.0147593 -0.3113636 0.0146864 -0.0146864 -0.3115785 0.01231139 -0.01231139 -0.3104729 0.01460415 -0.01460415 -0.3117899 0.01227962 -0.01227962 -0.3105818 0.01451277 -0.01451277 -0.3119976 0.01224315 -0.01224315 -0.3106892 0.0144124 -0.0144124 -0.3122011 0.01220208 -0.01220208 -0.310795 -0.0147593 0.0147593 -0.2886363 -0.0146864 0.0146864 -0.2884215 -0.01231139 0.01231139 -0.2895271 -0.01460415 0.01460415 -0.28821 -0.01227962 0.01227962 -0.2894182 -0.01451277 0.01451277 -0.2880024 -0.01224315 0.01224315 -0.2893108 -0.0144124 0.0144124 -0.2877989 -0.01220208 0.01220208 -0.289205 -0.01451277 0.01451277 -0.3119976 -0.01227962 0.01227962 -0.3105818 -0.0144124 0.0144124 -0.3122011 -0.01224315 0.01224315 -0.3106892 -0.01430332 0.01430332 -0.3124 -0.01220208 0.01220208 -0.310795 -0.0141856 0.0141856 -0.3125939 -0.01215636 0.01215636 -0.3108988 -0.01405954 0.01405954 -0.3127826 -0.01392543 0.01392543 -0.3129656 -0.01210618 0.01210618 -0.3110005 -0.01378339 0.01378339 -0.3131425 0.01070296 -0.01070296 -0.314921 0.01047289 -0.01047289 -0.3123114 0.01114583 -0.01114583 -0.3148228 0.01068919 -0.01068919 -0.3122432 0.0115785 -0.0115785 -0.3146864 0.01089876 -0.01089876 -0.3121564 0.01199758 -0.01199758 -0.3145128 0.01199758 -0.01199758 -0.2854872 0.01109999 -0.01109999 -0.2879483 0.0115785 -0.0115785 -0.2853136 0.01089876 -0.01089876 -0.2878436 0.01114583 -0.01114583 -0.2851772 0.01068919 -0.01068919 -0.2877568 0.01070296 -0.01070296 -0.285079 -0.01070296 0.01070296 -0.285079 -0.01047289 0.01047289 -0.2876886 -0.01114583 0.01114583 -0.2851772 -0.01068919 0.01068919 -0.2877568 -0.0115785 0.0115785 -0.2853136 -0.01089876 0.01089876 -0.2878436 -0.01199758 0.01199758 -0.2854872 0.01451277 -0.01451277 -0.2880024 0.01227962 -0.01227962 -0.2894182 0.0144124 -0.0144124 -0.2877989 0.01224315 -0.01224315 -0.2893108 0.01430332 -0.01430332 -0.2876 0.01220208 -0.01220208 -0.289205 0.0141856 -0.0141856 -0.287406 0.01215636 -0.01215636 -0.2891012 0.01405954 -0.01405954 -0.2872174 -0.01205164 0.01205164 -0.3111 -0.01199281 0.01199281 -0.311197 -0.0134769 0.0134769 -0.3134769 0.01430332 -0.01430332 -0.3124 0.0141856 -0.0141856 -0.3125939 0.01215636 -0.01215636 -0.3108988 0.01405954 -0.01405954 -0.3127826 0.01210618 -0.01210618 -0.3110005 0.01392543 -0.01392543 -0.3129656 0.01205164 -0.01205164 -0.3111 0.01378339 -0.01378339 -0.3131425 0.01392543 -0.01392543 -0.2870345 0.01210618 -0.01210618 -0.2889994 0.01378339 -0.01378339 -0.2868575 -0.01430332 0.01430332 -0.2876 -0.0141856 0.0141856 -0.287406 -0.01215636 0.01215636 -0.2891012 -0.01405954 0.01405954 -0.2872174 -0.01210618 0.01210618 -0.2889994 -0.01392543 0.01392543 -0.2870345 -0.01205164 0.01205164 -0.2889 -0.01378339 0.01378339 -0.2868575 -0.01192975 0.01192975 -0.3112913 -0.01186269 0.01186269 -0.3113828 -0.01314246 0.01314246 -0.3137834 -0.0117917 0.0117917 -0.3114712 -0.01278257 0.01278257 -0.3140596 -0.01163846 0.01163846 -0.3116385 -0.01239997 0.01239997 -0.3143033 -0.01147121 0.01147121 -0.3117917 -0.01129126 0.01129126 -0.3119298 0.0134769 -0.0134769 -0.3134769 0.01192975 -0.01192975 -0.3112913 0.01199281 -0.01199281 -0.311197 0.01205164 -0.01205164 -0.2889 0.01199281 -0.01199281 -0.288803 0.0134769 -0.0134769 -0.2865231 -0.0134769 0.0134769 -0.2865231 -0.01192975 0.01192975 -0.2887087 -0.01199281 0.01199281 -0.288803 0.01109999 -0.01109999 -0.3120517 0.01129126 -0.01129126 -0.3119298 0.01239997 -0.01239997 -0.3143033 0.01147121 -0.01147121 -0.3117917 0.01278257 -0.01278257 -0.3140596 0.01163846 -0.01163846 -0.3116385 0.01314246 -0.01314246 -0.3137834 0.0117917 -0.0117917 -0.3114712 0.01186269 -0.01186269 -0.3113828 -0.01109999 0.01109999 -0.2879483 -0.01129126 0.01129126 -0.2880702 -0.01239997 0.01239997 -0.2856966 -0.01147121 0.01147121 -0.2882083 -0.01278257 0.01278257 -0.2859404 -0.01163846 0.01163846 -0.2883615 -0.01314246 0.01314246 -0.2862166 -0.0117917 0.0117917 -0.2885288 -0.01186269 0.01186269 -0.2886172 -0.01047289 0.01047289 -0.3123114 -0.01025146 0.01025146 -0.3123605 -0.01025319 0.01025319 -0.3149802 -0.01002657 0.01002657 -0.3123901 -0.009799957 0.009799957 -0.315 -0.009799957 0.009799957 -0.3124 0.009799957 -0.009799957 -0.315 0.009799957 -0.009799957 -0.3124 0.01025319 -0.01025319 -0.3149802 0.01002657 -0.01002657 -0.3123901 0.01025146 -0.01025146 -0.3123605 0.01192975 -0.01192975 -0.2887087 0.01186269 -0.01186269 -0.2886172 0.01314246 -0.01314246 -0.2862166 0.0117917 -0.0117917 -0.2885288 0.01278257 -0.01278257 -0.2859404 0.01163846 -0.01163846 -0.2883615 0.01239997 -0.01239997 -0.2856966 0.01147121 -0.01147121 -0.2882083 0.01129126 -0.01129126 -0.2880702 0.01047289 -0.01047289 -0.2876886 0.01025146 -0.01025146 -0.2876395 0.01025319 -0.01025319 -0.2850198 0.01002657 -0.01002657 -0.2876099 0.009799957 -0.009799957 -0.285 0.009799957 -0.009799957 -0.2876 -0.009799957 0.009799957 -0.285 -0.009799957 0.009799957 -0.2876 -0.01025319 0.01025319 -0.2850198 -0.01002657 0.01002657 -0.2876099 -0.01025146 0.01025146 -0.2876395</float_array>
          <technique_common>
            <accessor source="#chassis_default_as_machined__14-mesh-positions-array" count="368" stride="3">
              <param name="X" type="float"/>
              <param name="Y" type="float"/>
              <param name="Z" type="float"/>
            </accessor>
          </technique_common>
        </source>
        <source id="chassis_default_as_machined__14-mesh-normals">
          <float_array id="chassis_default_as_machined__14-mesh-normals-array" count="1686">-1 0 0 -1 1.77522e-5 0 -1 -4.93925e-5 0 -1 4.93974e-5 0 -1 -1.97628e-4 0 -1 -9.87752e-5 0 -1 -1.9755e-4 0 -1 -3.95179e-4 0 -1 3.95101e-4 0 -1 -1.97594e-4 0 -1 1.97589e-4 0 -1 3.95179e-4 0 -1 1.9758e-4 0 -1 -3.9514e-4 0 -1 3.95218e-4 0 -1 1.9757e-4 0 -1 -9.88045e-5 0 -1 1.97628e-4 0 -1 -1.97589e-4 0 -1 9.87947e-5 0 -1 -1.77522e-5 0 -1 -4.93974e-5 0 -1 1.9755e-4 0 -1 -9.88142e-5 0 -1 3.95173e-4 0 -1 -3.95189e-4 0 -1 3.95257e-4 0 -1 -9.87947e-5 0 -1 -9.87849e-5 0 0.707022 0.7071916 0 0.7071076 0.707106 0 0.7071058 0.7071078 0 0.7070454 0.7071682 0 0.7071613 0.7070523 0 0.7070692 0.7071444 -8.72494e-6 0.7070457 0.7071679 0 0.7070261 0.7071875 0 0.7071492 0.7070643 -8.70702e-6 0.7071353 0.7070783 0 0.7071645 0.7070491 8.70721e-6 0.7070761 0.7071375 0 0.7070546 0.7071591 0 0.707327 0.7068865 0 0.7070608 0.7071529 3.8854e-6 0.7071849 0.7070288 0 0.7070692 0.7071444 8.72494e-6 0.7071384 0.7070752 0 0.7070719 0.7071417 0 0.7072343 0.7069792 0 0.7070689 0.7071447 -8.72494e-6 0.7070217 0.7071919 0 0.707185 0.7070286 0 0.7071074 0.7071062 0 0.707106 0.7071076 0 0.7071616 0.707052 0 0.7070453 0.7071683 0 0.7070978 0.7071158 4.94166e-6 0.7071513 0.7070624 0 0.7068971 0.7073163 0 0.7071849 0.7070288 0 0.7071289 0.7070847 -1.765e-5 0.7071307 0.7070829 8.67432e-6 0.7070534 0.7071602 8.72475e-6 0.7071645 0.7070491 -8.70721e-6 0.7070017 0.7072119 0 0.7070455 0.7071681 0 0.7071895 0.7070241 8.7058e-6 0.7070992 0.7071144 0 0.7070545 0.7071592 8.72476e-6 0.7071895 0.7070241 -8.7058e-6 0.7070893 0.7071243 0 0.7071079 0.7071058 0 0.7072656 0.706948 0 0.7071133 0.7071003 0 0.7067624 0.707451 -1.76549e-5 0.7071089 0.7071046 -1.0833e-6 0.7070869 0.7071268 0 0.7071079 0.7071058 -2.70825e-7 0.7071135 0.7071002 0 0.7071014 0.7071123 0 0.7071003 0.7071133 0 0.7071289 0.7070847 1.765e-5 0.7071307 0.7070829 -8.67432e-6 0.7070569 0.7071567 -4.33756e-6 0.7071332 0.7070803 0 0.7070808 0.7071328 0 0.707217 0.7069965 0 0.707195 0.7070187 0 0.7067624 0.707451 1.76549e-5 0.7071263 0.7070873 -4.33713e-6 0.7070114 0.7072022 0 0.707076 0.7071377 0 0.707068 0.7071456 0 0.7071112 0.7071023 -8.92817e-6 0.7070896 0.7071241 0 0.7071157 0.7070978 0 0.707109 0.7071046 0 0.7070533 0.7071604 -8.92744e-6 0.7071413 0.7070723 0 0.7072318 0.7069818 0 0.7071607 0.7070529 0 0.7070875 0.7071261 4.28061e-6 0.7068392 0.7073743 -9.07134e-6 0.7071796 0.7070341 4.28033e-6 0.7071123 0.7071014 0 0.7070675 0.7071461 1.09158e-6 0.7071046 0.707109 -1.09153e-6 0.7071199 0.7070937 2.18312e-6 0.7071003 0.7071133 -1.08331e-6 0.7071046 0.707109 0 0.7070948 0.7071188 0 0.7071199 0.7070937 1.0915e-6 0.7071221 0.7070915 -1.09151e-6 0.7071024 0.7071111 2.18317e-6 0.707137 0.7070766 0 0.7069728 0.7072408 0 0.7071478 0.7070659 0 0.7071961 0.7070176 -8.92564e-6 0.7070378 0.7071759 0 0.707089 0.7071247 0 0.7070918 0.7071219 0 0.7071521 0.7070615 -9.06791e-6 0.7069461 0.7072675 0 0.7071444 0.7070691 -2.15236e-6 0.7070288 0.7071849 4.33739e-6 0.7069371 0.7072765 0 0.7070421 0.7071714 4.31292e-6 0.7072452 0.7069684 -8.92626e-6 0.7071349 0.7070788 4.31264e-6 0.7071218 0.7070918 4.28081e-6 0.7070524 0.7071613 -9.07036e-6 0.7071111 0.7071025 4.28075e-6 0.7072066 0.7070071 4.33677e-6 0.7071514 0.7070621 0 0.7070745 0.7071391 4.31311e-6 0.7073209 0.7068926 -8.92361e-6 0.707068 0.7071456 4.31307e-6 0.7069979 0.7072156 9.06966e-6 0.7069728 0.7072408 -8.93003e-6 0.7071294 0.7070842 0 0.7071158 0.7070977 0 0.7071154 0.7070983 0 0.7071183 0.7070954 0 0.7070812 0.7071324 1.06727e-6 0.7071068 0.7071068 -2.28725e-6 0.7070962 0.7071175 0 0.7070953 0.7071182 0 0.7071142 0.7070994 1.66264e-6 0.7070851 0.7071285 0 0.7072436 0.70697 0 0.7070008 0.7072129 -3.06936e-6 0.7072337 0.7069799 -9.06524e-6 0.7070934 0.7071202 0 0.7070799 0.7071337 -2.15248e-6 0.7071068 0.7071068 0 0.7071024 0.7071112 0 0.7071213 0.7070923 -3.06887e-6 0.7070981 0.7071155 2.18305e-6 0.7071179 0.7070958 -2.21684e-6 0.7071123 0.7071014 1.08331e-6 0.7070802 0.7071334 -2.21694e-6 0.7071219 0.7070916 0 0.7070381 0.7071756 0 0.7071296 0.7070841 2.16656e-6 0.7070869 0.7071267 -4.43392e-6 0.7071036 0.7071101 0 0.7072215 0.7069921 0 0.7069971 0.7072165 6.13922e-6 0.707133 0.7070806 2.18294e-6 0.7070949 0.7071187 1.08333e-6 0.7071157 0.707098 -2.21683e-6 0.7070873 0.7071263 0 0.7071445 0.7070691 0 0.7070949 0.7071187 2.16666e-6 0.7071223 0.7070913 -4.4337e-6 0.7071209 0.7070927 0 0.7070097 0.7072039 0 0.7071846 0.7070289 6.13759e-6 0.707109 0.7071046 -5.54202e-7 0.7070959 0.7071177 1.09157e-6 0.7070989 0.7071147 0 0.7071155 0.7070981 0 0.7071057 0.7071079 -2.72891e-7 0.7071033 0.7071104 0 0.7071097 0.7071039 0 0.7071036 0.7071101 0 0.7071134 0.7071003 5.45774e-7 0.7071024 0.7071111 0 0.7071046 0.707109 0 0.7071056 0.707108 -1.09156e-6 0.7070705 0.7071431 9.06873e-6 0.7071871 0.7070264 -8.92733e-6 0.7071121 0.7071014 0 0.7070434 0.7071703 0 0.7070983 0.7071154 0 0.7071153 0.7070983 1.06722e-6 0.7071047 0.7071089 0 0.7071097 0.7071039 1.66265e-6 0.7071002 0.7071135 -5.54209e-7 0.7071134 0.7071003 1.09155e-6 0.7071094 0.7071042 0 0.7071101 0.7071036 -2.72886e-7 0.7071056 0.707108 0 0.707109 0.7071046 5.4577e-7 0.7070959 0.7071177 0 0.7071143 0.7070993 -1.09155e-6 0 -1 0 0 -0.04362189 0.9990481 0 -0.04362213 0.9990481 0 -0.1305366 0.9914435 0 -0.1305372 0.9914435 0 -0.2164037 0.976304 0 -0.2164035 0.9763041 0 -0.300751 0.9537028 0 -0.3007501 0.953703 0 -0.3826785 0.9238816 0 -0.382678 0.9238818 0 -0.4617185 0.8870266 0 -0.4617183 0.8870267 0 -0.5373202 0.8433783 0 -0.5373159 0.8433812 0 -0.6087471 0.7933645 0 -0.6087455 0.7933655 0 -0.6756018 0.7372667 0 -0.6756021 0.7372665 0 -0.7372933 0.6755729 0 -0.7372844 0.6755825 0 -0.7798895 0.6259174 -8.2482e-6 -0.7933487 0.6087675 0 -0.806443 0.5913118 0 -0.8314433 0.5556097 -8.29801e-6 -0.8433946 0.5372946 0 -0.854934 0.5187367 0 -0.8767176 0.4810056 -8.28196e-6 -0.8870009 0.461768 0 -0.896857 0.4423205 0 -0.9153147 0.4027394 -8.26552e-6 -0.923877 0.3826898 0 -0.9320054 0.3624444 0 -0.9469391 0.3214133 -8.26298e-6 -0.9537218 0.3006906 0 -0.9600484 0.279834 0 -0.9713426 0.2376839 -8.26839e-6 -0.9762956 0.2164415 0 -0.98079 0.1950666 0 -0.9883612 0.1521252 -8.25426e-6 -0.9914445 0.1305292 0 -0.9940556 0.1088742 0 -0.9978594 0.06539797 -8.2469e-6 -0.9990483 0.04362016 0 -0.9997622 0.02181077 0 0 1 0 0.9914438 0.1305344 -1.73713e-5 0.9883607 0.1521285 0 0.9940551 0.1088782 0 0.9990481 0.04362332 -1.73585e-5 0.9978594 0.06539624 0 0.999762 0.02181649 0 0.9537208 0.3006938 -1.73796e-5 0.9469316 0.3214354 0 0.960058 0.2798012 0 0.9762978 0.2164319 -1.73984e-5 0.9713315 0.2377292 0 0.9807923 0.195055 0 0.8869971 0.4617753 -1.73996e-5 0.8767244 0.4809933 0 0.8968533 0.4423283 0 0.9238801 0.3826823 -1.73761e-5 0.91531 0.4027501 0 0.9320114 0.362429 -1.73006e-5 0.7798637 0.6259494 0 0.8064419 0.5913135 0 0.8433943 0.5372952 -1.74219e-5 0.8314293 0.5556307 0 0.854948 0.5187138 0 0.7933516 0.6087638 0 0.7372885 0.6755781 0 0.7372901 0.6755764 0 0.6756042 0.7372646 0 0.6756044 0.7372644 0 0.6087447 0.7933663 0 0.6087482 0.7933636 0 0.5373166 0.8433806 0 0.5373201 0.8433784 0 0.4617183 0.8870267 0 0.4617151 0.8870283 0 0.3826789 0.9238814 0 0.3826785 0.9238817 0 0.3007505 0.9537029 0 0.3007515 0.9537026 0 0.2164029 0.9763042 0 0.2164033 0.9763041 0 0.1305374 0.9914434 0 0.1305375 0.9914435 0 0.04362195 0.9990482 0 0.04362189 0.9990481 0 0.04362207 -0.9990482 0 0.04362183 -0.9990482 0 0.130537 -0.9914435 0 0.1305379 -0.9914434 0 0.2164033 -0.9763041 0 0.2164028 -0.9763042 0 0.3007504 -0.9537029 0 0.3007515 -0.9537026 0 0.3826785 -0.9238817 0 0.3826789 -0.9238814 0 0.461718 -0.8870268 0 0.4617153 -0.8870282 0 0.5373186 -0.8433795 0 0.5373183 -0.8433797 0 0.6087483 -0.7933636 0 0.6087446 -0.7933663 0 0.6756044 -0.7372644 0 0.6756042 -0.7372646 0 0.7372601 -0.6756092 0 0.7372586 -0.6756108 0 0.8433758 -0.5373244 -1.73575e-5 0.8549052 -0.5187844 0 0.8314378 -0.5556178 0 0.7933727 -0.6087364 -1.74035e-5 0.806481 -0.5912601 0 0.7798813 -0.6259275 0 0.9238796 -0.3826834 -1.73149e-5 0.9320078 -0.3624382 0 0.9153155 -0.4027376 0 0.8870123 -0.4617457 -1.73658e-5 0.8968572 -0.4423204 0 0.8767462 -0.4809533 0 0.9762974 -0.2164331 -1.73812e-5 0.9807823 -0.1951056 0 0.9713461 -0.2376699 0 0.9537149 -0.3007126 -1.73494e-5 0.9600489 -0.2798325 0 0.9469311 -0.3214368 0 0.9990484 -0.0436176 -1.73708e-5 0.999762 -0.02182048 0 0.9978587 -0.06540721 0 0.991446 -0.130518 -1.73539e-5 0.9940561 -0.108869 0 0.9883601 -0.1521327 0 1 0 0 -0.9997622 -0.02181077 -8.25358e-6 -0.9990482 -0.04362016 -8.24704e-6 -0.9914456 -0.1305207 0 -0.9940571 -0.1088599 0 -0.9978591 -0.06540095 -8.26839e-6 -0.9762956 -0.2164415 0 -0.9807851 -0.1950918 0 -0.9883604 -0.1521309 -8.25012e-6 -0.9537159 -0.3007094 0 -0.9600381 -0.2798693 0 -0.9713494 -0.2376559 -8.23877e-6 -0.923877 -0.3826898 0 -0.9320054 -0.3624444 0 -0.9469385 -0.3214151 -8.2681e-6 -0.8870148 -0.461741 0 -0.896857 -0.4423205 0 -0.9153165 -0.4027354 -8.2717e-6 -0.8433757 -0.5373244 0 -0.8548987 -0.518795 0 -0.8767499 -0.4809467 -1.65954e-5 -0.7798895 -0.6259172 0 -0.806489 -0.5912492 0 -0.8314455 -0.5556063 0 -0.7933762 -0.6087317 0 -0.7372578 -0.6756115 0 -0.7372598 -0.6756094 0 -0.6756021 -0.7372665 0 -0.6756018 -0.7372667 0 -0.6087455 -0.7933655 0 -0.6087471 -0.7933645 0 -0.5373174 -0.8433802 0 -0.5373187 -0.8433793 0 -0.4617169 -0.8870275 0 -0.4617199 -0.8870258 0 -0.382678 -0.9238818 0 -0.3826785 -0.9238816 0 -0.300751 -0.9537028 0 -0.3007501 -0.953703 0 -0.2164035 -0.9763041 0 -0.2164037 -0.976304 0 -0.1305376 -0.9914434 0 -0.1305362 -0.9914436 0 -0.04362195 -0.9990481 0 -0.04362207 -0.9990481 0 -0.04362189 -0.9990481 0 -0.04362219 -0.9990482 0 -0.1304736 -0.9914518 0 -0.1304715 -0.9914522 0 -0.2164039 -0.976304 0 -0.2164044 -0.9763039 0 -0.300749 -0.9537034 0 -0.3007526 -0.9537022 0 -0.3826213 -0.9239053 0 -0.3826261 -0.9239034 0 -0.4618196 -0.8869739 0 -0.4618212 -0.8869732 0 -0.5372719 -0.8434091 0 -0.5372709 -0.8434097 0 -0.6087436 -0.7933672 0 -0.6087478 -0.7933639 0 -0.6756029 -0.7372658 0 -0.6756029 -0.7372658 0 -0.7372618 -0.6756072 0 -0.7372575 -0.6756119 0 -0.8433936 -0.5372964 8.67438e-6 -0.8549048 -0.5187849 0 -0.8314792 -0.5555558 0 -0.7933475 -0.6087691 8.61736e-6 -0.8063952 -0.5913771 0 -0.7799326 -0.6258636 0 -0.9238885 -0.382662 8.64871e-6 -0.9320263 -0.3623907 0 -0.9153081 -0.4027544 0 -0.8870123 -0.4617458 8.56582e-6 -0.8968406 -0.4423539 0 -0.8767822 -0.4808876 0 -0.9763006 -0.2164194 8.68046e-6 -0.9807845 -0.1950945 0 -0.9713492 -0.237657 0 -0.9537109 -0.3007254 8.62352e-6 -0.960039 -0.2798663 0 -0.9469236 -0.3214588 0 -0.9990481 -0.0436232 8.64016e-6 -0.9997616 -0.0218392 0 -0.9978603 -0.06538385 0 -0.9914445 -0.1305298 8.6521e-6 -0.9940578 -0.1088545 0 -0.9883615 -0.1521236 0 -0.9914441 0.1305331 8.61124e-6 -0.9883587 0.1521413 0 -0.9940541 0.1088876 0 -0.9990484 0.04361671 8.64451e-6 -0.9978613 0.06536841 0 -0.9997616 0.02183771 0 -0.9537088 0.3007319 8.65276e-6 -0.9469246 0.3214557 0 -0.9600424 0.279855 0 -0.9762984 0.216429 8.62531e-6 -0.9713391 0.2376983 0 -0.9807946 0.1950439 0 -0.8870146 0.4617414 8.7339e-6 -0.8767206 0.4810002 0 -0.8968901 0.4422537 0 -0.9238887 0.3826614 8.65088e-6 -0.9153053 0.4027607 0 -0.9320275 0.3623877 8.56152e-6 -0.7799422 0.6258516 0 -0.8063849 0.5913911 0 -0.8433966 0.5372916 8.61976e-6 -0.831475 0.5555623 0 -0.8549006 0.5187918 0 -0.7933492 0.608767 0 -0.7372575 0.6756119 0 -0.7372618 0.6756072 0 -0.6756064 0.7372626 0 -0.6755993 0.7372691 0 -0.6087443 0.7933665 0 -0.608747 0.7933645 0 -0.5372677 0.8434118 0 -0.5372751 0.8434071 0 -0.4618211 0.8869732 0 -0.4618197 0.886974 0 -0.3826235 0.9239045 0 -0.3826239 0.9239042 0 -0.3007526 0.9537022 0 -0.3007491 0.9537034 0 -0.2164029 0.9763042 0 -0.2164053 0.9763036 0 -0.1306015 0.9914349 0 -0.1306018 0.9914349 0 -0.04362219 0.9990482 0 -0.04362189 0.9990481 0 0.04362189 0.9990481 0 0.04362195 0.9990482 0 0.1306028 0.9914348 0 0.1306013 0.991435 0 0.216404 0.9763039 0 0.216402 0.9763044 0 0.3007495 0.9537032 0 0.3007519 0.9537025 0 0.3826222 0.923905 0 0.3826202 0.9239058 0 0.4618194 0.886974 0 0.4618236 0.8869719 0 0.5372719 0.8434092 0 0.5372666 0.8434125 0 0.6087449 0.7933661 0 0.6087474 0.7933641 0 0.6756016 0.737267 0 0.6756119 0.7372574 0 0.7372581 0.6756112 0 0.7372588 0.6756104 0 0.7799352 0.6258603 4.1115e-6 0.7933526 0.6087624 0 0.8063815 0.5913959 0 0.831483 0.5555502 4.13738e-6 0.8433949 0.5372944 0 0.8549093 0.5187777 0 0.8767123 0.4810152 4.19029e-6 0.887011 0.4617484 0 0.8968885 0.4422567 0 0.9153168 0.4027347 4.14913e-6 0.9238868 0.3826658 0 0.9320234 0.3623984 0 0.9469186 0.3214737 4.14916e-6 0.9537107 0.3007258 0 0.960047 0.279839 0 0.9713404 0.237693 4.13473e-6 0.9763019 0.2164133 0 0.9807876 0.1950791 0 0.9883624 0.1521178 4.12843e-6 0.9914434 0.1305373 0 0.9940536 0.108893 0 0.997859 0.06540316 4.14446e-6 0.9990482 0.04362136 0 0.9997622 0.02181237 0 0.9997622 -0.02181237 4.14165e-6 0.999048 -0.04362708 4.14803e-6 0.9914457 -0.1305203 0 0.9940566 -0.1088646 0 0.9978582 -0.06541371 4.16158e-6 0.9763019 -0.2164133 0 0.9807776 -0.1951293 0 0.9883632 -0.1521127 4.13573e-6 0.9537107 -0.3007258 0 0.960047 -0.279839 0 0.971354 -0.2376374 4.14913e-6 0.9238868 -0.3826658 0 0.9320234 -0.3623984 0 0.946919 -0.3214722 4.09628e-6 0.887011 -0.4617483 0 0.8968372 -0.442361 0 0.9153164 -0.4027355 4.16424e-6 0.8433949 -0.5372944 0 0.8549093 -0.5187777 0 0.8767749 -0.4809011 8.27292e-6 0.7799487 -0.6258435 0 0.8063815 -0.5913959 0 0.8314821 -0.5555517 0 0.7933476 -0.608769 0 0.7372588 -0.6756105 0 0.7372581 -0.6756112 0 0.6756085 -0.7372606 0 0.675605 -0.7372639 0 0.6087475 -0.7933641 0 0.6087449 -0.7933661 0 0.5372697 -0.8434106 0 0.5372688 -0.8434112 0 0.4618207 -0.8869733 0 0.4618222 -0.8869725 0 0.3826226 -0.9239048 0 0.3826197 -0.9239059 0 0.3007519 -0.9537025 0 0.3007495 -0.9537032 0 0.2164034 -0.9763041 0 0.2164025 -0.9763042 0 0.1304721 -0.991452 0 0.1304737 -0.9914518 0 0.04362225 -0.9990482 0 0.04362159 -0.9990482 0 0 -1</float_array>
          <technique_common>
            <accessor source="#chassis_default_as_machined__14-mesh-normals-array" count="562" stride="3">
              <param name="X" type="float"/>
              <param name="Y" type="float"/>
              <param name="Z" type="float"/>
            </accessor>
          </technique_common>
        </source>
        <vertices id="chassis_default_as_machined__14-mesh-vertices">
          <input semantic="POSITION" source="#chassis_default_as_machined__14-mesh-positions"/>
        </vertices>
        <triangles count="736">
          <input semantic="VERTEX" source="#chassis_default_as_machined__14-mesh-vertices" offset="0"/>
          <input semantic="NORMAL" source="#chassis_default_as_machined__14-mesh-normals" offset="1"/>
          <p>0 0 1 0 2 0 1 0 3 0 2 0 2 1 3 1 4 1 3 2 5 2 4 2 4 3 5 3 6 3 5 0 7 0 6 0 6 0 7 0 8 0 7 0 9 0 8 0 8 0 9 0 10 0 9 0 11 0 10 0 10 4 11 4 12 4 11 0 13 0 12 0 12 0 13 0 14 0 13 5 15 5 14 5 14 0 15 0 16 0 15 0 17 0 16 0 16 6 17 6 18 6 17 0 19 0 18 0 18 0 19 0 20 0 19 0 21 0 20 0 20 0 21 0 22 0 21 0 23 0 22 0 22 7 23 7 24 7 23 0 25 0 24 0 24 8 25 8 26 8 25 0 27 0 26 0 26 0 27 0 28 0 27 0 29 0 28 0 28 7 29 7 30 7 29 0 31 0 30 0 30 0 31 0 32 0 31 9 33 9 32 9 32 0 33 0 34 0 33 0 35 0 34 0 34 0 35 0 36 0 35 10 37 10 36 10 36 0 37 0 38 0 37 0 39 0 38 0 38 7 39 7 40 7 39 0 41 0 40 0 40 0 41 0 42 0 41 0 43 0 42 0 42 11 43 11 44 11 43 0 45 0 44 0 44 0 45 0 46 0 45 12 47 12 46 12 46 0 47 0 48 0 47 0 49 0 48 0 48 13 49 13 50 13 49 0 51 0 50 0 50 14 51 14 52 14 51 0 53 0 52 0 52 0 53 0 54 0 53 0 55 0 54 0 54 0 55 0 56 0 55 0 57 0 56 0 56 13 57 13 58 13 57 15 59 15 58 15 58 0 59 0 60 0 59 16 61 16 60 16 60 0 61 0 62 0 61 0 63 0 62 0 62 17 63 17 64 17 63 0 65 0 64 0 64 18 65 18 66 18 65 19 67 19 66 19 66 0 67 0 68 0 67 0 69 0 68 0 68 0 69 0 70 0 69 0 71 0 70 0 70 0 71 0 72 0 71 0 73 0 72 0 72 0 73 0 74 0 73 0 75 0 74 0 74 0 75 0 76 0 75 0 77 0 76 0 76 0 77 0 78 0 77 0 79 0 78 0 78 20 79 20 80 20 79 3 81 3 80 3 80 21 81 21 82 21 81 3 83 3 82 3 82 0 83 0 84 0 83 0 85 0 84 0 84 0 85 0 86 0 85 0 87 0 86 0 86 22 87 22 88 22 87 23 89 23 88 23 88 22 89 22 90 22 89 0 91 0 90 0 90 0 91 0 92 0 91 0 93 0 92 0 92 0 93 0 94 0 93 0 95 0 94 0 94 0 95 0 96 0 95 0 97 0 96 0 96 0 97 0 98 0 97 0 99 0 98 0 98 8 99 8 100 8 99 0 101 0 100 0 100 7 101 7 102 7 101 0 103 0 102 0 102 0 103 0 104 0 103 0 105 0 104 0 104 11 105 11 106 11 105 0 107 0 106 0 106 0 107 0 108 0 107 10 109 10 108 10 108 7 109 7 110 7 109 0 111 0 110 0 110 0 111 0 112 0 111 0 113 0 112 0 112 0 113 0 114 0 113 0 115 0 114 0 114 0 115 0 116 0 115 0 117 0 116 0 116 24 117 24 118 24 117 0 119 0 118 0 118 25 119 25 120 25 119 0 121 0 120 0 120 0 121 0 122 0 121 18 123 18 122 18 122 0 123 0 124 0 123 0 125 0 124 0 124 11 125 11 126 11 125 0 127 0 126 0 126 7 127 7 128 7 127 0 129 0 128 0 128 0 129 0 130 0 129 0 131 0 130 0 130 0 131 0 132 0 131 0 133 0 132 0 132 26 133 26 134 26 133 0 135 0 134 0 134 0 135 0 136 0 135 0 137 0 136 0 136 0 137 0 138 0 137 27 139 27 138 27 138 17 139 17 140 17 139 0 141 0 140 0 140 10 141 10 142 10 141 28 143 28 142 28 142 0 143 0 144 0 143 0 145 0 144 0 144 0 145 0 146 0 145 3 147 3 146 3 146 0 147 0 148 0 147 0 149 0 148 0 148 0 149 0 150 0 149 0 151 0 150 0 150 0 151 0 0 0 151 0 1 0 0 0 152 29 153 29 154 29 154 30 153 30 155 30 153 31 156 31 155 31 155 32 156 32 157 32 156 33 158 33 157 33 157 34 158 34 159 34 158 35 160 35 159 35 159 36 160 36 161 36 161 37 160 37 162 37 160 38 163 38 162 38 162 39 163 39 164 39 163 40 165 40 164 40 164 41 165 41 166 41 167 35 168 35 169 35 168 36 170 36 169 36 169 42 170 42 171 42 172 43 173 43 174 43 154 44 175 44 152 44 175 45 176 45 152 45 152 46 176 46 177 46 176 47 178 47 177 47 177 48 178 48 179 48 172 46 174 46 180 46 174 49 181 49 180 49 180 50 181 50 182 50 181 51 183 51 182 51 182 52 183 52 184 52 183 53 185 53 184 53 184 54 185 54 167 54 185 55 186 55 167 55 167 56 186 56 168 56 166 57 165 57 187 57 165 58 188 58 187 58 187 59 188 59 189 59 188 60 190 60 189 60 189 61 190 61 191 61 170 62 192 62 171 62 192 63 193 63 171 63 171 40 193 40 194 40 193 41 195 41 194 41 194 64 195 64 196 64 173 37 172 37 197 37 172 65 198 65 197 65 197 66 198 66 199 66 198 40 200 40 199 40 199 67 200 67 201 67 178 68 202 68 179 68 202 69 203 69 179 69 179 40 203 40 204 40 203 67 205 67 204 67 204 70 205 70 206 70 201 71 200 71 207 71 200 72 208 72 207 72 207 73 208 73 209 73 208 74 210 74 209 74 209 61 210 61 211 61 212 75 213 75 214 75 213 76 215 76 214 76 214 77 215 77 216 77 215 78 217 78 216 78 216 79 217 79 218 79 195 80 219 80 196 80 219 59 220 59 196 59 196 81 220 81 221 81 220 82 222 82 221 82 221 81 222 81 223 81 222 83 224 83 223 83 223 84 224 84 225 84 224 85 226 85 225 85 225 86 226 86 227 86 205 87 228 87 206 87 228 73 229 73 206 73 206 88 229 88 230 88 229 82 231 82 230 82 230 81 231 81 232 81 231 89 233 89 232 89 232 84 233 84 234 84 233 90 235 90 234 90 234 91 235 91 236 91 191 92 190 92 237 92 190 93 238 93 237 93 237 94 238 94 239 94 238 95 240 95 239 95 239 96 240 96 241 96 240 97 242 97 241 97 241 98 242 98 243 98 242 99 244 99 243 99 243 100 244 100 245 100 245 101 244 101 246 101 244 102 247 102 246 102 246 103 247 103 248 103 249 104 250 104 251 104 250 105 252 105 251 105 251 106 252 106 253 106 252 107 254 107 253 107 253 104 254 104 255 104 256 108 257 108 258 108 257 109 259 109 258 109 258 77 259 77 260 77 259 78 261 78 260 78 260 79 261 79 262 79 263 110 264 110 265 110 264 111 266 111 265 111 265 112 266 112 267 112 266 113 268 113 267 113 267 110 268 110 269 110 211 114 210 114 270 114 210 93 271 93 270 93 270 94 271 94 272 94 271 115 273 115 272 115 272 116 273 116 274 116 273 117 275 117 274 117 274 118 275 118 276 118 275 119 277 119 276 119 276 120 277 120 278 120 247 121 279 121 248 121 279 122 280 122 248 122 248 123 280 123 281 123 226 124 282 124 227 124 282 98 283 98 227 98 227 99 283 99 284 99 283 100 285 100 284 100 284 125 285 125 286 125 285 126 287 126 286 126 286 127 287 127 288 127 287 128 289 128 288 128 278 129 277 129 290 129 277 130 291 130 290 130 290 131 291 131 292 131 235 132 293 132 236 132 293 118 294 118 236 118 236 119 294 119 295 119 294 120 296 120 295 120 295 133 296 133 297 133 296 134 298 134 297 134 297 135 298 135 299 135 298 136 300 136 299 136 280 137 301 137 281 137 301 138 302 138 281 138 281 139 302 139 303 139 302 140 304 140 303 140 303 141 304 141 305 141 304 142 306 142 305 142 305 143 306 143 307 143 306 144 308 144 307 144 307 145 308 145 212 145 308 146 309 146 212 146 212 147 309 147 213 147 310 148 311 148 289 148 311 149 312 149 289 149 289 150 312 150 288 150 291 151 313 151 292 151 313 152 314 152 292 152 292 153 314 153 315 153 316 154 317 154 300 154 317 155 318 155 300 155 300 156 318 156 299 156 254 157 319 157 255 157 319 158 320 158 255 158 255 159 320 159 321 159 320 160 322 160 321 160 321 161 322 161 323 161 322 162 324 162 323 162 323 163 324 163 325 163 324 164 326 164 325 164 325 165 326 165 310 165 326 166 327 166 310 166 310 167 327 167 311 167 268 168 328 168 269 168 328 158 329 158 269 158 269 169 329 169 330 169 329 170 331 170 330 170 330 171 331 171 332 171 331 172 333 172 332 172 332 173 333 173 334 173 333 174 335 174 334 174 334 175 335 175 316 175 335 176 336 176 316 176 316 177 336 177 317 177 217 178 337 178 218 178 337 179 338 179 218 179 218 180 338 180 339 180 338 181 340 181 339 181 339 182 340 182 341 182 340 96 342 96 341 96 341 183 342 183 343 183 342 184 344 184 343 184 343 185 344 185 345 185 344 186 346 186 345 186 345 187 346 187 249 187 346 188 347 188 249 188 249 189 347 189 250 189 314 190 348 190 315 190 348 191 349 191 315 191 315 192 349 192 350 192 349 193 351 193 350 193 350 194 351 194 352 194 351 142 353 142 352 142 352 195 353 195 354 195 353 144 355 144 354 144 354 196 355 196 256 196 355 146 356 146 256 146 256 197 356 197 257 197 261 198 357 198 262 198 357 199 358 199 262 199 262 200 358 200 359 200 358 154 360 154 359 154 359 201 360 201 361 201 360 154 362 154 361 154 361 202 362 202 363 202 362 202 364 202 363 202 363 96 364 96 365 96 364 203 366 203 365 203 365 154 366 154 263 154 366 204 367 204 263 204 263 205 367 205 264 205 185 206 183 206 151 206 183 206 1 206 151 206 361 207 37 207 35 207 361 208 35 208 359 208 35 209 33 209 359 209 359 210 33 210 262 210 33 211 31 211 262 211 262 212 31 212 260 212 31 213 29 213 260 213 260 214 29 214 258 214 29 215 27 215 258 215 258 216 27 216 256 216 27 217 25 217 256 217 256 218 25 218 354 218 25 219 23 219 354 219 354 220 23 220 352 220 23 221 21 221 352 221 352 222 21 222 350 222 21 223 19 223 350 223 350 224 19 224 315 224 19 225 17 225 315 225 315 226 17 226 292 226 292 227 17 227 290 227 17 228 15 228 290 228 290 229 15 229 278 229 278 230 15 230 276 230 15 231 13 231 276 231 276 232 13 232 274 232 274 233 13 233 272 233 13 234 11 234 272 234 272 235 11 235 270 235 270 236 11 236 211 236 11 237 9 237 211 237 211 238 9 238 209 238 209 239 9 239 207 239 9 240 7 240 207 240 207 241 7 241 201 241 201 242 7 242 199 242 7 243 5 243 199 243 199 244 5 244 197 244 197 245 5 245 173 245 5 246 3 246 173 246 173 247 3 247 174 247 174 248 3 248 181 248 3 249 1 249 181 249 181 250 1 250 183 250 361 251 363 251 37 251 363 251 39 251 37 251 73 252 71 252 202 252 202 253 178 253 73 253 178 254 176 254 73 254 73 255 176 255 75 255 176 256 175 256 75 256 75 257 175 257 154 257 69 258 67 258 229 258 229 259 228 259 69 259 228 260 205 260 69 260 69 261 205 261 71 261 205 262 203 262 71 262 71 263 203 263 202 263 65 264 63 264 293 264 293 265 235 265 65 265 235 266 233 266 65 266 65 267 233 267 67 267 233 268 231 268 67 268 67 269 231 269 229 269 300 270 298 270 61 270 298 271 296 271 61 271 61 272 296 272 63 272 296 273 294 273 63 273 63 274 294 274 293 274 61 275 59 275 300 275 59 276 57 276 300 276 300 277 57 277 316 277 57 278 55 278 316 278 316 279 55 279 334 279 55 280 53 280 334 280 334 281 53 281 332 281 53 282 51 282 332 282 332 283 51 283 330 283 51 284 49 284 330 284 330 285 49 285 269 285 49 286 47 286 269 286 269 287 47 287 267 287 47 288 45 288 267 288 267 289 45 289 265 289 45 290 43 290 265 290 265 291 43 291 263 291 43 292 41 292 263 292 263 293 41 293 365 293 41 294 39 294 365 294 365 295 39 295 363 295 341 296 113 296 111 296 341 297 111 297 339 297 111 298 109 298 339 298 339 299 109 299 218 299 109 300 107 300 218 300 218 301 107 301 216 301 107 302 105 302 216 302 216 303 105 303 214 303 105 304 103 304 214 304 214 305 103 305 212 305 103 306 101 306 212 306 212 307 101 307 307 307 101 308 99 308 307 308 307 309 99 309 305 309 99 310 97 310 305 310 305 311 97 311 303 311 97 312 95 312 303 312 303 313 95 313 281 313 95 314 93 314 281 314 281 315 93 315 248 315 91 316 89 316 241 316 241 317 243 317 91 317 243 318 245 318 91 318 91 319 245 319 93 319 245 320 246 320 93 320 93 321 246 321 248 321 87 322 85 322 189 322 189 323 191 323 87 323 191 324 237 324 87 324 87 325 237 325 89 325 237 326 239 326 89 326 89 327 239 327 241 327 83 328 81 328 162 328 162 329 164 329 83 329 164 330 166 330 83 330 83 331 166 331 85 331 166 332 187 332 85 332 85 333 187 333 189 333 79 334 77 334 155 334 155 335 157 335 79 335 157 336 159 336 79 336 79 337 159 337 81 337 159 338 161 338 81 338 81 339 161 339 162 339 154 340 155 340 75 340 155 340 77 340 75 340 185 341 151 341 186 341 151 342 149 342 186 342 147 343 170 343 149 343 170 344 168 344 149 344 149 345 168 345 186 345 145 346 193 346 147 346 193 347 192 347 147 347 147 348 192 348 170 348 143 349 219 349 145 349 219 350 195 350 145 350 145 351 195 351 193 351 141 352 222 352 143 352 222 353 220 353 143 353 143 354 220 354 219 354 139 355 226 355 141 355 226 356 224 356 141 356 141 357 224 357 222 357 137 358 283 358 139 358 283 359 282 359 139 359 139 360 282 360 226 360 289 361 287 361 137 361 287 362 285 362 137 362 137 363 285 363 283 363 137 364 135 364 289 364 135 365 133 365 289 365 289 366 133 366 310 366 133 367 131 367 310 367 310 368 131 368 325 368 131 369 129 369 325 369 325 370 129 370 323 370 129 371 127 371 323 371 323 372 127 372 321 372 127 373 125 373 321 373 321 374 125 374 255 374 125 375 123 375 255 375 255 376 123 376 253 376 123 377 121 377 253 377 253 378 121 378 251 378 121 379 119 379 251 379 251 380 119 380 249 380 119 381 117 381 249 381 249 382 117 382 345 382 117 383 115 383 345 383 345 384 115 384 343 384 364 385 38 385 40 385 364 386 40 386 366 386 40 387 42 387 366 387 366 388 42 388 367 388 42 389 44 389 367 389 367 390 44 390 264 390 44 391 46 391 264 391 264 392 46 392 266 392 46 393 48 393 266 393 266 394 48 394 268 394 48 395 50 395 268 395 268 396 50 396 328 396 50 397 52 397 328 397 328 398 52 398 329 398 52 399 54 399 329 399 329 400 54 400 331 400 54 401 56 401 331 401 331 402 56 402 333 402 56 403 58 403 333 403 333 404 58 404 335 404 60 405 62 405 299 405 299 406 318 406 60 406 318 407 317 407 60 407 60 408 317 408 58 408 317 409 336 409 58 409 58 410 336 410 335 410 64 411 66 411 234 411 234 412 236 412 64 412 236 413 295 413 64 413 64 414 295 414 62 414 295 415 297 415 62 415 62 416 297 416 299 416 68 417 70 417 204 417 204 418 206 418 68 418 206 419 230 419 68 419 68 420 230 420 66 420 230 421 232 421 66 421 66 422 232 422 234 422 72 423 74 423 153 423 153 424 152 424 72 424 152 425 177 425 72 425 72 426 177 426 70 426 177 427 179 427 70 427 70 428 179 428 204 428 76 206 156 206 74 206 156 206 153 206 74 206 78 429 80 429 165 429 165 430 163 430 78 430 163 431 160 431 78 431 78 432 160 432 76 432 160 433 158 433 76 433 76 434 158 434 156 434 82 435 84 435 240 435 240 436 238 436 82 436 238 437 190 437 82 437 82 438 190 438 80 438 190 439 188 439 80 439 80 440 188 440 165 440 86 441 88 441 279 441 279 442 247 442 86 442 247 443 244 443 86 443 86 444 244 444 84 444 244 445 242 445 84 445 84 446 242 446 240 446 304 447 302 447 90 447 302 448 301 448 90 448 90 449 301 449 88 449 301 450 280 450 88 450 88 451 280 451 279 451 90 452 92 452 304 452 92 453 94 453 304 453 304 454 94 454 306 454 94 455 96 455 306 455 306 456 96 456 308 456 96 457 98 457 308 457 308 458 98 458 309 458 98 459 100 459 309 459 309 460 100 460 213 460 100 461 102 461 213 461 213 462 102 462 215 462 102 463 104 463 215 463 215 464 104 464 217 464 104 465 106 465 217 465 217 466 106 466 337 466 106 467 108 467 337 467 337 468 108 468 338 468 108 469 110 469 338 469 338 470 110 470 340 470 110 471 112 471 340 471 340 472 112 472 342 472 114 251 344 251 112 251 344 251 342 251 112 251 344 473 114 473 116 473 344 474 116 474 346 474 116 475 118 475 346 475 346 476 118 476 347 476 118 477 120 477 347 477 347 478 120 478 250 478 120 479 122 479 250 479 250 480 122 480 252 480 122 481 124 481 252 481 252 482 124 482 254 482 124 483 126 483 254 483 254 484 126 484 319 484 126 485 128 485 319 485 319 486 128 486 320 486 128 487 130 487 320 487 320 488 130 488 322 488 130 489 132 489 322 489 322 490 132 490 324 490 132 491 134 491 324 491 324 492 134 492 326 492 326 493 134 493 327 493 134 494 136 494 327 494 327 495 136 495 311 495 311 496 136 496 312 496 136 497 138 497 312 497 312 498 138 498 288 498 288 499 138 499 286 499 138 500 140 500 286 500 286 501 140 501 284 501 284 502 140 502 227 502 140 503 142 503 227 503 227 504 142 504 225 504 225 505 142 505 223 505 142 506 144 506 223 506 223 507 144 507 221 507 221 508 144 508 196 508 144 509 146 509 196 509 196 510 146 510 194 510 194 511 146 511 171 511 146 512 148 512 171 512 171 513 148 513 169 513 169 514 148 514 167 514 148 515 150 515 167 515 167 516 150 516 184 516 0 340 182 340 150 340 182 340 184 340 150 340 182 517 0 517 180 517 0 518 2 518 180 518 4 519 198 519 2 519 198 520 172 520 2 520 2 521 172 521 180 521 6 522 208 522 4 522 208 523 200 523 4 523 4 524 200 524 198 524 8 525 271 525 6 525 271 526 210 526 6 526 6 527 210 527 208 527 10 528 275 528 8 528 275 529 273 529 8 529 8 530 273 530 271 530 12 531 291 531 10 531 291 532 277 532 10 532 10 533 277 533 275 533 14 534 314 534 12 534 314 535 313 535 12 535 12 536 313 536 291 536 351 537 349 537 14 537 349 538 348 538 14 538 14 539 348 539 314 539 14 540 16 540 351 540 16 541 18 541 351 541 351 542 18 542 353 542 18 543 20 543 353 543 353 544 20 544 355 544 20 545 22 545 355 545 355 546 22 546 356 546 22 547 24 547 356 547 356 548 24 548 257 548 24 549 26 549 257 549 257 550 26 550 259 550 26 551 28 551 259 551 259 552 28 552 261 552 28 553 30 553 261 553 261 554 30 554 357 554 30 555 32 555 357 555 357 556 32 556 358 556 32 557 34 557 358 557 358 558 34 558 360 558 34 559 36 559 360 559 360 560 36 560 362 560 38 561 364 561 36 561 364 561 362 561 36 561 341 561 343 561 113 561 343 561 115 561 113 561</p>
        </triangles>
      </mesh>
    </geometry>
  </library_geometries>
  <library_visual_scenes>
    <visual_scene id="Scene" name="Scene">
      <node id="chassis_default_as_machined__14" name="chassis_default_as_machined__14" type="NODE">
        <matrix sid="transform">1 0 0 0 0 1 0 0 0 0 1 0 0 0 0 1</matrix>
        <instance_geometry url="#chassis_default_as_machined__14-mesh" name="chassis_default_as_machined__14"/>
      </node>
    </visual_scene>
  </library_visual_scenes>
  <scene>
    <instance_visual_scene url="#Scene"/>
  </scene>
</COLLADA>