<?xml version="1.0" encoding="utf-8"?>
<COLLADA xmlns="http://www.collada.org/2005/11/COLLADASchema" version="1.4.1" xmlns:xsi="http://www.w3.org/2001/XMLSchema-instance">
  <asset>
    <contributor>
      <author>Blender User</author>
      <authoring_tool>Blender 3.0.1</authoring_tool>
    </contributor>
    <created>2026-06-04T16:18:34</created>
    <modified>2026-06-04T16:18:34</modified>
    <unit name="meter" meter="1"/>
    <up_axis>Z_UP</up_axis>
  </asset>
  <library_images/>
  <library_geometries>
    <geometry id="chassis_default_as_machined__21-mesh" name="chassis_default_as_machined__21">
      <mesh>
        <source id="chassis_default_as_machined__21-mesh-positions">
          <float_array id="chassis_default_as_machined__21-mesh-positions-array" count="1104">-0.01237773 0.2101393 -0.2876222 -0.01239007 0.2100266 -0.2876099 -0.01495546 0.2104787 -0.2850445 -0.01498019 0.2102532 -0.2850198 -0.01239752 0.2099134 -0.2876025 -0.01499503 0.2100268 -0.2850049 -0.01499998 0.2098 -0.285 -0.01239997 0.2098 -0.2876 -0.01499998 0.1902 -0.285 -0.01239997 0.1902 -0.2876 -0.01499503 0.1899731 -0.2850049 -0.01239752 0.1900866 -0.2876025 -0.01498019 0.1897467 -0.2850198 -0.01239007 0.1899734 -0.2876099 -0.01495546 0.1895213 -0.2850445 -0.01492094 0.210703 -0.285079 -0.01487672 0.2109255 -0.2851232 -0.01236045 0.2102515 -0.2876395 -0.01482278 0.2111458 -0.2851772 -0.01233834 0.2103627 -0.2876616 -0.01492094 0.189297 -0.285079 -0.01237773 0.1898606 -0.2876222 -0.01487672 0.1890745 -0.2851232 -0.01236045 0.1897485 -0.2876395 -0.01482278 0.1888541 -0.2851772 0.01239007 0.2100266 -0.3123901 0.01495546 0.2104787 -0.3149555 0.01498019 0.2102532 -0.3149802 -0.0147593 0.1886363 -0.2852407 -0.01233834 0.1896373 -0.2876616 -0.0146864 0.1884214 -0.2853136 -0.01231139 0.189527 -0.2876886 -0.01460415 0.18821 -0.2853958 0.01239752 0.1900866 -0.3123975 0.01498019 0.1897467 -0.3149802 0.01239007 0.1899734 -0.3123901 0.01495546 0.1895213 -0.3149555 0.01237773 0.1898606 -0.3123778 0.01239752 0.2099134 -0.3123975 0.01499503 0.2100268 -0.3149951 0.01239997 0.2098 -0.3124 0.01499998 0.2098 -0.315 0.01239997 0.1902 -0.3124 0.01499998 0.1902 -0.315 0.01499503 0.1899731 -0.3149951 0.01492094 0.210703 -0.314921 0.01237773 0.2101393 -0.3123778 0.01487672 0.2109255 -0.3148767 0.01236045 0.2102515 -0.3123605 0.01482278 0.2111458 -0.3148228 -0.0147593 0.2113636 -0.2852407 -0.0146864 0.2115785 -0.2853136 -0.01231139 0.2104729 -0.2876886 -0.01460415 0.2117899 -0.2853958 -0.01227962 0.2105818 -0.2877203 -0.01451277 0.2119976 -0.2854872 -0.01224315 0.2106892 -0.2877568 -0.0144124 0.2122011 -0.2855876 -0.01220208 0.2107949 -0.2877979 0.01492094 0.189297 -0.314921 0.01487672 0.1890745 -0.3148767 0.01236045 0.1897485 -0.3123605 0.01482278 0.1888541 -0.3148228 0.01233834 0.1896373 -0.3123384 0.0147593 0.2113636 -0.3147593 0.01233834 0.2103627 -0.3123384 0.0146864 0.2115785 -0.3146864 0.01231139 0.2104729 -0.3123114 0.01460415 0.2117899 -0.3146042 0.01199758 0.2145128 -0.3119976 0.01109999 0.2120516 -0.3111 0.0115785 0.2146864 -0.3115785 0.01089876 0.2121564 -0.3108988 0.01114583 0.2148228 -0.3111459 0.01068919 0.2122431 -0.3106892 0.01070296 0.2149209 -0.310703 -0.01451277 0.1880024 -0.2854872 -0.01227962 0.1894181 -0.2877203 -0.0144124 0.1877989 -0.2855876 -0.01224315 0.1893107 -0.2877568 -0.01430332 0.1876 -0.2856966 -0.01220208 0.189205 -0.2877979 -0.0141856 0.187406 -0.2858144 -0.01215636 0.1891012 -0.2878436 -0.01405954 0.1872174 -0.2859404 -0.01070296 0.2149209 -0.2892971 -0.01047289 0.2123114 -0.2895271 -0.01114583 0.2148228 -0.2888541 -0.01068919 0.2122431 -0.2893108 -0.0115785 0.2146864 -0.2884215 -0.01089876 0.2121564 -0.2891012 -0.01199758 0.2145128 -0.2880024 -0.01430332 0.2124 -0.2856966 -0.0141856 0.2125939 -0.2858144 -0.01215636 0.2108988 -0.2878436 -0.01405954 0.2127826 -0.2859404 -0.01210618 0.2110005 -0.2878938 -0.01392543 0.2129656 -0.2860745 -0.01205164 0.2111 -0.2879483 -0.01378339 0.2131425 -0.2862166 -0.01392543 0.1870344 -0.2860745 -0.01210618 0.1889994 -0.2878938 -0.01378339 0.1868575 -0.2862166 -0.01199758 0.1854872 -0.2880024 -0.01109999 0.1879483 -0.2889 -0.0115785 0.1853136 -0.2884215 -0.01089876 0.1878436 -0.2891012 -0.01114583 0.1851772 -0.2888541 -0.01068919 0.1877568 -0.2893108 -0.01070296 0.185079 -0.2892971 0.01070296 0.185079 -0.310703 0.01047289 0.1876885 -0.3104729 0.01114583 0.1851772 -0.3111459 0.01068919 0.1877568 -0.3106892 0.0115785 0.1853136 -0.3115785 0.01089876 0.1878436 -0.3108988 0.01199758 0.1854872 -0.3119976 0.0147593 0.1886363 -0.3147593 0.0146864 0.1884214 -0.3146864 0.01231139 0.189527 -0.3123114 0.01460415 0.18821 -0.3146042 0.01227962 0.1894181 -0.3122797 0.01451277 0.1880024 -0.3145128 0.01224315 0.1893107 -0.3122432 0.0144124 0.1877989 -0.3144124 0.01220208 0.189205 -0.3122021 0.01451277 0.2119976 -0.3145128 0.01227962 0.2105818 -0.3122797 0.0144124 0.2122011 -0.3144124 0.01224315 0.2106892 -0.3122432 0.01430332 0.2124 -0.3143033 0.01220208 0.2107949 -0.3122021 0.0141856 0.2125939 -0.3141856 0.01215636 0.2108988 -0.3121564 0.01405954 0.2127826 -0.3140596 -0.0134769 0.2134769 -0.2865231 -0.01192975 0.2112913 -0.2880702 -0.01199281 0.211197 -0.2880071 -0.01205164 0.1888999 -0.2879483 -0.01199281 0.188803 -0.2880071 -0.0134769 0.186523 -0.2865231 0.01392543 0.2129656 -0.3139255 0.01210618 0.2110005 -0.3121062 0.01378339 0.2131425 -0.3137834 -0.01109999 0.2120516 -0.2889 -0.01129126 0.2119297 -0.2887087 -0.01239997 0.2143033 -0.2876 -0.01147121 0.2117917 -0.2885288 -0.01278257 0.2140595 -0.2872174 -0.01163846 0.2116385 -0.2883615 -0.01314246 0.2137834 -0.2868575 -0.0117917 0.2114712 -0.2882083 -0.01186269 0.2113828 -0.2881373 -0.01192975 0.1887087 -0.2880702 -0.01186269 0.1886172 -0.2881373 -0.01314246 0.1862165 -0.2868575 -0.0117917 0.1885287 -0.2882083 -0.01278257 0.1859404 -0.2872174 -0.01163846 0.1883615 -0.2883615 -0.01239997 0.1856966 -0.2876 -0.01147121 0.1882082 -0.2885288 -0.01129126 0.1880702 -0.2887087 0.01430332 0.1876 -0.3143033 0.0141856 0.187406 -0.3141856 0.01215636 0.1891012 -0.3121564 0.01405954 0.1872174 -0.3140596 0.01210618 0.1889994 -0.3121062 0.01392543 0.1870344 -0.3139255 0.01205164 0.1888999 -0.3120517 0.01378339 0.1868575 -0.3137834 0.01205164 0.2111 -0.3120517 0.01199281 0.211197 -0.3119928 0.0134769 0.2134769 -0.3134769 0.01047289 0.2123114 -0.3104729 0.01025146 0.2123605 -0.3102515 0.01025319 0.2149802 -0.3102532 0.01002657 0.2123901 -0.3100266 0.009799957 0.215 -0.3098 0.009799957 0.2124 -0.3098 -0.009799957 0.215 -0.2902 -0.009799957 0.2124 -0.2902 -0.01025319 0.2149802 -0.2897468 -0.01002657 0.2123901 -0.2899734 -0.01025146 0.2123605 -0.2897485 0.0134769 0.186523 -0.3134769 0.01192975 0.1887087 -0.3119298 0.01199281 0.188803 -0.3119928 0.01192975 0.2112913 -0.3119298 0.01186269 0.2113828 -0.3118627 0.01314246 0.2137834 -0.3131425 0.0117917 0.2114712 -0.3117917 0.01278257 0.2140595 -0.3127826 0.01163846 0.2116385 -0.3116385 0.01239997 0.2143033 -0.3124 0.01147121 0.2117917 -0.3114712 0.01129126 0.2119297 -0.3112913 -0.01047289 0.1876885 -0.2895271 -0.01025146 0.1876395 -0.2897485 -0.01025319 0.1850197 -0.2897468 -0.01002657 0.1876099 -0.2899734 -0.009799957 0.185 -0.2902 -0.009799957 0.1876 -0.2902 0.009799957 0.185 -0.3098 0.009799957 0.1876 -0.3098 0.01025319 0.1850197 -0.3102532 0.01002657 0.1876099 -0.3100266 0.01025146 0.1876395 -0.3102515 0.01109999 0.1879483 -0.3111 0.01129126 0.1880702 -0.3112913 0.01239997 0.1856966 -0.3124 0.01147121 0.1882082 -0.3114712 0.01278257 0.1859404 -0.3127826 0.01163846 0.1883615 -0.3116385 0.01314246 0.1862165 -0.3131425 0.0117917 0.1885287 -0.3117917 0.01186269 0.1886172 -0.3118627 -0.01224315 0.1893107 0.3 -0.0146864 0.1884214 0.3 -0.01215636 0.1891012 0.3 -0.01451277 0.1880024 0.3 -0.01205164 0.1888999 0.3 -0.01430332 0.1876 0.3 -0.01192975 0.1887087 0.3 -0.01405954 0.1872174 0.3 -0.0117917 0.1885287 0.3 -0.01378339 0.1868575 0.3 -0.01163846 0.1883615 0.3 -0.0134769 0.186523 0.3 -0.01147121 0.1882082 0.3 -0.01314246 0.1862165 0.3 -0.01129126 0.1880702 0.3 -0.01278257 0.1859404 0.3 -0.01109999 0.1879483 0.3 -0.01239997 0.1856966 0.3 -0.01089876 0.1878436 0.3 -0.01199758 0.1854872 0.3 -0.01068919 0.1877568 0.3 -0.0115785 0.1853136 0.3 -0.01047289 0.1876885 0.3 -0.01114583 0.1851772 0.3 -0.01025146 0.1876395 0.3 -0.01070296 0.185079 0.3 -0.01002657 0.1876099 0.3 -0.01025319 0.1850197 0.3 -0.009799957 0.1876 0.3 -0.009799957 0.185 0.3 0.009799957 0.1876 0.3 0.009799957 0.185 0.3 0.01002657 0.1876099 0.3 0.01025319 0.1850197 0.3 0.01025146 0.1876395 0.3 0.01070296 0.185079 0.3 0.01047289 0.1876885 0.3 0.01114583 0.1851772 0.3 0.01068919 0.1877568 0.3 0.0115785 0.1853136 0.3 0.01089876 0.1878436 0.3 0.01199758 0.1854872 0.3 0.01109999 0.1879483 0.3 0.01239997 0.1856966 0.3 0.01129126 0.1880702 0.3 0.01278257 0.1859404 0.3 0.01147121 0.1882082 0.3 0.01314246 0.1862165 0.3 0.01163846 0.1883615 0.3 0.0134769 0.186523 0.3 0.0117917 0.1885287 0.3 0.01378339 0.1868575 0.3 0.01192975 0.1887087 0.3 0.01405954 0.1872174 0.3 0.01205164 0.1888999 0.3 0.01430332 0.1876 0.3 0.01215636 0.1891012 0.3 0.01451277 0.1880024 0.3 0.01224315 0.1893107 0.3 0.0146864 0.1884214 0.3 0.01231139 0.189527 0.3 0.01482278 0.1888541 0.3 0.01236045 0.1897485 0.3 0.01492094 0.189297 0.3 0.01239007 0.1899734 0.3 0.01498019 0.1897467 0.3 0.01239997 0.1902 0.3 0.01499998 0.1902 0.3 0.01239997 0.2098 0.3 0.01499998 0.2098 0.3 0.01239007 0.2100266 0.3 0.01498019 0.2102532 0.3 0.01236045 0.2102515 0.3 0.01492094 0.210703 0.3 0.01231139 0.2104729 0.3 0.01482278 0.2111458 0.3 0.01224315 0.2106892 0.3 0.0146864 0.2115785 0.3 0.01215636 0.2108988 0.3 0.01451277 0.2119976 0.3 0.01205164 0.2111 0.3 0.01430332 0.2124 0.3 0.01192975 0.2112913 0.3 0.01405954 0.2127826 0.3 0.0117917 0.2114712 0.3 0.01378339 0.2131425 0.3 0.01163846 0.2116385 0.3 0.0134769 0.2134769 0.3 0.01147121 0.2117917 0.3 0.01314246 0.2137834 0.3 0.01129126 0.2119297 0.3 0.01278257 0.2140595 0.3 0.01109999 0.2120516 0.3 0.01239997 0.2143033 0.3 0.01089876 0.2121564 0.3 0.01199758 0.2145128 0.3 0.01068919 0.2122431 0.3 0.0115785 0.2146864 0.3 0.01047289 0.2123114 0.3 0.01114583 0.2148228 0.3 0.01025146 0.2123605 0.3 0.01070296 0.2149209 0.3 0.01002657 0.2123901 0.3 0.01025319 0.2149802 0.3 0.009799957 0.2124 0.3 0.009799957 0.215 0.3 -0.009799957 0.2124 0.3 -0.009799957 0.215 0.3 -0.01002657 0.2123901 0.3 -0.01025319 0.2149802 0.3 -0.01025146 0.2123605 0.3 -0.01070296 0.2149209 0.3 -0.01047289 0.2123114 0.3 -0.01114583 0.2148228 0.3 -0.01068919 0.2122431 0.3 -0.0115785 0.2146864 0.3 -0.01089876 0.2121564 0.3 -0.01199758 0.2145128 0.3 -0.01109999 0.2120516 0.3 -0.01239997 0.2143033 0.3 -0.01129126 0.2119297 0.3 -0.01278257 0.2140595 0.3 -0.01147121 0.2117917 0.3 -0.01314246 0.2137834 0.3 -0.01163846 0.2116385 0.3 -0.0134769 0.2134769 0.3 -0.0117917 0.2114712 0.3 -0.01378339 0.2131425 0.3 -0.01192975 0.2112913 0.3 -0.01405954 0.2127826 0.3 -0.01205164 0.2111 0.3 -0.01430332 0.2124 0.3 -0.01215636 0.2108988 0.3 -0.01451277 0.2119976 0.3 -0.01224315 0.2106892 0.3 -0.0146864 0.2115785 0.3 -0.01231139 0.2104729 0.3 -0.01482278 0.2111458 0.3 -0.01236045 0.2102515 0.3 -0.01492094 0.210703 0.3 -0.01239007 0.2100266 0.3 -0.01498019 0.2102532 0.3 -0.01239997 0.2098 0.3 -0.01499998 0.2098 0.3 -0.01239997 0.1902 0.3 -0.01499998 0.1902 0.3 -0.01239007 0.1899734 0.3 -0.01498019 0.1897467 0.3 -0.01236045 0.1897485 0.3 -0.01492094 0.189297 0.3 -0.01231139 0.189527 0.3 -0.01482278 0.1888541 0.3</float_array>
          <technique_common>
            <accessor source="#chassis_default_as_machined__21-mesh-positions-array" count="368" stride="3">
              <param name="X" type="float"/>
              <param name="Y" type="float"/>
              <param name="Z" type="float"/>
            </accessor>
          </technique_common>
        </source>
        <source id="chassis_default_as_machined__21-mesh-normals">
          <float_array id="chassis_default_as_machined__21-mesh-normals-array" count="1731">-0.7071068 6.97895e-5 -0.7071068 -0.7070196 -1.74461e-5 -0.707194 -0.7070719 0 -0.7071417 -0.7071722 -8.7246e-6 -0.7070413 -0.7070806 -8.724e-6 -0.7071329 -0.7070894 1.74478e-5 -0.7071242 -0.7071076 0 -0.707106 -0.7070981 -8.72379e-6 -0.7071155 -0.707229 1.74512e-5 -0.7069846 -0.7071592 8.72476e-6 -0.7070545 -0.7069149 0 -0.7072986 -0.7070719 8.72411e-6 -0.7071417 -0.7071591 8.70757e-6 -0.7070546 -0.7071068 0 -0.7071068 -0.7071765 3.48294e-5 -0.7070372 -0.7068266 -7.00383e-5 -0.7073869 -0.7071242 -8.70714e-6 -0.7070894 -0.7070367 -7.00591e-5 -0.7071769 -0.7071591 -8.70757e-6 -0.7070546 -0.707072 -3.48277e-5 -0.7071416 -0.7070468 1.97629e-5 -0.7071668 -0.7070721 6.07212e-5 -0.7071415 -0.707248 7.05977e-5 -0.7069656 -0.7071068 -1.23546e-4 -0.7071068 -0.7070721 -8.67531e-6 -0.7071415 -0.7071068 -1.74474e-5 -0.7071068 -0.7070719 -1.22138e-4 -0.7071417 -0.7070545 0 -0.7071592 -0.7071635 1.74494e-5 -0.7070501 -0.7069498 0 -0.7072638 -0.7071417 0 -0.7070719 -0.7071141 0 -0.7070996 -0.7071011 0 -0.7071124 -0.7070894 0 -0.7071242 -0.7071635 0 -0.7070501 -0.7071131 -1.55407e-5 -0.7071005 -0.7071242 -8.708e-6 -0.7070894 -0.7070017 1.22585e-4 -0.7072119 -0.7071068 -8.70821e-6 -0.7071068 -0.7071419 0 -0.7070718 -0.7071068 -3.48328e-5 -0.7071068 -0.7071765 -6.09515e-5 -0.7070372 -0.7071762 0 -0.7070374 -0.707248 1.23571e-4 -0.7069656 -0.7070027 8.67445e-6 -0.7072109 -0.7071774 1.76477e-5 -0.7070362 -0.7070374 -4.33744e-6 -0.7071762 -0.7071774 -7.94304e-5 -0.7070362 -0.7071762 -4.33701e-6 -0.7070374 -0.707248 -6.1773e-5 -0.7069656 -0.7071417 8.72411e-6 -0.7070719 -0.7071416 8.70778e-6 -0.707072 -0.707072 3.48277e-5 -0.7071416 -0.7071068 1.22616e-4 -0.7071068 -0.7071415 6.07152e-5 -0.7070721 -0.706895 -1.05886e-4 -0.7073186 -0.7071774 5.29642e-5 -0.7070361 -0.7070721 -8.6736e-6 -0.7071415 -0.7071718 0 -0.7070418 -0.7071245 2.21686e-6 -0.7070891 -0.7071046 -3.79153e-6 -0.707109 -0.7071068 3.3252e-6 -0.7071068 -0.7070755 -5.45063e-6 -0.7071381 -0.7071068 4.31289e-6 -0.7071068 -0.706964 -1.78562e-5 -0.7072497 -0.7071068 4.31247e-6 -0.7071068 -0.7071068 8.0353e-5 -0.7071068 -0.7070378 -4.31373e-5 -0.7071759 -0.7071782 5.35525e-5 -0.7070354 -0.7071413 5.17521e-5 -0.7070723 -0.7071068 -1.51778e-4 -0.7071068 -0.7070723 -2.15655e-5 -0.7071413 -0.7071068 -8.18653e-6 -0.7071068 -0.7070457 9.82493e-6 -0.7071679 -0.7071766 -8.73144e-6 -0.707037 -0.7071068 -8.7323e-6 -0.7071068 -0.7070631 1.09158e-6 -0.7071505 -0.7070721 4.77095e-5 -0.7071415 -0.7071758 -5.17446e-5 -0.7070378 -0.7070354 1.51793e-4 -0.7071782 -0.7070378 2.15687e-5 -0.7071759 -0.7072497 -8.03368e-5 -0.706964 -0.7069688 3.45065e-5 -0.7072448 -0.7072497 -3.57053e-5 -0.706964 -0.7071068 8.62494e-6 -0.7071068 -0.7071411 -2.56856e-5 -0.7070725 -0.7071068 6.34713e-5 -0.7071068 -0.7072095 0 -0.7070041 -0.7070765 0 -0.7071372 -0.7071783 8.66555e-6 -0.7070353 -0.7071157 9.97574e-6 -0.707098 -0.7070755 2.69146e-6 -0.7071381 -0.7071242 1.7465e-5 -0.7070893 -0.7070981 7.64067e-6 -0.7071155 -0.7071242 -8.73252e-6 -0.7070893 -0.7071418 1.09148e-6 -0.7070719 -0.707072 -6.96623e-5 -0.7071416 -0.7070721 0 -0.7071415 -0.7071068 -5.29483e-5 -0.7071068 -0.7071415 8.67445e-6 -0.7070721 -0.7070362 1.76512e-5 -0.7071774 -0.7071415 -4.3368e-6 -0.7070721 -0.7070374 -4.33701e-6 -0.7071762 -0.7070362 9.70816e-5 -0.7071774 -0.7071068 -1.78526e-5 -0.7071068 -0.7071068 4.31331e-6 -0.7071068 -0.7071068 -4.31247e-5 -0.7071068 -0.7069639 -9.82291e-5 -0.7072497 -0.7071068 -1.72499e-5 -0.7071068 -0.7071068 4.31331e-5 -0.7071068 -0.7071415 -1.08324e-5 -0.7070721 -0.7068949 -4.4128e-5 -0.7073186 -0.7072586 7.61613e-5 -0.706955 -0.7071068 1.81347e-5 -0.7071068 -0.707124 1.07615e-5 -0.7070896 -0.7071753 -2.56818e-5 -0.7070384 -0.7070726 0 -0.7071411 -0.7071242 -2.18313e-6 -0.7070893 -0.7071955 -2.21664e-6 -0.7070181 -0.7070634 1.08334e-5 -0.7071501 -0.7071955 -4.43327e-6 -0.7070181 -0.7070548 -6.49994e-6 -0.7071588 -0.7071422 1.10846e-5 -0.7070713 -0.7071068 4.33319e-6 -0.7071068 -0.7071068 -1.77344e-5 -0.7071068 -0.7071242 -1.51665e-5 -0.7070895 -0.7071774 6.17545e-5 -0.7070362 -0.7070041 -3.12533e-5 -0.7072095 -0.7069617 4.5346e-5 -0.7072519 -0.7068925 3.57161e-5 -0.7073211 -0.7071757 1.07612e-5 -0.7070379 -0.7071793 -4.53413e-5 -0.7070342 -0.7070556 0 -0.707158 -0.7071434 1.14356e-5 -0.7070702 -0.7070897 5.3363e-6 -0.7071239 -0.7070702 -6.86209e-6 -0.7071434 -0.7071324 -8.00416e-6 -0.7070811 -0.7070702 -2.28736e-6 -0.7071434 -0.7071467 1.66253e-6 -0.7070669 -0.7071415 4.33723e-5 -0.7070721 -0.7071413 1.72507e-5 -0.7070723 -0.7069639 0 -0.7072497 -0.7071413 -4.31268e-5 -0.7070723 -0.7071068 -8.0353e-5 -0.7071068 -0.7071413 3.45014e-5 -0.7070723 -0.7068925 -3.57161e-5 -0.7073211 -0.7071759 8.62578e-6 -0.7070378 -0.7070354 -8.03774e-5 -0.7071782 -0.7070896 1.0762e-5 -0.707124 -0.7071068 -6.65041e-6 -0.7071068 -0.7071068 5.45769e-6 -0.7071068 -0.7071075 -1.05103e-6 -0.7071061 -0.7071155 -1.09155e-6 -0.7070981 -0.7070719 4.09347e-6 -0.7071418 -0.707181 0 -0.7070326 -0.7071052 0 -0.7071084 -0.7071133 0 -0.7071003 -0.7070413 8.18739e-6 -0.7071723 -0.7070806 4.91222e-6 -0.707133 -0.7071766 -6.54858e-6 -0.707037 -0.7071264 -1.25523e-5 -0.7070872 -0.7071068 -4.41236e-5 -0.7071068 -0.7069751 7.61855e-5 -0.7072385 -0.7073244 4.5332e-5 -0.7068892 -0.7071068 3.57125e-5 -0.7071068 -0.7070723 -1.72205e-5 -0.7071412 -0.7072519 -5.43928e-5 -0.7069618 -0.7071154 1.81423e-5 -0.7070983 -0.7070885 1.14371e-5 -0.7071251 -0.7071239 -1.49409e-5 -0.7070897 -0.7070153 -1.3726e-5 -0.7071983 -0.707094 1.06727e-6 -0.7071196 -0.7071434 -2.28713e-6 -0.7070702 -0.707027 1.66285e-6 -0.7071866 -0.7071068 1.6626e-6 -0.7071068 -0.7071155 1.20071e-5 -0.7070981 -0.7071049 -1.05103e-6 -0.7071087 -0.7070741 -4.09348e-6 -0.7071395 -0.7071112 0 -0.7071025 -0.7071084 0 -0.7071052 -0.7070719 0 -0.7071418 -0.7071854 -8.18583e-6 -0.7070282 -0.7071505 -7.64048e-6 -0.7070631 -0.7070981 1.74644e-5 -0.7071155 -0.7070959 -5.45791e-6 -0.7071177 -0.7071941 -2.18291e-6 -0.7070195 -0.7070358 -2.21703e-6 -0.7071778 -0.7071155 -2.16662e-6 -0.7070981 -0.7071068 2.2168e-6 -0.7071068 -0.7071068 1.51662e-5 -0.7071068 -0.7070358 1.10851e-5 -0.7071778 -0.7071068 -1.73327e-5 -0.7071068 -0.7070358 -1.33021e-5 -0.7071778 -0.7070361 6.17915e-5 -0.7071774 -0.7071514 -3.12382e-5 -0.7070622 4.93974e-5 0 1 0 0 1 9.87849e-5 0 1 9.87971e-5 0 1 -9.87965e-5 0 1 1.97594e-4 0 1 -1.97599e-4 0 1 9.87923e-5 0 1 -9.87947e-5 0 1 1.97589e-4 0 1 -4.94022e-5 0 1 2.46987e-5 0 1 -2.46975e-5 0 1 -4.93974e-5 0 1 1.23493e-5 0 1 1.00338e-5 0 1 -1.97609e-4 0 1 9.87996e-5 0 1 -1.9757e-4 0 1 -9.87971e-5 0 1 -1.97594e-4 0 1 1.97599e-4 0 1 9.87947e-5 0 1 -1.97589e-4 0 1 -1.23481e-5 0 1 2.46975e-5 0 1 0 1 0 0.04362195 0.9990482 0 0.04362189 0.9990481 0 0.1305366 0.9914435 0 0.1305376 0.9914435 0 0.2164352 0.976297 0 0.2164349 0.9762971 0 0.3006906 0.9537218 0 0.3006896 0.9537221 0 0.3827068 0.9238699 0 0.3827076 0.9238696 0 0.4617442 0.8870132 0 0.4617412 0.8870148 0 0.5372956 0.8433941 0 0.5372943 0.8433949 0 0.6087703 0.7933466 0 0.6087688 0.7933478 0 0.6755855 0.7372817 0 0.6755824 0.7372846 0 0.7372751 0.6755927 0 0.7372764 0.6755912 0 0.7798867 0.6259209 0 0.7933607 0.6087519 8.08564e-6 0.8064681 0.5912777 0 0.8314577 0.5555883 0 0.8433848 0.5373101 8.0564e-6 0.8549038 0.5187866 0 0.8767374 0.4809697 0 0.8870144 0.4617418 8.04013e-6 0.8968651 0.4423044 0 0.9153138 0.4027414 0 0.9238795 0.3826838 8.05076e-6 0.9320063 0.3624421 0 0.9469293 0.3214423 0 0.953715 0.3007122 8.04229e-6 0.9600516 0.2798234 0 0.9713439 0.2376784 0 0.9762967 0.216437 8.04061e-6 0.9807861 0.1950867 0 0.9883612 0.1521261 0 0.9914449 0.130526 8.04288e-6 0.9940562 0.1088683 0 0.99786 0.0653873 0 0.999048 0.04362446 8.04819e-6 0.9997624 0.02180087 0 1 0 0 0.9997624 -0.02179944 0 0.9990481 -0.04362446 8.04738e-6 0.9914449 -0.130526 8.04288e-6 0.9940562 -0.1088683 0 0.9978595 -0.06539368 0 0.9762967 -0.216437 8.04713e-6 0.9807861 -0.1950867 0 0.9883602 -0.1521319 0 0.953718 -0.3007028 8.06813e-6 0.9600516 -0.2798234 0 0.9713428 -0.2376832 0 0.9238795 -0.3826838 8.05076e-6 0.9320063 -0.3624421 0 0.9469354 -0.321424 0 0.8870075 -0.4617553 8.06647e-6 0.8968651 -0.4423044 0 0.9153156 -0.4027373 0 0.8433943 -0.5372953 8.04312e-6 0.8549038 -0.5187866 0 0.8767224 -0.4809968 0 0.7798933 -0.6259126 1.61118e-5 0.8064451 -0.591309 0 0.8314756 -0.5555613 0 0.7933483 -0.608768 0 0.7372732 -0.6755948 0 0.7372784 -0.6755892 0 0.6756036 -0.7372652 0 0.6756 -0.7372683 0 0.6087481 -0.7933637 0 0.6087496 -0.7933626 0 0.5373162 -0.843381 0 0.5373204 -0.8433782 0 0.461744 -0.8870133 0 0.4617414 -0.8870146 0 0.3826783 -0.9238817 0 0.3826801 -0.9238811 0 0.3006906 -0.9537218 0 0.3006896 -0.9537221 0 0.2164663 -0.9762901 0 0.2164666 -0.9762901 0 0.1305049 -0.9914478 0 0.1305048 -0.9914477 0 0.04362207 -0.9990482 0 0.04362183 -0.9990482 0 -0.04362195 -0.9990481 0 -0.04362189 -0.9990481 0 -0.1305047 -0.9914478 0 -0.1305056 -0.9914476 0 -0.2164661 -0.9762902 0 -0.2164657 -0.9762903 0 -0.300691 -0.9537217 0 -0.300692 -0.9537214 0 -0.3826788 -0.9238815 0 -0.382678 -0.9238818 0 -0.4617423 -0.8870142 0 -0.4617439 -0.8870133 0 -0.5373204 -0.8433782 0 -0.5373138 -0.8433825 0 -0.6087474 -0.7933641 0 -0.6087474 -0.7933642 0 -0.6756024 -0.7372662 0 -0.6756039 -0.7372648 0 -0.7372753 -0.6755925 0 -0.7372738 -0.6755941 0 -0.8433943 -0.5372953 0 -0.8548917 -0.5188066 1.68581e-5 -0.8314853 -0.5555468 0 -0.7933515 -0.6087639 0 -0.8064374 -0.5913196 1.68779e-5 -0.7798786 -0.625931 0 -0.9238797 -0.3826833 0 -0.9319993 -0.3624604 1.68985e-5 -0.9153198 -0.4027279 0 -0.8870078 -0.4617544 0 -0.8968649 -0.4423046 1.692e-5 -0.8767222 -0.4809972 0 -0.9762955 -0.2164418 0 -0.980786 -0.195087 1.69072e-5 -0.97134 -0.2376948 0 -0.9537189 -0.3006996 0 -0.9600512 -0.2798249 1.69447e-5 -0.9469323 -0.321433 0 -0.9990482 -0.04362225 0 -0.9997619 -0.02182233 1.69151e-5 -0.9978592 -0.0654003 0 -0.9914452 -0.1305235 0 -0.9940552 -0.1088771 1.69032e-5 -0.9883622 -0.1521192 0 0 -1 0 -0.9914452 0.1305243 0 -0.9883607 0.1521292 1.69053e-5 -0.9940558 0.1088723 0 -0.9990482 0.04362076 0 -0.9978601 0.06538534 1.69174e-5 -0.9997617 0.02183353 0 -0.953716 0.3007091 0 -0.946926 0.3214516 1.68941e-5 -0.96005 0.2798287 0 -0.9762958 0.2164407 0 -0.9713395 0.2376966 1.68966e-5 -0.9807858 0.1950882 0 -0.8870107 0.4617489 0 -0.8767381 0.4809681 1.68707e-5 -0.8968722 0.4422898 0 -0.9238801 0.3826822 0 -0.9153144 0.4027402 1.69035e-5 -0.932003 0.3624506 0 -0.7798683 0.6259437 1.69399e-5 -0.8064737 0.5912701 0 -0.8433844 0.5373107 0 -0.8314567 0.5555897 1.68928e-5 -0.8549031 0.5187879 0 -0.7933601 0.6087527 0 -0.7372738 0.6755941 0 -0.7372753 0.6755925 0 -0.6755843 0.7372828 0 -0.6755863 0.737281 0 -0.6087663 0.7933496 0 -0.6087698 0.793347 0 -0.5372936 0.8433954 0 -0.5372939 0.8433952 0 -0.4617425 0.887014 0 -0.4617437 0.8870134 0 -0.3827073 0.9238697 0 -0.3827056 0.9238705 0 -0.300691 0.9537217 0 -0.300692 0.9537214 0 -0.2164351 0.9762971 0 -0.2164341 0.9762973 0 -0.1305374 0.9914434 0 -0.1305375 0.9914435 0 -0.04362189 0.9990481 0 -0.04362195 0.9990481 0 -0.04362183 0.9990482 0 -0.04362213 0.9990481 0 -0.1305373 0.9914434 0 -0.1305367 0.9914436 0 -0.2164034 0.9763041 0 -0.2164043 0.9763038 0 -0.3007498 0.9537032 0 -0.3007483 0.9537037 0 -0.3826786 0.9238816 0 -0.3826789 0.9238814 0 -0.4617173 0.8870272 0 -0.4617186 0.8870265 0 -0.5373188 0.8433792 0 -0.5373167 0.8433806 0 -0.6087426 0.7933679 0 -0.6087452 0.7933659 0 -0.675603 0.7372656 0 -0.6756064 0.7372624 0 -0.7372584 0.675611 0 -0.7372591 0.6756101 0 -0.779881 0.6259278 0 -0.7933766 0.6087311 -4.03671e-6 -0.8064885 0.5912498 0 -0.8314304 0.555629 0 -0.8433755 0.5373248 -4.0493e-6 -0.8549081 0.5187796 0 -0.876753 0.4809411 0 -0.8870134 0.4617437 -4.02211e-6 -0.8968578 0.442319 0 -0.915311 0.402748 0 -0.9238774 0.3826887 -4.04772e-6 -0.9320115 0.3624288 0 -0.9469375 0.3214181 0 -0.9537158 0.3007097 -4.03416e-6 -0.9600406 0.2798607 0 -0.9713455 0.2376722 0 -0.9762983 0.2164294 -4.02715e-6 -0.980784 0.1950972 0 -0.9883602 0.1521319 0 -0.9914447 0.130528 -4.03987e-6 -0.9940565 0.1088657 0 -0.99786 0.06538665 0 -0.9990482 0.04362177 -4.04116e-6 -0.9997619 0.02182495 0 0.991446 0.1305173 0 0.9883608 0.1521281 -8.41873e-6 0.9940601 0.1088328 0 0.9990481 0.04362416 0 0.9978578 0.06542092 -8.42176e-6 0.9997619 0.02182203 0 0.9537158 0.3007095 0 0.9469351 0.3214249 -8.40354e-6 0.9600471 0.2798386 0 0.9762949 0.2164448 0 0.9713506 0.2376514 -8.39046e-6 0.9807795 0.1951195 0 0.887017 0.4617367 0 0.8767379 0.4809685 -8.37354e-6 0.8968647 0.4423053 0 0.9238792 0.3826845 0 0.9153099 0.4027506 -8.43014e-6 0.9320047 0.3624463 0 0.7798946 0.6259109 -8.39857e-6 0.8064725 0.5912715 0 0.843374 0.5373271 0 0.831435 0.5556223 -8.42805e-6 0.8549151 0.5187681 0 0.7933766 0.6087312 0 0.7372578 0.6756116 0 0.737255 0.6756145 0 0.6756078 0.7372612 0 0.6756045 0.7372643 0 0.6087487 0.7933632 0 0.6087446 0.7933664 0 0.537318 0.8433798 0 0.5373157 0.8433812 0 0.4617191 0.8870263 0 0.4617175 0.887027 0 0.3826799 0.9238811 0 0.3826778 0.923882 0 0.3007528 0.9537022 0 0.3007493 0.9537033 0 0.2164023 0.9763044 0 0.2164033 0.9763041 0 0.1305369 0.9914435 0 0.130539 0.9914433 0 0.04362207 0.9990482 0 0.04362154 0.9990482 0 0.04362183 -0.9990482 0 0.04362177 -0.9990482 0 0.1305381 -0.9914434 0 0.1305378 -0.9914433 0 0.2164659 -0.9762903 0 0.2164649 -0.9762905 0 0.3006896 -0.9537221 0 0.3006931 -0.9537211 0 0.3826778 -0.923882 0 0.3826798 -0.9238811 0 0.4617664 -0.8870017 0 0.4617736 -0.8869978 0 0.5372722 -0.8434091 0 0.5372681 -0.8434116 0 0.6087859 -0.7933346 0 0.60879 -0.7933314 0 0.6755653 -0.7373002 0 0.6755756 -0.7372909 0 0.7372885 -0.675578 0 0.7372843 -0.6755827 0 0.8433932 -0.5372971 0 0.8549161 -0.5187663 -8.3987e-6 0.8314732 -0.5555649 0 0.7933506 -0.608765 0 0.80643 -0.5913296 -8.36933e-6 0.7798945 -0.6259111 0 0.9238765 -0.382691 0 0.9320052 -0.362445 -8.40173e-6 0.9153125 -0.4027445 0 0.887012 -0.4617465 0 0.8968922 -0.4422492 -8.42714e-6 0.8767135 -0.4810131 0 0.976297 -0.2164354 0 0.9807853 -0.1950905 -8.44413e-6 0.9713385 -0.2377006 0 0.9537159 -0.3007095 0 0.960058 -0.2798014 -8.40246e-6 0.9469231 -0.3214604 0 0.999048 -0.04362487 0 0.9997622 -0.02180981 -8.4185e-6 0.997857 -0.0654332 0 0.9914441 -0.1305323 0 0.994059 -0.1088425 -8.41873e-6 0.9883615 -0.1521241 0 -0.9997619 -0.02182495 0 -0.9990482 -0.04362177 -4.03994e-6 -0.9914436 -0.1305364 -4.04013e-6 -0.9940549 -0.1088799 0 -0.9978596 -0.0653932 0 -0.9762983 -0.2164294 -4.05335e-6 -0.9807889 -0.195072 0 -0.988361 -0.1521273 0 -0.9537158 -0.3007098 -4.04071e-6 -0.960051 -0.2798255 0 -0.9713376 -0.2377043 0 -0.9238774 -0.3826887 -4.03462e-6 -0.9320115 -0.3624288 0 -0.9469218 -0.321464 0 -0.8870134 -0.4617437 -4.04831e-6 -0.8968836 -0.442267 0 -0.9153106 -0.4027488 0 -0.8433945 -0.537295 -4.03597e-6 -0.8549081 -0.5187796 0 -0.8767252 -0.4809917 0 -0.7798877 -0.6259196 -8.04465e-6 -0.8064426 -0.5913124 0 -0.8314714 -0.5555676 0 -0.7933506 -0.608765 0 -0.7372891 -0.6755774 0 -0.7372884 -0.6755782 0 -0.6755708 -0.7372952 0 -0.6755673 -0.7372984 0 -0.6087898 -0.7933318 0 -0.6087807 -0.7933386 0 -0.53727 -0.8434103 0 -0.5372722 -0.8434091 0 -0.4617703 -0.8869996 0 -0.4617689 -0.8870003 0 -0.3826789 -0.9238814 0 -0.3826786 -0.9238816 0 -0.3006924 -0.9537212 0 -0.3006862 -0.9537233 0 -0.2164655 -0.9762903 0 -0.2164674 -0.9762899 0 -0.1305367 -0.9914436 0 -0.1305373 -0.9914434 0 -0.04362213 -0.9990481 0 -0.04362183 -0.9990482 0 -1 0 0</float_array>
          <technique_common>
            <accessor source="#chassis_default_as_machined__21-mesh-normals-array" count="577" stride="3">
              <param name="X" type="float"/>
              <param name="Y" type="float"/>
              <param name="Z" type="float"/>
            </accessor>
          </technique_common>
        </source>
        <vertices id="chassis_default_as_machined__21-mesh-vertices">
          <input semantic="POSITION" source="#chassis_default_as_machined__21-mesh-positions"/>
        </vertices>
        <triangles count="736">
          <input semantic="VERTEX" source="#chassis_default_as_machined__21-mesh-vertices" offset="0"/>
          <input semantic="NORMAL" source="#chassis_default_as_machined__21-mesh-normals" offset="1"/>
          <p>0 0 1 0 2 0 2 1 1 1 3 1 1 2 4 2 3 2 3 3 4 3 5 3 5 4 4 4 6 4 4 5 7 5 6 5 6 6 7 6 8 6 7 6 9 6 8 6 8 7 9 7 10 7 9 8 11 8 10 8 10 9 11 9 12 9 11 10 13 10 12 10 12 5 13 5 14 5 2 11 15 11 0 11 15 12 16 12 0 12 0 13 16 13 17 13 16 14 18 14 17 14 17 15 18 15 19 15 14 16 13 16 20 16 13 17 21 17 20 17 20 18 21 18 22 18 21 13 23 13 22 13 22 19 23 19 24 19 25 20 26 20 27 20 24 21 23 21 28 21 23 22 29 22 28 22 28 13 29 13 30 13 29 23 31 23 30 23 30 24 31 24 32 24 33 10 34 10 35 10 34 25 36 25 35 25 35 26 36 26 37 26 25 27 27 27 38 27 27 28 39 28 38 28 38 29 39 29 40 29 39 30 41 30 40 30 40 31 41 31 42 31 41 32 43 32 42 32 42 33 43 33 33 33 43 34 44 34 33 34 33 35 44 35 34 35 26 36 25 36 45 36 25 37 46 37 45 37 45 38 46 38 47 38 46 39 48 39 47 39 47 40 48 40 49 40 18 41 50 41 19 41 50 42 51 42 19 42 19 43 51 43 52 43 51 44 53 44 52 44 52 45 53 45 54 45 53 46 55 46 54 46 54 47 55 47 56 47 55 48 57 48 56 48 56 49 57 49 58 49 36 50 59 50 37 50 59 51 60 51 37 51 37 13 60 13 61 13 60 52 62 52 61 52 61 53 62 53 63 53 49 54 48 54 64 54 48 55 65 55 64 55 64 42 65 42 66 42 65 56 67 56 66 56 66 57 67 57 68 57 69 58 70 58 71 58 70 59 72 59 71 59 71 60 72 60 73 60 72 61 74 61 73 61 73 62 74 62 75 62 32 63 31 63 76 63 31 64 77 64 76 64 76 65 77 65 78 65 77 66 79 66 78 66 78 67 79 67 80 67 79 68 81 68 80 68 80 69 81 69 82 69 81 70 83 70 82 70 82 71 83 71 84 71 85 72 86 72 87 72 86 73 88 73 87 73 87 74 88 74 89 74 88 75 90 75 89 75 89 76 90 76 91 76 57 77 92 77 58 77 92 78 93 78 58 78 58 79 93 79 94 79 93 80 95 80 94 80 94 81 95 81 96 81 95 82 97 82 96 82 96 83 97 83 98 83 97 84 99 84 98 84 84 85 83 85 100 85 83 86 101 86 100 86 100 87 101 87 102 87 103 88 104 88 105 88 104 59 106 59 105 59 105 89 106 89 107 89 106 90 108 90 107 90 107 91 108 91 109 91 110 13 111 13 112 13 111 92 113 92 112 92 112 93 113 93 114 93 113 94 115 94 114 94 114 95 115 95 116 95 62 96 117 96 63 96 117 97 118 97 63 97 63 98 118 98 119 98 118 99 120 99 119 99 119 100 120 100 121 100 120 101 122 101 121 101 121 47 122 47 123 47 122 102 124 102 123 102 123 103 124 103 125 103 68 63 67 63 126 63 67 104 127 104 126 104 126 105 127 105 128 105 127 66 129 66 128 66 128 106 129 106 130 106 129 107 131 107 130 107 130 108 131 108 132 108 131 13 133 13 132 13 132 109 133 109 134 109 135 110 136 110 99 110 136 111 137 111 99 111 99 112 137 112 98 112 101 113 138 113 102 113 138 81 139 81 102 81 102 114 139 114 140 114 134 115 133 115 141 115 133 86 142 86 141 86 141 116 142 116 143 116 90 117 144 117 91 117 144 118 145 118 91 118 91 119 145 119 146 119 145 120 147 120 146 120 146 121 147 121 148 121 147 122 149 122 148 122 148 123 149 123 150 123 149 124 151 124 150 124 150 125 151 125 135 125 151 126 152 126 135 126 135 127 152 127 136 127 139 128 153 128 140 128 153 129 154 129 140 129 140 130 154 130 155 130 154 131 156 131 155 131 155 132 156 132 157 132 156 133 158 133 157 133 157 134 158 134 159 134 158 135 160 135 159 135 159 136 160 136 103 136 160 137 161 137 103 137 103 138 161 138 104 138 124 139 162 139 125 139 162 140 163 140 125 140 125 141 163 141 164 141 163 142 165 142 164 142 164 143 165 143 166 143 165 144 167 144 166 144 166 145 167 145 168 145 167 146 169 146 168 146 142 113 170 113 143 113 170 147 171 147 143 147 143 148 171 148 172 148 74 149 173 149 75 149 173 150 174 150 75 150 75 151 174 151 175 151 174 152 176 152 175 152 175 153 176 153 177 153 176 154 178 154 177 154 177 155 178 155 179 155 178 156 180 156 179 156 179 13 180 13 181 13 180 157 182 157 181 157 181 158 182 158 85 158 182 159 183 159 85 159 85 160 183 160 86 160 184 110 185 110 169 110 185 161 186 161 169 161 169 162 186 162 168 162 171 163 187 163 172 163 187 164 188 164 172 164 172 165 188 165 189 165 188 166 190 166 189 166 189 167 190 167 191 167 190 168 192 168 191 168 191 169 192 169 193 169 192 170 194 170 193 170 193 171 194 171 69 171 194 172 195 172 69 172 69 173 195 173 70 173 108 174 196 174 109 174 196 175 197 175 109 175 109 176 197 176 198 176 197 152 199 152 198 152 198 177 199 177 200 177 199 178 201 178 200 178 200 13 201 13 202 13 201 179 203 179 202 179 202 180 203 180 204 180 203 181 205 181 204 181 204 182 205 182 110 182 205 183 206 183 110 183 110 184 206 184 111 184 115 185 207 185 116 185 207 186 208 186 116 186 116 187 208 187 209 187 208 188 210 188 209 188 209 189 210 189 211 189 210 190 212 190 211 190 211 191 212 191 213 191 212 192 214 192 213 192 213 189 214 189 184 189 214 193 215 193 184 193 184 194 215 194 185 194 216 195 217 195 218 195 217 196 219 196 218 196 218 196 219 196 220 196 219 196 221 196 220 196 220 196 221 196 222 196 221 196 223 196 222 196 222 197 223 197 224 197 223 196 225 196 224 196 224 196 225 196 226 196 225 196 227 196 226 196 226 196 227 196 228 196 227 196 229 196 228 196 228 196 229 196 230 196 229 196 231 196 230 196 230 196 231 196 232 196 231 196 233 196 232 196 232 196 233 196 234 196 233 198 235 198 234 198 234 196 235 196 236 196 235 196 237 196 236 196 236 196 237 196 238 196 237 196 239 196 238 196 238 196 239 196 240 196 239 196 241 196 240 196 240 196 241 196 242 196 241 199 243 199 242 199 242 196 243 196 244 196 243 196 245 196 244 196 244 196 245 196 246 196 245 196 247 196 246 196 246 196 247 196 248 196 247 196 249 196 248 196 248 200 249 200 250 200 249 196 251 196 250 196 250 196 251 196 252 196 251 196 253 196 252 196 252 201 253 201 254 201 253 202 255 202 254 202 254 196 255 196 256 196 255 196 257 196 256 196 256 201 257 201 258 201 257 196 259 196 258 196 258 196 259 196 260 196 259 203 261 203 260 203 260 196 261 196 262 196 261 196 263 196 262 196 262 196 263 196 264 196 263 203 265 203 264 203 264 204 265 204 266 204 265 196 267 196 266 196 266 196 267 196 268 196 267 196 269 196 268 196 268 196 269 196 270 196 269 196 271 196 270 196 270 196 271 196 272 196 271 196 273 196 272 196 272 196 273 196 274 196 273 205 275 205 274 205 274 196 275 196 276 196 275 206 277 206 276 206 276 196 277 196 278 196 277 207 279 207 278 207 278 208 279 208 280 208 279 209 281 209 280 209 280 196 281 196 282 196 281 196 283 196 282 196 282 196 283 196 284 196 283 196 285 196 284 196 284 196 285 196 286 196 285 196 287 196 286 196 286 210 287 210 288 210 287 196 289 196 288 196 288 206 289 206 290 206 289 196 291 196 290 196 290 196 291 196 292 196 291 196 293 196 292 196 292 208 293 208 294 208 293 196 295 196 294 196 294 196 295 196 296 196 295 196 297 196 296 196 296 196 297 196 298 196 297 196 299 196 298 196 298 196 299 196 300 196 299 196 301 196 300 196 300 196 301 196 302 196 301 196 303 196 302 196 302 211 303 211 304 211 303 196 305 196 304 196 304 196 305 196 306 196 305 212 307 212 306 212 306 213 307 213 308 213 307 196 309 196 308 196 308 196 309 196 310 196 309 214 311 214 310 214 310 196 311 196 312 196 311 196 313 196 312 196 312 204 313 204 314 204 313 196 315 196 314 196 314 196 315 196 316 196 315 196 317 196 316 196 316 204 317 204 318 204 317 196 319 196 318 196 318 196 319 196 320 196 319 196 321 196 320 196 320 196 321 196 322 196 321 196 323 196 322 196 322 196 323 196 324 196 323 196 325 196 324 196 324 215 325 215 326 215 325 196 327 196 326 196 326 196 327 196 328 196 327 196 329 196 328 196 328 196 329 196 330 196 329 203 331 203 330 203 330 196 331 196 332 196 331 196 333 196 332 196 332 216 333 216 334 216 333 196 335 196 334 196 334 196 335 196 336 196 335 217 337 217 336 217 336 218 337 218 338 218 337 196 339 196 338 196 338 196 339 196 340 196 339 212 341 212 340 212 340 196 341 196 342 196 341 196 343 196 342 196 342 196 343 196 344 196 343 196 345 196 344 196 344 196 345 196 346 196 345 196 347 196 346 196 346 196 347 196 348 196 347 196 349 196 348 196 348 196 349 196 350 196 349 195 351 195 350 195 350 196 351 196 352 196 351 196 353 196 352 196 352 196 353 196 354 196 353 196 355 196 354 196 354 195 355 195 356 195 355 219 357 219 356 219 356 196 357 196 358 196 357 196 359 196 358 196 358 196 359 196 360 196 359 196 361 196 360 196 360 196 361 196 362 196 361 196 363 196 362 196 362 196 363 196 364 196 363 196 365 196 364 196 364 196 365 196 366 196 365 220 367 220 366 220 366 205 367 205 216 205 367 196 217 196 216 196 323 221 321 221 179 221 321 221 177 221 179 221 177 222 321 222 319 222 177 223 319 223 175 223 319 224 317 224 175 224 175 225 317 225 75 225 317 226 315 226 75 226 75 227 315 227 73 227 315 228 313 228 73 228 73 229 313 229 71 229 313 230 311 230 71 230 71 231 311 231 69 231 311 232 309 232 69 232 69 233 309 233 193 233 309 234 307 234 193 234 193 235 307 235 191 235 307 236 305 236 191 236 191 237 305 237 189 237 305 238 303 238 189 238 189 239 303 239 172 239 303 240 301 240 172 240 172 241 301 241 143 241 143 242 301 242 141 242 301 243 299 243 141 243 141 244 299 244 134 244 134 245 299 245 132 245 299 246 297 246 132 246 132 247 297 247 130 247 130 248 297 248 128 248 297 249 295 249 128 249 128 250 295 250 126 250 126 251 295 251 68 251 295 252 293 252 68 252 68 253 293 253 66 253 66 254 293 254 64 254 293 255 291 255 64 255 64 256 291 256 49 256 49 257 291 257 47 257 291 258 289 258 47 258 47 259 289 259 45 259 45 260 289 260 26 260 289 261 287 261 26 261 26 262 287 262 27 262 27 263 287 263 39 263 287 264 285 264 39 264 39 265 285 265 41 265 285 266 283 266 41 266 283 266 43 266 41 266 43 267 283 267 44 267 283 268 281 268 44 268 279 269 36 269 281 269 36 270 34 270 281 270 281 271 34 271 44 271 277 272 60 272 279 272 60 273 59 273 279 273 279 274 59 274 36 274 275 275 117 275 277 275 117 276 62 276 277 276 277 277 62 277 60 277 273 278 120 278 275 278 120 279 118 279 275 279 275 280 118 280 117 280 271 281 124 281 273 281 124 282 122 282 273 282 273 283 122 283 120 283 269 284 163 284 271 284 163 285 162 285 271 285 271 286 162 286 124 286 169 287 167 287 269 287 167 288 165 288 269 288 269 289 165 289 163 289 269 290 267 290 169 290 267 291 265 291 169 291 169 292 265 292 184 292 265 293 263 293 184 293 184 294 263 294 213 294 263 295 261 295 213 295 213 296 261 296 211 296 261 297 259 297 211 297 211 298 259 298 209 298 259 299 257 299 209 299 209 300 257 300 116 300 257 301 255 301 116 301 116 302 255 302 114 302 255 303 253 303 114 303 114 304 253 304 112 304 253 305 251 305 112 305 112 306 251 306 110 306 251 307 249 307 110 307 110 308 249 308 204 308 249 309 247 309 204 309 204 310 247 310 202 310 200 311 245 311 243 311 200 312 243 312 198 312 243 313 241 313 198 313 198 314 241 314 109 314 241 315 239 315 109 315 109 316 239 316 107 316 239 317 237 317 107 317 107 318 237 318 105 318 237 319 235 319 105 319 105 320 235 320 103 320 235 321 233 321 103 321 103 322 233 322 159 322 233 323 231 323 159 323 159 324 231 324 157 324 231 325 229 325 157 325 157 326 229 326 155 326 229 327 227 327 155 327 155 328 227 328 140 328 227 329 225 329 140 329 140 330 225 330 102 330 223 331 221 331 80 331 80 332 82 332 223 332 82 333 84 333 223 333 223 334 84 334 225 334 84 335 100 335 225 335 225 336 100 336 102 336 219 337 217 337 30 337 30 338 32 338 219 338 32 339 76 339 219 339 219 340 76 340 221 340 76 341 78 341 221 341 221 342 78 342 80 342 367 343 365 343 20 343 20 344 22 344 367 344 22 345 24 345 367 345 367 346 24 346 217 346 24 347 28 347 217 347 217 348 28 348 30 348 363 349 361 349 8 349 8 350 10 350 363 350 10 351 12 351 363 351 363 352 12 352 365 352 12 353 14 353 365 353 365 354 14 354 20 354 247 355 245 355 202 355 245 355 200 355 202 355 357 356 355 356 15 356 15 357 2 357 357 357 2 358 3 358 357 358 357 359 3 359 359 359 3 360 5 360 359 360 359 361 5 361 6 361 353 362 351 362 51 362 51 363 50 363 353 363 50 364 18 364 353 364 353 365 18 365 355 365 18 366 16 366 355 366 355 367 16 367 15 367 349 368 347 368 92 368 92 369 57 369 349 369 57 370 55 370 349 370 349 371 55 371 351 371 55 372 53 372 351 372 351 373 53 373 51 373 99 374 97 374 345 374 97 375 95 375 345 375 345 376 95 376 347 376 95 377 93 377 347 377 347 378 93 378 92 378 345 379 343 379 99 379 343 380 341 380 99 380 99 381 341 381 135 381 341 382 339 382 135 382 135 383 339 383 150 383 339 384 337 384 150 384 150 385 337 385 148 385 337 386 335 386 148 386 148 387 335 387 146 387 335 388 333 388 146 388 146 389 333 389 91 389 333 390 331 390 91 390 91 391 331 391 89 391 331 392 329 392 89 392 89 393 329 393 87 393 329 394 327 394 87 394 87 395 327 395 85 395 327 396 325 396 85 396 85 397 325 397 181 397 325 398 323 398 181 398 181 399 323 399 179 399 203 400 246 400 248 400 203 401 248 401 205 401 248 402 250 402 205 402 205 403 250 403 206 403 250 404 252 404 206 404 206 405 252 405 111 405 252 406 254 406 111 406 111 407 254 407 113 407 254 408 256 408 113 408 113 409 256 409 115 409 256 410 258 410 115 410 115 411 258 411 207 411 258 412 260 412 207 412 207 413 260 413 208 413 260 414 262 414 208 414 208 415 262 415 210 415 262 416 264 416 210 416 210 417 264 417 212 417 264 418 266 418 212 418 212 419 266 419 214 419 214 420 266 420 215 420 266 421 268 421 215 421 215 422 268 422 185 422 185 423 268 423 186 423 268 424 270 424 186 424 186 425 270 425 168 425 168 426 270 426 166 426 270 427 272 427 166 427 166 428 272 428 164 428 164 429 272 429 125 429 272 430 274 430 125 430 125 431 274 431 123 431 123 432 274 432 121 432 274 433 276 433 121 433 121 434 276 434 119 434 119 435 276 435 63 435 276 436 278 436 63 436 63 437 278 437 61 437 61 438 278 438 37 438 278 439 280 439 37 439 37 440 280 440 35 440 35 441 280 441 33 441 280 442 282 442 33 442 33 443 282 443 42 443 201 221 244 221 203 221 244 221 246 221 203 221 362 444 364 444 23 444 23 445 21 445 362 445 21 446 13 446 362 446 362 447 13 447 360 447 13 448 11 448 360 448 360 449 11 449 9 449 366 450 216 450 79 450 79 451 77 451 366 451 77 452 31 452 366 452 366 453 31 453 364 453 31 454 29 454 364 454 364 455 29 455 23 455 218 456 220 456 138 456 138 457 101 457 218 457 101 458 83 458 218 458 218 459 83 459 216 459 83 460 81 460 216 460 216 461 81 461 79 461 156 462 154 462 222 462 154 463 153 463 222 463 222 464 153 464 220 464 153 465 139 465 220 465 220 466 139 466 138 466 222 467 224 467 156 467 224 468 226 468 156 468 156 469 226 469 158 469 226 470 228 470 158 470 158 471 228 471 160 471 228 472 230 472 160 472 160 473 230 473 161 473 230 474 232 474 161 474 161 475 232 475 104 475 232 476 234 476 104 476 104 477 234 477 106 477 234 478 236 478 106 478 106 479 236 479 108 479 236 480 238 480 108 480 108 481 238 481 196 481 238 482 240 482 196 482 196 483 240 483 197 483 240 484 242 484 197 484 197 485 242 485 199 485 242 486 244 486 199 486 199 487 244 487 201 487 7 266 358 266 9 266 358 266 360 266 9 266 180 488 322 488 324 488 180 489 324 489 182 489 324 490 326 490 182 490 182 491 326 491 183 491 326 492 328 492 183 492 183 493 328 493 86 493 328 494 330 494 86 494 86 495 330 495 88 495 330 496 332 496 88 496 88 497 332 497 90 497 332 498 334 498 90 498 90 499 334 499 144 499 334 500 336 500 144 500 144 501 336 501 145 501 336 502 338 502 145 502 145 503 338 503 147 503 338 504 340 504 147 504 147 505 340 505 149 505 340 506 342 506 149 506 149 507 342 507 151 507 344 508 346 508 98 508 98 509 137 509 344 509 137 510 136 510 344 510 344 511 136 511 342 511 136 512 152 512 342 512 342 513 152 513 151 513 348 514 350 514 56 514 56 515 58 515 348 515 58 516 94 516 348 516 348 517 94 517 346 517 94 518 96 518 346 518 346 519 96 519 98 519 352 520 354 520 17 520 17 521 19 521 352 521 19 522 52 522 352 522 352 523 52 523 350 523 52 524 54 524 350 524 350 525 54 525 56 525 356 526 358 526 7 526 7 527 4 527 356 527 4 528 1 528 356 528 356 529 1 529 354 529 1 530 0 530 354 530 354 531 0 531 17 531 178 355 320 355 180 355 320 355 322 355 180 355 40 532 284 532 38 532 284 533 286 533 38 533 288 534 46 534 286 534 46 535 25 535 286 535 286 536 25 536 38 536 290 537 65 537 288 537 65 538 48 538 288 538 288 539 48 539 46 539 292 540 127 540 290 540 127 541 67 541 290 541 290 542 67 542 65 542 294 543 131 543 292 543 131 544 129 544 292 544 292 545 129 545 127 545 296 546 142 546 294 546 142 547 133 547 294 547 294 548 133 548 131 548 298 549 171 549 296 549 171 550 170 550 296 550 296 551 170 551 142 551 190 552 188 552 298 552 188 553 187 553 298 553 298 554 187 554 171 554 298 555 300 555 190 555 300 556 302 556 190 556 190 557 302 557 192 557 302 558 304 558 192 558 192 559 304 559 194 559 304 560 306 560 194 560 194 561 306 561 195 561 306 562 308 562 195 562 195 563 308 563 70 563 308 564 310 564 70 564 70 565 310 565 72 565 310 566 312 566 72 566 72 567 312 567 74 567 312 568 314 568 74 568 74 569 314 569 173 569 314 570 316 570 173 570 173 571 316 571 174 571 316 572 318 572 174 572 174 573 318 573 176 573 318 574 320 574 176 574 176 575 320 575 178 575 42 576 282 576 40 576 282 576 284 576 40 576 361 576 359 576 8 576 359 576 6 576 8 576</p>
        </triangles>
      </mesh>
    </geometry>
  </library_geometries>
  <library_visual_scenes>
    <visual_scene id="Scene" name="Scene">
      <node id="chassis_default_as_machined__21" name="chassis_default_as_machined__21" type="NODE">
        <matrix sid="transform">1 0 0 0 0 1 0 0 0 0 1 0 0 0 0 1</matrix>
        <instance_geometry url="#chassis_default_as_machined__21-mesh" name="chassis_default_as_machined__21"/>
      </node>
    </visual_scene>
  </library_visual_scenes>
  <scene>
    <instance_visual_scene url="#Scene"/>
  </scene>
</COLLADA>