<?xml version="1.0" encoding="utf-8"?>
<COLLADA xmlns="http://www.collada.org/2005/11/COLLADASchema" version="1.4.1" xmlns:xsi="http://www.w3.org/2001/XMLSchema-instance">
  <asset>
    <contributor>
      <author>Blender User</author>
      <authoring_tool>Blender 3.0.1</authoring_tool>
    </contributor>
    <created>2026-06-04T16:18:39</created>
    <modified>2026-06-04T16:18:39</modified>
    <unit name="meter" meter="1"/>
    <up_axis>Z_UP</up_axis>
  </asset>
  <library_images/>
  <library_geometries>
    <geometry id="chassis_default_as_machined__29-mesh" name="chassis_default_as_machined__29">
      <mesh>
        <source id="chassis_default_as_machined__29-mesh-positions">
          <float_array id="chassis_default_as_machined__29-mesh-positions-array" count="1296">-0.5899732 0.01499503 -0.2850049 -0.5902 0.01499998 -0.285 -0.5902 0.01499998 0.285 -0.5895213 0.01495546 -0.2850445 -0.5897468 0.01498019 -0.2850198 -0.5897468 0.01498019 0.2850198 -0.5890745 0.01487672 0.2851232 -0.5888541 0.01482278 0.2851772 -0.5888541 0.01482278 -0.2851772 -0.5886363 0.0147593 -0.2852407 -0.5882101 0.01460415 0.2853958 -0.5880024 0.01451277 0.2854872 -0.5880024 0.01451277 -0.2854872 -0.5877989 0.0144124 0.2855876 -0.5876 0.01430332 0.2856966 -0.5876 0.01430332 -0.2856966 -0.587406 0.0141856 0.2858144 -0.5872174 0.01405954 0.2859404 -0.5872174 0.01405954 -0.2859404 -0.5870345 0.01392543 0.2860745 -0.5868575 0.01378339 0.2862166 -0.5868575 0.01378339 -0.2862166 -0.5865231 0.0134769 0.2865231 -0.5865231 0.0134769 -0.2865231 -0.5862166 0.01314246 0.2868575 -0.5862166 0.01314246 -0.2868575 -0.5859404 0.01278257 0.2872174 -0.5859404 0.01278257 -0.2872174 -0.5856967 0.01239997 0.2876 -0.5856967 0.01239997 -0.2876 -0.5854872 0.01199758 0.2880024 -0.5854872 0.01199758 -0.2880024 -0.5853136 0.0115785 0.2884215 -0.5853136 0.0115785 -0.2884215 -0.5851772 0.01114583 0.2888541 -0.5851772 0.01114583 -0.2888541 -0.585079 0.01070296 0.2892971 -0.585079 0.01070296 -0.2892971 -0.5850198 0.01025319 0.2897468 -0.5850198 0.01025319 -0.2897468 -0.585 0.009799957 0.2902 -0.585 0.009799957 -0.2902 -0.5870345 0.01392543 -0.2860745 -0.587406 0.0141856 -0.2858144 -0.5877989 0.0144124 -0.2855876 -0.5884215 0.0146864 0.2853136 -0.5882101 0.01460415 -0.2853958 -0.5884215 0.0146864 -0.2853136 -0.5886363 0.0147593 0.2852407 -0.5892971 0.01492094 0.285079 -0.5890745 0.01487672 -0.2851232 -0.5892971 0.01492094 -0.285079 -0.5895213 0.01495546 0.2850445 -0.5899732 0.01499503 0.2850049 -0.6098 0.01499998 0.285 -0.6098 0.01499998 -0.285 -0.6098 -0.01239997 -0.3124 -0.6098 -0.01239997 0.3124 -0.5902 -0.01239997 -0.3124 -0.5902 -0.01239997 0.3124 -0.6099134 -0.01239752 -0.3123975 -0.6099134 -0.01239752 0.3123975 -0.6100266 -0.01239007 -0.3123901 -0.6100266 -0.01239007 0.3123901 -0.6101394 -0.01237773 -0.3123778 -0.6101394 -0.01237773 0.3123778 -0.6102515 -0.01236045 -0.3123605 -0.6102515 -0.01236045 0.3123605 -0.6103628 -0.01233834 0.3123384 -0.6103628 -0.01233834 -0.3123384 -0.6104729 -0.01231139 0.3123114 -0.6104729 -0.01231139 -0.3123114 -0.6105818 -0.01227962 -0.3122797 -0.6105818 -0.01227962 0.3122797 -0.6106892 -0.01224315 -0.3122432 -0.6106892 -0.01224315 0.3122432 -0.610795 -0.01220208 -0.3122021 -0.610795 -0.01220208 0.3122021 -0.6108988 -0.01215636 -0.3121564 -0.6108988 -0.01215636 0.3121564 -0.6110005 -0.01210618 -0.3121062 -0.6110005 -0.01210618 0.3121062 -0.6111 -0.01205164 -0.3120517 -0.6111 -0.01205164 0.3120517 -0.611197 -0.01199281 -0.3119928 -0.611197 -0.01199281 0.3119928 -0.6112913 -0.01192975 -0.3119298 -0.6112913 -0.01192975 0.3119298 -0.6113828 -0.01186269 -0.3118627 -0.6113828 -0.01186269 0.3118627 -0.6114712 -0.0117917 0.3117917 -0.6114712 -0.0117917 -0.3117917 -0.6116385 -0.01163846 -0.3116385 -0.6116385 -0.01163846 0.3116385 -0.6117917 -0.01147121 -0.3114712 -0.6117917 -0.01147121 0.3114712 -0.6119298 -0.01129126 -0.3112913 -0.6119298 -0.01129126 0.3112913 -0.6120517 -0.01109999 -0.3111 -0.6120517 -0.01109999 0.3111 -0.6121564 -0.01089876 -0.3108988 -0.6121564 -0.01089876 0.3108988 -0.6122432 -0.01068919 -0.3106892 -0.6122432 -0.01068919 0.3106892 -0.6123114 -0.01047289 -0.3104729 -0.6123114 -0.01047289 0.3104729 -0.6123605 -0.01025146 -0.3102515 -0.6123605 -0.01025146 0.3102515 -0.6123901 -0.01002657 -0.3100266 -0.6123901 -0.01002657 0.3100266 -0.6124 -0.009799957 -0.3098 -0.6124 -0.009799957 0.3098 -0.6124 0.009799957 -0.2902 -0.6124 0.009799957 0.2902 -0.585 -0.009799957 0.3098 -0.585 -0.009799957 -0.3098 -0.5900866 0.01239752 -0.2876025 -0.5902 0.01239997 -0.2876 -0.6098 0.01239997 -0.2876 -0.6100268 0.01499503 -0.2850049 -0.6099134 0.01239752 -0.2876025 -0.6102532 0.01498019 -0.2850198 -0.6100266 0.01239007 -0.2876099 -0.6104788 0.01495546 -0.2850445 -0.610703 0.01492094 -0.285079 -0.6101394 0.01237773 -0.2876222 -0.6109255 0.01487672 -0.2851232 -0.6102515 0.01236045 -0.2876395 -0.6111459 0.01482278 -0.2851772 -0.5899734 -0.01239007 -0.3123901 -0.5895213 -0.01495546 -0.3149555 -0.5897468 -0.01498019 -0.3149802 -0.5899734 0.01239007 -0.2876099 -0.5898606 0.01237773 -0.2876222 -0.6113637 0.0147593 -0.2852407 -0.6103628 0.01233834 -0.2876616 -0.6115785 0.0146864 -0.2853136 -0.6104729 0.01231139 -0.2876886 -0.61179 0.01460415 -0.2853958 -0.6102532 -0.01498019 -0.3149802 -0.6104788 -0.01495546 -0.3149555 -0.5900866 -0.01239752 -0.3123975 -0.5899732 -0.01499503 -0.3149951 -0.5902 -0.01499998 -0.315 -0.6098 -0.01499998 -0.315 -0.6100268 -0.01499503 -0.3149951 -0.5892971 -0.01492094 -0.314921 -0.5898606 -0.01237773 -0.3123778 -0.5890745 -0.01487672 -0.3148767 -0.5897485 -0.01236045 -0.3123605 -0.5888541 -0.01482278 -0.3148228 -0.5897485 0.01236045 -0.2876395 -0.5896373 0.01233834 -0.2876616 -0.610703 -0.01492094 -0.314921 -0.6109255 -0.01487672 -0.3148767 -0.6111459 -0.01482278 -0.3148228 -0.5886363 -0.0147593 -0.3147593 -0.5896373 -0.01233834 -0.3123384 -0.5884215 -0.0146864 -0.3146864 -0.5895271 -0.01231139 -0.3123114 -0.5882101 -0.01460415 -0.3146042 -0.6119976 0.01451277 -0.2854872 -0.6105818 0.01227962 -0.2877203 -0.6122011 0.0144124 -0.2855876 -0.6106892 0.01224315 -0.2877568 -0.6124 0.01430332 -0.2856966 -0.610795 0.01220208 -0.2877979 -0.612594 0.0141856 -0.2858144 -0.6108988 0.01215636 -0.2878436 -0.6127826 0.01405954 -0.2859404 -0.5895271 0.01231139 -0.2876886 -0.5894182 0.01227962 -0.2877203 -0.5893108 0.01224315 -0.2877568 -0.589205 0.01220208 -0.2877979 -0.6129656 0.01392543 -0.2860745 -0.6110005 0.01210618 -0.2878938 -0.6131425 0.01378339 -0.2862166 -0.6145128 0.01199758 -0.2880024 -0.6120517 0.01109999 -0.2889 -0.6146864 0.0115785 -0.2884215 -0.6121564 0.01089876 -0.2891012 -0.6148228 0.01114583 -0.2888541 -0.6122432 0.01068919 -0.2893108 -0.614921 0.01070296 -0.2892971 -0.6113637 -0.0147593 -0.3147593 -0.6115785 -0.0146864 -0.3146864 -0.61179 -0.01460415 -0.3146042 -0.6119976 -0.01451277 -0.3145128 -0.6122011 -0.0144124 -0.3144124 -0.5854872 -0.01199758 -0.3119976 -0.5879483 -0.01109999 -0.3111 -0.5853136 -0.0115785 -0.3115785 -0.5878436 -0.01089876 -0.3108988 -0.5851772 -0.01114583 -0.3111459 -0.5877568 -0.01068919 -0.3106892 -0.585079 -0.01070296 -0.310703 -0.5876886 0.01047289 -0.2895271 -0.5877568 0.01068919 -0.2893108 -0.5878436 0.01089876 -0.2891012 -0.6111 0.01205164 -0.2879483 -0.611197 0.01199281 -0.2880071 -0.6134769 0.0134769 -0.2865231 -0.614921 -0.01070296 -0.310703 -0.6148228 -0.01114583 -0.3111459 -0.6146864 -0.0115785 -0.3115785 -0.6145128 -0.01199758 -0.3119976 -0.5880024 -0.01451277 -0.3145128 -0.5894182 -0.01227962 -0.3122797 -0.5877989 -0.0144124 -0.3144124 -0.5893108 -0.01224315 -0.3122432 -0.5876 -0.01430332 -0.3143033 -0.589205 -0.01220208 -0.3122021 -0.587406 -0.0141856 -0.3141856 -0.5891012 -0.01215636 -0.3121564 -0.5872174 -0.01405954 -0.3140596 -0.5870345 -0.01392543 -0.3139255 -0.5889995 -0.01210618 -0.3121062 -0.5868575 -0.01378339 -0.3137834 -0.5891012 0.01215636 -0.2878436 -0.5889995 0.01210618 -0.2878938 -0.5889 0.01205164 -0.2879483 -0.6112913 0.01192975 -0.2880702 -0.6113828 0.01186269 -0.2881373 -0.6137834 0.01314246 -0.2868575 -0.6114712 0.0117917 -0.2882083 -0.6140596 0.01278257 -0.2872174 -0.6116385 0.01163846 -0.2883615 -0.6143034 0.01239997 -0.2876 -0.6117917 0.01147121 -0.2885288 -0.6119298 0.01129126 -0.2887087 -0.6124 -0.01430332 -0.3143033 -0.612594 -0.0141856 -0.3141856 -0.6127826 -0.01405954 -0.3140596 -0.6129656 -0.01392543 -0.3139255 -0.6131425 -0.01378339 -0.3137834 -0.5889 -0.01205164 -0.3120517 -0.588803 -0.01199281 -0.3119928 -0.5865231 -0.0134769 -0.3134769 -0.5887087 0.01192975 -0.2880702 -0.588803 0.01199281 -0.2880071 -0.5879483 0.01109999 -0.2889 -0.5880702 0.01129126 -0.2887087 -0.5882083 0.01147121 -0.2885288 -0.5883615 0.01163846 -0.2883615 -0.5885288 0.0117917 -0.2882083 -0.5886172 0.01186269 -0.2881373 -0.6134769 -0.0134769 -0.3134769 -0.5887087 -0.01192975 -0.3119298 -0.5886172 -0.01186269 -0.3118627 -0.5862166 -0.01314246 -0.3131425 -0.5885288 -0.0117917 -0.3117917 -0.5859404 -0.01278257 -0.3127826 -0.5883615 -0.01163846 -0.3116385 -0.5856967 -0.01239997 -0.3124 -0.5882083 -0.01147121 -0.3114712 -0.5880702 -0.01129126 -0.3112913 -0.6123114 0.01047289 -0.2895271 -0.6123605 0.01025146 -0.2897485 -0.6149802 0.01025319 -0.2897468 -0.6123901 0.01002657 -0.2899734 -0.615 0.009799957 -0.2902 -0.615 -0.009799957 -0.3098 -0.6149802 -0.01025319 -0.3102532 -0.6143034 -0.01239997 -0.3124 -0.6140596 -0.01278257 -0.3127826 -0.6137834 -0.01314246 -0.3131425 -0.5876886 -0.01047289 -0.3104729 -0.5876395 -0.01025146 -0.3102515 -0.5850198 -0.01025319 -0.3102532 -0.5876099 -0.01002657 -0.3100266 -0.5876 -0.009799957 -0.3098 -0.5876 0.009799957 -0.2902 -0.5876099 0.01002657 -0.2899734 -0.5876395 0.01025146 -0.2897485 -0.5900866 -0.01239752 0.3123975 -0.5902 -0.01499998 0.315 -0.6098 -0.01499998 0.315 -0.6100268 -0.01499503 0.3149951 -0.6102532 -0.01498019 0.3149802 -0.6104788 -0.01495546 0.3149555 -0.5899734 0.01239007 0.2876099 -0.5899732 -0.01499503 0.3149951 -0.5897468 -0.01498019 0.3149802 -0.5899734 -0.01239007 0.3123901 -0.5895213 -0.01495546 0.3149555 -0.5898606 -0.01237773 0.3123778 -0.610703 -0.01492094 0.314921 -0.6109255 -0.01487672 0.3148767 -0.6111459 -0.01482278 0.3148228 -0.6099134 0.01239752 0.2876025 -0.6102532 0.01498019 0.2850198 -0.6100266 0.01239007 0.2876099 -0.6104788 0.01495546 0.2850445 -0.6101394 0.01237773 0.2876222 -0.5900866 0.01239752 0.2876025 -0.5902 0.01239997 0.2876 -0.6098 0.01239997 0.2876 -0.6100268 0.01499503 0.2850049 -0.5898606 0.01237773 0.2876222 -0.5897485 0.01236045 0.2876395 -0.5892971 -0.01492094 0.314921 -0.5890745 -0.01487672 0.3148767 -0.5897485 -0.01236045 0.3123605 -0.5888541 -0.01482278 0.3148228 -0.5896373 -0.01233834 0.3123384 -0.6113637 -0.0147593 0.3147593 -0.6115785 -0.0146864 0.3146864 -0.61179 -0.01460415 0.3146042 -0.610703 0.01492094 0.285079 -0.6109255 0.01487672 0.2851232 -0.6102515 0.01236045 0.2876395 -0.6111459 0.01482278 0.2851772 -0.6103628 0.01233834 0.2876616 -0.5896373 0.01233834 0.2876616 -0.5895271 0.01231139 0.2876886 -0.5886363 -0.0147593 0.3147593 -0.5884215 -0.0146864 0.3146864 -0.5895271 -0.01231139 0.3123114 -0.5882101 -0.01460415 0.3146042 -0.5894182 -0.01227962 0.3122797 -0.5880024 -0.01451277 0.3145128 -0.5893108 -0.01224315 0.3122432 -0.5877989 -0.0144124 0.3144124 -0.589205 -0.01220208 0.3122021 -0.5879483 0.01109999 0.2889 -0.5878436 0.01089876 0.2891012 -0.5877568 0.01068919 0.2893108 -0.6113637 0.0147593 0.2852407 -0.6115785 0.0146864 0.2853136 -0.6104729 0.01231139 0.2876886 -0.61179 0.01460415 0.2853958 -0.6105818 0.01227962 0.2877203 -0.6119976 0.01451277 0.2854872 -0.6106892 0.01224315 0.2877568 -0.6122011 0.0144124 0.2855876 -0.610795 0.01220208 0.2877979 -0.6119976 -0.01451277 0.3145128 -0.6122011 -0.0144124 0.3144124 -0.6124 -0.01430332 0.3143033 -0.612594 -0.0141856 0.3141856 -0.6127826 -0.01405954 0.3140596 -0.6145128 -0.01199758 0.3119976 -0.6146864 -0.0115785 0.3115785 -0.6148228 -0.01114583 0.3111459 -0.614921 -0.01070296 0.310703 -0.614921 0.01070296 0.2892971 -0.6123114 0.01047289 0.2895271 -0.6148228 0.01114583 0.2888541 -0.6122432 0.01068919 0.2893108 -0.6146864 0.0115785 0.2884215 -0.6121564 0.01089876 0.2891012 -0.6145128 0.01199758 0.2880024 -0.5894182 0.01227962 0.2877203 -0.5893108 0.01224315 0.2877568 -0.589205 0.01220208 0.2877979 -0.5891012 0.01215636 0.2878436 -0.585079 -0.01070296 0.310703 -0.5876886 -0.01047289 0.3104729 -0.5851772 -0.01114583 0.3111459 -0.5877568 -0.01068919 0.3106892 -0.5853136 -0.0115785 0.3115785 -0.5878436 -0.01089876 0.3108988 -0.5854872 -0.01199758 0.3119976 -0.6129656 -0.01392543 0.3139255 -0.6131425 -0.01378339 0.3137834 -0.5889995 0.01210618 0.2878938 -0.5876 -0.01430332 0.3143033 -0.587406 -0.0141856 0.3141856 -0.5891012 -0.01215636 0.3121564 -0.5872174 -0.01405954 0.3140596 -0.5889995 -0.01210618 0.3121062 -0.5870345 -0.01392543 0.3139255 -0.5889 -0.01205164 0.3120517 -0.5868575 -0.01378339 0.3137834 -0.6134769 -0.0134769 0.3134769 -0.6124 0.01430332 0.2856966 -0.612594 0.0141856 0.2858144 -0.6108988 0.01215636 0.2878436 -0.6127826 0.01405954 0.2859404 -0.6110005 0.01210618 0.2878938 -0.6129656 0.01392543 0.2860745 -0.6111 0.01205164 0.2879483 -0.6131425 0.01378339 0.2862166 -0.5889 0.01205164 0.2879483 -0.588803 0.01199281 0.2880071 -0.5865231 -0.0134769 0.3134769 -0.5887087 -0.01192975 0.3119298 -0.588803 -0.01199281 0.3119928 -0.5879483 -0.01109999 0.3111 -0.5880702 -0.01129126 0.3112913 -0.5856967 -0.01239997 0.3124 -0.5882083 -0.01147121 0.3114712 -0.5859404 -0.01278257 0.3127826 -0.5883615 -0.01163846 0.3116385 -0.5862166 -0.01314246 0.3131425 -0.5885288 -0.0117917 0.3117917 -0.5886172 -0.01186269 0.3118627 -0.6137834 -0.01314246 0.3131425 -0.6140596 -0.01278257 0.3127826 -0.6143034 -0.01239997 0.3124 -0.6134769 0.0134769 0.2865231 -0.6112913 0.01192975 0.2880702 -0.611197 0.01199281 0.2880071 -0.5887087 0.01192975 0.2880702 -0.5886172 0.01186269 0.2881373 -0.5885288 0.0117917 0.2882083 -0.5883615 0.01163846 0.2883615 -0.5882083 0.01147121 0.2885288 -0.5880702 0.01129126 0.2887087 -0.6120517 0.01109999 0.2889 -0.6119298 0.01129126 0.2887087 -0.6143034 0.01239997 0.2876 -0.6117917 0.01147121 0.2885288 -0.6140596 0.01278257 0.2872174 -0.6116385 0.01163846 0.2883615 -0.6137834 0.01314246 0.2868575 -0.6114712 0.0117917 0.2882083 -0.6113828 0.01186269 0.2881373 -0.5876886 0.01047289 0.2895271 -0.5876395 0.01025146 0.2897485 -0.5876099 0.01002657 0.2899734 -0.5876 0.009799957 0.2902 -0.5876 -0.009799957 0.3098 -0.5850198 -0.01025319 0.3102532 -0.5876099 -0.01002657 0.3100266 -0.5876395 -0.01025146 0.3102515 -0.6149802 -0.01025319 0.3102532 -0.615 -0.009799957 0.3098 -0.615 0.009799957 0.2902 -0.6149802 0.01025319 0.2897468 -0.6123901 0.01002657 0.2899734 -0.6123605 0.01025146 0.2897485</float_array>
          <technique_common>
            <accessor source="#chassis_default_as_machined__29-mesh-positions-array" count="432" stride="3">
              <param name="X" type="float"/>
              <param name="Y" type="float"/>
              <param name="Z" type="float"/>
            </accessor>
          </technique_common>
        </source>
        <source id="chassis_default_as_machined__29-mesh-normals">
          <float_array id="chassis_default_as_machined__29-mesh-normals-array" count="2499">0.02180486 0.9997622 0 0.1089618 0.994046 0 0.2376565 0.9713493 0 0.2798579 0.9600414 0 0.4027906 0.9152922 0 0.4811434 0.8766419 0 0.5551289 0.8317644 0 0.6255374 0.7801942 0 0.6756001 0.7372683 0 0.6755361 0.737327 0 0.7373346 0.6755279 0 0.7371564 0.6757221 0 0.7934778 0.6085993 0 0.7932938 0.6088392 0 0.8433955 0.5372933 0 0.8434088 0.5372723 0 0.8869571 0.461852 0 0.8870345 0.4617031 0 0.923931 0.3825591 0 0.9239665 0.3824735 0 0.9535979 0.3010833 0 0.9537274 0.3006731 0 0.9762794 0.216515 0 0.9763014 0.2164155 0 0.9914386 0.1305744 0 0.991406 0.1308209 0 0.9990521 0.04353332 0 0.999055 0.04346543 0 0.5915558 0.8062641 -1.72279e-5 0.6260662 0.77977 1.7241e-5 0.5912605 0.8064807 0 0.5191702 0.854671 -1.73065e-5 0.5552256 0.8316999 1.72973e-5 0.5189208 0.8548223 0 0.4420376 0.8969965 -1.73192e-5 0.4810664 0.8766842 1.73481e-5 0.4422396 0.896897 0 0.3625242 0.9319745 -1.73529e-5 0.4025854 0.9153825 1.7356e-5 0.3624628 0.9319983 0 0.3214026 0.9469428 1.73517e-5 0.2797339 0.9600777 -1.73394e-5 0.3215221 0.9469021 0 0.1951999 0.9807636 -1.73845e-5 0.2376856 0.9713422 1.73808e-5 0.1950523 0.9807929 0 0.1519506 0.9883881 1.73294e-5 0.1089342 0.994049 -1.73524e-5 0.1520828 0.9883678 0 0.06539976 0.9978592 1.73711e-5 0.02181643 0.999762 -1.73722e-5 0.06538176 0.9978604 0 0 1 0 0.02179926 0.9997624 0 0.02182877 0.9997618 0 0.06538397 0.9978602 0 0.06538242 0.9978604 0 0.108864 0.9940567 0 0.1089509 0.9940472 0 0.1522719 0.9883387 0 0.1520107 0.9883788 0 0.1951106 0.9807812 0 0.1949365 0.9808158 0 0.2380287 0.9712582 0 0.2376204 0.9713581 0 0.2796648 0.9600978 0 0.2800907 0.9599736 0 0.3215814 0.946882 0 0.3215478 0.9468934 0 0.3623514 0.9320417 0 0.3625942 0.9319471 0 0.4026582 0.9153504 0 0.4032298 0.9150989 0 0.4424957 0.8967707 0 0.4417712 0.8971279 0 0.4808253 0.8768165 0 0.4811156 0.8766572 0 0.5189382 0.8548119 0 0.5188666 0.8548552 0 0.5557304 0.8313626 0 0.5552638 0.8316744 0 0.5907067 0.8068864 0 0.5918289 0.8060636 0 0.6260648 0.7797712 0 0.6261506 0.7797021 0 0.6754974 0.7373624 0 0.6755269 0.7373355 0 0.7375673 0.6752738 0 0.7369666 0.6759293 0 0.7935788 0.6084676 0 0.7936128 0.6084232 0 0.8433853 0.5373092 0 0.8434271 0.5372439 0 0.8870626 0.4616494 0 0.8871132 0.4615519 0 0.9238057 0.3828616 0 0.9240135 0.3823601 0 0.9537233 0.300686 0 0.9535416 0.3012614 0 0.9763352 0.2162627 0 0.976392 0.2160061 0 0.9914563 0.1304396 0 0.9914441 0.1305327 0 0.9990469 0.04365205 0 0.9990269 0.04410725 0 1 -5.23958e-6 0 1 0 0 1 5.82836e-6 0 0 0.706929 -0.7072846 0 0.7071096 -0.707104 0 0.707108 -0.7071056 0 0.7070686 -0.7071449 -2.79198e-4 0.706929 -0.7072845 1.3953e-4 0.707418 -0.7067955 -2.79336e-4 0.7067193 -0.707494 -1.39577e-4 0.7070948 -0.7071188 1.3934e-4 0.7070088 -0.7072048 -5.60369e-4 0.7071855 -0.7070279 1.39343e-4 0.7070251 -0.7071884 -2.80197e-4 0.7072162 -0.7069973 1.39316e-4 0.7071688 -0.7070448 1.11251e-4 0.707118 -0.7070956 1.39516e-4 0.7073476 -0.7068659 -1.3964e-4 0.7068596 -0.7073538 2.79005e-4 0.7075568 -0.7066565 1.39622e-4 0.7070479 -0.7071657 -2.79098e-4 0.7072343 -0.7069792 0 0.706803 -0.7074105 2.82139e-4 0.7076048 -0.7066084 0 0.7070049 -0.7072087 0 0.7072127 -0.7070009 -1.38811e-4 0.7071025 -0.7071111 2.79336e-4 0.7067193 -0.707494 0 0.7072343 -0.7069792 -2.79005e-4 0.7075568 -0.7066565 0 0.7068594 -0.7073541 -2.79088e-4 0.7072082 -0.7070054 2.79088e-4 0.7072082 -0.7070054 0 0.7071048 -0.7071088 0 0.7071032 -0.7071105 -2.78978e-4 0.707487 -0.7067264 1.74429e-5 0.7073523 -0.7068612 0 0.7070099 -0.7072037 2.80185e-4 0.7071878 -0.7070258 -1.3927e-4 0.7072135 -0.7070002 0 0.706936 -0.7072776 -1.39371e-4 0.7068901 -0.7073234 2.7922e-4 0.7069857 -0.7072278 2.80308e-4 0.706936 -0.7072775 0 0.7075991 -0.7066143 -1.3961e-4 0.7069836 -0.70723 0 0.7072162 -0.7069973 0 0.7068615 -0.707352 1.38752e-4 0.7073583 -0.7068552 -2.82659e-4 0.7066473 -0.7075659 1.38808e-4 0.7070873 -0.7071263 -2.82253e-4 0.7073251 -0.7068884 0 0.7070222 -0.7071914 0 0.707137 -0.7070766 0 0.7072541 -0.7069595 0 0.7069839 -0.7072297 -1.38007e-4 0.7071456 -0.707068 -2.85736e-4 0.7069103 -0.7073032 2.76011e-4 0.7071413 -0.7070723 -2.85635e-4 0.7072317 -0.7069818 -1.38003e-4 0.7071262 -0.7070874 0 0.7070873 -0.7071263 0 0.7073251 -0.7068885 1.38795e-4 0.7070222 -0.7071914 -2.82513e-4 0.7068463 -0.7073672 1.38775e-4 0.7071957 -0.7070179 2.82289e-4 0.7074155 -0.706798 -1.38799e-4 0.7070418 -0.7071719 0 0.7073581 -0.7068554 0 0.7069462 -0.7072673 0 0.707279 -0.7069346 6.84947e-5 0.7071389 -0.7070747 -1.73322e-5 0.7071187 -0.7070949 0 0.7071112 -0.7071024 3.46653e-5 0.7071198 -0.7070938 3.54674e-5 0.7071489 -0.7070647 -7.58334e-6 0.7070862 -0.7071274 0 0.7070317 -0.7071819 -1.38792e-4 0.7070049 -0.7072087 2.82433e-4 0.7072127 -0.7070009 0 0.7071025 -0.7071111 2.82287e-4 0.7074111 -0.7068024 -2.77604e-4 0.7070569 -0.7071567 0 0.7068507 -0.7073628 0 0.7071805 -0.7070331 2.82491e-4 0.7067933 -0.7074201 0 0.7071003 -0.7071133 3.54711e-5 0.7070802 -0.7071334 -2.59988e-5 0.7071166 -0.7070971 0 0.7071135 -0.7071002 -7.58287e-6 0.7071301 -0.7070835 -3.49305e-5 0.7070981 -0.7071155 6.98573e-5 0.7070959 -0.7071177 -6.98582e-5 0.7071046 -0.707109 0 0.7071199 -0.7070937 3.49315e-5 0.7070839 -0.7071297 0 0.7072337 -0.7069799 0 0.7072362 -0.7069774 0 0.7071122 -0.7071014 -1.74652e-5 0.7070981 -0.7071155 3.49287e-5 0.7070959 -0.7071177 3.49312e-5 0.7070773 -0.7071363 -3.4926e-5 0.707181 -0.7070326 0 0.7071352 -0.7070784 1.38005e-4 0.707137 -0.7070766 2.85759e-4 0.7069684 -0.7072452 0 0.7072599 -0.7069537 0 0.7069684 -0.7072452 0 0.7071456 -0.707068 0 0.7071961 -0.7070176 0 0.7070033 -0.7072103 0 0.7072318 -0.7069818 0 0.7069882 -0.7072254 0 0.7072887 -0.7069249 0 0.7069889 -0.7072247 0 0.7072181 -0.7069955 2.77607e-4 0.7070655 -0.707148 -2.76011e-4 0.7071413 -0.7070723 2.8575e-4 0.706946 -0.7072675 1.3803e-4 0.7069882 -0.7072254 -2.85516e-4 0.7075082 -0.7067052 1.3804e-4 0.70704 -0.7071737 -2.85783e-4 0.7070264 -0.7071871 0 0.7072383 -0.7069753 0 0.7069117 -0.7073018 -1.42812e-4 0.7072049 -0.7070086 6.88741e-5 0.7071304 -0.7070831 0 0.7070206 -0.707193 0 0.7071324 -0.7070811 0 0.7070633 -0.7071503 1.70747e-5 0.7071324 -0.7070812 0 0.7070702 -0.7071434 0 0.7070791 -0.7071346 0 0.7071251 -0.7070885 1.77343e-5 0.7071018 -0.7071118 -1.38776e-4 0.7072044 -0.7070092 0 0.7069461 -0.7072675 0 0.7072642 -0.7069494 0 0.7069371 -0.7072765 0 0.707109 -0.7071046 2.85611e-4 0.7071737 -0.7070398 -1.38011e-4 0.7071672 -0.7070465 0 0.707066 -0.7071477 -2.85584e-4 0.7071068 -0.7071068 -3.44412e-5 0.7070778 -0.7071359 0 0.7071545 -0.7070592 0 0.7071686 -0.707045 -5.35559e-5 0.7069916 -0.707222 0 0.7070435 -0.7071701 0 0.7071378 -0.7070757 3.4665e-5 0.707096 -0.7071176 -7.0941e-5 0.70714 -0.7070736 3.46662e-5 0.7071209 -0.7070927 -7.09452e-5 0.7070403 -0.7071733 0 0.7071155 -0.7070981 0 0.707098 -0.7071157 0 0.7071382 -0.7070754 -2.8246e-4 0.7069965 -0.7072171 1.60725e-4 0.7069388 -0.7072747 0 0.7070851 -0.7071285 -2.82416e-4 0.7071686 -0.707045 2.94589e-4 0.7071748 -0.7070387 1.45037e-4 0.7074919 -0.7067214 2.85739e-4 0.7069192 -0.7072942 -1.03316e-4 0.707096 -0.7071176 1.45119e-4 0.7070206 -0.707193 0 0.7070983 -0.7071154 0 0.7072097 -0.7070039 -3.41538e-5 0.7070854 -0.7071281 0 0.7071502 -0.7070633 0 0.7070876 -0.707126 0 0.7070885 -0.7071251 -2.66004e-5 0.7071284 -0.7070852 1.77345e-5 0.707109 -0.7071046 0 0.7071242 -0.7070893 3.68392e-6 0.7071076 -0.707106 1.74641e-5 0.7071199 -0.7070937 -8.73245e-6 0.7071013 -0.7071123 0 0.7070719 -0.7071418 0 0.7071056 -0.707108 0 0.7070915 -0.7071221 -1.74638e-5 0.7071439 -0.7070697 0 0.7070872 -0.7071264 -3.49291e-5 0.7071046 -0.707109 0 0.707141 -0.7070726 0 0.7071134 -0.7071003 3.54686e-5 0.7071024 -0.7071112 0 0.7071089 -0.7071046 0 0.7070624 -0.7071511 -3.4665e-5 0.7070971 -0.7071166 1.41876e-4 0.7071112 -0.7071024 -6.93318e-5 0.7071155 -0.7070981 1.41874e-4 0.7070979 -0.7071157 -6.93273e-5 0.7071382 -0.7070754 5.64806e-4 0.7071376 -0.7070758 -2.23158e-4 0.707162 -0.7070516 0 0.7070558 -0.7071578 0 0.7071592 -0.7070544 7.16308e-6 0.7071182 -0.7070955 1.74654e-5 0.7070675 -0.7071461 8.73245e-6 0.7071013 -0.7071123 0 0.7071186 -0.7070951 0 0.7070927 -0.7071209 1.74655e-5 0.7070741 -0.7071395 1.74645e-5 0.7071046 -0.707109 0 0.7071235 -0.7070901 2.79198e-4 0.706929 0.7072845 0 0.7071048 0.7071088 0 0.7071032 0.7071105 -2.79088e-4 0.7072082 0.7070054 0 0.707418 0.7067955 2.79336e-4 0.7067193 0.707494 -1.39577e-4 0.7070948 0.7071188 8.28927e-5 0.707118 0.7070956 0 0.7073476 0.7068659 0 0.7068597 0.7073539 -2.79005e-4 0.7075568 0.7066565 1.39595e-4 0.7071875 0.7070261 0 0.7072343 0.7069792 0 0.7070088 0.7072048 -2.80184e-4 0.7071856 0.707028 1.39343e-4 0.7070251 0.7071884 0 0.7072162 0.7069973 1.39316e-4 0.7071688 0.7070448 -2.79336e-4 0.7067193 0.707494 2.79098e-4 0.7072343 0.7069792 2.79005e-4 0.7075568 0.7066565 -1.3964e-4 0.7068594 0.7073541 2.79088e-4 0.7072082 0.7070054 0 0.7072082 0.7070054 0 0.7071096 0.707104 0 0.707108 0.7071056 -1.39599e-4 0.706929 0.7072846 1.49355e-4 0.7073523 0.7068612 -1.3934e-4 0.7070099 0.7072037 5.60371e-4 0.7071877 0.7070257 -1.3927e-4 0.7072135 0.7070002 2.80308e-4 0.706936 0.7072775 -1.39371e-4 0.7068901 0.7073234 1.3961e-4 0.7069857 0.7072278 0 0.706936 0.7072776 0 0.7075991 0.7066143 -1.38861e-4 0.706803 0.7074105 2.82252e-4 0.7073228 0.7068907 -1.38792e-4 0.7070049 0.7072087 2.82433e-4 0.7072127 0.7070009 0 0.7071025 0.7071111 -2.79219e-4 0.7069835 0.70723 -2.80197e-4 0.7072162 0.7069973 0 0.7068615 0.707352 0 0.7073583 0.7068552 -2.82659e-4 0.7066473 0.7075659 0 0.7070873 0.7071263 0 0.7073251 0.7068885 1.38795e-4 0.7070222 0.7071914 0 0.7068901 0.7073234 1.38808e-4 0.7070873 0.7071263 -2.82253e-4 0.7073251 0.7068884 0 0.7070222 0.7071914 -2.82513e-4 0.7068463 0.7073672 2.77549e-4 0.7071957 0.7070179 0 0.7074155 0.706798 0 0.7070418 0.7071719 -2.82266e-4 0.7073581 0.7068554 1.73334e-5 0.7071003 0.7071133 0 0.7070802 0.7071334 -3.46647e-5 0.7071252 0.7070884 -3.54692e-5 0.7071135 0.7071002 7.58278e-6 0.7071388 0.7070748 1.39317e-4 0.707171 0.7070426 0 0.7070049 0.7072087 0 0.7072127 0.7070009 -1.38811e-4 0.7071025 0.7071111 2.82287e-4 0.7074111 0.7068024 -1.38802e-4 0.7070569 0.7071567 -2.82514e-4 0.7068507 0.7073628 1.38772e-4 0.7071805 0.7070331 0 0.7067934 0.7074201 -1.38005e-4 0.707137 0.7070766 -2.85644e-4 0.707254 0.7069594 0 0.7069839 0.7072297 0 0.7072541 0.7069595 0 0.7071456 0.707068 0 0.7069103 0.7073032 0 0.7070033 0.7072103 0 0.7069461 0.7072675 0 0.7072642 0.7069494 0 0.7071187 0.7070949 -3.54691e-5 0.7071112 0.7071024 2.59999e-5 0.7070938 0.7071198 0 0.7071135 0.7071002 7.58329e-6 0.7070916 0.707122 3.49305e-5 0.7070981 0.7071155 -6.98608e-5 0.707061 0.7071527 6.98589e-5 0.7071123 0.7071014 0 0.707181 0.7070326 -3.49272e-5 0.7071352 0.7070784 0 0.707137 0.7070766 0 0.7069684 0.7072452 0 0.7072599 0.7069537 1.38007e-4 0.7071456 0.707068 2.8562e-4 0.707196 0.7070175 -2.76011e-4 0.7071413 0.7070723 2.8575e-4 0.706946 0.7072675 1.3803e-4 0.7069882 0.7072254 1.74648e-5 0.7071155 0.7070981 -3.49287e-5 0.7070959 0.7071177 -3.49291e-5 0.7071046 0.707109 3.49299e-5 0.7071199 0.7070937 0 0.7070839 0.7071297 0 0.7069462 0.7072673 0 0.707279 0.7069346 0 0.7071389 0.7070747 0 0.7072887 0.7069249 0 0.7069889 0.7072247 -6.84758e-5 0.7072181 0.7069955 1.38804e-4 0.7070656 0.707148 0 0.7072318 0.7069818 0 0.7069882 0.7072254 0 0.7075082 0.7067052 0 0.70704 0.7071737 -2.85783e-4 0.7070264 0.7071871 1.37971e-4 0.7072383 0.7069753 0 0.7072337 0.7069799 2.85637e-4 0.7072362 0.7069773 3.44395e-5 0.7071122 0.7071014 -2.77553e-4 0.7072044 0.7070092 2.76011e-4 0.7071413 0.7070723 -2.85635e-4 0.7072317 0.7069818 -1.38003e-4 0.7071262 0.7070874 2.85747e-4 0.7069371 0.7072764 -1.37999e-4 0.707109 0.7071046 2.85611e-4 0.7071737 0.7070398 0 0.7071672 0.7070465 0 0.707066 0.7071477 0 0.7071068 0.7071068 0 0.7070778 0.7071359 0 0.7071545 0.7070592 2.82416e-4 0.7071686 0.707045 -2.94557e-4 0.7069916 0.7072219 0 0.7070435 0.7071701 -3.54668e-5 0.7071378 0.7070757 0 0.707096 0.7071176 0 0.70714 0.7070736 3.46662e-5 0.7071209 0.7070927 -1.4189e-4 0.7070403 0.7071733 6.93318e-5 0.7071155 0.7070981 -1.41859e-4 0.7071688 0.7070447 6.93273e-5 0.7071382 0.7070754 -5.64919e-4 0.7069963 0.707217 2.23229e-4 0.7069388 0.7072747 -1.45156e-4 0.7069117 0.7073018 -2.85624e-4 0.7072049 0.7070086 1.03311e-4 0.7071304 0.7070831 -1.45119e-4 0.7070206 0.707193 0 0.7071324 0.7070811 0 0.7070633 0.7071503 3.41494e-5 0.7071324 0.7070812 0 0.7070702 0.7071434 0 0.7071132 0.7071004 0 0.7071251 0.7070885 2.66014e-5 0.7071018 0.7071118 0 0.7070851 0.7071285 0 0.7071686 0.707045 5.35617e-5 0.7071749 0.7070388 0 0.7074919 0.7067214 1.4287e-4 0.7069193 0.7072943 -6.88741e-5 0.7071304 0.7070831 0 0.7070206 0.707193 0 0.7070642 0.7071495 0 0.7072097 0.7070039 -1.70765e-5 0.7071025 0.7071111 0 0.7070771 0.7071366 0 0.7070876 0.707126 0 0.7070885 0.7071251 -1.77336e-5 0.7071284 0.7070852 0 0.7071134 0.7071003 0 0.7071024 0.7071112 -3.46656e-5 0.7071089 0.7071046 7.09475e-5 0.7070624 0.7071511 -3.4665e-5 0.7070971 0.7071166 7.09381e-5 0.7071112 0.7071024 0 0.7071155 0.7070981 0 0.707098 0.7071157 0 0.7071382 0.7070754 2.82403e-4 0.7071377 0.7070759 -1.60674e-4 0.707162 0.7070516 -1.77358e-5 0.7070558 0.7071578 0 0.7071242 0.7070893 -3.68396e-6 0.7071007 0.707113 -1.74641e-5 0.7071199 0.7070937 8.73245e-6 0.7071013 0.7071123 0 0.7070893 0.7071242 0 0.7071186 0.7070951 0 0.7070927 0.7071209 0 0.707109 0.7071046 1.74647e-5 0.707109 0.7071046 0 0.7071395 0.7070741 3.49325e-5 0.7070347 0.7071788 0 0.707141 0.7070726 0 0.707109 0.7071046 0 0.7071592 0.7070544 -7.16319e-6 0.7071076 0.707106 -1.74649e-5 0.707085 0.7071287 -8.73245e-6 0.7071013 0.7071123 0 0.7071056 0.707108 0 0.7070915 0.7071221 -1.74651e-5 0.7070915 0.7071221 -1.7465e-5 0.7070872 0.7071264 6.98513e-5 0.7071744 0.7070391 0 0.7071235 0.7070901 -0.9990482 0.0436213 0 -0.9990469 0.04365205 0 -0.9914441 0.1305327 0 -0.9914563 0.1304396 0 -0.9763027 0.2164099 0 -0.9763352 0.2162627 0 -0.9537845 0.3004916 0 -0.9536018 0.3010706 0 -0.923864 0.3827211 0 -0.9238057 0.3828616 0 -0.8871132 0.4615519 0 -0.8870626 0.4616494 0 -0.8432356 0.5375442 0 -0.8431941 0.5376093 0 -0.7934089 0.608689 0 -0.793375 0.6087332 0 -0.7375969 0.6752414 0 -0.7371472 0.6757323 0 -0.6755269 0.7373355 0 -0.6754974 0.7373624 0 -0.6261506 0.7797021 0 -0.625826 0.7799628 0 -0.5910252 0.8066532 0 -0.5915096 0.806298 0 -0.5560421 0.8311541 0 -0.5553414 0.8316225 0 -0.5184933 0.8550818 0 -0.5181919 0.8552645 0 -0.4807606 0.8768519 0 -0.4811803 0.8766218 0 -0.4424386 0.8967989 0 -0.4421618 0.8969354 0 -0.4026088 0.9153723 0 -0.4026582 0.9153504 0 -0.3625942 0.9319471 0 -0.1952584 0.9807518 0 -0.2376398 0.9713534 0 -0.2378147 0.9713106 0 -0.2801169 0.9599659 0 -0.2796386 0.9601054 0 -0.3213253 0.9469689 0 -0.3212917 0.9469803 0 -0.3625181 0.9319768 0 -0.02182894 0.9997618 0 -0.02179205 0.9997626 0 -0.06543886 0.9978566 0 -0.06538242 0.9978604 0 -0.1089551 0.9940467 0 -0.1088598 0.9940572 0 -0.1518927 0.988397 0 -0.1521371 0.9883595 0 -0.1951996 0.9807636 0 -1 -4.90809e-6 0 -1 5.23958e-6 0 -0.5187762 -0.8549101 0 -0.4809585 -0.8767434 0 -0.3623852 -0.9320285 0 -0.3214856 -0.9469145 0 -0.2373971 -0.9714128 0 -0.1088876 -0.9940541 0 -0.02180284 -0.9997624 0 -0.06543034 -0.9978572 8.60302e-6 -0.0217837 -0.9997627 -8.59147e-6 -0.06549727 -0.9978529 0 -0.1521228 -0.9883617 8.60688e-6 -0.1087999 -0.9940637 -8.60089e-6 -0.1523448 -0.9883275 0 -0.1952686 -0.9807499 -8.57736e-6 -0.2375693 -0.9713706 8.56719e-6 -0.1952117 -0.9807611 0 -0.2799624 -0.9600111 -8.59961e-6 -0.3211396 -0.9470319 8.59307e-6 -0.2801989 -0.959942 0 -0.4025943 -0.9153786 8.60614e-6 -0.3624801 -0.9319915 -8.60785e-6 -0.4028365 -0.9152721 0 -0.4426436 -0.8966977 -8.63866e-6 -0.4812089 -0.8766059 8.63863e-6 -0.4421662 -0.8969332 0 -0.5561246 -0.831099 8.67503e-6 -0.5181283 -0.8553029 -8.65542e-6 -0.555773 -0.8313341 0 -0.5911716 -0.8065459 -8.60789e-6 -0.6255385 -0.7801933 8.60873e-6 -0.5918223 -0.8060685 0 -0.6261659 -0.7796898 0 -0.6754141 -0.7374387 0 -0.6756093 -0.7372599 0 -0.7369812 -0.6759133 0 -0.7374032 -0.675453 0 -0.7935314 -0.6085295 0 -0.7934947 -0.6085773 0 -0.8433132 -0.5374224 0 -0.8434746 -0.5371693 0 -0.8870632 -0.4616481 0 -0.8870086 -0.4617529 0 -0.9238827 -0.3826759 0 -0.9239807 -0.3824392 0 -0.9536029 -0.3010676 0 -0.9536674 -0.300863 0 -0.9762898 -0.2164679 0 -0.9763247 -0.2163102 0 -0.9914355 -0.1305975 0 -0.9915072 -0.1300526 0 -0.9990137 -0.04440379 0 -0.999055 -0.04346543 0 0 -1 0 0.06531351 -0.9978649 0 0.1518639 -0.9884014 0 0.1948872 -0.9808258 0 0.2794111 -0.9601716 0 0.3623852 -0.9320285 0 0.4425141 -0.8967616 0 0.5187762 -0.8549101 0 0.5905529 -0.8069989 0 0.999036 -0.04389947 0 0.9990535 -0.04349935 0 0.9914487 -0.130498 0 0.9914355 -0.1305975 0 0.9763247 -0.2163102 0 0.9762898 -0.2164679 0 0.9536674 -0.300863 0 0.9537331 -0.3006546 0 0.9238201 -0.3828269 0 0.9238827 -0.3826759 0 0.8870086 -0.4617529 0 0.8870632 -0.4616481 0 0.8432685 -0.5374928 0 0.8433132 -0.5374224 0 0.7932749 -0.6088638 0 0.7933115 -0.6088162 0 0.7369496 -0.6759478 0 0.7374351 -0.6754181 0 0.6756093 -0.7372599 0 0.6756411 -0.7372307 0 0.626429 -0.7794786 -8.62099e-6 0.5911716 -0.8065459 8.60789e-6 0.6259074 -0.7798975 0 0.5548605 -0.8319435 -8.59969e-6 0.519747 -0.8543202 8.62321e-6 0.5553518 -0.8316156 0 0.4804396 -0.8770279 -8.58309e-6 0.4426436 -0.8966977 8.59337e-6 0.4808943 -0.8767787 0 0.4029309 -0.9152305 -8.61333e-6 0.3624801 -0.9319915 8.60785e-6 0.4026346 -0.9153609 0 0.3216955 -0.9468433 -8.60446e-6 0.2797171 -0.9600825 8.59556e-6 0.3216018 -0.9468751 0 0.2377802 -0.9713191 -8.61662e-6 0.1950937 -0.9807847 8.61497e-6 0.23778 -0.9713191 0 0.1090968 -0.9940311 8.62437e-6 0.1519856 -0.9883828 -8.59911e-6 0.1089444 -0.9940479 0 0.02184343 -0.9997614 8.61155e-6 0.06543034 -0.9978572 -8.60651e-6 0.02181512 -0.9997621 0 0.02181774 -0.9997621 0 0.02180832 -0.9997622 0 0.06539589 -0.9978595 0 0.06542009 -0.9978579 0 0.1089404 -0.9940484 0 0.1088417 -0.9940592 0 0.1521699 -0.9883544 0 0.1521536 -0.9883569 0 0.1950362 -0.9807962 0 0.1950895 -0.9807855 0 0.2377181 -0.9713342 0 0.2375835 -0.9713671 0 0.27993 -0.9600205 0 0.279878 -0.9600357 0 0.3213104 -0.946974 0 0.3214976 -0.9469105 0 0.3625403 -0.9319682 0 0.3623169 -0.9320549 0 0.402615 -0.9153695 0 0.4028248 -0.9152771 0 0.4420184 -0.897006 0 0.4424018 -0.896817 0 0.4807163 -0.8768762 0 0.4812929 -0.8765599 0 0.5188729 -0.8548515 0 0.5187309 -0.8549377 0 0.5557061 -0.8313788 0 0.5553588 -0.8316109 0 0.5911216 -0.8065825 0 0.5917556 -0.8061175 0 0.6260424 -0.7797891 0 0.6257072 -0.7800581 0 0.6757423 -0.737138 0 0.6755921 -0.7372756 0 0.7372444 -0.6756262 0 0.7371985 -0.6756763 0 0.7933221 -0.6088022 0 0.7933895 -0.6087144 0 0.8434035 -0.5372807 0 0.8433912 -0.5373 0 0.8869881 -0.4617926 0 0.8870028 -0.4617642 0 0.9239103 -0.3826093 0 0.9238029 -0.3828685 0 0.9537275 -0.3006726 0 0.9537286 -0.3006687 0 0.9762557 -0.2166219 0 0.976369 -0.2161101 0 0.9914535 -0.1304609 0 0.991429 -0.1306468 0 0.9990482 -0.04362028 0 0.9990454 -0.04368394 0 -0.999044 -0.0437166 0 -0.9990482 -0.04362028 0 -0.991429 -0.1306468 0 -0.9914262 -0.1306688 0 -0.976235 -0.2167147 0 -0.9763448 -0.2162194 0 -0.9538497 -0.3002845 0 -0.9537275 -0.3006726 0 -0.9238029 -0.3828685 0 -0.9239103 -0.3826093 0 -0.8870028 -0.4617642 0 -0.8869881 -0.4617926 0 -0.8433912 -0.5373 0 -0.8434035 -0.5372807 0 -0.7933895 -0.6087144 0 -0.7933221 -0.6088022 0 -0.737303 -0.6755623 0 -0.7373488 -0.6755122 0 -0.6756965 -0.7371799 0 -0.6755337 -0.7373291 0 -0.5914115 -0.8063699 0 -0.6261159 -0.7797301 0 -0.6258795 -0.7799199 0 -0.5912472 -0.8064904 0 -0.555552 -0.8314819 0 -0.5553199 -0.8316369 0 -0.5189163 -0.854825 0 -0.5185023 -0.8550763 0 -0.480764 -0.87685 0 -0.4812448 -0.8765863 0 -0.4420704 -0.8969804 0 -0.4423496 -0.8968428 0 -0.4028248 -0.9152771 0 -0.4027689 -0.9153017 0 -0.3623169 -0.9320549 0 -0.3625403 -0.9319682 0 -0.3212436 -0.9469967 0 -0.3215644 -0.9468877 0 -0.279878 -0.9600357 0 -0.2797058 -0.9600858 0 -0.2378726 -0.9712964 0 -0.2376219 -0.9713578 0 -0.1950097 -0.9808013 0 -0.1951958 -0.9807643 0 -0.1521536 -0.9883569 0 -0.1521072 -0.9883641 0 -0.1088867 -0.9940542 0 -0.108805 -0.9940632 0 -0.06542009 -0.9978579 0 -0.06539589 -0.9978595 0 -0.02180832 -0.9997622 0 -0.02181774 -0.9997621 0 -1 0 0 -1 4.09342e-6 0 -0.02180486 0.9997622 0 -0.06539976 0.9978592 -1.73711e-5 -0.02181643 0.999762 1.73722e-5 -0.06540429 0.9978589 0 -0.108812 0.9940624 0 -0.1522321 0.9883449 -1.73721e-5 -0.1088344 0.9940599 1.73506e-5 -0.1521199 0.9883621 0 -0.1951352 0.9807764 0 -0.237618 0.9713587 -1.73478e-5 -0.1950235 0.9807986 1.73407e-5 -0.2377629 0.9713233 0 -0.2798579 0.9600414 0 -0.3213002 0.9469775 -1.73145e-5 -0.2802292 0.9599332 1.73384e-5 -0.3211203 0.9470385 0 -0.3624882 0.9319885 0 -0.4029361 0.9152281 -1.73254e-5 -0.3623688 0.9320349 1.73033e-5 -0.4027906 0.9152922 0 -0.4423238 0.8968555 0 -0.480801 0.8768298 -1.73386e-5 -0.4425848 0.8967267 1.73442e-5 -0.4809495 0.8767483 0 -0.5186429 0.854991 0 -0.5558753 0.8312659 -1.73175e-5 -0.591118 0.8065851 1.73411e-5 -0.5181519 0.8552887 1.72725e-5 -0.5557653 0.8313392 0 -0.5916228 0.8062149 0 -0.6258873 0.7799136 -1.73623e-5 -0.6262094 0.7796549 0 -0.6754857 0.7373731 0 -0.6756503 0.7372223 0 -0.7372203 0.6756525 0 -0.7373846 0.6754732 0 -0.7932567 0.6088876 0 -0.7935147 0.6085512 0 -0.8432919 0.537456 0 -0.8434088 0.5372723 0 -0.8869571 0.461852 0 -0.8870345 0.4617031 0 -0.9238505 0.3827539 0 -0.923886 0.3826679 0 -0.9537286 0.300669 0 -0.9537274 0.3006731 0 -0.9763274 0.2162982 0 -0.9763494 0.2161991 0 -0.9914091 0.1307976 0 -0.9914354 0.130598 0 -0.9990521 0.04353332 0 -0.9990451 0.04369139 0</float_array>
          <technique_common>
            <accessor source="#chassis_default_as_machined__29-mesh-normals-array" count="833" stride="3">
              <param name="X" type="float"/>
              <param name="Y" type="float"/>
              <param name="Z" type="float"/>
            </accessor>
          </technique_common>
        </source>
        <vertices id="chassis_default_as_machined__29-mesh-vertices">
          <input semantic="POSITION" source="#chassis_default_as_machined__29-mesh-positions"/>
        </vertices>
        <triangles count="864">
          <input semantic="VERTEX" source="#chassis_default_as_machined__29-mesh-vertices" offset="0"/>
          <input semantic="NORMAL" source="#chassis_default_as_machined__29-mesh-normals" offset="1"/>
          <p>0 0 1 0 2 0 3 1 4 1 5 1 6 2 7 2 8 2 8 3 7 3 9 3 10 4 11 4 12 4 13 5 14 5 15 5 16 6 17 6 18 6 19 7 20 7 21 7 20 8 22 8 21 8 21 9 22 9 23 9 22 10 24 10 23 10 23 11 24 11 25 11 24 12 26 12 25 12 25 13 26 13 27 13 26 14 28 14 27 14 27 15 28 15 29 15 28 16 30 16 29 16 29 17 30 17 31 17 30 18 32 18 31 18 31 19 32 19 33 19 32 20 34 20 33 20 33 21 34 21 35 21 34 22 36 22 35 22 35 23 36 23 37 23 36 24 38 24 37 24 37 25 38 25 39 25 38 26 40 26 39 26 39 27 40 27 41 27 19 28 21 28 17 28 21 29 42 29 17 29 17 30 42 30 18 30 16 31 18 31 14 31 18 32 43 32 14 32 14 33 43 33 15 33 13 34 15 34 11 34 15 35 44 35 11 35 11 36 44 36 12 36 10 37 12 37 45 37 12 38 46 38 45 38 45 39 46 39 47 39 9 40 7 40 47 40 7 41 48 41 47 41 47 42 48 42 45 42 6 43 8 43 49 43 8 44 50 44 49 44 49 45 50 45 51 45 3 46 5 46 51 46 5 47 52 47 51 47 51 48 52 48 49 48 0 49 2 49 4 49 2 50 53 50 4 50 4 51 53 51 5 51 54 52 2 52 55 52 2 52 1 52 55 52 56 52 57 52 58 52 57 52 59 52 58 52 57 53 56 53 60 53 57 54 60 54 61 54 60 55 62 55 61 55 61 56 62 56 63 56 62 57 64 57 63 57 63 58 64 58 65 58 64 59 66 59 65 59 65 60 66 60 67 60 67 61 66 61 68 61 66 62 69 62 68 62 68 63 69 63 70 63 69 64 71 64 70 64 71 65 72 65 70 65 70 66 72 66 73 66 72 67 74 67 73 67 73 68 74 68 75 68 74 69 76 69 75 69 75 70 76 70 77 70 76 71 78 71 77 71 77 72 78 72 79 72 78 73 80 73 79 73 79 74 80 74 81 74 80 75 82 75 81 75 81 76 82 76 83 76 82 77 84 77 83 77 83 78 84 78 85 78 84 79 86 79 85 79 85 80 86 80 87 80 86 81 88 81 87 81 87 82 88 82 89 82 88 83 90 83 89 83 88 84 91 84 90 84 91 85 92 85 90 85 90 86 92 86 93 86 92 87 94 87 93 87 93 88 94 88 95 88 94 89 96 89 95 89 95 90 96 90 97 90 96 91 98 91 97 91 97 92 98 92 99 92 98 93 100 93 99 93 99 94 100 94 101 94 100 95 102 95 101 95 101 96 102 96 103 96 102 97 104 97 103 97 103 98 104 98 105 98 104 99 106 99 105 99 105 100 106 100 107 100 106 101 108 101 107 101 107 102 108 102 109 102 108 103 110 103 109 103 109 104 110 104 111 104 112 105 113 105 110 105 113 106 111 106 110 106 40 105 114 105 41 105 114 107 115 107 41 107 116 108 117 108 1 108 1 109 117 109 55 109 117 110 118 110 55 110 55 111 118 111 119 111 118 112 120 112 119 112 119 113 120 113 121 113 120 114 122 114 121 114 121 115 122 115 123 115 123 116 122 116 124 116 122 117 125 117 124 117 124 118 125 118 126 118 125 119 127 119 126 119 126 120 127 120 128 120 129 121 130 121 131 121 1 122 0 122 116 122 0 123 4 123 116 123 116 124 4 124 132 124 4 125 3 125 132 125 132 126 3 126 133 126 128 127 127 127 134 127 127 128 135 128 134 128 134 129 135 129 136 129 135 130 137 130 136 130 136 131 137 131 138 131 60 132 139 132 62 132 139 115 140 115 62 115 62 133 140 133 64 133 129 134 131 134 141 134 131 135 142 135 141 135 141 136 142 136 58 136 142 137 143 137 58 137 58 138 143 138 56 138 143 139 144 139 56 139 56 140 144 140 60 140 144 108 145 108 60 108 60 141 145 141 139 141 130 142 129 142 146 142 129 143 147 143 146 143 146 144 147 144 148 144 147 145 149 145 148 145 148 146 149 146 150 146 3 147 51 147 133 147 51 144 50 144 133 144 133 148 50 148 151 148 50 146 8 146 151 146 151 149 8 149 152 149 140 150 153 150 64 150 153 118 154 118 64 118 64 151 154 151 66 151 154 120 155 120 66 120 66 152 155 152 69 152 150 153 149 153 156 153 149 154 157 154 156 154 156 155 157 155 158 155 157 156 159 156 158 156 158 157 159 157 160 157 138 158 137 158 161 158 137 159 162 159 161 159 161 160 162 160 163 160 162 159 164 159 163 159 163 161 164 161 165 161 164 162 166 162 165 162 165 163 166 163 167 163 166 164 168 164 167 164 167 165 168 165 169 165 8 146 9 146 152 146 9 166 47 166 152 166 152 167 47 167 170 167 47 168 46 168 170 168 170 169 46 169 171 169 46 170 12 170 171 170 171 171 12 171 172 171 12 172 44 172 172 172 172 173 44 173 173 173 169 174 168 174 174 174 168 175 175 175 174 175 174 176 175 176 176 176 177 177 178 177 179 177 178 178 180 178 179 178 179 179 180 179 181 179 180 180 182 180 181 180 181 181 182 181 183 181 155 182 184 182 69 182 184 183 185 183 69 183 69 184 185 184 71 184 185 185 186 185 71 185 71 186 186 186 72 186 186 187 187 187 72 187 72 188 187 188 74 188 187 189 188 189 74 189 74 190 188 190 76 190 189 191 190 191 191 191 190 192 192 192 191 192 191 193 192 193 193 193 192 194 194 194 193 194 193 195 194 195 195 195 37 196 196 196 35 196 196 197 197 197 35 197 35 198 197 198 33 198 197 199 198 199 33 199 33 200 198 200 31 200 175 201 199 201 176 201 199 202 200 202 176 202 176 203 200 203 201 203 202 204 104 204 203 204 104 205 102 205 203 205 203 206 102 206 204 206 102 207 100 207 204 207 204 208 100 208 205 208 160 209 159 209 206 209 159 210 207 210 206 210 206 211 207 211 208 211 207 212 209 212 208 212 208 213 209 213 210 213 209 214 211 214 210 214 210 215 211 215 212 215 211 216 213 216 212 216 212 217 213 217 214 217 214 218 213 218 215 218 213 219 216 219 215 219 215 220 216 220 217 220 44 221 15 221 173 221 15 222 43 222 173 222 173 223 43 223 218 223 43 224 18 224 218 224 218 225 18 225 219 225 18 226 42 226 219 226 219 227 42 227 220 227 42 228 21 228 220 228 200 229 221 229 201 229 221 230 222 230 201 230 201 231 222 231 223 231 222 232 224 232 223 232 223 233 224 233 225 233 224 234 226 234 225 234 225 235 226 235 227 235 226 236 228 236 227 236 227 237 228 237 177 237 228 238 229 238 177 238 177 239 229 239 178 239 188 240 230 240 76 240 230 215 231 215 76 215 76 241 231 241 78 241 231 242 232 242 78 242 78 243 232 243 80 243 232 244 233 244 80 244 80 245 233 245 82 245 233 246 234 246 82 246 216 247 235 247 217 247 235 248 236 248 217 248 217 249 236 249 237 249 23 250 238 250 21 250 238 251 239 251 21 251 21 252 239 252 220 252 198 253 240 253 31 253 240 254 241 254 31 254 31 255 241 255 29 255 241 256 242 256 29 256 29 257 242 257 27 257 242 258 243 258 27 258 27 259 243 259 25 259 243 260 244 260 25 260 25 261 244 261 23 261 244 262 245 262 23 262 23 263 245 263 238 263 246 264 86 264 234 264 86 265 84 265 234 265 234 266 84 266 82 266 236 267 247 267 237 267 247 268 248 268 237 268 237 269 248 269 249 269 248 270 250 270 249 270 249 271 250 271 251 271 250 272 252 272 251 272 251 273 252 273 253 273 252 274 254 274 253 274 253 275 254 275 189 275 254 276 255 276 189 276 189 277 255 277 190 277 182 278 256 278 183 278 256 279 257 279 183 279 183 280 257 280 258 280 257 281 259 281 258 281 258 282 259 282 260 282 259 283 112 283 260 283 260 284 112 284 261 284 112 284 110 284 261 284 261 285 110 285 262 285 110 286 108 286 262 286 262 287 108 287 202 287 108 288 106 288 202 288 202 289 106 289 104 289 100 290 98 290 205 290 98 291 96 291 205 291 205 292 96 292 263 292 96 293 94 293 263 293 263 294 94 294 264 294 94 295 92 295 264 295 264 296 92 296 265 296 92 297 91 297 265 297 265 298 91 298 246 298 91 299 88 299 246 299 246 300 88 300 86 300 194 301 266 301 195 301 266 302 267 302 195 302 195 303 267 303 268 303 267 304 269 304 268 304 268 305 269 305 115 305 269 279 270 279 115 279 115 306 270 306 41 306 270 307 271 307 41 307 41 244 271 244 39 244 271 308 272 308 39 308 39 309 272 309 37 309 272 198 273 198 37 198 37 310 273 310 196 310 274 311 59 311 275 311 275 312 59 312 276 312 59 313 57 313 276 313 276 314 57 314 277 314 57 311 61 311 277 311 277 315 61 315 278 315 61 316 63 316 278 316 278 317 63 317 279 317 280 318 52 318 5 318 275 319 281 319 274 319 281 320 282 320 274 320 274 321 282 321 283 321 282 322 284 322 283 322 283 323 284 323 285 323 279 324 63 324 286 324 63 325 65 325 286 325 286 326 65 326 287 326 65 327 67 327 287 327 287 328 67 328 288 328 289 329 290 329 291 329 290 317 292 317 291 317 291 330 292 330 293 330 280 331 5 331 294 331 5 332 53 332 294 332 294 333 53 333 295 333 53 334 2 334 295 334 295 335 2 335 296 335 2 336 54 336 296 336 296 334 54 334 289 334 54 337 297 337 289 337 289 338 297 338 290 338 52 339 280 339 49 339 280 340 298 340 49 340 49 341 298 341 6 341 298 342 299 342 6 342 6 343 299 343 7 343 284 344 300 344 285 344 300 341 301 341 285 341 285 345 301 345 302 345 301 343 303 343 302 343 302 346 303 346 304 346 288 347 67 347 305 347 67 348 68 348 305 348 305 349 68 349 306 349 68 350 70 350 306 350 306 351 70 351 307 351 292 352 308 352 293 352 308 326 309 326 293 326 293 353 309 353 310 353 309 328 311 328 310 328 310 354 311 354 312 354 7 355 299 355 48 355 299 356 313 356 48 356 48 357 313 357 45 357 313 358 314 358 45 358 45 359 314 359 10 359 303 360 315 360 304 360 315 361 316 361 304 361 304 362 316 362 317 362 316 363 318 363 317 363 317 364 318 364 319 364 318 365 320 365 319 365 319 366 320 366 321 366 320 367 322 367 321 367 321 368 322 368 323 368 30 369 324 369 32 369 324 370 325 370 32 370 32 371 325 371 34 371 325 372 326 372 34 372 34 373 326 373 36 373 311 374 327 374 312 374 327 375 328 375 312 375 312 376 328 376 329 376 328 377 330 377 329 377 329 378 330 378 331 378 330 379 332 379 331 379 331 380 332 380 333 380 332 381 334 381 333 381 333 382 334 382 335 382 307 383 70 383 336 383 70 384 73 384 336 384 336 385 73 385 337 385 73 386 75 386 337 386 337 387 75 387 338 387 75 388 77 388 338 388 338 389 77 389 339 389 77 390 79 390 339 390 339 391 79 391 340 391 341 392 99 392 342 392 99 393 101 393 342 393 342 394 101 394 343 394 101 395 103 395 343 395 343 396 103 396 344 396 345 397 346 397 347 397 346 398 348 398 347 398 347 399 348 399 349 399 348 400 350 400 349 400 349 401 350 401 351 401 10 402 314 402 11 402 314 403 352 403 11 403 11 404 352 404 13 404 352 403 353 403 13 403 13 405 353 405 14 405 353 406 354 406 14 406 14 407 354 407 16 407 354 408 355 408 16 408 16 409 355 409 17 409 356 410 357 410 358 410 357 411 359 411 358 411 358 412 359 412 360 412 359 413 361 413 360 413 360 414 361 414 362 414 340 415 79 415 363 415 79 416 81 416 363 416 363 417 81 417 364 417 17 418 355 418 19 418 355 419 365 419 19 419 19 420 365 420 20 420 322 421 366 421 323 421 366 389 367 389 323 389 323 422 367 422 368 422 367 423 369 423 368 423 368 424 369 424 370 424 369 425 371 425 370 425 370 426 371 426 372 426 371 427 373 427 372 427 81 428 83 428 364 428 83 429 85 429 364 429 364 430 85 430 374 430 334 431 375 431 335 431 375 432 376 432 335 432 335 433 376 433 377 433 376 434 378 434 377 434 377 435 378 435 379 435 378 436 380 436 379 436 379 437 380 437 381 437 380 438 382 438 381 438 365 439 383 439 20 439 383 440 384 440 20 440 20 441 384 441 22 441 385 442 386 442 373 442 386 443 387 443 373 443 373 444 387 444 372 444 361 445 388 445 362 445 388 446 389 446 362 446 362 447 389 447 390 447 389 448 391 448 390 448 390 449 391 449 392 449 391 450 393 450 392 450 392 451 393 451 394 451 393 452 395 452 394 452 394 453 395 453 385 453 395 454 396 454 385 454 385 455 396 455 386 455 85 456 87 456 374 456 87 457 89 457 374 457 374 458 89 458 397 458 89 459 90 459 397 459 397 460 90 460 398 460 90 461 93 461 398 461 398 462 93 462 399 462 93 463 95 463 399 463 399 464 95 464 341 464 95 465 97 465 341 465 341 466 97 466 99 466 400 467 401 467 382 467 401 468 402 468 382 468 382 469 402 469 381 469 384 470 403 470 22 470 403 471 404 471 22 471 22 472 404 472 24 472 404 473 405 473 24 473 24 474 405 474 26 474 405 475 406 475 26 475 26 476 406 476 28 476 406 477 407 477 28 477 28 478 407 478 30 478 407 479 408 479 30 479 30 480 408 480 324 480 350 481 409 481 351 481 409 482 410 482 351 482 351 483 410 483 411 483 410 484 412 484 411 484 411 485 412 485 413 485 412 486 414 486 413 486 413 487 414 487 415 487 414 488 416 488 415 488 415 489 416 489 400 489 416 490 417 490 400 490 400 491 417 491 401 491 326 492 418 492 36 492 418 493 419 493 36 493 36 494 419 494 38 494 419 495 420 495 38 495 38 496 420 496 40 496 420 497 421 497 40 497 40 498 421 498 114 498 421 499 422 499 114 499 114 500 422 500 423 500 422 501 424 501 423 501 423 502 424 502 356 502 424 503 425 503 356 503 356 504 425 504 357 504 103 505 105 505 344 505 105 506 107 506 344 506 344 507 107 507 426 507 107 508 109 508 426 508 426 509 109 509 427 509 109 493 111 493 427 493 427 510 111 510 428 510 111 510 113 510 428 510 428 511 113 511 429 511 113 512 430 512 429 512 429 513 430 513 345 513 430 514 431 514 345 514 345 515 431 515 346 515 422 516 270 516 269 516 422 517 269 517 424 517 269 518 267 518 424 518 424 519 267 519 425 519 267 520 266 520 425 520 425 521 266 521 357 521 266 522 194 522 357 522 357 523 194 523 359 523 194 524 192 524 359 524 359 525 192 525 361 525 192 526 190 526 361 526 361 527 190 527 388 527 190 528 255 528 388 528 388 529 255 529 389 529 255 530 254 530 389 530 389 531 254 531 391 531 254 532 252 532 391 532 391 533 252 533 393 533 252 534 250 534 393 534 393 535 250 535 395 535 395 536 250 536 396 536 250 537 248 537 396 537 396 538 248 538 386 538 248 539 247 539 386 539 386 540 247 540 387 540 247 541 236 541 387 541 387 542 236 542 372 542 236 543 235 543 372 543 372 544 235 544 370 544 235 545 216 545 370 545 370 546 216 546 368 546 216 547 213 547 368 547 368 548 213 548 323 548 213 549 211 549 323 549 323 550 211 550 321 550 149 551 304 551 157 551 304 552 317 552 157 552 157 553 317 553 159 553 317 554 319 554 159 554 159 555 319 555 207 555 319 556 321 556 207 556 207 557 321 557 209 557 321 558 211 558 209 558 58 559 59 559 141 559 59 560 274 560 141 560 141 561 274 561 129 561 274 562 283 562 129 562 129 563 283 563 147 563 283 564 285 564 147 564 147 565 285 565 149 565 285 566 302 566 149 566 149 567 302 567 304 567 270 568 422 568 271 568 422 569 421 569 271 569 384 570 383 570 220 570 220 571 383 571 219 571 354 572 353 572 172 572 172 573 353 573 171 573 152 574 170 574 314 574 298 575 280 575 132 575 294 576 295 576 117 576 294 577 117 577 280 577 117 578 116 578 280 578 280 579 116 579 132 579 298 580 132 580 299 580 132 581 133 581 299 581 299 582 133 582 151 582 152 583 314 583 151 583 314 584 313 584 151 584 151 585 313 585 299 585 171 586 353 586 170 586 353 587 352 587 170 587 170 588 352 588 314 588 354 589 172 589 355 589 172 590 173 590 355 590 355 591 173 591 218 591 219 592 383 592 218 592 383 593 365 593 218 593 218 594 365 594 355 594 384 595 220 595 403 595 220 596 239 596 403 596 403 597 239 597 238 597 245 598 405 598 238 598 405 599 404 599 238 599 238 600 404 600 403 600 245 601 244 601 405 601 244 602 243 602 405 602 405 603 243 603 406 603 243 604 242 604 406 604 406 605 242 605 407 605 242 606 241 606 407 606 407 607 241 607 408 607 241 608 240 608 408 608 408 609 240 609 324 609 240 610 198 610 324 610 324 611 198 611 325 611 198 612 197 612 325 612 325 613 197 613 326 613 197 614 196 614 326 614 326 615 196 615 418 615 196 616 273 616 418 616 418 617 273 617 419 617 273 618 272 618 419 618 419 619 272 619 420 619 272 620 271 620 420 620 420 621 271 621 421 621 117 622 295 622 118 622 295 622 296 622 118 622 289 623 291 623 122 623 293 624 310 624 127 624 127 625 310 625 135 625 162 626 137 626 329 626 166 627 164 627 333 627 175 628 168 628 377 628 200 629 199 629 381 629 222 630 221 630 401 630 113 631 112 631 259 631 113 632 259 632 430 632 259 633 257 633 430 633 430 634 257 634 431 634 257 635 256 635 431 635 431 636 256 636 346 636 256 637 182 637 346 637 346 638 182 638 348 638 182 639 180 639 348 639 348 640 180 640 350 640 180 641 178 641 350 641 350 642 178 642 409 642 178 643 229 643 409 643 409 644 229 644 410 644 229 645 228 645 410 645 410 646 228 646 412 646 228 647 226 647 412 647 412 648 226 648 414 648 226 649 224 649 414 649 414 650 224 650 416 650 222 651 401 651 224 651 401 652 417 652 224 652 224 653 417 653 416 653 200 654 381 654 221 654 381 655 402 655 221 655 221 656 402 656 401 656 175 657 377 657 199 657 377 658 379 658 199 658 199 659 379 659 381 659 166 660 333 660 168 660 333 661 335 661 168 661 168 662 335 662 377 662 162 663 329 663 164 663 329 664 331 664 164 664 164 665 331 665 333 665 135 666 310 666 137 666 310 667 312 667 137 667 137 668 312 668 329 668 293 669 127 669 291 669 127 670 125 670 291 670 291 671 125 671 122 671 289 672 122 672 296 672 122 673 120 673 296 673 296 674 120 674 118 674 275 675 143 675 281 675 143 676 142 676 281 676 281 677 142 677 282 677 142 678 131 678 282 678 131 679 130 679 282 679 282 680 130 680 284 680 130 681 146 681 284 681 284 682 146 682 300 682 146 683 148 683 300 683 300 684 148 684 301 684 148 685 150 685 301 685 301 686 150 686 303 686 150 687 156 687 303 687 303 688 156 688 315 688 156 689 158 689 315 689 315 690 158 690 316 690 158 691 160 691 316 691 316 692 160 692 318 692 160 693 206 693 318 693 318 694 206 694 320 694 320 695 206 695 322 695 206 696 208 696 322 696 322 697 208 697 366 697 208 698 210 698 366 698 210 699 212 699 366 699 366 700 212 700 367 700 212 701 214 701 367 701 367 702 214 702 369 702 214 703 215 703 369 703 369 704 215 704 371 704 215 705 373 705 371 705 215 706 217 706 373 706 217 707 237 707 373 707 373 708 237 708 385 708 237 709 249 709 385 709 385 710 249 710 394 710 249 711 251 711 394 711 394 712 251 712 392 712 251 713 253 713 392 713 392 714 253 714 390 714 253 715 189 715 390 715 390 716 189 716 362 716 189 717 191 717 362 717 362 718 191 718 360 718 191 719 193 719 360 719 360 720 193 720 358 720 193 721 195 721 358 721 358 722 195 722 356 722 195 723 268 723 356 723 356 724 268 724 423 724 268 725 115 725 423 725 423 726 115 726 114 726 275 622 276 622 143 622 276 622 144 622 143 622 427 727 261 727 262 727 427 728 262 728 426 728 262 729 202 729 426 729 426 730 202 730 344 730 202 731 203 731 344 731 344 732 203 732 343 732 203 733 204 733 343 733 343 734 204 734 342 734 204 735 205 735 342 735 342 736 205 736 341 736 205 737 263 737 341 737 341 738 263 738 399 738 263 739 264 739 399 739 399 740 264 740 398 740 264 741 265 741 398 741 398 742 265 742 397 742 265 743 246 743 397 743 397 744 246 744 374 744 246 745 234 745 374 745 374 746 234 746 364 746 232 747 340 747 363 747 364 748 234 748 363 748 234 749 233 749 363 749 363 750 233 750 232 750 340 751 232 751 339 751 232 752 231 752 339 752 339 753 231 753 338 753 231 754 230 754 338 754 338 755 230 755 337 755 230 756 188 756 337 756 337 757 188 757 336 757 188 758 187 758 336 758 336 759 187 759 307 759 187 760 186 760 307 760 307 761 186 761 306 761 186 762 185 762 306 762 185 763 184 763 306 763 306 764 184 764 305 764 184 765 155 765 305 765 305 766 155 766 288 766 288 767 155 767 287 767 155 768 154 768 287 768 287 769 154 769 286 769 154 770 153 770 286 770 286 771 153 771 279 771 153 772 140 772 279 772 279 773 140 773 278 773 140 774 139 774 278 774 139 775 145 775 278 775 278 776 145 776 277 776 145 777 144 777 277 777 277 778 144 778 276 778 427 779 428 779 261 779 428 780 260 780 261 780 297 781 54 781 55 781 297 782 55 782 290 782 55 783 119 783 290 783 119 784 121 784 290 784 290 785 121 785 292 785 121 786 308 786 292 786 121 787 123 787 308 787 123 788 124 788 308 788 308 789 124 789 309 789 124 790 311 790 309 790 124 791 126 791 311 791 126 792 128 792 311 792 311 793 128 793 327 793 128 794 328 794 327 794 128 795 134 795 328 795 134 796 136 796 328 796 328 797 136 797 330 797 136 798 332 798 330 798 136 799 138 799 332 799 138 800 161 800 332 800 332 801 161 801 334 801 161 802 375 802 334 802 161 803 163 803 375 803 163 804 165 804 375 804 375 805 165 805 376 805 165 806 378 806 376 806 169 807 174 807 382 807 165 808 167 808 378 808 167 809 169 809 378 809 378 810 169 810 380 810 169 811 382 811 380 811 174 812 176 812 382 812 176 813 201 813 382 813 382 814 201 814 400 814 201 815 223 815 400 815 400 816 223 816 415 816 223 817 225 817 415 817 415 818 225 818 413 818 225 819 227 819 413 819 413 820 227 820 411 820 227 821 177 821 411 821 411 822 177 822 351 822 177 823 179 823 351 823 351 824 179 824 349 824 179 825 181 825 349 825 349 826 181 826 347 826 181 827 183 827 347 827 347 828 183 828 345 828 183 829 258 829 345 829 345 830 258 830 429 830 258 831 260 831 429 831 429 832 260 832 428 832</p>
        </triangles>
      </mesh>
    </geometry>
  </library_geometries>
  <library_visual_scenes>
    <visual_scene id="Scene" name="Scene">
      <node id="chassis_default_as_machined__29" name="chassis_default_as_machined__29" type="NODE">
        <matrix sid="transform">1 0 0 0 0 1 0 0 0 0 1 0 0 0 0 1</matrix>
        <instance_geometry url="#chassis_default_as_machined__29-mesh" name="chassis_default_as_machined__29"/>
      </node>
    </visual_scene>
  </library_visual_scenes>
  <scene>
    <instance_visual_scene url="#Scene"/>
  </scene>
</COLLADA>