<?xml version="1.0" encoding="utf-8"?>
<COLLADA xmlns="http://www.collada.org/2005/11/COLLADASchema" version="1.4.1" xmlns:xsi="http://www.w3.org/2001/XMLSchema-instance">
  <asset>
    <contributor>
      <author>Blender User</author>
      <authoring_tool>Blender 3.0.1</authoring_tool>
    </contributor>
    <created>2026-06-04T16:18:37</created>
    <modified>2026-06-04T16:18:37</modified>
    <unit name="meter" meter="1"/>
    <up_axis>Z_UP</up_axis>
  </asset>
  <library_images/>
  <library_geometries>
    <geometry id="chassis_default_as_machined__25-mesh" name="chassis_default_as_machined__25">
      <mesh>
        <source id="chassis_default_as_machined__25-mesh-positions">
          <float_array id="chassis_default_as_machined__25-mesh-positions-array" count="2640">-0.1899999 0.2098 -0.0776 -0.1899999 0.2098 -0.07499998 -0.1899999 0.1902 -0.0776 -0.1899999 0.1902 -0.07499998 -0.1899999 0.1899734 -0.07760989 -0.1899999 0.1897467 -0.07501977 -0.1899999 0.1897485 -0.07763946 -0.1899999 0.189297 -0.07507896 -0.1899999 0.189527 -0.07768857 -0.1899999 0.1888541 -0.07517719 -0.1899999 0.1893107 -0.07775676 -0.1899999 0.1884214 -0.07531356 -0.1899999 0.1891012 -0.0778436 -0.1899999 0.1880024 -0.07548719 -0.1899999 0.1888999 -0.07794833 -0.1899999 0.1876 -0.07569664 -0.1899999 0.1887087 -0.07807016 -0.1899999 0.1872174 -0.07594037 -0.1899999 0.1885287 -0.07820826 -0.1899999 0.1868575 -0.07621657 -0.1899999 0.1883615 -0.07836151 -0.1899999 0.186523 -0.076523 -0.1899999 0.1882082 -0.07852876 -0.1899999 0.1862165 -0.0768575 -0.1899999 0.1880702 -0.0787087 -0.1899999 0.1859404 -0.0772174 -0.1899999 0.1879483 -0.07889997 -0.1899999 0.1856966 -0.0776 -0.1899999 0.1878436 -0.07910114 -0.1899999 0.1854872 -0.07800239 -0.1899999 0.1877568 -0.07931071 -0.1899999 0.1853136 -0.07842147 -0.1899999 0.1876885 -0.07952708 -0.1899999 0.1851772 -0.07885414 -0.1899999 0.1876395 -0.07974851 -0.1899999 0.185079 -0.079297 -0.1899999 0.1876099 -0.07997339 -0.1899999 0.1850197 -0.07974678 -0.1899999 0.1876 -0.08019995 -0.1899999 0.185 -0.08019995 -0.1899999 0.1876 -0.09979999 -0.1899999 0.185 -0.09979999 -0.1899999 0.1876099 -0.1000266 -0.1899999 0.1850197 -0.1002532 -0.1899999 0.1876395 -0.1002514 -0.1899999 0.185079 -0.100703 -0.1899999 0.1876885 -0.1004729 -0.1899999 0.1851772 -0.1011458 -0.1899999 0.1877568 -0.1006892 -0.1899999 0.1853136 -0.1015785 -0.1899999 0.1878436 -0.1008988 -0.1899999 0.1854872 -0.1019976 -0.1899999 0.1879483 -0.1011 -0.1899999 0.1856966 -0.1024 -0.1899999 0.1880702 -0.1012912 -0.1899999 0.1859404 -0.1027826 -0.1899999 0.1882082 -0.1014712 -0.1899999 0.1862165 -0.1031424 -0.1899999 0.1883615 -0.1016384 -0.1899999 0.186523 -0.103477 -0.1899999 0.1885287 -0.1017917 -0.1899999 0.1868575 -0.1037834 -0.1899999 0.1887087 -0.1019298 -0.1899999 0.1872174 -0.1040596 -0.1899999 0.1888999 -0.1020516 -0.1899999 0.1876 -0.1043033 -0.1899999 0.1891012 -0.1021564 -0.1899999 0.1880024 -0.1045128 -0.1899999 0.1893107 -0.1022432 -0.1899999 0.1884214 -0.1046864 -0.1899999 0.189527 -0.1023114 -0.1899999 0.1888541 -0.1048228 -0.1899999 0.1897485 -0.1023605 -0.1899999 0.189297 -0.104921 -0.1899999 0.1899734 -0.1023901 -0.1899999 0.1897467 -0.1049802 -0.1899999 0.1902 -0.1024 -0.1899999 0.1902 -0.105 -0.1899999 0.2098 -0.1024 -0.1899999 0.2098 -0.105 -0.1899999 0.2100266 -0.1023901 -0.1899999 0.2102532 -0.1049802 -0.1899999 0.2102515 -0.1023605 -0.1899999 0.210703 -0.104921 -0.1899999 0.2104729 -0.1023114 -0.1899999 0.2111458 -0.1048228 -0.1899999 0.2106892 -0.1022432 -0.1899999 0.2115785 -0.1046864 -0.1899999 0.2108988 -0.1021564 -0.1899999 0.2119976 -0.1045128 -0.1899999 0.2111 -0.1020516 -0.1899999 0.2124 -0.1043033 -0.1899999 0.2112913 -0.1019298 -0.1899999 0.2127826 -0.1040596 -0.1899999 0.2114712 -0.1017917 -0.1899999 0.2131425 -0.1037834 -0.1899999 0.2116385 -0.1016384 -0.1899999 0.2134769 -0.103477 -0.1899999 0.2117917 -0.1014712 -0.1899999 0.2137834 -0.1031424 -0.1899999 0.2119297 -0.1012912 -0.1899999 0.2140595 -0.1027826 -0.1899999 0.2120516 -0.1011 -0.1899999 0.2143033 -0.1024 -0.1899999 0.2121564 -0.1008988 -0.1899999 0.2145128 -0.1019976 -0.1899999 0.2122431 -0.1006892 -0.1899999 0.2146864 -0.1015785 -0.1899999 0.2123114 -0.1004729 -0.1899999 0.2148228 -0.1011458 -0.1899999 0.2123605 -0.1002514 -0.1899999 0.2149209 -0.100703 -0.1899999 0.2123901 -0.1000266 -0.1899999 0.2149802 -0.1002532 -0.1899999 0.2124 -0.09979999 -0.1899999 0.215 -0.09979999 -0.1899999 0.2124 -0.08019995 -0.1899999 0.215 -0.08019995 -0.1899999 0.2123901 -0.07997339 -0.1899999 0.2149802 -0.07974678 -0.1899999 0.2123605 -0.07974851 -0.1899999 0.2149209 -0.079297 -0.1899999 0.2123114 -0.07952708 -0.1899999 0.2148228 -0.07885414 -0.1899999 0.2122431 -0.07931071 -0.1899999 0.2146864 -0.07842147 -0.1899999 0.2121564 -0.07910114 -0.1899999 0.2145128 -0.07800239 -0.1899999 0.2120516 -0.07889997 -0.1899999 0.2143033 -0.0776 -0.1899999 0.2119297 -0.0787087 -0.1899999 0.2140595 -0.0772174 -0.1899999 0.2117917 -0.07852876 -0.1899999 0.2137834 -0.0768575 -0.1899999 0.2116385 -0.07836151 -0.1899999 0.2134769 -0.076523 -0.1899999 0.2114712 -0.07820826 -0.1899999 0.2131425 -0.07621657 -0.1899999 0.2112913 -0.07807016 -0.1899999 0.2127826 -0.07594037 -0.1899999 0.2111 -0.07794833 -0.1899999 0.2124 -0.07569664 -0.1899999 0.2108988 -0.0778436 -0.1899999 0.2119976 -0.07548719 -0.1899999 0.2106892 -0.07775676 -0.1899999 0.2115785 -0.07531356 -0.1899999 0.2104729 -0.07768857 -0.1899999 0.2111458 -0.07517719 -0.1899999 0.2102515 -0.07763946 -0.1899999 0.210703 -0.07507896 -0.1899999 0.2100266 -0.07760989 -0.1899999 0.2102532 -0.07501977 -0.41 0.2098 -0.105 -0.41 0.2102532 -0.1049802 -0.41 0.210703 -0.104921 -0.41 0.2111458 -0.1048228 -0.41 0.2115785 -0.1046864 -0.41 0.2119976 -0.1045128 -0.41 0.2124 -0.1043033 -0.41 0.2127826 -0.1040596 -0.41 0.2131425 -0.1037834 -0.41 0.2134769 -0.103477 -0.41 0.2137834 -0.1031424 -0.41 0.2140595 -0.1027826 -0.41 0.2143033 -0.1024 -0.41 0.2145128 -0.1019976 -0.41 0.2146864 -0.1015785 -0.41 0.2148228 -0.1011458 -0.41 0.2149209 -0.100703 -0.41 0.2149802 -0.1002532 -0.41 0.215 -0.09979999 -0.2759619 0.215 -0.09169542 -0.2759467 0.215 -0.0913468 -0.2759619 0.215 -0.09099817 -0.2760075 0.215 -0.09065222 -0.2760831 0.215 -0.09031152 -0.3239467 0.215 -0.0913468 -0.3239315 0.215 -0.09169542 -0.276188 0.215 -0.08997869 -0.2763215 0.215 -0.08965635 -0.2764827 0.215 -0.08934682 -0.2766701 0.215 -0.08905249 -0.2768825 0.215 -0.08877563 -0.2771183 0.215 -0.08851838 -0.2773756 0.215 -0.08828264 -0.2776525 0.215 -0.08807021 -0.2779467 0.215 -0.08788269 -0.3227751 0.215 -0.08851838 -0.3230109 0.215 -0.08877563 -0.41 0.215 -0.08019995 -0.3232234 0.215 -0.08905249 -0.3234108 0.215 -0.08934682 -0.323572 0.215 -0.08965635 -0.3237055 0.215 -0.08997869 -0.3238105 0.215 -0.09031152 -0.323886 0.215 -0.09065222 -0.3239315 0.215 -0.09099817 -0.316188 0.215 -0.0927149 -0.2802954 0.215 -0.0953316 -0.3163215 0.215 -0.0930373 -0.3164826 0.215 -0.09334683 -0.2838104 0.215 -0.09031152 -0.283886 0.215 -0.09065222 -0.3160075 0.215 -0.09065222 -0.2839315 0.215 -0.09099817 -0.2822411 0.215 -0.09462338 -0.2819467 0.215 -0.0948109 -0.3160075 0.215 -0.09204137 -0.316083 0.215 -0.09031152 -0.316188 0.215 -0.08997869 -0.2802954 0.215 -0.08736205 -0.3163215 0.215 -0.08965635 -0.3164826 0.215 -0.08934682 -0.3166701 0.215 -0.08905249 -0.3168826 0.215 -0.08877563 -0.3171183 0.215 -0.08851838 -0.3173756 0.215 -0.08828264 -0.3176524 0.215 -0.08807021 -0.3179467 0.215 -0.08788269 -0.2789115 0.215 -0.0874831 -0.2792521 0.215 -0.08740758 -0.2795981 0.215 -0.08736205 -0.3219467 0.215 -0.08788269 -0.322241 0.215 -0.08807021 -0.3225179 0.215 -0.08828264 -0.2766701 0.215 -0.0936411 -0.2764827 0.215 -0.09334683 -0.2763215 0.215 -0.0930373 -0.276188 0.215 -0.0927149 -0.2760831 0.215 -0.09238207 -0.2760075 0.215 -0.09204137 -0.2827752 0.215 -0.08851838 -0.2830109 0.215 -0.08877563 -0.2832233 0.215 -0.08905249 -0.2834109 0.215 -0.08934682 -0.283572 0.215 -0.08965635 -0.2837055 0.215 -0.08997869 -0.316083 0.215 -0.09238207 -0.2806413 0.215 -0.09528601 -0.280982 0.215 -0.09521049 -0.3176524 0.215 -0.09462338 -0.3173756 0.215 -0.09441095 -0.2776525 0.215 -0.09462338 -0.2773756 0.215 -0.09441095 -0.2819467 0.215 -0.08788269 -0.2822411 0.215 -0.08807021 -0.2825179 0.215 -0.08828264 -0.283886 0.215 -0.09204137 -0.2839315 0.215 -0.09169542 -0.315962 0.215 -0.09169542 -0.2839468 0.215 -0.0913468 -0.3159467 0.215 -0.0913468 -0.315962 0.215 -0.09099817 -0.2838104 0.215 -0.09238207 -0.2837055 0.215 -0.0927149 -0.283572 0.215 -0.0930373 -0.2799468 0.215 -0.08734679 -0.3182563 0.215 -0.08772158 -0.3185787 0.215 -0.08758801 -0.3189114 0.215 -0.0874831 -0.3192521 0.215 -0.08740758 -0.3195981 0.215 -0.08736205 -0.3199467 0.215 -0.08734679 -0.2782562 0.215 -0.08772158 -0.2785786 0.215 -0.08758801 -0.3202953 0.215 -0.08736205 -0.3206413 0.215 -0.08740758 -0.320982 0.215 -0.0874831 -0.323886 0.215 -0.09204137 -0.3238105 0.215 -0.09238207 -0.3237055 0.215 -0.0927149 -0.2771183 0.215 -0.09417521 -0.2768825 0.215 -0.09391796 -0.2834109 0.215 -0.09334683 -0.2832233 0.215 -0.0936411 -0.2830109 0.215 -0.09391796 -0.2827752 0.215 -0.09417521 -0.2825179 0.215 -0.09441095 -0.3213148 0.215 -0.08758801 -0.3216372 0.215 -0.08772158 -0.2806413 0.215 -0.08740758 -0.280982 0.215 -0.0874831 -0.2816372 0.215 -0.09497201 -0.2813148 0.215 -0.09510558 -0.323572 0.215 -0.0930373 -0.3234108 0.215 -0.09334683 -0.3232234 0.215 -0.0936411 -0.3230109 0.215 -0.09391796 -0.3227751 0.215 -0.09417521 -0.3225179 0.215 -0.09441095 -0.322241 0.215 -0.09462338 -0.3219467 0.215 -0.0948109 -0.3216372 0.215 -0.09497201 -0.2792521 0.215 -0.09528601 -0.2789115 0.215 -0.09521049 -0.2785786 0.215 -0.09510558 -0.2813148 0.215 -0.08758801 -0.2816372 0.215 -0.08772158 -0.2782562 0.215 -0.09497201 -0.2779467 0.215 -0.0948109 -0.3213148 0.215 -0.09510558 -0.320982 0.215 -0.09521049 -0.3206413 0.215 -0.09528601 -0.3195981 0.215 -0.0953316 -0.3199467 0.215 -0.0953468 -0.3202953 0.215 -0.0953316 -0.3192521 0.215 -0.09528601 -0.3189114 0.215 -0.09521049 -0.3185787 0.215 -0.09510558 -0.2799468 0.215 -0.0953468 -0.2795981 0.215 -0.0953316 -0.3182563 0.215 -0.09497201 -0.3179467 0.215 -0.0948109 -0.3171183 0.215 -0.09417521 -0.3168826 0.215 -0.09391796 -0.3166701 0.215 -0.0936411 -0.41 0.2149802 -0.07974678 -0.41 0.2149209 -0.079297 -0.41 0.2148228 -0.07885414 -0.41 0.2146864 -0.07842147 -0.41 0.2145128 -0.07800239 -0.41 0.2143033 -0.0776 -0.41 0.2140595 -0.0772174 -0.41 0.2137834 -0.0768575 -0.41 0.2134769 -0.076523 -0.41 0.2131425 -0.07621657 -0.41 0.2127826 -0.07594037 -0.41 0.2124 -0.07569664 -0.41 0.2119976 -0.07548719 -0.41 0.2115785 -0.07531356 -0.41 0.2111458 -0.07517719 -0.41 0.210703 -0.07507896 -0.41 0.2102532 -0.07501977 -0.41 0.2098 -0.07499998 -0.41 0.1902 -0.07499998 -0.41 0.1897467 -0.07501977 -0.41 0.189297 -0.07507896 -0.41 0.1888541 -0.07517719 -0.41 0.1884214 -0.07531356 -0.41 0.1880024 -0.07548719 -0.41 0.1876 -0.07569664 -0.41 0.1872174 -0.07594037 -0.41 0.1868575 -0.07621657 -0.41 0.186523 -0.076523 -0.41 0.1862165 -0.0768575 -0.41 0.1859404 -0.0772174 -0.41 0.1856966 -0.0776 -0.41 0.1854872 -0.07800239 -0.41 0.1853136 -0.07842147 -0.41 0.1851772 -0.07885414 -0.41 0.185079 -0.079297 -0.41 0.1850197 -0.07974678 -0.41 0.185 -0.08019995 -0.41 0.1876 -0.08019995 -0.41 0.1876099 -0.07997339 -0.41 0.1876395 -0.07974851 -0.41 0.1876885 -0.07952708 -0.41 0.1877568 -0.07931071 -0.41 0.1878436 -0.07910114 -0.41 0.1879483 -0.07889997 -0.41 0.1880702 -0.0787087 -0.41 0.1882082 -0.07852876 -0.41 0.1883615 -0.07836151 -0.41 0.1885287 -0.07820826 -0.41 0.1887087 -0.07807016 -0.41 0.1888999 -0.07794833 -0.41 0.1891012 -0.0778436 -0.41 0.1893107 -0.07775676 -0.41 0.189527 -0.07768857 -0.41 0.1897485 -0.07763946 -0.41 0.1899734 -0.07760989 -0.41 0.1902 -0.0776 -0.41 0.2098 -0.0776 -0.3199467 0.2124 -0.08734679 -0.3195981 0.2124 -0.08736205 -0.3192521 0.2124 -0.08740758 -0.3189114 0.2124 -0.0874831 -0.3185787 0.2124 -0.08758801 -0.3182563 0.2124 -0.08772158 -0.3179467 0.2124 -0.08788269 -0.3176524 0.2124 -0.08807021 -0.3173756 0.2124 -0.08828264 -0.3171183 0.2124 -0.08851838 -0.3168826 0.2124 -0.08877563 -0.3166701 0.2124 -0.08905249 -0.3164826 0.2124 -0.08934682 -0.3163215 0.2124 -0.08965635 -0.316188 0.2124 -0.08997869 -0.316083 0.2124 -0.09031152 -0.3160075 0.2124 -0.09065222 -0.315962 0.2124 -0.09099817 -0.3159467 0.2124 -0.0913468 -0.315962 0.2124 -0.09169542 -0.3160075 0.2124 -0.09204137 -0.316083 0.2124 -0.09238207 -0.316188 0.2124 -0.0927149 -0.3163215 0.2124 -0.0930373 -0.3164826 0.2124 -0.09334683 -0.3166701 0.2124 -0.0936411 -0.3168826 0.2124 -0.09391796 -0.3171183 0.2124 -0.09417521 -0.3173756 0.2124 -0.09441095 -0.3176524 0.2124 -0.09462338 -0.3179467 0.2124 -0.0948109 -0.3182563 0.2124 -0.09497201 -0.3185787 0.2124 -0.09510558 -0.3189114 0.2124 -0.09521049 -0.3192521 0.2124 -0.09528601 -0.3195981 0.2124 -0.0953316 -0.3199467 0.2124 -0.0953468 -0.3202953 0.2124 -0.0953316 -0.3206413 0.2124 -0.09528601 -0.320982 0.2124 -0.09521049 -0.3213148 0.2124 -0.09510558 -0.3216372 0.2124 -0.09497201 -0.3219467 0.2124 -0.0948109 -0.322241 0.2124 -0.09462338 -0.3225179 0.2124 -0.09441095 -0.3227751 0.2124 -0.09417521 -0.3230109 0.2124 -0.09391796 -0.3232234 0.2124 -0.0936411 -0.3234108 0.2124 -0.09334683 -0.323572 0.2124 -0.0930373 -0.3237055 0.2124 -0.0927149 -0.3238105 0.2124 -0.09238207 -0.323886 0.2124 -0.09204137 -0.3239315 0.2124 -0.09169542 -0.3239467 0.2124 -0.0913468 -0.3239315 0.2124 -0.09099817 -0.323886 0.2124 -0.09065222 -0.3238105 0.2124 -0.09031152 -0.3237055 0.2124 -0.08997869 -0.323572 0.2124 -0.08965635 -0.3234108 0.2124 -0.08934682 -0.3232234 0.2124 -0.08905249 -0.3230109 0.2124 -0.08877563 -0.3227751 0.2124 -0.08851838 -0.3225179 0.2124 -0.08828264 -0.322241 0.2124 -0.08807021 -0.3219467 0.2124 -0.08788269 -0.3216372 0.2124 -0.08772158 -0.3213148 0.2124 -0.08758801 -0.320982 0.2124 -0.0874831 -0.3206413 0.2124 -0.08740758 -0.3202953 0.2124 -0.08736205 -0.2799468 0.2124 -0.08734679 -0.2795981 0.2124 -0.08736205 -0.2792521 0.2124 -0.08740758 -0.2789115 0.2124 -0.0874831 -0.2785786 0.2124 -0.08758801 -0.2782562 0.2124 -0.08772158 -0.2779467 0.2124 -0.08788269 -0.2776525 0.2124 -0.08807021 -0.2773756 0.2124 -0.08828264 -0.2771183 0.2124 -0.08851838 -0.2768825 0.2124 -0.08877563 -0.2766701 0.2124 -0.08905249 -0.2764827 0.2124 -0.08934682 -0.2763215 0.2124 -0.08965635 -0.276188 0.2124 -0.08997869 -0.2760831 0.2124 -0.09031152 -0.2760075 0.2124 -0.09065222 -0.2759619 0.2124 -0.09099817 -0.2759467 0.2124 -0.0913468 -0.2759619 0.2124 -0.09169542 -0.2760075 0.2124 -0.09204137 -0.2760831 0.2124 -0.09238207 -0.276188 0.2124 -0.0927149 -0.2763215 0.2124 -0.0930373 -0.2764827 0.2124 -0.09334683 -0.2766701 0.2124 -0.0936411 -0.2768825 0.2124 -0.09391796 -0.2771183 0.2124 -0.09417521 -0.2773756 0.2124 -0.09441095 -0.2776525 0.2124 -0.09462338 -0.2779467 0.2124 -0.0948109 -0.2782562 0.2124 -0.09497201 -0.2785786 0.2124 -0.09510558 -0.2789115 0.2124 -0.09521049 -0.2792521 0.2124 -0.09528601 -0.2795981 0.2124 -0.0953316 -0.2799468 0.2124 -0.0953468 -0.2802954 0.2124 -0.0953316 -0.2806413 0.2124 -0.09528601 -0.280982 0.2124 -0.09521049 -0.2813148 0.2124 -0.09510558 -0.2816372 0.2124 -0.09497201 -0.2819467 0.2124 -0.0948109 -0.2822411 0.2124 -0.09462338 -0.2825179 0.2124 -0.09441095 -0.2827752 0.2124 -0.09417521 -0.2830109 0.2124 -0.09391796 -0.2832233 0.2124 -0.0936411 -0.2834109 0.2124 -0.09334683 -0.283572 0.2124 -0.0930373 -0.2837055 0.2124 -0.0927149 -0.2838104 0.2124 -0.09238207 -0.283886 0.2124 -0.09204137 -0.2839315 0.2124 -0.09169542 -0.2839468 0.2124 -0.0913468 -0.2839315 0.2124 -0.09099817 -0.283886 0.2124 -0.09065222 -0.2838104 0.2124 -0.09031152 -0.2837055 0.2124 -0.08997869 -0.283572 0.2124 -0.08965635 -0.2834109 0.2124 -0.08934682 -0.2832233 0.2124 -0.08905249 -0.2830109 0.2124 -0.08877563 -0.2827752 0.2124 -0.08851838 -0.2825179 0.2124 -0.08828264 -0.2822411 0.2124 -0.08807021 -0.2819467 0.2124 -0.08788269 -0.2816372 0.2124 -0.08772158 -0.2813148 0.2124 -0.08758801 -0.280982 0.2124 -0.0874831 -0.2806413 0.2124 -0.08740758 -0.2802954 0.2124 -0.08736205 -0.2799468 0.185 -0.08734679 -0.2799468 0.1876 -0.08734679 -0.2795981 0.185 -0.08736205 -0.2795981 0.1876 -0.08736205 -0.2792521 0.185 -0.08740758 -0.2792521 0.1876 -0.08740758 -0.2789115 0.185 -0.0874831 -0.2789115 0.1876 -0.0874831 -0.2785786 0.185 -0.08758801 -0.2785786 0.1876 -0.08758801 -0.2782562 0.185 -0.08772158 -0.2782562 0.1876 -0.08772158 -0.2779467 0.185 -0.08788269 -0.2779467 0.1876 -0.08788269 -0.2776525 0.185 -0.08807021 -0.2776525 0.1876 -0.08807021 -0.2773756 0.185 -0.08828264 -0.2773756 0.1876 -0.08828264 -0.2771183 0.185 -0.08851838 -0.2771183 0.1876 -0.08851838 -0.2768825 0.185 -0.08877563 -0.2768825 0.1876 -0.08877563 -0.2766701 0.185 -0.08905249 -0.2766701 0.1876 -0.08905249 -0.2764827 0.185 -0.08934682 -0.2764827 0.1876 -0.08934682 -0.2763215 0.185 -0.08965635 -0.2763215 0.1876 -0.08965635 -0.276188 0.185 -0.08997869 -0.276188 0.1876 -0.08997869 -0.2760831 0.185 -0.09031152 -0.2760831 0.1876 -0.09031152 -0.2760075 0.185 -0.09065222 -0.2760075 0.1876 -0.09065222 -0.2759619 0.185 -0.09099817 -0.2759619 0.1876 -0.09099817 -0.2759467 0.185 -0.0913468 -0.2759467 0.1876 -0.0913468 -0.2759619 0.185 -0.09169542 -0.2759619 0.1876 -0.09169542 -0.2760075 0.185 -0.09204137 -0.2760075 0.1876 -0.09204137 -0.2760831 0.185 -0.09238207 -0.2760831 0.1876 -0.09238207 -0.276188 0.185 -0.0927149 -0.276188 0.1876 -0.0927149 -0.2763215 0.185 -0.0930373 -0.2763215 0.1876 -0.0930373 -0.2764827 0.185 -0.09334683 -0.2764827 0.1876 -0.09334683 -0.2766701 0.185 -0.0936411 -0.2766701 0.1876 -0.0936411 -0.2768825 0.185 -0.09391796 -0.2768825 0.1876 -0.09391796 -0.2771183 0.185 -0.09417521 -0.2771183 0.1876 -0.09417521 -0.2773756 0.185 -0.09441095 -0.2773756 0.1876 -0.09441095 -0.2776525 0.185 -0.09462338 -0.2776525 0.1876 -0.09462338 -0.2779467 0.185 -0.0948109 -0.2779467 0.1876 -0.0948109 -0.2782562 0.185 -0.09497201 -0.2782562 0.1876 -0.09497201 -0.2785786 0.185 -0.09510558 -0.2785786 0.1876 -0.09510558 -0.2789115 0.185 -0.09521049 -0.2789115 0.1876 -0.09521049 -0.2792521 0.185 -0.09528601 -0.2792521 0.1876 -0.09528601 -0.2795981 0.185 -0.0953316 -0.2795981 0.1876 -0.0953316 -0.2799468 0.185 -0.0953468 -0.2799468 0.1876 -0.0953468 -0.2802954 0.185 -0.0953316 -0.2802954 0.1876 -0.0953316 -0.2806413 0.185 -0.09528601 -0.2806413 0.1876 -0.09528601 -0.280982 0.185 -0.09521049 -0.280982 0.1876 -0.09521049 -0.2813148 0.185 -0.09510558 -0.2813148 0.1876 -0.09510558 -0.2816372 0.185 -0.09497201 -0.2816372 0.1876 -0.09497201 -0.2819467 0.185 -0.0948109 -0.2819467 0.1876 -0.0948109 -0.2822411 0.185 -0.09462338 -0.2822411 0.1876 -0.09462338 -0.2825179 0.185 -0.09441095 -0.2825179 0.1876 -0.09441095 -0.2827752 0.185 -0.09417521 -0.2827752 0.1876 -0.09417521 -0.2830109 0.185 -0.09391796 -0.2830109 0.1876 -0.09391796 -0.2832233 0.185 -0.0936411 -0.2832233 0.1876 -0.0936411 -0.2834109 0.185 -0.09334683 -0.2834109 0.1876 -0.09334683 -0.283572 0.185 -0.0930373 -0.283572 0.1876 -0.0930373 -0.2837055 0.185 -0.0927149 -0.2837055 0.1876 -0.0927149 -0.2838104 0.185 -0.09238207 -0.2838104 0.1876 -0.09238207 -0.283886 0.185 -0.09204137 -0.283886 0.1876 -0.09204137 -0.2839315 0.185 -0.09169542 -0.2839315 0.1876 -0.09169542 -0.2839468 0.185 -0.0913468 -0.2839468 0.1876 -0.0913468 -0.2839315 0.185 -0.09099817 -0.2839315 0.1876 -0.09099817 -0.283886 0.185 -0.09065222 -0.283886 0.1876 -0.09065222 -0.2838104 0.185 -0.09031152 -0.2838104 0.1876 -0.09031152 -0.2837055 0.185 -0.08997869 -0.2837055 0.1876 -0.08997869 -0.283572 0.185 -0.08965635 -0.283572 0.1876 -0.08965635 -0.2834109 0.185 -0.08934682 -0.2834109 0.1876 -0.08934682 -0.2832233 0.185 -0.08905249 -0.2832233 0.1876 -0.08905249 -0.2830109 0.185 -0.08877563 -0.2830109 0.1876 -0.08877563 -0.2827752 0.185 -0.08851838 -0.2827752 0.1876 -0.08851838 -0.2825179 0.185 -0.08828264 -0.2825179 0.1876 -0.08828264 -0.2822411 0.185 -0.08807021 -0.2822411 0.1876 -0.08807021 -0.2819467 0.185 -0.08788269 -0.2819467 0.1876 -0.08788269 -0.2816372 0.185 -0.08772158 -0.2816372 0.1876 -0.08772158 -0.2813148 0.185 -0.08758801 -0.2813148 0.1876 -0.08758801 -0.280982 0.185 -0.0874831 -0.280982 0.1876 -0.0874831 -0.2806413 0.185 -0.08740758 -0.2806413 0.1876 -0.08740758 -0.2802954 0.185 -0.08736205 -0.2802954 0.1876 -0.08736205 -0.3199467 0.185 -0.08734679 -0.3199467 0.1876 -0.08734679 -0.3195981 0.185 -0.08736205 -0.3195981 0.1876 -0.08736205 -0.3192521 0.185 -0.08740758 -0.3192521 0.1876 -0.08740758 -0.3189114 0.185 -0.0874831 -0.3189114 0.1876 -0.0874831 -0.3185787 0.185 -0.08758801 -0.3185787 0.1876 -0.08758801 -0.3182563 0.185 -0.08772158 -0.3182563 0.1876 -0.08772158 -0.3179467 0.185 -0.08788269 -0.3179467 0.1876 -0.08788269 -0.3176524 0.185 -0.08807021 -0.3176524 0.1876 -0.08807021 -0.3173756 0.185 -0.08828264 -0.3173756 0.1876 -0.08828264 -0.3171183 0.185 -0.08851838 -0.3171183 0.1876 -0.08851838 -0.3168826 0.185 -0.08877563 -0.3168826 0.1876 -0.08877563 -0.3166701 0.185 -0.08905249 -0.3166701 0.1876 -0.08905249 -0.3164826 0.185 -0.08934682 -0.3164826 0.1876 -0.08934682 -0.3163215 0.185 -0.08965635 -0.3163215 0.1876 -0.08965635 -0.316188 0.185 -0.08997869 -0.316188 0.1876 -0.08997869 -0.316083 0.185 -0.09031152 -0.316083 0.1876 -0.09031152 -0.3160075 0.185 -0.09065222 -0.3160075 0.1876 -0.09065222 -0.315962 0.185 -0.09099817 -0.315962 0.1876 -0.09099817 -0.3159467 0.185 -0.0913468 -0.3159467 0.1876 -0.0913468 -0.315962 0.185 -0.09169542 -0.315962 0.1876 -0.09169542 -0.3160075 0.185 -0.09204137 -0.3160075 0.1876 -0.09204137 -0.316083 0.185 -0.09238207 -0.316083 0.1876 -0.09238207 -0.316188 0.185 -0.0927149 -0.316188 0.1876 -0.0927149 -0.3163215 0.185 -0.0930373 -0.3163215 0.1876 -0.0930373 -0.3164826 0.185 -0.09334683 -0.3164826 0.1876 -0.09334683 -0.3166701 0.185 -0.0936411 -0.3166701 0.1876 -0.0936411 -0.3168826 0.185 -0.09391796 -0.3168826 0.1876 -0.09391796 -0.3171183 0.185 -0.09417521 -0.3171183 0.1876 -0.09417521 -0.3173756 0.185 -0.09441095 -0.3173756 0.1876 -0.09441095 -0.3176524 0.185 -0.09462338 -0.3176524 0.1876 -0.09462338 -0.3179467 0.185 -0.0948109 -0.3179467 0.1876 -0.0948109 -0.3182563 0.185 -0.09497201 -0.3182563 0.1876 -0.09497201 -0.3185787 0.185 -0.09510558 -0.3185787 0.1876 -0.09510558 -0.3189114 0.185 -0.09521049 -0.3189114 0.1876 -0.09521049 -0.3192521 0.185 -0.09528601 -0.3192521 0.1876 -0.09528601 -0.3195981 0.185 -0.0953316 -0.3195981 0.1876 -0.0953316 -0.3199467 0.185 -0.0953468 -0.3199467 0.1876 -0.0953468 -0.3202953 0.185 -0.0953316 -0.3202953 0.1876 -0.0953316 -0.3206413 0.185 -0.09528601 -0.3206413 0.1876 -0.09528601 -0.320982 0.185 -0.09521049 -0.320982 0.1876 -0.09521049 -0.3213148 0.185 -0.09510558 -0.3213148 0.1876 -0.09510558 -0.3216372 0.185 -0.09497201 -0.3216372 0.1876 -0.09497201 -0.3219467 0.185 -0.0948109 -0.3219467 0.1876 -0.0948109 -0.322241 0.185 -0.09462338 -0.322241 0.1876 -0.09462338 -0.3225179 0.185 -0.09441095 -0.3225179 0.1876 -0.09441095 -0.3227751 0.185 -0.09417521 -0.3227751 0.1876 -0.09417521 -0.3230109 0.185 -0.09391796 -0.3230109 0.1876 -0.09391796 -0.3232234 0.185 -0.0936411 -0.3232234 0.1876 -0.0936411 -0.3234108 0.185 -0.09334683 -0.3234108 0.1876 -0.09334683 -0.323572 0.185 -0.0930373 -0.323572 0.1876 -0.0930373 -0.3237055 0.185 -0.0927149 -0.3237055 0.1876 -0.0927149 -0.3238105 0.185 -0.09238207 -0.3238105 0.1876 -0.09238207 -0.323886 0.185 -0.09204137 -0.323886 0.1876 -0.09204137 -0.3239315 0.185 -0.09169542 -0.3239315 0.1876 -0.09169542 -0.3239467 0.185 -0.0913468 -0.3239467 0.1876 -0.0913468 -0.3239315 0.185 -0.09099817 -0.3239315 0.1876 -0.09099817 -0.323886 0.185 -0.09065222 -0.323886 0.1876 -0.09065222 -0.3238105 0.185 -0.09031152 -0.3238105 0.1876 -0.09031152 -0.3237055 0.185 -0.08997869 -0.3237055 0.1876 -0.08997869 -0.323572 0.185 -0.08965635 -0.323572 0.1876 -0.08965635 -0.3234108 0.185 -0.08934682 -0.3234108 0.1876 -0.08934682 -0.3232234 0.185 -0.08905249 -0.3232234 0.1876 -0.08905249 -0.3230109 0.185 -0.08877563 -0.3230109 0.1876 -0.08877563 -0.3227751 0.185 -0.08851838 -0.3227751 0.1876 -0.08851838 -0.3225179 0.185 -0.08828264 -0.3225179 0.1876 -0.08828264 -0.322241 0.185 -0.08807021 -0.322241 0.1876 -0.08807021 -0.3219467 0.185 -0.08788269 -0.3219467 0.1876 -0.08788269 -0.3216372 0.185 -0.08772158 -0.3216372 0.1876 -0.08772158 -0.3213148 0.185 -0.08758801 -0.3213148 0.1876 -0.08758801 -0.320982 0.185 -0.0874831 -0.320982 0.1876 -0.0874831 -0.3206413 0.185 -0.08740758 -0.3206413 0.1876 -0.08740758 -0.3202953 0.185 -0.08736205 -0.3202953 0.1876 -0.08736205 -0.41 0.1876 -0.09979999 -0.41 0.1902 -0.1024 -0.41 0.1899734 -0.1023901 -0.41 0.1897485 -0.1023605 -0.41 0.189527 -0.1023114 -0.41 0.1893107 -0.1022432 -0.41 0.1891012 -0.1021564 -0.41 0.1888999 -0.1020516 -0.41 0.1887087 -0.1019298 -0.41 0.1885287 -0.1017917 -0.41 0.1883615 -0.1016384 -0.41 0.1882082 -0.1014712 -0.41 0.1880702 -0.1012912 -0.41 0.1879483 -0.1011 -0.41 0.1878436 -0.1008988 -0.41 0.1877568 -0.1006892 -0.41 0.1876885 -0.1004729 -0.41 0.1876395 -0.1002514 -0.41 0.1876099 -0.1000266 -0.41 0.2098 -0.1024 -0.41 0.2124 -0.09979999 -0.41 0.2123901 -0.1000266 -0.41 0.2123605 -0.1002514 -0.41 0.2123114 -0.1004729 -0.41 0.2122431 -0.1006892 -0.41 0.2121564 -0.1008988 -0.41 0.2120516 -0.1011 -0.41 0.2119297 -0.1012912 -0.41 0.2117917 -0.1014712 -0.41 0.2116385 -0.1016384 -0.41 0.2114712 -0.1017917 -0.41 0.2112913 -0.1019298 -0.41 0.2111 -0.1020516 -0.41 0.2108988 -0.1021564 -0.41 0.2106892 -0.1022432 -0.41 0.2104729 -0.1023114 -0.41 0.2102515 -0.1023605 -0.41 0.2100266 -0.1023901 -0.41 0.2124 -0.08019995 -0.41 0.2100266 -0.07760989 -0.41 0.2102515 -0.07763946 -0.41 0.2104729 -0.07768857 -0.41 0.2106892 -0.07775676 -0.41 0.2108988 -0.0778436 -0.41 0.2111 -0.07794833 -0.41 0.2112913 -0.07807016 -0.41 0.2114712 -0.07820826 -0.41 0.2116385 -0.07836151 -0.41 0.2117917 -0.07852876 -0.41 0.2119297 -0.0787087 -0.41 0.2120516 -0.07889997 -0.41 0.2121564 -0.07910114 -0.41 0.2122431 -0.07931071 -0.41 0.2123114 -0.07952708 -0.41 0.2123605 -0.07974851 -0.41 0.2123901 -0.07997339 -0.41 0.1902 -0.105 -0.41 0.1897467 -0.1049802 -0.41 0.189297 -0.104921 -0.41 0.1888541 -0.1048228 -0.41 0.1884214 -0.1046864 -0.41 0.1880024 -0.1045128 -0.41 0.1876 -0.1043033 -0.41 0.1872174 -0.1040596 -0.41 0.1868575 -0.1037834 -0.41 0.186523 -0.103477 -0.41 0.1862165 -0.1031424 -0.41 0.1859404 -0.1027826 -0.41 0.1856966 -0.1024 -0.41 0.1854872 -0.1019976 -0.41 0.1853136 -0.1015785 -0.41 0.1851772 -0.1011458 -0.41 0.185079 -0.100703 -0.41 0.1850197 -0.1002532 -0.41 0.185 -0.09979999</float_array>
          <technique_common>
            <accessor source="#chassis_default_as_machined__25-mesh-positions-array" count="880" stride="3">
              <param name="X" type="float"/>
              <param name="Y" type="float"/>
              <param name="Z" type="float"/>
            </accessor>
          </technique_common>
        </source>
        <source id="chassis_default_as_machined__25-mesh-normals">
          <float_array id="chassis_default_as_machined__25-mesh-normals-array" count="2538">1 0 0 1 -1.97585e-4 0 1 1.97589e-4 0 1 -4.93974e-5 0 1 -9.88045e-5 0 1 9.87996e-5 0 1 -4.93986e-5 0 1 9.87947e-5 0 1 4.93974e-5 0 1 -1.23493e-5 0 1 6.17436e-6 0 1 -3.47359e-6 0 1 2.47011e-5 0 1 2.46987e-5 0 1 -9.87947e-5 0 1 4.93998e-5 0 1 -9.87996e-5 0 1 4.93961e-5 0 1 -9.87898e-5 0 1 4.93986e-5 0 1 -4.9398e-5 0 1 1.97598e-4 0 1 -1.97594e-4 0 1 4.9398e-5 0 1 9.87898e-5 0 1 1.23493e-5 0 1 -6.17482e-6 0 1 3.47325e-6 0 1 -2.46987e-5 0 1 4.93925e-5 0 0 0.04360663 -0.9990488 0 0.04360663 -0.9990488 0 0.1305323 -0.9914442 0 0.1305419 -0.9914427 0 0.216428 -0.9762986 0 0.216428 -0.9762986 0 0.3007083 -0.9537162 0 0.3007084 -0.9537162 0 0.3826903 -0.9238768 0 0.382664 -0.9238877 0 0.4617745 -0.8869974 0 0.4617441 -0.8870133 0 0.5373048 -0.8433883 0 0.6087678 -0.7933486 0 0.6087319 -0.7933762 0 0.6755818 -0.7372851 0 0.6756191 -0.7372509 0 0.7372664 -0.6756022 0 0.7373036 -0.6755616 0 0.7933278 -0.6087947 0 0.7933639 -0.6087477 0 0.8434004 -0.5372857 0 0.8433666 -0.5373387 0 0.8870151 -0.4617406 0 0.8870152 -0.4617405 0 0.9238552 -0.3827425 0 0.9238816 -0.3826786 0 0.9537384 -0.3006381 0 0.9537169 -0.3007058 0 0.9762835 -0.2164964 0 0.976315 -0.216354 0 0.9914392 -0.1305692 0 0.9914393 -0.1305692 0 0.9990493 -0.04359793 0 0.9990493 -0.04359793 0 1 -1.23795e-4 0 1 0 0 1 1.2363e-4 0 1 -1.23221e-4 0 1 4.95698e-5 0 1 1.97722e-5 0 1 -1.28053e-4 0 1 1.05626e-5 0 1 -2.44771e-5 0 1 1.79107e-4 0 1 1.52663e-4 0 1 -1.43807e-4 0 1 -4.59656e-5 0 1 -1.99426e-5 0 1 -7.8125e-5 0 1 3.53668e-5 0 1 7.81265e-5 0 1 -1.72109e-5 0 1 1.16021e-4 0 1 4.05063e-4 0 1 1.31396e-5 0 1 1.03698e-4 0 1 8.40954e-5 0 1 -1.06602e-4 0 1 1.63441e-5 0 1 9.42701e-5 0 1 -3.40643e-6 0 1 -3.34579e-4 0 1 -1.85768e-4 0 1 9.98678e-6 0 1 8.34813e-5 0 1 -8.3483e-5 0 1 3.44701e-6 0 1 3.94666e-5 0 0.9999946 -0.003318071 0 1 -3.53668e-5 0 1 -1.2134e-4 0 1 4.44531e-4 0 1 -1.64672e-4 0 1 -1.45448e-4 0 1 -3.03762e-5 0 1 -4.71601e-5 0 1 -9.42701e-5 0 1 7.66226e-5 0 1 5.18232e-5 0 1 -3.60168e-5 0 1 3.34503e-4 0 1 2.77641e-5 0 1 -5.72406e-6 0 1 1.47059e-4 0 1 -1.56743e-4 0 1 -1.35533e-5 0 1 3.79251e-5 0 1 -4.49994e-4 0 1 3.43119e-4 0 1 7.22749e-5 0 1 1.61559e-4 0 1 2.58387e-5 0 0.9999999 -5.00141e-4 0 1 1.28559e-4 0 0.999794 0.02030038 0 1 2.58617e-5 0 1 -1.18583e-4 0 1 -5.19681e-5 0 1 -1.38625e-5 0 0.9990493 0.04359793 0 0.9990493 0.04359793 0 0.9914392 0.1305692 0 0.9914393 0.1305692 0 0.976315 0.216354 0 0.9762835 0.2164963 0 0.953717 0.300706 0 0.9537384 0.3006379 0 0.9238815 0.3826788 0 0.9238553 0.3827423 0 0.8870151 0.4617406 0 0.8870152 0.4617405 0 0.8433665 0.5373388 0 0.8434005 0.5372856 0 0.7933639 0.6087477 0 0.7933278 0.6087947 0 0.7373035 0.6755616 0 0.7372664 0.6756021 0 0.675619 0.7372511 0 0.6755819 0.737285 0 0.6087317 0.7933762 0 0.6087679 0.7933484 0 0.5373048 0.8433883 0 0.461744 0.8870133 0 0.4617746 0.8869974 0 0.3826638 0.9238877 0 0.3826903 0.9238767 0 0.3007083 0.9537162 0 0.3007084 0.9537162 0 0.216428 0.9762986 0 0.216428 0.9762986 0 0.1305419 0.9914429 0 0.1305323 0.9914441 0 0.04360663 0.9990488 0 0.04360663 0.9990488 0 0 1 0 -0.04360663 0.9990488 0 -0.04360663 0.9990488 0 -0.1305323 0.9914442 0 -0.1305419 0.9914427 0 -0.216428 0.9762986 0 -0.216428 0.9762986 0 -0.3007298 0.9537094 0 -0.300687 0.953723 0 -0.3826638 0.9238877 0 -0.3826903 0.9238767 0 -0.461744 0.8870133 0 -0.4617746 0.8869974 0 -0.5373048 0.8433883 0 -0.537271 0.8434098 0 -0.6087678 0.7933486 0 -0.608804 0.7933208 0 -0.6755446 0.7373192 0 -0.6756191 0.7372509 0 -0.7372664 0.6756022 0 -0.7372664 0.6756021 0 -0.7933639 0.6087477 0 -0.8433665 0.5373388 0 -0.8434005 0.5372856 0 -0.8870151 0.4617406 0 -0.8870152 0.4617405 0 -0.9238815 0.3826788 0 -0.9238816 0.3826786 0 -0.953717 0.300706 0 -0.9537169 0.3007058 0 -0.9762993 0.2164252 0 -0.9762835 0.2164963 0 -0.9914392 0.1305692 0 -0.9914586 0.1304224 0 -0.9990459 0.04367244 0 -0.9990493 0.04359793 0 0.9990493 -0.04359722 0 0.9990492 -0.04359722 0 0.9914489 -0.1304958 0 0.9914296 -0.1306426 0 0.9763143 -0.2163574 0 0.9762827 -0.2164998 0 0.9537184 -0.3007012 0 0.9537185 -0.3007012 0 0.9238815 -0.3826788 0 0.886981 -0.4618059 0 0.8870421 -0.4616886 0 0.8434342 -0.5372325 0 0.8432989 -0.537445 0 0.7372739 -0.6755939 0 0.7372739 -0.675594 0 0.6756563 -0.7372169 0 0.608804 -0.7933208 0 0.6086596 -0.7934315 0 0.5373386 -0.8433666 0 0.4617311 -0.8870199 0 0.3827166 -0.9238658 0 0.3007019 -0.9537182 0 0.3007447 -0.9537047 0 0.1304903 -0.9914496 0 0.1305096 -0.9914471 0 0.04362303 -0.9990481 0 0.04362303 -0.9990481 0 0 -1 -0.04365783 0 -0.9990466 -0.0435931 0 -0.9990494 -0.1305665 0 -0.9914396 -0.1305034 0 -0.9914479 -0.2164515 0 -0.9762934 -0.2164176 0 -0.9763009 -0.3007307 0 -0.9537091 -0.3006723 0 -0.9537276 -0.3826785 0 -0.9238816 -0.4617304 0 -0.8870203 -0.4617623 0 -0.8870038 -0.5373176 0 -0.84338 -0.5372875 0 -0.8433992 -0.6087864 0 -0.7933342 -0.6087662 0 -0.7933497 -0.675587 0 -0.7372803 -0.675583 0 -0.737284 -0.7372713 0 -0.6755968 -0.7372421 0 -0.6756288 -0.7933539 0 -0.6087608 -0.7933619 0 -0.6087504 -0.8434002 0 -0.5372859 -0.843391 0 -0.5373005 -0.8870335 0 -0.4617052 -0.9238708 0 -0.3827046 -0.9238727 0 -0.3827002 -0.953716 0 -0.3007088 -0.9537178 0 -0.3007032 -0.9763013 0 -0.2164158 -0.9762998 0 -0.2164226 -0.9914381 0 -0.1305777 -0.9914376 0 -0.1305816 -0.9990473 0 -0.04364204 -0.9990473 0 -0.04364252 -0.9990474 0 0.04364061 -0.9990473 0 0.04364252 -0.9914376 0 0.1305819 -0.9914376 0 0.1305816 -0.9763013 0 0.2164158 -0.953716 0 0.3007088 -0.953715 0 0.3007124 -0.9238802 0 0.382682 -0.923868 0 0.3827115 -0.8870335 0 0.4617052 -0.8434002 0 0.5372859 -0.7933419 0 0.6087763 -0.79335 0 0.6087659 -0.7372567 0 0.6756128 -0.6755695 0 0.7372963 -0.6756005 0 0.737268 -0.6087461 0 0.7933652 -0.6087864 0 0.7933342 -0.5373176 0 0.84338 -0.5373103 0 0.8433848 -0.4617304 0 0.8870203 -0.461737 0 0.887017 -0.3826785 0 0.9238816 -0.3827333 0 0.923859 -0.3007014 0 0.9537183 -0.2164515 0 0.9762934 -0.216387 0 0.9763078 -0.1305034 0 0.9914479 -0.1305665 0 0.9914396 -0.04356181 0 0.9990507 -0.04368913 0 0.9990453 0.04368984 0 0.9990452 0.0435611 0 0.9990508 0.1305561 0 0.991441 0.130491 0 0.9914495 0.2164073 0 0.9763032 0.2164685 0 0.9762897 0.3007014 0 0.9537183 0.3827333 0 0.923859 0.3826785 0 0.9238816 0.4617304 0 0.8870203 0.461737 0 0.887017 0.5373176 0 0.84338 0.5373103 0 0.8433848 0.6087477 0 0.7933639 0.6087034 0 0.793398 0.6756484 0 0.7372241 0.6756055 0 0.7372634 0.7372567 0 0.6756128 0.7933539 0 0.6087608 0.7933381 0 0.6087813 0.8434002 0 0.5372859 0.8870007 0 0.4617683 0.8869973 0 0.4617746 0.9238708 0 0.3827046 0.9238774 0 0.3826888 0.953716 0 0.3007088 0.953715 0 0.3007124 0.9763013 0 0.2164158 0.991449 0 0.130495 0.9914482 0 0.130501 0.9990473 0 0.04364204 0.9990473 0 0.04364114 0.9990473 0 -0.04364204 0.9990473 0 -0.04364252 0.991449 0 -0.130495 0.9914488 0 -0.1304969 0.9762998 0 -0.2164226 0.9763013 0 -0.2164158 0.9537189 0 -0.3006995 0.953715 0 -0.3007124 0.9238755 0 -0.3826933 0.923868 0 -0.3827115 0.8870007 0 -0.4617683 0.8869973 0 -0.4617746 0.843391 0 -0.5373005 0.8434002 0 -0.5372859 0.7933657 0 -0.6087453 0.79335 0 -0.6087659 0.7372421 0 -0.6756288 0.7372713 0 -0.6755968 0.6756309 0 -0.73724 0.6756229 0 -0.7372474 0.6087275 0 -0.7933795 0.6087438 0 -0.7933669 0.5372948 0 -0.8433946 0.5373103 0 -0.8433848 0.4617556 0 -0.8870071 0.461737 0 -0.887017 0.3826785 0 -0.9238816 0.3006723 0 -0.9537276 0.3007307 0 -0.9537091 0.2164379 0 -0.9762964 0.2164685 0 -0.9762897 0.1304931 0 -0.9914492 0.1305541 0 -0.9914413 0.04359382 0 -0.9990494 0.04365712 0 -0.9990466 -0.1305561 0 -0.991441 -0.130491 0 -0.9914495 -0.2164685 0 -0.9762897 -0.2164379 0 -0.9762964 -0.6087477 0 -0.7933639 -0.6087236 0 -0.7933824 -0.6756309 0 -0.73724 -0.6756229 0 -0.7372474 -0.8870007 0 -0.4617683 -0.8869973 0 -0.4617746 -0.9239006 0 -0.3826327 -0.9239039 0 -0.3826249 -0.9762835 0 -0.2164961 -0.9762812 0 -0.2165067 -0.991449 0 -0.130495 -0.9914488 0 -0.1304969 -0.9914485 0 0.1304991 -0.9914488 0 0.1304969 -0.9762835 0 0.2164961 -0.9762827 0 0.2164999 -0.92391 0 0.3826101 -0.9238992 0 0.3826362 -0.8870007 0 0.4617683 -0.8869973 0 0.4617746 -0.6756135 0 0.737256 -0.6756404 0 0.7372314 -0.6087073 0 0.793395 -0.6087438 0 0.7933669 -0.2164685 0 0.9762897 -0.2164073 0 0.9763032 -0.1304931 0 0.9914492 -0.1305541 0 0.9914413 0.6087864 0 0.7933342 0.6087461 0 0.7933652 0.6756044 0 0.7372643 0.6755656 0 0.7372999 0.8870335 0 0.4617052 0.9762835 0 0.2164961 0.9762827 0 0.2164999 0.9762821 0 -0.2165029 0.9762827 0 -0.2164999 0.8870335 0 -0.4617052 0.675587 0 -0.7372803 0.675583 0 -0.737284 0.6087662 0 -0.7933497 0.6087864 0 -0.7933342 -0.1305541 0 -0.9914413 -0.1304931 0 -0.9914492 -0.2164413 0 -0.9762957 -0.3826842 0 -0.9238793 -0.4617337 0 -0.8870186 -0.5373103 0 -0.8433848 -0.5372948 0 -0.8433946 -0.6087438 0 -0.7933669 -0.6087275 0 -0.7933795 -0.7933657 0 -0.6087453 -0.9238992 0 -0.3826362 -0.9239053 0 -0.3826214 -0.953715 0 -0.3007124 -0.9537189 0 -0.3006995 -0.9762827 0 -0.2164999 -0.9762821 0 -0.2165029 -0.9990473 0 0.04364204 -0.9914482 0 0.130501 -0.991449 0 0.130495 -0.9239085 0 0.3826135 -0.9239006 0 0.3826327 -0.7933539 0 0.6087608 -0.6756055 0 0.7372634 -0.6756484 0 0.7372241 -0.6087034 0 0.793398 -0.6087477 0 0.7933639 -0.4617337 0 0.8870186 -0.382739 0 0.9238566 -0.2164107 0 0.9763025 -0.130491 0 0.9914495 -0.1305561 0 0.991441 0.1305541 0 0.9914413 0.1304931 0 0.9914492 0.2164719 0 0.9762889 0.3826842 0 0.9238793 0.4617337 0 0.8870186 0.6087825 0 0.7933372 0.6755965 0 0.7372717 0.6755695 0 0.7372963 0.7933419 0 0.6087763 0.8870318 0 0.4617083 0.8870368 0 0.461699 0.923868 0 0.3827115 0.9238802 0 0.382682 0.9914488 0 0.1304969 0.9914485 0 0.1304991 0.9990474 0 0.04364061 0.9762812 0 -0.2165067 0.9762835 0 -0.2164961 0.9537178 0 -0.3007032 0.953716 0 -0.3007088 0.9238727 0 -0.3827002 0.9238708 0 -0.3827046 0.8870318 0 -0.4617083 0.8870368 0 -0.461699 0.7933539 0 -0.6087608 0.675579 0 -0.7372877 0.6087623 0 -0.7933527 0.5372875 0 -0.8433992 0.5373176 0 -0.84338 0.461759 0 -0.8870055 0.3826842 0 -0.9238793 0.2164719 0 -0.9762889 0.130491 0 -0.9914495 0.1305561 0 -0.991441 -0.1305645 0 -0.9914399 -0.2164481 0 -0.9762942 -0.216421 0 -0.9763002 -0.6087825 0 -0.7933372 -0.675579 0 -0.7372877 -0.8870318 0 -0.4617083 -0.8870368 0 -0.461699 -0.923868 0 -0.3827115 -0.9238755 0 -0.3826933 -0.9763008 0 -0.2164177 -0.9914371 0 0.1305858 -0.9914381 0 0.1305777 -0.9763008 0 0.2164177 -0.9238774 0 0.3826888 -0.9238708 0 0.3827046 -0.8870318 0 0.4617083 -0.8870368 0 0.461699 -0.6755616 0 0.7373036 -0.6756044 0 0.7372643 -0.6087422 0 0.7933682 -0.2164481 0 0.9762942 -0.2163904 0 0.9763069 -0.1305014 0 0.9914482 0.6087438 0 0.7933669 0.6087073 0 0.793395 0.6756404 0 0.7372314 0.6756135 0 0.737256 0.9763008 0 0.2164177 0.9762994 0 -0.2164245 0.6087236 0 -0.7933824 0.6087477 0 -0.7933639 0 1 6.95187e-6 0 1 2.25494e-5 0 1 1.25388e-4 0 1 -4.59861e-5 0 1 -1.43973e-4 0 1 1.00595e-4 0 1 -3.95801e-5 0 1 2.17337e-5 0 1 -2.27437e-5 0 1 -4.83136e-5 0 1 1.67172e-4 0 1 -3.67306e-5 0 1 1.27162e-4 0 1 -2.82717e-5 0 1 -4.05063e-4 0 0.9999999 5.6798e-4 0 1 1.98467e-4 0 1 -3.10864e-5 0 1 -2.17778e-5 0 1 -1.26594e-4 0 1 6.86899e-5 0 1 2.64619e-5 0 1 -4.05365e-5 0 1 -9.29385e-5 0 1 -1.30482e-4 0 1 -1.67172e-4 0 1 3.19577e-5 0 1 -8.40431e-5 0 1 8.34017e-5 0 1 -8.34036e-5 0 1 6.59856e-5 0 1 2.88952e-5 0 1 -1.16477e-5 0 1 4.83136e-5 0 1 -3.10193e-5 0 0.9999945 0.003323614 0 1 2.25114e-4 0 1 -2.6214e-4 0 1 2.74865e-4 0 1 1.16991e-4 0 1 4.63052e-5 0 1 -1.56923e-4 0 1 8.77062e-5 0 1 4.08099e-5 0 1 -6.53423e-5 0 1 -8.6089e-5 0 1 9.29174e-5 0 1 1.88796e-4 0 1 -9.26753e-6 0 1 3.20651e-5 0 1 -2.07216e-4 0 1 9.06503e-5 0 1 4.49994e-4 0 1 -3.43119e-4 0 1 -3.55429e-4 0 1 9.42716e-5 0 1 2.79198e-4 0 1 -2.37058e-4 0 1 4.13274e-5 0 1 -1.2995e-4 0 1 -3.80249e-6 0 1 2.81642e-4 0 1 3.28646e-5 0 1 -3.80166e-4 0 1 2.91521e-5 0 1 -2.59841e-5 0 1 -8.92997e-5 0 1 6.20514e-5 0 0.04362303 0.9990481 0 0.04362303 0.9990481 0 0.1305097 0.9914471 0 0.1304903 0.9914496 0 0.3007447 0.9537047 0 0.3007019 0.9537182 0 0.3827167 0.9238658 0 0.4617311 0.8870199 0 0.5373386 0.8433666 0 0.6086598 0.7934314 0 0.6088038 0.7933209 0 0.6756562 0.737217 0 0.7372739 0.6755939 0 0.7372739 0.675594 0 0.843299 0.5374449 0 0.8434342 0.5372326 0 0.8870422 0.4616884 0 0.886981 0.4618061 0 0.9238816 0.3826786 0 0.9537184 0.3007012 0 0.9537185 0.3007012 0 0.9762827 0.2164997 0 0.9763143 0.2163575 0 0.9914296 0.1306425 0 0.9914489 0.1304958 0 0.9990493 0.04359722 0 0.9990492 0.04359722 0 -0.9990493 0.04359722 0 -0.9990492 0.04359722 0 -0.9914489 0.1304958 0 -0.9914296 0.1306426 0 -0.9762827 0.2164997 0 -0.9763143 0.2163575 0 -0.9536756 0.300837 0 -0.9537612 0.3005654 0 -0.886981 0.4618059 0 -0.886981 0.4618061 0 -0.8434342 0.5372325 0 -0.8434342 0.5372326 0 -0.7932918 0.6088417 0 -0.7373483 0.6755127 0 -0.7372739 0.675594 0 -0.6755075 0.7373532 0 -0.6756562 0.737217 0 -0.6087319 0.7933762 0 -0.6088038 0.7933209 0 -0.4617311 0.8870199 0 -0.3827167 0.9238658 0 -0.3007447 0.9537047 0 -0.3007019 0.9537182 0 -0.1305097 0.9914471 0 -0.1305096 0.9914471 0 -0.04362952 0.9990479 0 -0.04361653 0.9990484 0 -1 0 0 -1 1.29654e-4 0 -1 -1.33963e-4 0 -1 4.66647e-5 0 -1 1.23796e-4 0 -1 -6.93814e-6 0 -1 2.83852e-5 0 -1 1.56923e-4 0 -1 -1.65474e-6 0 -1 -7.27227e-5 0 -1 -1.91113e-4 0 -1 -1.85768e-4 0 -1 -5.18562e-5 0 -1 1.81032e-5 0 -1 -1.65934e-4 0 -1 6.79592e-5 0 -1 -6.75019e-5 0 -1 -3.39569e-5 0 -1 1.80049e-6 0 -1 1.89494e-5 0 -1 -3.41496e-5 0 -1 2.79198e-4 0 -1 -4.00772e-4 0 -1 3.01062e-5 0 -1 -1.64323e-5 0 -1 3.29679e-4 0 -0.9999993 -0.001274287 0 -1 4.91702e-5 0 -1 1.16333e-4 0 -1 -1.39558e-4 0 -1 1.98612e-5 0 -1 -1.95564e-5 0 -1 -3.34579e-4 0 -1 1.2783e-4 0 -1 -3.61686e-6 0 -1 -1.06606e-4 0 -1 -8.40413e-5 0 -1 8.34036e-5 0 -1 -8.3402e-5 0 -1 5.17062e-5 0 -1 1.06603e-4 0 -1 3.61686e-6 0 -1 1.85001e-4 0 -1 1.36965e-4 0 -1 -1.13305e-4 0 -1 3.55382e-4 0 -1 2.51391e-5 0 -1 -1.2783e-4 0 -1 3.39569e-5 0 -0.9999998 5.94663e-4 0 -1 1.58928e-4 0 -1 -1.52832e-4 0 -1 -4.57972e-5 0 -1 1.31904e-4 0 -1 -1.28053e-4 0 -1 2.92652e-5 0 -1 -3.19519e-5 0 -1 1.79107e-4 0 -1 1.60418e-6 0 -1 -2.61017e-4 0 -1 -2.24883e-4 0 -1 2.10283e-5 0 -1 -3.0489e-4 0 -1 1.55096e-5 0 -1 4.05063e-4 0 -1 -2.3347e-4 0 -0.9999738 0.007246136 0 -1 -4.03753e-4 0 -1 -2.82717e-5 0 -0.9999946 0.003318071 0 -1 -1.55307e-5 0 -1 -8.95977e-5 0 -1 -1.37725e-5 0 -0.04361653 -0.9990484 0 -0.04362952 -0.9990479 0 -0.1305097 -0.9914471 0 -0.1305096 -0.9914471 0 -0.216428 -0.9762986 0 -0.216428 -0.9762986 0 -0.3007019 -0.9537182 0 -0.3007447 -0.9537047 0 -0.382664 -0.9238877 0 -0.3827166 -0.9238658 0 -0.4617311 -0.8870199 0 -0.537271 -0.8434098 0 -0.608804 -0.7933208 0 -0.6087317 -0.7933762 0 -0.6756563 -0.7372169 0 -0.6755074 -0.7373533 0 -0.7372739 -0.6755939 0 -0.7373483 -0.6755129 0 -0.7933639 -0.6087477 0 -0.7932918 -0.6088417 0 -0.8434342 -0.5372325 0 -0.8434342 -0.5372326 0 -0.886981 -0.4618059 0 -0.886981 -0.4618061 0 -0.9238816 -0.3826786 0 -0.9238815 -0.3826788 0 -0.9537613 -0.3005654 0 -0.9536756 -0.300837 0 -0.9763143 -0.2163574 0 -0.9762827 -0.2164998 0 -0.9914296 -0.1306425 0 -0.9914489 -0.1304958 0 -0.9990493 -0.04359722 0 -0.9990492 -0.04359722 -1 0 0 -1 -3.95189e-4 0 -1 3.95184e-4 0 -1 -9.87996e-5 0 -1 9.87947e-5 0 -1 1.97589e-4 0 -1 4.93974e-5 0 -1 1.23496e-5 0 -1 -9.64792e-7 0 -1 2.46993e-5 0 -1 -2.46987e-5 0 -1 -4.93986e-5 0 -1 1.97599e-4 0 -1 -3.95169e-4 0 -1 1.97591e-4 0 -1 -3.95184e-4 0 -1 3.95189e-4 0 -1 -3.95176e-4 0 -1 9.87935e-5 0 -1 -9.87984e-5 0 -1 -1.97599e-4 0 -1 -4.93961e-5 0 -1 -1.23487e-5 0 -1 9.64887e-7 0 -1 -2.46975e-5 0 -1 2.46987e-5 0 -1 -1.97589e-4 0 -1 3.95198e-4 0 -1 -1.9759e-4 0 0 -0.9990493 -0.04359793 0 -0.9990459 -0.04367244 0 -0.9914585 -0.1304224 0 -0.9914393 -0.1305692 0 -0.9762835 -0.2164964 0 -0.9762993 -0.2164251 0 -0.953717 -0.300706 0 -0.9537169 -0.3007058 0 -0.8870151 -0.4617406 0 -0.8870152 -0.4617405 0 -0.8434004 -0.5372857 0 -0.8433666 -0.5373387 0 -0.7372664 -0.6756022 0 -0.7372664 -0.6756021 0 -0.675619 -0.7372511 0 -0.6755447 -0.7373191 0 -0.6088038 -0.7933209 0 -0.6087679 -0.7933484 0 -0.5373048 -0.8433883 0 -0.4617745 -0.8869974 0 -0.4617441 -0.8870133 0 -0.3826903 -0.9238768 0 -0.300687 -0.953723 0 -0.3007298 -0.9537094 0 -0.1305419 -0.9914429 0 -0.1305323 -0.9914441 0 -0.04360663 -0.9990488 0 -0.04360663 -0.9990488 0 -1 -1.26594e-4 0 -1 -1.23805e-4 0 -1 7.62152e-5 0 -1 5.02123e-5 0 -1 7.4798e-5 0 -1 -4.75287e-5 0 -1 -4.73257e-5 0 -1 5.49345e-5 0 -1 8.93002e-5 0 -1 -9.55566e-5 0 -1 -1.04175e-4 0 -1 -2.37927e-4 0 -1 1.295e-4 0 -1 -1.26444e-4 0 -1 7.96909e-5 0 -1 -7.91547e-5 0 -1 -4.02655e-5 0 -1 -3.40756e-5 0 -1 5.73407e-5 0 -1 -1.07224e-4 0 -1 1.47827e-5 0 -1 7.92618e-5 0 -1 3.78953e-6 0 -1 -1.07121e-4 0 -1 -6.88814e-5 0 -1 -3.75011e-5 0 -1 1.25239e-4 0 -1 -1.27904e-4 0 -1 3.69255e-5 0 -1 2.78816e-5 0 -1 2.80307e-5 0 -1 1.06606e-4 0 -1 -9.96214e-5 0 -1 3.68243e-6 0 -1 3.0203e-5 0 -1 -3.68243e-6 0 -1 9.96214e-5 0 -1 -1.06603e-4 0 -1 -2.80307e-5 0 -1 -1.04063e-4 0 -1 6.70885e-5 0 -1 4.8707e-5 0 -1 -4.92789e-5 0 -1 1.05306e-4 0 -1 -3.4381e-5 0 -1 4.58797e-5 0 -1 -9.9964e-5 0 -1 -1.01431e-4 0 -1 -7.48112e-5 0 -1 -7.37274e-5 0 -1 -2.36429e-6 0 -1 -6.83776e-5 0 -1 2.04117e-4 0 -1 -8.87243e-5 0 -1 4.47988e-5 0 -1 -7.6213e-5 0 -1 3.2966e-5</float_array>
          <technique_common>
            <accessor source="#chassis_default_as_machined__25-mesh-normals-array" count="846" stride="3">
              <param name="X" type="float"/>
              <param name="Y" type="float"/>
              <param name="Z" type="float"/>
            </accessor>
          </technique_common>
        </source>
        <vertices id="chassis_default_as_machined__25-mesh-vertices">
          <input semantic="POSITION" source="#chassis_default_as_machined__25-mesh-positions"/>
        </vertices>
        <triangles count="1776">
          <input semantic="VERTEX" source="#chassis_default_as_machined__25-mesh-vertices" offset="0"/>
          <input semantic="NORMAL" source="#chassis_default_as_machined__25-mesh-normals" offset="1"/>
          <p>0 0 1 0 2 0 1 0 3 0 2 0 2 0 3 0 4 0 3 0 5 0 4 0 4 1 5 1 6 1 5 0 7 0 6 0 6 0 7 0 8 0 7 0 9 0 8 0 8 2 9 2 10 2 9 3 11 3 10 3 10 0 11 0 12 0 11 0 13 0 12 0 12 0 13 0 14 0 13 0 15 0 14 0 14 4 15 4 16 4 15 0 17 0 16 0 16 0 17 0 18 0 17 0 19 0 18 0 18 5 19 5 20 5 19 6 21 6 20 6 20 0 21 0 22 0 21 0 23 0 22 0 22 0 23 0 24 0 23 0 25 0 24 0 24 7 25 7 26 7 25 0 27 0 26 0 26 0 27 0 28 0 27 0 29 0 28 0 28 0 29 0 30 0 29 0 31 0 30 0 30 8 31 8 32 8 31 0 33 0 32 0 32 0 33 0 34 0 33 0 35 0 34 0 34 0 35 0 36 0 35 9 37 9 36 9 36 0 37 0 38 0 37 0 39 0 38 0 38 0 39 0 40 0 39 0 41 0 40 0 40 0 41 0 42 0 41 10 43 10 42 10 42 11 43 11 44 11 43 0 45 0 44 0 44 0 45 0 46 0 45 0 47 0 46 0 46 12 47 12 48 12 47 0 49 0 48 0 48 3 49 3 50 3 49 13 51 13 50 13 50 0 51 0 52 0 51 0 53 0 52 0 52 0 53 0 54 0 53 0 55 0 54 0 54 14 55 14 56 14 55 15 57 15 56 15 56 16 57 16 58 16 57 17 59 17 58 17 58 0 59 0 60 0 59 0 61 0 60 0 60 18 61 18 62 18 61 19 63 19 62 19 62 16 63 16 64 16 63 0 65 0 64 0 64 0 65 0 66 0 65 20 67 20 66 20 66 0 67 0 68 0 67 0 69 0 68 0 68 0 69 0 70 0 69 0 71 0 70 0 70 0 71 0 72 0 71 0 73 0 72 0 72 0 73 0 74 0 73 0 75 0 74 0 74 0 75 0 76 0 75 0 77 0 76 0 76 0 77 0 78 0 77 0 79 0 78 0 78 0 79 0 80 0 79 0 81 0 80 0 80 21 81 21 82 21 81 0 83 0 82 0 82 0 83 0 84 0 83 0 85 0 84 0 84 22 85 22 86 22 85 23 87 23 86 23 86 0 87 0 88 0 87 0 89 0 88 0 88 0 89 0 90 0 89 0 91 0 90 0 90 24 91 24 92 24 91 0 93 0 92 0 92 0 93 0 94 0 93 0 95 0 94 0 94 16 95 16 96 16 95 19 97 19 96 19 96 0 97 0 98 0 97 0 99 0 98 0 98 0 99 0 100 0 99 0 101 0 100 0 100 16 101 16 102 16 101 0 103 0 102 0 102 0 103 0 104 0 103 0 105 0 104 0 104 0 105 0 106 0 105 0 107 0 106 0 106 3 107 3 108 3 107 0 109 0 108 0 108 0 109 0 110 0 109 0 111 0 110 0 110 0 111 0 112 0 111 25 113 25 112 25 112 0 113 0 114 0 113 0 115 0 114 0 114 0 115 0 116 0 115 0 117 0 116 0 116 0 117 0 118 0 117 26 119 26 118 26 118 27 119 27 120 27 119 0 121 0 120 0 120 0 121 0 122 0 121 0 123 0 122 0 122 28 123 28 124 28 123 0 125 0 124 0 124 29 125 29 126 29 125 28 127 28 126 28 126 0 127 0 128 0 127 0 129 0 128 0 128 0 129 0 130 0 129 0 131 0 130 0 130 7 131 7 132 7 131 6 133 6 132 6 132 24 133 24 134 24 133 6 135 6 134 6 134 0 135 0 136 0 135 0 137 0 136 0 136 7 137 7 138 7 137 3 139 3 138 3 138 7 139 7 140 7 139 0 141 0 140 0 140 0 141 0 142 0 141 8 143 8 142 8 142 0 143 0 144 0 143 0 145 0 144 0 144 0 145 0 146 0 145 0 147 0 146 0 146 0 147 0 148 0 147 0 149 0 148 0 148 0 149 0 150 0 149 0 151 0 150 0 150 0 151 0 0 0 151 0 1 0 0 0 79 30 152 30 153 30 79 31 153 31 81 31 153 32 154 32 81 32 81 33 154 33 83 33 154 34 155 34 83 34 83 35 155 35 85 35 155 36 156 36 85 36 85 37 156 37 87 37 156 38 157 38 87 38 87 39 157 39 89 39 157 40 158 40 89 40 89 41 158 41 91 41 158 42 159 42 91 42 91 42 159 42 93 42 159 43 160 43 93 43 93 44 160 44 95 44 160 45 161 45 95 45 95 46 161 46 97 46 161 47 162 47 97 47 97 48 162 48 99 48 162 49 163 49 99 49 99 50 163 50 101 50 163 51 164 51 101 51 101 52 164 52 103 52 164 53 165 53 103 53 103 54 165 54 105 54 165 55 166 55 105 55 105 56 166 56 107 56 166 57 167 57 107 57 107 58 167 58 109 58 167 59 168 59 109 59 109 60 168 60 111 60 168 61 169 61 111 61 111 62 169 62 113 62 169 63 170 63 113 63 113 64 170 64 115 64 171 65 172 65 115 65 115 66 172 66 117 66 172 67 173 67 117 67 173 68 174 68 117 68 117 69 174 69 175 69 170 70 176 70 177 70 175 66 178 66 117 66 178 71 179 71 117 71 117 72 179 72 180 72 180 66 181 66 117 66 181 66 182 66 117 66 117 73 182 73 183 73 183 66 184 66 117 66 184 74 185 74 117 74 117 66 185 66 186 66 187 75 188 75 189 75 188 76 190 76 189 76 190 66 191 66 189 66 191 66 192 66 189 66 189 77 192 77 193 77 193 66 194 66 189 66 194 66 195 66 189 66 189 66 195 66 170 66 195 66 196 66 170 66 170 78 196 78 176 78 197 79 198 79 199 79 198 80 200 80 199 80 201 66 202 66 203 66 202 66 204 66 203 66 205 66 206 66 207 66 208 66 209 66 210 66 209 81 211 81 210 81 212 66 213 66 117 66 213 66 214 66 117 66 117 82 214 82 215 82 215 83 216 83 117 83 216 66 217 66 117 66 117 66 217 66 218 66 219 84 220 84 117 84 220 66 221 66 117 66 222 66 223 66 189 66 223 66 224 66 189 66 189 85 224 85 187 85 225 66 226 66 115 66 226 66 227 66 115 66 115 86 227 86 228 86 228 66 229 66 115 66 229 66 230 66 115 66 115 87 230 87 171 87 231 66 232 66 203 66 232 88 233 88 203 88 203 89 233 89 234 89 234 90 235 90 203 90 235 66 236 66 203 66 203 91 236 91 201 91 197 66 237 66 198 66 237 66 207 66 198 66 198 66 207 66 238 66 207 92 239 92 238 92 240 66 241 66 115 66 242 93 243 93 115 93 244 66 245 66 203 66 245 66 246 66 203 66 203 94 246 94 231 94 247 66 207 66 248 66 207 66 249 66 248 66 248 66 249 66 250 66 249 95 251 95 250 95 250 96 251 96 204 96 251 66 252 66 204 66 204 97 252 97 203 97 247 66 253 66 207 66 253 66 254 66 207 66 207 98 254 98 255 98 221 66 256 66 117 66 256 99 210 99 117 99 117 66 210 66 212 66 210 100 211 100 212 100 218 66 257 66 117 66 257 66 258 66 117 66 117 101 258 101 259 101 259 66 260 66 117 66 260 102 261 102 117 102 117 66 261 66 189 66 261 66 262 66 189 66 186 66 263 66 117 66 263 66 264 66 117 66 117 103 264 103 219 103 262 66 265 66 189 66 265 66 266 66 189 66 189 104 266 104 267 104 177 66 268 66 170 66 268 66 269 66 170 66 170 105 269 105 270 105 243 66 271 66 115 66 271 66 272 66 115 66 115 106 272 106 225 106 255 107 273 107 207 107 273 66 274 66 207 66 207 108 274 108 275 108 275 66 276 66 207 66 276 66 277 66 207 66 207 109 277 109 205 109 267 66 278 66 189 66 278 66 279 66 189 66 189 110 279 110 222 110 208 66 210 66 203 66 210 66 280 66 203 66 203 111 280 111 281 111 206 66 282 66 207 66 282 66 283 66 207 66 207 112 283 112 239 112 270 66 284 66 170 66 284 66 285 66 170 66 170 113 285 113 286 113 286 114 287 114 170 114 287 115 288 115 170 115 170 116 288 116 289 116 289 66 290 66 170 66 290 66 291 66 170 66 170 117 291 117 292 117 293 118 294 118 115 118 294 119 295 119 115 119 281 66 296 66 203 66 296 66 297 66 203 66 203 120 297 120 244 120 295 66 298 66 115 66 298 66 299 66 115 66 115 66 299 66 242 66 292 66 300 66 170 66 300 66 301 66 170 66 170 121 301 121 302 121 303 66 115 66 304 66 115 66 170 66 304 66 304 66 170 66 305 66 170 122 302 122 305 122 303 123 306 123 115 123 306 66 307 66 115 66 115 124 307 124 308 124 198 125 309 125 115 125 309 66 310 66 115 66 115 126 310 126 293 126 308 66 311 66 115 66 311 66 312 66 115 66 115 66 312 66 240 66 241 127 313 127 115 127 313 66 314 66 115 66 115 128 314 128 198 128 314 66 315 66 198 66 198 129 315 129 200 129 117 130 189 130 316 130 117 131 316 131 119 131 316 132 317 132 119 132 119 133 317 133 121 133 317 134 318 134 121 134 121 135 318 135 123 135 318 136 319 136 123 136 123 137 319 137 125 137 319 138 320 138 125 138 125 139 320 139 127 139 320 140 321 140 127 140 127 141 321 141 129 141 321 142 322 142 129 142 129 143 322 143 131 143 322 144 323 144 131 144 131 145 323 145 133 145 323 146 324 146 133 146 133 147 324 147 135 147 324 148 325 148 135 148 135 149 325 149 137 149 325 150 326 150 137 150 137 151 326 151 139 151 326 152 327 152 139 152 139 152 327 152 141 152 327 153 328 153 141 153 141 154 328 154 143 154 328 155 329 155 143 155 143 156 329 156 145 156 329 157 330 157 145 157 145 158 330 158 147 158 330 159 331 159 147 159 147 160 331 160 149 160 331 161 332 161 149 161 149 162 332 162 151 162 332 163 333 163 151 163 151 164 333 164 1 164 333 165 334 165 1 165 334 165 3 165 1 165 3 166 334 166 335 166 3 167 335 167 5 167 335 168 336 168 5 168 5 169 336 169 7 169 336 170 337 170 7 170 7 171 337 171 9 171 337 172 338 172 9 172 9 173 338 173 11 173 338 174 339 174 11 174 11 175 339 175 13 175 339 176 340 176 13 176 13 177 340 177 15 177 340 178 341 178 15 178 15 179 341 179 17 179 341 180 342 180 17 180 17 181 342 181 19 181 342 182 343 182 19 182 19 183 343 183 21 183 343 184 344 184 21 184 21 185 344 185 23 185 344 186 345 186 23 186 23 186 345 186 25 186 345 187 346 187 25 187 25 188 346 188 27 188 346 189 347 189 27 189 27 190 347 190 29 190 347 191 348 191 29 191 29 192 348 192 31 192 348 193 349 193 31 193 31 194 349 194 33 194 349 195 350 195 33 195 33 196 350 196 35 196 350 197 351 197 35 197 35 198 351 198 37 198 351 199 352 199 37 199 37 200 352 200 39 200 38 201 353 201 36 201 353 202 354 202 36 202 36 203 354 203 34 203 354 204 355 204 34 204 34 205 355 205 32 205 355 206 356 206 32 206 32 207 356 207 30 207 356 208 357 208 30 208 30 56 357 56 28 56 357 209 358 209 28 209 28 210 358 210 26 210 358 211 359 211 26 211 26 212 359 212 24 212 359 213 360 213 24 213 24 50 360 50 22 50 360 50 361 50 22 50 22 214 361 214 20 214 361 215 362 215 20 215 20 216 362 216 18 216 362 45 363 45 18 45 18 217 363 217 16 217 363 218 364 218 16 218 16 219 364 219 14 219 364 219 365 219 14 219 14 220 365 220 12 220 365 220 366 220 12 220 12 39 366 39 10 39 366 221 367 221 10 221 10 222 367 222 8 222 367 223 368 223 8 223 8 35 368 35 6 35 368 34 369 34 6 34 6 224 369 224 4 224 369 225 370 225 4 225 4 226 370 226 2 226 370 227 371 227 2 227 2 228 371 228 0 228 371 228 372 228 0 228 373 229 262 229 374 229 262 230 261 230 374 230 374 231 261 231 375 231 261 232 260 232 375 232 375 233 260 233 376 233 260 234 259 234 376 234 376 235 259 235 377 235 259 236 258 236 377 236 377 237 258 237 378 237 258 237 257 237 378 237 378 238 257 238 379 238 257 239 218 239 379 239 379 240 218 240 380 240 218 241 217 241 380 241 380 242 217 242 381 242 217 243 216 243 381 243 381 244 216 244 382 244 216 245 215 245 382 245 382 246 215 246 383 246 215 247 214 247 383 247 383 248 214 248 384 248 214 249 213 249 384 249 384 250 213 250 385 250 213 251 212 251 385 251 385 252 212 252 386 252 212 252 211 252 386 252 386 253 211 253 387 253 211 254 209 254 387 254 387 255 209 255 388 255 209 256 208 256 388 256 388 257 208 257 389 257 208 258 203 258 389 258 389 259 203 259 390 259 203 260 252 260 390 260 390 261 252 261 391 261 252 262 251 262 391 262 391 263 251 263 392 263 251 264 249 264 392 264 392 265 249 265 393 265 249 266 207 266 393 266 393 267 207 267 394 267 207 267 237 267 394 267 394 268 237 268 395 268 237 269 197 269 395 269 395 270 197 270 396 270 197 271 199 271 396 271 396 272 199 272 397 272 199 272 200 272 397 272 397 273 200 273 398 273 200 273 315 273 398 273 398 274 315 274 399 274 315 275 314 275 399 275 399 276 314 276 400 276 314 276 313 276 400 276 400 277 313 277 401 277 313 278 241 278 401 278 401 279 241 279 402 279 241 280 240 280 402 280 402 281 240 281 403 281 240 282 312 282 403 282 403 283 312 283 404 283 312 284 311 284 404 284 404 285 311 285 405 285 311 286 308 286 405 286 405 287 308 287 406 287 308 287 307 287 406 287 406 288 307 288 407 288 307 289 306 289 407 289 407 290 306 290 408 290 306 291 303 291 408 291 408 292 303 292 409 292 303 293 304 293 409 293 409 294 304 294 410 294 304 295 305 295 410 295 410 296 305 296 411 296 305 297 302 297 411 297 411 298 302 298 412 298 302 299 301 299 412 299 412 300 301 300 413 300 301 300 300 300 413 300 413 301 300 301 414 301 300 302 292 302 414 302 414 303 292 303 415 303 292 304 291 304 415 304 415 305 291 305 416 305 291 306 290 306 416 306 416 307 290 307 417 307 290 308 289 308 417 308 417 309 289 309 418 309 289 310 288 310 418 310 418 311 288 311 419 311 288 311 287 311 419 311 419 312 287 312 420 312 287 313 286 313 420 313 420 314 286 314 421 314 286 314 285 314 421 314 421 315 285 315 422 315 285 316 284 316 422 316 422 317 284 317 423 317 284 318 270 318 423 318 423 319 270 319 424 319 270 320 269 320 424 320 424 321 269 321 425 321 269 321 268 321 425 321 425 322 268 322 426 322 268 323 177 323 426 323 426 324 177 324 427 324 177 325 176 325 427 325 427 326 176 326 428 326 176 327 196 327 428 327 428 328 196 328 429 328 196 329 195 329 429 329 429 330 195 330 430 330 195 331 194 331 430 331 430 332 194 332 431 332 194 333 193 333 431 333 431 334 193 334 432 334 193 335 192 335 432 335 432 336 192 336 433 336 192 337 191 337 433 337 433 338 191 338 434 338 191 339 190 339 434 339 434 340 190 340 435 340 190 341 188 341 435 341 435 342 188 342 436 342 188 343 187 343 436 343 436 344 187 344 437 344 187 345 224 345 437 345 437 346 224 346 438 346 224 347 223 347 438 347 438 348 223 348 439 348 223 349 222 349 439 349 439 350 222 350 440 350 222 351 279 351 440 351 440 352 279 352 441 352 279 352 278 352 441 352 441 353 278 353 442 353 278 354 267 354 442 354 442 355 267 355 443 355 267 356 266 356 443 356 443 357 266 357 444 357 266 358 265 358 444 358 444 359 265 359 373 359 265 360 262 360 373 360 445 229 256 229 446 229 256 230 221 230 446 230 446 361 221 361 447 361 221 362 220 362 447 362 447 363 220 363 448 363 220 364 219 364 448 364 448 235 219 235 449 235 219 236 264 236 449 236 449 237 264 237 450 237 264 237 263 237 450 237 450 238 263 238 451 238 263 239 186 239 451 239 451 240 186 240 452 240 186 241 185 241 452 241 452 365 185 365 453 365 185 366 184 366 453 366 453 367 184 367 454 367 184 368 183 368 454 368 454 246 183 246 455 246 183 247 182 247 455 247 455 248 182 248 456 248 182 249 181 249 456 249 456 250 181 250 457 250 181 251 180 251 457 251 457 369 180 369 458 369 180 370 179 370 458 370 458 371 179 371 459 371 179 372 178 372 459 372 459 255 178 255 460 255 178 256 175 256 460 256 460 373 175 373 461 373 175 374 174 374 461 374 461 375 174 375 462 375 174 376 173 376 462 376 462 261 173 261 463 261 173 262 172 262 463 262 463 263 172 263 464 263 172 264 171 264 464 264 464 377 171 377 465 377 171 378 230 378 465 378 465 379 230 379 466 379 230 380 229 380 466 380 466 268 229 268 467 268 229 269 228 269 467 269 467 381 228 381 468 381 228 382 227 382 468 382 468 383 227 383 469 383 227 384 226 384 469 384 469 273 226 273 470 273 226 273 225 273 470 273 470 274 225 274 471 274 225 275 272 275 471 275 471 276 272 276 472 276 272 276 271 276 472 276 472 385 271 385 473 385 271 386 243 386 473 386 473 387 243 387 474 387 243 388 242 388 474 388 474 281 242 281 475 281 242 282 299 282 475 282 475 283 299 283 476 283 299 284 298 284 476 284 476 285 298 285 477 285 298 286 295 286 477 286 477 287 295 287 478 287 295 287 294 287 478 287 478 389 294 389 479 389 294 390 293 390 479 390 479 391 293 391 480 391 293 392 310 392 480 392 480 292 310 292 481 292 310 293 309 293 481 293 481 294 309 294 482 294 309 295 198 295 482 295 482 296 198 296 483 296 198 297 238 297 483 297 483 298 238 298 484 298 238 299 239 299 484 299 484 300 239 300 485 300 239 300 283 300 485 300 485 301 283 301 486 301 283 302 282 302 486 302 486 303 282 303 487 303 282 304 206 304 487 304 487 305 206 305 488 305 206 306 205 306 488 306 488 393 205 393 489 393 205 394 277 394 489 394 489 395 277 395 490 395 277 396 276 396 490 396 490 311 276 311 491 311 276 311 275 311 491 311 491 312 275 312 492 312 275 313 274 313 492 313 492 314 274 314 493 314 274 314 273 314 493 314 493 397 273 397 494 397 273 397 255 397 494 397 494 317 255 317 495 317 255 318 254 318 495 318 495 319 254 319 496 319 254 320 253 320 496 320 496 398 253 398 497 398 253 399 247 399 497 399 497 322 247 322 498 322 247 323 248 323 498 323 498 324 248 324 499 324 248 325 250 325 499 325 499 326 250 326 500 326 250 327 204 327 500 327 500 328 204 328 501 328 204 329 202 329 501 329 501 400 202 400 502 400 202 401 201 401 502 401 502 332 201 332 503 332 201 333 236 333 503 333 503 334 236 334 504 334 236 335 235 335 504 335 504 402 235 402 505 402 235 402 234 402 505 402 505 338 234 338 506 338 234 339 233 339 506 339 506 340 233 340 507 340 233 341 232 341 507 341 507 342 232 342 508 342 232 343 231 343 508 343 508 403 231 403 509 403 231 404 246 404 509 404 509 405 246 405 510 405 246 406 245 406 510 406 510 348 245 348 511 348 245 349 244 349 511 349 511 350 244 350 512 350 244 351 297 351 512 351 512 352 297 352 513 352 297 352 296 352 513 352 513 353 296 353 514 353 296 354 281 354 514 354 514 355 281 355 515 355 281 356 280 356 515 356 515 357 280 357 516 357 280 358 210 358 516 358 516 359 210 359 445 359 210 360 256 360 445 360 517 229 518 229 519 229 518 230 520 230 519 230 519 407 520 407 521 407 520 408 522 408 521 408 521 363 522 363 523 363 522 409 524 409 523 409 523 235 524 235 525 235 524 236 526 236 525 236 525 237 526 237 527 237 526 410 528 410 527 410 527 411 528 411 529 411 528 239 530 239 529 239 529 412 530 412 531 412 530 413 532 413 531 413 531 414 532 414 533 414 532 415 534 415 533 415 533 368 534 368 535 368 534 367 536 367 535 367 535 246 536 246 537 246 536 247 538 247 537 247 537 248 538 248 539 248 538 416 540 416 539 416 539 250 540 250 541 250 540 251 542 251 541 251 541 370 542 370 543 370 542 369 544 369 543 369 543 417 544 417 545 417 544 418 546 418 545 418 545 419 546 419 547 419 546 420 548 420 547 420 547 421 548 421 549 421 548 422 550 422 549 422 549 376 550 376 551 376 550 375 552 375 551 375 551 261 552 261 553 261 552 261 554 261 553 261 553 263 554 263 555 263 554 423 556 423 555 423 555 424 556 424 557 424 556 425 558 425 557 425 557 380 558 380 559 380 558 379 560 379 559 379 559 269 560 269 561 269 560 268 562 268 561 268 561 426 562 426 563 426 562 427 564 427 563 427 563 384 564 384 565 384 564 383 566 383 565 383 565 273 566 273 567 273 566 273 568 273 567 273 567 274 568 274 569 274 568 428 570 428 569 428 569 276 570 276 571 276 570 276 572 276 571 276 571 429 572 429 573 429 572 430 574 430 573 430 573 431 574 431 575 431 574 432 576 432 575 432 575 282 576 282 577 282 576 281 578 281 577 281 577 433 578 433 579 433 578 284 580 284 579 284 579 285 580 285 581 285 580 434 582 434 581 434 581 287 582 287 583 287 582 287 584 287 583 287 583 389 584 389 585 389 584 435 586 435 585 435 585 436 586 436 587 436 586 437 588 437 587 437 587 292 588 292 589 292 588 293 590 293 589 293 589 294 590 294 591 294 590 295 592 295 591 295 591 438 592 438 593 438 592 439 594 439 593 439 593 298 594 298 595 298 594 440 596 440 595 440 595 300 596 300 597 300 596 300 598 300 597 300 597 301 598 301 599 301 598 441 600 441 599 441 599 442 600 442 601 442 600 304 602 304 601 304 601 306 602 306 603 306 602 305 604 305 603 305 603 443 604 443 605 443 604 394 606 394 605 394 605 444 606 444 607 444 606 445 608 445 607 445 607 311 608 311 609 311 608 311 610 311 609 311 609 312 610 312 611 312 610 446 612 446 611 446 611 314 612 314 613 314 612 314 614 314 613 314 613 447 614 447 615 447 614 448 616 448 615 448 615 449 616 449 617 449 616 450 618 450 617 450 617 320 618 320 619 320 618 319 620 319 619 319 619 399 620 399 621 399 620 398 622 398 621 398 621 451 622 451 623 451 622 452 624 452 623 452 623 324 624 324 625 324 624 453 626 453 625 453 625 326 626 326 627 326 626 326 628 326 627 326 627 329 628 329 629 329 628 328 630 328 629 328 629 454 630 454 631 454 630 455 632 455 631 455 631 456 632 456 633 456 632 457 634 457 633 457 633 458 634 458 635 458 634 459 636 459 635 459 635 460 636 460 637 460 636 461 638 461 637 461 637 338 638 338 639 338 638 339 640 339 639 339 639 340 640 340 641 340 640 462 642 462 641 462 641 342 642 342 643 342 642 343 644 343 643 343 643 463 644 463 645 463 644 403 646 403 645 403 645 464 646 464 647 464 646 406 648 406 647 406 647 465 648 465 649 465 648 466 650 466 649 466 649 467 650 467 651 467 650 351 652 351 651 351 651 352 652 352 653 352 652 468 654 468 653 468 653 353 654 353 655 353 654 354 656 354 655 354 655 355 656 355 657 355 656 469 658 469 657 469 657 470 658 470 659 470 658 471 660 471 659 471 659 359 660 359 517 359 660 360 518 360 517 360 661 229 662 229 663 229 662 230 664 230 663 230 663 472 664 472 665 472 664 232 666 232 665 232 665 473 666 473 667 473 666 474 668 474 667 474 667 235 668 235 669 235 668 236 670 236 669 236 669 237 670 237 671 237 670 410 672 410 671 410 671 411 672 411 673 411 672 239 674 239 673 239 673 412 674 412 675 412 674 413 676 413 675 413 675 475 676 475 677 475 676 243 678 243 677 243 677 476 678 476 679 476 678 244 680 244 679 244 679 246 680 246 681 246 680 247 682 247 681 247 681 248 682 248 683 248 682 416 684 416 683 416 683 250 684 250 685 250 684 251 686 251 685 251 685 477 686 477 687 477 686 478 688 478 687 478 687 479 688 479 689 479 688 480 690 480 689 480 689 419 690 419 691 419 690 420 692 420 691 420 691 481 692 481 693 481 692 258 694 258 693 258 693 260 694 260 695 260 694 259 696 259 695 259 695 261 696 261 697 261 696 261 698 261 697 261 697 263 698 263 699 263 698 423 700 423 699 423 699 482 700 482 701 482 700 483 702 483 701 483 701 484 702 484 703 484 702 267 704 267 703 267 703 269 704 269 705 269 704 268 706 268 705 268 705 485 706 485 707 485 706 486 708 486 707 486 707 487 708 487 709 487 708 488 710 488 709 488 709 273 710 273 711 273 710 273 712 273 711 273 711 274 712 274 713 274 712 428 714 428 713 428 713 276 714 276 715 276 714 276 716 276 715 276 715 489 716 489 717 489 716 490 718 490 717 490 717 491 718 491 719 491 718 280 720 280 719 280 719 282 720 282 721 282 720 281 722 281 721 281 721 433 722 433 723 433 722 284 724 284 723 284 723 285 724 285 725 285 724 434 726 434 725 434 725 287 726 287 727 287 726 287 728 287 727 287 727 492 728 492 729 492 728 493 730 493 729 493 729 494 730 494 731 494 730 291 732 291 731 291 731 292 732 292 733 292 732 293 734 293 733 293 733 294 734 294 735 294 734 295 736 295 735 295 735 438 736 438 737 438 736 439 738 439 737 439 737 298 738 298 739 298 738 440 740 440 739 440 739 300 740 300 741 300 740 300 742 300 741 300 741 301 742 301 743 301 742 441 744 441 743 441 743 442 744 442 745 442 744 304 746 304 745 304 745 306 746 306 747 306 746 305 748 305 747 305 747 495 748 495 749 495 748 496 750 496 749 496 749 497 750 497 751 497 750 498 752 498 751 498 751 311 752 311 753 311 752 311 754 311 753 311 753 312 754 312 755 312 754 446 756 446 755 446 755 314 756 314 757 314 756 314 758 314 757 314 757 316 758 316 759 316 758 315 760 315 759 315 759 449 760 449 761 449 760 450 762 450 761 450 761 320 762 320 763 320 762 319 764 319 763 319 763 499 764 499 765 499 764 321 766 321 765 321 765 451 766 451 767 451 766 452 768 452 767 452 767 324 768 324 769 324 768 453 770 453 769 453 769 326 770 326 771 326 770 326 772 326 771 326 771 329 772 329 773 329 772 328 774 328 773 328 773 500 774 500 775 500 774 331 776 331 775 331 775 456 776 456 777 456 776 457 778 457 777 457 777 458 778 458 779 458 778 459 780 459 779 459 779 337 780 337 781 337 780 336 782 336 781 336 781 338 782 338 783 338 782 339 784 339 783 339 783 340 784 340 785 340 784 462 786 462 785 462 785 342 786 342 787 342 786 343 788 343 787 343 787 345 788 345 789 345 788 344 790 344 789 344 789 501 790 501 791 501 790 502 792 502 791 502 791 465 792 465 793 465 792 466 794 466 793 466 793 467 794 467 795 467 794 351 796 351 795 351 795 352 796 352 797 352 796 468 798 468 797 468 797 353 798 353 799 353 798 354 800 354 799 354 799 355 800 355 801 355 800 469 802 469 801 469 801 470 802 470 803 470 802 471 804 471 803 471 803 359 804 359 661 359 804 360 662 360 661 360 556 66 554 66 40 66 40 66 554 66 38 66 554 66 552 66 38 66 552 68 550 68 38 68 38 503 550 503 548 503 805 504 770 504 768 504 548 505 546 505 38 505 546 66 544 66 38 66 38 506 544 506 542 506 542 66 540 66 38 66 540 507 538 507 38 507 38 508 538 508 536 508 536 66 534 66 38 66 534 66 532 66 38 66 38 509 532 509 530 509 788 66 786 66 353 66 786 66 784 66 353 66 784 66 782 66 353 66 782 66 780 66 353 66 353 510 780 510 778 510 778 66 776 66 353 66 776 66 774 66 353 66 353 66 774 66 805 66 774 66 772 66 805 66 805 511 772 511 770 511 706 66 592 66 708 66 592 512 710 512 708 512 632 66 630 66 694 66 630 66 628 66 694 66 604 513 602 513 702 513 692 66 690 66 660 66 690 66 688 66 660 66 686 66 684 66 38 66 684 66 682 66 38 66 38 514 682 514 680 514 680 66 678 66 38 66 678 515 676 515 38 515 38 516 676 516 674 516 524 517 522 517 38 517 522 518 520 518 38 518 794 519 792 519 353 519 792 66 790 66 353 66 353 520 790 520 788 520 568 66 566 66 40 66 566 66 564 66 40 66 40 521 564 521 562 521 562 522 560 522 40 522 560 66 558 66 40 66 40 523 558 523 556 523 644 66 642 66 694 66 642 66 640 66 694 66 694 524 640 524 638 524 638 90 636 90 694 90 636 66 634 66 694 66 694 525 634 525 632 525 706 66 704 66 592 66 704 66 702 66 592 66 592 66 702 66 594 66 702 526 596 526 594 526 720 527 718 527 40 527 576 66 574 66 40 66 650 528 648 528 694 528 648 66 646 66 694 66 694 529 646 529 644 529 622 66 702 66 624 66 702 530 700 530 624 530 624 531 700 531 626 531 700 66 698 66 626 66 626 66 698 66 628 66 698 532 696 532 628 532 628 533 696 533 694 533 622 66 620 66 702 66 620 66 618 66 702 66 702 534 618 534 616 534 520 66 518 66 38 66 518 66 660 66 38 66 38 535 660 535 686 535 660 536 688 536 686 536 674 66 672 66 38 66 672 66 670 66 38 66 38 537 670 537 668 537 668 66 666 66 38 66 666 66 664 66 38 66 38 66 664 66 353 66 664 538 662 538 353 538 530 539 528 539 38 539 528 540 526 540 38 540 38 541 526 541 524 541 662 66 804 66 353 66 804 66 802 66 353 66 353 542 802 542 800 542 768 66 766 66 805 66 766 66 764 66 805 66 805 543 764 543 762 543 574 66 572 66 40 66 572 544 570 544 40 544 40 545 570 545 568 545 616 107 614 107 702 107 614 66 612 66 702 66 702 546 612 546 610 546 610 66 608 66 702 66 608 66 606 66 702 66 702 547 606 547 604 547 800 66 798 66 353 66 798 66 796 66 353 66 353 548 796 548 794 548 692 66 660 66 694 66 660 66 658 66 694 66 694 549 658 549 656 549 602 66 600 66 702 66 600 66 598 66 702 66 702 550 598 550 596 550 762 66 760 66 805 66 760 66 758 66 805 66 805 551 758 551 756 551 756 66 754 66 805 66 754 66 752 66 805 66 805 552 752 552 750 552 750 66 748 66 805 66 748 553 746 553 805 553 805 554 746 554 744 554 586 555 584 555 40 555 584 556 582 556 40 556 656 557 654 557 694 557 654 66 652 66 694 66 694 558 652 558 650 558 582 559 580 559 40 559 580 560 578 560 40 560 40 561 578 561 576 561 744 66 742 66 805 66 742 66 740 66 805 66 805 562 740 562 738 562 732 66 40 66 734 66 40 563 805 563 734 563 734 66 805 66 736 66 805 564 738 564 736 564 732 66 730 66 40 66 730 66 728 66 40 66 40 565 728 565 726 565 592 66 590 66 40 66 590 66 588 66 40 66 40 566 588 566 586 566 726 66 724 66 40 66 724 66 722 66 40 66 40 567 722 567 720 567 718 66 716 66 40 66 716 66 714 66 40 66 40 568 714 568 592 568 714 569 712 569 592 569 592 570 712 570 710 570 76 571 806 571 74 571 806 572 807 572 74 572 74 573 807 573 72 573 807 574 808 574 72 574 72 160 808 160 70 160 808 159 809 159 70 159 70 575 809 575 68 575 809 576 810 576 68 576 68 577 810 577 66 577 810 155 811 155 66 155 66 578 811 578 64 578 811 578 812 578 64 578 64 579 812 579 62 579 812 579 813 579 62 579 62 580 813 580 60 580 813 581 814 581 60 581 60 149 814 149 58 149 814 582 815 582 58 582 58 583 815 583 56 583 815 584 816 584 56 584 56 144 816 144 54 144 816 144 817 144 54 144 54 585 817 585 52 585 817 586 818 586 52 586 52 587 818 587 50 587 818 588 819 588 50 588 50 589 819 589 48 589 819 138 820 138 48 138 48 590 820 590 46 590 820 591 821 591 46 591 46 592 821 592 44 592 821 593 822 593 44 593 44 594 822 594 42 594 822 595 823 595 42 595 42 596 823 596 40 596 823 597 805 597 40 597 78 165 824 165 76 165 824 165 806 165 76 165 114 598 825 598 112 598 825 599 826 599 112 599 112 600 826 600 110 600 826 601 827 601 110 601 110 602 827 602 108 602 827 603 828 603 108 603 108 604 828 604 106 604 828 605 829 605 106 605 106 192 829 192 104 192 829 191 830 191 104 191 104 606 830 606 102 606 830 607 831 607 102 607 102 608 831 608 100 608 831 609 832 609 100 609 100 610 832 610 98 610 832 186 833 186 98 186 98 611 833 611 96 611 833 612 834 612 96 612 96 613 834 613 94 613 834 614 835 614 94 614 94 615 835 615 92 615 835 616 836 616 92 616 92 179 836 179 90 179 836 179 837 179 90 179 90 617 837 617 88 617 837 617 838 617 88 617 88 618 838 618 86 618 838 174 839 174 86 174 86 619 839 619 84 619 839 620 840 620 84 620 84 171 840 171 82 171 840 170 841 170 82 170 82 621 841 621 80 621 841 622 842 622 80 622 80 623 842 623 78 623 842 624 824 624 78 624 515 625 516 625 389 625 466 625 467 625 114 625 460 625 461 625 116 625 394 625 395 625 482 625 467 626 468 626 114 626 468 627 469 627 114 627 114 628 469 628 470 628 463 629 464 629 114 629 464 625 465 625 114 625 114 630 465 630 466 630 395 625 396 625 482 625 396 625 397 625 482 625 482 631 397 631 398 631 470 625 471 625 114 625 471 632 472 632 114 632 114 633 472 633 473 633 116 625 461 625 114 625 461 625 462 625 114 625 114 634 462 634 463 634 494 625 495 625 393 625 398 625 399 625 482 625 399 635 400 635 482 635 482 625 400 625 481 625 402 625 403 625 114 625 473 636 474 636 114 636 474 625 475 625 114 625 114 637 475 637 476 637 481 625 114 625 480 625 114 638 479 638 480 638 825 639 415 639 416 639 422 625 423 625 825 625 423 625 424 625 825 625 825 640 424 640 425 640 843 641 429 641 430 641 393 642 487 642 488 642 495 625 496 625 393 625 496 625 497 625 393 625 393 643 497 643 498 643 389 644 501 644 502 644 481 625 400 625 114 625 400 625 401 625 114 625 114 645 401 645 402 645 476 646 477 646 114 646 477 625 478 625 114 625 114 647 478 647 479 647 425 625 426 625 825 625 426 625 427 625 825 625 825 625 427 625 843 625 427 625 428 625 843 625 843 648 428 648 429 648 403 625 404 625 114 625 404 625 405 625 114 625 114 649 405 649 406 649 406 650 407 650 114 650 407 625 408 625 114 625 114 625 408 625 825 625 408 625 409 625 825 625 409 651 410 651 825 651 410 625 411 625 825 625 825 652 411 652 412 652 416 625 417 625 825 625 417 625 418 625 825 625 825 653 418 653 419 653 419 625 420 625 825 625 420 654 421 654 825 654 825 655 421 655 422 655 430 625 431 625 843 625 431 625 432 625 843 625 843 656 432 656 433 656 394 625 482 625 393 625 482 625 483 625 393 625 393 657 483 657 484 657 488 625 489 625 393 625 489 658 490 658 393 658 393 659 490 659 491 659 491 660 492 660 393 660 492 625 493 625 393 625 393 625 493 625 494 625 501 625 389 625 500 625 389 661 390 661 500 661 500 662 390 662 499 662 390 625 391 625 499 625 499 625 391 625 498 625 391 663 392 663 498 663 498 664 392 664 393 664 502 625 503 625 389 625 503 625 504 625 389 625 389 625 504 625 505 625 505 625 506 625 389 625 506 665 507 665 389 665 389 666 507 666 508 666 412 625 413 625 825 625 413 625 414 625 825 625 825 667 414 667 415 667 433 668 434 668 843 668 434 625 435 625 843 625 843 669 435 669 436 669 484 670 485 670 393 670 485 625 486 625 393 625 393 671 486 671 487 671 508 672 509 672 389 672 509 625 510 625 389 625 389 673 510 673 511 673 515 674 389 674 514 674 380 625 381 625 116 625 381 625 382 625 116 625 436 625 437 625 843 625 437 625 438 625 843 625 843 675 438 675 439 675 450 625 451 625 116 625 454 676 455 676 116 676 455 625 456 625 116 625 116 677 456 677 457 677 457 678 458 678 116 678 458 679 459 679 116 679 116 680 459 680 460 680 382 625 383 625 116 625 383 625 384 625 116 625 116 681 384 681 385 681 451 625 452 625 116 625 452 682 453 682 116 682 116 683 453 683 454 683 511 625 512 625 389 625 512 625 513 625 389 625 389 684 513 684 514 684 439 685 440 685 843 685 440 625 441 625 843 625 843 686 441 686 442 686 374 625 375 625 116 625 375 687 376 687 116 687 116 688 376 688 377 688 447 689 448 689 116 689 448 625 449 625 116 625 116 690 449 690 450 690 442 625 443 625 843 625 443 625 444 625 843 625 843 625 444 625 116 625 444 691 373 691 116 691 116 692 373 692 374 692 377 625 378 625 116 625 378 625 379 625 116 625 116 693 379 693 380 693 516 694 445 694 116 694 445 625 446 625 116 625 116 695 446 695 447 695 385 625 386 625 116 625 386 625 387 625 116 625 116 696 387 696 516 696 387 625 388 625 516 625 516 697 388 697 389 697 0 698 372 698 150 698 372 699 844 699 150 699 150 700 844 700 148 700 844 701 845 701 148 701 148 702 845 702 146 702 845 703 846 703 146 703 146 704 846 704 144 704 846 705 847 705 144 705 144 706 847 706 142 706 847 707 848 707 142 707 142 708 848 708 140 708 848 708 849 708 140 708 140 709 849 709 138 709 849 709 850 709 138 709 138 710 850 710 136 710 850 711 851 711 136 711 136 712 851 712 134 712 851 713 852 713 134 713 134 714 852 714 132 714 852 715 853 715 132 715 132 716 853 716 130 716 853 717 854 717 130 717 130 718 854 718 128 718 854 719 855 719 128 719 128 720 855 720 126 720 855 721 856 721 126 721 126 722 856 722 124 722 856 723 857 723 124 723 124 724 857 724 122 724 857 725 858 725 122 725 122 726 858 726 120 726 858 727 859 727 120 727 120 728 859 728 118 728 859 729 860 729 118 729 118 730 860 730 116 730 860 731 843 731 116 731 824 732 152 732 806 732 152 732 861 732 806 732 806 733 861 733 807 733 861 732 862 732 807 732 807 732 862 732 808 732 862 732 863 732 808 732 808 734 863 734 809 734 863 732 864 732 809 732 809 732 864 732 810 732 864 732 865 732 810 732 810 732 865 732 811 732 865 732 866 732 811 732 811 732 866 732 812 732 866 735 867 735 812 735 812 732 867 732 813 732 867 736 868 736 813 736 813 732 868 732 814 732 868 732 869 732 814 732 814 732 869 732 815 732 869 732 870 732 815 732 815 732 870 732 816 732 870 732 871 732 816 732 816 732 871 732 817 732 871 732 872 732 817 732 817 737 872 737 818 737 872 732 873 732 818 732 818 732 873 732 819 732 873 732 874 732 819 732 819 732 874 732 820 732 874 738 875 738 820 738 820 732 875 732 821 732 875 732 876 732 821 732 821 732 876 732 822 732 876 732 877 732 822 732 822 732 877 732 823 732 877 732 878 732 823 732 823 732 878 732 805 732 878 732 879 732 805 732 805 732 879 732 353 732 879 732 352 732 353 732 353 732 352 732 354 732 352 739 351 739 354 739 354 740 351 740 355 740 351 741 350 741 355 741 355 742 350 742 356 742 350 732 349 732 356 732 356 732 349 732 357 732 349 743 348 743 357 743 357 732 348 732 358 732 348 732 347 732 358 732 358 732 347 732 359 732 347 732 346 732 359 732 359 732 346 732 360 732 346 732 345 732 360 732 360 732 345 732 361 732 345 732 344 732 361 732 361 732 344 732 362 732 344 732 343 732 362 732 362 732 343 732 363 732 343 732 342 732 363 732 363 732 342 732 364 732 342 732 341 732 364 732 364 744 341 744 365 744 341 732 340 732 365 732 365 732 340 732 366 732 340 732 339 732 366 732 366 732 339 732 367 732 339 732 338 732 367 732 367 732 338 732 368 732 338 732 337 732 368 732 368 732 337 732 369 732 337 737 336 737 369 737 369 745 336 745 370 745 336 746 335 746 370 746 370 747 335 747 371 747 335 732 334 732 371 732 371 732 334 732 372 732 334 732 333 732 372 732 372 748 333 748 844 748 333 732 332 732 844 732 844 732 332 732 845 732 332 732 331 732 845 732 845 749 331 749 846 749 331 732 330 732 846 732 846 732 330 732 847 732 330 732 329 732 847 732 847 732 329 732 848 732 329 732 328 732 848 732 848 732 328 732 849 732 328 750 327 750 849 750 849 732 327 732 850 732 327 751 326 751 850 751 850 732 326 732 851 732 326 732 325 732 851 732 851 732 325 732 852 732 325 732 324 732 852 732 852 732 324 732 853 732 324 732 323 732 853 732 853 732 323 732 854 732 323 732 322 732 854 732 854 752 322 752 855 752 322 732 321 732 855 732 855 732 321 732 856 732 321 732 320 732 856 732 856 732 320 732 857 732 320 753 319 753 857 753 857 732 319 732 858 732 319 732 318 732 858 732 858 732 318 732 859 732 318 732 317 732 859 732 859 732 317 732 860 732 317 732 316 732 860 732 860 732 316 732 843 732 316 732 189 732 843 732 843 732 189 732 825 732 189 732 170 732 825 732 825 732 170 732 826 732 170 754 169 754 826 754 826 755 169 755 827 755 169 756 168 756 827 756 827 757 168 757 828 757 168 732 167 732 828 732 828 732 167 732 829 732 167 738 166 738 829 738 829 732 166 732 830 732 166 732 165 732 830 732 830 732 165 732 831 732 165 732 164 732 831 732 831 732 164 732 832 732 164 732 163 732 832 732 832 732 163 732 833 732 163 732 162 732 833 732 833 732 162 732 834 732 162 732 161 732 834 732 834 732 161 732 835 732 161 732 160 732 835 732 835 732 160 732 836 732 160 732 159 732 836 732 836 758 159 758 837 758 159 732 158 732 837 732 837 732 158 732 838 732 158 732 157 732 838 732 838 732 157 732 839 732 157 732 156 732 839 732 839 732 156 732 840 732 156 732 155 732 840 732 840 732 155 732 841 732 155 758 154 758 841 758 841 759 154 759 842 759 154 760 153 760 842 760 842 748 153 748 824 748 153 732 152 732 824 732 861 228 152 228 77 228 152 228 79 228 77 228 41 761 879 761 878 761 41 762 878 762 43 762 878 763 877 763 43 763 43 764 877 764 45 764 877 765 876 765 45 765 45 766 876 766 47 766 876 767 875 767 47 767 47 768 875 768 49 768 875 723 874 723 49 723 49 722 874 722 51 722 874 769 873 769 51 769 51 770 873 770 53 770 873 771 872 771 53 771 53 772 872 772 55 772 872 716 871 716 55 716 55 716 871 716 57 716 871 773 870 773 57 773 57 774 870 774 59 774 870 775 869 775 59 775 59 776 869 776 61 776 869 777 868 777 61 777 61 778 868 778 63 778 868 709 867 709 63 709 63 779 867 779 65 779 867 780 866 780 65 780 65 781 866 781 67 781 866 782 865 782 67 782 67 706 865 706 69 706 865 783 864 783 69 783 69 784 864 784 71 784 864 703 863 703 71 703 71 702 863 702 73 702 863 785 862 785 73 785 73 786 862 786 75 786 862 787 861 787 75 787 75 788 861 788 77 788 657 625 659 625 693 625 559 789 561 789 41 789 547 790 549 790 39 790 703 791 705 791 591 791 561 626 563 626 41 626 563 625 565 625 41 625 41 792 565 792 567 792 553 625 555 625 41 625 555 625 557 625 41 625 41 793 557 793 559 793 705 625 707 625 591 625 707 625 709 625 591 625 591 794 709 794 711 794 567 625 569 625 41 625 569 625 571 625 41 625 41 795 571 795 573 795 39 625 549 625 41 625 549 625 551 625 41 625 41 796 551 796 553 796 615 625 617 625 701 625 711 797 713 797 591 797 713 798 715 798 591 798 591 625 715 625 589 625 719 625 721 625 41 625 573 625 575 625 41 625 575 625 577 625 41 625 41 799 577 799 579 799 589 625 41 625 587 625 41 800 585 800 587 800 879 625 745 625 747 625 759 801 761 801 879 801 761 802 763 802 879 802 879 803 763 803 765 803 352 804 773 804 775 804 701 625 601 625 603 625 617 625 619 625 701 625 619 625 621 625 701 625 701 805 621 805 623 805 693 806 629 806 631 806 589 625 715 625 41 625 715 625 717 625 41 625 41 807 717 807 719 807 579 625 581 625 41 625 581 625 583 625 41 625 41 808 583 808 585 808 765 625 767 625 879 625 767 625 769 625 879 625 879 625 769 625 352 625 769 625 771 625 352 625 352 809 771 809 773 809 721 625 723 625 41 625 723 625 725 625 41 625 41 810 725 810 727 810 727 625 729 625 41 625 729 625 731 625 41 625 41 811 731 811 879 811 731 625 733 625 879 625 733 625 735 625 879 625 735 625 737 625 879 625 879 812 737 812 739 812 747 625 749 625 879 625 749 625 751 625 879 625 879 813 751 813 753 813 753 625 755 625 879 625 755 625 757 625 879 625 879 814 757 814 759 814 775 815 777 815 352 815 777 816 779 816 352 816 352 817 779 817 781 817 703 625 591 625 701 625 591 625 593 625 701 625 701 818 593 818 595 818 603 625 605 625 701 625 605 625 607 625 701 625 701 819 607 819 609 819 609 820 611 820 701 820 611 821 613 821 701 821 701 822 613 822 615 822 629 625 693 625 627 625 693 625 695 625 627 625 627 625 695 625 625 625 695 625 697 625 625 625 625 625 697 625 623 625 697 625 699 625 623 625 623 823 699 823 701 823 631 625 633 625 693 625 633 625 635 625 693 625 693 824 635 824 637 824 637 825 639 825 693 825 639 826 641 826 693 826 693 827 641 827 643 827 739 625 741 625 879 625 741 625 743 625 879 625 879 828 743 828 745 828 781 625 783 625 352 625 783 625 785 625 352 625 352 829 785 829 787 829 595 625 597 625 701 625 597 625 599 625 701 625 701 830 599 830 601 830 643 625 645 625 693 625 645 625 647 625 693 625 693 625 647 625 649 625 657 625 693 625 655 625 675 625 677 625 39 625 677 625 679 625 39 625 787 625 789 625 352 625 789 625 791 625 352 625 352 625 791 625 793 625 527 625 529 625 39 625 535 625 537 625 39 625 537 625 539 625 39 625 39 831 539 831 541 831 541 625 543 625 39 625 543 679 545 679 39 679 39 832 545 832 547 832 679 625 681 625 39 625 681 625 683 625 39 625 39 833 683 833 685 833 529 625 531 625 39 625 531 625 533 625 39 625 39 834 533 834 535 834 649 625 651 625 693 625 651 625 653 625 693 625 693 835 653 835 655 835 793 625 795 625 352 625 795 625 797 625 352 625 352 836 797 836 799 836 663 625 665 625 39 625 665 625 667 625 39 625 39 837 667 837 669 837 521 625 523 625 39 625 523 625 525 625 39 625 39 838 525 838 527 838 799 625 801 625 352 625 801 625 803 625 352 625 352 839 803 839 39 839 803 625 661 625 39 625 39 840 661 840 663 840 669 625 671 625 39 625 671 625 673 625 39 625 39 625 673 625 675 625 659 625 517 625 39 625 517 625 519 625 39 625 39 841 519 841 521 841 685 625 687 625 39 625 687 842 689 842 39 842 39 843 689 843 659 843 689 844 691 844 659 844 659 845 691 845 693 845</p>
        </triangles>
      </mesh>
    </geometry>
  </library_geometries>
  <library_visual_scenes>
    <visual_scene id="Scene" name="Scene">
      <node id="chassis_default_as_machined__25" name="chassis_default_as_machined__25" type="NODE">
        <matrix sid="transform">1 0 0 0 0 1 0 0 0 0 1 0 0 0 0 1</matrix>
        <instance_geometry url="#chassis_default_as_machined__25-mesh" name="chassis_default_as_machined__25"/>
      </node>
    </visual_scene>
  </library_visual_scenes>
  <scene>
    <instance_visual_scene url="#Scene"/>
  </scene>
</COLLADA>