<?xml version="1.0" encoding="utf-8"?>
<COLLADA xmlns="http://www.collada.org/2005/11/COLLADASchema" version="1.4.1" xmlns:xsi="http://www.w3.org/2001/XMLSchema-instance">
  <asset>
    <contributor>
      <author>Blender User</author>
      <authoring_tool>Blender 3.0.1</authoring_tool>
    </contributor>
    <created>2026-06-04T16:18:40</created>
    <modified>2026-06-04T16:18:40</modified>
    <unit name="meter" meter="1"/>
    <up_axis>Z_UP</up_axis>
  </asset>
  <library_images/>
  <library_geometries>
    <geometry id="chassis_default_as_machined__3-mesh" name="chassis_default_as_machined__3">
      <mesh>
        <source id="chassis_default_as_machined__3-mesh-positions">
          <float_array id="chassis_default_as_machined__3-mesh-positions-array" count="912">-0.585 0.1876 0.2902 -0.585 0.185 0.2902 -0.585 0.1876 0.3098 -0.585 0.185 0.3098 -0.585 0.1876099 0.3100266 -0.585 0.1850197 0.3102532 -0.585 0.1876395 0.3102515 -0.585 0.185079 0.310703 -0.585 0.1876885 0.3104729 -0.585 0.1851772 0.3111459 -0.585 0.1877568 0.3106892 -0.585 0.1853136 0.3115785 -0.585 0.1878436 0.3108988 -0.585 0.1854872 0.3119976 -0.585 0.1879483 0.3111 -0.585 0.1856966 0.3124 -0.585 0.1880702 0.3112913 -0.585 0.1859404 0.3127826 -0.585 0.1882082 0.3114712 -0.585 0.1862165 0.3131425 -0.585 0.1883615 0.3116385 -0.585 0.186523 0.3134769 -0.585 0.1885287 0.3117917 -0.585 0.1868575 0.3137834 -0.585 0.1887087 0.3119298 -0.585 0.1872174 0.3140596 -0.585 0.1888999 0.3120517 -0.585 0.1876 0.3143033 -0.585 0.1891012 0.3121564 -0.585 0.1880024 0.3145128 -0.585 0.1893107 0.3122432 -0.585 0.1884214 0.3146864 -0.585 0.189527 0.3123114 -0.585 0.1888541 0.3148228 -0.585 0.1897485 0.3123605 -0.585 0.189297 0.314921 -0.585 0.1899734 0.3123901 -0.585 0.1897467 0.3149802 -0.585 0.1902 0.3124 -0.585 0.1902 0.315 -0.585 0.2098 0.3124 -0.585 0.2098 0.315 -0.585 0.2100266 0.3123901 -0.585 0.2102532 0.3149802 -0.585 0.2102515 0.3123605 -0.585 0.210703 0.314921 -0.585 0.2104729 0.3123114 -0.585 0.2111458 0.3148228 -0.585 0.2106892 0.3122432 -0.585 0.2115785 0.3146864 -0.585 0.2108988 0.3121564 -0.585 0.2119976 0.3145128 -0.585 0.2111 0.3120517 -0.585 0.2124 0.3143033 -0.585 0.2112913 0.3119298 -0.585 0.2127826 0.3140596 -0.585 0.2114712 0.3117917 -0.585 0.2131425 0.3137834 -0.585 0.2116385 0.3116385 -0.585 0.2134769 0.3134769 -0.585 0.2117917 0.3114712 -0.585 0.2137834 0.3131425 -0.585 0.2119297 0.3112913 -0.585 0.2140595 0.3127826 -0.585 0.2120516 0.3111 -0.585 0.2143033 0.3124 -0.585 0.2121564 0.3108988 -0.585 0.2145128 0.3119976 -0.585 0.2122431 0.3106892 -0.585 0.2146864 0.3115785 -0.585 0.2123114 0.3104729 -0.585 0.2148228 0.3111459 -0.585 0.2123605 0.3102515 -0.585 0.2149209 0.310703 -0.585 0.2123901 0.3100266 -0.585 0.2149802 0.3102532 -0.585 0.2124 0.3098 -0.585 0.215 0.3098 -0.585 0.2124 0.2902 -0.585 0.215 0.2902 -0.585 0.2123901 0.2899734 -0.585 0.2149802 0.2897468 -0.585 0.2123605 0.2897485 -0.585 0.2149209 0.2892971 -0.585 0.2123114 0.2895271 -0.585 0.2148228 0.2888541 -0.585 0.2122431 0.2893108 -0.585 0.2146864 0.2884215 -0.585 0.2121564 0.2891012 -0.585 0.2145128 0.2880024 -0.585 0.2120516 0.2889 -0.585 0.2143033 0.2876 -0.585 0.2119297 0.2887087 -0.585 0.2140595 0.2872174 -0.585 0.2117917 0.2885288 -0.585 0.2137834 0.2868575 -0.585 0.2116385 0.2883615 -0.585 0.2134769 0.2865231 -0.585 0.2114712 0.2882083 -0.585 0.2131425 0.2862166 -0.585 0.2112913 0.2880702 -0.585 0.2127826 0.2859404 -0.585 0.2111 0.2879483 -0.585 0.2124 0.2856966 -0.585 0.2108988 0.2878436 -0.585 0.2119976 0.2854872 -0.585 0.2106892 0.2877568 -0.585 0.2115785 0.2853136 -0.585 0.2104729 0.2876886 -0.585 0.2111458 0.2851772 -0.585 0.2102515 0.2876395 -0.585 0.210703 0.285079 -0.585 0.2100266 0.2876099 -0.585 0.2102532 0.2850198 -0.585 0.2098 0.2876 -0.585 0.2098 0.285 -0.585 0.1902 0.2876 -0.585 0.1902 0.285 -0.585 0.1899734 0.2876099 -0.585 0.1897467 0.2850198 -0.585 0.1897485 0.2876395 -0.585 0.189297 0.285079 -0.585 0.189527 0.2876886 -0.585 0.1888541 0.2851772 -0.585 0.1893107 0.2877568 -0.585 0.1884214 0.2853136 -0.585 0.1891012 0.2878436 -0.585 0.1880024 0.2854872 -0.585 0.1888999 0.2879483 -0.585 0.1876 0.2856966 -0.585 0.1887087 0.2880702 -0.585 0.1872174 0.2859404 -0.585 0.1885287 0.2882083 -0.585 0.1868575 0.2862166 -0.585 0.1883615 0.2883615 -0.585 0.186523 0.2865231 -0.585 0.1882082 0.2885288 -0.585 0.1862165 0.2868575 -0.585 0.1880702 0.2887087 -0.585 0.1859404 0.2872174 -0.585 0.1879483 0.2889 -0.585 0.1856966 0.2876 -0.585 0.1878436 0.2891012 -0.585 0.1854872 0.2880024 -0.585 0.1877568 0.2893108 -0.585 0.1853136 0.2884215 -0.585 0.1876885 0.2895271 -0.585 0.1851772 0.2888541 -0.585 0.1876395 0.2897485 -0.585 0.185079 0.2892971 -0.585 0.1876099 0.2899734 -0.585 0.1850197 0.2897468 -0.01499998 0.1876 0.2902 -0.01499998 0.185 0.2902 -0.01499998 0.1876099 0.2899734 -0.01499998 0.1850197 0.2897468 -0.01499998 0.1876395 0.2897485 -0.01499998 0.185079 0.2892971 -0.01499998 0.1876885 0.2895271 -0.01499998 0.1851772 0.2888541 -0.01499998 0.1877568 0.2893108 -0.01499998 0.1853136 0.2884215 -0.01499998 0.1878436 0.2891012 -0.01499998 0.1854872 0.2880024 -0.01499998 0.1879483 0.2889 -0.01499998 0.1856966 0.2876 -0.01499998 0.1880702 0.2887087 -0.01499998 0.1859404 0.2872174 -0.01499998 0.1882082 0.2885288 -0.01499998 0.1862165 0.2868575 -0.01499998 0.1883615 0.2883615 -0.01499998 0.186523 0.2865231 -0.01499998 0.1885287 0.2882083 -0.01499998 0.1868575 0.2862166 -0.01499998 0.1887087 0.2880702 -0.01499998 0.1872174 0.2859404 -0.01499998 0.1888999 0.2879483 -0.01499998 0.1876 0.2856966 -0.01499998 0.1891012 0.2878436 -0.01499998 0.1880024 0.2854872 -0.01499998 0.1893107 0.2877568 -0.01499998 0.1884214 0.2853136 -0.01499998 0.189527 0.2876886 -0.01499998 0.1888541 0.2851772 -0.01499998 0.1897485 0.2876395 -0.01499998 0.189297 0.285079 -0.01499998 0.1899734 0.2876099 -0.01499998 0.1897467 0.2850198 -0.01499998 0.1902 0.2876 -0.01499998 0.1902 0.285 -0.01499998 0.2098 0.2876 -0.01499998 0.2098 0.285 -0.01499998 0.2100266 0.2876099 -0.01499998 0.2102532 0.2850198 -0.01499998 0.2102515 0.2876395 -0.01499998 0.210703 0.285079 -0.01499998 0.2104729 0.2876886 -0.01499998 0.2111458 0.2851772 -0.01499998 0.2106892 0.2877568 -0.01499998 0.2115785 0.2853136 -0.01499998 0.2108988 0.2878436 -0.01499998 0.2119976 0.2854872 -0.01499998 0.2111 0.2879483 -0.01499998 0.2124 0.2856966 -0.01499998 0.2112913 0.2880702 -0.01499998 0.2127826 0.2859404 -0.01499998 0.2114712 0.2882083 -0.01499998 0.2131425 0.2862166 -0.01499998 0.2116385 0.2883615 -0.01499998 0.2134769 0.2865231 -0.01499998 0.2117917 0.2885288 -0.01499998 0.2137834 0.2868575 -0.01499998 0.2119297 0.2887087 -0.01499998 0.2140595 0.2872174 -0.01499998 0.2120516 0.2889 -0.01499998 0.2143033 0.2876 -0.01499998 0.2121564 0.2891012 -0.01499998 0.2145128 0.2880024 -0.01499998 0.2122431 0.2893108 -0.01499998 0.2146864 0.2884215 -0.01499998 0.2123114 0.2895271 -0.01499998 0.2148228 0.2888541 -0.01499998 0.2123605 0.2897485 -0.01499998 0.2149209 0.2892971 -0.01499998 0.2123901 0.2899734 -0.01499998 0.2149802 0.2897468 -0.01499998 0.2124 0.2902 -0.01499998 0.215 0.2902 -0.01499998 0.2124 0.3098 -0.01499998 0.215 0.3098 -0.01499998 0.2123901 0.3100266 -0.01499998 0.2149802 0.3102532 -0.01499998 0.2123605 0.3102515 -0.01499998 0.2149209 0.310703 -0.01499998 0.2123114 0.3104729 -0.01499998 0.2148228 0.3111459 -0.01499998 0.2122431 0.3106892 -0.01499998 0.2146864 0.3115785 -0.01499998 0.2121564 0.3108988 -0.01499998 0.2145128 0.3119976 -0.01499998 0.2120516 0.3111 -0.01499998 0.2143033 0.3124 -0.01499998 0.2119297 0.3112913 -0.01499998 0.2140595 0.3127826 -0.01499998 0.2117917 0.3114712 -0.01499998 0.2137834 0.3131425 -0.01499998 0.2116385 0.3116385 -0.01499998 0.2134769 0.3134769 -0.01499998 0.2114712 0.3117917 -0.01499998 0.2131425 0.3137834 -0.01499998 0.2112913 0.3119298 -0.01499998 0.2127826 0.3140596 -0.01499998 0.2111 0.3120517 -0.01499998 0.2124 0.3143033 -0.01499998 0.2108988 0.3121564 -0.01499998 0.2119976 0.3145128 -0.01499998 0.2106892 0.3122432 -0.01499998 0.2115785 0.3146864 -0.01499998 0.2104729 0.3123114 -0.01499998 0.2111458 0.3148228 -0.01499998 0.2102515 0.3123605 -0.01499998 0.210703 0.314921 -0.01499998 0.2100266 0.3123901 -0.01499998 0.2102532 0.3149802 -0.01499998 0.2098 0.3124 -0.01499998 0.2098 0.315 -0.01499998 0.1902 0.3124 -0.01499998 0.1902 0.315 -0.01499998 0.1899734 0.3123901 -0.01499998 0.1897467 0.3149802 -0.01499998 0.1897485 0.3123605 -0.01499998 0.189297 0.314921 -0.01499998 0.189527 0.3123114 -0.01499998 0.1888541 0.3148228 -0.01499998 0.1893107 0.3122432 -0.01499998 0.1884214 0.3146864 -0.01499998 0.1891012 0.3121564 -0.01499998 0.1880024 0.3145128 -0.01499998 0.1888999 0.3120517 -0.01499998 0.1876 0.3143033 -0.01499998 0.1887087 0.3119298 -0.01499998 0.1872174 0.3140596 -0.01499998 0.1885287 0.3117917 -0.01499998 0.1868575 0.3137834 -0.01499998 0.1883615 0.3116385 -0.01499998 0.186523 0.3134769 -0.01499998 0.1882082 0.3114712 -0.01499998 0.1862165 0.3131425 -0.01499998 0.1880702 0.3112913 -0.01499998 0.1859404 0.3127826 -0.01499998 0.1879483 0.3111 -0.01499998 0.1856966 0.3124 -0.01499998 0.1878436 0.3108988 -0.01499998 0.1854872 0.3119976 -0.01499998 0.1877568 0.3106892 -0.01499998 0.1853136 0.3115785 -0.01499998 0.1876885 0.3104729 -0.01499998 0.1851772 0.3111459 -0.01499998 0.1876395 0.3102515 -0.01499998 0.185079 0.310703 -0.01499998 0.1876099 0.3100266 -0.01499998 0.1850197 0.3102532 -0.01499998 0.1876 0.3098 -0.01499998 0.185 0.3098</float_array>
          <technique_common>
            <accessor source="#chassis_default_as_machined__3-mesh-positions-array" count="304" stride="3">
              <param name="X" type="float"/>
              <param name="Y" type="float"/>
              <param name="Z" type="float"/>
            </accessor>
          </technique_common>
        </source>
        <source id="chassis_default_as_machined__3-mesh-normals">
          <float_array id="chassis_default_as_machined__3-mesh-normals-array" count="993">-1 0 0 -1 1.77522e-5 0 -1 -4.93925e-5 0 -1 4.93974e-5 0 -1 -4.93974e-5 0 -1 -1.9755e-4 0 -1 9.88142e-5 0 -1 -3.95101e-4 0 -1 3.95218e-4 0 -1 -3.95179e-4 0 -1 -1.97589e-4 0 -1 3.95179e-4 0 -1 -3.95189e-4 0 -1 3.95189e-4 0 -1 1.97599e-4 0 -1 -3.95257e-4 0 -1 9.87947e-5 0 -1 -1.97628e-4 0 -1 9.87849e-5 0 -1 -1.77522e-5 0 -1 1.97589e-4 0 -1 3.95257e-4 0 -1 -1.97594e-4 0 -1 -3.95169e-4 0 -1 -1.9758e-4 0 -1 3.9514e-4 0 -1 -3.95218e-4 0 -1 -1.9757e-4 0 -1 9.88045e-5 0 -1 -9.88045e-5 0 1 0 0 1 -2.77378e-7 0 1 7.71834e-7 0 1 -7.71834e-7 0 1 3.08733e-6 0 1 -3.08703e-6 0 1 6.17711e-6 0 1 -3.08733e-6 0 1 6.17589e-6 0 1 -6.17406e-6 0 1 -1.23499e-5 0 1 6.17482e-6 0 1 -1.23497e-5 0 1 6.17452e-6 0 1 1.23487e-5 0 1 1.23506e-5 0 1 6.17406e-6 0 1 6.17345e-6 0 1 1.54382e-6 0 1 6.17223e-6 0 1 -1.54382e-6 0 1 2.77378e-7 0 1 -1.54397e-6 0 1 -3.08673e-6 0 1 -6.17345e-6 0 1 3.08794e-6 0 1 6.17528e-6 0 1 6.17497e-6 0 1 1.23489e-5 0 1 -6.17482e-6 0 1 -1.23493e-5 0 1 -6.17589e-6 0 1 -6.17467e-6 0 1 -1.54351e-6 0 1 1.54351e-6 0 1 -7.71757e-7 0 0 -0.9990506 -0.04356443 0 -0.9990456 -0.04367947 0 -0.9914506 -0.1304828 0 -0.9914357 -0.1305961 0 -0.976273 -0.2165439 0 -0.9763216 -0.2163242 0 -0.953678 -0.3008295 0 -0.9537441 -0.3006199 0 -0.9239014 -0.3826309 0 -0.9238606 -0.3827292 0 -0.8869805 -0.461807 0 -0.8870277 -0.4617162 0 -0.8434365 -0.5372288 0 -0.8433843 -0.5373108 0 -0.7933399 -0.608779 0 -0.7933399 -0.6087791 0 -0.7372974 -0.6755684 0 -0.73724 -0.6756311 0 -0.6755971 -0.7372711 0 -0.675597 -0.7372711 0 -0.6087693 -0.7933473 0 -0.6087136 -0.79339 0 -0.537301 -0.8433906 0 -0.5372488 -0.8434239 0 -0.4618226 -0.8869723 0 -0.4618226 -0.8869724 0 -0.3826596 -0.9238895 0 -0.3825781 -0.9239231 0 -0.3007768 -0.9536946 0 -0.3007438 -0.953705 0 -0.2163718 -0.9763111 0 -0.2164205 -0.9763003 0 -0.1306038 -0.9914347 0 -0.1306038 -0.9914347 0 -0.0436275 -0.9990479 0 -0.04361742 -0.9990484 0 0 -1 0 0.04361742 -0.9990484 0 0.0436275 -0.9990479 0 0.1305889 -0.9914366 0 0.1306038 -0.9914347 0 0.2163718 -0.9763111 0 0.2164205 -0.9763003 0 0.3007768 -0.9536946 0 0.3007438 -0.953705 0 0.3826596 -0.9238895 0 0.3825781 -0.9239231 0 0.4618226 -0.8869723 0 0.4618226 -0.8869724 0 0.537301 -0.8433906 0 0.608658 -0.7934327 0 0.6087693 -0.7933474 0 0.6755971 -0.7372711 0 0.6756545 -0.7372185 0 0.73724 -0.6756311 0 0.7933399 -0.608779 0 0.7933956 -0.6087065 0 0.8433322 -0.5373928 0 0.8434366 -0.5372289 0 0.8870278 -0.4617162 0 0.8870277 -0.4617162 0 0.9238606 -0.3827292 0 0.9239014 -0.3826309 0 0.9537111 -0.3007247 0 0.953678 -0.3008295 0 0.9763216 -0.2163242 0 0.9762973 -0.216434 0 0.9914357 -0.1305961 0 0.9914506 -0.1304829 0 0.9990506 -0.04356443 0 0.9990456 -0.04367947 0 1 0 0 0 1 0 0.9990454 0.04368519 0 0.9990504 0.04357016 0 0.9914528 0.1304658 0 0.9914379 0.1305791 0 0.9762973 0.216434 0 0.9763216 0.2163242 0 0.953678 0.3008295 0 0.9537111 0.3007247 0 0.9239014 0.3826309 0 0.9238606 0.3827292 0 0.8870278 0.4617162 0 0.8870277 0.4617162 0 0.8434365 0.5372288 0 0.8433321 0.5373928 0 0.7933955 0.6087065 0 0.7933399 0.6087791 0 0.73724 0.6756311 0 0.6756545 0.7372184 0 0.675597 0.7372711 0 0.6087693 0.7933473 0 0.608658 0.7934328 0 0.537301 0.8433906 0 0.4618226 0.8869723 0 0.4618226 0.8869724 0 0.3825781 0.9239231 0 0.3826597 0.9238895 0 0.3007438 0.953705 0 0.3007768 0.9536946 0 0.2164205 0.9763003 0 0.2163718 0.9763111 0 0.1304746 0.9914517 0 0.1304597 0.9914537 0 0.0436275 0.9990479 0 0.04361742 0.9990484 0 -1 0 0 -0.04361742 0.9990484 0 -0.0436275 0.9990479 0 -0.1304746 0.9914517 0 -0.1304746 0.9914517 0 -0.2164205 0.9763003 0 -0.2163718 0.9763111 0 -0.3007438 0.953705 0 -0.3007768 0.9536946 0 -0.3825781 0.9239231 0 -0.3826597 0.9238895 0 -0.4618226 0.8869723 0 -0.4618226 0.8869724 0 -0.5372488 0.8434239 0 -0.537301 0.8433906 0 -0.6087137 0.7933901 0 -0.6087693 0.7933474 0 -0.6755971 0.7372711 0 -0.675597 0.7372711 0 -0.73724 0.6756311 0 -0.7372974 0.6755684 0 -0.7933399 0.608779 0 -0.7933399 0.6087791 0 -0.8433843 0.5373108 0 -0.8434366 0.5372289 0 -0.8870278 0.4617162 0 -0.8869805 0.461807 0 -0.9238606 0.3827292 0 -0.9239014 0.3826309 0 -0.9537441 0.3006199 0 -0.953678 0.3008295 0 -0.9763216 0.2163242 0 -0.976273 0.2165439 0 -0.9914379 0.1305791 0 -0.9914528 0.1304658 0 -0.9990454 0.04368519 0 -0.9990504 0.04357016 0 -0.999048 0.04362481 0 -0.999048 0.04362481 0 -0.9762943 0.2164479 0 -0.9537169 0.3007059 0 -0.9238918 0.3826541 0 -0.9238713 0.3827033 0 -0.8870041 0.4617616 0 -0.8433654 0.5373406 0 -0.8433654 0.5373407 0 -0.793392 0.6087111 0 -0.7933921 0.6087111 0 -0.6756258 0.7372448 0 -0.6087414 0.7933687 0 -0.6087693 0.7933473 0 -0.5372955 0.8433942 0 -0.5373216 0.8433775 0 -0.4617428 0.8870139 0 -0.4617192 0.8870261 0 -0.3826749 0.9238831 0 -0.3007273 0.9537102 0 -0.3007603 0.9536998 0 -0.2163962 0.9763057 0 -0.2164083 0.976303 0 -0.1305392 0.9914432 0 -0.1305317 0.9914442 0 -0.04362243 0.9990481 0 -0.04362243 0.9990481 0 -0.04362243 -0.9990481 0 -0.04362243 -0.9990481 0 -0.1305318 -0.9914442 0 -0.1305392 -0.9914432 0 -0.2164083 -0.976303 0 -0.2163962 -0.9763057 0 -0.3007603 -0.9536998 0 -0.3007273 -0.9537102 0 -0.3826749 -0.9238831 0 -0.4617192 -0.8870263 0 -0.4617428 -0.8870139 0 -0.5373216 -0.8433775 0 -0.5372955 -0.8433942 0 -0.6087693 -0.7933474 0 -0.6087415 -0.7933687 0 -0.6756258 -0.7372448 0 -0.7372699 -0.6755983 0 -0.7933676 -0.6087428 0 -0.7933678 -0.6087428 0 -0.8433843 -0.5373108 0 -0.8870137 -0.4617432 0 -0.8869901 -0.4617885 0 -0.9238714 -0.3827033 0 -0.9238917 -0.3826541 0 -0.9537229 -0.300687 0 -0.9537229 -0.300687 0 -0.9762943 -0.2164479 0 -0.9914368 -0.1305876 0 -0.9914517 -0.1304743 0 -0.999048 -0.04362481 0 -0.999048 -0.04362481 0 0.999048 -0.04362481 0 0.999048 -0.04362481 0 0.9914442 -0.130531 0 0.9914368 -0.1305876 0 0.9763063 -0.2163929 0 0.9762943 -0.2164479 0 0.9537229 -0.300687 0 0.9537229 -0.300687 0 0.9238918 -0.3826541 0 0.923851 -0.3827525 0 0.8870137 -0.4617432 0 0.8869901 -0.4617885 0 0.8433843 -0.5373108 0 0.8434105 -0.5372698 0 0.7933676 -0.6087428 0 0.7372986 -0.675567 0 0.7372699 -0.6755983 0 0.6756258 -0.7372448 0 0.6087136 -0.79339 0 0.6087693 -0.7933473 0 0.5372955 -0.8433942 0 0.5373477 -0.8433609 0 0.4617192 -0.8870263 0 0.4616956 -0.8870385 0 0.3826953 -0.9238746 0 0.3826749 -0.9238831 0 0.3007603 -0.9536998 0 0.2164083 -0.976303 0 0.2163962 -0.9763057 0 0.1305392 -0.9914432 0 0.1305317 -0.9914442 0 0.04362243 -0.9990481 0 0.04362243 -0.9990481 0 0.04362243 0.9990481 0 0.04362243 0.9990481 0 0.1305318 0.9914442 0 0.1305392 0.9914432 0 0.2163962 0.9763057 0 0.2164083 0.976303 0 0.3007603 0.9536998 0 0.3826749 0.9238831 0 0.3826953 0.9238746 0 0.4616956 0.8870385 0 0.4617192 0.8870261 0 0.5373477 0.8433609 0 0.5372955 0.8433942 0 0.6087693 0.7933474 0 0.6087137 0.7933901 0 0.6756258 0.7372448 0 0.7372687 0.6755997 0 0.7933642 0.6087474 0 0.7933921 0.6087111 0 0.8433915 0.5372996 0 0.8433654 0.5373407 0 0.8870041 0.4617616 0 0.923851 0.3827525 0 0.9238917 0.3826541 0 0.9537169 0.3007059 0 0.9762943 0.2164479 0 0.9763063 0.2163929 0 0.9914454 0.1305225 0 0.999048 0.04362481 0 0.999048 0.04362481</float_array>
          <technique_common>
            <accessor source="#chassis_default_as_machined__3-mesh-normals-array" count="331" stride="3">
              <param name="X" type="float"/>
              <param name="Y" type="float"/>
              <param name="Z" type="float"/>
            </accessor>
          </technique_common>
        </source>
        <vertices id="chassis_default_as_machined__3-mesh-vertices">
          <input semantic="POSITION" source="#chassis_default_as_machined__3-mesh-positions"/>
        </vertices>
        <triangles count="608">
          <input semantic="VERTEX" source="#chassis_default_as_machined__3-mesh-vertices" offset="0"/>
          <input semantic="NORMAL" source="#chassis_default_as_machined__3-mesh-normals" offset="1"/>
          <p>0 0 1 0 2 0 1 0 3 0 2 0 2 0 3 0 4 0 3 0 5 0 4 0 4 1 5 1 6 1 5 2 7 2 6 2 6 3 7 3 8 3 7 4 9 4 8 4 8 0 9 0 10 0 9 0 11 0 10 0 10 0 11 0 12 0 11 0 13 0 12 0 12 5 13 5 14 5 13 6 15 6 14 6 14 5 15 5 16 5 15 0 17 0 16 0 16 0 17 0 18 0 17 0 19 0 18 0 18 0 19 0 20 0 19 0 21 0 20 0 20 0 21 0 22 0 21 0 23 0 22 0 22 0 23 0 24 0 23 0 25 0 24 0 24 7 25 7 26 7 25 0 27 0 26 0 26 8 27 8 28 8 27 0 29 0 28 0 28 0 29 0 30 0 29 0 31 0 30 0 30 9 31 9 32 9 31 0 33 0 32 0 32 0 33 0 34 0 33 10 35 10 34 10 34 11 35 11 36 11 35 0 37 0 36 0 36 0 37 0 38 0 37 0 39 0 38 0 38 0 39 0 40 0 39 0 41 0 40 0 40 0 41 0 42 0 41 0 43 0 42 0 42 12 43 12 44 12 43 0 45 0 44 0 44 13 45 13 46 13 45 0 47 0 46 0 46 0 47 0 48 0 47 14 49 14 48 14 48 0 49 0 50 0 49 0 51 0 50 0 50 9 51 9 52 9 51 0 53 0 52 0 52 11 53 11 54 11 53 0 55 0 54 0 54 0 55 0 56 0 55 0 57 0 56 0 56 0 57 0 58 0 57 0 59 0 58 0 58 15 59 15 60 15 59 0 61 0 60 0 60 0 61 0 62 0 61 0 63 0 62 0 62 0 63 0 64 0 63 16 65 16 64 16 64 17 65 17 66 17 65 0 67 0 66 0 66 10 67 10 68 10 67 18 69 18 68 18 68 0 69 0 70 0 69 0 71 0 70 0 70 0 71 0 72 0 71 2 73 2 72 2 72 0 73 0 74 0 73 0 75 0 74 0 74 0 75 0 76 0 75 0 77 0 76 0 76 0 77 0 78 0 77 0 79 0 78 0 78 0 79 0 80 0 79 0 81 0 80 0 80 19 81 19 82 19 81 3 83 3 82 3 82 4 83 4 84 4 83 0 85 0 84 0 84 0 85 0 86 0 85 0 87 0 86 0 86 0 87 0 88 0 87 0 89 0 88 0 88 20 89 20 90 20 89 0 91 0 90 0 90 0 91 0 92 0 91 18 93 18 92 18 92 0 93 0 94 0 93 0 95 0 94 0 94 20 95 20 96 20 95 0 97 0 96 0 96 0 97 0 98 0 97 0 99 0 98 0 98 0 99 0 100 0 99 0 101 0 100 0 100 21 101 21 102 21 101 0 103 0 102 0 102 7 103 7 104 7 103 0 105 0 104 0 104 0 105 0 106 0 105 0 107 0 106 0 106 8 107 8 108 8 107 0 109 0 108 0 108 0 109 0 110 0 109 20 111 20 110 20 110 0 111 0 112 0 111 0 113 0 112 0 112 0 113 0 114 0 113 22 115 22 114 22 114 0 115 0 116 0 115 0 117 0 116 0 116 13 117 13 118 13 117 0 119 0 118 0 118 0 119 0 120 0 119 0 121 0 120 0 120 23 121 23 122 23 121 0 123 0 122 0 122 0 123 0 124 0 123 24 125 24 124 24 124 0 125 0 126 0 125 0 127 0 126 0 126 25 127 25 128 25 127 0 129 0 128 0 128 26 129 26 130 26 129 0 131 0 130 0 130 0 131 0 132 0 131 0 133 0 132 0 132 0 133 0 134 0 133 0 135 0 134 0 134 25 135 25 136 25 135 27 137 27 136 27 136 0 137 0 138 0 137 28 139 28 138 28 138 0 139 0 140 0 139 0 141 0 140 0 140 17 141 17 142 17 141 0 143 0 142 0 142 20 143 20 144 20 143 29 145 29 144 29 144 0 145 0 146 0 145 0 147 0 146 0 146 0 147 0 148 0 147 0 149 0 148 0 148 0 149 0 150 0 149 0 151 0 150 0 150 0 151 0 0 0 151 0 1 0 0 0 152 30 153 30 154 30 153 30 155 30 154 30 154 31 155 31 156 31 155 32 157 32 156 32 156 33 157 33 158 33 157 30 159 30 158 30 158 30 159 30 160 30 159 30 161 30 160 30 160 30 161 30 162 30 161 30 163 30 162 30 162 34 163 34 164 34 163 30 165 30 164 30 164 30 165 30 166 30 165 35 167 35 166 35 166 36 167 36 168 36 167 37 169 37 168 37 168 30 169 30 170 30 169 30 171 30 170 30 170 30 171 30 172 30 171 30 173 30 172 30 172 30 173 30 174 30 173 30 175 30 174 30 174 38 175 38 176 38 175 39 177 39 176 39 176 30 177 30 178 30 177 30 179 30 178 30 178 30 179 30 180 30 179 30 181 30 180 30 180 30 181 30 182 30 181 39 183 39 182 39 182 30 183 30 184 30 183 30 185 30 184 30 184 30 185 30 186 30 185 30 187 30 186 30 186 40 187 40 188 40 187 41 189 41 188 41 188 30 189 30 190 30 189 30 191 30 190 30 190 30 191 30 192 30 191 30 193 30 192 30 192 42 193 42 194 42 193 43 195 43 194 43 194 30 195 30 196 30 195 30 197 30 196 30 196 44 197 44 198 44 197 30 199 30 198 30 198 30 199 30 200 30 199 30 201 30 200 30 200 30 201 30 202 30 201 30 203 30 202 30 202 45 203 45 204 45 203 30 205 30 204 30 204 30 205 30 206 30 205 30 207 30 206 30 206 30 207 30 208 30 207 30 209 30 208 30 208 46 209 46 210 46 209 37 211 37 210 37 210 30 211 30 212 30 211 30 213 30 212 30 212 47 213 47 214 47 213 30 215 30 214 30 214 30 215 30 216 30 215 30 217 30 216 30 216 30 217 30 218 30 217 48 219 48 218 48 218 49 219 49 220 49 219 50 221 50 220 50 220 30 221 30 222 30 221 30 223 30 222 30 222 30 223 30 224 30 223 30 225 30 224 30 224 30 225 30 226 30 225 30 227 30 226 30 226 30 227 30 228 30 227 30 229 30 228 30 228 30 229 30 230 30 229 30 231 30 230 30 230 51 231 51 232 51 231 33 233 33 232 33 232 32 233 32 234 32 233 30 235 30 234 30 234 52 235 52 236 52 235 30 237 30 236 30 236 30 237 30 238 30 237 30 239 30 238 30 238 53 239 53 240 53 239 30 241 30 240 30 240 47 241 47 242 47 241 30 243 30 242 30 242 54 243 54 244 54 243 34 245 34 244 34 244 30 245 30 246 30 245 55 247 55 246 55 246 30 247 30 248 30 247 30 249 30 248 30 248 30 249 30 250 30 249 30 251 30 250 30 250 54 251 54 252 54 251 56 253 56 252 56 252 30 253 30 254 30 253 30 255 30 254 30 254 30 255 30 256 30 255 30 257 30 256 30 256 30 257 30 258 30 257 57 259 57 258 57 258 30 259 30 260 30 259 30 261 30 260 30 260 30 261 30 262 30 261 30 263 30 262 30 262 30 263 30 264 30 263 30 265 30 264 30 264 30 265 30 266 30 265 30 267 30 266 30 266 30 267 30 268 30 267 30 269 30 268 30 268 58 269 58 270 58 269 59 271 59 270 59 270 30 271 30 272 30 271 30 273 30 272 30 272 40 273 40 274 40 273 30 275 30 274 30 274 30 275 30 276 30 275 30 277 30 276 30 276 30 277 30 278 30 277 30 279 30 278 30 278 60 279 60 280 60 279 30 281 30 280 30 280 30 281 30 282 30 281 30 283 30 282 30 282 30 283 30 284 30 283 30 285 30 284 30 284 61 285 61 286 61 285 30 287 30 286 30 286 30 287 30 288 30 287 30 289 30 288 30 288 62 289 62 290 62 289 30 291 30 290 30 290 38 291 38 292 38 291 37 293 37 292 37 292 30 293 30 294 30 293 63 295 63 294 63 294 61 295 61 296 61 295 64 297 64 296 64 296 30 297 30 298 30 297 65 299 65 298 65 298 30 299 30 300 30 299 30 301 30 300 30 300 30 301 30 302 30 301 30 303 30 302 30 302 30 303 30 152 30 303 30 153 30 152 30 76 66 228 66 74 66 228 67 230 67 74 67 74 68 230 68 72 68 230 69 232 69 72 69 72 70 232 70 70 70 232 71 234 71 70 71 70 72 234 72 68 72 234 73 236 73 68 73 68 74 236 74 66 74 236 75 238 75 66 75 66 76 238 76 64 76 238 77 240 77 64 77 64 78 240 78 62 78 240 79 242 79 62 79 62 80 242 80 60 80 242 81 244 81 60 81 60 82 244 82 58 82 244 83 246 83 58 83 58 84 246 84 56 84 246 85 248 85 56 85 56 86 248 86 54 86 248 87 250 87 54 87 54 88 250 88 52 88 250 89 252 89 52 89 52 90 252 90 50 90 252 91 254 91 50 91 50 92 254 92 48 92 254 93 256 93 48 93 48 94 256 94 46 94 256 95 258 95 46 95 46 96 258 96 44 96 258 97 260 97 44 97 44 98 260 98 42 98 260 99 262 99 42 99 42 100 262 100 40 100 262 101 264 101 40 101 40 102 264 102 38 102 264 102 266 102 38 102 38 103 266 103 36 103 266 104 268 104 36 104 36 105 268 105 34 105 268 106 270 106 34 106 34 107 270 107 32 107 270 108 272 108 32 108 32 109 272 109 30 109 272 110 274 110 30 110 30 111 274 111 28 111 274 112 276 112 28 112 28 113 276 113 26 113 276 114 278 114 26 114 26 115 278 115 24 115 278 115 280 115 24 115 24 116 280 116 22 116 280 117 282 117 22 117 22 118 282 118 20 118 282 119 284 119 20 119 20 120 284 120 18 120 284 120 286 120 18 120 18 121 286 121 16 121 286 122 288 122 16 122 16 123 288 123 14 123 288 124 290 124 14 124 14 125 290 125 12 125 290 126 292 126 12 126 12 127 292 127 10 127 292 128 294 128 10 128 10 129 294 129 8 129 294 130 296 130 8 130 8 131 296 131 6 131 296 132 298 132 6 132 6 133 298 133 4 133 298 134 300 134 4 134 4 135 300 135 2 135 300 136 302 136 2 136 2 137 302 137 0 137 302 137 152 137 0 137 116 138 188 138 114 138 188 138 190 138 114 138 0 139 152 139 150 139 152 140 154 140 150 140 150 141 154 141 148 141 154 142 156 142 148 142 148 143 156 143 146 143 156 144 158 144 146 144 146 145 158 145 144 145 158 146 160 146 144 146 144 147 160 147 142 147 160 148 162 148 142 148 142 149 162 149 140 149 162 150 164 150 140 150 140 151 164 151 138 151 164 152 166 152 138 152 138 153 166 153 136 153 166 154 168 154 136 154 136 155 168 155 134 155 168 155 170 155 134 155 134 156 170 156 132 156 170 157 172 157 132 157 132 158 172 158 130 158 172 159 174 159 130 159 130 160 174 160 128 160 174 160 176 160 128 160 128 161 176 161 126 161 176 162 178 162 126 162 126 163 178 163 124 163 178 164 180 164 124 164 124 165 180 165 122 165 180 166 182 166 122 166 122 167 182 167 120 167 182 168 184 168 120 168 120 169 184 169 118 169 184 170 186 170 118 170 118 171 186 171 116 171 186 172 188 172 116 172 78 173 226 173 76 173 226 173 228 173 76 173 114 174 190 174 112 174 190 175 192 175 112 175 112 176 192 176 110 176 192 177 194 177 110 177 110 178 194 178 108 178 194 179 196 179 108 179 108 180 196 180 106 180 196 181 198 181 106 181 106 182 198 182 104 182 198 183 200 183 104 183 104 184 200 184 102 184 200 185 202 185 102 185 102 186 202 186 100 186 202 187 204 187 100 187 100 188 204 188 98 188 204 189 206 189 98 189 98 190 206 190 96 190 206 191 208 191 96 191 96 192 208 192 94 192 208 193 210 193 94 193 94 194 210 194 92 194 210 195 212 195 92 195 92 196 212 196 90 196 212 197 214 197 90 197 90 198 214 198 88 198 214 199 216 199 88 199 88 200 216 200 86 200 216 201 218 201 86 201 86 202 218 202 84 202 218 203 220 203 84 203 84 204 220 204 82 204 220 205 222 205 82 205 82 206 222 206 80 206 222 207 224 207 80 207 80 208 224 208 78 208 224 209 226 209 78 209 267 138 265 138 39 138 265 138 41 138 39 138 3 210 303 210 301 210 3 211 301 211 5 211 301 207 299 207 5 207 5 206 299 206 7 206 299 212 297 212 7 212 7 212 297 212 9 212 297 213 295 213 9 213 9 213 295 213 11 213 295 214 293 214 11 214 11 215 293 215 13 215 293 216 291 216 13 216 13 198 291 198 15 198 291 217 289 217 15 217 15 218 289 218 17 218 289 219 287 219 17 219 17 220 287 220 19 220 287 192 285 192 19 192 19 192 285 192 21 192 285 221 283 221 21 221 21 190 283 190 23 190 283 222 281 222 23 222 23 223 281 223 25 223 281 224 279 224 25 224 25 225 279 225 27 225 279 226 277 226 27 226 27 227 277 227 29 227 277 228 275 228 29 228 29 228 275 228 31 228 275 229 273 229 31 229 31 230 273 230 33 230 273 231 271 231 33 231 33 232 271 232 35 232 271 233 269 233 35 233 35 234 269 234 37 234 269 235 267 235 37 235 37 236 267 236 39 236 153 173 303 173 1 173 303 173 3 173 1 173 117 237 189 237 187 237 117 238 187 238 119 238 187 239 185 239 119 239 119 240 185 240 121 240 185 241 183 241 121 241 121 242 183 242 123 242 183 243 181 243 123 243 123 244 181 244 125 244 181 245 179 245 125 245 125 245 179 245 127 245 179 246 177 246 127 246 127 247 177 247 129 247 177 248 175 248 129 248 129 249 175 249 131 249 175 250 173 250 131 250 131 251 173 251 133 251 173 85 171 85 133 85 133 252 171 252 135 252 171 253 169 253 135 253 135 253 169 253 137 253 169 254 167 254 137 254 137 255 167 255 139 255 167 79 165 79 139 79 139 256 165 256 141 256 165 257 163 257 141 257 141 258 163 258 143 258 163 259 161 259 143 259 143 260 161 260 145 260 161 261 159 261 145 261 145 262 159 262 147 262 159 263 157 263 147 263 147 263 157 263 149 263 157 264 155 264 149 264 149 265 155 265 151 265 155 266 153 266 151 266 151 267 153 267 1 267 191 102 189 102 115 102 189 102 117 102 115 102 79 268 227 268 225 268 79 269 225 269 81 269 225 270 223 270 81 270 81 271 223 271 83 271 223 272 221 272 83 272 83 273 221 273 85 273 221 274 219 274 85 274 85 275 219 275 87 275 219 276 217 276 87 276 87 277 217 277 89 277 217 278 215 278 89 278 89 279 215 279 91 279 215 280 213 280 91 280 91 281 213 281 93 281 213 282 211 282 93 282 93 121 211 121 95 121 211 283 209 283 95 283 95 284 209 284 97 284 209 285 207 285 97 285 97 118 207 118 99 118 207 286 205 286 99 286 99 287 205 287 101 287 205 288 203 288 101 288 101 289 203 289 103 289 203 290 201 290 103 290 103 291 201 291 105 291 201 292 199 292 105 292 105 293 199 293 107 293 199 110 197 110 107 110 107 294 197 294 109 294 197 295 195 295 109 295 109 296 195 296 111 296 195 297 193 297 111 297 111 298 193 298 113 298 193 299 191 299 113 299 113 300 191 300 115 300 229 137 227 137 77 137 227 137 79 137 77 137 41 301 265 301 263 301 41 302 263 302 43 302 263 303 261 303 43 303 43 304 261 304 45 304 261 305 259 305 45 305 45 306 259 306 47 306 259 307 257 307 47 307 47 165 257 165 49 165 257 308 255 308 49 308 49 309 255 309 51 309 255 310 253 310 51 310 51 311 253 311 53 311 253 312 251 312 53 312 53 313 251 313 55 313 251 314 249 314 55 314 55 315 249 315 57 315 249 157 247 157 57 157 57 316 247 316 59 316 247 155 245 155 59 155 59 317 245 317 61 317 245 318 243 318 61 318 61 319 243 319 63 319 243 320 241 320 63 320 63 321 241 321 65 321 241 322 239 322 65 322 65 149 239 149 67 149 239 323 237 323 67 323 67 324 237 324 69 324 237 325 235 325 69 325 69 325 235 325 71 325 235 326 233 326 71 326 71 327 233 327 73 327 233 142 231 142 73 142 73 328 231 328 75 328 231 329 229 329 75 329 75 330 229 330 77 330</p>
        </triangles>
      </mesh>
    </geometry>
  </library_geometries>
  <library_visual_scenes>
    <visual_scene id="Scene" name="Scene">
      <node id="chassis_default_as_machined__3" name="chassis_default_as_machined__3" type="NODE">
        <matrix sid="transform">1 0 0 0 0 1 0 0 0 0 1 0 0 0 0 1</matrix>
        <instance_geometry url="#chassis_default_as_machined__3-mesh" name="chassis_default_as_machined__3"/>
      </node>
    </visual_scene>
  </library_visual_scenes>
  <scene>
    <instance_visual_scene url="#Scene"/>
  </scene>
</COLLADA>