<?xml version="1.0" encoding="utf-8"?>
<COLLADA xmlns="http://www.collada.org/2005/11/COLLADASchema" version="1.4.1" xmlns:xsi="http://www.w3.org/2001/XMLSchema-instance">
  <asset>
    <contributor>
      <author>Blender User</author>
      <authoring_tool>Blender 3.0.1</authoring_tool>
    </contributor>
    <created>2026-06-04T16:18:35</created>
    <modified>2026-06-04T16:18:35</modified>
    <unit name="meter" meter="1"/>
    <up_axis>Z_UP</up_axis>
  </asset>
  <library_images/>
  <library_geometries>
    <geometry id="chassis_default_as_machined__22-mesh" name="chassis_default_as_machined__22">
      <mesh>
        <source id="chassis_default_as_machined__22-mesh-positions">
          <float_array id="chassis_default_as_machined__22-mesh-positions-array" count="1104">-0.6123976 0.2099134 -0.3123975 -0.6124 0.2098 -0.3124 -0.615 0.2098 -0.315 -0.615 0.1902 -0.315 -0.6124 0.1902 -0.3124 -0.6149951 0.1899731 -0.3149951 -0.6123976 0.1900866 -0.3123975 -0.6149802 0.1897467 -0.3149802 -0.6123901 0.1899734 -0.3123901 -0.6149555 0.1895213 -0.3149555 -0.5876099 0.2100266 -0.2876099 -0.5850445 0.2104787 -0.2850445 -0.5850198 0.2102532 -0.2850198 -0.614921 0.189297 -0.314921 -0.6123778 0.1898606 -0.3123778 -0.6148768 0.1890745 -0.3148767 -0.6123605 0.1897485 -0.3123605 -0.6148228 0.1888541 -0.3148228 -0.6149951 0.2100268 -0.3149951 -0.6149802 0.2102532 -0.3149802 -0.6123901 0.2100266 -0.3123901 -0.6149555 0.2104787 -0.3149555 -0.6123778 0.2101393 -0.3123778 -0.5876025 0.1900866 -0.2876025 -0.5850198 0.1897467 -0.2850198 -0.5876099 0.1899734 -0.2876099 -0.5850445 0.1895213 -0.2850445 -0.5876222 0.1898606 -0.2876222 -0.5876025 0.2099134 -0.2876025 -0.5850049 0.2100268 -0.2850049 -0.5876 0.2098 -0.2876 -0.585 0.2098 -0.285 -0.5876 0.1902 -0.2876 -0.585 0.1902 -0.285 -0.5850049 0.1899731 -0.2850049 -0.585079 0.210703 -0.285079 -0.5876222 0.2101393 -0.2876222 -0.5851233 0.2109255 -0.2851232 -0.5876395 0.2102515 -0.2876395 -0.5851772 0.2111458 -0.2851772 -0.6147593 0.1886363 -0.3147593 -0.6123384 0.1896373 -0.3123384 -0.6146864 0.1884214 -0.3146864 -0.6123114 0.189527 -0.3123114 -0.6146042 0.18821 -0.3146042 -0.614921 0.210703 -0.314921 -0.6148768 0.2109255 -0.3148767 -0.6123605 0.2102515 -0.3123605 -0.6148228 0.2111458 -0.3148228 -0.6123384 0.2103627 -0.3123384 -0.585079 0.189297 -0.285079 -0.5851233 0.1890745 -0.2851232 -0.5876395 0.1897485 -0.2876395 -0.5851772 0.1888541 -0.2851772 -0.5876616 0.1896373 -0.2876616 -0.5852407 0.2113636 -0.2852407 -0.5876616 0.2103627 -0.2876616 -0.5853136 0.2115785 -0.2853136 -0.5876886 0.2104729 -0.2876886 -0.5853958 0.2117899 -0.2853958 -0.6119976 0.1854872 -0.3119976 -0.6111 0.1879483 -0.3111 -0.6115785 0.1853136 -0.3115785 -0.6108988 0.1878436 -0.3108988 -0.6111459 0.1851772 -0.3111459 -0.6106892 0.1877568 -0.3106892 -0.610703 0.185079 -0.310703 -0.6147593 0.2113636 -0.3147593 -0.6146864 0.2115785 -0.3146864 -0.6123114 0.2104729 -0.3123114 -0.6146042 0.2117899 -0.3146042 -0.6122797 0.2105818 -0.3122797 -0.6145128 0.2119976 -0.3145128 -0.6122432 0.2106892 -0.3122432 -0.6144124 0.2122011 -0.3144124 -0.6122021 0.2107949 -0.3122021 -0.6145128 0.1880024 -0.3145128 -0.6122797 0.1894181 -0.3122797 -0.6144124 0.1877989 -0.3144124 -0.6122432 0.1893107 -0.3122432 -0.6143034 0.1876 -0.3143033 -0.6122021 0.189205 -0.3122021 -0.6141856 0.187406 -0.3141856 -0.6121564 0.1891012 -0.3121564 -0.6140596 0.1872174 -0.3140596 -0.5852407 0.1886363 -0.2852407 -0.5853136 0.1884214 -0.2853136 -0.5876886 0.189527 -0.2876886 -0.5853958 0.18821 -0.2853958 -0.5877203 0.1894181 -0.2877203 -0.5854872 0.1880024 -0.2854872 -0.5877568 0.1893107 -0.2877568 -0.5855876 0.1877989 -0.2855876 -0.5877979 0.189205 -0.2877979 -0.5880024 0.2145128 -0.2880024 -0.5889 0.2120516 -0.2889 -0.5884215 0.2146864 -0.2884215 -0.5891012 0.2121564 -0.2891012 -0.5888541 0.2148228 -0.2888541 -0.5893108 0.2122431 -0.2893108 -0.5892971 0.2149209 -0.2892971 -0.6139255 0.1870344 -0.3139255 -0.6121062 0.1889994 -0.3121062 -0.6137834 0.1868575 -0.3137834 -0.5892971 0.185079 -0.2892971 -0.5895271 0.1876885 -0.2895271 -0.5888541 0.1851772 -0.2888541 -0.5893108 0.1877568 -0.2893108 -0.5884215 0.1853136 -0.2884215 -0.5891012 0.1878436 -0.2891012 -0.5880024 0.1854872 -0.2880024 -0.5854872 0.2119976 -0.2854872 -0.5877203 0.2105818 -0.2877203 -0.5855876 0.2122011 -0.2855876 -0.5877568 0.2106892 -0.2877568 -0.5856967 0.2124 -0.2856966 -0.5877979 0.2107949 -0.2877979 -0.5858144 0.2125939 -0.2858144 -0.5878436 0.2108988 -0.2878436 -0.5859404 0.2127826 -0.2859404 -0.5860746 0.2129656 -0.2860745 -0.5878938 0.2110005 -0.2878938 -0.5862166 0.2131425 -0.2862166 -0.610703 0.2149209 -0.310703 -0.6104729 0.2123114 -0.3104729 -0.6111459 0.2148228 -0.3111459 -0.6106892 0.2122431 -0.3106892 -0.6115785 0.2146864 -0.3115785 -0.6108988 0.2121564 -0.3108988 -0.6119976 0.2145128 -0.3119976 -0.6120517 0.1888999 -0.3120517 -0.6119928 0.188803 -0.3119928 -0.6134769 0.186523 -0.3134769 -0.6143034 0.2124 -0.3143033 -0.6141856 0.2125939 -0.3141856 -0.6121564 0.2108988 -0.3121564 -0.6140596 0.2127826 -0.3140596 -0.6121062 0.2110005 -0.3121062 -0.6139255 0.2129656 -0.3139255 -0.6120517 0.2111 -0.3120517 -0.6137834 0.2131425 -0.3137834 -0.5856967 0.1876 -0.2856966 -0.5858144 0.187406 -0.2858144 -0.5878436 0.1891012 -0.2878436 -0.5859404 0.1872174 -0.2859404 -0.5878938 0.1889994 -0.2878938 -0.5860746 0.1870344 -0.2860745 -0.5879483 0.1888999 -0.2879483 -0.5862166 0.1868575 -0.2862166 -0.5879483 0.2111 -0.2879483 -0.5880072 0.211197 -0.2880071 -0.5865231 0.2134769 -0.2865231 -0.6119298 0.1887087 -0.3119298 -0.6118627 0.1886172 -0.3118627 -0.6131425 0.1862165 -0.3131425 -0.6117917 0.1885287 -0.3117917 -0.6127826 0.1859404 -0.3127826 -0.6116385 0.1883615 -0.3116385 -0.6124 0.1856966 -0.3124 -0.6114712 0.1882082 -0.3114712 -0.6112913 0.1880702 -0.3112913 -0.6134769 0.2134769 -0.3134769 -0.6119298 0.2112913 -0.3119298 -0.6119928 0.211197 -0.3119928 -0.5865231 0.186523 -0.2865231 -0.5880702 0.1887087 -0.2880702 -0.5880072 0.188803 -0.2880071 -0.5880702 0.2112913 -0.2880702 -0.5881373 0.2113828 -0.2881373 -0.5868575 0.2137834 -0.2868575 -0.5882083 0.2114712 -0.2882083 -0.5872174 0.2140595 -0.2872174 -0.5883615 0.2116385 -0.2883615 -0.5876 0.2143033 -0.2876 -0.5885288 0.2117917 -0.2885288 -0.5887087 0.2119297 -0.2887087 -0.6111 0.2120516 -0.3111 -0.6112913 0.2119297 -0.3112913 -0.6124 0.2143033 -0.3124 -0.6114712 0.2117917 -0.3114712 -0.6127826 0.2140595 -0.3127826 -0.6116385 0.2116385 -0.3116385 -0.6131425 0.2137834 -0.3131425 -0.6117917 0.2114712 -0.3117917 -0.6118627 0.2113828 -0.3118627 -0.6104729 0.1876885 -0.3104729 -0.6102515 0.1876395 -0.3102515 -0.6102532 0.1850197 -0.3102532 -0.6100266 0.1876099 -0.3100266 -0.6098 0.185 -0.3098 -0.6098 0.1876 -0.3098 -0.5902 0.185 -0.2902 -0.5902 0.1876 -0.2902 -0.5897468 0.1850197 -0.2897468 -0.5899734 0.1876099 -0.2899734 -0.5897485 0.1876395 -0.2897485 -0.5889 0.1879483 -0.2889 -0.5887087 0.1880702 -0.2887087 -0.5876 0.1856966 -0.2876 -0.5885288 0.1882082 -0.2885288 -0.5872174 0.1859404 -0.2872174 -0.5883615 0.1883615 -0.2883615 -0.5868575 0.1862165 -0.2868575 -0.5882083 0.1885287 -0.2882083 -0.5881373 0.1886172 -0.2881373 -0.5895271 0.2123114 -0.2895271 -0.5897485 0.2123605 -0.2897485 -0.5897468 0.2149802 -0.2897468 -0.5899734 0.2123901 -0.2899734 -0.5902 0.215 -0.2902 -0.5902 0.2124 -0.2902 -0.6098 0.215 -0.3098 -0.6098 0.2124 -0.3098 -0.6102532 0.2149802 -0.3102532 -0.6100266 0.2123901 -0.3100266 -0.6102515 0.2123605 -0.3102515 -0.6098 0.1876 0.3 -0.6098 0.185 0.3 -0.5902 0.1876 0.3 -0.5902 0.185 0.3 -0.5899734 0.1876099 0.3 -0.5897468 0.1850197 0.3 -0.5897485 0.1876395 0.3 -0.5892971 0.185079 0.3 -0.5895271 0.1876885 0.3 -0.5888541 0.1851772 0.3 -0.5893108 0.1877568 0.3 -0.5884215 0.1853136 0.3 -0.5891012 0.1878436 0.3 -0.5880024 0.1854872 0.3 -0.5889 0.1879483 0.3 -0.5876 0.1856966 0.3 -0.5887087 0.1880702 0.3 -0.5872174 0.1859404 0.3 -0.5885288 0.1882082 0.3 -0.5868575 0.1862165 0.3 -0.5883615 0.1883615 0.3 -0.5865231 0.186523 0.3 -0.5882083 0.1885287 0.3 -0.5862166 0.1868575 0.3 -0.5880702 0.1887087 0.3 -0.5859404 0.1872174 0.3 -0.5879483 0.1888999 0.3 -0.5856967 0.1876 0.3 -0.5878436 0.1891012 0.3 -0.5854872 0.1880024 0.3 -0.5877568 0.1893107 0.3 -0.5853136 0.1884214 0.3 -0.5876886 0.189527 0.3 -0.5851772 0.1888541 0.3 -0.5876395 0.1897485 0.3 -0.585079 0.189297 0.3 -0.5876099 0.1899734 0.3 -0.5850198 0.1897467 0.3 -0.5876 0.1902 0.3 -0.585 0.1902 0.3 -0.5876 0.2098 0.3 -0.585 0.2098 0.3 -0.5876099 0.2100266 0.3 -0.5850198 0.2102532 0.3 -0.5876395 0.2102515 0.3 -0.585079 0.210703 0.3 -0.5876886 0.2104729 0.3 -0.5851772 0.2111458 0.3 -0.5877568 0.2106892 0.3 -0.5853136 0.2115785 0.3 -0.5878436 0.2108988 0.3 -0.5854872 0.2119976 0.3 -0.5879483 0.2111 0.3 -0.5856967 0.2124 0.3 -0.5880702 0.2112913 0.3 -0.5859404 0.2127826 0.3 -0.5882083 0.2114712 0.3 -0.5862166 0.2131425 0.3 -0.5883615 0.2116385 0.3 -0.5865231 0.2134769 0.3 -0.5885288 0.2117917 0.3 -0.5868575 0.2137834 0.3 -0.5887087 0.2119297 0.3 -0.5872174 0.2140595 0.3 -0.5889 0.2120516 0.3 -0.5876 0.2143033 0.3 -0.5891012 0.2121564 0.3 -0.5880024 0.2145128 0.3 -0.5893108 0.2122431 0.3 -0.5884215 0.2146864 0.3 -0.5895271 0.2123114 0.3 -0.5888541 0.2148228 0.3 -0.5897485 0.2123605 0.3 -0.5892971 0.2149209 0.3 -0.5899734 0.2123901 0.3 -0.5897468 0.2149802 0.3 -0.5902 0.2124 0.3 -0.5902 0.215 0.3 -0.6098 0.2124 0.3 -0.6098 0.215 0.3 -0.6100266 0.2123901 0.3 -0.6102532 0.2149802 0.3 -0.6102515 0.2123605 0.3 -0.610703 0.2149209 0.3 -0.6104729 0.2123114 0.3 -0.6111459 0.2148228 0.3 -0.6106892 0.2122431 0.3 -0.6115785 0.2146864 0.3 -0.6108988 0.2121564 0.3 -0.6119976 0.2145128 0.3 -0.6111 0.2120516 0.3 -0.6124 0.2143033 0.3 -0.6112913 0.2119297 0.3 -0.6127826 0.2140595 0.3 -0.6114712 0.2117917 0.3 -0.6131425 0.2137834 0.3 -0.6116385 0.2116385 0.3 -0.6134769 0.2134769 0.3 -0.6117917 0.2114712 0.3 -0.6137834 0.2131425 0.3 -0.6119298 0.2112913 0.3 -0.6140596 0.2127826 0.3 -0.6120517 0.2111 0.3 -0.6143034 0.2124 0.3 -0.6121564 0.2108988 0.3 -0.6145128 0.2119976 0.3 -0.6122432 0.2106892 0.3 -0.6146864 0.2115785 0.3 -0.6123114 0.2104729 0.3 -0.6148228 0.2111458 0.3 -0.6123605 0.2102515 0.3 -0.614921 0.210703 0.3 -0.6123901 0.2100266 0.3 -0.6149802 0.2102532 0.3 -0.6124 0.2098 0.3 -0.615 0.2098 0.3 -0.6124 0.1902 0.3 -0.615 0.1902 0.3 -0.6123901 0.1899734 0.3 -0.6149802 0.1897467 0.3 -0.6123605 0.1897485 0.3 -0.614921 0.189297 0.3 -0.6123114 0.189527 0.3 -0.6148228 0.1888541 0.3 -0.6122432 0.1893107 0.3 -0.6146864 0.1884214 0.3 -0.6121564 0.1891012 0.3 -0.6145128 0.1880024 0.3 -0.6120517 0.1888999 0.3 -0.6143034 0.1876 0.3 -0.6119298 0.1887087 0.3 -0.6140596 0.1872174 0.3 -0.6117917 0.1885287 0.3 -0.6137834 0.1868575 0.3 -0.6116385 0.1883615 0.3 -0.6134769 0.186523 0.3 -0.6114712 0.1882082 0.3 -0.6131425 0.1862165 0.3 -0.6112913 0.1880702 0.3 -0.6127826 0.1859404 0.3 -0.6111 0.1879483 0.3 -0.6124 0.1856966 0.3 -0.6108988 0.1878436 0.3 -0.6119976 0.1854872 0.3 -0.6106892 0.1877568 0.3 -0.6115785 0.1853136 0.3 -0.6104729 0.1876885 0.3 -0.6111459 0.1851772 0.3 -0.6102515 0.1876395 0.3 -0.610703 0.185079 0.3 -0.6100266 0.1876099 0.3 -0.6102532 0.1850197 0.3</float_array>
          <technique_common>
            <accessor source="#chassis_default_as_machined__22-mesh-positions-array" count="368" stride="3">
              <param name="X" type="float"/>
              <param name="Y" type="float"/>
              <param name="Z" type="float"/>
            </accessor>
          </technique_common>
        </source>
        <source id="chassis_default_as_machined__22-mesh-normals">
          <float_array id="chassis_default_as_machined__22-mesh-normals-array" count="1728">0.7070894 0 -0.7071242 0.7070996 0 -0.7071141 0.7071117 0 -0.707102 0.7071679 2.79189e-4 -0.7070457 0.7070802 -0.001116633 -0.7071325 0.7071417 2.79199e-4 -0.7070719 0.7070545 0 -0.7071592 0.7070719 0 -0.7071417 0.7070108 5.16833e-4 -0.7072027 0.7071242 -2.78656e-4 -0.7070894 0.7071067 5.60417e-4 -0.7071067 0.7071416 0 -0.707072 0.7070367 0 -0.7071769 0.707072 0 -0.7071416 0.7070719 2.79172e-4 -0.7071416 0.7071679 -2.79189e-4 -0.7070457 0.707037 0 -0.7071766 0.7070369 5.58371e-4 -0.7071765 0.707194 0 -0.7070195 0.7070543 -5.58302e-4 -0.7071591 0.7071592 0 -0.7070545 0.7072115 0 -0.7070021 0.7071024 -2.7916e-4 -0.7071111 0.7070893 5.58329e-4 -0.7071242 0.7070806 -2.79168e-4 -0.7071329 0.707106 0 -0.7071076 0.7071052 0 -0.7071084 0.7071679 0 -0.7070457 0.7070624 2.66075e-4 -0.7071512 0.7072287 0 -0.7069849 0.7068965 -5.60473e-4 -0.7073169 0.7071068 0 -0.7071068 0.7071068 2.78608e-4 -0.7071068 0.7071773 -5.64838e-4 -0.7070361 0.7071068 2.77569e-4 -0.7071068 0.707194 -2.79179e-4 -0.7070195 0.7071765 0 -0.7070371 0.7071419 0 -0.7070718 0.7070372 0 -0.7071765 0.7072468 -5.60417e-4 -0.7069666 0.7070893 2.79192e-4 -0.7071242 0.7071591 0 -0.7070546 0.707072 -2.78622e-4 -0.7071416 0.7071067 5.60528e-4 -0.7071067 0.7070721 -2.77583e-4 -0.7071415 0.7073186 0 -0.7068949 0.7070721 -2.7761e-4 -0.7071415 0.7071718 0 -0.7070418 0.7071245 -7.09252e-5 -0.7070891 0.7070873 -1.73323e-5 -0.7071263 0.7070891 0 -0.7071245 0.7070908 -2.16676e-5 -0.7071228 0.7071068 2.78663e-4 -0.7071068 0.7071762 0 -0.7070374 0.7070361 5.64838e-4 -0.7071773 0.7071068 -2.77569e-4 -0.7071068 0.7068949 5.64725e-4 -0.7073184 0.7071762 -2.77569e-4 -0.7070374 0.7070362 0 -0.7071774 0.7071068 -2.77596e-4 -0.7071068 0.7071774 0 -0.7070361 0.7071782 0 -0.7070354 0.7070378 2.76025e-4 -0.7071758 0.7070354 0 -0.7071782 0.7071758 -2.76025e-4 -0.7070378 0.7071781 -5.71457e-4 -0.7070353 0.7071068 2.75998e-4 -0.7071068 0.7068924 5.71457e-4 -0.7073209 0.7071413 0 -0.7070723 0.7071765 0 -0.7070372 0.7070721 0 -0.7071415 0.707248 0 -0.7069656 0.7070721 2.7761e-4 -0.7071415 0.7071773 -5.64725e-4 -0.7070361 0.7070373 2.77623e-4 -0.7071762 0.7071067 -5.64782e-4 -0.7071067 0.7070418 -3.46657e-5 -0.7071718 0.70716 0 -0.7070536 0.7072065 0 -0.7070072 0.7070891 7.09359e-5 -0.7071245 0.7070511 -4.4416e-5 -0.7071624 0.7071753 -2.73993e-4 -0.7070383 0.707004 0 -0.7072095 0.7070806 3.49279e-5 -0.707133 0.7070719 6.98688e-5 -0.7071418 0.7072029 0 -0.7070108 0.7070893 6.98567e-5 -0.7071242 0.7070544 0 -0.7071592 0.7071068 2.76025e-4 -0.7071068 0.7068924 -5.71342e-4 -0.7073209 0.7071758 2.75998e-4 -0.7070378 0.7071781 -5.71342e-4 -0.7070353 0.7072448 0 -0.7069688 0.7071067 -5.71515e-4 -0.7071067 0.7069688 0 -0.7072448 0.7070726 2.73953e-4 -0.7071411 0.706889 -5.80369e-4 -0.7073243 0.7072438 2.73966e-4 -0.7069698 0.7071242 0 -0.7070893 0.7070719 0 -0.7071418 0.7070806 6.98558e-5 -0.707133 0.7070893 -6.98567e-5 -0.7071242 0.7071592 6.98567e-5 -0.7070544 0.7071793 -5.80369e-4 -0.7070342 0.7069638 5.71515e-4 -0.7072495 0.7071068 -6.88785e-5 -0.7071068 0.707072 5.55219e-4 -0.7071414 0.7071068 -2.75998e-4 -0.7071068 0.7071067 -5.71399e-4 -0.7071067 0.7070378 0 -0.7071759 0.7070353 5.71342e-4 -0.7071781 0.7072103 0 -0.7070033 0.7070352 5.71572e-4 -0.7071781 0.7070721 0 -0.7071415 0.7071759 0 -0.7070378 0.7071781 5.71457e-4 -0.7070353 0.7070723 0 -0.7071413 0.7072497 0 -0.706964 0.7073209 0 -0.7068926 0.7071413 0 -0.7070723 0.7071067 5.71169e-4 -0.7071067 0.7071792 5.80131e-4 -0.7070342 0.7072495 -5.71284e-4 -0.7069638 0.7070465 6.88861e-5 -0.7071671 0.7073968 -2.90155e-4 -0.7068166 0.7070983 0 -0.7071154 0.7070702 1.46391e-4 -0.7071434 0.7071154 0 -0.7070983 0.7069787 0 -0.7072349 0.7070897 0 -0.7071239 0.7071434 0 -0.7070702 0.7070802 3.54742e-5 -0.7071334 0.7071415 -1.38655e-4 -0.7070721 0.7069655 5.64669e-4 -0.7072479 0.7069929 -4.4652e-4 -0.7072206 0.7071415 1.38655e-4 -0.7070721 0.7069656 0 -0.707248 0.7070956 -5.53367e-4 -0.7071179 0.7071793 -2.90184e-4 -0.7070342 0.7071585 -6.88768e-5 -0.7070552 0.7071793 2.90184e-4 -0.7070342 0.7070812 0 -0.7071324 0.7070336 0 -0.70718 0.7071196 3.41505e-5 -0.707094 0.7070885 0 -0.7071251 0.7071112 7.09301e-5 -0.7071024 0.7071418 -1.39696e-4 -0.7070719 0.7070891 -7.09501e-5 -0.7071246 0.7071068 6.9331e-5 -0.7071068 0.7071245 0 -0.7070891 0.7071068 -6.9331e-5 -0.7071068 0.7070181 1.41886e-4 -0.7071955 0.7070358 0 -0.7071778 0.7071242 0 -0.7070895 0.7071774 0 -0.7070362 0.7071179 3.39299e-4 -0.7070956 0.7072043 -3.54666e-5 -0.7070093 0.7071418 0 -0.7070719 0.7071285 -3.87469e-5 -0.7070851 0.7071024 0 -0.7071112 0.7070566 -1.74651e-5 -0.707157 0.7071636 0 -0.70705 0.7071052 0 -0.7071084 0.7071101 0 -0.7071036 0.7070893 0 -0.7071242 0.7070282 -3.49322e-5 -0.7071854 0.7071068 6.98653e-5 -0.7071068 0.7071679 -6.98506e-5 -0.7070457 0.7071472 0 -0.7070664 0.7071592 1.39727e-4 -0.7070544 0.7070536 -7.09323e-5 -0.70716 0.7070721 -6.93344e-5 -0.7071415 0.7071777 1.41861e-4 -0.7070358 0.7070375 6.93378e-5 -0.7071762 0.70716 -1.41858e-4 -0.7070536 0.7071242 6.93327e-5 -0.7070895 0.7070358 -1.4189e-4 -0.7071778 0.7071415 0 -0.7070721 0.7073892 0 -0.7068244 0.7069305 -1.07154e-4 -0.7072831 0.7071422 3.54706e-5 -0.7070713 0.7071407 -2.46972e-5 -0.7070729 0.7070981 0 -0.7071155 0.7070544 1.7465e-5 -0.7071592 0.7070937 0 -0.7071199 0.7071117 0 -0.707102 0.7071636 3.49251e-5 -0.70705 0.7070981 6.98575e-5 -0.7071155 0.7071384 0 -0.7070751 0 0 1 1.97587e-4 0 1 -1.97609e-4 0 1 9.8802e-5 0 1 -1.97619e-4 0 1 -9.87898e-5 0 1 -9.87947e-5 0 1 1.97589e-4 0 1 -4.94047e-5 0 1 2.46999e-5 0 1 -2.46999e-5 0 1 -4.93925e-5 0 1 1.23493e-5 0 1 1.00338e-5 0 1 2.46987e-5 0 1 -4.93876e-5 0 1 9.87947e-5 0 1 -1.9757e-4 0 1 1.97599e-4 0 1 1.9758e-4 0 1 -1.97586e-4 0 1 -9.87874e-5 0 1 1.9757e-4 0 1 9.87996e-5 0 1 4.93876e-5 0 1 4.93974e-5 0 1 -1.23493e-5 0 1 2.46975e-5 0 1 -4.94022e-5 0 1 4.94022e-5 0 1 -9.87929e-5 0 1 0 1 0 -0.9997627 0.02178752 0 -0.9990498 0.04358446 8.05065e-6 -0.99147 0.1303356 8.017e-6 -0.994049 0.1089342 0 -0.9978691 0.06524854 0 -0.9763361 0.2162588 8.08658e-6 -0.9808371 0.1948298 0 -0.9882428 0.1528934 0 -0.9537131 0.3007183 8.02923e-6 -0.9599187 0.2802786 0 -0.9712928 0.2378872 0 -0.9238086 0.3828548 8.0371e-6 -0.9321507 0.3620707 0 -0.9469668 0.3213314 0 -0.8870336 0.461705 7.97505e-6 -0.8967909 0.4424548 0 -0.915356 0.4026455 0 -0.8435392 0.5370675 8.08399e-6 -0.8549097 0.5187769 0 -0.8768853 0.4806998 0 -0.7800956 0.6256604 1.62727e-5 -0.8068825 0.5907121 0 -0.8309242 0.5563857 0 -0.7932345 0.6089164 0 -0.7372698 0.6755985 0 -0.7373151 0.6755491 0 -0.6757357 0.737144 0 -0.6754288 0.7374253 0 -0.6087882 0.7933329 0 -0.6087702 0.7933466 0 -0.5372366 0.8434316 0 -0.537484 0.843274 0 -0.461766 0.8870019 0 -0.4616151 0.8870804 0 -0.3826506 0.9238932 0 -0.3828826 0.923797 0 -0.3007031 0.9537178 0 -0.3005712 0.9537594 0 -0.216484 0.9762862 0 -0.2164707 0.9762892 0 -0.130515 0.9914463 0 -0.1305319 0.9914442 0 -0.04362308 0.9990481 0 -0.04360949 0.9990487 0 -1 0 0 -0.04361891 -0.9990484 0 -0.04361367 -0.9990485 0 -0.1304996 -0.9914484 0 -0.1304827 -0.9914507 0 -0.216502 -0.9762822 0 -0.2165153 -0.9762793 0 -0.3006328 -0.9537401 0 -0.3006415 -0.9537373 0 -0.3827785 -0.9238402 0 -0.3826985 -0.9238734 0 -0.461703 -0.8870346 0 -0.461678 -0.8870476 0 -0.5374101 -0.8433211 0 -0.5373572 -0.8433548 0 -0.6087496 -0.7933626 0 -0.6087675 -0.7933488 0 -0.6755533 -0.7373112 0 -0.6756469 -0.7372254 0 -0.7372084 -0.6756655 0 -0.7373765 -0.6754821 0 -0.7799519 -0.6258395 0 -0.7932904 -0.6088436 8.09832e-6 -0.8068595 -0.5907434 0 -0.8309962 -0.5562782 0 -0.8435488 -0.5370527 8.04459e-6 -0.8549097 -0.5187769 0 -0.8768404 -0.4807816 0 -0.8870266 -0.4617184 8.00138e-6 -0.8967909 -0.4424548 0 -0.9153189 -0.4027302 0 -0.9238086 -0.3828548 8.02405e-6 -0.9321507 -0.3620707 0 -0.9469442 -0.3213983 0 -0.953716 -0.3007088 8.0355e-6 -0.9599187 -0.2802786 0 -0.9712669 -0.2379934 0 -0.9763361 -0.2162588 8.0931e-6 -0.9808371 -0.1948298 0 -0.9882364 -0.1529346 0 -0.99147 -0.1303356 8.017e-6 -0.994049 -0.1089342 0 -0.9978615 -0.06536501 0 -0.9990499 -0.04358446 8.05269e-6 -0.9997627 -0.02178609 0 0.9914225 -0.1306967 0 0.9883437 -0.1522389 1.68502e-5 0.9941254 -0.1082344 0 0.9990406 -0.04379588 0 0.9978185 -0.06601846 1.69273e-5 0.9997783 -0.02105778 0 0.9536907 -0.3007889 0 0.9469286 -0.3214442 1.69752e-5 0.9600839 -0.2797123 0 0.9762469 -0.2166613 0 0.9714787 -0.2371272 1.70086e-5 0.9808153 -0.1949397 0 0.8869434 -0.4618782 0 0.8766993 -0.4810389 1.68712e-5 0.896989 -0.4420529 0 0.9239 -0.3826343 0 0.9150247 -0.403398 1.69255e-5 0.9322294 -0.3618681 0 0.7796562 -0.6262078 1.67985e-5 0.8066045 -0.5910918 0 0.8433018 -0.5374403 0 0.8315935 -0.5553848 1.69216e-5 0.855158 -0.5183677 0 0.7934629 -0.6086187 0 0.7372982 -0.6755675 0 0.7371394 -0.6757408 0 0.6756214 -0.7372488 0 0.6756076 -0.7372614 0 0.6086916 -0.793407 0 0.6088184 -0.7933097 0 0.5373486 -0.8433603 0 0.5372935 -0.8433955 0 0.4617282 -0.8870215 0 0.4617022 -0.887035 0 0.3827212 -0.9238639 0 0.382638 -0.9238983 0 0.300762 -0.9536992 0 0.300643 -0.9537368 0 0.2164399 -0.976296 0 0.2164536 -0.9762929 0 0.1305534 -0.9914414 0 0.1304494 -0.991455 0 0.04362386 -0.9990481 0 0.04362821 -0.9990479 0 0 -1 0 0.0436185 0.9990483 0 0.04363358 0.9990476 0 0.1305392 0.9914432 0 0.1305279 0.9914447 0 0.2163752 0.9763104 0 0.2164558 0.9762924 0 0.300707 0.9537166 0 0.300698 0.9537195 0 0.3826661 0.9238868 0 0.3827493 0.9238523 0 0.4617938 0.8869874 0 0.4616367 0.8870692 0 0.5371688 0.8434748 0 0.5374267 0.8433105 0 0.608839 0.7932938 0 0.6087122 0.7933911 0 0.6757013 0.7371756 0 0.6754919 0.7373674 0 0.7372509 0.6756191 0 0.7371866 0.6756892 0 0.8433943 0.5372952 0 0.855103 0.5184583 1.70265e-5 0.831478 0.5555577 0 0.7933366 0.6087833 0 0.8065405 0.591179 1.68514e-5 0.7800221 0.625752 0 0.9239392 0.3825396 0 0.9321129 0.362168 1.69554e-5 0.9150716 0.4032916 0 0.8870666 0.4616417 0 0.8968705 0.4422933 1.68653e-5 0.8766085 0.4812043 0 0.976334 0.2162679 0 0.9806596 0.1957212 1.69873e-5 0.9714888 0.2370857 0 0.9537965 0.3004537 0 0.9598587 0.280484 1.6955e-5 0.9469699 0.3213222 0 0.9990503 0.0435732 0 0.9997772 0.02110832 1.69233e-5 0.9977893 0.06645786 0 0.9914498 0.1304889 0 0.9940295 0.1091129 1.6848e-5 0.9883803 0.1520013 0 0.9997512 0.02230733 0 0.9990603 0.04334068 -4.09237e-6 0.9913995 0.1308706 -4.0757e-6 0.9940463 0.1089584 0 0.9978427 0.06565219 0 0.9763281 0.2162951 -4.03382e-6 0.9808429 0.1948005 0 0.988342 0.1522504 0 0.9537947 0.3004596 -4.03449e-6 0.9596038 0.2813552 0 0.9713729 0.2375601 0 0.9238086 0.3828547 -4.09981e-6 0.9323871 0.3614614 0 0.9469215 0.3214648 0 0.8869366 0.4618914 -3.99556e-6 0.8969536 0.4421248 0 0.9148961 0.4036898 0 0.843047 0.5378399 -4.10012e-6 0.8553958 0.517975 0 0.8771083 0.4802926 0 0.7794489 0.6264659 -8.06632e-6 0.8071539 0.5903412 0 0.8311706 0.5560176 0 0.79343 0.6086615 0 0.7370151 0.6758763 0 0.7373587 0.6755014 0 0.6756132 0.7372563 0 0.6755127 0.7373483 0 0.6089657 0.7931967 0 0.6084378 0.7936016 0 0.5374963 0.8432661 0 0.5373767 0.8433423 0 0.4614958 0.8871425 0 0.4619045 0.8869297 0 0.3826434 0.9238962 0 0.3826833 0.9238796 0 0.3006731 0.9537273 0 0.3006996 0.953719 0 0.2164072 0.9763032 0 0.2165144 0.9762795 0 0.1305036 0.9914479 0 0.1305121 0.9914468 0 0.04362571 0.9990481 0 0.04360949 0.9990487 0 -0.0436185 0.9990483 0 -0.04362118 0.9990482 0 -0.1305309 0.9914442 0 -0.130482 0.9914507 0 -0.2164077 0.9763032 0 -0.2165187 0.9762786 0 -0.3006954 0.9537202 0 -0.3008508 0.9536713 0 -0.3826581 0.9238901 0 -0.3825419 0.9239382 0 -0.461806 0.886981 0 -0.4616819 0.8870456 0 -0.5371262 0.8435019 0 -0.5376089 0.8431944 0 -0.6088187 0.7933095 0 -0.6084859 0.7935647 0 -0.6756497 0.737223 0 -0.6755452 0.7373186 0 -0.7371752 0.6757018 0 -0.7375326 0.6753117 0 -0.8434058 0.5372771 0 -0.8543525 0.519694 -8.36591e-6 -0.831768 0.5551235 0 -0.7934425 0.6086453 0 -0.8064559 0.5912942 -8.3955e-6 -0.7797636 0.626074 0 -0.923869 0.3827089 0 -0.9318495 0.3628453 -8.31851e-6 -0.9155029 0.4023113 0 -0.8870005 0.4617685 0 -0.8971767 0.441672 -8.32191e-6 -0.8770111 0.4804702 0 -0.9763914 0.216009 0 -0.9808177 0.1949275 -8.40461e-6 -0.9713137 0.2378021 0 -0.9537799 0.3005061 0 -0.9598072 0.2806605 -8.40141e-6 -0.9469222 0.3214629 0 -0.9990586 0.04338073 0 -0.9997502 0.02235442 -8.3263e-6 -0.997867 0.06528019 0 -0.9914958 0.1301391 0 -0.993838 0.1108431 -8.49076e-6 -0.988411 0.151802 0 -0.9913797 -0.1310203 0 -0.9885117 -0.1511452 -8.48825e-6 -0.9939339 -0.109979 0 -0.9990392 -0.0438264 0 -0.9979248 -0.06439125 -8.32083e-6 -0.9997456 -0.0225594 0 -0.9536617 -0.300881 0 -0.9467897 -0.3218532 -8.38978e-6 -0.9600498 -0.279829 0 -0.9762063 -0.2168443 0 -0.9713012 -0.2378531 -8.44574e-6 -0.9810966 -0.1935187 0 -0.8872172 -0.4613519 0 -0.8767606 -0.4809273 -8.34773e-6 -0.8968183 -0.4423992 0 -0.9238891 -0.3826606 0 -0.9154797 -0.4023643 -8.34984e-6 -0.9318726 -0.3627859 0 -0.7796766 -0.6261825 -8.39622e-6 -0.8063467 -0.5914431 0 -0.8432728 -0.537486 0 -0.8321655 -0.5545273 -8.29765e-6 -0.8541753 -0.5199851 0 -0.7934871 -0.6085871 0 -0.7373399 -0.6755219 0 -0.7374276 -0.6754263 0 -0.6755095 -0.7373513 0 -0.6756139 -0.7372557 0 -0.6085274 -0.793533 0 -0.60886 -0.7932778 0 -0.5373598 -0.8433532 0 -0.5372816 -0.8434029 0 -0.4619165 -0.8869234 0 -0.461675 -0.8870493 0 -0.3825419 -0.9239382 0 -0.3826581 -0.9238901 0 -0.300791 -0.9536901 0 -0.3006356 -0.9537391 0 -0.2164871 -0.9762856 0 -0.2165645 -0.9762684 0 -0.1305397 -0.9914432 0 -0.1304733 -0.9914519 0 -0.04362118 -0.9990482 0 -0.0436185 -0.9990483 0 0.04360949 -0.9990487 0 0.04362571 -0.9990481 0 0.1305678 -0.9914395 0 0.130448 -0.9914553 0 0.2164859 -0.9762858 0 0.2165608 -0.9762692 0 0.3007633 -0.9536989 0 0.3004901 -0.953785 0 0.3826833 -0.9238796 0 0.3826434 -0.9238962 0 0.46178 -0.8869946 0 0.4617235 -0.8870239 0 0.53733 -0.8433722 0 0.5374496 -0.8432959 0 0.6086866 -0.7934107 0 0.6087995 -0.7933242 0 0.6754771 -0.7373811 0 0.6755774 -0.7372891 0 0.7373887 -0.6754687 0 0.7370451 -0.6758436 0 0.7797959 -0.6260339 0 0.7932324 -0.608919 -4.03631e-6 0.8071081 -0.5904039 0 0.8310929 -0.5561338 0 0.8430661 -0.5378101 -4.06059e-6 0.8553958 -0.517975 0 0.8771807 -0.4801606 0 0.8869366 -0.4618914 -4.00866e-6 0.8969793 -0.4420727 0 0.9147468 -0.4040278 0 0.9238086 -0.3828547 -4.09981e-6 0.9323871 -0.3614614 0 0.9468013 -0.3218187 0 0.9537946 -0.3004596 -4.02794e-6 0.9596141 -0.2813197 0 0.9713349 -0.2377152 0 0.9763281 -0.2162951 -4.05347e-6 0.9808479 -0.1947754 0 0.9883985 -0.1518831 0 0.9913984 -0.1308792 -4.07269e-6 0.9940448 -0.1089727 0 0.9978153 -0.06606745 0 0.9990603 -0.04334068 -4.08991e-6 0.9997512 -0.02230733 0 1 0 0</float_array>
          <technique_common>
            <accessor source="#chassis_default_as_machined__22-mesh-normals-array" count="576" stride="3">
              <param name="X" type="float"/>
              <param name="Y" type="float"/>
              <param name="Z" type="float"/>
            </accessor>
          </technique_common>
        </source>
        <vertices id="chassis_default_as_machined__22-mesh-vertices">
          <input semantic="POSITION" source="#chassis_default_as_machined__22-mesh-positions"/>
        </vertices>
        <triangles count="736">
          <input semantic="VERTEX" source="#chassis_default_as_machined__22-mesh-vertices" offset="0"/>
          <input semantic="NORMAL" source="#chassis_default_as_machined__22-mesh-normals" offset="1"/>
          <p>0 0 1 0 2 0 2 1 1 1 3 1 1 2 4 2 3 2 3 3 4 3 5 3 4 4 6 4 5 4 5 5 6 5 7 5 6 6 8 6 7 6 7 7 8 7 9 7 10 8 11 8 12 8 9 9 8 9 13 9 8 10 14 10 13 10 13 11 14 11 15 11 14 12 16 12 15 12 15 13 16 13 17 13 2 14 18 14 0 14 18 15 19 15 0 15 0 6 19 6 20 6 19 16 21 16 20 16 20 17 21 17 22 17 23 18 24 18 25 18 24 19 26 19 25 19 25 20 26 20 27 20 10 21 12 21 28 21 12 22 29 22 28 22 28 23 29 23 30 23 29 24 31 24 30 24 30 25 31 25 32 25 31 26 33 26 32 26 32 0 33 0 23 0 33 27 34 27 23 27 23 28 34 28 24 28 11 29 10 29 35 29 10 30 36 30 35 30 35 29 36 29 37 29 36 31 38 31 37 31 37 32 38 32 39 32 17 31 16 31 40 31 16 31 41 31 40 31 40 31 41 31 42 31 41 33 43 33 42 33 42 34 43 34 44 34 21 35 45 35 22 35 45 36 46 36 22 36 22 37 46 37 47 37 46 38 48 38 47 38 47 39 48 39 49 39 26 40 50 40 27 40 50 41 51 41 27 41 27 12 51 12 52 12 51 42 53 42 52 42 52 43 53 43 54 43 39 44 38 44 55 44 38 45 56 45 55 45 55 31 56 31 57 31 56 31 58 31 57 31 57 46 58 46 59 46 60 47 61 47 62 47 61 48 63 48 62 48 62 49 63 49 64 49 63 50 65 50 64 50 64 51 65 51 66 51 48 52 67 52 49 52 67 53 68 53 49 53 49 54 68 54 69 54 68 55 70 55 69 55 69 56 70 56 71 56 70 57 72 57 71 57 71 58 72 58 73 58 72 59 74 59 73 59 73 60 74 60 75 60 44 31 43 31 76 31 43 61 77 61 76 61 76 62 77 62 78 62 77 63 79 63 78 63 78 64 79 64 80 64 79 65 81 65 80 65 80 66 81 66 82 66 81 67 83 67 82 67 82 68 83 68 84 68 53 69 85 69 54 69 85 70 86 70 54 70 54 71 86 71 87 71 86 72 88 72 87 72 87 73 88 73 89 73 88 74 90 74 89 74 89 75 90 75 91 75 90 31 92 31 91 31 91 31 92 31 93 31 94 76 95 76 96 76 95 77 97 77 96 77 96 78 97 78 98 78 97 79 99 79 98 79 98 80 99 80 100 80 84 81 83 81 101 81 83 31 102 31 101 31 101 82 102 82 103 82 104 83 105 83 106 83 105 84 107 84 106 84 106 85 107 85 108 85 107 86 109 86 108 86 108 87 109 87 110 87 59 88 58 88 111 88 58 89 112 89 111 89 111 90 112 90 113 90 112 31 114 31 113 31 113 62 114 62 115 62 114 91 116 91 115 91 115 92 116 92 117 92 116 93 118 93 117 93 117 94 118 94 119 94 119 95 118 95 120 95 118 96 121 96 120 96 120 97 121 97 122 97 123 98 124 98 125 98 124 99 126 99 125 99 125 100 126 100 127 100 126 101 128 101 127 101 127 102 128 102 129 102 102 103 130 103 103 103 130 104 131 104 103 104 103 105 131 105 132 105 74 106 133 106 75 106 133 107 134 107 75 107 75 108 134 108 135 108 134 109 136 109 135 109 135 110 136 110 137 110 136 111 138 111 137 111 137 112 138 112 139 112 138 31 140 31 139 31 92 113 141 113 93 113 141 114 142 114 93 114 93 115 142 115 143 115 142 116 144 116 143 116 143 117 144 117 145 117 144 116 146 116 145 116 145 118 146 118 147 118 146 119 148 119 147 119 121 103 149 103 122 103 149 120 150 120 122 120 122 105 150 105 151 105 131 121 152 121 132 121 152 122 153 122 132 122 132 123 153 123 154 123 153 124 155 124 154 124 154 125 155 125 156 125 155 126 157 126 156 126 156 127 157 127 158 127 157 128 159 128 158 128 158 129 159 129 60 129 159 130 160 130 60 130 60 131 160 131 61 131 161 132 162 132 140 132 162 133 163 133 140 133 140 134 163 134 139 134 164 135 165 135 148 135 165 136 166 136 148 136 148 137 166 137 147 137 150 138 167 138 151 138 167 63 168 63 151 63 151 139 168 139 169 139 168 140 170 140 169 140 169 141 170 141 171 141 170 130 172 130 171 130 171 125 172 125 173 125 172 142 174 142 173 142 173 143 174 143 94 143 174 144 175 144 94 144 94 145 175 145 95 145 128 146 176 146 129 146 176 147 177 147 129 147 129 148 177 148 178 148 177 149 179 149 178 149 178 150 179 150 180 150 179 151 181 151 180 151 180 150 181 150 182 150 181 152 183 152 182 152 182 153 183 153 161 153 183 154 184 154 161 154 161 155 184 155 162 155 65 156 185 156 66 156 185 157 186 157 66 157 66 158 186 158 187 158 186 159 188 159 187 159 187 160 188 160 189 160 188 161 190 161 189 161 189 162 190 162 191 162 190 163 192 163 191 163 191 164 192 164 193 164 192 165 194 165 193 165 193 166 194 166 104 166 194 167 195 167 104 167 104 168 195 168 105 168 109 169 196 169 110 169 196 170 197 170 110 170 110 171 197 171 198 171 197 172 199 172 198 172 198 173 199 173 200 173 199 174 201 174 200 174 200 175 201 175 202 175 201 176 203 176 202 176 202 177 203 177 164 177 203 178 204 178 164 178 164 179 204 179 165 179 99 180 205 180 100 180 205 98 206 98 100 98 100 181 206 181 207 181 206 182 208 182 207 182 207 183 208 183 209 183 208 184 210 184 209 184 209 31 210 31 211 31 210 185 212 185 211 185 211 87 212 87 213 87 212 186 214 186 213 186 213 182 214 182 123 182 214 187 215 187 123 187 123 188 215 188 124 188 216 189 217 189 218 189 217 189 219 189 218 189 218 189 219 189 220 189 219 189 221 189 220 189 220 190 221 190 222 190 221 189 223 189 222 189 222 189 223 189 224 189 223 189 225 189 224 189 224 191 225 191 226 191 225 192 227 192 226 192 226 189 227 189 228 189 227 189 229 189 228 189 228 193 229 193 230 193 229 189 231 189 230 189 230 189 231 189 232 189 231 194 233 194 232 194 232 189 233 189 234 189 233 189 235 189 234 189 234 189 235 189 236 189 235 195 237 195 236 195 236 196 237 196 238 196 237 189 239 189 238 189 238 189 239 189 240 189 239 189 241 189 240 189 240 189 241 189 242 189 241 189 243 189 242 189 242 189 243 189 244 189 243 189 245 189 244 189 244 189 245 189 246 189 245 197 247 197 246 197 246 189 247 189 248 189 247 198 249 198 248 198 248 189 249 189 250 189 249 199 251 199 250 199 250 200 251 200 252 200 251 201 253 201 252 201 252 189 253 189 254 189 253 189 255 189 254 189 254 189 255 189 256 189 255 189 257 189 256 189 256 189 257 189 258 189 257 189 259 189 258 189 258 202 259 202 260 202 259 189 261 189 260 189 260 203 261 203 262 203 261 189 263 189 262 189 262 189 263 189 264 189 263 189 265 189 264 189 264 204 265 204 266 204 265 189 267 189 266 189 266 189 267 189 268 189 267 189 269 189 268 189 268 189 269 189 270 189 269 189 271 189 270 189 270 189 271 189 272 189 271 189 273 189 272 189 272 189 273 189 274 189 273 189 275 189 274 189 274 191 275 191 276 191 275 189 277 189 276 189 276 189 277 189 278 189 277 205 279 205 278 205 278 206 279 206 280 206 279 189 281 189 280 189 280 189 281 189 282 189 281 195 283 195 282 195 282 189 283 189 284 189 283 189 285 189 284 189 284 207 285 207 286 207 285 189 287 189 286 189 286 189 287 189 288 189 287 189 289 189 288 189 288 208 289 208 290 208 289 189 291 189 290 189 290 189 291 189 292 189 291 189 293 189 292 189 292 189 293 189 294 189 293 189 295 189 294 189 294 189 295 189 296 189 295 189 297 189 296 189 296 209 297 209 298 209 297 189 299 189 298 189 298 189 299 189 300 189 299 189 301 189 300 189 300 189 301 189 302 189 301 210 303 210 302 210 302 189 303 189 304 189 303 189 305 189 304 189 304 211 305 211 306 211 305 189 307 189 306 189 306 189 307 189 308 189 307 212 309 212 308 212 308 206 309 206 310 206 309 189 311 189 310 189 310 189 311 189 312 189 311 212 313 212 312 212 312 189 313 189 314 189 313 189 315 189 314 189 314 189 315 189 316 189 315 189 317 189 316 189 316 189 317 189 318 189 317 189 319 189 318 189 318 189 319 189 320 189 319 189 321 189 320 189 320 189 321 189 322 189 321 213 323 213 322 213 322 189 323 189 324 189 323 189 325 189 324 189 324 189 325 189 326 189 325 189 327 189 326 189 326 214 327 214 328 214 327 215 329 215 328 215 328 189 329 189 330 189 329 189 331 189 330 189 330 189 331 189 332 189 331 189 333 189 332 189 332 189 333 189 334 189 333 189 335 189 334 189 334 189 335 189 336 189 335 189 337 189 336 189 336 189 337 189 338 189 337 216 339 216 338 216 338 217 339 217 340 217 339 189 341 189 340 189 340 218 341 218 342 218 341 189 343 189 342 189 342 189 343 189 344 189 343 189 345 189 344 189 344 189 345 189 346 189 345 189 347 189 346 189 346 205 347 205 348 205 347 189 349 189 348 189 348 189 349 189 350 189 349 189 351 189 350 189 350 189 351 189 352 189 351 189 353 189 352 189 352 189 353 189 354 189 353 189 355 189 354 189 354 189 355 189 356 189 355 189 357 189 356 189 356 189 357 189 358 189 357 205 359 205 358 205 358 189 359 189 360 189 359 189 361 189 360 189 360 189 361 189 362 189 361 189 363 189 362 189 362 189 363 189 364 189 363 189 365 189 364 189 364 189 365 189 366 189 365 219 367 219 366 219 366 189 367 189 216 189 367 189 217 189 216 189 295 220 293 220 211 220 293 220 209 220 211 220 2 221 331 221 18 221 331 222 329 222 18 222 327 223 21 223 329 223 21 224 19 224 329 224 329 225 19 225 18 225 325 226 46 226 327 226 46 227 45 227 327 227 327 228 45 228 21 228 323 229 67 229 325 229 67 230 48 230 325 230 325 231 48 231 46 231 321 232 70 232 323 232 70 233 68 233 323 233 323 234 68 234 67 234 319 235 74 235 321 235 74 236 72 236 321 236 321 237 72 237 70 237 317 238 134 238 319 238 134 239 133 239 319 239 319 240 133 240 74 240 140 241 138 241 317 241 138 242 136 242 317 242 317 243 136 243 134 243 317 244 315 244 140 244 315 245 313 245 140 245 140 246 313 246 161 246 313 247 311 247 161 247 161 248 311 248 182 248 311 249 309 249 182 249 182 250 309 250 180 250 309 251 307 251 180 251 180 252 307 252 178 252 307 253 305 253 178 253 178 254 305 254 129 254 305 255 303 255 129 255 129 256 303 256 127 256 303 257 301 257 127 257 127 258 301 258 125 258 301 259 299 259 125 259 125 260 299 260 123 260 299 261 297 261 123 261 123 262 297 262 213 262 297 263 295 263 213 263 213 264 295 264 211 264 333 265 331 265 3 265 331 265 2 265 3 265 189 266 217 266 367 266 189 267 367 267 187 267 367 268 365 268 187 268 187 269 365 269 66 269 365 270 363 270 66 270 66 271 363 271 64 271 363 272 361 272 64 272 64 273 361 273 62 273 361 274 359 274 62 274 62 275 359 275 60 275 359 276 357 276 60 276 60 277 357 277 158 277 357 278 355 278 158 278 158 279 355 279 156 279 355 280 353 280 156 280 156 281 353 281 154 281 353 282 351 282 154 282 154 283 351 283 132 283 351 284 349 284 132 284 132 285 349 285 103 285 103 286 349 286 101 286 349 287 347 287 101 287 101 288 347 288 84 288 84 289 347 289 82 289 347 290 345 290 82 290 82 291 345 291 80 291 80 292 345 292 78 292 345 293 343 293 78 293 78 294 343 294 76 294 76 295 343 295 44 295 343 296 341 296 44 296 44 297 341 297 42 297 42 298 341 298 40 298 341 299 339 299 40 299 40 300 339 300 17 300 17 301 339 301 15 301 339 302 337 302 15 302 15 303 337 303 13 303 13 304 337 304 9 304 337 305 335 305 9 305 9 306 335 306 7 306 7 307 335 307 5 307 335 308 333 308 5 308 5 309 333 309 3 309 253 310 251 310 50 310 50 311 26 311 253 311 26 312 24 312 253 312 253 313 24 313 255 313 24 314 34 314 255 314 255 315 34 315 33 315 249 316 247 316 86 316 86 317 85 317 249 317 85 318 53 318 249 318 249 319 53 319 251 319 53 320 51 320 251 320 251 321 51 321 50 321 245 322 243 322 141 322 141 323 92 323 245 323 92 324 90 324 245 324 245 325 90 325 247 325 90 326 88 326 247 326 247 327 88 327 86 327 148 328 146 328 241 328 146 329 144 329 241 329 241 330 144 330 243 330 144 331 142 331 243 331 243 332 142 332 141 332 241 333 239 333 148 333 239 334 237 334 148 334 148 335 237 335 164 335 237 336 235 336 164 336 164 337 235 337 202 337 235 338 233 338 202 338 202 339 233 339 200 339 233 340 231 340 200 340 200 341 231 341 198 341 231 342 229 342 198 342 198 343 229 343 110 343 229 344 227 344 110 344 110 345 227 345 108 345 227 346 225 346 108 346 108 347 225 347 106 347 225 348 223 348 106 348 106 349 223 349 104 349 223 350 221 350 104 350 104 351 221 351 193 351 221 352 219 352 193 352 193 353 219 353 191 353 219 354 217 354 191 354 217 354 189 354 191 354 209 355 293 355 291 355 209 356 291 356 207 356 291 357 289 357 207 357 207 358 289 358 100 358 289 359 287 359 100 359 100 360 287 360 98 360 287 361 285 361 98 361 98 362 285 362 96 362 285 363 283 363 96 363 96 364 283 364 94 364 283 365 281 365 94 365 94 366 281 366 173 366 281 367 279 367 173 367 173 368 279 368 171 368 279 369 277 369 171 369 171 370 277 370 169 370 277 371 275 371 169 371 169 372 275 372 151 372 275 373 273 373 151 373 151 374 273 374 122 374 271 375 269 375 115 375 115 376 117 376 271 376 117 377 119 377 271 377 271 378 119 378 273 378 119 379 120 379 273 379 273 380 120 380 122 380 267 381 265 381 57 381 57 382 59 382 267 382 59 383 111 383 267 383 267 384 111 384 269 384 111 385 113 385 269 385 269 386 113 386 115 386 263 387 261 387 35 387 35 388 37 388 263 388 37 389 39 389 263 389 263 390 39 390 265 390 39 391 55 391 265 391 265 392 55 392 57 392 259 393 257 393 31 393 31 394 29 394 259 394 29 395 12 395 259 395 259 396 12 396 261 396 12 397 11 397 261 397 261 398 11 398 35 398 4 399 332 399 6 399 332 400 334 400 6 400 336 401 14 401 334 401 14 402 8 402 334 402 334 403 8 403 6 403 338 404 41 404 336 404 41 405 16 405 336 405 336 406 16 406 14 406 340 407 77 407 338 407 77 408 43 408 338 408 338 409 43 409 41 409 342 410 81 410 340 410 81 411 79 411 340 411 340 412 79 412 77 412 344 413 102 413 342 413 102 414 83 414 342 414 342 415 83 415 81 415 346 416 131 416 344 416 131 417 130 417 344 417 344 418 130 418 102 418 155 419 153 419 346 419 153 420 152 420 346 420 346 421 152 421 131 421 346 422 348 422 155 422 348 423 350 423 155 423 155 424 350 424 157 424 350 425 352 425 157 425 157 426 352 426 159 426 352 427 354 427 159 427 159 428 354 428 160 428 354 429 356 429 160 429 160 430 356 430 61 430 356 431 358 431 61 431 61 432 358 432 63 432 358 433 360 433 63 433 63 434 360 434 65 434 360 435 362 435 65 435 65 436 362 436 185 436 362 437 364 437 185 437 185 438 364 438 186 438 364 439 366 439 186 439 186 440 366 440 188 440 366 441 216 441 188 441 188 442 216 442 190 442 190 220 216 220 192 220 216 220 218 220 192 220 192 443 218 443 220 443 192 444 220 444 194 444 220 445 222 445 194 445 194 446 222 446 195 446 222 447 224 447 195 447 195 448 224 448 105 448 224 449 226 449 105 449 105 450 226 450 107 450 226 451 228 451 107 451 107 452 228 452 109 452 228 453 230 453 109 453 109 454 230 454 196 454 230 455 232 455 196 455 196 456 232 456 197 456 232 457 234 457 197 457 197 458 234 458 199 458 234 459 236 459 199 459 199 460 236 460 201 460 236 461 238 461 201 461 201 462 238 462 203 462 240 463 242 463 147 463 147 464 166 464 240 464 166 465 165 465 240 465 240 466 165 466 238 466 165 467 204 467 238 467 238 468 204 468 203 468 244 469 246 469 91 469 91 470 93 470 244 470 93 471 143 471 244 471 244 472 143 472 242 472 143 473 145 473 242 473 242 474 145 474 147 474 248 475 250 475 52 475 52 476 54 476 248 476 54 477 87 477 248 477 248 478 87 478 246 478 87 479 89 479 246 479 246 480 89 480 91 480 252 481 254 481 32 481 32 482 23 482 252 482 23 483 25 483 252 483 252 484 25 484 250 484 25 485 27 485 250 485 250 486 27 486 52 486 32 265 254 265 30 265 254 265 256 265 30 265 258 487 260 487 38 487 38 488 36 488 258 488 36 489 10 489 258 489 258 490 10 490 256 490 10 491 28 491 256 491 256 492 28 492 30 492 262 493 264 493 114 493 114 494 112 494 262 494 112 495 58 495 262 495 262 496 58 496 260 496 58 497 56 497 260 497 260 498 56 498 38 498 266 499 268 499 149 499 149 500 121 500 266 500 121 501 118 501 266 501 266 502 118 502 264 502 118 503 116 503 264 503 264 504 116 504 114 504 170 505 168 505 270 505 168 506 167 506 270 506 270 507 167 507 268 507 167 508 150 508 268 508 268 509 150 509 149 509 270 510 272 510 170 510 272 511 274 511 170 511 170 512 274 512 172 512 274 513 276 513 172 513 172 514 276 514 174 514 276 515 278 515 174 515 174 516 278 516 175 516 278 517 280 517 175 517 175 518 280 518 95 518 280 519 282 519 95 519 95 520 282 520 97 520 282 521 284 521 97 521 97 522 284 522 99 522 284 523 286 523 99 523 99 524 286 524 205 524 286 525 288 525 205 525 205 526 288 526 206 526 288 527 290 527 206 527 206 528 290 528 208 528 290 529 292 529 208 529 208 530 292 530 210 530 210 354 292 354 212 354 292 354 294 354 212 354 212 531 294 531 296 531 212 532 296 532 214 532 296 533 298 533 214 533 214 534 298 534 215 534 298 535 300 535 215 535 215 536 300 536 124 536 300 537 302 537 124 537 124 538 302 538 126 538 302 539 304 539 126 539 126 540 304 540 128 540 304 541 306 541 128 541 128 542 306 542 176 542 306 543 308 543 176 543 176 544 308 544 177 544 308 545 310 545 177 545 177 546 310 546 179 546 310 547 312 547 179 547 179 548 312 548 181 548 312 549 314 549 181 549 181 550 314 550 183 550 183 551 314 551 184 551 314 552 316 552 184 552 184 553 316 553 162 553 162 554 316 554 163 554 316 555 318 555 163 555 163 556 318 556 139 556 139 557 318 557 137 557 318 558 320 558 137 558 137 559 320 559 135 559 135 560 320 560 75 560 320 561 322 561 75 561 75 562 322 562 73 562 73 563 322 563 71 563 322 564 324 564 71 564 71 565 324 565 69 565 69 566 324 566 49 566 324 567 326 567 49 567 49 568 326 568 47 568 47 569 326 569 22 569 326 570 328 570 22 570 22 571 328 571 20 571 20 572 328 572 0 572 328 573 330 573 0 573 0 574 330 574 1 574 1 575 330 575 4 575 330 575 332 575 4 575 257 575 255 575 31 575 255 575 33 575 31 575</p>
        </triangles>
      </mesh>
    </geometry>
  </library_geometries>
  <library_visual_scenes>
    <visual_scene id="Scene" name="Scene">
      <node id="chassis_default_as_machined__22" name="chassis_default_as_machined__22" type="NODE">
        <matrix sid="transform">1 0 0 0 0 1 0 0 0 0 1 0 0 0 0 1</matrix>
        <instance_geometry url="#chassis_default_as_machined__22-mesh" name="chassis_default_as_machined__22"/>
      </node>
    </visual_scene>
  </library_visual_scenes>
  <scene>
    <instance_visual_scene url="#Scene"/>
  </scene>
</COLLADA>