<?xml version="1.0" encoding="utf-8"?>
<COLLADA xmlns="http://www.collada.org/2005/11/COLLADASchema" version="1.4.1" xmlns:xsi="http://www.w3.org/2001/XMLSchema-instance">
  <asset>
    <contributor>
      <author>Blender User</author>
      <authoring_tool>Blender 3.0.1</authoring_tool>
    </contributor>
    <created>2026-06-04T16:18:27</created>
    <modified>2026-06-04T16:18:27</modified>
    <unit name="meter" meter="1"/>
    <up_axis>Z_UP</up_axis>
  </asset>
  <library_images/>
  <library_geometries>
    <geometry id="chassis_default_as_machined__10-mesh" name="chassis_default_as_machined__10">
      <mesh>
        <source id="chassis_default_as_machined__10-mesh-positions">
          <float_array id="chassis_default_as_machined__10-mesh-positions-array" count="1104">-0.6124 0.185 0.3098 -0.615 0.185 0.3098 -0.6123901 0.185 0.3100266 -0.6149802 0.185 0.3102532 -0.6123605 0.185 0.3102515 -0.614921 0.185 0.310703 -0.6123114 0.185 0.3104729 -0.6148228 0.185 0.3111459 -0.6122432 0.185 0.3106892 -0.6146864 0.185 0.3115785 -0.6121564 0.185 0.3108988 -0.6145128 0.185 0.3119976 -0.6120517 0.185 0.3111 -0.6143034 0.185 0.3124 -0.6119298 0.185 0.3112913 -0.6140596 0.185 0.3127826 -0.6117917 0.185 0.3114712 -0.6137834 0.185 0.3131425 -0.6116385 0.185 0.3116385 -0.6134769 0.185 0.3134769 -0.6114712 0.185 0.3117917 -0.6131425 0.185 0.3137834 -0.6112913 0.185 0.3119298 -0.6127826 0.185 0.3140596 -0.6111 0.185 0.3120517 -0.6124 0.185 0.3143033 -0.6108988 0.185 0.3121564 -0.6119976 0.185 0.3145128 -0.6106892 0.185 0.3122432 -0.6115785 0.185 0.3146864 -0.6104729 0.185 0.3123114 -0.6111459 0.185 0.3148228 -0.6102515 0.185 0.3123605 -0.610703 0.185 0.314921 -0.6100266 0.185 0.3123901 -0.6102532 0.185 0.3149802 -0.6098 0.185 0.3124 -0.6098 0.185 0.315 -0.5902 0.185 0.3124 -0.5902 0.185 0.315 -0.5899734 0.185 0.3123901 -0.5897468 0.185 0.3149802 -0.5897485 0.185 0.3123605 -0.5892971 0.185 0.314921 -0.5895271 0.185 0.3123114 -0.5888541 0.185 0.3148228 -0.5893108 0.185 0.3122432 -0.5884215 0.185 0.3146864 -0.5891012 0.185 0.3121564 -0.5880024 0.185 0.3145128 -0.5889 0.185 0.3120517 -0.5876 0.185 0.3143033 -0.5887087 0.185 0.3119298 -0.5872174 0.185 0.3140596 -0.5885288 0.185 0.3117917 -0.5868575 0.185 0.3137834 -0.5883615 0.185 0.3116385 -0.5865231 0.185 0.3134769 -0.5882083 0.185 0.3114712 -0.5862166 0.185 0.3131425 -0.5880702 0.185 0.3112913 -0.5859404 0.185 0.3127826 -0.5879483 0.185 0.3111 -0.5856967 0.185 0.3124 -0.5878436 0.185 0.3108988 -0.5854872 0.185 0.3119976 -0.5877568 0.185 0.3106892 -0.5853136 0.185 0.3115785 -0.5876886 0.185 0.3104729 -0.5851772 0.185 0.3111459 -0.5876395 0.185 0.3102515 -0.585079 0.185 0.310703 -0.5876099 0.185 0.3100266 -0.5850198 0.185 0.3102532 -0.5876 0.185 0.3098 -0.585 0.185 0.3098 -0.5876 0.185 0.2902 -0.585 0.185 0.2902 -0.5876099 0.185 0.2899734 -0.5850198 0.185 0.2897468 -0.5876395 0.185 0.2897485 -0.585079 0.185 0.2892971 -0.5876886 0.185 0.2895271 -0.5851772 0.185 0.2888541 -0.5877568 0.185 0.2893108 -0.5853136 0.185 0.2884215 -0.5878436 0.185 0.2891012 -0.5854872 0.185 0.2880024 -0.5879483 0.185 0.2889 -0.5856967 0.185 0.2876 -0.5880702 0.185 0.2887087 -0.5859404 0.185 0.2872174 -0.5882083 0.185 0.2885288 -0.5862166 0.185 0.2868575 -0.5883615 0.185 0.2883615 -0.5865231 0.185 0.2865231 -0.5885288 0.185 0.2882083 -0.5868575 0.185 0.2862166 -0.5887087 0.185 0.2880702 -0.5872174 0.185 0.2859404 -0.5889 0.185 0.2879483 -0.5876 0.185 0.2856966 -0.5891012 0.185 0.2878436 -0.5880024 0.185 0.2854872 -0.5893108 0.185 0.2877568 -0.5884215 0.185 0.2853136 -0.5895271 0.185 0.2876886 -0.5888541 0.185 0.2851772 -0.5897485 0.185 0.2876395 -0.5892971 0.185 0.285079 -0.5899734 0.185 0.2876099 -0.5897468 0.185 0.2850198 -0.5902 0.185 0.2876 -0.5902 0.185 0.285 -0.6098 0.185 0.2876 -0.6098 0.185 0.285 -0.6100266 0.185 0.2876099 -0.6102532 0.185 0.2850198 -0.6102515 0.185 0.2876395 -0.610703 0.185 0.285079 -0.6104729 0.185 0.2876886 -0.6111459 0.185 0.2851772 -0.6106892 0.185 0.2877568 -0.6115785 0.185 0.2853136 -0.6108988 0.185 0.2878436 -0.6119976 0.185 0.2854872 -0.6111 0.185 0.2879483 -0.6124 0.185 0.2856966 -0.6112913 0.185 0.2880702 -0.6127826 0.185 0.2859404 -0.6114712 0.185 0.2882083 -0.6131425 0.185 0.2862166 -0.6116385 0.185 0.2883615 -0.6134769 0.185 0.2865231 -0.6117917 0.185 0.2885288 -0.6137834 0.185 0.2868575 -0.6119298 0.185 0.2887087 -0.6140596 0.185 0.2872174 -0.6120517 0.185 0.2889 -0.6143034 0.185 0.2876 -0.6121564 0.185 0.2891012 -0.6145128 0.185 0.2880024 -0.6122432 0.185 0.2893108 -0.6146864 0.185 0.2884215 -0.6123114 0.185 0.2895271 -0.6148228 0.185 0.2888541 -0.6123605 0.185 0.2897485 -0.614921 0.185 0.2892971 -0.6123901 0.185 0.2899734 -0.6149802 0.185 0.2897468 -0.6124 0.185 0.2902 -0.615 0.185 0.2902 -0.5892971 0.01492094 0.285079 -0.5895213 0.01495546 0.2850445 -0.5897468 0.01498019 0.2850198 -0.5899732 0.01499503 0.2850049 -0.5902 0.01499998 0.285 -0.5884215 0.0146864 0.2853136 -0.5886363 0.0147593 0.2852407 -0.5888541 0.01482278 0.2851772 -0.5890745 0.01487672 0.2851232 -0.5876 0.01430332 0.2856966 -0.5877989 0.0144124 0.2855876 -0.5880024 0.01451277 0.2854872 -0.5882101 0.01460415 0.2853958 -0.5868575 0.01378339 0.2862166 -0.5870345 0.01392543 0.2860745 -0.5872174 0.01405954 0.2859404 -0.587406 0.0141856 0.2858144 -0.5865231 0.0134769 0.2865231 -0.5862166 0.01314246 0.2868575 -0.5859404 0.01278257 0.2872174 -0.5856967 0.01239997 0.2876 -0.5854872 0.01199758 0.2880024 -0.5853136 0.0115785 0.2884215 -0.5851772 0.01114583 0.2888541 -0.585079 0.01070296 0.2892971 -0.5850198 0.01025319 0.2897468 -0.585 0.009799957 0.2902 -0.5876 0.009799957 0.2902 -0.5876099 0.01002657 0.2899734 -0.5876395 0.01025146 0.2897485 -0.5876886 0.01047289 0.2895271 -0.5877568 0.01068919 0.2893108 -0.5878436 0.01089876 0.2891012 -0.5879483 0.01109999 0.2889 -0.5880702 0.01129126 0.2887087 -0.5882083 0.01147121 0.2885288 -0.5883615 0.01163846 0.2883615 -0.5885288 0.0117917 0.2882083 -0.5889 0.01205164 0.2879483 -0.588803 0.01199281 0.2880071 -0.5887087 0.01192975 0.2880702 -0.5886172 0.01186269 0.2881373 -0.5893108 0.01224315 0.2877568 -0.589205 0.01220208 0.2877979 -0.5891012 0.01215636 0.2878436 -0.5889995 0.01210618 0.2878938 -0.5897485 0.01236045 0.2876395 -0.5896373 0.01233834 0.2876616 -0.5895271 0.01231139 0.2876886 -0.5894182 0.01227962 0.2877203 -0.5902 0.01239997 0.2876 -0.5900866 0.01239752 0.2876025 -0.5899734 0.01239007 0.2876099 -0.5898606 0.01237773 0.2876222 -0.5876 -0.009799957 0.3098 -0.5902 -0.01239997 0.3124 -0.5900866 -0.01239752 0.3123975 -0.5898606 -0.01237773 0.3123778 -0.5899734 -0.01239007 0.3123901 -0.5896373 -0.01233834 0.3123384 -0.5897485 -0.01236045 0.3123605 -0.5894182 -0.01227962 0.3122797 -0.5895271 -0.01231139 0.3123114 -0.589205 -0.01220208 0.3122021 -0.5893108 -0.01224315 0.3122432 -0.5889995 -0.01210618 0.3121062 -0.5891012 -0.01215636 0.3121564 -0.588803 -0.01199281 0.3119928 -0.5889 -0.01205164 0.3120517 -0.5885288 -0.0117917 0.3117917 -0.5886172 -0.01186269 0.3118627 -0.5887087 -0.01192975 0.3119298 -0.5883615 -0.01163846 0.3116385 -0.5882083 -0.01147121 0.3114712 -0.5880702 -0.01129126 0.3112913 -0.5879483 -0.01109999 0.3111 -0.5878436 -0.01089876 0.3108988 -0.5877568 -0.01068919 0.3106892 -0.5876886 -0.01047289 0.3104729 -0.5876395 -0.01025146 0.3102515 -0.5876099 -0.01002657 0.3100266 -0.6098 -0.01239997 0.3124 -0.6124 -0.009799957 0.3098 -0.6124 0.009799957 0.2902 -0.6123901 -0.01002657 0.3100266 -0.6123605 -0.01025146 0.3102515 -0.6123114 -0.01047289 0.3104729 -0.6122432 -0.01068919 0.3106892 -0.6121564 -0.01089876 0.3108988 -0.6120517 -0.01109999 0.3111 -0.6119298 -0.01129126 0.3112913 -0.6117917 -0.01147121 0.3114712 -0.6116385 -0.01163846 0.3116385 -0.6114712 -0.0117917 0.3117917 -0.6113828 -0.01186269 0.3118627 -0.6112913 -0.01192975 0.3119298 -0.611197 -0.01199281 0.3119928 -0.6111 -0.01205164 0.3120517 -0.6110005 -0.01210618 0.3121062 -0.6108988 -0.01215636 0.3121564 -0.610795 -0.01220208 0.3122021 -0.6106892 -0.01224315 0.3122432 -0.6105818 -0.01227962 0.3122797 -0.6104729 -0.01231139 0.3123114 -0.6103628 -0.01233834 0.3123384 -0.6102515 -0.01236045 0.3123605 -0.6101394 -0.01237773 0.3123778 -0.6100266 -0.01239007 0.3123901 -0.6099134 -0.01239752 0.3123975 -0.6098 0.01239997 0.2876 -0.6102515 0.01236045 0.2876395 -0.6101394 0.01237773 0.2876222 -0.6100266 0.01239007 0.2876099 -0.6099134 0.01239752 0.2876025 -0.6106892 0.01224315 0.2877568 -0.6105818 0.01227962 0.2877203 -0.6104729 0.01231139 0.2876886 -0.6103628 0.01233834 0.2876616 -0.6111 0.01205164 0.2879483 -0.6110005 0.01210618 0.2878938 -0.6108988 0.01215636 0.2878436 -0.610795 0.01220208 0.2877979 -0.6114712 0.0117917 0.2882083 -0.6113828 0.01186269 0.2881373 -0.6112913 0.01192975 0.2880702 -0.611197 0.01199281 0.2880071 -0.6116385 0.01163846 0.2883615 -0.6117917 0.01147121 0.2885288 -0.6119298 0.01129126 0.2887087 -0.6120517 0.01109999 0.2889 -0.6121564 0.01089876 0.2891012 -0.6122432 0.01068919 0.2893108 -0.6123114 0.01047289 0.2895271 -0.6123605 0.01025146 0.2897485 -0.6123901 0.01002657 0.2899734 -0.6098 0.01499998 0.285 -0.6100268 0.01499503 0.2850049 -0.6102532 0.01498019 0.2850198 -0.6104788 0.01495546 0.2850445 -0.5895213 -0.01495546 0.3149555 -0.5897468 -0.01498019 0.3149802 -0.610703 0.01492094 0.285079 -0.6109255 0.01487672 0.2851232 -0.6111459 0.01482278 0.2851772 -0.6102532 -0.01498019 0.3149802 -0.6104788 -0.01495546 0.3149555 -0.5899732 -0.01499503 0.3149951 -0.5902 -0.01499998 0.315 -0.6098 -0.01499998 0.315 -0.6100268 -0.01499503 0.3149951 -0.5892971 -0.01492094 0.314921 -0.5890745 -0.01487672 0.3148767 -0.5888541 -0.01482278 0.3148228 -0.6113637 0.0147593 0.2852407 -0.6115785 0.0146864 0.2853136 -0.61179 0.01460415 0.2853958 -0.610703 -0.01492094 0.314921 -0.6109255 -0.01487672 0.3148767 -0.6111459 -0.01482278 0.3148228 -0.5886363 -0.0147593 0.3147593 -0.5884215 -0.0146864 0.3146864 -0.5882101 -0.01460415 0.3146042 -0.6119976 0.01451277 0.2854872 -0.6122011 0.0144124 0.2855876 -0.6124 0.01430332 0.2856966 -0.612594 0.0141856 0.2858144 -0.6127826 0.01405954 0.2859404 -0.6145128 0.01199758 0.2880024 -0.6146864 0.0115785 0.2884215 -0.6148228 0.01114583 0.2888541 -0.614921 0.01070296 0.2892971 -0.614921 -0.01070296 0.310703 -0.6148228 -0.01114583 0.3111459 -0.6146864 -0.0115785 0.3115785 -0.6145128 -0.01199758 0.3119976 -0.6113637 -0.0147593 0.3147593 -0.6115785 -0.0146864 0.3146864 -0.61179 -0.01460415 0.3146042 -0.6119976 -0.01451277 0.3145128 -0.6122011 -0.0144124 0.3144124 -0.5854872 -0.01199758 0.3119976 -0.5853136 -0.0115785 0.3115785 -0.5851772 -0.01114583 0.3111459 -0.585079 -0.01070296 0.310703 -0.6129656 0.01392543 0.2860745 -0.6131425 0.01378339 0.2862166 -0.5880024 -0.01451277 0.3145128 -0.5877989 -0.0144124 0.3144124 -0.5876 -0.01430332 0.3143033 -0.587406 -0.0141856 0.3141856 -0.5872174 -0.01405954 0.3140596 -0.5870345 -0.01392543 0.3139255 -0.5868575 -0.01378339 0.3137834 -0.6134769 0.0134769 0.2865231 -0.6124 -0.01430332 0.3143033 -0.612594 -0.0141856 0.3141856 -0.6127826 -0.01405954 0.3140596 -0.6129656 -0.01392543 0.3139255 -0.6131425 -0.01378339 0.3137834 -0.5865231 -0.0134769 0.3134769 -0.6137834 0.01314246 0.2868575 -0.6140596 0.01278257 0.2872174 -0.6143034 0.01239997 0.2876 -0.6134769 -0.0134769 0.3134769 -0.5862166 -0.01314246 0.3131425 -0.5859404 -0.01278257 0.3127826 -0.5856967 -0.01239997 0.3124 -0.6149802 0.01025319 0.2897468 -0.615 0.009799957 0.2902 -0.615 -0.009799957 0.3098 -0.6149802 -0.01025319 0.3102532 -0.6143034 -0.01239997 0.3124 -0.6140596 -0.01278257 0.3127826 -0.6137834 -0.01314246 0.3131425 -0.5850198 -0.01025319 0.3102532 -0.585 -0.009799957 0.3098</float_array>
          <technique_common>
            <accessor source="#chassis_default_as_machined__10-mesh-positions-array" count="368" stride="3">
              <param name="X" type="float"/>
              <param name="Y" type="float"/>
              <param name="Z" type="float"/>
            </accessor>
          </technique_common>
        </source>
        <source id="chassis_default_as_machined__10-mesh-normals">
          <float_array id="chassis_default_as_machined__10-mesh-normals-array" count="1734">0 1 0 0 1 4.94022e-5 0 1 -9.87752e-5 0 1 4.93974e-5 0 1 2.47036e-5 0 1 -2.46987e-5 0 1 4.94071e-5 0 1 -4.93876e-5 0 1 1.23493e-5 0 1 2.02726e-6 0 1 2.46938e-5 0 1 -2.47036e-5 0 1 9.87752e-5 0 1 -4.94022e-5 0 1 9.87947e-5 0 1 -4.93974e-5 0 1 -2.02486e-6 0 1 -1.23469e-5 0 1 -9.88142e-5 0.1305698 0 -0.9914391 0.1520248 5.80076e-5 -0.9883767 0.1089582 0 -0.9940464 0.04366087 0 -0.9990465 0.0654934 5.8263e-5 -0.9978531 0.02170479 0 -0.9997645 0.300792 0 -0.9536899 0.3213621 5.80539e-5 -0.9469564 0.2798345 0 -0.9600483 0.2163645 0 -0.9763128 0.2377183 5.79895e-5 -0.9713342 0.1949136 0 -0.9808205 0.461741 0 -0.8870149 0.4811697 5.83133e-5 -0.8766275 0.442249 0 -0.8968923 0.3827087 0 -0.9238691 0.4026514 5.83795e-5 -0.9153534 0.3623467 0 -0.9320434 0.625994 5.73994e-5 -0.7798279 0.5913952 0 -0.8063819 0.5373483 0 -0.8433604 0.555478 5.71207e-5 -0.8315313 0.5186906 0 -0.8549621 0.6087533 0 -0.7933597 0.6756149 0 -0.7372548 0.6756354 0 -0.737236 0.7372763 0 -0.6755914 0.7372757 0 -0.675592 0.7933466 0 -0.6087702 0.7933685 0 -0.6087418 0.8434206 0 -0.5372539 0.8434028 0 -0.5372819 0.8869803 0 -0.4618075 0.8869452 0 -0.4618749 0.9239224 0 -0.38258 0.9238867 0 -0.3826664 0.9537084 0 -0.3007334 0.9536987 0 -0.3007639 0.9763107 0 -0.2163735 0.9763048 0 -0.2164 0.9914356 0 -0.1305968 0.9914337 0 -0.1306108 0.9990481 0 -0.04362457 0.9990481 0 -0.04362279 -0.9990479 0 0.04362684 -0.9990476 0 0.04363596 -0.9914374 0 0.1305826 -0.9914368 0 0.1305877 -0.9763244 0 0.2163112 -0.9763384 0 0.2162485 -0.9536604 0 0.3008854 -0.9536652 0 0.3008702 -0.923914 0 0.3826003 -0.9239388 0 0.3825406 -0.8870525 0 0.4616685 -0.8869492 0 0.461867 -0.8433499 0 0.5373649 -0.8433451 0 0.5373724 -0.7934656 0 0.6086151 -0.7933497 0 0.6087663 -0.7373609 0 0.675499 -0.7372533 0 0.6756165 -0.675486 0 0.7373729 -0.6757077 0 0.7371698 -0.5373768 0 0.8433423 -0.5182865 -2.89011e-5 0.8552071 -0.555685 0 0.8313931 -0.6087112 0 0.7933919 -0.5911805 -2.92551e-5 0.8065394 -0.6259514 0 0.7798622 -0.3825553 0 0.9239326 -0.3624747 -2.83851e-5 0.9319936 -0.4024682 0 0.9154341 -0.4619923 0 0.886884 -0.4423911 -2.89251e-5 0.8968223 -0.4806526 0 0.8769112 -0.2165337 0 0.9762752 -0.194812 -2.82397e-5 0.9808407 -0.2373055 0 0.9714351 -0.3009223 0 0.9536488 -0.2798457 -2.84055e-5 0.9600451 -0.3215135 0 0.946905 -0.04357922 0 0.9990501 -0.02168655 -2.86557e-5 0.9997649 -0.06582975 0 0.9978309 -0.1305417 0 0.9914429 -0.1084271 -2.86078e-5 0.9941045 -0.1524096 0 0.9883174 -1 0 0 -0.02129143 0 -0.9997733 -0.04359573 -1.25325e-5 -0.9990493 -0.1309613 -1.25129e-5 -0.9913876 -0.1084703 0 -0.9940997 -0.06581431 0 -0.997832 -0.2165639 -1.24357e-5 -0.9762685 -0.1947588 0 -0.9808512 -0.1517722 0 -0.9884155 -0.3008801 -1.24393e-5 -0.9536621 -0.2799575 0 -0.9600124 -0.2371721 0 -0.9714677 -0.3825979 -1.26875e-5 -0.923915 -0.3619813 0 -0.9321854 -0.3215473 0 -0.9468936 -0.4618287 -1.26952e-5 -0.8869692 -0.4420933 0 -0.896969 -0.4031576 0 -0.9151306 -0.5373239 -1.2699e-5 -0.8433761 -0.5186929 0 -0.8549607 -0.4811338 0 -0.8766472 -0.626235 -2.57258e-5 -0.7796344 -0.591056 0 -0.8066306 -0.5553544 0 -0.8316138 -0.6086522 0 -0.7934371 -0.6755933 0 -0.7372745 -0.6756071 0 -0.737262 -0.7372961 0 -0.6755697 -0.737201 0 -0.6756736 -0.7934758 0 -0.6086021 -0.7933731 0 -0.6087357 -0.8433542 0 -0.5373581 -0.8433983 0 -0.537289 -0.887048 0 -0.4616773 -0.886992 0 -0.4617849 -0.9239084 0 -0.3826137 -0.9239059 0 -0.38262 -0.9536544 0 -0.3009045 -0.9536738 0 -0.3008428 -0.9763334 0 -0.2162711 -0.9763301 0 -0.216286 -0.9914313 0 -0.1306293 -0.9914364 0 -0.1305903 -0.9990482 0 -0.04361915 -0.9990482 0 -0.04361993 0 0 -1 1 0 0 0.9990482 0 -0.04361993 0.9990482 0 -0.04361915 0.9914336 0 -0.1306121 0.9914342 0 -0.1306075 0.976338 0 -0.2162504 0.9763255 0 -0.2163065 0.9536586 0 -0.3008909 0.9536696 0 -0.3008563 0.9239058 0 -0.38262 0.9239085 0 -0.3826137 0.8870278 0 -0.4617162 0.8870123 0 -0.4617458 0.8433983 0 -0.5372889 0.8433542 0 -0.5373581 0.7933731 0 -0.6087356 0.7934756 0 -0.6086021 0.7371247 0 -0.6757568 0.7373723 0 -0.6754866 0.6755163 0 -0.7373451 0.675684 0 -0.7371915 0.6259056 0 -0.779899 0.6088292 -1.25462e-5 -0.7933015 0.591056 0 -0.8066306 0.5552632 0 -0.8316747 0.537443 -1.23762e-5 -0.8433001 0.5189258 0 -0.8548193 0.4808775 0 -0.8767879 0.4617211 -1.25295e-5 -0.8870252 0.4420933 0 -0.896969 0.4030368 0 -0.9151839 0.3825979 -1.25248e-5 -0.923915 0.3619813 0 -0.9321854 0.3216711 0 -0.9468514 0.3008801 -1.26832e-5 -0.9536621 0.2799575 0 -0.9600124 0.2374351 0 -0.9714034 0.2165639 -1.27202e-5 -0.9762685 0.1946585 0 -0.9808712 0.151763 0 -0.9884169 0.1309613 -1.25332e-5 -0.9913876 0.1084703 0 -0.9940997 0.06588405 0 -0.9978274 0.04359573 -1.25376e-5 -0.9990493 0.02129143 0 -0.9997733 0 0 1 0.1303327 0 0.9914703 0.1525799 -2.8751e-5 0.9882912 0.1088184 0 0.9940617 0.04376667 0 0.9990419 0.0654565 -2.86745e-5 0.9978555 0.0216723 0 0.9997652 0.3006412 0 0.9537373 0.3217673 -2.89712e-5 0.9468189 0.2802904 0 0.9599153 0.2162936 0 0.9763283 0.237497 -2.87126e-5 0.9713883 0.1951765 0 0.9807682 0.4616646 0 0.8870546 0.4809696 -2.85677e-5 0.8767373 0.4422897 0 0.8968723 0.3825535 0 0.9239333 0.4026482 -2.84048e-5 0.9153548 0.3622749 0 0.9320713 0.6256921 -2.85492e-5 0.7800701 0.5912268 0 0.8065055 0.5372267 0 0.843438 0.5557064 -2.81913e-5 0.8313786 0.519 0 0.8547744 0.6087639 0 0.7933515 0.6756047 0 0.7372641 0.675589 0 0.7372785 0.7371667 0 0.6757109 0.7374473 0 0.6754047 0.7934198 0 0.6086748 0.7933956 0 0.6087064 0.8433451 0 0.5373724 0.8433499 0 0.5373648 0.8869895 0 0.4617897 0.8870124 0 0.4617457 0.9239111 0 0.3826073 0.9239416 0 0.3825336 0.9536481 0 0.3009243 0.9536774 0 0.3008314 0.9763473 0 0.2162088 0.9763157 0 0.216351 0.9914368 0 0.1305877 0.9914374 0 0.1305826 0.9990476 0 0.04363596 0.9990479 0 0.04362684 0 -0.706929 -0.7072846 0 -0.7071096 -0.707104 0 -0.707108 -0.7071056 0 -0.7070686 -0.7071449 2.79198e-4 -0.706929 -0.7072845 -1.3953e-4 -0.707418 -0.7067955 2.79336e-4 -0.7067193 -0.707494 1.39577e-4 -0.7070948 -0.7071188 -1.11251e-4 -0.707118 -0.7070956 -1.3934e-4 -0.7070088 -0.7072048 5.60369e-4 -0.7071855 -0.7070279 -1.39343e-4 -0.7070251 -0.7071884 2.80197e-4 -0.7072162 -0.7069973 -1.39316e-4 -0.7071688 -0.7070448 -1.39516e-4 -0.7073476 -0.7068659 1.3964e-4 -0.7068596 -0.7073538 -2.79005e-4 -0.7075568 -0.7066565 -1.39622e-4 -0.7070479 -0.7071657 2.79098e-4 -0.7072343 -0.7069792 -2.79336e-4 -0.7067193 -0.707494 0 -0.7072343 -0.7069792 2.79005e-4 -0.7075568 -0.7066565 0 -0.7068594 -0.7073541 2.79088e-4 -0.7072082 -0.7070054 -2.79088e-4 -0.7072082 -0.7070054 0 -0.7071048 -0.7071088 0 -0.7071032 -0.7071105 2.78978e-4 -0.707487 -0.7067264 -1.74429e-5 -0.7073523 -0.7068612 0 -0.7070099 -0.7072037 -2.80185e-4 -0.7071878 -0.7070258 1.3927e-4 -0.7072135 -0.7070002 0 -0.706936 -0.7072776 1.39371e-4 -0.7068901 -0.7073234 0 -0.706803 -0.7074105 -2.82139e-4 -0.7076048 -0.7066084 0 -0.7070049 -0.7072087 0 -0.7072127 -0.7070009 1.38811e-4 -0.7071025 -0.7071111 -2.7922e-4 -0.7069857 -0.7072278 -2.80308e-4 -0.706936 -0.7072775 0 -0.7075991 -0.7066143 1.3961e-4 -0.7069836 -0.70723 0 -0.7072162 -0.7069973 0 -0.7068615 -0.707352 -1.38752e-4 -0.7073583 -0.7068552 2.82659e-4 -0.7066473 -0.7075659 -1.38808e-4 -0.7070873 -0.7071263 2.82253e-4 -0.7073251 -0.7068884 0 -0.7070222 -0.7071914 0 -0.7070873 -0.7071263 0 -0.7073251 -0.7068885 -1.38795e-4 -0.7070222 -0.7071914 2.82513e-4 -0.7068463 -0.7073672 -1.38775e-4 -0.7071957 -0.7070179 -2.82289e-4 -0.7074155 -0.706798 1.38799e-4 -0.7070418 -0.7071719 0 -0.7073581 -0.7068554 0 -0.707137 -0.7070766 0 -0.7072541 -0.7069595 0 -0.7069839 -0.7072297 1.38007e-4 -0.7071456 -0.707068 2.85736e-4 -0.7069103 -0.7073032 -2.76011e-4 -0.7071413 -0.7070723 2.85635e-4 -0.7072317 -0.7069818 1.38003e-4 -0.7071262 -0.7070874 1.73322e-5 -0.7071187 -0.7070949 0 -0.7071112 -0.7071024 -3.46653e-5 -0.7071198 -0.7070938 -3.54674e-5 -0.7071489 -0.7070647 7.58334e-6 -0.7070862 -0.7071274 1.74652e-5 -0.7070981 -0.7071155 -3.49287e-5 -0.7070959 -0.7071177 -3.49312e-5 -0.7070773 -0.7071363 3.4926e-5 -0.707181 -0.7070326 0 -0.7071352 -0.7070784 0 -0.7070317 -0.7071819 1.38792e-4 -0.7070049 -0.7072087 -2.82433e-4 -0.7072127 -0.7070009 0 -0.7071025 -0.7071111 -2.82287e-4 -0.7074111 -0.7068024 2.77604e-4 -0.7070569 -0.7071567 0 -0.7068507 -0.7073628 0 -0.7071805 -0.7070331 -2.82491e-4 -0.7067933 -0.7074201 0 -0.7071003 -0.7071133 -3.54711e-5 -0.7070802 -0.7071334 2.59988e-5 -0.7071166 -0.7070971 0 -0.7071135 -0.7071002 7.58287e-6 -0.7071301 -0.7070835 0 -0.7069462 -0.7072673 0 -0.707279 -0.7069346 -6.84947e-5 -0.7071389 -0.7070747 -1.38005e-4 -0.707137 -0.7070766 -2.85759e-4 -0.7069684 -0.7072452 0 -0.7072599 -0.7069537 0 -0.7069684 -0.7072452 0 -0.7071456 -0.707068 0 -0.7071961 -0.7070176 0 -0.7070033 -0.7072103 0 -0.7072318 -0.7069818 0 -0.7069882 -0.7072254 0 -0.7072887 -0.7069249 0 -0.7069889 -0.7072247 0 -0.7072181 -0.7069955 3.49305e-5 -0.7070981 -0.7071155 -6.98573e-5 -0.7070959 -0.7071177 6.98582e-5 -0.7071046 -0.707109 0 -0.7071199 -0.7070937 -3.49315e-5 -0.7070839 -0.7071297 0 -0.7072337 -0.7069799 0 -0.7072362 -0.7069774 0 -0.7071122 -0.7071014 -2.77607e-4 -0.7070655 -0.707148 2.76011e-4 -0.7071413 -0.7070723 -2.8575e-4 -0.706946 -0.7072675 -1.3803e-4 -0.7069882 -0.7072254 2.85516e-4 -0.7075082 -0.7067052 -1.3804e-4 -0.70704 -0.7071737 2.85783e-4 -0.7070264 -0.7071871 0 -0.7072383 -0.7069753 1.38776e-4 -0.7072044 -0.7070092 0 -0.7069461 -0.7072675 0 -0.7072642 -0.7069494 0 -0.7069371 -0.7072765 0 -0.707109 -0.7071046 -2.85611e-4 -0.7071737 -0.7070398 1.38011e-4 -0.7071672 -0.7070465 0 -0.707066 -0.7071477 2.85584e-4 -0.7071068 -0.7071068 3.44412e-5 -0.7070778 -0.7071359 0 -0.7069117 -0.7073018 1.42812e-4 -0.7072049 -0.7070086 -6.88741e-5 -0.7071304 -0.7070831 0 -0.7070206 -0.707193 0 -0.7071324 -0.7070811 0 -0.7070633 -0.7071503 -1.70747e-5 -0.7071324 -0.7070812 0 -0.7070702 -0.7071434 0 -0.7070791 -0.7071346 0 -0.7071251 -0.7070885 -1.77343e-5 -0.7071018 -0.7071118 0 -0.7071545 -0.7070592 0 -0.7071686 -0.707045 5.35559e-5 -0.7069916 -0.707222 0 -0.7070851 -0.7071285 2.82416e-4 -0.7071686 -0.707045 -2.94589e-4 -0.7071748 -0.7070387 -1.45037e-4 -0.7074919 -0.7067214 -2.85739e-4 -0.7069192 -0.7072942 1.03316e-4 -0.707096 -0.7071176 -1.45119e-4 -0.7070206 -0.707193 0 -0.7070983 -0.7071154 0 -0.7072097 -0.7070039 3.41538e-5 -0.7070854 -0.7071281 0 -0.7071502 -0.7070633 0 -0.7070876 -0.707126 0 -0.7070885 -0.7071251 2.66004e-5 -0.7071284 -0.7070852 0 -0.7070435 -0.7071701 0 -0.7071378 -0.7070757 -3.4665e-5 -0.707096 -0.7071176 7.0941e-5 -0.70714 -0.7070736 -3.46662e-5 -0.7071209 -0.7070927 7.09452e-5 -0.7070403 -0.7071733 0 -0.7071155 -0.7070981 0 -0.707098 -0.7071157 0 -0.7071382 -0.7070754 2.8246e-4 -0.7069965 -0.7072171 -1.60725e-4 -0.7069388 -0.7072747 -1.77345e-5 -0.707109 -0.7071046 0 -0.7071242 -0.7070893 -3.68392e-6 -0.7071076 -0.707106 -1.74641e-5 -0.7071199 -0.7070937 8.73245e-6 -0.7071013 -0.7071123 0 -0.7070719 -0.7071418 0 -0.7071056 -0.707108 0 -0.7070915 -0.7071221 1.74638e-5 -0.7071439 -0.7070697 0 -0.7070872 -0.7071264 3.49291e-5 -0.7071046 -0.707109 0 -0.707141 -0.7070726 0 -0.7071134 -0.7071003 -3.54686e-5 -0.7071024 -0.7071112 0 -0.7071089 -0.7071046 0 -0.7070624 -0.7071511 3.4665e-5 -0.7070971 -0.7071166 -1.41876e-4 -0.7071112 -0.7071024 6.93318e-5 -0.7071155 -0.7070981 -1.41874e-4 -0.7070979 -0.7071157 6.93273e-5 -0.7071382 -0.7070754 -5.64806e-4 -0.7071376 -0.7070758 2.23158e-4 -0.707162 -0.7070516 0 -0.7070558 -0.7071578 0 -0.7071592 -0.7070544 -7.16308e-6 -0.7071182 -0.7070955 -1.74654e-5 -0.7070675 -0.7071461 -8.73245e-6 -0.7071013 -0.7071123 0 -0.7071186 -0.7070951 0 -0.7070927 -0.7071209 -1.74655e-5 -0.7070741 -0.7071395 -1.74645e-5 -0.7071046 -0.707109 0 -0.7071235 -0.7070901 0.9990481 0 0.04362356 0.9990482 0 0.04362201 0.9914355 0 0.1305977 0.9914353 0 0.1305994 0.976303 0 0.2164083 0.9763057 0 0.2163963 0.9537109 0 0.3007252 0.9536873 0 0.3008001 0.9239178 0 0.3825911 0.9238986 0 0.3826377 0.8869857 0 0.4617972 0.8869727 0 0.4618222 0.8434153 0 0.5372622 0.8433759 0 0.5373242 0.7933706 0 0.6087391 0.7934201 0 0.6086744 0.7372385 0 0.6756326 0.7372381 0 0.6756331 0.6755988 0 0.7372695 0.6756165 0 0.7372533 0.625983 0 0.7798368 0.608649 2.46753e-5 0.7934398 0.5913607 0 0.8064073 0.5558272 0 0.8312979 0.5372806 2.48011e-5 0.8434036 0.5187352 0 0.8549349 0.4808644 0 0.8767951 0.4617202 2.49337e-5 0.8870257 0.4426598 0 0.8966896 0.4026336 0 0.9153612 0.3826009 2.49089e-5 0.9239138 0.3621344 0 0.9321259 0.3213864 0 0.9469482 0.3009229 2.47301e-5 0.9536485 0.2797441 0 0.9600747 0.2376614 0 0.9713481 0.2162644 2.46743e-5 0.9763349 0.1951041 0 0.9807826 0.1521109 0 0.9883635 0.1306105 2.46676e-5 0.9914339 0.1087332 0 0.9940711 0.06568843 0 0.9978402 0.04352235 2.47646e-5 0.9990525 0.02199935 0 0.9997581 -0.02199935 0 0.9997581 -0.04352235 2.47797e-5 0.9990525 -0.1305935 2.47045e-5 0.9914361 -0.1087048 0 0.9940742 -0.06559103 0 0.9978466 -0.2162922 2.47978e-5 0.9763287 -0.1951544 0 0.9807726 -0.1521518 0 0.9883572 -0.3008853 2.45664e-5 0.9536604 -0.2797441 0 0.9600747 -0.2377344 0 0.9713302 -0.3826473 2.48316e-5 0.9238946 -0.3622231 0 0.9320914 -0.3214518 0 0.9469259 -0.4617202 2.4612e-5 0.8870257 -0.4426598 0 0.8966896 -0.4027148 0 0.9153256 -0.5372806 2.52842e-5 0.8434036 -0.5187352 0 0.8549349 -0.4808129 0 0.8768233 -0.6258596 4.99523e-5 0.7799357 -0.5912354 0 0.8064991 -0.5557886 0 0.8313237 -0.6087666 0 0.7933494 -0.6756166 0 0.7372533 -0.6755988 0 0.7372695 -0.737238 0 0.6756331 -0.7372385 0 0.6756326 -0.7934201 0 0.6086745 -0.7933705 0 0.6087391 -0.8432923 0 0.5374554 -0.8433798 0 0.5373179 -0.8870264 0 0.4617187 -0.8870395 0 0.4616938 -0.923852 0 0.3827498 -0.9238714 0 0.3827033 -0.9537325 0 0.3006566 -0.953741 0 0.3006297 -0.9763057 0 0.2163963 -0.976303 0 0.2164083 -0.9914353 0 0.1305994 -0.9914355 0 0.1305977 -0.9990483 0 0.04361832 -0.9990479 0 0.04362726 -0.9990481 0 -0.04362279 -0.9990481 0 -0.04362457 -0.9914337 0 -0.1306108 -0.9914356 0 -0.1305968 -0.9763048 0 -0.2164 -0.9763107 0 -0.2163735 -0.9537449 0 -0.3006172 -0.9537374 0 -0.3006411 -0.9238402 0 -0.3827785 -0.9238759 0 -0.3826921 -0.886999 0 -0.4617714 -0.8870341 0 -0.4617041 -0.8433432 0 -0.5373753 -0.843361 0 -0.5373474 -0.7933685 0 -0.6087418 -0.7933466 0 -0.6087702 -0.7372757 0 -0.675592 -0.7372763 0 -0.6755914 -0.6756353 0 -0.737236 -0.6756149 0 -0.7372547 -0.5372782 0 -0.8434051 -0.5190407 5.85289e-5 -0.8547496 -0.5553021 0 -0.8316487 -0.6087675 0 -0.7933487 -0.5914258 5.80561e-5 -0.8063595 -0.6259703 0 -0.779847 -0.3825944 0 -0.9239165 -0.3625754 5.81349e-5 -0.9319545 -0.4027708 0 -0.9153009 -0.4617326 0 -0.8870192 -0.442145 5.74958e-5 -0.8969437 -0.481247 0 -0.8765851 -0.2164192 0 -0.9763005 -0.1953044 5.82358e-5 -0.9807427 -0.2373933 0 -0.9714136 -0.3007102 0 -0.9537156 -0.2798212 5.76282e-5 -0.9600521 -0.3214513 0 -0.9469262 -0.0435695 0 -0.9990504 -0.02182435 5.82803e-5 -0.9997618 -0.06548202 0 -0.9978538 -0.1305025 0 -0.991448 -0.1087077 5.80768e-5 -0.9940738 -0.1523501 0 -0.9883267</float_array>
          <technique_common>
            <accessor source="#chassis_default_as_machined__10-mesh-normals-array" count="578" stride="3">
              <param name="X" type="float"/>
              <param name="Y" type="float"/>
              <param name="Z" type="float"/>
            </accessor>
          </technique_common>
        </source>
        <vertices id="chassis_default_as_machined__10-mesh-vertices">
          <input semantic="POSITION" source="#chassis_default_as_machined__10-mesh-positions"/>
        </vertices>
        <triangles count="736">
          <input semantic="VERTEX" source="#chassis_default_as_machined__10-mesh-vertices" offset="0"/>
          <input semantic="NORMAL" source="#chassis_default_as_machined__10-mesh-normals" offset="1"/>
          <p>0 0 1 0 2 0 1 0 3 0 2 0 2 0 3 0 4 0 3 0 5 0 4 0 4 0 5 0 6 0 5 0 7 0 6 0 6 0 7 0 8 0 7 1 9 1 8 1 8 2 9 2 10 2 9 0 11 0 10 0 10 0 11 0 12 0 11 0 13 0 12 0 12 0 13 0 14 0 13 3 15 3 14 3 14 0 15 0 16 0 15 0 17 0 16 0 16 0 17 0 18 0 17 0 19 0 18 0 18 0 19 0 20 0 19 0 21 0 20 0 20 0 21 0 22 0 21 0 23 0 22 0 22 0 23 0 24 0 23 0 25 0 24 0 24 0 25 0 26 0 25 0 27 0 26 0 26 0 27 0 28 0 27 4 29 4 28 4 28 0 29 0 30 0 29 5 31 5 30 5 30 6 31 6 32 6 31 0 33 0 32 0 32 7 33 7 34 7 33 8 35 8 34 8 34 0 35 0 36 0 35 0 37 0 36 0 36 0 37 0 38 0 37 0 39 0 38 0 38 0 39 0 40 0 39 0 41 0 40 0 40 9 41 9 42 9 41 0 43 0 42 0 42 0 43 0 44 0 43 10 45 10 44 10 44 11 45 11 46 11 45 0 47 0 46 0 46 7 47 7 48 7 47 0 49 0 48 0 48 0 49 0 50 0 49 0 51 0 50 0 50 0 51 0 52 0 51 0 53 0 52 0 52 0 53 0 54 0 53 0 55 0 54 0 54 0 55 0 56 0 55 0 57 0 56 0 56 0 57 0 58 0 57 0 59 0 58 0 58 0 59 0 60 0 59 0 61 0 60 0 60 12 61 12 62 12 61 0 63 0 62 0 62 0 63 0 64 0 63 0 65 0 64 0 64 0 65 0 66 0 65 13 67 13 66 13 66 14 67 14 68 14 67 0 69 0 68 0 68 0 69 0 70 0 69 0 71 0 70 0 70 0 71 0 72 0 71 0 73 0 72 0 72 0 73 0 74 0 73 0 75 0 74 0 74 0 75 0 76 0 75 0 77 0 76 0 76 0 77 0 78 0 77 0 79 0 78 0 78 0 79 0 80 0 79 0 81 0 80 0 80 0 81 0 82 0 81 0 83 0 82 0 82 0 83 0 84 0 83 15 85 15 84 15 84 14 85 14 86 14 85 0 87 0 86 0 86 0 87 0 88 0 87 0 89 0 88 0 88 0 89 0 90 0 89 15 91 15 90 15 90 0 91 0 92 0 91 0 93 0 92 0 92 0 93 0 94 0 93 0 95 0 94 0 94 0 95 0 96 0 95 0 97 0 96 0 96 0 97 0 98 0 97 0 99 0 98 0 98 0 99 0 100 0 99 0 101 0 100 0 100 0 101 0 102 0 101 0 103 0 102 0 102 0 103 0 104 0 103 0 105 0 104 0 104 0 105 0 106 0 105 0 107 0 106 0 106 7 107 7 108 7 107 0 109 0 108 0 108 0 109 0 110 0 109 0 111 0 110 0 110 0 111 0 112 0 111 0 113 0 112 0 112 0 113 0 114 0 113 0 115 0 114 0 114 0 115 0 116 0 115 0 117 0 116 0 116 16 117 16 118 16 117 0 119 0 118 0 118 17 119 17 120 17 119 0 121 0 120 0 120 10 121 10 122 10 121 4 123 4 122 4 122 0 123 0 124 0 123 0 125 0 124 0 124 0 125 0 126 0 125 0 127 0 126 0 126 0 127 0 128 0 127 0 129 0 128 0 128 0 129 0 130 0 129 0 131 0 130 0 130 0 131 0 132 0 131 0 133 0 132 0 132 0 133 0 134 0 133 0 135 0 134 0 134 0 135 0 136 0 135 0 137 0 136 0 136 18 137 18 138 18 137 0 139 0 138 0 138 0 139 0 140 0 139 0 141 0 140 0 140 0 141 0 142 0 141 0 143 0 142 0 142 18 143 18 144 18 143 0 145 0 144 0 144 0 145 0 146 0 145 0 147 0 146 0 146 0 147 0 148 0 147 0 149 0 148 0 148 0 149 0 150 0 149 0 151 0 150 0 150 0 151 0 0 0 151 0 1 0 0 0 111 19 109 19 152 19 152 20 153 20 111 20 153 21 154 21 111 21 111 22 154 22 113 22 154 23 155 23 113 23 113 24 155 24 156 24 107 25 105 25 157 25 157 26 158 26 107 26 158 27 159 27 107 27 107 28 159 28 109 28 159 29 160 29 109 29 109 30 160 30 152 30 103 31 101 31 161 31 161 32 162 32 103 32 162 33 163 33 103 33 103 34 163 34 105 34 163 35 164 35 105 35 105 36 164 36 157 36 165 37 166 37 99 37 166 38 167 38 99 38 99 39 167 39 101 39 167 40 168 40 101 40 101 41 168 41 161 41 99 42 97 42 165 42 97 43 95 43 165 43 165 44 95 44 169 44 95 45 93 45 169 45 169 46 93 46 170 46 93 47 91 47 170 47 170 48 91 48 171 48 91 49 89 49 171 49 171 50 89 50 172 50 89 51 87 51 172 51 172 52 87 52 173 52 87 53 85 53 173 53 173 54 85 54 174 54 85 55 83 55 174 55 174 56 83 56 175 56 83 57 81 57 175 57 175 58 81 58 176 58 81 59 79 59 176 59 176 60 79 60 177 60 79 61 77 61 177 61 177 62 77 62 178 62 179 63 76 63 78 63 179 64 78 64 180 64 78 65 80 65 180 65 180 66 80 66 181 66 80 67 82 67 181 67 181 68 82 68 182 68 82 69 84 69 182 69 182 70 84 70 183 70 84 71 86 71 183 71 183 72 86 72 184 72 86 73 88 73 184 73 184 74 88 74 185 74 88 75 90 75 185 75 185 76 90 76 186 76 90 77 92 77 186 77 186 78 92 78 187 78 92 79 94 79 187 79 187 80 94 80 188 80 94 81 96 81 188 81 188 82 96 82 189 82 98 83 100 83 190 83 190 84 191 84 98 84 191 85 192 85 98 85 98 86 192 86 96 86 192 87 193 87 96 87 96 88 193 88 189 88 102 89 104 89 194 89 194 90 195 90 102 90 195 91 196 91 102 91 102 92 196 92 100 92 196 93 197 93 100 93 100 94 197 94 190 94 106 95 108 95 198 95 198 96 199 96 106 96 199 97 200 97 106 97 106 98 200 98 104 98 200 99 201 99 104 99 104 100 201 100 194 100 110 101 112 101 202 101 202 102 203 102 110 102 203 103 204 103 110 103 110 104 204 104 108 104 204 105 205 105 108 105 108 106 205 106 198 106 76 107 179 107 74 107 179 107 206 107 74 107 207 108 38 108 208 108 38 109 40 109 208 109 42 110 209 110 40 110 209 111 210 111 40 111 40 112 210 112 208 112 44 113 211 113 42 113 211 114 212 114 42 114 42 115 212 115 209 115 46 116 213 116 44 116 213 117 214 117 44 117 44 118 214 118 211 118 48 119 215 119 46 119 215 120 216 120 46 120 46 121 216 121 213 121 50 122 217 122 48 122 217 123 218 123 48 123 48 124 218 124 215 124 52 125 219 125 50 125 219 126 220 126 50 126 50 127 220 127 217 127 221 128 222 128 52 128 222 129 223 129 52 129 52 130 223 130 219 130 52 131 54 131 221 131 54 132 56 132 221 132 221 133 56 133 224 133 56 134 58 134 224 134 224 135 58 135 225 135 58 136 60 136 225 136 225 137 60 137 226 137 60 138 62 138 226 138 226 139 62 139 227 139 62 140 64 140 227 140 227 141 64 141 228 141 64 142 66 142 228 142 228 143 66 143 229 143 66 144 68 144 229 144 229 145 68 145 230 145 68 146 70 146 230 146 230 147 70 147 231 147 70 148 72 148 231 148 231 149 72 149 232 149 72 150 74 150 232 150 232 151 74 151 206 151 38 152 207 152 36 152 207 152 233 152 36 152 0 153 234 153 150 153 234 153 235 153 150 153 234 154 0 154 2 154 234 155 2 155 236 155 2 156 4 156 236 156 236 157 4 157 237 157 4 158 6 158 237 158 237 159 6 159 238 159 6 160 8 160 238 160 238 161 8 161 239 161 8 162 10 162 239 162 239 163 10 163 240 163 10 164 12 164 240 164 240 165 12 165 241 165 12 166 14 166 241 166 241 167 14 167 242 167 14 168 16 168 242 168 242 169 16 169 243 169 16 170 18 170 243 170 243 171 18 171 244 171 18 172 20 172 244 172 244 173 20 173 245 173 245 174 20 174 246 174 20 175 22 175 246 175 246 176 22 176 247 176 247 177 22 177 248 177 22 178 24 178 248 178 248 179 24 179 249 179 249 180 24 180 250 180 24 181 26 181 250 181 250 182 26 182 251 182 251 183 26 183 252 183 26 184 28 184 252 184 252 185 28 185 253 185 253 186 28 186 254 186 28 187 30 187 254 187 254 188 30 188 255 188 255 189 30 189 256 189 30 190 32 190 256 190 256 191 32 191 257 191 257 192 32 192 258 192 32 193 34 193 258 193 258 194 34 194 259 194 259 195 34 195 260 195 34 196 36 196 260 196 260 197 36 197 233 197 114 198 261 198 112 198 261 198 202 198 112 198 116 199 118 199 262 199 262 200 263 200 116 200 263 201 264 201 116 201 116 202 264 202 114 202 264 203 265 203 114 203 114 204 265 204 261 204 120 205 122 205 266 205 266 206 267 206 120 206 267 207 268 207 120 207 120 208 268 208 118 208 268 209 269 209 118 209 118 210 269 210 262 210 124 211 126 211 270 211 270 212 271 212 124 212 271 213 272 213 124 213 124 214 272 214 122 214 272 215 273 215 122 215 122 216 273 216 266 216 274 217 275 217 128 217 275 218 276 218 128 218 128 219 276 219 126 219 276 220 277 220 126 220 126 221 277 221 270 221 128 222 130 222 274 222 130 223 132 223 274 223 274 224 132 224 278 224 132 225 134 225 278 225 278 226 134 226 279 226 134 227 136 227 279 227 279 228 136 228 280 228 136 229 138 229 280 229 280 230 138 230 281 230 138 231 140 231 281 231 281 232 140 232 282 232 140 233 142 233 282 233 282 234 142 234 283 234 142 235 144 235 283 235 283 236 144 236 284 236 144 237 146 237 284 237 284 238 146 238 285 238 146 239 148 239 285 239 285 240 148 240 286 240 148 241 150 241 286 241 286 242 150 242 235 242 203 243 202 243 156 243 156 244 202 244 287 244 202 245 261 245 287 245 287 246 261 246 288 246 261 247 265 247 288 247 288 248 265 248 289 248 265 249 264 249 289 249 289 250 264 250 290 250 210 251 291 251 292 251 290 252 264 252 293 252 264 253 263 253 293 253 293 254 263 254 294 254 263 255 262 255 294 255 294 256 262 256 295 256 156 257 155 257 203 257 155 258 154 258 203 258 203 259 154 259 204 259 154 260 153 260 204 260 204 261 153 261 205 261 260 262 296 262 259 262 296 250 297 250 259 250 259 263 297 263 258 263 210 264 292 264 208 264 292 265 298 265 208 265 208 266 298 266 207 266 298 267 299 267 207 267 207 268 299 268 233 268 299 269 300 269 233 269 233 270 300 270 260 270 300 243 301 243 260 243 260 271 301 271 296 271 291 272 210 272 302 272 210 273 209 273 302 273 302 274 209 274 303 274 209 275 212 275 303 275 303 276 212 276 304 276 295 277 262 277 305 277 262 278 269 278 305 278 305 279 269 279 306 279 269 280 268 280 306 280 306 281 268 281 307 281 153 282 152 282 205 282 152 274 160 274 205 274 205 283 160 283 198 283 160 276 159 276 198 276 198 284 159 284 199 284 297 285 308 285 258 285 308 254 309 254 258 254 258 286 309 286 257 286 309 256 310 256 257 256 257 287 310 287 256 287 304 288 212 288 311 288 212 289 211 289 311 289 311 290 211 290 312 290 211 291 214 291 312 291 312 292 214 292 313 292 159 276 158 276 199 276 158 293 157 293 199 293 199 294 157 294 200 294 157 295 164 295 200 295 200 296 164 296 201 296 164 297 163 297 201 297 201 298 163 298 194 298 163 299 162 299 194 299 194 300 162 300 195 300 307 301 268 301 314 301 268 302 267 302 314 302 314 303 267 303 315 303 267 302 266 302 315 302 315 304 266 304 316 304 266 305 273 305 316 305 316 306 273 306 317 306 273 307 272 307 317 307 317 308 272 308 318 308 319 309 281 309 320 309 281 310 282 310 320 310 320 311 282 311 321 311 282 312 283 312 321 312 321 313 283 313 322 313 323 314 238 314 324 314 238 315 239 315 324 315 324 316 239 316 325 316 239 317 240 317 325 317 325 318 240 318 326 318 310 319 327 319 256 319 327 320 328 320 256 320 256 321 328 321 255 321 328 322 329 322 255 322 255 323 329 323 254 323 329 324 330 324 254 324 254 325 330 325 253 325 330 326 331 326 253 326 253 327 331 327 252 327 332 328 227 328 333 328 227 329 228 329 333 329 333 330 228 330 334 330 228 331 229 331 334 331 334 332 229 332 335 332 318 333 272 333 336 333 272 334 271 334 336 334 336 335 271 335 337 335 313 336 214 336 338 336 214 337 213 337 338 337 338 338 213 338 339 338 213 339 216 339 339 339 339 340 216 340 340 340 216 341 215 341 340 341 340 342 215 342 341 342 215 343 218 343 341 343 341 344 218 344 342 344 342 345 218 345 343 345 218 346 217 346 343 346 343 347 217 347 344 347 176 348 182 348 175 348 182 349 183 349 175 349 175 350 183 350 174 350 183 351 184 351 174 351 174 352 184 352 173 352 271 353 270 353 337 353 270 354 277 354 337 354 337 355 277 355 345 355 162 356 161 356 195 356 161 357 168 357 195 357 195 358 168 358 196 358 168 359 167 359 196 359 196 360 167 360 197 360 167 361 166 361 197 361 197 362 166 362 190 362 166 363 165 363 190 363 331 364 346 364 252 364 346 342 347 342 252 342 252 365 347 365 251 365 347 366 348 366 251 366 251 367 348 367 250 367 348 368 349 368 250 368 250 369 349 369 249 369 349 370 350 370 249 370 217 371 220 371 344 371 220 372 219 372 344 372 344 373 219 373 351 373 277 374 276 374 345 374 276 375 275 375 345 375 345 376 275 376 352 376 275 377 274 377 352 377 352 378 274 378 353 378 274 379 278 379 353 379 353 380 278 380 354 380 278 381 279 381 354 381 354 382 279 382 319 382 279 383 280 383 319 383 319 384 280 384 281 384 169 385 192 385 165 385 192 386 191 386 165 386 165 387 191 387 190 387 355 388 247 388 350 388 247 389 248 389 350 389 350 390 248 390 249 390 219 391 223 391 351 391 223 392 222 392 351 392 351 393 222 393 356 393 222 394 221 394 356 394 356 395 221 395 357 395 221 396 224 396 357 396 357 397 224 397 358 397 224 398 225 398 358 398 358 399 225 399 332 399 225 400 226 400 332 400 332 401 226 401 227 401 184 402 185 402 173 402 185 403 186 403 173 403 173 404 186 404 172 404 186 405 187 405 172 405 172 406 187 406 171 406 187 407 188 407 171 407 171 408 188 408 170 408 188 409 189 409 170 409 170 410 189 410 169 410 189 411 193 411 169 411 169 412 193 412 192 412 283 413 284 413 322 413 284 414 285 414 322 414 322 415 285 415 359 415 285 416 286 416 359 416 359 417 286 417 360 417 286 418 235 418 360 418 360 419 235 419 361 419 235 419 234 419 361 419 361 420 234 420 362 420 234 421 236 421 362 421 362 422 236 422 323 422 236 423 237 423 323 423 323 424 237 424 238 424 240 425 241 425 326 425 241 426 242 426 326 426 326 427 242 427 363 427 242 428 243 428 363 428 363 429 243 429 364 429 243 430 244 430 364 430 364 431 244 431 365 431 244 432 245 432 365 432 365 433 245 433 355 433 245 434 246 434 355 434 355 435 246 435 247 435 229 436 230 436 335 436 230 437 231 437 335 437 335 438 231 438 366 438 231 439 232 439 366 439 366 440 232 440 367 440 232 414 206 414 367 414 367 441 206 441 178 441 206 442 179 442 178 442 178 368 179 368 177 368 179 443 180 443 177 443 177 444 180 444 176 444 180 350 181 350 176 350 176 445 181 445 182 445 367 153 178 153 75 153 178 153 77 153 75 153 367 446 75 446 73 446 367 447 73 447 366 447 73 448 71 448 366 448 366 449 71 449 335 449 71 450 69 450 335 450 335 451 69 451 334 451 69 452 67 452 334 452 334 453 67 453 333 453 67 454 65 454 333 454 333 455 65 455 332 455 65 456 63 456 332 456 332 457 63 457 358 457 63 458 61 458 358 458 358 459 61 459 357 459 61 460 59 460 357 460 357 461 59 461 356 461 59 462 57 462 356 462 356 463 57 463 351 463 57 464 55 464 351 464 351 465 55 465 344 465 344 466 55 466 343 466 55 467 53 467 343 467 343 468 53 468 342 468 342 469 53 469 341 469 53 470 51 470 341 470 341 471 51 471 340 471 340 472 51 472 339 472 51 473 49 473 339 473 339 474 49 474 338 474 338 475 49 475 313 475 49 476 47 476 313 476 313 477 47 477 312 477 312 478 47 478 311 478 47 479 45 479 311 479 311 480 45 480 304 480 304 481 45 481 303 481 45 482 43 482 303 482 303 483 43 483 302 483 302 484 43 484 291 484 43 485 41 485 291 485 291 486 41 486 292 486 292 487 41 487 298 487 41 488 39 488 298 488 298 489 39 489 299 489 300 198 299 198 37 198 299 198 39 198 37 198 300 490 37 490 301 490 37 491 35 491 301 491 33 492 297 492 35 492 297 493 296 493 35 493 35 494 296 494 301 494 31 495 309 495 33 495 309 496 308 496 33 496 33 497 308 497 297 497 29 498 327 498 31 498 327 499 310 499 31 499 31 500 310 500 309 500 27 501 329 501 29 501 329 502 328 502 29 502 29 503 328 503 327 503 25 504 331 504 27 504 331 505 330 505 27 505 27 506 330 506 329 506 23 507 347 507 25 507 347 508 346 508 25 508 25 509 346 509 331 509 350 510 349 510 23 510 349 511 348 511 23 511 23 512 348 512 347 512 23 513 21 513 350 513 21 514 19 514 350 514 350 515 19 515 355 515 19 516 17 516 355 516 355 517 17 517 365 517 17 518 15 518 365 518 365 519 15 519 364 519 15 520 13 520 364 520 364 521 13 521 363 521 13 522 11 522 363 522 363 523 11 523 326 523 11 524 9 524 326 524 326 525 9 525 325 525 9 526 7 526 325 526 325 527 7 527 324 527 7 528 5 528 324 528 324 529 5 529 323 529 5 530 3 530 323 530 323 531 3 531 362 531 3 532 1 532 362 532 362 533 1 533 361 533 360 107 361 107 151 107 361 107 1 107 151 107 360 534 151 534 149 534 360 535 149 535 359 535 149 536 147 536 359 536 359 537 147 537 322 537 147 538 145 538 322 538 322 539 145 539 321 539 145 540 143 540 321 540 321 541 143 541 320 541 143 542 141 542 320 542 320 543 141 543 319 543 141 544 139 544 319 544 319 545 139 545 354 545 139 546 137 546 354 546 354 547 137 547 353 547 137 548 135 548 353 548 353 549 135 549 352 549 135 550 133 550 352 550 352 551 133 551 345 551 133 552 131 552 345 552 345 553 131 553 337 553 129 554 127 554 316 554 316 555 317 555 129 555 317 556 318 556 129 556 129 557 318 557 131 557 318 558 336 558 131 558 131 559 336 559 337 559 125 560 123 560 306 560 306 561 307 561 125 561 307 562 314 562 125 562 125 563 314 563 127 563 314 564 315 564 127 564 127 565 315 565 316 565 121 566 119 566 293 566 293 567 294 567 121 567 294 568 295 568 121 568 121 569 295 569 123 569 295 570 305 570 123 570 123 571 305 571 306 571 117 572 115 572 287 572 287 573 288 573 117 573 288 574 289 574 117 574 117 575 289 575 119 575 289 576 290 576 119 576 119 577 290 577 293 577 156 152 287 152 113 152 287 152 115 152 113 152</p>
        </triangles>
      </mesh>
    </geometry>
  </library_geometries>
  <library_visual_scenes>
    <visual_scene id="Scene" name="Scene">
      <node id="chassis_default_as_machined__10" name="chassis_default_as_machined__10" type="NODE">
        <matrix sid="transform">1 0 0 0 0 1 0 0 0 0 1 0 0 0 0 1</matrix>
        <instance_geometry url="#chassis_default_as_machined__10-mesh" name="chassis_default_as_machined__10"/>
      </node>
    </visual_scene>
  </library_visual_scenes>
  <scene>
    <instance_visual_scene url="#Scene"/>
  </scene>
</COLLADA>