<?xml version="1.0" encoding="utf-8"?>
<COLLADA xmlns="http://www.collada.org/2005/11/COLLADASchema" version="1.4.1" xmlns:xsi="http://www.w3.org/2001/XMLSchema-instance">
  <asset>
    <contributor>
      <author>Blender User</author>
      <authoring_tool>Blender 3.0.1</authoring_tool>
    </contributor>
    <created>2026-06-04T16:18:36</created>
    <modified>2026-06-04T16:18:36</modified>
    <unit name="meter" meter="1"/>
    <up_axis>Z_UP</up_axis>
  </asset>
  <library_images/>
  <library_geometries>
    <geometry id="chassis_default_as_machined__24-mesh" name="chassis_default_as_machined__24">
      <mesh>
        <source id="chassis_default_as_machined__24-mesh-positions">
          <float_array id="chassis_default_as_machined__24-mesh-positions-array" count="1104">0.01239997 0.185 -0.2902 0.01499998 0.185 -0.2902 0.01239997 0.185 -0.3098 0.01499998 0.185 -0.3098 0.01239007 0.185 -0.3100266 0.01498019 0.185 -0.3102532 0.01236045 0.185 -0.3102515 0.01492094 0.185 -0.310703 0.01231139 0.185 -0.3104729 0.01482278 0.185 -0.3111459 0.01224315 0.185 -0.3106892 0.0146864 0.185 -0.3115785 0.01215636 0.185 -0.3108988 0.01451277 0.185 -0.3119976 0.01205164 0.185 -0.3111 0.01430332 0.185 -0.3124 0.01192975 0.185 -0.3112913 0.01405954 0.185 -0.3127826 0.0117917 0.185 -0.3114712 0.01378339 0.185 -0.3131425 0.01163846 0.185 -0.3116385 0.0134769 0.185 -0.3134769 0.01147121 0.185 -0.3117917 0.01314246 0.185 -0.3137834 0.01129126 0.185 -0.3119298 0.01278257 0.185 -0.3140596 0.01109999 0.185 -0.3120517 0.01239997 0.185 -0.3143033 0.01089876 0.185 -0.3121564 0.01199758 0.185 -0.3145128 0.01068919 0.185 -0.3122432 0.0115785 0.185 -0.3146864 0.01047289 0.185 -0.3123114 0.01114583 0.185 -0.3148228 0.01025146 0.185 -0.3123605 0.01070296 0.185 -0.314921 0.01002657 0.185 -0.3123901 0.01025319 0.185 -0.3149802 0.009799957 0.185 -0.3124 0.009799957 0.185 -0.315 -0.009799957 0.185 -0.3124 -0.009799957 0.185 -0.315 -0.01002657 0.185 -0.3123901 -0.01025319 0.185 -0.3149802 -0.01025146 0.185 -0.3123605 -0.01070296 0.185 -0.314921 -0.01047289 0.185 -0.3123114 -0.01114583 0.185 -0.3148228 -0.01068919 0.185 -0.3122432 -0.0115785 0.185 -0.3146864 -0.01089876 0.185 -0.3121564 -0.01199758 0.185 -0.3145128 -0.01109999 0.185 -0.3120517 -0.01239997 0.185 -0.3143033 -0.01129126 0.185 -0.3119298 -0.01278257 0.185 -0.3140596 -0.01147121 0.185 -0.3117917 -0.01314246 0.185 -0.3137834 -0.01163846 0.185 -0.3116385 -0.0134769 0.185 -0.3134769 -0.0117917 0.185 -0.3114712 -0.01378339 0.185 -0.3131425 -0.01192975 0.185 -0.3112913 -0.01405954 0.185 -0.3127826 -0.01205164 0.185 -0.3111 -0.01430332 0.185 -0.3124 -0.01215636 0.185 -0.3108988 -0.01451277 0.185 -0.3119976 -0.01224315 0.185 -0.3106892 -0.0146864 0.185 -0.3115785 -0.01231139 0.185 -0.3104729 -0.01482278 0.185 -0.3111459 -0.01236045 0.185 -0.3102515 -0.01492094 0.185 -0.310703 -0.01239007 0.185 -0.3100266 -0.01498019 0.185 -0.3102532 -0.01239997 0.185 -0.3098 -0.01499998 0.185 -0.3098 -0.01239997 0.185 -0.2902 -0.01499998 0.185 -0.2902 -0.01239007 0.185 -0.2899734 -0.01498019 0.185 -0.2897468 -0.01236045 0.185 -0.2897485 -0.01492094 0.185 -0.2892971 -0.01231139 0.185 -0.2895271 -0.01482278 0.185 -0.2888541 -0.01224315 0.185 -0.2893108 -0.0146864 0.185 -0.2884215 -0.01215636 0.185 -0.2891012 -0.01451277 0.185 -0.2880024 -0.01205164 0.185 -0.2889 -0.01430332 0.185 -0.2876 -0.01192975 0.185 -0.2887087 -0.01405954 0.185 -0.2872174 -0.0117917 0.185 -0.2885288 -0.01378339 0.185 -0.2868575 -0.01163846 0.185 -0.2883615 -0.0134769 0.185 -0.2865231 -0.01147121 0.185 -0.2882083 -0.01314246 0.185 -0.2862166 -0.01129126 0.185 -0.2880702 -0.01278257 0.185 -0.2859404 -0.01109999 0.185 -0.2879483 -0.01239997 0.185 -0.2856966 -0.01089876 0.185 -0.2878436 -0.01199758 0.185 -0.2854872 -0.01068919 0.185 -0.2877568 -0.0115785 0.185 -0.2853136 -0.01047289 0.185 -0.2876886 -0.01114583 0.185 -0.2851772 -0.01025146 0.185 -0.2876395 -0.01070296 0.185 -0.285079 -0.01002657 0.185 -0.2876099 -0.01025319 0.185 -0.2850198 -0.009799957 0.185 -0.2876 -0.009799957 0.185 -0.285 0.009799957 0.185 -0.2876 0.009799957 0.185 -0.285 0.01002657 0.185 -0.2876099 0.01025319 0.185 -0.2850198 0.01025146 0.185 -0.2876395 0.01070296 0.185 -0.285079 0.01047289 0.185 -0.2876886 0.01114583 0.185 -0.2851772 0.01068919 0.185 -0.2877568 0.0115785 0.185 -0.2853136 0.01089876 0.185 -0.2878436 0.01199758 0.185 -0.2854872 0.01109999 0.185 -0.2879483 0.01239997 0.185 -0.2856966 0.01129126 0.185 -0.2880702 0.01278257 0.185 -0.2859404 0.01147121 0.185 -0.2882083 0.01314246 0.185 -0.2862166 0.01163846 0.185 -0.2883615 0.0134769 0.185 -0.2865231 0.0117917 0.185 -0.2885288 0.01378339 0.185 -0.2868575 0.01192975 0.185 -0.2887087 0.01405954 0.185 -0.2872174 0.01205164 0.185 -0.2889 0.01430332 0.185 -0.2876 0.01215636 0.185 -0.2891012 0.01451277 0.185 -0.2880024 0.01224315 0.185 -0.2893108 0.0146864 0.185 -0.2884215 0.01231139 0.185 -0.2895271 0.01482278 0.185 -0.2888541 0.01236045 0.185 -0.2897485 0.01492094 0.185 -0.2892971 0.01239007 0.185 -0.2899734 0.01498019 0.185 -0.2897468 -0.01492094 0.01492094 -0.310703 -0.01495546 0.01495546 -0.3104788 -0.01498019 0.01498019 -0.3102532 -0.01499503 0.01499503 -0.3100268 -0.01499998 0.01499998 -0.3098 -0.0146864 0.0146864 -0.3115785 -0.0147593 0.0147593 -0.3113636 -0.01482278 0.01482278 -0.3111459 -0.01487672 0.01487672 -0.3109255 -0.01430332 0.01430332 -0.3124 -0.0144124 0.0144124 -0.3122011 -0.01451277 0.01451277 -0.3119976 -0.01460415 0.01460415 -0.3117899 -0.01378339 0.01378339 -0.3131425 -0.01392543 0.01392543 -0.3129656 -0.01405954 0.01405954 -0.3127826 -0.0141856 0.0141856 -0.3125939 -0.0134769 0.0134769 -0.3134769 -0.01314246 0.01314246 -0.3137834 -0.01278257 0.01278257 -0.3140596 -0.01239997 0.01239997 -0.3143033 -0.01199758 0.01199758 -0.3145128 -0.0115785 0.0115785 -0.3146864 -0.01114583 0.01114583 -0.3148228 -0.01070296 0.01070296 -0.314921 -0.01025319 0.01025319 -0.3149802 -0.009799957 0.009799957 -0.315 -0.009799957 0.009799957 -0.3124 -0.01002657 0.01002657 -0.3123901 -0.01025146 0.01025146 -0.3123605 -0.01047289 0.01047289 -0.3123114 -0.01068919 0.01068919 -0.3122432 -0.01089876 0.01089876 -0.3121564 -0.01109999 0.01109999 -0.3120517 -0.01129126 0.01129126 -0.3119298 -0.01147121 0.01147121 -0.3117917 -0.01163846 0.01163846 -0.3116385 -0.0117917 0.0117917 -0.3114712 -0.01205164 0.01205164 -0.3111 -0.01199281 0.01199281 -0.311197 -0.01192975 0.01192975 -0.3112913 -0.01186269 0.01186269 -0.3113828 -0.01224315 0.01224315 -0.3106892 -0.01220208 0.01220208 -0.310795 -0.01215636 0.01215636 -0.3108988 -0.01210618 0.01210618 -0.3110005 -0.01236045 0.01236045 -0.3102515 -0.01233834 0.01233834 -0.3103628 -0.01231139 0.01231139 -0.3104729 -0.01227962 0.01227962 -0.3105818 -0.01239997 0.01239997 -0.3098 -0.01239752 0.01239752 -0.3099134 -0.01239007 0.01239007 -0.3100266 -0.01237773 0.01237773 -0.3101394 0.009799957 -0.009799957 -0.3124 0.01239997 -0.01239997 -0.3098 0.01239752 -0.01239752 -0.3099134 0.01237773 -0.01237773 -0.3101394 0.01239007 -0.01239007 -0.3100266 0.01233834 -0.01233834 -0.3103628 0.01236045 -0.01236045 -0.3102515 0.01227962 -0.01227962 -0.3105818 0.01231139 -0.01231139 -0.3104729 0.01220208 -0.01220208 -0.310795 0.01224315 -0.01224315 -0.3106892 0.01210618 -0.01210618 -0.3110005 0.01215636 -0.01215636 -0.3108988 0.01199281 -0.01199281 -0.311197 0.01205164 -0.01205164 -0.3111 0.0117917 -0.0117917 -0.3114712 0.01186269 -0.01186269 -0.3113828 0.01192975 -0.01192975 -0.3112913 0.01163846 -0.01163846 -0.3116385 0.01147121 -0.01147121 -0.3117917 0.01129126 -0.01129126 -0.3119298 0.01109999 -0.01109999 -0.3120517 0.01089876 -0.01089876 -0.3121564 0.01068919 -0.01068919 -0.3122432 0.01047289 -0.01047289 -0.3123114 0.01025146 -0.01025146 -0.3123605 0.01002657 -0.01002657 -0.3123901 0.01239997 -0.01239997 -0.2902 0.009799957 -0.009799957 -0.2876 -0.009799957 0.009799957 -0.2876 0.01002657 -0.01002657 -0.2876099 0.01025146 -0.01025146 -0.2876395 0.01047289 -0.01047289 -0.2876886 0.01068919 -0.01068919 -0.2877568 0.01089876 -0.01089876 -0.2878436 0.01109999 -0.01109999 -0.2879483 0.01129126 -0.01129126 -0.2880702 0.01147121 -0.01147121 -0.2882083 0.01163846 -0.01163846 -0.2883615 0.0117917 -0.0117917 -0.2885288 0.01186269 -0.01186269 -0.2886172 0.01192975 -0.01192975 -0.2887087 0.01199281 -0.01199281 -0.288803 0.01205164 -0.01205164 -0.2889 0.01210618 -0.01210618 -0.2889994 0.01215636 -0.01215636 -0.2891012 0.01220208 -0.01220208 -0.289205 0.01224315 -0.01224315 -0.2893108 0.01227962 -0.01227962 -0.2894182 0.01231139 -0.01231139 -0.2895271 0.01233834 -0.01233834 -0.2896373 0.01236045 -0.01236045 -0.2897485 0.01237773 -0.01237773 -0.2898606 0.01239007 -0.01239007 -0.2899734 0.01239752 -0.01239752 -0.2900866 -0.01239997 0.01239997 -0.2902 -0.01236045 0.01236045 -0.2897485 -0.01237773 0.01237773 -0.2898606 -0.01239007 0.01239007 -0.2899734 -0.01239752 0.01239752 -0.2900866 -0.01224315 0.01224315 -0.2893108 -0.01227962 0.01227962 -0.2894182 -0.01231139 0.01231139 -0.2895271 -0.01233834 0.01233834 -0.2896373 -0.01205164 0.01205164 -0.2889 -0.01210618 0.01210618 -0.2889994 -0.01215636 0.01215636 -0.2891012 -0.01220208 0.01220208 -0.289205 -0.0117917 0.0117917 -0.2885288 -0.01186269 0.01186269 -0.2886172 -0.01192975 0.01192975 -0.2887087 -0.01199281 0.01199281 -0.288803 -0.01163846 0.01163846 -0.2883615 -0.01147121 0.01147121 -0.2882083 -0.01129126 0.01129126 -0.2880702 -0.01109999 0.01109999 -0.2879483 -0.01089876 0.01089876 -0.2878436 -0.01068919 0.01068919 -0.2877568 -0.01047289 0.01047289 -0.2876886 -0.01025146 0.01025146 -0.2876395 -0.01002657 0.01002657 -0.2876099 0.01499998 -0.01499998 -0.2902 0.01499998 -0.01499998 -0.3098 0.01499503 -0.01499503 -0.3100268 0.01498019 -0.01498019 -0.3102532 0.01495546 -0.01495546 -0.3104788 0.01499503 -0.01499503 -0.2899731 0.01498019 -0.01498019 -0.2897468 0.01495546 -0.01495546 -0.2895213 0.01492094 -0.01492094 -0.310703 0.01487672 -0.01487672 -0.3109255 0.01482278 -0.01482278 -0.3111459 0.01492094 -0.01492094 -0.2892971 0.01487672 -0.01487672 -0.2890745 0.01482278 -0.01482278 -0.2888541 0.0147593 -0.0147593 -0.3113636 0.0146864 -0.0146864 -0.3115785 0.01460415 -0.01460415 -0.3117899 -0.01495546 0.01495546 -0.2895213 -0.01498019 0.01498019 -0.2897468 -0.01499503 0.01499503 -0.2899731 -0.01499998 0.01499998 -0.2902 0.0147593 -0.0147593 -0.2886363 0.0146864 -0.0146864 -0.2884215 0.01460415 -0.01460415 -0.28821 0.01451277 -0.01451277 -0.2880024 0.0144124 -0.0144124 -0.2877989 -0.01492094 0.01492094 -0.2892971 -0.01487672 0.01487672 -0.2890745 -0.01482278 0.01482278 -0.2888541 0.01451277 -0.01451277 -0.3119976 0.0144124 -0.0144124 -0.3122011 0.01430332 -0.01430332 -0.3124 0.0141856 -0.0141856 -0.3125939 0.01405954 -0.01405954 -0.3127826 0.01199758 -0.01199758 -0.3145128 0.0115785 -0.0115785 -0.3146864 0.01114583 -0.01114583 -0.3148228 0.01070296 -0.01070296 -0.314921 -0.0147593 0.0147593 -0.2886363 -0.0146864 0.0146864 -0.2884215 -0.01460415 0.01460415 -0.28821 0.01392543 -0.01392543 -0.3129656 0.01378339 -0.01378339 -0.3131425 -0.01199758 0.01199758 -0.2854872 -0.0115785 0.0115785 -0.2853136 -0.01114583 0.01114583 -0.2851772 -0.01070296 0.01070296 -0.285079 0.01430332 -0.01430332 -0.2876 0.0141856 -0.0141856 -0.287406 0.01405954 -0.01405954 -0.2872174 0.01392543 -0.01392543 -0.2870345 0.01378339 -0.01378339 -0.2868575 0.0134769 -0.0134769 -0.3134769 0.01070296 -0.01070296 -0.285079 0.01114583 -0.01114583 -0.2851772 0.0115785 -0.0115785 -0.2853136 0.01199758 -0.01199758 -0.2854872 0.0134769 -0.0134769 -0.2865231 -0.01451277 0.01451277 -0.2880024 -0.0144124 0.0144124 -0.2877989 -0.01430332 0.01430332 -0.2876 -0.0141856 0.0141856 -0.287406 -0.01405954 0.01405954 -0.2872174 0.01239997 -0.01239997 -0.2856966 0.01278257 -0.01278257 -0.2859404 0.01314246 -0.01314246 -0.2862166 0.01314246 -0.01314246 -0.3137834 0.01278257 -0.01278257 -0.3140596 0.01239997 -0.01239997 -0.3143033 -0.01392543 0.01392543 -0.2870345 -0.01378339 0.01378339 -0.2868575 -0.0134769 0.0134769 -0.2865231 0.01025319 -0.01025319 -0.3149802 0.009799957 -0.009799957 -0.315 -0.01314246 0.01314246 -0.2862166 -0.01278257 0.01278257 -0.2859404 -0.01239997 0.01239997 -0.2856966 -0.01025319 0.01025319 -0.2850198 -0.009799957 0.009799957 -0.285 0.009799957 -0.009799957 -0.285 0.01025319 -0.01025319 -0.2850198</float_array>
          <technique_common>
            <accessor source="#chassis_default_as_machined__24-mesh-positions-array" count="368" stride="3">
              <param name="X" type="float"/>
              <param name="Y" type="float"/>
              <param name="Z" type="float"/>
            </accessor>
          </technique_common>
        </source>
        <source id="chassis_default_as_machined__24-mesh-normals">
          <float_array id="chassis_default_as_machined__24-mesh-normals-array" count="1659">0 1 0 0 1 4.9397e-5 0 1 -2.46995e-5 0 1 -4.9397e-5 0 1 1.85242e-5 0 1 3.47325e-6 0 1 2.46984e-5 0 1 -4.93961e-5 0 1 4.93986e-5 0 1 9.87947e-5 0 1 -4.94001e-5 0 1 2.46995e-5 0 1 4.93983e-5 0 1 -1.8524e-5 0 1 -3.47325e-6 0 1 -2.46984e-5 0 1 4.93961e-5 0 1 -4.93986e-5 0 1 -9.87953e-5 -0.9914448 0 -0.1305267 -0.9883707 5.81806e-5 -0.1520639 -0.9940552 0 -0.108878 -0.9990484 0 -0.04361826 -0.9978595 5.82165e-5 -0.06539493 -0.999762 0 -0.02181857 -0.9537093 0 -0.3007305 -0.9469506 5.80917e-5 -0.3213794 -0.9600348 0 -0.2798808 -0.9763011 0 -0.2164168 -0.9713361 5.81542e-5 -0.2377104 -0.9807826 0 -0.1951037 -0.8870139 0 -0.4617428 -0.8768396 5.79015e-5 -0.4807829 -0.8968323 0 -0.4423708 -0.9238618 0 -0.3827263 -0.9153134 5.80906e-5 -0.4027426 -0.9320241 0 -0.3623964 -0.7797706 5.80081e-5 -0.6260653 -0.8065312 0 -0.5911916 -0.8433625 0 -0.5373451 -0.8314792 5.80178e-5 -0.555556 -0.854823 0 -0.5189198 -0.7934044 0 -0.608695 -0.7372353 0 -0.6756362 -0.7372459 0 -0.6756246 -0.6756149 0 -0.7372547 -0.6755755 0 -0.7372909 -0.608763 0 -0.7933523 -0.6086825 0 -0.7934138 -0.5373 0 -0.8433913 -0.5374003 0 -0.8433272 -0.4617078 0 -0.8870321 -0.4616847 0 -0.8870443 -0.3826823 0 -0.9238801 -0.3827012 0 -0.9238722 -0.3006907 0 -0.9537218 -0.3006975 0 -0.9537196 -0.2164303 0 -0.9762982 -0.216445 0 -0.9762949 -0.1305082 0 -0.9914473 -0.1305475 0 -0.991442 -0.04361003 0 -0.9990487 -0.04359096 0 -0.9990496 0.04368454 0 0.9990454 0.04355365 0 0.9990511 0.1304739 0 0.9914517 0.130639 0 0.9914301 0.2163599 0 0.9763137 0.2164422 0 0.9762955 0.3005844 0 0.9537552 0.3009238 0 0.9536482 0.3827236 0 0.9238629 0.3824727 0 0.9239669 0.4618414 0 0.8869626 0.4616674 0 0.8870531 0.5372288 0 0.8434365 0.5373806 0 0.8433399 0.6088443 0 0.7932897 0.6086461 0 0.793442 0.6755908 0 0.7372769 0.6757389 0 0.737141 0.7372655 0 0.6756032 0.737217 0 0.6756561 0.8434147 0 0.5372632 0.8549386 -2.85804e-5 0.5187292 0.8315905 0 0.5553892 0.7933498 0 0.6087663 0.8060842 -2.84681e-5 0.5918011 0.7801232 0 0.625626 0.9238798 0 0.3826829 0.932024 -2.86634e-5 0.3623967 0.9153267 0 0.4027122 0.886955 0 0.4618561 0.8969767 -2.86362e-5 0.4420779 0.8766035 0 0.4812136 0.9763038 0 0.2164044 0.9807741 -2.87002e-5 0.1951466 0.9713459 0 0.2376704 0.9537014 0 0.3007551 0.9600735 -2.8638e-5 0.2797479 0.9469231 0 0.3214603 0.9990484 0 0.04361802 0.9997621 -2.86637e-5 0.02181744 0.9978595 0 0.06539452 0.9914455 0 0.130522 0.9940528 -2.8652e-5 0.1089005 0.9883633 0 0.152112 0 0 1 -0.9997621 0 0.02181226 -0.9990482 -1.25326e-5 0.04361999 -0.9914467 -1.25282e-5 0.130513 -0.9940469 0 0.1089535 -0.9978592 0 0.06539845 -0.9762944 -1.25577e-5 0.2164472 -0.9807954 0 0.1950395 -0.9883615 0 0.1521233 -0.9537037 -1.25475e-5 0.3007483 -0.9600206 0 0.2799295 -0.9713551 0 0.2376331 -0.9238907 -1.2565e-5 0.3826566 -0.9320555 0 0.3623157 -0.9469231 0 0.3214603 -0.8870267 -1.25713e-5 0.4617182 -0.8968623 0 0.4423099 -0.9153466 0 0.4026671 -0.8433465 -1.25605e-5 0.5373704 -0.8548322 0 0.5189047 -0.8767614 0 0.4809256 -0.7798401 -2.50203e-5 0.6259789 -0.8065638 0 0.5911471 -0.8316196 0 0.5553459 -0.7933545 0 0.6087601 -0.7371987 0 0.6756761 -0.7373085 0 0.6755564 -0.6755633 0 0.737302 -0.6756032 0 0.7372655 -0.6086398 0 0.7934467 -0.6087803 0 0.793339 -0.537444 0 0.8432995 -0.537102 0 0.8435174 -0.4619309 0 0.8869159 -0.4619085 0 0.8869276 -0.3825038 0 0.9239539 -0.3827103 0 0.9238685 -0.3007916 0 0.9536899 -0.3006359 0 0.9537391 -0.2164394 0 0.9762961 -0.216513 0 0.9762797 -0.1305491 0 0.9914419 -0.1305315 0 0.9914442 -0.04362273 0 0.9990482 -0.04367339 0 0.9990459 -1 0 0 0 0 -1 -2.1697e-6 0 -1 -0.04350513 0 -0.9990533 -0.04362279 0 -0.9990482 -0.1305315 0 -0.9914442 -0.1303837 0 -0.9914636 -0.216513 0 -0.9762798 -0.2161191 0 -0.9763671 -0.3009415 0 -0.9536427 -0.3006389 0 -0.9537381 -0.3827102 0 -0.9238685 -0.382647 0 -0.9238947 -0.4619085 0 -0.8869277 -0.4616674 0 -0.8870532 -0.5373404 0 -0.8433655 -0.5372059 0 -0.8434512 -0.608675 0 -0.7934197 -0.6088502 0 -0.7932853 -0.6756033 0 -0.7372654 -0.6756541 0 -0.7372189 -0.7371559 0 -0.6757228 -0.7373511 0 -0.6755098 -0.7799236 0 -0.6258747 -0.7934339 -1.25141e-5 -0.6086565 -0.8062139 0 -0.5916243 -0.8313651 0 -0.5557268 -0.8434427 -1.2557e-5 -0.5372192 -0.8549219 0 -0.5187569 -0.8767771 0 -0.4808973 -0.8870267 -1.25051e-5 -0.4617182 -0.8967971 0 -0.4424421 -0.9153344 0 -0.4026948 -0.9238907 -1.2565e-5 -0.3826566 -0.9320117 0 -0.3624281 -0.9469403 0 -0.3214097 -0.9537037 -1.25475e-5 -0.3007483 -0.9600728 0 -0.2797507 -0.9713429 0 -0.2376829 -0.9762944 -1.25222e-5 -0.2164472 -0.9807828 0 -0.1951031 -0.9883623 0 -0.1521185 -0.9914467 -1.25434e-5 -0.130513 -0.9940588 0 -0.1088455 -0.9978587 0 -0.06540673 -0.9990482 -1.25377e-5 -0.04361999 -0.9997618 0 -0.02182674 1 0 0 0.9914458 0 -0.1305193 0.9883576 -2.86873e-5 -0.1521492 0.9940593 0 -0.1088408 0.9990475 0 -0.04363709 0.9978615 -2.86535e-5 -0.06536602 0.9997619 0 -0.02181839 0.9537019 0 -0.300754 0.9469028 -2.8665e-5 -0.32152 0.9600437 0 -0.2798504 0.9763087 0 -0.2163828 0.97134 -2.86212e-5 -0.2376946 0.9807847 0 -0.1950938 0.8870025 0 -0.4617648 0.8768844 -2.84988e-5 -0.4807016 0.8967857 0 -0.4424652 0.9238954 0 -0.3826454 0.915278 -2.86864e-5 -0.402823 0.9320553 0 -0.3623163 0.7798798 -2.84674e-5 -0.6259294 0.8064419 0 -0.5913134 0.8434624 0 -0.5371884 0.83142 -2.86068e-5 -0.5556448 0.8547929 0 -0.5189695 0.7933964 0 -0.6087054 0.7373036 0 -0.6755616 0.737179 0 -0.6756976 0.675533 0 -0.7373298 0.6755908 0 -0.7372769 0.6087652 0 -0.7933505 0.6087254 0 -0.793381 0.5371116 0 -0.8435112 0.5373632 0 -0.843351 0.461816 0 -0.8869759 0.4619898 0 -0.8868853 0.3826338 0 -0.9239001 0.3825628 0 -0.9239295 0.300581 0 -0.9537564 0.3007557 0 -0.9537013 0.2162628 0 -0.9763352 0.2167182 0 -0.9762343 0.1304542 0 -0.9914544 0.1304739 0 -0.9914517 0.04355365 0 -0.9990511 0.0438717 0 -0.9990372 -0.707022 -0.7071916 0 -0.7071076 -0.707106 0 -0.7071058 -0.7071078 0 -0.7070454 -0.7071682 0 -0.7071613 -0.7070523 0 -0.7070692 -0.7071444 -8.72494e-6 -0.7070457 -0.7071679 0 -0.7070261 -0.7071875 0 -0.7071849 -0.7070288 0 -0.7070692 -0.7071444 8.72494e-6 -0.7071384 -0.7070752 0 -0.7070719 -0.7071417 0 -0.7072343 -0.7069792 0 -0.7071492 -0.7070643 -8.70702e-6 -0.7071353 -0.7070783 0 -0.7071645 -0.7070491 8.70721e-6 -0.7070761 -0.7071375 0 -0.7070546 -0.7071591 0 -0.7070545 -0.7071592 8.72476e-6 -0.7071895 -0.7070241 -8.7058e-6 -0.7070992 -0.7071144 0 -0.7070893 -0.7071243 0 -0.7071513 -0.7070624 0 -0.7068971 -0.7073163 0 -0.7071849 -0.7070288 0 -0.7071289 -0.7070847 -1.765e-5 -0.7071307 -0.7070829 8.67432e-6 -0.707327 -0.7068865 0 -0.7070608 -0.7071529 3.8854e-6 -0.7070689 -0.7071447 -8.72494e-6 -0.7070217 -0.7071919 0 -0.707185 -0.7070286 0 -0.7071074 -0.7071062 0 -0.707106 -0.7071076 0 -0.7071616 -0.707052 0 -0.7070453 -0.7071683 0 -0.7070978 -0.7071158 4.94166e-6 -0.707195 -0.7070187 0 -0.7071133 -0.7071003 0 -0.7067624 -0.707451 1.76549e-5 -0.7071307 -0.7070829 -8.67432e-6 -0.7071289 -0.7070847 1.765e-5 -0.7071263 -0.7070873 -4.33713e-6 -0.7071332 -0.7070803 0 -0.7070114 -0.7072022 0 -0.707076 -0.7071377 0 -0.7070534 -0.7071602 8.72475e-6 -0.7071645 -0.7070491 -8.70721e-6 -0.7070017 -0.7072119 0 -0.7070455 -0.7071681 0 -0.7071895 -0.7070241 8.7058e-6 -0.707068 -0.7071456 0 -0.7071112 -0.7071023 -8.92817e-6 -0.7070896 -0.7071241 0 -0.7071157 -0.7070978 0 -0.707109 -0.7071046 0 -0.7070533 -0.7071604 -8.92744e-6 -0.7071413 -0.7070723 0 -0.7072318 -0.7069818 0 -0.7071607 -0.7070529 0 -0.7071089 -0.7071046 -1.0833e-6 -0.7070869 -0.7071268 0 -0.7071079 -0.7071058 -2.70825e-7 -0.7071135 -0.7071002 0 -0.7071014 -0.7071123 0 -0.7071079 -0.7071058 0 -0.7072656 -0.706948 0 -0.7067624 -0.707451 -1.76549e-5 -0.7070875 -0.7071261 4.28061e-6 -0.7068392 -0.7073743 -9.07134e-6 -0.7071796 -0.7070341 4.28033e-6 -0.7071003 -0.7071133 0 -0.7070569 -0.7071567 -4.33756e-6 -0.7070808 -0.7071328 0 -0.707217 -0.7069965 0 -0.7071003 -0.7071133 -1.08331e-6 -0.7071046 -0.707109 0 -0.7072066 -0.7070071 4.33677e-6 -0.7070378 -0.7071759 0 -0.707089 -0.7071247 0 -0.7070918 -0.7071219 0 -0.7071514 -0.7070621 0 -0.7070745 -0.7071391 4.31311e-6 -0.7073209 -0.7068926 -8.92361e-6 -0.707068 -0.7071456 4.31307e-6 -0.7071123 -0.7071014 0 -0.7070675 -0.7071461 1.09158e-6 -0.7071046 -0.707109 -1.09153e-6 -0.7071199 -0.7070937 2.18312e-6 -0.7071521 -0.7070615 -9.06791e-6 -0.7069461 -0.7072675 0 -0.7071444 -0.7070691 -2.15236e-6 -0.7070948 -0.7071188 0 -0.7071199 -0.7070937 1.0915e-6 -0.7071221 -0.7070915 -1.09151e-6 -0.7071024 -0.7071111 2.18317e-6 -0.7071068 -0.7071068 0 -0.7071024 -0.7071112 0 -0.7071213 -0.7070923 -3.06887e-6 -0.707137 -0.7070766 0 -0.7069728 -0.7072408 0 -0.7071478 -0.7070659 0 -0.7071961 -0.7070176 -8.92564e-6 -0.707133 -0.7070806 2.18294e-6 -0.7071179 -0.7070958 -2.21684e-6 -0.7070949 -0.7071187 1.08333e-6 -0.7071157 -0.707098 -2.21683e-6 -0.7070873 -0.7071263 0 -0.7071445 -0.7070691 0 -0.7070949 -0.7071187 2.16666e-6 -0.7071223 -0.7070913 -4.4337e-6 -0.7071209 -0.7070927 0 -0.7070097 -0.7072039 0 -0.7071846 -0.7070289 6.13759e-6 -0.7069979 -0.7072156 9.06966e-6 -0.7069728 -0.7072408 -8.93003e-6 -0.7071294 -0.7070842 0 -0.7071158 -0.7070977 0 -0.7071154 -0.7070983 0 -0.7071183 -0.7070954 0 -0.7070812 -0.7071324 1.06727e-6 -0.7071068 -0.7071068 -2.28725e-6 -0.7070962 -0.7071175 0 -0.7070953 -0.7071182 0 -0.7071142 -0.7070994 1.66264e-6 -0.7070288 -0.7071849 4.33739e-6 -0.7069371 -0.7072765 0 -0.7070421 -0.7071714 4.31292e-6 -0.7072452 -0.7069684 -8.92626e-6 -0.7071349 -0.7070788 4.31264e-6 -0.7071218 -0.7070918 4.28081e-6 -0.7070524 -0.7071613 -9.07036e-6 -0.7071111 -0.7071025 4.28075e-6 -0.7070851 -0.7071285 0 -0.7072436 -0.70697 0 -0.7070008 -0.7072129 -3.06936e-6 -0.7072337 -0.7069799 -9.06524e-6 -0.7070934 -0.7071202 0 -0.7070799 -0.7071337 -2.15248e-6 -0.707109 -0.7071046 -5.54202e-7 -0.7070959 -0.7071177 1.09157e-6 -0.7070989 -0.7071147 0 -0.7071155 -0.7070981 0 -0.7071057 -0.7071079 -2.72891e-7 -0.7071033 -0.7071104 0 -0.7071097 -0.7071039 0 -0.7071036 -0.7071101 0 -0.7071134 -0.7071003 5.45774e-7 -0.7071024 -0.7071111 0 -0.7071046 -0.707109 0 -0.7071056 -0.707108 -1.09156e-6 -0.7070981 -0.7071155 2.18305e-6 -0.7071123 -0.7071014 1.08331e-6 -0.7070802 -0.7071334 -2.21694e-6 -0.7071219 -0.7070916 0 -0.7070381 -0.7071756 0 -0.7071296 -0.7070841 2.16656e-6 -0.7070869 -0.7071267 -4.43392e-6 -0.7071036 -0.7071101 0 -0.7072215 -0.7069921 0 -0.7069971 -0.7072165 6.13922e-6 -0.7070705 -0.7071431 9.06873e-6 -0.7071871 -0.7070264 -8.92733e-6 -0.7071121 -0.7071014 0 -0.7070434 -0.7071703 0 -0.7070983 -0.7071154 0 -0.7071153 -0.7070983 1.06722e-6 -0.7071047 -0.7071089 0 -0.7071097 -0.7071039 1.66265e-6 -0.7071002 -0.7071135 -5.54209e-7 -0.7071134 -0.7071003 1.09155e-6 -0.7071094 -0.7071042 0 -0.7071101 -0.7071036 -2.72886e-7 -0.7071056 -0.707108 0 -0.707109 -0.7071046 5.4577e-7 -0.7070959 -0.7071177 0 -0.7071143 -0.7070993 -1.09155e-6 0.04367339 0 -0.999046 0.04365617 0 -0.9990466 0.1306304 0 -0.9914311 0.1305003 0 -0.9914483 0.2163569 0 -0.9763144 0.2163701 0 -0.9763115 0.300764 0 -0.9536986 0.3007698 0 -0.9536968 0.3827301 0 -0.9238603 0.3826755 0 -0.9238829 0.4617179 0 -0.8870269 0.4616975 0 -0.8870376 0.5373689 0 -0.8433474 0.5372201 0 -0.8434421 0.6087667 0 -0.7933493 0.608749 0 -0.7933629 0.6756126 0 -0.7372569 0.6756233 0 -0.737247 0.7372514 0 -0.6756186 0.7372982 0 -0.6755675 0.7799667 0 -0.6258212 0.7933523 2.49242e-5 -0.6087628 0.8064319 0 -0.5913271 0.8314209 0 -0.555643 0.8433802 2.48672e-5 -0.5373175 0.8549388 0 -0.518729 0.8766976 0 -0.4810419 0.8870335 2.47655e-5 -0.4617052 0.8968478 0 -0.4423393 0.9153175 0 -0.4027331 0.9238657 2.47914e-5 -0.382717 0.932026 0 -0.3623915 0.9469155 0 -0.3214826 0.9537262 2.47525e-5 -0.3006768 0.9600413 0 -0.2798584 0.9713393 0 -0.2376975 0.9762987 2.47441e-5 -0.2164279 0.9807869 0 -0.1950824 0.9883545 0 -0.1521694 0.9914456 2.47496e-5 -0.1305217 0.9940595 0 -0.1088391 0.9978581 0 -0.06541687 0.9990485 2.47477e-5 -0.0436123 0.999762 0 -0.02181637 0.9997622 0 0.02180922 0.9990482 2.47517e-5 0.04361951 0.9914456 2.47396e-5 0.1305217 0.9940516 0 0.1089102 0.9978591 0 0.06540089 0.9762948 2.47812e-5 0.2164452 0.9807931 0 0.195051 0.988365 0 0.152101 0.9537039 2.47834e-5 0.3007476 0.9600542 0 0.2798143 0.9713408 0 0.2376911 0.9238898 2.47876e-5 0.3826588 0.9319828 0 0.3625026 0.9469624 0 0.3213446 0.8869808 2.48061e-5 0.4618064 0.89688 0 0.442274 0.9153016 0 0.4027693 0.8433563 2.49143e-5 0.5373548 0.8549831 0 0.518656 0.8767545 0 0.4809383 0.779995 4.9691e-5 0.6257858 0.8063742 0 0.5914058 0.8315131 0 0.5555053 0.793348 0 0.6087684 0.7372605 0 0.6756086 0.7372891 0 0.6755774 0.6756234 0 0.7372469 0.6755675 0 0.7372982 0.608749 0 0.7933629 0.6087144 0 0.7933894 0.5373383 0 0.8433669 0.5373097 0 0.843385 0.4617629 0 0.8870034 0.4617179 0 0.8870269 0.3827466 0 0.9238533 0.3825874 0 0.9239194 0.3007699 0 0.9536968 0.3006879 0 0.9537227 0.2163701 0 0.9763115 0.2164369 0 0.9762967 0.1305828 0 0.9914374 0.130465 0 0.991453 0.04365617 0 0.9990466 0.04350513 0 0.9990533 -0.04359096 0 0.9990495 -0.04370385 0 0.9990445 -0.1305475 0 0.9914421 -0.1306008 0 0.9914351 -0.216445 0 0.9762949 -0.2163403 0 0.9763181 -0.3007835 0 0.9536926 -0.3007768 0 0.9536947 -0.3826204 0 0.9239057 -0.3827633 0 0.9238466 -0.4616845 0 0.8870442 -0.4617078 0 0.8870321 -0.537265 0 0.8434136 -0.5373 0 0.8433913 -0.6087427 0 0.7933679 -0.6088231 0 0.7933061 -0.6755756 0 0.7372909 -0.6756669 0 0.7372071 -0.7372896 0 0.6755769 -0.7373228 0 0.6755406 -0.8434047 0 0.537279 -0.8549103 5.80425e-5 0.518776 -0.8314689 0 0.5555712 -0.7933453 0 0.6087719 -0.8063445 5.77985e-5 0.5914462 -0.7799025 0 0.6259011 -0.9238726 0 0.3827003 -0.932021 5.80264e-5 0.3624042 -0.9153183 0 0.4027311 -0.8869792 0 0.4618093 -0.8968806 5.79351e-5 0.442273 -0.8766579 0 0.4811145 -0.9762959 0 0.2164406 -0.9807895 5.81903e-5 0.1950694 -0.9713371 0 0.2377062 -0.9537259 0 0.3006774 -0.9600502 5.81143e-5 0.2798283 -0.9469568 0 0.3213614 -0.9990486 0 0.04361319 -0.9997619 5.82261e-5 0.0218181 -0.9978591 0 0.0654025 -0.9914425 0 0.1305445 -0.9940579 5.81508e-5 0.1088527 -0.9883549 0 0.152167</float_array>
          <technique_common>
            <accessor source="#chassis_default_as_machined__24-mesh-normals-array" count="553" stride="3">
              <param name="X" type="float"/>
              <param name="Y" type="float"/>
              <param name="Z" type="float"/>
            </accessor>
          </technique_common>
        </source>
        <vertices id="chassis_default_as_machined__24-mesh-vertices">
          <input semantic="POSITION" source="#chassis_default_as_machined__24-mesh-positions"/>
        </vertices>
        <triangles count="736">
          <input semantic="VERTEX" source="#chassis_default_as_machined__24-mesh-vertices" offset="0"/>
          <input semantic="NORMAL" source="#chassis_default_as_machined__24-mesh-normals" offset="1"/>
          <p>0 0 1 0 2 0 1 0 3 0 2 0 2 0 3 0 4 0 3 0 5 0 4 0 4 0 5 0 6 0 5 0 7 0 6 0 6 0 7 0 8 0 7 0 9 0 8 0 8 0 9 0 10 0 9 0 11 0 10 0 10 0 11 0 12 0 11 0 13 0 12 0 12 0 13 0 14 0 13 1 15 1 14 1 14 0 15 0 16 0 15 0 17 0 16 0 16 0 17 0 18 0 17 0 19 0 18 0 18 0 19 0 20 0 19 0 21 0 20 0 20 0 21 0 22 0 21 0 23 0 22 0 22 0 23 0 24 0 23 0 25 0 24 0 24 0 25 0 26 0 25 0 27 0 26 0 26 0 27 0 28 0 27 2 29 2 28 2 28 0 29 0 30 0 29 0 31 0 30 0 30 0 31 0 32 0 31 0 33 0 32 0 32 0 33 0 34 0 33 0 35 0 34 0 34 3 35 3 36 3 35 4 37 4 36 4 36 0 37 0 38 0 37 0 39 0 38 0 38 0 39 0 40 0 39 0 41 0 40 0 40 0 41 0 42 0 41 0 43 0 42 0 42 5 43 5 44 5 43 0 45 0 44 0 44 0 45 0 46 0 45 0 47 0 46 0 46 6 47 6 48 6 47 0 49 0 48 0 48 0 49 0 50 0 49 0 51 0 50 0 50 7 51 7 52 7 51 0 53 0 52 0 52 0 53 0 54 0 53 0 55 0 54 0 54 8 55 8 56 8 55 0 57 0 56 0 56 0 57 0 58 0 57 0 59 0 58 0 58 0 59 0 60 0 59 0 61 0 60 0 60 0 61 0 62 0 61 0 63 0 62 0 62 0 63 0 64 0 63 0 65 0 64 0 64 9 65 9 66 9 65 0 67 0 66 0 66 0 67 0 68 0 67 0 69 0 68 0 68 0 69 0 70 0 69 0 71 0 70 0 70 0 71 0 72 0 71 0 73 0 72 0 72 0 73 0 74 0 73 0 75 0 74 0 74 0 75 0 76 0 75 0 77 0 76 0 76 0 77 0 78 0 77 0 79 0 78 0 78 0 79 0 80 0 79 0 81 0 80 0 80 0 81 0 82 0 81 0 83 0 82 0 82 0 83 0 84 0 83 0 85 0 84 0 84 0 85 0 86 0 85 0 87 0 86 0 86 0 87 0 88 0 87 0 89 0 88 0 88 0 89 0 90 0 89 10 91 10 90 10 90 0 91 0 92 0 91 0 93 0 92 0 92 0 93 0 94 0 93 0 95 0 94 0 94 0 95 0 96 0 95 0 97 0 96 0 96 0 97 0 98 0 97 0 99 0 98 0 98 0 99 0 100 0 99 0 101 0 100 0 100 0 101 0 102 0 101 0 103 0 102 0 102 0 103 0 104 0 103 11 105 11 104 11 104 0 105 0 106 0 105 0 107 0 106 0 106 0 107 0 108 0 107 0 109 0 108 0 108 0 109 0 110 0 109 0 111 0 110 0 110 12 111 12 112 12 111 13 113 13 112 13 112 0 113 0 114 0 113 0 115 0 114 0 114 0 115 0 116 0 115 0 117 0 116 0 116 0 117 0 118 0 117 0 119 0 118 0 118 14 119 14 120 14 119 0 121 0 120 0 120 0 121 0 122 0 121 0 123 0 122 0 122 15 123 15 124 15 123 0 125 0 124 0 124 0 125 0 126 0 125 0 127 0 126 0 126 16 127 16 128 16 127 0 129 0 128 0 128 0 129 0 130 0 129 0 131 0 130 0 130 17 131 17 132 17 131 0 133 0 132 0 132 0 133 0 134 0 133 0 135 0 134 0 134 0 135 0 136 0 135 0 137 0 136 0 136 0 137 0 138 0 137 0 139 0 138 0 138 0 139 0 140 0 139 0 141 0 140 0 140 18 141 18 142 18 141 0 143 0 142 0 142 0 143 0 144 0 143 0 145 0 144 0 144 0 145 0 146 0 145 0 147 0 146 0 146 0 147 0 148 0 147 0 149 0 148 0 148 0 149 0 150 0 149 0 151 0 150 0 150 0 151 0 0 0 151 0 1 0 0 0 75 19 73 19 152 19 152 20 153 20 75 20 153 21 154 21 75 21 75 22 154 22 77 22 154 23 155 23 77 23 77 24 155 24 156 24 71 25 69 25 157 25 157 26 158 26 71 26 158 27 159 27 71 27 71 28 159 28 73 28 159 29 160 29 73 29 73 30 160 30 152 30 67 31 65 31 161 31 161 32 162 32 67 32 162 33 163 33 67 33 67 34 163 34 69 34 163 35 164 35 69 35 69 36 164 36 157 36 165 37 166 37 63 37 166 38 167 38 63 38 63 39 167 39 65 39 167 40 168 40 65 40 65 41 168 41 161 41 63 42 61 42 165 42 61 43 59 43 165 43 165 44 59 44 169 44 59 45 57 45 169 45 169 46 57 46 170 46 57 47 55 47 170 47 170 48 55 48 171 48 55 49 53 49 171 49 171 50 53 50 172 50 53 51 51 51 172 51 172 52 51 52 173 52 51 53 49 53 173 53 173 54 49 54 174 54 49 55 47 55 174 55 174 56 47 56 175 56 47 57 45 57 175 57 175 58 45 58 176 58 45 59 43 59 176 59 176 60 43 60 177 60 43 61 41 61 177 61 177 62 41 62 178 62 179 63 40 63 42 63 179 64 42 64 180 64 42 65 44 65 180 65 180 66 44 66 181 66 44 67 46 67 181 67 181 68 46 68 182 68 46 69 48 69 182 69 182 70 48 70 183 70 48 71 50 71 183 71 183 72 50 72 184 72 50 73 52 73 184 73 184 74 52 74 185 74 52 75 54 75 185 75 185 76 54 76 186 76 54 77 56 77 186 77 186 78 56 78 187 78 56 79 58 79 187 79 187 80 58 80 188 80 58 81 60 81 188 81 188 82 60 82 189 82 62 83 64 83 190 83 190 84 191 84 62 84 191 85 192 85 62 85 62 86 192 86 60 86 192 87 193 87 60 87 60 88 193 88 189 88 66 89 68 89 194 89 194 90 195 90 66 90 195 91 196 91 66 91 66 92 196 92 64 92 196 93 197 93 64 93 64 94 197 94 190 94 70 95 72 95 198 95 198 96 199 96 70 96 199 97 200 97 70 97 70 98 200 98 68 98 200 99 201 99 68 99 68 100 201 100 194 100 74 101 76 101 202 101 202 102 203 102 74 102 203 103 204 103 74 103 74 104 204 104 72 104 204 105 205 105 72 105 72 106 205 106 198 106 40 107 179 107 38 107 179 107 206 107 38 107 207 108 2 108 208 108 2 109 4 109 208 109 6 110 209 110 4 110 209 111 210 111 4 111 4 112 210 112 208 112 8 113 211 113 6 113 211 114 212 114 6 114 6 115 212 115 209 115 10 116 213 116 8 116 213 117 214 117 8 117 8 118 214 118 211 118 12 119 215 119 10 119 215 120 216 120 10 120 10 121 216 121 213 121 14 122 217 122 12 122 217 123 218 123 12 123 12 124 218 124 215 124 16 125 219 125 14 125 219 126 220 126 14 126 14 127 220 127 217 127 221 128 222 128 16 128 222 129 223 129 16 129 16 130 223 130 219 130 16 131 18 131 221 131 18 132 20 132 221 132 221 133 20 133 224 133 20 134 22 134 224 134 224 135 22 135 225 135 22 136 24 136 225 136 225 137 24 137 226 137 24 138 26 138 226 138 226 139 26 139 227 139 26 140 28 140 227 140 227 141 28 141 228 141 28 142 30 142 228 142 228 143 30 143 229 143 30 144 32 144 229 144 229 145 32 145 230 145 32 146 34 146 230 146 230 147 34 147 231 147 34 148 36 148 231 148 231 149 36 149 232 149 36 150 38 150 232 150 232 151 38 151 206 151 2 152 207 152 0 152 207 152 233 152 0 152 116 153 234 153 114 153 234 154 235 154 114 154 234 155 116 155 118 155 234 156 118 156 236 156 118 157 120 157 236 157 236 158 120 158 237 158 120 159 122 159 237 159 237 160 122 160 238 160 122 161 124 161 238 161 238 162 124 162 239 162 124 163 126 163 239 163 239 164 126 164 240 164 126 165 128 165 240 165 240 166 128 166 241 166 128 167 130 167 241 167 241 168 130 168 242 168 130 169 132 169 242 169 242 170 132 170 243 170 132 171 134 171 243 171 243 172 134 172 244 172 134 173 136 173 244 173 244 174 136 174 245 174 245 175 136 175 246 175 136 176 138 176 246 176 246 177 138 177 247 177 247 178 138 178 248 178 138 179 140 179 248 179 248 180 140 180 249 180 249 181 140 181 250 181 140 182 142 182 250 182 250 183 142 183 251 183 251 184 142 184 252 184 142 185 144 185 252 185 252 186 144 186 253 186 253 187 144 187 254 187 144 188 146 188 254 188 254 189 146 189 255 189 255 190 146 190 256 190 146 191 148 191 256 191 256 192 148 192 257 192 257 193 148 193 258 193 148 194 150 194 258 194 258 195 150 195 259 195 259 196 150 196 260 196 150 197 0 197 260 197 260 198 0 198 233 198 78 199 261 199 76 199 261 199 202 199 76 199 80 200 82 200 262 200 262 201 263 201 80 201 263 202 264 202 80 202 80 203 264 203 78 203 264 204 265 204 78 204 78 205 265 205 261 205 84 206 86 206 266 206 266 207 267 207 84 207 267 208 268 208 84 208 84 209 268 209 82 209 268 210 269 210 82 210 82 211 269 211 262 211 88 212 90 212 270 212 270 213 271 213 88 213 271 214 272 214 88 214 88 215 272 215 86 215 272 216 273 216 86 216 86 217 273 217 266 217 274 218 275 218 92 218 275 219 276 219 92 219 92 220 276 220 90 220 276 221 277 221 90 221 90 222 277 222 270 222 92 223 94 223 274 223 94 224 96 224 274 224 274 225 96 225 278 225 96 226 98 226 278 226 278 227 98 227 279 227 98 228 100 228 279 228 279 229 100 229 280 229 100 230 102 230 280 230 280 231 102 231 281 231 102 232 104 232 281 232 281 233 104 233 282 233 104 234 106 234 282 234 282 235 106 235 283 235 106 236 108 236 283 236 283 237 108 237 284 237 108 238 110 238 284 238 284 239 110 239 285 239 110 240 112 240 285 240 285 241 112 241 286 241 112 242 114 242 286 242 286 243 114 243 235 243 260 244 233 244 287 244 287 245 233 245 288 245 233 246 207 246 288 246 288 247 207 247 289 247 207 248 208 248 289 248 289 249 208 249 290 249 208 250 210 250 290 250 290 251 210 251 291 251 287 252 292 252 260 252 292 253 293 253 260 253 260 254 293 254 259 254 293 255 294 255 259 255 259 256 294 256 258 256 291 257 210 257 295 257 210 258 209 258 295 258 295 259 209 259 296 259 209 260 212 260 296 260 296 261 212 261 297 261 294 262 298 262 258 262 298 263 299 263 258 263 258 260 299 260 257 260 299 264 300 264 257 264 257 265 300 265 256 265 297 266 212 266 301 266 212 267 211 267 301 267 301 268 211 268 302 268 211 269 214 269 302 269 302 270 214 270 303 270 203 250 154 250 204 250 154 251 153 251 204 251 204 271 153 271 205 271 264 272 304 272 305 272 264 254 305 254 265 254 305 273 306 273 265 273 265 274 306 274 261 274 306 275 307 275 261 275 261 276 307 276 202 276 307 277 156 277 202 277 202 278 156 278 203 278 156 279 155 279 203 279 203 280 155 280 154 280 300 281 308 281 256 281 308 282 309 282 256 282 256 283 309 283 255 283 309 284 310 284 255 284 255 285 310 285 254 285 310 286 311 286 254 286 254 287 311 287 253 287 311 288 312 288 253 288 253 289 312 289 252 289 153 290 152 290 205 290 152 291 160 291 205 291 205 260 160 260 198 260 160 261 159 261 198 261 198 292 159 292 199 292 304 257 264 257 313 257 264 293 263 293 313 293 313 294 263 294 314 294 263 260 262 260 314 260 314 264 262 264 315 264 303 295 214 295 316 295 214 296 213 296 316 296 316 297 213 297 317 297 213 298 216 298 317 298 317 299 216 299 318 299 216 300 215 300 318 300 318 301 215 301 319 301 215 302 218 302 319 302 319 303 218 303 320 303 321 304 227 304 322 304 227 305 228 305 322 305 322 306 228 306 323 306 228 307 229 307 323 307 323 308 229 308 324 308 315 309 262 309 325 309 262 310 269 310 325 310 325 282 269 282 326 282 269 311 268 311 326 311 326 270 268 270 327 270 320 312 218 312 328 312 218 313 217 313 328 313 328 314 217 314 329 314 159 315 158 315 199 315 158 268 157 268 199 268 199 285 157 285 200 285 157 284 164 284 200 284 200 285 164 285 201 285 164 316 163 316 201 316 201 287 163 287 194 287 163 317 162 317 194 317 194 318 162 318 195 318 330 319 281 319 331 319 281 320 282 320 331 320 331 306 282 306 332 306 282 307 283 307 332 307 332 308 283 308 333 308 312 321 334 321 252 321 334 322 335 322 252 322 252 323 335 323 251 323 335 324 336 324 251 324 251 325 336 325 250 325 336 326 337 326 250 326 250 327 337 327 249 327 337 328 338 328 249 328 176 329 182 329 175 329 182 330 183 330 175 330 175 331 183 331 174 331 183 332 184 332 174 332 174 329 184 329 173 329 217 333 220 333 329 333 220 334 219 334 329 334 329 335 219 335 339 335 340 336 238 336 341 336 238 337 239 337 341 337 341 338 239 338 342 338 239 339 240 339 342 339 342 336 240 336 343 336 344 340 247 340 338 340 247 341 248 341 338 341 338 342 248 342 249 342 327 343 268 343 345 343 268 296 267 296 345 296 345 297 267 297 346 297 267 344 266 344 346 344 346 345 266 345 347 345 266 346 273 346 347 346 347 322 273 322 348 322 273 323 272 323 348 323 348 324 272 324 349 324 240 347 241 347 343 347 241 348 242 348 343 348 343 349 242 349 350 349 242 350 243 350 350 350 350 351 243 351 351 351 243 352 244 352 351 352 351 353 244 353 352 353 244 354 245 354 352 354 352 355 245 355 344 355 245 356 246 356 344 356 344 357 246 357 247 357 219 358 223 358 339 358 223 359 222 359 339 359 339 360 222 360 353 360 222 361 221 361 353 361 353 362 221 362 354 362 221 363 224 363 354 363 354 364 224 364 355 364 224 365 225 365 355 365 355 366 225 366 321 366 225 367 226 367 321 367 321 368 226 368 227 368 162 369 161 369 195 369 161 301 168 301 195 301 195 302 168 302 196 302 168 303 167 303 196 303 196 370 167 370 197 370 167 371 166 371 197 371 197 372 166 372 190 372 166 373 165 373 190 373 349 374 272 374 356 374 272 375 271 375 356 375 356 376 271 376 357 376 169 377 192 377 165 377 192 378 191 378 165 378 165 379 191 379 190 379 271 380 270 380 357 380 270 381 277 381 357 381 357 382 277 382 358 382 229 383 230 383 324 383 230 384 231 384 324 384 324 385 231 385 359 385 231 386 232 386 359 386 359 387 232 387 360 387 232 299 206 299 360 299 360 388 206 388 178 388 206 389 179 389 178 389 178 390 179 390 177 390 179 391 180 391 177 391 177 392 180 392 176 392 180 393 181 393 176 393 176 394 181 394 182 394 184 395 185 395 173 395 185 348 186 348 173 348 173 396 186 396 172 396 186 397 187 397 172 397 172 398 187 398 171 398 187 399 188 399 171 399 171 400 188 400 170 400 188 401 189 401 170 401 170 402 189 402 169 402 189 403 193 403 169 403 169 404 193 404 192 404 277 405 276 405 358 405 276 406 275 406 358 406 358 407 275 407 361 407 275 408 274 408 361 408 361 409 274 409 362 409 274 363 278 363 362 363 362 410 278 410 363 410 278 365 279 365 363 365 363 411 279 411 330 411 279 367 280 367 330 367 330 412 280 412 281 412 283 413 284 413 333 413 284 414 285 414 333 414 333 415 285 415 364 415 285 340 286 340 364 340 364 416 286 416 365 416 286 340 235 340 365 340 365 417 235 417 366 417 235 417 234 417 366 417 366 299 234 299 367 299 234 418 236 418 367 418 367 340 236 340 340 340 236 419 237 419 340 419 340 420 237 420 238 420 360 153 178 153 39 153 178 153 41 153 39 153 360 421 39 421 37 421 360 422 37 422 359 422 37 423 35 423 359 423 359 424 35 424 324 424 35 425 33 425 324 425 324 426 33 426 323 426 33 427 31 427 323 427 323 428 31 428 322 428 31 429 29 429 322 429 322 430 29 430 321 430 29 431 27 431 321 431 321 432 27 432 355 432 27 433 25 433 355 433 355 434 25 434 354 434 25 435 23 435 354 435 354 436 23 436 353 436 23 437 21 437 353 437 353 438 21 438 339 438 21 439 19 439 339 439 339 440 19 440 329 440 329 441 19 441 328 441 19 442 17 442 328 442 328 443 17 443 320 443 320 444 17 444 319 444 17 445 15 445 319 445 319 446 15 446 318 446 318 447 15 447 317 447 15 448 13 448 317 448 317 449 13 449 316 449 316 450 13 450 303 450 13 451 11 451 303 451 303 452 11 452 302 452 302 453 11 453 301 453 11 454 9 454 301 454 301 455 9 455 297 455 297 456 9 456 296 456 9 457 7 457 296 457 296 458 7 458 295 458 295 459 7 459 291 459 7 460 5 460 291 460 291 461 5 461 290 461 290 462 5 462 289 462 5 463 3 463 289 463 289 464 3 464 288 464 287 199 288 199 1 199 288 199 3 199 1 199 287 465 1 465 292 465 1 466 151 466 292 466 149 467 294 467 151 467 294 468 293 468 151 468 151 469 293 469 292 469 147 470 299 470 149 470 299 471 298 471 149 471 149 472 298 472 294 472 145 473 308 473 147 473 308 474 300 474 147 474 147 475 300 475 299 475 143 476 310 476 145 476 310 477 309 477 145 477 145 478 309 478 308 478 141 479 312 479 143 479 312 480 311 480 143 480 143 481 311 481 310 481 139 482 335 482 141 482 335 483 334 483 141 483 141 484 334 484 312 484 338 485 337 485 139 485 337 486 336 486 139 486 139 487 336 487 335 487 139 488 137 488 338 488 137 489 135 489 338 489 338 490 135 490 344 490 135 491 133 491 344 491 344 492 133 492 352 492 133 493 131 493 352 493 352 494 131 494 351 494 131 495 129 495 351 495 351 496 129 496 350 496 129 497 127 497 350 497 350 498 127 498 343 498 127 499 125 499 343 499 343 500 125 500 342 500 125 501 123 501 342 501 342 502 123 502 341 502 123 503 121 503 341 503 341 504 121 504 340 504 121 505 119 505 340 505 340 506 119 506 367 506 119 507 117 507 367 507 367 508 117 508 366 508 365 107 366 107 115 107 366 107 117 107 115 107 365 509 115 509 113 509 365 510 113 510 364 510 113 511 111 511 364 511 364 512 111 512 333 512 111 513 109 513 333 513 333 514 109 514 332 514 109 515 107 515 332 515 332 516 107 516 331 516 107 517 105 517 331 517 331 518 105 518 330 518 105 519 103 519 330 519 330 520 103 520 363 520 103 521 101 521 363 521 363 522 101 522 362 522 101 523 99 523 362 523 362 524 99 524 361 524 99 525 97 525 361 525 361 526 97 526 358 526 97 527 95 527 358 527 358 528 95 528 357 528 93 529 91 529 347 529 347 530 348 530 93 530 348 531 349 531 93 531 93 532 349 532 95 532 349 533 356 533 95 533 95 534 356 534 357 534 89 535 87 535 326 535 326 536 327 536 89 536 327 537 345 537 89 537 89 538 345 538 91 538 345 539 346 539 91 539 91 540 346 540 347 540 85 541 83 541 313 541 313 542 314 542 85 542 314 543 315 543 85 543 85 544 315 544 87 544 315 545 325 545 87 545 87 546 325 546 326 546 81 547 79 547 307 547 307 548 306 548 81 548 306 549 305 549 81 549 81 550 305 550 83 550 305 551 304 551 83 551 83 552 304 552 313 552 156 152 307 152 77 152 307 152 79 152 77 152</p>
        </triangles>
      </mesh>
    </geometry>
  </library_geometries>
  <library_visual_scenes>
    <visual_scene id="Scene" name="Scene">
      <node id="chassis_default_as_machined__24" name="chassis_default_as_machined__24" type="NODE">
        <matrix sid="transform">1 0 0 0 0 1 0 0 0 0 1 0 0 0 0 1</matrix>
        <instance_geometry url="#chassis_default_as_machined__24-mesh" name="chassis_default_as_machined__24"/>
      </node>
    </visual_scene>
  </library_visual_scenes>
  <scene>
    <instance_visual_scene url="#Scene"/>
  </scene>
</COLLADA>