<?xml version="1.0" encoding="utf-8"?>
<COLLADA xmlns="http://www.collada.org/2005/11/COLLADASchema" version="1.4.1" xmlns:xsi="http://www.w3.org/2001/XMLSchema-instance">
  <asset>
    <contributor>
      <author>Blender User</author>
      <authoring_tool>Blender 3.0.1</authoring_tool>
    </contributor>
    <created>2026-06-04T16:18:49</created>
    <modified>2026-06-04T16:18:49</modified>
    <unit name="meter" meter="1"/>
    <up_axis>Z_UP</up_axis>
  </asset>
  <library_images/>
  <library_geometries>
    <geometry id="gear_system_enclosure-mesh" name="gear_system_enclosure">
      <mesh>
        <source id="gear_system_enclosure-mesh-positions">
          <float_array id="gear_system_enclosure-mesh-positions-array" count="402">-0.09917718 0 0.04999995 -0.09917718 0.00999999 0.04999995 -0.09481936 0 0.04980969 -0.09481936 0.00999999 0.04980969 -0.09049475 0 0.04924035 -0.09049475 0.00999999 0.04924035 -0.08623623 0 0.04829627 -0.08623623 0.00999999 0.04829627 -0.08207619 0 0.04698461 -0.08207619 0.00999999 0.04698461 -0.07804626 0 0.04531538 -0.07804626 0.00999999 0.04531538 -0.07417714 0 0.04330122 -0.07417714 0.00999999 0.04330122 -0.07049834 0 0.04095757 -0.07049834 0.00999999 0.04095757 -0.06703776 0 0.03830218 -0.06703776 0.00999999 0.03830218 -0.06382185 0 0.03535532 -0.06382185 0.00999999 0.03535532 -0.06087493 0 0.03213936 -0.06087493 0.00999999 0.03213936 -0.05821955 0 0.02867877 -0.05821955 0.00999999 0.02867877 -0.05587589 0 0.02499997 -0.05587589 0.00999999 0.02499997 -0.05386179 0 0.02113091 -0.05386179 0.00999999 0.02113091 -0.0521925 0 0.01710098 -0.0521925 0.00999999 0.01710098 -0.05088084 0 0.01294094 -0.05088084 0.00999999 0.01294094 -0.04993677 0 0.00868237 -0.04993677 0.00999999 0.00868237 -0.04936742 0 0.004357755 -0.04936742 0.00999999 0.004357755 -0.04917716 0 0 -0.04917716 0.00999999 0 -0.04936742 0 -0.004357755 -0.04936742 0.00999999 -0.004357755 -0.04993677 0 -0.00868237 -0.04993677 0.00999999 -0.00868237 -0.05088084 0 -0.01294094 -0.05088084 0.00999999 -0.01294094 -0.0521925 0 -0.01710098 -0.0521925 0.00999999 -0.01710098 -0.05386179 0 -0.02113091 -0.05386179 0.00999999 -0.02113091 -0.05587589 0 -0.02499997 -0.05587589 0.00999999 -0.02499997 -0.05821955 0 -0.02867877 -0.05821955 0.00999999 -0.02867877 -0.06087493 0 -0.03213936 -0.06087493 0.00999999 -0.03213936 -0.06382185 0 -0.03535532 -0.06382185 0.00999999 -0.03535532 -0.06703776 0 -0.03830218 -0.06703776 0.00999999 -0.03830218 -0.07049834 0 -0.04095757 -0.07049834 0.00999999 -0.04095757 -0.07417714 0 -0.04330122 -0.07417714 0.00999999 -0.04330122 -0.07804626 0 -0.04531538 -0.07804626 0.00999999 -0.04531538 -0.08207619 0 -0.04698461 -0.08207619 0.00999999 -0.04698461 -0.08623623 0 -0.04829627 -0.08623623 0.00999999 -0.04829627 -0.09049475 0 -0.04924035 -0.09049475 0.00999999 -0.04924035 -0.09481936 0 -0.04980969 -0.09481936 0.00999999 -0.04980969 -0.09917718 0 -0.04999995 -0.09917718 0.00999999 -0.04999995 0.1775 0.06499999 -0.03499996 0.1575 0.06499999 -0.03499996 0.1775 0.06499999 -0.04999995 0.1575 0.06499999 -0.04999995 0.1775 0.06499999 0.04999995 0.1575 0.06499999 0.04999995 0.1775 0.06499999 0.03499996 0.1575 0.06499999 0.03499996 -0.07917714 0.07199996 -0.0625 -0.09917718 0.07199996 -0.0625 -0.07917714 0.07199996 -0.08249998 -0.09917718 0.07199996 -0.08249998 -0.07917714 0.07199996 0.0625 -0.07917714 0.07199996 0.08249998 -0.09917718 0.07199996 0.0625 -0.09917718 0.07199996 0.08249998 0.1775 0.07999998 0.04999995 0.1775 0.07999998 0.03499996 0.1475 0.07999998 0.04999995 0.1475 0.07999998 0.03499996 0.1375 0.00999999 0.03499996 0.1375 0.03999996 0.03499996 0.1575 0.00999999 0.03499996 0.1475 0.03999996 0.03499996 0.1575 0.03999996 0.04999995 0.1475 0.03999996 0.04999995 0.1475 0.07999998 -0.03499996 0.1775 0.07999998 -0.03499996 0.1475 0.07999998 -0.04999995 0.1775 0.07999998 -0.04999995 0.1575 0.00999999 -0.03499996 0.1475 0.03999996 -0.03499996 0.1375 0.00999999 -0.03499996 0.1375 0.03999996 -0.03499996 0.1475 0.03999996 -0.04999995 0.1575 0.03999996 -0.04999995 -0.09917718 0.07999998 -0.08249998 -0.09917718 0.07999998 -0.0575 -0.07917714 0.07999998 -0.08249998 -0.07917714 0.07999998 -0.0575 -0.09917718 0.07999998 0.0575 -0.09917718 0.07999998 0.08249998 -0.07917714 0.07999998 0.0575 -0.07917714 0.07999998 0.08249998 -0.09917718 0 -0.0625 -0.09917718 0 0.0625 0.1575 0 -0.0625 0.1575 0 0.0625 -0.07917714 0.03999996 0.0625 0.1575 0.03999996 0.0625 0.1575 0.03999996 -0.0625 0.1375 0.00999999 0.0575 0.1375 0.03999996 0.0575 -0.09917718 0.00999999 -0.0575 -0.07917714 0.03999996 0.0575 -0.07917714 0.03999996 -0.0625 -0.07917714 0.03999996 -0.0575 -0.09917718 0.00999999 0.0575 0.1375 0.03999996 -0.0575 0.1375 0.00999999 -0.0575</float_array>
          <technique_common>
            <accessor source="#gear_system_enclosure-mesh-positions-array" count="134" stride="3">
              <param name="X" type="float"/>
              <param name="Y" type="float"/>
              <param name="Z" type="float"/>
            </accessor>
          </technique_common>
        </source>
        <source id="gear_system_enclosure-mesh-normals">
          <float_array id="gear_system_enclosure-mesh-normals-array" count="282">-0.04362034 0 -0.9990482 -0.1305273 0 -0.9914447 -0.1305247 0 -0.9914451 -0.216439 0 -0.9762962 -0.2164402 0 -0.9762959 -0.3007052 0 -0.9537171 -0.3007065 0 -0.9537168 -0.3826839 0 -0.9238795 -0.3826828 0 -0.9238799 -0.4617497 0 -0.8870103 -0.4617476 0 -0.8870114 -0.5373006 0 -0.8433909 -0.5372987 0 -0.8433921 -0.6087611 0 -0.7933537 -0.6087619 0 -0.793353 -0.6755903 0 -0.7372773 -0.7372776 0 -0.6755899 -0.7933529 0 -0.6087622 -0.8433918 0 -0.5372991 -0.8433915 0 -0.5372998 -0.887011 0 -0.4617484 -0.8870108 0 -0.4617486 -0.9238795 0 -0.3826837 -0.9238795 0 -0.3826835 -0.953717 0 -0.3007057 -0.9537169 0 -0.3007059 -0.976296 0 -0.2164396 -0.9914449 0 -0.1305261 -0.9914449 0 -0.1305262 -0.9990482 0 -0.04361945 -0.9990482 0 0.04361945 -0.9914449 0 0.1305262 -0.9914449 0 0.1305261 -0.976296 0 0.2164396 -0.9537169 0 0.3007059 -0.953717 0 0.3007057 -0.9238795 0 0.3826835 -0.9238795 0 0.3826837 -0.8870108 0 0.4617486 -0.887011 0 0.4617484 -0.8433915 0 0.5372998 -0.8433918 0 0.5372991 -0.7933529 0 0.6087622 -0.7372776 0 0.6755899 -0.6755903 0 0.7372773 -0.6087619 0 0.793353 -0.6087611 0 0.7933537 -0.5372987 0 0.8433921 -0.5373006 0 0.8433909 -0.4617476 0 0.8870114 -0.4617497 0 0.8870103 -0.3826828 0 0.9238799 -0.3826839 0 0.9238795 -0.3007065 0 0.9537168 -0.3007052 0 0.9537171 -0.2164402 0 0.9762959 -0.216439 0 0.9762962 -0.1305247 0 0.9914451 -0.1305273 0 0.9914447 -0.04362034 0 0.9990482 0 -1 0 0 1 0 0 0 -1 2.11664e-7 0 -1 2.91038e-7 0 -1 1 0 0 0 0 1 -1 0 0 5.82076e-7 0 1 1 -2.66092e-6 0 1 1.49012e-6 0 1 -4.77601e-7 0 -1 -2.91038e-6 0 0 1 3.93499e-7 1 -5.82077e-7 0 -1 -2.32831e-6 0 0 1 -5.39422e-7 0 1 -3.71139e-7 0 1 0 0 1 1.25284e-7 0 1 1.02412e-6 0 1 -1.98249e-7 0 1 -3.07583e-7 0 1 0 0 1 2.61323e-7 0 1 0 0 1 5.39421e-7 0 1 -2.36413e-7 0 1 2.75769e-7 0 1 0 0 1 1.4755e-7 0 1 1.32692e-7 0 1 -2.09284e-7 -1.66308e-7 0 1</float_array>
          <technique_common>
            <accessor source="#gear_system_enclosure-mesh-normals-array" count="94" stride="3">
              <param name="X" type="float"/>
              <param name="Y" type="float"/>
              <param name="Z" type="float"/>
            </accessor>
          </technique_common>
        </source>
        <vertices id="gear_system_enclosure-mesh-vertices">
          <input semantic="POSITION" source="#gear_system_enclosure-mesh-positions"/>
        </vertices>
        <triangles count="264">
          <input semantic="VERTEX" source="#gear_system_enclosure-mesh-vertices" offset="0"/>
          <input semantic="NORMAL" source="#gear_system_enclosure-mesh-normals" offset="1"/>
          <p>0 0 1 0 2 0 1 0 3 0 2 0 2 1 3 1 4 1 3 2 5 2 4 2 4 3 5 3 6 3 5 4 7 4 6 4 6 5 7 5 8 5 7 6 9 6 8 6 8 7 9 7 10 7 9 8 11 8 10 8 10 9 11 9 12 9 11 10 13 10 12 10 12 11 13 11 14 11 13 12 15 12 14 12 14 13 15 13 16 13 15 14 17 14 16 14 16 15 17 15 18 15 17 15 19 15 18 15 18 16 19 16 20 16 19 16 21 16 20 16 20 17 21 17 22 17 21 17 23 17 22 17 22 18 23 18 24 18 23 19 25 19 24 19 24 20 25 20 26 20 25 21 27 21 26 21 26 22 27 22 28 22 27 23 29 23 28 23 28 24 29 24 30 24 29 25 31 25 30 25 30 26 31 26 32 26 31 26 33 26 32 26 32 27 33 27 34 27 33 28 35 28 34 28 34 29 35 29 36 29 35 29 37 29 36 29 36 30 37 30 38 30 37 30 39 30 38 30 38 31 39 31 40 31 39 32 41 32 40 32 40 33 41 33 42 33 41 33 43 33 42 33 42 34 43 34 44 34 43 35 45 35 44 35 44 36 45 36 46 36 45 37 47 37 46 37 46 38 47 38 48 38 47 39 49 39 48 39 48 40 49 40 50 40 49 41 51 41 50 41 50 42 51 42 52 42 51 42 53 42 52 42 52 43 53 43 54 43 53 43 55 43 54 43 54 44 55 44 56 44 55 44 57 44 56 44 56 45 57 45 58 45 57 46 59 46 58 46 58 47 59 47 60 47 59 48 61 48 60 48 60 49 61 49 62 49 61 50 63 50 62 50 62 51 63 51 64 51 63 52 65 52 64 52 64 53 65 53 66 53 65 54 67 54 66 54 66 55 67 55 68 55 67 56 69 56 68 56 68 57 69 57 70 57 69 58 71 58 70 58 70 59 71 59 72 59 71 59 73 59 72 59 74 60 75 60 76 60 75 60 77 60 76 60 78 60 79 60 80 60 79 60 81 60 80 60 82 60 83 60 84 60 83 60 85 60 84 60 86 60 87 60 88 60 87 60 89 60 88 60 90 61 91 61 92 61 91 61 93 61 92 61 94 62 95 62 96 62 95 62 97 62 96 62 96 63 97 63 81 63 97 64 93 64 81 64 81 62 93 62 80 62 93 62 91 62 80 62 91 65 90 65 80 65 90 65 78 65 80 65 78 66 90 66 79 66 90 66 92 66 79 66 79 66 92 66 98 66 92 66 99 66 98 66 99 67 92 67 97 67 92 67 93 67 97 67 100 61 101 61 102 61 101 61 103 61 102 61 103 65 101 65 76 65 101 65 74 65 76 65 74 66 101 66 75 66 101 66 100 66 75 66 75 66 100 66 104 66 100 68 105 68 104 68 104 66 105 66 106 66 105 66 107 66 106 66 105 67 100 67 108 67 100 67 102 67 108 67 109 62 108 62 77 62 108 64 102 64 77 64 77 62 102 62 76 62 102 62 103 62 76 62 110 61 111 61 112 61 111 61 113 61 112 61 114 61 115 61 116 61 115 61 117 61 116 61 87 66 117 66 89 66 117 66 115 66 89 66 70 60 72 60 118 60 70 60 118 60 68 60 119 60 0 60 2 60 40 60 42 60 120 60 2 60 4 60 119 60 4 60 6 60 119 60 119 60 6 60 121 60 6 60 8 60 121 60 8 60 10 60 121 60 10 60 12 60 121 60 121 60 12 60 14 60 42 60 44 60 120 60 44 60 46 60 120 60 120 60 46 60 48 60 14 60 16 60 121 60 16 60 18 60 121 60 121 60 18 60 20 60 26 60 28 60 121 60 28 60 30 60 121 60 121 60 30 60 32 60 48 60 50 60 120 60 50 60 52 60 120 60 120 60 52 60 54 60 54 60 56 60 120 60 56 60 58 60 120 60 120 60 58 60 60 60 60 60 62 60 120 60 62 60 64 60 120 60 120 60 64 60 118 60 64 60 66 60 118 60 118 60 66 60 68 60 20 60 22 60 121 60 22 60 24 60 121 60 121 60 24 60 26 60 32 60 34 60 121 60 34 60 36 60 121 60 121 60 36 60 120 60 36 60 38 60 120 60 120 60 38 60 40 60 86 66 88 66 122 66 88 66 119 66 122 66 122 66 119 66 123 66 119 66 121 66 123 66 98 65 123 65 121 65 96 65 81 65 79 65 77 65 75 65 109 65 75 65 104 65 109 65 79 65 98 65 96 65 98 65 121 65 96 65 96 69 121 69 104 69 121 70 120 70 104 70 104 71 120 71 109 71 120 65 124 65 109 65 125 67 126 67 94 67 126 67 95 67 94 67 72 67 73 67 118 67 73 67 127 67 118 67 118 67 127 67 83 67 127 67 111 67 83 67 83 72 111 72 85 72 111 67 110 67 85 67 128 61 122 61 126 61 122 73 123 73 126 73 97 61 95 61 99 61 95 61 126 61 99 61 99 61 126 61 98 61 126 61 123 61 98 61 84 65 112 65 82 65 112 74 113 74 82 74 82 65 113 65 129 65 113 65 130 65 129 65 110 62 112 62 85 62 112 62 84 62 85 62 122 65 128 65 86 65 128 65 116 65 86 65 86 65 116 65 87 65 116 65 117 65 87 65 1 67 0 67 131 67 0 67 119 67 131 67 131 67 119 67 114 67 119 67 88 67 114 67 114 75 88 75 115 75 88 67 89 67 115 67 107 61 105 61 132 61 105 61 108 61 132 61 129 61 130 61 132 61 108 61 109 61 132 61 109 61 124 61 132 61 132 61 124 61 129 61 124 62 120 62 129 62 120 62 118 62 129 62 129 62 118 62 82 62 118 62 83 62 82 62 3 61 1 61 131 61 133 61 127 61 106 61 127 61 94 61 106 61 106 61 94 61 104 61 94 61 96 61 104 61 73 61 71 61 127 61 71 61 69 61 127 61 127 76 69 76 67 76 49 77 47 77 94 77 47 61 45 61 94 61 94 78 45 78 43 78 61 61 94 61 63 61 94 79 127 79 63 79 63 61 127 61 65 61 127 80 67 80 65 80 61 61 59 61 94 61 59 61 57 61 94 61 94 81 57 81 55 81 43 82 41 82 94 82 41 61 39 61 94 61 94 83 39 83 37 83 125 61 13 61 11 61 55 61 53 61 94 61 53 61 51 61 94 61 94 84 51 84 49 84 11 61 9 61 125 61 9 61 7 61 125 61 125 85 7 85 131 85 7 86 5 86 131 86 131 87 5 87 3 87 31 88 125 88 33 88 125 61 94 61 33 61 33 61 94 61 35 61 94 89 37 89 35 89 31 61 29 61 125 61 29 61 27 61 125 61 125 90 27 90 25 90 19 61 17 61 125 61 17 61 15 61 125 61 125 91 15 91 13 91 25 61 23 61 125 61 23 61 21 61 125 61 125 92 21 92 19 92 126 62 125 62 128 62 125 62 131 62 128 62 128 62 131 62 116 62 131 62 114 62 116 62 113 66 111 66 130 66 111 93 127 93 130 93 130 66 127 66 132 66 127 66 133 66 132 66 132 67 133 67 107 67 133 67 106 67 107 67</p>
        </triangles>
      </mesh>
    </geometry>
  </library_geometries>
  <library_visual_scenes>
    <visual_scene id="Scene" name="Scene">
      <node id="gear_system_enclosure" name="gear_system_enclosure" type="NODE">
        <matrix sid="transform">1 0 0 0 0 1 0 0 0 0 1 0 0 0 0 1</matrix>
        <instance_geometry url="#gear_system_enclosure-mesh" name="gear_system_enclosure"/>
      </node>
    </visual_scene>
  </library_visual_scenes>
  <scene>
    <instance_visual_scene url="#Scene"/>
  </scene>
</COLLADA>