<?xml version="1.0" encoding="utf-8"?>
<COLLADA xmlns="http://www.collada.org/2005/11/COLLADASchema" version="1.4.1" xmlns:xsi="http://www.w3.org/2001/XMLSchema-instance">
  <asset>
    <contributor>
      <author>Blender User</author>
      <authoring_tool>Blender 3.0.1</authoring_tool>
    </contributor>
    <created>2026-06-04T16:18:53</created>
    <modified>2026-06-04T16:18:53</modified>
    <unit name="meter" meter="1"/>
    <up_axis>Z_UP</up_axis>
  </asset>
  <library_images/>
  <library_geometries>
    <geometry id="hex_nut_style_2_am_b18_2_4_2m___hex_nut__style_2___m10_x_1_5__w-mesh" name="hex_nut_style_2_am_b18_2_4_2m___hex_nut__style_2___m10_x_1_5__w">
      <mesh>
        <source id="hex_nut_style_2_am_b18_2_4_2m___hex_nut__style_2___m10_x_1_5__w-mesh-positions">
          <float_array id="hex_nut_style_2_am_b18_2_4_2m___hex_nut__style_2___m10_x_1_5__w-mesh-positions-array" count="1944">0.003999948 0.006928145 0 0.004509449 0.00660789 0 0.004522204 0.006626665 -1.31036e-5 0.005032539 0.006218731 0 0.005095005 0.006295979 -5.73355e-5 0.005522191 0.005788326 0 0.005682766 0.00595659 -1.34294e-4 0.005975246 0.005319416 0 0.006294369 0.005603492 -2.46685e-4 0.006388545 0.004815161 0 0.006939947 0.005230784 -3.98653e-4 0.006759405 0.004278957 0 0.007999956 0.004618763 -7.14531e-4 0.007999956 0 0 0.007999956 6.03035e-4 -1.31036e-5 0.007977366 6.01329e-4 0 0.007999956 0.001264393 -5.73355e-5 0.007901906 0.001248896 0 0.007999956 0.001943111 -1.34294e-4 0.007773935 0.001888215 0 0.007999956 0.002649307 -2.46685e-4 0.007594347 0.002514958 0 0.007999956 0.003394782 -3.98653e-4 0.007364332 0.003125011 0 0.007085442 0.003714323 0 -0.003999948 0.006928145 0 -0.003467917 0.007209241 0 -0.003477752 0.007229685 -1.31036e-5 -0.002869307 0.007467687 0 -0.002904951 0.007560372 -5.73355e-5 -0.002251684 0.007676541 0 -0.00231719 0.007899761 -1.34294e-4 -0.0016191 0.007834434 0 -0.001705586 0.008252859 -2.46685e-4 -9.75808e-4 0.007940232 0 -0.001060009 0.008625566 -3.98653e-4 -3.25991e-4 0.00799334 0 0 0.009237587 -7.14531e-4 0.003477752 0.007229685 -1.31036e-5 0.003467917 0.007209241 0 0.002904951 0.007560372 -5.73355e-5 0.002869307 0.007467687 0 0.00231719 0.007899761 -1.34294e-4 0.002251684 0.007676541 0 0.001705586 0.008252859 -2.46685e-4 0.0016191 0.007834434 0 0.001060009 0.008625566 -3.98653e-4 9.75808e-4 0.007940232 0 3.25991e-4 0.00799334 0 -0.004518866 0.006628572 -1.29353e-5 -0.00450623 0.006610095 0 -0.00508815 0.006299912 -5.66234e-5 -0.005026519 0.006223618 0 -0.005672156 0.005962729 -1.32626e-4 -0.005513787 0.005796313 0 -0.006291329 0.00560528 -2.46048e-4 -0.005964934 0.00533092 0 -0.006920218 0.005242168 -3.93527e-4 -0.006376862 0.004830598 0 -0.007999956 0.004618763 -7.14531e-4 -0.007999956 0 0 -0.00797373 6.47587e-4 0 -0.007999956 6.49719e-4 -1.52074e-5 -0.007895112 0.001290917 0 -0.007999956 0.001308023 -6.13344e-5 -0.007764697 0.001925766 0 -0.007999956 0.001984119 -1.39936e-4 -0.007583379 0.002547979 0 -0.007999956 0.002701997 -2.56334e-4 -0.007352232 0.003153502 0 -0.007999956 0.00343132 -4.06936e-4 -0.007072806 0.003738284 0 -0.006747007 0.004298567 0 -0.003999948 -0.006928145 0 -0.004509449 -0.00660789 0 -0.004522204 -0.006626665 -1.31036e-5 -0.005032539 -0.006218731 0 -0.005095005 -0.006295979 -5.73355e-5 -0.005522191 -0.005788326 0 -0.005682766 -0.00595659 -1.34294e-4 -0.005975246 -0.005319416 0 -0.006294369 -0.005603492 -2.46685e-4 -0.006388545 -0.004815161 0 -0.006939947 -0.005230784 -3.98653e-4 -0.006759405 -0.004278957 0 -0.007999956 -0.004618763 -7.14531e-4 -0.007999956 -6.03035e-4 -1.31036e-5 -0.007977366 -6.01329e-4 0 -0.007999956 -0.001264393 -5.73355e-5 -0.007901906 -0.001248896 0 -0.007999956 -0.001943111 -1.34294e-4 -0.007773935 -0.001888215 0 -0.007999956 -0.002649307 -2.46685e-4 -0.007594347 -0.002514958 0 -0.007999956 -0.003394782 -3.98653e-4 -0.007364332 -0.003125011 0 -0.007085442 -0.003714323 0 0.003999948 -0.006928145 0 0.003467917 -0.007209241 0 0.003477752 -0.007229685 -1.31036e-5 0.002869307 -0.007467687 0 0.002904951 -0.007560372 -5.73355e-5 0.002251684 -0.007676541 0 0.00231719 -0.007899761 -1.34294e-4 0.0016191 -0.007834434 0 0.001705586 -0.008252859 -2.46685e-4 9.75808e-4 -0.007940232 0 0.001060009 -0.008625566 -3.98653e-4 3.25991e-4 -0.00799334 0 0 -0.009237587 -7.14531e-4 -0.003477752 -0.007229685 -1.31036e-5 -0.003467917 -0.007209241 0 -0.002904951 -0.007560372 -5.73355e-5 -0.002869307 -0.007467687 0 -0.00231719 -0.007899761 -1.34294e-4 -0.002251684 -0.007676541 0 -0.001705586 -0.008252859 -2.46685e-4 -0.0016191 -0.007834434 0 -0.001060009 -0.008625566 -3.98653e-4 -9.75808e-4 -0.007940232 0 -3.25991e-4 -0.00799334 0 0.004522204 -0.006626665 -1.31036e-5 0.004509449 -0.00660789 0 0.005095005 -0.006295979 -5.73355e-5 0.005032539 -0.006218731 0 0.005682766 -0.00595659 -1.34294e-4 0.005522191 -0.005788326 0 0.006294369 -0.005603492 -2.46685e-4 0.005975246 -0.005319416 0 0.006939947 -0.005230784 -3.98653e-4 0.006388545 -0.004815161 0 0.007999956 -0.004618763 -7.14531e-4 0.007977366 -6.01329e-4 0 0.007999956 -6.03035e-4 -1.31036e-5 0.007901906 -0.001248896 0 0.007999956 -0.001264393 -5.73355e-5 0.007773935 -0.001888215 0 0.007999956 -0.001943111 -1.34294e-4 0.007594347 -0.002514958 0 0.007999956 -0.002649307 -2.46685e-4 0.007364332 -0.003125011 0 0.007999956 -0.003394782 -3.98653e-4 0.007085442 -0.003714323 0 0.006759405 -0.004278957 0 0.007999956 0 -0.009299993 0.007999956 -6.03035e-4 -0.00928688 0.007977366 -6.01329e-4 -0.009299993 0.007999956 -0.001264393 -0.009242653 0.007901906 -0.001248896 -0.009299993 0.007999956 -0.001943111 -0.009165704 0.007773935 -0.001888215 -0.009299993 0.007999956 -0.002649307 -0.009053289 0.007594347 -0.002514958 -0.009299993 0.007999956 -0.003394782 -0.008901298 0.007364332 -0.003125011 -0.009299993 0.007999956 -0.004618763 -0.008585453 0.003999948 -0.006928145 -0.009299993 0.004509449 -0.00660789 -0.009299993 0.004522204 -0.006626665 -0.00928688 0.005032539 -0.006218731 -0.009299993 0.005095005 -0.006295979 -0.009242653 0.005522191 -0.005788326 -0.009299993 0.005682766 -0.00595659 -0.009165704 0.005975246 -0.005319416 -0.009299993 0.006294369 -0.005603492 -0.009053289 0.006388545 -0.004815161 -0.009299993 0.006939947 -0.005230784 -0.008901298 0.006759405 -0.004278957 -0.009299993 0.007085442 -0.003714323 -0.009299993 -0.003999948 -0.006928145 -0.009299993 -0.003467917 -0.007209241 -0.009299993 -0.003477752 -0.007229685 -0.00928688 -0.002869307 -0.007467687 -0.009299993 -0.002904951 -0.007560372 -0.009242653 -0.002251684 -0.007676541 -0.009299993 -0.00231719 -0.007899761 -0.009165704 -0.0016191 -0.007834434 -0.009299993 -0.001705586 -0.008252859 -0.009053289 -9.75808e-4 -0.007940232 -0.009299993 -0.001060009 -0.008625566 -0.008901298 -3.25991e-4 -0.00799334 -0.009299993 0 -0.009237587 -0.008585453 0.003477752 -0.007229685 -0.00928688 0.003467917 -0.007209241 -0.009299993 0.002904951 -0.007560372 -0.009242653 0.002869307 -0.007467687 -0.009299993 0.00231719 -0.007899761 -0.009165704 0.002251684 -0.007676541 -0.009299993 0.001705586 -0.008252859 -0.009053289 0.0016191 -0.007834434 -0.009299993 0.001060009 -0.008625566 -0.008901298 9.75808e-4 -0.007940232 -0.009299993 3.25991e-4 -0.00799334 -0.009299993 0.001705586 0.008252859 -0.009053289 0.006291329 0.00560528 -0.009053945 0.006920218 0.005242168 -0.008906424 0.007999956 0.004618763 -0.008585453 0.00231719 0.007899761 -0.009165704 0.002904951 0.007560372 -0.009242653 0.003477752 0.007229685 -0.00928688 0 0.009237587 -0.008585453 0.001060009 0.008625566 -0.008901298 0.005672156 0.005962729 -0.009167373 0.00508815 0.006299912 -0.009243369 0.004518866 0.006628572 -0.009287059 0.003999948 0.006928145 -0.009299993 -0.005682766 0.00595659 -0.009165704 -0.006294369 0.005603492 -0.009053289 -0.006939947 0.005230784 -0.008901298 -0.007999956 0.004618763 -0.008585453 -0.001705586 0.008252859 -0.009053289 -0.001060009 0.008625566 -0.008901298 -0.00231719 0.007899761 -0.009165704 -0.002904951 0.007560372 -0.009242653 -0.003477752 0.007229685 -0.00928688 -0.003999948 0.006928145 -0.009299993 -0.004522204 0.006626665 -0.00928688 -0.005095005 0.006295979 -0.009242653 0.004249989 0 -0.008749425 0.004249989 0 -5.25156e-4 0.004233777 3.70412e-4 -0.008749425 0.004233777 3.70412e-4 -5.25156e-4 0.004185378 7.38005e-4 -0.008749425 0.004185378 7.38005e-4 -5.25156e-4 0.00410515 0.001099944 -0.008749425 0.00410515 0.001099944 -5.25156e-4 0.00399369 0.001453578 -0.008749425 0.00399369 0.001453578 -5.25156e-4 0.003851771 0.001796126 -0.008749425 0.003851771 0.001796126 -5.25156e-4 0.003680586 0.002124965 -0.008749425 0.003680586 0.002124965 -5.25156e-4 0.003481388 0.002437651 -0.008749425 0.003481388 0.002437651 -5.25156e-4 0.003255665 0.0027318 -0.008749425 0.003255665 0.0027318 -5.25156e-4 0.003005146 0.003005146 -0.008749425 0.003005146 0.003005146 -5.25156e-4 0.0027318 0.003255665 -0.008749425 0.0027318 0.003255665 -5.25156e-4 0.002437651 0.003481388 -0.008749425 0.002437651 0.003481388 -5.25156e-4 0.002124965 0.003680586 -0.008749425 0.002124965 0.003680586 -5.25156e-4 0.001796126 0.003851771 -0.008749425 0.001796126 0.003851771 -5.25156e-4 0.001453578 0.00399369 -0.008749425 0.001453578 0.00399369 -5.25156e-4 0.001099944 0.00410515 -0.008749425 0.001099944 0.00410515 -5.25156e-4 7.38005e-4 0.004185378 -0.008749425 7.38005e-4 0.004185378 -5.25156e-4 3.70412e-4 0.004233777 -0.008749425 3.70412e-4 0.004233777 -5.25156e-4 0 0.004249989 -0.008749425 0 0.004249989 -5.25156e-4 -3.70412e-4 0.004233777 -0.008749425 -3.70412e-4 0.004233777 -5.25156e-4 -7.38005e-4 0.004185378 -0.008749425 -7.38005e-4 0.004185378 -5.25156e-4 -0.001099944 0.00410515 -0.008749425 -0.001099944 0.00410515 -5.25156e-4 -0.001453578 0.00399369 -0.008749425 -0.001453578 0.00399369 -5.25156e-4 -0.001796126 0.003851771 -0.008749425 -0.001796126 0.003851771 -5.25156e-4 -0.002124965 0.003680586 -0.008749425 -0.002124965 0.003680586 -5.25156e-4 -0.002437651 0.003481388 -0.008749425 -0.002437651 0.003481388 -5.25156e-4 -0.0027318 0.003255665 -0.008749425 -0.0027318 0.003255665 -5.25156e-4 -0.003005146 0.003005146 -0.008749425 -0.003005146 0.003005146 -5.25156e-4 -0.003255665 0.0027318 -0.008749425 -0.003255665 0.0027318 -5.25156e-4 -0.003481388 0.002437651 -0.008749425 -0.003481388 0.002437651 -5.25156e-4 -0.003680586 0.002124965 -0.008749425 -0.003680586 0.002124965 -5.25156e-4 -0.003851771 0.001796126 -0.008749425 -0.003851771 0.001796126 -5.25156e-4 -0.00399369 0.001453578 -0.008749425 -0.00399369 0.001453578 -5.25156e-4 -0.00410515 0.001099944 -0.008749425 -0.00410515 0.001099944 -5.25156e-4 -0.004185378 7.38005e-4 -0.008749425 -0.004185378 7.38005e-4 -5.25156e-4 -0.004233777 3.70412e-4 -0.008749425 -0.004233777 3.70412e-4 -5.25156e-4 -0.004249989 0 -0.008749425 -0.004249989 0 -5.25156e-4 -0.004233777 -3.70412e-4 -0.008749425 -0.004233777 -3.70412e-4 -5.25156e-4 -0.004185378 -7.38005e-4 -0.008749425 -0.004185378 -7.38005e-4 -5.25156e-4 -0.00410515 -0.001099944 -0.008749425 -0.00410515 -0.001099944 -5.25156e-4 -0.00399369 -0.001453578 -0.008749425 -0.00399369 -0.001453578 -5.25156e-4 -0.003851771 -0.001796126 -0.008749425 -0.003851771 -0.001796126 -5.25156e-4 -0.003680586 -0.002124965 -0.008749425 -0.003680586 -0.002124965 -5.25156e-4 -0.003481388 -0.002437651 -0.008749425 -0.003481388 -0.002437651 -5.25156e-4 -0.003255665 -0.0027318 -0.008749425 -0.003255665 -0.0027318 -5.25156e-4 -0.003005146 -0.003005146 -0.008749425 -0.003005146 -0.003005146 -5.25156e-4 -0.0027318 -0.003255665 -0.008749425 -0.0027318 -0.003255665 -5.25156e-4 -0.002437651 -0.003481388 -0.008749425 -0.002437651 -0.003481388 -5.25156e-4 -0.002124965 -0.003680586 -0.008749425 -0.002124965 -0.003680586 -5.25156e-4 -0.001796126 -0.003851771 -0.008749425 -0.001796126 -0.003851771 -5.25156e-4 -0.001453578 -0.00399369 -0.008749425 -0.001453578 -0.00399369 -5.25156e-4 -0.001099944 -0.00410515 -0.008749425 -0.001099944 -0.00410515 -5.25156e-4 -7.38005e-4 -0.004185378 -0.008749425 -7.38005e-4 -0.004185378 -5.25156e-4 -3.70412e-4 -0.004233777 -0.008749425 -3.70412e-4 -0.004233777 -5.25156e-4 0 -0.004249989 -0.008749425 0 -0.004249989 -5.25156e-4 3.70412e-4 -0.004233777 -0.008749425 3.70412e-4 -0.004233777 -5.25156e-4 7.38005e-4 -0.004185378 -0.008749425 7.38005e-4 -0.004185378 -5.25156e-4 0.001099944 -0.00410515 -0.008749425 0.001099944 -0.00410515 -5.25156e-4 0.001453578 -0.00399369 -0.008749425 0.001453578 -0.00399369 -5.25156e-4 0.001796126 -0.003851771 -0.008749425 0.001796126 -0.003851771 -5.25156e-4 0.002124965 -0.003680586 -0.008749425 0.002124965 -0.003680586 -5.25156e-4 0.002437651 -0.003481388 -0.008749425 0.002437651 -0.003481388 -5.25156e-4 0.0027318 -0.003255665 -0.008749425 0.0027318 -0.003255665 -5.25156e-4 0.003005146 -0.003005146 -0.008749425 0.003005146 -0.003005146 -5.25156e-4 0.003255665 -0.0027318 -0.008749425 0.003255665 -0.0027318 -5.25156e-4 0.003481388 -0.002437651 -0.008749425 0.003481388 -0.002437651 -5.25156e-4 0.003680586 -0.002124965 -0.008749425 0.003680586 -0.002124965 -5.25156e-4 0.003851771 -0.001796126 -0.008749425 0.003851771 -0.001796126 -5.25156e-4 0.00399369 -0.001453578 -0.008749425 0.00399369 -0.001453578 -5.25156e-4 0.00410515 -0.001099944 -0.008749425 0.00410515 -0.001099944 -5.25156e-4 0.004185378 -7.38005e-4 -0.008749425 0.004185378 -7.38005e-4 -5.25156e-4 0.004233777 -3.70412e-4 -0.008749425 0.004233777 -3.70412e-4 -5.25156e-4 0.004980921 4.35779e-4 0 0.004923999 8.68241e-4 0 0.004829585 0.001294076 0 0.004698455 0.001710057 0 0.004531502 0.002113044 0 0.004330098 0.002499997 0 0.004095733 0.002867877 0 0.003830194 0.003213882 0 0.003535509 0.003535509 0 0.003213882 0.003830194 0 0.002867877 0.004095733 0 0.002499997 0.004330098 0 0.002113044 0.004531502 0 0.001710057 0.004698455 0 0.001294076 0.004829585 0 8.68241e-4 0.004923999 0 4.35779e-4 0.004980921 0 0 0.004999995 0 -4.35779e-4 0.004980921 0 -8.68241e-4 0.004923999 0 -0.001294076 0.004829585 0 -0.001710057 0.004698455 0 -0.002113044 0.004531502 0 -0.002499997 0.004330098 0 -0.002867877 0.004095733 0 -0.003213882 0.003830194 0 -0.003535509 0.003535509 0 -0.003830194 0.003213882 0 -0.004095733 0.002867877 0 -0.004330098 0.002499997 0 -0.004531502 0.002113044 0 -0.004698455 0.001710057 0 -0.004829585 0.001294076 0 -0.004923999 8.68241e-4 0 -0.004980921 4.35779e-4 0 -0.004999995 0 0 -0.004980921 -4.35779e-4 0 -0.004923999 -8.68241e-4 0 -0.004829585 -0.001294076 0 -0.004698455 -0.001710057 0 -0.004531502 -0.002113044 0 -0.004330098 -0.002499997 0 -0.004095733 -0.002867877 0 -0.003830194 -0.003213882 0 -0.003535509 -0.003535509 0 -0.003213882 -0.003830194 0 -0.002867877 -0.004095733 0 -0.002499997 -0.004330098 0 -0.002113044 -0.004531502 0 -0.001710057 -0.004698455 0 -0.001294076 -0.004829585 0 -8.68241e-4 -0.004923999 0 -4.35779e-4 -0.004980921 0 0 -0.004999995 0 4.35779e-4 -0.004980921 0 8.68241e-4 -0.004923999 0 0.001294076 -0.004829585 0 0.001710057 -0.004698455 0 0.002113044 -0.004531502 0 0.002499997 -0.004330098 0 0.002867877 -0.004095733 0 0.003213882 -0.003830194 0 0.003535509 -0.003535509 0 0.003830194 -0.003213882 0 0.004095733 -0.002867877 0 0.004330098 -0.002499997 0 0.004531502 -0.002113044 0 0.004698455 -0.001710057 0 0.004829585 -0.001294076 0 0.004923999 -8.68241e-4 0 0.004980921 -4.35779e-4 0 0.004999995 0 0 0.004999995 0 -0.009299993 0.004999995 0 -0.009274542 0.004980921 4.35779e-4 -0.009299993 0.004980921 4.35779e-4 -0.009274542 0.004923999 8.68241e-4 -0.009299993 0.004923999 8.68241e-4 -0.009274542 0.004829585 0.001294076 -0.009299993 0.004829585 0.001294076 -0.009274542 0.004698455 0.001710057 -0.009299993 0.004698455 0.001710057 -0.009274542 0.004531502 0.002113044 -0.009299993 0.004531502 0.002113044 -0.009274542 0.004330098 0.002499997 -0.009299993 0.004330098 0.002499997 -0.009274542 0.004095733 0.002867877 -0.009299993 0.004095733 0.002867877 -0.009274542 0.003830194 0.003213882 -0.009299993 0.003830194 0.003213882 -0.009274542 0.003535509 0.003535509 -0.009299993 0.003535509 0.003535509 -0.009274542 0.003213882 0.003830194 -0.009299993 0.003213882 0.003830194 -0.009274542 0.002867877 0.004095733 -0.009299993 0.002867877 0.004095733 -0.009274542 0.002499997 0.004330098 -0.009299993 0.002499997 0.004330098 -0.009274542 0.002113044 0.004531502 -0.009299993 0.002113044 0.004531502 -0.009274542 0.001710057 0.004698455 -0.009299993 0.001710057 0.004698455 -0.009274542 0.001294076 0.004829585 -0.009299993 0.001294076 0.004829585 -0.009274542 8.68241e-4 0.004923999 -0.009299993 8.68241e-4 0.004923999 -0.009274542 4.35779e-4 0.004980921 -0.009299993 4.35779e-4 0.004980921 -0.009274542 0 0.004999995 -0.009299993 0 0.004999995 -0.009274542 -4.35779e-4 0.004980921 -0.009299993 -4.35779e-4 0.004980921 -0.009274542 -8.68241e-4 0.004923999 -0.009299993 -8.68241e-4 0.004923999 -0.009274542 -0.001294076 0.004829585 -0.009299993 -0.001294076 0.004829585 -0.009274542 -0.001710057 0.004698455 -0.009299993 -0.001710057 0.004698455 -0.009274542 -0.002113044 0.004531502 -0.009299993 -0.002113044 0.004531502 -0.009274542 -0.002499997 0.004330098 -0.009299993 -0.002499997 0.004330098 -0.009274542 -0.002867877 0.004095733 -0.009299993 -0.002867877 0.004095733 -0.009274542 -0.003213882 0.003830194 -0.009299993 -0.003213882 0.003830194 -0.009274542 -0.003535509 0.003535509 -0.009299993 -0.003535509 0.003535509 -0.009274542 -0.003830194 0.003213882 -0.009299993 -0.003830194 0.003213882 -0.009274542 -0.004095733 0.002867877 -0.009299993 -0.004095733 0.002867877 -0.009274542 -0.004330098 0.002499997 -0.009299993 -0.004330098 0.002499997 -0.009274542 -0.004531502 0.002113044 -0.009299993 -0.004531502 0.002113044 -0.009274542 -0.004698455 0.001710057 -0.009299993 -0.004698455 0.001710057 -0.009274542 -0.004829585 0.001294076 -0.009299993 -0.004829585 0.001294076 -0.009274542 -0.004923999 8.68241e-4 -0.009299993 -0.004923999 8.68241e-4 -0.009274542 -0.004980921 4.35779e-4 -0.009299993 -0.004980921 4.35779e-4 -0.009274542 -0.004999995 0 -0.009299993 -0.004999995 0 -0.009274542 -0.004980921 -4.35779e-4 -0.009299993 -0.004980921 -4.35779e-4 -0.009274542 -0.004923999 -8.68241e-4 -0.009299993 -0.004923999 -8.68241e-4 -0.009274542 -0.004829585 -0.001294076 -0.009299993 -0.004829585 -0.001294076 -0.009274542 -0.004698455 -0.001710057 -0.009299993 -0.004698455 -0.001710057 -0.009274542 -0.004531502 -0.002113044 -0.009299993 -0.004531502 -0.002113044 -0.009274542 -0.004330098 -0.002499997 -0.009299993 -0.004330098 -0.002499997 -0.009274542 -0.004095733 -0.002867877 -0.009299993 -0.004095733 -0.002867877 -0.009274542 -0.003830194 -0.003213882 -0.009299993 -0.003830194 -0.003213882 -0.009274542 -0.003535509 -0.003535509 -0.009299993 -0.003535509 -0.003535509 -0.009274542 -0.003213882 -0.003830194 -0.009299993 -0.003213882 -0.003830194 -0.009274542 -0.002867877 -0.004095733 -0.009299993 -0.002867877 -0.004095733 -0.009274542 -0.002499997 -0.004330098 -0.009299993 -0.002499997 -0.004330098 -0.009274542 -0.002113044 -0.004531502 -0.009299993 -0.002113044 -0.004531502 -0.009274542 -0.001710057 -0.004698455 -0.009299993 -0.001710057 -0.004698455 -0.009274542 -0.001294076 -0.004829585 -0.009299993 -0.001294076 -0.004829585 -0.009274542 -8.68241e-4 -0.004923999 -0.009299993 -8.68241e-4 -0.004923999 -0.009274542 -4.35779e-4 -0.004980921 -0.009299993 -4.35779e-4 -0.004980921 -0.009274542 0 -0.004999995 -0.009299993 0 -0.004999995 -0.009274542 4.35779e-4 -0.004980921 -0.009299993 4.35779e-4 -0.004980921 -0.009274542 8.68241e-4 -0.004923999 -0.009299993 8.68241e-4 -0.004923999 -0.009274542 0.001294076 -0.004829585 -0.009299993 0.001294076 -0.004829585 -0.009274542 0.001710057 -0.004698455 -0.009299993 0.001710057 -0.004698455 -0.009274542 0.002113044 -0.004531502 -0.009299993 0.002113044 -0.004531502 -0.009274542 0.002499997 -0.004330098 -0.009299993 0.002499997 -0.004330098 -0.009274542 0.002867877 -0.004095733 -0.009299993 0.002867877 -0.004095733 -0.009274542 0.003213882 -0.003830194 -0.009299993 0.003213882 -0.003830194 -0.009274542 0.003535509 -0.003535509 -0.009299993 0.003535509 -0.003535509 -0.009274542 0.003830194 -0.003213882 -0.009299993 0.003830194 -0.003213882 -0.009274542 0.004095733 -0.002867877 -0.009299993 0.004095733 -0.002867877 -0.009274542 0.004330098 -0.002499997 -0.009299993 0.004330098 -0.002499997 -0.009274542 0.004531502 -0.002113044 -0.009299993 0.004531502 -0.002113044 -0.009274542 0.004698455 -0.001710057 -0.009299993 0.004698455 -0.001710057 -0.009274542 0.004829585 -0.001294076 -0.009299993 0.004829585 -0.001294076 -0.009274542 0.004923999 -8.68241e-4 -0.009299993 0.004923999 -8.68241e-4 -0.009274542 0.004980921 -4.35779e-4 -0.009299993 0.004980921 -4.35779e-4 -0.009274542 0.007999956 0.002701997 -0.009043633 0.007999956 0.00343132 -0.008893013 0.007999956 0.001984119 -0.009160041 0.007999956 0.001308023 -0.00923866 0.007999956 6.49719e-4 -0.009284734 -0.007999956 -0.004618763 -0.008585453 -0.006939947 -0.005230784 -0.008901298 -0.006294369 -0.005603492 -0.009053289 -0.005682766 -0.00595659 -0.009165704 -0.005095005 -0.006295979 -0.009242653 -0.004522204 -0.006626665 -0.00928688 -0.007999956 0.002649307 -0.009053289 -0.007999956 -0.001264393 -0.009242653 -0.007999956 -0.001943111 -0.009165704 -0.007999956 -6.03035e-4 -0.00928688 -0.007999956 0.003394782 -0.008901298 -0.007999956 -0.002649307 -0.009053289 -0.007999956 -0.003394782 -0.008901298 -0.007999956 0.001943111 -0.009165704 -0.007999956 0.001264393 -0.009242653 -0.007999956 6.03035e-4 -0.00928688 -0.007999956 0 -0.009299993 -0.006759405 -0.004278957 -0.009299993 -0.007085442 -0.003714323 -0.009299993 -0.007364332 -0.003125011 -0.009299993 -0.007594347 -0.002514958 -0.009299993 -0.007773935 -0.001888215 -0.009299993 -0.007901906 -0.001248896 -0.009299993 -0.007977366 -6.01329e-4 -0.009299993 -0.007977366 6.01329e-4 -0.009299993 -0.007901906 0.001248896 -0.009299993 -0.007773935 0.001888215 -0.009299993 -0.007594347 0.002514958 -0.009299993 0.006747007 0.004298567 -0.009299993 0.007072806 0.003738284 -0.009299993 0.007352232 0.003153502 -0.009299993 0.007583379 0.002547979 -0.009299993 0.007764697 0.001925766 -0.009299993 0.007895112 0.001290917 -0.009299993 0.00797373 6.47587e-4 -0.009299993 -0.007364332 0.003125011 -0.009299993 -0.007085442 0.003714323 -0.009299993 -0.006759405 0.004278957 -0.009299993 -0.006388545 0.004815161 -0.009299993 -0.005975246 0.005319416 -0.009299993 -0.005522191 0.005788326 -0.009299993 -0.005032539 0.006218731 -0.009299993 -0.004509449 0.00660789 -0.009299993 -0.003467917 0.007209241 -0.009299993 -0.002869307 0.007467687 -0.009299993 -0.002251684 0.007676541 -0.009299993 -0.0016191 0.007834434 -0.009299993 -9.75808e-4 0.007940232 -0.009299993 -3.25991e-4 0.00799334 -0.009299993 3.25991e-4 0.00799334 -0.009299993 9.75808e-4 0.007940232 -0.009299993 0.0016191 0.007834434 -0.009299993 0.002251684 0.007676541 -0.009299993 0.002869307 0.007467687 -0.009299993 0.003467917 0.007209241 -0.009299993 0.00450623 0.006610095 -0.009299993 0.005026519 0.006223618 -0.009299993 0.005513787 0.005796313 -0.009299993 0.005964934 0.00533092 -0.009299993 0.006376862 0.004830598 -0.009299993 -0.004509449 -0.00660789 -0.009299993 -0.005032539 -0.006218731 -0.009299993 -0.005522191 -0.005788326 -0.009299993 -0.005975246 -0.005319416 -0.009299993 -0.006388545 -0.004815161 -0.009299993</float_array>
          <technique_common>
            <accessor source="#hex_nut_style_2_am_b18_2_4_2m___hex_nut__style_2___m10_x_1_5__w-mesh-positions-array" count="648" stride="3">
              <param name="X" type="float"/>
              <param name="Y" type="float"/>
              <param name="Z" type="float"/>
            </accessor>
          </technique_common>
        </source>
        <source id="hex_nut_style_2_am_b18_2_4_2m___hex_nut__style_2___m10_x_1_5__w-mesh-normals">
          <float_array id="hex_nut_style_2_am_b18_2_4_2m___hex_nut__style_2___m10_x_1_5__w-mesh-normals-array" count="3405">0.2662461 0.4235225 0.8658764 0.2986203 0.4014167 0.8658468 0.2986218 0.4014186 0.8658454 0.3303191 0.3757714 0.8658437 0.3303167 0.375768 0.8658461 0.3598194 0.3476223 0.8658457 0.3598192 0.3476228 0.8658456 0.386931 0.3171679 0.8658457 0.3869317 0.3171685 0.8658453 0.4114736 0.284608 0.8658453 0.4197727 0.2817528 0.8627898 0.4999073 0.01881521 0.8658745 0.4969452 0.05790859 0.8658475 0.4969488 0.05790317 0.8658459 0.4905831 0.09818029 0.8658457 0.4905835 0.09817916 0.8658457 0.4809595 0.1378009 0.8658458 0.4809601 0.1378013 0.8658453 0.4681414 0.1765066 0.8658458 0.4681415 0.1765085 0.8658455 0.4481068 0.2233874 0.8656203 0.4585947 0.2170635 0.8617275 0.4312751 0.2489968 0.8671807 -0.233657 0.4423351 0.8658777 -0.1983224 0.4593105 0.8658534 -0.1983295 0.4593271 0.8658431 -0.1602681 0.4739526 0.8658424 -0.1602661 0.4739472 0.8658458 -0.1211407 0.4854236 0.8658457 -0.1211407 0.4854241 0.8658456 -0.08121025 0.4936782 0.8658446 -0.08121013 0.4936771 0.8658452 -0.04074043 0.4986497 0.8658457 -0.03411883 0.5044113 0.8627892 0.233657 0.4423351 0.8658777 0.1983295 0.4593278 0.8658426 0.1983278 0.4593231 0.8658455 0.1602668 0.473948 0.8658452 0.1602667 0.473949 0.8658447 0.1211404 0.4854219 0.8658468 0.1211409 0.485425 0.8658449 0.08121019 0.4936779 0.8658447 0.08121013 0.4936774 0.865845 0.03059357 0.4997662 0.8656199 0.04131537 0.5056867 0.8617274 0 0.4979935 0.8671808 -0.2661568 0.4236079 0.865862 -0.2983325 0.4016382 0.8658432 -0.2983291 0.4016329 0.8658469 -0.329861 0.3761662 0.8658469 -0.3298602 0.3761633 0.8658484 -0.3595038 0.3479596 0.8658413 -0.3595674 0.3485572 0.8655745 -0.3862736 0.317254 0.8661078 -0.386238 0.318008 0.8658471 -0.4172027 0.2768982 0.8656036 -0.4998918 0.02026689 0.8658508 -0.4966109 0.06066507 0.8658508 -0.496614 0.06066477 0.8658489 -0.490074 0.1006659 0.8658486 -0.4900748 0.1006668 0.8658481 -0.4803176 0.1400067 0.8658483 -0.4806908 0.1403465 0.8655861 -0.4669923 0.1782711 0.866105 -0.4672575 0.1787916 0.8658545 -0.4514315 0.2156791 0.8658477 -0.4528418 0.2235757 0.8631039 -0.4305226 0.2503696 0.8671595 -0.4170488 0.2901056 0.8613415 -0.2662461 -0.4235225 0.8658764 -0.2986203 -0.4014167 0.8658468 -0.2986218 -0.4014186 0.8658454 -0.3303191 -0.3757714 0.8658437 -0.3303167 -0.375768 0.8658461 -0.3598194 -0.3476223 0.8658457 -0.3598192 -0.3476228 0.8658456 -0.386931 -0.3171679 0.8658457 -0.3869317 -0.3171685 0.8658453 -0.4114736 -0.284608 0.8658453 -0.4197727 -0.2817528 0.8627898 -0.4999073 -0.01881521 0.8658745 -0.4969452 -0.05790859 0.8658475 -0.4969488 -0.05790317 0.8658459 -0.4905831 -0.09818029 0.8658457 -0.4905835 -0.09817916 0.8658457 -0.4809595 -0.1378009 0.8658458 -0.4809601 -0.1378013 0.8658453 -0.4681414 -0.1765066 0.8658458 -0.4681415 -0.1765085 0.8658455 -0.4481068 -0.2233874 0.8656203 -0.4585947 -0.2170635 0.8617275 -0.4312751 -0.2489968 0.8671807 0.233657 -0.4423351 0.8658777 0.1983224 -0.4593105 0.8658534 0.1983295 -0.4593271 0.8658431 0.1602681 -0.4739526 0.8658424 0.1602661 -0.4739472 0.8658458 0.1211407 -0.4854236 0.8658457 0.1211407 -0.4854241 0.8658456 0.08121025 -0.4936782 0.8658446 0.08121013 -0.4936771 0.8658452 0.04074043 -0.4986497 0.8658457 0.03411883 -0.5044113 0.8627892 -0.233657 -0.4423351 0.8658777 -0.1983295 -0.4593278 0.8658426 -0.1983278 -0.4593231 0.8658455 -0.1602668 -0.473948 0.8658452 -0.1602667 -0.473949 0.8658447 -0.1211404 -0.4854219 0.8658468 -0.1211409 -0.485425 0.8658449 -0.08121019 -0.4936779 0.8658447 -0.08121013 -0.4936774 0.865845 -0.03059357 -0.4997662 0.8656199 -0.04131537 -0.5056867 0.8617274 0 -0.4979935 0.8671808 0.2662461 -0.4235225 0.8658764 0.2986173 -0.4014126 0.8658497 0.2986225 -0.4014194 0.8658449 0.3303179 -0.3757706 0.8658444 0.3303171 -0.3757683 0.8658457 0.359818 -0.3476207 0.865847 0.3598196 -0.347623 0.8658453 0.3869312 -0.3171688 0.8658453 0.3869317 -0.3171684 0.8658454 0.4175129 -0.2763777 0.8656203 0.4999073 -0.01881521 0.8658745 0.4969452 -0.05790424 0.8658479 0.4969488 -0.057904 0.8658459 0.4905831 -0.09817975 0.8658459 0.4905834 -0.09817904 0.8658457 0.4809597 -0.1378006 0.8658457 0.4809601 -0.1378021 0.8658453 0.4681413 -0.176508 0.8658457 0.4681416 -0.1765081 0.8658455 0.4522138 -0.2140426 0.8658455 0.4538918 -0.2226579 0.8627896 0.4312751 -0.2489967 0.8671808 0.4172791 -0.2886235 0.8617278 0.4999076 -0.01881611 -0.8658744 0.49694 -0.05790877 -0.8658506 0.4969508 -0.0579046 -0.8658448 0.4905804 -0.09817755 -0.8658476 0.4905872 -0.09818017 -0.8658434 0.4809569 -0.1378035 -0.8658469 0.4809607 -0.1377999 -0.8658453 0.468141 -0.176508 -0.8658459 0.4681418 -0.1765085 -0.8658453 0.4481082 -0.2233873 -0.8656195 0.2662393 -0.4235277 -0.8658758 0.2986356 -0.4014181 -0.8658409 0.2986214 -0.4014211 -0.8658443 0.3303267 -0.3757722 -0.8658403 0.3303155 -0.3757681 -0.8658464 0.3598202 -0.347621 -0.8658458 0.3598181 -0.3476223 -0.8658462 0.3869308 -0.317168 -0.8658459 0.386933 -0.3171676 -0.865845 0.411473 -0.284608 -0.8658454 0.419773 -0.2817527 -0.8627898 0.4312754 -0.2489967 -0.8671807 0.4585942 -0.2170635 -0.8617278 -0.2336493 -0.4423402 -0.8658771 -0.1983147 -0.4593155 -0.8658525 -0.1983317 -0.4593292 -0.8658413 -0.1602712 -0.473955 -0.8658406 -0.1602665 -0.4739456 -0.8658465 -0.1211419 -0.4854223 -0.8658464 -0.1211403 -0.4854235 -0.8658459 -0.08121067 -0.4936775 -0.8658449 -0.08121043 -0.493677 -0.8658453 -0.04074037 -0.4986496 -0.8658458 -0.03411823 -0.5044113 -0.8627892 0.2336493 -0.4423402 -0.8658771 0.198336 -0.459331 -0.8658394 0.1983269 -0.4593255 -0.8658444 0.1602661 -0.4739503 -0.865844 0.1602662 -0.473948 -0.8658453 0.1211404 -0.4854209 -0.8658473 0.1211404 -0.4854245 -0.8658453 0.08120799 -0.4936773 -0.8658453 0.08120959 -0.4936774 -0.8658451 0.03059387 -0.4997661 -0.86562 0.04131519 -0.5056867 -0.8617274 0 -0.4979935 -0.8671808 0.5000004 0.8660252 0 0.4999992 0.8660258 0 0.5000002 0.8660253 0 0.5 0.8660255 0 0.5 0.8660255 0 0.5 0.8660256 0 0.5000004 0.8660252 0 0.5000001 0.8660255 0 0.5 0.8660255 0 0.4999999 0.8660256 0 0.4999997 0.8660256 0 0.4999997 0.8660256 0 0.4999997 0.8660256 0 0.5000007 0.8660251 0 0.5000012 0.8660249 -1.54434e-7 0.4999991 0.8660259 0 0.4999999 0.8660255 1.44961e-7 0.4999998 0.8660256 0 0.4999999 0.8660256 0 0.5000004 0.8660253 0 0.4999999 0.8660255 0 -0.4999993 0.8660258 0 -0.5000004 0.8660253 0 -0.5 0.8660255 0 -0.5 0.8660255 0 -0.4999999 0.8660255 0 -0.4999999 0.8660256 0 -0.4999997 0.8660256 0 -0.4999997 0.8660256 0 -0.5000004 0.8660252 0 -0.5000002 0.8660253 0 -0.5000004 0.8660252 0 -0.5000001 0.8660255 0 -0.5000004 0.8660253 0 -0.4999997 0.8660256 0 -0.5000007 0.8660251 0 -0.5000005 0.8660251 1.54433e-7 -0.4999997 0.8660257 0 -0.5 0.8660255 -1.44961e-7 -0.4999997 0.8660256 0 -0.4999999 0.8660256 0 -0.5000004 0.8660253 0 -0.4999998 0.8660255 0 -0.9990481 -0.04362314 0 -0.9990484 -0.04361838 0 -0.991445 -0.1305258 0 -0.991445 -0.1305258 0 -0.9762958 -0.2164406 0 -0.9762963 -0.2164384 0 -0.9537167 -0.3007066 0 -0.9537175 -0.3007045 0 -0.9238801 -0.3826823 0 -0.9238793 -0.3826843 0 -0.8870099 -0.4617506 0 -0.8870119 -0.4617468 0 -0.843391 -0.5373006 0 -0.8433915 -0.5372997 0 -0.7933533 -0.6087615 0 -0.7933533 -0.6087614 0 -0.7372769 -0.6755908 0 -0.7372782 -0.6755894 0 -0.6755903 -0.7372773 0 -0.6755897 -0.7372778 0 -0.6087616 -0.7933533 0 -0.5373005 -0.843391 0 -0.5372995 -0.8433916 0 -0.4617484 -0.8870109 0 -0.3826835 -0.9238796 0 -0.3826836 -0.9238795 0 -0.3007053 -0.9537172 0 -0.3007055 -0.9537171 0 -0.21644 -0.976296 0 -0.21644 -0.976296 0 -0.1305257 -0.991445 0 -0.1305257 -0.991445 0 -0.04362028 -0.9990482 0 -0.04362028 -0.9990482 0 0.04362028 -0.9990482 0 0.04362028 -0.9990482 0 0.1305257 -0.991445 0 0.1305257 -0.991445 0 0.21644 -0.976296 0 0.21644 -0.976296 0 0.3007055 -0.9537171 0 0.3007053 -0.9537172 0 0.3826836 -0.9238795 0 0.3826835 -0.9238795 0 0.4617484 -0.8870109 0 0.5372995 -0.8433916 0 0.5373006 -0.843391 0 0.6087616 -0.7933533 0 0.6755897 -0.7372778 0 0.6755903 -0.7372773 0 0.7372781 -0.6755895 0 0.7372769 -0.6755906 0 0.7933533 -0.6087615 0 0.7933533 -0.6087614 0 0.8433915 -0.5372998 0 0.843391 -0.5373005 0 0.8870118 -0.4617468 0 0.8870099 -0.4617505 0 0.9238792 -0.3826843 0 0.9238801 -0.3826822 0 0.9537174 -0.3007045 0 0.9537168 -0.3007066 0 0.9762964 -0.2164384 0 0.9762958 -0.2164406 0 0.991445 -0.1305258 0 0.991445 -0.1305258 0 0.9990483 -0.04361838 0 0.9990481 -0.04362308 0 0.9990481 0.04362314 0 0.9990484 0.04361838 0 0.991445 0.1305258 0 0.991445 0.1305258 0 0.9762958 0.2164406 0 0.9762963 0.2164384 0 0.9537167 0.3007066 0 0.9537175 0.3007045 0 0.9238801 0.3826823 0 0.9238793 0.3826843 0 0.8870099 0.4617506 0 0.8870119 0.4617468 0 0.843391 0.5373006 0 0.8433915 0.5372997 0 0.7933533 0.6087615 0 0.7933533 0.6087614 0 0.7372769 0.6755908 0 0.7372782 0.6755894 0 0.6755903 0.7372773 0 0.6755897 0.7372778 0 0.6087616 0.7933533 0 0.5373005 0.843391 0 0.5372995 0.8433916 0 0.4617484 0.8870109 0 0.3826835 0.9238796 0 0.3826836 0.9238795 0 0.3007053 0.9537172 0 0.3007055 0.9537171 0 0.21644 0.976296 0 0.21644 0.976296 0 0.1305257 0.991445 0 0.1305257 0.991445 0 0.04362028 0.9990482 0 0.04362028 0.9990482 0 -0.04362028 0.9990482 0 -0.04362028 0.9990482 0 -0.1305257 0.991445 0 -0.1305257 0.991445 0 -0.21644 0.976296 0 -0.21644 0.976296 0 -0.3007055 0.9537171 0 -0.3007053 0.9537172 0 -0.3826836 0.9238795 0 -0.3826835 0.9238795 0 -0.4617484 0.8870109 0 -0.5372995 0.8433916 0 -0.5373006 0.843391 0 -0.6087616 0.7933533 0 -0.6755897 0.7372778 0 -0.6755903 0.7372773 0 -0.7372781 0.6755895 0 -0.7372769 0.6755906 0 -0.7933533 0.6087615 0 -0.7933533 0.6087614 0 -0.8433915 0.5372998 0 -0.843391 0.5373005 0 -0.8870118 0.4617468 0 -0.8870099 0.4617505 0 -0.9238792 0.3826843 0 -0.9238801 0.3826822 0 -0.9537174 0.3007045 0 -0.9537168 0.3007066 0 -0.9762964 0.2164384 0 -0.9762958 0.2164406 0 -0.991445 0.1305258 0 -0.991445 0.1305258 0 -0.9990483 0.04361838 0 -0.9990481 0.04362308 0 -0.5690329 -0.07491403 0.8188953 -0.5690327 -0.07491469 0.8188953 -0.560338 -0.124224 0.8188955 -0.5603383 -0.1242228 0.8188954 -0.5473789 -0.1725889 0.8188952 -0.5473788 -0.1725885 0.8188953 -0.5302541 -0.2196376 0.8188955 -0.530254 -0.2196384 0.8188955 -0.5090936 -0.2650173 0.8188953 -0.5090935 -0.265018 0.8188952 -0.4840587 -0.3083787 0.8188956 -0.4840589 -0.3083788 0.8188953 -0.4553388 -0.3493959 0.8188951 -0.45534 -0.3493939 0.8188953 -0.4231548 -0.3877493 0.8188959 -0.4231551 -0.3877507 0.8188951 -0.3877498 -0.4231553 0.8188956 -0.3877506 -0.423155 0.8188952 -0.3493946 -0.4553394 0.8188952 -0.3493941 -0.4553399 0.8188953 -0.3083791 -0.4840577 0.818896 -0.3083794 -0.4840589 0.8188951 -0.2650173 -0.5090927 0.8188959 -0.2650173 -0.5090934 0.8188954 -0.2196385 -0.530255 0.8188949 -0.2196385 -0.5302541 0.8188953 -0.1725876 -0.5473789 0.8188956 -0.1725879 -0.5473787 0.8188956 -0.1242241 -0.5603375 0.8188958 -0.1242239 -0.5603382 0.8188953 -0.07491427 -0.569033 0.8188952 -0.07491433 -0.5690327 0.8188954 -0.0250355 -0.5733962 0.8188956 -0.02503496 -0.573397 0.8188951 0.0250355 -0.5733969 0.8188953 0.02503496 -0.5733966 0.8188955 0.07491427 -0.5690329 0.8188953 0.07491433 -0.5690327 0.8188953 0.1242243 -0.5603382 0.8188953 0.1242238 -0.5603378 0.8188956 0.1725876 -0.5473787 0.8188957 0.1725879 -0.5473788 0.8188955 0.2196386 -0.5302547 0.818895 0.2196382 -0.530254 0.8188954 0.2650175 -0.509093 0.8188956 0.2650174 -0.5090934 0.8188954 0.3083793 -0.4840593 0.818895 0.3083794 -0.4840578 0.8188958 0.3493944 -0.4553397 0.8188952 0.3493942 -0.4553394 0.8188955 0.3877501 -0.4231556 0.8188951 0.3877505 -0.4231548 0.8188955 0.4231551 -0.3877503 0.8188952 0.423155 -0.38775 0.8188954 0.4553397 -0.3493945 0.8188952 0.4553393 -0.349395 0.8188951 0.4840589 -0.3083788 0.8188953 0.4840586 -0.3083785 0.8188956 0.5090938 -0.2650187 0.8188949 0.5090935 -0.2650168 0.8188956 0.5302537 -0.2196388 0.8188956 0.5302544 -0.2196375 0.8188955 0.5473789 -0.1725889 0.8188953 0.5473789 -0.1725885 0.8188953 0.5603382 -0.124224 0.8188953 0.5603382 -0.1242228 0.8188956 0.5690328 -0.07491534 0.8188952 0.5690329 -0.07491356 0.8188953 0.5733965 -0.02503567 0.8188955 0.5733969 -0.0250346 0.8188952 0.5733968 0.02503567 0.8188952 0.5733966 0.0250346 0.8188954 0.5690329 0.07491403 0.8188953 0.5690327 0.07491469 0.8188953 0.560338 0.124224 0.8188955 0.5603383 0.1242228 0.8188954 0.5473789 0.1725889 0.8188952 0.5473788 0.1725885 0.8188953 0.5302541 0.2196376 0.8188955 0.530254 0.2196384 0.8188955 0.5090936 0.2650173 0.8188953 0.5090935 0.265018 0.8188952 0.4840587 0.3083787 0.8188956 0.4840589 0.3083788 0.8188953 0.4553388 0.3493959 0.8188951 0.45534 0.3493939 0.8188953 0.4231548 0.3877493 0.8188959 0.4231551 0.3877507 0.8188951 0.3877498 0.4231553 0.8188956 0.3877506 0.423155 0.8188952 0.3493946 0.4553394 0.8188952 0.3493941 0.4553399 0.8188953 0.3083791 0.4840577 0.818896 0.3083794 0.4840589 0.8188951 0.2650173 0.5090927 0.8188959 0.2650173 0.5090934 0.8188954 0.2196385 0.530255 0.8188949 0.2196385 0.5302541 0.8188953 0.1725876 0.5473789 0.8188956 0.1725879 0.5473787 0.8188956 0.1242241 0.5603375 0.8188958 0.1242239 0.5603382 0.8188953 0.07491427 0.569033 0.8188952 0.07491433 0.5690327 0.8188954 0.0250355 0.5733962 0.8188956 0.02503496 0.573397 0.8188951 -0.0250355 0.5733969 0.8188953 -0.02503496 0.5733966 0.8188955 -0.07491427 0.5690329 0.8188953 -0.07491433 0.5690327 0.8188953 -0.1242243 0.5603382 0.8188953 -0.1242238 0.5603378 0.8188956 -0.1725876 0.5473787 0.8188957 -0.1725879 0.5473788 0.8188955 -0.2196386 0.5302547 0.818895 -0.2196382 0.530254 0.8188954 -0.2650175 0.509093 0.8188956 -0.2650174 0.5090934 0.8188954 -0.3083793 0.4840593 0.818895 -0.3083794 0.4840578 0.8188958 -0.3493944 0.4553397 0.8188952 -0.3493942 0.4553394 0.8188955 -0.3877501 0.4231556 0.8188951 -0.3877505 0.4231548 0.8188955 -0.4231551 0.3877503 0.8188952 -0.423155 0.38775 0.8188954 -0.4553397 0.3493945 0.8188952 -0.4553393 0.349395 0.8188951 -0.4840589 0.3083788 0.8188953 -0.4840586 0.3083785 0.8188956 -0.5090938 0.2650187 0.8188949 -0.5090935 0.2650168 0.8188956 -0.5302537 0.2196388 0.8188956 -0.5302544 0.2196375 0.8188955 -0.5473789 0.1725889 0.8188953 -0.5473789 0.1725885 0.8188953 -0.5603382 0.124224 0.8188953 -0.5603382 0.1242228 0.8188956 -0.5690328 0.07491534 0.8188952 -0.5690329 0.07491356 0.8188953 -0.5733965 0.02503567 0.8188955 -0.5733969 0.0250346 0.8188952 -0.5733968 -0.02503567 0.8188952 -0.5733966 -0.0250346 0.8188954 -0.9990482 -0.04362112 0 -0.9990484 -0.04361855 0 -0.9914456 -0.1305207 0 -0.9762959 -0.2164404 0 -0.9762953 -0.2164428 0 -0.9537248 -0.3006811 0 -0.9537092 -0.3007305 0 -0.9238852 -0.38267 0 -0.9238786 -0.3826856 0 -0.8870218 -0.4617276 0 -0.8870033 -0.4617632 0 -0.8434025 -0.5372822 0 -0.8433777 -0.5373213 0 -0.7933694 -0.6087406 0 -0.7933377 -0.6087819 0 -0.7372817 -0.6755855 0 -0.737263 -0.6756059 0 -0.6755934 -0.7372744 0 -0.6755717 -0.7372943 0 -0.6087966 -0.7933264 0 -0.6087443 -0.7933665 0 -0.5373119 -0.8433837 0 -0.5372821 -0.8434026 0 -0.4617688 -0.8870005 0 -0.4617365 -0.8870173 0 -0.3826984 -0.9238733 0 -0.3826636 -0.9238877 0 -0.3007135 -0.9537145 0 -0.216449 -0.976294 0 -0.2164294 -0.9762983 0 -0.1305324 -0.9914441 0 -0.1305224 -0.9914454 0 -0.04362028 -0.9990482 0 -0.04361772 -0.9990484 0 0.04362028 -0.9990482 0 0.04361772 -0.9990484 0 0.1305325 -0.9914441 0 0.1305223 -0.9914454 0 0.216449 -0.9762941 0 0.2164295 -0.9762983 0 0.3007135 -0.9537145 0 0.3826987 -0.9238733 0 0.3826634 -0.9238879 0 0.4617688 -0.8870005 0 0.4617365 -0.8870173 0 0.5373114 -0.8433841 0 0.5372827 -0.8434022 0 0.608796 -0.7933269 0 0.6087449 -0.7933661 0 0.6755941 -0.7372738 0 0.6755711 -0.7372949 0 0.7372817 -0.6755855 0 0.737263 -0.6756059 0 0.7933681 -0.6087422 0 0.7933388 -0.6087803 0 0.8434014 -0.5372841 0 0.8433789 -0.5373195 0 0.8870208 -0.4617297 0 0.8870044 -0.4617612 0 0.9238848 -0.3826711 0 0.9238792 -0.3826845 0 0.953724 -0.3006834 0 0.95371 -0.3007282 0 0.9762953 -0.2164428 0 0.9762959 -0.2164404 0 0.9914456 -0.1305207 0 0.9990484 -0.04361855 0 0.9990482 -0.04362112 0 0.9990482 0.04362112 0 0.9990484 0.04361855 0 0.9914456 0.1305207 0 0.9762959 0.2164404 0 0.9762953 0.2164428 0 0.9537248 0.3006811 0 0.9537092 0.3007305 0 0.9238852 0.38267 0 0.9238786 0.3826856 0 0.8870218 0.4617276 0 0.8870033 0.4617632 0 0.8434025 0.5372822 0 0.8433777 0.5373213 0 0.7933694 0.6087406 0 0.7933377 0.6087819 0 0.7372817 0.6755855 0 0.737263 0.6756059 0 0.6755934 0.7372744 0 0.6755717 0.7372943 0 0.6087966 0.7933264 0 0.6087443 0.7933665 0 0.5373119 0.8433837 0 0.5372821 0.8434026 0 0.4617688 0.8870005 0 0.4617365 0.8870173 0 0.3826984 0.9238733 0 0.3826636 0.9238877 0 0.3007135 0.9537145 0 0.216449 0.976294 0 0.2164294 0.9762983 0 0.1305324 0.9914441 0 0.1305224 0.9914454 0 0.04362028 0.9990482 0 0.04361772 0.9990484 0 -0.04362028 0.9990482 0 -0.04361772 0.9990484 0 -0.1305325 0.9914441 0 -0.1305223 0.9914454 0 -0.216449 0.9762941 0 -0.2164295 0.9762983 0 -0.3007135 0.9537145 0 -0.3826987 0.9238733 0 -0.3826634 0.9238879 0 -0.4617688 0.8870005 0 -0.4617365 0.8870173 0 -0.5373114 0.8433841 0 -0.5372827 0.8434022 0 -0.608796 0.7933269 0 -0.6087449 0.7933661 0 -0.6755941 0.7372738 0 -0.6755711 0.7372949 0 -0.7372817 0.6755855 0 -0.737263 0.6756059 0 -0.7933681 0.6087422 0 -0.7933388 0.6087803 0 -0.8434014 0.5372841 0 -0.8433789 0.5373195 0 -0.8870208 0.4617297 0 -0.8870044 0.4617612 0 -0.9238848 0.3826711 0 -0.9238792 0.3826845 0 -0.953724 0.3006834 0 -0.95371 0.3007282 0 -0.9762953 0.2164428 0 -0.9762959 0.2164404 0 -0.9914456 0.1305207 0 -0.9990484 0.04361855 0 -0.9990482 0.04362112 0 0.5690338 -0.07491397 -0.8188947 0.569032 -0.07491362 -0.818896 0.5603382 -0.1242253 -0.8188952 0.5603379 -0.1242229 -0.8188958 0.5473793 -0.1725888 -0.8188951 0.5473802 -0.1725884 -0.8188946 0.5302545 -0.2196375 -0.8188953 0.5302535 -0.2196395 -0.8188954 0.5090948 -0.2650159 -0.8188952 0.5090931 -0.2650181 -0.8188955 0.4840589 -0.3083798 -0.8188949 0.4840595 -0.3083797 -0.8188946 0.4553389 -0.3493947 -0.8188956 0.4553403 -0.3493943 -0.8188949 0.4231558 -0.3877497 -0.8188953 0.4231548 -0.3877512 -0.8188949 0.3877493 -0.4231554 -0.8188958 0.3877498 -0.4231551 -0.8188955 0.349395 -0.4553399 -0.8188949 0.3493929 -0.4553405 -0.8188955 0.3083796 -0.4840576 -0.8188958 0.3083817 -0.4840585 -0.8188945 0.2650159 -0.5090938 -0.8188956 0.2650189 -0.5090932 -0.8188951 0.2196363 -0.5302554 -0.8188951 0.2196395 -0.5302544 -0.8188949 0.1725888 -0.547379 -0.8188953 0.1725873 -0.5473791 -0.8188955 0.1242226 -0.5603379 -0.8188958 0.124225 -0.5603383 -0.8188951 0.07491266 -0.5690335 -0.8188951 0.07491469 -0.569033 -0.8188952 0.02503699 -0.5733965 -0.8188953 0.0250346 -0.5733973 -0.8188949 -0.0250343 -0.5733972 -0.8188951 -0.02503687 -0.5733969 -0.8188952 -0.07491266 -0.5690333 -0.8188951 -0.07491463 -0.569033 -0.8188952 -0.1242253 -0.5603384 -0.8188951 -0.1242227 -0.5603381 -0.8188956 -0.1725887 -0.5473788 -0.8188955 -0.1725874 -0.5473793 -0.8188953 -0.219639 -0.5302549 -0.8188947 -0.2196371 -0.5302545 -0.8188954 -0.2650187 -0.5090934 -0.8188951 -0.2650167 -0.5090939 -0.8188953 -0.3083799 -0.4840587 -0.8188951 -0.3083795 -0.4840582 -0.8188954 -0.3493946 -0.4553408 -0.8188946 -0.3493931 -0.4553396 -0.8188958 -0.3877484 -0.4231559 -0.8188958 -0.3877515 -0.4231545 -0.8188949 -0.4231572 -0.3877505 -0.8188942 -0.4231548 -0.3877506 -0.8188953 -0.4553394 -0.3493951 -0.8188952 -0.4553408 -0.3493938 -0.8188949 -0.4840579 -0.3083803 -0.8188954 -0.484059 -0.3083794 -0.8188951 -0.5090942 -0.2650174 -0.8188949 -0.5090939 -0.2650167 -0.8188953 -0.5302541 -0.2196387 -0.8188953 -0.5302539 -0.2196386 -0.8188955 -0.5473797 -0.1725888 -0.8188948 -0.5473798 -0.1725884 -0.8188949 -0.5603394 -0.1242239 -0.8188946 -0.5603373 -0.124224 -0.8188959 -0.5690337 -0.07491397 -0.8188948 -0.5690323 -0.07491362 -0.8188958 -0.5733978 -0.02503561 -0.8188945 -0.5733968 -0.02503573 -0.8188952 -0.5733972 0.02503699 -0.8188949 -0.5733972 0.0250346 -0.8188951 -0.5690338 0.07491397 -0.8188947 -0.569032 0.07491362 -0.818896 -0.5603382 0.1242253 -0.8188952 -0.5603379 0.1242229 -0.8188958 -0.5473793 0.1725888 -0.8188951 -0.5473802 0.1725884 -0.8188946 -0.5302545 0.2196375 -0.8188953 -0.5302535 0.2196395 -0.8188954 -0.5090948 0.2650159 -0.8188952 -0.5090931 0.2650181 -0.8188955 -0.4840589 0.3083798 -0.8188949 -0.4840595 0.3083797 -0.8188946 -0.4553389 0.3493947 -0.8188956 -0.4553403 0.3493943 -0.8188949 -0.4231558 0.3877497 -0.8188953 -0.4231548 0.3877512 -0.8188949 -0.3877493 0.4231554 -0.8188958 -0.3877498 0.4231551 -0.8188955 -0.349395 0.4553399 -0.8188949 -0.3493929 0.4553405 -0.8188955 -0.3083796 0.4840576 -0.8188958 -0.3083817 0.4840585 -0.8188945 -0.2650159 0.5090938 -0.8188956 -0.2650189 0.5090932 -0.8188951 -0.2196363 0.5302554 -0.8188951 -0.2196395 0.5302544 -0.8188949 -0.1725888 0.547379 -0.8188953 -0.1725873 0.5473791 -0.8188955 -0.1242226 0.5603379 -0.8188958 -0.124225 0.5603383 -0.8188951 -0.07491266 0.5690335 -0.8188951 -0.07491469 0.569033 -0.8188952 -0.02503699 0.5733965 -0.8188953 -0.0250346 0.5733973 -0.8188949 0.0250343 0.5733972 -0.8188951 0.02503687 0.5733969 -0.8188952 0.07491266 0.5690333 -0.8188951 0.07491463 0.569033 -0.8188952 0.1242253 0.5603384 -0.8188951 0.1242227 0.5603381 -0.8188956 0.1725887 0.5473788 -0.8188955 0.1725874 0.5473793 -0.8188953 0.219639 0.5302549 -0.8188947 0.2196371 0.5302545 -0.8188954 0.2650187 0.5090934 -0.8188951 0.2650167 0.5090939 -0.8188953 0.3083799 0.4840587 -0.8188951 0.3083795 0.4840582 -0.8188954 0.3493946 0.4553408 -0.8188946 0.3493931 0.4553396 -0.8188958 0.3877484 0.4231559 -0.8188958 0.3877515 0.4231545 -0.8188949 0.4231572 0.3877505 -0.8188942 0.4231548 0.3877506 -0.8188953 0.4553394 0.3493951 -0.8188952 0.4553408 0.3493938 -0.8188949 0.4840579 0.3083803 -0.8188954 0.484059 0.3083794 -0.8188951 0.5090942 0.2650174 -0.8188949 0.5090939 0.2650167 -0.8188953 0.5302541 0.2196387 -0.8188953 0.5302539 0.2196386 -0.8188955 0.5473797 0.1725888 -0.8188948 0.5473798 0.1725884 -0.8188949 0.5603394 0.1242239 -0.8188946 0.5603373 0.124224 -0.8188959 0.5690337 0.07491397 -0.8188948 0.5690323 0.07491362 -0.8188958 0.5733978 0.02503561 -0.8188945 0.5733968 0.02503573 -0.8188952 0.5733972 -0.02503699 -0.8188949 0.5733972 -0.0250346 -0.8188951 1 0 0 1 0 0 1 -2.43001e-6 0 1 -2.31258e-6 0 1 2.30433e-6 0 1 -2.21659e-6 0 1 7.12929e-7 0 1 -9.58293e-7 0 0.5000001 -0.8660254 0 0.5000002 -0.8660253 0 0.5 -0.8660255 0 0.4999996 -0.8660257 0 0.4999997 -0.8660256 0 0.4999997 -0.8660256 0 0.4999998 -0.8660255 0 0.5 -0.8660256 0 0.5000004 -0.8660252 0 0.5000002 -0.8660253 0 0.5000004 -0.8660252 0 0.5000001 -0.8660255 0 0.5000004 -0.8660253 0 0.4999999 -0.8660255 0 0.4999997 -0.8660256 0 0.4999998 -0.8660255 0 0.5 -0.8660254 0 0.4999991 -0.866026 0 0.4999989 -0.866026 0 0.5000007 -0.8660251 1.51728e-7 0.5000003 -0.8660253 -1.44021e-7 0.5000007 -0.8660251 1.63664e-7 0.4999997 -0.8660256 0 -0.5 -0.8660255 0 -0.4999998 -0.8660255 0 -0.4999997 -0.8660256 0 -0.4999997 -0.8660256 0 -0.4999996 -0.8660257 0 -0.5 -0.8660255 0 -0.5000002 -0.8660253 0 -0.5000002 -0.8660253 0 -0.5 -0.8660254 0 -0.5000002 -0.8660253 0 -0.4999989 -0.8660261 0 -0.5000001 -0.8660255 -1.51728e-7 -0.4999993 -0.8660258 1.4402e-7 -0.5000008 -0.866025 -1.63664e-7 -0.5000002 -0.8660253 0 -0.5000004 -0.8660253 0 -0.5000004 -0.8660252 0 -0.5000004 -0.8660252 0 -0.5000004 -0.8660252 0 -0.5000001 -0.8660255 0 -0.4999999 -0.8660256 0 -0.4999997 -0.8660256 0 -0.4999999 -0.8660255 0 -1 1.55738e-6 0 -1 4.73773e-7 0 -1 0 0 -1 -2.21659e-6 0 -1 2.30433e-6 0 -1 -1.26696e-6 0 0 0 1 0 0 1 0 0 1 0 0 1 0 0 1 0 0 1 0 0 1 0 0 1 0 0 1 0 0 1 0 0 1 0 0 1 0 0 1 0 0 1 0 0 1 0 0 1 0 0 1 0 0 1 0 0 1 0 0 1 0 0 1 0 0 1 0 0 1 0 0 1 0 0 1 0 0 1 0 0 1 0 0 1 0 0 1 0 0 1 0 0 1 0 0 1 0 0 1 0 0 1 0 0 1 0 0 1 0 0 1 0 0 1 0 0 1 0 0 1 0 0 1 0 0 1 0 0 1 0 0 1 0 0 1 0 0 1 0 0 1 0 0 1 0 0 1 0 0 1 0 0 1 0 0 1 0 0 1 0 0 1 0 0 1 0 0 1 0 0 1 0 0 1 0 0 1 0 0 1 0 0 1 0 0 1 0 0 1 0 0 1 0 0 1 0 0 1 0 0 1 0 0 1 0 0 1 0 0 1 0 0 1 0 0 1 0 0 1 0 0 1 0 0 1 0 0 1 0 0 1 0 0 1 0 0 1 0 0 1 0 0 1 0 0 1 0 0 1 0 0 1 0 0 1 0 0 1 0 0 1 0 0 1 0 0 1 0 0 1 0 0 1 0 0 1 0 0 1 0 0 1 0 0 1 0 0 1 0 0 1 0 0 1 0 0 1 0 0 1 0 0 1 0 0 1 0 0 1 0 0 1 0 0 1 0 0 1 0 0 1 0 0 1 0 0 1 0 0 1 0 0 1 0 0 1 0 0 1 0 0 1 0 0 1 0 0 1 0 0 1 0 0 1 0 0 1 0 0 1 0 0 1 0 0 1 0 0 1 0 0 1 0 0 1 0 0 1 0 0 1 0 0 1 0 0 1 0 0 1 0 0 1 0 0 1 0 0 1 0 0 1 0 0 1 0 0 1 0 0 1 0 0 1 0 0 1 0 0 1 0 0 1 0 0 1 0 0 1 0 0 1 0 0 1 0 0 1 0 0 1 0 0 1 0 0 1 0 0 1 0 0 -1 -9.32044e-7 0 -1 -9.32019e-7 0 -1 -1.38823e-6 0 -1 4.65907e-7 0 -1 -6.94541e-7 0 -1 0 0 -1 -3.48398e-7 0 -1 -2.32346e-7 0 -1 4.35889e-7 0 -1 -1.74528e-7 0 -1 -3.49432e-7 0 -1 -9.37385e-7 0 -1 4.68601e-7 0 -1 -4.6848e-7 0 -1 -4.68328e-7 0 -1 3.48398e-7 0 -1 2.32346e-7 0 -1 -4.35889e-7 0 -1 1.74528e-7 0 -1 3.49432e-7 0 -1 -9.27598e-7 0 -1 9.27598e-7 0 -1 -9.32018e-7 0 -1 1.38786e-6 0 -1 1.86404e-6 0 -1 -1.38798e-6 0 -1 -2.77645e-6 0 -1 2.01663e-6 0 -1 2.77719e-6 0 -1 -1.86326e-6 0 -1 -2.78274e-6 0 -1 2.78738e-6 0 -1 -2.77719e-6 0 -1 1.86326e-6 0 -1 2.78274e-6 0 -1 -2.79245e-6 0 -1 2.79546e-6 0 -1 -1.8552e-6 0 -1 9.32018e-7 0 -1 9.26902e-7 0 -1 -1.38786e-6 0 -1 -1.86404e-6 0 -1 1.38798e-6 0 -1 2.77645e-6 0 -1 -2.01663e-6 0 -1 0.4999116 0.02026659 -0.8658393 0.4966436 0.06066375 -0.865832 0.4966037 0.06066656 -0.8658548 0.4900754 0.1006658 -0.8658478 0.4900764 0.1006667 -0.8658471 0.480316 0.1400068 -0.8658491 0.4806917 0.1403452 -0.8655858 0.4669939 0.1782696 -0.8661043 0.4672582 0.1787931 -0.8658539 0.4514323 0.2156789 -0.8658473 0.4528407 0.2235758 -0.8631045 0.2661582 0.4236022 -0.8658643 0.2983378 0.401632 -0.8658444 0.2983244 0.4016342 -0.8658479 0.3298698 0.3761649 -0.8658441 0.3298617 0.3761631 -0.865848 0.3595041 0.3479595 -0.8658413 0.3595675 0.3485572 -0.8655745 0.3862726 0.3172553 -0.8661078 0.3862375 0.3180081 -0.8658472 0.4172034 0.276898 -0.8656032 0.4170488 0.2901057 -0.8613415 0.4305227 0.2503696 -0.8671593 0.2336493 0.4423402 -0.8658771 0.1983147 0.4593155 -0.8658525 0.1983317 0.4593292 -0.8658413 0.1602712 0.473955 -0.8658406 0.1602665 0.4739456 -0.8658465 0.1211419 0.4854223 -0.8658464 0.1211403 0.4854235 -0.8658459 0.08121067 0.4936775 -0.8658449 0.08121043 0.493677 -0.8658453 0.04074037 0.4986496 -0.8658458 0.03411823 0.5044113 -0.8627892 -0.2336493 0.4423402 -0.8658771 -0.198336 0.459331 -0.8658394 -0.1983269 0.4593255 -0.8658444 -0.1602661 0.4739503 -0.865844 -0.1602662 0.473948 -0.8658453 -0.1211404 0.4854209 -0.8658473 -0.1211404 0.4854245 -0.8658453 -0.08120799 0.4936773 -0.8658453 -0.08120959 0.4936774 -0.8658451 -0.03059387 0.4997661 -0.86562 -0.04131519 0.5056867 -0.8617274 0 0.4979935 -0.8671808 -0.4999076 0.01881611 -0.8658744 -0.49694 0.05790877 -0.8658506 -0.4969508 0.0579046 -0.8658448 -0.4905804 0.09817755 -0.8658476 -0.4905872 0.09818017 -0.8658434 -0.4809569 0.1378035 -0.8658469 -0.4809607 0.1377999 -0.8658453 -0.468141 0.176508 -0.8658459 -0.4681418 0.1765085 -0.8658453 -0.4481082 0.2233873 -0.8656195 -0.2662393 0.4235277 -0.8658758 -0.2986356 0.4014181 -0.8658409 -0.2986214 0.4014211 -0.8658443 -0.3303267 0.3757722 -0.8658403 -0.3303155 0.3757681 -0.8658464 -0.3598202 0.347621 -0.8658458 -0.3598181 0.3476223 -0.8658462 -0.3869308 0.317168 -0.8658459 -0.386933 0.3171676 -0.865845 -0.411473 0.284608 -0.8658454 -0.419773 0.2817527 -0.8627898 -0.4312754 0.2489967 -0.8671807 -0.4585942 0.2170635 -0.8617278 -0.4999076 -0.01881611 -0.8658744 -0.4969328 -0.05790472 -0.865855 -0.4969523 -0.05790537 -0.8658437 -0.4905877 -0.09817945 -0.8658434 -0.490584 -0.09817904 -0.8658455 -0.4809606 -0.1377993 -0.8658455 -0.4809587 -0.1378022 -0.865846 -0.4681424 -0.1765072 -0.8658452 -0.4681409 -0.1765089 -0.8658457 -0.4522141 -0.2140426 -0.8658455 -0.4538916 -0.2226579 -0.8627896 -0.2662393 -0.4235277 -0.8658758 -0.2986277 -0.4014167 -0.8658443 -0.2986232 -0.4014212 -0.8658437 -0.33032 -0.3757728 -0.8658427 -0.3303184 -0.3757676 -0.8658456 -0.3598187 -0.3476195 -0.8658471 -0.3598179 -0.3476226 -0.8658462 -0.3869313 -0.3171688 -0.8658453 -0.386932 -0.3171676 -0.8658456 -0.4175131 -0.2763776 -0.8656201 -0.4172796 -0.2886233 -0.8617275 -0.4312747 -0.2489969 -0.8671809</float_array>
          <technique_common>
            <accessor source="#hex_nut_style_2_am_b18_2_4_2m___hex_nut__style_2___m10_x_1_5__w-mesh-normals-array" count="1135" stride="3">
              <param name="X" type="float"/>
              <param name="Y" type="float"/>
              <param name="Z" type="float"/>
            </accessor>
          </technique_common>
        </source>
        <vertices id="hex_nut_style_2_am_b18_2_4_2m___hex_nut__style_2___m10_x_1_5__w-mesh-vertices">
          <input semantic="POSITION" source="#hex_nut_style_2_am_b18_2_4_2m___hex_nut__style_2___m10_x_1_5__w-mesh-positions"/>
        </vertices>
        <triangles count="1296">
          <input semantic="VERTEX" source="#hex_nut_style_2_am_b18_2_4_2m___hex_nut__style_2___m10_x_1_5__w-mesh-vertices" offset="0"/>
          <input semantic="NORMAL" source="#hex_nut_style_2_am_b18_2_4_2m___hex_nut__style_2___m10_x_1_5__w-mesh-normals" offset="1"/>
          <p>0 0 1 0 2 0 1 1 3 1 2 1 2 2 3 2 4 2 3 3 5 3 4 3 4 4 5 4 6 4 5 5 7 5 6 5 6 6 7 6 8 6 7 7 9 7 8 7 8 8 9 8 10 8 9 9 11 9 10 9 10 10 11 10 12 10 13 11 14 11 15 11 14 12 16 12 15 12 15 13 16 13 17 13 16 14 18 14 17 14 17 15 18 15 19 15 18 16 20 16 19 16 19 17 20 17 21 17 20 18 22 18 21 18 21 19 22 19 23 19 22 20 12 20 23 20 23 21 12 21 24 21 12 22 11 22 24 22 25 23 26 23 27 23 26 24 28 24 27 24 27 25 28 25 29 25 28 26 30 26 29 26 29 27 30 27 31 27 30 28 32 28 31 28 31 29 32 29 33 29 32 30 34 30 33 30 33 31 34 31 35 31 34 32 36 32 35 32 35 33 36 33 37 33 0 34 38 34 39 34 38 35 40 35 39 35 39 36 40 36 41 36 40 37 42 37 41 37 41 38 42 38 43 38 42 39 44 39 43 39 43 40 44 40 45 40 44 41 46 41 45 41 45 42 46 42 47 42 46 43 37 43 47 43 47 44 37 44 48 44 37 45 36 45 48 45 25 46 49 46 50 46 49 47 51 47 50 47 50 48 51 48 52 48 51 49 53 49 52 49 52 50 53 50 54 50 53 51 55 51 54 51 54 52 55 52 56 52 55 53 57 53 56 53 56 54 57 54 58 54 57 55 59 55 58 55 60 56 61 56 62 56 61 57 63 57 62 57 62 58 63 58 64 58 63 59 65 59 64 59 64 60 65 60 66 60 65 61 67 61 66 61 66 62 67 62 68 62 67 63 69 63 68 63 68 64 69 64 70 64 69 65 71 65 70 65 70 66 71 66 59 66 71 67 72 67 59 67 59 68 72 68 58 68 73 69 74 69 75 69 74 70 76 70 75 70 75 71 76 71 77 71 76 72 78 72 77 72 77 73 78 73 79 73 78 74 80 74 79 74 79 75 80 75 81 75 80 76 82 76 81 76 81 77 82 77 83 77 82 78 84 78 83 78 83 79 84 79 85 79 60 80 86 80 87 80 86 81 88 81 87 81 87 82 88 82 89 82 88 83 90 83 89 83 89 84 90 84 91 84 90 85 92 85 91 85 91 86 92 86 93 86 92 87 94 87 93 87 93 88 94 88 95 88 94 89 85 89 95 89 95 90 85 90 96 90 85 91 84 91 96 91 97 92 98 92 99 92 98 93 100 93 99 93 99 94 100 94 101 94 100 95 102 95 101 95 101 96 102 96 103 96 102 97 104 97 103 97 103 98 104 98 105 98 104 99 106 99 105 99 105 100 106 100 107 100 106 101 108 101 107 101 107 102 108 102 109 102 73 103 110 103 111 103 110 104 112 104 111 104 111 105 112 105 113 105 112 106 114 106 113 106 113 107 114 107 115 107 114 108 116 108 115 108 115 109 116 109 117 109 116 110 118 110 117 110 117 111 118 111 119 111 118 112 109 112 119 112 119 113 109 113 120 113 109 114 108 114 120 114 97 115 121 115 122 115 121 116 123 116 122 116 122 117 123 117 124 117 123 118 125 118 124 118 124 119 125 119 126 119 125 120 127 120 126 120 126 121 127 121 128 121 127 122 129 122 128 122 128 123 129 123 130 123 129 124 131 124 130 124 13 125 132 125 133 125 132 126 134 126 133 126 133 127 134 127 135 127 134 128 136 128 135 128 135 129 136 129 137 129 136 130 138 130 137 130 137 131 138 131 139 131 138 132 140 132 139 132 139 133 140 133 141 133 140 134 142 134 141 134 141 135 142 135 131 135 142 136 143 136 131 136 131 137 143 137 130 137 144 138 145 138 146 138 145 139 147 139 146 139 146 140 147 140 148 140 147 141 149 141 148 141 148 142 149 142 150 142 149 143 151 143 150 143 150 144 151 144 152 144 151 145 153 145 152 145 152 146 153 146 154 146 153 147 155 147 154 147 156 148 157 148 158 148 157 149 159 149 158 149 158 150 159 150 160 150 159 151 161 151 160 151 160 152 161 152 162 152 161 153 163 153 162 153 162 154 163 154 164 154 163 155 165 155 164 155 164 156 165 156 166 156 165 157 167 157 166 157 166 158 167 158 155 158 167 159 168 159 155 159 155 160 168 160 154 160 169 161 170 161 171 161 170 162 172 162 171 162 171 163 172 163 173 163 172 164 174 164 173 164 173 165 174 165 175 165 174 166 176 166 175 166 175 167 176 167 177 167 176 168 178 168 177 168 177 169 178 169 179 169 178 170 180 170 179 170 179 171 180 171 181 171 156 172 182 172 183 172 182 173 184 173 183 173 183 174 184 174 185 174 184 175 186 175 185 175 185 176 186 176 187 176 186 177 188 177 187 177 187 178 188 178 189 178 188 179 190 179 189 179 189 180 190 180 191 180 190 181 181 181 191 181 191 182 181 182 192 182 181 183 180 183 192 183 42 184 40 184 193 184 6 185 8 185 194 185 8 186 10 186 194 186 194 187 10 187 195 187 10 188 12 188 195 188 195 189 12 189 196 189 193 190 40 190 197 190 40 191 38 191 197 191 197 192 38 192 198 192 38 193 0 193 198 193 198 194 0 194 199 194 200 195 37 195 201 195 37 196 46 196 201 196 201 188 46 188 193 188 46 193 44 193 193 193 193 190 44 190 42 190 202 197 2 197 194 197 2 198 4 198 194 198 194 199 4 199 6 199 202 200 203 200 2 200 203 201 204 201 2 201 2 202 204 202 0 202 204 203 205 203 0 203 0 204 205 204 199 204 206 205 207 205 55 205 207 206 208 206 55 206 55 207 208 207 57 207 208 208 209 208 57 208 57 209 209 209 59 209 210 210 33 210 35 210 210 208 35 208 211 208 35 211 37 211 211 211 211 212 37 212 200 212 210 213 212 213 33 213 212 214 213 214 33 214 33 215 213 215 31 215 213 216 214 216 31 216 31 217 214 217 29 217 214 209 215 209 29 209 29 218 215 218 27 218 53 219 216 219 55 219 216 220 217 220 55 220 55 221 217 221 206 221 53 222 51 222 216 222 51 223 49 223 216 223 216 224 49 224 215 224 49 225 25 225 215 225 215 226 25 226 27 226 218 227 219 227 220 227 219 228 221 228 220 228 220 229 221 229 222 229 221 230 223 230 222 230 222 231 223 231 224 231 223 232 225 232 224 232 224 233 225 233 226 233 225 234 227 234 226 234 226 235 227 235 228 235 227 236 229 236 228 236 228 237 229 237 230 237 229 238 231 238 230 238 230 239 231 239 232 239 231 240 233 240 232 240 232 241 233 241 234 241 233 242 235 242 234 242 234 243 235 243 236 243 235 244 237 244 236 244 236 245 237 245 238 245 237 246 239 246 238 246 238 247 239 247 240 247 239 247 241 247 240 247 240 248 241 248 242 248 241 249 243 249 242 249 242 250 243 250 244 250 243 250 245 250 244 250 244 251 245 251 246 251 245 252 247 252 246 252 246 253 247 253 248 253 247 254 249 254 248 254 248 255 249 255 250 255 249 256 251 256 250 256 250 257 251 257 252 257 251 258 253 258 252 258 252 259 253 259 254 259 253 260 255 260 254 260 254 261 255 261 256 261 255 262 257 262 256 262 256 263 257 263 258 263 257 264 259 264 258 264 258 265 259 265 260 265 259 266 261 266 260 266 260 267 261 267 262 267 261 268 263 268 262 268 262 269 263 269 264 269 263 270 265 270 264 270 264 271 265 271 266 271 265 271 267 271 266 271 266 272 267 272 268 272 267 273 269 273 268 273 268 274 269 274 270 274 269 274 271 274 270 274 270 275 271 275 272 275 271 276 273 276 272 276 272 277 273 277 274 277 273 278 275 278 274 278 274 279 275 279 276 279 275 280 277 280 276 280 276 281 277 281 278 281 277 282 279 282 278 282 278 283 279 283 280 283 279 284 281 284 280 284 280 285 281 285 282 285 281 286 283 286 282 286 282 287 283 287 284 287 283 288 285 288 284 288 284 289 285 289 286 289 285 290 287 290 286 290 286 291 287 291 288 291 287 292 289 292 288 292 288 293 289 293 290 293 289 294 291 294 290 294 290 295 291 295 292 295 291 296 293 296 292 296 292 297 293 297 294 297 293 298 295 298 294 298 294 299 295 299 296 299 295 300 297 300 296 300 296 301 297 301 298 301 297 302 299 302 298 302 298 303 299 303 300 303 299 304 301 304 300 304 300 305 301 305 302 305 301 306 303 306 302 306 302 307 303 307 304 307 303 308 305 308 304 308 304 309 305 309 306 309 305 310 307 310 306 310 306 311 307 311 308 311 307 312 309 312 308 312 308 313 309 313 310 313 309 314 311 314 310 314 310 315 311 315 312 315 311 315 313 315 312 315 312 316 313 316 314 316 313 317 315 317 314 317 314 318 315 318 316 318 315 318 317 318 316 318 316 319 317 319 318 319 317 320 319 320 318 320 318 321 319 321 320 321 319 322 321 322 320 322 320 323 321 323 322 323 321 324 323 324 322 324 322 325 323 325 324 325 323 326 325 326 324 326 324 327 325 327 326 327 325 328 327 328 326 328 326 329 327 329 328 329 327 330 329 330 328 330 328 331 329 331 330 331 329 332 331 332 330 332 330 333 331 333 332 333 331 334 333 334 332 334 332 335 333 335 334 335 333 336 335 336 334 336 334 337 335 337 336 337 335 338 337 338 336 338 336 339 337 339 338 339 337 339 339 339 338 339 338 340 339 340 340 340 339 341 341 341 340 341 340 342 341 342 342 342 341 342 343 342 342 342 342 343 343 343 344 343 343 344 345 344 344 344 344 345 345 345 346 345 345 346 347 346 346 346 346 347 347 347 348 347 347 348 349 348 348 348 348 349 349 349 350 349 349 350 351 350 350 350 350 351 351 351 352 351 351 352 353 352 352 352 352 353 353 353 354 353 353 354 355 354 354 354 354 355 355 355 356 355 355 356 357 356 356 356 356 357 357 357 358 357 357 358 359 358 358 358 358 359 359 359 360 359 359 360 361 360 360 360 360 361 361 361 218 361 361 362 219 362 218 362 221 363 362 363 223 363 362 364 363 364 223 364 223 365 363 365 225 365 363 366 364 366 225 366 225 367 364 367 227 367 364 368 365 368 227 368 227 369 365 369 229 369 365 370 366 370 229 370 229 371 366 371 231 371 366 372 367 372 231 372 231 373 367 373 233 373 367 374 368 374 233 374 233 375 368 375 235 375 368 376 369 376 235 376 235 377 369 377 237 377 369 378 370 378 237 378 237 379 370 379 239 379 370 380 371 380 239 380 239 381 371 381 241 381 371 382 372 382 241 382 241 383 372 383 243 383 372 384 373 384 243 384 243 385 373 385 245 385 373 386 374 386 245 386 245 387 374 387 247 387 374 388 375 388 247 388 247 389 375 389 249 389 375 390 376 390 249 390 249 391 376 391 251 391 376 392 377 392 251 392 251 393 377 393 253 393 377 394 378 394 253 394 253 395 378 395 255 395 378 396 379 396 255 396 255 397 379 397 257 397 379 398 380 398 257 398 257 399 380 399 259 399 380 400 381 400 259 400 259 401 381 401 261 401 381 402 382 402 261 402 261 403 382 403 263 403 382 404 383 404 263 404 263 405 383 405 265 405 383 406 384 406 265 406 265 407 384 407 267 407 384 408 385 408 267 408 267 409 385 409 269 409 385 410 386 410 269 410 269 411 386 411 271 411 386 412 387 412 271 412 271 413 387 413 273 413 387 414 388 414 273 414 273 415 388 415 275 415 388 416 389 416 275 416 275 417 389 417 277 417 389 418 390 418 277 418 277 419 390 419 279 419 390 420 391 420 279 420 279 421 391 421 281 421 391 422 392 422 281 422 281 423 392 423 283 423 392 424 393 424 283 424 283 425 393 425 285 425 393 426 394 426 285 426 285 427 394 427 287 427 394 428 395 428 287 428 287 429 395 429 289 429 395 430 396 430 289 430 289 431 396 431 291 431 396 432 397 432 291 432 291 433 397 433 293 433 397 434 398 434 293 434 293 435 398 435 295 435 398 436 399 436 295 436 295 437 399 437 297 437 399 438 400 438 297 438 297 439 400 439 299 439 400 440 401 440 299 440 299 441 401 441 301 441 401 442 402 442 301 442 301 443 402 443 303 443 402 444 403 444 303 444 303 445 403 445 305 445 403 446 404 446 305 446 305 447 404 447 307 447 404 448 405 448 307 448 307 449 405 449 309 449 405 450 406 450 309 450 309 451 406 451 311 451 406 452 407 452 311 452 311 453 407 453 313 453 407 454 408 454 313 454 313 455 408 455 315 455 408 456 409 456 315 456 315 457 409 457 317 457 409 458 410 458 317 458 317 459 410 459 319 459 410 460 411 460 319 460 319 461 411 461 321 461 411 462 412 462 321 462 321 463 412 463 323 463 412 464 413 464 323 464 323 465 413 465 325 465 413 466 414 466 325 466 325 467 414 467 327 467 414 468 415 468 327 468 327 469 415 469 329 469 415 470 416 470 329 470 329 471 416 471 331 471 416 472 417 472 331 472 331 473 417 473 333 473 417 474 418 474 333 474 333 475 418 475 335 475 418 476 419 476 335 476 335 477 419 477 337 477 419 478 420 478 337 478 337 479 420 479 339 479 420 480 421 480 339 480 339 481 421 481 341 481 421 482 422 482 341 482 341 483 422 483 343 483 422 484 423 484 343 484 343 485 423 485 345 485 423 486 424 486 345 486 345 487 424 487 347 487 424 488 425 488 347 488 347 489 425 489 349 489 425 490 426 490 349 490 349 491 426 491 351 491 426 492 427 492 351 492 351 493 427 493 353 493 427 494 428 494 353 494 353 495 428 495 355 495 428 496 429 496 355 496 355 497 429 497 357 497 429 498 430 498 357 498 357 499 430 499 359 499 430 500 431 500 359 500 359 501 431 501 361 501 431 502 432 502 361 502 361 503 432 503 219 503 432 504 433 504 219 504 219 505 433 505 221 505 433 506 362 506 221 506 434 507 435 507 436 507 435 508 437 508 436 508 436 509 437 509 438 509 437 509 439 509 438 509 438 510 439 510 440 510 439 511 441 511 440 511 440 512 441 512 442 512 441 513 443 513 442 513 442 514 443 514 444 514 443 515 445 515 444 515 444 516 445 516 446 516 445 517 447 517 446 517 446 518 447 518 448 518 447 519 449 519 448 519 448 520 449 520 450 520 449 521 451 521 450 521 450 522 451 522 452 522 451 523 453 523 452 523 452 524 453 524 454 524 453 525 455 525 454 525 454 526 455 526 456 526 455 527 457 527 456 527 456 528 457 528 458 528 457 529 459 529 458 529 458 530 459 530 460 530 459 531 461 531 460 531 460 532 461 532 462 532 461 533 463 533 462 533 462 534 463 534 464 534 463 534 465 534 464 534 464 535 465 535 466 535 465 536 467 536 466 536 466 537 467 537 468 537 467 538 469 538 468 538 468 539 469 539 470 539 469 540 471 540 470 540 470 541 471 541 472 541 471 542 473 542 472 542 472 543 473 543 474 543 473 544 475 544 474 544 474 545 475 545 476 545 475 546 477 546 476 546 476 547 477 547 478 547 477 547 479 547 478 547 478 548 479 548 480 548 479 549 481 549 480 549 480 550 481 550 482 550 481 551 483 551 482 551 482 552 483 552 484 552 483 553 485 553 484 553 484 554 485 554 486 554 485 555 487 555 486 555 486 556 487 556 488 556 487 557 489 557 488 557 488 558 489 558 490 558 489 559 491 559 490 559 490 560 491 560 492 560 491 561 493 561 492 561 492 562 493 562 494 562 493 563 495 563 494 563 494 564 495 564 496 564 495 565 497 565 496 565 496 566 497 566 498 566 497 567 499 567 498 567 498 568 499 568 500 568 499 569 501 569 500 569 500 570 501 570 502 570 501 571 503 571 502 571 502 572 503 572 504 572 503 572 505 572 504 572 504 573 505 573 506 573 505 574 507 574 506 574 506 575 507 575 508 575 507 576 509 576 508 576 508 577 509 577 510 577 509 577 511 577 510 577 510 578 511 578 512 578 511 579 513 579 512 579 512 580 513 580 514 580 513 581 515 581 514 581 514 582 515 582 516 582 515 583 517 583 516 583 516 584 517 584 518 584 517 585 519 585 518 585 518 586 519 586 520 586 519 587 521 587 520 587 520 588 521 588 522 588 521 589 523 589 522 589 522 590 523 590 524 590 523 591 525 591 524 591 524 592 525 592 526 592 525 593 527 593 526 593 526 594 527 594 528 594 527 595 529 595 528 595 528 596 529 596 530 596 529 597 531 597 530 597 530 598 531 598 532 598 531 599 533 599 532 599 532 600 533 600 534 600 533 601 535 601 534 601 534 602 535 602 536 602 535 602 537 602 536 602 536 603 537 603 538 603 537 604 539 604 538 604 538 605 539 605 540 605 539 606 541 606 540 606 540 607 541 607 542 607 541 608 543 608 542 608 542 609 543 609 544 609 543 610 545 610 544 610 544 611 545 611 546 611 545 612 547 612 546 612 546 613 547 613 548 613 547 614 549 614 548 614 548 615 549 615 550 615 549 615 551 615 550 615 550 616 551 616 552 616 551 617 553 617 552 617 552 618 553 618 554 618 553 619 555 619 554 619 554 620 555 620 556 620 555 621 557 621 556 621 556 622 557 622 558 622 557 623 559 623 558 623 558 624 559 624 560 624 559 625 561 625 560 625 560 626 561 626 562 626 561 627 563 627 562 627 562 628 563 628 564 628 563 629 565 629 564 629 564 630 565 630 566 630 565 631 567 631 566 631 566 632 567 632 568 632 567 633 569 633 568 633 568 634 569 634 570 634 569 635 571 635 570 635 570 636 571 636 572 636 571 637 573 637 572 637 572 638 573 638 574 638 573 639 575 639 574 639 574 640 575 640 576 640 575 640 577 640 576 640 576 641 577 641 434 641 577 642 435 642 434 642 288 643 505 643 286 643 505 644 503 644 286 644 286 645 503 645 284 645 503 646 501 646 284 646 284 647 501 647 282 647 501 648 499 648 282 648 282 649 499 649 280 649 499 650 497 650 280 650 280 651 497 651 278 651 497 652 495 652 278 652 278 653 495 653 276 653 495 654 493 654 276 654 276 655 493 655 274 655 493 656 491 656 274 656 274 657 491 657 272 657 491 658 489 658 272 658 272 659 489 659 270 659 489 660 487 660 270 660 270 661 487 661 268 661 487 662 485 662 268 662 268 663 485 663 266 663 485 664 483 664 266 664 266 665 483 665 264 665 483 666 481 666 264 666 264 667 481 667 262 667 481 668 479 668 262 668 262 669 479 669 260 669 479 670 477 670 260 670 260 671 477 671 258 671 477 672 475 672 258 672 258 673 475 673 256 673 475 674 473 674 256 674 256 675 473 675 254 675 473 676 471 676 254 676 254 677 471 677 252 677 471 678 469 678 252 678 252 679 469 679 250 679 469 680 467 680 250 680 250 681 467 681 248 681 467 682 465 682 248 682 248 683 465 683 246 683 465 684 463 684 246 684 246 685 463 685 244 685 463 686 461 686 244 686 244 687 461 687 242 687 461 688 459 688 242 688 242 689 459 689 240 689 459 690 457 690 240 690 240 691 457 691 238 691 457 692 455 692 238 692 238 693 455 693 236 693 455 694 453 694 236 694 236 695 453 695 234 695 453 696 451 696 234 696 234 697 451 697 232 697 451 698 449 698 232 698 232 699 449 699 230 699 449 700 447 700 230 700 230 701 447 701 228 701 447 702 445 702 228 702 228 703 445 703 226 703 445 704 443 704 226 704 226 705 443 705 224 705 443 706 441 706 224 706 224 707 441 707 222 707 441 708 439 708 222 708 222 709 439 709 220 709 439 710 437 710 220 710 220 711 437 711 218 711 437 712 435 712 218 712 218 713 435 713 360 713 435 714 577 714 360 714 360 715 577 715 358 715 577 716 575 716 358 716 358 717 575 717 356 717 575 718 573 718 356 718 356 719 573 719 354 719 573 720 571 720 354 720 354 721 571 721 352 721 571 722 569 722 352 722 352 723 569 723 350 723 569 724 567 724 350 724 350 725 567 725 348 725 567 726 565 726 348 726 348 727 565 727 346 727 565 728 563 728 346 728 346 729 563 729 344 729 563 730 561 730 344 730 344 731 561 731 342 731 561 732 559 732 342 732 342 733 559 733 340 733 559 734 557 734 340 734 340 735 557 735 338 735 557 736 555 736 338 736 338 737 555 737 336 737 555 738 553 738 336 738 336 739 553 739 334 739 553 740 551 740 334 740 334 741 551 741 332 741 551 742 549 742 332 742 332 743 549 743 330 743 549 744 547 744 330 744 330 745 547 745 328 745 547 746 545 746 328 746 328 747 545 747 326 747 545 748 543 748 326 748 326 749 543 749 324 749 543 750 541 750 324 750 324 751 541 751 322 751 541 752 539 752 322 752 322 753 539 753 320 753 539 754 537 754 320 754 320 755 537 755 318 755 537 756 535 756 318 756 318 757 535 757 316 757 535 758 533 758 316 758 316 759 533 759 314 759 533 760 531 760 314 760 314 761 531 761 312 761 531 762 529 762 312 762 312 763 529 763 310 763 529 764 527 764 310 764 310 765 527 765 308 765 527 766 525 766 308 766 308 767 525 767 306 767 525 768 523 768 306 768 306 769 523 769 304 769 523 770 521 770 304 770 304 771 521 771 302 771 521 772 519 772 302 772 302 773 519 773 300 773 519 774 517 774 300 774 300 775 517 775 298 775 517 776 515 776 298 776 298 777 515 777 296 777 515 778 513 778 296 778 296 779 513 779 294 779 513 780 511 780 294 780 294 781 511 781 292 781 511 782 509 782 292 782 292 783 509 783 290 783 509 784 507 784 290 784 290 785 507 785 288 785 507 786 505 786 288 786 20 787 578 787 579 787 20 788 579 788 22 788 579 788 196 788 22 788 22 788 196 788 12 788 20 788 18 788 578 788 18 789 16 789 578 789 578 788 16 788 580 788 16 788 14 788 580 788 580 790 14 790 581 790 144 788 135 788 145 788 135 791 137 791 145 791 145 788 137 788 147 788 137 788 139 788 147 788 147 788 139 788 149 788 131 788 155 788 141 788 155 788 153 788 141 788 141 788 153 788 139 788 153 792 151 792 139 792 139 793 151 793 149 793 581 788 14 788 582 788 14 788 13 788 582 788 582 788 13 788 144 788 13 788 133 788 144 788 144 794 133 794 135 794 127 795 164 795 166 795 127 796 166 796 129 796 166 797 155 797 129 797 129 798 155 798 131 798 109 799 181 799 107 799 181 800 190 800 107 800 107 801 190 801 105 801 190 802 188 802 105 802 188 803 186 803 105 803 186 804 184 804 105 804 105 805 184 805 103 805 184 806 182 806 103 806 103 807 182 807 101 807 182 808 156 808 101 808 101 809 156 809 99 809 156 810 97 810 99 810 127 811 125 811 164 811 125 812 123 812 164 812 164 813 123 813 162 813 123 814 121 814 162 814 162 815 121 815 160 815 121 816 97 816 160 816 160 817 97 817 158 817 97 796 156 796 158 796 116 818 177 818 179 818 116 819 179 819 118 819 179 820 181 820 118 820 118 821 181 821 109 821 85 822 583 822 83 822 583 823 584 823 83 823 83 824 584 824 81 824 584 825 585 825 81 825 585 826 586 826 81 826 586 827 587 827 81 827 81 828 587 828 79 828 587 829 588 829 79 829 79 830 588 830 77 830 588 831 169 831 77 831 77 832 169 832 75 832 169 833 73 833 75 833 116 834 114 834 177 834 114 835 112 835 177 835 177 836 112 836 175 836 112 837 110 837 175 837 175 823 110 823 173 823 110 838 73 838 173 838 173 839 73 839 171 839 73 840 169 840 171 840 589 841 68 841 70 841 92 842 590 842 591 842 590 843 92 843 592 843 589 843 70 843 593 843 70 843 59 843 593 843 593 843 59 843 209 843 591 843 594 843 92 843 594 844 595 844 92 844 92 843 595 843 94 843 595 843 583 843 94 843 94 843 583 843 85 843 589 843 596 843 68 843 596 843 597 843 68 843 68 843 597 843 66 843 597 843 598 843 66 843 66 843 598 843 64 843 64 843 598 843 62 843 598 843 599 843 62 843 62 843 599 843 60 843 92 843 90 843 592 843 90 845 88 845 592 845 592 843 88 843 599 843 88 843 86 843 599 843 599 846 86 846 60 846 427 847 142 847 428 847 142 848 140 848 428 848 428 849 140 849 429 849 140 850 138 850 429 850 429 851 138 851 430 851 138 852 136 852 430 852 430 853 136 853 431 853 136 854 134 854 431 854 431 855 134 855 432 855 134 856 132 856 432 856 432 857 132 857 433 857 132 858 13 858 433 858 433 859 13 859 362 859 13 860 15 860 362 860 362 861 15 861 363 861 15 862 17 862 363 862 363 863 17 863 364 863 17 864 19 864 364 864 364 865 19 865 365 865 19 866 21 866 365 866 365 867 21 867 366 867 390 868 72 868 391 868 72 869 71 869 391 869 391 870 71 870 392 870 71 871 69 871 392 871 392 872 69 872 393 872 69 873 67 873 393 873 393 874 67 874 394 874 67 875 65 875 394 875 394 876 65 876 395 876 65 877 63 877 395 877 395 878 63 878 396 878 63 879 61 879 396 879 396 880 61 880 397 880 61 881 60 881 397 881 397 882 60 882 398 882 60 883 87 883 398 883 398 884 87 884 399 884 87 885 89 885 399 885 399 886 89 886 400 886 89 887 91 887 400 887 400 888 91 888 401 888 91 889 93 889 401 889 401 890 93 890 402 890 93 891 95 891 402 891 402 892 95 892 403 892 95 893 96 893 403 893 96 894 84 894 403 894 403 895 84 895 404 895 84 896 82 896 404 896 404 897 82 897 405 897 82 898 80 898 405 898 405 899 80 899 406 899 80 900 78 900 406 900 406 901 78 901 407 901 78 902 76 902 407 902 407 903 76 903 408 903 76 904 74 904 408 904 408 905 74 905 409 905 74 906 73 906 409 906 409 907 73 907 410 907 73 908 111 908 410 908 410 909 111 909 411 909 111 910 113 910 411 910 411 911 113 911 412 911 113 912 115 912 412 912 412 913 115 913 413 913 115 914 117 914 413 914 413 915 117 915 414 915 117 916 119 916 414 916 414 917 119 917 415 917 21 918 23 918 366 918 23 919 24 919 366 919 366 920 24 920 367 920 24 921 11 921 367 921 367 922 11 922 368 922 11 923 9 923 368 923 368 924 9 924 369 924 9 925 7 925 369 925 369 926 7 926 370 926 7 927 5 927 370 927 370 928 5 928 371 928 5 929 3 929 371 929 371 930 3 930 372 930 3 931 1 931 372 931 372 932 1 932 373 932 1 933 0 933 373 933 373 934 0 934 374 934 0 935 39 935 374 935 374 936 39 936 375 936 39 937 41 937 375 937 375 938 41 938 376 938 41 939 43 939 376 939 376 940 43 940 377 940 43 941 45 941 377 941 377 942 45 942 378 942 45 943 47 943 378 943 378 944 47 944 379 944 119 945 120 945 415 945 120 946 108 946 415 946 415 947 108 947 416 947 108 948 106 948 416 948 416 949 106 949 417 949 106 950 104 950 417 950 417 951 104 951 418 951 104 952 102 952 418 952 418 953 102 953 419 953 102 954 100 954 419 954 419 955 100 955 420 955 100 956 98 956 420 956 420 957 98 957 421 957 98 958 97 958 421 958 421 959 97 959 422 959 97 960 122 960 422 960 422 961 122 961 423 961 122 962 124 962 423 962 423 963 124 963 424 963 124 964 126 964 424 964 424 965 126 965 425 965 126 966 128 966 425 966 425 967 128 967 426 967 128 968 130 968 426 968 426 969 130 969 427 969 130 970 143 970 427 970 427 971 143 971 142 971 47 972 48 972 379 972 48 973 36 973 379 973 379 974 36 974 380 974 36 975 34 975 380 975 380 976 34 976 381 976 34 977 32 977 381 977 381 978 32 978 382 978 32 979 30 979 382 979 382 980 30 980 383 980 30 981 28 981 383 981 383 982 28 982 384 982 28 983 26 983 384 983 384 984 26 984 385 984 26 985 25 985 385 985 385 986 25 986 386 986 25 987 50 987 386 987 386 988 50 988 387 988 50 989 52 989 387 989 387 990 52 990 388 990 52 991 54 991 388 991 388 992 54 992 389 992 54 993 56 993 389 993 389 994 56 994 390 994 56 995 58 995 390 995 390 996 58 996 72 996 520 997 600 997 518 997 600 998 601 998 518 998 518 997 601 997 516 997 601 999 602 999 516 999 516 997 602 997 514 997 602 997 603 997 514 997 514 1000 603 1000 512 1000 603 1001 604 1001 512 1001 512 997 604 997 510 997 604 997 605 997 510 997 510 1002 605 1002 508 1002 605 997 606 997 508 997 508 997 606 997 506 997 606 1003 599 1003 506 1003 506 997 599 997 504 997 599 997 607 997 504 997 504 1004 607 1004 502 1004 607 1005 608 1005 502 1005 502 1006 608 1006 500 1006 608 997 609 997 500 997 500 1007 609 1007 498 1007 609 997 610 997 498 997 498 1008 610 1008 496 1008 448 997 611 997 446 997 611 997 612 997 446 997 446 997 612 997 444 997 612 997 613 997 444 997 444 997 613 997 442 997 613 1009 614 1009 442 1009 442 997 614 997 440 997 614 1010 615 1010 440 1010 440 997 615 997 438 997 615 1011 616 1011 438 1011 438 997 616 997 436 997 616 1012 617 1012 436 1012 436 997 617 997 434 997 617 997 144 997 434 997 434 997 144 997 576 997 144 997 146 997 576 997 576 1013 146 1013 574 1013 146 1014 148 1014 574 1014 574 1015 148 1015 572 1015 148 997 150 997 572 997 572 1016 150 1016 570 1016 150 997 152 997 570 997 570 1017 152 1017 568 1017 152 1018 154 1018 568 1018 568 997 154 997 566 997 610 1019 618 1019 496 1019 618 1020 619 1020 496 1020 496 997 619 997 494 997 619 997 620 997 494 997 494 1021 620 1021 492 1021 620 1022 621 1022 492 1022 492 1023 621 1023 490 1023 621 997 622 997 490 997 490 1024 622 1024 488 1024 622 997 623 997 488 997 488 997 623 997 486 997 623 997 624 997 486 997 486 997 624 997 484 997 624 997 625 997 484 997 484 997 625 997 482 997 625 1025 215 1025 482 1025 482 997 215 997 480 997 215 997 626 997 480 997 480 997 626 997 478 997 626 997 627 997 478 997 478 997 627 997 476 997 627 997 628 997 476 997 476 997 628 997 474 997 628 997 629 997 474 997 474 997 629 997 472 997 629 997 630 997 472 997 630 997 631 997 472 997 472 997 631 997 470 997 631 997 632 997 470 997 470 997 632 997 468 997 632 997 633 997 468 997 468 997 633 997 466 997 633 997 634 997 466 997 466 997 634 997 464 997 634 997 635 997 464 997 464 1026 635 1026 462 1026 635 1027 636 1027 462 1027 462 997 636 997 460 997 636 997 637 997 460 997 460 997 637 997 458 997 637 997 205 997 458 997 458 1028 205 1028 456 1028 205 997 638 997 456 997 456 1029 638 1029 454 1029 638 997 639 997 454 997 454 997 639 997 452 997 639 997 640 997 452 997 452 997 640 997 450 997 640 997 641 997 450 997 450 997 641 997 448 997 641 997 642 997 448 997 448 997 642 997 611 997 542 997 180 997 540 997 180 997 178 997 540 997 540 997 178 997 538 997 178 997 176 997 538 997 538 997 176 997 536 997 176 997 174 997 536 997 536 1030 174 1030 534 1030 174 1031 172 1031 534 1031 534 997 172 997 532 997 172 997 170 997 532 997 532 997 170 997 530 997 170 997 169 997 530 997 530 1032 169 1032 528 1032 169 997 643 997 528 997 528 997 643 997 526 997 643 997 644 997 526 997 526 997 644 997 524 997 644 997 645 997 524 997 524 1033 645 1033 522 1033 645 997 646 997 522 997 522 1034 646 1034 520 1034 646 1035 647 1035 520 1035 520 1036 647 1036 600 1036 154 1037 168 1037 566 1037 168 997 167 997 566 997 566 1038 167 1038 564 1038 167 1039 165 1039 564 1039 564 1040 165 1040 562 1040 165 997 163 997 562 997 562 1041 163 1041 560 1041 163 997 161 997 560 997 560 997 161 997 558 997 161 997 159 997 558 997 558 997 159 997 556 997 159 997 157 997 556 997 556 997 157 997 554 997 157 1042 156 1042 554 1042 554 997 156 997 552 997 156 997 183 997 552 997 552 997 183 997 550 997 183 997 185 997 550 997 550 997 185 997 548 997 185 997 187 997 548 997 548 997 187 997 546 997 187 997 189 997 546 997 546 997 189 997 544 997 189 997 191 997 544 997 544 997 191 997 542 997 191 997 192 997 542 997 542 997 192 997 180 997 144 1043 617 1043 582 1043 617 1044 616 1044 582 1044 582 1045 616 1045 581 1045 616 1046 615 1046 581 1046 581 1047 615 1047 580 1047 615 1048 614 1048 580 1048 580 1049 614 1049 578 1049 614 1050 613 1050 578 1050 578 1051 613 1051 579 1051 613 1052 612 1052 579 1052 579 1053 612 1053 196 1053 205 1054 204 1054 638 1054 204 1055 203 1055 638 1055 638 1056 203 1056 639 1056 203 1057 202 1057 639 1057 639 1058 202 1058 640 1058 202 1059 194 1059 640 1059 640 1060 194 1060 641 1060 194 1061 195 1061 641 1061 641 1062 195 1062 642 1062 195 1063 196 1063 642 1063 642 1064 196 1064 611 1064 196 1065 612 1065 611 1065 205 1066 637 1066 199 1066 637 1067 636 1067 199 1067 199 1068 636 1068 198 1068 636 1069 635 1069 198 1069 198 1070 635 1070 197 1070 635 1071 634 1071 197 1071 197 1072 634 1072 193 1072 634 1073 633 1073 193 1073 193 1074 633 1074 201 1074 633 1075 632 1075 201 1075 201 1076 632 1076 200 1076 215 1077 214 1077 626 1077 214 1078 213 1078 626 1078 626 1079 213 1079 627 1079 213 1080 212 1080 627 1080 627 1081 212 1081 628 1081 212 1082 210 1082 628 1082 628 1083 210 1083 629 1083 210 1084 211 1084 629 1084 629 1085 211 1085 630 1085 211 1086 200 1086 630 1086 630 1087 200 1087 631 1087 200 1088 632 1088 631 1088 599 1089 598 1089 607 1089 598 1090 597 1090 607 1090 607 1091 597 1091 608 1091 597 1092 596 1092 608 1092 608 1093 596 1093 609 1093 596 1094 589 1094 609 1094 609 1095 589 1095 610 1095 589 1096 593 1096 610 1096 610 1097 593 1097 618 1097 593 1098 209 1098 618 1098 215 1099 625 1099 216 1099 625 1100 624 1100 216 1100 216 1101 624 1101 217 1101 624 1102 623 1102 217 1102 217 1103 623 1103 206 1103 623 1104 622 1104 206 1104 206 1105 622 1105 207 1105 622 1106 621 1106 207 1106 207 1107 621 1107 208 1107 621 1108 620 1108 208 1108 208 1109 620 1109 209 1109 620 1110 619 1110 209 1110 209 1111 619 1111 618 1111 599 1112 606 1112 592 1112 606 1113 605 1113 592 1113 592 1114 605 1114 590 1114 605 1115 604 1115 590 1115 590 1116 604 1116 591 1116 604 1117 603 1117 591 1117 591 1118 603 1118 594 1118 603 1119 602 1119 594 1119 594 1120 602 1120 595 1120 602 1121 601 1121 595 1121 595 1122 601 1122 583 1122 169 1123 588 1123 643 1123 588 1124 587 1124 643 1124 643 1125 587 1125 644 1125 587 1126 586 1126 644 1126 644 1127 586 1127 645 1127 586 1128 585 1128 645 1128 645 1129 585 1129 646 1129 585 1130 584 1130 646 1130 646 1131 584 1131 647 1131 584 1132 583 1132 647 1132 647 1133 583 1133 600 1133 583 1134 601 1134 600 1134</p>
        </triangles>
      </mesh>
    </geometry>
  </library_geometries>
  <library_visual_scenes>
    <visual_scene id="Scene" name="Scene">
      <node id="hex_nut_style_2_am_b18_2_4_2m___hex_nut__style_2___m10_x_1_5__w" name="hex_nut_style_2_am_b18_2_4_2m___hex_nut__style_2___m10_x_1_5__w" type="NODE">
        <matrix sid="transform">1 0 0 0 0 1 0 0 0 0 1 0 0 0 0 1</matrix>
        <instance_geometry url="#hex_nut_style_2_am_b18_2_4_2m___hex_nut__style_2___m10_x_1_5__w-mesh" name="hex_nut_style_2_am_b18_2_4_2m___hex_nut__style_2___m10_x_1_5__w"/>
      </node>
    </visual_scene>
  </library_visual_scenes>
  <scene>
    <instance_visual_scene url="#Scene"/>
  </scene>
</COLLADA>