<?xml version="1.0" encoding="utf-8"?>
<COLLADA xmlns="http://www.collada.org/2005/11/COLLADASchema" version="1.4.1" xmlns:xsi="http://www.w3.org/2001/XMLSchema-instance">
  <asset>
    <contributor>
      <author>Blender User</author>
      <authoring_tool>Blender 3.0.1</authoring_tool>
    </contributor>
    <created>2026-06-04T16:18:51</created>
    <modified>2026-06-04T16:18:51</modified>
    <unit name="meter" meter="1"/>
    <up_axis>Z_UP</up_axis>
  </asset>
  <library_images/>
  <library_geometries>
    <geometry id="hex_nut_style_1_am_b18_2_4_1m___hex_nut__style_1___m10_x_1_5__w-mesh" name="hex_nut_style_1_am_b18_2_4_1m___hex_nut__style_1___m10_x_1_5__w">
      <mesh>
        <source id="hex_nut_style_1_am_b18_2_4_1m___hex_nut__style_1___m10_x_1_5__w-mesh-positions">
          <float_array id="hex_nut_style_1_am_b18_2_4_1m___hex_nut__style_1___m10_x_1_5__w-mesh-positions-array" count="1944">0.003999948 0.006928145 0 0.004509449 0.00660789 0 0.004522204 0.006626665 -1.31036e-5 0.005032539 0.006218731 0 0.005095005 0.006295979 -5.73355e-5 0.005522191 0.005788326 0 0.005682766 0.00595659 -1.34294e-4 0.005975246 0.005319416 0 0.006294369 0.005603492 -2.46685e-4 0.006388545 0.004815161 0 0.006939947 0.005230784 -3.98653e-4 0.006759405 0.004278957 0 0.007999956 0.004618763 -7.14531e-4 0.007999956 0 0 0.007999956 6.03035e-4 -1.31036e-5 0.007977366 6.01329e-4 0 0.007999956 0.001264393 -5.73355e-5 0.007901906 0.001248896 0 0.007999956 0.001943111 -1.34294e-4 0.007773935 0.001888215 0 0.007999956 0.002649307 -2.46685e-4 0.007594347 0.002514958 0 0.007999956 0.003394782 -3.98653e-4 0.007364332 0.003125011 0 0.007085442 0.003714323 0 -0.003999948 0.006928145 0 -0.003467917 0.007209241 0 -0.003477752 0.007229685 -1.31036e-5 -0.002869307 0.007467687 0 -0.002904951 0.007560372 -5.73355e-5 -0.002251684 0.007676541 0 -0.00231719 0.007899761 -1.34294e-4 -0.0016191 0.007834434 0 -0.001705586 0.008252859 -2.46685e-4 -9.75808e-4 0.007940232 0 -0.001060009 0.008625566 -3.98653e-4 -3.25991e-4 0.00799334 0 0 0.009237587 -7.14531e-4 0.003477752 0.007229685 -1.31036e-5 0.003467917 0.007209241 0 0.002904951 0.007560372 -5.73355e-5 0.002869307 0.007467687 0 0.00231719 0.007899761 -1.34294e-4 0.002251684 0.007676541 0 0.001705586 0.008252859 -2.46685e-4 0.0016191 0.007834434 0 0.001060009 0.008625566 -3.98653e-4 9.75808e-4 0.007940232 0 3.25991e-4 0.00799334 0 -0.004518866 0.006628572 -1.29353e-5 -0.00450623 0.006610095 0 -0.00508815 0.006299912 -5.66234e-5 -0.005026519 0.006223618 0 -0.005672156 0.005962729 -1.32626e-4 -0.005513787 0.005796313 0 -0.006279468 0.005612075 -2.43581e-4 -0.005964934 0.00533092 0 -0.006920218 0.005242168 -3.93527e-4 -0.006376862 0.004830598 0 -0.007999956 0.004618763 -7.14531e-4 -0.007999956 0 0 -0.00797373 6.47587e-4 0 -0.007999956 6.49719e-4 -1.52074e-5 -0.007895112 0.001290917 0 -0.007999956 0.001308023 -6.13344e-5 -0.007764697 0.001925766 0 -0.007999956 0.001984119 -1.39936e-4 -0.007583379 0.002547979 0 -0.007999956 0.00268799 -2.53751e-4 -0.007352232 0.003153502 0 -0.007999956 0.00343132 -4.06936e-4 -0.007072806 0.003738284 0 -0.006747007 0.004298567 0 -0.003999948 -0.006928145 0 -0.004509449 -0.00660789 0 -0.004522204 -0.006626665 -1.31036e-5 -0.005032539 -0.006218731 0 -0.005095005 -0.006295979 -5.73355e-5 -0.005522191 -0.005788326 0 -0.005682766 -0.00595659 -1.34294e-4 -0.005975246 -0.005319416 0 -0.006294369 -0.005603492 -2.46685e-4 -0.006388545 -0.004815161 0 -0.006939947 -0.005230784 -3.98653e-4 -0.006759405 -0.004278957 0 -0.007999956 -0.004618763 -7.14531e-4 -0.007999956 -6.03035e-4 -1.31036e-5 -0.007977366 -6.01329e-4 0 -0.007999956 -0.001264393 -5.73355e-5 -0.007901906 -0.001248896 0 -0.007999956 -0.001943111 -1.34294e-4 -0.007773935 -0.001888215 0 -0.007999956 -0.002649307 -2.46685e-4 -0.007594347 -0.002514958 0 -0.007999956 -0.003394782 -3.98653e-4 -0.007364332 -0.003125011 0 -0.007085442 -0.003714323 0 0.003999948 -0.006928145 0 0.003467917 -0.007209241 0 0.003477752 -0.007229685 -1.31036e-5 0.002869307 -0.007467687 0 0.002904951 -0.007560372 -5.73355e-5 0.002251684 -0.007676541 0 0.00231719 -0.007899761 -1.34294e-4 0.0016191 -0.007834434 0 0.001705586 -0.008252859 -2.46685e-4 9.75808e-4 -0.007940232 0 0.001060009 -0.008625566 -3.98653e-4 3.25991e-4 -0.00799334 0 0 -0.009237587 -7.14531e-4 -0.003477752 -0.007229685 -1.31036e-5 -0.003467917 -0.007209241 0 -0.002904951 -0.007560372 -5.73355e-5 -0.002869307 -0.007467687 0 -0.00231719 -0.007899761 -1.34294e-4 -0.002251684 -0.007676541 0 -0.001705586 -0.008252859 -2.46685e-4 -0.0016191 -0.007834434 0 -0.001060009 -0.008625566 -3.98653e-4 -9.75808e-4 -0.007940232 0 -3.25991e-4 -0.00799334 0 0.004522204 -0.006626665 -1.31036e-5 0.004509449 -0.00660789 0 0.005095005 -0.006295979 -5.73355e-5 0.005032539 -0.006218731 0 0.005682766 -0.00595659 -1.34294e-4 0.005522191 -0.005788326 0 0.006294369 -0.005603492 -2.46685e-4 0.005975246 -0.005319416 0 0.006939947 -0.005230784 -3.98653e-4 0.006388545 -0.004815161 0 0.007999956 -0.004618763 -7.14531e-4 0.007977366 -6.01329e-4 0 0.007999956 -6.03035e-4 -1.31036e-5 0.007901906 -0.001248896 0 0.007999956 -0.001264393 -5.73355e-5 0.007773935 -0.001888215 0 0.007999956 -0.001943111 -1.34294e-4 0.007594347 -0.002514958 0 0.007999956 -0.002649307 -2.46685e-4 0.007364332 -0.003125011 0 0.007999956 -0.003394782 -3.98653e-4 0.007085442 -0.003714323 0 0.006759405 -0.004278957 0 0.007999956 0 -0.008399963 0.007999956 -6.03035e-4 -0.00838685 0.007977366 -6.01329e-4 -0.008399963 0.007999956 -0.001264393 -0.008342623 0.007901906 -0.001248896 -0.008399963 0.007999956 -0.001943111 -0.008265674 0.007773935 -0.001888215 -0.008399963 0.007999956 -0.002649307 -0.008153259 0.007594347 -0.002514958 -0.008399963 0.007999956 -0.003394782 -0.008001327 0.007364332 -0.003125011 -0.008399963 0.007999956 -0.004618763 -0.007685422 0.003999948 -0.006928145 -0.008399963 0.004509449 -0.00660789 -0.008399963 0.004522204 -0.006626665 -0.00838685 0.005032539 -0.006218731 -0.008399963 0.005095005 -0.006295979 -0.008342623 0.005522191 -0.005788326 -0.008399963 0.005682766 -0.00595659 -0.008265674 0.005975246 -0.005319416 -0.008399963 0.006294369 -0.005603492 -0.008153259 0.006388545 -0.004815161 -0.008399963 0.006939947 -0.005230784 -0.008001327 0.006759405 -0.004278957 -0.008399963 0.007085442 -0.003714323 -0.008399963 -0.003999948 -0.006928145 -0.008399963 -0.003467917 -0.007209241 -0.008399963 -0.003477752 -0.007229685 -0.00838685 -0.002869307 -0.007467687 -0.008399963 -0.002904951 -0.007560372 -0.008342623 -0.002251684 -0.007676541 -0.008399963 -0.00231719 -0.007899761 -0.008265674 -0.0016191 -0.007834434 -0.008399963 -0.001705586 -0.008252859 -0.008153259 -9.75808e-4 -0.007940232 -0.008399963 -0.001060009 -0.008625566 -0.008001327 -3.25991e-4 -0.00799334 -0.008399963 0 -0.009237587 -0.007685422 0.003477752 -0.007229685 -0.00838685 0.003467917 -0.007209241 -0.008399963 0.002904951 -0.007560372 -0.008342623 0.002869307 -0.007467687 -0.008399963 0.00231719 -0.007899761 -0.008265674 0.002251684 -0.007676541 -0.008399963 0.001705586 -0.008252859 -0.008153259 0.0016191 -0.007834434 -0.008399963 0.001060009 -0.008625566 -0.008001327 9.75808e-4 -0.007940232 -0.008399963 3.25991e-4 -0.00799334 -0.008399963 0.006279468 0.005612075 -0.008156418 0.006920218 0.005242168 -0.008006453 0.007999956 0.004618763 -0.007685422 0.002904951 0.007560372 -0.008342623 0.00231719 0.007899761 -0.008265674 0.003477752 0.007229685 -0.00838685 0.001705586 0.008252859 -0.008153259 0.001060009 0.008625566 -0.008001327 0 0.009237587 -0.007685422 0.005672156 0.005962729 -0.008267343 0.00508815 0.006299912 -0.008343338 0.004518866 0.006628572 -0.008387029 0.003999948 0.006928145 -0.008399963 -0.006294369 0.005603492 -0.008153259 -0.006939947 0.005230784 -0.008001327 -0.007999956 0.004618763 -0.007685422 -0.004522204 0.006626665 -0.00838685 -0.005095005 0.006295979 -0.008342623 -0.005682766 0.00595659 -0.008265674 -0.001705586 0.008252859 -0.008153259 -0.001060009 0.008625566 -0.008001327 -0.00231719 0.007899761 -0.008265674 -0.002904951 0.007560372 -0.008342623 -0.003477752 0.007229685 -0.00838685 -0.003999948 0.006928145 -0.008399963 0.004249989 0 -0.007849395 0.004249989 0 -5.25156e-4 0.004233777 3.70412e-4 -0.007849395 0.004233777 3.70412e-4 -5.25156e-4 0.004185378 7.38005e-4 -0.007849395 0.004185378 7.38005e-4 -5.25156e-4 0.00410515 0.001099944 -0.007849395 0.00410515 0.001099944 -5.25156e-4 0.00399369 0.001453578 -0.007849395 0.00399369 0.001453578 -5.25156e-4 0.003851771 0.001796126 -0.007849395 0.003851771 0.001796126 -5.25156e-4 0.003680586 0.002124965 -0.007849395 0.003680586 0.002124965 -5.25156e-4 0.003481388 0.002437651 -0.007849395 0.003481388 0.002437651 -5.25156e-4 0.003255665 0.0027318 -0.007849395 0.003255665 0.0027318 -5.25156e-4 0.003005146 0.003005146 -0.007849395 0.003005146 0.003005146 -5.25156e-4 0.0027318 0.003255665 -0.007849395 0.0027318 0.003255665 -5.25156e-4 0.002437651 0.003481388 -0.007849395 0.002437651 0.003481388 -5.25156e-4 0.002124965 0.003680586 -0.007849395 0.002124965 0.003680586 -5.25156e-4 0.001796126 0.003851771 -0.007849395 0.001796126 0.003851771 -5.25156e-4 0.001453578 0.00399369 -0.007849395 0.001453578 0.00399369 -5.25156e-4 0.001099944 0.00410515 -0.007849395 0.001099944 0.00410515 -5.25156e-4 7.38005e-4 0.004185378 -0.007849395 7.38005e-4 0.004185378 -5.25156e-4 3.70412e-4 0.004233777 -0.007849395 3.70412e-4 0.004233777 -5.25156e-4 0 0.004249989 -0.007849395 0 0.004249989 -5.25156e-4 -3.70412e-4 0.004233777 -0.007849395 -3.70412e-4 0.004233777 -5.25156e-4 -7.38005e-4 0.004185378 -0.007849395 -7.38005e-4 0.004185378 -5.25156e-4 -0.001099944 0.00410515 -0.007849395 -0.001099944 0.00410515 -5.25156e-4 -0.001453578 0.00399369 -0.007849395 -0.001453578 0.00399369 -5.25156e-4 -0.001796126 0.003851771 -0.007849395 -0.001796126 0.003851771 -5.25156e-4 -0.002124965 0.003680586 -0.007849395 -0.002124965 0.003680586 -5.25156e-4 -0.002437651 0.003481388 -0.007849395 -0.002437651 0.003481388 -5.25156e-4 -0.0027318 0.003255665 -0.007849395 -0.0027318 0.003255665 -5.25156e-4 -0.003005146 0.003005146 -0.007849395 -0.003005146 0.003005146 -5.25156e-4 -0.003255665 0.0027318 -0.007849395 -0.003255665 0.0027318 -5.25156e-4 -0.003481388 0.002437651 -0.007849395 -0.003481388 0.002437651 -5.25156e-4 -0.003680586 0.002124965 -0.007849395 -0.003680586 0.002124965 -5.25156e-4 -0.003851771 0.001796126 -0.007849395 -0.003851771 0.001796126 -5.25156e-4 -0.00399369 0.001453578 -0.007849395 -0.00399369 0.001453578 -5.25156e-4 -0.00410515 0.001099944 -0.007849395 -0.00410515 0.001099944 -5.25156e-4 -0.004185378 7.38005e-4 -0.007849395 -0.004185378 7.38005e-4 -5.25156e-4 -0.004233777 3.70412e-4 -0.007849395 -0.004233777 3.70412e-4 -5.25156e-4 -0.004249989 0 -0.007849395 -0.004249989 0 -5.25156e-4 -0.004233777 -3.70412e-4 -0.007849395 -0.004233777 -3.70412e-4 -5.25156e-4 -0.004185378 -7.38005e-4 -0.007849395 -0.004185378 -7.38005e-4 -5.25156e-4 -0.00410515 -0.001099944 -0.007849395 -0.00410515 -0.001099944 -5.25156e-4 -0.00399369 -0.001453578 -0.007849395 -0.00399369 -0.001453578 -5.25156e-4 -0.003851771 -0.001796126 -0.007849395 -0.003851771 -0.001796126 -5.25156e-4 -0.003680586 -0.002124965 -0.007849395 -0.003680586 -0.002124965 -5.25156e-4 -0.003481388 -0.002437651 -0.007849395 -0.003481388 -0.002437651 -5.25156e-4 -0.003255665 -0.0027318 -0.007849395 -0.003255665 -0.0027318 -5.25156e-4 -0.003005146 -0.003005146 -0.007849395 -0.003005146 -0.003005146 -5.25156e-4 -0.0027318 -0.003255665 -0.007849395 -0.0027318 -0.003255665 -5.25156e-4 -0.002437651 -0.003481388 -0.007849395 -0.002437651 -0.003481388 -5.25156e-4 -0.002124965 -0.003680586 -0.007849395 -0.002124965 -0.003680586 -5.25156e-4 -0.001796126 -0.003851771 -0.007849395 -0.001796126 -0.003851771 -5.25156e-4 -0.001453578 -0.00399369 -0.007849395 -0.001453578 -0.00399369 -5.25156e-4 -0.001099944 -0.00410515 -0.007849395 -0.001099944 -0.00410515 -5.25156e-4 -7.38005e-4 -0.004185378 -0.007849395 -7.38005e-4 -0.004185378 -5.25156e-4 -3.70412e-4 -0.004233777 -0.007849395 -3.70412e-4 -0.004233777 -5.25156e-4 0 -0.004249989 -0.007849395 0 -0.004249989 -5.25156e-4 3.70412e-4 -0.004233777 -0.007849395 3.70412e-4 -0.004233777 -5.25156e-4 7.38005e-4 -0.004185378 -0.007849395 7.38005e-4 -0.004185378 -5.25156e-4 0.001099944 -0.00410515 -0.007849395 0.001099944 -0.00410515 -5.25156e-4 0.001453578 -0.00399369 -0.007849395 0.001453578 -0.00399369 -5.25156e-4 0.001796126 -0.003851771 -0.007849395 0.001796126 -0.003851771 -5.25156e-4 0.002124965 -0.003680586 -0.007849395 0.002124965 -0.003680586 -5.25156e-4 0.002437651 -0.003481388 -0.007849395 0.002437651 -0.003481388 -5.25156e-4 0.0027318 -0.003255665 -0.007849395 0.0027318 -0.003255665 -5.25156e-4 0.003005146 -0.003005146 -0.007849395 0.003005146 -0.003005146 -5.25156e-4 0.003255665 -0.0027318 -0.007849395 0.003255665 -0.0027318 -5.25156e-4 0.003481388 -0.002437651 -0.007849395 0.003481388 -0.002437651 -5.25156e-4 0.003680586 -0.002124965 -0.007849395 0.003680586 -0.002124965 -5.25156e-4 0.003851771 -0.001796126 -0.007849395 0.003851771 -0.001796126 -5.25156e-4 0.00399369 -0.001453578 -0.007849395 0.00399369 -0.001453578 -5.25156e-4 0.00410515 -0.001099944 -0.007849395 0.00410515 -0.001099944 -5.25156e-4 0.004185378 -7.38005e-4 -0.007849395 0.004185378 -7.38005e-4 -5.25156e-4 0.004233777 -3.70412e-4 -0.007849395 0.004233777 -3.70412e-4 -5.25156e-4 0.004980921 4.35779e-4 0 0.004923999 8.68241e-4 0 0.004829585 0.001294076 0 0.004698455 0.001710057 0 0.004531502 0.002113044 0 0.004330098 0.002499997 0 0.004095733 0.002867877 0 0.003830194 0.003213882 0 0.003535509 0.003535509 0 0.003213882 0.003830194 0 0.002867877 0.004095733 0 0.002499997 0.004330098 0 0.002113044 0.004531502 0 0.001710057 0.004698455 0 0.001294076 0.004829585 0 8.68241e-4 0.004923999 0 4.35779e-4 0.004980921 0 0 0.004999995 0 -4.35779e-4 0.004980921 0 -8.68241e-4 0.004923999 0 -0.001294076 0.004829585 0 -0.001710057 0.004698455 0 -0.002113044 0.004531502 0 -0.002499997 0.004330098 0 -0.002867877 0.004095733 0 -0.003213882 0.003830194 0 -0.003535509 0.003535509 0 -0.003830194 0.003213882 0 -0.004095733 0.002867877 0 -0.004330098 0.002499997 0 -0.004531502 0.002113044 0 -0.004698455 0.001710057 0 -0.004829585 0.001294076 0 -0.004923999 8.68241e-4 0 -0.004980921 4.35779e-4 0 -0.004999995 0 0 -0.004980921 -4.35779e-4 0 -0.004923999 -8.68241e-4 0 -0.004829585 -0.001294076 0 -0.004698455 -0.001710057 0 -0.004531502 -0.002113044 0 -0.004330098 -0.002499997 0 -0.004095733 -0.002867877 0 -0.003830194 -0.003213882 0 -0.003535509 -0.003535509 0 -0.003213882 -0.003830194 0 -0.002867877 -0.004095733 0 -0.002499997 -0.004330098 0 -0.002113044 -0.004531502 0 -0.001710057 -0.004698455 0 -0.001294076 -0.004829585 0 -8.68241e-4 -0.004923999 0 -4.35779e-4 -0.004980921 0 0 -0.004999995 0 4.35779e-4 -0.004980921 0 8.68241e-4 -0.004923999 0 0.001294076 -0.004829585 0 0.001710057 -0.004698455 0 0.002113044 -0.004531502 0 0.002499997 -0.004330098 0 0.002867877 -0.004095733 0 0.003213882 -0.003830194 0 0.003535509 -0.003535509 0 0.003830194 -0.003213882 0 0.004095733 -0.002867877 0 0.004330098 -0.002499997 0 0.004531502 -0.002113044 0 0.004698455 -0.001710057 0 0.004829585 -0.001294076 0 0.004923999 -8.68241e-4 0 0.004980921 -4.35779e-4 0 0.004999995 0 0 0.004999995 0 -0.008399963 0.004999995 0 -0.008374571 0.004980921 4.35779e-4 -0.008399963 0.004980921 4.35779e-4 -0.008374571 0.004923999 8.68241e-4 -0.008399963 0.004923999 8.68241e-4 -0.008374571 0.004829585 0.001294076 -0.008399963 0.004829585 0.001294076 -0.008374571 0.004698455 0.001710057 -0.008399963 0.004698455 0.001710057 -0.008374571 0.004531502 0.002113044 -0.008399963 0.004531502 0.002113044 -0.008374571 0.004330098 0.002499997 -0.008399963 0.004330098 0.002499997 -0.008374571 0.004095733 0.002867877 -0.008399963 0.004095733 0.002867877 -0.008374571 0.003830194 0.003213882 -0.008399963 0.003830194 0.003213882 -0.008374571 0.003535509 0.003535509 -0.008399963 0.003535509 0.003535509 -0.008374571 0.003213882 0.003830194 -0.008399963 0.003213882 0.003830194 -0.008374571 0.002867877 0.004095733 -0.008399963 0.002867877 0.004095733 -0.008374571 0.002499997 0.004330098 -0.008399963 0.002499997 0.004330098 -0.008374571 0.002113044 0.004531502 -0.008399963 0.002113044 0.004531502 -0.008374571 0.001710057 0.004698455 -0.008399963 0.001710057 0.004698455 -0.008374571 0.001294076 0.004829585 -0.008399963 0.001294076 0.004829585 -0.008374571 8.68241e-4 0.004923999 -0.008399963 8.68241e-4 0.004923999 -0.008374571 4.35779e-4 0.004980921 -0.008399963 4.35779e-4 0.004980921 -0.008374571 0 0.004999995 -0.008399963 0 0.004999995 -0.008374571 -4.35779e-4 0.004980921 -0.008399963 -4.35779e-4 0.004980921 -0.008374571 -8.68241e-4 0.004923999 -0.008399963 -8.68241e-4 0.004923999 -0.008374571 -0.001294076 0.004829585 -0.008399963 -0.001294076 0.004829585 -0.008374571 -0.001710057 0.004698455 -0.008399963 -0.001710057 0.004698455 -0.008374571 -0.002113044 0.004531502 -0.008399963 -0.002113044 0.004531502 -0.008374571 -0.002499997 0.004330098 -0.008399963 -0.002499997 0.004330098 -0.008374571 -0.002867877 0.004095733 -0.008399963 -0.002867877 0.004095733 -0.008374571 -0.003213882 0.003830194 -0.008399963 -0.003213882 0.003830194 -0.008374571 -0.003535509 0.003535509 -0.008399963 -0.003535509 0.003535509 -0.008374571 -0.003830194 0.003213882 -0.008399963 -0.003830194 0.003213882 -0.008374571 -0.004095733 0.002867877 -0.008399963 -0.004095733 0.002867877 -0.008374571 -0.004330098 0.002499997 -0.008399963 -0.004330098 0.002499997 -0.008374571 -0.004531502 0.002113044 -0.008399963 -0.004531502 0.002113044 -0.008374571 -0.004698455 0.001710057 -0.008399963 -0.004698455 0.001710057 -0.008374571 -0.004829585 0.001294076 -0.008399963 -0.004829585 0.001294076 -0.008374571 -0.004923999 8.68241e-4 -0.008399963 -0.004923999 8.68241e-4 -0.008374571 -0.004980921 4.35779e-4 -0.008399963 -0.004980921 4.35779e-4 -0.008374571 -0.004999995 0 -0.008399963 -0.004999995 0 -0.008374571 -0.004980921 -4.35779e-4 -0.008399963 -0.004980921 -4.35779e-4 -0.008374571 -0.004923999 -8.68241e-4 -0.008399963 -0.004923999 -8.68241e-4 -0.008374571 -0.004829585 -0.001294076 -0.008399963 -0.004829585 -0.001294076 -0.008374571 -0.004698455 -0.001710057 -0.008399963 -0.004698455 -0.001710057 -0.008374571 -0.004531502 -0.002113044 -0.008399963 -0.004531502 -0.002113044 -0.008374571 -0.004330098 -0.002499997 -0.008399963 -0.004330098 -0.002499997 -0.008374571 -0.004095733 -0.002867877 -0.008399963 -0.004095733 -0.002867877 -0.008374571 -0.003830194 -0.003213882 -0.008399963 -0.003830194 -0.003213882 -0.008374571 -0.003535509 -0.003535509 -0.008399963 -0.003535509 -0.003535509 -0.008374571 -0.003213882 -0.003830194 -0.008399963 -0.003213882 -0.003830194 -0.008374571 -0.002867877 -0.004095733 -0.008399963 -0.002867877 -0.004095733 -0.008374571 -0.002499997 -0.004330098 -0.008399963 -0.002499997 -0.004330098 -0.008374571 -0.002113044 -0.004531502 -0.008399963 -0.002113044 -0.004531502 -0.008374571 -0.001710057 -0.004698455 -0.008399963 -0.001710057 -0.004698455 -0.008374571 -0.001294076 -0.004829585 -0.008399963 -0.001294076 -0.004829585 -0.008374571 -8.68241e-4 -0.004923999 -0.008399963 -8.68241e-4 -0.004923999 -0.008374571 -4.35779e-4 -0.004980921 -0.008399963 -4.35779e-4 -0.004980921 -0.008374571 0 -0.004999995 -0.008399963 0 -0.004999995 -0.008374571 4.35779e-4 -0.004980921 -0.008399963 4.35779e-4 -0.004980921 -0.008374571 8.68241e-4 -0.004923999 -0.008399963 8.68241e-4 -0.004923999 -0.008374571 0.001294076 -0.004829585 -0.008399963 0.001294076 -0.004829585 -0.008374571 0.001710057 -0.004698455 -0.008399963 0.001710057 -0.004698455 -0.008374571 0.002113044 -0.004531502 -0.008399963 0.002113044 -0.004531502 -0.008374571 0.002499997 -0.004330098 -0.008399963 0.002499997 -0.004330098 -0.008374571 0.002867877 -0.004095733 -0.008399963 0.002867877 -0.004095733 -0.008374571 0.003213882 -0.003830194 -0.008399963 0.003213882 -0.003830194 -0.008374571 0.003535509 -0.003535509 -0.008399963 0.003535509 -0.003535509 -0.008374571 0.003830194 -0.003213882 -0.008399963 0.003830194 -0.003213882 -0.008374571 0.004095733 -0.002867877 -0.008399963 0.004095733 -0.002867877 -0.008374571 0.004330098 -0.002499997 -0.008399963 0.004330098 -0.002499997 -0.008374571 0.004531502 -0.002113044 -0.008399963 0.004531502 -0.002113044 -0.008374571 0.004698455 -0.001710057 -0.008399963 0.004698455 -0.001710057 -0.008374571 0.004829585 -0.001294076 -0.008399963 0.004829585 -0.001294076 -0.008374571 0.004923999 -8.68241e-4 -0.008399963 0.004923999 -8.68241e-4 -0.008374571 0.004980921 -4.35779e-4 -0.008399963 0.004980921 -4.35779e-4 -0.008374571 0.007999956 0.00268799 -0.008146226 0.007999956 0.00343132 -0.007993042 0.007999956 0.001984119 -0.008260011 0.007999956 0.001308023 -0.00833863 0.007999956 6.49719e-4 -0.008384764 -0.006294369 -0.005603492 -0.008153259 -0.006939947 -0.005230784 -0.008001327 -0.007999956 -0.004618763 -0.007685422 -0.005682766 -0.00595659 -0.008265674 -0.005095005 -0.006295979 -0.008342623 -0.004522204 -0.006626665 -0.00838685 -0.007999956 0.002649307 -0.008153259 -0.007999956 -0.001264393 -0.008342623 -0.007999956 -0.001943111 -0.008265674 -0.007999956 -6.03035e-4 -0.00838685 -0.007999956 0.003394782 -0.008001327 -0.007999956 -0.002649307 -0.008153259 -0.007999956 -0.003394782 -0.008001327 -0.007999956 0.001943111 -0.008265674 -0.007999956 0.001264393 -0.008342623 -0.007999956 6.03035e-4 -0.00838685 -0.007999956 0 -0.008399963 -0.006759405 -0.004278957 -0.008399963 -0.007085442 -0.003714323 -0.008399963 -0.007364332 -0.003125011 -0.008399963 -0.007594347 -0.002514958 -0.008399963 -0.007773935 -0.001888215 -0.008399963 -0.007901906 -0.001248896 -0.008399963 -0.007977366 -6.01329e-4 -0.008399963 -0.007977366 6.01329e-4 -0.008399963 -0.007901906 0.001248896 -0.008399963 -0.007773935 0.001888215 -0.008399963 -0.007594347 0.002514958 -0.008399963 0.006747007 0.004298567 -0.008399963 0.007072806 0.003738284 -0.008399963 0.007352232 0.003153502 -0.008399963 0.007583379 0.002547979 -0.008399963 0.007764697 0.001925766 -0.008399963 0.007895112 0.001290917 -0.008399963 0.00797373 6.47587e-4 -0.008399963 -0.007364332 0.003125011 -0.008399963 -0.007085442 0.003714323 -0.008399963 -0.006759405 0.004278957 -0.008399963 -0.006388545 0.004815161 -0.008399963 -0.005975246 0.005319416 -0.008399963 -0.005522191 0.005788326 -0.008399963 -0.005032539 0.006218731 -0.008399963 -0.004509449 0.00660789 -0.008399963 -0.003467917 0.007209241 -0.008399963 -0.002869307 0.007467687 -0.008399963 -0.002251684 0.007676541 -0.008399963 -0.0016191 0.007834434 -0.008399963 -9.75808e-4 0.007940232 -0.008399963 -3.25991e-4 0.00799334 -0.008399963 3.25991e-4 0.00799334 -0.008399963 9.75808e-4 0.007940232 -0.008399963 0.0016191 0.007834434 -0.008399963 0.002251684 0.007676541 -0.008399963 0.002869307 0.007467687 -0.008399963 0.003467917 0.007209241 -0.008399963 0.00450623 0.006610095 -0.008399963 0.005026519 0.006223618 -0.008399963 0.005513787 0.005796313 -0.008399963 0.005964934 0.00533092 -0.008399963 0.006376862 0.004830598 -0.008399963 -0.004509449 -0.00660789 -0.008399963 -0.005032539 -0.006218731 -0.008399963 -0.005522191 -0.005788326 -0.008399963 -0.005975246 -0.005319416 -0.008399963 -0.006388545 -0.004815161 -0.008399963</float_array>
          <technique_common>
            <accessor source="#hex_nut_style_1_am_b18_2_4_1m___hex_nut__style_1___m10_x_1_5__w-mesh-positions-array" count="648" stride="3">
              <param name="X" type="float"/>
              <param name="Y" type="float"/>
              <param name="Z" type="float"/>
            </accessor>
          </technique_common>
        </source>
        <source id="hex_nut_style_1_am_b18_2_4_1m___hex_nut__style_1___m10_x_1_5__w-mesh-normals">
          <float_array id="hex_nut_style_1_am_b18_2_4_1m___hex_nut__style_1___m10_x_1_5__w-mesh-normals-array" count="3471">0.2662461 0.4235225 0.8658764 0.2986203 0.4014167 0.8658468 0.2986218 0.4014186 0.8658454 0.3303191 0.3757714 0.8658437 0.3303167 0.375768 0.8658461 0.3598194 0.3476223 0.8658457 0.3598192 0.3476228 0.8658456 0.386931 0.3171679 0.8658457 0.3869317 0.3171685 0.8658453 0.4114736 0.284608 0.8658453 0.4197727 0.2817528 0.8627898 0.4999073 0.01881521 0.8658745 0.4969452 0.05790859 0.8658475 0.4969488 0.05790317 0.8658459 0.4905831 0.09818029 0.8658457 0.4905835 0.09817916 0.8658457 0.4809595 0.1378009 0.8658458 0.4809601 0.1378013 0.8658453 0.4681414 0.1765066 0.8658458 0.4681415 0.1765085 0.8658455 0.4481068 0.2233874 0.8656203 0.4585947 0.2170635 0.8617275 0.4312751 0.2489968 0.8671807 -0.233657 0.4423351 0.8658777 -0.1983224 0.4593105 0.8658534 -0.1983295 0.4593271 0.8658431 -0.1602681 0.4739526 0.8658424 -0.1602661 0.4739472 0.8658458 -0.1211407 0.4854236 0.8658457 -0.1211407 0.4854241 0.8658456 -0.08121025 0.4936782 0.8658446 -0.08121013 0.4936771 0.8658452 -0.04074043 0.4986497 0.8658457 -0.03411883 0.5044113 0.8627892 0.233657 0.4423351 0.8658777 0.1983295 0.4593278 0.8658426 0.1983278 0.4593231 0.8658455 0.1602668 0.473948 0.8658452 0.1602667 0.473949 0.8658447 0.1211404 0.4854219 0.8658468 0.1211409 0.485425 0.8658449 0.08121019 0.4936779 0.8658447 0.08121013 0.4936774 0.865845 0.03059357 0.4997662 0.8656199 0.04131537 0.5056867 0.8617274 0 0.4979935 0.8671808 -0.2661568 0.4236079 0.865862 -0.2983325 0.4016382 0.8658432 -0.2983291 0.4016329 0.8658469 -0.329861 0.3761662 0.8658469 -0.3298602 0.3761633 0.8658484 -0.359229 0.3482301 0.8658466 -0.3592282 0.3482279 0.8658479 -0.3862383 0.3180063 0.8658476 -0.386238 0.318008 0.8658471 -0.4172027 0.2768982 0.8656036 -0.4998918 0.02026689 0.8658508 -0.4966109 0.06066507 0.8658508 -0.496614 0.06066477 0.8658489 -0.490074 0.1006659 0.8658486 -0.4900748 0.1006668 0.8658481 -0.4803176 0.1400067 0.8658483 -0.4803185 0.1400074 0.8658477 -0.4674093 0.178429 0.8658475 -0.4674089 0.1784284 0.8658478 -0.4514315 0.2156791 0.8658477 -0.4528418 0.2235757 0.8631039 -0.4305226 0.2503696 0.8671595 -0.4170488 0.2901056 0.8613415 -0.2662461 -0.4235225 0.8658764 -0.2986203 -0.4014167 0.8658468 -0.2986218 -0.4014186 0.8658454 -0.3303191 -0.3757714 0.8658437 -0.3303167 -0.375768 0.8658461 -0.3598194 -0.3476223 0.8658457 -0.3598192 -0.3476228 0.8658456 -0.386931 -0.3171679 0.8658457 -0.3869317 -0.3171685 0.8658453 -0.4114736 -0.284608 0.8658453 -0.4197727 -0.2817528 0.8627898 -0.4999073 -0.01881521 0.8658745 -0.4969452 -0.05790859 0.8658475 -0.4969488 -0.05790317 0.8658459 -0.4905831 -0.09818029 0.8658457 -0.4905835 -0.09817916 0.8658457 -0.4809595 -0.1378009 0.8658458 -0.4809601 -0.1378013 0.8658453 -0.4681414 -0.1765066 0.8658458 -0.4681415 -0.1765085 0.8658455 -0.4481068 -0.2233874 0.8656203 -0.4585947 -0.2170635 0.8617275 -0.4312751 -0.2489968 0.8671807 0.233657 -0.4423351 0.8658777 0.1983224 -0.4593105 0.8658534 0.1983295 -0.4593271 0.8658431 0.1602681 -0.4739526 0.8658424 0.1602661 -0.4739472 0.8658458 0.1211407 -0.4854236 0.8658457 0.1211407 -0.4854241 0.8658456 0.08121025 -0.4936782 0.8658446 0.08121013 -0.4936771 0.8658452 0.04074043 -0.4986497 0.8658457 0.03411883 -0.5044113 0.8627892 -0.233657 -0.4423351 0.8658777 -0.1983295 -0.4593278 0.8658426 -0.1983278 -0.4593231 0.8658455 -0.1602668 -0.473948 0.8658452 -0.1602667 -0.473949 0.8658447 -0.1211404 -0.4854219 0.8658468 -0.1211409 -0.485425 0.8658449 -0.08121019 -0.4936779 0.8658447 -0.08121013 -0.4936774 0.865845 -0.03059357 -0.4997662 0.8656199 -0.04131537 -0.5056867 0.8617274 0 -0.4979935 0.8671808 0.2662461 -0.4235225 0.8658764 0.2986173 -0.4014126 0.8658497 0.2986225 -0.4014194 0.8658449 0.3303179 -0.3757706 0.8658444 0.3303171 -0.3757683 0.8658457 0.359818 -0.3476207 0.865847 0.3598196 -0.347623 0.8658453 0.3869312 -0.3171688 0.8658453 0.3869317 -0.3171684 0.8658454 0.4175129 -0.2763777 0.8656203 0.4999073 -0.01881521 0.8658745 0.4969452 -0.05790424 0.8658479 0.4969488 -0.057904 0.8658459 0.4905831 -0.09817975 0.8658459 0.4905834 -0.09817904 0.8658457 0.4809597 -0.1378006 0.8658457 0.4809601 -0.1378021 0.8658453 0.4681413 -0.176508 0.8658457 0.4681416 -0.1765081 0.8658455 0.4522138 -0.2140426 0.8658455 0.4538918 -0.2226579 0.8627896 0.4312751 -0.2489967 0.8671808 0.4172791 -0.2886235 0.8617278 0.4999386 -0.01881575 -0.8658565 0.4970192 -0.05790579 -0.8658054 0.496937 -0.05790358 -0.8658527 0.4905804 -0.09817755 -0.8658476 0.4905845 -0.09818035 -0.865845 0.4809607 -0.1378031 -0.8658449 0.4809595 -0.1377999 -0.8658459 0.468141 -0.176508 -0.8658459 0.4681411 -0.1765086 -0.8658457 0.4481066 -0.2233874 -0.8656203 0.266256 -0.4235256 -0.8658718 0.2986114 -0.4014213 -0.8658478 0.2986208 -0.4014156 -0.8658471 0.3303058 -0.37577 -0.8658492 0.3303225 -0.375766 -0.8658446 0.3598202 -0.347621 -0.8658458 0.3598181 -0.3476223 -0.8658462 0.3869308 -0.317168 -0.8658459 0.3869317 -0.3171678 -0.8658456 0.411473 -0.284608 -0.8658454 0.4197735 -0.2817533 -0.8627893 0.4312754 -0.2489967 -0.8671807 0.4585952 -0.2170625 -0.8617277 -0.2336476 -0.4423404 -0.8658776 -0.1983147 -0.4593155 -0.8658525 -0.1983324 -0.4593232 -0.8658444 -0.1602629 -0.4739496 -0.8658451 -0.1602665 -0.4739462 -0.8658463 -0.1211413 -0.4854224 -0.8658465 -0.1211403 -0.4854235 -0.8658459 -0.08121067 -0.4936775 -0.8658449 -0.08120876 -0.4936771 -0.8658453 -0.04074209 -0.4986495 -0.8658457 -0.03411823 -0.5044111 -0.8627893 0.2336476 -0.4423404 -0.8658776 0.1983361 -0.4593297 -0.86584 0.1983276 -0.4593199 -0.8658474 0.1602609 -0.4739451 -0.8658479 0.1602674 -0.4739479 -0.8658451 0.1211404 -0.4854209 -0.8658473 0.1211404 -0.4854245 -0.8658453 0.08121055 -0.4936771 -0.8658452 0.08120959 -0.4936774 -0.8658451 0.03059387 -0.4997661 -0.86562 0.04131519 -0.5056864 -0.8617275 0 -0.4979933 -0.867181 0.5000001 0.8660254 0 0.5000005 0.8660252 0 0.4999994 0.8660258 0 0.5000002 0.8660253 0 0.5 0.8660254 0 0.5000013 0.8660247 1.71726e-7 0.4999991 0.866026 0 0.4999995 0.8660258 0 0.5000001 0.8660253 -3.43633e-7 0.5000004 0.8660252 0 0.4999998 0.8660255 0 0.4999999 0.8660255 0 0.4999996 0.8660256 0 0.4999998 0.8660256 0 0.4999997 0.8660257 -3.06425e-7 0.5000002 0.8660253 1.60485e-7 0.4999998 0.8660255 -1.81359e-7 0.5000001 0.8660255 0 0.5000001 0.8660253 0 0.5000003 0.8660253 3.04256e-7 0.5000005 0.8660252 0 0.4999994 0.8660258 0 0.5 0.8660254 0 0.4999998 0.8660255 0 -0.4999992 0.8660259 0 -0.5000005 0.8660252 0 -0.4999997 0.8660256 0 -0.5000002 0.8660253 0 -0.5000007 0.866025 -1.71725e-7 -0.4999995 0.8660258 0 -0.5 0.8660255 0 -0.4999998 0.8660255 0 -0.4999999 0.8660255 0 -0.4999998 0.8660256 0 -0.4999997 0.8660256 0 -0.5000004 0.8660252 0 -0.5 0.8660255 0 -0.5000003 0.8660253 0 -0.5000001 0.8660253 0 -0.5000005 0.8660252 0 -0.4999994 0.8660258 0 -0.5 0.8660254 0 -0.4999998 0.8660255 0 -0.5000004 0.8660253 3.06425e-7 -0.5000003 0.8660253 -1.60485e-7 -0.4999998 0.8660255 1.81359e-7 -0.5000001 0.8660255 0 -0.9990482 -0.04362213 0 -0.9990482 -0.04361945 0 -0.9914449 -0.1305263 0 -0.9914452 -0.1305236 0 -0.9762957 -0.2164416 0 -0.9762961 -0.216439 0 -0.9537168 -0.3007065 0 -0.9537172 -0.3007053 0 -0.9238802 -0.3826822 0 -0.9238792 -0.3826844 0 -0.8870108 -0.4617488 0 -0.8870113 -0.4617478 0 -0.8433909 -0.5373007 0 -0.8433914 -0.5372996 0 -0.7933536 -0.6087613 0 -0.7933536 -0.6087613 0 -0.7372765 -0.6755911 0 -0.7372779 -0.6755896 0 -0.6755905 -0.737277 0 -0.6755899 -0.7372777 0 -0.6087615 -0.7933534 0 -0.6087616 -0.7933534 0 -0.5373002 -0.8433912 0 -0.5372996 -0.8433915 0 -0.4617486 -0.8870109 0 -0.4617484 -0.8870111 0 -0.3826834 -0.9238796 0 -0.3826837 -0.9238795 0 -0.3007052 -0.9537172 0 -0.3007054 -0.9537171 0 -0.21644 -0.976296 0 -0.2164401 -0.976296 0 -0.1305256 -0.991445 0 -0.1305257 -0.991445 0 -0.04362028 -0.9990482 0 -0.04362028 -0.9990482 0 0.04362028 -0.9990482 0 0.04362028 -0.9990482 0 0.1305257 -0.991445 0 0.1305256 -0.991445 0 0.21644 -0.976296 0 0.21644 -0.976296 0 0.3007054 -0.9537172 0 0.3007052 -0.9537172 0 0.3826836 -0.9238795 0 0.3826835 -0.9238795 0 0.4617484 -0.8870111 0 0.4617486 -0.8870109 0 0.5372996 -0.8433915 0 0.5373002 -0.8433911 0 0.6087615 -0.7933534 0 0.6087616 -0.7933534 0 0.6755899 -0.7372777 0 0.6755905 -0.737277 0 0.7372779 -0.6755897 0 0.7372766 -0.6755911 0 0.7933536 -0.6087613 0 0.7933536 -0.6087613 0 0.8433914 -0.5372997 0 0.8433908 -0.5373006 0 0.8870113 -0.4617478 0 0.8870108 -0.4617488 0 0.9238792 -0.3826845 0 0.9238802 -0.3826822 0 0.9537171 -0.3007053 0 0.9537168 -0.3007065 0 0.9762961 -0.216439 0 0.9762957 -0.2164415 0 0.9914452 -0.1305236 0 0.9914449 -0.1305262 0 0.9990483 -0.04361945 0 0.9990482 -0.04362213 0 0.9990482 0.04362213 0 0.9990482 0.04361945 0 0.9914449 0.1305263 0 0.9914452 0.1305236 0 0.9762957 0.2164416 0 0.9762961 0.216439 0 0.9537168 0.3007065 0 0.9537172 0.3007053 0 0.9238802 0.3826822 0 0.9238792 0.3826844 0 0.8870108 0.4617488 0 0.8870113 0.4617478 0 0.8433909 0.5373007 0 0.8433914 0.5372996 0 0.7933536 0.6087613 0 0.7933536 0.6087613 0 0.7372765 0.6755911 0 0.7372779 0.6755896 0 0.6755905 0.737277 0 0.6755899 0.7372777 0 0.6087615 0.7933534 0 0.6087616 0.7933534 0 0.5373002 0.8433912 0 0.5372996 0.8433915 0 0.4617486 0.8870109 0 0.4617484 0.8870111 0 0.3826834 0.9238796 0 0.3826837 0.9238795 0 0.3007052 0.9537172 0 0.3007054 0.9537171 0 0.21644 0.976296 0 0.2164401 0.976296 0 0.1305256 0.991445 0 0.1305257 0.991445 0 0.04362028 0.9990482 0 0.04362028 0.9990482 0 -0.04362028 0.9990482 0 -0.04362028 0.9990482 0 -0.1305257 0.991445 0 -0.1305256 0.991445 0 -0.21644 0.976296 0 -0.21644 0.976296 0 -0.3007054 0.9537172 0 -0.3007052 0.9537172 0 -0.3826836 0.9238795 0 -0.3826835 0.9238795 0 -0.4617484 0.8870111 0 -0.4617486 0.8870109 0 -0.5372996 0.8433915 0 -0.5373002 0.8433911 0 -0.6087615 0.7933534 0 -0.6087616 0.7933534 0 -0.6755899 0.7372777 0 -0.6755905 0.737277 0 -0.7372779 0.6755897 0 -0.7372766 0.6755911 0 -0.7933536 0.6087613 0 -0.7933536 0.6087613 0 -0.8433914 0.5372997 0 -0.8433908 0.5373006 0 -0.8870113 0.4617478 0 -0.8870108 0.4617488 0 -0.9238792 0.3826845 0 -0.9238802 0.3826822 0 -0.9537171 0.3007053 0 -0.9537168 0.3007065 0 -0.9762961 0.216439 0 -0.9762957 0.2164415 0 -0.9914452 0.1305236 0 -0.9914449 0.1305262 0 -0.9990483 0.04361945 0 -0.9990482 0.04362213 0 -0.5690329 -0.07491403 0.8188953 -0.5690327 -0.07491469 0.8188953 -0.560338 -0.124224 0.8188955 -0.5603383 -0.1242228 0.8188954 -0.5473789 -0.1725889 0.8188952 -0.5473788 -0.1725885 0.8188953 -0.5302541 -0.2196376 0.8188955 -0.530254 -0.2196384 0.8188955 -0.5090936 -0.2650173 0.8188953 -0.5090935 -0.265018 0.8188952 -0.4840587 -0.3083787 0.8188956 -0.4840589 -0.3083788 0.8188953 -0.4553388 -0.3493959 0.8188951 -0.45534 -0.3493939 0.8188953 -0.4231548 -0.3877493 0.8188959 -0.4231551 -0.3877507 0.8188951 -0.3877498 -0.4231553 0.8188956 -0.3877506 -0.423155 0.8188952 -0.3493946 -0.4553394 0.8188952 -0.3493941 -0.4553399 0.8188953 -0.3083791 -0.4840577 0.818896 -0.3083794 -0.4840589 0.8188951 -0.2650173 -0.5090927 0.8188959 -0.2650173 -0.5090934 0.8188954 -0.2196385 -0.530255 0.8188949 -0.2196385 -0.5302541 0.8188953 -0.1725876 -0.5473789 0.8188956 -0.1725879 -0.5473787 0.8188956 -0.1242241 -0.5603375 0.8188958 -0.1242239 -0.5603382 0.8188953 -0.07491427 -0.569033 0.8188952 -0.07491433 -0.5690327 0.8188954 -0.0250355 -0.5733962 0.8188956 -0.02503496 -0.573397 0.8188951 0.0250355 -0.5733969 0.8188953 0.02503496 -0.5733966 0.8188955 0.07491427 -0.5690329 0.8188953 0.07491433 -0.5690327 0.8188953 0.1242243 -0.5603382 0.8188953 0.1242238 -0.5603378 0.8188956 0.1725876 -0.5473787 0.8188957 0.1725879 -0.5473788 0.8188955 0.2196386 -0.5302547 0.818895 0.2196382 -0.530254 0.8188954 0.2650175 -0.509093 0.8188956 0.2650174 -0.5090934 0.8188954 0.3083793 -0.4840593 0.818895 0.3083794 -0.4840578 0.8188958 0.3493944 -0.4553397 0.8188952 0.3493942 -0.4553394 0.8188955 0.3877501 -0.4231556 0.8188951 0.3877505 -0.4231548 0.8188955 0.4231551 -0.3877503 0.8188952 0.423155 -0.38775 0.8188954 0.4553397 -0.3493945 0.8188952 0.4553393 -0.349395 0.8188951 0.4840589 -0.3083788 0.8188953 0.4840586 -0.3083785 0.8188956 0.5090938 -0.2650187 0.8188949 0.5090935 -0.2650168 0.8188956 0.5302537 -0.2196388 0.8188956 0.5302544 -0.2196375 0.8188955 0.5473789 -0.1725889 0.8188953 0.5473789 -0.1725885 0.8188953 0.5603382 -0.124224 0.8188953 0.5603382 -0.1242228 0.8188956 0.5690328 -0.07491534 0.8188952 0.5690329 -0.07491356 0.8188953 0.5733965 -0.02503567 0.8188955 0.5733969 -0.0250346 0.8188952 0.5733968 0.02503567 0.8188952 0.5733966 0.0250346 0.8188954 0.5690329 0.07491403 0.8188953 0.5690327 0.07491469 0.8188953 0.560338 0.124224 0.8188955 0.5603383 0.1242228 0.8188954 0.5473789 0.1725889 0.8188952 0.5473788 0.1725885 0.8188953 0.5302541 0.2196376 0.8188955 0.530254 0.2196384 0.8188955 0.5090936 0.2650173 0.8188953 0.5090935 0.265018 0.8188952 0.4840587 0.3083787 0.8188956 0.4840589 0.3083788 0.8188953 0.4553388 0.3493959 0.8188951 0.45534 0.3493939 0.8188953 0.4231548 0.3877493 0.8188959 0.4231551 0.3877507 0.8188951 0.3877498 0.4231553 0.8188956 0.3877506 0.423155 0.8188952 0.3493946 0.4553394 0.8188952 0.3493941 0.4553399 0.8188953 0.3083791 0.4840577 0.818896 0.3083794 0.4840589 0.8188951 0.2650173 0.5090927 0.8188959 0.2650173 0.5090934 0.8188954 0.2196385 0.530255 0.8188949 0.2196385 0.5302541 0.8188953 0.1725876 0.5473789 0.8188956 0.1725879 0.5473787 0.8188956 0.1242241 0.5603375 0.8188958 0.1242239 0.5603382 0.8188953 0.07491427 0.569033 0.8188952 0.07491433 0.5690327 0.8188954 0.0250355 0.5733962 0.8188956 0.02503496 0.573397 0.8188951 -0.0250355 0.5733969 0.8188953 -0.02503496 0.5733966 0.8188955 -0.07491427 0.5690329 0.8188953 -0.07491433 0.5690327 0.8188953 -0.1242243 0.5603382 0.8188953 -0.1242238 0.5603378 0.8188956 -0.1725876 0.5473787 0.8188957 -0.1725879 0.5473788 0.8188955 -0.2196386 0.5302547 0.818895 -0.2196382 0.530254 0.8188954 -0.2650175 0.509093 0.8188956 -0.2650174 0.5090934 0.8188954 -0.3083793 0.4840593 0.818895 -0.3083794 0.4840578 0.8188958 -0.3493944 0.4553397 0.8188952 -0.3493942 0.4553394 0.8188955 -0.3877501 0.4231556 0.8188951 -0.3877505 0.4231548 0.8188955 -0.4231551 0.3877503 0.8188952 -0.423155 0.38775 0.8188954 -0.4553397 0.3493945 0.8188952 -0.4553393 0.349395 0.8188951 -0.4840589 0.3083788 0.8188953 -0.4840586 0.3083785 0.8188956 -0.5090938 0.2650187 0.8188949 -0.5090935 0.2650168 0.8188956 -0.5302537 0.2196388 0.8188956 -0.5302544 0.2196375 0.8188955 -0.5473789 0.1725889 0.8188953 -0.5473789 0.1725885 0.8188953 -0.5603382 0.124224 0.8188953 -0.5603382 0.1242228 0.8188956 -0.5690328 0.07491534 0.8188952 -0.5690329 0.07491356 0.8188953 -0.5733965 0.02503567 0.8188955 -0.5733969 0.0250346 0.8188952 -0.5733968 -0.02503567 0.8188952 -0.5733966 -0.0250346 0.8188954 -0.9990482 -0.04361933 0 -0.9990484 -0.04361855 0 -0.9914456 -0.1305207 0 -0.9914449 -0.130526 0 -0.9762979 -0.2164317 0 -0.9762933 -0.2164515 0 -0.9537211 -0.3006928 0 -0.9537129 -0.3007187 0 -0.9238852 -0.38267 0 -0.9238727 -0.3827001 0 -0.8870131 -0.4617444 0 -0.8870033 -0.4617632 0 -0.8434025 -0.5372822 0 -0.8433777 -0.5373213 0 -0.7933694 -0.6087406 0 -0.7933377 -0.6087819 0 -0.7372817 -0.6755855 0 -0.737263 -0.6756059 0 -0.6756157 -0.737254 0 -0.6755717 -0.7372943 0 -0.6087966 -0.7933264 0 -0.6087443 -0.7933665 0 -0.5373119 -0.8433837 0 -0.5372821 -0.8434026 0 -0.4617527 -0.8870089 0 -0.4617365 -0.8870173 0 -0.3826984 -0.9238733 0 -0.3826812 -0.9238806 0 -0.3007135 -0.9537145 0 -0.3006949 -0.9537204 0 -0.216449 -0.976294 0 -0.2164294 -0.9762983 0 -0.1305324 -0.9914441 0 -0.1305224 -0.9914454 0 -0.04362028 -0.9990482 0 -0.04361772 -0.9990484 0 0.04362028 -0.9990482 0 0.04361772 -0.9990484 0 0.1305325 -0.9914441 0 0.1305223 -0.9914454 0 0.216449 -0.9762941 0 0.2164295 -0.9762983 0 0.3007135 -0.9537145 0 0.3006949 -0.9537204 0 0.3826987 -0.9238733 0 0.382681 -0.9238806 0 0.4617527 -0.8870089 0 0.4617365 -0.8870173 0 0.5373114 -0.8433841 0 0.5372827 -0.8434022 0 0.608796 -0.7933269 0 0.6087449 -0.7933661 0 0.6756164 -0.7372534 0 0.6755711 -0.7372949 0 0.7372817 -0.6755855 0 0.737263 -0.6756059 0 0.7933681 -0.6087422 0 0.7933388 -0.6087803 0 0.8434014 -0.5372841 0 0.8433789 -0.5373195 0 0.8870121 -0.4617465 0 0.8870044 -0.4617612 0 0.9238848 -0.3826711 0 0.9238732 -0.382699 0 0.9537204 -0.3006951 0 0.9537137 -0.3007164 0 0.9762973 -0.2164342 0 0.976294 -0.2164491 0 0.9914456 -0.1305207 0 0.9914449 -0.130526 0 0.9990484 -0.04361677 0 0.9990482 -0.04362112 0 0.9990482 0.04361933 0 0.9990484 0.04361855 0 0.9914456 0.1305207 0 0.9914449 0.130526 0 0.9762979 0.2164317 0 0.9762933 0.2164515 0 0.9537211 0.3006928 0 0.9537129 0.3007187 0 0.9238852 0.38267 0 0.9238727 0.3827001 0 0.8870131 0.4617444 0 0.8870033 0.4617632 0 0.8434025 0.5372822 0 0.8433777 0.5373213 0 0.7933694 0.6087406 0 0.7933377 0.6087819 0 0.7372817 0.6755855 0 0.737263 0.6756059 0 0.6756157 0.737254 0 0.6755717 0.7372943 0 0.6087966 0.7933264 0 0.6087443 0.7933665 0 0.5373119 0.8433837 0 0.5372821 0.8434026 0 0.4617527 0.8870089 0 0.4617365 0.8870173 0 0.3826984 0.9238733 0 0.3826812 0.9238806 0 0.3007135 0.9537145 0 0.3006949 0.9537204 0 0.216449 0.976294 0 0.2164294 0.9762983 0 0.1305324 0.9914441 0 0.1305224 0.9914454 0 0.04362028 0.9990482 0 0.04361772 0.9990484 0 -0.04362028 0.9990482 0 -0.04361772 0.9990484 0 -0.1305325 0.9914441 0 -0.1305223 0.9914454 0 -0.216449 0.9762941 0 -0.2164295 0.9762983 0 -0.3007135 0.9537145 0 -0.3006949 0.9537204 0 -0.3826987 0.9238733 0 -0.382681 0.9238806 0 -0.4617527 0.8870089 0 -0.4617365 0.8870173 0 -0.5373114 0.8433841 0 -0.5372827 0.8434022 0 -0.608796 0.7933269 0 -0.6087449 0.7933661 0 -0.6756164 0.7372534 0 -0.6755711 0.7372949 0 -0.7372817 0.6755855 0 -0.737263 0.6756059 0 -0.7933681 0.6087422 0 -0.7933388 0.6087803 0 -0.8434014 0.5372841 0 -0.8433789 0.5373195 0 -0.8870121 0.4617465 0 -0.8870044 0.4617612 0 -0.9238848 0.3826711 0 -0.9238732 0.382699 0 -0.9537204 0.3006951 0 -0.9537137 0.3007164 0 -0.9762973 0.2164342 0 -0.976294 0.2164491 0 -0.9914456 0.1305207 0 -0.9914449 0.130526 0 -0.9990484 0.04361677 0 -0.9990482 0.04362112 0 0.5690337 -0.07491528 -0.8188946 0.5690312 -0.07491362 -0.8188965 0.5603387 -0.1242239 -0.8188949 0.5603375 -0.1242229 -0.818896 0.5473793 -0.1725888 -0.8188951 0.5473778 -0.1725887 -0.8188961 0.530254 -0.2196376 -0.8188956 0.5302536 -0.2196385 -0.8188956 0.5090938 -0.2650161 -0.8188956 0.5090923 -0.2650182 -0.8188959 0.4840591 -0.3083786 -0.8188953 0.4840588 -0.3083788 -0.8188953 0.4553394 -0.3493946 -0.8188953 0.4553385 -0.3493942 -0.8188959 0.4231564 -0.387749 -0.8188952 0.4231532 -0.3877507 -0.8188962 0.3877505 -0.4231545 -0.8188955 0.3877498 -0.4231551 -0.8188955 0.3493964 -0.4553386 -0.8188949 0.3493931 -0.4553396 -0.8188958 0.3083784 -0.4840578 -0.8188961 0.3083798 -0.484058 -0.8188955 0.2650161 -0.5090929 -0.8188963 0.2650169 -0.5090931 -0.8188958 0.219639 -0.5302544 -0.8188951 0.2196375 -0.5302538 -0.8188958 0.1725888 -0.5473785 -0.8188956 0.1725875 -0.5473783 -0.8188959 0.1242253 -0.5603372 -0.8188959 0.1242251 -0.5603377 -0.8188955 0.07491272 -0.5690327 -0.8188956 0.07491469 -0.5690323 -0.8188956 0.0250343 -0.5733959 -0.8188959 0.0250346 -0.5733966 -0.8188953 -0.02503436 -0.5733965 -0.8188955 -0.0250346 -0.5733962 -0.8188957 -0.07491272 -0.5690327 -0.8188956 -0.07491469 -0.5690323 -0.8188956 -0.1242227 -0.560338 -0.8188956 -0.124225 -0.5603373 -0.8188958 -0.1725862 -0.5473784 -0.8188962 -0.1725897 -0.5473784 -0.8188955 -0.2196391 -0.5302541 -0.8188952 -0.2196372 -0.5302537 -0.8188959 -0.2650163 -0.5090932 -0.818896 -0.2650169 -0.5090931 -0.8188958 -0.3083824 -0.4840578 -0.8188946 -0.3083776 -0.4840581 -0.8188962 -0.3493948 -0.4553396 -0.8188951 -0.3493933 -0.4553387 -0.8188962 -0.3877485 -0.4231553 -0.818896 -0.3877515 -0.4231545 -0.8188949 -0.4231553 -0.3877498 -0.8188955 -0.4231548 -0.3877501 -0.8188955 -0.4553395 -0.3493946 -0.8188953 -0.4553381 -0.3493944 -0.8188962 -0.4840601 -0.3083786 -0.8188946 -0.4840574 -0.3083787 -0.8188962 -0.5090942 -0.2650174 -0.8188949 -0.5090922 -0.265017 -0.8188963 -0.5302521 -0.219639 -0.8188965 -0.530254 -0.2196375 -0.8188956 -0.5473797 -0.1725888 -0.8188948 -0.5473774 -0.1725888 -0.8188963 -0.5603394 -0.1242239 -0.8188946 -0.5603373 -0.1242229 -0.8188961 -0.5690337 -0.07491397 -0.8188948 -0.5690311 -0.07491481 -0.8188965 -0.5733969 -0.0250343 -0.8188952 -0.5733952 -0.02503579 -0.8188963 -0.5733972 0.02503699 -0.8188949 -0.5733952 0.02503347 -0.8188964 -0.5690337 0.07491528 -0.8188946 -0.5690312 0.07491362 -0.8188965 -0.5603387 0.1242239 -0.8188949 -0.5603375 0.1242229 -0.818896 -0.5473793 0.1725888 -0.8188951 -0.5473778 0.1725887 -0.8188961 -0.530254 0.2196376 -0.8188956 -0.5302536 0.2196385 -0.8188956 -0.5090938 0.2650161 -0.8188956 -0.5090923 0.2650182 -0.8188959 -0.4840591 0.3083786 -0.8188953 -0.4840588 0.3083788 -0.8188953 -0.4553394 0.3493946 -0.8188953 -0.4553385 0.3493942 -0.8188959 -0.4231564 0.387749 -0.8188952 -0.4231532 0.3877507 -0.8188962 -0.3877505 0.4231545 -0.8188955 -0.3877498 0.4231551 -0.8188955 -0.3493964 0.4553386 -0.8188949 -0.3493931 0.4553396 -0.8188958 -0.3083784 0.4840578 -0.8188961 -0.3083798 0.484058 -0.8188955 -0.2650161 0.5090929 -0.8188963 -0.2650169 0.5090931 -0.8188958 -0.219639 0.5302544 -0.8188951 -0.2196375 0.5302538 -0.8188958 -0.1725888 0.5473785 -0.8188956 -0.1725875 0.5473783 -0.8188959 -0.1242253 0.5603372 -0.8188959 -0.1242251 0.5603377 -0.8188955 -0.07491272 0.5690327 -0.8188956 -0.07491469 0.5690323 -0.8188956 -0.0250343 0.5733959 -0.8188959 -0.0250346 0.5733966 -0.8188953 0.02503436 0.5733965 -0.8188955 0.0250346 0.5733962 -0.8188957 0.07491272 0.5690327 -0.8188956 0.07491469 0.5690323 -0.8188956 0.1242227 0.560338 -0.8188956 0.124225 0.5603373 -0.8188958 0.1725862 0.5473784 -0.8188962 0.1725897 0.5473784 -0.8188955 0.2196391 0.5302541 -0.8188952 0.2196372 0.5302537 -0.8188959 0.2650163 0.5090932 -0.818896 0.2650169 0.5090931 -0.8188958 0.3083824 0.4840578 -0.8188946 0.3083776 0.4840581 -0.8188962 0.3493948 0.4553396 -0.8188951 0.3493933 0.4553387 -0.8188962 0.3877485 0.4231553 -0.818896 0.3877515 0.4231545 -0.8188949 0.4231553 0.3877498 -0.8188955 0.4231548 0.3877501 -0.8188955 0.4553395 0.3493946 -0.8188953 0.4553381 0.3493944 -0.8188962 0.4840601 0.3083786 -0.8188946 0.4840574 0.3083787 -0.8188962 0.5090942 0.2650174 -0.8188949 0.5090922 0.265017 -0.8188963 0.5302521 0.219639 -0.8188965 0.530254 0.2196375 -0.8188956 0.5473797 0.1725888 -0.8188948 0.5473774 0.1725888 -0.8188963 0.5603394 0.1242239 -0.8188946 0.5603373 0.1242229 -0.8188961 0.5690337 0.07491397 -0.8188948 0.5690311 0.07491481 -0.8188965 0.5733969 0.0250343 -0.8188952 0.5733952 0.02503579 -0.8188963 0.5733972 -0.02503699 -0.8188949 0.5733952 -0.02503347 -0.8188964 1 1.0444e-6 0 1 2.9539e-6 0 1 0 0 1 8.05819e-7 0 1 -1.2838e-6 0 1 -7.81871e-7 0 1 -2.70461e-6 0 1 -2.63926e-6 0 1 -2.55109e-6 0 1 2.90205e-6 0 1 -9.17373e-7 0 0.4999997 -0.8660256 0 0.5000002 -0.8660253 0 0.5000001 -0.8660253 0 0.5000001 -0.8660254 0 0.4999995 -0.8660257 0 0.4999992 -0.866026 0 0.4999995 -0.8660258 0 0.5000007 -0.866025 1.68457e-7 0.4999994 -0.8660258 -1.59443e-7 0.5000008 -0.866025 1.81379e-7 0.5000002 -0.8660254 0 0.5000002 -0.8660253 0 0.4999998 -0.8660255 0 0.5 -0.8660255 0 0.5000004 -0.8660252 0 0.5000004 -0.8660253 0 0.4999999 -0.8660255 0 0.4999998 -0.8660256 0 0.4999997 -0.8660257 0 0.4999999 -0.8660255 0 0.4999998 -0.8660255 0 0.5000004 -0.8660253 0 -0.5000002 -0.8660253 0 -0.5000001 -0.8660253 0 -0.5000002 -0.8660253 0 -0.4999997 -0.8660256 0 -0.4999997 -0.8660256 0 -0.4999998 -0.8660256 0 -0.4999999 -0.8660255 0 -0.4999998 -0.8660255 0 -0.5000004 -0.8660252 0 -0.5000006 -0.8660252 0 -0.5000001 -0.8660254 0 -0.5 -0.8660255 0 -0.4999995 -0.8660258 0 -0.4999999 -0.8660255 0 -0.4999996 -0.8660257 0 -0.5000002 -0.8660254 0 -0.4999991 -0.8660261 0 -0.5000008 -0.8660251 -1.68457e-7 -0.4999988 -0.8660262 1.59443e-7 -0.5000007 -0.866025 -1.81379e-7 -0.5000003 -0.8660253 0 -0.5000004 -0.8660252 0 -1 -1.58594e-6 0 -1 5.9078e-7 0 -1 0 0 -1 1.28646e-6 0 -1 8.05819e-7 0 -1 -2.4689e-6 0 -1 1.2838e-6 0 -1 -7.81871e-7 0 -1 2.56013e-6 0 -1 -2.63927e-6 0 -1 2.90205e-6 0 -1 -1.40271e-6 0 0 0 1 0 0 1 0 0 1 0 0 1 0 0 1 0 0 1 0 0 1 0 0 1 0 0 1 0 0 1 0 0 1 0 0 1 0 0 1 0 0 1 0 0 1 0 0 1 0 0 1 0 0 1 0 0 1 0 0 1 0 0 1 0 0 1 0 0 1 0 0 1 0 0 1 0 0 1 0 0 1 0 0 1 0 0 1 0 0 1 0 0 1 0 0 1 0 0 1 0 0 1 0 0 1 0 0 1 0 0 1 0 0 1 0 0 1 0 0 1 0 0 1 0 0 1 0 0 1 0 0 1 0 0 1 0 0 1 0 0 1 0 0 1 0 0 1 0 0 1 0 0 1 0 0 1 0 0 1 0 0 1 0 0 1 0 0 1 0 0 1 0 0 1 0 0 1 0 0 1 0 0 1 0 0 1 0 0 1 0 0 1 0 0 1 0 0 1 0 0 1 0 0 1 0 0 1 0 0 1 0 0 1 0 0 1 0 0 1 0 0 1 0 0 1 0 0 1 0 0 1 0 0 1 0 0 1 0 0 1 0 0 1 0 0 1 0 0 1 0 0 1 0 0 1 0 0 1 0 0 1 0 0 1 0 0 1 0 0 1 0 0 1 0 0 1 0 0 1 0 0 1 0 0 1 0 0 1 0 0 1 0 0 1 0 0 1 0 0 1 0 0 1 0 0 1 0 0 1 0 0 1 0 0 1 0 0 1 0 0 1 0 0 1 0 0 1 0 0 1 0 0 1 0 0 1 0 0 1 0 0 1 0 0 1 0 0 1 0 0 1 0 0 1 0 0 1 0 0 1 0 0 1 0 0 1 0 0 1 0 0 1 0 0 1 0 0 1 0 0 1 0 0 1 0 0 1 0 0 1 0 0 1 0 0 1 0 0 1 0 0 1 0 0 1 0 0 1 0 0 1 0 0 1 0 0 1 0 0 1 0 0 1 0 0 1 0 0 1 0 0 1 0 0 1 0 0 1 0 0 1 0 0 1 0 0 1 0 0 1 0 0 -1 1.38786e-6 0 -1 -4.65971e-7 0 -1 -2.32908e-7 0 -1 -6.94541e-7 0 -1 2.3285e-7 0 -1 6.94846e-7 0 -1 0 0 -1 2.51859e-7 0 -1 -2.32346e-7 0 -1 -3.49432e-7 0 -1 9.37506e-7 0 -1 -4.68692e-7 0 -1 -2.3424e-7 0 -1 6.94822e-7 0 -1 -2.34164e-7 0 -1 -2.51859e-7 0 -1 2.32346e-7 0 -1 3.49432e-7 0 -1 -6.99681e-7 0 -1 1.86404e-6 0 -1 -1.38798e-6 0 -1 2.78718e-6 0 -1 -2.79245e-6 0 -1 2.77645e-6 0 -1 -2.77816e-6 0 -1 -2.0278e-6 0 -1 1.86967e-6 0 -1 -2.79318e-6 0 -1 2.79653e-6 0 -1 -4.68784e-7 0 -1 -2.77645e-6 0 -1 2.77816e-6 0 -1 -1.85768e-6 0 -1 2.79245e-6 0 -1 -2.79546e-6 0 -1 9.32018e-7 0 -1 -1.86404e-6 0 -1 1.38798e-6 0 -1 -2.78718e-6 0 -1 2.79245e-6 0 -1 0.4999193 0.02026647 -0.8658348 0.4966089 0.06066513 -0.8658519 0.4966114 0.06066626 -0.8658503 0.4900754 0.1006658 -0.8658478 0.4900714 0.1006658 -0.8658502 0.480316 0.1400068 -0.8658491 0.4803209 0.1400072 -0.8658464 0.4674104 0.1784288 -0.8658468 0.4674074 0.1784293 -0.8658484 0.451431 0.2156783 -0.8658481 0.4528412 0.2235757 -0.8631042 0.2661752 0.4236001 -0.8658601 0.2983378 0.401632 -0.8658444 0.298323 0.4016344 -0.8658484 0.3298698 0.3761649 -0.8658441 0.3298593 0.3761634 -0.8658487 0.3592321 0.3482286 -0.865846 0.359227 0.348228 -0.8658483 0.3862393 0.3180062 -0.8658472 0.3862384 0.3180072 -0.8658472 0.4172028 0.2768972 -0.8656036 0.4170489 0.2901048 -0.8613417 0.430522 0.2503697 -0.8671597 0.2336476 0.4423404 -0.8658776 0.1983147 0.4593155 -0.8658525 0.1983324 0.4593232 -0.8658444 0.1602629 0.4739496 -0.8658451 0.1602665 0.4739462 -0.8658463 0.1211413 0.4854224 -0.8658465 0.1211403 0.4854235 -0.8658459 0.08121067 0.4936775 -0.8658449 0.08120876 0.4936771 -0.8658453 0.04074209 0.4986495 -0.8658457 0.03411823 0.5044111 -0.8627893 -0.2336476 0.4423404 -0.8658776 -0.1983361 0.4593297 -0.86584 -0.1983276 0.4593199 -0.8658474 -0.1602609 0.4739451 -0.8658479 -0.1602674 0.4739479 -0.8658451 -0.1211404 0.4854209 -0.8658473 -0.1211404 0.4854245 -0.8658453 -0.08121055 0.4936771 -0.8658452 -0.08120959 0.4936774 -0.8658451 -0.03059387 0.4997661 -0.86562 -0.04131519 0.5056864 -0.8617275 0 0.4979933 -0.867181 -0.4999386 0.01881575 -0.8658565 -0.4970192 0.05790579 -0.8658054 -0.496937 0.05790358 -0.8658527 -0.4905804 0.09817755 -0.8658476 -0.4905845 0.09818035 -0.865845 -0.4809607 0.1378031 -0.8658449 -0.4809595 0.1377999 -0.8658459 -0.468141 0.176508 -0.8658459 -0.4681411 0.1765086 -0.8658457 -0.4481066 0.2233874 -0.8656203 -0.266256 0.4235256 -0.8658718 -0.2986114 0.4014213 -0.8658478 -0.2986208 0.4014156 -0.8658471 -0.3303058 0.37577 -0.8658492 -0.3303225 0.375766 -0.8658446 -0.3598202 0.347621 -0.8658458 -0.3598181 0.3476223 -0.8658462 -0.3869308 0.317168 -0.8658459 -0.3869317 0.3171678 -0.8658456 -0.411473 0.284608 -0.8658454 -0.4197735 0.2817533 -0.8627893 -0.4312754 0.2489967 -0.8671807 -0.4585952 0.2170625 -0.8617277 -0.4999386 -0.01881575 -0.8658565 -0.4969328 -0.05790472 -0.865855 -0.496957 -0.05790364 -0.8658412 -0.4905785 -0.09817928 -0.8658486 -0.4905852 -0.09818023 -0.8658447 -0.4809606 -0.1377993 -0.8658455 -0.4809597 -0.1378021 -0.8658455 -0.4681402 -0.1765074 -0.8658463 -0.4681415 -0.1765089 -0.8658454 -0.4522141 -0.2140426 -0.8658455 -0.4538929 -0.2226564 -0.8627894 -0.266256 -0.4235256 -0.8658718 -0.2986277 -0.4014167 -0.8658443 -0.298617 -0.401417 -0.8658478 -0.3303156 -0.3757672 -0.8658468 -0.3303184 -0.3757676 -0.8658456 -0.3598176 -0.3476197 -0.8658475 -0.3598179 -0.3476226 -0.8658462 -0.3869315 -0.3171688 -0.8658453 -0.386932 -0.3171676 -0.8658456 -0.4175131 -0.2763776 -0.8656201 -0.4172788 -0.2886235 -0.8617279 -0.4312756 -0.2489967 -0.8671806</float_array>
          <technique_common>
            <accessor source="#hex_nut_style_1_am_b18_2_4_1m___hex_nut__style_1___m10_x_1_5__w-mesh-normals-array" count="1157" stride="3">
              <param name="X" type="float"/>
              <param name="Y" type="float"/>
              <param name="Z" type="float"/>
            </accessor>
          </technique_common>
        </source>
        <vertices id="hex_nut_style_1_am_b18_2_4_1m___hex_nut__style_1___m10_x_1_5__w-mesh-vertices">
          <input semantic="POSITION" source="#hex_nut_style_1_am_b18_2_4_1m___hex_nut__style_1___m10_x_1_5__w-mesh-positions"/>
        </vertices>
        <triangles count="1296">
          <input semantic="VERTEX" source="#hex_nut_style_1_am_b18_2_4_1m___hex_nut__style_1___m10_x_1_5__w-mesh-vertices" offset="0"/>
          <input semantic="NORMAL" source="#hex_nut_style_1_am_b18_2_4_1m___hex_nut__style_1___m10_x_1_5__w-mesh-normals" offset="1"/>
          <p>0 0 1 0 2 0 1 1 3 1 2 1 2 2 3 2 4 2 3 3 5 3 4 3 4 4 5 4 6 4 5 5 7 5 6 5 6 6 7 6 8 6 7 7 9 7 8 7 8 8 9 8 10 8 9 9 11 9 10 9 10 10 11 10 12 10 13 11 14 11 15 11 14 12 16 12 15 12 15 13 16 13 17 13 16 14 18 14 17 14 17 15 18 15 19 15 18 16 20 16 19 16 19 17 20 17 21 17 20 18 22 18 21 18 21 19 22 19 23 19 22 20 12 20 23 20 23 21 12 21 24 21 12 22 11 22 24 22 25 23 26 23 27 23 26 24 28 24 27 24 27 25 28 25 29 25 28 26 30 26 29 26 29 27 30 27 31 27 30 28 32 28 31 28 31 29 32 29 33 29 32 30 34 30 33 30 33 31 34 31 35 31 34 32 36 32 35 32 35 33 36 33 37 33 0 34 38 34 39 34 38 35 40 35 39 35 39 36 40 36 41 36 40 37 42 37 41 37 41 38 42 38 43 38 42 39 44 39 43 39 43 40 44 40 45 40 44 41 46 41 45 41 45 42 46 42 47 42 46 43 37 43 47 43 47 44 37 44 48 44 37 45 36 45 48 45 25 46 49 46 50 46 49 47 51 47 50 47 50 48 51 48 52 48 51 49 53 49 52 49 52 50 53 50 54 50 53 51 55 51 54 51 54 52 55 52 56 52 55 53 57 53 56 53 56 54 57 54 58 54 57 55 59 55 58 55 60 56 61 56 62 56 61 57 63 57 62 57 62 58 63 58 64 58 63 59 65 59 64 59 64 60 65 60 66 60 65 61 67 61 66 61 66 62 67 62 68 62 67 63 69 63 68 63 68 64 69 64 70 64 69 65 71 65 70 65 70 66 71 66 59 66 71 67 72 67 59 67 59 68 72 68 58 68 73 69 74 69 75 69 74 70 76 70 75 70 75 71 76 71 77 71 76 72 78 72 77 72 77 73 78 73 79 73 78 74 80 74 79 74 79 75 80 75 81 75 80 76 82 76 81 76 81 77 82 77 83 77 82 78 84 78 83 78 83 79 84 79 85 79 60 80 86 80 87 80 86 81 88 81 87 81 87 82 88 82 89 82 88 83 90 83 89 83 89 84 90 84 91 84 90 85 92 85 91 85 91 86 92 86 93 86 92 87 94 87 93 87 93 88 94 88 95 88 94 89 85 89 95 89 95 90 85 90 96 90 85 91 84 91 96 91 97 92 98 92 99 92 98 93 100 93 99 93 99 94 100 94 101 94 100 95 102 95 101 95 101 96 102 96 103 96 102 97 104 97 103 97 103 98 104 98 105 98 104 99 106 99 105 99 105 100 106 100 107 100 106 101 108 101 107 101 107 102 108 102 109 102 73 103 110 103 111 103 110 104 112 104 111 104 111 105 112 105 113 105 112 106 114 106 113 106 113 107 114 107 115 107 114 108 116 108 115 108 115 109 116 109 117 109 116 110 118 110 117 110 117 111 118 111 119 111 118 112 109 112 119 112 119 113 109 113 120 113 109 114 108 114 120 114 97 115 121 115 122 115 121 116 123 116 122 116 122 117 123 117 124 117 123 118 125 118 124 118 124 119 125 119 126 119 125 120 127 120 126 120 126 121 127 121 128 121 127 122 129 122 128 122 128 123 129 123 130 123 129 124 131 124 130 124 13 125 132 125 133 125 132 126 134 126 133 126 133 127 134 127 135 127 134 128 136 128 135 128 135 129 136 129 137 129 136 130 138 130 137 130 137 131 138 131 139 131 138 132 140 132 139 132 139 133 140 133 141 133 140 134 142 134 141 134 141 135 142 135 131 135 142 136 143 136 131 136 131 137 143 137 130 137 144 138 145 138 146 138 145 139 147 139 146 139 146 140 147 140 148 140 147 141 149 141 148 141 148 142 149 142 150 142 149 143 151 143 150 143 150 144 151 144 152 144 151 145 153 145 152 145 152 146 153 146 154 146 153 147 155 147 154 147 156 148 157 148 158 148 157 149 159 149 158 149 158 150 159 150 160 150 159 151 161 151 160 151 160 152 161 152 162 152 161 153 163 153 162 153 162 154 163 154 164 154 163 155 165 155 164 155 164 156 165 156 166 156 165 157 167 157 166 157 166 158 167 158 155 158 167 159 168 159 155 159 155 160 168 160 154 160 169 161 170 161 171 161 170 162 172 162 171 162 171 163 172 163 173 163 172 164 174 164 173 164 173 165 174 165 175 165 174 166 176 166 175 166 175 167 176 167 177 167 176 168 178 168 177 168 177 169 178 169 179 169 178 170 180 170 179 170 179 171 180 171 181 171 156 172 182 172 183 172 182 173 184 173 183 173 183 174 184 174 185 174 184 175 186 175 185 175 185 176 186 176 187 176 186 177 188 177 187 177 187 178 188 178 189 178 188 179 190 179 189 179 189 180 190 180 191 180 190 181 181 181 191 181 191 182 181 182 192 182 181 183 180 183 192 183 193 184 8 184 10 184 193 185 10 185 194 185 10 186 12 186 194 186 194 187 12 187 195 187 44 188 196 188 197 188 2 189 4 189 193 189 4 190 6 190 193 190 193 191 6 191 8 191 196 192 44 192 198 192 197 193 199 193 44 193 199 194 200 194 44 194 44 195 200 195 46 195 200 196 201 196 46 196 46 197 201 197 37 197 193 198 202 198 2 198 202 199 203 199 2 199 2 200 203 200 0 200 203 201 204 201 0 201 0 202 204 202 205 202 44 203 42 203 198 203 42 204 40 204 198 204 198 205 40 205 205 205 40 206 38 206 205 206 205 207 38 207 0 207 55 208 206 208 207 208 55 209 207 209 57 209 207 210 208 210 57 210 57 211 208 211 59 211 209 212 210 212 55 212 210 213 211 213 55 213 55 214 211 214 206 214 212 215 33 215 35 215 212 216 35 216 213 216 35 217 37 217 213 217 213 218 37 218 201 218 212 219 214 219 33 219 214 220 215 220 33 220 33 221 215 221 31 221 215 222 216 222 31 222 31 223 216 223 29 223 216 224 217 224 29 224 29 225 217 225 27 225 217 226 25 226 27 226 55 227 53 227 209 227 53 228 51 228 209 228 209 229 51 229 217 229 51 230 49 230 217 230 217 230 49 230 25 230 218 231 219 231 220 231 219 232 221 232 220 232 220 233 221 233 222 233 221 234 223 234 222 234 222 235 223 235 224 235 223 236 225 236 224 236 224 237 225 237 226 237 225 238 227 238 226 238 226 239 227 239 228 239 227 240 229 240 228 240 228 241 229 241 230 241 229 242 231 242 230 242 230 243 231 243 232 243 231 244 233 244 232 244 232 245 233 245 234 245 233 246 235 246 234 246 234 247 235 247 236 247 235 248 237 248 236 248 236 249 237 249 238 249 237 250 239 250 238 250 238 251 239 251 240 251 239 252 241 252 240 252 240 253 241 253 242 253 241 254 243 254 242 254 242 255 243 255 244 255 243 256 245 256 244 256 244 257 245 257 246 257 245 258 247 258 246 258 246 259 247 259 248 259 247 260 249 260 248 260 248 261 249 261 250 261 249 262 251 262 250 262 250 263 251 263 252 263 251 264 253 264 252 264 252 265 253 265 254 265 253 266 255 266 254 266 254 267 255 267 256 267 255 268 257 268 256 268 256 269 257 269 258 269 257 270 259 270 258 270 258 271 259 271 260 271 259 272 261 272 260 272 260 273 261 273 262 273 261 274 263 274 262 274 262 275 263 275 264 275 263 276 265 276 264 276 264 277 265 277 266 277 265 278 267 278 266 278 266 279 267 279 268 279 267 280 269 280 268 280 268 281 269 281 270 281 269 282 271 282 270 282 270 283 271 283 272 283 271 284 273 284 272 284 272 285 273 285 274 285 273 286 275 286 274 286 274 287 275 287 276 287 275 288 277 288 276 288 276 289 277 289 278 289 277 290 279 290 278 290 278 291 279 291 280 291 279 292 281 292 280 292 280 293 281 293 282 293 281 294 283 294 282 294 282 295 283 295 284 295 283 296 285 296 284 296 284 297 285 297 286 297 285 298 287 298 286 298 286 299 287 299 288 299 287 300 289 300 288 300 288 301 289 301 290 301 289 302 291 302 290 302 290 303 291 303 292 303 291 304 293 304 292 304 292 305 293 305 294 305 293 306 295 306 294 306 294 307 295 307 296 307 295 308 297 308 296 308 296 309 297 309 298 309 297 310 299 310 298 310 298 311 299 311 300 311 299 312 301 312 300 312 300 313 301 313 302 313 301 314 303 314 302 314 302 315 303 315 304 315 303 316 305 316 304 316 304 317 305 317 306 317 305 318 307 318 306 318 306 319 307 319 308 319 307 320 309 320 308 320 308 321 309 321 310 321 309 322 311 322 310 322 310 323 311 323 312 323 311 324 313 324 312 324 312 325 313 325 314 325 313 326 315 326 314 326 314 327 315 327 316 327 315 328 317 328 316 328 316 329 317 329 318 329 317 330 319 330 318 330 318 331 319 331 320 331 319 332 321 332 320 332 320 333 321 333 322 333 321 334 323 334 322 334 322 335 323 335 324 335 323 336 325 336 324 336 324 337 325 337 326 337 325 338 327 338 326 338 326 339 327 339 328 339 327 340 329 340 328 340 328 341 329 341 330 341 329 342 331 342 330 342 330 343 331 343 332 343 331 344 333 344 332 344 332 345 333 345 334 345 333 346 335 346 334 346 334 347 335 347 336 347 335 348 337 348 336 348 336 349 337 349 338 349 337 350 339 350 338 350 338 351 339 351 340 351 339 352 341 352 340 352 340 353 341 353 342 353 341 354 343 354 342 354 342 355 343 355 344 355 343 356 345 356 344 356 344 357 345 357 346 357 345 358 347 358 346 358 346 359 347 359 348 359 347 360 349 360 348 360 348 361 349 361 350 361 349 362 351 362 350 362 350 363 351 363 352 363 351 364 353 364 352 364 352 365 353 365 354 365 353 366 355 366 354 366 354 367 355 367 356 367 355 368 357 368 356 368 356 369 357 369 358 369 357 370 359 370 358 370 358 371 359 371 360 371 359 372 361 372 360 372 360 373 361 373 218 373 361 374 219 374 218 374 221 375 362 375 223 375 362 376 363 376 223 376 223 377 363 377 225 377 363 378 364 378 225 378 225 379 364 379 227 379 364 380 365 380 227 380 227 381 365 381 229 381 365 382 366 382 229 382 229 383 366 383 231 383 366 384 367 384 231 384 231 385 367 385 233 385 367 386 368 386 233 386 233 387 368 387 235 387 368 388 369 388 235 388 235 389 369 389 237 389 369 390 370 390 237 390 237 391 370 391 239 391 370 392 371 392 239 392 239 393 371 393 241 393 371 394 372 394 241 394 241 395 372 395 243 395 372 396 373 396 243 396 243 397 373 397 245 397 373 398 374 398 245 398 245 399 374 399 247 399 374 400 375 400 247 400 247 401 375 401 249 401 375 402 376 402 249 402 249 403 376 403 251 403 376 404 377 404 251 404 251 405 377 405 253 405 377 406 378 406 253 406 253 407 378 407 255 407 378 408 379 408 255 408 255 409 379 409 257 409 379 410 380 410 257 410 257 411 380 411 259 411 380 412 381 412 259 412 259 413 381 413 261 413 381 414 382 414 261 414 261 415 382 415 263 415 382 416 383 416 263 416 263 417 383 417 265 417 383 418 384 418 265 418 265 419 384 419 267 419 384 420 385 420 267 420 267 421 385 421 269 421 385 422 386 422 269 422 269 423 386 423 271 423 386 424 387 424 271 424 271 425 387 425 273 425 387 426 388 426 273 426 273 427 388 427 275 427 388 428 389 428 275 428 275 429 389 429 277 429 389 430 390 430 277 430 277 431 390 431 279 431 390 432 391 432 279 432 279 433 391 433 281 433 391 434 392 434 281 434 281 435 392 435 283 435 392 436 393 436 283 436 283 437 393 437 285 437 393 438 394 438 285 438 285 439 394 439 287 439 394 440 395 440 287 440 287 441 395 441 289 441 395 442 396 442 289 442 289 443 396 443 291 443 396 444 397 444 291 444 291 445 397 445 293 445 397 446 398 446 293 446 293 447 398 447 295 447 398 448 399 448 295 448 295 449 399 449 297 449 399 450 400 450 297 450 297 451 400 451 299 451 400 452 401 452 299 452 299 453 401 453 301 453 401 454 402 454 301 454 301 455 402 455 303 455 402 456 403 456 303 456 303 457 403 457 305 457 403 458 404 458 305 458 305 459 404 459 307 459 404 460 405 460 307 460 307 461 405 461 309 461 405 462 406 462 309 462 309 463 406 463 311 463 406 464 407 464 311 464 311 465 407 465 313 465 407 466 408 466 313 466 313 467 408 467 315 467 408 468 409 468 315 468 315 469 409 469 317 469 409 470 410 470 317 470 317 471 410 471 319 471 410 472 411 472 319 472 319 473 411 473 321 473 411 474 412 474 321 474 321 475 412 475 323 475 412 476 413 476 323 476 323 477 413 477 325 477 413 478 414 478 325 478 325 479 414 479 327 479 414 480 415 480 327 480 327 481 415 481 329 481 415 482 416 482 329 482 329 483 416 483 331 483 416 484 417 484 331 484 331 485 417 485 333 485 417 486 418 486 333 486 333 487 418 487 335 487 418 488 419 488 335 488 335 489 419 489 337 489 419 490 420 490 337 490 337 491 420 491 339 491 420 492 421 492 339 492 339 493 421 493 341 493 421 494 422 494 341 494 341 495 422 495 343 495 422 496 423 496 343 496 343 497 423 497 345 497 423 498 424 498 345 498 345 499 424 499 347 499 424 500 425 500 347 500 347 501 425 501 349 501 425 502 426 502 349 502 349 503 426 503 351 503 426 504 427 504 351 504 351 505 427 505 353 505 427 506 428 506 353 506 353 507 428 507 355 507 428 508 429 508 355 508 355 509 429 509 357 509 429 510 430 510 357 510 357 511 430 511 359 511 430 512 431 512 359 512 359 513 431 513 361 513 431 514 432 514 361 514 361 515 432 515 219 515 432 516 433 516 219 516 219 517 433 517 221 517 433 518 362 518 221 518 434 519 435 519 436 519 435 520 437 520 436 520 436 521 437 521 438 521 437 522 439 522 438 522 438 523 439 523 440 523 439 524 441 524 440 524 440 525 441 525 442 525 441 526 443 526 442 526 442 527 443 527 444 527 443 528 445 528 444 528 444 529 445 529 446 529 445 530 447 530 446 530 446 531 447 531 448 531 447 532 449 532 448 532 448 533 449 533 450 533 449 534 451 534 450 534 450 535 451 535 452 535 451 536 453 536 452 536 452 537 453 537 454 537 453 538 455 538 454 538 454 539 455 539 456 539 455 540 457 540 456 540 456 541 457 541 458 541 457 542 459 542 458 542 458 543 459 543 460 543 459 544 461 544 460 544 460 545 461 545 462 545 461 546 463 546 462 546 462 547 463 547 464 547 463 548 465 548 464 548 464 549 465 549 466 549 465 550 467 550 466 550 466 551 467 551 468 551 467 552 469 552 468 552 468 553 469 553 470 553 469 554 471 554 470 554 470 555 471 555 472 555 471 556 473 556 472 556 472 557 473 557 474 557 473 558 475 558 474 558 474 559 475 559 476 559 475 560 477 560 476 560 476 561 477 561 478 561 477 562 479 562 478 562 478 563 479 563 480 563 479 564 481 564 480 564 480 565 481 565 482 565 481 566 483 566 482 566 482 567 483 567 484 567 483 568 485 568 484 568 484 569 485 569 486 569 485 570 487 570 486 570 486 571 487 571 488 571 487 572 489 572 488 572 488 573 489 573 490 573 489 574 491 574 490 574 490 575 491 575 492 575 491 576 493 576 492 576 492 577 493 577 494 577 493 578 495 578 494 578 494 579 495 579 496 579 495 580 497 580 496 580 496 581 497 581 498 581 497 582 499 582 498 582 498 583 499 583 500 583 499 584 501 584 500 584 500 585 501 585 502 585 501 586 503 586 502 586 502 587 503 587 504 587 503 588 505 588 504 588 504 589 505 589 506 589 505 590 507 590 506 590 506 591 507 591 508 591 507 592 509 592 508 592 508 593 509 593 510 593 509 594 511 594 510 594 510 595 511 595 512 595 511 596 513 596 512 596 512 597 513 597 514 597 513 598 515 598 514 598 514 599 515 599 516 599 515 600 517 600 516 600 516 601 517 601 518 601 517 602 519 602 518 602 518 603 519 603 520 603 519 604 521 604 520 604 520 605 521 605 522 605 521 606 523 606 522 606 522 607 523 607 524 607 523 608 525 608 524 608 524 609 525 609 526 609 525 610 527 610 526 610 526 611 527 611 528 611 527 612 529 612 528 612 528 613 529 613 530 613 529 614 531 614 530 614 530 615 531 615 532 615 531 616 533 616 532 616 532 617 533 617 534 617 533 618 535 618 534 618 534 619 535 619 536 619 535 620 537 620 536 620 536 621 537 621 538 621 537 622 539 622 538 622 538 623 539 623 540 623 539 624 541 624 540 624 540 625 541 625 542 625 541 626 543 626 542 626 542 627 543 627 544 627 543 628 545 628 544 628 544 629 545 629 546 629 545 630 547 630 546 630 546 631 547 631 548 631 547 632 549 632 548 632 548 633 549 633 550 633 549 634 551 634 550 634 550 635 551 635 552 635 551 636 553 636 552 636 552 637 553 637 554 637 553 638 555 638 554 638 554 639 555 639 556 639 555 640 557 640 556 640 556 641 557 641 558 641 557 642 559 642 558 642 558 643 559 643 560 643 559 644 561 644 560 644 560 645 561 645 562 645 561 646 563 646 562 646 562 647 563 647 564 647 563 648 565 648 564 648 564 649 565 649 566 649 565 650 567 650 566 650 566 651 567 651 568 651 567 652 569 652 568 652 568 653 569 653 570 653 569 654 571 654 570 654 570 655 571 655 572 655 571 656 573 656 572 656 572 657 573 657 574 657 573 658 575 658 574 658 574 659 575 659 576 659 575 660 577 660 576 660 576 661 577 661 434 661 577 662 435 662 434 662 288 663 505 663 286 663 505 664 503 664 286 664 286 665 503 665 284 665 503 666 501 666 284 666 284 667 501 667 282 667 501 668 499 668 282 668 282 669 499 669 280 669 499 670 497 670 280 670 280 671 497 671 278 671 497 672 495 672 278 672 278 673 495 673 276 673 495 674 493 674 276 674 276 675 493 675 274 675 493 676 491 676 274 676 274 677 491 677 272 677 491 678 489 678 272 678 272 679 489 679 270 679 489 680 487 680 270 680 270 681 487 681 268 681 487 682 485 682 268 682 268 683 485 683 266 683 485 684 483 684 266 684 266 685 483 685 264 685 483 686 481 686 264 686 264 687 481 687 262 687 481 688 479 688 262 688 262 689 479 689 260 689 479 690 477 690 260 690 260 691 477 691 258 691 477 692 475 692 258 692 258 693 475 693 256 693 475 694 473 694 256 694 256 695 473 695 254 695 473 696 471 696 254 696 254 697 471 697 252 697 471 698 469 698 252 698 252 699 469 699 250 699 469 700 467 700 250 700 250 701 467 701 248 701 467 702 465 702 248 702 248 703 465 703 246 703 465 704 463 704 246 704 246 705 463 705 244 705 463 706 461 706 244 706 244 707 461 707 242 707 461 708 459 708 242 708 242 709 459 709 240 709 459 710 457 710 240 710 240 711 457 711 238 711 457 712 455 712 238 712 238 713 455 713 236 713 455 714 453 714 236 714 236 715 453 715 234 715 453 716 451 716 234 716 234 717 451 717 232 717 451 718 449 718 232 718 232 719 449 719 230 719 449 720 447 720 230 720 230 721 447 721 228 721 447 722 445 722 228 722 228 723 445 723 226 723 445 724 443 724 226 724 226 725 443 725 224 725 443 726 441 726 224 726 224 727 441 727 222 727 441 728 439 728 222 728 222 729 439 729 220 729 439 730 437 730 220 730 220 731 437 731 218 731 437 732 435 732 218 732 218 733 435 733 360 733 435 734 577 734 360 734 360 735 577 735 358 735 577 736 575 736 358 736 358 737 575 737 356 737 575 738 573 738 356 738 356 739 573 739 354 739 573 740 571 740 354 740 354 741 571 741 352 741 571 742 569 742 352 742 352 743 569 743 350 743 569 744 567 744 350 744 350 745 567 745 348 745 567 746 565 746 348 746 348 747 565 747 346 747 565 748 563 748 346 748 346 749 563 749 344 749 563 750 561 750 344 750 344 751 561 751 342 751 561 752 559 752 342 752 342 753 559 753 340 753 559 754 557 754 340 754 340 755 557 755 338 755 557 756 555 756 338 756 338 757 555 757 336 757 555 758 553 758 336 758 336 759 553 759 334 759 553 760 551 760 334 760 334 761 551 761 332 761 551 762 549 762 332 762 332 763 549 763 330 763 549 764 547 764 330 764 330 765 547 765 328 765 547 766 545 766 328 766 328 767 545 767 326 767 545 768 543 768 326 768 326 769 543 769 324 769 543 770 541 770 324 770 324 771 541 771 322 771 541 772 539 772 322 772 322 773 539 773 320 773 539 774 537 774 320 774 320 775 537 775 318 775 537 776 535 776 318 776 318 777 535 777 316 777 535 778 533 778 316 778 316 779 533 779 314 779 533 780 531 780 314 780 314 781 531 781 312 781 531 782 529 782 312 782 312 783 529 783 310 783 529 784 527 784 310 784 310 785 527 785 308 785 527 786 525 786 308 786 308 787 525 787 306 787 525 788 523 788 306 788 306 789 523 789 304 789 523 790 521 790 304 790 304 791 521 791 302 791 521 792 519 792 302 792 302 793 519 793 300 793 519 794 517 794 300 794 300 795 517 795 298 795 517 796 515 796 298 796 298 797 515 797 296 797 515 798 513 798 296 798 296 799 513 799 294 799 513 800 511 800 294 800 294 801 511 801 292 801 511 802 509 802 292 802 292 803 509 803 290 803 509 804 507 804 290 804 290 805 507 805 288 805 507 806 505 806 288 806 20 807 578 807 579 807 151 808 135 808 137 808 135 809 151 809 133 809 20 809 579 809 22 809 579 810 195 810 22 810 22 809 195 809 12 809 137 809 139 809 151 809 139 809 141 809 151 809 151 811 141 811 153 811 141 812 131 812 153 812 153 809 131 809 155 809 20 809 18 809 578 809 18 813 16 813 578 813 578 809 16 809 580 809 16 809 14 809 580 809 580 809 14 809 581 809 581 814 14 814 582 814 14 809 13 809 582 809 582 809 13 809 144 809 151 809 149 809 133 809 149 815 147 815 133 815 133 816 147 816 13 816 147 809 145 809 13 809 13 817 145 817 144 817 155 818 131 818 166 818 131 819 129 819 166 819 166 820 129 820 164 820 129 821 127 821 164 821 127 822 125 822 164 822 125 823 123 823 164 823 164 824 123 824 162 824 123 825 121 825 162 825 162 826 121 826 160 826 121 827 97 827 160 827 160 828 97 828 158 828 97 829 156 829 158 829 97 830 99 830 156 830 99 831 101 831 156 831 156 824 101 824 182 824 101 832 103 832 182 832 182 820 103 820 184 820 103 833 105 833 184 833 184 834 105 834 186 834 109 835 181 835 107 835 181 836 190 836 107 836 107 837 190 837 105 837 190 838 188 838 105 838 105 839 188 839 186 839 583 840 81 840 83 840 583 841 83 841 584 841 83 842 85 842 584 842 584 843 85 843 585 843 181 844 109 844 179 844 109 845 118 845 179 845 179 846 118 846 177 846 118 847 116 847 177 847 116 848 114 848 177 848 114 849 112 849 177 849 177 840 112 840 175 840 112 850 110 850 175 850 175 851 110 851 173 851 110 852 73 852 173 852 173 853 73 853 171 853 73 846 169 846 171 846 583 854 586 854 81 854 586 855 587 855 81 855 81 856 587 856 79 856 587 857 588 857 79 857 79 858 588 858 77 858 588 859 169 859 77 859 77 860 169 860 75 860 169 861 73 861 75 861 589 862 68 862 70 862 92 863 590 863 591 863 590 864 92 864 592 864 589 865 70 865 593 865 70 866 59 866 593 866 593 864 59 864 208 864 591 864 594 864 92 864 594 867 595 867 92 867 92 868 595 868 94 868 595 869 585 869 94 869 94 864 585 864 85 864 589 864 596 864 68 864 596 864 597 864 68 864 68 864 597 864 66 864 597 864 598 864 66 864 66 870 598 870 64 870 64 871 598 871 62 871 598 864 599 864 62 864 62 864 599 864 60 864 92 864 90 864 592 864 90 864 88 864 592 864 592 872 88 872 599 872 88 864 86 864 599 864 599 873 86 873 60 873 427 874 142 874 428 874 142 875 140 875 428 875 428 876 140 876 429 876 140 877 138 877 429 877 429 878 138 878 430 878 138 879 136 879 430 879 430 880 136 880 431 880 136 881 134 881 431 881 431 882 134 882 432 882 134 883 132 883 432 883 432 884 132 884 433 884 132 885 13 885 433 885 433 886 13 886 362 886 13 887 15 887 362 887 362 888 15 888 363 888 15 889 17 889 363 889 363 890 17 890 364 890 17 891 19 891 364 891 364 892 19 892 365 892 19 893 21 893 365 893 365 894 21 894 366 894 390 895 72 895 391 895 72 896 71 896 391 896 391 897 71 897 392 897 71 898 69 898 392 898 392 899 69 899 393 899 69 900 67 900 393 900 393 901 67 901 394 901 67 902 65 902 394 902 394 903 65 903 395 903 65 904 63 904 395 904 395 905 63 905 396 905 63 906 61 906 396 906 396 907 61 907 397 907 61 908 60 908 397 908 397 909 60 909 398 909 60 910 87 910 398 910 398 911 87 911 399 911 87 912 89 912 399 912 399 913 89 913 400 913 89 914 91 914 400 914 400 915 91 915 401 915 91 916 93 916 401 916 401 917 93 917 402 917 93 918 95 918 402 918 402 919 95 919 403 919 95 920 96 920 403 920 96 921 84 921 403 921 403 922 84 922 404 922 84 923 82 923 404 923 404 924 82 924 405 924 82 925 80 925 405 925 405 926 80 926 406 926 80 927 78 927 406 927 406 928 78 928 407 928 78 929 76 929 407 929 407 930 76 930 408 930 76 931 74 931 408 931 408 932 74 932 409 932 74 933 73 933 409 933 409 934 73 934 410 934 73 935 111 935 410 935 410 936 111 936 411 936 111 937 113 937 411 937 411 938 113 938 412 938 113 939 115 939 412 939 412 940 115 940 413 940 115 941 117 941 413 941 413 942 117 942 414 942 117 943 119 943 414 943 414 944 119 944 415 944 21 945 23 945 366 945 23 946 24 946 366 946 366 947 24 947 367 947 24 948 11 948 367 948 367 949 11 949 368 949 11 950 9 950 368 950 368 951 9 951 369 951 9 952 7 952 369 952 369 953 7 953 370 953 7 954 5 954 370 954 370 955 5 955 371 955 5 956 3 956 371 956 371 957 3 957 372 957 3 958 1 958 372 958 372 959 1 959 373 959 1 960 0 960 373 960 373 961 0 961 374 961 0 962 39 962 374 962 374 963 39 963 375 963 39 964 41 964 375 964 375 965 41 965 376 965 41 966 43 966 376 966 376 967 43 967 377 967 43 968 45 968 377 968 377 969 45 969 378 969 45 970 47 970 378 970 378 971 47 971 379 971 119 972 120 972 415 972 120 973 108 973 415 973 415 974 108 974 416 974 108 975 106 975 416 975 416 976 106 976 417 976 106 977 104 977 417 977 417 978 104 978 418 978 104 979 102 979 418 979 418 980 102 980 419 980 102 981 100 981 419 981 419 982 100 982 420 982 100 983 98 983 420 983 420 984 98 984 421 984 98 985 97 985 421 985 421 986 97 986 422 986 97 987 122 987 422 987 422 988 122 988 423 988 122 989 124 989 423 989 423 990 124 990 424 990 124 991 126 991 424 991 424 992 126 992 425 992 126 993 128 993 425 993 425 994 128 994 426 994 128 995 130 995 426 995 426 996 130 996 427 996 130 997 143 997 427 997 427 998 143 998 142 998 47 999 48 999 379 999 48 1000 36 1000 379 1000 379 1001 36 1001 380 1001 36 1002 34 1002 380 1002 380 1003 34 1003 381 1003 34 1004 32 1004 381 1004 381 1005 32 1005 382 1005 32 1006 30 1006 382 1006 382 1007 30 1007 383 1007 30 1008 28 1008 383 1008 383 1009 28 1009 384 1009 28 1010 26 1010 384 1010 384 1011 26 1011 385 1011 26 1012 25 1012 385 1012 385 1013 25 1013 386 1013 25 1014 50 1014 386 1014 386 1015 50 1015 387 1015 50 1016 52 1016 387 1016 387 1017 52 1017 388 1017 52 1018 54 1018 388 1018 388 1019 54 1019 389 1019 54 1020 56 1020 389 1020 389 1021 56 1021 390 1021 56 1022 58 1022 390 1022 390 1023 58 1023 72 1023 520 1024 600 1024 518 1024 600 1024 601 1024 518 1024 518 1025 601 1025 516 1025 601 1024 602 1024 516 1024 516 1024 602 1024 514 1024 602 1026 603 1026 514 1026 514 1024 603 1024 512 1024 603 1024 604 1024 512 1024 512 1024 604 1024 510 1024 604 1027 605 1027 510 1027 510 1028 605 1028 508 1028 605 1029 606 1029 508 1029 508 1030 606 1030 506 1030 606 1031 599 1031 506 1031 506 1024 599 1024 504 1024 599 1032 607 1032 504 1032 504 1024 607 1024 502 1024 607 1033 608 1033 502 1033 502 1024 608 1024 500 1024 608 1024 609 1024 500 1024 500 1024 609 1024 498 1024 609 1024 610 1024 498 1024 498 1034 610 1034 496 1034 448 1024 611 1024 446 1024 611 1024 612 1024 446 1024 446 1024 612 1024 444 1024 612 1035 613 1035 444 1035 444 1024 613 1024 442 1024 613 1036 614 1036 442 1036 442 1024 614 1024 440 1024 614 1024 615 1024 440 1024 440 1024 615 1024 438 1024 615 1037 616 1037 438 1037 438 1038 616 1038 436 1038 616 1039 617 1039 436 1039 436 1024 617 1024 434 1024 617 1024 144 1024 434 1024 434 1024 144 1024 576 1024 144 1040 146 1040 576 1040 576 1024 146 1024 574 1024 146 1041 148 1041 574 1041 574 1024 148 1024 572 1024 148 1024 150 1024 572 1024 572 1024 150 1024 570 1024 150 1024 152 1024 570 1024 570 1042 152 1042 568 1042 152 1024 154 1024 568 1024 568 1043 154 1043 566 1043 610 1024 618 1024 496 1024 618 1024 619 1024 496 1024 496 1024 619 1024 494 1024 619 1024 620 1024 494 1024 494 1024 620 1024 492 1024 620 1044 621 1044 492 1044 492 1045 621 1045 490 1045 621 1024 622 1024 490 1024 490 1024 622 1024 488 1024 622 1024 623 1024 488 1024 488 1024 623 1024 486 1024 623 1024 624 1024 486 1024 486 1024 624 1024 484 1024 624 1024 625 1024 484 1024 484 1024 625 1024 482 1024 625 1024 217 1024 482 1024 482 1024 217 1024 480 1024 217 1024 626 1024 480 1024 480 1046 626 1046 478 1046 626 1024 627 1024 478 1024 478 1024 627 1024 476 1024 627 1024 628 1024 476 1024 476 1047 628 1047 474 1047 628 1024 629 1024 474 1024 474 1024 629 1024 472 1024 629 1024 630 1024 472 1024 630 1024 631 1024 472 1024 472 1024 631 1024 470 1024 631 1024 632 1024 470 1024 470 1024 632 1024 468 1024 632 1024 633 1024 468 1024 468 1024 633 1024 466 1024 633 1024 634 1024 466 1024 466 1048 634 1048 464 1048 634 1024 635 1024 464 1024 464 1024 635 1024 462 1024 635 1024 636 1024 462 1024 462 1049 636 1049 460 1049 636 1024 637 1024 460 1024 460 1024 637 1024 458 1024 637 1024 205 1024 458 1024 458 1024 205 1024 456 1024 205 1050 638 1050 456 1050 456 1024 638 1024 454 1024 638 1051 639 1051 454 1051 454 1024 639 1024 452 1024 639 1024 640 1024 452 1024 452 1052 640 1052 450 1052 640 1024 641 1024 450 1024 450 1053 641 1053 448 1053 641 1024 642 1024 448 1024 448 1054 642 1054 611 1054 542 1024 180 1024 540 1024 180 1024 178 1024 540 1024 540 1024 178 1024 538 1024 178 1024 176 1024 538 1024 538 1055 176 1055 536 1055 176 1024 174 1024 536 1024 536 1024 174 1024 534 1024 174 1024 172 1024 534 1024 534 1056 172 1056 532 1056 172 1024 170 1024 532 1024 532 1024 170 1024 530 1024 170 1024 169 1024 530 1024 530 1024 169 1024 528 1024 169 1024 643 1024 528 1024 528 1024 643 1024 526 1024 643 1024 644 1024 526 1024 526 1024 644 1024 524 1024 644 1057 645 1057 524 1057 524 1058 645 1058 522 1058 645 1024 646 1024 522 1024 522 1059 646 1059 520 1059 646 1024 647 1024 520 1024 520 1060 647 1060 600 1060 154 1024 168 1024 566 1024 168 1024 167 1024 566 1024 566 1024 167 1024 564 1024 167 1061 165 1061 564 1061 564 1062 165 1062 562 1062 165 1024 163 1024 562 1024 562 1024 163 1024 560 1024 163 1024 161 1024 560 1024 560 1024 161 1024 558 1024 161 1024 159 1024 558 1024 558 1024 159 1024 556 1024 159 1024 157 1024 556 1024 556 1024 157 1024 554 1024 157 1024 156 1024 554 1024 554 1024 156 1024 552 1024 156 1024 183 1024 552 1024 552 1063 183 1063 550 1063 183 1024 185 1024 550 1024 550 1024 185 1024 548 1024 185 1024 187 1024 548 1024 548 1064 187 1064 546 1064 187 1024 189 1024 546 1024 546 1024 189 1024 544 1024 189 1024 191 1024 544 1024 544 1024 191 1024 542 1024 191 1024 192 1024 542 1024 542 1024 192 1024 180 1024 144 1065 617 1065 582 1065 617 1066 616 1066 582 1066 582 1067 616 1067 581 1067 616 1068 615 1068 581 1068 581 1069 615 1069 580 1069 615 1070 614 1070 580 1070 580 1071 614 1071 578 1071 614 1072 613 1072 578 1072 578 1073 613 1073 579 1073 613 1074 612 1074 579 1074 579 1075 612 1075 195 1075 205 1076 204 1076 638 1076 204 1077 203 1077 638 1077 638 1078 203 1078 639 1078 203 1079 202 1079 639 1079 639 1080 202 1080 640 1080 202 1081 193 1081 640 1081 640 1082 193 1082 641 1082 193 1083 194 1083 641 1083 641 1084 194 1084 642 1084 194 1085 195 1085 642 1085 642 1086 195 1086 611 1086 195 1087 612 1087 611 1087 205 1088 637 1088 198 1088 637 1089 636 1089 198 1089 198 1090 636 1090 196 1090 636 1091 635 1091 196 1091 196 1092 635 1092 197 1092 635 1093 634 1093 197 1093 197 1094 634 1094 199 1094 634 1095 633 1095 199 1095 199 1096 633 1096 200 1096 633 1097 632 1097 200 1097 200 1098 632 1098 201 1098 217 1099 216 1099 626 1099 216 1100 215 1100 626 1100 626 1101 215 1101 627 1101 215 1102 214 1102 627 1102 627 1103 214 1103 628 1103 214 1104 212 1104 628 1104 628 1105 212 1105 629 1105 212 1106 213 1106 629 1106 629 1107 213 1107 630 1107 213 1108 201 1108 630 1108 630 1109 201 1109 631 1109 201 1110 632 1110 631 1110 599 1111 598 1111 607 1111 598 1112 597 1112 607 1112 607 1113 597 1113 608 1113 597 1114 596 1114 608 1114 608 1115 596 1115 609 1115 596 1116 589 1116 609 1116 609 1117 589 1117 610 1117 589 1118 593 1118 610 1118 610 1119 593 1119 618 1119 593 1120 208 1120 618 1120 217 1121 625 1121 209 1121 625 1122 624 1122 209 1122 209 1123 624 1123 210 1123 624 1124 623 1124 210 1124 210 1125 623 1125 211 1125 623 1126 622 1126 211 1126 211 1127 622 1127 206 1127 622 1128 621 1128 206 1128 206 1129 621 1129 207 1129 621 1130 620 1130 207 1130 207 1131 620 1131 208 1131 620 1132 619 1132 208 1132 208 1133 619 1133 618 1133 599 1134 606 1134 592 1134 606 1135 605 1135 592 1135 592 1136 605 1136 590 1136 605 1137 604 1137 590 1137 590 1138 604 1138 591 1138 604 1139 603 1139 591 1139 591 1140 603 1140 594 1140 603 1141 602 1141 594 1141 594 1142 602 1142 595 1142 602 1143 601 1143 595 1143 595 1144 601 1144 585 1144 169 1145 588 1145 643 1145 588 1146 587 1146 643 1146 643 1147 587 1147 644 1147 587 1148 586 1148 644 1148 644 1149 586 1149 645 1149 586 1150 583 1150 645 1150 645 1151 583 1151 646 1151 583 1152 584 1152 646 1152 646 1153 584 1153 647 1153 584 1154 585 1154 647 1154 647 1155 585 1155 600 1155 585 1156 601 1156 600 1156</p>
        </triangles>
      </mesh>
    </geometry>
  </library_geometries>
  <library_visual_scenes>
    <visual_scene id="Scene" name="Scene">
      <node id="hex_nut_style_1_am_b18_2_4_1m___hex_nut__style_1___m10_x_1_5__w" name="hex_nut_style_1_am_b18_2_4_1m___hex_nut__style_1___m10_x_1_5__w" type="NODE">
        <matrix sid="transform">1 0 0 0 0 1 0 0 0 0 1 0 0 0 0 1</matrix>
        <instance_geometry url="#hex_nut_style_1_am_b18_2_4_1m___hex_nut__style_1___m10_x_1_5__w-mesh" name="hex_nut_style_1_am_b18_2_4_1m___hex_nut__style_1___m10_x_1_5__w"/>
      </node>
    </visual_scene>
  </library_visual_scenes>
  <scene>
    <instance_visual_scene url="#Scene"/>
  </scene>
</COLLADA>