<?xml version="1.0" encoding="utf-8"?>
<COLLADA xmlns="http://www.collada.org/2005/11/COLLADASchema" version="1.4.1" xmlns:xsi="http://www.w3.org/2001/XMLSchema-instance">
  <asset>
    <contributor>
      <author>Blender User</author>
      <authoring_tool>Blender 3.0.1</authoring_tool>
    </contributor>
    <created>2026-06-04T16:18:51</created>
    <modified>2026-06-04T16:18:51</modified>
    <unit name="meter" meter="1"/>
    <up_axis>Z_UP</up_axis>
  </asset>
  <library_images/>
  <library_geometries>
    <geometry id="hex_nut_style_1_am_b18_2_4_1m___hex_nut__style_1___m10_x_1_5__w-mesh" name="hex_nut_style_1_am_b18_2_4_1m___hex_nut__style_1___m10_x_1_5__w">
      <mesh>
        <source id="hex_nut_style_1_am_b18_2_4_1m___hex_nut__style_1___m10_x_1_5__w-mesh-positions">
          <float_array id="hex_nut_style_1_am_b18_2_4_1m___hex_nut__style_1___m10_x_1_5__w-mesh-positions-array" count="1944">0.003999948 0.006928145 0 0.004509449 0.00660789 0 0.004522204 0.006626665 -1.31036e-5 0.005032539 0.006218731 0 0.005095005 0.006295979 -5.73355e-5 0.005522191 0.005788326 0 0.005682766 0.00595659 -1.34294e-4 0.005975246 0.005319416 0 0.006294369 0.005603492 -2.46685e-4 0.006388545 0.004815161 0 0.006939947 0.005230784 -3.98653e-4 0.006759405 0.004278957 0 0.007999956 0.004618763 -7.14531e-4 0.007999956 0 0 0.007999956 6.03035e-4 -1.31036e-5 0.007977366 6.01329e-4 0 0.007999956 0.001264393 -5.73355e-5 0.007901906 0.001248896 0 0.007999956 0.001943111 -1.34294e-4 0.007773935 0.001888215 0 0.007999956 0.002649307 -2.46685e-4 0.007594347 0.002514958 0 0.007999956 0.003394782 -3.98653e-4 0.007364332 0.003125011 0 0.007085442 0.003714323 0 -0.003999948 0.006928145 0 -0.003467917 0.007209241 0 -0.003477752 0.007229685 -1.31036e-5 -0.002869307 0.007467687 0 -0.002904951 0.007560372 -5.73355e-5 -0.002251684 0.007676541 0 -0.00231719 0.007899761 -1.34294e-4 -0.0016191 0.007834434 0 -0.001705586 0.008252859 -2.46685e-4 -9.75808e-4 0.007940232 0 -0.001060009 0.008625566 -3.98653e-4 -3.25991e-4 0.00799334 0 0 0.009237587 -7.14531e-4 0.003477752 0.007229685 -1.31036e-5 0.003467917 0.007209241 0 0.002904951 0.007560372 -5.73355e-5 0.002869307 0.007467687 0 0.00231719 0.007899761 -1.34294e-4 0.002251684 0.007676541 0 0.001705586 0.008252859 -2.46685e-4 0.0016191 0.007834434 0 0.001060009 0.008625566 -3.98653e-4 9.75808e-4 0.007940232 0 3.25991e-4 0.00799334 0 -0.004518866 0.006628572 -1.29353e-5 -0.00450623 0.006610095 0 -0.00508815 0.006299912 -5.66234e-5 -0.005026519 0.006223618 0 -0.005672156 0.005962729 -1.32626e-4 -0.005513787 0.005796313 0 -0.006279468 0.005612075 -2.43581e-4 -0.005964934 0.00533092 0 -0.006920218 0.005242168 -3.93527e-4 -0.006376862 0.004830598 0 -0.007999956 0.004618763 -7.14531e-4 -0.007999956 0 0 -0.00797373 6.47587e-4 0 -0.007999956 6.49719e-4 -1.52074e-5 -0.007895112 0.001290917 0 -0.007999956 0.001308023 -6.13344e-5 -0.007764697 0.001925766 0 -0.007999956 0.001984119 -1.39936e-4 -0.007583379 0.002547979 0 -0.007999956 0.00268799 -2.53751e-4 -0.007352232 0.003153502 0 -0.007999956 0.00343132 -4.06936e-4 -0.007072806 0.003738284 0 -0.006747007 0.004298567 0 -0.003999948 -0.006928145 0 -0.004509449 -0.00660789 0 -0.004522204 -0.006626665 -1.31036e-5 -0.005032539 -0.006218731 0 -0.005095005 -0.006295979 -5.73355e-5 -0.005522191 -0.005788326 0 -0.005682766 -0.00595659 -1.34294e-4 -0.005975246 -0.005319416 0 -0.006294369 -0.005603492 -2.46685e-4 -0.006388545 -0.004815161 0 -0.006939947 -0.005230784 -3.98653e-4 -0.006759405 -0.004278957 0 -0.007999956 -0.004618763 -7.14531e-4 -0.007999956 -6.03035e-4 -1.31036e-5 -0.007977366 -6.01329e-4 0 -0.007999956 -0.001264393 -5.73355e-5 -0.007901906 -0.001248896 0 -0.007999956 -0.001943111 -1.34294e-4 -0.007773935 -0.001888215 0 -0.007999956 -0.002649307 -2.46685e-4 -0.007594347 -0.002514958 0 -0.007999956 -0.003394782 -3.98653e-4 -0.007364332 -0.003125011 0 -0.007085442 -0.003714323 0 0.003999948 -0.006928145 0 0.003467917 -0.007209241 0 0.003477752 -0.007229685 -1.31036e-5 0.002869307 -0.007467687 0 0.002904951 -0.007560372 -5.73355e-5 0.002251684 -0.007676541 0 0.00231719 -0.007899761 -1.34294e-4 0.0016191 -0.007834434 0 0.001705586 -0.008252859 -2.46685e-4 9.75808e-4 -0.007940232 0 0.001060009 -0.008625566 -3.98653e-4 3.25991e-4 -0.00799334 0 0 -0.009237587 -7.14531e-4 -0.003477752 -0.007229685 -1.31036e-5 -0.003467917 -0.007209241 0 -0.002904951 -0.007560372 -5.73355e-5 -0.002869307 -0.007467687 0 -0.00231719 -0.007899761 -1.34294e-4 -0.002251684 -0.007676541 0 -0.001705586 -0.008252859 -2.46685e-4 -0.0016191 -0.007834434 0 -0.001060009 -0.008625566 -3.98653e-4 -9.75808e-4 -0.007940232 0 -3.25991e-4 -0.00799334 0 0.004522204 -0.006626665 -1.31036e-5 0.004509449 -0.00660789 0 0.005095005 -0.006295979 -5.73355e-5 0.005032539 -0.006218731 0 0.005682766 -0.00595659 -1.34294e-4 0.005522191 -0.005788326 0 0.006294369 -0.005603492 -2.46685e-4 0.005975246 -0.005319416 0 0.006939947 -0.005230784 -3.98653e-4 0.006388545 -0.004815161 0 0.007999956 -0.004618763 -7.14531e-4 0.007977366 -6.01329e-4 0 0.007999956 -6.03035e-4 -1.31036e-5 0.007901906 -0.001248896 0 0.007999956 -0.001264393 -5.73355e-5 0.007773935 -0.001888215 0 0.007999956 -0.001943111 -1.34294e-4 0.007594347 -0.002514958 0 0.007999956 -0.002649307 -2.46685e-4 0.007364332 -0.003125011 0 0.007999956 -0.003394782 -3.98653e-4 0.007085442 -0.003714323 0 0.006759405 -0.004278957 0 0.007999956 0 -0.008399963 0.007999956 -6.03035e-4 -0.00838685 0.007977366 -6.01329e-4 -0.008399963 0.007999956 -0.001264393 -0.008342623 0.007901906 -0.001248896 -0.008399963 0.007999956 -0.001943111 -0.008265674 0.007773935 -0.001888215 -0.008399963 0.007999956 -0.002649307 -0.008153259 0.007594347 -0.002514958 -0.008399963 0.007999956 -0.003394782 -0.008001327 0.007364332 -0.003125011 -0.008399963 0.007999956 -0.004618763 -0.007685422 0.003999948 -0.006928145 -0.008399963 0.004509449 -0.00660789 -0.008399963 0.004522204 -0.006626665 -0.00838685 0.005032539 -0.006218731 -0.008399963 0.005095005 -0.006295979 -0.008342623 0.005522191 -0.005788326 -0.008399963 0.005682766 -0.00595659 -0.008265674 0.005975246 -0.005319416 -0.008399963 0.006294369 -0.005603492 -0.008153259 0.006388545 -0.004815161 -0.008399963 0.006939947 -0.005230784 -0.008001327 0.006759405 -0.004278957 -0.008399963 0.007085442 -0.003714323 -0.008399963 -0.003999948 -0.006928145 -0.008399963 -0.003467917 -0.007209241 -0.008399963 -0.003477752 -0.007229685 -0.00838685 -0.002869307 -0.007467687 -0.008399963 -0.002904951 -0.007560372 -0.008342623 -0.002251684 -0.007676541 -0.008399963 -0.00231719 -0.007899761 -0.008265674 -0.0016191 -0.007834434 -0.008399963 -0.001705586 -0.008252859 -0.008153259 -9.75808e-4 -0.007940232 -0.008399963 -0.001060009 -0.008625566 -0.008001327 -3.25991e-4 -0.00799334 -0.008399963 0 -0.009237587 -0.007685422 0.003477752 -0.007229685 -0.00838685 0.003467917 -0.007209241 -0.008399963 0.002904951 -0.007560372 -0.008342623 0.002869307 -0.007467687 -0.008399963 0.00231719 -0.007899761 -0.008265674 0.002251684 -0.007676541 -0.008399963 0.001705586 -0.008252859 -0.008153259 0.0016191 -0.007834434 -0.008399963 0.001060009 -0.008625566 -0.008001327 9.75808e-4 -0.007940232 -0.008399963 3.25991e-4 -0.00799334 -0.008399963 0.006279468 0.005612075 -0.008156418 0.006920218 0.005242168 -0.008006453 0.007999956 0.004618763 -0.007685422 0.002904951 0.007560372 -0.008342623 0.00231719 0.007899761 -0.008265674 0.003477752 0.007229685 -0.00838685 0.001705586 0.008252859 -0.008153259 0.001060009 0.008625566 -0.008001327 0 0.009237587 -0.007685422 0.005672156 0.005962729 -0.008267343 0.00508815 0.006299912 -0.008343338 0.004518866 0.006628572 -0.008387029 0.003999948 0.006928145 -0.008399963 -0.006294369 0.005603492 -0.008153259 -0.006939947 0.005230784 -0.008001327 -0.007999956 0.004618763 -0.007685422 -0.001705586 0.008252859 -0.008153259 -0.004522204 0.006626665 -0.00838685 -0.005095005 0.006295979 -0.008342623 -0.005682766 0.00595659 -0.008265674 -0.001060009 0.008625566 -0.008001327 -0.003999948 0.006928145 -0.008399963 -0.00231719 0.007899761 -0.008265674 -0.002904951 0.007560372 -0.008342623 -0.003477752 0.007229685 -0.00838685 0.004249989 0 -0.007849395 0.004249989 0 -5.25156e-4 0.004233777 3.70412e-4 -0.007849395 0.004233777 3.70412e-4 -5.25156e-4 0.004185378 7.38005e-4 -0.007849395 0.004185378 7.38005e-4 -5.25156e-4 0.00410515 0.001099944 -0.007849395 0.00410515 0.001099944 -5.25156e-4 0.00399369 0.001453578 -0.007849395 0.00399369 0.001453578 -5.25156e-4 0.003851771 0.001796126 -0.007849395 0.003851771 0.001796126 -5.25156e-4 0.003680586 0.002124965 -0.007849395 0.003680586 0.002124965 -5.25156e-4 0.003481388 0.002437651 -0.007849395 0.003481388 0.002437651 -5.25156e-4 0.003255665 0.0027318 -0.007849395 0.003255665 0.0027318 -5.25156e-4 0.003005146 0.003005146 -0.007849395 0.003005146 0.003005146 -5.25156e-4 0.0027318 0.003255665 -0.007849395 0.0027318 0.003255665 -5.25156e-4 0.002437651 0.003481388 -0.007849395 0.002437651 0.003481388 -5.25156e-4 0.002124965 0.003680586 -0.007849395 0.002124965 0.003680586 -5.25156e-4 0.001796126 0.003851771 -0.007849395 0.001796126 0.003851771 -5.25156e-4 0.001453578 0.00399369 -0.007849395 0.001453578 0.00399369 -5.25156e-4 0.001099944 0.00410515 -0.007849395 0.001099944 0.00410515 -5.25156e-4 7.38005e-4 0.004185378 -0.007849395 7.38005e-4 0.004185378 -5.25156e-4 3.70412e-4 0.004233777 -0.007849395 3.70412e-4 0.004233777 -5.25156e-4 0 0.004249989 -0.007849395 0 0.004249989 -5.25156e-4 -3.70412e-4 0.004233777 -0.007849395 -3.70412e-4 0.004233777 -5.25156e-4 -7.38005e-4 0.004185378 -0.007849395 -7.38005e-4 0.004185378 -5.25156e-4 -0.001099944 0.00410515 -0.007849395 -0.001099944 0.00410515 -5.25156e-4 -0.001453578 0.00399369 -0.007849395 -0.001453578 0.00399369 -5.25156e-4 -0.001796126 0.003851771 -0.007849395 -0.001796126 0.003851771 -5.25156e-4 -0.002124965 0.003680586 -0.007849395 -0.002124965 0.003680586 -5.25156e-4 -0.002437651 0.003481388 -0.007849395 -0.002437651 0.003481388 -5.25156e-4 -0.0027318 0.003255665 -0.007849395 -0.0027318 0.003255665 -5.25156e-4 -0.003005146 0.003005146 -0.007849395 -0.003005146 0.003005146 -5.25156e-4 -0.003255665 0.0027318 -0.007849395 -0.003255665 0.0027318 -5.25156e-4 -0.003481388 0.002437651 -0.007849395 -0.003481388 0.002437651 -5.25156e-4 -0.003680586 0.002124965 -0.007849395 -0.003680586 0.002124965 -5.25156e-4 -0.003851771 0.001796126 -0.007849395 -0.003851771 0.001796126 -5.25156e-4 -0.00399369 0.001453578 -0.007849395 -0.00399369 0.001453578 -5.25156e-4 -0.00410515 0.001099944 -0.007849395 -0.00410515 0.001099944 -5.25156e-4 -0.004185378 7.38005e-4 -0.007849395 -0.004185378 7.38005e-4 -5.25156e-4 -0.004233777 3.70412e-4 -0.007849395 -0.004233777 3.70412e-4 -5.25156e-4 -0.004249989 0 -0.007849395 -0.004249989 0 -5.25156e-4 -0.004233777 -3.70412e-4 -0.007849395 -0.004233777 -3.70412e-4 -5.25156e-4 -0.004185378 -7.38005e-4 -0.007849395 -0.004185378 -7.38005e-4 -5.25156e-4 -0.00410515 -0.001099944 -0.007849395 -0.00410515 -0.001099944 -5.25156e-4 -0.00399369 -0.001453578 -0.007849395 -0.00399369 -0.001453578 -5.25156e-4 -0.003851771 -0.001796126 -0.007849395 -0.003851771 -0.001796126 -5.25156e-4 -0.003680586 -0.002124965 -0.007849395 -0.003680586 -0.002124965 -5.25156e-4 -0.003481388 -0.002437651 -0.007849395 -0.003481388 -0.002437651 -5.25156e-4 -0.003255665 -0.0027318 -0.007849395 -0.003255665 -0.0027318 -5.25156e-4 -0.003005146 -0.003005146 -0.007849395 -0.003005146 -0.003005146 -5.25156e-4 -0.0027318 -0.003255665 -0.007849395 -0.0027318 -0.003255665 -5.25156e-4 -0.002437651 -0.003481388 -0.007849395 -0.002437651 -0.003481388 -5.25156e-4 -0.002124965 -0.003680586 -0.007849395 -0.002124965 -0.003680586 -5.25156e-4 -0.001796126 -0.003851771 -0.007849395 -0.001796126 -0.003851771 -5.25156e-4 -0.001453578 -0.00399369 -0.007849395 -0.001453578 -0.00399369 -5.25156e-4 -0.001099944 -0.00410515 -0.007849395 -0.001099944 -0.00410515 -5.25156e-4 -7.38005e-4 -0.004185378 -0.007849395 -7.38005e-4 -0.004185378 -5.25156e-4 -3.70412e-4 -0.004233777 -0.007849395 -3.70412e-4 -0.004233777 -5.25156e-4 0 -0.004249989 -0.007849395 0 -0.004249989 -5.25156e-4 3.70412e-4 -0.004233777 -0.007849395 3.70412e-4 -0.004233777 -5.25156e-4 7.38005e-4 -0.004185378 -0.007849395 7.38005e-4 -0.004185378 -5.25156e-4 0.001099944 -0.00410515 -0.007849395 0.001099944 -0.00410515 -5.25156e-4 0.001453578 -0.00399369 -0.007849395 0.001453578 -0.00399369 -5.25156e-4 0.001796126 -0.003851771 -0.007849395 0.001796126 -0.003851771 -5.25156e-4 0.002124965 -0.003680586 -0.007849395 0.002124965 -0.003680586 -5.25156e-4 0.002437651 -0.003481388 -0.007849395 0.002437651 -0.003481388 -5.25156e-4 0.0027318 -0.003255665 -0.007849395 0.0027318 -0.003255665 -5.25156e-4 0.003005146 -0.003005146 -0.007849395 0.003005146 -0.003005146 -5.25156e-4 0.003255665 -0.0027318 -0.007849395 0.003255665 -0.0027318 -5.25156e-4 0.003481388 -0.002437651 -0.007849395 0.003481388 -0.002437651 -5.25156e-4 0.003680586 -0.002124965 -0.007849395 0.003680586 -0.002124965 -5.25156e-4 0.003851771 -0.001796126 -0.007849395 0.003851771 -0.001796126 -5.25156e-4 0.00399369 -0.001453578 -0.007849395 0.00399369 -0.001453578 -5.25156e-4 0.00410515 -0.001099944 -0.007849395 0.00410515 -0.001099944 -5.25156e-4 0.004185378 -7.38005e-4 -0.007849395 0.004185378 -7.38005e-4 -5.25156e-4 0.004233777 -3.70412e-4 -0.007849395 0.004233777 -3.70412e-4 -5.25156e-4 0.004980921 4.35779e-4 0 0.004923999 8.68241e-4 0 0.004829585 0.001294076 0 0.004698455 0.001710057 0 0.004531502 0.002113044 0 0.004330098 0.002499997 0 0.004095733 0.002867877 0 0.003830194 0.003213882 0 0.003535509 0.003535509 0 0.003213882 0.003830194 0 0.002867877 0.004095733 0 0.002499997 0.004330098 0 0.002113044 0.004531502 0 0.001710057 0.004698455 0 0.001294076 0.004829585 0 8.68241e-4 0.004923999 0 4.35779e-4 0.004980921 0 0 0.004999995 0 -4.35779e-4 0.004980921 0 -8.68241e-4 0.004923999 0 -0.001294076 0.004829585 0 -0.001710057 0.004698455 0 -0.002113044 0.004531502 0 -0.002499997 0.004330098 0 -0.002867877 0.004095733 0 -0.003213882 0.003830194 0 -0.003535509 0.003535509 0 -0.003830194 0.003213882 0 -0.004095733 0.002867877 0 -0.004330098 0.002499997 0 -0.004531502 0.002113044 0 -0.004698455 0.001710057 0 -0.004829585 0.001294076 0 -0.004923999 8.68241e-4 0 -0.004980921 4.35779e-4 0 -0.004999995 0 0 -0.004980921 -4.35779e-4 0 -0.004923999 -8.68241e-4 0 -0.004829585 -0.001294076 0 -0.004698455 -0.001710057 0 -0.004531502 -0.002113044 0 -0.004330098 -0.002499997 0 -0.004095733 -0.002867877 0 -0.003830194 -0.003213882 0 -0.003535509 -0.003535509 0 -0.003213882 -0.003830194 0 -0.002867877 -0.004095733 0 -0.002499997 -0.004330098 0 -0.002113044 -0.004531502 0 -0.001710057 -0.004698455 0 -0.001294076 -0.004829585 0 -8.68241e-4 -0.004923999 0 -4.35779e-4 -0.004980921 0 0 -0.004999995 0 4.35779e-4 -0.004980921 0 8.68241e-4 -0.004923999 0 0.001294076 -0.004829585 0 0.001710057 -0.004698455 0 0.002113044 -0.004531502 0 0.002499997 -0.004330098 0 0.002867877 -0.004095733 0 0.003213882 -0.003830194 0 0.003535509 -0.003535509 0 0.003830194 -0.003213882 0 0.004095733 -0.002867877 0 0.004330098 -0.002499997 0 0.004531502 -0.002113044 0 0.004698455 -0.001710057 0 0.004829585 -0.001294076 0 0.004923999 -8.68241e-4 0 0.004980921 -4.35779e-4 0 0.004999995 0 0 0.004999995 0 -0.008399963 0.004999995 0 -0.008374571 0.004980921 4.35779e-4 -0.008399963 0.004980921 4.35779e-4 -0.008374571 0.004923999 8.68241e-4 -0.008399963 0.004923999 8.68241e-4 -0.008374571 0.004829585 0.001294076 -0.008399963 0.004829585 0.001294076 -0.008374571 0.004698455 0.001710057 -0.008399963 0.004698455 0.001710057 -0.008374571 0.004531502 0.002113044 -0.008399963 0.004531502 0.002113044 -0.008374571 0.004330098 0.002499997 -0.008399963 0.004330098 0.002499997 -0.008374571 0.004095733 0.002867877 -0.008399963 0.004095733 0.002867877 -0.008374571 0.003830194 0.003213882 -0.008399963 0.003830194 0.003213882 -0.008374571 0.003535509 0.003535509 -0.008399963 0.003535509 0.003535509 -0.008374571 0.003213882 0.003830194 -0.008399963 0.003213882 0.003830194 -0.008374571 0.002867877 0.004095733 -0.008399963 0.002867877 0.004095733 -0.008374571 0.002499997 0.004330098 -0.008399963 0.002499997 0.004330098 -0.008374571 0.002113044 0.004531502 -0.008399963 0.002113044 0.004531502 -0.008374571 0.001710057 0.004698455 -0.008399963 0.001710057 0.004698455 -0.008374571 0.001294076 0.004829585 -0.008399963 0.001294076 0.004829585 -0.008374571 8.68241e-4 0.004923999 -0.008399963 8.68241e-4 0.004923999 -0.008374571 4.35779e-4 0.004980921 -0.008399963 4.35779e-4 0.004980921 -0.008374571 0 0.004999995 -0.008399963 0 0.004999995 -0.008374571 -4.35779e-4 0.004980921 -0.008399963 -4.35779e-4 0.004980921 -0.008374571 -8.68241e-4 0.004923999 -0.008399963 -8.68241e-4 0.004923999 -0.008374571 -0.001294076 0.004829585 -0.008399963 -0.001294076 0.004829585 -0.008374571 -0.001710057 0.004698455 -0.008399963 -0.001710057 0.004698455 -0.008374571 -0.002113044 0.004531502 -0.008399963 -0.002113044 0.004531502 -0.008374571 -0.002499997 0.004330098 -0.008399963 -0.002499997 0.004330098 -0.008374571 -0.002867877 0.004095733 -0.008399963 -0.002867877 0.004095733 -0.008374571 -0.003213882 0.003830194 -0.008399963 -0.003213882 0.003830194 -0.008374571 -0.003535509 0.003535509 -0.008399963 -0.003535509 0.003535509 -0.008374571 -0.003830194 0.003213882 -0.008399963 -0.003830194 0.003213882 -0.008374571 -0.004095733 0.002867877 -0.008399963 -0.004095733 0.002867877 -0.008374571 -0.004330098 0.002499997 -0.008399963 -0.004330098 0.002499997 -0.008374571 -0.004531502 0.002113044 -0.008399963 -0.004531502 0.002113044 -0.008374571 -0.004698455 0.001710057 -0.008399963 -0.004698455 0.001710057 -0.008374571 -0.004829585 0.001294076 -0.008399963 -0.004829585 0.001294076 -0.008374571 -0.004923999 8.68241e-4 -0.008399963 -0.004923999 8.68241e-4 -0.008374571 -0.004980921 4.35779e-4 -0.008399963 -0.004980921 4.35779e-4 -0.008374571 -0.004999995 0 -0.008399963 -0.004999995 0 -0.008374571 -0.004980921 -4.35779e-4 -0.008399963 -0.004980921 -4.35779e-4 -0.008374571 -0.004923999 -8.68241e-4 -0.008399963 -0.004923999 -8.68241e-4 -0.008374571 -0.004829585 -0.001294076 -0.008399963 -0.004829585 -0.001294076 -0.008374571 -0.004698455 -0.001710057 -0.008399963 -0.004698455 -0.001710057 -0.008374571 -0.004531502 -0.002113044 -0.008399963 -0.004531502 -0.002113044 -0.008374571 -0.004330098 -0.002499997 -0.008399963 -0.004330098 -0.002499997 -0.008374571 -0.004095733 -0.002867877 -0.008399963 -0.004095733 -0.002867877 -0.008374571 -0.003830194 -0.003213882 -0.008399963 -0.003830194 -0.003213882 -0.008374571 -0.003535509 -0.003535509 -0.008399963 -0.003535509 -0.003535509 -0.008374571 -0.003213882 -0.003830194 -0.008399963 -0.003213882 -0.003830194 -0.008374571 -0.002867877 -0.004095733 -0.008399963 -0.002867877 -0.004095733 -0.008374571 -0.002499997 -0.004330098 -0.008399963 -0.002499997 -0.004330098 -0.008374571 -0.002113044 -0.004531502 -0.008399963 -0.002113044 -0.004531502 -0.008374571 -0.001710057 -0.004698455 -0.008399963 -0.001710057 -0.004698455 -0.008374571 -0.001294076 -0.004829585 -0.008399963 -0.001294076 -0.004829585 -0.008374571 -8.68241e-4 -0.004923999 -0.008399963 -8.68241e-4 -0.004923999 -0.008374571 -4.35779e-4 -0.004980921 -0.008399963 -4.35779e-4 -0.004980921 -0.008374571 0 -0.004999995 -0.008399963 0 -0.004999995 -0.008374571 4.35779e-4 -0.004980921 -0.008399963 4.35779e-4 -0.004980921 -0.008374571 8.68241e-4 -0.004923999 -0.008399963 8.68241e-4 -0.004923999 -0.008374571 0.001294076 -0.004829585 -0.008399963 0.001294076 -0.004829585 -0.008374571 0.001710057 -0.004698455 -0.008399963 0.001710057 -0.004698455 -0.008374571 0.002113044 -0.004531502 -0.008399963 0.002113044 -0.004531502 -0.008374571 0.002499997 -0.004330098 -0.008399963 0.002499997 -0.004330098 -0.008374571 0.002867877 -0.004095733 -0.008399963 0.002867877 -0.004095733 -0.008374571 0.003213882 -0.003830194 -0.008399963 0.003213882 -0.003830194 -0.008374571 0.003535509 -0.003535509 -0.008399963 0.003535509 -0.003535509 -0.008374571 0.003830194 -0.003213882 -0.008399963 0.003830194 -0.003213882 -0.008374571 0.004095733 -0.002867877 -0.008399963 0.004095733 -0.002867877 -0.008374571 0.004330098 -0.002499997 -0.008399963 0.004330098 -0.002499997 -0.008374571 0.004531502 -0.002113044 -0.008399963 0.004531502 -0.002113044 -0.008374571 0.004698455 -0.001710057 -0.008399963 0.004698455 -0.001710057 -0.008374571 0.004829585 -0.001294076 -0.008399963 0.004829585 -0.001294076 -0.008374571 0.004923999 -8.68241e-4 -0.008399963 0.004923999 -8.68241e-4 -0.008374571 0.004980921 -4.35779e-4 -0.008399963 0.004980921 -4.35779e-4 -0.008374571 0.007999956 0.00268799 -0.008146226 0.007999956 0.00343132 -0.007993042 0.007999956 0.001984119 -0.008260011 0.007999956 0.001308023 -0.00833863 0.007999956 6.49719e-4 -0.008384764 -0.007999956 -0.004618763 -0.007685422 -0.006939947 -0.005230784 -0.008001327 -0.006294369 -0.005603492 -0.008153259 -0.005682766 -0.00595659 -0.008265674 -0.005095005 -0.006295979 -0.008342623 -0.004522204 -0.006626665 -0.00838685 -0.007999956 0.002649307 -0.008153259 -0.007999956 -0.001264393 -0.008342623 -0.007999956 -0.001943111 -0.008265674 -0.007999956 -6.03035e-4 -0.00838685 -0.007999956 0.003394782 -0.008001327 -0.007999956 -0.002649307 -0.008153259 -0.007999956 -0.003394782 -0.008001327 -0.007999956 0.001943111 -0.008265674 -0.007999956 0.001264393 -0.008342623 -0.007999956 6.03035e-4 -0.00838685 -0.007999956 0 -0.008399963 -0.006759405 -0.004278957 -0.008399963 -0.007085442 -0.003714323 -0.008399963 -0.007364332 -0.003125011 -0.008399963 -0.007594347 -0.002514958 -0.008399963 -0.007773935 -0.001888215 -0.008399963 -0.007901906 -0.001248896 -0.008399963 -0.007977366 -6.01329e-4 -0.008399963 -0.007977366 6.01329e-4 -0.008399963 -0.007901906 0.001248896 -0.008399963 -0.007773935 0.001888215 -0.008399963 -0.007594347 0.002514958 -0.008399963 0.006747007 0.004298567 -0.008399963 0.007072806 0.003738284 -0.008399963 0.007352232 0.003153502 -0.008399963 0.007583379 0.002547979 -0.008399963 0.007764697 0.001925766 -0.008399963 0.007895112 0.001290917 -0.008399963 0.00797373 6.47587e-4 -0.008399963 -0.007364332 0.003125011 -0.008399963 -0.007085442 0.003714323 -0.008399963 -0.006759405 0.004278957 -0.008399963 -0.006388545 0.004815161 -0.008399963 -0.005975246 0.005319416 -0.008399963 -0.005522191 0.005788326 -0.008399963 -0.005032539 0.006218731 -0.008399963 -0.004509449 0.00660789 -0.008399963 -0.003467917 0.007209241 -0.008399963 -0.002869307 0.007467687 -0.008399963 -0.002251684 0.007676541 -0.008399963 -0.0016191 0.007834434 -0.008399963 -9.75808e-4 0.007940232 -0.008399963 -3.25991e-4 0.00799334 -0.008399963 3.25991e-4 0.00799334 -0.008399963 9.75808e-4 0.007940232 -0.008399963 0.0016191 0.007834434 -0.008399963 0.002251684 0.007676541 -0.008399963 0.002869307 0.007467687 -0.008399963 0.003467917 0.007209241 -0.008399963 0.00450623 0.006610095 -0.008399963 0.005026519 0.006223618 -0.008399963 0.005513787 0.005796313 -0.008399963 0.005964934 0.00533092 -0.008399963 0.006376862 0.004830598 -0.008399963 -0.004509449 -0.00660789 -0.008399963 -0.005032539 -0.006218731 -0.008399963 -0.005522191 -0.005788326 -0.008399963 -0.005975246 -0.005319416 -0.008399963 -0.006388545 -0.004815161 -0.008399963</float_array>
          <technique_common>
            <accessor source="#hex_nut_style_1_am_b18_2_4_1m___hex_nut__style_1___m10_x_1_5__w-mesh-positions-array" count="648" stride="3">
              <param name="X" type="float"/>
              <param name="Y" type="float"/>
              <param name="Z" type="float"/>
            </accessor>
          </technique_common>
        </source>
        <source id="hex_nut_style_1_am_b18_2_4_1m___hex_nut__style_1___m10_x_1_5__w-mesh-normals">
          <float_array id="hex_nut_style_1_am_b18_2_4_1m___hex_nut__style_1___m10_x_1_5__w-mesh-normals-array" count="3468">0.2662461 0.4235225 0.8658764 0.2986203 0.4014167 0.8658468 0.2986218 0.4014186 0.8658454 0.3303191 0.3757714 0.8658437 0.3303167 0.375768 0.8658461 0.3598194 0.3476223 0.8658457 0.3598192 0.3476228 0.8658456 0.386931 0.3171679 0.8658457 0.3869317 0.3171685 0.8658453 0.4114736 0.284608 0.8658453 0.4197727 0.2817528 0.8627898 0.4999073 0.01881521 0.8658745 0.4969452 0.05790859 0.8658475 0.4969488 0.05790317 0.8658459 0.4905831 0.09818029 0.8658457 0.4905835 0.09817916 0.8658457 0.4809595 0.1378009 0.8658458 0.4809601 0.1378013 0.8658453 0.4681414 0.1765066 0.8658458 0.4681415 0.1765085 0.8658455 0.4481068 0.2233874 0.8656203 0.4585947 0.2170635 0.8617275 0.4312751 0.2489968 0.8671807 -0.233657 0.4423351 0.8658777 -0.1983224 0.4593105 0.8658534 -0.1983295 0.4593271 0.8658431 -0.1602681 0.4739526 0.8658424 -0.1602661 0.4739472 0.8658458 -0.1211407 0.4854236 0.8658457 -0.1211407 0.4854241 0.8658456 -0.08121025 0.4936782 0.8658446 -0.08121013 0.4936771 0.8658452 -0.04074043 0.4986497 0.8658457 -0.03411883 0.5044113 0.8627892 0.233657 0.4423351 0.8658777 0.1983295 0.4593278 0.8658426 0.1983278 0.4593231 0.8658455 0.1602668 0.473948 0.8658452 0.1602667 0.473949 0.8658447 0.1211404 0.4854219 0.8658468 0.1211409 0.485425 0.8658449 0.08121019 0.4936779 0.8658447 0.08121013 0.4936774 0.865845 0.03059357 0.4997662 0.8656199 0.04131537 0.5056867 0.8617274 0 0.4979935 0.8671808 -0.2661568 0.4236079 0.865862 -0.2983325 0.4016382 0.8658432 -0.2983291 0.4016329 0.8658469 -0.329861 0.3761662 0.8658469 -0.3298602 0.3761633 0.8658484 -0.359229 0.3482301 0.8658466 -0.3592282 0.3482279 0.8658479 -0.3862383 0.3180063 0.8658476 -0.386238 0.318008 0.8658471 -0.4172027 0.2768982 0.8656036 -0.4998918 0.02026689 0.8658508 -0.4966109 0.06066507 0.8658508 -0.496614 0.06066477 0.8658489 -0.490074 0.1006659 0.8658486 -0.4900748 0.1006668 0.8658481 -0.4803176 0.1400067 0.8658483 -0.4803185 0.1400074 0.8658477 -0.4674093 0.178429 0.8658475 -0.4674089 0.1784284 0.8658478 -0.4514315 0.2156791 0.8658477 -0.4528418 0.2235757 0.8631039 -0.4305226 0.2503696 0.8671595 -0.4170488 0.2901056 0.8613415 -0.2662461 -0.4235225 0.8658764 -0.2986203 -0.4014167 0.8658468 -0.2986218 -0.4014186 0.8658454 -0.3303191 -0.3757714 0.8658437 -0.3303167 -0.375768 0.8658461 -0.3598194 -0.3476223 0.8658457 -0.3598192 -0.3476228 0.8658456 -0.386931 -0.3171679 0.8658457 -0.3869317 -0.3171685 0.8658453 -0.4114736 -0.284608 0.8658453 -0.4197727 -0.2817528 0.8627898 -0.4999073 -0.01881521 0.8658745 -0.4969452 -0.05790859 0.8658475 -0.4969488 -0.05790317 0.8658459 -0.4905831 -0.09818029 0.8658457 -0.4905835 -0.09817916 0.8658457 -0.4809595 -0.1378009 0.8658458 -0.4809601 -0.1378013 0.8658453 -0.4681414 -0.1765066 0.8658458 -0.4681415 -0.1765085 0.8658455 -0.4481068 -0.2233874 0.8656203 -0.4585947 -0.2170635 0.8617275 -0.4312751 -0.2489968 0.8671807 0.233657 -0.4423351 0.8658777 0.1983224 -0.4593105 0.8658534 0.1983295 -0.4593271 0.8658431 0.1602681 -0.4739526 0.8658424 0.1602661 -0.4739472 0.8658458 0.1211407 -0.4854236 0.8658457 0.1211407 -0.4854241 0.8658456 0.08121025 -0.4936782 0.8658446 0.08121013 -0.4936771 0.8658452 0.04074043 -0.4986497 0.8658457 0.03411883 -0.5044113 0.8627892 -0.233657 -0.4423351 0.8658777 -0.1983295 -0.4593278 0.8658426 -0.1983278 -0.4593231 0.8658455 -0.1602668 -0.473948 0.8658452 -0.1602667 -0.473949 0.8658447 -0.1211404 -0.4854219 0.8658468 -0.1211409 -0.485425 0.8658449 -0.08121019 -0.4936779 0.8658447 -0.08121013 -0.4936774 0.865845 -0.03059357 -0.4997662 0.8656199 -0.04131537 -0.5056867 0.8617274 0 -0.4979935 0.8671808 0.2662461 -0.4235225 0.8658764 0.2986173 -0.4014126 0.8658497 0.2986225 -0.4014194 0.8658449 0.3303179 -0.3757706 0.8658444 0.3303171 -0.3757683 0.8658457 0.359818 -0.3476207 0.865847 0.3598196 -0.347623 0.8658453 0.3869312 -0.3171688 0.8658453 0.3869317 -0.3171684 0.8658454 0.4175129 -0.2763777 0.8656203 0.4999073 -0.01881521 0.8658745 0.4969452 -0.05790424 0.8658479 0.4969488 -0.057904 0.8658459 0.4905831 -0.09817975 0.8658459 0.4905834 -0.09817904 0.8658457 0.4809597 -0.1378006 0.8658457 0.4809601 -0.1378021 0.8658453 0.4681413 -0.176508 0.8658457 0.4681416 -0.1765081 0.8658455 0.4522138 -0.2140426 0.8658455 0.4538918 -0.2226579 0.8627896 0.4312751 -0.2489967 0.8671808 0.4172791 -0.2886235 0.8617278 0.4999386 -0.01881575 -0.8658565 0.4970192 -0.05790579 -0.8658054 0.496937 -0.05790358 -0.8658527 0.4905804 -0.09817755 -0.8658476 0.4905845 -0.09818035 -0.865845 0.4809607 -0.1378031 -0.8658449 0.4809595 -0.1377999 -0.8658459 0.468141 -0.176508 -0.8658459 0.4681411 -0.1765086 -0.8658457 0.4481066 -0.2233874 -0.8656203 0.266256 -0.4235256 -0.8658718 0.2986114 -0.4014213 -0.8658478 0.2986208 -0.4014156 -0.8658471 0.3303058 -0.37577 -0.8658492 0.3303225 -0.375766 -0.8658446 0.3598202 -0.347621 -0.8658458 0.3598181 -0.3476223 -0.8658462 0.3869308 -0.317168 -0.8658459 0.3869317 -0.3171678 -0.8658456 0.411473 -0.284608 -0.8658454 0.4197735 -0.2817533 -0.8627893 0.4312754 -0.2489967 -0.8671807 0.4585952 -0.2170625 -0.8617277 -0.2336476 -0.4423404 -0.8658776 -0.1983147 -0.4593155 -0.8658525 -0.1983324 -0.4593232 -0.8658444 -0.1602629 -0.4739496 -0.8658451 -0.1602665 -0.4739462 -0.8658463 -0.1211413 -0.4854224 -0.8658465 -0.1211403 -0.4854235 -0.8658459 -0.08121067 -0.4936775 -0.8658449 -0.08120876 -0.4936771 -0.8658453 -0.04074209 -0.4986495 -0.8658457 -0.03411823 -0.5044111 -0.8627893 0.2336476 -0.4423404 -0.8658776 0.1983361 -0.4593297 -0.86584 0.1983276 -0.4593199 -0.8658474 0.1602609 -0.4739451 -0.8658479 0.1602674 -0.4739479 -0.8658451 0.1211404 -0.4854209 -0.8658473 0.1211404 -0.4854245 -0.8658453 0.08121055 -0.4936771 -0.8658452 0.08120959 -0.4936774 -0.8658451 0.03059387 -0.4997661 -0.86562 0.04131519 -0.5056864 -0.8617275 0 -0.4979933 -0.867181 0.5000001 0.8660254 0 0.5000005 0.8660252 0 0.4999994 0.8660258 0 0.5000002 0.8660253 0 0.5 0.8660254 0 0.5000013 0.8660247 1.71726e-7 0.4999991 0.866026 0 0.4999995 0.8660258 0 0.5000001 0.8660253 -3.43633e-7 0.5000004 0.8660252 0 0.4999998 0.8660255 0 0.4999999 0.8660255 0 0.4999996 0.8660256 0 0.4999998 0.8660256 0 0.4999997 0.8660257 -3.06425e-7 0.5000002 0.8660253 1.60485e-7 0.4999998 0.8660255 -1.81359e-7 0.5000001 0.8660255 0 0.5000001 0.8660253 0 0.5000003 0.8660253 3.04256e-7 0.5000005 0.8660252 0 0.4999994 0.8660258 0 0.5 0.8660254 0 0.4999998 0.8660255 0 -0.4999992 0.8660259 0 -0.5000005 0.8660252 0 -0.4999997 0.8660256 0 -0.5000002 0.8660253 0 -0.5000006 0.8660252 0 -0.5000007 0.866025 -1.71725e-7 -0.4999995 0.8660258 0 -0.5 0.8660255 0 -0.5000001 0.8660255 3.43633e-7 -0.5000004 0.8660252 0 -0.4999998 0.8660255 0 -0.4999999 0.8660255 0 -0.4999998 0.8660256 0 -0.4999997 0.8660256 0 -0.5000004 0.8660253 3.06425e-7 -0.5000003 0.8660253 -1.60485e-7 -0.4999998 0.8660255 1.81359e-7 -0.5000001 0.8660255 0 -0.5000003 0.8660253 -3.04256e-7 -0.5 0.8660255 0 -0.4999995 0.8660258 0 -0.4999999 0.8660255 0 -0.9990482 -0.04362213 0 -0.9990482 -0.04361945 0 -0.9914449 -0.1305263 0 -0.9914452 -0.1305236 0 -0.9762957 -0.2164416 0 -0.9762961 -0.216439 0 -0.9537168 -0.3007065 0 -0.9537172 -0.3007053 0 -0.9238802 -0.3826822 0 -0.9238792 -0.3826844 0 -0.8870108 -0.4617488 0 -0.8870113 -0.4617478 0 -0.8433909 -0.5373007 0 -0.8433914 -0.5372996 0 -0.7933536 -0.6087613 0 -0.7933536 -0.6087613 0 -0.7372765 -0.6755911 0 -0.7372779 -0.6755896 0 -0.6755905 -0.737277 0 -0.6755899 -0.7372777 0 -0.6087615 -0.7933534 0 -0.6087616 -0.7933534 0 -0.5373002 -0.8433912 0 -0.5372996 -0.8433915 0 -0.4617486 -0.8870109 0 -0.4617484 -0.8870111 0 -0.3826834 -0.9238796 0 -0.3826837 -0.9238795 0 -0.3007052 -0.9537172 0 -0.3007054 -0.9537171 0 -0.21644 -0.976296 0 -0.2164401 -0.976296 0 -0.1305256 -0.991445 0 -0.1305257 -0.991445 0 -0.04362028 -0.9990482 0 -0.04362028 -0.9990482 0 0.04362028 -0.9990482 0 0.04362028 -0.9990482 0 0.1305257 -0.991445 0 0.1305256 -0.991445 0 0.21644 -0.976296 0 0.21644 -0.976296 0 0.3007054 -0.9537172 0 0.3007052 -0.9537172 0 0.3826836 -0.9238795 0 0.3826835 -0.9238795 0 0.4617484 -0.8870111 0 0.4617486 -0.8870109 0 0.5372996 -0.8433915 0 0.5373002 -0.8433911 0 0.6087615 -0.7933534 0 0.6087616 -0.7933534 0 0.6755899 -0.7372777 0 0.6755905 -0.737277 0 0.7372779 -0.6755897 0 0.7372766 -0.6755911 0 0.7933536 -0.6087613 0 0.7933536 -0.6087613 0 0.8433914 -0.5372997 0 0.8433908 -0.5373006 0 0.8870113 -0.4617478 0 0.8870108 -0.4617488 0 0.9238792 -0.3826845 0 0.9238802 -0.3826822 0 0.9537171 -0.3007053 0 0.9537168 -0.3007065 0 0.9762961 -0.216439 0 0.9762957 -0.2164415 0 0.9914452 -0.1305236 0 0.9914449 -0.1305262 0 0.9990483 -0.04361945 0 0.9990482 -0.04362213 0 0.9990482 0.04362213 0 0.9990482 0.04361945 0 0.9914449 0.1305263 0 0.9914452 0.1305236 0 0.9762957 0.2164416 0 0.9762961 0.216439 0 0.9537168 0.3007065 0 0.9537172 0.3007053 0 0.9238802 0.3826822 0 0.9238792 0.3826844 0 0.8870108 0.4617488 0 0.8870113 0.4617478 0 0.8433909 0.5373007 0 0.8433914 0.5372996 0 0.7933536 0.6087613 0 0.7933536 0.6087613 0 0.7372765 0.6755911 0 0.7372779 0.6755896 0 0.6755905 0.737277 0 0.6755899 0.7372777 0 0.6087615 0.7933534 0 0.6087616 0.7933534 0 0.5373002 0.8433912 0 0.5372996 0.8433915 0 0.4617486 0.8870109 0 0.4617484 0.8870111 0 0.3826834 0.9238796 0 0.3826837 0.9238795 0 0.3007052 0.9537172 0 0.3007054 0.9537171 0 0.21644 0.976296 0 0.2164401 0.976296 0 0.1305256 0.991445 0 0.1305257 0.991445 0 0.04362028 0.9990482 0 0.04362028 0.9990482 0 -0.04362028 0.9990482 0 -0.04362028 0.9990482 0 -0.1305257 0.991445 0 -0.1305256 0.991445 0 -0.21644 0.976296 0 -0.21644 0.976296 0 -0.3007054 0.9537172 0 -0.3007052 0.9537172 0 -0.3826836 0.9238795 0 -0.3826835 0.9238795 0 -0.4617484 0.8870111 0 -0.4617486 0.8870109 0 -0.5372996 0.8433915 0 -0.5373002 0.8433911 0 -0.6087615 0.7933534 0 -0.6087616 0.7933534 0 -0.6755899 0.7372777 0 -0.6755905 0.737277 0 -0.7372779 0.6755897 0 -0.7372766 0.6755911 0 -0.7933536 0.6087613 0 -0.7933536 0.6087613 0 -0.8433914 0.5372997 0 -0.8433908 0.5373006 0 -0.8870113 0.4617478 0 -0.8870108 0.4617488 0 -0.9238792 0.3826845 0 -0.9238802 0.3826822 0 -0.9537171 0.3007053 0 -0.9537168 0.3007065 0 -0.9762961 0.216439 0 -0.9762957 0.2164415 0 -0.9914452 0.1305236 0 -0.9914449 0.1305262 0 -0.9990483 0.04361945 0 -0.9990482 0.04362213 0 -0.5690329 -0.07491403 0.8188953 -0.5690327 -0.07491469 0.8188953 -0.560338 -0.124224 0.8188955 -0.5603383 -0.1242228 0.8188954 -0.5473789 -0.1725889 0.8188952 -0.5473788 -0.1725885 0.8188953 -0.5302541 -0.2196376 0.8188955 -0.530254 -0.2196384 0.8188955 -0.5090936 -0.2650173 0.8188953 -0.5090935 -0.265018 0.8188952 -0.4840587 -0.3083787 0.8188956 -0.4840589 -0.3083788 0.8188953 -0.4553388 -0.3493959 0.8188951 -0.45534 -0.3493939 0.8188953 -0.4231548 -0.3877493 0.8188959 -0.4231551 -0.3877507 0.8188951 -0.3877498 -0.4231553 0.8188956 -0.3877506 -0.423155 0.8188952 -0.3493946 -0.4553394 0.8188952 -0.3493941 -0.4553399 0.8188953 -0.3083791 -0.4840577 0.818896 -0.3083794 -0.4840589 0.8188951 -0.2650173 -0.5090927 0.8188959 -0.2650173 -0.5090934 0.8188954 -0.2196385 -0.530255 0.8188949 -0.2196385 -0.5302541 0.8188953 -0.1725876 -0.5473789 0.8188956 -0.1725879 -0.5473787 0.8188956 -0.1242241 -0.5603375 0.8188958 -0.1242239 -0.5603382 0.8188953 -0.07491427 -0.569033 0.8188952 -0.07491433 -0.5690327 0.8188954 -0.0250355 -0.5733962 0.8188956 -0.02503496 -0.573397 0.8188951 0.0250355 -0.5733969 0.8188953 0.02503496 -0.5733966 0.8188955 0.07491427 -0.5690329 0.8188953 0.07491433 -0.5690327 0.8188953 0.1242243 -0.5603382 0.8188953 0.1242238 -0.5603378 0.8188956 0.1725876 -0.5473787 0.8188957 0.1725879 -0.5473788 0.8188955 0.2196386 -0.5302547 0.818895 0.2196382 -0.530254 0.8188954 0.2650175 -0.509093 0.8188956 0.2650174 -0.5090934 0.8188954 0.3083793 -0.4840593 0.818895 0.3083794 -0.4840578 0.8188958 0.3493944 -0.4553397 0.8188952 0.3493942 -0.4553394 0.8188955 0.3877501 -0.4231556 0.8188951 0.3877505 -0.4231548 0.8188955 0.4231551 -0.3877503 0.8188952 0.423155 -0.38775 0.8188954 0.4553397 -0.3493945 0.8188952 0.4553393 -0.349395 0.8188951 0.4840589 -0.3083788 0.8188953 0.4840586 -0.3083785 0.8188956 0.5090938 -0.2650187 0.8188949 0.5090935 -0.2650168 0.8188956 0.5302537 -0.2196388 0.8188956 0.5302544 -0.2196375 0.8188955 0.5473789 -0.1725889 0.8188953 0.5473789 -0.1725885 0.8188953 0.5603382 -0.124224 0.8188953 0.5603382 -0.1242228 0.8188956 0.5690328 -0.07491534 0.8188952 0.5690329 -0.07491356 0.8188953 0.5733965 -0.02503567 0.8188955 0.5733969 -0.0250346 0.8188952 0.5733968 0.02503567 0.8188952 0.5733966 0.0250346 0.8188954 0.5690329 0.07491403 0.8188953 0.5690327 0.07491469 0.8188953 0.560338 0.124224 0.8188955 0.5603383 0.1242228 0.8188954 0.5473789 0.1725889 0.8188952 0.5473788 0.1725885 0.8188953 0.5302541 0.2196376 0.8188955 0.530254 0.2196384 0.8188955 0.5090936 0.2650173 0.8188953 0.5090935 0.265018 0.8188952 0.4840587 0.3083787 0.8188956 0.4840589 0.3083788 0.8188953 0.4553388 0.3493959 0.8188951 0.45534 0.3493939 0.8188953 0.4231548 0.3877493 0.8188959 0.4231551 0.3877507 0.8188951 0.3877498 0.4231553 0.8188956 0.3877506 0.423155 0.8188952 0.3493946 0.4553394 0.8188952 0.3493941 0.4553399 0.8188953 0.3083791 0.4840577 0.818896 0.3083794 0.4840589 0.8188951 0.2650173 0.5090927 0.8188959 0.2650173 0.5090934 0.8188954 0.2196385 0.530255 0.8188949 0.2196385 0.5302541 0.8188953 0.1725876 0.5473789 0.8188956 0.1725879 0.5473787 0.8188956 0.1242241 0.5603375 0.8188958 0.1242239 0.5603382 0.8188953 0.07491427 0.569033 0.8188952 0.07491433 0.5690327 0.8188954 0.0250355 0.5733962 0.8188956 0.02503496 0.573397 0.8188951 -0.0250355 0.5733969 0.8188953 -0.02503496 0.5733966 0.8188955 -0.07491427 0.5690329 0.8188953 -0.07491433 0.5690327 0.8188953 -0.1242243 0.5603382 0.8188953 -0.1242238 0.5603378 0.8188956 -0.1725876 0.5473787 0.8188957 -0.1725879 0.5473788 0.8188955 -0.2196386 0.5302547 0.818895 -0.2196382 0.530254 0.8188954 -0.2650175 0.509093 0.8188956 -0.2650174 0.5090934 0.8188954 -0.3083793 0.4840593 0.818895 -0.3083794 0.4840578 0.8188958 -0.3493944 0.4553397 0.8188952 -0.3493942 0.4553394 0.8188955 -0.3877501 0.4231556 0.8188951 -0.3877505 0.4231548 0.8188955 -0.4231551 0.3877503 0.8188952 -0.423155 0.38775 0.8188954 -0.4553397 0.3493945 0.8188952 -0.4553393 0.349395 0.8188951 -0.4840589 0.3083788 0.8188953 -0.4840586 0.3083785 0.8188956 -0.5090938 0.2650187 0.8188949 -0.5090935 0.2650168 0.8188956 -0.5302537 0.2196388 0.8188956 -0.5302544 0.2196375 0.8188955 -0.5473789 0.1725889 0.8188953 -0.5473789 0.1725885 0.8188953 -0.5603382 0.124224 0.8188953 -0.5603382 0.1242228 0.8188956 -0.5690328 0.07491534 0.8188952 -0.5690329 0.07491356 0.8188953 -0.5733965 0.02503567 0.8188955 -0.5733969 0.0250346 0.8188952 -0.5733968 -0.02503567 0.8188952 -0.5733966 -0.0250346 0.8188954 -0.9990482 -0.04361933 0 -0.9990484 -0.04361855 0 -0.9914456 -0.1305207 0 -0.9914449 -0.130526 0 -0.9762979 -0.2164317 0 -0.9762933 -0.2164515 0 -0.9537211 -0.3006928 0 -0.9537129 -0.3007187 0 -0.9238852 -0.38267 0 -0.9238727 -0.3827001 0 -0.8870131 -0.4617444 0 -0.8870033 -0.4617632 0 -0.8434025 -0.5372822 0 -0.8433777 -0.5373213 0 -0.7933694 -0.6087406 0 -0.7933377 -0.6087819 0 -0.7372817 -0.6755855 0 -0.737263 -0.6756059 0 -0.6756157 -0.737254 0 -0.6755717 -0.7372943 0 -0.6087966 -0.7933264 0 -0.6087443 -0.7933665 0 -0.5373119 -0.8433837 0 -0.5372821 -0.8434026 0 -0.4617527 -0.8870089 0 -0.4617365 -0.8870173 0 -0.3826984 -0.9238733 0 -0.3826812 -0.9238806 0 -0.3007135 -0.9537145 0 -0.3006949 -0.9537204 0 -0.216449 -0.976294 0 -0.2164294 -0.9762983 0 -0.1305324 -0.9914441 0 -0.1305224 -0.9914454 0 -0.04362028 -0.9990482 0 -0.04361772 -0.9990484 0 0.04362028 -0.9990482 0 0.04361772 -0.9990484 0 0.1305325 -0.9914441 0 0.1305223 -0.9914454 0 0.216449 -0.9762941 0 0.2164295 -0.9762983 0 0.3007135 -0.9537145 0 0.3006949 -0.9537204 0 0.3826987 -0.9238733 0 0.382681 -0.9238806 0 0.4617527 -0.8870089 0 0.4617365 -0.8870173 0 0.5373114 -0.8433841 0 0.5372827 -0.8434022 0 0.608796 -0.7933269 0 0.6087449 -0.7933661 0 0.6756164 -0.7372534 0 0.6755711 -0.7372949 0 0.7372817 -0.6755855 0 0.737263 -0.6756059 0 0.7933681 -0.6087422 0 0.7933388 -0.6087803 0 0.8434014 -0.5372841 0 0.8433789 -0.5373195 0 0.8870121 -0.4617465 0 0.8870044 -0.4617612 0 0.9238848 -0.3826711 0 0.9238732 -0.382699 0 0.9537204 -0.3006951 0 0.9537137 -0.3007164 0 0.9762973 -0.2164342 0 0.976294 -0.2164491 0 0.9914456 -0.1305207 0 0.9914449 -0.130526 0 0.9990484 -0.04361677 0 0.9990482 -0.04362112 0 0.9990482 0.04361933 0 0.9990484 0.04361855 0 0.9914456 0.1305207 0 0.9914449 0.130526 0 0.9762979 0.2164317 0 0.9762933 0.2164515 0 0.9537211 0.3006928 0 0.9537129 0.3007187 0 0.9238852 0.38267 0 0.9238727 0.3827001 0 0.8870131 0.4617444 0 0.8870033 0.4617632 0 0.8434025 0.5372822 0 0.8433777 0.5373213 0 0.7933694 0.6087406 0 0.7933377 0.6087819 0 0.7372817 0.6755855 0 0.737263 0.6756059 0 0.6756157 0.737254 0 0.6755717 0.7372943 0 0.6087966 0.7933264 0 0.6087443 0.7933665 0 0.5373119 0.8433837 0 0.5372821 0.8434026 0 0.4617527 0.8870089 0 0.4617365 0.8870173 0 0.3826984 0.9238733 0 0.3826812 0.9238806 0 0.3007135 0.9537145 0 0.3006949 0.9537204 0 0.216449 0.976294 0 0.2164294 0.9762983 0 0.1305324 0.9914441 0 0.1305224 0.9914454 0 0.04362028 0.9990482 0 0.04361772 0.9990484 0 -0.04362028 0.9990482 0 -0.04361772 0.9990484 0 -0.1305325 0.9914441 0 -0.1305223 0.9914454 0 -0.216449 0.9762941 0 -0.2164295 0.9762983 0 -0.3007135 0.9537145 0 -0.3006949 0.9537204 0 -0.3826987 0.9238733 0 -0.382681 0.9238806 0 -0.4617527 0.8870089 0 -0.4617365 0.8870173 0 -0.5373114 0.8433841 0 -0.5372827 0.8434022 0 -0.608796 0.7933269 0 -0.6087449 0.7933661 0 -0.6756164 0.7372534 0 -0.6755711 0.7372949 0 -0.7372817 0.6755855 0 -0.737263 0.6756059 0 -0.7933681 0.6087422 0 -0.7933388 0.6087803 0 -0.8434014 0.5372841 0 -0.8433789 0.5373195 0 -0.8870121 0.4617465 0 -0.8870044 0.4617612 0 -0.9238848 0.3826711 0 -0.9238732 0.382699 0 -0.9537204 0.3006951 0 -0.9537137 0.3007164 0 -0.9762973 0.2164342 0 -0.976294 0.2164491 0 -0.9914456 0.1305207 0 -0.9914449 0.130526 0 -0.9990484 0.04361677 0 -0.9990482 0.04362112 0 0.5690337 -0.07491528 -0.8188946 0.5690312 -0.07491362 -0.8188965 0.5603387 -0.1242239 -0.8188949 0.5603375 -0.1242229 -0.818896 0.5473793 -0.1725888 -0.8188951 0.5473778 -0.1725887 -0.8188961 0.530254 -0.2196376 -0.8188956 0.5302536 -0.2196385 -0.8188956 0.5090938 -0.2650161 -0.8188956 0.5090923 -0.2650182 -0.8188959 0.4840591 -0.3083786 -0.8188953 0.4840588 -0.3083788 -0.8188953 0.4553394 -0.3493946 -0.8188953 0.4553385 -0.3493942 -0.8188959 0.4231564 -0.387749 -0.8188952 0.4231532 -0.3877507 -0.8188962 0.3877505 -0.4231545 -0.8188955 0.3877498 -0.4231551 -0.8188955 0.3493964 -0.4553386 -0.8188949 0.3493931 -0.4553396 -0.8188958 0.3083784 -0.4840578 -0.8188961 0.3083798 -0.484058 -0.8188955 0.2650161 -0.5090929 -0.8188963 0.2650169 -0.5090931 -0.8188958 0.219639 -0.5302544 -0.8188951 0.2196375 -0.5302538 -0.8188958 0.1725888 -0.5473785 -0.8188956 0.1725875 -0.5473783 -0.8188959 0.1242253 -0.5603372 -0.8188959 0.1242251 -0.5603377 -0.8188955 0.07491272 -0.5690327 -0.8188956 0.07491469 -0.5690323 -0.8188956 0.0250343 -0.5733959 -0.8188959 0.0250346 -0.5733966 -0.8188953 -0.02503436 -0.5733965 -0.8188955 -0.0250346 -0.5733962 -0.8188957 -0.07491272 -0.5690327 -0.8188956 -0.07491469 -0.5690323 -0.8188956 -0.1242227 -0.560338 -0.8188956 -0.124225 -0.5603373 -0.8188958 -0.1725862 -0.5473784 -0.8188962 -0.1725897 -0.5473784 -0.8188955 -0.2196391 -0.5302541 -0.8188952 -0.2196372 -0.5302537 -0.8188959 -0.2650163 -0.5090932 -0.818896 -0.2650169 -0.5090931 -0.8188958 -0.3083824 -0.4840578 -0.8188946 -0.3083776 -0.4840581 -0.8188962 -0.3493948 -0.4553396 -0.8188951 -0.3493933 -0.4553387 -0.8188962 -0.3877485 -0.4231553 -0.818896 -0.3877515 -0.4231545 -0.8188949 -0.4231553 -0.3877498 -0.8188955 -0.4231548 -0.3877501 -0.8188955 -0.4553395 -0.3493946 -0.8188953 -0.4553381 -0.3493944 -0.8188962 -0.4840601 -0.3083786 -0.8188946 -0.4840574 -0.3083787 -0.8188962 -0.5090942 -0.2650174 -0.8188949 -0.5090922 -0.265017 -0.8188963 -0.5302521 -0.219639 -0.8188965 -0.530254 -0.2196375 -0.8188956 -0.5473797 -0.1725888 -0.8188948 -0.5473774 -0.1725888 -0.8188963 -0.5603394 -0.1242239 -0.8188946 -0.5603373 -0.1242229 -0.8188961 -0.5690337 -0.07491397 -0.8188948 -0.5690311 -0.07491481 -0.8188965 -0.5733969 -0.0250343 -0.8188952 -0.5733952 -0.02503579 -0.8188963 -0.5733972 0.02503699 -0.8188949 -0.5733952 0.02503347 -0.8188964 -0.5690337 0.07491528 -0.8188946 -0.5690312 0.07491362 -0.8188965 -0.5603387 0.1242239 -0.8188949 -0.5603375 0.1242229 -0.818896 -0.5473793 0.1725888 -0.8188951 -0.5473778 0.1725887 -0.8188961 -0.530254 0.2196376 -0.8188956 -0.5302536 0.2196385 -0.8188956 -0.5090938 0.2650161 -0.8188956 -0.5090923 0.2650182 -0.8188959 -0.4840591 0.3083786 -0.8188953 -0.4840588 0.3083788 -0.8188953 -0.4553394 0.3493946 -0.8188953 -0.4553385 0.3493942 -0.8188959 -0.4231564 0.387749 -0.8188952 -0.4231532 0.3877507 -0.8188962 -0.3877505 0.4231545 -0.8188955 -0.3877498 0.4231551 -0.8188955 -0.3493964 0.4553386 -0.8188949 -0.3493931 0.4553396 -0.8188958 -0.3083784 0.4840578 -0.8188961 -0.3083798 0.484058 -0.8188955 -0.2650161 0.5090929 -0.8188963 -0.2650169 0.5090931 -0.8188958 -0.219639 0.5302544 -0.8188951 -0.2196375 0.5302538 -0.8188958 -0.1725888 0.5473785 -0.8188956 -0.1725875 0.5473783 -0.8188959 -0.1242253 0.5603372 -0.8188959 -0.1242251 0.5603377 -0.8188955 -0.07491272 0.5690327 -0.8188956 -0.07491469 0.5690323 -0.8188956 -0.0250343 0.5733959 -0.8188959 -0.0250346 0.5733966 -0.8188953 0.02503436 0.5733965 -0.8188955 0.0250346 0.5733962 -0.8188957 0.07491272 0.5690327 -0.8188956 0.07491469 0.5690323 -0.8188956 0.1242227 0.560338 -0.8188956 0.124225 0.5603373 -0.8188958 0.1725862 0.5473784 -0.8188962 0.1725897 0.5473784 -0.8188955 0.2196391 0.5302541 -0.8188952 0.2196372 0.5302537 -0.8188959 0.2650163 0.5090932 -0.818896 0.2650169 0.5090931 -0.8188958 0.3083824 0.4840578 -0.8188946 0.3083776 0.4840581 -0.8188962 0.3493948 0.4553396 -0.8188951 0.3493933 0.4553387 -0.8188962 0.3877485 0.4231553 -0.818896 0.3877515 0.4231545 -0.8188949 0.4231553 0.3877498 -0.8188955 0.4231548 0.3877501 -0.8188955 0.4553395 0.3493946 -0.8188953 0.4553381 0.3493944 -0.8188962 0.4840601 0.3083786 -0.8188946 0.4840574 0.3083787 -0.8188962 0.5090942 0.2650174 -0.8188949 0.5090922 0.265017 -0.8188963 0.5302521 0.219639 -0.8188965 0.530254 0.2196375 -0.8188956 0.5473797 0.1725888 -0.8188948 0.5473774 0.1725888 -0.8188963 0.5603394 0.1242239 -0.8188946 0.5603373 0.1242229 -0.8188961 0.5690337 0.07491397 -0.8188948 0.5690311 0.07491481 -0.8188965 0.5733969 0.0250343 -0.8188952 0.5733952 0.02503579 -0.8188963 0.5733972 -0.02503699 -0.8188949 0.5733952 -0.02503347 -0.8188964 1 1.0444e-6 0 1 2.9539e-6 0 1 0 0 1 8.05819e-7 0 1 -1.2838e-6 0 1 -7.81871e-7 0 1 -2.70461e-6 0 1 -2.63926e-6 0 1 -2.55109e-6 0 1 2.90205e-6 0 1 -9.17373e-7 0 0.4999997 -0.8660256 0 0.5000002 -0.8660253 0 0.5000001 -0.8660253 0 0.5000001 -0.8660254 0 0.4999995 -0.8660257 0 0.4999992 -0.866026 0 0.4999995 -0.8660258 0 0.5000007 -0.866025 1.68457e-7 0.4999994 -0.8660258 -1.59443e-7 0.5000008 -0.866025 1.81379e-7 0.5000002 -0.8660254 0 0.5000002 -0.8660253 0 0.4999998 -0.8660255 0 0.5 -0.8660255 0 0.5000004 -0.8660252 0 0.5000004 -0.8660253 0 0.4999999 -0.8660255 0 0.4999998 -0.8660256 0 0.4999997 -0.8660257 0 0.4999999 -0.8660255 0 0.4999998 -0.8660255 0 0.5000004 -0.8660253 0 -0.4999998 -0.8660256 0 -0.5000001 -0.8660253 0 -0.4999997 -0.8660258 0 -0.5000007 -0.8660252 0 -0.4999998 -0.8660256 0 -0.5 -0.8660255 0 -0.4999995 -0.8660258 0 -0.4999999 -0.8660255 0 -0.5000001 -0.8660254 0 -0.5000002 -0.8660254 0 -0.4999996 -0.8660257 0 -0.4999991 -0.8660261 0 -0.5000008 -0.8660251 -1.68457e-7 -0.4999988 -0.8660262 1.59443e-7 -0.5000007 -0.866025 -1.81379e-7 -0.5000003 -0.8660253 0 -0.5000004 -0.8660252 0 -0.4999997 -0.8660256 0 -0.4999998 -0.8660256 0 -0.4999999 -0.8660255 0 -0.4999998 -0.8660255 0 -0.5000004 -0.8660253 0 -1 -1.58594e-6 0 -1 5.9078e-7 0 -1 0 0 -1 1.28646e-6 0 -1 8.05819e-7 0 -1 -2.4689e-6 0 -1 1.2838e-6 0 -1 -7.81871e-7 0 -1 2.56013e-6 0 -1 -2.63927e-6 0 -1 2.90205e-6 0 -1 -1.40271e-6 0 0 0 1 0 0 1 0 0 1 0 0 1 0 0 1 0 0 1 0 0 1 0 0 1 0 0 1 0 0 1 0 0 1 0 0 1 0 0 1 0 0 1 0 0 1 0 0 1 0 0 1 0 0 1 0 0 1 0 0 1 0 0 1 0 0 1 0 0 1 0 0 1 0 0 1 0 0 1 0 0 1 0 0 1 0 0 1 0 0 1 0 0 1 0 0 1 0 0 1 0 0 1 0 0 1 0 0 1 0 0 1 0 0 1 0 0 1 0 0 1 0 0 1 0 0 1 0 0 1 0 0 1 0 0 1 0 0 1 0 0 1 0 0 1 0 0 1 0 0 1 0 0 1 0 0 1 0 0 1 0 0 1 0 0 1 0 0 1 0 0 1 0 0 1 0 0 1 0 0 1 0 0 1 0 0 1 0 0 1 0 0 1 0 0 1 0 0 1 0 0 1 0 0 1 0 0 1 0 0 1 0 0 1 0 0 1 0 0 1 0 0 1 0 0 1 0 0 1 0 0 1 0 0 1 0 0 1 0 0 1 0 0 1 0 0 1 0 0 1 0 0 1 0 0 1 0 0 1 0 0 1 0 0 1 0 0 1 0 0 1 0 0 1 0 0 1 0 0 1 0 0 1 0 0 1 0 0 1 0 0 1 0 0 1 0 0 1 0 0 1 0 0 1 0 0 1 0 0 1 0 0 1 0 0 1 0 0 1 0 0 1 0 0 1 0 0 1 0 0 1 0 0 1 0 0 1 0 0 1 0 0 1 0 0 1 0 0 1 0 0 1 0 0 1 0 0 1 0 0 1 0 0 1 0 0 1 0 0 1 0 0 1 0 0 1 0 0 1 0 0 1 0 0 1 0 0 1 0 0 1 0 0 1 0 0 1 0 0 1 0 0 1 0 0 1 0 0 1 0 0 1 0 0 1 0 0 1 0 0 1 0 0 1 0 0 1 0 0 1 0 0 1 0 0 1 0 0 1 0 0 1 0 0 1 0 0 1 0 0 1 0 0 -1 1.38786e-6 0 -1 -4.65971e-7 0 -1 -2.32908e-7 0 -1 -6.94541e-7 0 -1 2.3285e-7 0 -1 6.94846e-7 0 -1 0 0 -1 2.51859e-7 0 -1 -2.32346e-7 0 -1 -3.49432e-7 0 -1 9.37506e-7 0 -1 -4.68692e-7 0 -1 -2.3424e-7 0 -1 6.94822e-7 0 -1 -2.34164e-7 0 -1 -2.51859e-7 0 -1 2.32346e-7 0 -1 3.49432e-7 0 -1 -6.99681e-7 0 -1 1.86404e-6 0 -1 -1.38798e-6 0 -1 2.78718e-6 0 -1 -2.79245e-6 0 -1 2.77645e-6 0 -1 -2.77816e-6 0 -1 -2.0278e-6 0 -1 1.86967e-6 0 -1 -2.79318e-6 0 -1 2.79653e-6 0 -1 -4.68784e-7 0 -1 -2.77645e-6 0 -1 2.77816e-6 0 -1 -1.85768e-6 0 -1 2.79245e-6 0 -1 -2.79546e-6 0 -1 9.32018e-7 0 -1 -1.86404e-6 0 -1 1.38798e-6 0 -1 -2.78718e-6 0 -1 2.79245e-6 0 -1 0.4999193 0.02026647 -0.8658348 0.4966089 0.06066513 -0.8658519 0.4966114 0.06066626 -0.8658503 0.4900754 0.1006658 -0.8658478 0.4900714 0.1006658 -0.8658502 0.480316 0.1400068 -0.8658491 0.4803209 0.1400072 -0.8658464 0.4674104 0.1784288 -0.8658468 0.4674074 0.1784293 -0.8658484 0.451431 0.2156783 -0.8658481 0.4528412 0.2235757 -0.8631042 0.2661752 0.4236001 -0.8658601 0.2983378 0.401632 -0.8658444 0.298323 0.4016344 -0.8658484 0.3298698 0.3761649 -0.8658441 0.3298593 0.3761634 -0.8658487 0.3592321 0.3482286 -0.865846 0.359227 0.348228 -0.8658483 0.3862393 0.3180062 -0.8658472 0.3862384 0.3180072 -0.8658472 0.4172028 0.2768972 -0.8656036 0.4170489 0.2901048 -0.8613417 0.430522 0.2503697 -0.8671597 0.2336476 0.4423404 -0.8658776 0.1983147 0.4593155 -0.8658525 0.1983324 0.4593232 -0.8658444 0.1602629 0.4739496 -0.8658451 0.1602665 0.4739462 -0.8658463 0.1211413 0.4854224 -0.8658465 0.1211403 0.4854235 -0.8658459 0.08121067 0.4936775 -0.8658449 0.08120876 0.4936771 -0.8658453 0.04074209 0.4986495 -0.8658457 0.03411823 0.5044111 -0.8627893 -0.2336476 0.4423404 -0.8658776 -0.1983361 0.4593297 -0.86584 -0.1983276 0.4593199 -0.8658474 -0.1602609 0.4739451 -0.8658479 -0.1602674 0.4739479 -0.8658451 -0.1211404 0.4854209 -0.8658473 -0.1211404 0.4854245 -0.8658453 -0.08121055 0.4936771 -0.8658452 -0.08120959 0.4936774 -0.8658451 -0.03059387 0.4997661 -0.86562 -0.04131519 0.5056864 -0.8617275 0 0.4979933 -0.867181 -0.4999386 0.01881575 -0.8658565 -0.4970192 0.05790579 -0.8658054 -0.496937 0.05790358 -0.8658527 -0.4905804 0.09817755 -0.8658476 -0.4905845 0.09818035 -0.865845 -0.4809607 0.1378031 -0.8658449 -0.4809595 0.1377999 -0.8658459 -0.468141 0.176508 -0.8658459 -0.4681411 0.1765086 -0.8658457 -0.4481066 0.2233874 -0.8656203 -0.266256 0.4235256 -0.8658718 -0.2986114 0.4014213 -0.8658478 -0.2986208 0.4014156 -0.8658471 -0.3303058 0.37577 -0.8658492 -0.3303225 0.375766 -0.8658446 -0.3598202 0.347621 -0.8658458 -0.3598181 0.3476223 -0.8658462 -0.3869308 0.317168 -0.8658459 -0.3869317 0.3171678 -0.8658456 -0.411473 0.284608 -0.8658454 -0.4197735 0.2817533 -0.8627893 -0.4312754 0.2489967 -0.8671807 -0.4585952 0.2170625 -0.8617277 -0.4999386 -0.01881575 -0.8658565 -0.4969328 -0.05790472 -0.865855 -0.496957 -0.05790364 -0.8658412 -0.4905785 -0.09817928 -0.8658486 -0.4905852 -0.09818023 -0.8658447 -0.4809606 -0.1377993 -0.8658455 -0.4809597 -0.1378021 -0.8658455 -0.4681402 -0.1765074 -0.8658463 -0.4681415 -0.1765089 -0.8658454 -0.4522141 -0.2140426 -0.8658455 -0.4538929 -0.2226564 -0.8627894 -0.266256 -0.4235256 -0.8658718 -0.2986277 -0.4014167 -0.8658443 -0.298617 -0.401417 -0.8658478 -0.3303156 -0.3757672 -0.8658468 -0.3303184 -0.3757676 -0.8658456 -0.3598176 -0.3476197 -0.8658475 -0.3598179 -0.3476226 -0.8658462 -0.3869315 -0.3171688 -0.8658453 -0.386932 -0.3171676 -0.8658456 -0.4175131 -0.2763776 -0.8656201 -0.4172788 -0.2886235 -0.8617279 -0.4312756 -0.2489967 -0.8671806</float_array>
          <technique_common>
            <accessor source="#hex_nut_style_1_am_b18_2_4_1m___hex_nut__style_1___m10_x_1_5__w-mesh-normals-array" count="1156" stride="3">
              <param name="X" type="float"/>
              <param name="Y" type="float"/>
              <param name="Z" type="float"/>
            </accessor>
          </technique_common>
        </source>
        <vertices id="hex_nut_style_1_am_b18_2_4_1m___hex_nut__style_1___m10_x_1_5__w-mesh-vertices">
          <input semantic="POSITION" source="#hex_nut_style_1_am_b18_2_4_1m___hex_nut__style_1___m10_x_1_5__w-mesh-positions"/>
        </vertices>
        <triangles count="1296">
          <input semantic="VERTEX" source="#hex_nut_style_1_am_b18_2_4_1m___hex_nut__style_1___m10_x_1_5__w-mesh-vertices" offset="0"/>
          <input semantic="NORMAL" source="#hex_nut_style_1_am_b18_2_4_1m___hex_nut__style_1___m10_x_1_5__w-mesh-normals" offset="1"/>
          <p>0 0 1 0 2 0 1 1 3 1 2 1 2 2 3 2 4 2 3 3 5 3 4 3 4 4 5 4 6 4 5 5 7 5 6 5 6 6 7 6 8 6 7 7 9 7 8 7 8 8 9 8 10 8 9 9 11 9 10 9 10 10 11 10 12 10 13 11 14 11 15 11 14 12 16 12 15 12 15 13 16 13 17 13 16 14 18 14 17 14 17 15 18 15 19 15 18 16 20 16 19 16 19 17 20 17 21 17 20 18 22 18 21 18 21 19 22 19 23 19 22 20 12 20 23 20 23 21 12 21 24 21 12 22 11 22 24 22 25 23 26 23 27 23 26 24 28 24 27 24 27 25 28 25 29 25 28 26 30 26 29 26 29 27 30 27 31 27 30 28 32 28 31 28 31 29 32 29 33 29 32 30 34 30 33 30 33 31 34 31 35 31 34 32 36 32 35 32 35 33 36 33 37 33 0 34 38 34 39 34 38 35 40 35 39 35 39 36 40 36 41 36 40 37 42 37 41 37 41 38 42 38 43 38 42 39 44 39 43 39 43 40 44 40 45 40 44 41 46 41 45 41 45 42 46 42 47 42 46 43 37 43 47 43 47 44 37 44 48 44 37 45 36 45 48 45 25 46 49 46 50 46 49 47 51 47 50 47 50 48 51 48 52 48 51 49 53 49 52 49 52 50 53 50 54 50 53 51 55 51 54 51 54 52 55 52 56 52 55 53 57 53 56 53 56 54 57 54 58 54 57 55 59 55 58 55 60 56 61 56 62 56 61 57 63 57 62 57 62 58 63 58 64 58 63 59 65 59 64 59 64 60 65 60 66 60 65 61 67 61 66 61 66 62 67 62 68 62 67 63 69 63 68 63 68 64 69 64 70 64 69 65 71 65 70 65 70 66 71 66 59 66 71 67 72 67 59 67 59 68 72 68 58 68 73 69 74 69 75 69 74 70 76 70 75 70 75 71 76 71 77 71 76 72 78 72 77 72 77 73 78 73 79 73 78 74 80 74 79 74 79 75 80 75 81 75 80 76 82 76 81 76 81 77 82 77 83 77 82 78 84 78 83 78 83 79 84 79 85 79 60 80 86 80 87 80 86 81 88 81 87 81 87 82 88 82 89 82 88 83 90 83 89 83 89 84 90 84 91 84 90 85 92 85 91 85 91 86 92 86 93 86 92 87 94 87 93 87 93 88 94 88 95 88 94 89 85 89 95 89 95 90 85 90 96 90 85 91 84 91 96 91 97 92 98 92 99 92 98 93 100 93 99 93 99 94 100 94 101 94 100 95 102 95 101 95 101 96 102 96 103 96 102 97 104 97 103 97 103 98 104 98 105 98 104 99 106 99 105 99 105 100 106 100 107 100 106 101 108 101 107 101 107 102 108 102 109 102 73 103 110 103 111 103 110 104 112 104 111 104 111 105 112 105 113 105 112 106 114 106 113 106 113 107 114 107 115 107 114 108 116 108 115 108 115 109 116 109 117 109 116 110 118 110 117 110 117 111 118 111 119 111 118 112 109 112 119 112 119 113 109 113 120 113 109 114 108 114 120 114 97 115 121 115 122 115 121 116 123 116 122 116 122 117 123 117 124 117 123 118 125 118 124 118 124 119 125 119 126 119 125 120 127 120 126 120 126 121 127 121 128 121 127 122 129 122 128 122 128 123 129 123 130 123 129 124 131 124 130 124 13 125 132 125 133 125 132 126 134 126 133 126 133 127 134 127 135 127 134 128 136 128 135 128 135 129 136 129 137 129 136 130 138 130 137 130 137 131 138 131 139 131 138 132 140 132 139 132 139 133 140 133 141 133 140 134 142 134 141 134 141 135 142 135 131 135 142 136 143 136 131 136 131 137 143 137 130 137 144 138 145 138 146 138 145 139 147 139 146 139 146 140 147 140 148 140 147 141 149 141 148 141 148 142 149 142 150 142 149 143 151 143 150 143 150 144 151 144 152 144 151 145 153 145 152 145 152 146 153 146 154 146 153 147 155 147 154 147 156 148 157 148 158 148 157 149 159 149 158 149 158 150 159 150 160 150 159 151 161 151 160 151 160 152 161 152 162 152 161 153 163 153 162 153 162 154 163 154 164 154 163 155 165 155 164 155 164 156 165 156 166 156 165 157 167 157 166 157 166 158 167 158 155 158 167 159 168 159 155 159 155 160 168 160 154 160 169 161 170 161 171 161 170 162 172 162 171 162 171 163 172 163 173 163 172 164 174 164 173 164 173 165 174 165 175 165 174 166 176 166 175 166 175 167 176 167 177 167 176 168 178 168 177 168 177 169 178 169 179 169 178 170 180 170 179 170 179 171 180 171 181 171 156 172 182 172 183 172 182 173 184 173 183 173 183 174 184 174 185 174 184 175 186 175 185 175 185 176 186 176 187 176 186 177 188 177 187 177 187 178 188 178 189 178 188 179 190 179 189 179 189 180 190 180 191 180 190 181 181 181 191 181 191 182 181 182 192 182 181 183 180 183 192 183 193 184 8 184 10 184 193 185 10 185 194 185 10 186 12 186 194 186 194 187 12 187 195 187 44 188 196 188 197 188 2 189 4 189 193 189 4 190 6 190 193 190 193 191 6 191 8 191 196 192 44 192 198 192 197 193 199 193 44 193 199 194 200 194 44 194 44 195 200 195 46 195 200 196 201 196 46 196 46 197 201 197 37 197 193 198 202 198 2 198 202 199 203 199 2 199 2 200 203 200 0 200 203 201 204 201 0 201 0 202 204 202 205 202 44 203 42 203 198 203 42 204 40 204 198 204 198 205 40 205 205 205 40 206 38 206 205 206 205 207 38 207 0 207 55 208 206 208 207 208 55 209 207 209 57 209 207 210 208 210 57 210 57 211 208 211 59 211 209 212 29 212 31 212 210 213 211 213 55 213 211 214 212 214 55 214 55 215 212 215 206 215 29 216 209 216 27 216 31 217 33 217 209 217 33 218 35 218 209 218 209 219 35 219 213 219 35 220 37 220 213 220 213 221 37 221 201 221 55 222 53 222 210 222 53 223 51 223 210 223 210 224 51 224 214 224 51 225 49 225 214 225 214 225 49 225 25 225 209 226 215 226 27 226 215 227 216 227 27 227 27 228 216 228 25 228 216 229 217 229 25 229 25 219 217 219 214 219 218 230 219 230 220 230 219 231 221 231 220 231 220 232 221 232 222 232 221 233 223 233 222 233 222 234 223 234 224 234 223 235 225 235 224 235 224 236 225 236 226 236 225 237 227 237 226 237 226 238 227 238 228 238 227 239 229 239 228 239 228 240 229 240 230 240 229 241 231 241 230 241 230 242 231 242 232 242 231 243 233 243 232 243 232 244 233 244 234 244 233 245 235 245 234 245 234 246 235 246 236 246 235 247 237 247 236 247 236 248 237 248 238 248 237 249 239 249 238 249 238 250 239 250 240 250 239 251 241 251 240 251 240 252 241 252 242 252 241 253 243 253 242 253 242 254 243 254 244 254 243 255 245 255 244 255 244 256 245 256 246 256 245 257 247 257 246 257 246 258 247 258 248 258 247 259 249 259 248 259 248 260 249 260 250 260 249 261 251 261 250 261 250 262 251 262 252 262 251 263 253 263 252 263 252 264 253 264 254 264 253 265 255 265 254 265 254 266 255 266 256 266 255 267 257 267 256 267 256 268 257 268 258 268 257 269 259 269 258 269 258 270 259 270 260 270 259 271 261 271 260 271 260 272 261 272 262 272 261 273 263 273 262 273 262 274 263 274 264 274 263 275 265 275 264 275 264 276 265 276 266 276 265 277 267 277 266 277 266 278 267 278 268 278 267 279 269 279 268 279 268 280 269 280 270 280 269 281 271 281 270 281 270 282 271 282 272 282 271 283 273 283 272 283 272 284 273 284 274 284 273 285 275 285 274 285 274 286 275 286 276 286 275 287 277 287 276 287 276 288 277 288 278 288 277 289 279 289 278 289 278 290 279 290 280 290 279 291 281 291 280 291 280 292 281 292 282 292 281 293 283 293 282 293 282 294 283 294 284 294 283 295 285 295 284 295 284 296 285 296 286 296 285 297 287 297 286 297 286 298 287 298 288 298 287 299 289 299 288 299 288 300 289 300 290 300 289 301 291 301 290 301 290 302 291 302 292 302 291 303 293 303 292 303 292 304 293 304 294 304 293 305 295 305 294 305 294 306 295 306 296 306 295 307 297 307 296 307 296 308 297 308 298 308 297 309 299 309 298 309 298 310 299 310 300 310 299 311 301 311 300 311 300 312 301 312 302 312 301 313 303 313 302 313 302 314 303 314 304 314 303 315 305 315 304 315 304 316 305 316 306 316 305 317 307 317 306 317 306 318 307 318 308 318 307 319 309 319 308 319 308 320 309 320 310 320 309 321 311 321 310 321 310 322 311 322 312 322 311 323 313 323 312 323 312 324 313 324 314 324 313 325 315 325 314 325 314 326 315 326 316 326 315 327 317 327 316 327 316 328 317 328 318 328 317 329 319 329 318 329 318 330 319 330 320 330 319 331 321 331 320 331 320 332 321 332 322 332 321 333 323 333 322 333 322 334 323 334 324 334 323 335 325 335 324 335 324 336 325 336 326 336 325 337 327 337 326 337 326 338 327 338 328 338 327 339 329 339 328 339 328 340 329 340 330 340 329 341 331 341 330 341 330 342 331 342 332 342 331 343 333 343 332 343 332 344 333 344 334 344 333 345 335 345 334 345 334 346 335 346 336 346 335 347 337 347 336 347 336 348 337 348 338 348 337 349 339 349 338 349 338 350 339 350 340 350 339 351 341 351 340 351 340 352 341 352 342 352 341 353 343 353 342 353 342 354 343 354 344 354 343 355 345 355 344 355 344 356 345 356 346 356 345 357 347 357 346 357 346 358 347 358 348 358 347 359 349 359 348 359 348 360 349 360 350 360 349 361 351 361 350 361 350 362 351 362 352 362 351 363 353 363 352 363 352 364 353 364 354 364 353 365 355 365 354 365 354 366 355 366 356 366 355 367 357 367 356 367 356 368 357 368 358 368 357 369 359 369 358 369 358 370 359 370 360 370 359 371 361 371 360 371 360 372 361 372 218 372 361 373 219 373 218 373 221 374 362 374 223 374 362 375 363 375 223 375 223 376 363 376 225 376 363 377 364 377 225 377 225 378 364 378 227 378 364 379 365 379 227 379 227 380 365 380 229 380 365 381 366 381 229 381 229 382 366 382 231 382 366 383 367 383 231 383 231 384 367 384 233 384 367 385 368 385 233 385 233 386 368 386 235 386 368 387 369 387 235 387 235 388 369 388 237 388 369 389 370 389 237 389 237 390 370 390 239 390 370 391 371 391 239 391 239 392 371 392 241 392 371 393 372 393 241 393 241 394 372 394 243 394 372 395 373 395 243 395 243 396 373 396 245 396 373 397 374 397 245 397 245 398 374 398 247 398 374 399 375 399 247 399 247 400 375 400 249 400 375 401 376 401 249 401 249 402 376 402 251 402 376 403 377 403 251 403 251 404 377 404 253 404 377 405 378 405 253 405 253 406 378 406 255 406 378 407 379 407 255 407 255 408 379 408 257 408 379 409 380 409 257 409 257 410 380 410 259 410 380 411 381 411 259 411 259 412 381 412 261 412 381 413 382 413 261 413 261 414 382 414 263 414 382 415 383 415 263 415 263 416 383 416 265 416 383 417 384 417 265 417 265 418 384 418 267 418 384 419 385 419 267 419 267 420 385 420 269 420 385 421 386 421 269 421 269 422 386 422 271 422 386 423 387 423 271 423 271 424 387 424 273 424 387 425 388 425 273 425 273 426 388 426 275 426 388 427 389 427 275 427 275 428 389 428 277 428 389 429 390 429 277 429 277 430 390 430 279 430 390 431 391 431 279 431 279 432 391 432 281 432 391 433 392 433 281 433 281 434 392 434 283 434 392 435 393 435 283 435 283 436 393 436 285 436 393 437 394 437 285 437 285 438 394 438 287 438 394 439 395 439 287 439 287 440 395 440 289 440 395 441 396 441 289 441 289 442 396 442 291 442 396 443 397 443 291 443 291 444 397 444 293 444 397 445 398 445 293 445 293 446 398 446 295 446 398 447 399 447 295 447 295 448 399 448 297 448 399 449 400 449 297 449 297 450 400 450 299 450 400 451 401 451 299 451 299 452 401 452 301 452 401 453 402 453 301 453 301 454 402 454 303 454 402 455 403 455 303 455 303 456 403 456 305 456 403 457 404 457 305 457 305 458 404 458 307 458 404 459 405 459 307 459 307 460 405 460 309 460 405 461 406 461 309 461 309 462 406 462 311 462 406 463 407 463 311 463 311 464 407 464 313 464 407 465 408 465 313 465 313 466 408 466 315 466 408 467 409 467 315 467 315 468 409 468 317 468 409 469 410 469 317 469 317 470 410 470 319 470 410 471 411 471 319 471 319 472 411 472 321 472 411 473 412 473 321 473 321 474 412 474 323 474 412 475 413 475 323 475 323 476 413 476 325 476 413 477 414 477 325 477 325 478 414 478 327 478 414 479 415 479 327 479 327 480 415 480 329 480 415 481 416 481 329 481 329 482 416 482 331 482 416 483 417 483 331 483 331 484 417 484 333 484 417 485 418 485 333 485 333 486 418 486 335 486 418 487 419 487 335 487 335 488 419 488 337 488 419 489 420 489 337 489 337 490 420 490 339 490 420 491 421 491 339 491 339 492 421 492 341 492 421 493 422 493 341 493 341 494 422 494 343 494 422 495 423 495 343 495 343 496 423 496 345 496 423 497 424 497 345 497 345 498 424 498 347 498 424 499 425 499 347 499 347 500 425 500 349 500 425 501 426 501 349 501 349 502 426 502 351 502 426 503 427 503 351 503 351 504 427 504 353 504 427 505 428 505 353 505 353 506 428 506 355 506 428 507 429 507 355 507 355 508 429 508 357 508 429 509 430 509 357 509 357 510 430 510 359 510 430 511 431 511 359 511 359 512 431 512 361 512 431 513 432 513 361 513 361 514 432 514 219 514 432 515 433 515 219 515 219 516 433 516 221 516 433 517 362 517 221 517 434 518 435 518 436 518 435 519 437 519 436 519 436 520 437 520 438 520 437 521 439 521 438 521 438 522 439 522 440 522 439 523 441 523 440 523 440 524 441 524 442 524 441 525 443 525 442 525 442 526 443 526 444 526 443 527 445 527 444 527 444 528 445 528 446 528 445 529 447 529 446 529 446 530 447 530 448 530 447 531 449 531 448 531 448 532 449 532 450 532 449 533 451 533 450 533 450 534 451 534 452 534 451 535 453 535 452 535 452 536 453 536 454 536 453 537 455 537 454 537 454 538 455 538 456 538 455 539 457 539 456 539 456 540 457 540 458 540 457 541 459 541 458 541 458 542 459 542 460 542 459 543 461 543 460 543 460 544 461 544 462 544 461 545 463 545 462 545 462 546 463 546 464 546 463 547 465 547 464 547 464 548 465 548 466 548 465 549 467 549 466 549 466 550 467 550 468 550 467 551 469 551 468 551 468 552 469 552 470 552 469 553 471 553 470 553 470 554 471 554 472 554 471 555 473 555 472 555 472 556 473 556 474 556 473 557 475 557 474 557 474 558 475 558 476 558 475 559 477 559 476 559 476 560 477 560 478 560 477 561 479 561 478 561 478 562 479 562 480 562 479 563 481 563 480 563 480 564 481 564 482 564 481 565 483 565 482 565 482 566 483 566 484 566 483 567 485 567 484 567 484 568 485 568 486 568 485 569 487 569 486 569 486 570 487 570 488 570 487 571 489 571 488 571 488 572 489 572 490 572 489 573 491 573 490 573 490 574 491 574 492 574 491 575 493 575 492 575 492 576 493 576 494 576 493 577 495 577 494 577 494 578 495 578 496 578 495 579 497 579 496 579 496 580 497 580 498 580 497 581 499 581 498 581 498 582 499 582 500 582 499 583 501 583 500 583 500 584 501 584 502 584 501 585 503 585 502 585 502 586 503 586 504 586 503 587 505 587 504 587 504 588 505 588 506 588 505 589 507 589 506 589 506 590 507 590 508 590 507 591 509 591 508 591 508 592 509 592 510 592 509 593 511 593 510 593 510 594 511 594 512 594 511 595 513 595 512 595 512 596 513 596 514 596 513 597 515 597 514 597 514 598 515 598 516 598 515 599 517 599 516 599 516 600 517 600 518 600 517 601 519 601 518 601 518 602 519 602 520 602 519 603 521 603 520 603 520 604 521 604 522 604 521 605 523 605 522 605 522 606 523 606 524 606 523 607 525 607 524 607 524 608 525 608 526 608 525 609 527 609 526 609 526 610 527 610 528 610 527 611 529 611 528 611 528 612 529 612 530 612 529 613 531 613 530 613 530 614 531 614 532 614 531 615 533 615 532 615 532 616 533 616 534 616 533 617 535 617 534 617 534 618 535 618 536 618 535 619 537 619 536 619 536 620 537 620 538 620 537 621 539 621 538 621 538 622 539 622 540 622 539 623 541 623 540 623 540 624 541 624 542 624 541 625 543 625 542 625 542 626 543 626 544 626 543 627 545 627 544 627 544 628 545 628 546 628 545 629 547 629 546 629 546 630 547 630 548 630 547 631 549 631 548 631 548 632 549 632 550 632 549 633 551 633 550 633 550 634 551 634 552 634 551 635 553 635 552 635 552 636 553 636 554 636 553 637 555 637 554 637 554 638 555 638 556 638 555 639 557 639 556 639 556 640 557 640 558 640 557 641 559 641 558 641 558 642 559 642 560 642 559 643 561 643 560 643 560 644 561 644 562 644 561 645 563 645 562 645 562 646 563 646 564 646 563 647 565 647 564 647 564 648 565 648 566 648 565 649 567 649 566 649 566 650 567 650 568 650 567 651 569 651 568 651 568 652 569 652 570 652 569 653 571 653 570 653 570 654 571 654 572 654 571 655 573 655 572 655 572 656 573 656 574 656 573 657 575 657 574 657 574 658 575 658 576 658 575 659 577 659 576 659 576 660 577 660 434 660 577 661 435 661 434 661 288 662 505 662 286 662 505 663 503 663 286 663 286 664 503 664 284 664 503 665 501 665 284 665 284 666 501 666 282 666 501 667 499 667 282 667 282 668 499 668 280 668 499 669 497 669 280 669 280 670 497 670 278 670 497 671 495 671 278 671 278 672 495 672 276 672 495 673 493 673 276 673 276 674 493 674 274 674 493 675 491 675 274 675 274 676 491 676 272 676 491 677 489 677 272 677 272 678 489 678 270 678 489 679 487 679 270 679 270 680 487 680 268 680 487 681 485 681 268 681 268 682 485 682 266 682 485 683 483 683 266 683 266 684 483 684 264 684 483 685 481 685 264 685 264 686 481 686 262 686 481 687 479 687 262 687 262 688 479 688 260 688 479 689 477 689 260 689 260 690 477 690 258 690 477 691 475 691 258 691 258 692 475 692 256 692 475 693 473 693 256 693 256 694 473 694 254 694 473 695 471 695 254 695 254 696 471 696 252 696 471 697 469 697 252 697 252 698 469 698 250 698 469 699 467 699 250 699 250 700 467 700 248 700 467 701 465 701 248 701 248 702 465 702 246 702 465 703 463 703 246 703 246 704 463 704 244 704 463 705 461 705 244 705 244 706 461 706 242 706 461 707 459 707 242 707 242 708 459 708 240 708 459 709 457 709 240 709 240 710 457 710 238 710 457 711 455 711 238 711 238 712 455 712 236 712 455 713 453 713 236 713 236 714 453 714 234 714 453 715 451 715 234 715 234 716 451 716 232 716 451 717 449 717 232 717 232 718 449 718 230 718 449 719 447 719 230 719 230 720 447 720 228 720 447 721 445 721 228 721 228 722 445 722 226 722 445 723 443 723 226 723 226 724 443 724 224 724 443 725 441 725 224 725 224 726 441 726 222 726 441 727 439 727 222 727 222 728 439 728 220 728 439 729 437 729 220 729 220 730 437 730 218 730 437 731 435 731 218 731 218 732 435 732 360 732 435 733 577 733 360 733 360 734 577 734 358 734 577 735 575 735 358 735 358 736 575 736 356 736 575 737 573 737 356 737 356 738 573 738 354 738 573 739 571 739 354 739 354 740 571 740 352 740 571 741 569 741 352 741 352 742 569 742 350 742 569 743 567 743 350 743 350 744 567 744 348 744 567 745 565 745 348 745 348 746 565 746 346 746 565 747 563 747 346 747 346 748 563 748 344 748 563 749 561 749 344 749 344 750 561 750 342 750 561 751 559 751 342 751 342 752 559 752 340 752 559 753 557 753 340 753 340 754 557 754 338 754 557 755 555 755 338 755 338 756 555 756 336 756 555 757 553 757 336 757 336 758 553 758 334 758 553 759 551 759 334 759 334 760 551 760 332 760 551 761 549 761 332 761 332 762 549 762 330 762 549 763 547 763 330 763 330 764 547 764 328 764 547 765 545 765 328 765 328 766 545 766 326 766 545 767 543 767 326 767 326 768 543 768 324 768 543 769 541 769 324 769 324 770 541 770 322 770 541 771 539 771 322 771 322 772 539 772 320 772 539 773 537 773 320 773 320 774 537 774 318 774 537 775 535 775 318 775 318 776 535 776 316 776 535 777 533 777 316 777 316 778 533 778 314 778 533 779 531 779 314 779 314 780 531 780 312 780 531 781 529 781 312 781 312 782 529 782 310 782 529 783 527 783 310 783 310 784 527 784 308 784 527 785 525 785 308 785 308 786 525 786 306 786 525 787 523 787 306 787 306 788 523 788 304 788 523 789 521 789 304 789 304 790 521 790 302 790 521 791 519 791 302 791 302 792 519 792 300 792 519 793 517 793 300 793 300 794 517 794 298 794 517 795 515 795 298 795 298 796 515 796 296 796 515 797 513 797 296 797 296 798 513 798 294 798 513 799 511 799 294 799 294 800 511 800 292 800 511 801 509 801 292 801 292 802 509 802 290 802 509 803 507 803 290 803 290 804 507 804 288 804 507 805 505 805 288 805 20 806 578 806 579 806 151 807 135 807 137 807 135 808 151 808 133 808 20 808 579 808 22 808 579 809 195 809 22 809 22 808 195 808 12 808 137 808 139 808 151 808 139 808 141 808 151 808 151 810 141 810 153 810 141 811 131 811 153 811 153 808 131 808 155 808 20 808 18 808 578 808 18 812 16 812 578 812 578 808 16 808 580 808 16 808 14 808 580 808 580 808 14 808 581 808 581 813 14 813 582 813 14 808 13 808 582 808 582 808 13 808 144 808 151 808 149 808 133 808 149 814 147 814 133 814 133 815 147 815 13 815 147 808 145 808 13 808 13 816 145 816 144 816 155 817 131 817 166 817 131 818 129 818 166 818 166 819 129 819 164 819 129 820 127 820 164 820 127 821 125 821 164 821 125 822 123 822 164 822 164 823 123 823 162 823 123 824 121 824 162 824 162 825 121 825 160 825 121 826 97 826 160 826 160 827 97 827 158 827 97 828 156 828 158 828 97 829 99 829 156 829 99 830 101 830 156 830 156 823 101 823 182 823 101 831 103 831 182 831 182 819 103 819 184 819 103 832 105 832 184 832 184 833 105 833 186 833 109 834 181 834 107 834 181 835 190 835 107 835 107 836 190 836 105 836 190 837 188 837 105 837 105 838 188 838 186 838 85 839 583 839 83 839 583 840 584 840 83 840 83 841 584 841 81 841 584 842 585 842 81 842 169 843 171 843 73 843 171 844 173 844 73 844 73 845 173 845 110 845 173 846 175 846 110 846 110 847 175 847 112 847 175 848 177 848 112 848 112 842 177 842 114 842 585 849 586 849 81 849 586 848 587 848 81 848 81 850 587 850 79 850 587 851 588 851 79 851 79 852 588 852 77 852 588 853 169 853 77 853 77 854 169 854 75 854 169 855 73 855 75 855 181 856 109 856 179 856 109 857 118 857 179 857 179 858 118 858 177 858 118 859 116 859 177 859 177 860 116 860 114 860 589 861 68 861 70 861 92 862 590 862 591 862 590 863 92 863 592 863 589 864 70 864 593 864 70 865 59 865 593 865 593 863 59 863 208 863 591 863 594 863 92 863 594 866 595 866 92 866 92 867 595 867 94 867 595 868 583 868 94 868 94 863 583 863 85 863 589 863 596 863 68 863 596 863 597 863 68 863 68 863 597 863 66 863 597 863 598 863 66 863 66 869 598 869 64 869 64 870 598 870 62 870 598 863 599 863 62 863 62 863 599 863 60 863 92 863 90 863 592 863 90 863 88 863 592 863 592 871 88 871 599 871 88 863 86 863 599 863 599 872 86 872 60 872 427 873 142 873 428 873 142 874 140 874 428 874 428 875 140 875 429 875 140 876 138 876 429 876 429 877 138 877 430 877 138 878 136 878 430 878 430 879 136 879 431 879 136 880 134 880 431 880 431 881 134 881 432 881 134 882 132 882 432 882 432 883 132 883 433 883 132 884 13 884 433 884 433 885 13 885 362 885 13 886 15 886 362 886 362 887 15 887 363 887 15 888 17 888 363 888 363 889 17 889 364 889 17 890 19 890 364 890 364 891 19 891 365 891 19 892 21 892 365 892 365 893 21 893 366 893 390 894 72 894 391 894 72 895 71 895 391 895 391 896 71 896 392 896 71 897 69 897 392 897 392 898 69 898 393 898 69 899 67 899 393 899 393 900 67 900 394 900 67 901 65 901 394 901 394 902 65 902 395 902 65 903 63 903 395 903 395 904 63 904 396 904 63 905 61 905 396 905 396 906 61 906 397 906 61 907 60 907 397 907 397 908 60 908 398 908 60 909 87 909 398 909 398 910 87 910 399 910 87 911 89 911 399 911 399 912 89 912 400 912 89 913 91 913 400 913 400 914 91 914 401 914 91 915 93 915 401 915 401 916 93 916 402 916 93 917 95 917 402 917 402 918 95 918 403 918 95 919 96 919 403 919 96 920 84 920 403 920 403 921 84 921 404 921 84 922 82 922 404 922 404 923 82 923 405 923 82 924 80 924 405 924 405 925 80 925 406 925 80 926 78 926 406 926 406 927 78 927 407 927 78 928 76 928 407 928 407 929 76 929 408 929 76 930 74 930 408 930 408 931 74 931 409 931 74 932 73 932 409 932 409 933 73 933 410 933 73 934 111 934 410 934 410 935 111 935 411 935 111 936 113 936 411 936 411 937 113 937 412 937 113 938 115 938 412 938 412 939 115 939 413 939 115 940 117 940 413 940 413 941 117 941 414 941 117 942 119 942 414 942 414 943 119 943 415 943 21 944 23 944 366 944 23 945 24 945 366 945 366 946 24 946 367 946 24 947 11 947 367 947 367 948 11 948 368 948 11 949 9 949 368 949 368 950 9 950 369 950 9 951 7 951 369 951 369 952 7 952 370 952 7 953 5 953 370 953 370 954 5 954 371 954 5 955 3 955 371 955 371 956 3 956 372 956 3 957 1 957 372 957 372 958 1 958 373 958 1 959 0 959 373 959 373 960 0 960 374 960 0 961 39 961 374 961 374 962 39 962 375 962 39 963 41 963 375 963 375 964 41 964 376 964 41 965 43 965 376 965 376 966 43 966 377 966 43 967 45 967 377 967 377 968 45 968 378 968 45 969 47 969 378 969 378 970 47 970 379 970 119 971 120 971 415 971 120 972 108 972 415 972 415 973 108 973 416 973 108 974 106 974 416 974 416 975 106 975 417 975 106 976 104 976 417 976 417 977 104 977 418 977 104 978 102 978 418 978 418 979 102 979 419 979 102 980 100 980 419 980 419 981 100 981 420 981 100 982 98 982 420 982 420 983 98 983 421 983 98 984 97 984 421 984 421 985 97 985 422 985 97 986 122 986 422 986 422 987 122 987 423 987 122 988 124 988 423 988 423 989 124 989 424 989 124 990 126 990 424 990 424 991 126 991 425 991 126 992 128 992 425 992 425 993 128 993 426 993 128 994 130 994 426 994 426 995 130 995 427 995 130 996 143 996 427 996 427 997 143 997 142 997 47 998 48 998 379 998 48 999 36 999 379 999 379 1000 36 1000 380 1000 36 1001 34 1001 380 1001 380 1002 34 1002 381 1002 34 1003 32 1003 381 1003 381 1004 32 1004 382 1004 32 1005 30 1005 382 1005 382 1006 30 1006 383 1006 30 1007 28 1007 383 1007 383 1008 28 1008 384 1008 28 1009 26 1009 384 1009 384 1010 26 1010 385 1010 26 1011 25 1011 385 1011 385 1012 25 1012 386 1012 25 1013 50 1013 386 1013 386 1014 50 1014 387 1014 50 1015 52 1015 387 1015 387 1016 52 1016 388 1016 52 1017 54 1017 388 1017 388 1018 54 1018 389 1018 54 1019 56 1019 389 1019 389 1020 56 1020 390 1020 56 1021 58 1021 390 1021 390 1022 58 1022 72 1022 520 1023 600 1023 518 1023 600 1023 601 1023 518 1023 518 1024 601 1024 516 1024 601 1023 602 1023 516 1023 516 1023 602 1023 514 1023 602 1025 603 1025 514 1025 514 1023 603 1023 512 1023 603 1023 604 1023 512 1023 512 1023 604 1023 510 1023 604 1026 605 1026 510 1026 510 1027 605 1027 508 1027 605 1028 606 1028 508 1028 508 1029 606 1029 506 1029 606 1030 599 1030 506 1030 506 1023 599 1023 504 1023 599 1031 607 1031 504 1031 504 1023 607 1023 502 1023 607 1032 608 1032 502 1032 502 1023 608 1023 500 1023 608 1023 609 1023 500 1023 500 1023 609 1023 498 1023 609 1023 610 1023 498 1023 498 1033 610 1033 496 1033 448 1023 611 1023 446 1023 611 1023 612 1023 446 1023 446 1023 612 1023 444 1023 612 1034 613 1034 444 1034 444 1023 613 1023 442 1023 613 1035 614 1035 442 1035 442 1023 614 1023 440 1023 614 1023 615 1023 440 1023 440 1023 615 1023 438 1023 615 1036 616 1036 438 1036 438 1037 616 1037 436 1037 616 1038 617 1038 436 1038 436 1023 617 1023 434 1023 617 1023 144 1023 434 1023 434 1023 144 1023 576 1023 144 1039 146 1039 576 1039 576 1023 146 1023 574 1023 146 1040 148 1040 574 1040 574 1023 148 1023 572 1023 148 1023 150 1023 572 1023 572 1023 150 1023 570 1023 150 1023 152 1023 570 1023 570 1041 152 1041 568 1041 152 1023 154 1023 568 1023 568 1042 154 1042 566 1042 610 1023 618 1023 496 1023 618 1023 619 1023 496 1023 496 1023 619 1023 494 1023 619 1023 620 1023 494 1023 494 1023 620 1023 492 1023 620 1043 621 1043 492 1043 492 1044 621 1044 490 1044 621 1023 622 1023 490 1023 490 1023 622 1023 488 1023 622 1023 623 1023 488 1023 488 1023 623 1023 486 1023 623 1023 624 1023 486 1023 486 1023 624 1023 484 1023 624 1023 625 1023 484 1023 484 1023 625 1023 482 1023 625 1023 214 1023 482 1023 482 1023 214 1023 480 1023 214 1023 626 1023 480 1023 480 1045 626 1045 478 1045 626 1023 627 1023 478 1023 478 1023 627 1023 476 1023 627 1023 628 1023 476 1023 476 1046 628 1046 474 1046 628 1023 629 1023 474 1023 474 1023 629 1023 472 1023 629 1023 630 1023 472 1023 630 1023 631 1023 472 1023 472 1023 631 1023 470 1023 631 1023 632 1023 470 1023 470 1023 632 1023 468 1023 632 1023 633 1023 468 1023 468 1023 633 1023 466 1023 633 1023 634 1023 466 1023 466 1047 634 1047 464 1047 634 1023 635 1023 464 1023 464 1023 635 1023 462 1023 635 1023 636 1023 462 1023 462 1048 636 1048 460 1048 636 1023 637 1023 460 1023 460 1023 637 1023 458 1023 637 1023 205 1023 458 1023 458 1023 205 1023 456 1023 205 1049 638 1049 456 1049 456 1023 638 1023 454 1023 638 1050 639 1050 454 1050 454 1023 639 1023 452 1023 639 1023 640 1023 452 1023 452 1051 640 1051 450 1051 640 1023 641 1023 450 1023 450 1052 641 1052 448 1052 641 1023 642 1023 448 1023 448 1053 642 1053 611 1053 542 1023 180 1023 540 1023 180 1023 178 1023 540 1023 540 1023 178 1023 538 1023 178 1023 176 1023 538 1023 538 1054 176 1054 536 1054 176 1023 174 1023 536 1023 536 1023 174 1023 534 1023 174 1023 172 1023 534 1023 534 1055 172 1055 532 1055 172 1023 170 1023 532 1023 532 1023 170 1023 530 1023 170 1023 169 1023 530 1023 530 1023 169 1023 528 1023 169 1023 643 1023 528 1023 528 1023 643 1023 526 1023 643 1023 644 1023 526 1023 526 1023 644 1023 524 1023 644 1056 645 1056 524 1056 524 1057 645 1057 522 1057 645 1023 646 1023 522 1023 522 1058 646 1058 520 1058 646 1023 647 1023 520 1023 520 1059 647 1059 600 1059 154 1023 168 1023 566 1023 168 1023 167 1023 566 1023 566 1023 167 1023 564 1023 167 1060 165 1060 564 1060 564 1061 165 1061 562 1061 165 1023 163 1023 562 1023 562 1023 163 1023 560 1023 163 1023 161 1023 560 1023 560 1023 161 1023 558 1023 161 1023 159 1023 558 1023 558 1023 159 1023 556 1023 159 1023 157 1023 556 1023 556 1023 157 1023 554 1023 157 1023 156 1023 554 1023 554 1023 156 1023 552 1023 156 1023 183 1023 552 1023 552 1062 183 1062 550 1062 183 1023 185 1023 550 1023 550 1023 185 1023 548 1023 185 1023 187 1023 548 1023 548 1063 187 1063 546 1063 187 1023 189 1023 546 1023 546 1023 189 1023 544 1023 189 1023 191 1023 544 1023 544 1023 191 1023 542 1023 191 1023 192 1023 542 1023 542 1023 192 1023 180 1023 144 1064 617 1064 582 1064 617 1065 616 1065 582 1065 582 1066 616 1066 581 1066 616 1067 615 1067 581 1067 581 1068 615 1068 580 1068 615 1069 614 1069 580 1069 580 1070 614 1070 578 1070 614 1071 613 1071 578 1071 578 1072 613 1072 579 1072 613 1073 612 1073 579 1073 579 1074 612 1074 195 1074 205 1075 204 1075 638 1075 204 1076 203 1076 638 1076 638 1077 203 1077 639 1077 203 1078 202 1078 639 1078 639 1079 202 1079 640 1079 202 1080 193 1080 640 1080 640 1081 193 1081 641 1081 193 1082 194 1082 641 1082 641 1083 194 1083 642 1083 194 1084 195 1084 642 1084 642 1085 195 1085 611 1085 195 1086 612 1086 611 1086 205 1087 637 1087 198 1087 637 1088 636 1088 198 1088 198 1089 636 1089 196 1089 636 1090 635 1090 196 1090 196 1091 635 1091 197 1091 635 1092 634 1092 197 1092 197 1093 634 1093 199 1093 634 1094 633 1094 199 1094 199 1095 633 1095 200 1095 633 1096 632 1096 200 1096 200 1097 632 1097 201 1097 214 1098 217 1098 626 1098 217 1099 216 1099 626 1099 626 1100 216 1100 627 1100 216 1101 215 1101 627 1101 627 1102 215 1102 628 1102 215 1103 209 1103 628 1103 628 1104 209 1104 629 1104 209 1105 213 1105 629 1105 629 1106 213 1106 630 1106 213 1107 201 1107 630 1107 630 1108 201 1108 631 1108 201 1109 632 1109 631 1109 599 1110 598 1110 607 1110 598 1111 597 1111 607 1111 607 1112 597 1112 608 1112 597 1113 596 1113 608 1113 608 1114 596 1114 609 1114 596 1115 589 1115 609 1115 609 1116 589 1116 610 1116 589 1117 593 1117 610 1117 610 1118 593 1118 618 1118 593 1119 208 1119 618 1119 214 1120 625 1120 210 1120 625 1121 624 1121 210 1121 210 1122 624 1122 211 1122 624 1123 623 1123 211 1123 211 1124 623 1124 212 1124 623 1125 622 1125 212 1125 212 1126 622 1126 206 1126 622 1127 621 1127 206 1127 206 1128 621 1128 207 1128 621 1129 620 1129 207 1129 207 1130 620 1130 208 1130 620 1131 619 1131 208 1131 208 1132 619 1132 618 1132 599 1133 606 1133 592 1133 606 1134 605 1134 592 1134 592 1135 605 1135 590 1135 605 1136 604 1136 590 1136 590 1137 604 1137 591 1137 604 1138 603 1138 591 1138 591 1139 603 1139 594 1139 603 1140 602 1140 594 1140 594 1141 602 1141 595 1141 602 1142 601 1142 595 1142 595 1143 601 1143 583 1143 169 1144 588 1144 643 1144 588 1145 587 1145 643 1145 643 1146 587 1146 644 1146 587 1147 586 1147 644 1147 644 1148 586 1148 645 1148 586 1149 585 1149 645 1149 645 1150 585 1150 646 1150 585 1151 584 1151 646 1151 646 1152 584 1152 647 1152 584 1153 583 1153 647 1153 647 1154 583 1154 600 1154 583 1155 601 1155 600 1155</p>
        </triangles>
      </mesh>
    </geometry>
  </library_geometries>
  <library_visual_scenes>
    <visual_scene id="Scene" name="Scene">
      <node id="hex_nut_style_1_am_b18_2_4_1m___hex_nut__style_1___m10_x_1_5__w" name="hex_nut_style_1_am_b18_2_4_1m___hex_nut__style_1___m10_x_1_5__w" type="NODE">
        <matrix sid="transform">1 0 0 0 0 1 0 0 0 0 1 0 0 0 0 1</matrix>
        <instance_geometry url="#hex_nut_style_1_am_b18_2_4_1m___hex_nut__style_1___m10_x_1_5__w-mesh" name="hex_nut_style_1_am_b18_2_4_1m___hex_nut__style_1___m10_x_1_5__w"/>
      </node>
    </visual_scene>
  </library_visual_scenes>
  <scene>
    <instance_visual_scene url="#Scene"/>
  </scene>
</COLLADA>