<?xml version="1.0" encoding="utf-8"?>
<COLLADA xmlns="http://www.collada.org/2005/11/COLLADASchema" version="1.4.1" xmlns:xsi="http://www.w3.org/2001/XMLSchema-instance">
  <asset>
    <contributor>
      <author>Blender User</author>
      <authoring_tool>Blender 3.0.1</authoring_tool>
    </contributor>
    <created>2026-06-04T16:18:56</created>
    <modified>2026-06-04T16:18:56</modified>
    <unit name="meter" meter="1"/>
    <up_axis>Z_UP</up_axis>
  </asset>
  <library_images/>
  <library_geometries>
    <geometry id="motor_160kg_cm_ig52-mesh" name="motor_160kg_cm_ig52">
      <mesh>
        <source id="motor_160kg_cm_ig52-mesh-positions">
          <float_array id="motor_160kg_cm_ig52-mesh-positions-array" count="456">0.1822235 0.0205 0.01849997 0.1802235 0.0205 0.01849997 0.1802235 0.02048093 0.01893573 0.1822235 0.02048093 0.01893573 0.1802235 0.020424 0.01936823 0.1822235 0.020424 0.01936823 0.1802235 0.02032959 0.01979404 0.1822235 0.02032959 0.01979404 0.1802235 0.02019846 0.02021008 0.1822235 0.02019846 0.02021008 0.1802235 0.02003151 0.02061307 0.1822235 0.02003151 0.02061307 0.1802235 0.0198301 0.02099996 0.1822235 0.0198301 0.02099996 0.1802235 0.01959574 0.02136784 0.1822235 0.01959574 0.02136784 0.1802235 0.0193302 0.02171391 0.1822235 0.0193302 0.02171391 0.1802235 0.01903551 0.02203553 0.1822235 0.01903551 0.02203553 0.1802235 0.01871389 0.02233022 0.1822235 0.01871389 0.02233022 0.1802235 0.01836788 0.02259576 0.1822235 0.01836788 0.02259576 0.1802235 0.01799994 0.02283012 0.1822235 0.01799994 0.02283012 0.1802235 0.01761305 0.02303153 0.1822235 0.01761305 0.02303153 0.1802235 0.01721006 0.02319842 0.1822235 0.01721006 0.02319842 0.1802235 0.01679408 0.02332961 0.1822235 0.01679408 0.02332961 0.1802235 0.01636821 0.02342402 0.1822235 0.01636821 0.02342402 0.1802235 0.01593577 0.02348095 0.1822235 0.01593577 0.02348095 0.1802235 0.01549994 0.02349996 0.1822235 0.01549994 0.02349996 0.1822235 0.01549994 -0.02349996 0.1802235 0.01549994 -0.02349996 0.1802235 0.01593577 -0.02348095 0.1822235 0.01593577 -0.02348095 0.1802235 0.01636821 -0.02342402 0.1822235 0.01636821 -0.02342402 0.1802235 0.01679408 -0.02332961 0.1822235 0.01679408 -0.02332961 0.1802235 0.01721006 -0.02319842 0.1822235 0.01721006 -0.02319842 0.1802235 0.01761305 -0.02303153 0.1822235 0.01761305 -0.02303153 0.1802235 0.01799994 -0.02283012 0.1822235 0.01799994 -0.02283012 0.1802235 0.01836788 -0.02259576 0.1822235 0.01836788 -0.02259576 0.1802235 0.01871389 -0.02233022 0.1822235 0.01871389 -0.02233022 0.1802235 0.01903551 -0.02203553 0.1822235 0.01903551 -0.02203553 0.1802235 0.0193302 -0.02171391 0.1822235 0.0193302 -0.02171391 0.1802235 0.01959574 -0.02136784 0.1822235 0.01959574 -0.02136784 0.1802235 0.0198301 -0.02099996 0.1822235 0.0198301 -0.02099996 0.1802235 0.02003151 -0.02061307 0.1822235 0.02003151 -0.02061307 0.1802235 0.02019846 -0.02021008 0.1822235 0.02019846 -0.02021008 0.1802235 0.02032959 -0.01979404 0.1822235 0.02032959 -0.01979404 0.1802235 0.020424 -0.01936823 0.1822235 0.020424 -0.01936823 0.1802235 0.02048093 -0.01893573 0.1822235 0.02048093 -0.01893573 0.1802235 0.0205 -0.01849997 0.1822235 0.0205 -0.01849997 0.1822235 -0.01549994 0.02349996 0.1802235 -0.01549994 0.02349996 0.1802235 -0.01593577 0.02348095 0.1822235 -0.01593577 0.02348095 0.1802235 -0.01636821 0.02342402 0.1822235 -0.01636821 0.02342402 0.1802235 -0.01679408 0.02332961 0.1822235 -0.01679408 0.02332961 0.1802235 -0.01721006 0.02319842 0.1822235 -0.01721006 0.02319842 0.1802235 -0.01761305 0.02303153 0.1822235 -0.01761305 0.02303153 0.1802235 -0.01799994 0.02283012 0.1822235 -0.01799994 0.02283012 0.1802235 -0.01836788 0.02259576 0.1822235 -0.01836788 0.02259576 0.1802235 -0.01871389 0.02233022 0.1822235 -0.01871389 0.02233022 0.1802235 -0.01903551 0.02203553 0.1822235 -0.01903551 0.02203553 0.1802235 -0.0193302 0.02171391 0.1822235 -0.0193302 0.02171391 0.1802235 -0.01959574 0.02136784 0.1822235 -0.01959574 0.02136784 0.1802235 -0.0198301 0.02099996 0.1822235 -0.0198301 0.02099996 0.1802235 -0.02003151 0.02061307 0.1822235 -0.02003151 0.02061307 0.1802235 -0.02019846 0.02021008 0.1822235 -0.02019846 0.02021008 0.1802235 -0.02032959 0.01979404 0.1822235 -0.02032959 0.01979404 0.1802235 -0.020424 0.01936823 0.1822235 -0.020424 0.01936823 0.1802235 -0.02048093 0.01893573 0.1822235 -0.02048093 0.01893573 0.1802235 -0.0205 0.01849997 0.1822235 -0.0205 0.01849997 0.1822235 -0.0205 -0.01849997 0.1802235 -0.0205 -0.01849997 0.1802235 -0.02048093 -0.01893573 0.1822235 -0.02048093 -0.01893573 0.1802235 -0.020424 -0.01936823 0.1822235 -0.020424 -0.01936823 0.1802235 -0.02032959 -0.01979404 0.1822235 -0.02032959 -0.01979404 0.1802235 -0.02019846 -0.02021008 0.1822235 -0.02019846 -0.02021008 0.1802235 -0.02003151 -0.02061307 0.1822235 -0.02003151 -0.02061307 0.1802235 -0.0198301 -0.02099996 0.1822235 -0.0198301 -0.02099996 0.1802235 -0.01959574 -0.02136784 0.1822235 -0.01959574 -0.02136784 0.1802235 -0.0193302 -0.02171391 0.1822235 -0.0193302 -0.02171391 0.1802235 -0.01903551 -0.02203553 0.1822235 -0.01903551 -0.02203553 0.1802235 -0.01871389 -0.02233022 0.1822235 -0.01871389 -0.02233022 0.1802235 -0.01836788 -0.02259576 0.1822235 -0.01836788 -0.02259576 0.1802235 -0.01799994 -0.02283012 0.1822235 -0.01799994 -0.02283012 0.1802235 -0.01761305 -0.02303153 0.1822235 -0.01761305 -0.02303153 0.1802235 -0.01721006 -0.02319842 0.1822235 -0.01721006 -0.02319842 0.1802235 -0.01679408 -0.02332961 0.1822235 -0.01679408 -0.02332961 0.1802235 -0.01636821 -0.02342402 0.1822235 -0.01636821 -0.02342402 0.1802235 -0.01593577 -0.02348095 0.1822235 -0.01593577 -0.02348095 0.1802235 -0.01549994 -0.02349996 0.1822235 -0.01549994 -0.02349996</float_array>
          <technique_common>
            <accessor source="#motor_160kg_cm_ig52-mesh-positions-array" count="152" stride="3">
              <param name="X" type="float"/>
              <param name="Y" type="float"/>
              <param name="Z" type="float"/>
            </accessor>
          </technique_common>
        </source>
        <source id="motor_160kg_cm_ig52-mesh-normals">
          <float_array id="motor_160kg_cm_ig52-mesh-normals-array" count="582">0 0.9990482 0.04362034 0 0.9990482 0.04361963 0 0.9914458 0.1305196 0 0.9914439 0.1305339 0 0.9762973 0.2164341 0 0.9762963 0.2164385 0 0.9537156 0.3007102 0 0.9238804 0.3826816 0 0.8870016 0.4617663 0 0.8870156 0.4617395 0 0.8433945 0.5372948 0 0.8433908 0.5373007 0 0.7933521 0.6087632 0 0.7933542 0.6087604 0 0.7372725 0.6755955 0 0.7372802 0.6755872 0 0.6755868 0.7372805 0 0.6755958 0.7372722 0 0.6087619 0.793353 0 0.6087591 0.7933552 0 0.537297 0.8433933 0 0.5373007 0.8433908 0 0.4617429 0.8870138 0 0.461753 0.8870087 0 0.3826816 0.9238804 0 0.3826858 0.9238787 0 0.300705 0.9537173 0 0.3007078 0.9537164 0 0.2164385 0.9762963 0 0.2164403 0.976296 0 0.1305268 0.9914448 0 0.1305298 0.9914444 0 0.04361617 0.9990484 0 0.04361599 0.9990484 0 0.04361546 -0.9990485 0 0.04361671 -0.9990484 0 0.1305257 -0.991445 0 0.1305308 -0.9914443 0 0.2164403 -0.976296 0 0.2164385 -0.9762963 0 0.3007003 -0.9537187 0 0.3007127 -0.9537149 0 0.3826786 -0.9238816 0 0.3826887 -0.9238774 0 0.4617463 -0.8870121 0 0.4617495 -0.8870105 0 0.5373007 -0.8433908 0 0.537297 -0.8433933 0 0.6087539 -0.7933592 0 0.6087672 -0.7933489 0 0.6755868 -0.7372805 0 0.6755958 -0.7372722 0 0.7372725 -0.6755955 0 0.7372802 -0.6755872 0 0.793348 -0.6087684 0 0.7933583 -0.6087551 0 0.8433908 -0.5373007 0 0.8433945 -0.5372948 0 0.8870086 -0.4617532 0 0.8870089 -0.4617527 0 0.9238804 -0.3826816 0 0.9537156 -0.3007102 0 0.9762955 -0.2164421 0 0.9762981 -0.2164306 0 0.9914436 -0.130536 0 0.991446 -0.1305175 0 0.9990482 -0.04362034 0 0.9990482 -0.04361963 0 -0.04361546 0.9990485 0 -0.04361671 0.9990484 0 -0.1305257 0.991445 0 -0.1305308 0.9914443 0 -0.2164403 0.976296 0 -0.2164385 0.9762963 0 -0.3007003 0.9537187 0 -0.3007127 0.9537149 0 -0.3826786 0.9238816 0 -0.3826887 0.9238774 0 -0.4617463 0.8870121 0 -0.4617495 0.8870105 0 -0.5373007 0.8433908 0 -0.537297 0.8433933 0 -0.6087539 0.7933592 0 -0.6087672 0.7933489 0 -0.6755868 0.7372805 0 -0.6755958 0.7372722 0 -0.7372725 0.6755955 0 -0.7372802 0.6755872 0 -0.793348 0.6087684 0 -0.7933583 0.6087551 0 -0.8433908 0.5373007 0 -0.8433945 0.5372948 0 -0.8870086 0.4617532 0 -0.8870089 0.4617527 0 -0.9238804 0.3826816 0 -0.9537156 0.3007102 0 -0.9762955 0.2164421 0 -0.9762981 0.2164306 0 -0.9914436 0.130536 0 -0.991446 0.1305175 0 -0.9990482 0.04362034 0 -0.9990482 0.04361963 0 -0.9990482 -0.04362034 0 -0.9990482 -0.04361963 0 -0.9914458 -0.1305196 0 -0.9914439 -0.1305339 0 -0.9762973 -0.2164341 0 -0.9762963 -0.2164385 0 -0.9537156 -0.3007102 0 -0.9238804 -0.3826816 0 -0.8870016 -0.4617663 0 -0.8870156 -0.4617395 0 -0.8433945 -0.5372948 0 -0.8433908 -0.5373007 0 -0.7933521 -0.6087632 0 -0.7933542 -0.6087604 0 -0.7372725 -0.6755955 0 -0.7372802 -0.6755872 0 -0.6755868 -0.7372805 0 -0.6755958 -0.7372722 0 -0.6087619 -0.793353 0 -0.6087591 -0.7933552 0 -0.537297 -0.8433933 0 -0.5373007 -0.8433908 0 -0.4617429 -0.8870138 0 -0.461753 -0.8870087 0 -0.3826816 -0.9238804 0 -0.3826858 -0.9238787 0 -0.300705 -0.9537173 0 -0.3007078 -0.9537164 0 -0.2164385 -0.9762963 0 -0.2164403 -0.976296 0 -0.1305268 -0.9914448 0 -0.1305298 -0.9914444 0 -0.04361617 -0.9990484 0 -0.04361599 -0.9990484 0 1 0 0 0 -1 0 0 1 0 -1 0 1 0 0 1 1.08249e-5 0 1 3.84115e-5 0 1 -6.14586e-5 0 1 -2.86634e-5 0 1 4.96722e-5 0 1 -2.89002e-5 0 1 8.25117e-5 0 1 -2.54887e-5 0 1 -2.19346e-4 0 1 -9.60291e-6 0 1 5.73508e-5 0 1 -4.96722e-5 0 1 -2.57844e-5 0 1 9.60291e-6 0 1 1.01954e-4 0 1 -2.93244e-4 0 1 8.93296e-5 0 1 -3.24751e-5 0 1 -1.47189e-4 0 1 1.46633e-4 0 1 3.24751e-5 0 1 3.41913e-5 0 1 2.03909e-4 0 1 -2.595e-4 0 1 8.57311e-5 0 0.9999997 -8.77457e-4 0 1 -1.65023e-4 0 1 -1.86271e-5 0 1 2.93265e-4 0 -1 0 0 -1 -8.65988e-5 0 -1 -2.5577e-5 0 -1 2.68881e-5 0 -1 -5.09773e-5 0 -1 -6.83831e-5 0 -1 8.65988e-5 0 -1 2.5577e-5 0 -1 -3.07292e-5 0 -1 6.83819e-5 0 -1 -3.24373e-5 0 -1 -3.42925e-4 0 -1 -1.65023e-4 0 -1 3.24378e-5 0 -1 -1.6804e-5 0 -1 -2.38209e-4 0 -1 1.77521e-4 0 -1 -4.12559e-5 0 -1 -7.45085e-5 0 -1 6.39417e-6 0 -1 -4.38693e-4 0 -1 -1.77529e-4 0 -1 2.9438e-4 0 -1 7.45085e-5 0</float_array>
          <technique_common>
            <accessor source="#motor_160kg_cm_ig52-mesh-normals-array" count="194" stride="3">
              <param name="X" type="float"/>
              <param name="Y" type="float"/>
              <param name="Z" type="float"/>
            </accessor>
          </technique_common>
        </source>
        <vertices id="motor_160kg_cm_ig52-mesh-vertices">
          <input semantic="POSITION" source="#motor_160kg_cm_ig52-mesh-positions"/>
        </vertices>
        <triangles count="300">
          <input semantic="VERTEX" source="#motor_160kg_cm_ig52-mesh-vertices" offset="0"/>
          <input semantic="NORMAL" source="#motor_160kg_cm_ig52-mesh-normals" offset="1"/>
          <p>0 0 1 0 2 0 0 1 2 1 3 1 2 2 4 2 3 2 3 3 4 3 5 3 4 4 6 4 5 4 5 5 6 5 7 5 6 6 8 6 7 6 7 6 8 6 9 6 8 7 10 7 9 7 9 7 10 7 11 7 10 8 12 8 11 8 11 9 12 9 13 9 12 10 14 10 13 10 13 11 14 11 15 11 14 12 16 12 15 12 15 13 16 13 17 13 16 14 18 14 17 14 17 15 18 15 19 15 18 16 20 16 19 16 19 17 20 17 21 17 20 18 22 18 21 18 21 19 22 19 23 19 22 20 24 20 23 20 23 21 24 21 25 21 24 22 26 22 25 22 25 23 26 23 27 23 26 24 28 24 27 24 27 25 28 25 29 25 28 26 30 26 29 26 29 27 30 27 31 27 30 28 32 28 31 28 31 29 32 29 33 29 32 30 34 30 33 30 33 31 34 31 35 31 34 32 36 32 35 32 35 33 36 33 37 33 38 34 39 34 40 34 38 35 40 35 41 35 40 36 42 36 41 36 41 37 42 37 43 37 42 38 44 38 43 38 43 39 44 39 45 39 44 40 46 40 45 40 45 41 46 41 47 41 46 42 48 42 47 42 47 43 48 43 49 43 48 44 50 44 49 44 49 45 50 45 51 45 50 46 52 46 51 46 51 47 52 47 53 47 52 48 54 48 53 48 53 49 54 49 55 49 54 50 56 50 55 50 55 51 56 51 57 51 56 52 58 52 57 52 57 53 58 53 59 53 58 54 60 54 59 54 59 55 60 55 61 55 60 56 62 56 61 56 61 57 62 57 63 57 62 58 64 58 63 58 63 59 64 59 65 59 64 60 66 60 65 60 65 60 66 60 67 60 66 61 68 61 67 61 67 61 68 61 69 61 68 62 70 62 69 62 69 63 70 63 71 63 70 64 72 64 71 64 71 65 72 65 73 65 72 66 74 66 73 66 73 67 74 67 75 67 76 68 77 68 78 68 76 69 78 69 79 69 78 70 80 70 79 70 79 71 80 71 81 71 80 72 82 72 81 72 81 73 82 73 83 73 82 74 84 74 83 74 83 75 84 75 85 75 84 76 86 76 85 76 85 77 86 77 87 77 86 78 88 78 87 78 87 79 88 79 89 79 88 80 90 80 89 80 89 81 90 81 91 81 90 82 92 82 91 82 91 83 92 83 93 83 92 84 94 84 93 84 93 85 94 85 95 85 94 86 96 86 95 86 95 87 96 87 97 87 96 88 98 88 97 88 97 89 98 89 99 89 98 90 100 90 99 90 99 91 100 91 101 91 100 92 102 92 101 92 101 93 102 93 103 93 102 94 104 94 103 94 103 94 104 94 105 94 104 95 106 95 105 95 105 95 106 95 107 95 106 96 108 96 107 96 107 97 108 97 109 97 108 98 110 98 109 98 109 99 110 99 111 99 110 100 112 100 111 100 111 101 112 101 113 101 114 102 115 102 116 102 114 103 116 103 117 103 116 104 118 104 117 104 117 105 118 105 119 105 118 106 120 106 119 106 119 107 120 107 121 107 120 108 122 108 121 108 121 108 122 108 123 108 122 109 124 109 123 109 123 109 124 109 125 109 124 110 126 110 125 110 125 111 126 111 127 111 126 112 128 112 127 112 127 113 128 113 129 113 128 114 130 114 129 114 129 115 130 115 131 115 130 116 132 116 131 116 131 117 132 117 133 117 132 118 134 118 133 118 133 119 134 119 135 119 134 120 136 120 135 120 135 121 136 121 137 121 136 122 138 122 137 122 137 123 138 123 139 123 138 124 140 124 139 124 139 125 140 125 141 125 140 126 142 126 141 126 141 127 142 127 143 127 142 128 144 128 143 128 143 129 144 129 145 129 144 130 146 130 145 130 145 131 146 131 147 131 146 132 148 132 147 132 147 133 148 133 149 133 148 134 150 134 149 134 149 135 150 135 151 135 74 136 1 136 75 136 1 136 0 136 75 136 150 137 39 137 151 137 39 137 38 137 151 137 76 138 37 138 77 138 37 138 36 138 77 138 114 139 113 139 115 139 113 139 112 139 115 139 119 140 121 140 151 140 121 140 123 140 151 140 151 141 123 141 125 141 93 140 95 140 113 140 3 140 37 140 0 140 37 140 113 140 0 140 0 140 113 140 75 140 113 140 114 140 75 140 75 140 114 140 151 140 114 140 117 140 151 140 151 142 117 142 119 142 3 143 5 143 37 143 5 140 7 140 37 140 37 144 7 144 9 144 9 140 11 140 37 140 11 145 13 145 37 145 37 146 13 146 15 146 15 140 17 140 37 140 17 147 19 147 37 147 37 148 19 148 21 148 21 140 23 140 37 140 23 140 25 140 37 140 37 140 25 140 35 140 29 149 31 149 33 149 37 140 76 140 113 140 76 140 79 140 113 140 113 150 79 150 81 150 141 140 143 140 129 140 143 140 145 140 129 140 129 151 145 151 147 151 125 152 127 152 151 152 127 140 129 140 151 140 151 140 129 140 149 140 129 153 147 153 149 153 151 140 38 140 75 140 38 140 41 140 75 140 75 154 41 154 43 154 53 140 63 140 65 140 65 140 67 140 53 140 67 140 69 140 53 140 53 155 69 155 71 155 135 156 129 156 133 156 129 140 131 140 133 140 135 140 137 140 129 140 137 140 139 140 129 140 129 157 139 157 141 157 43 140 45 140 75 140 45 140 47 140 75 140 75 158 47 158 49 158 53 140 55 140 63 140 55 140 57 140 63 140 63 140 57 140 61 140 57 140 59 140 61 140 35 140 25 140 33 140 25 159 27 159 33 159 33 160 27 160 29 160 81 140 83 140 113 140 83 140 85 140 113 140 113 161 85 161 87 161 87 140 89 140 113 140 89 140 91 140 113 140 113 162 91 162 93 162 95 163 97 163 113 163 97 164 99 164 113 164 113 165 99 165 101 165 105 166 107 166 109 166 71 167 73 167 53 167 73 140 75 140 53 140 53 140 75 140 51 140 75 168 49 168 51 168 101 140 103 140 113 140 103 140 105 140 113 140 113 140 105 140 111 140 105 169 109 169 111 169 150 170 77 170 39 170 77 170 36 170 39 170 124 171 122 171 150 171 122 170 120 170 150 170 150 172 120 172 118 172 118 170 116 170 150 170 116 170 115 170 150 170 150 170 115 170 77 170 115 170 112 170 77 170 77 170 112 170 78 170 112 173 80 173 78 173 16 170 36 170 18 170 36 174 20 174 18 174 16 175 14 175 36 175 14 170 12 170 36 170 36 170 12 170 10 170 10 176 8 176 36 176 8 170 6 170 36 170 36 177 6 177 4 177 74 170 39 170 1 170 39 170 36 170 1 170 1 170 36 170 2 170 36 178 4 178 2 178 46 170 44 170 74 170 148 179 128 179 150 179 128 170 126 170 150 170 150 170 126 170 124 170 148 170 146 170 128 170 146 170 144 170 128 170 128 180 144 180 142 180 108 170 106 170 104 170 102 170 100 170 112 170 100 181 98 181 112 181 36 170 34 170 20 170 34 170 32 170 20 170 20 170 32 170 22 170 32 170 24 170 22 170 72 182 70 182 52 182 70 170 68 170 52 170 52 183 68 183 66 183 46 170 74 170 48 170 44 170 42 170 74 170 42 170 40 170 74 170 74 184 40 184 39 184 142 170 140 170 128 170 140 185 138 185 128 185 128 186 138 186 136 186 136 170 134 170 128 170 134 170 132 170 128 170 128 170 132 170 130 170 98 170 96 170 112 170 96 170 94 170 112 170 112 187 94 187 92 187 92 170 90 170 112 170 90 170 88 170 112 170 112 188 88 188 86 188 86 170 84 170 112 170 84 170 82 170 112 170 112 189 82 189 80 189 30 190 28 190 32 190 28 170 26 170 32 170 32 170 26 170 24 170 58 170 56 170 60 170 56 170 62 170 60 170 66 170 64 170 52 170 64 170 62 170 52 170 52 191 62 191 54 191 62 170 56 170 54 170 102 170 112 170 104 170 112 192 110 192 104 192 104 170 110 170 108 170 72 170 52 170 74 170 52 170 50 170 74 170 74 193 50 193 48 193</p>
        </triangles>
      </mesh>
    </geometry>
  </library_geometries>
  <library_visual_scenes>
    <visual_scene id="Scene" name="Scene">
      <node id="motor_160kg_cm_ig52" name="motor_160kg_cm_ig52" type="NODE">
        <matrix sid="transform">1 0 0 0 0 1 0 0 0 0 1 0 0 0 0 1</matrix>
        <instance_geometry url="#motor_160kg_cm_ig52-mesh" name="motor_160kg_cm_ig52"/>
      </node>
    </visual_scene>
  </library_visual_scenes>
  <scene>
    <instance_visual_scene url="#Scene"/>
  </scene>
</COLLADA>