<?xml version="1.0" encoding="utf-8"?>
<COLLADA xmlns="http://www.collada.org/2005/11/COLLADASchema" version="1.4.1" xmlns:xsi="http://www.w3.org/2001/XMLSchema-instance">
  <asset>
    <contributor>
      <author>Blender User</author>
      <authoring_tool>Blender 3.0.1</authoring_tool>
    </contributor>
    <created>2026-06-04T16:19:00</created>
    <modified>2026-06-04T16:19:00</modified>
    <unit name="meter" meter="1"/>
    <up_axis>Z_UP</up_axis>
  </asset>
  <library_images/>
  <library_geometries>
    <geometry id="shaft_10_torsion_mechanism-mesh" name="shaft_10_torsion_mechanism">
      <mesh>
        <source id="shaft_10_torsion_mechanism-mesh-positions">
          <float_array id="shaft_10_torsion_mechanism-mesh-positions-array" count="438">8.68241e-4 0 0.004923999 4.35779e-4 0 0.004980921 0 0 0 0 0 0.004999995 -4.35779e-4 0 0.004980921 0.002113044 0 0.004531502 0.001710057 0 0.004698455 0.001294076 0 0.004829585 0.003213882 0 0.003830194 0.002867877 0 0.004095733 0.002499997 0 0.004330098 0.004095733 0 0.002867877 0.003830194 0 0.003213882 0.003535509 0 0.003535509 0.004698455 0 0.001710057 0.004531502 0 0.002113044 0.004330098 0 0.002499997 0.004980921 0 4.35779e-4 0.004923999 0 8.68241e-4 0.004829585 0 0.001294076 0.004923999 0 -8.68241e-4 0.004980921 0 -4.35779e-4 0.004999995 0 0 0.004531502 0 -0.002113044 0.004698455 0 -0.001710057 0.004829585 0 -0.001294076 0.003830194 0 -0.003213882 0.004095733 0 -0.002867877 0.004330098 0 -0.002499997 0.002867877 0 -0.004095733 0.003213882 0 -0.003830194 0.003535509 0 -0.003535509 0.001710057 0 -0.004698455 0.002113044 0 -0.004531502 0.002499997 0 -0.004330098 4.35779e-4 0 -0.004980921 8.68241e-4 0 -0.004923999 0.001294076 0 -0.004829585 -8.68241e-4 0 -0.004923999 -4.35779e-4 0 -0.004980921 0 0 -0.004999995 -0.002113044 0 -0.004531502 -0.001710057 0 -0.004698455 -0.001294076 0 -0.004829585 -0.003213882 0 -0.003830194 -0.002867877 0 -0.004095733 -0.002499997 0 -0.004330098 -0.004095733 0 -0.002867877 -0.003830194 0 -0.003213882 -0.003535509 0 -0.003535509 -0.004698455 0 -0.001710057 -0.004531502 0 -0.002113044 -0.004330098 0 -0.002499997 -0.004980921 0 -4.35779e-4 -0.004923999 0 -8.68241e-4 -0.004829585 0 -0.001294076 -0.004923999 0 8.68241e-4 -0.004980921 0 4.35779e-4 -0.004999995 0 0 -0.004531502 0 0.002113044 -0.004698455 0 0.001710057 -0.004829585 0 0.001294076 -0.003830194 0 0.003213882 -0.004095733 0 0.002867877 -0.004330098 0 0.002499997 -0.002867877 0 0.004095733 -0.003213882 0 0.003830194 -0.003535509 0 0.003535509 -0.001710057 0 0.004698455 -0.002113044 0 0.004531502 -0.002499997 0 0.004330098 -8.68241e-4 0 0.004923999 -0.001294076 0 0.004829585 4.35779e-4 0.12 -0.004980921 8.68241e-4 0.12 -0.004923999 0.001294076 0.12 -0.004829585 0.001710057 0.12 -0.004698455 0.002113044 0.12 -0.004531502 0.002499997 0.12 -0.004330098 0.002867877 0.12 -0.004095733 0.003213882 0.12 -0.003830194 0.003535509 0.12 -0.003535509 0.003830194 0.12 -0.003213882 0.004095733 0.12 -0.002867877 0.004330098 0.12 -0.002499997 0.004531502 0.12 -0.002113044 0.004698455 0.12 -0.001710057 0.004829585 0.12 -0.001294076 0.004923999 0.12 -8.68241e-4 0.004980921 0.12 -4.35779e-4 0.004999995 0.12 0 0.004980921 0.12 4.35779e-4 0.004923999 0.12 8.68241e-4 0.004829585 0.12 0.001294076 0.004698455 0.12 0.001710057 0.004531502 0.12 0.002113044 0.004330098 0.12 0.002499997 0.004095733 0.12 0.002867877 0.003830194 0.12 0.003213882 0.003535509 0.12 0.003535509 0.003213882 0.12 0.003830194 0.002867877 0.12 0.004095733 0.002499997 0.12 0.004330098 0.002113044 0.12 0.004531502 0.001710057 0.12 0.004698455 0.001294076 0.12 0.004829585 8.68241e-4 0.12 0.004923999 4.35779e-4 0.12 0.004980921 0 0.12 0.004999995 -4.35779e-4 0.12 0.004980921 -8.68241e-4 0.12 0.004923999 -0.001294076 0.12 0.004829585 -0.001710057 0.12 0.004698455 -0.002113044 0.12 0.004531502 -0.002499997 0.12 0.004330098 -0.002867877 0.12 0.004095733 -0.003213882 0.12 0.003830194 -0.003535509 0.12 0.003535509 -0.003830194 0.12 0.003213882 -0.004095733 0.12 0.002867877 -0.004330098 0.12 0.002499997 -0.004531502 0.12 0.002113044 -0.004698455 0.12 0.001710057 -0.004829585 0.12 0.001294076 -0.004923999 0.12 8.68241e-4 -0.004980921 0.12 4.35779e-4 -0.004999995 0.12 0 -0.004980921 0.12 -4.35779e-4 -0.004923999 0.12 -8.68241e-4 -0.004829585 0.12 -0.001294076 -0.004698455 0.12 -0.001710057 -0.004531502 0.12 -0.002113044 -0.004330098 0.12 -0.002499997 -0.004095733 0.12 -0.002867877 -0.003830194 0.12 -0.003213882 -0.003535509 0.12 -0.003535509 -0.003213882 0.12 -0.003830194 -0.002867877 0.12 -0.004095733 -0.002499997 0.12 -0.004330098 -0.002113044 0.12 -0.004531502 -0.001710057 0.12 -0.004698455 -0.001294076 0.12 -0.004829585 -8.68241e-4 0.12 -0.004923999 -4.35779e-4 0.12 -0.004980921 0 0.12 -0.004999995 0 0.12 0</float_array>
          <technique_common>
            <accessor source="#shaft_10_torsion_mechanism-mesh-positions-array" count="146" stride="3">
              <param name="X" type="float"/>
              <param name="Y" type="float"/>
              <param name="Z" type="float"/>
            </accessor>
          </technique_common>
        </source>
        <source id="shaft_10_torsion_mechanism-mesh-normals">
          <float_array id="shaft_10_torsion_mechanism-mesh-normals-array" count="429">0 -1 0 0.0436185 0 -0.9990484 0.1305243 0 -0.9914451 0.1305265 0 -0.9914449 0.2164381 0 -0.9762964 0.2164403 0 -0.976296 0.300706 0 -0.9537169 0.3826832 0 -0.9238797 0.461749 0 -0.8870106 0.5372989 0 -0.843392 0.5373005 0 -0.8433909 0.6087614 0 -0.7933534 0.6087621 0 -0.793353 0.6755905 0 -0.737277 0.6755899 0 -0.7372776 0.7372778 0 -0.6755897 0.7372768 0 -0.6755908 0.7933533 0 -0.6087616 0.7933537 0 -0.6087611 0.8433914 0 -0.5372998 0.8870108 0 -0.4617487 0.9238795 0 -0.3826835 0.9238795 0 -0.3826837 0.9537169 0 -0.3007059 0.9762961 0 -0.2164395 0.991445 0 -0.1305258 0.991445 0 -0.1305258 0.9990482 0 -0.04361921 0.9990482 0 0.04361921 0.991445 0 0.1305258 0.991445 0 0.1305258 0.9762961 0 0.2164395 0.9537169 0 0.3007059 0.9238795 0 0.3826837 0.9238795 0 0.3826835 0.8870108 0 0.4617487 0.8433914 0 0.5372998 0.7933537 0 0.6087611 0.7933533 0 0.6087616 0.7372768 0 0.6755908 0.7372778 0 0.6755897 0.6755899 0 0.7372776 0.6755905 0 0.737277 0.6087621 0 0.793353 0.6087614 0 0.7933534 0.5373005 0 0.8433909 0.5372989 0 0.843392 0.461749 0 0.8870106 0.3826832 0 0.9238797 0.300706 0 0.9537169 0.2164403 0 0.976296 0.2164381 0 0.9762964 0.1305265 0 0.9914449 0.1305243 0 0.9914451 0.0436185 0 0.9990484 0.04362076 0 0.9990482 -0.04362076 0 0.9990482 -0.0436185 0 0.9990484 -0.1305243 0 0.9914451 -0.1305265 0 0.9914449 -0.2164381 0 0.9762964 -0.2164403 0 0.976296 -0.300706 0 0.9537169 -0.3826832 0 0.9238797 -0.461749 0 0.8870106 -0.5372989 0 0.843392 -0.5373005 0 0.8433909 -0.6087614 0 0.7933534 -0.6087621 0 0.793353 -0.6755905 0 0.737277 -0.6755899 0 0.7372776 -0.7372778 0 0.6755897 -0.7372768 0 0.6755908 -0.7933533 0 0.6087616 -0.7933537 0 0.6087611 -0.8433914 0 0.5372998 -0.8870108 0 0.4617487 -0.9238795 0 0.3826835 -0.9238795 0 0.3826837 -0.9537169 0 0.3007059 -0.9762961 0 0.2164395 -0.991445 0 0.1305258 -0.991445 0 0.1305258 -0.9990482 0 0.04361921 -0.9990482 0 -0.04361921 -0.991445 0 -0.1305258 -0.991445 0 -0.1305258 -0.9762961 0 -0.2164395 -0.9537169 0 -0.3007059 -0.9238795 0 -0.3826837 -0.9238795 0 -0.3826835 -0.8870108 0 -0.4617487 -0.8433914 0 -0.5372998 -0.7933537 0 -0.6087611 -0.7933533 0 -0.6087616 -0.7372768 0 -0.6755908 -0.7372778 0 -0.6755897 -0.6755899 0 -0.7372776 -0.6755905 0 -0.737277 -0.6087621 0 -0.793353 -0.6087614 0 -0.7933534 -0.5373005 0 -0.8433909 -0.5372989 0 -0.843392 -0.461749 0 -0.8870106 -0.3826832 0 -0.9238797 -0.300706 0 -0.9537169 -0.2164403 0 -0.976296 -0.2164381 0 -0.9762964 -0.1305265 0 -0.9914449 -0.1305243 0 -0.9914451 -0.0436185 0 -0.9990484 -0.04362076 0 -0.9990482 0.04362076 0 -0.9990482 0 1 0 0 1 0 0 1 -1.33572e-5 0 1 1.33572e-5 0 1 1.00179e-5 0 1 2.67143e-5 0 1 -2.67143e-5 0 1 2.00358e-5 0 1 -1.66965e-6 0 1 5.00894e-6 0 1 1.92009e-5 0 1 1.50268e-5 0 1 -5.34286e-5 0 1 -8.34822e-6 0 1 -2.67143e-5 0 1 2.3375e-5 0 1 6.67858e-6 0 1 -6.67858e-6 0 1 1.33572e-5 0 1 -1.33572e-5 0 1 -1.00179e-5 0 1 -2.00358e-5 0 1 1.66965e-6 0 1 -5.00894e-6 0 1 -1.92009e-5 0 1 -1.50268e-5 0 1 5.34286e-5 0 1 8.34822e-6 0 1 2.67143e-5 0 1 -2.3375e-5</float_array>
          <technique_common>
            <accessor source="#shaft_10_torsion_mechanism-mesh-normals-array" count="143" stride="3">
              <param name="X" type="float"/>
              <param name="Y" type="float"/>
              <param name="Z" type="float"/>
            </accessor>
          </technique_common>
        </source>
        <vertices id="shaft_10_torsion_mechanism-mesh-vertices">
          <input semantic="POSITION" source="#shaft_10_torsion_mechanism-mesh-positions"/>
        </vertices>
        <triangles count="288">
          <input semantic="VERTEX" source="#shaft_10_torsion_mechanism-mesh-vertices" offset="0"/>
          <input semantic="NORMAL" source="#shaft_10_torsion_mechanism-mesh-normals" offset="1"/>
          <p>0 0 1 0 2 0 1 0 3 0 2 0 2 0 3 0 4 0 5 0 6 0 2 0 6 0 7 0 2 0 2 0 7 0 0 0 8 0 9 0 2 0 9 0 10 0 2 0 2 0 10 0 5 0 11 0 12 0 2 0 12 0 13 0 2 0 2 0 13 0 8 0 14 0 15 0 2 0 15 0 16 0 2 0 2 0 16 0 11 0 17 0 18 0 2 0 18 0 19 0 2 0 2 0 19 0 14 0 20 0 21 0 2 0 21 0 22 0 2 0 2 0 22 0 17 0 23 0 24 0 2 0 24 0 25 0 2 0 2 0 25 0 20 0 26 0 27 0 2 0 27 0 28 0 2 0 2 0 28 0 23 0 29 0 30 0 2 0 30 0 31 0 2 0 2 0 31 0 26 0 32 0 33 0 2 0 33 0 34 0 2 0 2 0 34 0 29 0 35 0 36 0 2 0 36 0 37 0 2 0 2 0 37 0 32 0 38 0 39 0 2 0 39 0 40 0 2 0 2 0 40 0 35 0 41 0 42 0 2 0 42 0 43 0 2 0 2 0 43 0 38 0 44 0 45 0 2 0 45 0 46 0 2 0 2 0 46 0 41 0 47 0 48 0 2 0 48 0 49 0 2 0 2 0 49 0 44 0 50 0 51 0 2 0 51 0 52 0 2 0 2 0 52 0 47 0 53 0 54 0 2 0 54 0 55 0 2 0 2 0 55 0 50 0 56 0 57 0 2 0 57 0 58 0 2 0 2 0 58 0 53 0 59 0 60 0 2 0 60 0 61 0 2 0 2 0 61 0 56 0 62 0 63 0 2 0 63 0 64 0 2 0 2 0 64 0 59 0 65 0 66 0 2 0 66 0 67 0 2 0 2 0 67 0 62 0 68 0 69 0 2 0 69 0 70 0 2 0 2 0 70 0 65 0 4 0 71 0 2 0 71 0 72 0 2 0 2 0 72 0 68 0 40 1 73 1 35 1 73 2 74 2 35 2 35 3 74 3 36 3 74 4 75 4 36 4 36 5 75 5 37 5 75 6 76 6 37 6 37 6 76 6 32 6 76 7 77 7 32 7 32 7 77 7 33 7 77 8 78 8 33 8 33 8 78 8 34 8 78 9 79 9 34 9 34 10 79 10 29 10 79 11 80 11 29 11 29 12 80 12 30 12 80 13 81 13 30 13 30 14 81 14 31 14 81 15 82 15 31 15 31 16 82 16 26 16 82 17 83 17 26 17 26 18 83 18 27 18 83 19 84 19 27 19 27 19 84 19 28 19 84 20 85 20 28 20 28 20 85 20 23 20 85 21 86 21 23 21 23 22 86 22 24 22 86 23 87 23 24 23 24 23 87 23 25 23 87 24 88 24 25 24 25 24 88 24 20 24 88 25 89 25 20 25 20 26 89 26 21 26 89 27 90 27 21 27 21 27 90 27 22 27 90 28 91 28 22 28 22 28 91 28 17 28 91 29 92 29 17 29 17 30 92 30 18 30 92 31 93 31 18 31 18 31 93 31 19 31 93 32 94 32 19 32 19 32 94 32 14 32 94 33 95 33 14 33 14 34 95 34 15 34 95 35 96 35 15 35 15 35 96 35 16 35 96 36 97 36 16 36 16 36 97 36 11 36 97 37 98 37 11 37 11 38 98 38 12 38 98 39 99 39 12 39 12 40 99 40 13 40 99 41 100 41 13 41 13 42 100 42 8 42 100 43 101 43 8 43 8 44 101 44 9 44 101 45 102 45 9 45 9 46 102 46 10 46 102 47 103 47 10 47 10 47 103 47 5 47 103 48 104 48 5 48 5 48 104 48 6 48 104 49 105 49 6 49 6 49 105 49 7 49 105 50 106 50 7 50 7 51 106 51 0 51 106 52 107 52 0 52 0 53 107 53 1 53 107 54 108 54 1 54 1 55 108 55 3 55 108 56 109 56 3 56 3 57 109 57 4 57 109 58 110 58 4 58 4 59 110 59 71 59 110 60 111 60 71 60 71 61 111 61 72 61 111 62 112 62 72 62 72 62 112 62 68 62 112 63 113 63 68 63 68 63 113 63 69 63 113 64 114 64 69 64 69 64 114 64 70 64 114 65 115 65 70 65 70 66 115 66 65 66 115 67 116 67 65 67 65 68 116 68 66 68 116 69 117 69 66 69 66 70 117 70 67 70 117 71 118 71 67 71 67 72 118 72 62 72 118 73 119 73 62 73 62 74 119 74 63 74 119 75 120 75 63 75 63 75 120 75 64 75 120 76 121 76 64 76 64 76 121 76 59 76 121 77 122 77 59 77 59 78 122 78 60 78 122 79 123 79 60 79 60 79 123 79 61 79 123 80 124 80 61 80 61 80 124 80 56 80 124 81 125 81 56 81 56 82 125 82 57 82 125 83 126 83 57 83 57 83 126 83 58 83 126 84 127 84 58 84 58 84 127 84 53 84 127 85 128 85 53 85 53 86 128 86 54 86 128 87 129 87 54 87 54 87 129 87 55 87 129 88 130 88 55 88 55 88 130 88 50 88 130 89 131 89 50 89 50 90 131 90 51 90 131 91 132 91 51 91 51 91 132 91 52 91 132 92 133 92 52 92 52 92 133 92 47 92 133 93 134 93 47 93 47 94 134 94 48 94 134 95 135 95 48 95 48 96 135 96 49 96 135 97 136 97 49 97 49 98 136 98 44 98 136 99 137 99 44 99 44 100 137 100 45 100 137 101 138 101 45 101 45 102 138 102 46 102 138 103 139 103 46 103 46 103 139 103 41 103 139 104 140 104 41 104 41 104 140 104 42 104 140 105 141 105 42 105 42 105 141 105 43 105 141 106 142 106 43 106 43 107 142 107 38 107 142 108 143 108 38 108 38 109 143 109 39 109 143 110 144 110 39 110 39 111 144 111 40 111 144 112 73 112 40 112 110 113 109 113 145 113 109 114 108 114 145 114 145 113 108 113 107 113 113 115 112 115 145 115 112 116 111 116 145 116 145 113 111 113 110 113 116 113 115 113 145 113 115 113 114 113 145 113 145 117 114 117 113 117 119 118 118 118 145 118 118 119 117 119 145 119 145 120 117 120 116 120 122 113 121 113 145 113 121 113 120 113 145 113 145 121 120 121 119 121 125 113 124 113 145 113 124 113 123 113 145 113 145 122 123 122 122 122 128 113 127 113 145 113 127 113 126 113 145 113 145 123 126 123 125 123 131 113 130 113 145 113 130 113 129 113 145 113 145 124 129 124 128 124 134 125 133 125 145 125 133 113 132 113 145 113 145 126 132 126 131 126 137 113 136 113 145 113 136 127 135 127 145 127 145 128 135 128 134 128 140 118 139 118 145 118 139 113 138 113 145 113 145 129 138 129 137 129 143 113 142 113 145 113 142 113 141 113 145 113 145 130 141 130 140 130 74 113 73 113 145 113 73 113 144 113 145 113 145 113 144 113 143 113 77 131 76 131 145 131 76 132 75 132 145 132 145 113 75 113 74 113 80 113 79 113 145 113 79 113 78 113 145 113 145 133 78 133 77 133 83 119 82 119 145 119 82 118 81 118 145 118 145 134 81 134 80 134 86 113 85 113 145 113 85 113 84 113 145 113 145 135 84 135 83 135 89 113 88 113 145 113 88 113 87 113 145 113 145 136 87 136 86 136 92 113 91 113 145 113 91 113 90 113 145 113 145 137 90 137 89 137 95 113 94 113 145 113 94 113 93 113 145 113 145 138 93 138 92 138 98 139 97 139 145 139 97 113 96 113 145 113 145 140 96 140 95 140 101 113 100 113 145 113 100 141 99 141 145 141 145 142 99 142 98 142 104 119 103 119 145 119 103 113 102 113 145 113 145 130 102 130 101 130 107 113 106 113 145 113 106 113 105 113 145 113 145 129 105 129 104 129</p>
        </triangles>
      </mesh>
    </geometry>
  </library_geometries>
  <library_visual_scenes>
    <visual_scene id="Scene" name="Scene">
      <node id="shaft_10_torsion_mechanism" name="shaft_10_torsion_mechanism" type="NODE">
        <matrix sid="transform">1 0 0 0 0 1 0 0 0 0 1 0 0 0 0 1</matrix>
        <instance_geometry url="#shaft_10_torsion_mechanism-mesh" name="shaft_10_torsion_mechanism"/>
      </node>
    </visual_scene>
  </library_visual_scenes>
  <scene>
    <instance_visual_scene url="#Scene"/>
  </scene>
</COLLADA>