<?xml version="1.0" encoding="utf-8"?>
<COLLADA xmlns="http://www.collada.org/2005/11/COLLADASchema" version="1.4.1" xmlns:xsi="http://www.w3.org/2001/XMLSchema-instance">
  <asset>
    <contributor>
      <author>Blender User</author>
      <authoring_tool>Blender 3.0.1</authoring_tool>
    </contributor>
    <created>2026-06-04T16:19:25</created>
    <modified>2026-06-04T16:19:25</modified>
    <unit name="meter" meter="1"/>
    <up_axis>Z_UP</up_axis>
  </asset>
  <library_images/>
  <library_geometries>
    <geometry id="trapezoid_single_eye_default_as_machined__6-mesh" name="trapezoid_single_eye_default_as_machined__6">
      <mesh>
        <source id="trapezoid_single_eye_default_as_machined__6-mesh-positions">
          <float_array id="trapezoid_single_eye_default_as_machined__6-mesh-positions-array" count="36">-0.2109799 0.01749998 0.08708626 -0.2419437 0.01749998 0.1020451 -0.1870863 0.01749998 0.1109799 -0.2123567 0.01749998 0.1632881 -0.2109799 -0.01749998 0.08708626 -0.1870863 -0.01749998 0.1109799 -0.2419437 -0.01749998 0.1020451 -0.2123567 -0.01749998 0.1632881 -0.184581 -0.01499998 0.1057942 -0.184581 0.01499998 0.1057942 -0.2057942 0.01499998 0.08458101 -0.2057942 -0.01499998 0.08458101</float_array>
          <technique_common>
            <accessor source="#trapezoid_single_eye_default_as_machined__6-mesh-positions-array" count="12" stride="3">
              <param name="X" type="float"/>
              <param name="Y" type="float"/>
              <param name="Z" type="float"/>
            </accessor>
          </technique_common>
        </source>
        <source id="trapezoid_single_eye_default_as_machined__6-mesh-normals">
          <float_array id="trapezoid_single_eye_default_as_machined__6-mesh-normals-array" count="54">0 1 0 0 1 0 0 -1 0 0.9004276 0 0.4350061 0.9004288 0 0.4350035 0.9004289 0 0.4350033 0.900429 0 0.435003 0.7071067 0 -0.7071068 -0.4350022 0 -0.9004294 -0.4350023 0 -0.9004294 -0.4350032 0 -0.900429 -0.4350035 0 -0.9004288 -0.9004291 0 0.4350031 -0.9004289 0 0.4350032 0.2953428 0.9085952 -0.2953431 0.2953439 0.9085947 -0.2953435 0.2953429 -0.9085952 -0.2953431 0.2953435 -0.9085949 -0.2953433</float_array>
          <technique_common>
            <accessor source="#trapezoid_single_eye_default_as_machined__6-mesh-normals-array" count="18" stride="3">
              <param name="X" type="float"/>
              <param name="Y" type="float"/>
              <param name="Z" type="float"/>
            </accessor>
          </technique_common>
        </source>
        <vertices id="trapezoid_single_eye_default_as_machined__6-mesh-vertices">
          <input semantic="POSITION" source="#trapezoid_single_eye_default_as_machined__6-mesh-positions"/>
        </vertices>
        <triangles count="20">
          <input semantic="VERTEX" source="#trapezoid_single_eye_default_as_machined__6-mesh-vertices" offset="0"/>
          <input semantic="NORMAL" source="#trapezoid_single_eye_default_as_machined__6-mesh-normals" offset="1"/>
          <p>0 0 1 0 2 0 1 1 3 1 2 1 4 2 5 2 6 2 5 2 7 2 6 2 8 3 9 3 5 3 9 4 2 4 5 4 5 5 2 5 7 5 2 6 3 6 7 6 10 7 9 7 11 7 9 7 8 7 11 7 10 8 11 8 0 8 11 9 4 9 0 9 0 10 4 10 1 10 4 11 6 11 1 11 1 12 6 12 3 12 6 13 7 13 3 13 2 14 9 14 0 14 9 15 10 15 0 15 4 16 11 16 5 16 11 17 8 17 5 17</p>
        </triangles>
      </mesh>
    </geometry>
  </library_geometries>
  <library_visual_scenes>
    <visual_scene id="Scene" name="Scene">
      <node id="trapezoid_single_eye_default_as_machined__6" name="trapezoid_single_eye_default_as_machined__6" type="NODE">
        <matrix sid="transform">1 0 0 0 0 1 0 0 0 0 1 0 0 0 0 1</matrix>
        <instance_geometry url="#trapezoid_single_eye_default_as_machined__6-mesh" name="trapezoid_single_eye_default_as_machined__6"/>
      </node>
    </visual_scene>
  </library_visual_scenes>
  <scene>
    <instance_visual_scene url="#Scene"/>
  </scene>
</COLLADA>