<?xml version="1.0" encoding="utf-8"?>
<COLLADA xmlns="http://www.collada.org/2005/11/COLLADASchema" version="1.4.1" xmlns:xsi="http://www.w3.org/2001/XMLSchema-instance">
  <asset>
    <contributor>
      <author>Blender User</author>
      <authoring_tool>Blender 3.0.1</authoring_tool>
    </contributor>
    <created>2026-06-04T16:19:21</created>
    <modified>2026-06-04T16:19:21</modified>
    <unit name="meter" meter="1"/>
    <up_axis>Z_UP</up_axis>
  </asset>
  <library_images/>
  <library_geometries>
    <geometry id="trapezoid_single_eye_default_as_machined-mesh" name="trapezoid_single_eye_default_as_machined">
      <mesh>
        <source id="trapezoid_single_eye_default_as_machined-mesh-positions">
          <float_array id="trapezoid_single_eye_default_as_machined-mesh-positions-array" count="864">-0.2926346 0.002499997 0.1926345 -0.300399 0.002499997 0.200399 -0.2903834 0.002499997 0.1946973 -0.2974416 0.002499997 0.203109 -0.287961 0.002499997 0.1965561 -0.2942592 0.002499997 0.2055509 -0.2853858 0.002499997 0.1981967 -0.2908761 0.002499997 0.2077061 -0.2826775 0.002499997 0.1996065 -0.2873181 0.002499997 0.2095583 -0.2798565 0.002499997 0.200775 -0.2836121 0.002499997 0.2110934 -0.2769445 0.002499997 0.2016932 -0.2797865 0.002499997 0.2122996 -0.2739635 0.002499997 0.2023541 -0.2758703 0.002499997 0.2131678 -0.2709363 0.002499997 0.2027526 -0.2718933 0.002499997 0.2136914 -0.2678858 0.002499997 0.2028858 -0.2678858 0.002499997 0.2138664 -0.2648354 0.002499997 0.2027526 -0.2638784 0.002499997 0.2136914 -0.2618081 0.002499997 0.2023541 -0.2599014 0.002499997 0.2131678 -0.2588272 0.002499997 0.2016932 -0.2559852 0.002499997 0.2122996 -0.2559151 0.002499997 0.200775 -0.2521595 0.002499997 0.2110934 -0.2530942 0.002499997 0.1996065 -0.2484536 0.002499997 0.2095583 -0.2503858 0.002499997 0.1981967 -0.2448955 0.002499997 0.2077061 -0.2478106 0.002499997 0.1965561 -0.2415124 0.002499997 0.2055509 -0.2453882 0.002499997 0.1946973 -0.2383301 0.002499997 0.203109 -0.2431371 0.002499997 0.1926345 -0.2353726 0.002499997 0.200399 -0.2410742 0.002499997 0.1903834 -0.2326626 0.002499997 0.1974415 -0.2392155 0.002499997 0.187961 -0.2302207 0.002499997 0.1942592 -0.2375749 0.002499997 0.1853858 -0.2280654 0.002499997 0.1908761 -0.236165 0.002499997 0.1826775 -0.2262132 0.002499997 0.187318 -0.2349966 0.002499997 0.1798565 -0.2246782 0.002499997 0.1836121 -0.2340784 0.002499997 0.1769444 -0.2234719 0.002499997 0.1797865 -0.2334175 0.002499997 0.1739635 -0.2226037 0.002499997 0.1758702 -0.233019 0.002499997 0.1709362 -0.2220802 0.002499997 0.1718932 -0.2328858 0.002499997 0.1678858 -0.2219052 0.002499997 0.1678858 -0.233019 0.002499997 0.1648353 -0.2220802 0.002499997 0.1638783 -0.2334175 0.002499997 0.1618081 -0.2226037 0.002499997 0.1599013 -0.2340784 0.002499997 0.1588271 -0.2234719 0.002499997 0.1559851 -0.2349966 0.002499997 0.1559151 -0.2246782 0.002499997 0.1521595 -0.236165 0.002499997 0.1530942 -0.2262132 0.002499997 0.1484535 -0.2375749 0.002499997 0.1503858 -0.2280654 0.002499997 0.1448955 -0.2392155 0.002499997 0.1478106 -0.2302207 0.002499997 0.1415124 -0.2410742 0.002499997 0.1453883 -0.2326626 0.002499997 0.1383301 -0.2431371 0.002499997 0.143137 -0.2353726 0.002499997 0.1353726 -0.2453882 0.002499997 0.1410742 -0.2383301 0.002499997 0.1326627 -0.2478106 0.002499997 0.1392155 -0.2415124 0.002499997 0.1302207 -0.2503858 0.002499997 0.1375749 -0.2448955 0.002499997 0.1280655 -0.2530942 0.002499997 0.136165 -0.2484536 0.002499997 0.1262133 -0.2559151 0.002499997 0.1349965 -0.2521595 0.002499997 0.1246782 -0.2588272 0.002499997 0.1340784 -0.2559852 0.002499997 0.123472 -0.2618081 0.002499997 0.1334175 -0.2599014 0.002499997 0.1226038 -0.2648354 0.002499997 0.133019 -0.2638784 0.002499997 0.1220802 -0.2678858 0.002499997 0.1328858 -0.2678858 0.002499997 0.1219052 -0.2709363 0.002499997 0.133019 -0.2718933 0.002499997 0.1220802 -0.2739635 0.002499997 0.1334175 -0.2758703 0.002499997 0.1226038 -0.2769445 0.002499997 0.1340784 -0.2797865 0.002499997 0.123472 -0.2798565 0.002499997 0.1349965 -0.2836121 0.002499997 0.1246782 -0.2826775 0.002499997 0.136165 -0.2873181 0.002499997 0.1262133 -0.2853858 0.002499997 0.1375749 -0.2908761 0.002499997 0.1280655 -0.287961 0.002499997 0.1392155 -0.2942592 0.002499997 0.1302207 -0.2903834 0.002499997 0.1410742 -0.2974416 0.002499997 0.1326627 -0.2926346 0.002499997 0.143137 -0.300399 0.002499997 0.1353726 -0.2946974 0.002499997 0.1453883 -0.303109 0.002499997 0.1383301 -0.2965561 0.002499997 0.1478106 -0.3055509 0.002499997 0.1415124 -0.2981967 0.002499997 0.1503858 -0.3077061 0.002499997 0.1448955 -0.2996066 0.002499997 0.1530942 -0.3095583 0.002499997 0.1484535 -0.3007751 0.002499997 0.1559151 -0.3110934 0.002499997 0.1521595 -0.3016932 0.002499997 0.1588271 -0.3122996 0.002499997 0.1559851 -0.3023541 0.002499997 0.1618081 -0.3131678 0.002499997 0.1599013 -0.3027526 0.002499997 0.1648353 -0.3136914 0.002499997 0.1638783 -0.3028858 0.002499997 0.1678858 -0.3138664 0.002499997 0.1678858 -0.3027526 0.002499997 0.1709362 -0.3136914 0.002499997 0.1718932 -0.3023541 0.002499997 0.1739635 -0.3131678 0.002499997 0.1758702 -0.3016932 0.002499997 0.1769444 -0.3122996 0.002499997 0.1797865 -0.3007751 0.002499997 0.1798565 -0.3110934 0.002499997 0.1836121 -0.2996066 0.002499997 0.1826775 -0.3095583 0.002499997 0.187318 -0.2981967 0.002499997 0.1853858 -0.3077061 0.002499997 0.1908761 -0.2965561 0.002499997 0.187961 -0.3055509 0.002499997 0.1942592 -0.2946974 0.002499997 0.1903834 -0.303109 0.002499997 0.1974415 -0.236165 -0.002499997 0.1530942 -0.2262132 -0.002499997 0.1484535 -0.2349966 -0.002499997 0.1559151 -0.2246782 -0.002499997 0.1521595 -0.2340784 -0.002499997 0.1588271 -0.2234719 -0.002499997 0.1559851 -0.2334175 -0.002499997 0.1618081 -0.2226037 -0.002499997 0.1599013 -0.233019 -0.002499997 0.1648353 -0.2220802 -0.002499997 0.1638783 -0.2328858 -0.002499997 0.1678858 -0.2219052 -0.002499997 0.1678858 -0.233019 -0.002499997 0.1709362 -0.2220802 -0.002499997 0.1718932 -0.2334175 -0.002499997 0.1739635 -0.2226037 -0.002499997 0.1758702 -0.2340784 -0.002499997 0.1769444 -0.2234719 -0.002499997 0.1797865 -0.2349966 -0.002499997 0.1798565 -0.2246782 -0.002499997 0.1836121 -0.236165 -0.002499997 0.1826775 -0.2262132 -0.002499997 0.187318 -0.2375749 -0.002499997 0.1853858 -0.2280654 -0.002499997 0.1908761 -0.2392155 -0.002499997 0.187961 -0.2302207 -0.002499997 0.1942592 -0.2410742 -0.002499997 0.1903834 -0.2326626 -0.002499997 0.1974415 -0.2431371 -0.002499997 0.1926345 -0.2353726 -0.002499997 0.200399 -0.2453882 -0.002499997 0.1946973 -0.2383301 -0.002499997 0.203109 -0.2478106 -0.002499997 0.1965561 -0.2415124 -0.002499997 0.2055509 -0.2503858 -0.002499997 0.1981967 -0.2448955 -0.002499997 0.2077061 -0.2530942 -0.002499997 0.1996065 -0.2484536 -0.002499997 0.2095583 -0.2559151 -0.002499997 0.200775 -0.2521595 -0.002499997 0.2110934 -0.2588272 -0.002499997 0.2016932 -0.2559852 -0.002499997 0.2122996 -0.2618081 -0.002499997 0.2023541 -0.2599014 -0.002499997 0.2131678 -0.2648354 -0.002499997 0.2027526 -0.2638784 -0.002499997 0.2136914 -0.2678858 -0.002499997 0.2028858 -0.2678858 -0.002499997 0.2138664 -0.2709363 -0.002499997 0.2027526 -0.2718933 -0.002499997 0.2136914 -0.2739635 -0.002499997 0.2023541 -0.2758703 -0.002499997 0.2131678 -0.2769445 -0.002499997 0.2016932 -0.2797865 -0.002499997 0.2122996 -0.2798565 -0.002499997 0.200775 -0.2836121 -0.002499997 0.2110934 -0.2826775 -0.002499997 0.1996065 -0.2873181 -0.002499997 0.2095583 -0.2853858 -0.002499997 0.1981967 -0.2908761 -0.002499997 0.2077061 -0.287961 -0.002499997 0.1965561 -0.2942592 -0.002499997 0.2055509 -0.2903834 -0.002499997 0.1946973 -0.2974416 -0.002499997 0.203109 -0.2926346 -0.002499997 0.1926345 -0.300399 -0.002499997 0.200399 -0.2946974 -0.002499997 0.1903834 -0.303109 -0.002499997 0.1974415 -0.2965561 -0.002499997 0.187961 -0.3055509 -0.002499997 0.1942592 -0.2981967 -0.002499997 0.1853858 -0.3077061 -0.002499997 0.1908761 -0.2996066 -0.002499997 0.1826775 -0.3095583 -0.002499997 0.187318 -0.3007751 -0.002499997 0.1798565 -0.3110934 -0.002499997 0.1836121 -0.3016932 -0.002499997 0.1769444 -0.3122996 -0.002499997 0.1797865 -0.3023541 -0.002499997 0.1739635 -0.3131678 -0.002499997 0.1758702 -0.3027526 -0.002499997 0.1709362 -0.3136914 -0.002499997 0.1718932 -0.3028858 -0.002499997 0.1678858 -0.3138664 -0.002499997 0.1678858 -0.3027526 -0.002499997 0.1648353 -0.3136914 -0.002499997 0.1638783 -0.3023541 -0.002499997 0.1618081 -0.3131678 -0.002499997 0.1599013 -0.3016932 -0.002499997 0.1588271 -0.3122996 -0.002499997 0.1559851 -0.3007751 -0.002499997 0.1559151 -0.3110934 -0.002499997 0.1521595 -0.2996066 -0.002499997 0.1530942 -0.3095583 -0.002499997 0.1484535 -0.2981967 -0.002499997 0.1503858 -0.3077061 -0.002499997 0.1448955 -0.2965561 -0.002499997 0.1478106 -0.3055509 -0.002499997 0.1415124 -0.2946974 -0.002499997 0.1453883 -0.303109 -0.002499997 0.1383301 -0.2926346 -0.002499997 0.143137 -0.300399 -0.002499997 0.1353726 -0.2903834 -0.002499997 0.1410742 -0.2974416 -0.002499997 0.1326627 -0.287961 -0.002499997 0.1392155 -0.2942592 -0.002499997 0.1302207 -0.2853858 -0.002499997 0.1375749 -0.2908761 -0.002499997 0.1280655 -0.2826775 -0.002499997 0.136165 -0.2873181 -0.002499997 0.1262133 -0.2798565 -0.002499997 0.1349965 -0.2836121 -0.002499997 0.1246782 -0.2769445 -0.002499997 0.1340784 -0.2797865 -0.002499997 0.123472 -0.2739635 -0.002499997 0.1334175 -0.2758703 -0.002499997 0.1226038 -0.2709363 -0.002499997 0.133019 -0.2718933 -0.002499997 0.1220802 -0.2678858 -0.002499997 0.1328858 -0.2678858 -0.002499997 0.1219052 -0.2648354 -0.002499997 0.133019 -0.2638784 -0.002499997 0.1220802 -0.2618081 -0.002499997 0.1334175 -0.2599014 -0.002499997 0.1226038 -0.2588272 -0.002499997 0.1340784 -0.2559852 -0.002499997 0.123472 -0.2559151 -0.002499997 0.1349965 -0.2521595 -0.002499997 0.1246782 -0.2530942 -0.002499997 0.136165 -0.2484536 -0.002499997 0.1262133 -0.2503858 -0.002499997 0.1375749 -0.2448955 -0.002499997 0.1280655 -0.2478106 -0.002499997 0.1392155 -0.2415124 -0.002499997 0.1302207 -0.2453882 -0.002499997 0.1410742 -0.2383301 -0.002499997 0.1326627 -0.2431371 -0.002499997 0.143137 -0.2353726 -0.002499997 0.1353726 -0.2410742 -0.002499997 0.1453883 -0.2326626 -0.002499997 0.1383301 -0.2392155 -0.002499997 0.1478106 -0.2302207 -0.002499997 0.1415124 -0.2375749 -0.002499997 0.1503858 -0.2280654 -0.002499997 0.1448955</float_array>
          <technique_common>
            <accessor source="#trapezoid_single_eye_default_as_machined-mesh-positions-array" count="288" stride="3">
              <param name="X" type="float"/>
              <param name="Y" type="float"/>
              <param name="Z" type="float"/>
            </accessor>
          </technique_common>
        </source>
        <source id="trapezoid_single_eye_default_as_machined-mesh-normals">
          <float_array id="trapezoid_single_eye_default_as_machined-mesh-normals-array" count="936">0 1 0 0 1 0 0 1 0 0 1 0 0 1 0 0 1 0 0 1 0 0 1 0 0 1 0 0 1 0 0 1 0 0 1 0 0 1 0 0 1 0 0 1 0 0 1 0 0 1 0 0 1 0 0 1 0 0 1 0 0 1 0 0 1 0 0 1 0 0 1 0 0 1 0 0 1 0 0 1 0 0 1 0 0 1 0 0 1 0 0 1 0 0 1 0 0 1 0 0 1 0 0 1 0 0 1 0 0 -1 0 0 -1 0 0 -1 0 0 -1 0 0 -1 0 0 -1 0 0 -1 0 0 -1 0 0 -1 0 0 -1 0 0 -1 0 0 -1 0 0 -1 0 0 -1 0 0 -1 0 0 -1 0 0 -1 0 0 -1 0 0 -1 0 0 -1 0 0 -1 0 0 -1 0 0 -1 0 0 -1 0 0 -1 0 0 -1 0 0 -1 0 0 -1 0 0 -1 0 0 -1 0 0 -1 0 0 -1 0 0 -1 0 0 -1 0 0 -1 0 0 -1 0 0.9990483 0 -0.04361963 0.9914447 0 -0.130528 0.9914448 0 -0.130527 0.9762961 0 -0.2164395 0.9762965 0 -0.2164379 0.9537152 0 -0.3007112 0.9537146 0 -0.3007134 0.9238816 0 -0.3826786 0.9238805 0 -0.3826813 0.8870099 0 -0.4617505 0.8870115 0 -0.4617474 0.8433908 0 -0.5373007 0.843393 0 -0.5372972 0.7933529 0 -0.6087621 0.7372792 0 -0.6755883 0.7372722 0 -0.6755959 0.6755924 0 -0.7372753 0.6755966 0 -0.7372716 0.6087594 0 -0.7933549 0.6087642 0 -0.7933514 0.5372985 0 -0.8433922 0.4617505 0 -0.8870099 0.382674 0 -0.9238835 0.382687 0 -0.9238781 0.3007 0 -0.9537189 0.3007138 0 -0.9537144 0.2164395 0 -0.9762961 0.1305167 0 -0.9914461 0.1305317 0 -0.9914442 0.0436173 0 -0.9990484 -0.04361689 0 -0.9990484 -0.1305317 0 -0.9914442 -0.1305167 0 -0.9914461 -0.2164395 0 -0.9762961 -0.3007138 0 -0.9537144 -0.3007 0 -0.9537189 -0.3826905 0 -0.9238767 -0.3826774 0 -0.9238821 -0.4617465 0 -0.887012 -0.5373007 0 -0.8433908 -0.6087642 0 -0.7933514 -0.6087594 0 -0.7933549 -0.6755942 0 -0.7372738 -0.67559 0 -0.7372776 -0.7372722 0 -0.6755959 -0.7372792 0 -0.6755883 -0.7933552 0 -0.6087591 -0.8433908 0 -0.5373007 -0.8433887 0 -0.5373042 -0.8870115 0 -0.4617474 -0.8870099 0 -0.4617505 -0.9238805 0 -0.3826813 -0.9238816 0 -0.3826786 -0.953716 0 -0.300709 -0.9537167 0 -0.3007068 -0.9762965 0 -0.2164379 -0.9762961 0 -0.2164395 -0.9914448 0 -0.130527 -0.9914447 0 -0.130528 -0.9990483 0 -0.04361963 -0.9990482 0 0.04361999 -0.9990483 0 0.04361963 -0.9914448 0 0.130527 -0.9914449 0 0.130526 -0.9762961 0 0.2164395 -0.9537167 0 0.3007068 -0.9238793 0 0.382684 -0.9238816 0 0.3826786 -0.8870083 0 0.4617536 -0.8870115 0 0.4617474 -0.8433887 0 0.5373042 -0.843393 0 0.5372972 -0.7933552 0 0.6087591 -0.7372757 0 0.6755921 -0.7372792 0 0.6755883 -0.67559 0 0.7372776 -0.6087594 0 0.7933549 -0.6087642 0 0.7933514 -0.5372953 0 0.8433942 -0.5373061 0 0.8433873 -0.4617405 0 0.8870151 -0.4617465 0 0.887012 -0.382697 0 0.923874 -0.3826774 0 0.9238821 -0.3007138 0 0.9537144 -0.3007 0 0.9537189 -0.2164395 0 0.9762961 -0.1305167 0 0.9914461 -0.1305317 0 0.9914442 -0.04361689 0 0.9990484 0.0436173 0 0.9990484 0.1305317 0 0.9914442 0.1305167 0 0.9914461 0.2164395 0 0.9762961 0.3007 0 0.9537189 0.3007138 0 0.9537144 0.382674 0 0.9238835 0.3826935 0 0.9238755 0.4617505 0 0.8870099 0.4617445 0 0.887013 0.5373039 0 0.8433887 0.5372931 0 0.8433957 0.6087642 0 0.7933514 0.6087594 0 0.7933549 0.6755924 0 0.7372753 0.7372792 0 0.6755883 0.7372757 0 0.6755921 0.7933529 0 0.6087621 0.8433953 0 0.5372938 0.8433908 0 0.5373007 0.8870115 0 0.4617474 0.8870083 0 0.4617536 0.9238816 0 0.3826786 0.9238793 0 0.382684 0.9537152 0 0.3007112 0.9762961 0 0.2164395 0.9914449 0 0.130526 0.9914448 0 0.130527 0.9990483 0 0.04361963 0.9990482 0 0.04361999 -0.9990483 0 0.04361939 -0.9914453 0 0.1305239 -0.9914453 0 0.1305232 -0.9762959 0 0.2164404 -0.9762961 0 0.2164391 -0.9537171 0 0.3007057 -0.9238782 0 0.3826869 -0.923879 0 0.3826848 -0.8870109 0 0.4617486 -0.8433929 0 0.5372974 -0.8433946 0 0.5372948 -0.7933503 0 0.6087655 -0.7933545 0 0.6087599 -0.737281 0 0.6755862 -0.7372757 0 0.6755921 -0.675593 0 0.7372748 -0.6755867 0 0.7372806 -0.6087616 0 0.7933532 -0.6087543 0 0.7933589 -0.5373069 0 0.8433868 -0.5372904 0 0.8433974 -0.4617518 0 0.8870093 -0.382683 0 0.9238797 -0.3007128 0 0.9537148 -0.3007023 0 0.9537181 -0.2164453 0 0.9762948 -0.2164342 0 0.9762972 -0.1305289 0 0.9914445 -0.1305176 0 0.991446 -0.04362583 0 0.999048 -0.04361426 0 0.9990485 0.04361397 0 0.9990485 0.04362553 0 0.999048 0.1305176 0 0.991446 0.1305289 0 0.9914445 0.2164342 0 0.9762972 0.2164453 0 0.9762948 0.3007023 0 0.9537181 0.3007128 0 0.9537148 0.3826844 0 0.9238792 0.4617487 0 0.8870108 0.5372921 0 0.8433963 0.5373086 0 0.8433858 0.608756 0 0.7933575 0.6087633 0 0.7933519 0.6755867 0 0.7372806 0.675593 0 0.7372748 0.7372757 0 0.6755921 0.737281 0 0.6755862 0.7933545 0 0.6087599 0.7933503 0 0.6087655 0.8433929 0 0.5372974 0.8433912 0 0.5373001 0.8870109 0 0.4617486 0.923879 0 0.3826848 0.9238782 0 0.3826869 0.9537171 0 0.3007057 0.9762961 0 0.2164391 0.9762959 0 0.2164404 0.9914453 0 0.1305232 0.9914453 0 0.1305239 0.9990483 0 0.04361939 0.9990483 0 0.04361885 0.9990483 0 -0.04361909 0.9990483 0 -0.04361939 0.9914453 0 -0.1305232 0.9914453 0 -0.1305239 0.9762961 0 -0.2164391 0.9537165 0 -0.3007073 0.9537171 0 -0.3007057 0.923879 0 -0.3826848 0.9238798 0 -0.3826828 0.8870084 0 -0.4617533 0.8870109 0 -0.4617486 0.8433912 0 -0.5373001 0.8433929 0 -0.5372974 0.7933525 0 -0.6087627 0.7933545 0 -0.6087599 0.7372784 0 -0.6755892 0.6755899 0 -0.7372777 0.6087597 0 -0.7933547 0.608767 0 -0.793349 0.5372962 0 -0.8433937 0.5373003 0 -0.843391 0.4617442 0 -0.8870133 0.4617487 0 -0.8870108 0.3826844 0 -0.9238792 0.3007076 0 -0.9537164 0.2164397 0 -0.976296 0.1305233 0 -0.9914453 0.04361975 0 -0.9990482 -0.04362004 0 -0.9990482 -0.1305233 0 -0.9914453 -0.2164397 0 -0.976296 -0.3007076 0 -0.9537164 -0.382683 0 -0.9238797 -0.4617518 0 -0.8870093 -0.4617472 0 -0.8870116 -0.5372986 0 -0.8433921 -0.5372945 0 -0.8433947 -0.6087652 0 -0.7933505 -0.6087579 0 -0.7933561 -0.6755899 0 -0.7372777 -0.7372784 0 -0.6755892 -0.7933545 0 -0.6087599 -0.7933525 0 -0.6087627 -0.8433946 0 -0.5372948 -0.8433929 0 -0.5372974 -0.8870109 0 -0.4617486 -0.8870084 0 -0.4617533 -0.9238798 0 -0.3826828 -0.923879 0 -0.3826848 -0.9537171 0 -0.3007057 -0.9537165 0 -0.3007073 -0.9762961 0 -0.2164391 -0.9914453 0 -0.1305239 -0.9914453 0 -0.1305232 -0.9990483 0 -0.04361939 -0.9990483 0 -0.04361909 -0.9990483 0 0.04361885</float_array>
          <technique_common>
            <accessor source="#trapezoid_single_eye_default_as_machined-mesh-normals-array" count="312" stride="3">
              <param name="X" type="float"/>
              <param name="Y" type="float"/>
              <param name="Z" type="float"/>
            </accessor>
          </technique_common>
        </source>
        <vertices id="trapezoid_single_eye_default_as_machined-mesh-vertices">
          <input semantic="POSITION" source="#trapezoid_single_eye_default_as_machined-mesh-positions"/>
        </vertices>
        <triangles count="576">
          <input semantic="VERTEX" source="#trapezoid_single_eye_default_as_machined-mesh-vertices" offset="0"/>
          <input semantic="NORMAL" source="#trapezoid_single_eye_default_as_machined-mesh-normals" offset="1"/>
          <p>0 0 1 0 2 0 1 1 3 1 2 1 2 2 3 2 4 2 3 3 5 3 4 3 4 4 5 4 6 4 5 2 7 2 6 2 6 2 7 2 8 2 7 2 9 2 8 2 8 2 9 2 10 2 9 2 11 2 10 2 10 5 11 5 12 5 11 6 13 6 12 6 12 2 13 2 14 2 13 7 15 7 14 7 14 2 15 2 16 2 15 2 17 2 16 2 16 2 17 2 18 2 17 2 19 2 18 2 18 2 19 2 20 2 19 7 21 7 20 7 20 2 21 2 22 2 21 2 23 2 22 2 22 8 23 8 24 8 23 2 25 2 24 2 24 9 25 9 26 9 25 2 27 2 26 2 26 10 27 10 28 10 27 2 29 2 28 2 28 11 29 11 30 11 29 2 31 2 30 2 30 12 31 12 32 12 31 2 33 2 32 2 32 13 33 13 34 13 33 14 35 14 34 14 34 13 35 13 36 13 35 2 37 2 36 2 36 15 37 15 38 15 37 2 39 2 38 2 38 16 39 16 40 16 39 3 41 3 40 3 40 4 41 4 42 4 41 17 43 17 42 17 42 18 43 18 44 18 43 2 45 2 44 2 44 2 45 2 46 2 45 2 47 2 46 2 46 0 47 0 48 0 47 2 49 2 48 2 48 2 49 2 50 2 49 2 51 2 50 2 50 2 51 2 52 2 51 2 53 2 52 2 52 2 53 2 54 2 53 2 55 2 54 2 54 19 55 19 56 19 55 20 57 20 56 20 56 2 57 2 58 2 57 2 59 2 58 2 58 2 59 2 60 2 59 2 61 2 60 2 60 21 61 21 62 21 61 2 63 2 62 2 62 22 63 22 64 22 63 23 65 23 64 23 64 22 65 22 66 22 65 2 67 2 66 2 66 18 67 18 68 18 67 2 69 2 68 2 68 2 69 2 70 2 69 2 71 2 70 2 70 18 71 18 72 18 71 2 73 2 72 2 72 2 73 2 74 2 73 3 75 3 74 3 74 2 75 2 76 2 75 2 77 2 76 2 76 2 77 2 78 2 77 2 79 2 78 2 78 2 79 2 80 2 79 6 81 6 80 6 80 2 81 2 82 2 81 24 83 24 82 24 82 4 83 4 84 4 83 24 85 24 84 24 84 2 85 2 86 2 85 25 87 25 86 25 86 2 87 2 88 2 87 2 89 2 88 2 88 2 89 2 90 2 89 2 91 2 90 2 90 2 91 2 92 2 91 26 93 26 92 26 92 2 93 2 94 2 93 2 95 2 94 2 94 27 95 27 96 27 95 2 97 2 96 2 96 28 97 28 98 28 97 2 99 2 98 2 98 29 99 29 100 29 99 2 101 2 100 2 100 30 101 30 102 30 101 2 103 2 102 2 102 31 103 31 104 31 103 3 105 3 104 3 104 2 105 2 106 2 105 32 107 32 106 32 106 33 107 33 108 33 107 2 109 2 108 2 108 2 109 2 110 2 109 2 111 2 110 2 110 2 111 2 112 2 111 34 113 34 112 34 112 2 113 2 114 2 113 2 115 2 114 2 114 5 115 5 116 5 115 2 117 2 116 2 116 2 117 2 118 2 117 2 119 2 118 2 118 2 119 2 120 2 119 2 121 2 120 2 120 2 121 2 122 2 121 2 123 2 122 2 122 2 123 2 124 2 123 2 125 2 124 2 124 2 125 2 126 2 125 2 127 2 126 2 126 2 127 2 128 2 127 2 129 2 128 2 128 2 129 2 130 2 129 2 131 2 130 2 130 2 131 2 132 2 131 2 133 2 132 2 132 2 133 2 134 2 133 2 135 2 134 2 134 35 135 35 136 35 135 14 137 14 136 14 136 35 137 35 138 35 137 2 139 2 138 2 138 2 139 2 140 2 139 2 141 2 140 2 140 2 141 2 142 2 141 3 143 3 142 3 142 2 143 2 0 2 143 2 1 2 0 2 144 36 145 36 146 36 145 36 147 36 146 36 146 37 147 37 148 37 147 36 149 36 148 36 148 36 149 36 150 36 149 36 151 36 150 36 150 36 151 36 152 36 151 36 153 36 152 36 152 36 153 36 154 36 153 36 155 36 154 36 154 38 155 38 156 38 155 39 157 39 156 39 156 36 157 36 158 36 157 36 159 36 158 36 158 36 159 36 160 36 159 36 161 36 160 36 160 40 161 40 162 40 161 36 163 36 162 36 162 41 163 41 164 41 163 42 165 42 164 42 164 43 165 43 166 43 165 36 167 36 166 36 166 44 167 44 168 44 167 36 169 36 168 36 168 36 169 36 170 36 169 36 171 36 170 36 170 44 171 44 172 44 171 36 173 36 172 36 172 36 173 36 174 36 173 45 175 45 174 45 174 36 175 36 176 36 175 36 177 36 176 36 176 36 177 36 178 36 177 36 179 36 178 36 178 36 179 36 180 36 179 46 181 46 180 46 180 36 181 36 182 36 181 47 183 47 182 47 182 48 183 48 184 48 183 49 185 49 184 49 184 36 185 36 186 36 185 50 187 50 186 50 186 36 187 36 188 36 187 36 189 36 188 36 188 36 189 36 190 36 189 36 191 36 190 36 190 36 191 36 192 36 191 50 193 50 192 50 192 36 193 36 194 36 193 36 195 36 194 36 194 51 195 51 196 51 195 36 197 36 196 36 196 52 197 52 198 52 197 36 199 36 198 36 198 53 199 53 200 53 199 36 201 36 200 36 200 54 201 54 202 54 201 36 203 36 202 36 202 55 203 55 204 55 203 45 205 45 204 45 204 36 205 36 206 36 205 42 207 42 206 42 206 56 207 56 208 56 207 36 209 36 208 36 208 36 209 36 210 36 209 36 211 36 210 36 210 36 211 36 212 36 211 57 213 57 212 57 212 36 213 36 214 36 213 36 215 36 214 36 214 37 215 37 216 37 215 36 217 36 216 36 216 36 217 36 218 36 217 36 219 36 218 36 218 36 219 36 220 36 219 36 221 36 220 36 220 36 221 36 222 36 221 36 223 36 222 36 222 36 223 36 224 36 223 36 225 36 224 36 224 36 225 36 226 36 225 36 227 36 226 36 226 36 227 36 228 36 227 36 229 36 228 36 228 36 229 36 230 36 229 36 231 36 230 36 230 36 231 36 232 36 231 36 233 36 232 36 232 36 233 36 234 36 233 36 235 36 234 36 234 44 235 44 236 44 235 58 237 58 236 58 236 59 237 59 238 59 237 36 239 36 238 36 238 36 239 36 240 36 239 36 241 36 240 36 240 36 241 36 242 36 241 45 243 45 242 45 242 36 243 36 244 36 243 36 245 36 244 36 244 60 245 60 246 60 245 61 247 61 246 61 246 36 247 36 248 36 247 45 249 45 248 45 248 62 249 62 250 62 249 36 251 36 250 36 250 36 251 36 252 36 251 36 253 36 252 36 252 36 253 36 254 36 253 36 255 36 254 36 254 60 255 60 256 60 255 63 257 63 256 63 256 36 257 36 258 36 257 64 259 64 258 64 258 36 259 36 260 36 259 36 261 36 260 36 260 36 261 36 262 36 261 36 263 36 262 36 262 36 263 36 264 36 263 64 265 64 264 64 264 36 265 36 266 36 265 36 267 36 266 36 266 65 267 65 268 65 267 36 269 36 268 36 268 66 269 66 270 66 269 36 271 36 270 36 270 67 271 67 272 67 271 36 273 36 272 36 272 53 273 53 274 53 273 36 275 36 274 36 274 53 275 53 276 53 275 36 277 36 276 36 276 68 277 68 278 68 277 69 279 69 278 69 278 70 279 70 280 70 279 36 281 36 280 36 280 71 281 71 282 71 281 36 283 36 282 36 282 62 283 62 284 62 283 45 285 45 284 45 284 48 285 48 286 48 285 58 287 58 286 58 286 44 287 44 144 44 287 36 145 36 144 36 226 72 126 72 224 72 126 72 128 72 224 72 224 73 128 73 222 73 128 74 130 74 222 74 222 75 130 75 220 75 130 76 132 76 220 76 220 77 132 77 218 77 132 78 134 78 218 78 218 79 134 79 216 79 134 80 136 80 216 80 216 81 136 81 214 81 136 82 138 82 214 82 214 83 138 83 212 83 138 84 140 84 212 84 212 85 140 85 210 85 140 85 142 85 210 85 210 86 142 86 208 86 142 87 0 87 208 87 208 88 0 88 206 88 0 89 2 89 206 89 206 90 2 90 204 90 2 91 4 91 204 91 204 92 4 92 202 92 4 92 6 92 202 92 202 93 6 93 200 93 6 93 8 93 200 93 200 94 8 94 198 94 8 95 10 95 198 95 198 96 10 96 196 96 10 97 12 97 196 97 196 98 12 98 194 98 12 98 14 98 194 98 194 99 14 99 192 99 14 100 16 100 192 100 192 101 16 101 190 101 16 101 18 101 190 101 190 102 18 102 188 102 18 102 20 102 188 102 188 103 20 103 186 103 20 104 22 104 186 104 186 105 22 105 184 105 22 105 24 105 184 105 184 106 24 106 182 106 24 107 26 107 182 107 182 108 26 108 180 108 26 109 28 109 180 109 180 110 28 110 178 110 28 110 30 110 178 110 178 111 30 111 176 111 30 111 32 111 176 111 176 112 32 112 174 112 32 113 34 113 174 113 174 114 34 114 172 114 34 115 36 115 172 115 172 116 36 116 170 116 36 117 38 117 170 117 170 118 38 118 168 118 38 118 40 118 168 118 168 119 40 119 166 119 40 120 42 120 166 120 166 121 42 121 164 121 42 122 44 122 164 122 164 123 44 123 162 123 44 124 46 124 162 124 162 125 46 125 160 125 46 126 48 126 160 126 160 127 48 127 158 127 48 128 50 128 158 128 158 129 50 129 156 129 50 130 52 130 156 130 156 131 52 131 154 131 52 131 54 131 154 131 154 132 54 132 152 132 54 133 56 133 152 133 152 134 56 134 150 134 56 135 58 135 150 135 150 136 58 136 148 136 58 136 60 136 148 136 148 137 60 137 146 137 60 137 62 137 146 137 146 138 62 138 144 138 62 139 64 139 144 139 144 140 64 140 286 140 64 141 66 141 286 141 286 142 66 142 284 142 66 143 68 143 284 143 284 144 68 144 282 144 68 144 70 144 282 144 282 145 70 145 280 145 70 146 72 146 280 146 280 147 72 147 278 147 72 147 74 147 278 147 278 148 74 148 276 148 74 149 76 149 276 149 276 150 76 150 274 150 76 151 78 151 274 151 274 152 78 152 272 152 78 153 80 153 272 153 272 154 80 154 270 154 80 155 82 155 270 155 270 156 82 156 268 156 82 157 84 157 268 157 268 158 84 158 266 158 84 158 86 158 266 158 266 159 86 159 264 159 86 160 88 160 264 160 264 161 88 161 262 161 88 161 90 161 262 161 262 162 90 162 260 162 90 162 92 162 260 162 260 163 92 163 258 163 92 164 94 164 258 164 258 165 94 165 256 165 94 165 96 165 256 165 256 166 96 166 254 166 96 167 98 167 254 167 254 168 98 168 252 168 98 169 100 169 252 169 252 170 100 170 250 170 100 171 102 171 250 171 250 172 102 172 248 172 102 173 104 173 248 173 248 174 104 174 246 174 104 175 106 175 246 175 246 176 106 176 244 176 106 176 108 176 244 176 244 177 108 177 242 177 108 178 110 178 242 178 242 179 110 179 240 179 110 179 112 179 240 179 240 180 112 180 238 180 112 181 114 181 238 181 238 182 114 182 236 182 114 183 116 183 236 183 236 184 116 184 234 184 116 185 118 185 234 185 234 186 118 186 232 186 118 186 120 186 232 186 232 187 120 187 230 187 120 187 122 187 230 187 230 188 122 188 228 188 122 189 124 189 228 189 228 190 124 190 226 190 124 191 126 191 226 191 127 192 225 192 129 192 225 193 223 193 129 193 129 194 223 194 131 194 223 195 221 195 131 195 131 196 221 196 133 196 221 197 219 197 133 197 133 197 219 197 135 197 219 198 217 198 135 198 135 199 217 199 137 199 217 200 215 200 137 200 137 200 215 200 139 200 215 201 213 201 139 201 139 202 213 202 141 202 213 203 211 203 141 203 141 204 211 204 143 204 211 205 209 205 143 205 143 206 209 206 1 206 209 207 207 207 1 207 1 208 207 208 3 208 207 209 205 209 3 209 3 210 205 210 5 210 205 211 203 211 5 211 5 212 203 212 7 212 203 213 201 213 7 213 7 213 201 213 9 213 201 214 199 214 9 214 9 214 199 214 11 214 199 215 197 215 11 215 11 216 197 216 13 216 197 217 195 217 13 217 13 218 195 218 15 218 195 219 193 219 15 219 15 220 193 220 17 220 193 221 191 221 17 221 17 222 191 222 19 222 191 223 189 223 19 223 19 224 189 224 21 224 189 225 187 225 21 225 21 226 187 226 23 226 187 227 185 227 23 227 23 228 185 228 25 228 185 229 183 229 25 229 25 230 183 230 27 230 183 231 181 231 27 231 27 231 181 231 29 231 181 232 179 232 29 232 29 232 179 232 31 232 179 233 177 233 31 233 31 234 177 234 33 234 177 235 175 235 33 235 33 236 175 236 35 236 175 237 173 237 35 237 35 238 173 238 37 238 173 239 171 239 37 239 37 240 171 240 39 240 171 241 169 241 39 241 39 242 169 242 41 242 169 243 167 243 41 243 41 244 167 244 43 244 167 245 165 245 43 245 43 245 165 245 45 245 165 246 163 246 45 246 45 247 163 247 47 247 163 248 161 248 47 248 47 248 161 248 49 248 161 249 159 249 49 249 49 250 159 250 51 250 159 251 157 251 51 251 51 252 157 252 53 252 157 253 155 253 53 253 53 254 155 254 55 254 155 255 153 255 55 255 55 256 153 256 57 256 153 257 151 257 57 257 57 258 151 258 59 258 151 259 149 259 59 259 59 259 149 259 61 259 149 260 147 260 61 260 61 261 147 261 63 261 147 262 145 262 63 262 63 263 145 263 65 263 145 264 287 264 65 264 65 265 287 265 67 265 287 266 285 266 67 266 67 267 285 267 69 267 285 268 283 268 69 268 69 269 283 269 71 269 283 270 281 270 71 270 71 270 281 270 73 270 281 271 279 271 73 271 73 271 279 271 75 271 279 272 277 272 75 272 75 273 277 273 77 273 277 274 275 274 77 274 77 275 275 275 79 275 275 276 273 276 79 276 79 277 273 277 81 277 273 278 271 278 81 278 81 278 271 278 83 278 271 279 269 279 83 279 83 279 269 279 85 279 269 280 267 280 85 280 85 280 267 280 87 280 267 281 265 281 87 281 87 281 265 281 89 281 265 282 263 282 89 282 89 282 263 282 91 282 263 283 261 283 91 283 91 283 261 283 93 283 261 284 259 284 93 284 93 284 259 284 95 284 259 285 257 285 95 285 95 285 257 285 97 285 257 286 255 286 97 286 97 286 255 286 99 286 255 287 253 287 99 287 99 287 253 287 101 287 253 288 251 288 101 288 101 289 251 289 103 289 251 290 249 290 103 290 103 291 249 291 105 291 249 292 247 292 105 292 105 293 247 293 107 293 247 294 245 294 107 294 107 294 245 294 109 294 245 295 243 295 109 295 109 295 243 295 111 295 243 296 241 296 111 296 111 297 241 297 113 297 241 298 239 298 113 298 113 299 239 299 115 299 239 300 237 300 115 300 115 301 237 301 117 301 237 302 235 302 117 302 117 303 235 303 119 303 235 304 233 304 119 304 119 305 233 305 121 305 233 306 231 306 121 306 121 306 231 306 123 306 231 307 229 307 123 307 123 308 229 308 125 308 229 309 227 309 125 309 125 310 227 310 127 310 227 311 225 311 127 311</p>
        </triangles>
      </mesh>
    </geometry>
  </library_geometries>
  <library_visual_scenes>
    <visual_scene id="Scene" name="Scene">
      <node id="trapezoid_single_eye_default_as_machined" name="trapezoid_single_eye_default_as_machined" type="NODE">
        <matrix sid="transform">1 0 0 0 0 1 0 0 0 0 1 0 0 0 0 1</matrix>
        <instance_geometry url="#trapezoid_single_eye_default_as_machined-mesh" name="trapezoid_single_eye_default_as_machined"/>
      </node>
    </visual_scene>
  </library_visual_scenes>
  <scene>
    <instance_visual_scene url="#Scene"/>
  </scene>
</COLLADA>