<?xml version="1.0" encoding="utf-8"?>
<COLLADA xmlns="http://www.collada.org/2005/11/COLLADASchema" version="1.4.1" xmlns:xsi="http://www.w3.org/2001/XMLSchema-instance">
  <asset>
    <contributor>
      <author>Blender User</author>
      <authoring_tool>Blender 3.0.1</authoring_tool>
    </contributor>
    <created>2026-06-04T16:19:24</created>
    <modified>2026-06-04T16:19:24</modified>
    <unit name="meter" meter="1"/>
    <up_axis>Z_UP</up_axis>
  </asset>
  <library_images/>
  <library_geometries>
    <geometry id="trapezoid_single_eye_default_as_machined__5-mesh" name="trapezoid_single_eye_default_as_machined__5">
      <mesh>
        <source id="trapezoid_single_eye_default_as_machined__5-mesh-positions">
          <float_array id="trapezoid_single_eye_default_as_machined__5-mesh-positions-array" count="714">-0.260419 0.01749998 0.1255391 -0.2567566 0.01749998 0.126351 -0.2419437 0.01749998 0.1020451 -0.2753527 0.01749998 0.1255391 -0.2716335 0.01749998 0.1250494 -0.225539 0.01749998 0.1753526 -0.226351 0.01749998 0.179015 -0.2123567 0.01749998 0.1632881 -0.279015 0.01749998 0.126351 -0.288766 0.01749998 0.1246652 -0.2825927 0.01749998 0.127479 -0.2678858 0.01749998 0.1248858 -0.2641381 0.01749998 0.1250494 -0.253179 0.01749998 0.127479 -0.2497132 0.01749998 0.1289145 -0.2463858 0.01749998 0.1306467 -0.2374802 0.01749998 0.1374802 -0.2349459 0.01749998 0.1402459 -0.2246652 0.01749998 0.188766 -0.227479 0.01749998 0.1531789 -0.226351 0.01749998 0.1567566 -0.225539 0.01749998 0.1604189 -0.2250494 0.01749998 0.1641381 -0.243222 0.01749998 0.1326622 -0.2402459 0.01749998 0.1349459 -0.2326623 0.01749998 0.143222 -0.2306467 0.01749998 0.1463858 -0.2289146 0.01749998 0.1497132 -0.2248858 0.01749998 0.1678858 -0.2250494 0.01749998 0.1716335 -0.227479 0.01749998 0.1825926 -0.2289146 0.01749998 0.1860584 -0.2266342 0.01749998 0.1924277 -0.2306467 0.01749998 0.1893858 -0.2289127 0.01749998 0.1959053 -0.2326623 0.01749998 0.1925496 -0.2314835 0.01749998 0.1991728 -0.2349459 0.01749998 0.1955257 -0.2343275 0.01749998 0.2022055 -0.2374802 0.01749998 0.1982914 -0.2374233 0.01749998 0.2049807 -0.2402459 0.01749998 0.2008257 -0.2407475 0.01749998 0.2074776 -0.243222 0.01749998 0.2031093 -0.2442754 0.01749998 0.2096775 -0.2463858 0.01749998 0.2051249 -0.2479804 0.01749998 0.2115639 -0.2497132 0.01749998 0.206857 -0.2518348 0.01749998 0.2131226 -0.253179 0.01749998 0.2082926 -0.2558096 0.01749998 0.2143418 -0.2567566 0.01749998 0.2094206 -0.2598749 0.01749998 0.2152126 -0.260419 0.01749998 0.2102325 -0.2640004 0.01749998 0.2157283 -0.2641381 0.01749998 0.2107222 -0.268155 0.01749998 0.2158851 -0.2678858 0.01749998 0.2108858 -0.2723076 0.01749998 0.2156817 -0.2716335 0.01749998 0.2107222 -0.276427 0.01749998 0.2151197 -0.2753527 0.01749998 0.2102325 -0.2804824 0.01749998 0.2142035 -0.279015 0.01749998 0.2094206 -0.2844433 0.01749998 0.2129397 -0.2825927 0.01749998 0.2082926 -0.2882798 0.01749998 0.2113379 -0.2860584 0.01749998 0.206857 -0.2919635 0.01749998 0.2094101 -0.2893858 0.01749998 0.2051249 -0.2954665 0.01749998 0.2071707 -0.2925496 0.01749998 0.2031093 -0.2987625 0.01749998 0.2046367 -0.2955257 0.01749998 0.2008257 -0.301827 0.01749998 0.2018269 -0.2982914 0.01749998 0.1982914 -0.3046367 0.01749998 0.1987625 -0.3008257 0.01749998 0.1955257 -0.3071708 0.01749998 0.1954665 -0.3031094 0.01749998 0.1925496 -0.3094101 0.01749998 0.1919634 -0.3051249 0.01749998 0.1893858 -0.3113379 0.01749998 0.1882798 -0.3068571 0.01749998 0.1860584 -0.3129397 0.01749998 0.1844432 -0.3082926 0.01749998 0.1825926 -0.3142035 0.01749998 0.1804824 -0.3094207 0.01749998 0.179015 -0.3151198 0.01749998 0.176427 -0.3102325 0.01749998 0.1753526 -0.3156817 0.01749998 0.1723076 -0.3107222 0.01749998 0.1716335 -0.3158851 0.01749998 0.168155 -0.3108858 0.01749998 0.1678858 -0.3157283 0.01749998 0.1640004 -0.3107222 0.01749998 0.1641381 -0.3152126 0.01749998 0.1598749 -0.3102325 0.01749998 0.1604189 -0.3143419 0.01749998 0.1558095 -0.3094207 0.01749998 0.1567566 -0.3131226 0.01749998 0.1518347 -0.3082926 0.01749998 0.1531789 -0.3115639 0.01749998 0.1479804 -0.3068571 0.01749998 0.1497132 -0.3096776 0.01749998 0.1442754 -0.3051249 0.01749998 0.1463858 -0.3074777 0.01749998 0.1407475 -0.3031094 0.01749998 0.143222 -0.3049808 0.01749998 0.1374232 -0.3008257 0.01749998 0.1402459 -0.3022055 0.01749998 0.1343275 -0.2982914 0.01749998 0.1374802 -0.2991728 0.01749998 0.1314836 -0.2955257 0.01749998 0.1349459 -0.2959054 0.01749998 0.1289127 -0.2925496 0.01749998 0.1326622 -0.2924277 0.01749998 0.1266342 -0.2893858 0.01749998 0.1306467 -0.2860584 0.01749998 0.1289145 -0.2419437 -0.01749998 0.1020451 -0.288766 -0.01749998 0.1246652 -0.2248858 -0.01749998 0.1678858 -0.2250494 -0.01749998 0.1716335 -0.225539 -0.01749998 0.1753526 -0.226351 -0.01749998 0.179015 -0.227479 -0.01749998 0.1825926 -0.2289146 -0.01749998 0.1860584 -0.2306467 -0.01749998 0.1893858 -0.2326623 -0.01749998 0.1925496 -0.2349459 -0.01749998 0.1955257 -0.2374802 -0.01749998 0.1982914 -0.2402459 -0.01749998 0.2008257 -0.243222 -0.01749998 0.2031093 -0.2463858 -0.01749998 0.2051249 -0.2497132 -0.01749998 0.206857 -0.253179 -0.01749998 0.2082926 -0.2567566 -0.01749998 0.2094206 -0.260419 -0.01749998 0.2102325 -0.2641381 -0.01749998 0.2107222 -0.2678858 -0.01749998 0.2108858 -0.2716335 -0.01749998 0.2107222 -0.2753527 -0.01749998 0.2102325 -0.279015 -0.01749998 0.2094206 -0.2825927 -0.01749998 0.2082926 -0.2860584 -0.01749998 0.206857 -0.2893858 -0.01749998 0.2051249 -0.2925496 -0.01749998 0.2031093 -0.2955257 -0.01749998 0.2008257 -0.2982914 -0.01749998 0.1982914 -0.3008257 -0.01749998 0.1955257 -0.3031094 -0.01749998 0.1925496 -0.3051249 -0.01749998 0.1893858 -0.3068571 -0.01749998 0.1860584 -0.3082926 -0.01749998 0.1825926 -0.3094207 -0.01749998 0.179015 -0.3102325 -0.01749998 0.1753526 -0.3107222 -0.01749998 0.1716335 -0.3108858 -0.01749998 0.1678858 -0.3107222 -0.01749998 0.1641381 -0.3102325 -0.01749998 0.1604189 -0.3094207 -0.01749998 0.1567566 -0.3082926 -0.01749998 0.1531789 -0.3068571 -0.01749998 0.1497132 -0.3051249 -0.01749998 0.1463858 -0.3031094 -0.01749998 0.143222 -0.3008257 -0.01749998 0.1402459 -0.2982914 -0.01749998 0.1374802 -0.2955257 -0.01749998 0.1349459 -0.2925496 -0.01749998 0.1326622 -0.2893858 -0.01749998 0.1306467 -0.2860584 -0.01749998 0.1289145 -0.2825927 -0.01749998 0.127479 -0.279015 -0.01749998 0.126351 -0.2753527 -0.01749998 0.1255391 -0.2716335 -0.01749998 0.1250494 -0.2678858 -0.01749998 0.1248858 -0.2641381 -0.01749998 0.1250494 -0.260419 -0.01749998 0.1255391 -0.2567566 -0.01749998 0.126351 -0.253179 -0.01749998 0.127479 -0.2497132 -0.01749998 0.1289145 -0.2463858 -0.01749998 0.1306467 -0.243222 -0.01749998 0.1326622 -0.2402459 -0.01749998 0.1349459 -0.2374802 -0.01749998 0.1374802 -0.2349459 -0.01749998 0.1402459 -0.2326623 -0.01749998 0.143222 -0.2306467 -0.01749998 0.1463858 -0.2289146 -0.01749998 0.1497132 -0.227479 -0.01749998 0.1531789 -0.226351 -0.01749998 0.1567566 -0.225539 -0.01749998 0.1604189 -0.2250494 -0.01749998 0.1641381 -0.2123567 -0.01749998 0.1632881 -0.2246652 -0.01749998 0.188766 -0.2924277 -0.01749998 0.1266342 -0.2959054 -0.01749998 0.1289127 -0.2991728 -0.01749998 0.1314836 -0.3022055 -0.01749998 0.1343275 -0.3049808 -0.01749998 0.1374232 -0.3074777 -0.01749998 0.1407475 -0.3096776 -0.01749998 0.1442754 -0.3115639 -0.01749998 0.1479804 -0.3131226 -0.01749998 0.1518347 -0.3143419 -0.01749998 0.1558095 -0.3152126 -0.01749998 0.1598749 -0.3157283 -0.01749998 0.1640004 -0.3158851 -0.01749998 0.168155 -0.3156817 -0.01749998 0.1723076 -0.3151198 -0.01749998 0.176427 -0.3142035 -0.01749998 0.1804824 -0.3129397 -0.01749998 0.1844432 -0.3113379 -0.01749998 0.1882798 -0.3094101 -0.01749998 0.1919634 -0.3071708 -0.01749998 0.1954665 -0.3046367 -0.01749998 0.1987625 -0.301827 -0.01749998 0.2018269 -0.2987625 -0.01749998 0.2046367 -0.2954665 -0.01749998 0.2071707 -0.2919635 -0.01749998 0.2094101 -0.2882798 -0.01749998 0.2113379 -0.2844433 -0.01749998 0.2129397 -0.2804824 -0.01749998 0.2142035 -0.276427 -0.01749998 0.2151197 -0.2723076 -0.01749998 0.2156817 -0.268155 -0.01749998 0.2158851 -0.2640004 -0.01749998 0.2157283 -0.2598749 -0.01749998 0.2152126 -0.2558096 -0.01749998 0.2143418 -0.2518348 -0.01749998 0.2131226 -0.2479804 -0.01749998 0.2115639 -0.2442754 -0.01749998 0.2096775 -0.2407475 -0.01749998 0.2074776 -0.2374233 -0.01749998 0.2049807 -0.2343275 -0.01749998 0.2022055 -0.2314835 -0.01749998 0.1991728 -0.2289127 -0.01749998 0.1959053 -0.2266342 -0.01749998 0.1924277</float_array>
          <technique_common>
            <accessor source="#trapezoid_single_eye_default_as_machined__5-mesh-positions-array" count="238" stride="3">
              <param name="X" type="float"/>
              <param name="Y" type="float"/>
              <param name="Z" type="float"/>
            </accessor>
          </technique_common>
        </source>
        <source id="trapezoid_single_eye_default_as_machined__5-mesh-normals">
          <float_array id="trapezoid_single_eye_default_as_machined__5-mesh-normals-array" count="915">0 1 0 0 1 -4.09792e-7 0 1 1.51255e-6 0 1 1.9435e-7 0 1 7.15496e-7 0 1 -3.01825e-7 0 1 2.80742e-7 0 1 2.79105e-7 0 1 -1.41468e-7 0 1 0 0 1 -6.33394e-7 0 1 -1.90981e-7 0 1 0 0 1 0 0 1 7.6796e-7 0 1 2.10922e-7 0 1 0 0 1 3.90362e-7 0 1 -2.28828e-7 0 1 3.90235e-7 0 1 -2.61594e-7 0 1 -1.74447e-7 0 1 -1.9493e-7 0 1 -1.94806e-7 0 1 -6.98574e-7 0 1 1.94748e-7 0 1 5.59732e-7 0 1 -4.3792e-7 0 1 4.86439e-7 0 1 1.94459e-7 0 1 -3.88817e-7 0 1 7.00006e-7 0 1 -3.88599e-7 0 1 -3.88498e-7 0 1 -7.00353e-7 0 1 3.88392e-7 0 1 -7.76571e-7 0 1 7.00841e-7 0 1 7.0115e-7 0 1 -7.758e-7 0 1 7.75405e-7 0 1 -7.01916e-7 0 1 7.02192e-7 0 1 7.02326e-7 0 1 -3.51297e-7 0 1 7.74032e-7 0 1 -3.51364e-7 0 1 3.51432e-7 0 1 -7.73711e-7 0 1 3.51491e-7 0 1 1.75779e-7 0 1 -3.51617e-7 0 1 -7.73285e-7 0 1 1.31877e-7 0 1 0 0 1 0 0 1 3.9089e-7 -0.4350035 0 -0.9004289 -0.9990483 0 -0.04361951 -0.9990483 0 -0.04361981 -0.991445 0 -0.130526 -0.9914448 0 -0.1305269 -0.9762964 0 -0.2164381 -0.9537163 0 -0.3007079 -0.953717 0 -0.3007059 -0.9238785 0 -0.3826862 -0.9238795 0 -0.3826836 -0.887012 0 -0.4617467 -0.8870104 0 -0.4617496 -0.8433904 0 -0.5373014 -0.8433924 0 -0.5372981 -0.7933546 0 -0.6087598 -0.7372773 0 -0.6755903 -0.6755908 0 -0.7372769 -0.6087563 0 -0.7933573 -0.6087607 0 -0.7933539 -0.5372975 0 -0.8433929 -0.5373025 0 -0.8433896 -0.4617511 0 -0.8870097 -0.4617454 0 -0.8870126 -0.3826825 0 -0.9238799 -0.3826885 0 -0.9238774 -0.3007032 0 -0.9537178 -0.3007097 0 -0.9537158 -0.2164338 0 -0.9762973 -0.2164406 0 -0.9762958 -0.1305323 0 -0.9914441 -0.1305183 0 -0.9914459 -0.04362428 0 -0.9990481 -0.04361718 0 -0.9990484 0.04361754 0 -0.9990484 0.04362463 0 -0.9990481 0.1305183 0 -0.9914459 0.1305323 0 -0.9914441 0.2164406 0 -0.9762958 0.2164338 0 -0.9762973 0.3007097 0 -0.9537158 0.3007032 0 -0.9537178 0.3826885 0 -0.9238774 0.3826825 0 -0.9238799 0.4617438 0 -0.8870134 0.4617493 0 -0.8870105 0.5373025 0 -0.8433896 0.5372975 0 -0.8433929 0.6087607 0 -0.7933539 0.6087563 0 -0.7933573 0.6755908 0 -0.7372769 0.7372773 0 -0.6755903 0.7933565 0 -0.6087573 0.8433924 0 -0.5372981 0.8433904 0 -0.5373014 0.8870104 0 -0.4617496 0.887012 0 -0.4617467 0.9238795 0 -0.3826836 0.9238785 0 -0.3826862 0.9537159 0 -0.3007095 0.9537152 0 -0.3007115 0.9762973 0 -0.2164343 0.9914443 0 -0.1305308 0.9914445 0 -0.1305299 0.9990485 0 -0.04361587 0.9990484 0 -0.04361557 0.9990485 0 0.04361587 0.9914445 0 0.1305289 0.9914443 0 0.1305308 0.9762969 0 0.2164358 0.9762973 0 0.2164343 0.9537159 0 0.3007095 0.9537152 0 0.3007115 0.9238795 0 0.3826836 0.9238806 0 0.3826812 0.8870104 0 0.4617496 0.887012 0 0.4617467 0.8433904 0 0.5373014 0.7933539 0 0.6087608 0.7933565 0 0.6087573 0.7372806 0 0.6755868 0.7372741 0 0.6755939 0.6755908 0 0.7372769 0.6087607 0 0.7933539 0.5373025 0 0.8433896 0.5372924 0 0.8433961 0.4617493 0 0.8870105 0.3826825 0 0.9238799 0.3007032 0 0.9537178 0.3007097 0 0.9537158 0.2164338 0 0.9762973 0.2164474 0 0.9762943 0.1305253 0 0.991445 0.04362463 0 0.9990481 0.04361754 0 0.9990484 -0.04361718 0 0.9990484 -0.04362428 0 0.9990481 -0.1305253 0 0.991445 -0.2164474 0 0.9762943 -0.2164338 0 0.9762973 -0.3007097 0 0.9537158 -0.3007032 0 0.9537178 -0.3826825 0 0.9238799 -0.4617511 0 0.8870097 -0.5372924 0 0.8433961 -0.5373025 0 0.8433896 -0.6087607 0 0.7933539 -0.6755908 0 0.7372769 -0.7372741 0 0.6755939 -0.7372806 0 0.6755868 -0.7933546 0 0.6087598 -0.793352 0 0.6087633 -0.8433904 0 0.5373014 -0.887012 0 0.4617467 -0.8870104 0 0.4617496 -0.9238806 0 0.3826812 -0.9238795 0 0.3826836 -0.9537163 0 0.3007079 -0.953717 0 0.3007059 -0.9762964 0 0.2164381 -0.976296 0 0.2164396 -0.9914448 0 0.1305269 -0.9914451 0 0.1305251 -0.9990483 0 0.04361981 0.9004289 0 -0.4350032 0.9004291 0 -0.4350031 0.900429 0 0.4350033 0.9004288 0 0.4350037 -0.4735864 0 -0.8807474 -0.4735914 0 -0.8807447 -0.5480294 0 -0.8364592 -0.6183574 0 -0.7858971 -0.6840432 0 -0.7294416 -0.7445991 0 -0.6675121 -0.7446019 0 -0.6675089 -0.7995715 0 -0.6005711 -0.7995691 0 -0.6005742 -0.8485421 0 -0.5291279 -0.89115 0 -0.453709 -0.8911474 0 -0.4537141 -0.9270673 0 -0.3748949 -0.9270656 0 -0.3748993 -0.9560298 0 -0.2932696 -0.9560287 0 -0.2932732 -0.9778231 0 -0.2094327 -0.9778228 0 -0.209434 -0.9922774 0 -0.1240385 -0.9922775 0 -0.1240378 -0.999289 0 -0.03770482 -0.999289 0 -0.03770458 -0.9988033 0 0.04890847 -0.9988033 0 0.04890882 -0.9908233 0 0.1351634 -0.9754127 0 0.2203863 -0.9526807 0 0.303973 -0.9526801 0 0.3039749 -0.9228007 0 0.385278 -0.9228026 0 0.3852734 -0.8860018 0 0.4636819 -0.8425535 0 0.5386127 -0.8425555 0 0.5386098 -0.7927829 0 0.6095042 -0.7370664 0 0.6758204 -0.7370694 0 0.6758171 -0.675822 0 0.7370649 -0.6758185 0 0.7370681 -0.6094994 0 0.7927866 -0.6095034 0 0.7927835 -0.5386115 0 0.8425544 -0.538616 0 0.8425514 -0.4636797 0 0.8860029 -0.4636847 0 0.8860003 -0.3852733 0 0.9228026 -0.3039757 0 0.9526798 -0.3039698 0 0.9526817 -0.2203899 0 0.975412 -0.1351652 0 0.9908231 -0.1351588 0 0.9908239 -0.04890376 0 0.9988035 -0.04891657 0 0.998803 0.03770339 0 0.999289 0.1240415 0 0.992277 0.1240352 0 0.9922779 0.2094395 0 0.9778217 0.2094333 0 0.977823 0.2932728 0 0.9560289 0.2932611 0 0.9560324 0.374898 0 0.9270661 0.45372 0 0.8911443 0.4537099 0 0.8911495 0.5291279 0 0.8485421 0.6005718 0 0.7995709 0.6675084 0 0.7446023 0.6675119 0 0.7445992 0.7294394 0 0.6840454 0.7294424 0 0.6840422 0.785897 0 0.6183575 0.7858945 0 0.6183606 0.8364601 0 0.5480278 0.8364621 0 0.5480249 0.8807451 0 0.4735907 0 -1 0 0 -1 -6.72981e-7 0 -1 -6.03649e-7 0 -1 7.15494e-7 0 -1 -1.90981e-7 0 -1 2.79105e-7 0 -1 3.90889e-7 0 -1 3.90752e-7 0 -1 -6.96763e-7 0 -1 3.9062e-7 0 -1 7.80967e-7 0 -1 -7.80723e-7 0 -1 6.97576e-7 0 -1 6.98375e-7 0 -1 -7.79224e-7 0 -1 6.98558e-7 0 -1 7.78758e-7 0 -1 -7.783e-7 0 -1 6.99301e-7 0 -1 -7.78067e-7 0 -1 -7.77866e-7 0 -1 6.99653e-7 0 -1 -3.49913e-7 0 -1 7.77421e-7 0 -1 -3.50003e-7 0 -1 -7.76996e-7 0 -1 3.50175e-7 0 -1 7.7659e-7 0 -1 -3.50336e-7 0 -1 0 0 -1 0 0 -1 1.75288e-7 0 -1 -3.50659e-7 0 -1 -3.50726e-7 0 -1 -1.93859e-7 0 -1 2.90644e-7 0 -1 0 0 -1 -5.56818e-7 0 -1 5.80898e-7 0 -1 -7.02334e-7 0 -1 1.93592e-7 0 -1 1.93508e-7 0 -1 -3.86858e-7 0 -1 -3.86705e-7 0 -1 3.86628e-7 0 -1 8.03544e-7 0 -1 1.46333e-7 0 -1 -1.41468e-7</float_array>
          <technique_common>
            <accessor source="#trapezoid_single_eye_default_as_machined__5-mesh-normals-array" count="305" stride="3">
              <param name="X" type="float"/>
              <param name="Y" type="float"/>
              <param name="Z" type="float"/>
            </accessor>
          </technique_common>
        </source>
        <vertices id="trapezoid_single_eye_default_as_machined__5-mesh-vertices">
          <input semantic="POSITION" source="#trapezoid_single_eye_default_as_machined__5-mesh-positions"/>
        </vertices>
        <triangles count="476">
          <input semantic="VERTEX" source="#trapezoid_single_eye_default_as_machined__5-mesh-vertices" offset="0"/>
          <input semantic="NORMAL" source="#trapezoid_single_eye_default_as_machined__5-mesh-normals" offset="1"/>
          <p>0 0 1 0 2 0 2 1 3 1 4 1 5 2 6 2 7 2 3 0 2 0 8 0 2 3 9 3 8 3 8 0 9 0 10 0 4 4 11 4 2 4 11 0 12 0 2 0 2 5 12 5 0 5 1 6 13 6 2 6 13 7 14 7 2 7 2 8 14 8 15 8 2 0 16 0 17 0 7 9 6 9 18 9 19 0 20 0 7 0 20 10 21 10 7 10 7 11 21 11 22 11 15 12 23 12 2 12 23 0 24 0 2 0 2 13 24 13 16 13 17 0 25 0 2 0 25 0 26 0 2 0 2 0 26 0 7 0 26 0 27 0 7 0 7 14 27 14 19 14 22 0 28 0 7 0 28 0 29 0 7 0 7 15 29 15 5 15 6 0 30 0 18 0 30 0 31 0 18 0 18 0 31 0 32 0 31 0 33 0 32 0 32 0 33 0 34 0 33 0 35 0 34 0 34 0 35 0 36 0 35 0 37 0 36 0 36 16 37 16 38 16 37 17 39 17 38 17 38 18 39 18 40 18 39 19 41 19 40 19 40 20 41 20 42 20 41 0 43 0 42 0 42 21 43 21 44 21 43 0 45 0 44 0 44 0 45 0 46 0 45 22 47 22 46 22 46 0 47 0 48 0 47 0 49 0 48 0 48 0 49 0 50 0 49 23 51 23 50 23 50 24 51 24 52 24 51 25 53 25 52 25 52 0 53 0 54 0 53 26 55 26 54 26 54 0 55 0 56 0 55 27 57 27 56 27 56 0 57 0 58 0 57 28 59 28 58 28 58 0 59 0 60 0 59 0 61 0 60 0 60 0 61 0 62 0 61 29 63 29 62 29 62 0 63 0 64 0 63 30 65 30 64 30 64 0 65 0 66 0 65 0 67 0 66 0 66 31 67 31 68 31 67 32 69 32 68 32 68 0 69 0 70 0 69 33 71 33 70 33 70 34 71 34 72 34 71 35 73 35 72 35 72 0 73 0 74 0 73 36 75 36 74 36 74 0 75 0 76 0 75 0 77 0 76 0 76 37 77 37 78 37 77 0 79 0 78 0 78 0 79 0 80 0 79 0 81 0 80 0 80 38 81 38 82 38 81 39 83 39 82 39 82 0 83 0 84 0 83 0 85 0 84 0 84 0 85 0 86 0 85 40 87 40 86 40 86 0 87 0 88 0 87 0 89 0 88 0 88 0 89 0 90 0 89 0 91 0 90 0 90 41 91 41 92 41 91 0 93 0 92 0 92 0 93 0 94 0 93 0 95 0 94 0 94 42 95 42 96 42 95 0 97 0 96 0 96 43 97 43 98 43 97 0 99 0 98 0 98 0 99 0 100 0 99 0 101 0 100 0 100 44 101 44 102 44 101 45 103 45 102 45 102 46 103 46 104 46 103 0 105 0 104 0 104 47 105 47 106 47 105 48 107 48 106 48 106 49 107 49 108 49 107 0 109 0 108 0 108 50 109 50 110 50 109 0 111 0 110 0 110 51 111 51 112 51 111 52 113 52 112 52 112 53 113 53 114 53 113 0 115 0 114 0 114 54 115 54 116 54 115 0 117 0 116 0 116 55 117 55 9 55 117 0 118 0 9 0 9 56 118 56 10 56 119 57 120 57 2 57 120 57 9 57 2 57 28 58 121 58 29 58 121 59 122 59 29 59 29 60 122 60 5 60 122 61 123 61 5 61 5 62 123 62 6 62 123 62 124 62 6 62 6 63 124 63 30 63 124 64 125 64 30 64 30 65 125 65 31 65 125 66 126 66 31 66 31 67 126 67 33 67 126 68 127 68 33 68 33 69 127 69 35 69 127 70 128 70 35 70 35 71 128 71 37 71 128 71 129 71 37 71 37 72 129 72 39 72 129 72 130 72 39 72 39 73 130 73 41 73 130 73 131 73 41 73 41 74 131 74 43 74 131 75 132 75 43 75 43 76 132 76 45 76 132 77 133 77 45 77 45 78 133 78 47 78 133 79 134 79 47 79 47 80 134 80 49 80 134 81 135 81 49 81 49 82 135 82 51 82 135 83 136 83 51 83 51 84 136 84 53 84 136 85 137 85 53 85 53 86 137 86 55 86 137 87 138 87 55 87 55 88 138 88 57 88 138 89 139 89 57 89 57 90 139 90 59 90 139 91 140 91 59 91 59 92 140 92 61 92 140 93 141 93 61 93 61 94 141 94 63 94 141 95 142 95 63 95 63 96 142 96 65 96 142 97 143 97 65 97 65 98 143 98 67 98 143 99 144 99 67 99 67 100 144 100 69 100 144 101 145 101 69 101 69 102 145 102 71 102 145 103 146 103 71 103 71 104 146 104 73 104 146 105 147 105 73 105 73 106 147 106 75 106 147 106 148 106 75 106 75 107 148 107 77 107 148 107 149 107 77 107 77 108 149 108 79 108 149 108 150 108 79 108 79 109 150 109 81 109 150 110 151 110 81 110 81 111 151 111 83 111 151 112 152 112 83 112 83 113 152 113 85 113 152 114 153 114 85 114 85 115 153 115 87 115 153 116 154 116 87 116 87 117 154 117 89 117 154 117 155 117 89 117 89 118 155 118 91 118 155 119 156 119 91 119 91 120 156 120 93 120 156 121 157 121 93 121 93 122 157 122 95 122 157 122 158 122 95 122 95 123 158 123 97 123 158 124 159 124 97 124 97 125 159 125 99 125 159 126 160 126 99 126 99 127 160 127 101 127 160 128 161 128 101 128 101 129 161 129 103 129 161 130 162 130 103 130 103 131 162 131 105 131 162 132 163 132 105 132 105 133 163 133 107 133 163 133 164 133 107 133 107 134 164 134 109 134 164 135 165 135 109 135 109 136 165 136 111 136 165 137 166 137 111 137 111 138 166 138 113 138 166 138 167 138 113 138 113 139 167 139 115 139 167 139 168 139 115 139 115 140 168 140 117 140 168 141 169 141 117 141 117 142 169 142 118 142 169 142 170 142 118 142 118 143 170 143 10 143 170 143 171 143 10 143 10 144 171 144 8 144 171 145 172 145 8 145 8 146 172 146 3 146 172 147 173 147 3 147 3 148 173 148 4 148 173 148 174 148 4 148 4 149 174 149 11 149 174 150 175 150 11 150 11 151 175 151 12 151 175 152 176 152 12 152 12 153 176 153 0 153 176 153 177 153 0 153 0 154 177 154 1 154 177 155 178 155 1 155 1 156 178 156 13 156 178 157 179 157 13 157 13 158 179 158 14 158 179 158 180 158 14 158 14 159 180 159 15 159 180 159 181 159 15 159 15 160 181 160 23 160 181 161 182 161 23 161 23 162 182 162 24 162 182 162 183 162 24 162 24 163 183 163 16 163 183 163 184 163 16 163 16 164 184 164 17 164 184 165 185 165 17 165 17 166 185 166 25 166 185 167 186 167 25 167 25 168 186 168 26 168 186 168 187 168 26 168 26 169 187 169 27 169 187 170 188 170 27 170 27 171 188 171 19 171 188 172 189 172 19 172 19 173 189 173 20 173 189 174 190 174 20 174 20 175 190 175 21 175 190 176 191 176 21 176 21 177 191 177 22 177 191 178 192 178 22 178 22 179 192 179 28 179 192 179 121 179 28 179 193 180 119 180 7 180 119 181 2 181 7 181 194 182 193 182 18 182 193 183 7 183 18 183 9 184 120 184 195 184 9 185 195 185 116 185 195 186 196 186 116 186 116 186 196 186 114 186 196 187 197 187 114 187 114 187 197 187 112 187 197 188 198 188 112 188 112 188 198 188 110 188 198 189 199 189 110 189 110 190 199 190 108 190 199 191 200 191 108 191 108 192 200 192 106 192 200 193 201 193 106 193 106 193 201 193 104 193 201 194 202 194 104 194 104 195 202 195 102 195 202 196 203 196 102 196 102 197 203 197 100 197 203 198 204 198 100 198 100 199 204 199 98 199 204 200 205 200 98 200 98 201 205 201 96 201 205 202 206 202 96 202 96 203 206 203 94 203 206 204 207 204 94 204 94 205 207 205 92 205 207 206 208 206 92 206 92 207 208 207 90 207 208 208 209 208 90 208 90 208 209 208 88 208 209 209 210 209 88 209 88 209 210 209 86 209 210 210 211 210 86 210 86 211 211 211 84 211 211 212 212 212 84 212 84 213 212 213 82 213 212 214 213 214 82 214 82 214 213 214 80 214 213 215 214 215 80 215 80 216 214 216 78 216 214 217 215 217 78 217 78 217 215 217 76 217 215 218 216 218 76 218 76 219 216 219 74 219 216 220 217 220 74 220 74 221 217 221 72 221 217 222 218 222 72 222 72 223 218 223 70 223 218 224 219 224 70 224 70 225 219 225 68 225 219 226 220 226 68 226 68 227 220 227 66 227 220 228 221 228 66 228 66 228 221 228 64 228 221 229 222 229 64 229 64 230 222 230 62 230 222 231 223 231 62 231 62 231 223 231 60 231 223 232 224 232 60 232 60 233 224 233 58 233 224 234 225 234 58 234 58 235 225 235 56 235 225 236 226 236 56 236 56 236 226 236 54 236 226 237 227 237 54 237 54 238 227 238 52 238 227 239 228 239 52 239 52 240 228 240 50 240 228 241 229 241 50 241 50 242 229 242 48 242 229 243 230 243 48 243 48 243 230 243 46 243 230 244 231 244 46 244 46 245 231 245 44 245 231 246 232 246 44 246 44 246 232 246 42 246 232 247 233 247 42 247 42 247 233 247 40 247 233 248 234 248 40 248 40 249 234 249 38 249 234 250 235 250 38 250 38 251 235 251 36 251 235 252 236 252 36 252 36 253 236 253 34 253 236 254 237 254 34 254 34 255 237 255 32 255 237 256 194 256 32 256 32 256 194 256 18 256 172 257 120 257 173 257 120 257 119 257 173 257 173 257 119 257 174 257 123 257 122 257 193 257 189 257 193 257 190 257 193 258 191 258 190 258 177 259 176 259 119 259 176 257 175 257 119 257 119 260 175 260 174 260 122 257 121 257 193 257 121 257 192 257 193 257 193 261 192 261 191 261 183 257 119 257 184 257 119 257 185 257 184 257 180 262 179 262 119 262 179 257 178 257 119 257 119 257 178 257 177 257 172 257 171 257 120 257 171 263 170 263 120 263 120 257 170 257 195 257 170 264 169 264 195 264 195 265 169 265 196 265 169 266 168 266 196 266 196 257 168 257 197 257 168 267 167 267 197 267 197 257 167 257 198 257 167 268 166 268 198 268 198 257 166 257 199 257 166 257 165 257 199 257 199 269 165 269 200 269 165 257 164 257 200 257 200 257 164 257 201 257 164 257 163 257 201 257 201 257 163 257 202 257 163 257 162 257 202 257 202 257 162 257 203 257 162 257 161 257 203 257 203 270 161 270 204 270 161 271 160 271 204 271 204 272 160 272 205 272 160 257 159 257 205 257 205 257 159 257 206 257 159 273 158 273 206 273 206 257 158 257 207 257 158 257 157 257 207 257 207 257 157 257 208 257 157 274 156 274 208 274 208 275 156 275 209 275 156 276 155 276 209 276 209 257 155 257 210 257 155 277 154 277 210 277 210 278 154 278 211 278 154 257 153 257 211 257 211 279 153 279 212 279 153 280 152 280 212 280 212 281 152 281 213 281 152 257 151 257 213 257 213 257 151 257 214 257 151 282 150 282 214 282 214 283 150 283 215 283 150 257 149 257 215 257 215 257 149 257 216 257 149 284 148 284 216 284 216 285 148 285 217 285 148 257 147 257 217 257 217 286 147 286 218 286 147 257 146 257 218 257 218 287 146 287 219 287 146 257 145 257 219 257 219 288 145 288 220 288 145 257 144 257 220 257 220 289 144 289 221 289 144 257 143 257 221 257 221 290 143 290 222 290 143 291 142 291 222 291 222 257 142 257 223 257 142 257 141 257 223 257 223 257 141 257 224 257 141 292 140 292 224 292 224 257 140 257 225 257 140 293 139 293 225 293 225 257 139 257 226 257 139 294 138 294 226 294 226 257 138 257 227 257 138 295 137 295 227 295 227 296 137 296 228 296 137 297 136 297 228 297 228 257 136 257 229 257 136 257 135 257 229 257 229 257 135 257 230 257 135 298 134 298 230 298 230 257 134 257 231 257 134 257 133 257 231 257 231 257 133 257 232 257 133 299 132 299 232 299 232 257 132 257 233 257 132 257 131 257 233 257 233 257 131 257 234 257 131 300 130 300 234 300 234 257 130 257 235 257 130 301 129 301 235 301 235 257 129 257 236 257 129 257 128 257 236 257 236 257 128 257 237 257 128 257 127 257 237 257 237 257 127 257 194 257 127 257 126 257 194 257 126 257 125 257 194 257 194 257 125 257 193 257 125 257 124 257 193 257 193 302 124 302 123 302 189 257 188 257 193 257 188 257 187 257 193 257 193 257 187 257 119 257 187 257 186 257 119 257 119 257 186 257 185 257 183 257 182 257 119 257 182 303 181 303 119 303 119 304 181 304 180 304</p>
        </triangles>
      </mesh>
    </geometry>
  </library_geometries>
  <library_visual_scenes>
    <visual_scene id="Scene" name="Scene">
      <node id="trapezoid_single_eye_default_as_machined__5" name="trapezoid_single_eye_default_as_machined__5" type="NODE">
        <matrix sid="transform">1 0 0 0 0 1 0 0 0 0 1 0 0 0 0 1</matrix>
        <instance_geometry url="#trapezoid_single_eye_default_as_machined__5-mesh" name="trapezoid_single_eye_default_as_machined__5"/>
      </node>
    </visual_scene>
  </library_visual_scenes>
  <scene>
    <instance_visual_scene url="#Scene"/>
  </scene>
</COLLADA>