<?xml version="1.0" encoding="utf-8"?>
<COLLADA xmlns="http://www.collada.org/2005/11/COLLADASchema" version="1.4.1" xmlns:xsi="http://www.w3.org/2001/XMLSchema-instance">
  <asset>
    <contributor>
      <author>Blender User</author>
      <authoring_tool>Blender 3.0.1</authoring_tool>
    </contributor>
    <created>2026-06-04T16:19:07</created>
    <modified>2026-06-04T16:19:07</modified>
    <unit name="meter" meter="1"/>
    <up_axis>Z_UP</up_axis>
  </asset>
  <library_images/>
  <library_geometries>
    <geometry id="trapezoid__11-mesh" name="trapezoid__11">
      <mesh>
        <source id="trapezoid__11-mesh-positions">
          <float_array id="trapezoid__11-mesh-positions-array" count="2208">0 0.01239997 0.005999982 0 0.01499998 0.005999982 5.22934e-4 0.01239997 0.005977153 5.22934e-4 0.01499998 0.005977153 0.001041889 0.01239997 0.005908846 0.001041889 0.01499998 0.005908846 0.001552879 0.01239997 0.005795538 0.001552879 0.01499998 0.005795538 0.002052068 0.01239997 0.005638122 0.002052068 0.01499998 0.005638122 0.0025357 0.01239997 0.005437791 0.0025357 0.01499998 0.005437791 0.002999961 0.01239997 0.005196094 0.002999961 0.01499998 0.005196094 0.003441452 0.01239997 0.004914879 0.003441452 0.01499998 0.004914879 0.003856718 0.01239997 0.004596233 0.003856718 0.01499998 0.004596233 0.004242599 0.01239997 0.004242599 0.004242599 0.01499998 0.004242599 0.004596233 0.01239997 0.003856718 0.004596233 0.01499998 0.003856718 0.004914879 0.01239997 0.003441452 0.004914879 0.01499998 0.003441452 0.005196094 0.01239997 0.002999961 0.005196094 0.01499998 0.002999961 0.005437791 0.01239997 0.0025357 0.005437791 0.01499998 0.0025357 0.005638122 0.01239997 0.002052068 0.005638122 0.01499998 0.002052068 0.005795538 0.01239997 0.001552879 0.005795538 0.01499998 0.001552879 0.005908846 0.01239997 0.001041889 0.005908846 0.01499998 0.001041889 0.005977153 0.01239997 5.22934e-4 0.005977153 0.01499998 5.22934e-4 0.005999982 0.01239997 0 0.005999982 0.01499998 0 0.005977153 0.01239997 -5.22934e-4 0.005977153 0.01499998 -5.22934e-4 0.005908846 0.01239997 -0.001041889 0.005908846 0.01499998 -0.001041889 0.005795538 0.01239997 -0.001552879 0.005795538 0.01499998 -0.001552879 0.005638122 0.01239997 -0.002052068 0.005638122 0.01499998 -0.002052068 0.005437791 0.01239997 -0.0025357 0.005437791 0.01499998 -0.0025357 0.005196094 0.01239997 -0.002999961 0.005196094 0.01499998 -0.002999961 0.004914879 0.01239997 -0.003441452 0.004914879 0.01499998 -0.003441452 0.004596233 0.01239997 -0.003856718 0.004596233 0.01499998 -0.003856718 0.004242599 0.01239997 -0.004242599 0.004242599 0.01499998 -0.004242599 0.003856718 0.01239997 -0.004596233 0.003856718 0.01499998 -0.004596233 0.003441452 0.01239997 -0.004914879 0.003441452 0.01499998 -0.004914879 0.002999961 0.01239997 -0.005196094 0.002999961 0.01499998 -0.005196094 0.0025357 0.01239997 -0.005437791 0.0025357 0.01499998 -0.005437791 0.002052068 0.01239997 -0.005638122 0.002052068 0.01499998 -0.005638122 0.001552879 0.01239997 -0.005795538 0.001552879 0.01499998 -0.005795538 0.001041889 0.01239997 -0.005908846 0.001041889 0.01499998 -0.005908846 5.22934e-4 0.01239997 -0.005977153 5.22934e-4 0.01499998 -0.005977153 0 0.01239997 -0.005999982 0 0.01499998 -0.005999982 -5.22934e-4 0.01239997 -0.005977153 -5.22934e-4 0.01499998 -0.005977153 -0.001041889 0.01239997 -0.005908846 -0.001041889 0.01499998 -0.005908846 -0.001552879 0.01239997 -0.005795538 -0.001552879 0.01499998 -0.005795538 -0.002052068 0.01239997 -0.005638122 -0.002052068 0.01499998 -0.005638122 -0.0025357 0.01239997 -0.005437791 -0.0025357 0.01499998 -0.005437791 -0.002999961 0.01239997 -0.005196094 -0.002999961 0.01499998 -0.005196094 -0.003441452 0.01239997 -0.004914879 -0.003441452 0.01499998 -0.004914879 -0.003856718 0.01239997 -0.004596233 -0.003856718 0.01499998 -0.004596233 -0.004242599 0.01239997 -0.004242599 -0.004242599 0.01499998 -0.004242599 -0.004596233 0.01239997 -0.003856718 -0.004596233 0.01499998 -0.003856718 -0.004914879 0.01239997 -0.003441452 -0.004914879 0.01499998 -0.003441452 -0.005196094 0.01239997 -0.002999961 -0.005196094 0.01499998 -0.002999961 -0.005437791 0.01239997 -0.0025357 -0.005437791 0.01499998 -0.0025357 -0.005638122 0.01239997 -0.002052068 -0.005638122 0.01499998 -0.002052068 -0.005795538 0.01239997 -0.001552879 -0.005795538 0.01499998 -0.001552879 -0.005908846 0.01239997 -0.001041889 -0.005908846 0.01499998 -0.001041889 -0.005977153 0.01239997 -5.22934e-4 -0.005977153 0.01499998 -5.22934e-4 -0.005999982 0.01239997 0 -0.005999982 0.01499998 0 -0.005977153 0.01239997 5.22934e-4 -0.005977153 0.01499998 5.22934e-4 -0.005908846 0.01239997 0.001041889 -0.005908846 0.01499998 0.001041889 -0.005795538 0.01239997 0.001552879 -0.005795538 0.01499998 0.001552879 -0.005638122 0.01239997 0.002052068 -0.005638122 0.01499998 0.002052068 -0.005437791 0.01239997 0.0025357 -0.005437791 0.01499998 0.0025357 -0.005196094 0.01239997 0.002999961 -0.005196094 0.01499998 0.002999961 -0.004914879 0.01239997 0.003441452 -0.004914879 0.01499998 0.003441452 -0.004596233 0.01239997 0.003856718 -0.004596233 0.01499998 0.003856718 -0.004242599 0.01239997 0.004242599 -0.004242599 0.01499998 0.004242599 -0.003856718 0.01239997 0.004596233 -0.003856718 0.01499998 0.004596233 -0.003441452 0.01239997 0.004914879 -0.003441452 0.01499998 0.004914879 -0.002999961 0.01239997 0.005196094 -0.002999961 0.01499998 0.005196094 -0.0025357 0.01239997 0.005437791 -0.0025357 0.01499998 0.005437791 -0.002052068 0.01239997 0.005638122 -0.002052068 0.01499998 0.005638122 -0.001552879 0.01239997 0.005795538 -0.001552879 0.01499998 0.005795538 -0.001041889 0.01239997 0.005908846 -0.001041889 0.01499998 0.005908846 -5.22934e-4 0.01239997 0.005977153 -5.22934e-4 0.01499998 0.005977153 0 -0.01499998 0.005999982 0 -0.01239997 0.005999982 5.22934e-4 -0.01499998 0.005977153 5.22934e-4 -0.01239997 0.005977153 0.001041889 -0.01499998 0.005908846 0.001041889 -0.01239997 0.005908846 0.001552879 -0.01499998 0.005795538 0.001552879 -0.01239997 0.005795538 0.002052068 -0.01499998 0.005638122 0.002052068 -0.01239997 0.005638122 0.0025357 -0.01499998 0.005437791 0.0025357 -0.01239997 0.005437791 0.002999961 -0.01499998 0.005196094 0.002999961 -0.01239997 0.005196094 0.003441452 -0.01499998 0.004914879 0.003441452 -0.01239997 0.004914879 0.003856718 -0.01499998 0.004596233 0.003856718 -0.01239997 0.004596233 0.004242599 -0.01499998 0.004242599 0.004242599 -0.01239997 0.004242599 0.004596233 -0.01499998 0.003856718 0.004596233 -0.01239997 0.003856718 0.004914879 -0.01499998 0.003441452 0.004914879 -0.01239997 0.003441452 0.005196094 -0.01499998 0.002999961 0.005196094 -0.01239997 0.002999961 0.005437791 -0.01499998 0.0025357 0.005437791 -0.01239997 0.0025357 0.005638122 -0.01499998 0.002052068 0.005638122 -0.01239997 0.002052068 0.005795538 -0.01499998 0.001552879 0.005795538 -0.01239997 0.001552879 0.005908846 -0.01499998 0.001041889 0.005908846 -0.01239997 0.001041889 0.005977153 -0.01499998 5.22934e-4 0.005977153 -0.01239997 5.22934e-4 0.005999982 -0.01499998 0 0.005999982 -0.01239997 0 0.005977153 -0.01499998 -5.22934e-4 0.005977153 -0.01239997 -5.22934e-4 0.005908846 -0.01499998 -0.001041889 0.005908846 -0.01239997 -0.001041889 0.005795538 -0.01499998 -0.001552879 0.005795538 -0.01239997 -0.001552879 0.005638122 -0.01499998 -0.002052068 0.005638122 -0.01239997 -0.002052068 0.005437791 -0.01499998 -0.0025357 0.005437791 -0.01239997 -0.0025357 0.005196094 -0.01499998 -0.002999961 0.005196094 -0.01239997 -0.002999961 0.004914879 -0.01499998 -0.003441452 0.004914879 -0.01239997 -0.003441452 0.004596233 -0.01499998 -0.003856718 0.004596233 -0.01239997 -0.003856718 0.004242599 -0.01499998 -0.004242599 0.004242599 -0.01239997 -0.004242599 0.003856718 -0.01499998 -0.004596233 0.003856718 -0.01239997 -0.004596233 0.003441452 -0.01499998 -0.004914879 0.003441452 -0.01239997 -0.004914879 0.002999961 -0.01499998 -0.005196094 0.002999961 -0.01239997 -0.005196094 0.0025357 -0.01499998 -0.005437791 0.0025357 -0.01239997 -0.005437791 0.002052068 -0.01499998 -0.005638122 0.002052068 -0.01239997 -0.005638122 0.001552879 -0.01499998 -0.005795538 0.001552879 -0.01239997 -0.005795538 0.001041889 -0.01499998 -0.005908846 0.001041889 -0.01239997 -0.005908846 5.22934e-4 -0.01499998 -0.005977153 5.22934e-4 -0.01239997 -0.005977153 0 -0.01499998 -0.005999982 0 -0.01239997 -0.005999982 -5.22934e-4 -0.01499998 -0.005977153 -5.22934e-4 -0.01239997 -0.005977153 -0.001041889 -0.01499998 -0.005908846 -0.001041889 -0.01239997 -0.005908846 -0.001552879 -0.01499998 -0.005795538 -0.001552879 -0.01239997 -0.005795538 -0.002052068 -0.01499998 -0.005638122 -0.002052068 -0.01239997 -0.005638122 -0.0025357 -0.01499998 -0.005437791 -0.0025357 -0.01239997 -0.005437791 -0.002999961 -0.01499998 -0.005196094 -0.002999961 -0.01239997 -0.005196094 -0.003441452 -0.01499998 -0.004914879 -0.003441452 -0.01239997 -0.004914879 -0.003856718 -0.01499998 -0.004596233 -0.003856718 -0.01239997 -0.004596233 -0.004242599 -0.01499998 -0.004242599 -0.004242599 -0.01239997 -0.004242599 -0.004596233 -0.01499998 -0.003856718 -0.004596233 -0.01239997 -0.003856718 -0.004914879 -0.01499998 -0.003441452 -0.004914879 -0.01239997 -0.003441452 -0.005196094 -0.01499998 -0.002999961 -0.005196094 -0.01239997 -0.002999961 -0.005437791 -0.01499998 -0.0025357 -0.005437791 -0.01239997 -0.0025357 -0.005638122 -0.01499998 -0.002052068 -0.005638122 -0.01239997 -0.002052068 -0.005795538 -0.01499998 -0.001552879 -0.005795538 -0.01239997 -0.001552879 -0.005908846 -0.01499998 -0.001041889 -0.005908846 -0.01239997 -0.001041889 -0.005977153 -0.01499998 -5.22934e-4 -0.005977153 -0.01239997 -5.22934e-4 -0.005999982 -0.01499998 0 -0.005999982 -0.01239997 0 -0.005977153 -0.01499998 5.22934e-4 -0.005977153 -0.01239997 5.22934e-4 -0.005908846 -0.01499998 0.001041889 -0.005908846 -0.01239997 0.001041889 -0.005795538 -0.01499998 0.001552879 -0.005795538 -0.01239997 0.001552879 -0.005638122 -0.01499998 0.002052068 -0.005638122 -0.01239997 0.002052068 -0.005437791 -0.01499998 0.0025357 -0.005437791 -0.01239997 0.0025357 -0.005196094 -0.01499998 0.002999961 -0.005196094 -0.01239997 0.002999961 -0.004914879 -0.01499998 0.003441452 -0.004914879 -0.01239997 0.003441452 -0.004596233 -0.01499998 0.003856718 -0.004596233 -0.01239997 0.003856718 -0.004242599 -0.01499998 0.004242599 -0.004242599 -0.01239997 0.004242599 -0.003856718 -0.01499998 0.004596233 -0.003856718 -0.01239997 0.004596233 -0.003441452 -0.01499998 0.004914879 -0.003441452 -0.01239997 0.004914879 -0.002999961 -0.01499998 0.005196094 -0.002999961 -0.01239997 0.005196094 -0.0025357 -0.01499998 0.005437791 -0.0025357 -0.01239997 0.005437791 -0.002052068 -0.01499998 0.005638122 -0.002052068 -0.01239997 0.005638122 -0.001552879 -0.01499998 0.005795538 -0.001552879 -0.01239997 0.005795538 -0.001041889 -0.01499998 0.005908846 -0.001041889 -0.01239997 0.005908846 -5.22934e-4 -0.01499998 0.005977153 -5.22934e-4 -0.01239997 0.005977153 -0.0937888 0.01002681 0.01499503 -0.09378677 0.009799957 0.01499998 0.09378677 0.009799957 0.01499998 -0.093795 0.01025319 0.01498019 0.0937888 0.01002681 0.01499503 0.093795 0.01025319 0.01498019 -0.09380519 0.01047873 0.01495546 -0.09381949 0.01070296 0.01492094 0.09380519 0.01047873 0.01495546 0.09381949 0.01070296 0.01492094 -0.09383785 0.01092547 0.01487672 -0.09386014 0.01114583 0.01482278 0.09383785 0.01092547 0.01487672 0.09386014 0.01114583 0.01482278 -0.09388649 0.01136362 0.0147593 -0.09391665 0.0115785 0.0146864 0.09388649 0.01136362 0.0147593 0.09391665 0.0115785 0.0146864 -0.09395074 0.01178991 0.01460415 -0.09398859 0.01199758 0.01451277 0.09395074 0.01178991 0.01460415 0.09398859 0.01199758 0.01451277 -0.09403014 0.01220107 0.0144124 -0.09407532 0.01239997 0.01430332 0.09403014 0.01220107 0.0144124 0.09407532 0.01239997 0.01430332 -0.09412407 0.01259392 0.0141856 -0.09417629 0.01278257 0.01405954 0.09412407 0.01259392 0.0141856 0.09417629 0.01278257 0.01405954 -0.0942319 0.01296555 0.01392543 -0.09429067 0.01314246 0.01378339 0.09429067 0.01314246 0.01378339 0.09435266 0.01331305 0.01363384 -0.09441763 0.0134769 0.0134769 0.0942319 0.01296555 0.01392543 -0.09435266 0.01331305 0.01363384 0.09441763 0.0134769 0.0134769 0.09455615 0.01378339 0.01314246 -0.09455615 0.01378339 0.01314246 0.09470528 0.01405954 0.01278257 -0.09470528 0.01405954 0.01278257 0.09486371 0.01430332 0.01239997 -0.09486371 0.01430332 0.01239997 0.09503042 0.01451277 0.01199758 -0.09503042 0.01451277 0.01199758 0.09520399 0.0146864 0.0115785 -0.09520399 0.0146864 0.0115785 0.09538322 0.01482278 0.01114583 -0.09538322 0.01482278 0.01114583 0.09556668 0.01492094 0.01070296 -0.09556668 0.01492094 0.01070296 0.09575295 0.01498019 0.01025319 -0.09575295 0.01498019 0.01025319 0.0959407 0.01499998 0.009799957 -0.0959407 0.01499998 0.009799957 0.1040593 0.01499998 -0.009799957 -0.1040593 0.01499998 -0.009799957 0.0959407 -0.01239997 0.009799957 -0.0959407 -0.01239997 0.009799957 -0.1040593 -0.01239997 -0.009799957 0.1040593 -0.01239997 -0.009799957 0.1049919 -0.01109999 -0.01205164 -0.1049919 -0.01109999 -0.01205164 -0.1049675 -0.01119697 -0.01199281 0.1049675 -0.01119697 -0.01199281 -0.1049414 -0.01129126 -0.01192975 0.1049414 -0.01129126 -0.01192975 -0.1049137 -0.01138275 -0.01186269 0.1049137 -0.01138275 -0.01186269 -0.1048843 -0.01147121 -0.0117917 0.1048843 -0.01147121 -0.0117917 -0.1048533 -0.0115565 -0.0117169 0.1048533 -0.0115565 -0.0117169 -0.1048208 -0.01163846 -0.01163846 0.1048208 -0.01163846 -0.01163846 -0.1047515 -0.0117917 -0.01147121 0.1047515 -0.0117917 -0.01147121 -0.104677 -0.01192975 -0.01129126 0.104677 -0.01192975 -0.01129126 -0.1045978 -0.01205164 -0.01109999 0.1045978 -0.01205164 -0.01109999 -0.1045144 -0.01215636 -0.01089876 0.1045144 -0.01215636 -0.01089876 -0.1044276 -0.01224315 -0.01068919 0.1044276 -0.01224315 -0.01068919 -0.104338 -0.01231139 -0.01047289 0.104338 -0.01231139 -0.01047289 -0.1042463 -0.01236045 -0.01025146 0.1042463 -0.01236045 -0.01025146 -0.1041531 -0.01239007 -0.01002657 0.1041531 -0.01239007 -0.01002657 -0.1050145 -0.01100051 -0.01210618 0.1050145 -0.01100051 -0.01210618 -0.1050353 -0.01089876 -0.01215636 0.1050353 -0.01089876 -0.01215636 -0.1050543 -0.01079493 -0.01220208 0.1050543 -0.01079493 -0.01220208 -0.1050713 -0.01068919 -0.01224315 0.1050995 -0.01047289 -0.01231139 -0.1050864 -0.01058179 -0.01227962 0.1050864 -0.01058179 -0.01227962 0.1050713 -0.01068919 -0.01224315 0.1051362 -0.009799957 -0.01239997 -0.1051362 -0.009799957 -0.01239997 0.1051352 -0.009913384 -0.01239752 -0.1051352 -0.009913384 -0.01239752 0.1051321 -0.01002657 -0.01239007 -0.1051321 -0.01002657 -0.01239007 0.105127 -0.01013934 -0.01237773 -0.105127 -0.01013934 -0.01237773 0.1051198 -0.01025146 -0.01236045 -0.1051198 -0.01025146 -0.01236045 0.1051107 -0.01036274 -0.01233834 -0.1051107 -0.01036274 -0.01233834 -0.1050995 -0.01047289 -0.01231139 0.1051362 0.009799957 -0.01239997 -0.1051362 0.009799957 -0.01239997 -0.09378677 -0.009799957 0.01499998 0.09378677 -0.009799957 0.01499998 0.1054438 0.01378339 -0.01314246 0.1052947 0.01405954 -0.01278257 0.104677 0.01192975 -0.01129126 0.1050995 0.01047289 -0.01231139 0.1051107 0.01036274 -0.01233834 0.1061621 0.01092547 -0.01487672 0.1061804 0.01070296 -0.01492094 0.1051198 0.01025146 -0.01236045 0.1061947 0.01047873 -0.01495546 0.105127 0.01013934 -0.01237773 0.106205 0.01025319 -0.01498019 0.1051321 0.01002657 -0.01239007 0.1062111 0.01002681 -0.01499503 0.1051352 0.009913384 -0.01239752 0.1062132 0.009799957 -0.01499998 0.1062132 -0.009799957 -0.01499998 0.1062111 -0.01002681 -0.01499503 0.106205 -0.01025319 -0.01498019 0.1061947 -0.01047873 -0.01495546 0.1061804 -0.01070296 -0.01492094 0.1061621 -0.01092547 -0.01487672 0.1061398 -0.01114583 -0.01482278 0.1061135 -0.01136362 -0.0147593 0.1060833 -0.0115785 -0.0146864 0.0949136 0.01058179 0.01227962 0.09490042 0.01047289 0.01231139 0.09488928 0.01036274 0.01233834 0.0948801 0.01025146 0.01236045 0.09487295 0.01013934 0.01237773 0.09486782 0.01002657 0.01239007 0.09486478 0.009913384 0.01239752 0.09486371 0.009799957 0.01239997 0.09486371 -0.009799957 0.01239997 0.09486478 -0.009913384 0.01239752 0.0937888 -0.01002681 0.01499503 0.09486782 -0.01002657 0.01239007 0.093795 -0.01025319 0.01498019 0.09487295 -0.01013934 0.01237773 0.09380519 -0.01047873 0.01495546 0.0948801 -0.01025146 0.01236045 0.09381949 -0.01070296 0.01492094 0.09488928 -0.01036274 0.01233834 0.09383785 -0.01092547 0.01487672 0.09490042 -0.01047289 0.01231139 0.1060492 -0.01178991 -0.01460415 0.1060114 -0.01199758 -0.01451277 0.1059698 -0.01220107 -0.0144124 0.1059246 -0.01239997 -0.01430332 0.1058759 -0.01259392 -0.0141856 0.1058236 -0.01278257 -0.01405954 0.1057681 -0.01296555 -0.01392543 0.1057093 -0.01314246 -0.01378339 0.1056473 -0.01331305 -0.01363384 0.1055823 -0.0134769 -0.0134769 0.1054438 -0.01378339 -0.01314246 0.1052947 -0.01405954 -0.01278257 0.1051362 -0.01430332 -0.01239997 0.1049696 -0.01451277 -0.01199758 0.1047959 -0.0146864 -0.0115785 0.1046168 -0.01482278 -0.01114583 0.1044333 -0.01492094 -0.01070296 0.104247 -0.01498019 -0.01025319 0.1040593 -0.01499998 -0.009799957 0.0959407 -0.01499998 0.009799957 0.09575295 -0.01498019 0.01025319 0.09584683 -0.01239007 0.01002657 0.09556668 -0.01492094 0.01070296 0.09575366 -0.01236045 0.01025146 0.09538322 -0.01482278 0.01114583 0.09566193 -0.01231139 0.01047289 0.09520399 -0.0146864 0.0115785 0.09557235 -0.01224315 0.01068919 0.09503042 -0.01451277 0.01199758 0.09548556 -0.01215636 0.01089876 0.09486371 -0.01430332 0.01239997 0.09540218 -0.01205164 0.01109999 0.09470528 -0.01405954 0.01278257 0.09532296 -0.01192975 0.01129126 0.09455615 -0.01378339 0.01314246 0.1045978 0.01205164 -0.01109999 0.1051362 0.01430332 -0.01239997 0.1045144 0.01215636 -0.01089876 0.1049696 0.01451277 -0.01199758 0.1044276 0.01224315 -0.01068919 0.1047959 0.0146864 -0.0115785 0.104338 0.01231139 -0.01047289 0.1046168 0.01482278 -0.01114583 0.1042463 0.01236045 -0.01025146 0.1044333 0.01492094 -0.01070296 0.1041531 0.01239007 -0.01002657 0.104247 0.01498019 -0.01025319 0.1040593 0.01239997 -0.009799957 0.0959407 0.01239997 0.009799957 0.09584683 0.01239007 0.01002657 0.09575366 0.01236045 0.01025146 0.09566193 0.01231139 0.01047289 0.09557235 0.01224315 0.01068919 0.09548556 0.01215636 0.01089876 0.09540218 0.01205164 0.01109999 0.09532296 0.01192975 0.01129126 0.09524846 0.0117917 0.01147121 0.09517914 0.01163846 0.01163846 0.1061398 0.01114583 -0.01482278 0.1061135 0.01136362 -0.0147593 0.1050864 0.01058179 -0.01227962 0.1060833 0.0115785 -0.0146864 0.1050713 0.01068919 -0.01224315 0.1060492 0.01178991 -0.01460415 0.1050543 0.01079493 -0.01220208 0.1060114 0.01199758 -0.01451277 0.1050353 0.01089876 -0.01215636 0.1059698 0.01220107 -0.0144124 0.1050145 0.01100051 -0.01210618 0.1059246 0.01239997 -0.01430332 0.1049919 0.01109999 -0.01205164 0.1058759 0.01259392 -0.0141856 0.1049675 0.01119697 -0.01199281 0.1058236 0.01278257 -0.01405954 0.1049414 0.01129126 -0.01192975 0.1057681 0.01296555 -0.01392543 0.1049137 0.01138275 -0.01186269 0.1057093 0.01314246 -0.01378339 0.1048843 0.01147121 -0.0117917 0.1056473 0.01331305 -0.01363384 0.1048533 0.0115565 -0.0117169 0.1055823 0.0134769 -0.0134769 0.1048208 0.01163846 -0.01163846 0.1047515 0.0117917 -0.01147121 0.09514665 0.0115565 0.0117169 0.09511572 0.01147121 0.0117917 0.09508627 0.01138275 0.01186269 0.0950585 0.01129126 0.01192975 0.09503239 0.01119697 0.01199281 0.09500801 0.01109999 0.01205164 0.09498542 0.01100051 0.01210618 0.09496462 0.01089876 0.01215636 0.09494572 0.01079493 0.01220208 0.09492868 0.01068919 0.01224315 0.09386014 -0.01114583 0.01482278 0.09388649 -0.01136362 0.0147593 0.0949136 -0.01058179 0.01227962 0.09391665 -0.0115785 0.0146864 0.09492868 -0.01068919 0.01224315 0.09395074 -0.01178991 0.01460415 0.09494572 -0.01079493 0.01220208 0.09398859 -0.01199758 0.01451277 0.09496462 -0.01089876 0.01215636 0.09403014 -0.01220107 0.0144124 0.09498542 -0.01100051 0.01210618 0.09407532 -0.01239997 0.01430332 0.09500801 -0.01109999 0.01205164 0.09412407 -0.01259392 0.0141856 0.09503239 -0.01119697 0.01199281 0.09417629 -0.01278257 0.01405954 0.0950585 -0.01129126 0.01192975 0.0942319 -0.01296555 0.01392543 0.09508627 -0.01138275 0.01186269 0.09429067 -0.01314246 0.01378339 0.09511572 -0.01147121 0.0117917 0.09435266 -0.01331305 0.01363384 0.09514665 -0.0115565 0.0117169 0.09441763 -0.0134769 0.0134769 0.09517914 -0.01163846 0.01163846 0.09524846 -0.0117917 0.01147121 -0.09532296 0.01192975 0.01129126 -0.1054438 -0.01378339 -0.01314246 -0.1052947 -0.01405954 -0.01278257 -0.0949136 -0.01058179 0.01227962 -0.09388649 -0.01136362 0.0147593 -0.09490042 -0.01047289 0.01231139 -0.09386014 -0.01114583 0.01482278 -0.09488928 -0.01036274 0.01233834 -0.09383785 -0.01092547 0.01487672 -0.0948801 -0.01025146 0.01236045 -0.09381949 -0.01070296 0.01492094 -0.09487295 -0.01013934 0.01237773 -0.09380519 -0.01047873 0.01495546 -0.09486782 -0.01002657 0.01239007 -0.093795 -0.01025319 0.01498019 -0.09486478 -0.009913384 0.01239752 -0.0937888 -0.01002681 0.01499503 -0.09486371 -0.009799957 0.01239997 -0.09486371 0.009799957 0.01239997 -0.09486478 0.009913384 0.01239752 -0.09486782 0.01002657 0.01239007 -0.09487295 0.01013934 0.01237773 -0.0948801 0.01025146 0.01236045 -0.09488928 0.01036274 0.01233834 -0.09490042 0.01047289 0.01231139 -0.1050864 0.01058179 -0.01227962 -0.1061135 0.01136362 -0.0147593 -0.1050995 0.01047289 -0.01231139 -0.1061398 0.01114583 -0.01482278 -0.1051107 0.01036274 -0.01233834 -0.1061621 0.01092547 -0.01487672 -0.1051198 0.01025146 -0.01236045 -0.1061804 0.01070296 -0.01492094 -0.105127 0.01013934 -0.01237773 -0.1061947 0.01047873 -0.01495546 -0.1051321 0.01002657 -0.01239007 -0.106205 0.01025319 -0.01498019 -0.1051352 0.009913384 -0.01239752 -0.1062111 0.01002681 -0.01499503 -0.1062132 0.009799957 -0.01499998 -0.1062132 -0.009799957 -0.01499998 -0.1062111 -0.01002681 -0.01499503 -0.106205 -0.01025319 -0.01498019 -0.1061947 -0.01047873 -0.01495546 -0.1061804 -0.01070296 -0.01492094 -0.1061621 -0.01092547 -0.01487672 -0.09540218 0.01205164 0.01109999 -0.09548556 0.01215636 0.01089876 -0.09557235 0.01224315 0.01068919 -0.09566193 0.01231139 0.01047289 -0.09575366 0.01236045 0.01025146 -0.09584683 0.01239007 0.01002657 -0.0959407 0.01239997 0.009799957 -0.1040593 0.01239997 -0.009799957 -0.1041531 0.01239007 -0.01002657 -0.104247 0.01498019 -0.01025319 -0.1042463 0.01236045 -0.01025146 -0.1044333 0.01492094 -0.01070296 -0.104338 0.01231139 -0.01047289 -0.1046168 0.01482278 -0.01114583 -0.1044276 0.01224315 -0.01068919 -0.1047959 0.0146864 -0.0115785 -0.1045144 0.01215636 -0.01089876 -0.1049696 0.01451277 -0.01199758 -0.1045978 0.01205164 -0.01109999 -0.1051362 0.01430332 -0.01239997 -0.104677 0.01192975 -0.01129126 -0.1052947 0.01405954 -0.01278257 -0.1047515 0.0117917 -0.01147121 -0.1054438 0.01378339 -0.01314246 -0.1048208 0.01163846 -0.01163846 -0.1051362 -0.01430332 -0.01239997 -0.1049696 -0.01451277 -0.01199758 -0.1047959 -0.0146864 -0.0115785 -0.1046168 -0.01482278 -0.01114583 -0.1044333 -0.01492094 -0.01070296 -0.104247 -0.01498019 -0.01025319 -0.1040593 -0.01499998 -0.009799957 -0.0959407 -0.01499998 0.009799957 -0.09584683 -0.01239007 0.01002657 -0.09575295 -0.01498019 0.01025319 -0.09575366 -0.01236045 0.01025146 -0.09556668 -0.01492094 0.01070296 -0.09566193 -0.01231139 0.01047289 -0.09538322 -0.01482278 0.01114583 -0.09557235 -0.01224315 0.01068919 -0.09520399 -0.0146864 0.0115785 -0.09548556 -0.01215636 0.01089876 -0.09503042 -0.01451277 0.01199758 -0.09540218 -0.01205164 0.01109999 -0.09486371 -0.01430332 0.01239997 -0.09532296 -0.01192975 0.01129126 -0.09470528 -0.01405954 0.01278257 -0.09524846 -0.0117917 0.01147121 -0.09455615 -0.01378339 0.01314246 -0.09517914 -0.01163846 0.01163846 -0.0949136 0.01058179 0.01227962 -0.09492868 0.01068919 0.01224315 -0.09494572 0.01079493 0.01220208 -0.09496462 0.01089876 0.01215636 -0.09498542 0.01100051 0.01210618 -0.09500801 0.01109999 0.01205164 -0.09503239 0.01119697 0.01199281 -0.0950585 0.01129126 0.01192975 -0.09508627 0.01138275 0.01186269 -0.09511572 0.01147121 0.0117917 -0.09514665 0.0115565 0.0117169 -0.09517914 0.01163846 0.01163846 -0.09524846 0.0117917 0.01147121 -0.09514665 -0.0115565 0.0117169 -0.09441763 -0.0134769 0.0134769 -0.09511572 -0.01147121 0.0117917 -0.09435266 -0.01331305 0.01363384 -0.09508627 -0.01138275 0.01186269 -0.09429067 -0.01314246 0.01378339 -0.0950585 -0.01129126 0.01192975 -0.0942319 -0.01296555 0.01392543 -0.09503239 -0.01119697 0.01199281 -0.09417629 -0.01278257 0.01405954 -0.09500801 -0.01109999 0.01205164 -0.09412407 -0.01259392 0.0141856 -0.09498542 -0.01100051 0.01210618 -0.09407532 -0.01239997 0.01430332 -0.09496462 -0.01089876 0.01215636 -0.09403014 -0.01220107 0.0144124 -0.09494572 -0.01079493 0.01220208 -0.09398859 -0.01199758 0.01451277 -0.09492868 -0.01068919 0.01224315 -0.09395074 -0.01178991 0.01460415 -0.09391665 -0.0115785 0.0146864 -0.1048533 0.0115565 -0.0117169 -0.1055823 0.0134769 -0.0134769 -0.1048843 0.01147121 -0.0117917 -0.1056473 0.01331305 -0.01363384 -0.1049137 0.01138275 -0.01186269 -0.1057093 0.01314246 -0.01378339 -0.1049414 0.01129126 -0.01192975 -0.1057681 0.01296555 -0.01392543 -0.1049675 0.01119697 -0.01199281 -0.1058236 0.01278257 -0.01405954 -0.1049919 0.01109999 -0.01205164 -0.1058759 0.01259392 -0.0141856 -0.1050145 0.01100051 -0.01210618 -0.1059246 0.01239997 -0.01430332 -0.1050353 0.01089876 -0.01215636 -0.1059698 0.01220107 -0.0144124 -0.1050543 0.01079493 -0.01220208 -0.1060114 0.01199758 -0.01451277 -0.1050713 0.01068919 -0.01224315 -0.1060492 0.01178991 -0.01460415 -0.1060833 0.0115785 -0.0146864 -0.1061398 -0.01114583 -0.01482278 -0.1061135 -0.01136362 -0.0147593 -0.1060833 -0.0115785 -0.0146864 -0.1060492 -0.01178991 -0.01460415 -0.1060114 -0.01199758 -0.01451277 -0.1059698 -0.01220107 -0.0144124 -0.1059246 -0.01239997 -0.01430332 -0.1058759 -0.01259392 -0.0141856 -0.1058236 -0.01278257 -0.01405954 -0.1057681 -0.01296555 -0.01392543 -0.1057093 -0.01314246 -0.01378339 -0.1056473 -0.01331305 -0.01363384 -0.1055823 -0.0134769 -0.0134769</float_array>
          <technique_common>
            <accessor source="#trapezoid__11-mesh-positions-array" count="736" stride="3">
              <param name="X" type="float"/>
              <param name="Y" type="float"/>
              <param name="Z" type="float"/>
            </accessor>
          </technique_common>
        </source>
        <source id="trapezoid__11-mesh-normals">
          <float_array id="trapezoid__11-mesh-normals-array" count="3480">-0.04361808 0 -0.9990484 -0.0436207 0 -0.9990482 -0.1305254 0 -0.991445 -0.2164384 0 -0.9762964 -0.2164409 0 -0.9762958 -0.3007046 0 -0.9537174 -0.3007072 0 -0.9537165 -0.3826837 0 -0.9238795 -0.3826828 0 -0.9238799 -0.4617486 0 -0.887011 -0.4617493 0 -0.8870105 -0.5373001 0 -0.8433912 -0.5372989 0 -0.843392 -0.6087625 0 -0.7933526 -0.6087613 0 -0.7933534 -0.6755901 0 -0.7372775 -0.6755908 0 -0.7372768 -0.7372772 0 -0.6755905 -0.7372765 0 -0.6755911 -0.7933533 0 -0.6087617 -0.7933534 0 -0.6087614 -0.8433917 0 -0.5372994 -0.8433918 0 -0.537299 -0.8870107 0 -0.461749 -0.8870105 0 -0.4617493 -0.9238798 0 -0.3826829 -0.9238796 0 -0.3826834 -0.9537168 0 -0.3007065 -0.9537169 0 -0.3007063 -0.9762963 0 -0.2164388 -0.9762961 0 -0.216439 -0.9914449 0 -0.1305264 -0.9914448 0 -0.1305266 -0.9990482 0 -0.04361939 -0.9990482 0 -0.04361939 -0.9990482 0 0.04361939 -0.9990482 0 0.04361939 -0.9914448 0 0.1305265 -0.9914449 0 0.1305266 -0.9762963 0 0.2164388 -0.9762961 0 0.216439 -0.9537168 0 0.3007066 -0.9537169 0 0.3007062 -0.9238797 0 0.382683 -0.9238798 0 0.3826832 -0.8870107 0 0.461749 -0.8870105 0 0.4617493 -0.8433921 0 0.5372987 -0.8433915 0 0.5372996 -0.7933536 0 0.608761 -0.7933529 0 0.6087621 -0.7372765 0 0.6755911 -0.7372772 0 0.6755905 -0.6755908 0 0.7372768 -0.6755901 0 0.7372775 -0.6087617 0 0.7933533 -0.6087622 0 0.7933528 -0.5372991 0 0.8433918 -0.5372998 0 0.8433914 -0.4617496 0 0.8870103 -0.4617482 0 0.8870111 -0.3826826 0 0.9238799 -0.3826839 0 0.9238794 -0.3007071 0 0.9537166 -0.3007048 0 0.9537174 -0.2164409 0 0.9762958 -0.2164384 0 0.9762964 -0.1305254 0 0.991445 -0.0436207 0 0.9990482 -0.04361808 0 0.9990484 0.04361808 0 0.9990484 0.0436207 0 0.9990482 0.1305254 0 0.991445 0.2164384 0 0.9762964 0.2164409 0 0.9762958 0.3007046 0 0.9537174 0.3007072 0 0.9537165 0.3826837 0 0.9238795 0.3826828 0 0.9238799 0.4617486 0 0.887011 0.4617493 0 0.8870105 0.5373001 0 0.8433912 0.5372989 0 0.843392 0.6087625 0 0.7933526 0.6087613 0 0.7933534 0.6755901 0 0.7372775 0.6755908 0 0.7372768 0.7372772 0 0.6755905 0.7372765 0 0.6755911 0.7933533 0 0.6087617 0.7933534 0 0.6087614 0.8433917 0 0.5372994 0.8433918 0 0.537299 0.8870107 0 0.461749 0.8870105 0 0.4617493 0.9238798 0 0.3826829 0.9238796 0 0.3826834 0.9537168 0 0.3007065 0.9537169 0 0.3007063 0.9762963 0 0.2164388 0.9762961 0 0.216439 0.9914449 0 0.1305264 0.9914448 0 0.1305266 0.9990482 0 0.04361939 0.9990482 0 0.04361939 0.9990482 0 -0.04361939 0.9990482 0 -0.04361939 0.9914448 0 -0.1305265 0.9914449 0 -0.1305266 0.9762963 0 -0.2164388 0.9762961 0 -0.216439 0.9537168 0 -0.3007066 0.9537169 0 -0.3007062 0.9238797 0 -0.382683 0.9238798 0 -0.3826832 0.8870107 0 -0.461749 0.8870105 0 -0.4617493 0.8433921 0 -0.5372987 0.8433915 0 -0.5372996 0.7933536 0 -0.608761 0.7933529 0 -0.6087621 0.7372765 0 -0.6755911 0.7372772 0 -0.6755905 0.6755908 0 -0.7372768 0.6755901 0 -0.7372775 0.6087617 0 -0.7933533 0.6087622 0 -0.7933528 0.5372991 0 -0.8433918 0.5372998 0 -0.8433914 0.4617496 0 -0.8870103 0.4617482 0 -0.8870111 0.3826826 0 -0.9238799 0.3826839 0 -0.9238794 0.3007071 0 -0.9537166 0.3007048 0 -0.9537174 0.2164409 0 -0.9762958 0.2164384 0 -0.9762964 0.1305254 0 -0.991445 0.0436207 0 -0.9990482 0.04361808 0 -0.9990484 -0.3007048 0 -0.9537174 -0.3007071 0 -0.9537166 -0.3826839 0 -0.9238794 -0.3826826 0 -0.9238799 -0.4617482 0 -0.8870111 -0.4617496 0 -0.8870103 -0.5372998 0 -0.8433914 -0.5372991 0 -0.8433918 -0.6087622 0 -0.7933528 -0.6087617 0 -0.7933533 -0.7933529 0 -0.6087621 -0.7933536 0 -0.608761 -0.8433915 0 -0.5372996 -0.8433921 0 -0.5372987 -0.9238798 0 -0.3826832 -0.9238797 0 -0.382683 -0.9537169 0 -0.3007062 -0.9537168 0 -0.3007066 -0.9914449 0 -0.1305266 -0.9914448 0 -0.1305265 -0.9914448 0 0.1305266 -0.9914449 0 0.1305264 -0.9537169 0 0.3007063 -0.9537168 0 0.3007065 -0.9238796 0 0.3826834 -0.9238798 0 0.3826829 -0.8433918 0 0.537299 -0.8433917 0 0.5372994 -0.7933534 0 0.6087614 -0.7933533 0 0.6087617 -0.6087613 0 0.7933534 -0.6087625 0 0.7933526 -0.5372989 0 0.843392 -0.5373001 0 0.8433912 -0.4617493 0 0.8870105 -0.4617486 0 0.887011 -0.3826828 0 0.9238799 -0.3826837 0 0.9238795 -0.3007072 0 0.9537165 -0.3007046 0 0.9537174 0.3007048 0 0.9537174 0.3007071 0 0.9537166 0.3826839 0 0.9238794 0.3826826 0 0.9238799 0.4617482 0 0.8870111 0.4617496 0 0.8870103 0.5372998 0 0.8433914 0.5372991 0 0.8433918 0.6087622 0 0.7933528 0.6087617 0 0.7933533 0.7933529 0 0.6087621 0.7933536 0 0.608761 0.8433915 0 0.5372996 0.8433921 0 0.5372987 0.9238798 0 0.3826832 0.9238797 0 0.382683 0.9537169 0 0.3007062 0.9537168 0 0.3007066 0.9914449 0 0.1305266 0.9914448 0 0.1305265 0.9914448 0 -0.1305266 0.9914449 0 -0.1305264 0.9537169 0 -0.3007063 0.9537168 0 -0.3007065 0.9238796 0 -0.3826834 0.9238798 0 -0.3826829 0.8433918 0 -0.537299 0.8433917 0 -0.5372994 0.7933534 0 -0.6087614 0.7933533 0 -0.6087617 0.6087613 0 -0.7933534 0.6087625 0 -0.7933526 0.5372989 0 -0.843392 0.5373001 0 -0.8433912 0.4617493 0 -0.8870105 0.4617486 0 -0.887011 0.3826828 0 -0.9238799 0.3826837 0 -0.9238795 0.3007072 0 -0.9537165 0.3007046 0 -0.9537174 0 0.02181386 0.9997621 5.27683e-5 0.06540244 0.9978591 -5.27639e-5 0.02181458 0.9997621 0 0.06540024 0.9978591 0 0.1088694 0.9940561 5.27416e-5 0.1521247 0.9883614 -5.27286e-5 0.1088715 0.9940558 0 0.1521227 0.9883617 0 0.1950904 0.9807853 5.27495e-5 0.2376877 0.9713417 -5.27269e-5 0.1950944 0.9807845 0 0.2376846 0.9713425 0 0.2798283 0.9600501 5.27059e-5 0.3214473 0.9469275 -5.26735e-5 0.2798338 0.9600485 0 0.3214374 0.946931 0 0.3624392 0.9320075 5.26843e-5 0.4027525 0.9153089 -5.26438e-5 0.3624441 0.9320055 0 0.4027472 0.9153113 0 0.4422919 0.8968713 5.26333e-5 0.480995 0.8767234 -5.25851e-5 0.4422998 0.8968674 0 0.4809861 0.8767284 0 0.5187781 0.854909 5.25845e-5 0.5555779 0.8314646 -5.25295e-5 0.5187931 0.8548998 0 0.5555647 0.8314734 0 0.5913083 0.8064456 5.25491e-5 0.6259304 0.779879 -5.24156e-5 0.659355 0.7518318 -5.24867e-5 0.5913233 0.8064346 0 0.6259195 0.7798877 0 0.6593443 0.7518412 5.24857e-5 0.6915212 0.7223562 0 0.6915144 0.7223627 0 0.7372788 0.6755886 0 0.7372798 0.6755876 0 0.7933548 0.6087596 0 0.7933517 0.6087636 0 0.8433898 0.5373021 0 0.8433896 0.5373026 0 0.8870112 0.4617478 0 0.8870089 0.4617523 0 0.9238791 0.3826848 0 0.923878 0.3826873 0 0.9537184 0.3007013 0 0.9537168 0.3007063 0 0.9762969 0.2164362 0 0.9762973 0.2164344 0 0.9914442 0.1305316 0 0.9914451 0.1305243 0 0.9990484 0.04361534 0 0.9990482 0.04362094 0 1 0 0 1 3.08721e-6 0 1 -4.95376e-6 0 1 6.23329e-6 0 1 -8.54998e-6 0 1 -5.54723e-6 0 1 5.29799e-7 0 1 5.14869e-6 0 1 8.47337e-6 0 1 3.40125e-6 0 1 -5.75091e-6 0 1 -6.73475e-6 0 1 7.39072e-6 0 1 -4.13244e-6 0 1 -1.8276e-5 0 1 -6.98961e-7 0 1 -8.26489e-6 0 1 5.68739e-6 0 1 4.5604e-6 0 1 -1.26635e-7 0 1 -2.67523e-6 0 1 -4.52078e-6 0 1 4.518e-6 0 1 -2.09372e-6 0 1 -1.65626e-5 0 1 2.73822e-5 0 1 2.16063e-5 0 1 -5.38488e-6 0 1 3.82262e-6 0 1 5.38991e-6 0 1 5.11082e-6 0 1 4.518e-6 0 1 9.85013e-7 0 1 -7.81764e-6 0 1 -3.56105e-6 0 1 7.64524e-6 0 1 1.67604e-6 0 1 5.42222e-6 0 1 -3.15e-6 0 1 5.54723e-6 0 1 3.21794e-7 0 1 -6.23329e-6 0 1 1.49953e-6 0 1 -5.84618e-6 0 1 -7.27175e-7 0 1 4.95376e-6 0 1 8.26489e-6 0 1 1.84851e-7 0 1 -1.11834e-5 0 1 9.99469e-7 0 1 -6.1596e-6 0 1 -1.96316e-6 0 1 -4.5604e-6 0 1 1.26635e-7 0 1 3.79272e-6 0 1 4.52078e-6 0 1 -4.518e-6 0 1 1.06686e-6 0 1 -4.62406e-6 0 1 5.56661e-6 0 1 5.75091e-6 0 1 1.24076e-5 0 1 -4.518e-6 0 1 -1.53518e-6 0 1 -5.11082e-6 0 1 3.1001e-6 0 1 3.28507e-7 0 1 -1.70454e-5 0 1 1.39433e-5 0 1 -1.38456e-6 0 1 1.28398e-5 0 1 -1.71196e-7 0 1 2.57053e-5 0 1 -5.33646e-5 0 1 1.40576e-5 0 0.5187664 0.854916 0 0.5187763 0.85491 0 0.5555748 0.8314666 0 0.5555605 0.8314761 0 0.5913128 0.8064423 0 0.5913042 0.8064486 0 0.6259309 0.7798785 0 0.6259196 0.7798876 0 0.6593608 0.7518268 0 0.659338 0.7518468 0 0.6915265 0.7223511 0 0.6915125 0.7223646 0 0.7372761 0.6755915 0 0.7372782 0.6755893 0 0.793357 0.6087568 0 0.7933513 0.6087642 0 0.8433929 0.5372974 0 0.8433908 0.5373008 0 0.8870159 0.461739 0 0.8870099 0.4617505 0 0.923878 0.3826872 0 0.9238802 0.3826819 0 0.9537183 0.3007017 0 0.9537148 0.3007129 0 0.9762939 0.2164492 0 0.9762973 0.2164336 0 0.9914457 0.1305201 0 0.9914447 0.1305283 0 0.9990482 0.04362106 0 0.9990478 0.04363077 0 0.481002 0.8767196 0 0.4809991 0.8767211 0 0.4422731 0.8968805 0 0.4422892 0.8968726 0 0.4027526 0.9153088 0 0.4027414 0.9153139 0 0.3624418 0.9320065 0 0.2798233 0.9600515 0 0.3214386 0.9469305 0 0.3214388 0.9469304 0 0.3624347 0.9320092 0 0.0218141 0.9997621 0 0.02181428 0.9997621 0 0.06540817 0.9978586 0 0.06540882 0.9978586 0 0.1088669 0.9940564 0 0.1088637 0.9940568 0 0.1521257 0.9883612 0 0.1521244 0.9883614 0 0.1950883 0.9807858 0 0.1950943 0.9807845 0 0.2376819 0.9713431 0 0.2376806 0.9713433 0 0.2798315 0.9600492 0 0 1 0.9238817 0 0.3826783 0.9238805 0 0.3826811 0.9238795 0 0.3826835 0.9238811 0 0.38268 0.9238779 0 0.3826876 0.9238789 1.82378e-4 0.382685 0.9238805 0 0.3826812 0.9238781 -1.82376e-4 0.3826869 0.9238795 9.11884e-5 0.3826836 0.9238781 0 0.3826871 0.9238786 0 0.3826857 0.9238811 0 0.3826797 0.9238791 0 0.3826847 0.9238794 0 0.3826841 0.9238783 -1.82375e-4 0.3826863 0.9238794 9.11885e-5 0.3826841 0.9238802 0 0.382682 0.9238792 0 0.3826845 0.9238769 -1.82377e-4 0.3826899 0.9238787 -9.11882e-5 0.3826854 0.9238826 1.82376e-4 0.3826761 0.9238784 0 0.3826865 0.9238818 0 0.3826782 0.9238766 -1.82375e-4 0.3826907 0.9238767 9.1188e-5 0.3826903 0.9238826 0 0.3826761 0.9238767 0 0.3826903 0.9238818 -9.11885e-5 0.3826782 0.9238773 4.55942e-5 0.3826889 0.9238786 0 0.3826858 0.9238816 0 0.3826786 0.9238809 0 0.3826802 0.9238789 4.5594e-5 0.3826849 0.9238781 0 0.3826869 0.9238794 0 0.3826838 0.9238842 0 0.3826723 0.9238794 -9.11885e-5 0.3826841 0.9238811 1.82378e-4 0.3826797 0.92388 0 0.3826824 0.9238786 -9.11882e-5 0.3826857 0.9238801 0 0.3826823 0.9238762 0 0.3826918 0.9238805 4.55942e-5 0.3826811 0.9238831 -1.82378e-4 0.3826748 0.9238777 4.5594e-5 0.3826879 0.9238811 9.11876e-5 0.38268 0.9238808 -4.55942e-5 0.3826806 0.9238786 0 0.3826861 0.923882 0 0.3826778 0.9238806 1.83074e-4 0.3826809 0.9238789 -4.55076e-5 0.3826851 0.9238767 0 0.3826907 0.923877 4.55075e-5 0.3826899 0.9238806 0 0.3826809 0.9238837 -4.55076e-5 0.3826733 0.9238809 9.15379e-5 0.3826801 0.9238749 -4.55074e-5 0.3826947 0.9238867 9.15374e-5 0.3826662 0.9238746 -9.15362e-5 0.3826956 0.9238801 0 0.3826822 0.9238762 0 0.3826915 0.9238788 4.55073e-5 0.3826855 0.9238826 -9.1537e-5 0.382676 0.9238864 9.15362e-5 0.3826671 0.9238727 -4.5507e-5 0.3827 0.9238813 0 0.3826792 0.9238807 0 0.3826808 0.923882 9.22406e-5 0.3826775 0.9238803 -4.56378e-5 0.3826816 0.9238822 0 0.3826771 0.9238723 0 0.382701 0.9238761 0 0.3826919 0.923883 0 0.3826751 0.9238821 0 0.3826775 0.9238818 2.28189e-5 0.3826779 0.9238767 -1.14093e-5 0.3826905 0.9238814 -2.28189e-5 0.3826791 0.9238843 5.70472e-6 0.3826719 0.9238744 2.28185e-5 0.3826957 0.9238757 -2.85234e-6 0.3826927 0.9238798 -1.14095e-5 0.382683 0.9238823 3.38716e-6 0.3826771 0.9238808 0 0.3826803 0.9238797 2.85236e-6 0.382683 0.9238805 0 0.3826811 0.9238796 0 0.3826833 0.9238805 -5.70469e-6 0.3826811 0.9238761 1.14093e-5 0.3826917 0.9238714 -1.14093e-5 0.3827033 0.9238811 0 0.3826799 0.9238798 0 0.382683 0.9238796 0 0.3826834 0.9238842 0 0.3826723 0.9238815 0 0.3826787 0.9238812 0 0.3826795 0.9238768 2.28187e-5 0.3826903 0.9238731 -4.56372e-5 0.382699 0.9238814 0 0.3826791 0.9238776 0 0.3826881 0.9238814 -4.56379e-5 0.3826791 0.9238772 0 0.3826893 0.9238833 0 0.3826747 0.9238768 1.14094e-5 0.3826903 0.9238741 0 0.3826966 0.9238845 -1.14094e-5 0.3826715 0.9238796 0 0.3826836 0.9238759 1.14094e-5 0.3826924 0.9238815 -2.85235e-6 0.3826786 0.9238807 -1.14094e-5 0.3826808 0.9238702 -7.88848e-6 0.3827061 0.9238765 -5.70467e-6 0.3826908 0.9238799 0 0.3826827 0.9238812 0 0.3826797 0.9238855 1.14094e-5 0.382669 0.9238792 0 0.3826844 0.9238814 0 0.3826789 0.923877 0 0.3826897 0.923883 -2.28187e-5 0.3826751 0.9238803 0 0.3826816 0.9238766 1.82375e-4 0.3826907 0.9238767 -9.1188e-5 0.3826903 0.9238809 -1.82378e-4 0.3826802 0.9238823 0 0.3826771 0.923879 0 0.3826851 0.9238786 4.55938e-5 0.3826858 0.9238789 -1.82378e-4 0.382685 0.9238837 0 0.3826733 0.9238849 -9.11894e-5 0.3826704 0.9238758 4.55939e-5 0.3826928 0.9238749 0 0.3826948 0.9238818 4.55942e-5 0.3826782 0.9238766 9.11874e-5 0.3826907 0.9238799 -4.55944e-5 0.3826826 0.9238826 9.1188e-5 0.3826761 0.9238787 -4.55941e-5 0.3826854 0.9238846 -9.11882e-5 0.3826712 0.9238827 0 0.3826757 0.9238813 9.11901e-5 0.3826794 0.9238728 0 0.3827 0.923879 9.11888e-5 0.3826851 0.9238817 -2.28188e-5 0.3826783 0.9238803 4.56378e-5 0.3826816 0.923873 1.71141e-5 0.3826991 0.9238811 9.22405e-5 0.38268 0.9238804 0 0.3826814 0.9238793 9.15389e-5 0.3826841 0.9238807 -4.55074e-5 0.3826806 0.9238722 0 0.3827013 0.9238829 0 0.3826754 0.9238826 9.1537e-5 0.382676 0.9238798 -4.55074e-5 0.382683 0.9238762 -9.15352e-5 0.3826915 0.9238811 4.5508e-5 0.3826798 0.9238867 0 0.3826662 0.9238749 0 0.3826947 0.9238725 0 0.3827004 0.9238847 0 0.3826712 0.9238778 4.55073e-5 0.3826879 0.9238829 -4.55078e-5 0.3826754 0.9238767 9.15364e-5 0.3826907 0.9238799 0 0.3826826 0.9238826 0 0.382676 0.9238773 0 0.3826889 0.9238817 1.42482e-5 0.3826785 0.923879 -9.11888e-5 0.3826851 0.9238796 0 0.3826834 0.9238837 4.5594e-5 0.3826737 0.9238809 -9.1189e-5 0.3826802 0.9238787 0 0.3826854 0.9238728 -9.11882e-5 0.3826996 0.9238849 0 0.3826704 0.9238758 0 0.3826928 0.9238786 9.11876e-5 0.3826858 0.9238846 0 0.3826712 0.9238725 0 0.3827005 0.9238798 -4.55941e-5 0.382683 0.9238769 0 0.3826899 0.9238812 -2.28188e-5 0.3826795 0.9238801 1.14095e-5 0.3826825 -0.9238776 0 0.3826881 -0.9238817 0 0.3826783 -0.9238826 0 0.3826761 -0.9238767 0 0.3826903 -0.9238818 9.11885e-5 0.3826782 -0.9238773 -4.55942e-5 0.3826889 -0.9238786 0 0.3826858 -0.9238816 0 0.3826786 -0.9238809 0 0.3826802 -0.9238789 -4.5594e-5 0.3826849 -0.9238781 0 0.3826869 -0.9238794 0 0.3826838 -0.9238842 0 0.3826723 -0.9238794 9.11885e-5 0.3826841 -0.9238811 -1.82378e-4 0.3826797 -0.9238786 0 0.3826857 -0.92388 0 0.3826824 -0.9238811 0 0.3826797 -0.9238786 9.11882e-5 0.3826857 -0.9238801 0 0.3826823 -0.9238762 0 0.3826918 -0.9238805 -4.55942e-5 0.3826811 -0.9238831 1.82378e-4 0.3826748 -0.9238777 -4.5594e-5 0.3826879 -0.9238811 -9.11876e-5 0.38268 -0.9238808 4.55942e-5 0.3826806 -0.9238786 0 0.3826861 -0.9238766 1.82375e-4 0.3826907 -0.9238818 0 0.3826782 -0.9238784 0 0.3826865 -0.9238826 -1.82376e-4 0.3826761 -0.9238785 9.11883e-5 0.3826859 -0.9238769 1.82377e-4 0.3826899 -0.9238789 0 0.3826849 -0.9238802 0 0.382682 -0.9238794 -9.11885e-5 0.3826838 -0.9238781 1.82376e-4 0.3826869 -0.9238794 0 0.3826841 -0.9238791 0 0.3826847 -0.923878 0 0.3826872 -0.9238795 -9.11884e-5 0.3826835 -0.9238805 0 0.3826811 -0.9238792 -1.82377e-4 0.3826845 -0.9238777 0 0.3826879 -0.9238811 0 0.38268 -0.9238798 0 0.382683 -0.9238805 0 0.3826811 -0.9238823 0 0.3826767 -0.923882 0 0.3826777 -0.9238731 4.56372e-5 0.382699 -0.923877 -1.14094e-5 0.3826897 -0.9238812 0 0.3826795 -0.9238812 0 0.3826793 -0.9238842 0 0.3826723 -0.9238798 0 0.3826831 -0.92388 0 0.3826823 -0.9238811 0 0.3826799 -0.9238716 0 0.3827027 -0.9238762 -1.42617e-5 0.3826914 -0.9238807 1.14094e-5 0.3826808 -0.9238796 0 0.3826833 -0.9238795 0 0.3826835 -0.9238797 -2.85236e-6 0.382683 -0.9238809 1.06964e-6 0.3826802 -0.9238818 -5.7047e-6 0.382678 -0.9238799 1.14095e-5 0.3826827 -0.9238757 0 0.3826927 -0.9238744 -1.14092e-5 0.3826957 -0.9238845 -1.14094e-5 0.3826716 -0.9238814 2.28189e-5 0.3826791 -0.9238767 0 0.3826905 -0.9238818 -2.28189e-5 0.3826779 -0.9238821 0 0.3826775 -0.923883 0 0.3826751 -0.9238763 0 0.3826913 -0.9238723 0 0.382701 -0.9238822 0 0.3826771 -0.9238803 4.56378e-5 0.3826816 -0.9238814 4.56379e-5 0.3826791 -0.9238772 0 0.3826893 -0.9238833 0 0.3826747 -0.9238815 0 0.3826787 -0.9238768 -1.14094e-5 0.3826903 -0.9238741 0 0.3826966 -0.9238845 1.14094e-5 0.3826715 -0.9238796 0 0.3826836 -0.9238759 -1.14094e-5 0.3826924 -0.9238815 2.85235e-6 0.3826786 -0.9238702 7.88848e-6 0.3827061 -0.9238765 5.70467e-6 0.3826908 -0.9238799 0 0.3826827 -0.9238812 0 0.3826797 -0.9238855 -1.14094e-5 0.382669 -0.9238792 0 0.3826844 -0.9238808 0 0.3826803 -0.9238814 0 0.3826789 -0.923877 0 0.3826897 -0.923883 2.28187e-5 0.3826751 -0.9238814 0 0.3826791 -0.9238803 0 0.3826816 -0.9238792 0 0.3826845 -0.923879 9.11888e-5 0.3826851 -0.9238796 0 0.3826834 -0.9238837 -4.5594e-5 0.3826737 -0.9238809 9.1189e-5 0.3826802 -0.9238787 0 0.3826854 -0.9238728 9.11882e-5 0.3826996 -0.9238818 -4.55942e-5 0.3826782 -0.9238849 0 0.3826704 -0.9238758 0 0.3826928 -0.9238786 -9.11876e-5 0.3826858 -0.9238799 4.55944e-5 0.3826826 -0.9238846 0 0.3826712 -0.9238725 0 0.3827005 -0.9238827 0 0.3826757 -0.9238813 -9.11901e-5 0.3826794 -0.9238798 4.55941e-5 0.382683 -0.9238769 0 0.3826899 -0.9238812 2.28188e-5 0.3826795 -0.9238801 -1.14095e-5 0.3826825 -0.9238811 -9.22405e-5 0.38268 -0.9238804 0 0.3826814 -0.9238793 -9.15389e-5 0.3826841 -0.9238807 4.55074e-5 0.3826806 -0.9238722 0 0.3827013 -0.9238829 0 0.3826754 -0.9238826 -9.1537e-5 0.382676 -0.9238798 4.55074e-5 0.382683 -0.9238762 9.15352e-5 0.3826915 -0.9238811 -4.5508e-5 0.3826798 -0.9238867 0 0.3826662 -0.9238749 0 0.3826947 -0.9238725 0 0.3827004 -0.923882 0 0.3826778 -0.9238847 0 0.3826712 -0.9238778 -4.55073e-5 0.3826879 -0.9238806 0 0.3826809 -0.9238829 4.55078e-5 0.3826754 -0.9238767 -9.15364e-5 0.3826907 -0.9238799 0 0.3826826 -0.9238826 0 0.382676 -0.9238773 0 0.3826889 -0.9238817 -1.42482e-5 0.3826785 -0.923882 -9.22406e-5 0.3826775 -0.9238809 0 0.3826802 -0.9238813 0 0.3826792 -0.9238727 4.5507e-5 0.3827 -0.9238864 -9.15362e-5 0.3826671 -0.9238826 9.1537e-5 0.382676 -0.9238788 -4.55073e-5 0.3826855 -0.9238762 0 0.3826915 -0.9238801 0 0.3826822 -0.9238746 9.15362e-5 0.3826956 -0.9238867 -9.15374e-5 0.3826662 -0.9238749 4.55074e-5 0.3826947 -0.9238837 4.55076e-5 0.3826733 -0.923877 -4.55075e-5 0.3826899 -0.9238767 0 0.3826907 -0.9238789 0 0.3826851 -0.9238806 -1.83074e-4 0.3826809 -0.9238824 0 0.3826768 -0.9238767 -6.8391e-5 0.3826906 -0.9238766 -1.82375e-4 0.3826907 -0.9238767 9.1188e-5 0.3826903 -0.9238809 1.82378e-4 0.3826802 -0.9238823 0 0.3826771 -0.923879 0 0.3826851 -0.9238786 -4.55938e-5 0.3826858 -0.9238789 1.82378e-4 0.382685 -0.9238837 0 0.3826733 -0.9238849 9.11894e-5 0.3826704 -0.9238758 -4.55939e-5 0.3826928 -0.9238749 0 0.3826948 -0.9238766 -9.11874e-5 0.3826907 -0.9238826 -9.1188e-5 0.3826761 -0.9238787 4.55941e-5 0.3826854 -0.9238846 9.11882e-5 0.3826712 -0.9238728 0 0.3827 -0.923879 -9.11888e-5 0.3826851 -0.9238817 2.28188e-5 0.3826783 -0.9238803 -4.56378e-5 0.3826816 -0.923873 -1.71141e-5 0.3826991 0 0.625922 -0.7798857 0 0.5555735 -0.8314674 0 0.4422852 -0.8968744 0 0.3624432 -0.932006 0 0.3214367 -0.9469311 0 0.2376822 -0.971343 0 0.1521267 -0.9883611 0 0.06540924 -0.9978585 2.60729e-5 0.02181446 -0.9997621 -2.60732e-5 0.06540858 -0.9978587 0 0.02181428 -0.9997621 2.60686e-5 0.1088631 -0.9940568 -2.60727e-5 0.1521253 -0.9883612 0 0.108866 -0.9940565 2.60423e-5 0.1950945 -0.9807845 -2.60489e-5 0.2376891 -0.9713414 0 0.1950916 -0.9807851 2.60559e-5 0.2798329 -0.9600487 -2.60638e-5 0.321443 -0.946929 0 0.2798274 -0.9600504 -2.60563e-5 0.4027605 -0.9153054 2.60457e-5 0.3624382 -0.9320079 0 0.40275 -0.9153101 -2.60669e-5 0.4809924 -0.8767248 2.60552e-5 0.4422848 -0.8968747 0 0.4809959 -0.8767228 2.60411e-5 0.5187733 -0.8549119 -2.60448e-5 0.555579 -0.8314638 0 0.5187724 -0.8549125 2.60047e-5 0.5913171 -0.8064393 -2.60206e-5 0.6259354 -0.779875 0 0.5913104 -0.8064441 2.59873e-5 0.6593514 -0.7518349 -2.60041e-5 0.6915055 -0.7223712 0 0.6593593 -0.7518281 0 0.6915091 -0.7223677 0 0.737278 -0.6755895 0 0.7372704 -0.6755979 0 0.7933531 -0.6087617 0 0.7933542 -0.6087603 0 0.8433969 -0.5372911 0 0.8433896 -0.5373027 0 0.8870145 -0.4617417 0 0.8870122 -0.461746 0 0.9238778 -0.3826876 0 0.9238792 -0.3826844 0 0.9537181 -0.3007023 0 0.9537189 -0.3006998 0 0.9762951 -0.2164436 0 0.9762982 -0.21643 0 0.991446 -0.1305184 0 0.991443 -0.1305411 0 0.9990482 -0.04362082 0 0.9990482 -0.04362094 0 0 -1 0 -0.02181422 -0.9997621 0 -0.1088656 -0.9940565 0 -0.1950914 -0.9807851 0 -0.2798259 -0.9600508 0 -0.4027528 -0.9153088 0 -0.4809973 -0.8767221 0 -0.518773 -0.8549121 0 -0.5913122 -0.8064429 0 -0.6915091 -0.7223677 0 -0.737278 -0.6755895 0 -0.7372704 -0.6755979 0 -0.7933531 -0.6087617 0 -0.7933542 -0.6087603 0 -0.8433969 -0.5372911 0 -0.8433896 -0.5373027 0 -0.8870145 -0.4617417 0 -0.8870122 -0.461746 0 -0.9238778 -0.3826876 0 -0.9238792 -0.3826844 0 -0.9537181 -0.3007023 0 -0.9537189 -0.3006998 0 -0.9762951 -0.2164436 0 -0.9762982 -0.21643 0 -0.991446 -0.1305184 0 -0.991443 -0.1305411 0 -0.9990482 -0.04362082 0 -0.9990482 -0.04362094 -2.59873e-5 -0.6593514 -0.7518349 2.60041e-5 -0.6915055 -0.7223712 0 -0.6593593 -0.7518281 2.60206e-5 -0.6259354 -0.779875 -2.60047e-5 -0.5913171 -0.8064393 0 -0.6259183 -0.7798887 2.60553e-5 -0.555579 -0.8314638 -2.60305e-5 -0.5187733 -0.8549119 0 -0.5555713 -0.8314689 -2.60552e-5 -0.4422848 -0.8968747 2.60669e-5 -0.4809924 -0.8767248 0 -0.4422873 -0.8968735 -2.60457e-5 -0.3624382 -0.9320079 2.60563e-5 -0.4027605 -0.9153054 0 -0.3624417 -0.9320065 2.60638e-5 -0.321443 -0.946929 -2.60559e-5 -0.2798329 -0.9600487 0 -0.3214358 -0.9469315 2.60489e-5 -0.2376891 -0.9713414 -2.60423e-5 -0.1950945 -0.9807845 0 -0.2376808 -0.9713433 2.60727e-5 -0.1521253 -0.9883612 -2.60686e-5 -0.1088631 -0.9940568 0 -0.1521263 -0.9883611 2.60732e-5 -0.06540858 -0.9978587 -2.60729e-5 -0.02181446 -0.9997621 0 -0.06540918 -0.9978585 0 -1 0 0 -1 4.89709e-6 0 -1 -3.48374e-6 0 -1 5.75091e-6 0 -1 -1.38456e-6 0 -1 4.95376e-6 0 -1 -6.23329e-6 0 -1 -5.84618e-6 0 -1 3.78122e-6 0 -1 -2.2394e-6 0 -1 1.28398e-5 0 -1 -1.79776e-5 0 -1 2.57053e-5 0 -1 -5.33646e-5 0 -1 1.40576e-5 0 -1 -4.62406e-6 0 -1 1.06686e-6 0 -1 -4.518e-6 0 -1 4.52078e-6 0 -1 -1.53518e-6 0 -1 1.49953e-6 0 -1 -1.71196e-7 0 -1 -1.70454e-5 0 -1 -4.6598e-6 0 -1 3.1001e-6 0 -1 -5.11082e-6 0 -1 5.56661e-6 0 -1 -1.11834e-5 0 -1 7.90976e-6 0 -1 1.26635e-7 0 -1 -4.5604e-6 0 -1 4.23933e-6 0 -1 -4.518e-6 0 -1 -2.56491e-6 0 -1 8.26489e-6 0 -1 1.84851e-7 0 -1 9.99469e-7 0 -1 1.24076e-5 0 -0.02181398 0.9997621 0 -0.02181428 0.9997621 0 -0.06540817 0.9978586 0 -0.06540882 0.9978586 0 -0.1088669 0.9940564 0 -0.1088637 0.9940568 0 -0.1521257 0.9883612 0 -0.1521244 0.9883614 0 -0.1950883 0.9807858 0 -0.1950943 0.9807845 0 -0.2376819 0.9713431 0 -0.2376806 0.9713433 0 -0.2798293 0.9600498 0 -0.2798233 0.9600515 0 -0.3214386 0.9469305 0 -0.3214388 0.9469304 0 -0.3624334 0.9320097 0 -0.3624418 0.9320065 0 -0.4027414 0.9153139 0 -0.4027526 0.9153088 0 -0.4422892 0.8968726 0 -0.4422731 0.8968805 0 -0.4809991 0.8767211 0 -0.481002 0.8767196 0 -0.518769 0.8549146 0 -0.5187763 0.85491 0 -0.5555748 0.8314666 0 -0.5555605 0.8314761 0 -0.5913128 0.8064423 0 -0.5913042 0.8064486 0 -0.6259309 0.7798785 0 -0.6259196 0.7798876 0 -0.6593608 0.7518268 0 -0.659338 0.7518468 0 -0.6915265 0.7223511 0 -0.6915125 0.7223646 0 -0.7372761 0.6755915 0 -0.7372782 0.6755893 0 -0.793357 0.6087568 0 -0.7933513 0.6087642 0 -0.8433929 0.5372974 0 -0.8433908 0.5373008 0 -0.8870159 0.461739 0 -0.8870099 0.4617505 0 -0.923878 0.3826872 0 -0.9238802 0.3826819 0 -0.9537183 0.3007017 0 -0.9537148 0.3007129 0 -0.9762939 0.2164492 0 -0.9762973 0.2164336 0 -0.9914457 0.1305201 0 -0.9914447 0.1305283 0 -0.9990482 0.04362106 0 -0.9990478 0.04363077 0 -0.02181386 0.9997621 0 -0.1088694 0.9940561 0 -0.2376846 0.9713425 0 -0.3214374 0.946931 0 -0.3624392 0.9320075 0 -0.4422919 0.8968713 0 -0.5187781 0.854909 0 -0.5913083 0.8064456 0 -0.6593443 0.7518412 0 -0.9990482 0.0436204 0 -0.9990484 0.04361534 0 -0.9914451 0.1305243 0 -0.9914442 0.1305316 0 -0.9762973 0.2164344 0 -0.9762969 0.2164362 0 -0.9537168 0.3007063 0 -0.9537184 0.3007013 0 -0.923878 0.3826873 0 -0.9238791 0.3826848 0 -0.8870089 0.4617523 0 -0.8870112 0.4617478 0 -0.8433896 0.5373026 0 -0.8433898 0.5373021 0 -0.7933517 0.6087636 0 -0.7933548 0.6087596 0 -0.7372798 0.6755876 0 -0.7372788 0.6755886 -5.24859e-5 -0.6915234 0.7223542 5.24156e-5 -0.659355 0.7518318 0 -0.6915123 0.7223648 -5.25491e-5 -0.6259305 0.779879 5.24867e-5 -0.5913233 0.8064346 0 -0.6259194 0.7798879 -5.25843e-5 -0.5555758 0.831466 5.25295e-5 -0.5187931 0.8548998 0 -0.5555669 0.831472 -5.26332e-5 -0.4809947 0.8767236 5.25851e-5 -0.4422998 0.8968674 0 -0.4809864 0.8767281 -5.26947e-5 -0.4027507 0.9153097 5.26438e-5 -0.3624441 0.9320055 0 -0.4027491 0.9153105 5.26735e-5 -0.2798338 0.9600485 -5.27059e-5 -0.3214469 0.9469277 0 -0.2798293 0.9600498 5.27269e-5 -0.1950944 0.9807845 -5.27497e-5 -0.2376884 0.9713415 0 -0.195091 0.9807851 -5.27417e-5 -0.152125 0.9883613 5.27286e-5 -0.1088715 0.9940558 0 -0.1521233 0.9883616 -5.27683e-5 -0.06540244 0.9978591 5.27639e-5 -0.02181458 0.9997621 0 -0.06540042 0.9978592 0 -1 -4.95376e-6 0 -1 -4.89709e-6 0 -1 2.65523e-6 0 -1 5.38991e-6 0 -1 -5.75091e-6 0 -1 1.67604e-6 0 -1 5.14869e-6 0 -1 -2.88196e-6 0 -1 -1.598e-6 0 -1 -5.38488e-6 0 -1 -2.09372e-6 0 -1 4.518e-6 0 -1 -4.52078e-6 0 -1 9.85013e-7 0 -1 6.23329e-6 0 -1 -8.54998e-6 0 -1 -1.10988e-6 0 -1 7.64524e-6 0 -1 -3.15e-6 0 -1 -8.26489e-6 0 -1 7.39072e-6 0 -1 -1.65626e-5 0 -1 -1.26635e-7 0 -1 4.5604e-6 0 -1 -3.88725e-6 0 -1 4.518e-6 0 -1 1.02055e-6 0 -1 7.39072e-6 0 -1 3.40125e-6 0 -1 -1.8276e-5 0 -1 2.73822e-5 0 -1 2.16063e-5 0 -0.02181386 -0.9997621 0 -0.0218141 -0.9997621 0 -0.06540077 -0.9978591 0 -0.06540137 -0.9978591 0 -0.10887 -0.994056 0 -0.1088681 -0.9940562 0 -0.1521247 -0.9883613 0 -0.1521221 -0.9883617 0 -0.195091 -0.9807853 0 -0.1950901 -0.9807854 0 -0.2376817 -0.9713431 0 -0.2376836 -0.9713426 0 -0.2798271 -0.9600504 0 -0.2798334 -0.9600487 0 -0.3214407 -0.9469298 0 -0.3214381 -0.9469306 0 -0.3624402 -0.932007 0 -0.3624372 -0.9320082 0 -0.4027503 -0.91531 0 -0.4027475 -0.9153111 0 -0.4422919 -0.8968712 0 -0.4422869 -0.8968737 0 -0.480984 -0.8767294 0 -0.4809897 -0.8767263 0 -0.5187774 -0.8549094 0 -0.5187748 -0.854911 0 -0.5555698 -0.83147 0 -0.5555685 -0.8314709 0 -0.5913112 -0.8064435 0 -0.5913082 -0.8064458 0 -0.6259253 -0.7798831 0 -0.6259267 -0.779882 0 -0.6593458 -0.7518399 0 -0.6593439 -0.7518416 0 -0.6915113 -0.7223656 0 -0.6915126 -0.7223645 0 -0.7372789 -0.6755885 0 -0.7372781 -0.6755895 0 -0.793354 -0.6087606 0 -0.7933544 -0.60876 0 -0.8433894 -0.537303 0 -0.8433917 -0.5372992 0 -0.8870108 -0.4617489 0 -0.8870109 -0.4617487 0 -0.9238786 -0.3826857 0 -0.9238796 -0.3826833 0 -0.9537166 -0.3007071 0 -0.953718 -0.3007025 0 -0.9762956 -0.2164419 0 -0.9762973 -0.2164342 0 -0.9914448 -0.1305268 0 -0.9914452 -0.1305238 0 -0.9990484 -0.04361623 0 -0.9990482 -0.04362094 0 0.9990482 -0.04362148 0 0.9990484 -0.04361623 0 0.9914452 -0.1305238 0 0.9914448 -0.1305268 0 0.9762973 -0.2164342 0 0.9762956 -0.2164419 0 0.953718 -0.3007025 0 0.9537166 -0.3007071 0 0.9238796 -0.3826833 0 0.9238786 -0.3826857 0 0.8870109 -0.4617487 0 0.8870108 -0.4617489 0 0.8433917 -0.5372992 0 0.8433894 -0.537303 0 0.7933544 -0.60876 0 0.793354 -0.6087606 0 0.7372781 -0.6755895 0 0.7372789 -0.6755885 0 0.6915126 -0.7223645 0 0.6915113 -0.7223656 0 0.6593439 -0.7518416 0 0.6593458 -0.7518399 0 0.6259267 -0.779882 0 0.6259253 -0.7798831 0 0.5913082 -0.8064458 0 0.5913112 -0.8064435 0 0.5555685 -0.8314709 0 0.5555698 -0.83147 0 0.5187748 -0.854911 0 0.5187774 -0.8549094 0 0.4809897 -0.8767263 0 0.480984 -0.8767294 0 0.4422869 -0.8968737 0 0.4422919 -0.8968712 0 0.4027475 -0.9153111 0 0.4027503 -0.91531 0 0.3624372 -0.9320082 0 0.1950901 -0.9807854 0 0.2376817 -0.9713431 0 0.2376836 -0.9713426 0 0.2798271 -0.9600504 0 0.2798334 -0.9600487 0 0.3214407 -0.9469298 0 0.3214381 -0.9469306 0 0.36244 -0.9320072 0 0.02181392 -0.9997621 0 0.0218141 -0.9997621 0 0.06540077 -0.9978591 0 0.06540137 -0.9978591 0 0.10887 -0.994056 0 0.1088681 -0.9940562 0 0.1521247 -0.9883613 0 0.1521221 -0.9883617 0 0.1950917 -0.9807851</float_array>
          <technique_common>
            <accessor source="#trapezoid__11-mesh-normals-array" count="1160" stride="3">
              <param name="X" type="float"/>
              <param name="Y" type="float"/>
              <param name="Z" type="float"/>
            </accessor>
          </technique_common>
        </source>
        <vertices id="trapezoid__11-mesh-vertices">
          <input semantic="POSITION" source="#trapezoid__11-mesh-positions"/>
        </vertices>
        <triangles count="1480">
          <input semantic="VERTEX" source="#trapezoid__11-mesh-vertices" offset="0"/>
          <input semantic="NORMAL" source="#trapezoid__11-mesh-normals" offset="1"/>
          <p>0 0 1 0 2 0 1 1 3 1 2 1 2 2 3 2 4 2 3 2 5 2 4 2 4 3 5 3 6 3 5 4 7 4 6 4 6 5 7 5 8 5 7 6 9 6 8 6 8 7 9 7 10 7 9 8 11 8 10 8 10 9 11 9 12 9 11 10 13 10 12 10 12 11 13 11 14 11 13 12 15 12 14 12 14 13 15 13 16 13 15 14 17 14 16 14 16 15 17 15 18 15 17 16 19 16 18 16 18 17 19 17 20 17 19 18 21 18 20 18 20 19 21 19 22 19 21 20 23 20 22 20 22 21 23 21 24 21 23 22 25 22 24 22 24 23 25 23 26 23 25 24 27 24 26 24 26 25 27 25 28 25 27 26 29 26 28 26 28 27 29 27 30 27 29 28 31 28 30 28 30 29 31 29 32 29 31 30 33 30 32 30 32 31 33 31 34 31 33 32 35 32 34 32 34 33 35 33 36 33 35 34 37 34 36 34 36 35 37 35 38 35 37 36 39 36 38 36 38 37 39 37 40 37 39 38 41 38 40 38 40 39 41 39 42 39 41 40 43 40 42 40 42 41 43 41 44 41 43 42 45 42 44 42 44 43 45 43 46 43 45 44 47 44 46 44 46 45 47 45 48 45 47 46 49 46 48 46 48 47 49 47 50 47 49 48 51 48 50 48 50 49 51 49 52 49 51 50 53 50 52 50 52 51 53 51 54 51 53 52 55 52 54 52 54 53 55 53 56 53 55 54 57 54 56 54 56 55 57 55 58 55 57 56 59 56 58 56 58 57 59 57 60 57 59 58 61 58 60 58 60 59 61 59 62 59 61 60 63 60 62 60 62 61 63 61 64 61 63 62 65 62 64 62 64 63 65 63 66 63 65 64 67 64 66 64 66 65 67 65 68 65 67 66 69 66 68 66 68 67 69 67 70 67 69 67 71 67 70 67 70 68 71 68 72 68 71 69 73 69 72 69 72 70 73 70 74 70 73 71 75 71 74 71 74 72 75 72 76 72 75 72 77 72 76 72 76 73 77 73 78 73 77 74 79 74 78 74 78 75 79 75 80 75 79 76 81 76 80 76 80 77 81 77 82 77 81 78 83 78 82 78 82 79 83 79 84 79 83 80 85 80 84 80 84 81 85 81 86 81 85 82 87 82 86 82 86 83 87 83 88 83 87 84 89 84 88 84 88 85 89 85 90 85 89 86 91 86 90 86 90 87 91 87 92 87 91 88 93 88 92 88 92 89 93 89 94 89 93 90 95 90 94 90 94 91 95 91 96 91 95 92 97 92 96 92 96 93 97 93 98 93 97 94 99 94 98 94 98 95 99 95 100 95 99 96 101 96 100 96 100 97 101 97 102 97 101 98 103 98 102 98 102 99 103 99 104 99 103 100 105 100 104 100 104 101 105 101 106 101 105 102 107 102 106 102 106 103 107 103 108 103 107 104 109 104 108 104 108 105 109 105 110 105 109 106 111 106 110 106 110 107 111 107 112 107 111 108 113 108 112 108 112 109 113 109 114 109 113 110 115 110 114 110 114 111 115 111 116 111 115 112 117 112 116 112 116 113 117 113 118 113 117 114 119 114 118 114 118 115 119 115 120 115 119 116 121 116 120 116 120 117 121 117 122 117 121 118 123 118 122 118 122 119 123 119 124 119 123 120 125 120 124 120 124 121 125 121 126 121 125 122 127 122 126 122 126 123 127 123 128 123 127 124 129 124 128 124 128 125 129 125 130 125 129 126 131 126 130 126 130 127 131 127 132 127 131 128 133 128 132 128 132 129 133 129 134 129 133 130 135 130 134 130 134 131 135 131 136 131 135 132 137 132 136 132 136 133 137 133 138 133 137 134 139 134 138 134 138 135 139 135 140 135 139 136 141 136 140 136 140 137 141 137 142 137 141 137 143 137 142 137 142 138 143 138 0 138 143 139 1 139 0 139 144 0 145 0 146 0 145 1 147 1 146 1 146 2 147 2 148 2 147 2 149 2 148 2 148 3 149 3 150 3 149 4 151 4 150 4 150 140 151 140 152 140 151 141 153 141 152 141 152 142 153 142 154 142 153 143 155 143 154 143 154 144 155 144 156 144 155 145 157 145 156 145 156 146 157 146 158 146 157 147 159 147 158 147 158 148 159 148 160 148 159 149 161 149 160 149 160 15 161 15 162 15 161 16 163 16 162 16 162 17 163 17 164 17 163 18 165 18 164 18 164 150 165 150 166 150 165 151 167 151 166 151 166 152 167 152 168 152 167 153 169 153 168 153 168 24 169 24 170 24 169 23 171 23 170 23 170 154 171 154 172 154 171 155 173 155 172 155 172 156 173 156 174 156 173 157 175 157 174 157 174 30 175 30 176 30 175 29 177 29 176 29 176 158 177 158 178 158 177 159 179 159 178 159 178 34 179 34 180 34 179 33 181 33 180 33 180 36 181 36 182 36 181 35 183 35 182 35 182 160 183 160 184 160 183 161 185 161 184 161 184 40 185 40 186 40 185 39 187 39 186 39 186 162 187 162 188 162 187 163 189 163 188 163 188 164 189 164 190 164 189 165 191 165 190 165 190 46 191 46 192 46 191 45 193 45 192 45 192 166 193 166 194 166 193 167 195 167 194 167 194 168 195 168 196 168 195 169 197 169 196 169 196 51 197 51 198 51 197 52 199 52 198 52 198 53 199 53 200 53 199 54 201 54 200 54 200 170 201 170 202 170 201 171 203 171 202 171 202 172 203 172 204 172 203 173 205 173 204 173 204 174 205 174 206 174 205 175 207 175 206 175 206 176 207 176 208 176 207 177 209 177 208 177 208 178 209 178 210 178 209 179 211 179 210 179 210 65 211 65 212 65 211 66 213 66 212 66 212 67 213 67 214 67 213 67 215 67 214 67 214 68 215 68 216 68 215 69 217 69 216 69 216 70 217 70 218 70 217 71 219 71 218 71 218 72 219 72 220 72 219 72 221 72 220 72 220 73 221 73 222 73 221 74 223 74 222 74 222 180 223 180 224 180 223 181 225 181 224 181 224 182 225 182 226 182 225 183 227 183 226 183 226 184 227 184 228 184 227 185 229 185 228 185 228 186 229 186 230 186 229 187 231 187 230 187 230 188 231 188 232 188 231 189 233 189 232 189 232 85 233 85 234 85 233 86 235 86 234 86 234 87 235 87 236 87 235 88 237 88 236 88 236 190 237 190 238 190 237 191 239 191 238 191 238 192 239 192 240 192 239 193 241 193 240 193 240 94 241 94 242 94 241 93 243 93 242 93 242 194 243 194 244 194 243 195 245 195 244 195 244 196 245 196 246 196 245 197 247 197 246 197 246 100 247 100 248 100 247 99 249 99 248 99 248 198 249 198 250 198 249 199 251 199 250 199 250 104 251 104 252 104 251 103 253 103 252 103 252 106 253 106 254 106 253 105 255 105 254 105 254 200 255 200 256 200 255 201 257 201 256 201 256 110 257 110 258 110 257 109 259 109 258 109 258 202 259 202 260 202 259 203 261 203 260 203 260 204 261 204 262 204 261 205 263 205 262 205 262 116 263 116 264 116 263 115 265 115 264 115 264 206 265 206 266 206 265 207 267 207 266 207 266 208 267 208 268 208 267 209 269 209 268 209 268 121 269 121 270 121 269 122 271 122 270 122 270 123 271 123 272 123 271 124 273 124 272 124 272 210 273 210 274 210 273 211 275 211 274 211 274 212 275 212 276 212 275 213 277 213 276 213 276 214 277 214 278 214 277 215 279 215 278 215 278 216 279 216 280 216 279 217 281 217 280 217 280 218 281 218 282 218 281 219 283 219 282 219 282 135 283 135 284 135 283 136 285 136 284 136 284 137 285 137 286 137 285 137 287 137 286 137 286 138 287 138 144 138 287 139 145 139 144 139 288 220 289 220 290 220 288 221 290 221 291 221 290 222 292 222 291 222 292 223 293 223 291 223 291 224 293 224 294 224 293 225 295 225 294 225 293 226 296 226 295 226 296 227 297 227 295 227 295 228 297 228 298 228 297 229 299 229 298 229 297 230 300 230 299 230 300 231 301 231 299 231 299 232 301 232 302 232 301 233 303 233 302 233 301 234 304 234 303 234 304 235 305 235 303 235 303 236 305 236 306 236 305 237 307 237 306 237 305 238 308 238 307 238 308 239 309 239 307 239 307 240 309 240 310 240 309 241 311 241 310 241 309 242 312 242 311 242 312 243 313 243 311 243 311 244 313 244 314 244 313 245 315 245 314 245 313 246 316 246 315 246 316 247 317 247 315 247 315 248 317 248 318 248 317 249 319 249 318 249 320 250 321 250 322 250 317 251 323 251 319 251 323 252 320 252 319 252 319 253 320 253 324 253 320 254 322 254 324 254 321 255 325 255 322 255 325 256 326 256 322 256 322 257 326 257 327 257 326 258 328 258 327 258 327 259 328 259 329 259 328 260 330 260 329 260 329 261 330 261 331 261 330 262 332 262 331 262 331 263 332 263 333 263 332 264 334 264 333 264 333 265 334 265 335 265 334 266 336 266 335 266 335 267 336 267 337 267 336 268 338 268 337 268 337 269 338 269 339 269 338 270 340 270 339 270 339 271 340 271 341 271 340 272 342 272 341 272 341 273 342 273 343 273 115 274 343 274 117 274 343 275 119 275 117 275 33 276 31 276 342 276 125 277 343 277 127 277 343 278 129 278 127 278 125 274 123 274 343 274 123 279 121 279 343 279 343 280 121 280 119 280 31 274 29 274 342 274 29 281 27 281 342 281 342 280 27 280 25 280 25 279 23 279 342 279 23 274 21 274 342 274 342 282 21 282 19 282 342 283 13 283 11 283 55 284 53 284 344 284 19 285 17 285 342 285 17 286 15 286 342 286 342 287 15 287 13 287 141 288 139 288 343 288 139 274 137 274 343 274 343 289 137 289 135 289 135 274 133 274 343 274 133 290 131 290 343 290 343 291 131 291 129 291 109 292 345 292 111 292 345 293 343 293 111 293 111 274 343 274 113 274 343 294 115 294 113 294 109 295 107 295 345 295 107 296 105 296 345 296 345 297 105 297 103 297 11 274 9 274 342 274 9 274 7 274 342 274 342 298 7 298 5 298 5 299 3 299 342 299 3 274 1 274 342 274 342 274 1 274 343 274 1 274 143 274 343 274 343 300 143 300 141 300 103 274 101 274 345 274 101 274 99 274 345 274 345 301 99 301 97 301 91 274 89 274 345 274 89 274 87 274 345 274 345 302 87 302 85 302 79 274 77 274 345 274 53 303 51 303 344 303 51 304 49 304 344 304 344 301 49 301 47 301 47 274 45 274 344 274 45 274 43 274 344 274 344 297 43 297 41 297 41 305 39 305 344 305 39 295 37 295 344 295 344 274 37 274 342 274 37 274 35 274 342 274 342 306 35 306 33 306 69 274 67 274 344 274 97 304 95 304 345 304 95 303 93 303 345 303 345 307 93 307 91 307 85 274 83 274 345 274 83 274 81 274 345 274 345 308 81 308 79 308 61 309 59 309 344 309 59 274 57 274 344 274 344 310 57 310 55 310 77 274 75 274 345 274 75 274 73 274 345 274 345 274 73 274 344 274 73 274 71 274 344 274 344 311 71 311 69 311 67 274 65 274 344 274 65 274 63 274 344 274 344 312 63 312 61 312 169 313 167 313 346 313 259 274 347 274 261 274 347 314 263 314 261 314 269 315 347 315 271 315 347 316 273 316 271 316 269 317 267 317 347 317 267 313 265 313 347 313 347 318 265 318 263 318 177 319 175 319 346 319 175 274 173 274 346 274 173 274 171 274 346 274 346 318 171 318 169 318 167 317 165 317 346 317 165 315 163 315 346 315 346 316 163 316 161 316 161 274 159 274 346 274 159 320 157 320 346 320 346 321 157 321 155 321 155 322 153 322 346 322 153 274 151 274 346 274 346 323 151 323 149 323 285 274 283 274 347 274 283 274 281 274 347 274 347 324 281 324 279 324 279 274 277 274 347 274 277 320 275 320 347 320 347 325 275 325 273 325 253 326 348 326 255 326 348 327 347 327 255 327 255 274 347 274 257 274 347 328 259 328 257 328 253 329 251 329 348 329 251 330 249 330 348 330 348 331 249 331 247 331 247 332 245 332 348 332 245 274 243 274 348 274 348 333 243 333 241 333 199 334 197 334 349 334 149 274 147 274 346 274 147 274 145 274 346 274 346 274 145 274 347 274 145 274 287 274 347 274 347 335 287 335 285 335 191 274 189 274 349 274 189 332 187 332 349 332 349 331 187 331 185 331 185 336 183 336 349 336 183 329 181 329 349 329 349 274 181 274 346 274 181 274 179 274 346 274 346 337 179 337 177 337 241 338 239 338 348 338 239 274 237 274 348 274 348 339 237 339 235 339 235 274 233 274 348 274 233 274 231 274 348 274 348 340 231 340 229 340 223 341 221 341 348 341 197 274 195 274 349 274 195 338 193 338 349 338 349 333 193 333 191 333 213 341 211 341 349 341 229 274 227 274 348 274 227 274 225 274 348 274 348 342 225 342 223 342 205 274 203 274 349 274 203 274 201 274 349 274 349 343 201 343 199 343 211 344 209 344 349 344 209 274 207 274 349 274 349 345 207 345 205 345 221 346 219 346 348 346 219 347 217 347 348 347 348 274 217 274 349 274 217 347 215 347 349 347 349 348 215 348 213 348 350 349 351 349 352 349 350 350 352 350 353 350 352 351 354 351 353 351 353 352 354 352 355 352 354 353 356 353 355 353 355 354 356 354 357 354 356 355 358 355 357 355 357 356 358 356 359 356 358 357 360 357 359 357 359 358 360 358 361 358 360 359 362 359 361 359 361 360 362 360 363 360 362 361 364 361 363 361 363 362 364 362 365 362 364 363 366 363 365 363 365 364 366 364 367 364 366 365 368 365 367 365 367 366 368 366 369 366 368 367 370 367 369 367 369 368 370 368 371 368 370 369 372 369 371 369 371 370 372 370 373 370 372 371 374 371 373 371 373 372 374 372 375 372 374 373 376 373 375 373 375 374 376 374 377 374 376 375 378 375 377 375 377 376 378 376 379 376 378 377 348 377 379 377 379 378 348 378 349 378 351 379 350 379 380 379 350 380 381 380 380 380 380 381 381 381 382 381 381 382 383 382 382 382 382 383 383 383 384 383 383 384 385 384 384 384 384 385 385 385 386 385 387 386 388 386 389 386 388 387 386 387 389 387 389 388 386 388 390 388 386 389 385 389 390 389 391 390 392 390 393 390 392 391 394 391 393 391 393 392 394 392 395 392 394 393 396 393 395 393 395 394 396 394 397 394 396 395 398 395 397 395 397 396 398 396 399 396 398 397 400 397 399 397 399 398 400 398 401 398 400 399 402 399 401 399 401 400 402 400 387 400 402 401 403 401 387 401 387 402 403 402 388 402 404 403 405 403 391 403 405 403 392 403 391 403 289 403 406 403 290 403 406 403 407 403 290 403 408 404 409 404 410 404 411 405 412 405 413 405 413 406 412 406 414 406 412 407 415 407 414 407 414 408 415 408 416 408 415 409 417 409 416 409 416 410 417 410 418 410 417 411 419 411 418 411 418 412 419 412 420 412 419 413 421 413 420 413 420 414 421 414 422 414 421 415 404 415 422 415 422 416 404 416 423 416 404 416 391 416 423 416 423 414 391 414 424 414 391 415 393 415 424 415 424 417 393 417 425 417 393 418 395 418 425 418 425 419 395 419 426 419 395 420 397 420 426 420 426 421 397 421 427 421 397 422 399 422 427 422 427 423 399 423 428 423 399 424 401 424 428 424 428 425 401 425 429 425 401 426 387 426 429 426 429 426 387 426 430 426 387 427 389 427 430 427 430 428 389 428 431 428 432 429 304 429 433 429 304 430 301 430 433 430 433 431 301 431 434 431 301 432 300 432 434 432 434 433 300 433 435 433 300 434 297 434 435 434 435 435 297 435 436 435 297 436 296 436 436 436 436 437 296 437 437 437 296 438 293 438 437 438 437 439 293 439 438 439 293 440 292 440 438 440 438 441 292 441 439 441 292 414 290 414 439 414 439 442 290 442 440 442 290 442 407 442 440 442 440 415 407 415 441 415 407 443 442 443 441 443 441 444 442 444 443 444 442 434 444 434 443 434 443 445 444 445 445 445 444 446 446 446 445 446 445 447 446 447 447 447 446 448 448 448 447 448 447 449 448 449 449 449 448 450 450 450 449 450 449 451 450 451 451 451 431 452 389 452 452 452 389 453 390 453 452 453 452 454 390 454 453 454 390 455 385 455 453 455 453 456 385 456 454 456 385 457 383 457 454 457 454 458 383 458 455 458 383 459 381 459 455 459 455 460 381 460 456 460 381 461 350 461 456 461 456 452 350 452 457 452 350 462 353 462 457 462 457 463 353 463 458 463 353 464 355 464 458 464 458 465 355 465 459 465 355 466 357 466 459 466 459 452 357 452 460 452 357 467 359 467 460 467 460 468 359 468 461 468 359 469 361 469 461 469 461 470 361 470 462 470 361 471 363 471 462 471 363 472 365 472 462 472 462 473 365 473 463 473 365 474 367 474 463 474 463 475 367 475 464 475 367 476 369 476 464 476 464 477 369 477 465 477 369 478 371 478 465 478 465 479 371 479 466 479 371 480 373 480 466 480 466 481 373 481 467 481 373 482 375 482 467 482 467 483 375 483 468 483 375 484 377 484 468 484 468 485 377 485 469 485 377 486 379 486 469 486 469 487 379 487 470 487 379 488 349 488 470 488 470 406 349 406 471 406 349 489 346 489 471 489 471 195 346 195 472 195 346 490 473 490 472 490 472 491 473 491 474 491 473 492 475 492 474 492 474 493 475 493 476 493 475 494 477 494 476 494 476 495 477 495 478 495 477 496 479 496 478 496 478 497 479 497 480 497 479 498 481 498 480 498 480 499 481 499 482 499 481 500 483 500 482 500 482 404 483 404 484 404 483 501 485 501 484 501 484 502 485 502 486 502 410 503 409 503 487 503 409 504 488 504 487 504 487 505 488 505 489 505 488 497 490 497 489 497 489 498 490 498 491 498 490 506 492 506 491 506 491 507 492 507 493 507 492 508 494 508 493 508 493 509 494 509 495 509 494 510 496 510 495 510 495 473 496 473 497 473 496 511 498 511 497 511 497 512 498 512 499 512 498 195 344 195 499 195 499 489 344 489 500 489 344 406 342 406 500 406 500 488 342 488 501 488 342 487 340 487 501 487 501 513 340 513 502 513 340 514 338 514 502 514 502 515 338 515 503 515 338 516 336 516 503 516 503 517 336 517 504 517 336 518 334 518 504 518 504 486 334 486 505 486 334 519 332 519 505 519 505 474 332 474 506 474 332 520 330 520 506 520 506 521 330 521 507 521 330 501 328 501 507 501 507 501 328 501 508 501 328 504 326 504 508 504 508 522 326 522 509 522 413 421 510 421 411 421 510 426 511 426 411 426 411 523 511 523 512 523 511 524 513 524 512 524 512 525 513 525 514 525 513 526 515 526 514 526 514 527 515 527 516 527 515 528 517 528 516 528 516 529 517 529 518 529 517 433 519 433 518 433 518 435 519 435 520 435 519 530 521 530 520 530 520 531 521 531 522 531 521 532 523 532 522 532 522 533 523 533 524 533 523 534 525 534 524 534 524 535 525 535 526 535 525 536 527 536 526 536 526 537 527 537 528 537 527 538 529 538 528 538 528 539 529 539 530 539 529 540 531 540 530 540 530 541 531 541 532 541 531 542 533 542 532 542 532 543 533 543 534 543 533 544 408 544 534 544 534 545 408 545 535 545 408 546 410 546 535 546 509 547 326 547 536 547 326 548 325 548 536 548 536 549 325 549 537 549 325 550 321 550 537 550 537 551 321 551 538 551 321 552 320 552 538 552 538 553 320 553 539 553 320 554 323 554 539 554 539 555 323 555 540 555 323 556 317 556 540 556 540 557 317 557 541 557 317 558 316 558 541 558 541 559 316 559 542 559 316 452 313 452 542 452 542 560 313 560 543 560 313 561 312 561 543 561 543 457 312 457 544 457 312 562 309 562 544 562 544 563 309 563 545 563 309 564 308 564 545 564 545 565 308 565 432 565 308 566 305 566 432 566 432 567 305 567 304 567 450 421 546 421 451 421 546 430 547 430 451 430 451 429 547 429 548 429 547 426 549 426 548 426 548 435 549 435 550 435 549 437 551 437 550 437 550 568 551 568 552 568 551 569 553 569 552 569 552 435 553 435 554 435 553 570 555 570 554 570 554 571 555 571 556 571 555 572 557 572 556 572 556 573 557 573 558 573 557 534 559 534 558 534 558 574 559 574 560 574 559 575 561 575 560 575 560 576 561 576 562 576 561 536 563 536 562 536 562 577 563 577 564 577 563 572 565 572 564 572 564 578 565 578 566 578 565 540 567 540 566 540 566 541 567 541 568 541 567 579 569 579 568 579 568 580 569 580 570 580 569 581 486 581 570 581 570 522 486 522 571 522 486 582 485 582 571 582 327 583 329 583 572 583 573 584 574 584 366 584 575 585 576 585 577 585 576 586 578 586 577 586 577 587 578 587 579 587 578 588 580 588 579 588 579 589 580 589 581 589 580 590 582 590 581 590 581 591 582 591 583 591 582 592 584 592 583 592 583 593 584 593 585 593 584 594 586 594 585 594 585 595 586 595 587 595 586 596 588 596 587 596 587 597 588 597 589 597 588 598 406 598 589 598 589 599 406 599 590 599 406 599 289 599 590 599 590 600 289 600 591 600 289 601 288 601 591 601 591 602 288 602 592 602 288 590 291 590 592 590 592 603 291 603 593 603 291 604 294 604 593 604 593 605 294 605 594 605 294 606 295 606 594 606 594 607 295 607 595 607 295 608 298 608 595 608 595 609 298 609 596 609 597 610 598 610 599 610 598 611 600 611 599 611 599 611 600 611 601 611 600 612 602 612 601 612 601 613 602 613 603 613 602 614 604 614 603 614 603 615 604 615 605 615 604 616 606 616 605 616 605 617 606 617 607 617 606 618 608 618 607 618 607 619 608 619 609 619 608 620 610 620 609 620 609 600 610 600 405 600 610 598 611 598 405 598 405 621 611 621 392 621 611 621 612 621 392 621 392 600 612 600 394 600 612 598 613 598 394 598 394 622 613 622 396 622 613 623 614 623 396 623 396 619 614 619 398 619 614 624 615 624 398 624 398 625 615 625 400 625 615 626 616 626 400 626 400 627 616 627 402 627 616 628 617 628 402 628 402 629 617 629 403 629 572 630 329 630 618 630 329 631 331 631 618 631 618 632 331 632 619 632 331 633 333 633 619 633 619 634 333 634 620 634 333 635 335 635 620 635 620 636 335 636 621 636 335 637 337 637 621 637 621 638 337 638 622 638 337 639 339 639 622 639 622 640 339 640 623 640 339 641 341 641 623 641 623 642 341 642 624 642 341 43 343 43 624 43 624 643 343 643 625 643 343 644 345 644 625 644 625 624 345 624 626 624 345 645 627 645 626 645 626 646 627 646 628 646 627 647 629 647 628 647 628 648 629 648 630 648 629 649 631 649 630 649 630 650 631 650 632 650 631 651 633 651 632 651 632 652 633 652 634 652 633 653 635 653 634 653 634 654 635 654 636 654 635 655 637 655 636 655 636 656 637 656 638 656 637 657 639 657 638 657 638 658 639 658 640 658 639 659 641 659 640 659 640 660 641 660 642 660 366 661 574 661 368 661 574 662 643 662 368 662 368 663 643 663 370 663 643 664 644 664 370 664 370 634 644 634 372 634 644 665 645 665 372 665 372 666 645 666 374 666 645 667 646 667 374 667 374 668 646 668 376 668 646 669 647 669 376 669 376 659 647 659 378 659 647 670 648 670 378 670 378 642 648 642 348 642 648 43 649 43 348 43 348 643 649 643 347 643 649 644 650 644 347 644 347 624 650 624 651 624 650 645 652 645 651 645 651 671 652 671 653 671 652 672 654 672 653 672 653 673 654 673 655 673 654 674 656 674 655 674 655 675 656 675 657 675 656 676 658 676 657 676 657 677 658 677 659 677 658 678 660 678 659 678 659 658 660 658 661 658 660 679 662 679 661 679 661 680 662 680 663 680 662 681 664 681 663 681 663 681 664 681 665 681 664 662 666 662 665 662 665 682 666 682 667 682 298 683 299 683 596 683 299 586 302 586 596 586 596 585 302 585 668 585 302 611 303 611 668 611 668 591 303 591 669 591 303 593 306 593 669 593 669 684 306 684 670 684 306 685 307 685 670 685 670 591 307 591 671 591 307 686 310 686 671 686 671 687 310 687 672 687 310 688 311 688 672 688 672 689 311 689 673 689 311 690 314 690 673 690 673 691 314 691 674 691 314 692 315 692 674 692 674 693 315 693 675 693 315 694 318 694 675 694 675 695 318 695 676 695 318 688 319 688 676 688 676 696 319 696 677 696 319 697 324 697 677 697 677 698 324 698 678 698 324 699 322 699 678 699 678 700 322 700 679 700 322 701 327 701 679 701 679 682 327 682 680 682 327 702 572 702 680 702 667 703 666 703 681 703 666 704 682 704 681 704 681 705 682 705 683 705 682 706 684 706 683 706 683 707 684 707 685 707 684 708 686 708 685 708 685 709 686 709 687 709 686 710 688 710 687 710 687 711 688 711 689 711 688 712 690 712 689 712 689 713 690 713 691 713 690 714 692 714 691 714 691 715 692 715 693 715 692 716 694 716 693 716 693 717 694 717 695 717 694 718 696 718 695 718 695 719 696 719 697 719 696 720 698 720 697 720 697 721 698 721 699 721 698 722 700 722 699 722 699 723 700 723 575 723 700 724 701 724 575 724 575 725 701 725 576 725 642 726 641 726 702 726 641 727 703 727 702 727 702 728 703 728 704 728 703 729 705 729 704 729 704 730 705 730 706 730 705 716 707 716 706 716 706 731 707 731 708 731 707 732 709 732 708 732 708 733 709 733 710 733 709 734 711 734 710 734 710 735 711 735 712 735 711 716 713 716 712 716 712 736 713 736 714 736 713 737 715 737 714 737 714 709 715 709 716 709 715 738 717 738 716 738 716 719 717 719 718 719 717 739 719 739 718 739 718 740 719 740 720 740 719 741 721 741 720 741 720 742 721 742 597 742 721 743 722 743 597 743 597 744 722 744 598 744 617 683 723 683 403 683 723 611 724 611 403 611 403 745 724 745 388 745 724 746 725 746 388 746 388 747 725 747 386 747 725 748 726 748 386 748 386 749 726 749 384 749 726 750 727 750 384 750 384 751 727 751 382 751 727 589 728 589 382 589 382 591 728 591 380 591 728 752 729 752 380 752 380 753 729 753 351 753 729 754 730 754 351 754 351 755 730 755 352 755 730 690 731 690 352 690 352 756 731 756 354 756 731 694 732 694 354 694 354 757 732 757 356 757 732 758 733 758 356 758 356 759 733 759 358 759 733 697 734 697 358 697 358 698 734 698 360 698 734 760 735 760 360 760 360 761 735 761 362 761 735 762 573 762 362 762 362 763 573 763 364 763 573 764 366 764 364 764 564 765 566 765 683 765 560 766 562 766 687 766 693 767 695 767 554 767 697 768 699 768 550 768 550 769 699 769 548 769 449 770 451 770 577 770 445 771 447 771 581 771 441 772 443 772 585 772 441 773 585 773 440 773 585 774 587 774 440 774 440 775 587 775 589 775 445 776 581 776 443 776 581 777 583 777 443 777 443 778 583 778 585 778 449 779 577 779 447 779 577 780 579 780 447 780 447 781 579 781 581 781 548 782 699 782 451 782 699 783 575 783 451 783 451 784 575 784 577 784 697 785 550 785 695 785 550 786 552 786 695 786 695 787 552 787 554 787 693 788 554 788 691 788 554 789 556 789 691 789 691 790 556 790 558 790 560 791 687 791 558 791 687 792 689 792 558 792 558 793 689 793 691 793 564 794 683 794 562 794 683 795 685 795 562 795 562 796 685 796 687 796 568 797 667 797 566 797 667 798 681 798 566 798 566 799 681 799 683 799 568 800 570 800 667 800 570 801 571 801 667 801 667 802 571 802 665 802 571 803 485 803 665 803 665 804 485 804 663 804 485 805 483 805 663 805 663 806 483 806 661 806 483 807 481 807 661 807 661 808 481 808 659 808 481 809 479 809 659 809 659 810 479 810 657 810 479 811 477 811 657 811 657 812 477 812 655 812 477 813 475 813 655 813 655 814 475 814 653 814 475 815 473 815 653 815 653 816 473 816 651 816 473 817 346 817 651 817 651 818 346 818 347 818 440 819 589 819 439 819 589 819 590 819 439 819 438 820 439 820 590 820 436 821 437 821 592 821 434 822 435 822 594 822 432 823 433 823 596 823 670 824 671 824 543 824 672 825 673 825 541 825 541 826 673 826 540 826 538 827 539 827 675 827 678 828 679 828 509 828 679 829 680 829 509 829 509 830 680 830 508 830 680 831 572 831 508 831 508 832 572 832 507 832 572 833 618 833 507 833 507 834 618 834 506 834 618 835 619 835 506 835 506 836 619 836 505 836 619 837 620 837 505 837 505 838 620 838 504 838 620 839 621 839 504 839 504 840 621 840 503 840 621 841 622 841 503 841 503 842 622 842 502 842 622 843 623 843 502 843 502 844 623 844 501 844 623 845 624 845 501 845 501 846 624 846 500 846 678 847 509 847 677 847 509 848 536 848 677 848 677 849 536 849 537 849 538 850 675 850 537 850 675 851 676 851 537 851 537 852 676 852 677 852 540 853 673 853 539 853 673 854 674 854 539 854 539 855 674 855 675 855 672 856 541 856 671 856 541 857 542 857 671 857 671 858 542 858 543 858 670 859 543 859 669 859 543 860 544 860 669 860 669 861 544 861 545 861 432 862 596 862 545 862 596 863 668 863 545 863 545 864 668 864 669 864 434 865 594 865 433 865 594 866 595 866 433 866 433 867 595 867 596 867 436 868 592 868 435 868 592 869 593 869 435 869 435 870 593 870 594 870 438 871 590 871 437 871 590 872 591 872 437 872 437 873 591 873 592 873 44 874 46 874 499 874 46 875 48 875 499 875 499 876 48 876 50 876 50 874 52 874 499 874 52 877 54 877 499 877 499 878 54 878 56 878 112 879 114 879 624 879 114 874 116 874 624 874 16 874 18 874 500 874 16 874 500 874 14 874 18 880 20 880 500 880 20 881 22 881 500 881 500 882 22 882 24 882 24 874 26 874 500 874 26 874 28 874 500 874 500 883 28 883 30 883 62 874 64 874 499 874 64 884 66 884 499 884 499 885 66 885 68 885 68 886 70 886 499 886 70 887 72 887 499 887 499 874 72 874 625 874 72 887 74 887 625 887 625 888 74 888 76 888 82 874 84 874 625 874 84 874 86 874 625 874 98 874 100 874 625 874 100 889 102 889 625 889 625 890 102 890 104 890 104 891 106 891 625 891 106 892 108 892 625 892 625 874 108 874 624 874 108 874 110 874 624 874 624 893 110 893 112 893 116 874 118 874 624 874 118 874 120 874 624 874 624 882 120 882 122 882 122 881 124 881 624 881 124 880 126 880 624 880 624 894 126 894 128 894 56 874 58 874 499 874 58 874 60 874 499 874 499 895 60 895 62 895 76 896 78 896 625 896 78 884 80 884 625 884 625 897 80 897 82 897 86 874 88 874 625 874 88 874 90 874 625 874 625 898 90 898 92 898 92 874 94 874 625 874 94 899 96 899 625 899 625 900 96 900 98 900 6 874 8 874 500 874 6 874 500 874 4 874 8 901 10 901 500 901 10 874 12 874 500 874 500 902 12 902 14 902 30 879 32 879 500 879 32 874 34 874 500 874 500 903 34 903 499 903 34 904 36 904 499 904 499 905 36 905 38 905 38 906 40 906 499 906 40 874 42 874 499 874 499 907 42 907 44 907 128 874 130 874 624 874 130 908 132 908 624 908 624 909 132 909 134 909 134 901 136 901 624 901 136 874 138 874 624 874 624 910 138 910 140 910 140 874 142 874 624 874 142 874 0 874 624 874 624 874 0 874 500 874 0 874 2 874 500 874 500 911 2 911 4 911 405 912 404 912 421 912 405 913 421 913 609 913 421 914 419 914 609 914 609 915 419 915 607 915 419 916 417 916 607 916 607 917 417 917 605 917 417 918 415 918 605 918 605 919 415 919 603 919 415 920 412 920 603 920 603 921 412 921 601 921 412 922 411 922 601 922 601 923 411 923 599 923 599 924 411 924 597 924 411 925 512 925 597 925 597 926 512 926 720 926 512 927 514 927 720 927 514 928 516 928 720 928 720 929 516 929 718 929 516 930 518 930 718 930 718 931 518 931 716 931 518 932 520 932 716 932 716 933 520 933 714 933 520 934 522 934 714 934 714 935 522 935 712 935 522 936 524 936 712 936 712 937 524 937 710 937 524 938 526 938 710 938 710 939 526 939 708 939 708 940 526 940 706 940 526 941 528 941 706 941 706 942 528 942 704 942 528 943 530 943 704 943 704 944 530 944 702 944 530 945 532 945 702 945 702 946 532 946 642 946 532 947 534 947 642 947 534 948 535 948 642 948 642 949 535 949 640 949 535 950 410 950 640 950 640 951 410 951 638 951 410 952 487 952 638 952 638 953 487 953 636 953 487 954 489 954 636 954 636 955 489 955 634 955 489 956 491 956 634 956 634 957 491 957 632 957 491 958 493 958 632 958 632 959 493 959 630 959 493 960 495 960 630 960 630 961 495 961 628 961 495 962 497 962 628 962 628 963 497 963 626 963 497 964 499 964 626 964 626 965 499 965 625 965 442 966 407 966 406 966 446 967 444 967 586 967 580 968 578 968 546 968 576 969 701 969 549 969 549 970 701 970 551 970 555 971 553 971 698 971 559 972 557 972 694 972 563 973 561 973 690 973 567 974 565 974 686 974 650 975 471 975 472 975 650 976 472 976 652 976 472 977 474 977 652 977 652 978 474 978 654 978 474 979 476 979 654 979 654 980 476 980 656 980 476 981 478 981 656 981 656 982 478 982 658 982 478 983 480 983 658 983 658 984 480 984 660 984 480 985 482 985 660 985 660 986 482 986 662 986 482 987 484 987 662 987 662 988 484 988 664 988 484 989 486 989 664 989 664 990 486 990 666 990 486 991 569 991 666 991 666 992 569 992 682 992 567 993 686 993 569 993 686 994 684 994 569 994 569 995 684 995 682 995 563 996 690 996 565 996 690 997 688 997 565 997 565 998 688 998 686 998 559 999 694 999 561 999 694 1000 692 1000 561 1000 561 1001 692 1001 690 1001 555 1002 698 1002 557 1002 698 1003 696 1003 557 1003 557 1004 696 1004 694 1004 551 1005 701 1005 553 1005 701 1006 700 1006 553 1006 553 1007 700 1007 698 1007 576 1008 549 1008 578 1008 549 1009 547 1009 578 1009 578 1010 547 1010 546 1010 580 1011 546 1011 582 1011 546 1012 450 1012 582 1012 582 1013 450 1013 448 1013 446 1014 586 1014 448 1014 586 1015 584 1015 448 1015 448 1016 584 1016 582 1016 442 1017 406 1017 444 1017 406 1018 588 1018 444 1018 444 1019 588 1019 586 1019 256 1020 258 1020 650 1020 258 874 260 874 650 874 188 874 190 874 470 874 190 1021 192 1021 470 1021 470 1022 192 1022 194 1022 194 1023 196 1023 470 1023 196 1024 198 1024 470 1024 470 1025 198 1025 200 1025 260 1026 262 1026 650 1026 262 874 264 874 650 874 650 1027 264 1027 266 1027 206 874 208 874 470 874 208 874 210 874 470 874 470 1028 210 1028 212 1028 212 874 214 874 470 874 214 874 216 874 470 874 470 874 216 874 649 874 649 1029 240 1029 242 1029 242 874 244 874 649 874 244 874 246 874 649 874 649 1030 246 1030 248 1030 248 1031 250 1031 649 1031 250 1032 252 1032 649 1032 649 874 252 874 650 874 252 874 254 874 650 874 650 1033 254 1033 256 1033 266 874 268 874 650 874 268 1034 270 1034 650 1034 650 1035 270 1035 272 1035 162 1034 164 1034 471 1034 164 874 166 874 471 874 471 1027 166 1027 168 1027 168 874 170 874 471 874 170 1026 172 1026 471 1026 471 1036 172 1036 174 1036 200 874 202 874 470 874 202 1037 204 1037 470 1037 470 1038 204 1038 206 1038 156 1039 158 1039 471 1039 158 1040 160 1040 471 1040 471 1035 160 1035 162 1035 216 874 218 874 649 874 218 874 220 874 649 874 649 1028 220 1028 222 1028 228 1037 230 1037 649 1037 230 874 232 874 649 874 649 1025 232 1025 234 1025 234 1024 236 1024 649 1024 236 1023 238 1023 649 1023 649 1022 238 1022 240 1022 278 874 280 874 650 874 280 874 282 874 650 874 650 1041 282 1041 284 1041 174 1020 176 1020 471 1020 176 874 178 874 471 874 471 1042 178 1042 470 1042 178 1043 180 1043 470 1043 470 1044 180 1044 182 1044 182 1045 184 1045 470 1045 184 874 186 874 470 874 470 1046 186 1046 188 1046 222 874 224 874 649 874 224 874 226 874 649 874 649 1038 226 1038 228 1038 272 1047 274 1047 650 1047 274 1039 276 1039 650 1039 650 1048 276 1048 278 1048 148 1049 150 1049 471 1049 150 874 152 874 471 874 152 874 154 874 471 874 471 1048 154 1048 156 1048 284 1050 286 1050 650 1050 286 874 144 874 650 874 650 874 144 874 471 874 144 874 146 874 471 874 471 1051 146 1051 148 1051 612 1052 423 1052 424 1052 612 1053 424 1053 613 1053 424 1054 425 1054 613 1054 613 1055 425 1055 614 1055 425 1056 426 1056 614 1056 614 1057 426 1057 615 1057 426 1058 427 1058 615 1058 615 1059 427 1059 616 1059 616 1060 427 1060 617 1060 427 1061 428 1061 617 1061 617 1062 428 1062 723 1062 428 1063 429 1063 723 1063 723 1064 429 1064 724 1064 429 1065 430 1065 724 1065 724 1066 430 1066 725 1066 430 1067 431 1067 725 1067 431 1068 452 1068 725 1068 725 1069 452 1069 726 1069 452 1070 453 1070 726 1070 726 1071 453 1071 727 1071 727 1072 453 1072 728 1072 453 1073 454 1073 728 1073 728 1074 454 1074 729 1074 454 1075 455 1075 729 1075 729 1076 455 1076 730 1076 455 1077 456 1077 730 1077 730 1078 456 1078 731 1078 456 1079 457 1079 731 1079 731 1080 457 1080 732 1080 457 1081 458 1081 732 1081 732 1082 458 1082 733 1082 458 1083 459 1083 733 1083 459 1084 460 1084 733 1084 733 1085 460 1085 734 1085 460 1086 461 1086 734 1086 734 1087 461 1087 735 1087 461 1088 462 1088 735 1088 735 1089 462 1089 573 1089 462 1090 463 1090 573 1090 573 1091 463 1091 574 1091 463 1092 464 1092 574 1092 574 1093 464 1093 643 1093 464 1094 465 1094 643 1094 643 1095 465 1095 644 1095 465 1096 466 1096 644 1096 644 1097 466 1097 645 1097 466 1098 467 1098 645 1098 645 1099 467 1099 646 1099 467 1100 468 1100 646 1100 646 1101 468 1101 647 1101 468 1102 469 1102 647 1102 647 1103 469 1103 648 1103 469 1104 470 1104 648 1104 648 1105 470 1105 649 1105 612 819 611 819 423 819 611 819 422 819 423 819 345 1106 344 1106 498 1106 345 1107 498 1107 627 1107 498 1108 496 1108 627 1108 627 1109 496 1109 629 1109 496 1110 494 1110 629 1110 629 1111 494 1111 631 1111 494 1112 492 1112 631 1112 631 1113 492 1113 633 1113 492 1114 490 1114 633 1114 633 1115 490 1115 635 1115 490 1116 488 1116 635 1116 635 1117 488 1117 637 1117 488 1118 409 1118 637 1118 637 1119 409 1119 639 1119 409 1120 408 1120 639 1120 639 1121 408 1121 641 1121 408 1122 533 1122 641 1122 641 1123 533 1123 703 1123 703 1124 533 1124 705 1124 533 1125 531 1125 705 1125 705 1126 531 1126 707 1126 531 1127 529 1127 707 1127 529 1128 527 1128 707 1128 707 1129 527 1129 709 1129 527 1130 525 1130 709 1130 709 1131 525 1131 711 1131 525 1132 523 1132 711 1132 711 1133 523 1133 713 1133 523 1134 521 1134 713 1134 713 1135 521 1135 715 1135 715 1136 521 1136 717 1136 521 1137 519 1137 717 1137 717 1138 519 1138 719 1138 519 1139 517 1139 719 1139 719 1140 517 1140 721 1140 517 1141 515 1141 721 1141 721 1142 515 1142 722 1142 414 1143 602 1143 413 1143 602 1144 600 1144 413 1144 413 1145 600 1145 510 1145 600 1146 598 1146 510 1146 510 1147 598 1147 511 1147 598 1148 722 1148 511 1148 511 1149 722 1149 513 1149 722 1150 515 1150 513 1150 422 1151 611 1151 420 1151 611 1152 610 1152 420 1152 420 1153 610 1153 418 1153 610 1154 608 1154 418 1154 418 1155 608 1155 416 1155 608 1156 606 1156 416 1156 416 1157 606 1157 414 1157 606 1158 604 1158 414 1158 414 1159 604 1159 602 1159</p>
        </triangles>
      </mesh>
    </geometry>
  </library_geometries>
  <library_visual_scenes>
    <visual_scene id="Scene" name="Scene">
      <node id="trapezoid__11" name="trapezoid__11" type="NODE">
        <matrix sid="transform">1 0 0 0 0 1 0 0 0 0 1 0 0 0 0 1</matrix>
        <instance_geometry url="#trapezoid__11-mesh" name="trapezoid__11"/>
      </node>
    </visual_scene>
  </library_visual_scenes>
  <scene>
    <instance_visual_scene url="#Scene"/>
  </scene>
</COLLADA>