<?xml version="1.0" encoding="utf-8"?>
<COLLADA xmlns="http://www.collada.org/2005/11/COLLADASchema" version="1.4.1" xmlns:xsi="http://www.w3.org/2001/XMLSchema-instance">
  <asset>
    <contributor>
      <author>Blender User</author>
      <authoring_tool>Blender 3.0.1</authoring_tool>
    </contributor>
    <created>2026-06-04T16:19:09</created>
    <modified>2026-06-04T16:19:09</modified>
    <unit name="meter" meter="1"/>
    <up_axis>Z_UP</up_axis>
  </asset>
  <library_images/>
  <library_geometries>
    <geometry id="trapezoid__2-mesh" name="trapezoid__2">
      <mesh>
        <source id="trapezoid__2-mesh-positions">
          <float_array id="trapezoid__2-mesh-positions-array" count="864">-0.3108858 -0.03499996 0.1678858 -0.3108858 -0.01749998 0.1678858 -0.3107222 -0.03499996 0.1716335 -0.3107222 -0.01749998 0.1716335 -0.3102325 -0.03499996 0.1753526 -0.3102325 -0.01749998 0.1753526 -0.3094207 -0.03499996 0.179015 -0.3094207 -0.01749998 0.179015 -0.3082926 -0.03499996 0.1825926 -0.3082926 -0.01749998 0.1825926 -0.3068571 -0.03499996 0.1860584 -0.3068571 -0.01749998 0.1860584 -0.3051249 -0.03499996 0.1893858 -0.3051249 -0.01749998 0.1893858 -0.3031094 -0.03499996 0.1925496 -0.3031094 -0.01749998 0.1925496 -0.3008257 -0.03499996 0.1955257 -0.3008257 -0.01749998 0.1955257 -0.2982914 -0.03499996 0.1982914 -0.2982914 -0.01749998 0.1982914 -0.2955257 -0.03499996 0.2008257 -0.2955257 -0.01749998 0.2008257 -0.2925496 -0.03499996 0.2031093 -0.2925496 -0.01749998 0.2031093 -0.2893858 -0.03499996 0.2051249 -0.2893858 -0.01749998 0.2051249 -0.2860584 -0.03499996 0.206857 -0.2860584 -0.01749998 0.206857 -0.2825927 -0.03499996 0.2082926 -0.2825927 -0.01749998 0.2082926 -0.279015 -0.03499996 0.2094206 -0.279015 -0.01749998 0.2094206 -0.2753527 -0.03499996 0.2102325 -0.2753527 -0.01749998 0.2102325 -0.2716335 -0.03499996 0.2107222 -0.2716335 -0.01749998 0.2107222 -0.2678858 -0.03499996 0.2108858 -0.2678858 -0.01749998 0.2108858 -0.2641381 -0.03499996 0.2107222 -0.2641381 -0.01749998 0.2107222 -0.260419 -0.03499996 0.2102325 -0.260419 -0.01749998 0.2102325 -0.2567566 -0.03499996 0.2094206 -0.2567566 -0.01749998 0.2094206 -0.253179 -0.03499996 0.2082926 -0.253179 -0.01749998 0.2082926 -0.2497132 -0.03499996 0.206857 -0.2497132 -0.01749998 0.206857 -0.2463858 -0.03499996 0.2051249 -0.2463858 -0.01749998 0.2051249 -0.243222 -0.03499996 0.2031093 -0.243222 -0.01749998 0.2031093 -0.2402459 -0.03499996 0.2008257 -0.2402459 -0.01749998 0.2008257 -0.2374802 -0.03499996 0.1982914 -0.2374802 -0.01749998 0.1982914 -0.2349459 -0.03499996 0.1955257 -0.2349459 -0.01749998 0.1955257 -0.2326623 -0.03499996 0.1925496 -0.2326623 -0.01749998 0.1925496 -0.2306467 -0.03499996 0.1893858 -0.2306467 -0.01749998 0.1893858 -0.2289146 -0.03499996 0.1860584 -0.2289146 -0.01749998 0.1860584 -0.227479 -0.03499996 0.1825926 -0.227479 -0.01749998 0.1825926 -0.226351 -0.03499996 0.179015 -0.226351 -0.01749998 0.179015 -0.225539 -0.03499996 0.1753526 -0.225539 -0.01749998 0.1753526 -0.2250494 -0.03499996 0.1716335 -0.2250494 -0.01749998 0.1716335 -0.2248858 -0.03499996 0.1678858 -0.2248858 -0.01749998 0.1678858 -0.2250494 -0.03499996 0.1641381 -0.2250494 -0.01749998 0.1641381 -0.225539 -0.03499996 0.1604189 -0.225539 -0.01749998 0.1604189 -0.226351 -0.03499996 0.1567566 -0.226351 -0.01749998 0.1567566 -0.227479 -0.03499996 0.1531789 -0.227479 -0.01749998 0.1531789 -0.2289146 -0.03499996 0.1497132 -0.2289146 -0.01749998 0.1497132 -0.2306467 -0.03499996 0.1463858 -0.2306467 -0.01749998 0.1463858 -0.2326623 -0.03499996 0.143222 -0.2326623 -0.01749998 0.143222 -0.2349459 -0.03499996 0.1402459 -0.2349459 -0.01749998 0.1402459 -0.2374802 -0.03499996 0.1374802 -0.2374802 -0.01749998 0.1374802 -0.2402459 -0.03499996 0.1349459 -0.2402459 -0.01749998 0.1349459 -0.243222 -0.03499996 0.1326622 -0.243222 -0.01749998 0.1326622 -0.2463858 -0.03499996 0.1306467 -0.2463858 -0.01749998 0.1306467 -0.2497132 -0.03499996 0.1289145 -0.2497132 -0.01749998 0.1289145 -0.253179 -0.03499996 0.127479 -0.253179 -0.01749998 0.127479 -0.2567566 -0.03499996 0.126351 -0.2567566 -0.01749998 0.126351 -0.260419 -0.03499996 0.1255391 -0.260419 -0.01749998 0.1255391 -0.2641381 -0.03499996 0.1250494 -0.2641381 -0.01749998 0.1250494 -0.2678858 -0.03499996 0.1248858 -0.2678858 -0.01749998 0.1248858 -0.2716335 -0.03499996 0.1250494 -0.2716335 -0.01749998 0.1250494 -0.2753527 -0.03499996 0.1255391 -0.2753527 -0.01749998 0.1255391 -0.279015 -0.03499996 0.126351 -0.279015 -0.01749998 0.126351 -0.2825927 -0.03499996 0.127479 -0.2825927 -0.01749998 0.127479 -0.2860584 -0.03499996 0.1289145 -0.2860584 -0.01749998 0.1289145 -0.2893858 -0.03499996 0.1306467 -0.2893858 -0.01749998 0.1306467 -0.2925496 -0.03499996 0.1326622 -0.2925496 -0.01749998 0.1326622 -0.2955257 -0.03499996 0.1349459 -0.2955257 -0.01749998 0.1349459 -0.2982914 -0.03499996 0.1374802 -0.2982914 -0.01749998 0.1374802 -0.3008257 -0.03499996 0.1402459 -0.3008257 -0.01749998 0.1402459 -0.3031094 -0.03499996 0.143222 -0.3031094 -0.01749998 0.143222 -0.3051249 -0.03499996 0.1463858 -0.3051249 -0.01749998 0.1463858 -0.3068571 -0.03499996 0.1497132 -0.3068571 -0.01749998 0.1497132 -0.3082926 -0.03499996 0.1531789 -0.3082926 -0.01749998 0.1531789 -0.3094207 -0.03499996 0.1567566 -0.3094207 -0.01749998 0.1567566 -0.3102325 -0.03499996 0.1604189 -0.3102325 -0.01749998 0.1604189 -0.3107222 -0.03499996 0.1641381 -0.3107222 -0.01749998 0.1641381 -0.3158858 -0.01749998 0.1678858 -0.3157032 -0.03499996 0.1720693 -0.3157032 -0.01749998 0.1720693 -0.3151566 -0.03499996 0.1762209 -0.3151566 -0.01749998 0.1762209 -0.3142502 -0.03499996 0.1803091 -0.3142502 -0.01749998 0.1803091 -0.3129911 -0.03499996 0.1843028 -0.3129911 -0.01749998 0.1843028 -0.3113886 -0.03499996 0.1881715 -0.3113886 -0.01749998 0.1881715 -0.309455 -0.03499996 0.1918858 -0.309455 -0.01749998 0.1918858 -0.3072051 -0.03499996 0.1954175 -0.3072051 -0.01749998 0.1954175 -0.304656 -0.03499996 0.1987396 -0.304656 -0.01749998 0.1987396 -0.301827 -0.03499996 0.2018269 -0.301827 -0.01749998 0.2018269 -0.2987396 -0.03499996 0.204656 -0.2987396 -0.01749998 0.204656 -0.2954175 -0.03499996 0.2072051 -0.2954175 -0.01749998 0.2072051 -0.2918858 -0.03499996 0.209455 -0.2918858 -0.01749998 0.209455 -0.2881715 -0.03499996 0.2113886 -0.2881715 -0.01749998 0.2113886 -0.2843028 -0.03499996 0.2129911 -0.2843028 -0.01749998 0.2129911 -0.2803092 -0.03499996 0.2142502 -0.2803092 -0.01749998 0.2142502 -0.2762209 -0.03499996 0.2151566 -0.2762209 -0.01749998 0.2151566 -0.2720693 -0.03499996 0.2157031 -0.2720693 -0.01749998 0.2157031 -0.2678858 -0.03499996 0.2158858 -0.2678858 -0.01749998 0.2158858 -0.2637023 -0.03499996 0.2157031 -0.2637023 -0.01749998 0.2157031 -0.2595507 -0.03499996 0.2151566 -0.2595507 -0.01749998 0.2151566 -0.2554625 -0.03499996 0.2142502 -0.2554625 -0.01749998 0.2142502 -0.2514688 -0.03499996 0.2129911 -0.2514688 -0.01749998 0.2129911 -0.2476001 -0.03499996 0.2113886 -0.2476001 -0.01749998 0.2113886 -0.2438858 -0.03499996 0.209455 -0.2438858 -0.01749998 0.209455 -0.2403541 -0.03499996 0.2072051 -0.2403541 -0.01749998 0.2072051 -0.237032 -0.03499996 0.204656 -0.237032 -0.01749998 0.204656 -0.2339447 -0.03499996 0.2018269 -0.2339447 -0.01749998 0.2018269 -0.2311156 -0.03499996 0.1987396 -0.2311156 -0.01749998 0.1987396 -0.2285665 -0.03499996 0.1954175 -0.2285665 -0.01749998 0.1954175 -0.2263166 -0.03499996 0.1918858 -0.2263166 -0.01749998 0.1918858 -0.224383 -0.03499996 0.1881715 -0.224383 -0.01749998 0.1881715 -0.2227805 -0.03499996 0.1843028 -0.2227805 -0.01749998 0.1843028 -0.2215213 -0.03499996 0.1803091 -0.2215213 -0.01749998 0.1803091 -0.220615 -0.03499996 0.1762209 -0.220615 -0.01749998 0.1762209 -0.2200685 -0.03499996 0.1720693 -0.2200685 -0.01749998 0.1720693 -0.2198858 -0.03499996 0.1678858 -0.2198858 -0.01749998 0.1678858 -0.2200685 -0.03499996 0.1637023 -0.2200685 -0.01749998 0.1637023 -0.220615 -0.03499996 0.1595507 -0.220615 -0.01749998 0.1595507 -0.2215213 -0.03499996 0.1554625 -0.2215213 -0.01749998 0.1554625 -0.2227805 -0.03499996 0.1514688 -0.2227805 -0.01749998 0.1514688 -0.224383 -0.03499996 0.1476001 -0.224383 -0.01749998 0.1476001 -0.2263166 -0.03499996 0.1438858 -0.2263166 -0.01749998 0.1438858 -0.2285665 -0.03499996 0.1403541 -0.2285665 -0.01749998 0.1403541 -0.2311156 -0.03499996 0.137032 -0.2311156 -0.01749998 0.137032 -0.2339447 -0.03499996 0.1339446 -0.2339447 -0.01749998 0.1339446 -0.237032 -0.03499996 0.1311157 -0.237032 -0.01749998 0.1311157 -0.2403541 -0.03499996 0.1285665 -0.2403541 -0.01749998 0.1285665 -0.2438858 -0.03499996 0.1263166 -0.2438858 -0.01749998 0.1263166 -0.2476001 -0.03499996 0.124383 -0.2476001 -0.01749998 0.124383 -0.2514688 -0.03499996 0.1227806 -0.2514688 -0.01749998 0.1227806 -0.2554625 -0.03499996 0.1215214 -0.2554625 -0.01749998 0.1215214 -0.2595507 -0.03499996 0.120615 -0.2595507 -0.01749998 0.120615 -0.2637023 -0.03499996 0.1200684 -0.2637023 -0.01749998 0.1200684 -0.2678858 -0.03499996 0.1198858 -0.2678858 -0.01749998 0.1198858 -0.2720693 -0.03499996 0.1200684 -0.2720693 -0.01749998 0.1200684 -0.2762209 -0.03499996 0.120615 -0.2762209 -0.01749998 0.120615 -0.2803092 -0.03499996 0.1215214 -0.2803092 -0.01749998 0.1215214 -0.2843028 -0.03499996 0.1227806 -0.2843028 -0.01749998 0.1227806 -0.2881715 -0.03499996 0.124383 -0.2881715 -0.01749998 0.124383 -0.2918858 -0.03499996 0.1263166 -0.2918858 -0.01749998 0.1263166 -0.2954175 -0.03499996 0.1285665 -0.2954175 -0.01749998 0.1285665 -0.2987396 -0.03499996 0.1311157 -0.2987396 -0.01749998 0.1311157 -0.301827 -0.03499996 0.1339446 -0.301827 -0.01749998 0.1339446 -0.304656 -0.03499996 0.137032 -0.304656 -0.01749998 0.137032 -0.3072051 -0.03499996 0.1403541 -0.3072051 -0.01749998 0.1403541 -0.309455 -0.03499996 0.1438858 -0.309455 -0.01749998 0.1438858 -0.3113886 -0.03499996 0.1476001 -0.3113886 -0.01749998 0.1476001 -0.3129911 -0.03499996 0.1514688 -0.3129911 -0.01749998 0.1514688 -0.3142502 -0.03499996 0.1554625 -0.3142502 -0.01749998 0.1554625 -0.3151566 -0.03499996 0.1595507 -0.3151566 -0.01749998 0.1595507 -0.3157032 -0.03499996 0.1637023 -0.3157032 -0.01749998 0.1637023 -0.3158858 -0.03499996 0.1678858</float_array>
          <technique_common>
            <accessor source="#trapezoid__2-mesh-positions-array" count="288" stride="3">
              <param name="X" type="float"/>
              <param name="Y" type="float"/>
              <param name="Z" type="float"/>
            </accessor>
          </technique_common>
        </source>
        <source id="trapezoid__2-mesh-normals">
          <float_array id="trapezoid__2-mesh-normals-array" count="1092">0.9990484 0 -0.04361552 0.9990485 0 -0.04361587 0.9914445 0 -0.1305298 0.9914443 0 -0.1305308 0.9762973 0 -0.2164342 0.9762973 0 -0.2164343 0.9537152 0 -0.3007115 0.9537159 0 -0.3007095 0.9238785 0 -0.3826862 0.9238795 0 -0.3826836 0.887012 0 -0.4617467 0.8870104 0 -0.4617496 0.8433904 0 -0.5373013 0.8433924 0 -0.5372982 0.7933566 0 -0.6087573 0.7933565 0 -0.6087574 0.7372773 0 -0.6755903 0.6755908 0 -0.7372769 0.6755908 0 -0.7372768 0.6087563 0 -0.7933574 0.6087607 0 -0.793354 0.5372975 0 -0.8433928 0.5373024 0 -0.8433896 0.4617493 0 -0.8870105 0.4617438 0 -0.8870134 0.3826825 0 -0.92388 0.3826885 0 -0.9238775 0.3007032 0 -0.9537178 0.3007097 0 -0.9537158 0.2164338 0 -0.9762973 0.2164406 0 -0.9762958 0.1305323 0 -0.9914441 0.1305183 0 -0.9914459 0.04362463 0 -0.9990481 0.04361754 0 -0.9990484 -0.04361724 0 -0.9990484 -0.04362428 0 -0.9990481 -0.1305183 0 -0.9914459 -0.1305323 0 -0.9914441 -0.2164406 0 -0.9762958 -0.2164338 0 -0.9762973 -0.3007097 0 -0.9537158 -0.3007032 0 -0.9537178 -0.3826886 0 -0.9238775 -0.3826825 0 -0.9238801 -0.4617455 0 -0.8870126 -0.4617509 0 -0.8870097 -0.5373026 0 -0.8433896 -0.5372974 0 -0.8433929 -0.6087608 0 -0.793354 -0.6087562 0 -0.7933574 -0.6755908 0 -0.7372769 -0.6755908 0 -0.7372768 -0.7372773 0 -0.6755903 -0.7933546 0 -0.6087598 -0.8433926 0 -0.537298 -0.8433904 0 -0.5373014 -0.8870104 0 -0.4617496 -0.887012 0 -0.4617467 -0.9238795 0 -0.3826836 -0.9238785 0 -0.3826862 -0.953717 0 -0.3007058 -0.9537163 0 -0.3007079 -0.9762964 0 -0.2164381 -0.9762964 0 -0.2164381 -0.9914448 0 -0.1305269 -0.991445 0 -0.130526 -0.9990483 0 -0.04361981 -0.9990483 0 -0.04361951 -0.9990483 0 0.04361981 -0.9990483 0 0.04361981 -0.9914451 0 0.1305251 -0.9914448 0 0.1305269 -0.976296 0 0.2164396 -0.9762964 0 0.2164381 -0.953717 0 0.3007058 -0.9537163 0 0.3007079 -0.9238795 0 0.3826836 -0.9238806 0 0.3826812 -0.8870104 0 0.4617496 -0.887012 0 0.4617467 -0.8433904 0 0.5373013 -0.8433904 0 0.5373014 -0.793352 0 0.6087633 -0.7933546 0 0.6087598 -0.7372806 0 0.6755868 -0.7372741 0 0.6755939 -0.6755908 0 0.7372769 -0.6755908 0 0.7372768 -0.6087608 0 0.793354 -0.6087607 0 0.793354 -0.5373026 0 0.8433896 -0.5372924 0 0.8433961 -0.4617511 0 0.8870096 -0.4617509 0 0.8870097 -0.3826825 0 0.92388 -0.3826825 0 0.9238801 -0.3007032 0 0.9537178 -0.3007097 0 0.9537158 -0.2164338 0 0.9762973 -0.2164474 0 0.9762943 -0.1305253 0 0.991445 -0.04362428 0 0.9990481 -0.04361718 0 0.9990484 0.04361754 0 0.9990484 0.04362463 0 0.9990481 0.1305253 0 0.991445 0.2164474 0 0.9762943 0.2164338 0 0.9762973 0.3007097 0 0.9537158 0.3007032 0 0.9537178 0.3826825 0 0.92388 0.3826825 0 0.9238801 0.4617493 0 0.8870105 0.5372925 0 0.8433961 0.5373024 0 0.8433896 0.6087608 0 0.793354 0.6087607 0 0.793354 0.6755908 0 0.7372769 0.6755908 0 0.7372768 0.7372741 0 0.6755939 0.7372806 0 0.6755868 0.7933566 0 0.6087573 0.7933539 0 0.6087608 0.8433904 0 0.5373013 0.8433904 0 0.5373014 0.887012 0 0.4617467 0.8870104 0 0.4617496 0.9238806 0 0.3826812 0.9238795 0 0.3826836 0.9537152 0 0.3007115 0.9537159 0 0.3007095 0.9762973 0 0.2164342 0.9762969 0 0.2164358 0.9914443 0 0.1305308 0.9914445 0 0.1305289 0.9990485 0 0.04361587 0.9990485 0 0.04361587 -0.9990482 0 0.04362034 -0.9914458 0 0.130519 -0.9914458 0 0.1305199 -0.9762954 0 0.2164427 -0.9762951 0 0.2164439 -0.9537185 0 0.3007012 -0.953718 0 0.3007029 -0.9238783 0 0.3826867 -0.9238764 0 0.3826912 -0.8870121 0 0.4617463 -0.887012 0 0.4617465 -0.84339 0 0.537302 -0.8433918 0 0.5372992 -0.7933535 0 0.6087613 -0.7933581 0 0.6087552 -0.7372752 0 0.6755926 -0.737275 0 0.6755927 -0.6755918 0 0.7372759 -0.6755952 0 0.7372728 -0.6087552 0 0.7933583 -0.6087591 0 0.7933552 -0.5372992 0 0.8433917 -0.5373036 0 0.8433889 -0.4617494 0 0.8870105 -0.382682 0 0.9238801 -0.3826873 0 0.923878 -0.3007012 0 0.9537184 -0.3007069 0 0.9537166 -0.2164471 0 0.9762943 -0.2164348 0 0.9762971 -0.1305276 0 0.9914448 -0.1305212 0 0.9914456 -0.04362368 0 0.9990481 -0.04361093 0 0.9990486 0.04361063 0 0.9990487 0.04362332 0 0.9990481 0.1305223 0 0.9914454 0.1305285 0 0.9914447 0.2164334 0 0.9762974 0.2164455 0 0.9762947 0.300709 0 0.953716 0.3007031 0 0.9537178 0.3826861 0 0.9238784 0.3826806 0 0.9238807 0.461748 0 0.8870112 0.5373038 0 0.8433889 0.5372991 0 0.8433918 0.6087608 0 0.7933539 0.6087567 0 0.793357 0.6755952 0 0.7372728 0.6755917 0 0.737276 0.7372752 0 0.6755926 0.737275 0 0.6755927 0.7933565 0 0.6087573 0.7933518 0 0.6087636 0.8433919 0 0.5372991 0.84339 0 0.537302 0.8870106 0 0.4617493 0.8870105 0 0.4617493 0.923879 0 0.3826851 0.9238807 0 0.3826806 0.9537169 0 0.3007061 0.9537175 0 0.3007044 0.9762958 0 0.2164405 0.9762961 0 0.2164392 0.9914448 0 0.1305269 0.9914449 0 0.1305261 0.9990484 0 0.04361677 0.9990484 0 0.04361677 0.9990484 0 -0.04361677 0.9990484 0 -0.04361706 0.9914449 0 -0.1305261 0.9762958 0 -0.2164405 0.9762964 0 -0.2164379 0.9537163 0 -0.3007079 0.9537175 0 -0.3007044 0.9238798 0 -0.3826828 0.9238798 0 -0.3826829 0.8870092 0 -0.4617518 0.8870105 0 -0.4617493 0.8433919 0 -0.5372991 0.84339 0 -0.537302 0.7933542 0 -0.6087604 0.793354 0 -0.6087605 0.7372781 0 -0.6755895 0.7372779 0 -0.6755896 0.6755918 0 -0.7372759 0.6755883 0 -0.7372791 0.6087608 0 -0.7933539 0.6087648 0 -0.7933508 0.5372992 0 -0.8433917 0.5372946 0 -0.8433947 0.461753 0 -0.8870086 0.4617431 0 -0.8870139 0.3826861 0 -0.9238784 0.3826806 0 -0.9238807 0.300709 0 -0.953716 0.3007089 0 -0.953716 0.2164334 0 -0.9762974 0.2164394 0 -0.9762961 0.1305285 0 -0.9914447 0.1305285 0 -0.9914447 0.04361701 0 -0.9990484 0.04361701 0 -0.9990484 -0.0436173 0 -0.9990484 -0.0436173 0 -0.9990484 -0.1305276 0 -0.9914448 -0.1305275 0 -0.9914447 -0.216441 0 -0.9762958 -0.2164348 0 -0.9762971 -0.300707 0 -0.9537166 -0.3007069 0 -0.9537166 -0.382682 0 -0.9238801 -0.3826873 0 -0.923878 -0.4617445 0 -0.8870131 -0.4617545 0 -0.8870078 -0.5372947 0 -0.8433947 -0.5372991 0 -0.8433918 -0.6087631 0 -0.7933521 -0.6087591 0 -0.7933552 -0.6755883 0 -0.7372791 -0.6755917 0 -0.737276 -0.7372781 0 -0.6755895 -0.7372779 0 -0.6755896 -0.7933558 0 -0.6087582 -0.7933558 0 -0.6087583 -0.84339 0 -0.537302 -0.8433918 0 -0.5372992 -0.8870121 0 -0.4617463 -0.8870106 0 -0.4617491 -0.9238774 0 -0.3826889 -0.9238772 0 -0.3826889 -0.9537185 0 -0.3007012 -0.9537173 0 -0.3007047 -0.9762957 0 -0.2164413 -0.9762951 0 -0.2164439 -0.9914458 0 -0.130519 -0.9914458 0 -0.1305191 -0.9990482 0 -0.04362058 -0.9990482 0 -0.04362034 -0.9990482 0 0.04362028 0 1 0 0 1 -6.95679e-7 0 1 -6.95681e-7 0 1 6.95683e-7 0 1 -6.95687e-7 0 1 6.95685e-7 0 1 -7.76581e-7 0 1 -3.47841e-7 0 1 7.76576e-7 0 1 -3.47844e-7 0 1 -7.76576e-7 0 1 -5.21773e-7 0 1 3.47837e-7 0 1 7.76581e-7 0 1 2.6088e-7 0 1 4.34796e-7 0 1 3.88295e-7 0 1 0 0 1 3.8829e-7 0 1 1.73922e-7 0 1 -3.88281e-7 0 1 1.73924e-7 0 1 -3.8829e-7 0 1 1.94145e-7 0 1 0 0 1 0 0 1 1.94148e-7 0 1 -3.88295e-7 0 1 7.76571e-7 0 1 -6.95683e-7 0 1 -6.95691e-7 0 1 -6.95689e-7 0 1 7.76574e-7 0 1 -1.73922e-7 0 1 -6.08735e-7 0 1 -2.60886e-7 0 1 -3.88286e-7 0 1 -1.73918e-7 0 1 3.47844e-7 0 1 3.47841e-7 0 1 1.82011e-7 0 1 3.47843e-7 0 1 -1.94145e-7 0 -1 0 0 -1 8.69582e-7 0 -1 7.7659e-7 0 -1 1.7392e-7 0 -1 7.76581e-7 0 -1 3.47844e-7 0 -1 -7.76562e-7 0 -1 3.47848e-7 0 -1 -7.76581e-7 0 -1 3.8829e-7 0 -1 -6.95681e-7 0 -1 -1.94143e-7 0 -1 -1.21339e-7 0 -1 -1.39136e-6 0 -1 3.88295e-7 0 -1 -7.76571e-7 0 -1 1.55314e-6 0 -1 -1.39138e-6 0 -1 1.55316e-6 0 -1 -1.39137e-6 0 -1 -1.39138e-6 0 -1 1.55315e-6 0 -1 -6.95689e-7 0 -1 -3.47844e-7 0 -1 -1.21747e-6 0 -1 -5.21773e-7 0 -1 -1.55314e-6 0 -1 5.21761e-7 0 -1 -3.47837e-7 0 -1 6.95689e-7 0 -1 6.95681e-7 0 -1 3.64022e-7 0 -1 -3.8829e-7 0 -1 1.39137e-6 0 -1 -1.39136e-6 0 -1 -1.39137e-6 0 -1 1.39137e-6 0 -1 -1.39137e-6 0 -1 -1.55317e-6 0 -1 -1.55315e-6 0 -1 -1.04355e-6 0 -1 6.95673e-7</float_array>
          <technique_common>
            <accessor source="#trapezoid__2-mesh-normals-array" count="364" stride="3">
              <param name="X" type="float"/>
              <param name="Y" type="float"/>
              <param name="Z" type="float"/>
            </accessor>
          </technique_common>
        </source>
        <vertices id="trapezoid__2-mesh-vertices">
          <input semantic="POSITION" source="#trapezoid__2-mesh-positions"/>
        </vertices>
        <triangles count="576">
          <input semantic="VERTEX" source="#trapezoid__2-mesh-vertices" offset="0"/>
          <input semantic="NORMAL" source="#trapezoid__2-mesh-normals" offset="1"/>
          <p>0 0 1 0 2 0 1 1 3 1 2 1 2 2 3 2 4 2 3 3 5 3 4 3 4 4 5 4 6 4 5 5 7 5 6 5 6 6 7 6 8 6 7 7 9 7 8 7 8 8 9 8 10 8 9 9 11 9 10 9 10 10 11 10 12 10 11 11 13 11 12 11 12 12 13 12 14 12 13 13 15 13 14 13 14 14 15 14 16 14 15 15 17 15 16 15 16 16 17 16 18 16 17 16 19 16 18 16 18 17 19 17 20 17 19 18 21 18 20 18 20 19 21 19 22 19 21 20 23 20 22 20 22 21 23 21 24 21 23 22 25 22 24 22 24 23 25 23 26 23 25 24 27 24 26 24 26 25 27 25 28 25 27 26 29 26 28 26 28 27 29 27 30 27 29 28 31 28 30 28 30 29 31 29 32 29 31 30 33 30 32 30 32 31 33 31 34 31 33 32 35 32 34 32 34 33 35 33 36 33 35 34 37 34 36 34 36 35 37 35 38 35 37 36 39 36 38 36 38 37 39 37 40 37 39 38 41 38 40 38 40 39 41 39 42 39 41 40 43 40 42 40 42 41 43 41 44 41 43 42 45 42 44 42 44 43 45 43 46 43 45 44 47 44 46 44 46 45 47 45 48 45 47 46 49 46 48 46 48 47 49 47 50 47 49 48 51 48 50 48 50 49 51 49 52 49 51 50 53 50 52 50 52 51 53 51 54 51 53 52 55 52 54 52 54 53 55 53 56 53 55 53 57 53 56 53 56 54 57 54 58 54 57 54 59 54 58 54 58 55 59 55 60 55 59 56 61 56 60 56 60 57 61 57 62 57 61 58 63 58 62 58 62 59 63 59 64 59 63 60 65 60 64 60 64 61 65 61 66 61 65 62 67 62 66 62 66 63 67 63 68 63 67 64 69 64 68 64 68 65 69 65 70 65 69 66 71 66 70 66 70 67 71 67 72 67 71 68 73 68 72 68 72 69 73 69 74 69 73 70 75 70 74 70 74 71 75 71 76 71 75 72 77 72 76 72 76 73 77 73 78 73 77 74 79 74 78 74 78 75 79 75 80 75 79 76 81 76 80 76 80 77 81 77 82 77 81 78 83 78 82 78 82 79 83 79 84 79 83 80 85 80 84 80 84 81 85 81 86 81 85 82 87 82 86 82 86 83 87 83 88 83 87 84 89 84 88 84 88 85 89 85 90 85 89 86 91 86 90 86 90 87 91 87 92 87 91 88 93 88 92 88 92 89 93 89 94 89 93 90 95 90 94 90 94 91 95 91 96 91 95 92 97 92 96 92 96 93 97 93 98 93 97 94 99 94 98 94 98 95 99 95 100 95 99 96 101 96 100 96 100 97 101 97 102 97 101 98 103 98 102 98 102 99 103 99 104 99 103 100 105 100 104 100 104 101 105 101 106 101 105 101 107 101 106 101 106 102 107 102 108 102 107 103 109 103 108 103 108 104 109 104 110 104 109 105 111 105 110 105 110 106 111 106 112 106 111 106 113 106 112 106 112 107 113 107 114 107 113 108 115 108 114 108 114 109 115 109 116 109 115 110 117 110 116 110 116 111 117 111 118 111 117 112 119 112 118 112 118 113 119 113 120 113 119 113 121 113 120 113 120 114 121 114 122 114 121 115 123 115 122 115 122 116 123 116 124 116 123 117 125 117 124 117 124 118 125 118 126 118 125 119 127 119 126 119 126 120 127 120 128 120 127 121 129 121 128 121 128 122 129 122 130 122 129 123 131 123 130 123 130 124 131 124 132 124 131 125 133 125 132 125 132 126 133 126 134 126 133 127 135 127 134 127 134 128 135 128 136 128 135 129 137 129 136 129 136 130 137 130 138 130 137 131 139 131 138 131 138 132 139 132 140 132 139 133 141 133 140 133 140 134 141 134 142 134 141 135 143 135 142 135 142 136 143 136 0 136 143 137 1 137 0 137 144 138 145 138 146 138 145 139 147 139 146 139 146 140 147 140 148 140 147 141 149 141 148 141 148 142 149 142 150 142 149 143 151 143 150 143 150 144 151 144 152 144 151 145 153 145 152 145 152 146 153 146 154 146 153 147 155 147 154 147 154 148 155 148 156 148 155 149 157 149 156 149 156 150 157 150 158 150 157 151 159 151 158 151 158 152 159 152 160 152 159 153 161 153 160 153 160 154 161 154 162 154 161 155 163 155 162 155 162 156 163 156 164 156 163 157 165 157 164 157 164 158 165 158 166 158 165 159 167 159 166 159 166 160 167 160 168 160 167 161 169 161 168 161 168 161 169 161 170 161 169 162 171 162 170 162 170 163 171 163 172 163 171 164 173 164 172 164 172 165 173 165 174 165 173 166 175 166 174 166 174 167 175 167 176 167 175 168 177 168 176 168 176 169 177 169 178 169 177 170 179 170 178 170 178 171 179 171 180 171 179 172 181 172 180 172 180 173 181 173 182 173 181 174 183 174 182 174 182 175 183 175 184 175 183 176 185 176 184 176 184 177 185 177 186 177 185 178 187 178 186 178 186 179 187 179 188 179 187 180 189 180 188 180 188 181 189 181 190 181 189 182 191 182 190 182 190 182 191 182 192 182 191 183 193 183 192 183 192 184 193 184 194 184 193 185 195 185 194 185 194 186 195 186 196 186 195 187 197 187 196 187 196 188 197 188 198 188 197 189 199 189 198 189 198 190 199 190 200 190 199 191 201 191 200 191 200 192 201 192 202 192 201 193 203 193 202 193 202 194 203 194 204 194 203 195 205 195 204 195 204 196 205 196 206 196 205 197 207 197 206 197 206 198 207 198 208 198 207 199 209 199 208 199 208 200 209 200 210 200 209 201 211 201 210 201 210 202 211 202 212 202 211 203 213 203 212 203 212 204 213 204 214 204 213 205 215 205 214 205 214 206 215 206 216 206 215 207 217 207 216 207 216 208 217 208 218 208 217 209 219 209 218 209 218 209 219 209 220 209 219 210 221 210 220 210 220 211 221 211 222 211 221 212 223 212 222 212 222 213 223 213 224 213 223 214 225 214 224 214 224 215 225 215 226 215 225 216 227 216 226 216 226 217 227 217 228 217 227 218 229 218 228 218 228 219 229 219 230 219 229 220 231 220 230 220 230 221 231 221 232 221 231 222 233 222 232 222 232 223 233 223 234 223 233 224 235 224 234 224 234 225 235 225 236 225 235 226 237 226 236 226 236 227 237 227 238 227 237 228 239 228 238 228 238 229 239 229 240 229 239 230 241 230 240 230 240 231 241 231 242 231 241 232 243 232 242 232 242 233 243 233 244 233 243 234 245 234 244 234 244 235 245 235 246 235 245 236 247 236 246 236 246 237 247 237 248 237 247 238 249 238 248 238 248 239 249 239 250 239 249 240 251 240 250 240 250 241 251 241 252 241 251 242 253 242 252 242 252 243 253 243 254 243 253 244 255 244 254 244 254 245 255 245 256 245 255 246 257 246 256 246 256 247 257 247 258 247 257 248 259 248 258 248 258 249 259 249 260 249 259 250 261 250 260 250 260 251 261 251 262 251 261 252 263 252 262 252 262 253 263 253 264 253 263 254 265 254 264 254 264 255 265 255 266 255 265 256 267 256 266 256 266 257 267 257 268 257 267 258 269 258 268 258 268 259 269 259 270 259 269 260 271 260 270 260 270 261 271 261 272 261 271 262 273 262 272 262 272 263 273 263 274 263 273 264 275 264 274 264 274 265 275 265 276 265 275 266 277 266 276 266 276 267 277 267 278 267 277 268 279 268 278 268 278 269 279 269 280 269 279 270 281 270 280 270 280 271 281 271 282 271 281 272 283 272 282 272 282 273 283 273 284 273 283 274 285 274 284 274 284 275 285 275 286 275 285 276 287 276 286 276 286 277 287 277 144 277 287 278 145 278 144 278 63 279 206 279 65 279 206 280 208 280 65 280 65 279 208 279 67 279 208 279 210 279 67 279 67 279 210 279 69 279 210 281 212 281 69 281 69 279 212 279 71 279 212 279 214 279 71 279 71 279 214 279 73 279 214 279 216 279 73 279 73 279 216 279 75 279 216 279 218 279 75 279 75 279 218 279 77 279 218 279 220 279 77 279 77 279 220 279 79 279 220 282 222 282 79 282 79 279 222 279 81 279 222 283 224 283 81 283 81 279 224 279 83 279 224 284 226 284 83 284 83 279 226 279 85 279 226 279 228 279 85 279 85 279 228 279 87 279 228 279 230 279 87 279 87 279 230 279 89 279 230 284 232 284 89 284 89 279 232 279 91 279 232 284 234 284 91 284 91 285 234 285 93 285 234 279 236 279 93 279 93 279 236 279 95 279 236 286 238 286 95 286 95 287 238 287 97 287 238 288 240 288 97 288 97 289 240 289 99 289 240 279 242 279 99 279 99 279 242 279 101 279 242 279 244 279 101 279 101 279 244 279 103 279 244 290 246 290 103 290 103 279 246 279 105 279 246 291 248 291 105 291 105 292 248 292 107 292 248 293 250 293 107 293 107 279 250 279 109 279 250 279 252 279 109 279 109 279 252 279 111 279 252 294 254 294 111 294 111 295 254 295 113 295 254 296 256 296 113 296 113 297 256 297 115 297 256 298 258 298 115 298 115 299 258 299 117 299 258 300 260 300 117 300 117 301 260 301 119 301 260 279 262 279 119 279 119 302 262 302 121 302 262 286 264 286 121 286 121 303 264 303 123 303 264 279 266 279 123 279 123 304 266 304 125 304 266 279 268 279 125 279 125 302 268 302 127 302 268 281 270 281 127 281 127 297 270 297 129 297 270 279 272 279 129 279 129 305 272 305 131 305 272 279 274 279 131 279 131 279 274 279 133 279 274 279 276 279 133 279 133 306 276 306 135 306 276 279 278 279 135 279 135 279 278 279 137 279 278 279 280 279 137 279 137 307 280 307 139 307 280 308 282 308 139 308 139 279 282 279 141 279 282 279 284 279 141 279 141 279 284 279 143 279 284 309 286 309 143 309 143 279 286 279 1 279 286 279 144 279 1 279 1 279 144 279 3 279 144 279 146 279 3 279 3 292 146 292 5 292 146 279 148 279 5 279 5 292 148 292 7 292 148 310 150 310 7 310 7 279 150 279 9 279 150 279 152 279 9 279 9 279 152 279 11 279 152 279 154 279 11 279 11 279 154 279 13 279 154 279 156 279 13 279 13 279 156 279 15 279 156 279 158 279 15 279 15 279 158 279 17 279 158 279 160 279 17 279 17 279 160 279 19 279 160 310 162 310 19 310 19 311 162 311 21 311 162 279 164 279 21 279 21 279 164 279 23 279 164 279 166 279 23 279 23 279 166 279 25 279 166 288 168 288 25 288 25 287 168 287 27 287 168 286 170 286 27 286 27 279 170 279 29 279 170 312 172 312 29 312 29 279 172 279 31 279 172 312 174 312 31 312 31 279 174 279 33 279 174 313 176 313 33 313 33 279 176 279 35 279 176 314 178 314 35 314 35 285 178 285 37 285 178 279 180 279 37 279 37 279 180 279 39 279 180 293 182 293 39 293 39 315 182 315 41 315 182 288 184 288 41 288 41 279 184 279 43 279 184 316 186 316 43 316 43 295 186 295 45 295 186 317 188 317 45 317 45 279 188 279 47 279 188 279 190 279 47 279 47 302 190 302 49 302 190 318 192 318 49 318 49 302 192 302 51 302 192 286 194 286 51 286 51 319 194 319 53 319 194 320 196 320 53 320 53 321 196 321 55 321 196 284 198 284 55 284 55 315 198 315 57 315 198 279 200 279 57 279 57 315 200 315 59 315 200 279 202 279 59 279 59 279 202 279 61 279 202 279 204 279 61 279 61 297 204 297 63 297 204 279 206 279 63 279 36 322 179 322 34 322 179 323 177 323 34 323 34 324 177 324 32 324 177 325 175 325 32 325 32 326 175 326 30 326 175 327 173 327 30 327 30 328 173 328 28 328 173 329 171 329 28 329 28 330 171 330 26 330 171 322 169 322 26 322 26 331 169 331 24 331 169 332 167 332 24 332 24 333 167 333 22 333 167 322 165 322 22 322 22 334 165 334 20 334 165 322 163 322 20 322 20 331 163 331 18 331 163 335 161 335 18 335 18 324 161 324 16 324 161 322 159 322 16 322 16 336 159 336 14 336 159 322 157 322 14 322 14 322 157 322 12 322 157 322 155 322 12 322 12 337 155 337 10 337 155 322 153 322 10 322 10 322 153 322 8 322 153 322 151 322 8 322 8 338 151 338 6 338 151 335 149 335 6 335 6 322 149 322 4 322 149 322 147 322 4 322 4 322 147 322 2 322 147 339 145 339 2 339 2 322 145 322 0 322 145 322 287 322 0 322 0 322 287 322 142 322 287 322 285 322 142 322 142 340 285 340 140 340 285 322 283 322 140 322 140 340 283 340 138 340 283 341 281 341 138 341 138 322 281 322 136 322 281 322 279 322 136 322 136 322 279 322 134 322 279 322 277 322 134 322 134 322 277 322 132 322 277 322 275 322 132 322 132 322 275 322 130 322 275 322 273 322 130 322 130 322 273 322 128 322 273 322 271 322 128 322 128 322 271 322 126 322 271 342 269 342 126 342 126 343 269 343 124 343 269 322 267 322 124 322 124 322 267 322 122 322 267 322 265 322 122 322 122 322 265 322 120 322 265 344 263 344 120 344 120 343 263 343 118 343 263 332 261 332 118 332 118 322 261 322 116 322 261 345 259 345 116 345 116 322 259 322 114 322 259 345 257 345 114 345 114 322 257 322 112 322 257 346 255 346 112 346 112 322 255 322 110 322 255 347 253 347 110 347 110 348 253 348 108 348 253 322 251 322 108 322 108 322 251 322 106 322 251 349 249 349 106 349 106 337 249 337 104 337 249 344 247 344 104 344 104 322 247 322 102 322 247 350 245 350 102 350 102 324 245 324 100 324 245 351 243 351 100 351 100 322 243 322 98 322 243 322 241 322 98 322 98 331 241 331 96 331 241 352 239 352 96 352 96 336 239 336 94 336 239 332 237 332 94 332 94 353 237 353 92 353 237 352 235 352 92 352 92 354 235 354 90 354 235 355 233 355 90 355 90 337 233 337 88 337 233 322 231 322 88 322 88 337 231 337 86 337 231 322 229 322 86 322 86 322 229 322 84 322 229 322 227 322 84 322 84 326 227 326 82 326 227 322 225 322 82 322 82 322 225 322 80 322 225 356 223 356 80 356 80 322 223 322 78 322 223 322 221 322 78 322 78 322 221 322 76 322 221 357 219 357 76 357 76 322 219 322 74 322 219 322 217 322 74 322 74 322 217 322 72 322 217 322 215 322 72 322 72 322 215 322 70 322 215 322 213 322 70 322 70 322 213 322 68 322 213 322 211 322 68 322 68 322 211 322 66 322 211 358 209 358 66 358 66 322 209 322 64 322 209 359 207 359 64 359 64 322 207 322 62 322 207 355 205 355 62 355 62 322 205 322 60 322 205 322 203 322 60 322 60 322 203 322 58 322 203 322 201 322 58 322 58 322 201 322 56 322 201 355 199 355 56 355 56 322 199 322 54 322 199 355 197 355 54 355 54 360 197 360 52 360 197 322 195 322 52 322 52 322 195 322 50 322 195 332 193 332 50 332 50 343 193 343 48 343 193 344 191 344 48 344 48 361 191 361 46 361 191 322 189 322 46 322 46 322 189 322 44 322 189 322 187 322 44 322 44 322 187 322 42 322 187 362 185 362 42 362 42 322 185 322 40 322 185 363 183 363 40 363 40 340 183 340 38 340 183 349 181 349 38 349 38 322 181 322 36 322 181 322 179 322 36 322</p>
        </triangles>
      </mesh>
    </geometry>
  </library_geometries>
  <library_visual_scenes>
    <visual_scene id="Scene" name="Scene">
      <node id="trapezoid__2" name="trapezoid__2" type="NODE">
        <matrix sid="transform">1 0 0 0 0 1 0 0 0 0 1 0 0 0 0 1</matrix>
        <instance_geometry url="#trapezoid__2-mesh" name="trapezoid__2"/>
      </node>
    </visual_scene>
  </library_visual_scenes>
  <scene>
    <instance_visual_scene url="#Scene"/>
  </scene>
</COLLADA>