<?xml version="1.0" encoding="utf-8"?>
<COLLADA xmlns="http://www.collada.org/2005/11/COLLADASchema" version="1.4.1" xmlns:xsi="http://www.w3.org/2001/XMLSchema-instance">
  <asset>
    <contributor>
      <author>Blender User</author>
      <authoring_tool>Blender 3.0.1</authoring_tool>
    </contributor>
    <created>2026-06-04T16:19:06</created>
    <modified>2026-06-04T16:19:06</modified>
    <unit name="meter" meter="1"/>
    <up_axis>Z_UP</up_axis>
  </asset>
  <library_images/>
  <library_geometries>
    <geometry id="trapezoid-mesh" name="trapezoid">
      <mesh>
        <source id="trapezoid-mesh-positions">
          <float_array id="trapezoid-mesh-positions-array" count="864">-0.3108858 0.01749998 0.1678858 -0.3108858 0.03499996 0.1678858 -0.3107222 0.01749998 0.1716335 -0.3107222 0.03499996 0.1716335 -0.3102325 0.01749998 0.1753526 -0.3102325 0.03499996 0.1753526 -0.3094207 0.01749998 0.179015 -0.3094207 0.03499996 0.179015 -0.3082926 0.01749998 0.1825926 -0.3082926 0.03499996 0.1825926 -0.3068571 0.01749998 0.1860584 -0.3068571 0.03499996 0.1860584 -0.3051249 0.01749998 0.1893858 -0.3051249 0.03499996 0.1893858 -0.3031094 0.01749998 0.1925496 -0.3031094 0.03499996 0.1925496 -0.3008257 0.01749998 0.1955257 -0.3008257 0.03499996 0.1955257 -0.2982914 0.01749998 0.1982914 -0.2982914 0.03499996 0.1982914 -0.2955257 0.01749998 0.2008257 -0.2955257 0.03499996 0.2008257 -0.2925496 0.01749998 0.2031093 -0.2925496 0.03499996 0.2031093 -0.2893858 0.01749998 0.2051249 -0.2893858 0.03499996 0.2051249 -0.2860584 0.01749998 0.206857 -0.2860584 0.03499996 0.206857 -0.2825927 0.01749998 0.2082926 -0.2825927 0.03499996 0.2082926 -0.279015 0.01749998 0.2094206 -0.279015 0.03499996 0.2094206 -0.2753527 0.01749998 0.2102325 -0.2753527 0.03499996 0.2102325 -0.2716335 0.01749998 0.2107222 -0.2716335 0.03499996 0.2107222 -0.2678858 0.01749998 0.2108858 -0.2678858 0.03499996 0.2108858 -0.2641381 0.01749998 0.2107222 -0.2641381 0.03499996 0.2107222 -0.260419 0.01749998 0.2102325 -0.260419 0.03499996 0.2102325 -0.2567566 0.01749998 0.2094206 -0.2567566 0.03499996 0.2094206 -0.253179 0.01749998 0.2082926 -0.253179 0.03499996 0.2082926 -0.2497132 0.01749998 0.206857 -0.2497132 0.03499996 0.206857 -0.2463858 0.01749998 0.2051249 -0.2463858 0.03499996 0.2051249 -0.243222 0.01749998 0.2031093 -0.243222 0.03499996 0.2031093 -0.2402459 0.01749998 0.2008257 -0.2402459 0.03499996 0.2008257 -0.2374802 0.01749998 0.1982914 -0.2374802 0.03499996 0.1982914 -0.2349459 0.01749998 0.1955257 -0.2349459 0.03499996 0.1955257 -0.2326623 0.01749998 0.1925496 -0.2326623 0.03499996 0.1925496 -0.2306467 0.01749998 0.1893858 -0.2306467 0.03499996 0.1893858 -0.2289146 0.01749998 0.1860584 -0.2289146 0.03499996 0.1860584 -0.227479 0.01749998 0.1825926 -0.227479 0.03499996 0.1825926 -0.226351 0.01749998 0.179015 -0.226351 0.03499996 0.179015 -0.225539 0.01749998 0.1753526 -0.225539 0.03499996 0.1753526 -0.2250494 0.01749998 0.1716335 -0.2250494 0.03499996 0.1716335 -0.2248858 0.01749998 0.1678858 -0.2248858 0.03499996 0.1678858 -0.2250494 0.01749998 0.1641381 -0.2250494 0.03499996 0.1641381 -0.225539 0.01749998 0.1604189 -0.225539 0.03499996 0.1604189 -0.226351 0.01749998 0.1567566 -0.226351 0.03499996 0.1567566 -0.227479 0.01749998 0.1531789 -0.227479 0.03499996 0.1531789 -0.2289146 0.01749998 0.1497132 -0.2289146 0.03499996 0.1497132 -0.2306467 0.01749998 0.1463858 -0.2306467 0.03499996 0.1463858 -0.2326623 0.01749998 0.143222 -0.2326623 0.03499996 0.143222 -0.2349459 0.01749998 0.1402459 -0.2349459 0.03499996 0.1402459 -0.2374802 0.01749998 0.1374802 -0.2374802 0.03499996 0.1374802 -0.2402459 0.01749998 0.1349459 -0.2402459 0.03499996 0.1349459 -0.243222 0.01749998 0.1326622 -0.243222 0.03499996 0.1326622 -0.2463858 0.01749998 0.1306467 -0.2463858 0.03499996 0.1306467 -0.2497132 0.01749998 0.1289145 -0.2497132 0.03499996 0.1289145 -0.253179 0.01749998 0.127479 -0.253179 0.03499996 0.127479 -0.2567566 0.01749998 0.126351 -0.2567566 0.03499996 0.126351 -0.260419 0.01749998 0.1255391 -0.260419 0.03499996 0.1255391 -0.2641381 0.01749998 0.1250494 -0.2641381 0.03499996 0.1250494 -0.2678858 0.01749998 0.1248858 -0.2678858 0.03499996 0.1248858 -0.2716335 0.01749998 0.1250494 -0.2716335 0.03499996 0.1250494 -0.2753527 0.01749998 0.1255391 -0.2753527 0.03499996 0.1255391 -0.279015 0.01749998 0.126351 -0.279015 0.03499996 0.126351 -0.2825927 0.01749998 0.127479 -0.2825927 0.03499996 0.127479 -0.2860584 0.01749998 0.1289145 -0.2860584 0.03499996 0.1289145 -0.2893858 0.01749998 0.1306467 -0.2893858 0.03499996 0.1306467 -0.2925496 0.01749998 0.1326622 -0.2925496 0.03499996 0.1326622 -0.2955257 0.01749998 0.1349459 -0.2955257 0.03499996 0.1349459 -0.2982914 0.01749998 0.1374802 -0.2982914 0.03499996 0.1374802 -0.3008257 0.01749998 0.1402459 -0.3008257 0.03499996 0.1402459 -0.3031094 0.01749998 0.143222 -0.3031094 0.03499996 0.143222 -0.3051249 0.01749998 0.1463858 -0.3051249 0.03499996 0.1463858 -0.3068571 0.01749998 0.1497132 -0.3068571 0.03499996 0.1497132 -0.3082926 0.01749998 0.1531789 -0.3082926 0.03499996 0.1531789 -0.3094207 0.01749998 0.1567566 -0.3094207 0.03499996 0.1567566 -0.3102325 0.01749998 0.1604189 -0.3102325 0.03499996 0.1604189 -0.3107222 0.01749998 0.1641381 -0.3107222 0.03499996 0.1641381 -0.3158858 0.03499996 0.1678858 -0.3157032 0.01749998 0.1720693 -0.3157032 0.03499996 0.1720693 -0.3151566 0.01749998 0.1762209 -0.3151566 0.03499996 0.1762209 -0.3142502 0.01749998 0.1803091 -0.3142502 0.03499996 0.1803091 -0.3129911 0.01749998 0.1843028 -0.3129911 0.03499996 0.1843028 -0.3113886 0.01749998 0.1881715 -0.3113886 0.03499996 0.1881715 -0.309455 0.01749998 0.1918858 -0.309455 0.03499996 0.1918858 -0.3072051 0.01749998 0.1954175 -0.3072051 0.03499996 0.1954175 -0.304656 0.01749998 0.1987396 -0.304656 0.03499996 0.1987396 -0.301827 0.01749998 0.2018269 -0.301827 0.03499996 0.2018269 -0.2987396 0.01749998 0.204656 -0.2987396 0.03499996 0.204656 -0.2954175 0.01749998 0.2072051 -0.2954175 0.03499996 0.2072051 -0.2918858 0.01749998 0.209455 -0.2918858 0.03499996 0.209455 -0.2881715 0.01749998 0.2113886 -0.2881715 0.03499996 0.2113886 -0.2843028 0.01749998 0.2129911 -0.2843028 0.03499996 0.2129911 -0.2803092 0.01749998 0.2142502 -0.2803092 0.03499996 0.2142502 -0.2762209 0.01749998 0.2151566 -0.2762209 0.03499996 0.2151566 -0.2720693 0.01749998 0.2157031 -0.2720693 0.03499996 0.2157031 -0.2678858 0.01749998 0.2158858 -0.2678858 0.03499996 0.2158858 -0.2637023 0.01749998 0.2157031 -0.2637023 0.03499996 0.2157031 -0.2595507 0.01749998 0.2151566 -0.2595507 0.03499996 0.2151566 -0.2554625 0.01749998 0.2142502 -0.2554625 0.03499996 0.2142502 -0.2514688 0.01749998 0.2129911 -0.2514688 0.03499996 0.2129911 -0.2476001 0.01749998 0.2113886 -0.2476001 0.03499996 0.2113886 -0.2438858 0.01749998 0.209455 -0.2438858 0.03499996 0.209455 -0.2403541 0.01749998 0.2072051 -0.2403541 0.03499996 0.2072051 -0.237032 0.01749998 0.204656 -0.237032 0.03499996 0.204656 -0.2339447 0.01749998 0.2018269 -0.2339447 0.03499996 0.2018269 -0.2311156 0.01749998 0.1987396 -0.2311156 0.03499996 0.1987396 -0.2285665 0.01749998 0.1954175 -0.2285665 0.03499996 0.1954175 -0.2263166 0.01749998 0.1918858 -0.2263166 0.03499996 0.1918858 -0.224383 0.01749998 0.1881715 -0.224383 0.03499996 0.1881715 -0.2227805 0.01749998 0.1843028 -0.2227805 0.03499996 0.1843028 -0.2215213 0.01749998 0.1803091 -0.2215213 0.03499996 0.1803091 -0.220615 0.01749998 0.1762209 -0.220615 0.03499996 0.1762209 -0.2200685 0.01749998 0.1720693 -0.2200685 0.03499996 0.1720693 -0.2198858 0.01749998 0.1678858 -0.2198858 0.03499996 0.1678858 -0.2200685 0.01749998 0.1637023 -0.2200685 0.03499996 0.1637023 -0.220615 0.01749998 0.1595507 -0.220615 0.03499996 0.1595507 -0.2215213 0.01749998 0.1554625 -0.2215213 0.03499996 0.1554625 -0.2227805 0.01749998 0.1514688 -0.2227805 0.03499996 0.1514688 -0.224383 0.01749998 0.1476001 -0.224383 0.03499996 0.1476001 -0.2263166 0.01749998 0.1438858 -0.2263166 0.03499996 0.1438858 -0.2285665 0.01749998 0.1403541 -0.2285665 0.03499996 0.1403541 -0.2311156 0.01749998 0.137032 -0.2311156 0.03499996 0.137032 -0.2339447 0.01749998 0.1339446 -0.2339447 0.03499996 0.1339446 -0.237032 0.01749998 0.1311157 -0.237032 0.03499996 0.1311157 -0.2403541 0.01749998 0.1285665 -0.2403541 0.03499996 0.1285665 -0.2438858 0.01749998 0.1263166 -0.2438858 0.03499996 0.1263166 -0.2476001 0.01749998 0.124383 -0.2476001 0.03499996 0.124383 -0.2514688 0.01749998 0.1227806 -0.2514688 0.03499996 0.1227806 -0.2554625 0.01749998 0.1215214 -0.2554625 0.03499996 0.1215214 -0.2595507 0.01749998 0.120615 -0.2595507 0.03499996 0.120615 -0.2637023 0.01749998 0.1200684 -0.2637023 0.03499996 0.1200684 -0.2678858 0.01749998 0.1198858 -0.2678858 0.03499996 0.1198858 -0.2720693 0.01749998 0.1200684 -0.2720693 0.03499996 0.1200684 -0.2762209 0.01749998 0.120615 -0.2762209 0.03499996 0.120615 -0.2803092 0.01749998 0.1215214 -0.2803092 0.03499996 0.1215214 -0.2843028 0.01749998 0.1227806 -0.2843028 0.03499996 0.1227806 -0.2881715 0.01749998 0.124383 -0.2881715 0.03499996 0.124383 -0.2918858 0.01749998 0.1263166 -0.2918858 0.03499996 0.1263166 -0.2954175 0.01749998 0.1285665 -0.2954175 0.03499996 0.1285665 -0.2987396 0.01749998 0.1311157 -0.2987396 0.03499996 0.1311157 -0.301827 0.01749998 0.1339446 -0.301827 0.03499996 0.1339446 -0.304656 0.01749998 0.137032 -0.304656 0.03499996 0.137032 -0.3072051 0.01749998 0.1403541 -0.3072051 0.03499996 0.1403541 -0.309455 0.01749998 0.1438858 -0.309455 0.03499996 0.1438858 -0.3113886 0.01749998 0.1476001 -0.3113886 0.03499996 0.1476001 -0.3129911 0.01749998 0.1514688 -0.3129911 0.03499996 0.1514688 -0.3142502 0.01749998 0.1554625 -0.3142502 0.03499996 0.1554625 -0.3151566 0.01749998 0.1595507 -0.3151566 0.03499996 0.1595507 -0.3157032 0.01749998 0.1637023 -0.3157032 0.03499996 0.1637023 -0.3158858 0.01749998 0.1678858</float_array>
          <technique_common>
            <accessor source="#trapezoid-mesh-positions-array" count="288" stride="3">
              <param name="X" type="float"/>
              <param name="Y" type="float"/>
              <param name="Z" type="float"/>
            </accessor>
          </technique_common>
        </source>
        <source id="trapezoid-mesh-normals">
          <float_array id="trapezoid-mesh-normals-array" count="1089">0.9990484 0 -0.04361557 0.9990485 0 -0.04361587 0.9914445 0 -0.1305299 0.9914443 0 -0.1305308 0.9762973 0 -0.2164343 0.9762973 0 -0.2164342 0.9537152 0 -0.3007115 0.9537159 0 -0.3007094 0.9238785 0 -0.3826862 0.9238795 0 -0.3826836 0.887012 0 -0.4617467 0.8870104 0 -0.4617496 0.8433904 0 -0.5373014 0.8433926 0 -0.537298 0.7933565 0 -0.6087574 0.7933566 0 -0.6087573 0.7372773 0 -0.6755903 0.6755908 0 -0.7372768 0.6755908 0 -0.7372769 0.6087562 0 -0.7933574 0.6087608 0 -0.793354 0.5372974 0 -0.8433929 0.5373026 0 -0.8433896 0.4617493 0 -0.8870105 0.4617438 0 -0.8870134 0.3826825 0 -0.9238801 0.3826886 0 -0.9238775 0.3007032 0 -0.9537178 0.3007097 0 -0.9537158 0.2164338 0 -0.9762973 0.2164406 0 -0.9762958 0.1305323 0 -0.9914441 0.1305183 0 -0.9914459 0.04362463 0 -0.9990481 0.04361754 0 -0.9990484 -0.04361718 0 -0.9990484 -0.04362428 0 -0.9990481 -0.1305183 0 -0.9914459 -0.1305323 0 -0.9914441 -0.2164406 0 -0.9762958 -0.2164338 0 -0.9762973 -0.3007097 0 -0.9537158 -0.3007032 0 -0.9537178 -0.3826885 0 -0.9238775 -0.3826825 0 -0.92388 -0.4617453 0 -0.8870126 -0.4617511 0 -0.8870096 -0.5373024 0 -0.8433896 -0.5372975 0 -0.8433928 -0.6087607 0 -0.793354 -0.6087563 0 -0.7933574 -0.6755908 0 -0.7372768 -0.6755908 0 -0.7372769 -0.7372773 0 -0.6755903 -0.7933546 0 -0.6087598 -0.8433924 0 -0.5372982 -0.8433904 0 -0.5373013 -0.8870104 0 -0.4617496 -0.887012 0 -0.4617467 -0.9238795 0 -0.3826836 -0.9238785 0 -0.3826862 -0.953717 0 -0.3007059 -0.9537164 0 -0.3007078 -0.9762964 0 -0.2164381 -0.9762964 0 -0.2164381 -0.9914448 0 -0.1305269 -0.991445 0 -0.130526 -0.9990483 0 -0.04361981 -0.9990483 0 -0.04361951 -0.9990483 0 0.04361981 -0.9990483 0 0.04361981 -0.9914451 0 0.1305251 -0.9914448 0 0.1305269 -0.976296 0 0.2164396 -0.9762964 0 0.2164381 -0.953717 0 0.3007059 -0.9537164 0 0.3007078 -0.9238795 0 0.3826836 -0.9238806 0 0.3826812 -0.8870104 0 0.4617496 -0.887012 0 0.4617467 -0.8433904 0 0.5373014 -0.8433904 0 0.5373013 -0.793352 0 0.6087633 -0.7933546 0 0.6087598 -0.7372806 0 0.6755868 -0.7372741 0 0.6755939 -0.6755908 0 0.7372768 -0.6755908 0 0.7372769 -0.6087607 0 0.793354 -0.6087608 0 0.793354 -0.5373024 0 0.8433896 -0.5372925 0 0.8433961 -0.4617509 0 0.8870097 -0.4617511 0 0.8870096 -0.3826825 0 0.9238801 -0.3826825 0 0.92388 -0.3007032 0 0.9537178 -0.3007097 0 0.9537158 -0.2164338 0 0.9762973 -0.2164474 0 0.9762943 -0.1305253 0 0.991445 -0.04362428 0 0.9990481 -0.04361724 0 0.9990484 0.04361754 0 0.9990484 0.04362463 0 0.9990481 0.1305253 0 0.991445 0.2164474 0 0.9762943 0.2164338 0 0.9762973 0.3007097 0 0.9537158 0.3007032 0 0.9537178 0.3826825 0 0.9238801 0.3826825 0 0.92388 0.4617493 0 0.8870105 0.5372924 0 0.8433961 0.5373026 0 0.8433896 0.6087607 0 0.793354 0.6087608 0 0.793354 0.6755908 0 0.7372768 0.6755908 0 0.7372769 0.7372741 0 0.6755939 0.7372806 0 0.6755868 0.7933565 0 0.6087574 0.793354 0 0.6087607 0.8433904 0 0.5373014 0.8433904 0 0.5373013 0.887012 0 0.4617467 0.8870104 0 0.4617496 0.9238806 0 0.3826812 0.9238795 0 0.3826836 0.9537152 0 0.3007115 0.9537159 0 0.3007094 0.9762973 0 0.2164343 0.976297 0 0.2164358 0.9914443 0 0.1305308 0.9914445 0 0.1305289 0.9990485 0 0.04361587 0.9990485 0 0.04361587 -0.9990482 0 0.04362028 -0.9914458 0 0.1305191 -0.9914458 0 0.1305199 -0.9762954 0 0.2164426 -0.9762951 0 0.216444 -0.9537185 0 0.3007011 -0.953718 0 0.3007029 -0.9238782 0 0.3826867 -0.9238764 0 0.3826912 -0.887012 0 0.4617465 -0.8870121 0 0.4617463 -0.84339 0 0.537302 -0.8433919 0 0.5372991 -0.7933535 0 0.6087614 -0.7933582 0 0.6087551 -0.737275 0 0.6755927 -0.7372752 0 0.6755926 -0.6755917 0 0.737276 -0.6755952 0 0.7372728 -0.6087551 0 0.7933583 -0.6087591 0 0.7933551 -0.5372991 0 0.8433918 -0.5373038 0 0.8433889 -0.4617494 0 0.8870105 -0.3826819 0 0.9238802 -0.3826874 0 0.9238779 -0.3007011 0 0.9537184 -0.300707 0 0.9537166 -0.2164469 0 0.9762944 -0.216435 0 0.9762971 -0.1305275 0 0.9914447 -0.1305213 0 0.9914456 -0.04362362 0 0.9990481 -0.04361099 0 0.9990487 0.04361063 0 0.9990487 0.04362332 0 0.9990481 0.1305222 0 0.9914454 0.1305285 0 0.9914447 0.2164334 0 0.9762974 0.2164455 0 0.9762947 0.3007089 0 0.953716 0.3007032 0 0.9537178 0.382686 0 0.9238785 0.3826808 0 0.9238807 0.461748 0 0.8870112 0.5373036 0 0.8433889 0.5372992 0 0.8433917 0.6087607 0 0.7933539 0.6087568 0 0.7933568 0.6755952 0 0.7372728 0.6755918 0 0.7372759 0.737275 0 0.6755927 0.7372752 0 0.6755926 0.7933518 0 0.6087635 0.8433918 0 0.5372992 0.84339 0 0.537302 0.8870105 0 0.4617493 0.8870106 0 0.4617493 0.9238789 0 0.3826851 0.9238808 0 0.3826805 0.9537168 0 0.3007062 0.9537174 0 0.3007043 0.9762958 0 0.2164406 0.9762962 0 0.2164392 0.9914448 0 0.1305269 0.9914449 0 0.1305261 0.9990484 0 0.04361677 0.9990484 0 0.04361677 0.9990484 0 -0.04361677 0.9990484 0 -0.04361701 0.9914449 0 -0.1305261 0.9762958 0 -0.2164406 0.9762964 0 -0.2164378 0.9537163 0 -0.300708 0.9537174 0 -0.3007043 0.9238798 0 -0.3826829 0.9238798 0 -0.3826828 0.8870092 0 -0.4617519 0.8870106 0 -0.4617493 0.8433918 0 -0.5372992 0.84339 0 -0.537302 0.793354 0 -0.6087605 0.7933542 0 -0.6087604 0.7372779 0 -0.6755896 0.7372781 0 -0.6755895 0.6755917 0 -0.737276 0.6755883 0 -0.7372791 0.6087607 0 -0.7933539 0.6087648 0 -0.7933508 0.5372991 0 -0.8433918 0.5372947 0 -0.8433947 0.461753 0 -0.8870086 0.4617431 0 -0.8870139 0.382686 0 -0.9238785 0.3826808 0 -0.9238807 0.3007089 0 -0.953716 0.300709 0 -0.953716 0.2164334 0 -0.9762974 0.2164395 0 -0.9762961 0.1305285 0 -0.9914447 0.1305285 0 -0.9914447 0.04361701 0 -0.9990484 0.04361701 0 -0.9990484 -0.0436173 0 -0.9990484 -0.0436173 0 -0.9990484 -0.1305275 0 -0.9914447 -0.1305276 0 -0.9914448 -0.2164409 0 -0.9762957 -0.216435 0 -0.9762971 -0.3007069 0 -0.9537166 -0.300707 0 -0.9537166 -0.3826819 0 -0.9238802 -0.3826874 0 -0.9238779 -0.4617445 0 -0.8870131 -0.4617545 0 -0.8870078 -0.5372946 0 -0.8433947 -0.5372992 0 -0.8433917 -0.608763 0 -0.7933521 -0.6087591 0 -0.7933551 -0.6755883 0 -0.7372791 -0.6755918 0 -0.7372759 -0.7372779 0 -0.6755896 -0.7372781 0 -0.6755895 -0.7933558 0 -0.6087583 -0.7933558 0 -0.6087582 -0.84339 0 -0.537302 -0.8433919 0 -0.5372991 -0.887012 0 -0.4617465 -0.8870108 0 -0.461749 -0.9238772 0 -0.3826889 -0.9238774 0 -0.3826889 -0.9537185 0 -0.3007011 -0.9537173 0 -0.3007048 -0.9762957 0 -0.2164412 -0.9762951 0 -0.216444 -0.9914458 0 -0.1305191 -0.9914458 0 -0.130519 -0.9990482 0 -0.04362058 -0.9990482 0 -0.04362028 -0.9990482 0 0.04362034 0 -1 0 0 -1 -6.95685e-7 0 -1 7.76584e-7 0 -1 3.47841e-7 0 -1 -7.76576e-7 0 -1 3.47844e-7 0 -1 7.76576e-7 0 -1 5.21773e-7 0 -1 -3.47837e-7 0 -1 -7.76581e-7 0 -1 -2.6088e-7 0 -1 -4.34791e-7 0 -1 -3.88295e-7 0 -1 0 0 -1 -3.8829e-7 0 -1 -1.73922e-7 0 -1 3.88281e-7 0 -1 -1.73924e-7 0 -1 3.8829e-7 0 -1 -1.94145e-7 0 -1 0 0 -1 0 0 -1 6.95681e-7 0 -1 -1.94148e-7 0 -1 3.88286e-7 0 -1 -7.76571e-7 0 -1 6.95691e-7 0 -1 6.95687e-7 0 -1 6.95689e-7 0 -1 1.73922e-7 0 -1 6.08735e-7 0 -1 2.60886e-7 0 -1 7.76571e-7 0 -1 1.73918e-7 0 -1 -3.47844e-7 0 -1 -3.47841e-7 0 -1 -1.82011e-7 0 -1 1.94145e-7 0 -1 6.95679e-7 0 -1 6.95685e-7 0 -1 -6.95683e-7 0 -1 6.95683e-7 0 1 0 0 1 3.47844e-7 0 1 1.21747e-6 0 1 5.21773e-7 0 1 1.55316e-6 0 1 -5.21761e-7 0 1 7.76571e-7 0 1 6.95689e-7 0 1 3.47837e-7 0 1 -7.7659e-7 0 1 -6.95689e-7 0 1 -3.8829e-7 0 1 -6.95681e-7 0 1 6.95681e-7 0 1 -3.64022e-7 0 1 -6.95685e-7 0 1 3.8829e-7 0 1 -1.39137e-6 0 1 -7.76581e-7 0 1 1.39136e-6 0 1 1.39136e-6 0 1 -1.39137e-6 0 1 1.39137e-6 0 1 -1.55315e-6 0 1 1.55315e-6 0 1 1.04355e-6 0 1 -6.95673e-7 0 1 -1.55316e-6 0 1 -8.69592e-7 0 1 -1.7392e-7 0 1 -3.47844e-7 0 1 7.76562e-7 0 1 -3.47848e-7 0 1 7.76581e-7 0 1 1.94145e-7 0 1 1.21339e-7 0 1 -3.88295e-7 0 1 7.7659e-7 0 1 -1.55314e-6 0 1 1.39137e-6 0 1 1.39138e-6 0 1 1.39138e-6 0 1 -1.55315e-6</float_array>
          <technique_common>
            <accessor source="#trapezoid-mesh-normals-array" count="363" stride="3">
              <param name="X" type="float"/>
              <param name="Y" type="float"/>
              <param name="Z" type="float"/>
            </accessor>
          </technique_common>
        </source>
        <vertices id="trapezoid-mesh-vertices">
          <input semantic="POSITION" source="#trapezoid-mesh-positions"/>
        </vertices>
        <triangles count="576">
          <input semantic="VERTEX" source="#trapezoid-mesh-vertices" offset="0"/>
          <input semantic="NORMAL" source="#trapezoid-mesh-normals" offset="1"/>
          <p>0 0 1 0 2 0 1 1 3 1 2 1 2 2 3 2 4 2 3 3 5 3 4 3 4 4 5 4 6 4 5 5 7 5 6 5 6 6 7 6 8 6 7 7 9 7 8 7 8 8 9 8 10 8 9 9 11 9 10 9 10 10 11 10 12 10 11 11 13 11 12 11 12 12 13 12 14 12 13 13 15 13 14 13 14 14 15 14 16 14 15 15 17 15 16 15 16 16 17 16 18 16 17 16 19 16 18 16 18 17 19 17 20 17 19 18 21 18 20 18 20 19 21 19 22 19 21 20 23 20 22 20 22 21 23 21 24 21 23 22 25 22 24 22 24 23 25 23 26 23 25 24 27 24 26 24 26 25 27 25 28 25 27 26 29 26 28 26 28 27 29 27 30 27 29 28 31 28 30 28 30 29 31 29 32 29 31 30 33 30 32 30 32 31 33 31 34 31 33 32 35 32 34 32 34 33 35 33 36 33 35 34 37 34 36 34 36 35 37 35 38 35 37 36 39 36 38 36 38 37 39 37 40 37 39 38 41 38 40 38 40 39 41 39 42 39 41 40 43 40 42 40 42 41 43 41 44 41 43 42 45 42 44 42 44 43 45 43 46 43 45 44 47 44 46 44 46 45 47 45 48 45 47 46 49 46 48 46 48 47 49 47 50 47 49 48 51 48 50 48 50 49 51 49 52 49 51 50 53 50 52 50 52 51 53 51 54 51 53 52 55 52 54 52 54 53 55 53 56 53 55 53 57 53 56 53 56 54 57 54 58 54 57 54 59 54 58 54 58 55 59 55 60 55 59 56 61 56 60 56 60 57 61 57 62 57 61 58 63 58 62 58 62 59 63 59 64 59 63 60 65 60 64 60 64 61 65 61 66 61 65 62 67 62 66 62 66 63 67 63 68 63 67 64 69 64 68 64 68 65 69 65 70 65 69 66 71 66 70 66 70 67 71 67 72 67 71 68 73 68 72 68 72 69 73 69 74 69 73 70 75 70 74 70 74 71 75 71 76 71 75 72 77 72 76 72 76 73 77 73 78 73 77 74 79 74 78 74 78 75 79 75 80 75 79 76 81 76 80 76 80 77 81 77 82 77 81 78 83 78 82 78 82 79 83 79 84 79 83 80 85 80 84 80 84 81 85 81 86 81 85 82 87 82 86 82 86 83 87 83 88 83 87 84 89 84 88 84 88 85 89 85 90 85 89 86 91 86 90 86 90 87 91 87 92 87 91 88 93 88 92 88 92 89 93 89 94 89 93 90 95 90 94 90 94 91 95 91 96 91 95 92 97 92 96 92 96 93 97 93 98 93 97 94 99 94 98 94 98 95 99 95 100 95 99 96 101 96 100 96 100 97 101 97 102 97 101 98 103 98 102 98 102 99 103 99 104 99 103 100 105 100 104 100 104 101 105 101 106 101 105 101 107 101 106 101 106 102 107 102 108 102 107 103 109 103 108 103 108 104 109 104 110 104 109 105 111 105 110 105 110 106 111 106 112 106 111 106 113 106 112 106 112 107 113 107 114 107 113 108 115 108 114 108 114 109 115 109 116 109 115 110 117 110 116 110 116 111 117 111 118 111 117 112 119 112 118 112 118 113 119 113 120 113 119 113 121 113 120 113 120 114 121 114 122 114 121 115 123 115 122 115 122 116 123 116 124 116 123 117 125 117 124 117 124 118 125 118 126 118 125 119 127 119 126 119 126 120 127 120 128 120 127 121 129 121 128 121 128 122 129 122 130 122 129 123 131 123 130 123 130 124 131 124 132 124 131 125 133 125 132 125 132 126 133 126 134 126 133 127 135 127 134 127 134 128 135 128 136 128 135 129 137 129 136 129 136 130 137 130 138 130 137 131 139 131 138 131 138 132 139 132 140 132 139 133 141 133 140 133 140 134 141 134 142 134 141 135 143 135 142 135 142 136 143 136 0 136 143 137 1 137 0 137 144 138 145 138 146 138 145 139 147 139 146 139 146 140 147 140 148 140 147 141 149 141 148 141 148 142 149 142 150 142 149 143 151 143 150 143 150 144 151 144 152 144 151 145 153 145 152 145 152 146 153 146 154 146 153 147 155 147 154 147 154 148 155 148 156 148 155 149 157 149 156 149 156 150 157 150 158 150 157 151 159 151 158 151 158 152 159 152 160 152 159 153 161 153 160 153 160 154 161 154 162 154 161 155 163 155 162 155 162 156 163 156 164 156 163 157 165 157 164 157 164 158 165 158 166 158 165 159 167 159 166 159 166 160 167 160 168 160 167 161 169 161 168 161 168 161 169 161 170 161 169 162 171 162 170 162 170 163 171 163 172 163 171 164 173 164 172 164 172 165 173 165 174 165 173 166 175 166 174 166 174 167 175 167 176 167 175 168 177 168 176 168 176 169 177 169 178 169 177 170 179 170 178 170 178 171 179 171 180 171 179 172 181 172 180 172 180 173 181 173 182 173 181 174 183 174 182 174 182 175 183 175 184 175 183 176 185 176 184 176 184 177 185 177 186 177 185 178 187 178 186 178 186 179 187 179 188 179 187 180 189 180 188 180 188 181 189 181 190 181 189 182 191 182 190 182 190 182 191 182 192 182 191 183 193 183 192 183 192 184 193 184 194 184 193 185 195 185 194 185 194 186 195 186 196 186 195 187 197 187 196 187 196 188 197 188 198 188 197 189 199 189 198 189 198 190 199 190 200 190 199 122 201 122 200 122 200 191 201 191 202 191 201 192 203 192 202 192 202 193 203 193 204 193 203 194 205 194 204 194 204 195 205 195 206 195 205 196 207 196 206 196 206 197 207 197 208 197 207 198 209 198 208 198 208 199 209 199 210 199 209 200 211 200 210 200 210 201 211 201 212 201 211 202 213 202 212 202 212 203 213 203 214 203 213 204 215 204 214 204 214 205 215 205 216 205 215 206 217 206 216 206 216 207 217 207 218 207 217 208 219 208 218 208 218 208 219 208 220 208 219 209 221 209 220 209 220 210 221 210 222 210 221 211 223 211 222 211 222 212 223 212 224 212 223 213 225 213 224 213 224 214 225 214 226 214 225 215 227 215 226 215 226 216 227 216 228 216 227 217 229 217 228 217 228 218 229 218 230 218 229 219 231 219 230 219 230 220 231 220 232 220 231 221 233 221 232 221 232 222 233 222 234 222 233 223 235 223 234 223 234 224 235 224 236 224 235 225 237 225 236 225 236 226 237 226 238 226 237 227 239 227 238 227 238 228 239 228 240 228 239 229 241 229 240 229 240 230 241 230 242 230 241 231 243 231 242 231 242 232 243 232 244 232 243 233 245 233 244 233 244 234 245 234 246 234 245 235 247 235 246 235 246 236 247 236 248 236 247 237 249 237 248 237 248 238 249 238 250 238 249 239 251 239 250 239 250 240 251 240 252 240 251 241 253 241 252 241 252 242 253 242 254 242 253 243 255 243 254 243 254 244 255 244 256 244 255 245 257 245 256 245 256 246 257 246 258 246 257 247 259 247 258 247 258 248 259 248 260 248 259 249 261 249 260 249 260 250 261 250 262 250 261 251 263 251 262 251 262 252 263 252 264 252 263 253 265 253 264 253 264 254 265 254 266 254 265 255 267 255 266 255 266 256 267 256 268 256 267 257 269 257 268 257 268 258 269 258 270 258 269 259 271 259 270 259 270 260 271 260 272 260 271 261 273 261 272 261 272 262 273 262 274 262 273 263 275 263 274 263 274 264 275 264 276 264 275 265 277 265 276 265 276 266 277 266 278 266 277 267 279 267 278 267 278 268 279 268 280 268 279 269 281 269 280 269 280 270 281 270 282 270 281 271 283 271 282 271 282 272 283 272 284 272 283 273 285 273 284 273 284 274 285 274 286 274 285 275 287 275 286 275 286 276 287 276 144 276 287 277 145 277 144 277 62 278 205 278 60 278 205 278 203 278 60 278 60 278 203 278 58 278 203 278 201 278 58 278 58 278 201 278 56 278 201 279 199 279 56 279 56 278 199 278 54 278 199 279 197 279 54 279 54 280 197 280 52 280 197 278 195 278 52 278 52 278 195 278 50 278 195 281 193 281 50 281 50 282 193 282 48 282 193 283 191 283 48 283 48 284 191 284 46 284 191 278 189 278 46 278 46 278 189 278 44 278 189 278 187 278 44 278 44 278 187 278 42 278 187 285 185 285 42 285 42 278 185 278 40 278 185 286 183 286 40 286 40 287 183 287 38 287 183 288 181 288 38 288 38 278 181 278 36 278 181 278 179 278 36 278 36 278 179 278 34 278 179 289 177 289 34 289 34 290 177 290 32 290 177 291 175 291 32 291 32 292 175 292 30 292 175 293 173 293 30 293 30 294 173 294 28 294 173 295 171 295 28 295 28 296 171 296 26 296 171 278 169 278 26 278 26 297 169 297 24 297 169 281 167 281 24 281 24 298 167 298 22 298 167 278 165 278 22 278 22 299 165 299 20 299 165 278 163 278 20 278 20 297 163 297 18 297 163 300 161 300 18 300 18 290 161 290 16 290 161 278 159 278 16 278 16 301 159 301 14 301 159 278 157 278 14 278 14 278 157 278 12 278 157 278 155 278 12 278 12 302 155 302 10 302 155 278 153 278 10 278 10 278 153 278 8 278 153 278 151 278 8 278 8 303 151 303 6 303 151 300 149 300 6 300 6 278 149 278 4 278 149 278 147 278 4 278 4 278 147 278 2 278 147 304 145 304 2 304 2 278 145 278 0 278 145 278 287 278 0 278 0 278 287 278 142 278 287 278 285 278 142 278 142 287 285 287 140 287 285 278 283 278 140 278 140 287 283 287 138 287 283 305 281 305 138 305 138 278 281 278 136 278 281 278 279 278 136 278 136 278 279 278 134 278 279 278 277 278 134 278 134 278 277 278 132 278 277 278 275 278 132 278 132 278 275 278 130 278 275 278 273 278 130 278 130 278 273 278 128 278 273 278 271 278 128 278 128 278 271 278 126 278 271 306 269 306 126 306 126 282 269 282 124 282 269 278 267 278 124 278 124 278 267 278 122 278 267 278 265 278 122 278 122 278 265 278 120 278 265 283 263 283 120 283 120 282 263 282 118 282 263 281 261 281 118 281 118 278 261 278 116 278 261 307 259 307 116 307 116 278 259 278 114 278 259 307 257 307 114 307 114 278 257 278 112 278 257 308 255 308 112 308 112 278 255 278 110 278 255 309 253 309 110 309 110 310 253 310 108 310 253 278 251 278 108 278 108 278 251 278 106 278 251 288 249 288 106 288 106 302 249 302 104 302 249 283 247 283 104 283 104 278 247 278 102 278 247 311 245 311 102 311 102 290 245 290 100 290 245 312 243 312 100 312 100 278 243 278 98 278 243 278 241 278 98 278 98 297 241 297 96 297 241 313 239 313 96 313 96 301 239 301 94 301 239 281 237 281 94 281 94 314 237 314 92 314 237 313 235 313 92 313 92 315 235 315 90 315 235 279 233 279 90 279 90 302 233 302 88 302 233 278 231 278 88 278 88 302 231 302 86 302 231 278 229 278 86 278 86 278 229 278 84 278 229 278 227 278 84 278 84 292 227 292 82 292 227 278 225 278 82 278 82 278 225 278 80 278 225 316 223 316 80 316 80 278 223 278 78 278 223 278 221 278 78 278 78 278 221 278 76 278 221 317 219 317 76 317 76 278 219 278 74 278 219 278 217 278 74 278 74 278 217 278 72 278 217 278 215 278 72 278 72 278 215 278 70 278 215 278 213 278 70 278 70 278 213 278 68 278 213 278 211 278 68 278 68 278 211 278 66 278 211 318 209 318 66 318 66 278 209 278 64 278 209 319 207 319 64 319 64 278 207 278 62 278 207 279 205 279 62 279 27 320 170 320 29 320 170 321 172 321 29 321 29 320 172 320 31 320 172 321 174 321 31 321 31 320 174 320 33 320 174 322 176 322 33 322 33 320 176 320 35 320 176 323 178 323 35 323 35 324 178 324 37 324 178 320 180 320 37 320 37 320 180 320 39 320 180 325 182 325 39 325 39 326 182 326 41 326 182 327 184 327 41 327 41 320 184 320 43 320 184 328 186 328 43 328 43 329 186 329 45 329 186 330 188 330 45 330 45 320 188 320 47 320 188 320 190 320 47 320 47 331 190 331 49 331 190 332 192 332 49 332 49 331 192 331 51 331 192 333 194 333 51 333 51 334 194 334 53 334 194 335 196 335 53 335 53 336 196 336 55 336 196 337 198 337 55 337 55 326 198 326 57 326 198 320 200 320 57 320 57 326 200 326 59 326 200 320 202 320 59 320 59 320 202 320 61 320 202 320 204 320 61 320 61 338 204 338 63 338 204 320 206 320 63 320 63 320 206 320 65 320 206 339 208 339 65 339 65 320 208 320 67 320 208 320 210 320 67 320 67 320 210 320 69 320 210 340 212 340 69 340 69 320 212 320 71 320 212 320 214 320 71 320 71 320 214 320 73 320 214 320 216 320 73 320 73 320 216 320 75 320 216 320 218 320 75 320 75 320 218 320 77 320 218 320 220 320 77 320 77 320 220 320 79 320 220 341 222 341 79 341 79 320 222 320 81 320 222 342 224 342 81 342 81 320 224 320 83 320 224 337 226 337 83 337 83 320 226 320 85 320 226 320 228 320 85 320 85 320 228 320 87 320 228 320 230 320 87 320 87 320 230 320 89 320 230 337 232 337 89 337 89 320 232 320 91 320 232 337 234 337 91 337 91 324 234 324 93 324 234 320 236 320 93 320 93 320 236 320 95 320 236 333 238 333 95 333 95 343 238 343 97 343 238 327 240 327 97 327 97 344 240 344 99 344 240 320 242 320 99 320 99 320 242 320 101 320 242 320 244 320 101 320 101 320 244 320 103 320 244 345 246 345 103 345 103 320 246 320 105 320 246 346 248 346 105 346 105 347 248 347 107 347 248 325 250 325 107 325 107 320 250 320 109 320 250 320 252 320 109 320 109 320 252 320 111 320 252 348 254 348 111 348 111 329 254 329 113 329 254 349 256 349 113 349 113 338 256 338 115 338 256 350 258 350 115 350 115 351 258 351 117 351 258 352 260 352 117 352 117 353 260 353 119 353 260 320 262 320 119 320 119 331 262 331 121 331 262 333 264 333 121 333 121 354 264 354 123 354 264 320 266 320 123 320 123 355 266 355 125 355 266 320 268 320 125 320 125 331 268 331 127 331 268 340 270 340 127 340 127 338 270 338 129 338 270 320 272 320 129 320 129 356 272 356 131 356 272 320 274 320 131 320 131 320 274 320 133 320 274 320 276 320 133 320 133 357 276 357 135 357 276 320 278 320 135 320 135 320 278 320 137 320 278 320 280 320 137 320 137 358 280 358 139 358 280 359 282 359 139 359 139 320 282 320 141 320 282 320 284 320 141 320 141 320 284 320 143 320 284 360 286 360 143 360 143 320 286 320 1 320 286 320 144 320 1 320 1 320 144 320 3 320 144 320 146 320 3 320 3 347 146 347 5 347 146 320 148 320 5 320 5 347 148 347 7 347 148 361 150 361 7 361 7 320 150 320 9 320 150 320 152 320 9 320 9 320 152 320 11 320 152 320 154 320 11 320 11 320 154 320 13 320 154 320 156 320 13 320 13 320 156 320 15 320 156 320 158 320 15 320 15 320 158 320 17 320 158 320 160 320 17 320 17 320 160 320 19 320 160 361 162 361 19 361 19 362 162 362 21 362 162 320 164 320 21 320 21 320 164 320 23 320 164 320 166 320 23 320 23 320 166 320 25 320 166 327 168 327 25 327 25 343 168 343 27 343 168 333 170 333 27 333</p>
        </triangles>
      </mesh>
    </geometry>
  </library_geometries>
  <library_visual_scenes>
    <visual_scene id="Scene" name="Scene">
      <node id="trapezoid" name="trapezoid" type="NODE">
        <matrix sid="transform">1 0 0 0 0 1 0 0 0 0 1 0 0 0 0 1</matrix>
        <instance_geometry url="#trapezoid-mesh" name="trapezoid"/>
      </node>
    </visual_scene>
  </library_visual_scenes>
  <scene>
    <instance_visual_scene url="#Scene"/>
  </scene>
</COLLADA>