<?xml version="1.0" encoding="utf-8"?>
<COLLADA xmlns="http://www.collada.org/2005/11/COLLADASchema" version="1.4.1" xmlns:xsi="http://www.w3.org/2001/XMLSchema-instance">
  <asset>
    <contributor>
      <author>Blender User</author>
      <authoring_tool>Blender 3.0.1</authoring_tool>
    </contributor>
    <created>2026-06-04T16:19:15</created>
    <modified>2026-06-04T16:19:15</modified>
    <unit name="meter" meter="1"/>
    <up_axis>Z_UP</up_axis>
  </asset>
  <library_images/>
  <library_geometries>
    <geometry id="trapezoid_default_as_machined-mesh" name="trapezoid_default_as_machined">
      <mesh>
        <source id="trapezoid_default_as_machined-mesh-positions">
          <float_array id="trapezoid_default_as_machined-mesh-positions-array" count="2208">0.1054438 0.01378339 -0.01314246 0.1052947 0.01405954 -0.01278257 0.104677 0.01192975 -0.01129126 0.1050995 0.01047289 -0.01231139 0.1051107 0.01036274 -0.01233834 0.1061621 0.01092547 -0.01487672 0.1061804 0.01070296 -0.01492094 0.1051198 0.01025146 -0.01236045 0.1061947 0.01047873 -0.01495546 0.105127 0.01013934 -0.01237773 0.106205 0.01025319 -0.01498019 0.1051321 0.01002657 -0.01239007 0.1062111 0.01002681 -0.01499503 0.1051352 0.009913384 -0.01239752 0.1062132 0.009799957 -0.01499998 0.1051362 0.009799957 -0.01239997 0.1062132 -0.009799957 -0.01499998 0.1051362 -0.009799957 -0.01239997 0.1062111 -0.01002681 -0.01499503 0.1051352 -0.009913384 -0.01239752 0.106205 -0.01025319 -0.01498019 0.1051321 -0.01002657 -0.01239007 0.1061947 -0.01047873 -0.01495546 0.105127 -0.01013934 -0.01237773 0.1061804 -0.01070296 -0.01492094 0.1051198 -0.01025146 -0.01236045 0.1061621 -0.01092547 -0.01487672 0.1051107 -0.01036274 -0.01233834 0.1061398 -0.01114583 -0.01482278 0.1050995 -0.01047289 -0.01231139 0.1061135 -0.01136362 -0.0147593 0.1050864 -0.01058179 -0.01227962 0.1060833 -0.0115785 -0.0146864 0.0949136 0.01058179 0.01227962 0.09388649 0.01136362 0.0147593 0.09490042 0.01047289 0.01231139 0.09386014 0.01114583 0.01482278 0.09488928 0.01036274 0.01233834 0.09383785 0.01092547 0.01487672 0.0948801 0.01025146 0.01236045 0.09381949 0.01070296 0.01492094 0.09487295 0.01013934 0.01237773 0.09380519 0.01047873 0.01495546 0.09486782 0.01002657 0.01239007 0.093795 0.01025319 0.01498019 0.09486478 0.009913384 0.01239752 0.0937888 0.01002681 0.01499503 0.09486371 0.009799957 0.01239997 0.09378677 0.009799957 0.01499998 0.09486371 -0.009799957 0.01239997 0.09378677 -0.009799957 0.01499998 0.09486478 -0.009913384 0.01239752 0.0937888 -0.01002681 0.01499503 0.09486782 -0.01002657 0.01239007 0.093795 -0.01025319 0.01498019 0.09487295 -0.01013934 0.01237773 0.09380519 -0.01047873 0.01495546 0.0948801 -0.01025146 0.01236045 0.09381949 -0.01070296 0.01492094 0.09488928 -0.01036274 0.01233834 0.09383785 -0.01092547 0.01487672 0.09490042 -0.01047289 0.01231139 0.1060492 -0.01178991 -0.01460415 0.1050713 -0.01068919 -0.01224315 0.1060114 -0.01199758 -0.01451277 0.1050543 -0.01079493 -0.01220208 0.1059698 -0.01220107 -0.0144124 0.1050353 -0.01089876 -0.01215636 0.1059246 -0.01239997 -0.01430332 0.1050145 -0.01100051 -0.01210618 0.1058759 -0.01259392 -0.0141856 0.1049919 -0.01109999 -0.01205164 0.1058236 -0.01278257 -0.01405954 0.1049675 -0.01119697 -0.01199281 0.1057681 -0.01296555 -0.01392543 0.1049414 -0.01129126 -0.01192975 0.1057093 -0.01314246 -0.01378339 0.1049137 -0.01138275 -0.01186269 0.1056473 -0.01331305 -0.01363384 0.1048843 -0.01147121 -0.0117917 0.1055823 -0.0134769 -0.0134769 0.1048533 -0.0115565 -0.0117169 0.1054438 -0.01378339 -0.01314246 0.1048208 -0.01163846 -0.01163846 0.1047515 -0.0117917 -0.01147121 0.1052947 -0.01405954 -0.01278257 0.104677 -0.01192975 -0.01129126 0.1051362 -0.01430332 -0.01239997 0.1045978 -0.01205164 -0.01109999 0.1049696 -0.01451277 -0.01199758 0.1045144 -0.01215636 -0.01089876 0.1047959 -0.0146864 -0.0115785 0.1044276 -0.01224315 -0.01068919 0.1046168 -0.01482278 -0.01114583 0.104338 -0.01231139 -0.01047289 0.1044333 -0.01492094 -0.01070296 0.1042463 -0.01236045 -0.01025146 0.104247 -0.01498019 -0.01025319 0.1041531 -0.01239007 -0.01002657 0.1040593 -0.01499998 -0.009799957 0.1040593 -0.01239997 -0.009799957 0.0959407 -0.01499998 0.009799957 0.0959407 -0.01239997 0.009799957 0.09575295 -0.01498019 0.01025319 0.09584683 -0.01239007 0.01002657 0.09556668 -0.01492094 0.01070296 0.09575366 -0.01236045 0.01025146 0.09538322 -0.01482278 0.01114583 0.09566193 -0.01231139 0.01047289 0.09520399 -0.0146864 0.0115785 0.09557235 -0.01224315 0.01068919 0.09503042 -0.01451277 0.01199758 0.09548556 -0.01215636 0.01089876 0.09486371 -0.01430332 0.01239997 0.09540218 -0.01205164 0.01109999 0.09470528 -0.01405954 0.01278257 0.09532296 -0.01192975 0.01129126 0.09455615 -0.01378339 0.01314246 0.1045978 0.01205164 -0.01109999 0.1051362 0.01430332 -0.01239997 0.1045144 0.01215636 -0.01089876 0.1049696 0.01451277 -0.01199758 0.1044276 0.01224315 -0.01068919 0.1047959 0.0146864 -0.0115785 0.104338 0.01231139 -0.01047289 0.1046168 0.01482278 -0.01114583 0.1042463 0.01236045 -0.01025146 0.1044333 0.01492094 -0.01070296 0.1041531 0.01239007 -0.01002657 0.104247 0.01498019 -0.01025319 0.1040593 0.01239997 -0.009799957 0.1040593 0.01499998 -0.009799957 0.0959407 0.01239997 0.009799957 0.0959407 0.01499998 0.009799957 0.09584683 0.01239007 0.01002657 0.09575295 0.01498019 0.01025319 0.09575366 0.01236045 0.01025146 0.09556668 0.01492094 0.01070296 0.09566193 0.01231139 0.01047289 0.09538322 0.01482278 0.01114583 0.09557235 0.01224315 0.01068919 0.09520399 0.0146864 0.0115785 0.09548556 0.01215636 0.01089876 0.09503042 0.01451277 0.01199758 0.09540218 0.01205164 0.01109999 0.09486371 0.01430332 0.01239997 0.09532296 0.01192975 0.01129126 0.09470528 0.01405954 0.01278257 0.09524846 0.0117917 0.01147121 0.09455615 0.01378339 0.01314246 0.09517914 0.01163846 0.01163846 0.1061398 0.01114583 -0.01482278 0.1061135 0.01136362 -0.0147593 0.1050864 0.01058179 -0.01227962 0.1060833 0.0115785 -0.0146864 0.1050713 0.01068919 -0.01224315 0.1060492 0.01178991 -0.01460415 0.1050543 0.01079493 -0.01220208 0.1060114 0.01199758 -0.01451277 0.1050353 0.01089876 -0.01215636 0.1059698 0.01220107 -0.0144124 0.1050145 0.01100051 -0.01210618 0.1059246 0.01239997 -0.01430332 0.1049919 0.01109999 -0.01205164 0.1058759 0.01259392 -0.0141856 0.1049675 0.01119697 -0.01199281 0.1058236 0.01278257 -0.01405954 0.1049414 0.01129126 -0.01192975 0.1057681 0.01296555 -0.01392543 0.1049137 0.01138275 -0.01186269 0.1057093 0.01314246 -0.01378339 0.1048843 0.01147121 -0.0117917 0.1056473 0.01331305 -0.01363384 0.1048533 0.0115565 -0.0117169 0.1055823 0.0134769 -0.0134769 0.1048208 0.01163846 -0.01163846 0.1047515 0.0117917 -0.01147121 0.09514665 0.0115565 0.0117169 0.09441763 0.0134769 0.0134769 0.09511572 0.01147121 0.0117917 0.09435266 0.01331305 0.01363384 0.09508627 0.01138275 0.01186269 0.09429067 0.01314246 0.01378339 0.0950585 0.01129126 0.01192975 0.0942319 0.01296555 0.01392543 0.09503239 0.01119697 0.01199281 0.09417629 0.01278257 0.01405954 0.09500801 0.01109999 0.01205164 0.09412407 0.01259392 0.0141856 0.09498542 0.01100051 0.01210618 0.09407532 0.01239997 0.01430332 0.09496462 0.01089876 0.01215636 0.09403014 0.01220107 0.0144124 0.09494572 0.01079493 0.01220208 0.09398859 0.01199758 0.01451277 0.09492868 0.01068919 0.01224315 0.09395074 0.01178991 0.01460415 0.09391665 0.0115785 0.0146864 0.09386014 -0.01114583 0.01482278 0.09388649 -0.01136362 0.0147593 0.0949136 -0.01058179 0.01227962 0.09391665 -0.0115785 0.0146864 0.09492868 -0.01068919 0.01224315 0.09395074 -0.01178991 0.01460415 0.09494572 -0.01079493 0.01220208 0.09398859 -0.01199758 0.01451277 0.09496462 -0.01089876 0.01215636 0.09403014 -0.01220107 0.0144124 0.09498542 -0.01100051 0.01210618 0.09407532 -0.01239997 0.01430332 0.09500801 -0.01109999 0.01205164 0.09412407 -0.01259392 0.0141856 0.09503239 -0.01119697 0.01199281 0.09417629 -0.01278257 0.01405954 0.0950585 -0.01129126 0.01192975 0.0942319 -0.01296555 0.01392543 0.09508627 -0.01138275 0.01186269 0.09429067 -0.01314246 0.01378339 0.09511572 -0.01147121 0.0117917 0.09435266 -0.01331305 0.01363384 0.09514665 -0.0115565 0.0117169 0.09441763 -0.0134769 0.0134769 0.09517914 -0.01163846 0.01163846 0.09524846 -0.0117917 0.01147121 -0.1054438 -0.01378339 -0.01314246 -0.1052947 -0.01405954 -0.01278257 -0.104677 -0.01192975 -0.01129126 -0.09455615 0.01378339 0.01314246 -0.09470528 0.01405954 0.01278257 -0.09532296 0.01192975 0.01129126 -0.0949136 -0.01058179 0.01227962 -0.09388649 -0.01136362 0.0147593 -0.09490042 -0.01047289 0.01231139 -0.09386014 -0.01114583 0.01482278 -0.09488928 -0.01036274 0.01233834 -0.09383785 -0.01092547 0.01487672 -0.0948801 -0.01025146 0.01236045 -0.09381949 -0.01070296 0.01492094 -0.09487295 -0.01013934 0.01237773 -0.09380519 -0.01047873 0.01495546 -0.09486782 -0.01002657 0.01239007 -0.093795 -0.01025319 0.01498019 -0.09486478 -0.009913384 0.01239752 -0.0937888 -0.01002681 0.01499503 -0.09486371 -0.009799957 0.01239997 -0.09378677 -0.009799957 0.01499998 -0.09486371 0.009799957 0.01239997 -0.09378677 0.009799957 0.01499998 -0.09486478 0.009913384 0.01239752 -0.0937888 0.01002681 0.01499503 -0.09486782 0.01002657 0.01239007 -0.093795 0.01025319 0.01498019 -0.09487295 0.01013934 0.01237773 -0.09380519 0.01047873 0.01495546 -0.0948801 0.01025146 0.01236045 -0.09381949 0.01070296 0.01492094 -0.09488928 0.01036274 0.01233834 -0.09383785 0.01092547 0.01487672 -0.09490042 0.01047289 0.01231139 -0.1050864 0.01058179 -0.01227962 -0.1061135 0.01136362 -0.0147593 -0.1050995 0.01047289 -0.01231139 -0.1061398 0.01114583 -0.01482278 -0.1051107 0.01036274 -0.01233834 -0.1061621 0.01092547 -0.01487672 -0.1051198 0.01025146 -0.01236045 -0.1061804 0.01070296 -0.01492094 -0.105127 0.01013934 -0.01237773 -0.1061947 0.01047873 -0.01495546 -0.1051321 0.01002657 -0.01239007 -0.106205 0.01025319 -0.01498019 -0.1051352 0.009913384 -0.01239752 -0.1062111 0.01002681 -0.01499503 -0.1051362 0.009799957 -0.01239997 -0.1062132 0.009799957 -0.01499998 -0.1051362 -0.009799957 -0.01239997 -0.1062132 -0.009799957 -0.01499998 -0.1051352 -0.009913384 -0.01239752 -0.1062111 -0.01002681 -0.01499503 -0.1051321 -0.01002657 -0.01239007 -0.106205 -0.01025319 -0.01498019 -0.105127 -0.01013934 -0.01237773 -0.1061947 -0.01047873 -0.01495546 -0.1051198 -0.01025146 -0.01236045 -0.1061804 -0.01070296 -0.01492094 -0.1051107 -0.01036274 -0.01233834 -0.1061621 -0.01092547 -0.01487672 -0.1050995 -0.01047289 -0.01231139 -0.1045978 -0.01205164 -0.01109999 -0.1051362 -0.01430332 -0.01239997 -0.1045144 -0.01215636 -0.01089876 -0.1049696 -0.01451277 -0.01199758 -0.1044276 -0.01224315 -0.01068919 -0.1047959 -0.0146864 -0.0115785 -0.104338 -0.01231139 -0.01047289 -0.1046168 -0.01482278 -0.01114583 -0.1042463 -0.01236045 -0.01025146 -0.1044333 -0.01492094 -0.01070296 -0.1041531 -0.01239007 -0.01002657 -0.104247 -0.01498019 -0.01025319 -0.1040593 -0.01239997 -0.009799957 -0.1040593 -0.01499998 -0.009799957 -0.0959407 -0.01239997 0.009799957 -0.0959407 -0.01499998 0.009799957 -0.09584683 -0.01239007 0.01002657 -0.09575295 -0.01498019 0.01025319 -0.09575366 -0.01236045 0.01025146 -0.09556668 -0.01492094 0.01070296 -0.09566193 -0.01231139 0.01047289 -0.09538322 -0.01482278 0.01114583 -0.09557235 -0.01224315 0.01068919 -0.09520399 -0.0146864 0.0115785 -0.09548556 -0.01215636 0.01089876 -0.09503042 -0.01451277 0.01199758 -0.09540218 -0.01205164 0.01109999 -0.09486371 -0.01430332 0.01239997 -0.09532296 -0.01192975 0.01129126 -0.09470528 -0.01405954 0.01278257 -0.09524846 -0.0117917 0.01147121 -0.09455615 -0.01378339 0.01314246 -0.09517914 -0.01163846 0.01163846 -0.09540218 0.01205164 0.01109999 -0.09486371 0.01430332 0.01239997 -0.09548556 0.01215636 0.01089876 -0.09503042 0.01451277 0.01199758 -0.09557235 0.01224315 0.01068919 -0.09520399 0.0146864 0.0115785 -0.09566193 0.01231139 0.01047289 -0.09538322 0.01482278 0.01114583 -0.09575366 0.01236045 0.01025146 -0.09556668 0.01492094 0.01070296 -0.09584683 0.01239007 0.01002657 -0.09575295 0.01498019 0.01025319 -0.0959407 0.01239997 0.009799957 -0.0959407 0.01499998 0.009799957 -0.1040593 0.01239997 -0.009799957 -0.1040593 0.01499998 -0.009799957 -0.1041531 0.01239007 -0.01002657 -0.104247 0.01498019 -0.01025319 -0.1042463 0.01236045 -0.01025146 -0.1044333 0.01492094 -0.01070296 -0.104338 0.01231139 -0.01047289 -0.1046168 0.01482278 -0.01114583 -0.1044276 0.01224315 -0.01068919 -0.1047959 0.0146864 -0.0115785 -0.1045144 0.01215636 -0.01089876 -0.1049696 0.01451277 -0.01199758 -0.1045978 0.01205164 -0.01109999 -0.1051362 0.01430332 -0.01239997 -0.104677 0.01192975 -0.01129126 -0.1052947 0.01405954 -0.01278257 -0.1047515 0.0117917 -0.01147121 -0.1054438 0.01378339 -0.01314246 -0.1048208 0.01163846 -0.01163846 -0.09514665 -0.0115565 0.0117169 -0.09441763 -0.0134769 0.0134769 -0.09511572 -0.01147121 0.0117917 -0.09435266 -0.01331305 0.01363384 -0.09508627 -0.01138275 0.01186269 -0.09429067 -0.01314246 0.01378339 -0.0950585 -0.01129126 0.01192975 -0.0942319 -0.01296555 0.01392543 -0.09503239 -0.01119697 0.01199281 -0.09417629 -0.01278257 0.01405954 -0.09500801 -0.01109999 0.01205164 -0.09412407 -0.01259392 0.0141856 -0.09498542 -0.01100051 0.01210618 -0.09407532 -0.01239997 0.01430332 -0.09496462 -0.01089876 0.01215636 -0.09403014 -0.01220107 0.0144124 -0.09494572 -0.01079493 0.01220208 -0.09398859 -0.01199758 0.01451277 -0.09492868 -0.01068919 0.01224315 -0.09395074 -0.01178991 0.01460415 -0.09391665 -0.0115785 0.0146864 -0.1048533 0.0115565 -0.0117169 -0.1055823 0.0134769 -0.0134769 -0.1048843 0.01147121 -0.0117917 -0.1056473 0.01331305 -0.01363384 -0.1049137 0.01138275 -0.01186269 -0.1057093 0.01314246 -0.01378339 -0.1049414 0.01129126 -0.01192975 -0.1057681 0.01296555 -0.01392543 -0.1049675 0.01119697 -0.01199281 -0.1058236 0.01278257 -0.01405954 -0.1049919 0.01109999 -0.01205164 -0.1058759 0.01259392 -0.0141856 -0.1050145 0.01100051 -0.01210618 -0.1059246 0.01239997 -0.01430332 -0.1050353 0.01089876 -0.01215636 -0.1059698 0.01220107 -0.0144124 -0.1050543 0.01079493 -0.01220208 -0.1060114 0.01199758 -0.01451277 -0.1050713 0.01068919 -0.01224315 -0.1060492 0.01178991 -0.01460415 -0.1060833 0.0115785 -0.0146864 -0.09386014 0.01114583 0.01482278 -0.09388649 0.01136362 0.0147593 -0.0949136 0.01058179 0.01227962 -0.09391665 0.0115785 0.0146864 -0.09492868 0.01068919 0.01224315 -0.09395074 0.01178991 0.01460415 -0.09494572 0.01079493 0.01220208 -0.09398859 0.01199758 0.01451277 -0.09496462 0.01089876 0.01215636 -0.09403014 0.01220107 0.0144124 -0.09498542 0.01100051 0.01210618 -0.09407532 0.01239997 0.01430332 -0.09500801 0.01109999 0.01205164 -0.09412407 0.01259392 0.0141856 -0.09503239 0.01119697 0.01199281 -0.09417629 0.01278257 0.01405954 -0.0950585 0.01129126 0.01192975 -0.0942319 0.01296555 0.01392543 -0.09508627 0.01138275 0.01186269 -0.09429067 0.01314246 0.01378339 -0.09511572 0.01147121 0.0117917 -0.09435266 0.01331305 0.01363384 -0.09514665 0.0115565 0.0117169 -0.09441763 0.0134769 0.0134769 -0.09517914 0.01163846 0.01163846 -0.09524846 0.0117917 0.01147121 -0.1061398 -0.01114583 -0.01482278 -0.1061135 -0.01136362 -0.0147593 -0.1050864 -0.01058179 -0.01227962 -0.1060833 -0.0115785 -0.0146864 -0.1050713 -0.01068919 -0.01224315 -0.1060492 -0.01178991 -0.01460415 -0.1050543 -0.01079493 -0.01220208 -0.1060114 -0.01199758 -0.01451277 -0.1050353 -0.01089876 -0.01215636 -0.1059698 -0.01220107 -0.0144124 -0.1050145 -0.01100051 -0.01210618 -0.1059246 -0.01239997 -0.01430332 -0.1049919 -0.01109999 -0.01205164 -0.1058759 -0.01259392 -0.0141856 -0.1049675 -0.01119697 -0.01199281 -0.1058236 -0.01278257 -0.01405954 -0.1049414 -0.01129126 -0.01192975 -0.1057681 -0.01296555 -0.01392543 -0.1049137 -0.01138275 -0.01186269 -0.1057093 -0.01314246 -0.01378339 -0.1048843 -0.01147121 -0.0117917 -0.1056473 -0.01331305 -0.01363384 -0.1048533 -0.0115565 -0.0117169 -0.1055823 -0.0134769 -0.0134769 -0.1048208 -0.01163846 -0.01163846 -0.1047515 -0.0117917 -0.01147121 -0.005795538 0.01499998 0.001552879 -0.005638122 0.01499998 0.002052068 -0.005437791 0.01499998 0.0025357 0.005908846 0.01499998 0.001041889 0.005795538 0.01499998 0.001552879 -0.004596233 0.01499998 0.003856718 -0.004242599 0.01499998 0.004242599 -0.003856718 0.01499998 0.004596233 -0.004914879 0.01499998 0.003441452 -0.005196094 0.01499998 0.002999961 0.005638122 0.01499998 0.002052068 0.005437791 0.01499998 0.0025357 0.005196094 0.01499998 0.002999961 0.004914879 0.01499998 0.003441452 0.004596233 0.01499998 0.003856718 0.004242599 0.01499998 0.004242599 0.002999961 0.01499998 0.005196094 0.0025357 0.01499998 0.005437791 0.004242599 0.01499998 -0.004242599 0.004596233 0.01499998 -0.003856718 0.003856718 0.01499998 0.004596233 0.003441452 0.01499998 0.004914879 -0.001041889 0.01499998 0.005908846 -0.001552879 0.01499998 0.005795538 -0.002052068 0.01499998 0.005638122 -0.0025357 0.01499998 0.005437791 -0.002999961 0.01499998 0.005196094 -0.003441452 0.01499998 0.004914879 -0.005999982 0.01499998 0 -0.005977153 0.01499998 5.22934e-4 -0.005908846 0.01499998 0.001041889 -0.005977153 0.01499998 -5.22934e-4 -0.005908846 0.01499998 -0.001041889 -0.005795538 0.01499998 -0.001552879 0.002052068 0.01499998 0.005638122 0.001552879 0.01499998 0.005795538 0.001041889 0.01499998 0.005908846 5.22934e-4 0.01499998 0.005977153 0 0.01499998 0.005999982 -5.22934e-4 0.01499998 0.005977153 -0.005638122 0.01499998 -0.002052068 -0.005437791 0.01499998 -0.0025357 -0.005196094 0.01499998 -0.002999961 -0.004242599 0.01499998 -0.004242599 -0.003856718 0.01499998 -0.004596233 -0.003441452 0.01499998 -0.004914879 -0.002999961 0.01499998 -0.005196094 -0.001552879 0.01499998 -0.005795538 -0.001041889 0.01499998 -0.005908846 0.004914879 0.01499998 -0.003441452 0.005196094 0.01499998 -0.002999961 0.005437791 0.01499998 -0.0025357 0.005638122 0.01499998 -0.002052068 0.005795538 0.01499998 -0.001552879 0.005908846 0.01499998 -0.001041889 0.005977153 0.01499998 -5.22934e-4 0.005999982 0.01499998 0 0.005977153 0.01499998 5.22934e-4 0.001041889 0.01499998 -0.005908846 0.001552879 0.01499998 -0.005795538 -0.004914879 0.01499998 -0.003441452 -0.004596233 0.01499998 -0.003856718 -0.0025357 0.01499998 -0.005437791 -0.002052068 0.01499998 -0.005638122 0.002999961 0.01499998 -0.005196094 0.003441452 0.01499998 -0.004914879 0.003856718 0.01499998 -0.004596233 -5.22934e-4 0.01499998 -0.005977153 0 0.01499998 -0.005999982 5.22934e-4 0.01499998 -0.005977153 0.002052068 0.01499998 -0.005638122 0.0025357 0.01499998 -0.005437791 0 0.01239997 0.005999982 5.22934e-4 0.01239997 0.005977153 0.001041889 0.01239997 0.005908846 0.001552879 0.01239997 0.005795538 0.002052068 0.01239997 0.005638122 0.0025357 0.01239997 0.005437791 0.002999961 0.01239997 0.005196094 0.003441452 0.01239997 0.004914879 0.003856718 0.01239997 0.004596233 0.004242599 0.01239997 0.004242599 0.004596233 0.01239997 0.003856718 0.004914879 0.01239997 0.003441452 0.005196094 0.01239997 0.002999961 0.005437791 0.01239997 0.0025357 0.005638122 0.01239997 0.002052068 0.005795538 0.01239997 0.001552879 0.005908846 0.01239997 0.001041889 0.005977153 0.01239997 5.22934e-4 0.005999982 0.01239997 0 0.005977153 0.01239997 -5.22934e-4 0.005908846 0.01239997 -0.001041889 0.005795538 0.01239997 -0.001552879 0.005638122 0.01239997 -0.002052068 0.005437791 0.01239997 -0.0025357 0.005196094 0.01239997 -0.002999961 0.004914879 0.01239997 -0.003441452 0.004596233 0.01239997 -0.003856718 0.004242599 0.01239997 -0.004242599 0.003856718 0.01239997 -0.004596233 0.003441452 0.01239997 -0.004914879 0.002999961 0.01239997 -0.005196094 0.0025357 0.01239997 -0.005437791 0.002052068 0.01239997 -0.005638122 0.001552879 0.01239997 -0.005795538 0.001041889 0.01239997 -0.005908846 5.22934e-4 0.01239997 -0.005977153 0 0.01239997 -0.005999982 -5.22934e-4 0.01239997 -0.005977153 -0.001041889 0.01239997 -0.005908846 -0.001552879 0.01239997 -0.005795538 -0.002052068 0.01239997 -0.005638122 -0.0025357 0.01239997 -0.005437791 -0.002999961 0.01239997 -0.005196094 -0.003441452 0.01239997 -0.004914879 -0.003856718 0.01239997 -0.004596233 -0.004242599 0.01239997 -0.004242599 -0.004596233 0.01239997 -0.003856718 -0.004914879 0.01239997 -0.003441452 -0.005196094 0.01239997 -0.002999961 -0.005437791 0.01239997 -0.0025357 -0.005638122 0.01239997 -0.002052068 -0.005795538 0.01239997 -0.001552879 -0.005908846 0.01239997 -0.001041889 -0.005977153 0.01239997 -5.22934e-4 -0.005999982 0.01239997 0 -0.005977153 0.01239997 5.22934e-4 -0.005908846 0.01239997 0.001041889 -0.005795538 0.01239997 0.001552879 -0.005638122 0.01239997 0.002052068 -0.005437791 0.01239997 0.0025357 -0.005196094 0.01239997 0.002999961 -0.004914879 0.01239997 0.003441452 -0.004596233 0.01239997 0.003856718 -0.004242599 0.01239997 0.004242599 -0.003856718 0.01239997 0.004596233 -0.003441452 0.01239997 0.004914879 -0.002999961 0.01239997 0.005196094 -0.0025357 0.01239997 0.005437791 -0.002052068 0.01239997 0.005638122 -0.001552879 0.01239997 0.005795538 -0.001041889 0.01239997 0.005908846 -5.22934e-4 0.01239997 0.005977153 0 -0.01499998 0.005999982 0 -0.01239997 0.005999982 5.22934e-4 -0.01499998 0.005977153 5.22934e-4 -0.01239997 0.005977153 0.001041889 -0.01499998 0.005908846 0.001041889 -0.01239997 0.005908846 0.001552879 -0.01499998 0.005795538 0.001552879 -0.01239997 0.005795538 0.002052068 -0.01499998 0.005638122 0.002052068 -0.01239997 0.005638122 0.0025357 -0.01499998 0.005437791 0.0025357 -0.01239997 0.005437791 0.002999961 -0.01499998 0.005196094 0.002999961 -0.01239997 0.005196094 0.003441452 -0.01499998 0.004914879 0.003441452 -0.01239997 0.004914879 0.003856718 -0.01499998 0.004596233 0.003856718 -0.01239997 0.004596233 0.004242599 -0.01499998 0.004242599 0.004242599 -0.01239997 0.004242599 0.004596233 -0.01499998 0.003856718 0.004596233 -0.01239997 0.003856718 0.004914879 -0.01499998 0.003441452 0.004914879 -0.01239997 0.003441452 0.005196094 -0.01499998 0.002999961 0.005196094 -0.01239997 0.002999961 0.005437791 -0.01499998 0.0025357 0.005437791 -0.01239997 0.0025357 0.005638122 -0.01499998 0.002052068 0.005638122 -0.01239997 0.002052068 0.005795538 -0.01499998 0.001552879 0.005795538 -0.01239997 0.001552879 0.005908846 -0.01499998 0.001041889 0.005908846 -0.01239997 0.001041889 0.005977153 -0.01499998 5.22934e-4 0.005977153 -0.01239997 5.22934e-4 0.005999982 -0.01499998 0 0.005999982 -0.01239997 0 0.005977153 -0.01499998 -5.22934e-4 0.005977153 -0.01239997 -5.22934e-4 0.005908846 -0.01499998 -0.001041889 0.005908846 -0.01239997 -0.001041889 0.005795538 -0.01499998 -0.001552879 0.005795538 -0.01239997 -0.001552879 0.005638122 -0.01499998 -0.002052068 0.005638122 -0.01239997 -0.002052068 0.005437791 -0.01499998 -0.0025357 0.005437791 -0.01239997 -0.0025357 0.005196094 -0.01499998 -0.002999961 0.005196094 -0.01239997 -0.002999961 0.004914879 -0.01499998 -0.003441452 0.004914879 -0.01239997 -0.003441452 0.004596233 -0.01499998 -0.003856718 0.004596233 -0.01239997 -0.003856718 0.004242599 -0.01499998 -0.004242599 0.004242599 -0.01239997 -0.004242599 0.003856718 -0.01499998 -0.004596233 0.003856718 -0.01239997 -0.004596233 0.003441452 -0.01499998 -0.004914879 0.003441452 -0.01239997 -0.004914879 0.002999961 -0.01499998 -0.005196094 0.002999961 -0.01239997 -0.005196094 0.0025357 -0.01499998 -0.005437791 0.0025357 -0.01239997 -0.005437791 0.002052068 -0.01499998 -0.005638122 0.002052068 -0.01239997 -0.005638122 0.001552879 -0.01499998 -0.005795538 0.001552879 -0.01239997 -0.005795538 0.001041889 -0.01499998 -0.005908846 0.001041889 -0.01239997 -0.005908846 5.22934e-4 -0.01499998 -0.005977153 5.22934e-4 -0.01239997 -0.005977153 0 -0.01499998 -0.005999982 0 -0.01239997 -0.005999982 -5.22934e-4 -0.01499998 -0.005977153 -5.22934e-4 -0.01239997 -0.005977153 -0.001041889 -0.01499998 -0.005908846 -0.001041889 -0.01239997 -0.005908846 -0.001552879 -0.01499998 -0.005795538 -0.001552879 -0.01239997 -0.005795538 -0.002052068 -0.01499998 -0.005638122 -0.002052068 -0.01239997 -0.005638122 -0.0025357 -0.01499998 -0.005437791 -0.0025357 -0.01239997 -0.005437791 -0.002999961 -0.01499998 -0.005196094 -0.002999961 -0.01239997 -0.005196094 -0.003441452 -0.01499998 -0.004914879 -0.003441452 -0.01239997 -0.004914879 -0.003856718 -0.01499998 -0.004596233 -0.003856718 -0.01239997 -0.004596233 -0.004242599 -0.01499998 -0.004242599 -0.004242599 -0.01239997 -0.004242599 -0.004596233 -0.01499998 -0.003856718 -0.004596233 -0.01239997 -0.003856718 -0.004914879 -0.01499998 -0.003441452 -0.004914879 -0.01239997 -0.003441452 -0.005196094 -0.01499998 -0.002999961 -0.005196094 -0.01239997 -0.002999961 -0.005437791 -0.01499998 -0.0025357 -0.005437791 -0.01239997 -0.0025357 -0.005638122 -0.01499998 -0.002052068 -0.005638122 -0.01239997 -0.002052068 -0.005795538 -0.01499998 -0.001552879 -0.005795538 -0.01239997 -0.001552879 -0.005908846 -0.01499998 -0.001041889 -0.005908846 -0.01239997 -0.001041889 -0.005977153 -0.01499998 -5.22934e-4 -0.005977153 -0.01239997 -5.22934e-4 -0.005999982 -0.01499998 0 -0.005999982 -0.01239997 0 -0.005977153 -0.01499998 5.22934e-4 -0.005977153 -0.01239997 5.22934e-4 -0.005908846 -0.01499998 0.001041889 -0.005908846 -0.01239997 0.001041889 -0.005795538 -0.01499998 0.001552879 -0.005795538 -0.01239997 0.001552879 -0.005638122 -0.01499998 0.002052068 -0.005638122 -0.01239997 0.002052068 -0.005437791 -0.01499998 0.0025357 -0.005437791 -0.01239997 0.0025357 -0.005196094 -0.01499998 0.002999961 -0.005196094 -0.01239997 0.002999961 -0.004914879 -0.01499998 0.003441452 -0.004914879 -0.01239997 0.003441452 -0.004596233 -0.01499998 0.003856718 -0.004596233 -0.01239997 0.003856718 -0.004242599 -0.01499998 0.004242599 -0.004242599 -0.01239997 0.004242599 -0.003856718 -0.01499998 0.004596233 -0.003856718 -0.01239997 0.004596233 -0.003441452 -0.01499998 0.004914879 -0.003441452 -0.01239997 0.004914879 -0.002999961 -0.01499998 0.005196094 -0.002999961 -0.01239997 0.005196094 -0.0025357 -0.01499998 0.005437791 -0.0025357 -0.01239997 0.005437791 -0.002052068 -0.01499998 0.005638122 -0.002052068 -0.01239997 0.005638122 -0.001552879 -0.01499998 0.005795538 -0.001552879 -0.01239997 0.005795538 -0.001041889 -0.01499998 0.005908846 -0.001041889 -0.01239997 0.005908846 -5.22934e-4 -0.01499998 0.005977153 -5.22934e-4 -0.01239997 0.005977153</float_array>
          <technique_common>
            <accessor source="#trapezoid_default_as_machined-mesh-positions-array" count="736" stride="3">
              <param name="X" type="float"/>
              <param name="Y" type="float"/>
              <param name="Z" type="float"/>
            </accessor>
          </technique_common>
        </source>
        <source id="trapezoid_default_as_machined-mesh-normals">
          <float_array id="trapezoid_default_as_machined-mesh-normals-array" count="3486">0.9238817 0 0.3826783 0.9238805 0 0.3826811 0.9238795 0 0.3826835 0.9238811 0 0.38268 0.9238779 0 0.3826876 0.9238789 1.82378e-4 0.382685 0.9238805 0 0.3826812 0.9238781 -1.82376e-4 0.3826869 0.9238795 9.11884e-5 0.3826836 0.9238781 0 0.3826871 0.9238786 0 0.3826857 0.9238811 0 0.3826797 0.9238791 0 0.3826847 0.9238794 0 0.3826841 0.9238783 -1.82375e-4 0.3826863 0.9238794 9.11885e-5 0.3826841 0.9238802 0 0.382682 0.9238792 0 0.3826845 0.9238769 -1.82377e-4 0.3826899 0.9238787 -9.11882e-5 0.3826854 0.9238826 1.82376e-4 0.3826761 0.9238784 0 0.3826865 0.9238818 0 0.3826782 0.9238766 -1.82375e-4 0.3826907 0.9238767 9.1188e-5 0.3826903 0.9238826 0 0.3826761 0.9238767 0 0.3826903 0.9238818 -9.11885e-5 0.3826782 0.9238773 4.55942e-5 0.3826889 0.9238786 0 0.3826858 0.9238816 0 0.3826786 0.9238809 0 0.3826802 0.9238789 4.5594e-5 0.3826849 0.9238781 0 0.3826869 0.9238794 0 0.3826838 0.9238842 0 0.3826723 0.9238794 -9.11885e-5 0.3826841 0.9238811 1.82378e-4 0.3826797 0.92388 0 0.3826824 0.9238786 -9.11882e-5 0.3826857 0.9238801 0 0.3826823 0.9238762 0 0.3826918 0.9238805 4.55942e-5 0.3826811 0.9238831 -1.82378e-4 0.3826748 0.9238777 4.5594e-5 0.3826879 0.9238811 9.11876e-5 0.38268 0.9238808 -4.55942e-5 0.3826806 0.9238786 0 0.3826861 0.923882 0 0.3826778 0.9238806 1.83074e-4 0.3826809 0.9238789 -4.55076e-5 0.3826851 0.9238767 0 0.3826907 0.923877 4.55075e-5 0.3826899 0.9238806 0 0.3826809 0.9238837 -4.55076e-5 0.3826733 0.9238809 9.15379e-5 0.3826801 0.9238749 -4.55074e-5 0.3826947 0.9238867 9.15374e-5 0.3826662 0.9238746 -9.15362e-5 0.3826956 0.9238801 0 0.3826822 0.9238762 0 0.3826915 0.9238788 4.55073e-5 0.3826855 0.9238826 -9.1537e-5 0.382676 0.9238864 9.15362e-5 0.3826671 0.9238727 -4.5507e-5 0.3827 0.9238813 0 0.3826792 0.9238807 0 0.3826808 0.923882 9.22406e-5 0.3826775 0.9238803 -4.56378e-5 0.3826816 0.9238822 0 0.3826771 0.9238723 0 0.382701 0.9238761 0 0.3826919 0.923883 0 0.3826751 0.9238821 0 0.3826775 0.9238818 2.28189e-5 0.3826779 0.9238767 -1.14093e-5 0.3826905 0.9238814 -2.28189e-5 0.3826791 0.9238843 5.70472e-6 0.3826719 0.9238744 2.28185e-5 0.3826957 0.9238757 -2.85234e-6 0.3826927 0.9238798 -1.14095e-5 0.382683 0.9238823 3.38716e-6 0.3826771 0.9238808 0 0.3826803 0.9238797 2.85236e-6 0.382683 0.9238805 0 0.3826811 0.9238796 0 0.3826833 0.9238797 0 0.382683 0.9238805 -5.70469e-6 0.3826811 0.9238761 1.14093e-5 0.3826917 0.9238714 -1.14093e-5 0.3827033 0.9238811 0 0.3826799 0.9238798 0 0.382683 0.9238796 0 0.3826834 0.9238842 0 0.3826723 0.9238815 0 0.3826787 0.9238812 0 0.3826795 0.9238768 2.28187e-5 0.3826903 0.9238731 -4.56372e-5 0.382699 0.9238814 0 0.3826791 0.9238776 0 0.3826881 0.9238814 -4.56379e-5 0.3826791 0.9238772 0 0.3826893 0.9238833 0 0.3826747 0.9238768 1.14094e-5 0.3826903 0.9238741 0 0.3826966 0.9238845 -1.14094e-5 0.3826715 0.9238796 0 0.3826836 0.9238759 1.14094e-5 0.3826924 0.9238815 -2.85235e-6 0.3826786 0.9238807 -1.14094e-5 0.3826808 0.9238702 -7.88848e-6 0.3827061 0.9238765 -5.70467e-6 0.3826908 0.9238799 0 0.3826827 0.9238812 0 0.3826797 0.9238855 1.14094e-5 0.382669 0.9238792 0 0.3826844 0.9238814 0 0.3826789 0.923877 0 0.3826897 0.923883 -2.28187e-5 0.3826751 0.9238803 0 0.3826816 0.9238766 1.82375e-4 0.3826907 0.9238767 -9.1188e-5 0.3826903 0.9238809 -1.82378e-4 0.3826802 0.9238823 0 0.3826771 0.923879 0 0.3826851 0.9238786 4.55938e-5 0.3826858 0.9238789 -1.82378e-4 0.382685 0.9238837 0 0.3826733 0.9238849 -9.11894e-5 0.3826704 0.9238758 4.55939e-5 0.3826928 0.9238749 0 0.3826948 0.9238818 4.55942e-5 0.3826782 0.9238766 9.11874e-5 0.3826907 0.9238799 -4.55944e-5 0.3826826 0.9238826 9.1188e-5 0.3826761 0.9238787 -4.55941e-5 0.3826854 0.9238846 -9.11882e-5 0.3826712 0.9238827 0 0.3826757 0.9238813 9.11901e-5 0.3826794 0.9238728 0 0.3827 0.923879 9.11888e-5 0.3826851 0.9238817 -2.28188e-5 0.3826783 0.9238803 4.56378e-5 0.3826816 0.923873 1.71141e-5 0.3826991 0.9238811 9.22405e-5 0.38268 0.9238804 0 0.3826814 0.9238793 9.15389e-5 0.3826841 0.9238807 -4.55074e-5 0.3826806 0.9238722 0 0.3827013 0.9238829 0 0.3826754 0.9238826 9.1537e-5 0.382676 0.9238798 -4.55074e-5 0.382683 0.9238762 -9.15352e-5 0.3826915 0.9238811 4.5508e-5 0.3826798 0.9238867 0 0.3826662 0.9238749 0 0.3826947 0.9238725 0 0.3827004 0.9238847 0 0.3826712 0.9238778 4.55073e-5 0.3826879 0.9238829 -4.55078e-5 0.3826754 0.9238767 9.15364e-5 0.3826907 0.9238799 0 0.3826826 0.9238826 0 0.382676 0.9238773 0 0.3826889 0.9238817 1.42482e-5 0.3826785 0.923879 -9.11888e-5 0.3826851 0.9238796 0 0.3826834 0.9238837 4.5594e-5 0.3826737 0.9238809 -9.1189e-5 0.3826802 0.9238787 0 0.3826854 0.9238728 -9.11882e-5 0.3826996 0.9238849 0 0.3826704 0.9238758 0 0.3826928 0.9238786 9.11876e-5 0.3826858 0.9238846 0 0.3826712 0.9238725 0 0.3827005 0.9238798 -4.55941e-5 0.382683 0.9238769 0 0.3826899 0.9238812 -2.28188e-5 0.3826795 0.9238801 1.14095e-5 0.3826825 -0.9238817 0 0.3826783 -0.9238776 0 0.3826881 -0.9238826 0 0.3826761 -0.9238767 0 0.3826903 -0.9238818 9.11885e-5 0.3826782 -0.9238773 -4.55942e-5 0.3826889 -0.9238786 0 0.3826858 -0.9238816 0 0.3826786 -0.9238809 0 0.3826802 -0.9238789 -4.5594e-5 0.3826849 -0.9238781 0 0.3826869 -0.9238794 0 0.3826838 -0.9238842 0 0.3826723 -0.9238794 9.11885e-5 0.3826841 -0.9238811 -1.82378e-4 0.3826797 -0.9238786 0 0.3826857 -0.92388 0 0.3826824 -0.9238811 0 0.3826797 -0.9238786 9.11882e-5 0.3826857 -0.9238801 0 0.3826823 -0.9238762 0 0.3826918 -0.9238805 -4.55942e-5 0.3826811 -0.9238831 1.82378e-4 0.3826748 -0.9238777 -4.5594e-5 0.3826879 -0.9238811 -9.11876e-5 0.38268 -0.9238808 4.55942e-5 0.3826806 -0.9238786 0 0.3826861 -0.9238766 1.82375e-4 0.3826907 -0.9238818 0 0.3826782 -0.9238784 0 0.3826865 -0.9238826 -1.82376e-4 0.3826761 -0.9238785 9.11883e-5 0.3826859 -0.9238769 1.82377e-4 0.3826899 -0.9238789 0 0.3826849 -0.9238802 0 0.382682 -0.9238794 -9.11885e-5 0.3826838 -0.9238781 1.82376e-4 0.3826869 -0.9238794 0 0.3826841 -0.9238791 0 0.3826847 -0.923878 0 0.3826872 -0.9238795 -9.11884e-5 0.3826835 -0.9238805 0 0.3826811 -0.9238792 -1.82377e-4 0.3826845 -0.9238777 0 0.3826879 -0.9238811 0 0.38268 -0.9238798 0 0.382683 -0.9238805 0 0.3826811 -0.9238814 4.56379e-5 0.3826791 -0.9238772 0 0.3826893 -0.9238833 0 0.3826747 -0.9238815 0 0.3826787 -0.9238812 0 0.3826795 -0.9238768 -1.14094e-5 0.3826903 -0.9238741 0 0.3826966 -0.9238845 1.14094e-5 0.3826715 -0.9238796 0 0.3826836 -0.9238759 -1.14094e-5 0.3826924 -0.9238822 0 0.3826771 -0.9238815 2.85235e-6 0.3826786 -0.9238807 1.14094e-5 0.3826808 -0.9238797 0 0.382683 -0.9238796 0 0.3826833 -0.9238795 0 0.3826835 -0.9238797 -2.85236e-6 0.382683 -0.9238702 7.88848e-6 0.3827061 -0.9238765 5.70467e-6 0.3826908 -0.9238799 0 0.3826827 -0.9238812 0 0.3826797 -0.9238855 -1.14094e-5 0.382669 -0.9238792 0 0.3826844 -0.9238808 0 0.3826803 -0.9238814 0 0.3826789 -0.9238723 0 0.382701 -0.923877 0 0.3826897 -0.923883 2.28187e-5 0.3826751 -0.9238814 0 0.3826791 -0.9238803 0 0.3826816 -0.9238823 0 0.3826767 -0.923882 0 0.3826777 -0.9238731 4.56372e-5 0.382699 -0.923877 -1.14094e-5 0.3826897 -0.9238812 0 0.3826793 -0.9238842 0 0.3826723 -0.9238798 0 0.3826831 -0.92388 0 0.3826823 -0.9238811 0 0.3826799 -0.9238716 0 0.3827027 -0.9238762 -1.42617e-5 0.3826914 -0.9238809 1.06964e-6 0.3826802 -0.9238818 -5.7047e-6 0.382678 -0.9238799 1.14095e-5 0.3826827 -0.9238757 0 0.3826927 -0.9238744 -1.14092e-5 0.3826957 -0.9238845 -1.14094e-5 0.3826716 -0.9238814 2.28189e-5 0.3826791 -0.9238767 0 0.3826905 -0.9238818 -2.28189e-5 0.3826779 -0.9238821 0 0.3826775 -0.923883 0 0.3826751 -0.9238763 0 0.3826913 -0.9238803 4.56378e-5 0.3826816 -0.9238811 -9.22405e-5 0.38268 -0.9238804 0 0.3826814 -0.9238793 -9.15389e-5 0.3826841 -0.9238807 4.55074e-5 0.3826806 -0.9238722 0 0.3827013 -0.9238829 0 0.3826754 -0.9238826 -9.1537e-5 0.382676 -0.9238798 4.55074e-5 0.382683 -0.9238762 9.15352e-5 0.3826915 -0.9238811 -4.5508e-5 0.3826798 -0.9238867 0 0.3826662 -0.9238749 0 0.3826947 -0.9238725 0 0.3827004 -0.923882 0 0.3826778 -0.9238847 0 0.3826712 -0.9238778 -4.55073e-5 0.3826879 -0.9238806 0 0.3826809 -0.9238829 4.55078e-5 0.3826754 -0.9238767 -9.15364e-5 0.3826907 -0.9238799 0 0.3826826 -0.9238826 0 0.382676 -0.9238773 0 0.3826889 -0.9238817 -1.42482e-5 0.3826785 -0.923882 -9.22406e-5 0.3826775 -0.9238809 0 0.3826802 -0.9238813 0 0.3826792 -0.9238727 4.5507e-5 0.3827 -0.9238864 -9.15362e-5 0.3826671 -0.9238826 9.1537e-5 0.382676 -0.9238788 -4.55073e-5 0.3826855 -0.9238762 0 0.3826915 -0.9238801 0 0.3826822 -0.9238746 9.15362e-5 0.3826956 -0.9238867 -9.15374e-5 0.3826662 -0.9238749 4.55074e-5 0.3826947 -0.9238837 4.55076e-5 0.3826733 -0.923877 -4.55075e-5 0.3826899 -0.9238767 0 0.3826907 -0.9238789 0 0.3826851 -0.9238806 -1.83074e-4 0.3826809 -0.9238824 0 0.3826768 -0.9238767 -6.8391e-5 0.3826906 -0.9238792 0 0.3826845 -0.923879 9.11888e-5 0.3826851 -0.9238796 0 0.3826834 -0.9238837 -4.5594e-5 0.3826737 -0.9238809 9.1189e-5 0.3826802 -0.9238787 0 0.3826854 -0.9238728 9.11882e-5 0.3826996 -0.9238818 -4.55942e-5 0.3826782 -0.9238849 0 0.3826704 -0.9238758 0 0.3826928 -0.9238786 -9.11876e-5 0.3826858 -0.9238799 4.55944e-5 0.3826826 -0.9238846 0 0.3826712 -0.9238725 0 0.3827005 -0.9238827 0 0.3826757 -0.9238813 -9.11901e-5 0.3826794 -0.9238798 4.55941e-5 0.382683 -0.9238769 0 0.3826899 -0.9238812 2.28188e-5 0.3826795 -0.9238801 -1.14095e-5 0.3826825 -0.9238766 -1.82375e-4 0.3826907 -0.9238767 9.1188e-5 0.3826903 -0.9238809 1.82378e-4 0.3826802 -0.9238823 0 0.3826771 -0.923879 0 0.3826851 -0.9238786 -4.55938e-5 0.3826858 -0.9238789 1.82378e-4 0.382685 -0.9238837 0 0.3826733 -0.9238849 9.11894e-5 0.3826704 -0.9238758 -4.55939e-5 0.3826928 -0.9238749 0 0.3826948 -0.9238766 -9.11874e-5 0.3826907 -0.9238826 -9.1188e-5 0.3826761 -0.9238787 4.55941e-5 0.3826854 -0.9238846 9.11882e-5 0.3826712 -0.9238728 0 0.3827 -0.923879 -9.11888e-5 0.3826851 -0.9238817 2.28188e-5 0.3826783 -0.9238803 -4.56378e-5 0.3826816 -0.923873 -1.71141e-5 0.3826991 0 0 1 0 0 -1 0 0.591309 -0.8064451 0 0.5913082 -0.8064458 0 0.6259253 -0.7798831 0 0.6259267 -0.779882 0 0.6593458 -0.7518399 0 0.6593439 -0.7518416 0 0.6915113 -0.7223656 0 0.6915126 -0.7223645 0 0.7372789 -0.6755885 0 0.7372781 -0.6755895 0 0.793354 -0.6087606 0 0.7933544 -0.60876 0 0.8433894 -0.537303 0 0.8433917 -0.5372992 0 0.8870108 -0.4617489 0 0.8870109 -0.4617487 0 0.9238786 -0.3826857 0 0.9238796 -0.3826833 0 0.9537166 -0.3007071 0 0.953718 -0.3007025 0 0.9762956 -0.2164419 0 0.9762973 -0.2164342 0 0.9914448 -0.1305268 0 0.9914452 -0.1305238 0 0.9990484 -0.04361623 0 0.9990482 -0.04362094 0 0.5555685 -0.8314709 0 0.5555698 -0.83147 0 0.5187748 -0.854911 0 0.5187774 -0.8549094 0 0.4809897 -0.8767263 0 0.480984 -0.8767294 0 0.4422869 -0.8968737 0 0.4422919 -0.8968712 0 0.4027475 -0.9153111 0 0.4027503 -0.91531 0 0.3624372 -0.9320082 0 0.3624402 -0.932007 0 0.3214381 -0.9469306 0 0.3214407 -0.9469298 0 0.2798334 -0.9600487 0 0.1950901 -0.9807854 0 0.2376817 -0.9713431 0 0.2376836 -0.9713426 0 0.2798272 -0.9600505 0 0.02181392 -0.9997621 0 0.0218141 -0.9997621 0 0.06540077 -0.9978591 0 0.06540137 -0.9978591 0 0.10887 -0.994056 0 0.1088681 -0.9940562 0 0.1521247 -0.9883613 0 0.1521221 -0.9883617 0 0.1950917 -0.9807851 0 1 0 0 1 3.08721e-6 0 1 -4.95376e-6 0 1 6.23329e-6 0 1 -8.54998e-6 0 1 -5.54723e-6 0 1 5.29799e-7 0 1 5.14869e-6 0 1 8.47337e-6 0 1 3.40125e-6 0 1 -5.75091e-6 0 1 -6.73475e-6 0 1 7.39072e-6 0 1 -4.13244e-6 0 1 -1.8276e-5 0 1 -6.98961e-7 0 1 -8.26489e-6 0 1 5.68739e-6 0 1 4.5604e-6 0 1 -1.26635e-7 0 1 -2.67523e-6 0 1 -4.52078e-6 0 1 4.518e-6 0 1 -2.09372e-6 0 1 -1.65626e-5 0 1 2.73822e-5 0 1 2.16063e-5 0 1 -5.38488e-6 0 1 3.82262e-6 0 1 5.38991e-6 0 1 5.11082e-6 0 1 4.518e-6 0 1 9.85013e-7 0 1 -7.81764e-6 0 1 -3.56105e-6 0 1 7.64524e-6 0 1 1.67604e-6 0 1 5.42222e-6 0 1 -3.15e-6 0 0.02181386 0.9997621 5.27683e-5 0.06540244 0.9978591 -5.27639e-5 0.02181458 0.9997621 0 0.06540024 0.9978591 0 0.1088694 0.9940561 5.27416e-5 0.1521247 0.9883614 -5.27286e-5 0.1088715 0.9940558 0 0.1521227 0.9883617 0 0.1950904 0.9807853 5.27495e-5 0.2376877 0.9713417 -5.27269e-5 0.1950944 0.9807845 0 0.2376846 0.9713425 0 0.2798283 0.9600501 5.27059e-5 0.3214473 0.9469275 -5.26735e-5 0.2798338 0.9600485 0 0.3214374 0.946931 0 0.3624392 0.9320075 5.26843e-5 0.4027525 0.9153089 -5.26438e-5 0.3624441 0.9320055 0 0.4027472 0.9153113 0 0.4422919 0.8968713 5.26333e-5 0.480995 0.8767234 -5.25851e-5 0.4422998 0.8968674 0 0.4809861 0.8767284 0 0.5187781 0.854909 5.25845e-5 0.5555779 0.8314646 -5.25295e-5 0.5187931 0.8548998 0 0.5555647 0.8314734 0 0.5913083 0.8064456 5.25491e-5 0.6259304 0.779879 -5.24156e-5 0.659355 0.7518318 -5.24867e-5 0.5913233 0.8064346 0 0.6259195 0.7798877 0 0.6593443 0.7518412 5.24857e-5 0.6915212 0.7223562 0 0.6915144 0.7223627 0 0.7372788 0.6755886 0 0.7372798 0.6755876 0 0.7933548 0.6087596 0 0.7933517 0.6087636 0 0.8433898 0.5373021 0 0.8433896 0.5373026 0 0.8870112 0.4617478 0 0.8870089 0.4617523 0 0.9238791 0.3826848 0 0.923878 0.3826873 0 0.9537184 0.3007013 0 0.9537168 0.3007063 0 0.9762969 0.2164362 0 0.9762973 0.2164344 0 0.9914442 0.1305316 0 0.9914451 0.1305243 0 0.9990484 0.04361534 0 0.9990482 0.04362094 -0.04361808 0 -0.9990484 -0.0436207 0 -0.9990482 -0.1305254 0 -0.991445 -0.2164384 0 -0.9762964 -0.2164409 0 -0.9762958 -0.3007046 0 -0.9537174 -0.3007072 0 -0.9537165 -0.3826837 0 -0.9238795 -0.3826828 0 -0.9238799 -0.4617486 0 -0.887011 -0.4617493 0 -0.8870105 -0.5373001 0 -0.8433912 -0.5372989 0 -0.843392 -0.6087625 0 -0.7933526 -0.6087613 0 -0.7933534 -0.6755901 0 -0.7372775 -0.6755908 0 -0.7372768 -0.7372772 0 -0.6755905 -0.7372765 0 -0.6755911 -0.7933533 0 -0.6087617 -0.7933534 0 -0.6087614 -0.8433917 0 -0.5372994 -0.8433918 0 -0.537299 -0.8870107 0 -0.461749 -0.8870105 0 -0.4617493 -0.9238798 0 -0.3826829 -0.9238796 0 -0.3826834 -0.9537168 0 -0.3007065 -0.9537169 0 -0.3007063 -0.9762963 0 -0.2164388 -0.9762961 0 -0.216439 -0.9914449 0 -0.1305264 -0.9914448 0 -0.1305266 -0.9990482 0 -0.04361939 -0.9990482 0 -0.04361939 -0.9990482 0 0.04361939 -0.9990482 0 0.04361939 -0.9914448 0 0.1305265 -0.9914449 0 0.1305266 -0.9762963 0 0.2164388 -0.9762961 0 0.216439 -0.9537168 0 0.3007066 -0.9537169 0 0.3007062 -0.9238798 0 0.3826832 -0.8870107 0 0.461749 -0.8870105 0 0.4617493 -0.8433921 0 0.5372987 -0.8433915 0 0.5372996 -0.7933536 0 0.608761 -0.7933529 0 0.6087621 -0.7372765 0 0.6755911 -0.7372772 0 0.6755905 -0.6755908 0 0.7372768 -0.6755901 0 0.7372775 -0.6087617 0 0.7933533 -0.6087622 0 0.7933528 -0.5372991 0 0.8433918 -0.5372998 0 0.8433914 -0.4617496 0 0.8870103 -0.4617482 0 0.8870111 -0.3826826 0 0.9238799 -0.3826839 0 0.9238794 -0.3007071 0 0.9537166 -0.3007048 0 0.9537174 -0.2164409 0 0.9762958 -0.2164384 0 0.9762964 -0.1305254 0 0.991445 -0.0436207 0 0.9990482 -0.04361808 0 0.9990484 0.04361808 0 0.9990484 0.0436207 0 0.9990482 0.1305254 0 0.991445 0.2164384 0 0.9762964 0.2164409 0 0.9762958 0.3007046 0 0.9537174 0.3007072 0 0.9537165 0.3826837 0 0.9238795 0.3826828 0 0.9238799 0.4617486 0 0.887011 0.4617493 0 0.8870105 0.5373001 0 0.8433912 0.5372989 0 0.843392 0.6087625 0 0.7933526 0.6087613 0 0.7933534 0.6755901 0 0.7372775 0.6755908 0 0.7372768 0.7372772 0 0.6755905 0.7372765 0 0.6755911 0.7933533 0 0.6087617 0.7933534 0 0.6087614 0.8433917 0 0.5372994 0.8433918 0 0.537299 0.8870107 0 0.461749 0.8870105 0 0.4617493 0.9238798 0 0.3826829 0.9238796 0 0.3826834 0.9537168 0 0.3007065 0.9537169 0 0.3007063 0.9762963 0 0.2164388 0.9762961 0 0.216439 0.9914449 0 0.1305264 0.9914448 0 0.1305266 0.9990482 0 0.04361939 0.9990482 0 0.04361939 0.9990482 0 -0.04361939 0.9990482 0 -0.04361939 0.9914448 0 -0.1305265 0.9914449 0 -0.1305266 0.9762963 0 -0.2164388 0.9762961 0 -0.216439 0.9537168 0 -0.3007066 0.9537169 0 -0.3007062 0.9238797 0 -0.382683 0.9238798 0 -0.3826832 0.8870107 0 -0.461749 0.8870105 0 -0.4617493 0.8433921 0 -0.5372987 0.8433915 0 -0.5372996 0.7933536 0 -0.608761 0.7933529 0 -0.6087621 0.7372765 0 -0.6755911 0.7372772 0 -0.6755905 0.6755908 0 -0.7372768 0.6755901 0 -0.7372775 0.6087617 0 -0.7933533 0.6087622 0 -0.7933528 0.5372991 0 -0.8433918 0.5372998 0 -0.8433914 0.4617496 0 -0.8870103 0.4617482 0 -0.8870111 0.3826826 0 -0.9238799 0.3826839 0 -0.9238794 0.3007071 0 -0.9537166 0.3007048 0 -0.9537174 0.2164409 0 -0.9762958 0.2164384 0 -0.9762964 0.1305254 0 -0.991445 0.0436207 0 -0.9990482 0.04361808 0 -0.9990484 -0.3007048 0 -0.9537174 -0.3007071 0 -0.9537166 -0.3826839 0 -0.9238794 -0.3826826 0 -0.9238799 -0.4617482 0 -0.8870111 -0.4617496 0 -0.8870103 -0.5372998 0 -0.8433914 -0.5372991 0 -0.8433918 -0.6087622 0 -0.7933528 -0.6087617 0 -0.7933533 -0.7933529 0 -0.6087621 -0.7933536 0 -0.608761 -0.8433915 0 -0.5372996 -0.8433921 0 -0.5372987 -0.9238798 0 -0.3826832 -0.9238797 0 -0.382683 -0.9537169 0 -0.3007062 -0.9537168 0 -0.3007066 -0.9914449 0 -0.1305266 -0.9914448 0 -0.1305265 -0.9914448 0 0.1305266 -0.9914449 0 0.1305264 -0.9537169 0 0.3007063 -0.9537168 0 0.3007065 -0.9238796 0 0.3826834 -0.9238798 0 0.3826829 -0.8433918 0 0.537299 -0.8433917 0 0.5372994 -0.7933534 0 0.6087614 -0.7933533 0 0.6087617 -0.6087613 0 0.7933534 -0.6087625 0 0.7933526 -0.5372989 0 0.843392 -0.5373001 0 0.8433912 -0.4617493 0 0.8870105 -0.4617486 0 0.887011 -0.3826828 0 0.9238799 -0.3826837 0 0.9238795 -0.3007072 0 0.9537165 -0.3007046 0 0.9537174 0.3007048 0 0.9537174 0.3007071 0 0.9537166 0.3826839 0 0.9238794 0.3826826 0 0.9238799 0.4617482 0 0.8870111 0.4617496 0 0.8870103 0.5372998 0 0.8433914 0.5372991 0 0.8433918 0.6087622 0 0.7933528 0.6087617 0 0.7933533 0.7933529 0 0.6087621 0.7933536 0 0.608761 0.8433915 0 0.5372996 0.8433921 0 0.5372987 0.9238798 0 0.3826832 0.9537169 0 0.3007062 0.9537168 0 0.3007066 0.9914449 0 0.1305266 0.9914448 0 0.1305265 0.9914448 0 -0.1305266 0.9914449 0 -0.1305264 0.9537169 0 -0.3007063 0.9537168 0 -0.3007065 0.9238796 0 -0.3826834 0.9238798 0 -0.3826829 0.8433918 0 -0.537299 0.8433917 0 -0.5372994 0.7933534 0 -0.6087614 0.7933533 0 -0.6087617 0.6087613 0 -0.7933534 0.6087625 0 -0.7933526 0.5372989 0 -0.843392 0.5373001 0 -0.8433912 0.4617493 0 -0.8870105 0.4617486 0 -0.887011 0.3826828 0 -0.9238799 0.3826837 0 -0.9238795 0.3007072 0 -0.9537165 0.3007046 0 -0.9537174 0 -0.02181386 -0.9997621 0 -0.0218141 -0.9997621 0 -0.06540077 -0.9978591 0 -0.06540137 -0.9978591 0 -0.10887 -0.994056 0 -0.1088681 -0.9940562 0 -0.1521247 -0.9883613 0 -0.1521221 -0.9883617 0 -0.195091 -0.9807853 0 -0.1950901 -0.9807854 0 -0.2376817 -0.9713431 0 -0.2376836 -0.9713426 0 -0.2798271 -0.9600504 0 -0.2798334 -0.9600487 0 -0.3214407 -0.9469298 0 -0.3214381 -0.9469306 0 -0.3624402 -0.932007 0 -0.3624372 -0.9320082 0 -0.4027503 -0.91531 0 -0.4027475 -0.9153111 0 -0.4422919 -0.8968712 0 -0.4422869 -0.8968737 0 -0.480984 -0.8767294 0 -0.4809897 -0.8767263 0 -0.5187774 -0.8549094 0 -0.5187748 -0.854911 0 -0.5555698 -0.83147 0 -0.5555685 -0.8314709 0 -0.5913112 -0.8064435 0 -0.5913082 -0.8064458 0 -0.6259253 -0.7798831 0 -0.6259267 -0.779882 0 -0.6593458 -0.7518399 0 -0.6593439 -0.7518416 0 -0.6915113 -0.7223656 0 -0.6915126 -0.7223645 0 -0.7372789 -0.6755885 0 -0.7372781 -0.6755895 0 -0.793354 -0.6087606 0 -0.7933544 -0.60876 0 -0.8433894 -0.537303 0 -0.8433917 -0.5372992 0 -0.8870108 -0.4617489 0 -0.8870109 -0.4617487 0 -0.9238786 -0.3826857 0 -0.9238796 -0.3826833 0 -0.9537166 -0.3007071 0 -0.953718 -0.3007025 0 -0.9762956 -0.2164419 0 -0.9762973 -0.2164342 0 -0.9914448 -0.1305268 0 -0.9914452 -0.1305238 0 -0.9990484 -0.04361623 0 -0.9990482 -0.04362094 0 -1 -4.95376e-6 0 -1 0 0 -1 -4.89709e-6 0 -1 2.65523e-6 0 -1 5.38991e-6 0 -1 -5.75091e-6 0 -1 1.67604e-6 0 -1 5.14869e-6 0 -1 -2.88196e-6 0 -1 -1.598e-6 0 -1 -5.38488e-6 0 -1 -2.09372e-6 0 -1 4.518e-6 0 -1 -4.52078e-6 0 -1 9.85013e-7 0 -1 6.23329e-6 0 -1 -8.54998e-6 0 -1 -1.10988e-6 0 -1 7.64524e-6 0 -1 -3.15e-6 0 -1 -8.26489e-6 0 -1 7.39072e-6 0 -1 -1.26635e-7 0 -1 4.5604e-6 0 -1 -3.88725e-6 0 -1 4.518e-6 0 -1 1.02055e-6 0 -1 7.39072e-6 0 -1 3.40125e-6 0 -1 -1.8276e-5 0 -1 -1.65626e-5 0 -1 2.73822e-5 0 -1 2.16063e-5 0 -0.02181386 0.9997621 0 -0.1088694 0.9940561 0 -0.2376846 0.9713425 0 -0.3214374 0.946931 0 -0.3624392 0.9320075 0 -0.4422919 0.8968713 0 -0.5187781 0.854909 0 -0.5913083 0.8064456 0 -0.6593443 0.7518412 0 -0.9990482 0.0436204 0 -0.9990484 0.04361534 0 -0.9914451 0.1305243 0 -0.9914442 0.1305316 0 -0.9762973 0.2164344 0 -0.9762969 0.2164362 0 -0.9537168 0.3007063 0 -0.9537184 0.3007013 0 -0.923878 0.3826873 0 -0.9238791 0.3826848 0 -0.8870089 0.4617523 0 -0.8870112 0.4617478 0 -0.8433896 0.5373026 0 -0.8433898 0.5373021 0 -0.7933517 0.6087636 0 -0.7933548 0.6087596 0 -0.7372798 0.6755876 0 -0.7372788 0.6755886 -5.24859e-5 -0.6915234 0.7223542 5.24156e-5 -0.659355 0.7518318 0 -0.6915123 0.7223648 -5.25491e-5 -0.6259305 0.779879 5.24867e-5 -0.5913233 0.8064346 0 -0.6259194 0.7798879 -5.25843e-5 -0.5555758 0.831466 5.25295e-5 -0.5187931 0.8548998 0 -0.5555669 0.831472 -5.26332e-5 -0.4809947 0.8767236 5.25851e-5 -0.4422998 0.8968674 0 -0.4809864 0.8767281 -5.26947e-5 -0.4027507 0.9153097 5.26438e-5 -0.3624441 0.9320055 0 -0.4027491 0.9153105 5.26735e-5 -0.2798338 0.9600485 -5.27059e-5 -0.3214469 0.9469277 0 -0.2798293 0.9600498 5.27269e-5 -0.1950944 0.9807845 -5.27497e-5 -0.2376884 0.9713415 0 -0.195091 0.9807851 -5.27417e-5 -0.152125 0.9883613 5.27286e-5 -0.1088715 0.9940558 0 -0.1521233 0.9883616 -5.27683e-5 -0.06540244 0.9978591 5.27639e-5 -0.02181458 0.9997621 0 -0.06540042 0.9978592 0 -0.02181398 0.9997621 0 -0.02181428 0.9997621 0 -0.06540817 0.9978586 0 -0.06540882 0.9978586 0 -0.1088669 0.9940564 0 -0.1088637 0.9940568 0 -0.1521257 0.9883612 0 -0.1521244 0.9883614 0 -0.1950883 0.9807858 0 -0.1950943 0.9807845 0 -0.2376819 0.9713431 0 -0.2376806 0.9713433 0 -0.2798293 0.9600498 0 -0.2798233 0.9600515 0 -0.3214386 0.9469305 0 -0.3214388 0.9469304 0 -0.3624334 0.9320097 0 -0.3624418 0.9320065 0 -0.4027414 0.9153139 0 -0.4027526 0.9153088 0 -0.4422892 0.8968726 0 -0.4422731 0.8968805 0 -0.4809991 0.8767211 0 -0.481002 0.8767196 0 -0.518769 0.8549146 0 -0.5187763 0.85491 0 -0.5555748 0.8314666 0 -0.5555605 0.8314761 0 -0.5913128 0.8064423 0 -0.5913042 0.8064486 0 -0.6259309 0.7798785 0 -0.6259196 0.7798876 0 -0.6593608 0.7518268 0 -0.659338 0.7518468 0 -0.6915265 0.7223511 0 -0.6915125 0.7223646 0 -0.7372761 0.6755915 0 -0.7372782 0.6755893 0 -0.793357 0.6087568 0 -0.7933513 0.6087642 0 -0.8433929 0.5372974 0 -0.8433908 0.5373008 0 -0.8870159 0.461739 0 -0.8870099 0.4617505 0 -0.923878 0.3826872 0 -0.9238802 0.3826819 0 -0.9537183 0.3007017 0 -0.9537148 0.3007129 0 -0.9762939 0.2164492 0 -0.9762973 0.2164336 0 -0.9914457 0.1305201 0 -0.9914447 0.1305283 0 -0.9990482 0.04362106 0 -0.9990478 0.04363077 0 -1 4.89709e-6 0 -1 -3.48374e-6 0 -1 5.75091e-6 0 -1 -1.38456e-6 0 -1 4.95376e-6 0 -1 -6.23329e-6 0 -1 -5.84618e-6 0 -1 3.78122e-6 0 -1 -2.2394e-6 0 -1 1.28398e-5 0 -1 -1.79776e-5 0 -1 2.57053e-5 0 -1 -5.33646e-5 0 -1 1.40576e-5 0 -1 -4.62406e-6 0 -1 1.06686e-6 0 -1 -4.518e-6 0 -1 4.52078e-6 0 -1 -1.53518e-6 0 -1 1.49953e-6 0 -1 -1.71196e-7 0 -1 3.1001e-6 0 -1 -5.11082e-6 0 -1 5.56661e-6 0 -1 -1.70454e-5 0 -1 -4.6598e-6 0 -1 -1.11834e-5 0 -1 7.90976e-6 0 -1 1.26635e-7 0 -1 -4.5604e-6 0 -1 4.23933e-6 0 -1 -4.518e-6 0 -1 -2.56491e-6 0 -1 8.26489e-6 0 -1 1.84851e-7 0 -1 9.99469e-7 0 -1 1.24076e-5 0 -0.02181422 -0.9997621 0 -0.1521267 -0.9883611 0 -0.1950914 -0.9807851 0 -0.2798259 -0.9600508 0 -0.4027528 -0.9153088 0 -0.4809973 -0.8767221 0 -0.518773 -0.8549121 0 -0.625922 -0.7798857 0 -0.6915091 -0.7223677 0 -0.737278 -0.6755895 0 -0.7372704 -0.6755979 0 -0.7933531 -0.6087617 0 -0.7933542 -0.6087603 0 -0.8433969 -0.5372911 0 -0.8433896 -0.5373027 0 -0.8870145 -0.4617417 0 -0.8870122 -0.461746 0 -0.9238778 -0.3826876 0 -0.9238792 -0.3826844 0 -0.9537181 -0.3007023 0 -0.9537189 -0.3006998 0 -0.9762951 -0.2164436 0 -0.9762982 -0.21643 0 -0.991446 -0.1305184 0 -0.991443 -0.1305411 0 -0.9990482 -0.04362082 0 -0.9990482 -0.04362094 -2.59873e-5 -0.6593514 -0.7518349 2.60041e-5 -0.6915055 -0.7223712 0 -0.6593593 -0.7518281 -2.60047e-5 -0.5913171 -0.8064393 2.60206e-5 -0.6259354 -0.779875 0 -0.5913104 -0.8064441 2.60553e-5 -0.555579 -0.8314638 -2.60305e-5 -0.5187733 -0.8549119 0 -0.5555713 -0.8314689 -2.60552e-5 -0.4422848 -0.8968747 2.60669e-5 -0.4809924 -0.8767248 0 -0.4422873 -0.8968735 -2.60457e-5 -0.3624382 -0.9320079 2.60563e-5 -0.4027605 -0.9153054 0 -0.3624417 -0.9320065 2.60638e-5 -0.321443 -0.946929 -2.60559e-5 -0.2798329 -0.9600487 0 -0.3214358 -0.9469315 2.60489e-5 -0.2376891 -0.9713414 -2.60423e-5 -0.1950945 -0.9807845 0 -0.2376808 -0.9713433 -2.60686e-5 -0.1088631 -0.9940568 2.60727e-5 -0.1521253 -0.9883612 0 -0.108866 -0.9940565 2.60732e-5 -0.06540858 -0.9978587 -2.60729e-5 -0.02181446 -0.9997621 0 -0.06540918 -0.9978585 0 0.5913122 -0.8064429 0 0.518773 -0.8549121 0 0.4422852 -0.8968744 0 0.3624432 -0.932006 0 0.3214367 -0.9469311 0 0.2376822 -0.971343 0 0.1088656 -0.9940565 0 0.06540924 -0.9978585 2.60729e-5 0.02181446 -0.9997621 -2.60732e-5 0.06540858 -0.9978587 0 0.02181428 -0.9997621 -2.60727e-5 0.1521253 -0.9883612 2.60686e-5 0.1088631 -0.9940568 0 0.1521263 -0.9883611 2.60423e-5 0.1950945 -0.9807845 -2.60489e-5 0.2376891 -0.9713414 0 0.1950916 -0.9807851 2.60559e-5 0.2798329 -0.9600487 -2.60638e-5 0.321443 -0.946929 0 0.2798274 -0.9600504 -2.60563e-5 0.4027605 -0.9153054 2.60457e-5 0.3624382 -0.9320079 0 0.40275 -0.9153101 -2.60669e-5 0.4809924 -0.8767248 2.60552e-5 0.4422848 -0.8968747 0 0.4809959 -0.8767228 -2.60553e-5 0.555579 -0.8314638 2.60305e-5 0.5187733 -0.8549119 0 0.5555713 -0.8314689 -2.60206e-5 0.6259354 -0.779875 2.60047e-5 0.5913171 -0.8064393 0 0.6259183 -0.7798887 2.59873e-5 0.6593514 -0.7518349 -2.60041e-5 0.6915055 -0.7223712 0 0.6593593 -0.7518281 0 0.6915091 -0.7223677 0 0.737278 -0.6755895 0 0.7372704 -0.6755979 0 0.7933531 -0.6087617 0 0.7933542 -0.6087603 0 0.8433969 -0.5372911 0 0.8433896 -0.5373027 0 0.8870145 -0.4617417 0 0.8870122 -0.461746 0 0.9238778 -0.3826876 0 0.9238792 -0.3826844 0 0.9537181 -0.3007023 0 0.9537189 -0.3006998 0 0.9762951 -0.2164436 0 0.9762982 -0.21643 0 0.991446 -0.1305184 0 0.991443 -0.1305411 0 0.9990482 -0.04362082 0 0.9990482 -0.04362094 0 1 3.21794e-7 0 1 -6.23329e-6 0 1 1.49953e-6 0 1 -5.84618e-6 0 1 5.54723e-6 0 1 -7.27175e-7 0 1 4.95376e-6 0 1 -3.36013e-6 0 1 7.90976e-6 0 1 9.99469e-7 0 1 -6.1596e-6 0 1 8.26489e-6 0 1 -1.96316e-6 0 1 -4.5604e-6 0 1 1.26635e-7 0 1 3.79272e-6 0 1 4.52078e-6 0 1 -4.518e-6 0 1 1.06686e-6 0 1 -4.62406e-6 0 1 5.56661e-6 0 1 5.75091e-6 0 1 -1.11834e-5 0 1 -1.18707e-6 0 1 1.24076e-5 0 1 -4.518e-6 0 1 -1.53518e-6 0 1 -5.11082e-6 0 1 3.1001e-6 0 1 3.28507e-7 0 1 -1.70454e-5 0 1 1.39433e-5 0 1 -1.38456e-6 0 1 1.28398e-5 0 1 -1.71196e-7 0 1 2.57053e-5 0 1 -5.33646e-5 0 1 1.40576e-5 0 0.9990478 0.04362976 0 0.9990482 0.04362106 0 0.9914447 0.1305283 0 0.9914457 0.1305201 0 0.9762973 0.2164336 0 0.9762939 0.2164492 0 0.9537148 0.3007129 0 0.9537183 0.3007017 0 0.9238802 0.3826819 0 0.923878 0.3826872 0 0.8870099 0.4617505 0 0.8870159 0.461739 0 0.8433908 0.5373008 0 0.8433929 0.5372974 0 0.7933513 0.6087642 0 0.793357 0.6087568 0 0.7372782 0.6755893 0 0.7372761 0.6755915 0 0.6915125 0.7223646 0 0.6915265 0.7223511 0 0.659338 0.7518468 0 0.6593608 0.7518268 0 0.6259196 0.7798876 0 0.6259309 0.7798785 0 0.5913042 0.8064486 0 0.5913128 0.8064423 0 0.5555605 0.8314761 0 0.5555748 0.8314666 0 0.5187763 0.85491 0 0.3624418 0.9320065 0 0.4027414 0.9153139 0 0.4027526 0.9153088 0 0.4422892 0.8968726 0 0.4422731 0.8968805 0 0.4809991 0.8767211 0 0.481002 0.8767196 0 0.5187664 0.854916 0 0.0218141 0.9997621 0 0.02181428 0.9997621 0 0.06540817 0.9978586 0 0.06540882 0.9978586 0 0.1088669 0.9940564 0 0.1088637 0.9940568 0 0.1521257 0.9883612 0 0.1521244 0.9883614 0 0.1950883 0.9807858 0 0.1950943 0.9807845 0 0.2376819 0.9713431 0 0.2376806 0.9713433 0 0.2798293 0.9600498 0 0.2798233 0.9600515 0 0.3214386 0.9469305 0 0.3214388 0.9469304 0 0.3624347 0.9320092</float_array>
          <technique_common>
            <accessor source="#trapezoid_default_as_machined-mesh-normals-array" count="1162" stride="3">
              <param name="X" type="float"/>
              <param name="Y" type="float"/>
              <param name="Z" type="float"/>
            </accessor>
          </technique_common>
        </source>
        <vertices id="trapezoid_default_as_machined-mesh-vertices">
          <input semantic="POSITION" source="#trapezoid_default_as_machined-mesh-positions"/>
        </vertices>
        <triangles count="1480">
          <input semantic="VERTEX" source="#trapezoid_default_as_machined-mesh-vertices" offset="0"/>
          <input semantic="NORMAL" source="#trapezoid_default_as_machined-mesh-normals" offset="1"/>
          <p>0 0 1 0 2 0 3 1 4 1 5 1 5 2 4 2 6 2 4 3 7 3 6 3 6 4 7 4 8 4 7 5 9 5 8 5 8 6 9 6 10 6 9 7 11 7 10 7 10 8 11 8 12 8 11 9 13 9 12 9 12 10 13 10 14 10 13 11 15 11 14 11 14 12 15 12 16 12 15 12 17 12 16 12 16 10 17 10 18 10 17 11 19 11 18 11 18 13 19 13 20 13 19 14 21 14 20 14 20 15 21 15 22 15 21 16 23 16 22 16 22 17 23 17 24 17 23 18 25 18 24 18 24 19 25 19 26 19 25 20 27 20 26 20 26 21 27 21 28 21 27 22 29 22 28 22 28 22 29 22 30 22 29 23 31 23 30 23 30 24 31 24 32 24 33 25 34 25 35 25 34 26 36 26 35 26 35 27 36 27 37 27 36 28 38 28 37 28 37 29 38 29 39 29 38 30 40 30 39 30 39 31 40 31 41 31 40 32 42 32 41 32 41 33 42 33 43 33 42 34 44 34 43 34 43 35 44 35 45 35 44 36 46 36 45 36 45 37 46 37 47 37 46 10 48 10 47 10 47 38 48 38 49 38 48 38 50 38 49 38 49 11 50 11 51 11 50 39 52 39 51 39 51 40 52 40 53 40 52 30 54 30 53 30 53 41 54 41 55 41 54 42 56 42 55 42 55 43 56 43 57 43 56 44 58 44 57 44 57 45 58 45 59 45 58 46 60 46 59 46 59 47 60 47 61 47 32 48 31 48 62 48 31 49 63 49 62 49 62 50 63 50 64 50 63 51 65 51 64 51 64 52 65 52 66 52 65 53 67 53 66 53 66 54 67 54 68 54 67 55 69 55 68 55 68 56 69 56 70 56 69 57 71 57 70 57 70 48 71 48 72 48 71 58 73 58 72 58 72 59 73 59 74 59 73 60 75 60 74 60 74 61 75 61 76 61 75 62 77 62 76 62 76 48 77 48 78 48 77 63 79 63 78 63 78 64 79 64 80 64 79 65 81 65 80 65 80 66 81 66 82 66 81 67 83 67 82 67 83 68 84 68 82 68 82 69 84 69 85 69 84 70 86 70 85 70 85 71 86 71 87 71 86 72 88 72 87 72 87 73 88 73 89 73 88 74 90 74 89 74 89 75 90 75 91 75 90 76 92 76 91 76 91 77 92 77 93 77 92 78 94 78 93 78 93 79 94 79 95 79 94 80 96 80 95 80 95 81 96 81 97 81 96 82 98 82 97 82 97 83 98 83 99 83 98 84 100 84 99 84 99 2 100 2 101 2 100 85 102 85 101 85 101 86 102 86 103 86 102 87 104 87 103 87 103 88 104 88 105 88 104 89 106 89 105 89 105 90 106 90 107 90 106 91 108 91 107 91 107 92 108 92 109 92 108 93 110 93 109 93 109 94 110 94 111 94 110 95 112 95 111 95 111 96 112 96 113 96 112 97 114 97 113 97 113 0 114 0 115 0 114 98 116 98 115 98 115 99 116 99 117 99 2 100 1 100 118 100 1 101 119 101 118 101 118 102 119 102 120 102 119 94 121 94 120 94 120 95 121 95 122 95 121 103 123 103 122 103 122 104 123 104 124 104 123 105 125 105 124 105 124 106 125 106 126 106 125 107 127 107 126 107 126 69 127 69 128 69 127 108 129 108 128 108 128 109 129 109 130 109 129 86 131 86 130 86 130 85 131 85 132 85 131 2 133 2 132 2 132 84 133 84 134 84 133 83 135 83 134 83 134 110 135 110 136 110 135 111 137 111 136 111 136 112 137 112 138 112 137 113 139 113 138 113 138 114 139 114 140 114 139 115 141 115 140 115 140 82 141 82 142 82 141 116 143 116 142 116 142 70 143 70 144 70 143 117 145 117 144 117 144 118 145 118 146 118 145 98 147 98 146 98 146 98 147 98 148 98 147 101 149 101 148 101 148 119 149 119 150 119 5 17 151 17 3 17 151 22 152 22 3 22 3 120 152 120 153 120 152 121 154 121 153 121 153 122 154 122 155 122 154 123 156 123 155 123 155 124 156 124 157 124 156 125 158 125 157 125 157 126 158 126 159 126 158 29 160 29 159 29 159 31 160 31 161 31 160 127 162 127 161 127 161 128 162 128 163 128 162 129 164 129 163 129 163 130 164 130 165 130 164 131 166 131 165 131 165 132 166 132 167 132 166 133 168 133 167 133 167 134 168 134 169 134 168 135 170 135 169 135 169 136 170 136 171 136 170 137 172 137 171 137 171 138 172 138 173 138 172 139 174 139 173 139 173 140 174 140 175 140 174 141 0 141 175 141 175 142 0 142 176 142 0 143 2 143 176 143 150 144 149 144 177 144 149 145 178 145 177 145 177 146 178 146 179 146 178 147 180 147 179 147 179 148 180 148 181 148 180 149 182 149 181 149 181 150 182 150 183 150 182 151 184 151 183 151 183 152 184 152 185 152 184 153 186 153 185 153 185 154 186 154 187 154 186 155 188 155 187 155 187 156 188 156 189 156 188 48 190 48 189 48 189 157 190 157 191 157 190 158 192 158 191 158 191 53 192 53 193 53 192 159 194 159 193 159 193 160 194 160 195 160 194 161 196 161 195 161 195 162 196 162 33 162 196 163 197 163 33 163 33 164 197 164 34 164 60 17 198 17 61 17 198 26 199 26 61 26 61 25 199 25 200 25 199 22 201 22 200 22 200 31 201 31 202 31 201 33 203 33 202 33 202 165 203 165 204 165 203 166 205 166 204 166 204 31 205 31 206 31 205 167 207 167 206 167 206 168 207 168 208 168 207 169 209 169 208 169 208 170 209 170 210 170 209 131 211 131 210 131 210 171 211 171 212 171 211 172 213 172 212 172 212 173 213 173 214 173 213 133 215 133 214 133 214 174 215 174 216 174 215 169 217 169 216 169 216 175 217 175 218 175 217 137 219 137 218 137 218 138 219 138 220 138 219 176 221 176 220 176 220 177 221 177 222 177 221 178 117 178 222 178 222 119 117 119 223 119 117 179 116 179 223 179 224 180 225 180 226 180 227 181 228 181 229 181 230 182 231 182 232 182 231 183 233 183 232 183 232 184 233 184 234 184 233 185 235 185 234 185 234 186 235 186 236 186 235 187 237 187 236 187 236 188 237 188 238 188 237 189 239 189 238 189 238 190 239 190 240 190 239 191 241 191 240 191 240 192 241 192 242 192 241 193 243 193 242 193 242 194 243 194 244 194 243 195 245 195 244 195 244 196 245 196 246 196 245 196 247 196 246 196 246 197 247 197 248 197 247 198 249 198 248 198 248 199 249 199 250 199 249 187 251 187 250 187 250 200 251 200 252 200 251 201 253 201 252 201 252 202 253 202 254 202 253 203 255 203 254 203 254 204 255 204 256 204 255 205 257 205 256 205 256 206 257 206 258 206 259 207 260 207 261 207 260 208 262 208 261 208 261 208 262 208 263 208 262 209 264 209 263 209 263 210 264 210 265 210 264 211 266 211 265 211 265 212 266 212 267 212 266 213 268 213 267 213 267 214 268 214 269 214 268 215 270 215 269 215 269 216 270 216 271 216 270 217 272 217 271 217 271 197 272 197 273 197 272 195 274 195 273 195 273 218 274 218 275 218 274 218 276 218 275 218 275 197 276 197 277 197 276 195 278 195 277 195 277 219 278 219 279 219 278 220 280 220 279 220 279 216 280 216 281 216 280 221 282 221 281 221 281 222 282 222 283 222 282 223 284 223 283 223 283 224 284 224 285 224 284 225 286 225 285 225 285 226 286 226 287 226 226 227 225 227 288 227 225 228 289 228 288 228 288 229 289 229 290 229 289 230 291 230 290 230 290 231 291 231 292 231 291 232 293 232 292 232 292 233 293 233 294 233 293 234 295 234 294 234 294 235 295 235 296 235 295 236 297 236 296 236 296 237 297 237 298 237 297 238 299 238 298 238 298 239 299 239 300 239 299 240 301 240 300 240 300 241 301 241 302 241 301 242 303 242 302 242 302 221 303 221 304 221 303 243 305 243 304 243 304 244 305 244 306 244 305 245 307 245 306 245 306 246 307 246 308 246 307 247 309 247 308 247 308 248 309 248 310 248 309 249 311 249 310 249 310 250 311 250 312 250 311 251 313 251 312 251 312 252 313 252 314 252 313 253 315 253 314 253 314 254 315 254 316 254 315 255 317 255 316 255 316 255 317 255 318 255 317 228 319 228 318 228 318 256 319 256 320 256 229 257 228 257 321 257 228 258 322 258 321 258 321 259 322 259 323 259 322 260 324 260 323 260 323 231 324 231 325 231 324 261 326 261 325 261 325 262 326 262 327 262 326 263 328 263 327 263 327 264 328 264 329 264 328 265 330 265 329 265 329 266 330 266 331 266 330 267 332 267 331 267 331 239 332 239 333 239 332 240 334 240 333 240 333 241 334 241 335 241 334 242 336 242 335 242 335 221 336 221 337 221 336 243 338 243 337 243 337 268 338 268 339 268 338 269 340 269 339 269 339 270 340 270 341 270 340 271 342 271 341 271 341 272 342 272 343 272 342 273 344 273 343 273 343 274 344 274 345 274 344 275 346 275 345 275 345 276 346 276 347 276 346 277 348 277 347 277 347 278 348 278 349 278 348 279 350 279 349 279 349 252 350 252 351 252 350 237 352 237 351 237 351 280 352 280 353 280 320 281 319 281 354 281 319 282 355 282 354 282 354 283 355 283 356 283 355 284 357 284 356 284 356 285 357 285 358 285 357 286 359 286 358 286 358 287 359 287 360 287 359 288 361 288 360 288 360 289 361 289 362 289 361 290 363 290 362 290 362 291 363 291 364 291 363 292 365 292 364 292 364 293 365 293 366 293 365 294 367 294 366 294 366 295 367 295 368 295 367 296 369 296 368 296 368 297 369 297 370 297 369 298 371 298 370 298 370 299 371 299 372 299 371 300 373 300 372 300 372 301 373 301 230 301 373 302 374 302 230 302 230 303 374 303 231 303 353 304 352 304 375 304 352 305 376 305 375 305 375 306 376 306 377 306 376 307 378 307 377 307 377 308 378 308 379 308 378 294 380 294 379 294 379 309 380 309 381 309 380 310 382 310 381 310 381 311 382 311 383 311 382 312 384 312 383 312 383 313 384 313 385 313 384 294 386 294 385 294 385 314 386 314 387 314 386 315 388 315 387 315 387 287 388 287 389 287 388 316 390 316 389 316 389 297 390 297 391 297 390 317 392 317 391 317 391 318 392 318 393 318 392 319 394 319 393 319 393 320 394 320 259 320 394 321 395 321 259 321 259 322 395 322 260 322 257 323 396 323 258 323 396 183 397 183 258 183 258 182 397 182 398 182 397 208 399 208 398 208 398 188 399 188 400 188 399 190 401 190 400 190 400 324 401 324 402 324 401 325 403 325 402 325 402 188 403 188 404 188 403 326 405 326 404 326 404 327 405 327 406 327 405 328 407 328 406 328 406 329 407 329 408 329 407 330 409 330 408 330 408 331 409 331 410 331 409 332 411 332 410 332 410 333 411 333 412 333 411 334 413 334 412 334 412 335 413 335 414 335 413 328 415 328 414 328 414 336 415 336 416 336 415 337 417 337 416 337 416 338 417 338 418 338 417 339 419 339 418 339 418 340 419 340 420 340 419 341 227 341 420 341 420 256 227 256 421 256 227 342 229 342 421 342 286 323 422 323 287 323 422 208 423 208 287 208 287 343 423 343 424 343 423 344 425 344 424 344 424 345 425 345 426 345 425 346 427 346 426 346 426 347 427 347 428 347 427 348 429 348 428 348 428 349 429 349 430 349 429 186 431 186 430 186 430 188 431 188 432 188 431 350 433 350 432 350 432 351 433 351 434 351 433 352 435 352 434 352 434 353 435 353 436 353 435 330 437 330 436 330 436 354 437 354 438 354 437 334 439 334 438 334 438 355 439 355 440 355 439 356 441 356 440 356 440 357 441 357 442 357 441 337 443 337 442 337 442 338 443 338 444 338 443 358 445 358 444 358 444 359 445 359 446 359 445 360 224 360 446 360 446 361 224 361 447 361 224 362 226 362 447 362 247 363 245 363 48 363 245 363 50 363 48 363 15 363 273 363 17 363 273 363 275 363 17 363 276 364 274 364 16 364 274 364 14 364 16 364 166 365 384 365 382 365 166 366 382 366 168 366 382 367 380 367 168 367 168 368 380 368 170 368 380 369 378 369 170 369 170 370 378 370 172 370 378 371 376 371 172 371 172 372 376 372 174 372 376 373 352 373 174 373 174 374 352 374 0 374 352 375 350 375 0 375 0 376 350 376 1 376 350 377 348 377 1 377 1 378 348 378 119 378 348 379 346 379 119 379 119 380 346 380 121 380 346 381 344 381 121 381 121 382 344 382 123 382 344 383 342 383 123 383 123 384 342 384 125 384 342 385 340 385 125 385 125 386 340 386 127 386 340 387 338 387 127 387 127 388 338 388 129 388 338 389 336 389 129 389 129 390 336 390 131 390 384 391 166 391 386 391 166 392 164 392 386 392 386 393 164 393 388 393 164 394 162 394 388 394 388 395 162 395 390 395 162 396 160 396 390 396 390 397 160 397 392 397 160 398 158 398 392 398 392 399 158 399 394 399 158 400 156 400 394 400 394 401 156 401 395 401 156 402 154 402 395 402 395 403 154 403 260 403 154 404 152 404 260 404 260 405 152 405 262 405 6 406 264 406 5 406 264 407 262 407 5 407 5 408 262 408 151 408 262 409 152 409 151 409 14 410 274 410 12 410 274 411 272 411 12 411 12 412 272 412 10 412 272 413 270 413 10 413 10 414 270 414 8 414 270 415 268 415 8 415 8 416 268 416 6 416 268 417 266 417 6 417 6 418 266 418 264 418 448 419 334 419 449 419 334 420 450 420 449 420 451 421 452 421 133 421 453 422 334 422 454 422 334 423 455 423 454 423 453 419 456 419 334 419 456 424 457 424 334 424 334 425 457 425 450 425 452 419 458 419 133 419 458 426 459 426 133 426 133 425 459 425 460 425 460 424 461 424 133 424 461 419 462 419 133 419 133 427 462 427 463 427 133 428 464 428 465 428 466 429 467 429 131 429 463 430 468 430 133 430 468 431 469 431 133 431 133 432 469 432 464 432 470 433 471 433 334 433 471 419 472 419 334 419 334 434 472 434 473 434 473 419 474 419 334 419 474 435 475 435 334 435 334 436 475 436 455 436 476 437 336 437 477 437 336 438 334 438 477 438 477 419 334 419 478 419 334 439 448 439 478 439 476 440 479 440 336 440 479 441 480 441 336 441 336 442 480 442 481 442 465 419 482 419 133 419 482 419 483 419 133 419 133 443 483 443 484 443 484 444 485 444 133 444 485 419 486 419 133 419 133 419 486 419 334 419 486 419 487 419 334 419 334 445 487 445 470 445 481 419 488 419 336 419 488 419 489 419 336 419 336 446 489 446 490 446 491 419 492 419 336 419 492 419 493 419 336 419 336 447 493 447 494 447 495 419 496 419 336 419 467 448 497 448 131 448 497 449 498 449 131 449 131 446 498 446 499 446 499 419 500 419 131 419 500 419 501 419 131 419 131 442 501 442 502 442 502 450 503 450 131 450 503 440 504 440 131 440 131 419 504 419 133 419 504 419 505 419 133 419 133 451 505 451 451 451 506 419 507 419 131 419 490 449 508 449 336 449 508 448 509 448 336 448 336 452 509 452 491 452 494 419 510 419 336 419 510 419 511 419 336 419 336 453 511 453 495 453 512 454 513 454 131 454 513 419 514 419 131 419 131 455 514 455 466 455 496 419 515 419 336 419 515 419 516 419 336 419 336 419 516 419 131 419 516 419 517 419 131 419 131 456 517 456 506 456 507 419 518 419 131 419 518 419 519 419 131 419 131 457 519 457 512 457 249 458 247 458 48 458 249 459 48 459 251 459 48 460 46 460 251 460 46 461 44 461 251 461 251 462 44 462 253 462 44 463 255 463 253 463 44 464 42 464 255 464 42 465 40 465 255 465 255 466 40 466 257 466 40 467 396 467 257 467 40 468 38 468 396 468 38 469 36 469 396 469 396 470 36 470 397 470 36 471 399 471 397 471 36 472 34 472 399 472 34 473 197 473 399 473 399 474 197 474 401 474 197 475 403 475 401 475 197 476 196 476 403 476 196 477 194 477 403 477 403 478 194 478 405 478 194 479 407 479 405 479 194 480 192 480 407 480 192 481 190 481 407 481 407 482 190 482 409 482 190 483 411 483 409 483 190 484 188 484 411 484 188 485 186 485 411 485 411 486 186 486 413 486 186 487 415 487 413 487 182 488 180 488 419 488 186 489 184 489 415 489 184 490 182 490 415 490 415 491 182 491 417 491 182 492 419 492 417 492 180 493 178 493 419 493 178 494 149 494 419 494 419 495 149 495 227 495 149 496 147 496 227 496 227 497 147 497 228 497 147 498 145 498 228 498 228 499 145 499 322 499 145 500 143 500 322 500 322 501 143 501 324 501 143 502 141 502 324 502 324 503 141 503 326 503 141 504 139 504 326 504 326 505 139 505 328 505 139 506 137 506 328 506 328 507 137 507 330 507 137 508 135 508 330 508 330 509 135 509 332 509 135 510 133 510 332 510 332 511 133 511 334 511 520 512 486 512 521 512 486 513 485 513 521 513 521 514 485 514 522 514 485 514 484 514 522 514 522 515 484 515 523 515 484 516 483 516 523 516 523 517 483 517 524 517 483 518 482 518 524 518 524 519 482 519 525 519 482 520 465 520 525 520 525 521 465 521 526 521 465 522 464 522 526 522 526 523 464 523 527 523 464 524 469 524 527 524 527 525 469 525 528 525 469 526 468 526 528 526 528 527 468 527 529 527 468 528 463 528 529 528 529 529 463 529 530 529 463 530 462 530 530 530 530 531 462 531 531 531 462 532 461 532 531 532 531 533 461 533 532 533 461 534 460 534 532 534 532 535 460 535 533 535 460 536 459 536 533 536 533 537 459 537 534 537 459 538 458 538 534 538 534 539 458 539 535 539 458 540 452 540 535 540 535 541 452 541 536 541 452 542 451 542 536 542 536 543 451 543 537 543 451 544 505 544 537 544 537 545 505 545 538 545 505 546 504 546 538 546 538 547 504 547 539 547 504 548 503 548 539 548 539 549 503 549 540 549 503 550 502 550 540 550 540 551 502 551 541 551 502 552 501 552 541 552 541 553 501 553 542 553 501 554 500 554 542 554 542 240 500 240 543 240 500 555 499 555 543 555 543 556 499 556 544 556 499 557 498 557 544 557 544 558 498 558 545 558 498 559 497 559 545 559 545 560 497 560 546 560 497 561 467 561 546 561 546 562 467 562 547 562 467 563 466 563 547 563 547 564 466 564 548 564 466 565 514 565 548 565 548 566 514 566 549 566 514 567 513 567 549 567 549 568 513 568 550 568 513 569 512 569 550 569 550 570 512 570 551 570 512 571 519 571 551 571 551 572 519 572 552 572 519 573 518 573 552 573 552 574 518 574 553 574 518 575 507 575 553 575 553 576 507 576 554 576 507 577 506 577 554 577 554 578 506 578 555 578 506 578 517 578 555 578 555 579 517 579 556 579 517 580 516 580 556 580 556 581 516 581 557 581 516 582 515 582 557 582 557 583 515 583 558 583 515 583 496 583 558 583 558 584 496 584 559 584 496 585 495 585 559 585 559 586 495 586 560 586 495 587 511 587 560 587 560 588 511 588 561 588 511 589 510 589 561 589 561 590 510 590 562 590 510 591 494 591 562 591 562 592 494 592 563 592 494 593 493 593 563 593 563 594 493 594 564 594 493 595 492 595 564 595 564 596 492 596 565 596 492 597 491 597 565 597 565 598 491 598 566 598 491 599 509 599 566 599 566 600 509 600 567 600 509 601 508 601 567 601 567 602 508 602 568 602 508 603 490 603 568 603 568 604 490 604 569 604 490 605 489 605 569 605 569 606 489 606 570 606 489 607 488 607 570 607 570 608 488 608 571 608 488 609 481 609 571 609 571 610 481 610 572 610 481 611 480 611 572 611 572 612 480 612 573 612 480 613 479 613 573 613 573 614 479 614 574 614 479 615 476 615 574 615 574 616 476 616 575 616 476 617 477 617 575 617 575 618 477 618 576 618 477 619 478 619 576 619 576 620 478 620 577 620 478 621 448 621 577 621 577 622 448 622 578 622 448 623 449 623 578 623 578 624 449 624 579 624 449 625 450 625 579 625 579 626 450 626 580 626 450 627 457 627 580 627 580 628 457 628 581 628 457 629 456 629 581 629 581 630 456 630 582 630 456 631 453 631 582 631 582 632 453 632 583 632 453 633 454 633 583 633 583 634 454 634 584 634 454 635 455 635 584 635 584 636 455 636 585 636 455 637 475 637 585 637 585 638 475 638 586 638 475 639 474 639 586 639 586 640 474 640 587 640 474 641 473 641 587 641 587 642 473 642 588 642 473 643 472 643 588 643 588 644 472 644 589 644 472 645 471 645 589 645 589 646 471 646 590 646 471 647 470 647 590 647 590 648 470 648 591 648 470 648 487 648 591 648 591 649 487 649 520 649 487 650 486 650 520 650 592 512 593 512 594 512 593 513 595 513 594 513 594 514 595 514 596 514 595 514 597 514 596 514 596 515 597 515 598 515 597 516 599 516 598 516 598 651 599 651 600 651 599 652 601 652 600 652 600 653 601 653 602 653 601 654 603 654 602 654 602 655 603 655 604 655 603 656 605 656 604 656 604 657 605 657 606 657 605 658 607 658 606 658 606 659 607 659 608 659 607 660 609 660 608 660 608 527 609 527 610 527 609 528 611 528 610 528 610 529 611 529 612 529 611 530 613 530 612 530 612 661 613 661 614 661 613 662 615 662 614 662 614 663 615 663 616 663 615 664 617 664 616 664 616 536 617 536 618 536 617 535 619 535 618 535 618 665 619 665 620 665 619 666 621 666 620 666 620 667 621 667 622 667 621 668 623 668 622 668 622 542 623 542 624 542 623 541 625 541 624 541 624 669 625 669 626 669 625 670 627 670 626 670 626 546 627 546 628 546 627 545 629 545 628 545 628 548 629 548 630 548 629 547 631 547 630 547 630 671 631 671 632 671 631 672 633 672 632 672 632 552 633 552 634 552 633 551 635 551 634 551 634 673 635 673 636 673 635 674 637 674 636 674 636 675 637 675 638 675 637 676 639 676 638 676 638 557 639 557 640 557 639 556 641 556 640 556 640 677 641 677 642 677 641 678 643 678 642 678 642 679 643 679 644 679 643 680 645 680 644 680 644 562 645 562 646 562 645 563 647 563 646 563 646 564 647 564 648 564 647 565 649 565 648 565 648 681 649 681 650 681 649 682 651 682 650 682 650 683 651 683 652 683 651 684 653 684 652 684 652 685 653 685 654 685 653 686 655 686 654 686 654 687 655 687 656 687 655 688 657 688 656 688 656 689 657 689 658 689 657 690 659 690 658 690 658 576 659 576 660 576 659 577 661 577 660 577 660 578 661 578 662 578 661 578 663 578 662 578 662 579 663 579 664 579 663 580 665 580 664 580 664 581 665 581 666 581 665 582 667 582 666 582 666 583 667 583 668 583 667 583 669 583 668 583 668 584 669 584 670 584 669 585 671 585 670 585 670 691 671 691 672 691 671 692 673 692 672 692 672 693 673 693 674 693 673 694 675 694 674 694 674 695 675 695 676 695 675 696 677 696 676 696 676 697 677 697 678 697 677 698 679 698 678 698 678 699 679 699 680 699 679 700 681 700 680 700 680 596 681 596 682 596 681 597 683 597 682 597 682 598 683 598 684 598 683 599 685 599 684 599 684 701 685 701 686 701 685 702 687 702 686 702 686 703 687 703 688 703 687 704 689 704 688 704 688 605 689 605 690 605 689 604 691 604 690 604 690 705 691 705 692 705 691 86 693 86 692 86 692 706 693 706 694 706 693 707 695 707 694 707 694 611 695 611 696 611 695 610 697 610 696 610 696 708 697 708 698 708 697 709 699 709 698 709 698 615 699 615 700 615 699 614 701 614 700 614 700 617 701 617 702 617 701 616 703 616 702 616 702 710 703 710 704 710 703 711 705 711 704 711 704 621 705 621 706 621 705 620 707 620 706 620 706 712 707 712 708 712 707 713 709 713 708 713 708 714 709 714 710 714 709 715 711 715 710 715 710 627 711 627 712 627 711 626 713 626 712 626 712 716 713 716 714 716 713 717 715 717 714 717 714 718 715 718 716 718 715 719 717 719 716 719 716 632 717 632 718 632 717 633 719 633 718 633 718 634 719 634 720 634 719 635 721 635 720 635 720 720 721 720 722 720 721 721 723 721 722 721 722 722 723 722 724 722 723 723 725 723 724 723 724 724 725 724 726 724 725 725 727 725 726 725 726 726 727 726 728 726 727 727 729 727 728 727 728 728 729 728 730 728 729 729 731 729 730 729 730 646 731 646 732 646 731 647 733 647 732 647 732 648 733 648 734 648 733 648 735 648 734 648 734 649 735 649 592 649 735 650 593 650 592 650 276 730 16 730 18 730 276 731 18 731 278 731 18 732 20 732 278 732 278 733 20 733 280 733 20 734 22 734 280 734 280 735 22 735 282 735 22 736 24 736 282 736 282 737 24 737 284 737 284 738 24 738 286 738 24 739 26 739 286 739 286 740 26 740 422 740 26 741 28 741 422 741 28 742 30 742 422 742 422 743 30 743 423 743 30 744 32 744 423 744 423 745 32 745 425 745 32 746 62 746 425 746 425 747 62 747 427 747 62 748 64 748 427 748 427 749 64 749 429 749 64 750 66 750 429 750 429 751 66 751 431 751 66 752 68 752 431 752 431 753 68 753 433 753 68 754 70 754 433 754 433 755 70 755 435 755 70 756 72 756 435 756 435 757 72 757 437 757 437 758 72 758 439 758 72 759 74 759 439 759 439 760 74 760 441 760 74 761 76 761 441 761 76 762 78 762 441 762 441 763 78 763 443 763 78 764 80 764 443 764 443 765 80 765 445 765 80 766 82 766 445 766 445 767 82 767 224 767 82 768 85 768 224 768 224 769 85 769 225 769 85 770 87 770 225 770 225 771 87 771 289 771 87 772 89 772 289 772 289 773 89 773 291 773 89 774 91 774 291 774 291 775 91 775 293 775 91 776 93 776 293 776 293 777 93 777 295 777 93 778 95 778 295 778 295 779 95 779 297 779 95 780 97 780 297 780 297 781 97 781 299 781 97 782 99 782 299 782 299 783 99 783 301 783 704 784 706 784 303 784 706 785 708 785 303 785 636 785 638 785 99 785 638 786 640 786 99 786 99 787 640 787 642 787 642 788 644 788 99 788 644 789 646 789 99 789 99 790 646 790 648 790 708 791 710 791 303 791 710 785 712 785 303 785 303 792 712 792 714 792 654 785 656 785 99 785 656 785 658 785 99 785 99 793 658 793 660 793 660 785 662 785 99 785 662 785 664 785 99 785 99 785 664 785 301 785 301 794 688 794 690 794 690 785 692 785 301 785 692 785 694 785 301 785 301 795 694 795 696 795 696 796 698 796 301 796 698 797 700 797 301 797 301 785 700 785 303 785 700 785 702 785 303 785 303 798 702 798 704 798 714 785 716 785 303 785 716 799 718 799 303 799 303 800 718 800 720 800 610 799 612 799 101 799 612 785 614 785 101 785 101 792 614 792 616 792 616 785 618 785 101 785 618 791 620 791 101 791 101 801 620 801 622 801 648 785 650 785 99 785 650 802 652 802 99 802 99 803 652 803 654 803 604 804 606 804 101 804 606 805 608 805 101 805 101 800 608 800 610 800 664 785 666 785 301 785 666 785 668 785 301 785 301 793 668 793 670 793 676 802 678 802 301 802 678 785 680 785 301 785 301 790 680 790 682 790 682 789 684 789 301 789 684 788 686 788 301 788 301 787 686 787 688 787 622 784 624 784 101 784 624 785 626 785 101 785 101 806 626 806 99 806 626 807 628 807 99 807 99 808 628 808 630 808 630 809 632 809 99 809 632 785 634 785 99 785 99 810 634 810 636 810 670 785 672 785 301 785 672 785 674 785 301 785 301 803 674 803 676 803 720 811 722 811 303 811 722 804 724 804 303 804 303 812 724 812 726 812 596 813 598 813 101 813 726 785 728 785 303 785 728 785 730 785 303 785 303 814 730 814 732 814 732 815 734 815 303 815 734 785 592 785 303 785 303 785 592 785 101 785 592 785 594 785 101 785 101 816 594 816 596 816 598 785 600 785 101 785 600 785 602 785 101 785 101 812 602 812 604 812 52 817 50 817 245 817 56 818 54 818 241 818 235 819 233 819 198 819 231 820 374 820 201 820 201 821 374 821 203 821 207 822 205 822 371 822 211 823 209 823 367 823 215 824 213 824 363 824 219 825 217 825 359 825 303 826 101 826 103 826 303 827 103 827 305 827 103 828 105 828 305 828 305 829 105 829 307 829 105 830 107 830 307 830 307 831 107 831 309 831 107 832 109 832 309 832 309 833 109 833 311 833 109 834 111 834 311 834 311 835 111 835 313 835 111 836 113 836 313 836 313 837 113 837 315 837 113 838 115 838 315 838 315 839 115 839 317 839 115 840 117 840 317 840 317 841 117 841 319 841 117 842 221 842 319 842 319 843 221 843 355 843 219 844 359 844 221 844 359 845 357 845 221 845 221 846 357 846 355 846 215 847 363 847 217 847 363 848 361 848 217 848 217 849 361 849 359 849 211 850 367 850 213 850 367 851 365 851 213 851 213 852 365 852 363 852 207 853 371 853 209 853 371 854 369 854 209 854 209 855 369 855 367 855 203 856 374 856 205 856 374 857 373 857 205 857 205 858 373 858 371 858 231 859 201 859 233 859 201 860 199 860 233 860 233 861 199 861 198 861 235 862 198 862 237 862 198 863 60 863 237 863 237 864 60 864 58 864 56 865 241 865 58 865 241 866 239 866 58 866 58 867 239 867 237 867 52 868 245 868 54 868 245 869 243 869 54 869 54 870 243 870 241 870 273 871 15 871 13 871 273 872 13 872 271 872 13 873 11 873 271 873 271 874 11 874 269 874 11 875 9 875 269 875 269 876 9 876 267 876 9 877 7 877 267 877 267 878 7 878 265 878 7 879 4 879 265 879 265 880 4 880 263 880 4 881 3 881 263 881 263 882 3 882 261 882 3 883 153 883 261 883 261 884 153 884 259 884 153 885 155 885 259 885 259 886 155 886 393 886 155 887 157 887 393 887 393 888 157 888 391 888 157 889 159 889 391 889 391 890 159 890 389 890 159 891 161 891 389 891 389 892 161 892 387 892 161 893 163 893 387 893 387 894 163 894 385 894 163 895 165 895 385 895 385 896 165 896 383 896 165 897 167 897 383 897 383 898 167 898 381 898 167 899 169 899 381 899 381 900 169 900 379 900 169 901 171 901 379 901 379 902 171 902 377 902 171 903 173 903 377 903 377 904 173 904 375 904 173 905 175 905 375 905 375 906 175 906 353 906 175 907 176 907 353 907 353 908 176 908 351 908 176 909 2 909 351 909 351 910 2 910 349 910 2 911 118 911 349 911 349 912 118 912 347 912 118 913 120 913 347 913 347 914 120 914 345 914 120 915 122 915 345 915 345 916 122 916 343 916 122 917 124 917 343 917 343 918 124 918 341 918 124 919 126 919 341 919 341 920 126 920 339 920 126 921 128 921 339 921 339 922 128 922 337 922 128 923 130 923 337 923 337 924 130 924 335 924 542 785 543 785 130 785 543 925 544 925 130 925 130 926 544 926 545 926 545 785 546 785 130 785 546 927 547 927 130 927 130 928 547 928 548 928 576 929 577 929 333 929 577 785 578 785 333 785 528 785 529 785 132 785 528 785 132 785 527 785 529 930 530 930 132 930 530 931 531 931 132 931 132 932 531 932 532 932 532 785 533 785 132 785 533 785 534 785 132 785 132 933 534 933 535 933 551 785 552 785 130 785 552 934 553 934 130 934 130 935 553 935 554 935 554 936 555 936 130 936 555 937 556 937 130 937 130 785 556 785 335 785 556 937 557 937 335 937 335 938 557 938 558 938 561 785 562 785 335 785 562 785 563 785 335 785 569 785 570 785 335 785 570 939 571 939 335 939 335 940 571 940 572 940 572 941 573 941 335 941 573 942 574 942 335 942 335 785 574 785 333 785 574 785 575 785 333 785 333 943 575 943 576 943 578 785 579 785 333 785 579 785 580 785 333 785 333 932 580 932 581 932 581 931 582 931 333 931 582 930 583 930 333 930 333 944 583 944 584 944 548 785 549 785 130 785 549 785 550 785 130 785 130 945 550 945 551 945 563 785 564 785 335 785 564 785 565 785 335 785 335 946 565 946 566 946 566 785 567 785 335 785 567 947 568 947 335 947 335 948 568 948 569 948 523 785 524 785 132 785 558 949 559 949 335 949 559 934 560 934 335 934 335 950 560 950 561 950 523 785 132 785 522 785 524 951 525 951 132 951 525 785 526 785 132 785 132 952 526 952 527 952 535 929 536 929 132 929 536 785 537 785 132 785 132 953 537 953 130 953 537 954 538 954 130 954 130 955 538 955 539 955 539 956 540 956 130 956 540 785 541 785 130 785 130 957 541 957 542 957 584 785 585 785 333 785 585 958 586 958 333 958 333 959 586 959 587 959 587 951 588 951 333 951 588 785 589 785 333 785 333 960 589 960 590 960 590 785 591 785 333 785 591 785 520 785 333 785 333 785 520 785 132 785 520 785 521 785 132 785 132 961 521 961 522 961 45 962 47 962 246 962 252 963 254 963 39 963 39 964 254 964 37 964 33 965 35 965 258 965 402 966 404 966 191 966 406 967 408 967 187 967 187 968 408 968 185 968 414 969 416 969 179 969 418 970 420 970 150 970 420 971 421 971 150 971 150 972 421 972 148 972 421 973 229 973 148 973 148 974 229 974 146 974 229 975 321 975 146 975 146 976 321 976 144 976 321 977 323 977 144 977 144 978 323 978 142 978 323 979 325 979 142 979 142 980 325 980 140 980 325 981 327 981 140 981 140 982 327 982 138 982 327 983 329 983 138 983 138 984 329 984 136 984 329 985 331 985 136 985 136 986 331 986 134 986 331 987 333 987 134 987 134 988 333 988 132 988 418 989 150 989 416 989 150 990 177 990 416 990 416 991 177 991 179 991 414 992 179 992 412 992 179 993 181 993 412 993 412 994 181 994 183 994 185 995 408 995 183 995 408 996 410 996 183 996 183 997 410 997 412 997 406 998 187 998 404 998 187 999 189 999 404 999 404 1000 189 1000 191 1000 402 1001 191 1001 400 1001 191 1002 193 1002 400 1002 400 1003 193 1003 195 1003 33 1004 258 1004 195 1004 258 1005 398 1005 195 1005 195 1006 398 1006 400 1006 37 1007 254 1007 35 1007 254 1008 256 1008 35 1008 35 1009 256 1009 258 1009 252 1010 39 1010 250 1010 39 1011 41 1011 250 1011 250 1012 41 1012 43 1012 45 1013 246 1013 43 1013 246 1014 248 1014 43 1014 43 1015 248 1015 250 1015 49 364 244 364 47 364 244 364 246 364 47 364 358 1016 360 1016 214 1016 362 1017 364 1017 210 1017 366 1018 368 1018 206 1018 370 1019 372 1019 202 1019 202 1020 372 1020 200 1020 59 1021 61 1021 232 1021 238 1022 240 1022 53 1022 53 1023 240 1023 51 1023 51 1024 240 1024 49 1024 240 1025 242 1025 49 1025 49 1026 242 1026 244 1026 238 1027 53 1027 236 1027 53 1028 55 1028 236 1028 236 1029 55 1029 57 1029 59 1030 232 1030 57 1030 232 1031 234 1031 57 1031 57 1032 234 1032 236 1032 200 1033 372 1033 61 1033 372 1034 230 1034 61 1034 61 1035 230 1035 232 1035 370 1036 202 1036 368 1036 202 1037 204 1037 368 1037 368 1038 204 1038 206 1038 366 1039 206 1039 364 1039 206 1040 208 1040 364 1040 364 1041 208 1041 210 1041 362 1042 210 1042 360 1042 210 1043 212 1043 360 1043 360 1044 212 1044 214 1044 358 1045 214 1045 356 1045 214 1046 216 1046 356 1046 356 1047 216 1047 218 1047 220 1048 320 1048 218 1048 320 1049 354 1049 218 1049 218 1050 354 1050 356 1050 220 1051 222 1051 320 1051 222 1052 223 1052 320 1052 320 1053 223 1053 318 1053 223 1054 116 1054 318 1054 318 1055 116 1055 316 1055 116 1056 114 1056 316 1056 316 1057 114 1057 314 1057 114 1058 112 1058 314 1058 314 1059 112 1059 312 1059 112 1060 110 1060 312 1060 312 1061 110 1061 310 1061 110 1062 108 1062 310 1062 310 1063 108 1063 308 1063 108 1064 106 1064 308 1064 308 1065 106 1065 306 1065 106 1066 104 1066 306 1066 306 1067 104 1067 304 1067 104 1068 102 1068 304 1068 304 1069 102 1069 302 1069 707 419 302 419 709 419 302 1070 711 1070 709 1070 717 1071 302 1071 719 1071 302 1072 721 1072 719 1072 717 1073 715 1073 302 1073 715 1074 713 1074 302 1074 302 1075 713 1075 711 1075 625 1076 623 1076 102 1076 617 1074 615 1074 102 1074 615 1073 613 1073 102 1073 102 1077 613 1077 611 1077 623 419 621 419 102 419 621 419 619 419 102 419 102 1075 619 1075 617 1075 611 419 609 419 102 419 609 419 607 419 102 419 102 1078 607 1078 605 1078 102 1079 599 1079 597 1079 733 419 731 419 302 419 731 419 729 419 302 419 302 1080 729 1080 727 1080 727 419 725 419 302 419 725 1081 723 1081 302 1081 302 1082 723 1082 721 1082 701 1083 300 1083 703 1083 300 1084 302 1084 703 1084 703 419 302 419 705 419 302 1085 707 1085 705 1085 701 1086 699 1086 300 1086 699 1087 697 1087 300 1087 300 1088 697 1088 695 1088 695 1089 693 1089 300 1089 693 419 691 419 300 419 300 1090 691 1090 689 1090 647 1091 645 1091 100 1091 605 419 603 419 102 419 603 1092 601 1092 102 1092 102 1093 601 1093 599 1093 597 419 595 419 102 419 595 419 593 419 102 419 102 419 593 419 302 419 593 419 735 419 302 419 302 1094 735 1094 733 1094 639 419 637 419 100 419 637 1089 635 1089 100 1089 100 1088 635 1088 633 1088 633 1095 631 1095 100 1095 631 1086 629 1086 100 1086 100 419 629 419 102 419 629 419 627 419 102 419 102 1096 627 1096 625 1096 689 1097 687 1097 300 1097 687 419 685 419 300 419 300 1098 685 1098 683 1098 683 419 681 419 300 419 681 419 679 419 300 419 300 1099 679 1099 677 1099 671 1100 669 1100 300 1100 645 419 643 419 100 419 643 1097 641 1097 100 1097 100 1090 641 1090 639 1090 661 1100 659 1100 100 1100 677 419 675 419 300 419 675 419 673 419 300 419 300 1101 673 1101 671 1101 653 419 651 419 100 419 651 419 649 419 100 419 100 1102 649 1102 647 1102 659 1103 657 1103 100 1103 657 419 655 419 100 419 100 1104 655 1104 653 1104 669 1105 667 1105 300 1105 667 1106 665 1106 300 1106 300 419 665 419 100 419 665 1106 663 1106 100 1106 100 1107 663 1107 661 1107 300 1108 100 1108 98 1108 300 1109 98 1109 298 1109 98 1110 96 1110 298 1110 298 1111 96 1111 296 1111 96 1112 94 1112 296 1112 296 1113 94 1113 294 1113 94 1114 92 1114 294 1114 294 1115 92 1115 292 1115 92 1116 90 1116 292 1116 292 1117 90 1117 290 1117 90 1118 88 1118 290 1118 290 1119 88 1119 288 1119 88 1120 86 1120 288 1120 288 1121 86 1121 226 1121 86 1122 84 1122 226 1122 226 1123 84 1123 447 1123 84 1124 83 1124 447 1124 447 1125 83 1125 446 1125 446 1126 83 1126 444 1126 83 1127 81 1127 444 1127 444 1128 81 1128 442 1128 81 1129 79 1129 442 1129 442 1130 79 1130 440 1130 79 1131 77 1131 440 1131 440 1132 77 1132 438 1132 77 1133 75 1133 438 1133 438 1134 75 1134 436 1134 75 1135 73 1135 436 1135 436 1136 73 1136 434 1136 63 1137 428 1137 65 1137 428 1138 430 1138 65 1138 65 1139 430 1139 67 1139 430 1140 432 1140 67 1140 67 1141 432 1141 69 1141 432 1142 434 1142 69 1142 69 1143 434 1143 71 1143 434 1144 73 1144 71 1144 17 1145 275 1145 19 1145 275 1146 277 1146 19 1146 19 1147 277 1147 21 1147 277 1148 279 1148 21 1148 21 1149 279 1149 23 1149 279 1150 281 1150 23 1150 23 1151 281 1151 25 1151 281 1152 283 1152 25 1152 25 1153 283 1153 27 1153 283 1154 285 1154 27 1154 27 1155 285 1155 29 1155 285 1156 287 1156 29 1156 29 1157 287 1157 31 1157 287 1158 424 1158 31 1158 31 1159 424 1159 63 1159 424 1160 426 1160 63 1160 63 1161 426 1161 428 1161</p>
        </triangles>
      </mesh>
    </geometry>
  </library_geometries>
  <library_visual_scenes>
    <visual_scene id="Scene" name="Scene">
      <node id="trapezoid_default_as_machined" name="trapezoid_default_as_machined" type="NODE">
        <matrix sid="transform">1 0 0 0 0 1 0 0 0 0 1 0 0 0 0 1</matrix>
        <instance_geometry url="#trapezoid_default_as_machined-mesh" name="trapezoid_default_as_machined"/>
      </node>
    </visual_scene>
  </library_visual_scenes>
  <scene>
    <instance_visual_scene url="#Scene"/>
  </scene>
</COLLADA>