<?xml version="1.0" encoding="utf-8"?>
<COLLADA xmlns="http://www.collada.org/2005/11/COLLADASchema" version="1.4.1" xmlns:xsi="http://www.w3.org/2001/XMLSchema-instance">
  <asset>
    <contributor>
      <author>Blender User</author>
      <authoring_tool>Blender 3.0.1</authoring_tool>
    </contributor>
    <created>2026-06-04T16:19:23</created>
    <modified>2026-06-04T16:19:23</modified>
    <unit name="meter" meter="1"/>
    <up_axis>Z_UP</up_axis>
  </asset>
  <library_images/>
  <library_geometries>
    <geometry id="trapezoid_single_eye_default_as_machined__4-mesh" name="trapezoid_single_eye_default_as_machined__4">
      <mesh>
        <source id="trapezoid_single_eye_default_as_machined__4-mesh-positions">
          <float_array id="trapezoid_single_eye_default_as_machined__4-mesh-positions-array" count="1344">-0.2345682 -0.01079493 0.1173118 -0.2345871 -0.01068919 0.1172726 -0.2357126 -0.0115785 0.1149429 -0.223326 0.01079493 0.1405824 -0.2233071 0.01068919 0.1406216 -0.2221816 0.0115785 0.1429513 -0.222148 0.01136362 0.1430208 -0.2232903 0.01058179 0.1406564 -0.2221187 0.01114583 0.1430814 -0.2232757 0.01047289 0.1406866 -0.2220939 0.01092547 0.1431328 -0.2232632 0.01036274 0.1407123 -0.2220735 0.01070296 0.143175 -0.223253 0.01025146 0.1407334 -0.2220576 0.01047873 0.1432079 -0.2232451 0.01013934 0.1407499 -0.2220462 0.01025319 0.1432315 -0.2232394 0.01002657 0.1407616 -0.2220394 0.01002681 0.1432456 -0.223236 0.009913384 0.1407687 -0.2220371 0.009799957 0.1432503 -0.2232348 0.009799957 0.1407711 -0.2220371 -0.009799957 0.1432503 -0.2232348 -0.009799957 0.1407711 -0.2220394 -0.01002681 0.1432456 -0.223236 -0.009913384 0.1407687 -0.2220462 -0.01025319 0.1432315 -0.2232394 -0.01002657 0.1407616 -0.2220576 -0.01047873 0.1432079 -0.2232451 -0.01013934 0.1407499 -0.2220735 -0.01070296 0.143175 -0.223253 -0.01025146 0.1407334 -0.2220939 -0.01092547 0.1431328 -0.2232632 -0.01036274 0.1407123 -0.2221187 -0.01114583 0.1430814 -0.2232757 -0.01047289 0.1406866 -0.222148 -0.01136362 0.1430208 -0.2232903 -0.01058179 0.1406564 -0.2221816 -0.0115785 0.1429513 -0.2233071 -0.01068919 0.1406216 -0.2222195 -0.01178991 0.1428729 -0.223326 -0.01079493 0.1405824 -0.2222616 -0.01199758 0.1427857 -0.2233471 -0.01089876 0.1405388 -0.2223078 -0.01220107 0.1426901 -0.2357462 -0.01136362 0.1148734 -0.2346039 -0.01058179 0.1172378 -0.2357754 -0.01114583 0.1148128 -0.2346186 -0.01047289 0.1172076 -0.2358003 -0.01092547 0.1147614 -0.234631 -0.01036274 0.1171818 -0.2358207 -0.01070296 0.1147192 -0.2346411 -0.01025146 0.1171607 -0.2358366 -0.01047873 0.1146863 -0.2346491 -0.01013934 0.1171443 -0.235848 -0.01025319 0.1146627 -0.2346548 -0.01002657 0.1171326 -0.2358548 -0.01002681 0.1146486 -0.2346582 -0.009913384 0.1171255 -0.2358571 -0.009799957 0.1146439 -0.2346593 -0.009799957 0.1171231 -0.2358571 0.009799957 0.1146439 -0.2346593 0.009799957 0.1171231 -0.2358548 0.01002681 0.1146486 -0.2346582 0.009913384 0.1171255 -0.235848 0.01025319 0.1146627 -0.2346548 0.01002657 0.1171326 -0.2358366 0.01047873 0.1146863 -0.2346491 0.01013934 0.1171443 -0.2358207 0.01070296 0.1147192 -0.2346411 0.01025146 0.1171607 -0.2358003 0.01092547 0.1147614 -0.234631 0.01036274 0.1171818 -0.2357754 0.01114583 0.1148128 -0.2346186 0.01047289 0.1172076 -0.2357462 0.01136362 0.1148734 -0.2346039 0.01058179 0.1172378 -0.2357126 0.0115785 0.1149429 -0.2345871 0.01068919 0.1172726 -0.2356747 0.01178991 0.1150213 -0.2345682 0.01079493 0.1173118 -0.2356326 0.01199758 0.1151084 -0.2345471 0.01089876 0.1173554 -0.2355864 0.01220107 0.1152041 -0.2223581 -0.01239997 0.142586 -0.2233701 -0.01100051 0.140491 -0.2224122 -0.01259392 0.1424738 -0.2233953 -0.01109999 0.1404389 -0.2224703 -0.01278257 0.1423536 -0.2234224 -0.01119697 0.1403828 -0.2225321 -0.01296555 0.1422256 -0.2234514 -0.01129126 0.1403227 -0.2225975 -0.01314246 0.1420903 -0.2234823 -0.01138275 0.1402587 -0.2226665 -0.01331305 0.1419476 -0.223515 -0.01147121 0.140191 -0.2227387 -0.0134769 0.141798 -0.2235495 -0.0115565 0.1401197 -0.2235856 -0.01163846 0.1400449 -0.2228928 -0.01378339 0.1414791 -0.2236627 -0.0117917 0.1398855 -0.2230586 -0.01405954 0.1411359 -0.2237456 -0.01192975 0.1397139 -0.2232348 -0.01430332 0.1407711 -0.2238337 -0.01205164 0.1395314 -0.2234202 -0.01451277 0.1403874 -0.2239264 -0.01215636 0.1393396 -0.2236133 -0.0146864 0.1399878 -0.2240229 -0.01224315 0.1391398 -0.2238126 -0.01482278 0.1395752 -0.2241226 -0.01231139 0.1389335 -0.2240166 -0.01492094 0.1391529 -0.2242246 -0.01236045 0.1387224 -0.2242238 -0.01498019 0.138724 -0.2243282 -0.01239007 0.1385079 -0.2244325 -0.01499998 0.1382918 -0.2244325 -0.01239997 0.1382918 -0.2334616 -0.01499998 0.1196023 -0.2334616 -0.01239997 0.1196023 -0.2336704 -0.01498019 0.1191701 -0.233566 -0.01239007 0.1193863 -0.2338775 -0.01492094 0.1187413 -0.2336696 -0.01236045 0.1191718 -0.2340816 -0.01482278 0.118319 -0.2337716 -0.01231139 0.1189606 -0.2342809 -0.0146864 0.1179064 -0.2338712 -0.01224315 0.1187544 -0.234474 -0.01451277 0.1175068 -0.2339678 -0.01215636 0.1185545 -0.2346593 -0.01430332 0.1171231 -0.2340605 -0.01205164 0.1183627 -0.2348356 -0.01405954 0.1167583 -0.2341486 -0.01192975 0.1181803 -0.2350014 -0.01378339 0.1164151 -0.2342315 -0.0117917 0.1180087 -0.2351555 -0.0134769 0.1160961 -0.2356747 -0.01178991 0.1150213 -0.2356326 -0.01199758 0.1151084 -0.2345471 -0.01089876 0.1173554 -0.2355864 -0.01220107 0.1152041 -0.234524 -0.01100051 0.1174032 -0.2355362 -0.01239997 0.1153082 -0.2344989 -0.01109999 0.1174553 -0.2354819 -0.01259392 0.1154204 -0.2344717 -0.01119697 0.1175113 -0.2354239 -0.01278257 0.1155406 -0.2344427 -0.01129126 0.1175715 -0.2353621 -0.01296555 0.1156685 -0.2344118 -0.01138275 0.1176354 -0.2352966 -0.01314246 0.1158039 -0.2343791 -0.01147121 0.1177031 -0.2352277 -0.01331305 0.1159465 -0.2343447 -0.0115565 0.1177744 -0.2343086 -0.01163846 0.1178492 -0.2355362 0.01239997 0.1153082 -0.234524 0.01100051 0.1174032 -0.2354819 0.01259392 0.1154204 -0.2344989 0.01109999 0.1174553 -0.2354239 0.01278257 0.1155406 -0.2344717 0.01119697 0.1175113 -0.2353621 0.01296555 0.1156685 -0.2344427 0.01129126 0.1175715 -0.2352966 0.01314246 0.1158039 -0.2344118 0.01138275 0.1176354 -0.2352277 0.01331305 0.1159465 -0.2343791 0.01147121 0.1177031 -0.2351555 0.0134769 0.1160961 -0.2222195 0.01178991 0.1428729 -0.2222616 0.01199758 0.1427857 -0.2233471 0.01089876 0.1405388 -0.2223078 0.01220107 0.1426901 -0.2233701 0.01100051 0.140491 -0.2223581 0.01239997 0.142586 -0.2233953 0.01109999 0.1404389 -0.2224122 0.01259392 0.1424738 -0.2234224 0.01119697 0.1403828 -0.2224703 0.01278257 0.1423536 -0.2234514 0.01129126 0.1403227 -0.2225321 0.01296555 0.1422256 -0.2234823 0.01138275 0.1402587 -0.2225975 0.01314246 0.1420903 -0.223515 0.01147121 0.140191 -0.2226665 0.01331305 0.1419476 -0.2235495 0.0115565 0.1401197 -0.2227387 0.0134769 0.141798 -0.2343447 0.0115565 0.1177744 -0.2343086 0.01163846 0.1178492 -0.2350014 0.01378339 0.1164151 -0.2342315 0.0117917 0.1180087 -0.2348356 0.01405954 0.1167583 -0.2341486 0.01192975 0.1181803 -0.2346593 0.01430332 0.1171231 -0.2340605 0.01205164 0.1183627 -0.234474 0.01451277 0.1175068 -0.2339678 0.01215636 0.1185545 -0.2342809 0.0146864 0.1179064 -0.2338712 0.01224315 0.1187544 -0.2340816 0.01482278 0.118319 -0.2337716 0.01231139 0.1189606 -0.2338775 0.01492094 0.1187413 -0.2336696 0.01236045 0.1191718 -0.2336704 0.01498019 0.1191701 -0.233566 0.01239007 0.1193863 -0.2334616 0.01499998 0.1196023 -0.2334616 0.01239997 0.1196023 -0.2244325 0.01499998 0.1382918 -0.2244325 0.01239997 0.1382918 -0.2242238 0.01498019 0.138724 -0.2243282 0.01239007 0.1385079 -0.2240166 0.01492094 0.1391529 -0.2242246 0.01236045 0.1387224 -0.2238126 0.01482278 0.1395752 -0.2241226 0.01231139 0.1389335 -0.2236133 0.0146864 0.1399878 -0.2240229 0.01224315 0.1391398 -0.2234202 0.01451277 0.1403874 -0.2239264 0.01215636 0.1393396 -0.2232348 0.01430332 0.1407711 -0.2238337 0.01205164 0.1395314 -0.2230586 0.01405954 0.1411359 -0.2237456 0.01192975 0.1397139 -0.2228928 0.01378339 0.1414791 -0.2236627 0.0117917 0.1398855 -0.2235856 0.01163846 0.1400449 -0.09455615 -0.01378339 0.01314246 -0.09470528 -0.01405954 0.01278257 -0.09532296 -0.01192975 0.01129126 -0.1050864 -0.01058179 -0.01227962 -0.1061135 -0.01136362 -0.0147593 -0.1050995 -0.01047289 -0.01231139 -0.1061398 -0.01114583 -0.01482278 -0.1051107 -0.01036274 -0.01233834 -0.1061621 -0.01092547 -0.01487672 -0.1051198 -0.01025146 -0.01236045 -0.1061804 -0.01070296 -0.01492094 -0.105127 -0.01013934 -0.01237773 -0.1061947 -0.01047873 -0.01495546 -0.1051321 -0.01002657 -0.01239007 -0.106205 -0.01025319 -0.01498019 -0.1051352 -0.009913384 -0.01239752 -0.1062111 -0.01002681 -0.01499503 -0.1051362 -0.009799957 -0.01239997 -0.1062132 -0.009799957 -0.01499998 -0.1051362 0.009799957 -0.01239997 -0.1062132 0.009799957 -0.01499998 -0.1051352 0.009913384 -0.01239752 -0.1062111 0.01002681 -0.01499503 -0.1051321 0.01002657 -0.01239007 -0.106205 0.01025319 -0.01498019 -0.105127 0.01013934 -0.01237773 -0.1061947 0.01047873 -0.01495546 -0.1051198 0.01025146 -0.01236045 -0.1061804 0.01070296 -0.01492094 -0.1051107 0.01036274 -0.01233834 -0.1061621 0.01092547 -0.01487672 -0.1050995 0.01047289 -0.01231139 -0.0949136 0.01058179 0.01227962 -0.09388649 0.01136362 0.0147593 -0.09490042 0.01047289 0.01231139 -0.09386014 0.01114583 0.01482278 -0.09488928 0.01036274 0.01233834 -0.09383785 0.01092547 0.01487672 -0.0948801 0.01025146 0.01236045 -0.09381949 0.01070296 0.01492094 -0.09487295 0.01013934 0.01237773 -0.09380519 0.01047873 0.01495546 -0.09486782 0.01002657 0.01239007 -0.093795 0.01025319 0.01498019 -0.09486478 0.009913384 0.01239752 -0.0937888 0.01002681 0.01499503 -0.09486371 0.009799957 0.01239997 -0.09378677 0.009799957 0.01499998 -0.09486371 -0.009799957 0.01239997 -0.09378677 -0.009799957 0.01499998 -0.09486478 -0.009913384 0.01239752 -0.0937888 -0.01002681 0.01499503 -0.09486782 -0.01002657 0.01239007 -0.093795 -0.01025319 0.01498019 -0.09487295 -0.01013934 0.01237773 -0.09380519 -0.01047873 0.01495546 -0.0948801 -0.01025146 0.01236045 -0.09381949 -0.01070296 0.01492094 -0.09488928 -0.01036274 0.01233834 -0.09383785 -0.01092547 0.01487672 -0.09490042 -0.01047289 0.01231139 -0.09540218 -0.01205164 0.01109999 -0.09486371 -0.01430332 0.01239997 -0.09548556 -0.01215636 0.01089876 -0.09503042 -0.01451277 0.01199758 -0.09557235 -0.01224315 0.01068919 -0.09520399 -0.0146864 0.0115785 -0.09566193 -0.01231139 0.01047289 -0.09538322 -0.01482278 0.01114583 -0.09575366 -0.01236045 0.01025146 -0.09556668 -0.01492094 0.01070296 -0.09584683 -0.01239007 0.01002657 -0.09575295 -0.01498019 0.01025319 -0.0959407 -0.01239997 0.009799957 -0.0959407 -0.01499998 0.009799957 -0.1040593 -0.01239997 -0.009799957 -0.1040593 -0.01499998 -0.009799957 -0.1041531 -0.01239007 -0.01002657 -0.104247 -0.01498019 -0.01025319 -0.1042463 -0.01236045 -0.01025146 -0.1044333 -0.01492094 -0.01070296 -0.104338 -0.01231139 -0.01047289 -0.1046168 -0.01482278 -0.01114583 -0.1044276 -0.01224315 -0.01068919 -0.1047959 -0.0146864 -0.0115785 -0.1045144 -0.01215636 -0.01089876 -0.1049696 -0.01451277 -0.01199758 -0.1045978 -0.01205164 -0.01109999 -0.1051362 -0.01430332 -0.01239997 -0.104677 -0.01192975 -0.01129126 -0.1052947 -0.01405954 -0.01278257 -0.1047515 -0.0117917 -0.01147121 -0.1054438 -0.01378339 -0.01314246 -0.1048208 -0.01163846 -0.01163846 -0.1061398 0.01114583 -0.01482278 -0.1061135 0.01136362 -0.0147593 -0.1050864 0.01058179 -0.01227962 -0.1060833 0.0115785 -0.0146864 -0.1050713 0.01068919 -0.01224315 -0.1060492 0.01178991 -0.01460415 -0.1050543 0.01079493 -0.01220208 -0.1060114 0.01199758 -0.01451277 -0.1050353 0.01089876 -0.01215636 -0.1059698 0.01220107 -0.0144124 -0.1050145 0.01100051 -0.01210618 -0.1059246 0.01239997 -0.01430332 -0.1049919 0.01109999 -0.01205164 -0.1058759 0.01259392 -0.0141856 -0.1049675 0.01119697 -0.01199281 -0.1058236 0.01278257 -0.01405954 -0.1049414 0.01129126 -0.01192975 -0.1057681 0.01296555 -0.01392543 -0.1049137 0.01138275 -0.01186269 -0.1057093 0.01314246 -0.01378339 -0.1048843 0.01147121 -0.0117917 -0.1056473 0.01331305 -0.01363384 -0.1048533 0.0115565 -0.0117169 -0.1055823 0.0134769 -0.0134769 -0.1048208 0.01163846 -0.01163846 -0.1054438 0.01378339 -0.01314246 -0.1047515 0.0117917 -0.01147121 -0.1048533 -0.0115565 -0.0117169 -0.1055823 -0.0134769 -0.0134769 -0.1048843 -0.01147121 -0.0117917 -0.1056473 -0.01331305 -0.01363384 -0.1049137 -0.01138275 -0.01186269 -0.1057093 -0.01314246 -0.01378339 -0.1049414 -0.01129126 -0.01192975 -0.1057681 -0.01296555 -0.01392543 -0.1049675 -0.01119697 -0.01199281 -0.1058236 -0.01278257 -0.01405954 -0.1049919 -0.01109999 -0.01205164 -0.1058759 -0.01259392 -0.0141856 -0.1050145 -0.01100051 -0.01210618 -0.1059246 -0.01239997 -0.01430332 -0.1050353 -0.01089876 -0.01215636 -0.1059698 -0.01220107 -0.0144124 -0.1050543 -0.01079493 -0.01220208 -0.1060114 -0.01199758 -0.01451277 -0.1050713 -0.01068919 -0.01224315 -0.1060492 -0.01178991 -0.01460415 -0.1060833 -0.0115785 -0.0146864 -0.104677 0.01192975 -0.01129126 -0.1052947 0.01405954 -0.01278257 -0.1045978 0.01205164 -0.01109999 -0.1051362 0.01430332 -0.01239997 -0.1045144 0.01215636 -0.01089876 -0.1049696 0.01451277 -0.01199758 -0.1044276 0.01224315 -0.01068919 -0.1047959 0.0146864 -0.0115785 -0.104338 0.01231139 -0.01047289 -0.1046168 0.01482278 -0.01114583 -0.1042463 0.01236045 -0.01025146 -0.1044333 0.01492094 -0.01070296 -0.1041531 0.01239007 -0.01002657 -0.104247 0.01498019 -0.01025319 -0.1040593 0.01239997 -0.009799957 -0.1040593 0.01499998 -0.009799957 -0.0959407 0.01239997 0.009799957 -0.0959407 0.01499998 0.009799957 -0.09584683 0.01239007 0.01002657 -0.09575295 0.01498019 0.01025319 -0.09575366 0.01236045 0.01025146 -0.09556668 0.01492094 0.01070296 -0.09566193 0.01231139 0.01047289 -0.09538322 0.01482278 0.01114583 -0.09557235 0.01224315 0.01068919 -0.09520399 0.0146864 0.0115785 -0.09548556 0.01215636 0.01089876 -0.09503042 0.01451277 0.01199758 -0.09540218 0.01205164 0.01109999 -0.09486371 0.01430332 0.01239997 -0.09532296 0.01192975 0.01129126 -0.09470528 0.01405954 0.01278257 -0.09524846 0.0117917 0.01147121 -0.09455615 0.01378339 0.01314246 -0.09517914 0.01163846 0.01163846 -0.09386014 -0.01114583 0.01482278 -0.09388649 -0.01136362 0.0147593 -0.0949136 -0.01058179 0.01227962 -0.09391665 -0.0115785 0.0146864 -0.09492868 -0.01068919 0.01224315 -0.09395074 -0.01178991 0.01460415 -0.09494572 -0.01079493 0.01220208 -0.09398859 -0.01199758 0.01451277 -0.09496462 -0.01089876 0.01215636 -0.09403014 -0.01220107 0.0144124 -0.09498542 -0.01100051 0.01210618 -0.09407532 -0.01239997 0.01430332 -0.09500801 -0.01109999 0.01205164 -0.09412407 -0.01259392 0.0141856 -0.09503239 -0.01119697 0.01199281 -0.09417629 -0.01278257 0.01405954 -0.0950585 -0.01129126 0.01192975 -0.0942319 -0.01296555 0.01392543 -0.09508627 -0.01138275 0.01186269 -0.09429067 -0.01314246 0.01378339 -0.09511572 -0.01147121 0.0117917 -0.09435266 -0.01331305 0.01363384 -0.09514665 -0.0115565 0.0117169 -0.09441763 -0.0134769 0.0134769 -0.09517914 -0.01163846 0.01163846 -0.09524846 -0.0117917 0.01147121 -0.09514665 0.0115565 0.0117169 -0.09441763 0.0134769 0.0134769 -0.09511572 0.01147121 0.0117917 -0.09435266 0.01331305 0.01363384 -0.09508627 0.01138275 0.01186269 -0.09429067 0.01314246 0.01378339 -0.0950585 0.01129126 0.01192975 -0.0942319 0.01296555 0.01392543 -0.09503239 0.01119697 0.01199281 -0.09417629 0.01278257 0.01405954 -0.09500801 0.01109999 0.01205164 -0.09412407 0.01259392 0.0141856 -0.09498542 0.01100051 0.01210618 -0.09407532 0.01239997 0.01430332 -0.09496462 0.01089876 0.01215636 -0.09403014 0.01220107 0.0144124 -0.09494572 0.01079493 0.01220208 -0.09398859 0.01199758 0.01451277 -0.09492868 0.01068919 0.01224315 -0.09395074 0.01178991 0.01460415 -0.09391665 0.0115785 0.0146864</float_array>
          <technique_common>
            <accessor source="#trapezoid_single_eye_default_as_machined__4-mesh-positions-array" count="448" stride="3">
              <param name="X" type="float"/>
              <param name="Y" type="float"/>
              <param name="Z" type="float"/>
            </accessor>
          </technique_common>
        </source>
        <source id="trapezoid_single_eye_default_as_machined__4-mesh-normals">
          <float_array id="trapezoid_single_eye_default_as_machined__4-mesh-normals-array" count="2430">-0.9004283 0 0.4350047 -0.9004204 0 0.4350209 -0.9004302 0 0.4350005 -0.9004217 0 0.4350182 -0.9004294 1.86405e-4 0.4350023 -0.9004259 -3.72809e-4 0.4350094 -0.9004306 0 0.4349998 -0.9004305 0 0.4349999 -0.9004294 0 0.4350023 -0.9004284 3.72819e-4 0.4350043 -0.9004295 0 0.4350022 -0.9004238 0 0.4350138 -0.9004313 -1.86406e-4 0.434998 -0.9004282 3.72814e-4 0.4350045 -0.9004272 0 0.4350069 -0.9004306 -3.72815e-4 0.4349998 -0.9004307 0 0.4349994 -0.9004291 0 0.4350028 -0.9004284 1.86407e-4 0.4350045 -0.9004284 0 0.4350045 -0.9004351 -3.72812e-4 0.4349905 -0.9004317 1.86405e-4 0.4349976 -0.9004194 -3.72825e-4 0.4350229 -0.9004262 -3.72828e-4 0.4350087 -0.9004273 0 0.4350067 -0.9004328 0 0.4349952 -0.9004206 0 0.4350206 -0.9004436 0 0.4349728 -0.9004271 0 0.435007 -0.9004151 0 0.4350317 -0.9004168 0 0.4350282 -0.9004229 0 0.4350159 -0.9004263 0 0.4350087 -0.9004397 0 0.4349811 -0.9004114 -9.32055e-5 0.4350394 -0.900416 0 0.43503 -0.900435 0 0.4349905 -0.9004328 -1.86406e-4 0.4349952 -0.9004214 0 0.4350188 -0.9004373 3.72813e-4 0.4349857 -0.9004226 -1.86408e-4 0.4350161 -0.9004249 1.86406e-4 0.4350116 -0.9004216 -3.72816e-4 0.4350185 -0.9004322 1.86405e-4 0.4349964 -0.9004261 0 0.4350093 -0.9004295 0 0.435002 -0.9004294 0 0.4350022 -0.9004284 0 0.4350046 -0.900433 0 0.4349951 -0.9004282 -3.7281e-4 0.4350047 -0.9004193 0 0.4350233 -0.9004215 0 0.4350185 -0.9004328 3.72811e-4 0.4349952 -0.9004337 0 0.4349931 -0.9004307 -3.7283e-4 0.4349992 -0.9004168 3.72805e-4 0.4350283 -0.9004405 1.86398e-4 0.4349793 -0.9004217 -3.72826e-4 0.4350182 -0.9004428 0 0.4349746 -0.9004385 9.30253e-5 0.4349834 -0.9004637 -1.8709e-4 0.4349313 -0.900426 9.3024e-5 0.4350094 -0.9004037 0 0.4350555 -0.9004408 -9.30255e-5 0.4349787 -0.9004328 0 0.4349952 -0.9004313 0 0.4349982 -0.9004174 0 0.4350271 -0.9004439 9.30211e-5 0.4349723 -0.9004145 0 0.4350331 -0.9004319 0 0.4349969 -0.9004259 -1.87121e-4 0.4350094 -0.9004427 9.30209e-5 0.4349746 -0.9004374 -1.87123e-4 0.4349856 -0.9004129 0 0.4350365 -0.9004404 0 0.4349796 -0.9004139 9.32975e-5 0.4350345 -0.900435 0 0.4349908 -0.9004184 0 0.4350249 -0.9004147 0 0.4350326 -0.9004503 -9.32819e-5 0.4349589 -0.900421 0 0.4350197 -0.9004122 0 0.435038 -0.9004238 0 0.4350137 -0.9004589 4.66414e-5 0.4349413 -0.9004062 1.16621e-5 0.4350504 -0.9004241 0 0.4350132 -0.9004342 0 0.4349924 -0.9004486 0 0.4349625 -0.9004067 2.68775e-6 0.4350491 -0.9004542 0 0.434951 -0.9004353 5.83093e-6 0.4349898 -0.9004443 0 0.4349716 -0.900429 0 0.4350031 -0.9004287 0 0.4350037 -0.9004321 0 0.4349967 -0.9004198 -2.33221e-5 0.4350221 -0.9004276 -2.33235e-5 0.4350062 -0.9004193 0 0.4350232 -0.9004312 0 0.4349985 -0.9004133 0 0.4350356 -0.9004355 -4.6645e-5 0.4349896 -0.9004469 0 0.4349659 -0.9004215 0 0.4350185 -0.9004189 0 0.4350239 -0.9004204 0 0.4350209 -0.9004509 9.32916e-5 0.4349577 -0.9004335 4.66473e-5 0.4349937 -0.9004327 -9.32897e-5 0.4349955 -0.9004253 0 0.4350109 -0.9004261 9.32939e-5 0.4350091 -0.9004351 0 0.4349905 -0.9004106 0 0.4350411 -0.9004297 0 0.4350017 -0.9004237 0 0.4350141 -0.9004337 -9.31981e-5 0.4349935 -0.900416 -1.86412e-4 0.43503 -0.9004123 0 0.4350377 -0.9004439 9.31992e-5 0.4349722 -0.9004511 0 0.4349575 -0.9004225 -9.32018e-5 0.4350165 -0.90041 -1.86401e-4 0.4350425 -0.9004481 -1.8639e-4 0.4349634 -0.9004254 1.16616e-5 0.4350104 -0.9004209 9.30331e-5 0.4350199 -0.9004282 0 0.4350047 -0.900426 0 0.4350094 -0.900439 1.87104e-4 0.4349822 -0.9004351 1.87123e-4 0.4349904 -0.9004396 -9.30254e-5 0.4349811 -0.9004207 0 0.4350202 -0.900424 0 0.4350134 -0.9004489 0 0.434962 -0.9004248 9.30239e-5 0.4350117 -0.900435 -9.30249e-5 0.4349905 -0.900424 0 0.4350134 -0.9004114 9.32055e-5 0.4350394 -0.9004459 0 0.4349681 -0.9004473 0 0.4349651 -0.900406 0 0.4350506 -0.9004248 -9.3202e-5 0.4350118 -0.9004374 0 0.4349858 -0.9004473 9.31995e-5 0.4349651 -0.9004203 0 0.4350212 -0.9004214 -1.86403e-4 0.4350188 -0.9004317 0 0.4349976 -0.9004197 9.32112e-5 0.4350222 -0.9004244 0 0.4350128 -0.9004493 0 0.4349611 -0.9004031 0 0.4350568 -0.9004481 1.8639e-4 0.4349634 -0.9004318 -4.66472e-5 0.4349973 -0.9004293 9.32894e-5 0.4350026 -0.9004158 -4.66464e-5 0.4350304 -0.9004361 0 0.4349884 -0.9004338 4.66473e-5 0.4349931 -0.9004315 0 0.4349979 -0.9004199 0 0.4350221 -0.9004526 -9.32918e-5 0.4349542 -0.9004352 1.16613e-5 0.4349902 -0.9004476 0 0.4349648 -0.9004224 0 0.4350168 -0.9004312 -2.33224e-5 0.4349985 -0.9004278 9.52073e-6 0.4350057 -0.9004188 0 0.4350241 -0.9004319 1.16612e-5 0.4349968 -0.90042 0 0.4350218 -0.9004288 0 0.4350035 -0.9004289 0 0.4350033 -0.9004266 -1.16623e-5 0.4350081 -0.9004244 0 0.4350126 -0.9004193 -2.33245e-5 0.4350232 -0.900443 0 0.4349743 -0.9004309 0 0.4349991 -0.900415 0 0.4350321 -0.9004064 -4.66483e-5 0.4350498 -0.9004324 0 0.434996 -0.9004418 -9.32907e-5 0.4349766 -0.9004127 0 0.4350368 -0.9004327 0 0.4349955 -0.9004151 9.32976e-5 0.4350321 -0.9004266 -4.6647e-5 0.4350079 -0.900435 9.329e-5 0.4349908 -0.9004276 0 0.4350058 -0.9004069 6.99096e-5 0.4350487 0.9238776 0 -0.3826881 0.9238766 1.82375e-4 -0.3826907 0.9238818 0 -0.3826782 0.9238784 0 -0.3826865 0.9238826 -1.82376e-4 -0.3826761 0.9238785 9.11883e-5 -0.3826859 0.9238769 1.82377e-4 -0.3826899 0.9238789 0 -0.3826849 0.9238802 0 -0.382682 0.9238794 -9.11885e-5 -0.3826838 0.9238781 1.82376e-4 -0.3826869 0.9238794 0 -0.3826841 0.9238811 0 -0.3826797 0.9238786 0 -0.3826857 0.9238791 0 -0.3826847 0.923878 0 -0.3826872 0.9238795 -9.11884e-5 -0.3826835 0.9238805 0 -0.3826811 0.9238792 -1.82377e-4 -0.3826845 0.9238777 0 -0.3826879 0.9238811 0 -0.38268 0.9238798 0 -0.382683 0.9238805 0 -0.3826811 0.9238826 0 -0.3826761 0.9238767 0 -0.3826903 0.9238818 9.11885e-5 -0.3826782 0.9238773 -4.55942e-5 -0.3826889 0.9238786 0 -0.3826858 0.9238816 0 -0.3826786 0.9238809 0 -0.3826802 0.9238789 -4.5594e-5 -0.3826849 0.9238781 0 -0.3826869 0.9238794 0 -0.3826838 0.9238842 0 -0.3826723 0.9238794 9.11885e-5 -0.3826841 0.9238811 -1.82378e-4 -0.3826797 0.92388 0 -0.3826824 0.9238786 9.11882e-5 -0.3826857 0.9238801 0 -0.3826823 0.9238762 0 -0.3826918 0.9238805 -4.55942e-5 -0.3826811 0.9238831 1.82378e-4 -0.3826748 0.9238777 -4.5594e-5 -0.3826879 0.9238811 -9.11876e-5 -0.38268 0.9238808 4.55942e-5 -0.3826806 0.9238786 0 -0.3826861 0.9238823 0 -0.3826767 0.923882 0 -0.3826777 0.9238731 4.56372e-5 -0.382699 0.923877 -1.14094e-5 -0.3826897 0.9238812 0 -0.3826795 0.9238812 0 -0.3826793 0.9238842 0 -0.3826723 0.9238798 0 -0.3826831 0.92388 0 -0.3826823 0.9238811 0 -0.3826799 0.9238716 0 -0.3827027 0.9238762 -1.42617e-5 -0.3826914 0.9238807 1.14094e-5 -0.3826808 0.9238797 0 -0.382683 0.9238796 0 -0.3826833 0.9238795 0 -0.3826835 0.9238797 -2.85236e-6 -0.382683 0.9238809 1.06964e-6 -0.3826802 0.9238818 -5.7047e-6 -0.382678 0.9238799 1.14095e-5 -0.3826827 0.9238757 0 -0.3826927 0.9238744 -1.14092e-5 -0.3826957 0.9238845 -1.14094e-5 -0.3826716 0.9238814 2.28189e-5 -0.3826791 0.9238767 0 -0.3826905 0.9238818 -2.28189e-5 -0.3826779 0.9238821 0 -0.3826775 0.923883 0 -0.3826751 0.9238763 0 -0.3826913 0.9238723 0 -0.382701 0.9238822 0 -0.3826771 0.9238803 4.56378e-5 -0.3826816 0.9238792 0 -0.3826845 0.9238766 -1.82375e-4 -0.3826907 0.9238767 9.1188e-5 -0.3826903 0.9238809 1.82378e-4 -0.3826802 0.9238823 0 -0.3826771 0.923879 0 -0.3826851 0.9238786 -4.55938e-5 -0.3826858 0.9238789 1.82378e-4 -0.382685 0.9238837 0 -0.3826733 0.9238849 9.11894e-5 -0.3826704 0.9238758 -4.55939e-5 -0.3826928 0.9238749 0 -0.3826948 0.9238818 -4.55942e-5 -0.3826782 0.9238766 -9.11874e-5 -0.3826907 0.9238799 4.55944e-5 -0.3826826 0.9238826 -9.1188e-5 -0.3826761 0.9238787 4.55941e-5 -0.3826854 0.9238846 9.11882e-5 -0.3826712 0.9238827 0 -0.3826757 0.9238813 -9.11901e-5 -0.3826794 0.9238728 0 -0.3827 0.923879 -9.11888e-5 -0.3826851 0.9238817 2.28188e-5 -0.3826783 0.9238803 -4.56378e-5 -0.3826816 0.923882 -9.22406e-5 -0.3826775 0.9238809 0 -0.3826802 0.9238813 0 -0.3826792 0.9238727 4.5507e-5 -0.3827 0.9238864 -9.15362e-5 -0.3826671 0.923882 0 -0.3826778 0.9238826 9.1537e-5 -0.382676 0.9238788 -4.55073e-5 -0.3826855 0.9238762 0 -0.3826915 0.9238801 0 -0.3826822 0.9238746 9.15362e-5 -0.3826956 0.9238867 -9.15374e-5 -0.3826662 0.9238749 4.55074e-5 -0.3826947 0.9238826 -9.1537e-5 -0.382676 0.9238837 4.55076e-5 -0.3826733 0.9238806 0 -0.3826809 0.923877 -4.55075e-5 -0.3826899 0.9238767 0 -0.3826907 0.9238789 0 -0.3826851 0.9238806 -1.83074e-4 -0.3826809 0.9238824 0 -0.3826768 0.9238767 -6.8391e-5 -0.3826906 0.9238733 0 -0.3826985 0.9238817 0 -0.3826783 0.9238814 4.56379e-5 -0.3826791 0.9238772 0 -0.3826893 0.9238833 0 -0.3826747 0.9238815 0 -0.3826787 0.9238768 -1.14094e-5 -0.3826903 0.9238741 0 -0.3826966 0.9238845 1.14094e-5 -0.3826715 0.9238796 0 -0.3826836 0.9238759 -1.14094e-5 -0.3826924 0.9238815 2.85235e-6 -0.3826786 0.9238702 7.88848e-6 -0.3827061 0.9238765 5.70467e-6 -0.3826908 0.9238799 0 -0.3826827 0.9238812 0 -0.3826797 0.9238855 -1.14094e-5 -0.382669 0.9238792 0 -0.3826844 0.9238808 0 -0.3826803 0.9238814 0 -0.3826789 0.923877 0 -0.3826897 0.923883 2.28187e-5 -0.3826751 0.9238814 0 -0.3826791 0.9238803 0 -0.3826816 0.923879 9.11888e-5 -0.3826851 0.9238796 0 -0.3826834 0.9238837 -4.5594e-5 -0.3826737 0.9238809 9.1189e-5 -0.3826802 0.9238787 0 -0.3826854 0.9238728 9.11882e-5 -0.3826996 0.9238849 0 -0.3826704 0.9238758 0 -0.3826928 0.9238786 -9.11876e-5 -0.3826858 0.9238846 0 -0.3826712 0.9238725 0 -0.3827005 0.9238798 4.55941e-5 -0.382683 0.9238769 0 -0.3826899 0.9238812 2.28188e-5 -0.3826795 0.9238801 -1.14095e-5 -0.3826825 0.9238811 -9.22405e-5 -0.38268 0.9238804 0 -0.3826814 0.9238793 -9.15389e-5 -0.3826841 0.9238807 4.55074e-5 -0.3826806 0.9238722 0 -0.3827013 0.9238829 0 -0.3826754 0.9238798 4.55074e-5 -0.382683 0.9238762 9.15352e-5 -0.3826915 0.9238811 -4.5508e-5 -0.3826798 0.9238867 0 -0.3826662 0.9238749 0 -0.3826947 0.9238725 0 -0.3827004 0.9238847 0 -0.3826712 0.9238778 -4.55073e-5 -0.3826879 0.9238829 4.55078e-5 -0.3826754 0.9238767 -9.15364e-5 -0.3826907 0.9238799 0 -0.3826826 0.9238826 0 -0.382676 0.9238773 0 -0.3826889 0.9238817 -1.42482e-5 -0.3826785 0 -1 0 0 -1 0 -0.4777438 -0.7372424 -0.477739 -0.4304589 -0.7933534 -0.4304596 -0.4304382 -0.7933731 -0.4304441 -0.3799149 -0.8434056 -0.3799102 -0.3799486 -0.843372 -0.3799512 -0.3264973 -0.8870168 -0.3264979 -0.3265125 -0.8870068 -0.3265098 -0.2705845 -0.9238876 -0.2705844 -0.2705949 -0.9238826 -0.2705906 -0.2126494 -0.9537087 -0.2126503 -0.2126283 -0.9537169 -0.2126342 -0.1530328 -0.9763005 -0.1530305 -0.1530431 -0.976297 -0.1530426 -0.09230226 -0.9914436 -0.09230291 -0.09229582 -0.991445 -0.09229457 -0.03084146 -0.9990484 -0.0308417 -0.030842 -0.9990484 -0.03084164 -0.7069353 -0.0217626 -0.7069435 -0.7069402 -0.02176278 -0.7069385 -0.7055876 -0.06555652 -0.7055838 -0.7055981 -0.06528919 -0.7055981 -0.7029007 -0.1089034 -0.7029017 -0.7029003 -0.1089043 -0.702902 -0.6988743 -0.1521615 -0.6988717 -0.6988848 -0.1520761 -0.6988797 -0.6934956 -0.1952363 -0.6935032 -0.693537 -0.1949824 -0.6935333 -0.6868259 -0.2377822 -0.6868259 -0.6868388 -0.2377018 -0.6868408 -0.6788783 -0.2797173 -0.6788833 -0.6788489 -0.2798907 -0.6788412 -0.669595 -0.3213703 -0.6695997 -0.6695761 -0.3214591 -0.6695759 -0.6590401 -0.3624001 -0.659039 -0.6589961 -0.3625656 -0.6589919 -0.6472282 -0.4027161 -0.6472368 -0.6472277 -0.402729 -0.6472294 -0.6341546 -0.4423848 -0.634148 -0.6341728 -0.4423239 -0.6341723 -0.6199772 -0.4808804 -0.6199858 -0.6199484 -0.4809666 -0.6199477 -0.6044898 -0.5188335 -0.6044865 -0.604538 -0.5187176 -0.6045379 -0.5879283 -0.5555925 -0.5879263 -0.5879791 -0.5554865 -0.5879757 -0.5702166 -0.5913509 -0.5702256 -0.5702732 -0.5912587 -0.5702647 -0.5514405 -0.6259614 -0.5514398 -0.5514278 -0.6259788 -0.5514327 -0.5315985 -0.6593973 -0.5315998 -0.5317115 -0.6592144 -0.5317134 -0.5107128 -0.6916254 -0.5107121 -0.5108268 -0.6914604 -0.5108214 -0.477696 -0.7372981 -0.4777008 -0.7071068 0 -0.7071068 -0.7071068 0 -0.7071068 -0.7069352 0.0217626 -0.7069435 -0.7069402 0.02176278 -0.7069385 -0.705589 0.06546711 -0.7055908 -0.7055969 0.0653786 -0.7055912 -0.7028938 0.1089919 -0.7028948 -0.7029072 0.1088158 -0.7029088 -0.698881 0.1520735 -0.6988841 -0.6988781 0.1521642 -0.6988673 -0.6935105 0.1951509 -0.6935124 -0.6935222 0.1950678 -0.693524 -0.6868233 0.2377814 -0.6868289 -0.6868414 0.2377027 -0.6868379 -0.6788809 0.2797183 -0.6788802 -0.6788463 0.2798896 -0.6788443 -0.6695782 0.3214518 -0.6695774 -0.6695929 0.3213776 -0.6695983 -0.6590212 0.3624792 -0.6590144 -0.659015 0.3624865 -0.6590166 -0.6472305 0.4027176 -0.6472335 -0.6472253 0.4027275 -0.6472326 -0.6342048 0.4422407 -0.6341983 -0.6341226 0.4424679 -0.634122 -0.6199505 0.4809494 -0.6199591 -0.6199752 0.4808977 -0.6199744 -0.6045179 0.518768 -0.6045145 -0.6045099 0.5187831 -0.6045097 -0.5879264 0.5555907 -0.58793 -0.587981 0.5554883 -0.5879721 -0.5702166 0.5913509 -0.5702257 -0.5702732 0.5912587 -0.5702647 -0.5514079 0.6260139 -0.5514127 -0.5514604 0.6259262 -0.5514597 -0.5316299 0.6593466 -0.5316313 -0.5316802 0.6592651 -0.531682 -0.5107458 0.6915807 -0.5107396 -0.5107938 0.6915052 -0.5107938 -0.4777095 0.7372804 -0.4777147 -0.477728 0.7372629 -0.4777233 -0.4304426 0.7933682 -0.4304488 -0.4304547 0.7933585 -0.4304549 -0.3799436 0.8433797 -0.3799389 -0.3799199 0.8433979 -0.3799224 -0.3264973 0.8870168 -0.3264979 -0.3265125 0.8870068 -0.3265098 -0.2705959 0.9238817 -0.2705929 -0.2705835 0.9238885 -0.270582 -0.2126309 0.9537156 -0.2126374 -0.2126467 0.9537099 -0.212647 -0.1530395 0.976298 -0.1530399 -0.1530365 0.9762996 -0.1530332 -0.09229815 0.9914442 -0.0923016 -0.09229993 0.9914445 -0.09229594 -0.03084284 0.9990484 -0.03084307 -0.03084057 0.9990484 -0.03084021 0 1 0 0.4777103 0.7372817 0.4777117 0.4304621 0.7933512 0.4304605 0.4304504 0.7933622 0.4304522 0.3799355 0.843383 0.3799397 0.37993 0.84339 0.3799298 0.3264846 0.8870268 0.3264836 0.3265088 0.8870087 0.3265084 0.270592 0.923884 0.2705892 0.2706041 0.9238756 0.2706056 0.2126342 0.9537152 0.2126357 0.2126279 0.9537186 0.2126272 0.1530389 0.9762992 0.1530327 0.1530485 0.9762942 0.1530545 0.09229081 0.9914458 0.09229117 0.09229737 0.991445 0.09229397 0.03084301 0.9990484 0.03084307 0.03084248 0.9990484 0.03084319 0.7069354 0.02163696 0.7069472 0.7069404 0.02190864 0.7069338 0.7055937 0.06545442 0.7055872 0.7055927 0.065454 0.7055882 0.7029043 0.1088183 0.7029113 0.7029075 0.1088178 0.7029082 0.6988787 0.1520909 0.6988826 0.698864 0.1522668 0.698859 0.6935195 0.1950901 0.6935204 0.6935321 0.1949999 0.6935332 0.6868478 0.2376365 0.6868544 0.6868281 0.237806 0.6868155 0.6788549 0.279814 0.6788669 0.678883 0.2797287 0.6788739 0.6695758 0.3214473 0.669582 0.6695636 0.3215234 0.6695576 0.6590272 0.362446 0.6590266 0.6590525 0.3623586 0.6590494 0.6471817 0.4028736 0.6471853 0.6472578 0.4026361 0.647257 0.6341906 0.4422628 0.6341971 0.6341767 0.4423276 0.6341658 0.619963 0.4809104 0.6199766 0.6198971 0.4811119 0.6198863 0.604477 0.518857 0.6044791 0.6045702 0.5186434 0.6045693 0.5879248 0.5555952 0.5879272 0.5879327 0.5555772 0.5879365 0.5702338 0.5913261 0.570234 0.5702147 0.591368 0.5702098 0.5514792 0.6258924 0.5514794 0.5514574 0.6259259 0.5514631 0.5316386 0.6593319 0.5316407 0.5316529 0.659314 0.5316488 0.5108264 0.6914593 0.5108234 0.5107432 0.6915787 0.510745 0.4777158 0.7372772 0.4777133 0.7069354 -0.02181798 0.7069415 0.7069403 -0.02172756 0.7069394 0.705595 -0.065364 0.7055943 0.7055914 -0.06554436 0.7055812 0.7029001 -0.1089082 0.7029015 0.7029116 -0.1087279 0.7029179 0.6988692 -0.1521793 0.698873 0.6988736 -0.1521784 0.6988688 0.6935291 -0.1950022 0.6935356 0.6935226 -0.1950879 0.6935181 0.6868331 -0.2377219 0.6868396 0.6868428 -0.2377206 0.6868304 0.678872 -0.2797306 0.6788842 0.6788659 -0.2798121 0.6788567 0.6695758 -0.3214473 0.6695819 0.6695636 -0.3215234 0.6695576 0.6590488 -0.3623673 0.6590483 0.6590309 -0.3624373 0.6590278 0.6472053 -0.4027978 0.6472089 0.6472342 -0.4027119 0.6472334 0.6341906 -0.4422628 0.6341971 0.6341767 -0.4423276 0.6341658 0.6198842 -0.4811208 0.6198922 0.6199759 -0.4809015 0.6199707 0.6045358 -0.5187266 0.6045323 0.6045113 -0.518774 0.604516 0.5879248 -0.5555952 0.5879272 0.5879327 -0.5555772 0.5879365 0.5702375 -0.5913299 0.5702264 0.570211 -0.5913642 0.5702174 0.5514463 -0.6259455 0.5514521 0.5514904 -0.6258728 0.5514904 0.5316402 -0.659334 0.5316367 0.5316513 -0.659312 0.5316529 0.510793 -0.6915045 0.5107955 0.5107765 -0.6915335 0.5107728 0.4777118 -0.7372828 0.4777088 0.4777103 -0.7372817 0.4777117 0.4304771 -0.7933335 0.4304783 0.4304355 -0.7933798 0.4304344 0.3799362 -0.8433849 0.3799349 0.3799292 -0.8433881 0.3799346 0.3264973 -0.8870163 0.3264992 0.326496 -0.8870191 0.3264927 0.2706032 -0.9238772 0.2706006 0.2705928 -0.9238823 0.2705942 0.2126252 -0.95372 0.2126239 0.212637 -0.953714 0.2126391 0.1530388 -0.9762988 0.1530355 0.1530485 -0.9762948 0.1530518 0.09229087 -0.9914463 0.09228557 0.09229725 -0.9914444 0.09229958 0.03084158 -0.9990483 0.0308445 0.03084385 -0.9990484 0.03084176 0.4777135 -0.7372767 0.4777163 0.4304353 -0.793382 0.4304306 0.4304781 -0.7933328 0.4304788 0.3799425 -0.8433801 0.3799393 0.3799523 -0.8433697 0.3799526 0.3265062 -0.8870103 0.3265064 0.3265135 -0.8870046 0.3265149 0.2706069 -0.9238749 0.2706055 0.2705669 -0.9238973 0.2705689 0.212615 -0.9537239 0.2126164 0.2126548 -0.9537073 0.2126503 0.1530444 -0.9762959 0.1530481 0.1530463 -0.976296 0.1530454 0.09229439 -0.9914457 0.09228903 0.09230339 -0.9914433 0.09230554 0.03083908 -0.9990487 0.0308361 0.03084486 -0.9990482 0.03084444 0.7069387 -0.02205199 0.7069311 0.7069327 -0.02169328 0.7069481 0.7056047 -0.06526035 0.7055942 0.7055816 -0.06561696 0.7055842 0.7029259 -0.1086494 0.7029158 0.7028913 -0.1090031 0.7028955 0.6988841 -0.1520367 0.6988891 0.6988682 -0.1522135 0.6988664 0.693548 -0.1948909 0.693548 0.6934967 -0.1952365 0.6935021 0.6868378 -0.2377359 0.6868301 0.6868237 -0.2377333 0.6868451 0.6788905 -0.2797042 0.6788765 0.6788131 -0.280034 0.678818 0.6696133 -0.3213077 0.6696114 0.6696186 -0.3213144 0.6696029 0.6589973 -0.3625147 0.6590188 0.6590589 -0.3623747 0.6590342 0.6472324 -0.402707 0.6472382 0.6472356 -0.4027157 0.6472296 0.6341667 -0.442317 0.6341834 0.6342192 -0.4421822 0.6342248 0.6199177 -0.4810551 0.6199098 0.6199637 -0.4809209 0.6199678 0.6045265 -0.518741 0.6045292 0.6045306 -0.5187556 0.6045126 0.5878393 -0.5557688 0.5878487 0.5879554 -0.5555326 0.5879558 0.5702838 -0.5912417 0.5702716 0.5702746 -0.5912463 0.5702761 0.5514323 -0.6259669 0.5514417 0.5514293 -0.6259795 0.5514304 0.5316888 -0.6592704 0.5316668 0.5316063 -0.659365 0.5316321 0.5108029 -0.6915059 0.5107837 0.5108528 -0.6914135 0.5108591 0.4776579 -0.7373478 0.4776623 0 -1 0 -0.7069461 -0.02188831 -0.7069287 -0.7069266 -0.02170681 -0.7069538 -0.7055891 -0.06548261 -0.7055892 -0.705604 -0.06530296 -0.705591 -0.702904 -0.1088967 -0.7028994 -0.7028862 -0.1090744 -0.7028897 -0.698889 -0.1519525 -0.6989025 -0.6988886 -0.1521323 -0.6988638 -0.6934985 -0.1951731 -0.6935181 -0.6935313 -0.1949999 -0.693534 -0.686878 -0.2375211 -0.6868642 -0.6868359 -0.2376852 -0.6868495 -0.6787952 -0.280167 -0.678781 -0.6788629 -0.27983 -0.6788523 -0.6695761 -0.3214317 -0.6695892 -0.6695471 -0.3215944 -0.6695399 -0.6590533 -0.3623208 -0.6590694 -0.6590687 -0.3623239 -0.6590524 -0.6472035 -0.4028083 -0.6472041 -0.6472049 -0.4028026 -0.6472063 -0.6342027 -0.442254 -0.6341913 -0.6341959 -0.4422411 -0.6342068 -0.619958 -0.4809598 -0.6199434 -0.6199481 -0.4809427 -0.6199666 -0.6044675 -0.5188735 -0.6044745 -0.6044799 -0.518873 -0.6044626 -0.5879794 -0.55548 -0.5879817 -0.5879251 -0.5555969 -0.5879253 -0.5703262 -0.591144 -0.5703305 -0.5702136 -0.5913746 -0.5702041 -0.5514546 -0.6259398 -0.5514501 -0.5514541 -0.6259232 -0.5514694 -0.5315549 -0.6594839 -0.5315359 -0.5316191 -0.6593647 -0.5316196 -0.5108312 -0.6914384 -0.5108469 -0.510778 -0.6915277 -0.5107793 -0.4777425 -0.7372446 -0.4777369 -0.4776615 -0.7373462 -0.477661 -0.43047 -0.7933382 -0.4304766 -0.4304886 -0.793321 -0.4304899 -0.3799374 -0.8433845 -0.3799345 -0.3798987 -0.8434211 -0.3798921 -0.3265131 -0.8870075 -0.326507 -0.3265045 -0.8870101 -0.3265085 -0.270617 -0.9238682 -0.2706182 -0.2705895 -0.9238852 -0.2705872 -0.212623 -0.9537204 -0.2126241 -0.2126018 -0.953731 -0.2125974 -0.1530742 -0.9762864 -0.1530788 -0.1530318 -0.9762999 -0.1530355 -0.0923084 -0.991443 -0.09230357 -0.09228259 -0.9914469 -0.09228724 -0.03084701 -0.999048 -0.03084737 -0.03084397 -0.9990484 -0.03084176 -0.7071068 0 -0.7071068 -0.4776934 0.737305 -0.4776928 -0.4305019 0.7933066 -0.4305029 -0.4304567 0.7933526 -0.4304636 -0.3799092 0.8434124 -0.3799007 -0.3799268 0.8433932 -0.3799259 -0.3265131 0.8870075 -0.326507 -0.3265045 0.8870101 -0.3265085 -0.2705944 0.9238814 -0.2705956 -0.2706121 0.923872 -0.2706098 -0.2126049 0.9537296 -0.2126003 -0.2126198 0.9537218 -0.2126212 -0.153047 0.9762941 -0.1530573 -0.153059 0.9762922 -0.153057 -0.09229183 0.9914461 -0.09228706 -0.09229916 0.9914439 -0.09230381 -0.03084427 0.9990482 -0.03084456 -0.03084677 0.9990481 -0.03084456 -0.7069461 0.02188831 -0.7069287 -0.7069267 0.02170681 -0.7069538 -0.7055947 0.06548315 -0.7055835 -0.7055984 0.06530243 -0.7055966 -0.702904 0.1088967 -0.7028994 -0.7028861 0.1090743 -0.7028897 -0.6988946 0.1519537 -0.6988967 -0.6988831 0.1521311 -0.6988695 -0.693523 0.1949991 -0.6935425 -0.6935068 0.1951739 -0.6935095 -0.6868484 0.2376918 -0.6868347 -0.6868655 0.2375144 -0.686879 -0.6788347 0.2800025 -0.6788093 -0.6788234 0.2799945 -0.6788239 -0.6695422 0.3215963 -0.6695439 -0.6695809 0.3214298 -0.6695851 -0.6590582 0.3623235 -0.659063 -0.6590638 0.3623212 -0.6590588 -0.6472459 0.4026538 -0.6472578 -0.6471625 0.402957 -0.6471526 -0.6341982 0.4422507 -0.634198 -0.6342004 0.4422444 -0.6342002 -0.619904 0.4810988 -0.6198895 -0.6200021 0.4808036 -0.6200205 -0.6044716 0.518877 -0.6044673 -0.6044757 0.5188694 -0.6044697 -0.5879242 0.5556086 -0.5879152 -0.5879803 0.5554682 -0.5879918 -0.5703262 0.591144 -0.5703305 -0.5702136 0.5913746 -0.570204 -0.5514512 0.6259359 -0.551458 -0.5514576 0.6259272 -0.5514616 -0.5316152 0.6593777 -0.5316075 -0.531559 0.6594709 -0.5315481 -0.5108312 0.6914384 -0.5108469 -0.510778 0.6915277 -0.5107793 -0.4777221 0.7372725 -0.4777142 0 1 0 0.7069441 0.02169358 0.7069366 0.7069272 0.02205169 0.7069426 0.7056047 0.06526035 0.7055942 0.7055816 0.06561696 0.7055842 0.7029259 0.1086494 0.7029158 0.7028913 0.1090031 0.7028955 0.6988841 0.1520367 0.6988891 0.6988682 0.1522135 0.6988664 0.6935426 0.1948893 0.6935538 0.693502 0.1952381 0.6934963 0.6868377 0.2377359 0.6868301 0.6868237 0.2377334 0.6868451 0.6788905 0.2797041 0.6788765 0.678813 0.280034 0.678818 0.6695747 0.3214684 0.6695728 0.6696571 0.3211535 0.6696415 0.6589972 0.3625147 0.6590188 0.6590589 0.3623747 0.6590342 0.6472277 0.4027042 0.6472448 0.6472404 0.4027186 0.6472231 0.6341164 0.4424611 0.634133 0.6342694 0.4420379 0.6342751 0.6199221 0.4810584 0.6199028 0.6199594 0.4809175 0.6199748 0.6044702 0.5188721 0.604473 0.6045868 0.5186246 0.6045688 0.5879056 0.5556522 0.5878927 0.5878891 0.5556492 0.5879119 0.5702801 0.5912379 0.5702791 0.5702782 0.5912501 0.5702685 0.551501 0.6258656 0.551488 0.5513606 0.6260808 0.5513841 0.5317518 0.659169 0.5317296 0.5315434 0.6594663 0.5315693 0.5108662 0.6914124 0.510847 0.5107894 0.6915071 0.5107957 0.477666 0.7373387 0.4776682 0.4777135 0.7372767 0.4777163 0.4304659 0.7933489 0.4304612 0.4304475 0.793366 0.4304481 0.379913 0.8434042 0.3799153 0.3799818 0.8433457 0.3799765 0.3264537 0.8870469 0.3264595 0.3265661 0.8869679 0.3265619 0.2705845 0.923888 0.270583 0.2705893 0.9238841 0.2705914 0.2126331 0.9537158 0.2126346 0.2126366 0.9537155 0.2126321 0.153031 0.9763001 0.1530347 0.1530597 0.9762918 0.1530588 0.09229439 0.9914457 0.09228903 0.09230339 0.9914433 0.09230554 0.03084182 0.9990485 0.0308389 0.03084212 0.9990484 0.03084164 0.7071068 0 0.7071068 0.7071067 0 0.7071068 0.7071068 0 0.7071068</float_array>
          <technique_common>
            <accessor source="#trapezoid_single_eye_default_as_machined__4-mesh-normals-array" count="810" stride="3">
              <param name="X" type="float"/>
              <param name="Y" type="float"/>
              <param name="Z" type="float"/>
            </accessor>
          </technique_common>
        </source>
        <vertices id="trapezoid_single_eye_default_as_machined__4-mesh-vertices">
          <input semantic="POSITION" source="#trapezoid_single_eye_default_as_machined__4-mesh-positions"/>
        </vertices>
        <triangles count="896">
          <input semantic="VERTEX" source="#trapezoid_single_eye_default_as_machined__4-mesh-vertices" offset="0"/>
          <input semantic="NORMAL" source="#trapezoid_single_eye_default_as_machined__4-mesh-normals" offset="1"/>
          <p>0 0 1 0 2 0 3 0 4 0 5 0 5 1 4 1 6 1 4 2 7 2 6 2 6 0 7 0 8 0 7 3 9 3 8 3 8 4 9 4 10 4 9 5 11 5 10 5 10 6 11 6 12 6 11 7 13 7 12 7 12 8 13 8 14 8 13 9 15 9 14 9 14 10 15 10 16 10 15 11 17 11 16 11 16 12 17 12 18 12 17 13 19 13 18 13 18 14 19 14 20 14 19 15 21 15 20 15 20 16 21 16 22 16 21 17 23 17 22 17 22 18 23 18 24 18 23 19 25 19 24 19 24 4 25 4 26 4 25 20 27 20 26 20 26 21 27 21 28 21 27 22 29 22 28 22 28 0 29 0 30 0 29 23 31 23 30 23 30 24 31 24 32 24 31 25 33 25 32 25 32 26 33 26 34 26 33 27 35 27 34 27 34 28 35 28 36 28 35 29 37 29 36 29 36 28 37 28 38 28 37 30 39 30 38 30 38 31 39 31 40 31 39 7 41 7 40 7 40 32 41 32 42 32 41 33 43 33 42 33 42 34 43 34 44 34 2 35 1 35 45 35 1 36 46 36 45 36 45 37 46 37 47 37 46 38 48 38 47 38 47 19 48 19 49 19 48 39 50 39 49 39 49 40 50 40 51 40 50 7 52 7 51 7 51 41 52 41 53 41 52 42 54 42 53 42 53 43 54 43 55 43 54 44 56 44 55 44 55 45 56 45 57 45 56 46 58 46 57 46 57 47 58 47 59 47 58 6 60 6 59 6 59 17 60 17 61 17 60 17 62 17 61 17 61 46 62 46 63 46 62 19 64 19 63 19 63 14 64 14 65 14 64 48 66 48 65 48 65 10 66 10 67 10 66 49 68 49 67 49 67 0 68 0 69 0 68 50 70 50 69 50 69 51 70 51 71 51 70 52 72 52 71 52 71 53 72 53 73 53 72 54 74 54 73 54 73 36 74 36 75 36 74 55 76 55 75 55 75 1 76 1 77 1 76 32 78 32 77 32 77 56 78 56 79 56 78 57 80 57 79 57 79 28 80 28 81 28 80 33 82 33 81 33 81 58 82 58 83 58 44 59 43 59 84 59 43 60 85 60 84 60 84 61 85 61 86 61 85 62 87 62 86 62 86 63 87 63 88 63 87 64 89 64 88 64 88 65 89 65 90 65 89 66 91 66 90 66 90 67 91 67 92 67 91 68 93 68 92 68 92 69 93 69 94 69 93 70 95 70 94 70 94 71 95 71 96 71 95 72 97 72 96 72 97 73 98 73 96 73 96 74 98 74 99 74 98 75 100 75 99 75 99 76 100 76 101 76 100 77 102 77 101 77 101 78 102 78 103 78 102 79 104 79 103 79 103 80 104 80 105 80 104 81 106 81 105 81 105 82 106 82 107 82 106 83 108 83 107 83 107 84 108 84 109 84 108 85 110 85 109 85 109 86 110 86 111 86 110 87 112 87 111 87 111 88 112 88 113 88 112 89 114 89 113 89 113 90 114 90 115 90 114 91 116 91 115 91 115 92 116 92 117 92 116 93 118 93 117 93 117 94 118 94 119 94 118 95 120 95 119 95 119 96 120 96 121 96 120 97 122 97 121 97 121 98 122 98 123 98 122 99 124 99 123 99 123 100 124 100 125 100 124 101 126 101 125 101 125 102 126 102 127 102 126 103 128 103 127 103 127 104 128 104 129 104 128 105 130 105 129 105 129 106 130 106 131 106 130 107 132 107 131 107 131 108 132 108 133 108 132 109 134 109 133 109 133 110 134 110 135 110 2 25 136 25 0 25 136 28 137 28 0 28 0 33 137 33 138 33 137 58 139 58 138 58 138 111 139 111 140 111 139 112 141 112 140 112 140 113 141 113 142 113 141 114 143 114 142 114 142 39 143 39 144 39 143 115 145 115 144 115 144 116 145 116 146 116 145 117 147 117 146 117 146 118 147 118 148 118 147 31 149 31 148 31 148 25 149 25 150 25 149 119 151 119 150 119 150 120 151 120 152 120 151 21 135 21 152 21 152 121 135 121 153 121 135 122 134 122 153 122 83 123 82 123 154 123 82 124 155 124 154 124 154 125 155 125 156 125 155 126 157 126 156 126 156 125 157 125 158 125 157 127 159 127 158 127 158 128 159 128 160 128 159 129 161 129 160 129 160 130 161 130 162 130 161 131 163 131 162 131 162 132 163 132 164 132 163 124 165 124 164 124 164 133 165 133 166 133 5 134 167 134 3 134 167 32 168 32 3 32 3 33 168 33 169 33 168 135 170 135 169 135 169 136 170 136 171 136 170 137 172 137 171 137 171 138 172 138 173 138 172 139 174 139 173 139 173 140 174 140 175 140 174 141 176 141 175 141 175 33 176 33 177 33 176 142 178 142 177 142 177 143 178 143 179 143 178 144 180 144 179 144 179 25 180 25 181 25 180 145 182 145 181 145 181 146 182 146 183 146 182 147 184 147 183 147 165 148 185 148 166 148 185 149 186 149 166 149 166 150 186 150 187 150 186 151 188 151 187 151 187 152 188 152 189 152 188 153 190 153 189 153 189 154 190 154 191 154 190 155 192 155 191 155 191 156 192 156 193 156 192 157 194 157 193 157 193 102 194 102 195 102 194 103 196 103 195 103 195 158 196 158 197 158 196 159 198 159 197 159 197 160 198 160 199 160 198 161 200 161 199 161 199 162 200 162 201 162 200 163 202 163 201 163 201 164 202 164 203 164 202 165 204 165 203 165 203 166 204 166 205 166 204 167 206 167 205 167 205 91 206 91 207 91 206 168 208 168 207 168 207 169 208 169 209 169 208 170 210 170 209 170 209 171 210 171 211 171 210 172 212 172 211 172 211 173 212 173 213 173 212 174 214 174 213 174 213 175 214 175 215 175 214 176 216 176 215 176 215 104 216 104 217 104 216 177 218 177 217 177 217 178 218 178 219 178 218 179 220 179 219 179 219 180 220 180 221 180 220 181 222 181 221 181 221 182 222 182 184 182 222 107 223 107 184 107 184 183 223 183 183 183 224 184 225 184 226 184 227 185 228 185 229 185 228 186 230 186 229 186 229 186 230 186 231 186 230 187 232 187 231 187 231 188 232 188 233 188 232 189 234 189 233 189 233 190 234 190 235 190 234 191 236 191 235 191 235 192 236 192 237 192 236 193 238 193 237 193 237 194 238 194 239 194 238 195 240 195 239 195 239 196 240 196 241 196 240 197 242 197 241 197 241 198 242 198 243 198 242 198 244 198 243 198 243 196 244 196 245 196 244 197 246 197 245 197 245 199 246 199 247 199 246 200 248 200 247 200 247 194 248 194 249 194 248 201 250 201 249 201 249 202 250 202 251 202 250 203 252 203 251 203 251 204 252 204 253 204 252 205 254 205 253 205 253 206 254 206 255 206 256 207 257 207 258 207 257 208 259 208 258 208 258 209 259 209 260 209 259 210 261 210 260 210 260 211 261 211 262 211 261 212 263 212 262 212 262 213 263 213 264 213 263 214 265 214 264 214 264 215 265 215 266 215 265 216 267 216 266 216 266 217 267 217 268 217 267 218 269 218 268 218 268 219 269 219 270 219 269 197 271 197 270 197 270 220 271 220 272 220 271 220 273 220 272 220 272 196 273 196 274 196 273 221 275 221 274 221 274 222 275 222 276 222 275 212 277 212 276 212 276 223 277 223 278 223 277 224 279 224 278 224 278 225 279 225 280 225 279 226 281 226 280 226 280 227 281 227 282 227 281 228 283 228 282 228 282 229 283 229 284 229 226 230 225 230 285 230 225 231 286 231 285 231 285 232 286 232 287 232 286 233 288 233 287 233 287 234 288 234 289 234 288 235 290 235 289 235 289 236 290 236 291 236 290 237 292 237 291 237 291 238 292 238 293 238 292 239 294 239 293 239 293 240 294 240 295 240 294 241 296 241 295 241 295 242 296 242 297 242 296 243 298 243 297 243 297 244 298 244 299 244 298 245 300 245 299 245 299 201 300 201 301 201 300 246 302 246 301 246 301 247 302 247 303 247 302 248 304 248 303 248 303 249 304 249 305 249 304 250 306 250 305 250 305 251 306 251 307 251 306 252 308 252 307 252 307 253 308 253 309 253 308 254 310 254 309 254 309 255 310 255 311 255 310 256 312 256 311 256 311 257 312 257 313 257 312 258 314 258 313 258 313 259 314 259 315 259 314 260 316 260 315 260 315 261 316 261 317 261 254 262 318 262 255 262 318 186 319 186 255 186 255 263 319 263 320 263 319 264 321 264 320 264 320 265 321 265 322 265 321 266 323 266 322 266 322 267 323 267 324 267 323 268 325 268 324 268 324 269 325 269 326 269 325 211 327 211 326 211 326 213 327 213 328 213 327 270 329 270 328 270 328 271 329 271 330 271 329 272 331 272 330 272 330 273 331 273 332 273 331 274 333 274 332 274 332 275 333 275 334 275 333 276 335 276 334 276 334 277 335 277 336 277 335 278 337 278 336 278 336 279 337 279 338 279 337 280 339 280 338 280 338 281 339 281 340 281 339 282 341 282 340 282 340 283 341 283 342 283 341 284 343 284 342 284 342 285 343 285 344 285 317 286 316 286 345 286 316 287 346 287 345 287 345 288 346 288 347 288 346 289 348 289 347 289 347 290 348 290 349 290 348 291 350 291 349 291 349 292 350 292 351 292 350 293 352 293 351 293 351 294 352 294 353 294 352 295 354 295 353 295 353 296 354 296 355 296 354 291 356 291 355 291 355 297 356 297 357 297 356 298 358 298 357 298 357 299 358 299 359 299 358 300 360 300 359 300 359 301 360 301 361 301 360 302 362 302 361 302 361 303 362 303 363 303 362 304 364 304 363 304 363 305 364 305 227 305 364 306 365 306 227 306 227 307 365 307 228 307 344 308 343 308 366 308 343 309 367 309 366 309 366 310 367 310 368 310 367 311 369 311 368 311 368 312 369 312 370 312 369 313 371 313 370 313 370 234 371 234 372 234 371 314 373 314 372 314 372 315 373 315 374 315 373 316 375 316 374 316 374 317 375 317 376 317 375 318 377 318 376 318 376 260 377 260 378 260 377 319 379 319 378 319 378 242 379 242 380 242 379 243 381 243 380 243 380 244 381 244 382 244 381 245 383 245 382 245 382 201 383 201 384 201 383 246 385 246 384 246 384 320 385 320 386 320 385 321 387 321 386 321 386 322 387 322 388 322 387 323 389 323 388 323 388 324 389 324 390 324 389 325 391 325 390 325 390 326 391 326 392 326 391 327 393 327 392 327 392 259 393 259 394 259 393 328 395 328 394 328 394 329 395 329 396 329 395 330 397 330 396 330 396 330 397 330 398 330 397 311 399 311 398 311 398 331 399 331 400 331 283 262 401 262 284 262 401 208 402 208 284 208 284 207 402 207 403 207 402 186 404 186 403 186 403 213 404 213 405 213 404 215 406 215 405 215 405 332 406 332 407 332 406 333 408 333 407 333 407 213 408 213 409 213 408 334 410 334 409 334 409 335 410 335 411 335 410 336 412 336 411 336 411 337 412 337 413 337 412 274 414 274 413 274 413 338 414 338 415 338 414 339 416 339 415 339 415 340 416 340 417 340 416 276 418 276 417 276 417 341 418 341 419 341 418 336 420 336 419 336 419 342 420 342 421 342 420 280 422 280 421 280 421 281 422 281 423 281 422 343 424 343 423 343 423 344 424 344 425 344 424 345 224 345 425 345 425 331 224 331 426 331 224 346 226 346 426 346 400 347 399 347 427 347 399 348 428 348 427 348 427 349 428 349 429 349 428 350 430 350 429 350 429 351 430 351 431 351 430 352 432 352 431 352 431 299 432 299 433 299 432 353 434 353 433 353 433 354 434 354 435 354 434 355 436 355 435 355 435 356 436 356 437 356 436 357 438 357 437 357 437 358 438 358 439 358 438 291 440 291 439 291 439 359 440 359 441 359 440 360 442 360 441 360 441 301 442 301 443 301 442 361 444 361 443 361 443 362 444 362 445 362 444 363 446 363 445 363 445 364 446 364 256 364 446 365 447 365 256 365 256 366 447 366 257 366 115 367 117 367 298 367 117 368 300 368 298 368 135 369 316 369 133 369 316 370 314 370 133 370 133 371 314 371 131 371 314 372 312 372 131 372 131 373 312 373 129 373 312 374 310 374 129 374 129 375 310 375 127 375 310 376 308 376 127 376 127 377 308 377 125 377 308 378 306 378 125 378 125 379 306 379 123 379 306 380 304 380 123 380 123 381 304 381 121 381 304 382 302 382 121 382 121 383 302 383 119 383 302 384 300 384 119 384 119 385 300 385 117 385 59 386 242 386 57 386 242 387 240 387 57 387 57 388 240 388 55 388 240 389 238 389 55 389 55 390 238 390 53 390 238 391 236 391 53 391 53 392 236 392 51 392 236 393 234 393 51 393 51 394 234 394 49 394 234 395 232 395 49 395 49 396 232 396 47 396 232 397 230 397 47 397 47 398 230 398 45 398 230 399 228 399 45 399 45 400 228 400 2 400 228 401 365 401 2 401 2 402 365 402 136 402 365 403 364 403 136 403 136 404 364 404 137 404 364 405 362 405 137 405 137 406 362 406 139 406 362 407 360 407 139 407 139 408 360 408 141 408 360 409 358 409 141 409 141 410 358 410 143 410 358 411 356 411 143 411 143 412 356 412 145 412 356 413 354 413 145 413 145 414 354 414 147 414 354 415 352 415 147 415 147 416 352 416 149 416 352 417 350 417 149 417 149 418 350 418 151 418 350 419 348 419 151 419 151 420 348 420 135 420 348 421 346 421 135 421 135 422 346 422 316 422 61 423 244 423 59 423 244 424 242 424 59 424 244 425 61 425 246 425 61 426 63 426 246 426 246 427 63 427 248 427 63 428 65 428 248 428 248 429 65 429 250 429 65 430 67 430 250 430 250 431 67 431 252 431 67 432 69 432 252 432 252 433 69 433 254 433 69 434 71 434 254 434 254 435 71 435 318 435 71 436 73 436 318 436 318 437 73 437 319 437 73 438 75 438 319 438 319 439 75 439 321 439 75 440 77 440 321 440 321 441 77 441 323 441 77 442 79 442 323 442 323 443 79 443 325 443 79 444 81 444 325 444 325 445 81 445 327 445 81 446 83 446 327 446 327 447 83 447 329 447 83 448 154 448 329 448 329 449 154 449 331 449 154 450 156 450 331 450 331 451 156 451 333 451 156 452 158 452 333 452 333 453 158 453 335 453 158 454 160 454 335 454 335 455 160 455 337 455 160 456 162 456 337 456 337 457 162 457 339 457 162 458 164 458 339 458 339 459 164 459 341 459 164 460 166 460 341 460 166 461 187 461 341 461 341 462 187 462 343 462 187 463 189 463 343 463 343 464 189 464 367 464 189 465 191 465 367 465 367 466 191 466 369 466 191 467 193 467 369 467 369 468 193 468 371 468 193 469 195 469 371 469 371 470 195 470 373 470 195 471 197 471 373 471 373 472 197 472 375 472 197 473 199 473 375 473 375 474 199 474 377 474 199 475 201 475 377 475 377 476 201 476 379 476 201 477 203 477 379 477 379 478 203 478 381 478 381 479 203 479 383 479 203 479 205 479 383 479 184 480 399 480 221 480 399 481 397 481 221 481 221 482 397 482 219 482 397 483 395 483 219 483 219 484 395 484 217 484 395 485 393 485 217 485 217 486 393 486 215 486 393 487 391 487 215 487 215 488 391 488 213 488 391 489 389 489 213 489 213 490 389 490 211 490 389 491 387 491 211 491 211 492 387 492 209 492 387 493 385 493 209 493 209 494 385 494 207 494 385 495 383 495 207 495 207 496 383 496 205 496 20 497 271 497 18 497 271 498 269 498 18 498 18 499 269 499 16 499 269 500 267 500 16 500 16 501 267 501 14 501 267 502 265 502 14 502 14 503 265 503 12 503 265 504 263 504 12 504 12 505 263 505 10 505 263 506 261 506 10 506 10 507 261 507 8 507 261 508 259 508 8 508 8 509 259 509 6 509 259 510 257 510 6 510 6 511 257 511 5 511 257 512 447 512 5 512 5 513 447 513 167 513 447 514 446 514 167 514 167 515 446 515 168 515 446 516 444 516 168 516 168 517 444 517 170 517 444 518 442 518 170 518 170 519 442 519 172 519 442 520 440 520 172 520 172 521 440 521 174 521 440 522 438 522 174 522 174 523 438 523 176 523 438 524 436 524 176 524 176 525 436 525 178 525 436 526 434 526 178 526 178 527 434 527 180 527 434 528 432 528 180 528 180 529 432 529 182 529 432 530 430 530 182 530 182 531 430 531 184 531 430 532 428 532 184 532 184 533 428 533 399 533 273 534 22 534 275 534 22 535 24 535 275 535 275 536 24 536 277 536 24 537 26 537 277 537 277 538 26 538 279 538 26 539 28 539 279 539 279 540 28 540 281 540 28 541 30 541 281 541 281 542 30 542 283 542 30 543 32 543 283 543 283 544 32 544 401 544 32 545 34 545 401 545 401 546 34 546 402 546 34 547 36 547 402 547 402 548 36 548 404 548 36 549 38 549 404 549 404 550 38 550 406 550 38 551 40 551 406 551 406 552 40 552 408 552 40 553 42 553 408 553 408 554 42 554 410 554 42 555 44 555 410 555 410 556 44 556 412 556 44 557 84 557 412 557 412 558 84 558 414 558 84 559 86 559 414 559 414 560 86 560 416 560 86 561 88 561 416 561 416 562 88 562 418 562 88 563 90 563 418 563 418 564 90 564 420 564 90 565 92 565 420 565 420 566 92 566 422 566 92 567 94 567 422 567 422 568 94 568 424 568 94 569 96 569 424 569 96 570 99 570 424 570 424 571 99 571 224 571 99 572 101 572 224 572 224 573 101 573 225 573 101 574 103 574 225 574 225 575 103 575 286 575 103 576 105 576 286 576 286 577 105 577 288 577 105 578 107 578 288 578 288 579 107 579 290 579 107 580 109 580 290 580 290 581 109 581 292 581 109 582 111 582 292 582 292 583 111 583 294 583 111 584 113 584 294 584 294 585 113 585 296 585 113 586 115 586 296 586 296 587 115 587 298 587 186 588 344 588 188 588 344 589 366 589 188 589 188 590 366 590 190 590 366 591 368 591 190 591 190 592 368 592 192 592 368 593 370 593 192 593 192 594 370 594 194 594 370 595 372 595 194 595 194 596 372 596 196 596 372 597 374 597 196 597 196 598 374 598 198 598 374 599 376 599 198 599 198 600 376 600 200 600 376 601 378 601 200 601 200 602 378 602 202 602 378 603 380 603 202 603 202 604 380 604 204 604 62 605 243 605 64 605 243 606 245 606 64 606 64 607 245 607 66 607 245 608 247 608 66 608 66 609 247 609 68 609 247 610 249 610 68 610 68 611 249 611 70 611 249 612 251 612 70 612 70 613 251 613 72 613 251 614 253 614 72 614 72 615 253 615 74 615 253 616 255 616 74 616 74 617 255 617 76 617 255 618 320 618 76 618 76 619 320 619 78 619 320 620 322 620 78 620 78 621 322 621 80 621 322 622 324 622 80 622 80 623 324 623 82 623 324 624 326 624 82 624 82 625 326 625 155 625 326 626 328 626 155 626 155 627 328 627 157 627 328 628 330 628 157 628 157 629 330 629 159 629 330 630 332 630 159 630 159 631 332 631 161 631 332 632 334 632 161 632 161 633 334 633 163 633 334 634 336 634 163 634 163 635 336 635 165 635 336 636 338 636 165 636 165 637 338 637 185 637 338 638 340 638 185 638 185 639 340 639 186 639 340 640 342 640 186 640 186 641 342 641 344 641 380 367 382 367 204 367 382 642 206 642 204 642 270 643 21 643 268 643 21 644 19 644 268 644 268 645 19 645 266 645 19 646 17 646 266 646 266 647 17 647 264 647 17 648 15 648 264 648 264 649 15 649 262 649 15 650 13 650 262 650 262 651 13 651 260 651 13 652 11 652 260 652 260 653 11 653 258 653 11 654 9 654 258 654 258 655 9 655 256 655 9 656 7 656 256 656 256 657 7 657 445 657 7 658 4 658 445 658 445 659 4 659 443 659 4 660 3 660 443 660 443 661 3 661 441 661 3 662 169 662 441 662 441 663 169 663 439 663 169 664 171 664 439 664 439 665 171 665 437 665 171 666 173 666 437 666 437 667 173 667 435 667 173 668 175 668 435 668 435 669 175 669 433 669 175 670 177 670 433 670 433 671 177 671 431 671 177 672 179 672 431 672 431 673 179 673 429 673 179 674 181 674 429 674 429 675 181 675 427 675 181 676 183 676 427 676 427 677 183 677 400 677 183 678 223 678 400 678 223 679 222 679 400 679 400 680 222 680 398 680 222 681 220 681 398 681 398 682 220 682 396 682 220 683 218 683 396 683 396 684 218 684 394 684 218 685 216 685 394 685 394 686 216 686 392 686 216 687 214 687 392 687 392 688 214 688 390 688 214 689 212 689 390 689 390 690 212 690 388 690 212 691 210 691 388 691 388 692 210 692 386 692 210 693 208 693 386 693 386 694 208 694 384 694 208 695 206 695 384 695 384 696 206 696 382 696 270 697 272 697 21 697 272 697 23 697 21 697 98 698 426 698 100 698 426 699 226 699 100 699 100 700 226 700 102 700 226 701 285 701 102 701 102 702 285 702 104 702 285 703 287 703 104 703 104 704 287 704 106 704 287 705 289 705 106 705 106 706 289 706 108 706 289 707 291 707 108 707 108 708 291 708 110 708 291 709 293 709 110 709 110 710 293 710 112 710 293 711 295 711 112 711 112 712 295 712 114 712 295 713 297 713 114 713 114 714 297 714 116 714 23 715 272 715 25 715 272 716 274 716 25 716 25 717 274 717 27 717 274 718 276 718 27 718 27 719 276 719 29 719 276 720 278 720 29 720 29 721 278 721 31 721 278 722 280 722 31 722 31 723 280 723 33 723 280 724 282 724 33 724 33 725 282 725 35 725 282 726 284 726 35 726 35 727 284 727 37 727 284 728 403 728 37 728 37 729 403 729 39 729 403 730 405 730 39 730 39 731 405 731 41 731 405 732 407 732 41 732 41 733 407 733 43 733 407 734 409 734 43 734 43 735 409 735 85 735 409 736 411 736 85 736 85 737 411 737 87 737 411 738 413 738 87 738 87 739 413 739 89 739 413 740 415 740 89 740 89 741 415 741 91 741 415 742 417 742 91 742 91 743 417 743 93 743 417 744 419 744 93 744 93 745 419 745 95 745 419 746 421 746 95 746 95 747 421 747 97 747 421 748 423 748 97 748 97 749 423 749 98 749 423 750 425 750 98 750 98 751 425 751 426 751 297 479 299 479 116 479 299 752 118 752 116 752 241 753 60 753 239 753 60 754 58 754 239 754 239 755 58 755 237 755 58 756 56 756 237 756 237 757 56 757 235 757 56 758 54 758 235 758 235 759 54 759 233 759 54 760 52 760 233 760 233 761 52 761 231 761 52 762 50 762 231 762 231 763 50 763 229 763 50 764 48 764 229 764 229 765 48 765 227 765 48 766 46 766 227 766 227 767 46 767 363 767 46 768 1 768 363 768 363 769 1 769 361 769 1 770 0 770 361 770 361 771 0 771 359 771 0 772 138 772 359 772 359 773 138 773 357 773 138 774 140 774 357 774 357 775 140 775 355 775 140 776 142 776 355 776 355 777 142 777 353 777 142 778 144 778 353 778 353 779 144 779 351 779 144 780 146 780 351 780 351 781 146 781 349 781 146 782 148 782 349 782 349 783 148 783 347 783 148 784 150 784 347 784 347 785 150 785 345 785 150 786 152 786 345 786 345 787 152 787 317 787 152 788 153 788 317 788 153 789 134 789 317 789 317 790 134 790 315 790 134 791 132 791 315 791 315 792 132 792 313 792 132 793 130 793 313 793 313 794 130 794 311 794 130 795 128 795 311 795 311 796 128 796 309 796 128 797 126 797 309 797 309 798 126 798 307 798 126 799 124 799 307 799 307 800 124 800 305 800 124 801 122 801 305 801 305 802 122 802 303 802 122 803 120 803 303 803 303 804 120 804 301 804 120 805 118 805 301 805 301 806 118 806 299 806 241 807 243 807 60 807 243 808 62 808 60 808 22 809 273 809 20 809 273 807 271 807 20 807</p>
        </triangles>
      </mesh>
    </geometry>
  </library_geometries>
  <library_visual_scenes>
    <visual_scene id="Scene" name="Scene">
      <node id="trapezoid_single_eye_default_as_machined__4" name="trapezoid_single_eye_default_as_machined__4" type="NODE">
        <matrix sid="transform">1 0 0 0 0 1 0 0 0 0 1 0 0 0 0 1</matrix>
        <instance_geometry url="#trapezoid_single_eye_default_as_machined__4-mesh" name="trapezoid_single_eye_default_as_machined__4"/>
      </node>
    </visual_scene>
  </library_visual_scenes>
  <scene>
    <instance_visual_scene url="#Scene"/>
  </scene>
</COLLADA>