<?xml version="1.0" encoding="utf-8"?>
<COLLADA xmlns="http://www.collada.org/2005/11/COLLADASchema" version="1.4.1" xmlns:xsi="http://www.w3.org/2001/XMLSchema-instance">
  <asset>
    <contributor>
      <author>Blender User</author>
      <authoring_tool>Blender 3.0.1</authoring_tool>
    </contributor>
    <created>2026-06-04T16:19:18</created>
    <modified>2026-06-04T16:19:18</modified>
    <unit name="meter" meter="1"/>
    <up_axis>Z_UP</up_axis>
  </asset>
  <library_images/>
  <library_geometries>
    <geometry id="trapezoid_default_as_machined__5-mesh" name="trapezoid_default_as_machined__5">
      <mesh>
        <source id="trapezoid_default_as_machined__5-mesh-positions">
          <float_array id="trapezoid_default_as_machined__5-mesh-positions-array" count="864">-0.2926346 -0.01749998 0.1926345 -0.301827 -0.01749998 0.2018269 -0.2903834 -0.01749998 0.1946973 -0.2987396 -0.01749998 0.204656 -0.287961 -0.01749998 0.1965561 -0.2954175 -0.01749998 0.2072051 -0.2853858 -0.01749998 0.1981967 -0.2918858 -0.01749998 0.209455 -0.2826775 -0.01749998 0.1996065 -0.2881715 -0.01749998 0.2113886 -0.2798565 -0.01749998 0.200775 -0.2843028 -0.01749998 0.2129911 -0.2769445 -0.01749998 0.2016932 -0.2803092 -0.01749998 0.2142502 -0.2739635 -0.01749998 0.2023541 -0.2762209 -0.01749998 0.2151566 -0.2709363 -0.01749998 0.2027526 -0.2720693 -0.01749998 0.2157031 -0.2678858 -0.01749998 0.2028858 -0.2678858 -0.01749998 0.2158858 -0.2648354 -0.01749998 0.2027526 -0.2637023 -0.01749998 0.2157031 -0.2618081 -0.01749998 0.2023541 -0.2595507 -0.01749998 0.2151566 -0.2588272 -0.01749998 0.2016932 -0.2554625 -0.01749998 0.2142502 -0.2559151 -0.01749998 0.200775 -0.2514688 -0.01749998 0.2129911 -0.2530942 -0.01749998 0.1996065 -0.2476001 -0.01749998 0.2113886 -0.2503858 -0.01749998 0.1981967 -0.2438858 -0.01749998 0.209455 -0.2478106 -0.01749998 0.1965561 -0.2403541 -0.01749998 0.2072051 -0.2453882 -0.01749998 0.1946973 -0.237032 -0.01749998 0.204656 -0.2431371 -0.01749998 0.1926345 -0.2339447 -0.01749998 0.2018269 -0.2410742 -0.01749998 0.1903834 -0.2311156 -0.01749998 0.1987396 -0.2392155 -0.01749998 0.187961 -0.2285665 -0.01749998 0.1954175 -0.2375749 -0.01749998 0.1853858 -0.2263166 -0.01749998 0.1918858 -0.236165 -0.01749998 0.1826775 -0.224383 -0.01749998 0.1881715 -0.2349966 -0.01749998 0.1798565 -0.2227805 -0.01749998 0.1843028 -0.2340784 -0.01749998 0.1769444 -0.2215213 -0.01749998 0.1803091 -0.2334175 -0.01749998 0.1739635 -0.220615 -0.01749998 0.1762209 -0.233019 -0.01749998 0.1709362 -0.2200685 -0.01749998 0.1720693 -0.2328858 -0.01749998 0.1678858 -0.2198858 -0.01749998 0.1678858 -0.233019 -0.01749998 0.1648353 -0.2200685 -0.01749998 0.1637023 -0.2334175 -0.01749998 0.1618081 -0.220615 -0.01749998 0.1595507 -0.2340784 -0.01749998 0.1588271 -0.2215213 -0.01749998 0.1554625 -0.2349966 -0.01749998 0.1559151 -0.2227805 -0.01749998 0.1514688 -0.236165 -0.01749998 0.1530942 -0.224383 -0.01749998 0.1476001 -0.2375749 -0.01749998 0.1503858 -0.2263166 -0.01749998 0.1438858 -0.2392155 -0.01749998 0.1478106 -0.2285665 -0.01749998 0.1403541 -0.2410742 -0.01749998 0.1453883 -0.2311156 -0.01749998 0.137032 -0.2431371 -0.01749998 0.143137 -0.2339447 -0.01749998 0.1339446 -0.2453882 -0.01749998 0.1410742 -0.237032 -0.01749998 0.1311157 -0.2478106 -0.01749998 0.1392155 -0.2403541 -0.01749998 0.1285665 -0.2503858 -0.01749998 0.1375749 -0.2438858 -0.01749998 0.1263166 -0.2530942 -0.01749998 0.136165 -0.2476001 -0.01749998 0.124383 -0.2559151 -0.01749998 0.1349965 -0.2514688 -0.01749998 0.1227806 -0.2588272 -0.01749998 0.1340784 -0.2554625 -0.01749998 0.1215214 -0.2618081 -0.01749998 0.1334175 -0.2595507 -0.01749998 0.120615 -0.2648354 -0.01749998 0.133019 -0.2637023 -0.01749998 0.1200684 -0.2678858 -0.01749998 0.1328858 -0.2678858 -0.01749998 0.1198858 -0.2709363 -0.01749998 0.133019 -0.2720693 -0.01749998 0.1200684 -0.2739635 -0.01749998 0.1334175 -0.2762209 -0.01749998 0.120615 -0.2769445 -0.01749998 0.1340784 -0.2803092 -0.01749998 0.1215214 -0.2798565 -0.01749998 0.1349965 -0.2843028 -0.01749998 0.1227806 -0.2826775 -0.01749998 0.136165 -0.2881715 -0.01749998 0.124383 -0.2853858 -0.01749998 0.1375749 -0.2918858 -0.01749998 0.1263166 -0.287961 -0.01749998 0.1392155 -0.2954175 -0.01749998 0.1285665 -0.2903834 -0.01749998 0.1410742 -0.2987396 -0.01749998 0.1311157 -0.2926346 -0.01749998 0.143137 -0.301827 -0.01749998 0.1339446 -0.2946974 -0.01749998 0.1453883 -0.304656 -0.01749998 0.137032 -0.2965561 -0.01749998 0.1478106 -0.3072051 -0.01749998 0.1403541 -0.2981967 -0.01749998 0.1503858 -0.309455 -0.01749998 0.1438858 -0.2996066 -0.01749998 0.1530942 -0.3113886 -0.01749998 0.1476001 -0.3007751 -0.01749998 0.1559151 -0.3129911 -0.01749998 0.1514688 -0.3016932 -0.01749998 0.1588271 -0.3142502 -0.01749998 0.1554625 -0.3023541 -0.01749998 0.1618081 -0.3151566 -0.01749998 0.1595507 -0.3027526 -0.01749998 0.1648353 -0.3157032 -0.01749998 0.1637023 -0.3028858 -0.01749998 0.1678858 -0.3158858 -0.01749998 0.1678858 -0.3027526 -0.01749998 0.1709362 -0.3157032 -0.01749998 0.1720693 -0.3023541 -0.01749998 0.1739635 -0.3151566 -0.01749998 0.1762209 -0.3016932 -0.01749998 0.1769444 -0.3142502 -0.01749998 0.1803091 -0.3007751 -0.01749998 0.1798565 -0.3129911 -0.01749998 0.1843028 -0.2996066 -0.01749998 0.1826775 -0.3113886 -0.01749998 0.1881715 -0.2981967 -0.01749998 0.1853858 -0.309455 -0.01749998 0.1918858 -0.2965561 -0.01749998 0.187961 -0.3072051 -0.01749998 0.1954175 -0.2946974 -0.01749998 0.1903834 -0.304656 -0.01749998 0.1987396 -0.236165 -0.02249997 0.1530942 -0.224383 -0.02249997 0.1476001 -0.2349966 -0.02249997 0.1559151 -0.2227805 -0.02249997 0.1514688 -0.2340784 -0.02249997 0.1588271 -0.2215213 -0.02249997 0.1554625 -0.2334175 -0.02249997 0.1618081 -0.220615 -0.02249997 0.1595507 -0.233019 -0.02249997 0.1648353 -0.2200685 -0.02249997 0.1637023 -0.2328858 -0.02249997 0.1678858 -0.2198858 -0.02249997 0.1678858 -0.233019 -0.02249997 0.1709362 -0.2200685 -0.02249997 0.1720693 -0.2334175 -0.02249997 0.1739635 -0.220615 -0.02249997 0.1762209 -0.2340784 -0.02249997 0.1769444 -0.2215213 -0.02249997 0.1803091 -0.2349966 -0.02249997 0.1798565 -0.2227805 -0.02249997 0.1843028 -0.236165 -0.02249997 0.1826775 -0.224383 -0.02249997 0.1881715 -0.2375749 -0.02249997 0.1853858 -0.2263166 -0.02249997 0.1918858 -0.2392155 -0.02249997 0.187961 -0.2285665 -0.02249997 0.1954175 -0.2410742 -0.02249997 0.1903834 -0.2311156 -0.02249997 0.1987396 -0.2431371 -0.02249997 0.1926345 -0.2339447 -0.02249997 0.2018269 -0.2453882 -0.02249997 0.1946973 -0.237032 -0.02249997 0.204656 -0.2478106 -0.02249997 0.1965561 -0.2403541 -0.02249997 0.2072051 -0.2503858 -0.02249997 0.1981967 -0.2438858 -0.02249997 0.209455 -0.2530942 -0.02249997 0.1996065 -0.2476001 -0.02249997 0.2113886 -0.2559151 -0.02249997 0.200775 -0.2514688 -0.02249997 0.2129911 -0.2588272 -0.02249997 0.2016932 -0.2554625 -0.02249997 0.2142502 -0.2618081 -0.02249997 0.2023541 -0.2595507 -0.02249997 0.2151566 -0.2648354 -0.02249997 0.2027526 -0.2637023 -0.02249997 0.2157031 -0.2678858 -0.02249997 0.2028858 -0.2678858 -0.02249997 0.2158858 -0.2709363 -0.02249997 0.2027526 -0.2720693 -0.02249997 0.2157031 -0.2739635 -0.02249997 0.2023541 -0.2762209 -0.02249997 0.2151566 -0.2769445 -0.02249997 0.2016932 -0.2803092 -0.02249997 0.2142502 -0.2798565 -0.02249997 0.200775 -0.2843028 -0.02249997 0.2129911 -0.2826775 -0.02249997 0.1996065 -0.2881715 -0.02249997 0.2113886 -0.2853858 -0.02249997 0.1981967 -0.2918858 -0.02249997 0.209455 -0.287961 -0.02249997 0.1965561 -0.2954175 -0.02249997 0.2072051 -0.2903834 -0.02249997 0.1946973 -0.2987396 -0.02249997 0.204656 -0.2926346 -0.02249997 0.1926345 -0.301827 -0.02249997 0.2018269 -0.2946974 -0.02249997 0.1903834 -0.304656 -0.02249997 0.1987396 -0.2965561 -0.02249997 0.187961 -0.3072051 -0.02249997 0.1954175 -0.2981967 -0.02249997 0.1853858 -0.309455 -0.02249997 0.1918858 -0.2996066 -0.02249997 0.1826775 -0.3113886 -0.02249997 0.1881715 -0.3007751 -0.02249997 0.1798565 -0.3129911 -0.02249997 0.1843028 -0.3016932 -0.02249997 0.1769444 -0.3142502 -0.02249997 0.1803091 -0.3023541 -0.02249997 0.1739635 -0.3151566 -0.02249997 0.1762209 -0.3027526 -0.02249997 0.1709362 -0.3157032 -0.02249997 0.1720693 -0.3028858 -0.02249997 0.1678858 -0.3158858 -0.02249997 0.1678858 -0.3027526 -0.02249997 0.1648353 -0.3157032 -0.02249997 0.1637023 -0.3023541 -0.02249997 0.1618081 -0.3151566 -0.02249997 0.1595507 -0.3016932 -0.02249997 0.1588271 -0.3142502 -0.02249997 0.1554625 -0.3007751 -0.02249997 0.1559151 -0.3129911 -0.02249997 0.1514688 -0.2996066 -0.02249997 0.1530942 -0.3113886 -0.02249997 0.1476001 -0.2981967 -0.02249997 0.1503858 -0.309455 -0.02249997 0.1438858 -0.2965561 -0.02249997 0.1478106 -0.3072051 -0.02249997 0.1403541 -0.2946974 -0.02249997 0.1453883 -0.304656 -0.02249997 0.137032 -0.2926346 -0.02249997 0.143137 -0.301827 -0.02249997 0.1339446 -0.2903834 -0.02249997 0.1410742 -0.2987396 -0.02249997 0.1311157 -0.287961 -0.02249997 0.1392155 -0.2954175 -0.02249997 0.1285665 -0.2853858 -0.02249997 0.1375749 -0.2918858 -0.02249997 0.1263166 -0.2826775 -0.02249997 0.136165 -0.2881715 -0.02249997 0.124383 -0.2798565 -0.02249997 0.1349965 -0.2843028 -0.02249997 0.1227806 -0.2769445 -0.02249997 0.1340784 -0.2803092 -0.02249997 0.1215214 -0.2739635 -0.02249997 0.1334175 -0.2762209 -0.02249997 0.120615 -0.2709363 -0.02249997 0.133019 -0.2720693 -0.02249997 0.1200684 -0.2678858 -0.02249997 0.1328858 -0.2678858 -0.02249997 0.1198858 -0.2648354 -0.02249997 0.133019 -0.2637023 -0.02249997 0.1200684 -0.2618081 -0.02249997 0.1334175 -0.2595507 -0.02249997 0.120615 -0.2588272 -0.02249997 0.1340784 -0.2554625 -0.02249997 0.1215214 -0.2559151 -0.02249997 0.1349965 -0.2514688 -0.02249997 0.1227806 -0.2530942 -0.02249997 0.136165 -0.2476001 -0.02249997 0.124383 -0.2503858 -0.02249997 0.1375749 -0.2438858 -0.02249997 0.1263166 -0.2478106 -0.02249997 0.1392155 -0.2403541 -0.02249997 0.1285665 -0.2453882 -0.02249997 0.1410742 -0.237032 -0.02249997 0.1311157 -0.2431371 -0.02249997 0.143137 -0.2339447 -0.02249997 0.1339446 -0.2410742 -0.02249997 0.1453883 -0.2311156 -0.02249997 0.137032 -0.2392155 -0.02249997 0.1478106 -0.2285665 -0.02249997 0.1403541 -0.2375749 -0.02249997 0.1503858 -0.2263166 -0.02249997 0.1438858</float_array>
          <technique_common>
            <accessor source="#trapezoid_default_as_machined__5-mesh-positions-array" count="288" stride="3">
              <param name="X" type="float"/>
              <param name="Y" type="float"/>
              <param name="Z" type="float"/>
            </accessor>
          </technique_common>
        </source>
        <source id="trapezoid_default_as_machined__5-mesh-normals">
          <float_array id="trapezoid_default_as_machined__5-mesh-normals-array" count="1032">0 1 0 0 1 -5.35135e-7 0 1 7.33904e-7 0 1 2.67572e-7 0 1 -7.33913e-7 0 1 1.33784e-7 0 1 0 0 1 0 0 1 -1.33788e-7 0 1 0 0 1 -1.33784e-7 0 1 1.37607e-7 0 1 0 0 1 3.66956e-7 0 1 -3.66952e-7 0 1 -5.35139e-7 0 1 5.35142e-7 0 1 -7.33904e-7 0 1 5.35143e-7 0 1 -5.35143e-7 0 1 -7.33907e-7 0 1 -7.3391e-7 0 1 5.35139e-7 0 1 -2.67572e-7 0 1 1.33786e-7 0 1 -1.33785e-7 0 1 2.00679e-7 0 1 0 0 1 1.33787e-7 0 1 -1.37607e-7 0 1 2.6757e-7 0 1 0 0 1 1.83476e-7 0 1 -3.66956e-7 0 1 -7.33887e-7 0 1 5.35149e-7 0 1 -5.35146e-7 0 1 7.33917e-7 0 1 -5.35144e-7 0 1 7.33913e-7 0 -1 -7.33908e-7 0 -1 0 0 -1 1.07029e-6 0 -1 -1.46782e-6 0 -1 -1.07028e-6 0 -1 -1.46782e-6 0 -1 5.35144e-7 0 -1 7.33913e-7 0 -1 -5.35144e-7 0 -1 7.33904e-7 0 -1 2.67572e-7 0 -1 -7.33904e-7 0 -1 -1.33785e-7 0 -1 -3.66948e-7 0 -1 1.8348e-7 0 -1 1.33784e-7 0 -1 -1.8348e-7 0 -1 3.66952e-7 0 -1 1.07028e-6 0 -1 -1.07029e-6 0 -1 1.46783e-6 0 -1 -1.46783e-6 0 -1 1.46781e-6 0 -1 -1.07028e-6 0 -1 -7.33921e-7 0 -1 5.35149e-7 0 -1 -2.67572e-7 0 -1 -2.67567e-7 0 -1 2.67574e-7 0 -1 -3.66952e-7 0 -1 -1.83474e-7 0 -1 0 0 -1 -3.66956e-7 0 -1 5.35139e-7 0.9990483 0 -0.04361969 0.9990482 0 -0.04361999 0.9914447 0 -0.1305271 0.9914447 0 -0.130528 0.9762964 0 -0.216438 0.9762965 0 -0.2164379 0.9537152 0 -0.3007113 0.9537146 0 -0.3007133 0.9238815 0 -0.3826789 0.9238806 0 -0.3826812 0.8870097 0 -0.4617508 0.8870116 0 -0.4617473 0.8433907 0 -0.537301 0.8433932 0 -0.5372971 0.7933528 0 -0.6087622 0.7372789 0 -0.6755885 0.7372722 0 -0.6755958 0.6755964 0 -0.7372717 0.6755925 0 -0.7372753 0.608764 0 -0.7933514 0.6087643 0 -0.7933512 0.5372981 0 -0.8433924 0.5372877 0 -0.8433991 0.4617503 0 -0.88701 0.4617506 0 -0.8870098 0.3826869 0 -0.9238782 0.382674 0 -0.9238834 0.3007137 0 -0.9537144 0.3006999 0 -0.9537189 0.2164395 0 -0.9762961 0.1305316 0 -0.9914442 0.1305317 0 -0.9914442 0.0436173 0 -0.9990483 -0.04361689 0 -0.9990484 -0.1305316 0 -0.9914442 -0.1305317 0 -0.9914442 -0.2164395 0 -0.9762961 -0.3006999 0 -0.9537189 -0.3007137 0 -0.9537144 -0.3826773 0 -0.9238822 -0.3826904 0 -0.9238767 -0.4617462 0 -0.8870122 -0.4617466 0 -0.887012 -0.5372896 0 -0.8433978 -0.5373009 0 -0.8433907 -0.608764 0 -0.7933514 -0.6087643 0 -0.7933512 -0.6755899 0 -0.7372776 -0.6755943 0 -0.7372736 -0.737272 0 -0.6755961 -0.7372792 0 -0.6755883 -0.7933552 0 -0.6087592 -0.7933554 0 -0.6087589 -0.8433907 0 -0.537301 -0.8433887 0 -0.5373041 -0.8870114 0 -0.4617477 -0.88701 0 -0.4617505 -0.9238803 0 -0.3826816 -0.9238816 0 -0.3826785 -0.9537159 0 -0.3007091 -0.9537167 0 -0.3007068 -0.9762964 0 -0.216438 -0.9762965 0 -0.2164379 -0.9914447 0 -0.1305281 -0.9914448 0 -0.130527 -0.9990482 0 -0.04361999 -0.9990483 0 -0.04361963 -0.9990483 0 0.04361969 -0.9990482 0 0.04361999 -0.9914447 0 0.1305271 -0.9914449 0 0.130526 -0.9762961 0 0.2164396 -0.9762961 0 0.2164395 -0.9537166 0 0.300707 -0.9537174 0 0.3007046 -0.9238792 0 0.3826842 -0.9238806 0 0.3826812 -0.8870097 0 0.4617508 -0.8870116 0 0.4617473 -0.8433884 0 0.5373044 -0.843393 0 0.5372971 -0.7933523 0 0.6087629 -0.7933554 0 0.6087589 -0.7372789 0 0.6755885 -0.7372757 0 0.6755921 -0.675594 0 0.7372739 -0.675586 0 0.7372813 -0.608764 0 0.7933514 -0.6087643 0 0.7933512 -0.5372951 0 0.8433944 -0.5373063 0 0.8433871 -0.4617401 0 0.8870152 -0.4617466 0 0.887012 -0.3826903 0 0.9238767 -0.3826839 0 0.9238794 -0.3007137 0 0.9537144 -0.3006999 0 0.9537189 -0.2164395 0 0.9762961 -0.1305165 0 0.9914462 -0.1305317 0 0.9914442 -0.04361689 0 0.9990484 0.0436173 0 0.9990483 0.1305316 0 0.9914442 0.1305167 0 0.9914462 0.2164395 0 0.9762961 0.3006999 0 0.9537189 0.3007137 0 0.9537144 0.3826804 0 0.9238808 0.382687 0 0.9238781 0.4617503 0 0.88701 0.4617446 0 0.8870129 0.5373035 0 0.843389 0.5372931 0 0.8433956 0.608764 0 0.7933514 0.6087643 0 0.7933512 0.6755881 0 0.7372793 0.6755966 0 0.7372715 0.7372755 0 0.6755923 0.7372792 0 0.6755883 0.7933528 0 0.6087622 0.79335 0 0.6087659 0.843395 0 0.5372941 0.843391 0 0.5373005 0.8870114 0 0.4617477 0.88701 0 0.4617505 0.9238803 0 0.3826816 0.9238795 0 0.3826839 0.9537159 0 0.3007091 0.9537153 0 0.3007111 0.9762961 0 0.2164396 0.9762961 0 0.2164395 0.9914449 0 0.1305261 0.9914448 0 0.130527 0.9990482 0 0.04361999 0.9990483 0 0.04361963 -0.9990482 0 0.04362052 -0.9914458 0 0.130519 -0.9762949 0 0.2164443 -0.9762954 0 0.216443 -0.953718 0 0.3007026 -0.9537187 0 0.3007007 -0.923878 0 0.3826872 -0.9238765 0 0.3826907 -0.8870117 0 0.4617471 -0.8870118 0 0.4617468 -0.8433909 0 0.5373007 -0.7933545 0 0.60876 -0.793359 0 0.6087542 -0.7372725 0 0.6755955 -0.7372781 0 0.6755895 -0.6755881 0 0.7372794 -0.6755946 0 0.7372733 -0.608753 0 0.7933599 -0.6087601 0 0.7933545 -0.5373024 0 0.8433896 -0.4617503 0 0.8870099 -0.4617509 0 0.8870096 -0.382686 0 0.9238785 -0.3826765 0 0.9238824 -0.3007053 0 0.9537171 -0.3007055 0 0.9537171 -0.2164469 0 0.9762945 -0.2164363 0 0.9762968 -0.1305306 0 0.9914443 -0.1305198 0 0.9914457 -0.04362523 0 0.999048 -0.04361414 0 0.9990485 0.04361379 0 0.9990485 0.04362493 0 0.999048 0.1305206 0 0.9914456 0.1305316 0 0.9914442 0.2164348 0 0.9762971 0.2164455 0 0.9762948 0.3007073 0 0.9537165 0.3007077 0 0.9537163 0.3826752 0 0.923883 0.3826848 0 0.9238791 0.4617489 0 0.8870107 0.4617495 0 0.8870104 0.5373024 0 0.8433896 0.6087616 0 0.7933533 0.6087549 0 0.7933583 0.6755941 0 0.7372738 0.6755886 0 0.7372789 0.7372776 0 0.67559 0.737273 0 0.6755949 0.793357 0 0.6087568 0.793353 0 0.608762 0.8433909 0 0.5373007 0.8870103 0 0.4617498 0.8870105 0 0.4617496 0.9238789 0 0.3826849 0.9238806 0 0.382681 0.9537174 0 0.3007044 0.953717 0 0.3007056 0.976296 0 0.2164399 0.9762958 0 0.2164409 0.9914449 0 0.1305261 0.9914449 0 0.130526 0.9990484 0 0.04361695 0.9990484 0 0.04361671 0.9990484 0 -0.04361671 0.9914448 0 -0.1305269 0.9914449 0 -0.130526 0.976296 0 -0.2164399 0.9762961 0 -0.2164397 0.9537169 0 -0.3007059 0.953717 0 -0.3007056 0.9238806 0 -0.382681 0.9238789 0 -0.3826849 0.8870103 0 -0.4617498 0.8870105 0 -0.4617496 0.8433909 0 -0.5373007 0.7933549 0 -0.6087593 0.737275 0 -0.6755928 0.7372806 0 -0.6755867 0.6755911 0 -0.7372766 0.6755886 0 -0.7372789 0.6087616 0 -0.7933533 0.608762 0 -0.7933531 0.5373024 0 -0.8433896 0.5372945 0 -0.8433947 0.4617533 0 -0.8870084 0.4617451 0 -0.8870127 0.38268 0 -0.9238811 0.3826848 0 -0.9238791 0.3007073 0 -0.9537165 0.3007077 0 -0.9537163 0.2164402 0 -0.976296 0.2164348 0 -0.9762971 0.1305315 0 -0.9914442 0.1305261 0 -0.9914449 0.04361933 0 -0.9990483 0.04361385 0 -0.9990485 -0.04361414 0 -0.9990485 -0.04361969 0 -0.9990482 -0.1305251 0 -0.991445 -0.1305307 0 -0.9914443 -0.2164363 0 -0.9762968 -0.2164416 0 -0.9762957 -0.3007053 0 -0.9537171 -0.3007055 0 -0.9537171 -0.382686 0 -0.9238785 -0.3826813 0 -0.9238805 -0.461746 0 -0.8870123 -0.4617553 0 -0.8870075 -0.5372945 0 -0.8433947 -0.5373024 0 -0.8433896 -0.6087599 0 -0.7933545 -0.6087601 0 -0.7933545 -0.6755881 0 -0.7372794 -0.6755916 0 -0.7372761 -0.7372801 0 -0.6755872 -0.7372756 0 -0.6755923 -0.7933565 0 -0.6087574 -0.7933549 0 -0.6087596 -0.8433909 0 -0.5373007 -0.8870117 0 -0.4617471 -0.8870118 0 -0.4617468 -0.9238764 0 -0.3826912 -0.9238783 0 -0.3826868 -0.953718 0 -0.3007026 -0.9537181 0 -0.3007023 -0.9762952 0 -0.2164432 -0.9762954 0 -0.216443 -0.9914458 0 -0.130519 -0.9914457 0 -0.1305198 -0.9990482 0 -0.04362034 -0.9990482 0 -0.04362028 -0.9990482 0 0.04362034</float_array>
          <technique_common>
            <accessor source="#trapezoid_default_as_machined__5-mesh-normals-array" count="344" stride="3">
              <param name="X" type="float"/>
              <param name="Y" type="float"/>
              <param name="Z" type="float"/>
            </accessor>
          </technique_common>
        </source>
        <vertices id="trapezoid_default_as_machined__5-mesh-vertices">
          <input semantic="POSITION" source="#trapezoid_default_as_machined__5-mesh-positions"/>
        </vertices>
        <triangles count="576">
          <input semantic="VERTEX" source="#trapezoid_default_as_machined__5-mesh-vertices" offset="0"/>
          <input semantic="NORMAL" source="#trapezoid_default_as_machined__5-mesh-normals" offset="1"/>
          <p>0 0 1 0 2 0 1 0 3 0 2 0 2 0 3 0 4 0 3 1 5 1 4 1 4 2 5 2 6 2 5 0 7 0 6 0 6 0 7 0 8 0 7 0 9 0 8 0 8 0 9 0 10 0 9 3 11 3 10 3 10 4 11 4 12 4 11 5 13 5 12 5 12 0 13 0 14 0 13 0 15 0 14 0 14 0 15 0 16 0 15 6 17 6 16 6 16 0 17 0 18 0 17 0 19 0 18 0 18 0 19 0 20 0 19 7 21 7 20 7 20 0 21 0 22 0 21 8 23 8 22 8 22 9 23 9 24 9 23 10 25 10 24 10 24 11 25 11 26 11 25 0 27 0 26 0 26 12 27 12 28 12 27 0 29 0 28 0 28 0 29 0 30 0 29 0 31 0 30 0 30 13 31 13 32 13 31 0 33 0 32 0 32 14 33 14 34 14 33 0 35 0 34 0 34 13 35 13 36 13 35 0 37 0 36 0 36 2 37 2 38 2 37 0 39 0 38 0 38 0 39 0 40 0 39 15 41 15 40 15 40 0 41 0 42 0 41 16 43 16 42 16 42 17 43 17 44 17 43 0 45 0 44 0 44 0 45 0 46 0 45 0 47 0 46 0 46 0 47 0 48 0 47 0 49 0 48 0 48 0 49 0 50 0 49 0 51 0 50 0 50 0 51 0 52 0 51 18 53 18 52 18 52 0 53 0 54 0 53 19 55 19 54 19 54 0 55 0 56 0 55 16 57 16 56 16 56 20 57 20 58 20 57 0 59 0 58 0 58 0 59 0 60 0 59 0 61 0 60 0 60 0 61 0 62 0 61 0 63 0 62 0 62 0 63 0 64 0 63 0 65 0 64 0 64 0 65 0 66 0 65 16 67 16 66 16 66 21 67 21 68 21 67 0 69 0 68 0 68 0 69 0 70 0 69 22 71 22 70 22 70 4 71 4 72 4 71 0 73 0 72 0 72 0 73 0 74 0 73 0 75 0 74 0 74 0 75 0 76 0 75 0 77 0 76 0 76 0 77 0 78 0 77 0 79 0 78 0 78 0 79 0 80 0 79 0 81 0 80 0 80 0 81 0 82 0 81 23 83 23 82 23 82 0 83 0 84 0 83 24 85 24 84 24 84 0 85 0 86 0 85 25 87 25 86 25 86 0 87 0 88 0 87 26 89 26 88 26 88 0 89 0 90 0 89 0 91 0 90 0 90 0 91 0 92 0 91 27 93 27 92 27 92 0 93 0 94 0 93 0 95 0 94 0 94 0 95 0 96 0 95 28 97 28 96 28 96 29 97 29 98 29 97 30 99 30 98 30 98 31 99 31 100 31 99 0 101 0 100 0 100 32 101 32 102 32 101 0 103 0 102 0 102 0 103 0 104 0 103 0 105 0 104 0 104 13 105 13 106 13 105 0 107 0 106 0 106 33 107 33 108 33 107 0 109 0 108 0 108 34 109 34 110 34 109 0 111 0 110 0 110 0 111 0 112 0 111 35 113 35 112 35 112 0 113 0 114 0 113 36 115 36 114 36 114 2 115 2 116 2 115 0 117 0 116 0 116 0 117 0 118 0 117 0 119 0 118 0 118 0 119 0 120 0 119 0 121 0 120 0 120 0 121 0 122 0 121 0 123 0 122 0 122 0 123 0 124 0 123 0 125 0 124 0 124 0 125 0 126 0 125 0 127 0 126 0 126 0 127 0 128 0 127 0 129 0 128 0 128 0 129 0 130 0 129 0 131 0 130 0 130 0 131 0 132 0 131 0 133 0 132 0 132 0 133 0 134 0 133 0 135 0 134 0 134 0 135 0 136 0 135 0 137 0 136 0 136 0 137 0 138 0 137 15 139 15 138 15 138 37 139 37 140 37 139 0 141 0 140 0 140 0 141 0 142 0 141 38 143 38 142 38 142 39 143 39 0 39 143 0 1 0 0 0 144 40 145 40 146 40 145 41 147 41 146 41 146 41 147 41 148 41 147 41 149 41 148 41 148 41 149 41 150 41 149 41 151 41 150 41 150 41 151 41 152 41 151 42 153 42 152 42 152 43 153 43 154 43 153 42 155 42 154 42 154 41 155 41 156 41 155 41 157 41 156 41 156 41 157 41 158 41 157 44 159 44 158 44 158 41 159 41 160 41 159 41 161 41 160 41 160 41 161 41 162 41 161 41 163 41 162 41 162 41 163 41 164 41 163 41 165 41 164 41 164 45 165 45 166 45 165 41 167 41 166 41 166 41 167 41 168 41 167 46 169 46 168 46 168 41 169 41 170 41 169 41 171 41 170 41 170 41 171 41 172 41 171 46 173 46 172 46 172 41 173 41 174 41 173 41 175 41 174 41 174 47 175 47 176 47 175 41 177 41 176 41 176 41 177 41 178 41 177 48 179 48 178 48 178 49 179 49 180 49 179 41 181 41 180 41 180 41 181 41 182 41 181 50 183 50 182 50 182 51 183 51 184 51 183 50 185 50 184 50 184 41 185 41 186 41 185 52 187 52 186 52 186 41 187 41 188 41 187 41 189 41 188 41 188 53 189 53 190 53 189 41 191 41 190 41 190 41 191 41 192 41 191 41 193 41 192 41 192 54 193 54 194 54 193 55 195 55 194 55 194 56 195 56 196 56 195 41 197 41 196 41 196 41 197 41 198 41 197 41 199 41 198 41 198 41 199 41 200 41 199 41 201 41 200 41 200 41 201 41 202 41 201 41 203 41 202 41 202 41 203 41 204 41 203 41 205 41 204 41 204 57 205 57 206 57 205 41 207 41 206 41 206 41 207 41 208 41 207 41 209 41 208 41 208 49 209 49 210 49 209 48 211 48 210 48 210 41 211 41 212 41 211 41 213 41 212 41 212 41 213 41 214 41 213 41 215 41 214 41 214 41 215 41 216 41 215 41 217 41 216 41 216 41 217 41 218 41 217 41 219 41 218 41 218 41 219 41 220 41 219 41 221 41 220 41 220 41 221 41 222 41 221 58 223 58 222 58 222 41 223 41 224 41 223 59 225 59 224 59 224 60 225 60 226 60 225 41 227 41 226 41 226 61 227 61 228 61 227 41 229 41 228 41 228 41 229 41 230 41 229 42 231 42 230 42 230 41 231 41 232 41 231 41 233 41 232 41 232 62 233 62 234 62 233 63 235 63 234 63 234 60 235 60 236 60 235 41 237 41 236 41 236 41 237 41 238 41 237 41 239 41 238 41 238 41 239 41 240 41 239 41 241 41 240 41 240 41 241 41 242 41 241 41 243 41 242 41 242 41 243 41 244 41 243 41 245 41 244 41 244 41 245 41 246 41 245 41 247 41 246 41 246 64 247 64 248 64 247 41 249 41 248 41 248 41 249 41 250 41 249 65 251 65 250 65 250 41 251 41 252 41 251 41 253 41 252 41 252 47 253 47 254 47 253 66 255 66 254 66 254 47 255 47 256 47 255 67 257 67 256 67 256 41 257 41 258 41 257 68 259 68 258 68 258 69 259 69 260 69 259 41 261 41 260 41 260 41 261 41 262 41 261 41 263 41 262 41 262 41 263 41 264 41 263 50 265 50 264 50 264 70 265 70 266 70 265 41 267 41 266 41 266 71 267 71 268 71 267 41 269 41 268 41 268 41 269 41 270 41 269 41 271 41 270 41 270 41 271 41 272 41 271 41 273 41 272 41 272 72 273 72 274 72 273 41 275 41 274 41 274 41 275 41 276 41 275 73 277 73 276 73 276 72 277 72 278 72 277 41 279 41 278 41 278 41 279 41 280 41 279 46 281 46 280 46 280 41 281 41 282 41 281 41 283 41 282 41 282 41 283 41 284 41 283 41 285 41 284 41 284 41 285 41 286 41 285 41 287 41 286 41 286 41 287 41 144 41 287 41 145 41 144 41 226 74 126 74 224 74 126 75 128 75 224 75 224 76 128 76 222 76 128 77 130 77 222 77 222 78 130 78 220 78 130 79 132 79 220 79 220 80 132 80 218 80 132 81 134 81 218 81 218 82 134 82 216 82 134 83 136 83 216 83 216 84 136 84 214 84 136 85 138 85 214 85 214 86 138 86 212 86 138 87 140 87 212 87 212 88 140 88 210 88 140 88 142 88 210 88 210 89 142 89 208 89 142 90 0 90 208 90 208 91 0 91 206 91 0 92 2 92 206 92 206 93 2 93 204 93 2 94 4 94 204 94 204 95 4 95 202 95 4 96 6 96 202 96 202 97 6 97 200 97 6 98 8 98 200 98 200 99 8 99 198 99 8 100 10 100 198 100 198 101 10 101 196 101 10 102 12 102 196 102 196 103 12 103 194 103 12 103 14 103 194 103 194 104 14 104 192 104 14 105 16 105 192 105 192 106 16 106 190 106 16 106 18 106 190 106 190 107 18 107 188 107 18 107 20 107 188 107 188 108 20 108 186 108 20 109 22 109 186 109 186 110 22 110 184 110 22 110 24 110 184 110 184 111 24 111 182 111 24 112 26 112 182 112 182 113 26 113 180 113 26 114 28 114 180 114 180 115 28 115 178 115 28 116 30 116 178 116 178 117 30 117 176 117 30 118 32 118 176 118 176 119 32 119 174 119 32 120 34 120 174 120 174 121 34 121 172 121 34 122 36 122 172 122 172 123 36 123 170 123 36 124 38 124 170 124 170 125 38 125 168 125 38 126 40 126 168 126 168 127 40 127 166 127 40 128 42 128 166 128 166 129 42 129 164 129 42 130 44 130 164 130 164 131 44 131 162 131 44 132 46 132 162 132 162 133 46 133 160 133 46 134 48 134 160 134 160 135 48 135 158 135 48 136 50 136 158 136 158 137 50 137 156 137 50 138 52 138 156 138 156 139 52 139 154 139 52 140 54 140 154 140 154 141 54 141 152 141 54 142 56 142 152 142 152 143 56 143 150 143 56 144 58 144 150 144 150 145 58 145 148 145 58 146 60 146 148 146 148 147 60 147 146 147 60 148 62 148 146 148 146 149 62 149 144 149 62 150 64 150 144 150 144 151 64 151 286 151 64 152 66 152 286 152 286 153 66 153 284 153 66 154 68 154 284 154 284 155 68 155 282 155 68 156 70 156 282 156 282 157 70 157 280 157 70 158 72 158 280 158 280 159 72 159 278 159 72 160 74 160 278 160 278 161 74 161 276 161 74 162 76 162 276 162 276 163 76 163 274 163 76 164 78 164 274 164 274 165 78 165 272 165 78 166 80 166 272 166 272 167 80 167 270 167 80 168 82 168 270 168 270 169 82 169 268 169 82 170 84 170 268 170 268 171 84 171 266 171 84 171 86 171 266 171 266 172 86 172 264 172 86 173 88 173 264 173 264 174 88 174 262 174 88 174 90 174 262 174 262 175 90 175 260 175 90 175 92 175 260 175 260 176 92 176 258 176 92 177 94 177 258 177 258 178 94 178 256 178 94 178 96 178 256 178 256 179 96 179 254 179 96 180 98 180 254 180 254 181 98 181 252 181 98 182 100 182 252 182 252 183 100 183 250 183 100 184 102 184 250 184 250 185 102 185 248 185 102 186 104 186 248 186 248 187 104 187 246 187 104 188 106 188 246 188 246 189 106 189 244 189 106 190 108 190 244 190 244 191 108 191 242 191 108 192 110 192 242 192 242 193 110 193 240 193 110 194 112 194 240 194 240 195 112 195 238 195 112 196 114 196 238 196 238 197 114 197 236 197 114 198 116 198 236 198 236 199 116 199 234 199 116 200 118 200 234 200 234 201 118 201 232 201 118 202 120 202 232 202 232 203 120 203 230 203 120 204 122 204 230 204 230 205 122 205 228 205 122 206 124 206 228 206 228 207 124 207 226 207 124 208 126 208 226 208 127 209 225 209 129 209 225 210 223 210 129 210 129 210 223 210 131 210 223 211 221 211 131 211 131 212 221 212 133 212 221 213 219 213 133 213 133 214 219 214 135 214 219 215 217 215 135 215 135 216 217 216 137 216 217 217 215 217 137 217 137 218 215 218 139 218 215 219 213 219 139 219 139 219 213 219 141 219 213 220 211 220 141 220 141 221 211 221 143 221 211 222 209 222 143 222 143 223 209 223 1 223 209 224 207 224 1 224 1 225 207 225 3 225 207 226 205 226 3 226 3 227 205 227 5 227 205 228 203 228 5 228 5 228 203 228 7 228 203 229 201 229 7 229 7 230 201 230 9 230 201 231 199 231 9 231 9 232 199 232 11 232 199 233 197 233 11 233 11 234 197 234 13 234 197 235 195 235 13 235 13 236 195 236 15 236 195 237 193 237 15 237 15 238 193 238 17 238 193 239 191 239 17 239 17 240 191 240 19 240 191 241 189 241 19 241 19 242 189 242 21 242 189 243 187 243 21 243 21 244 187 244 23 244 187 245 185 245 23 245 23 246 185 246 25 246 185 247 183 247 25 247 25 248 183 248 27 248 183 249 181 249 27 249 27 250 181 250 29 250 181 251 179 251 29 251 29 252 179 252 31 252 179 253 177 253 31 253 31 253 177 253 33 253 177 254 175 254 33 254 33 255 175 255 35 255 175 256 173 256 35 256 35 257 173 257 37 257 173 258 171 258 37 258 37 259 171 259 39 259 171 260 169 260 39 260 39 261 169 261 41 261 169 262 167 262 41 262 41 262 167 262 43 262 167 263 165 263 43 263 43 264 165 264 45 264 165 265 163 265 45 265 45 266 163 266 47 266 163 267 161 267 47 267 47 268 161 268 49 268 161 269 159 269 49 269 49 270 159 270 51 270 159 271 157 271 51 271 51 272 157 272 53 272 157 273 155 273 53 273 53 274 155 274 55 274 155 275 153 275 55 275 55 275 153 275 57 275 153 276 151 276 57 276 57 277 151 277 59 277 151 278 149 278 59 278 59 279 149 279 61 279 149 280 147 280 61 280 61 281 147 281 63 281 147 282 145 282 63 282 63 283 145 283 65 283 145 284 287 284 65 284 65 285 287 285 67 285 287 286 285 286 67 286 67 286 285 286 69 286 285 88 283 88 69 88 69 287 283 287 71 287 283 288 281 288 71 288 71 289 281 289 73 289 281 290 279 290 73 290 73 291 279 291 75 291 279 292 277 292 75 292 75 293 277 293 77 293 277 294 275 294 77 294 77 295 275 295 79 295 275 296 273 296 79 296 79 297 273 297 81 297 273 298 271 298 81 298 81 299 271 299 83 299 271 300 269 300 83 300 83 301 269 301 85 301 269 302 267 302 85 302 85 303 267 303 87 303 267 304 265 304 87 304 87 305 265 305 89 305 265 306 263 306 89 306 89 307 263 307 91 307 263 308 261 308 91 308 91 309 261 309 93 309 261 310 259 310 93 310 93 311 259 311 95 311 259 312 257 312 95 312 95 313 257 313 97 313 257 314 255 314 97 314 97 315 255 315 99 315 255 316 253 316 99 316 99 317 253 317 101 317 253 318 251 318 101 318 101 319 251 319 103 319 251 320 249 320 103 320 103 321 249 321 105 321 249 322 247 322 105 322 105 323 247 323 107 323 247 324 245 324 107 324 107 325 245 325 109 325 245 326 243 326 109 326 109 327 243 327 111 327 243 328 241 328 111 328 111 329 241 329 113 329 241 330 239 330 113 330 113 330 239 330 115 330 239 331 237 331 115 331 115 332 237 332 117 332 237 333 235 333 117 333 117 334 235 334 119 334 235 335 233 335 119 335 119 336 233 336 121 336 233 337 231 337 121 337 121 338 231 338 123 338 231 339 229 339 123 339 123 340 229 340 125 340 229 341 227 341 125 341 125 342 227 342 127 342 227 343 225 343 127 343</p>
        </triangles>
      </mesh>
    </geometry>
  </library_geometries>
  <library_visual_scenes>
    <visual_scene id="Scene" name="Scene">
      <node id="trapezoid_default_as_machined__5" name="trapezoid_default_as_machined__5" type="NODE">
        <matrix sid="transform">1 0 0 0 0 1 0 0 0 0 1 0 0 0 0 1</matrix>
        <instance_geometry url="#trapezoid_default_as_machined__5-mesh" name="trapezoid_default_as_machined__5"/>
      </node>
    </visual_scene>
  </library_visual_scenes>
  <scene>
    <instance_visual_scene url="#Scene"/>
  </scene>
</COLLADA>