<?xml version="1.0" encoding="utf-8"?>
<COLLADA xmlns="http://www.collada.org/2005/11/COLLADASchema" version="1.4.1" xmlns:xsi="http://www.w3.org/2001/XMLSchema-instance">
  <asset>
    <contributor>
      <author>Blender User</author>
      <authoring_tool>Blender 3.0.1</authoring_tool>
    </contributor>
    <created>2026-06-04T16:19:13</created>
    <modified>2026-06-04T16:19:13</modified>
    <unit name="meter" meter="1"/>
    <up_axis>Z_UP</up_axis>
  </asset>
  <library_images/>
  <library_geometries>
    <geometry id="trapezoid__7-mesh" name="trapezoid__7">
      <mesh>
        <source id="trapezoid__7-mesh-positions">
          <float_array id="trapezoid__7-mesh-positions-array" count="864">-0.3028858 -0.02249997 0.1678858 -0.3028858 -0.01749998 0.1678858 -0.3027526 -0.02249997 0.1709362 -0.3027526 -0.01749998 0.1709362 -0.3023541 -0.02249997 0.1739635 -0.3023541 -0.01749998 0.1739635 -0.3016932 -0.02249997 0.1769444 -0.3016932 -0.01749998 0.1769444 -0.3007751 -0.02249997 0.1798565 -0.3007751 -0.01749998 0.1798565 -0.2996066 -0.02249997 0.1826775 -0.2996066 -0.01749998 0.1826775 -0.2981967 -0.02249997 0.1853858 -0.2981967 -0.01749998 0.1853858 -0.2965561 -0.02249997 0.187961 -0.2965561 -0.01749998 0.187961 -0.2946974 -0.02249997 0.1903834 -0.2946974 -0.01749998 0.1903834 -0.2926346 -0.02249997 0.1926345 -0.2926346 -0.01749998 0.1926345 -0.2903834 -0.02249997 0.1946973 -0.2903834 -0.01749998 0.1946973 -0.287961 -0.02249997 0.1965561 -0.287961 -0.01749998 0.1965561 -0.2853858 -0.02249997 0.1981967 -0.2853858 -0.01749998 0.1981967 -0.2826775 -0.02249997 0.1996065 -0.2826775 -0.01749998 0.1996065 -0.2798565 -0.02249997 0.200775 -0.2798565 -0.01749998 0.200775 -0.2769445 -0.02249997 0.2016932 -0.2769445 -0.01749998 0.2016932 -0.2739635 -0.02249997 0.2023541 -0.2739635 -0.01749998 0.2023541 -0.2709363 -0.02249997 0.2027526 -0.2709363 -0.01749998 0.2027526 -0.2678858 -0.02249997 0.2028858 -0.2678858 -0.01749998 0.2028858 -0.2648354 -0.02249997 0.2027526 -0.2648354 -0.01749998 0.2027526 -0.2618081 -0.02249997 0.2023541 -0.2618081 -0.01749998 0.2023541 -0.2588272 -0.02249997 0.2016932 -0.2588272 -0.01749998 0.2016932 -0.2559151 -0.02249997 0.200775 -0.2559151 -0.01749998 0.200775 -0.2530942 -0.02249997 0.1996065 -0.2530942 -0.01749998 0.1996065 -0.2503858 -0.02249997 0.1981967 -0.2503858 -0.01749998 0.1981967 -0.2478106 -0.02249997 0.1965561 -0.2478106 -0.01749998 0.1965561 -0.2453882 -0.02249997 0.1946973 -0.2453882 -0.01749998 0.1946973 -0.2431371 -0.02249997 0.1926345 -0.2431371 -0.01749998 0.1926345 -0.2410742 -0.02249997 0.1903834 -0.2410742 -0.01749998 0.1903834 -0.2392155 -0.02249997 0.187961 -0.2392155 -0.01749998 0.187961 -0.2375749 -0.02249997 0.1853858 -0.2375749 -0.01749998 0.1853858 -0.236165 -0.02249997 0.1826775 -0.236165 -0.01749998 0.1826775 -0.2349966 -0.02249997 0.1798565 -0.2349966 -0.01749998 0.1798565 -0.2340784 -0.02249997 0.1769444 -0.2340784 -0.01749998 0.1769444 -0.2334175 -0.02249997 0.1739635 -0.2334175 -0.01749998 0.1739635 -0.233019 -0.02249997 0.1709362 -0.233019 -0.01749998 0.1709362 -0.2328858 -0.02249997 0.1678858 -0.2328858 -0.01749998 0.1678858 -0.233019 -0.02249997 0.1648353 -0.233019 -0.01749998 0.1648353 -0.2334175 -0.02249997 0.1618081 -0.2334175 -0.01749998 0.1618081 -0.2340784 -0.02249997 0.1588271 -0.2340784 -0.01749998 0.1588271 -0.2349966 -0.02249997 0.1559151 -0.2349966 -0.01749998 0.1559151 -0.236165 -0.02249997 0.1530942 -0.236165 -0.01749998 0.1530942 -0.2375749 -0.02249997 0.1503858 -0.2375749 -0.01749998 0.1503858 -0.2392155 -0.02249997 0.1478106 -0.2392155 -0.01749998 0.1478106 -0.2410742 -0.02249997 0.1453883 -0.2410742 -0.01749998 0.1453883 -0.2431371 -0.02249997 0.143137 -0.2431371 -0.01749998 0.143137 -0.2453882 -0.02249997 0.1410742 -0.2453882 -0.01749998 0.1410742 -0.2478106 -0.02249997 0.1392155 -0.2478106 -0.01749998 0.1392155 -0.2503858 -0.02249997 0.1375749 -0.2503858 -0.01749998 0.1375749 -0.2530942 -0.02249997 0.136165 -0.2530942 -0.01749998 0.136165 -0.2559151 -0.02249997 0.1349965 -0.2559151 -0.01749998 0.1349965 -0.2588272 -0.02249997 0.1340784 -0.2588272 -0.01749998 0.1340784 -0.2618081 -0.02249997 0.1334175 -0.2618081 -0.01749998 0.1334175 -0.2648354 -0.02249997 0.133019 -0.2648354 -0.01749998 0.133019 -0.2678858 -0.02249997 0.1328858 -0.2678858 -0.01749998 0.1328858 -0.2709363 -0.02249997 0.133019 -0.2709363 -0.01749998 0.133019 -0.2739635 -0.02249997 0.1334175 -0.2739635 -0.01749998 0.1334175 -0.2769445 -0.02249997 0.1340784 -0.2769445 -0.01749998 0.1340784 -0.2798565 -0.02249997 0.1349965 -0.2798565 -0.01749998 0.1349965 -0.2826775 -0.02249997 0.136165 -0.2826775 -0.01749998 0.136165 -0.2853858 -0.02249997 0.1375749 -0.2853858 -0.01749998 0.1375749 -0.287961 -0.02249997 0.1392155 -0.287961 -0.01749998 0.1392155 -0.2903834 -0.02249997 0.1410742 -0.2903834 -0.01749998 0.1410742 -0.2926346 -0.02249997 0.143137 -0.2926346 -0.01749998 0.143137 -0.2946974 -0.02249997 0.1453883 -0.2946974 -0.01749998 0.1453883 -0.2965561 -0.02249997 0.1478106 -0.2965561 -0.01749998 0.1478106 -0.2981967 -0.02249997 0.1503858 -0.2981967 -0.01749998 0.1503858 -0.2996066 -0.02249997 0.1530942 -0.2996066 -0.01749998 0.1530942 -0.3007751 -0.02249997 0.1559151 -0.3007751 -0.01749998 0.1559151 -0.3016932 -0.02249997 0.1588271 -0.3016932 -0.01749998 0.1588271 -0.3023541 -0.02249997 0.1618081 -0.3023541 -0.01749998 0.1618081 -0.3027526 -0.02249997 0.1648353 -0.3027526 -0.01749998 0.1648353 -0.3158858 -0.01749998 0.1678858 -0.3157032 -0.02249997 0.1720693 -0.3157032 -0.01749998 0.1720693 -0.3151566 -0.02249997 0.1762209 -0.3151566 -0.01749998 0.1762209 -0.3142502 -0.02249997 0.1803091 -0.3142502 -0.01749998 0.1803091 -0.3129911 -0.02249997 0.1843028 -0.3129911 -0.01749998 0.1843028 -0.3113886 -0.02249997 0.1881715 -0.3113886 -0.01749998 0.1881715 -0.309455 -0.02249997 0.1918858 -0.309455 -0.01749998 0.1918858 -0.3072051 -0.02249997 0.1954175 -0.3072051 -0.01749998 0.1954175 -0.304656 -0.02249997 0.1987396 -0.304656 -0.01749998 0.1987396 -0.301827 -0.02249997 0.2018269 -0.301827 -0.01749998 0.2018269 -0.2987396 -0.02249997 0.204656 -0.2987396 -0.01749998 0.204656 -0.2954175 -0.02249997 0.2072051 -0.2954175 -0.01749998 0.2072051 -0.2918858 -0.02249997 0.209455 -0.2918858 -0.01749998 0.209455 -0.2881715 -0.02249997 0.2113886 -0.2881715 -0.01749998 0.2113886 -0.2843028 -0.02249997 0.2129911 -0.2843028 -0.01749998 0.2129911 -0.2803092 -0.02249997 0.2142502 -0.2803092 -0.01749998 0.2142502 -0.2762209 -0.02249997 0.2151566 -0.2762209 -0.01749998 0.2151566 -0.2720693 -0.02249997 0.2157031 -0.2720693 -0.01749998 0.2157031 -0.2678858 -0.02249997 0.2158858 -0.2678858 -0.01749998 0.2158858 -0.2637023 -0.02249997 0.2157031 -0.2637023 -0.01749998 0.2157031 -0.2595507 -0.02249997 0.2151566 -0.2595507 -0.01749998 0.2151566 -0.2554625 -0.02249997 0.2142502 -0.2554625 -0.01749998 0.2142502 -0.2514688 -0.02249997 0.2129911 -0.2514688 -0.01749998 0.2129911 -0.2476001 -0.02249997 0.2113886 -0.2476001 -0.01749998 0.2113886 -0.2438858 -0.02249997 0.209455 -0.2438858 -0.01749998 0.209455 -0.2403541 -0.02249997 0.2072051 -0.2403541 -0.01749998 0.2072051 -0.237032 -0.02249997 0.204656 -0.237032 -0.01749998 0.204656 -0.2339447 -0.02249997 0.2018269 -0.2339447 -0.01749998 0.2018269 -0.2311156 -0.02249997 0.1987396 -0.2311156 -0.01749998 0.1987396 -0.2285665 -0.02249997 0.1954175 -0.2285665 -0.01749998 0.1954175 -0.2263166 -0.02249997 0.1918858 -0.2263166 -0.01749998 0.1918858 -0.224383 -0.02249997 0.1881715 -0.224383 -0.01749998 0.1881715 -0.2227805 -0.02249997 0.1843028 -0.2227805 -0.01749998 0.1843028 -0.2215213 -0.02249997 0.1803091 -0.2215213 -0.01749998 0.1803091 -0.220615 -0.02249997 0.1762209 -0.220615 -0.01749998 0.1762209 -0.2200685 -0.02249997 0.1720693 -0.2200685 -0.01749998 0.1720693 -0.2198858 -0.02249997 0.1678858 -0.2198858 -0.01749998 0.1678858 -0.2200685 -0.02249997 0.1637023 -0.2200685 -0.01749998 0.1637023 -0.220615 -0.02249997 0.1595507 -0.220615 -0.01749998 0.1595507 -0.2215213 -0.02249997 0.1554625 -0.2215213 -0.01749998 0.1554625 -0.2227805 -0.02249997 0.1514688 -0.2227805 -0.01749998 0.1514688 -0.224383 -0.02249997 0.1476001 -0.224383 -0.01749998 0.1476001 -0.2263166 -0.02249997 0.1438858 -0.2263166 -0.01749998 0.1438858 -0.2285665 -0.02249997 0.1403541 -0.2285665 -0.01749998 0.1403541 -0.2311156 -0.02249997 0.137032 -0.2311156 -0.01749998 0.137032 -0.2339447 -0.02249997 0.1339446 -0.2339447 -0.01749998 0.1339446 -0.237032 -0.02249997 0.1311157 -0.237032 -0.01749998 0.1311157 -0.2403541 -0.02249997 0.1285665 -0.2403541 -0.01749998 0.1285665 -0.2438858 -0.02249997 0.1263166 -0.2438858 -0.01749998 0.1263166 -0.2476001 -0.02249997 0.124383 -0.2476001 -0.01749998 0.124383 -0.2514688 -0.02249997 0.1227806 -0.2514688 -0.01749998 0.1227806 -0.2554625 -0.02249997 0.1215214 -0.2554625 -0.01749998 0.1215214 -0.2595507 -0.02249997 0.120615 -0.2595507 -0.01749998 0.120615 -0.2637023 -0.02249997 0.1200684 -0.2637023 -0.01749998 0.1200684 -0.2678858 -0.02249997 0.1198858 -0.2678858 -0.01749998 0.1198858 -0.2720693 -0.02249997 0.1200684 -0.2720693 -0.01749998 0.1200684 -0.2762209 -0.02249997 0.120615 -0.2762209 -0.01749998 0.120615 -0.2803092 -0.02249997 0.1215214 -0.2803092 -0.01749998 0.1215214 -0.2843028 -0.02249997 0.1227806 -0.2843028 -0.01749998 0.1227806 -0.2881715 -0.02249997 0.124383 -0.2881715 -0.01749998 0.124383 -0.2918858 -0.02249997 0.1263166 -0.2918858 -0.01749998 0.1263166 -0.2954175 -0.02249997 0.1285665 -0.2954175 -0.01749998 0.1285665 -0.2987396 -0.02249997 0.1311157 -0.2987396 -0.01749998 0.1311157 -0.301827 -0.02249997 0.1339446 -0.301827 -0.01749998 0.1339446 -0.304656 -0.02249997 0.137032 -0.304656 -0.01749998 0.137032 -0.3072051 -0.02249997 0.1403541 -0.3072051 -0.01749998 0.1403541 -0.309455 -0.02249997 0.1438858 -0.309455 -0.01749998 0.1438858 -0.3113886 -0.02249997 0.1476001 -0.3113886 -0.01749998 0.1476001 -0.3129911 -0.02249997 0.1514688 -0.3129911 -0.01749998 0.1514688 -0.3142502 -0.02249997 0.1554625 -0.3142502 -0.01749998 0.1554625 -0.3151566 -0.02249997 0.1595507 -0.3151566 -0.01749998 0.1595507 -0.3157032 -0.02249997 0.1637023 -0.3157032 -0.01749998 0.1637023 -0.3158858 -0.02249997 0.1678858</float_array>
          <technique_common>
            <accessor source="#trapezoid__7-mesh-positions-array" count="288" stride="3">
              <param name="X" type="float"/>
              <param name="Y" type="float"/>
              <param name="Z" type="float"/>
            </accessor>
          </technique_common>
        </source>
        <source id="trapezoid__7-mesh-normals">
          <float_array id="trapezoid__7-mesh-normals-array" count="1032">0.9990483 0 -0.04361969 0.9990482 0 -0.04361999 0.9914447 0 -0.1305271 0.9914447 0 -0.130528 0.9762964 0 -0.216438 0.9762965 0 -0.2164379 0.9537152 0 -0.3007113 0.9537146 0 -0.3007133 0.9238815 0 -0.3826789 0.9238806 0 -0.3826812 0.8870097 0 -0.4617508 0.8870116 0 -0.4617473 0.8433907 0 -0.537301 0.8433932 0 -0.5372971 0.7933528 0 -0.6087622 0.7372789 0 -0.6755885 0.7372722 0 -0.6755958 0.6755964 0 -0.7372717 0.6755925 0 -0.7372753 0.608764 0 -0.7933514 0.6087643 0 -0.7933512 0.5372981 0 -0.8433924 0.5372877 0 -0.8433991 0.4617503 0 -0.88701 0.4617506 0 -0.8870098 0.3826869 0 -0.9238782 0.382674 0 -0.9238834 0.3007137 0 -0.9537144 0.3006999 0 -0.9537189 0.2164395 0 -0.9762961 0.1305316 0 -0.9914442 0.1305317 0 -0.9914442 0.0436173 0 -0.9990483 -0.04361689 0 -0.9990484 -0.1305316 0 -0.9914442 -0.1305317 0 -0.9914442 -0.2164395 0 -0.9762961 -0.3006999 0 -0.9537189 -0.3007137 0 -0.9537144 -0.3826773 0 -0.9238822 -0.3826904 0 -0.9238767 -0.4617462 0 -0.8870122 -0.4617466 0 -0.887012 -0.5372896 0 -0.8433978 -0.5373009 0 -0.8433907 -0.608764 0 -0.7933514 -0.6087643 0 -0.7933512 -0.6755899 0 -0.7372776 -0.6755943 0 -0.7372736 -0.737272 0 -0.6755961 -0.7372792 0 -0.6755883 -0.7933552 0 -0.6087592 -0.7933554 0 -0.6087589 -0.8433907 0 -0.537301 -0.8433887 0 -0.5373041 -0.8870114 0 -0.4617477 -0.88701 0 -0.4617505 -0.9238803 0 -0.3826816 -0.9238816 0 -0.3826785 -0.9537159 0 -0.3007091 -0.9537167 0 -0.3007068 -0.9762964 0 -0.216438 -0.9762965 0 -0.2164379 -0.9914447 0 -0.1305281 -0.9914448 0 -0.130527 -0.9990482 0 -0.04361999 -0.9990483 0 -0.04361963 -0.9990483 0 0.04361969 -0.9990482 0 0.04361999 -0.9914447 0 0.1305271 -0.9914449 0 0.130526 -0.9762961 0 0.2164396 -0.9762961 0 0.2164395 -0.9537166 0 0.300707 -0.9537174 0 0.3007046 -0.9238792 0 0.3826842 -0.9238806 0 0.3826812 -0.8870097 0 0.4617508 -0.8870116 0 0.4617473 -0.8433884 0 0.5373044 -0.843393 0 0.5372971 -0.7933523 0 0.6087629 -0.7933554 0 0.6087589 -0.7372789 0 0.6755885 -0.7372757 0 0.6755921 -0.675594 0 0.7372739 -0.675586 0 0.7372813 -0.608764 0 0.7933514 -0.6087643 0 0.7933512 -0.5372951 0 0.8433944 -0.5373063 0 0.8433871 -0.4617401 0 0.8870152 -0.4617466 0 0.887012 -0.3826903 0 0.9238767 -0.3826839 0 0.9238794 -0.3007137 0 0.9537144 -0.3006999 0 0.9537189 -0.2164395 0 0.9762961 -0.1305165 0 0.9914462 -0.1305317 0 0.9914442 -0.04361689 0 0.9990484 0.0436173 0 0.9990483 0.1305316 0 0.9914442 0.1305167 0 0.9914462 0.2164395 0 0.9762961 0.3006999 0 0.9537189 0.3007137 0 0.9537144 0.3826804 0 0.9238808 0.382687 0 0.9238781 0.4617503 0 0.88701 0.4617446 0 0.8870129 0.5373035 0 0.843389 0.5372931 0 0.8433956 0.608764 0 0.7933514 0.6087643 0 0.7933512 0.6755881 0 0.7372793 0.6755966 0 0.7372715 0.7372755 0 0.6755923 0.7372792 0 0.6755883 0.7933528 0 0.6087622 0.79335 0 0.6087659 0.843395 0 0.5372941 0.843391 0 0.5373005 0.8870114 0 0.4617477 0.88701 0 0.4617505 0.9238803 0 0.3826816 0.9238795 0 0.3826839 0.9537159 0 0.3007091 0.9537153 0 0.3007111 0.9762961 0 0.2164396 0.9762961 0 0.2164395 0.9914449 0 0.1305261 0.9914448 0 0.130527 0.9990482 0 0.04361999 0.9990483 0 0.04361963 -0.9990482 0 0.04362052 -0.9914458 0 0.130519 -0.9762949 0 0.2164443 -0.9762954 0 0.216443 -0.953718 0 0.3007026 -0.9537187 0 0.3007007 -0.923878 0 0.3826872 -0.9238765 0 0.3826907 -0.8870117 0 0.4617471 -0.8870118 0 0.4617468 -0.8433909 0 0.5373007 -0.7933545 0 0.60876 -0.793359 0 0.6087542 -0.7372725 0 0.6755955 -0.7372781 0 0.6755895 -0.6755881 0 0.7372794 -0.6755946 0 0.7372733 -0.608753 0 0.7933599 -0.6087601 0 0.7933545 -0.5373024 0 0.8433896 -0.4617503 0 0.8870099 -0.4617509 0 0.8870096 -0.382686 0 0.9238785 -0.3826765 0 0.9238824 -0.3007053 0 0.9537171 -0.3007055 0 0.9537171 -0.2164469 0 0.9762945 -0.2164363 0 0.9762968 -0.1305306 0 0.9914443 -0.1305198 0 0.9914457 -0.04362523 0 0.999048 -0.04361414 0 0.9990485 0.04361379 0 0.9990485 0.04362493 0 0.999048 0.1305206 0 0.9914456 0.1305316 0 0.9914442 0.2164348 0 0.9762971 0.2164455 0 0.9762948 0.3007073 0 0.9537165 0.3007077 0 0.9537163 0.3826752 0 0.923883 0.3826848 0 0.9238791 0.4617489 0 0.8870107 0.4617495 0 0.8870104 0.5373024 0 0.8433896 0.6087616 0 0.7933533 0.6087549 0 0.7933583 0.6755941 0 0.7372738 0.6755886 0 0.7372789 0.7372776 0 0.67559 0.737273 0 0.6755949 0.793357 0 0.6087568 0.793353 0 0.608762 0.8433909 0 0.5373007 0.8870103 0 0.4617498 0.8870105 0 0.4617496 0.9238789 0 0.3826849 0.9238806 0 0.382681 0.9537174 0 0.3007044 0.953717 0 0.3007056 0.976296 0 0.2164399 0.9762958 0 0.2164409 0.9914449 0 0.1305261 0.9914449 0 0.130526 0.9990484 0 0.04361695 0.9990484 0 0.04361671 0.9990484 0 -0.04361671 0.9914448 0 -0.1305269 0.9914449 0 -0.130526 0.976296 0 -0.2164399 0.9762961 0 -0.2164397 0.9537169 0 -0.3007059 0.953717 0 -0.3007056 0.9238806 0 -0.382681 0.9238789 0 -0.3826849 0.8870103 0 -0.4617498 0.8870105 0 -0.4617496 0.8433909 0 -0.5373007 0.7933549 0 -0.6087593 0.737275 0 -0.6755928 0.7372806 0 -0.6755867 0.6755911 0 -0.7372766 0.6755886 0 -0.7372789 0.6087616 0 -0.7933533 0.608762 0 -0.7933531 0.5373024 0 -0.8433896 0.5372945 0 -0.8433947 0.4617533 0 -0.8870084 0.4617451 0 -0.8870127 0.38268 0 -0.9238811 0.3826848 0 -0.9238791 0.3007073 0 -0.9537165 0.3007077 0 -0.9537163 0.2164402 0 -0.976296 0.2164348 0 -0.9762971 0.1305315 0 -0.9914442 0.1305261 0 -0.9914449 0.04361933 0 -0.9990483 0.04361385 0 -0.9990485 -0.04361414 0 -0.9990485 -0.04361969 0 -0.9990482 -0.1305251 0 -0.991445 -0.1305307 0 -0.9914443 -0.2164363 0 -0.9762968 -0.2164416 0 -0.9762957 -0.3007053 0 -0.9537171 -0.3007055 0 -0.9537171 -0.382686 0 -0.9238785 -0.3826813 0 -0.9238805 -0.461746 0 -0.8870123 -0.4617553 0 -0.8870075 -0.5372945 0 -0.8433947 -0.5373024 0 -0.8433896 -0.6087599 0 -0.7933545 -0.6087601 0 -0.7933545 -0.6755881 0 -0.7372794 -0.6755916 0 -0.7372761 -0.7372801 0 -0.6755872 -0.7372756 0 -0.6755923 -0.7933565 0 -0.6087574 -0.7933549 0 -0.6087596 -0.8433909 0 -0.5373007 -0.8870117 0 -0.4617471 -0.8870118 0 -0.4617468 -0.9238764 0 -0.3826912 -0.9238783 0 -0.3826868 -0.953718 0 -0.3007026 -0.9537181 0 -0.3007023 -0.9762952 0 -0.2164432 -0.9762954 0 -0.216443 -0.9914458 0 -0.130519 -0.9914457 0 -0.1305198 -0.9990482 0 -0.04362034 -0.9990482 0 -0.04362028 -0.9990482 0 0.04362034 0 1 0 0 1 0 0 1 1.33787e-7 0 1 -1.37607e-7 0 1 2.6757e-7 0 1 0 0 1 1.83476e-7 0 1 3.66956e-7 0 1 -3.66956e-7 0 1 -7.33887e-7 0 1 5.35149e-7 0 1 -5.35146e-7 0 1 7.33904e-7 0 1 -5.35139e-7 0 1 7.33917e-7 0 1 -5.35144e-7 0 1 7.33913e-7 0 1 -5.35135e-7 0 1 2.67572e-7 0 1 -7.33913e-7 0 1 1.33784e-7 0 1 0 0 1 0 0 1 -1.33788e-7 0 1 0 0 1 -1.33784e-7 0 1 1.37607e-7 0 1 0 0 1 -3.66952e-7 0 1 5.35142e-7 0 1 -7.33904e-7 0 1 5.35143e-7 0 1 -5.35143e-7 0 1 -7.33907e-7 0 1 -7.3391e-7 0 1 5.35139e-7 0 1 -2.67572e-7 0 1 1.33786e-7 0 1 -1.33785e-7 0 1 2.00679e-7 0 -1 -7.33908e-7 0 -1 0 0 -1 1.07029e-6 0 -1 -1.46782e-6 0 -1 -1.07028e-6 0 -1 -1.46782e-6 0 -1 5.35144e-7 0 -1 7.33913e-7 0 -1 -5.35144e-7 0 -1 7.33904e-7 0 -1 2.67572e-7 0 -1 -7.33904e-7 0 -1 -1.33785e-7 0 -1 -3.66948e-7 0 -1 1.8348e-7 0 -1 1.33784e-7 0 -1 -1.8348e-7 0 -1 3.66952e-7 0 -1 1.07028e-6 0 -1 -1.07029e-6 0 -1 1.46783e-6 0 -1 -1.46783e-6 0 -1 1.46781e-6 0 -1 -1.07028e-6 0 -1 -7.33921e-7 0 -1 5.35149e-7 0 -1 -2.67572e-7 0 -1 -2.67567e-7 0 -1 2.67574e-7 0 -1 -3.66952e-7 0 -1 -1.83474e-7 0 -1 0 0 -1 -3.66956e-7 0 -1 5.35139e-7</float_array>
          <technique_common>
            <accessor source="#trapezoid__7-mesh-normals-array" count="344" stride="3">
              <param name="X" type="float"/>
              <param name="Y" type="float"/>
              <param name="Z" type="float"/>
            </accessor>
          </technique_common>
        </source>
        <vertices id="trapezoid__7-mesh-vertices">
          <input semantic="POSITION" source="#trapezoid__7-mesh-positions"/>
        </vertices>
        <triangles count="576">
          <input semantic="VERTEX" source="#trapezoid__7-mesh-vertices" offset="0"/>
          <input semantic="NORMAL" source="#trapezoid__7-mesh-normals" offset="1"/>
          <p>0 0 1 0 2 0 1 1 3 1 2 1 2 2 3 2 4 2 3 3 5 3 4 3 4 4 5 4 6 4 5 5 7 5 6 5 6 6 7 6 8 6 7 7 9 7 8 7 8 8 9 8 10 8 9 9 11 9 10 9 10 10 11 10 12 10 11 11 13 11 12 11 12 12 13 12 14 12 13 13 15 13 14 13 14 14 15 14 16 14 15 14 17 14 16 14 16 15 17 15 18 15 17 16 19 16 18 16 18 17 19 17 20 17 19 18 21 18 20 18 20 19 21 19 22 19 21 20 23 20 22 20 22 21 23 21 24 21 23 22 25 22 24 22 24 23 25 23 26 23 25 24 27 24 26 24 26 25 27 25 28 25 27 26 29 26 28 26 28 27 29 27 30 27 29 28 31 28 30 28 30 29 31 29 32 29 31 29 33 29 32 29 32 30 33 30 34 30 33 31 35 31 34 31 34 32 35 32 36 32 35 32 37 32 36 32 36 33 37 33 38 33 37 33 39 33 38 33 38 34 39 34 40 34 39 35 41 35 40 35 40 36 41 36 42 36 41 36 43 36 42 36 42 37 43 37 44 37 43 38 45 38 44 38 44 39 45 39 46 39 45 40 47 40 46 40 46 41 47 41 48 41 47 42 49 42 48 42 48 43 49 43 50 43 49 44 51 44 50 44 50 45 51 45 52 45 51 46 53 46 52 46 52 47 53 47 54 47 53 48 55 48 54 48 54 49 55 49 56 49 55 50 57 50 56 50 56 51 57 51 58 51 57 52 59 52 58 52 58 53 59 53 60 53 59 54 61 54 60 54 60 55 61 55 62 55 61 56 63 56 62 56 62 57 63 57 64 57 63 58 65 58 64 58 64 59 65 59 66 59 65 60 67 60 66 60 66 61 67 61 68 61 67 62 69 62 68 62 68 63 69 63 70 63 69 64 71 64 70 64 70 65 71 65 72 65 71 66 73 66 72 66 72 67 73 67 74 67 73 68 75 68 74 68 74 69 75 69 76 69 75 70 77 70 76 70 76 71 77 71 78 71 77 72 79 72 78 72 78 73 79 73 80 73 79 74 81 74 80 74 80 75 81 75 82 75 81 76 83 76 82 76 82 77 83 77 84 77 83 78 85 78 84 78 84 79 85 79 86 79 85 80 87 80 86 80 86 81 87 81 88 81 87 82 89 82 88 82 88 83 89 83 90 83 89 84 91 84 90 84 90 85 91 85 92 85 91 86 93 86 92 86 92 87 93 87 94 87 93 88 95 88 94 88 94 89 95 89 96 89 95 90 97 90 96 90 96 91 97 91 98 91 97 92 99 92 98 92 98 93 99 93 100 93 99 94 101 94 100 94 100 95 101 95 102 95 101 96 103 96 102 96 102 97 103 97 104 97 103 97 105 97 104 97 104 98 105 98 106 98 105 99 107 99 106 99 106 100 107 100 108 100 107 100 109 100 108 100 108 101 109 101 110 101 109 101 111 101 110 101 110 102 111 102 112 102 111 103 113 103 112 103 112 104 113 104 114 104 113 104 115 104 114 104 114 105 115 105 116 105 115 106 117 106 116 106 116 107 117 107 118 107 117 108 119 108 118 108 118 109 119 109 120 109 119 110 121 110 120 110 120 111 121 111 122 111 121 112 123 112 122 112 122 113 123 113 124 113 123 114 125 114 124 114 124 115 125 115 126 115 125 116 127 116 126 116 126 117 127 117 128 117 127 118 129 118 128 118 128 119 129 119 130 119 129 120 131 120 130 120 130 121 131 121 132 121 131 122 133 122 132 122 132 123 133 123 134 123 133 124 135 124 134 124 134 125 135 125 136 125 135 126 137 126 136 126 136 127 137 127 138 127 137 128 139 128 138 128 138 129 139 129 140 129 139 130 141 130 140 130 140 131 141 131 142 131 141 132 143 132 142 132 142 133 143 133 0 133 143 134 1 134 0 134 144 135 145 135 146 135 145 136 147 136 146 136 146 136 147 136 148 136 147 137 149 137 148 137 148 138 149 138 150 138 149 139 151 139 150 139 150 140 151 140 152 140 151 141 153 141 152 141 152 142 153 142 154 142 153 143 155 143 154 143 154 144 155 144 156 144 155 145 157 145 156 145 156 145 157 145 158 145 157 146 159 146 158 146 158 147 159 147 160 147 159 148 161 148 160 148 160 149 161 149 162 149 161 150 163 150 162 150 162 151 163 151 164 151 163 152 165 152 164 152 164 153 165 153 166 153 165 154 167 154 166 154 166 154 167 154 168 154 167 155 169 155 168 155 168 156 169 156 170 156 169 157 171 157 170 157 170 158 171 158 172 158 171 159 173 159 172 159 172 160 173 160 174 160 173 161 175 161 174 161 174 162 175 162 176 162 175 163 177 163 176 163 176 164 177 164 178 164 177 165 179 165 178 165 178 166 179 166 180 166 179 167 181 167 180 167 180 168 181 168 182 168 181 169 183 169 182 169 182 170 183 170 184 170 183 171 185 171 184 171 184 172 185 172 186 172 185 173 187 173 186 173 186 174 187 174 188 174 187 175 189 175 188 175 188 176 189 176 190 176 189 177 191 177 190 177 190 178 191 178 192 178 191 179 193 179 192 179 192 179 193 179 194 179 193 180 195 180 194 180 194 181 195 181 196 181 195 182 197 182 196 182 196 183 197 183 198 183 197 184 199 184 198 184 198 185 199 185 200 185 199 186 201 186 200 186 200 187 201 187 202 187 201 188 203 188 202 188 202 188 203 188 204 188 203 189 205 189 204 189 204 190 205 190 206 190 205 191 207 191 206 191 206 192 207 192 208 192 207 193 209 193 208 193 208 194 209 194 210 194 209 195 211 195 210 195 210 196 211 196 212 196 211 197 213 197 212 197 212 198 213 198 214 198 213 199 215 199 214 199 214 200 215 200 216 200 215 201 217 201 216 201 216 201 217 201 218 201 217 202 219 202 218 202 218 203 219 203 220 203 219 204 221 204 220 204 220 205 221 205 222 205 221 206 223 206 222 206 222 207 223 207 224 207 223 208 225 208 224 208 224 209 225 209 226 209 225 210 227 210 226 210 226 211 227 211 228 211 227 212 229 212 228 212 228 212 229 212 230 212 229 14 231 14 230 14 230 213 231 213 232 213 231 214 233 214 232 214 232 215 233 215 234 215 233 216 235 216 234 216 234 217 235 217 236 217 235 218 237 218 236 218 236 219 237 219 238 219 237 220 239 220 238 220 238 221 239 221 240 221 239 222 241 222 240 222 240 223 241 223 242 223 241 224 243 224 242 224 242 225 243 225 244 225 243 226 245 226 244 226 244 227 245 227 246 227 245 228 247 228 246 228 246 229 247 229 248 229 247 230 249 230 248 230 248 231 249 231 250 231 249 232 251 232 250 232 250 233 251 233 252 233 251 234 253 234 252 234 252 235 253 235 254 235 253 236 255 236 254 236 254 237 255 237 256 237 255 238 257 238 256 238 256 239 257 239 258 239 257 240 259 240 258 240 258 241 259 241 260 241 259 242 261 242 260 242 260 243 261 243 262 243 261 244 263 244 262 244 262 245 263 245 264 245 263 246 265 246 264 246 264 247 265 247 266 247 265 248 267 248 266 248 266 249 267 249 268 249 267 250 269 250 268 250 268 251 269 251 270 251 269 252 271 252 270 252 270 253 271 253 272 253 271 254 273 254 272 254 272 255 273 255 274 255 273 256 275 256 274 256 274 256 275 256 276 256 275 257 277 257 276 257 276 258 277 258 278 258 277 259 279 259 278 259 278 260 279 260 280 260 279 261 281 261 280 261 280 262 281 262 282 262 281 263 283 263 282 263 282 264 283 264 284 264 283 265 285 265 284 265 284 266 285 266 286 266 285 267 287 267 286 267 286 268 287 268 144 268 287 269 145 269 144 269 109 270 252 270 111 270 252 271 254 271 111 271 111 270 254 270 113 270 254 270 256 270 113 270 113 270 256 270 115 270 256 272 258 272 115 272 115 273 258 273 117 273 258 274 260 274 117 274 117 275 260 275 119 275 260 270 262 270 119 270 119 276 262 276 121 276 262 270 264 270 121 270 121 270 264 270 123 270 264 270 266 270 123 270 123 277 266 277 125 277 266 270 268 270 125 270 125 278 268 278 127 278 268 270 270 270 127 270 127 279 270 279 129 279 270 270 272 270 129 270 129 270 272 270 131 270 272 280 274 280 131 280 131 270 274 270 133 270 274 281 276 281 133 281 133 282 276 282 135 282 276 270 278 270 135 270 135 270 278 270 137 270 278 270 280 270 137 270 137 270 280 270 139 270 280 270 282 270 139 270 139 270 282 270 141 270 282 270 284 270 141 270 141 270 284 270 143 270 284 270 286 270 143 270 143 270 286 270 1 270 286 270 144 270 1 270 1 270 144 270 3 270 144 270 146 270 3 270 3 270 146 270 5 270 146 270 148 270 5 270 5 270 148 270 7 270 148 270 150 270 7 270 7 270 150 270 9 270 150 270 152 270 9 270 9 270 152 270 11 270 152 270 154 270 11 270 11 270 154 270 13 270 154 283 156 283 13 283 13 284 156 284 15 284 156 270 158 270 15 270 15 270 158 270 17 270 158 285 160 285 17 285 17 286 160 286 19 286 160 270 162 270 19 270 19 270 162 270 21 270 162 270 164 270 21 270 21 270 164 270 23 270 164 287 166 287 23 287 23 282 166 282 25 282 166 270 168 270 25 270 25 270 168 270 27 270 168 270 170 270 27 270 27 270 170 270 29 270 170 288 172 288 29 288 29 289 172 289 31 289 172 290 174 290 31 290 31 270 174 270 33 270 174 270 176 270 33 270 33 270 176 270 35 270 176 291 178 291 35 291 35 270 178 270 37 270 178 270 180 270 37 270 37 270 180 270 39 270 180 292 182 292 39 292 39 270 182 270 41 270 182 293 184 293 41 293 41 294 184 294 43 294 184 295 186 295 43 295 43 296 186 296 45 296 186 270 188 270 45 270 45 297 188 297 47 297 188 270 190 270 47 270 47 270 190 270 49 270 190 270 192 270 49 270 49 277 192 277 51 277 192 270 194 270 51 270 51 298 194 298 53 298 194 270 196 270 53 270 53 277 196 277 55 277 196 270 198 270 55 270 55 282 198 282 57 282 198 270 200 270 57 270 57 270 200 270 59 270 200 283 202 283 59 283 59 270 202 270 61 270 202 299 204 299 61 299 61 300 204 300 63 300 204 270 206 270 63 270 63 270 206 270 65 270 206 270 208 270 65 270 65 270 208 270 67 270 208 270 210 270 67 270 67 270 210 270 69 270 210 270 212 270 69 270 69 270 212 270 71 270 212 301 214 301 71 301 71 270 214 270 73 270 214 302 216 302 73 302 73 270 216 270 75 270 216 299 218 299 75 299 75 303 218 303 77 303 218 270 220 270 77 270 77 270 220 270 79 270 220 270 222 270 79 270 79 270 222 270 81 270 222 270 224 270 81 270 81 270 224 270 83 270 224 270 226 270 83 270 83 270 226 270 85 270 226 299 228 299 85 299 85 304 228 304 87 304 228 270 230 270 87 270 87 270 230 270 89 270 230 305 232 305 89 305 89 289 232 289 91 289 232 270 234 270 91 270 91 270 234 270 93 270 234 270 236 270 93 270 93 270 236 270 95 270 236 270 238 270 95 270 95 270 238 270 97 270 238 270 240 270 97 270 97 270 240 270 99 270 240 270 242 270 99 270 99 270 242 270 101 270 242 306 244 306 101 306 101 270 244 270 103 270 244 307 246 307 103 307 103 270 246 270 105 270 246 308 248 308 105 308 105 270 248 270 107 270 248 309 250 309 107 309 107 270 250 270 109 270 250 270 252 270 109 270 82 310 225 310 80 310 225 311 223 311 80 311 80 311 223 311 78 311 223 311 221 311 78 311 78 311 221 311 76 311 221 311 219 311 76 311 76 311 219 311 74 311 219 312 217 312 74 312 74 313 217 313 72 313 217 312 215 312 72 312 72 311 215 311 70 311 215 311 213 311 70 311 70 311 213 311 68 311 213 314 211 314 68 314 68 311 211 311 66 311 211 311 209 311 66 311 66 311 209 311 64 311 209 311 207 311 64 311 64 311 207 311 62 311 207 311 205 311 62 311 62 315 205 315 60 315 205 311 203 311 60 311 60 311 203 311 58 311 203 316 201 316 58 316 58 311 201 311 56 311 201 311 199 311 56 311 56 311 199 311 54 311 199 316 197 316 54 316 54 311 197 311 52 311 197 311 195 311 52 311 52 317 195 317 50 317 195 311 193 311 50 311 50 311 193 311 48 311 193 318 191 318 48 318 48 319 191 319 46 319 191 311 189 311 46 311 46 311 189 311 44 311 189 320 187 320 44 320 44 321 187 321 42 321 187 320 185 320 42 320 42 311 185 311 40 311 185 322 183 322 40 322 40 311 183 311 38 311 183 311 181 311 38 311 38 323 181 323 36 323 181 311 179 311 36 311 36 311 179 311 34 311 179 311 177 311 34 311 34 324 177 324 32 324 177 325 175 325 32 325 32 326 175 326 30 326 175 311 173 311 30 311 30 311 173 311 28 311 173 311 171 311 28 311 28 311 171 311 26 311 171 311 169 311 26 311 26 311 169 311 24 311 169 311 167 311 24 311 24 311 167 311 22 311 167 311 165 311 22 311 22 327 165 327 20 327 165 311 163 311 20 311 20 311 163 311 18 311 163 311 161 311 18 311 18 319 161 319 16 319 161 318 159 318 16 318 16 311 159 311 14 311 159 311 157 311 14 311 14 311 157 311 12 311 157 311 155 311 12 311 12 311 155 311 10 311 155 311 153 311 10 311 10 311 153 311 8 311 153 311 151 311 8 311 8 311 151 311 6 311 151 311 149 311 6 311 6 311 149 311 4 311 149 328 147 328 4 328 4 311 147 311 2 311 147 329 145 329 2 329 2 330 145 330 0 330 145 311 287 311 0 311 0 331 287 331 142 331 287 311 285 311 142 311 142 311 285 311 140 311 285 312 283 312 140 312 140 311 283 311 138 311 283 311 281 311 138 311 138 332 281 332 136 332 281 333 279 333 136 333 136 330 279 330 134 330 279 311 277 311 134 311 134 311 277 311 132 311 277 311 275 311 132 311 132 311 275 311 130 311 275 311 273 311 130 311 130 311 273 311 128 311 273 311 271 311 128 311 128 311 271 311 126 311 271 311 269 311 126 311 126 311 269 311 124 311 269 311 267 311 124 311 124 334 267 334 122 334 267 311 265 311 122 311 122 311 265 311 120 311 265 335 263 335 120 335 120 311 263 311 118 311 263 311 261 311 118 311 118 317 261 317 116 317 261 336 259 336 116 336 116 317 259 317 114 317 259 337 257 337 114 337 114 311 257 311 112 311 257 338 255 338 112 338 112 339 255 339 110 339 255 311 253 311 110 311 110 311 253 311 108 311 253 311 251 311 108 311 108 311 251 311 106 311 251 320 249 320 106 320 106 340 249 340 104 340 249 311 247 311 104 311 104 341 247 341 102 341 247 311 245 311 102 311 102 311 245 311 100 311 245 311 243 311 100 311 100 311 243 311 98 311 243 311 241 311 98 311 98 342 241 342 96 342 241 311 239 311 96 311 96 311 239 311 94 311 239 343 237 343 94 343 94 342 237 342 92 342 237 311 235 311 92 311 92 311 235 311 90 311 235 316 233 316 90 316 90 311 233 311 88 311 233 311 231 311 88 311 88 311 231 311 86 311 231 311 229 311 86 311 86 311 229 311 84 311 229 311 227 311 84 311 84 311 227 311 82 311 227 311 225 311 82 311</p>
        </triangles>
      </mesh>
    </geometry>
  </library_geometries>
  <library_visual_scenes>
    <visual_scene id="Scene" name="Scene">
      <node id="trapezoid__7" name="trapezoid__7" type="NODE">
        <matrix sid="transform">1 0 0 0 0 1 0 0 0 0 1 0 0 0 0 1</matrix>
        <instance_geometry url="#trapezoid__7-mesh" name="trapezoid__7"/>
      </node>
    </visual_scene>
  </library_visual_scenes>
  <scene>
    <instance_visual_scene url="#Scene"/>
  </scene>
</COLLADA>