<?xml version="1.0" encoding="utf-8"?>
<COLLADA xmlns="http://www.collada.org/2005/11/COLLADASchema" version="1.4.1" xmlns:xsi="http://www.w3.org/2001/XMLSchema-instance">
  <asset>
    <contributor>
      <author>Blender User</author>
      <authoring_tool>Blender 3.0.1</authoring_tool>
    </contributor>
    <created>2026-06-04T16:19:18</created>
    <modified>2026-06-04T16:19:18</modified>
    <unit name="meter" meter="1"/>
    <up_axis>Z_UP</up_axis>
  </asset>
  <library_images/>
  <library_geometries>
    <geometry id="trapezoid_default_as_machined__6-mesh" name="trapezoid_default_as_machined__6">
      <mesh>
        <source id="trapezoid_default_as_machined__6-mesh-positions">
          <float_array id="trapezoid_default_as_machined__6-mesh-positions-array" count="864">-0.2289146 0.01749998 0.1860584 -0.224383 0.01749998 0.1881715 -0.2306467 0.01749998 0.1893858 -0.2263166 0.01749998 0.1918858 -0.2326623 0.01749998 0.1925496 -0.2285665 0.01749998 0.1954175 -0.2349459 0.01749998 0.1955257 -0.2311156 0.01749998 0.1987396 -0.2374802 0.01749998 0.1982914 -0.2339447 0.01749998 0.2018269 -0.2402459 0.01749998 0.2008257 -0.237032 0.01749998 0.204656 -0.243222 0.01749998 0.2031093 -0.2403541 0.01749998 0.2072051 -0.2463858 0.01749998 0.2051249 -0.2438858 0.01749998 0.209455 -0.2497132 0.01749998 0.206857 -0.2476001 0.01749998 0.2113886 -0.253179 0.01749998 0.2082926 -0.2514688 0.01749998 0.2129911 -0.2567566 0.01749998 0.2094206 -0.2554625 0.01749998 0.2142502 -0.260419 0.01749998 0.2102325 -0.2595507 0.01749998 0.2151566 -0.2641381 0.01749998 0.2107222 -0.2637023 0.01749998 0.2157031 -0.2678858 0.01749998 0.2108858 -0.2678858 0.01749998 0.2158858 -0.2716335 0.01749998 0.2107222 -0.2720693 0.01749998 0.2157031 -0.2753527 0.01749998 0.2102325 -0.2762209 0.01749998 0.2151566 -0.279015 0.01749998 0.2094206 -0.2803092 0.01749998 0.2142502 -0.2825927 0.01749998 0.2082926 -0.2843028 0.01749998 0.2129911 -0.2860584 0.01749998 0.206857 -0.2881715 0.01749998 0.2113886 -0.2893858 0.01749998 0.2051249 -0.2918858 0.01749998 0.209455 -0.2925496 0.01749998 0.2031093 -0.2954175 0.01749998 0.2072051 -0.2955257 0.01749998 0.2008257 -0.2987396 0.01749998 0.204656 -0.2982914 0.01749998 0.1982914 -0.301827 0.01749998 0.2018269 -0.3008257 0.01749998 0.1955257 -0.304656 0.01749998 0.1987396 -0.3031094 0.01749998 0.1925496 -0.3072051 0.01749998 0.1954175 -0.3051249 0.01749998 0.1893858 -0.309455 0.01749998 0.1918858 -0.3068571 0.01749998 0.1860584 -0.3113886 0.01749998 0.1881715 -0.3082926 0.01749998 0.1825926 -0.3129911 0.01749998 0.1843028 -0.3094207 0.01749998 0.179015 -0.3142502 0.01749998 0.1803091 -0.3102325 0.01749998 0.1753526 -0.3151566 0.01749998 0.1762209 -0.3107222 0.01749998 0.1716335 -0.3157032 0.01749998 0.1720693 -0.3108858 0.01749998 0.1678858 -0.3158858 0.01749998 0.1678858 -0.3107222 0.01749998 0.1641381 -0.3157032 0.01749998 0.1637023 -0.3102325 0.01749998 0.1604189 -0.3151566 0.01749998 0.1595507 -0.3094207 0.01749998 0.1567566 -0.3142502 0.01749998 0.1554625 -0.3082926 0.01749998 0.1531789 -0.3129911 0.01749998 0.1514688 -0.3068571 0.01749998 0.1497132 -0.3113886 0.01749998 0.1476001 -0.3051249 0.01749998 0.1463858 -0.309455 0.01749998 0.1438858 -0.3031094 0.01749998 0.143222 -0.3072051 0.01749998 0.1403541 -0.3008257 0.01749998 0.1402459 -0.304656 0.01749998 0.137032 -0.2982914 0.01749998 0.1374802 -0.301827 0.01749998 0.1339446 -0.2955257 0.01749998 0.1349459 -0.2987396 0.01749998 0.1311157 -0.2925496 0.01749998 0.1326622 -0.2954175 0.01749998 0.1285665 -0.2893858 0.01749998 0.1306467 -0.2918858 0.01749998 0.1263166 -0.2860584 0.01749998 0.1289145 -0.2881715 0.01749998 0.124383 -0.2825927 0.01749998 0.127479 -0.2843028 0.01749998 0.1227806 -0.279015 0.01749998 0.126351 -0.2803092 0.01749998 0.1215214 -0.2753527 0.01749998 0.1255391 -0.2762209 0.01749998 0.120615 -0.2716335 0.01749998 0.1250494 -0.2720693 0.01749998 0.1200684 -0.2678858 0.01749998 0.1248858 -0.2678858 0.01749998 0.1198858 -0.2641381 0.01749998 0.1250494 -0.2637023 0.01749998 0.1200684 -0.260419 0.01749998 0.1255391 -0.2595507 0.01749998 0.120615 -0.2567566 0.01749998 0.126351 -0.2554625 0.01749998 0.1215214 -0.253179 0.01749998 0.127479 -0.2514688 0.01749998 0.1227806 -0.2497132 0.01749998 0.1289145 -0.2476001 0.01749998 0.124383 -0.2463858 0.01749998 0.1306467 -0.2438858 0.01749998 0.1263166 -0.243222 0.01749998 0.1326622 -0.2403541 0.01749998 0.1285665 -0.2402459 0.01749998 0.1349459 -0.237032 0.01749998 0.1311157 -0.2374802 0.01749998 0.1374802 -0.2339447 0.01749998 0.1339446 -0.2349459 0.01749998 0.1402459 -0.2311156 0.01749998 0.137032 -0.2326623 0.01749998 0.143222 -0.2285665 0.01749998 0.1403541 -0.2306467 0.01749998 0.1463858 -0.2263166 0.01749998 0.1438858 -0.2289146 0.01749998 0.1497132 -0.224383 0.01749998 0.1476001 -0.227479 0.01749998 0.1531789 -0.2227805 0.01749998 0.1514688 -0.226351 0.01749998 0.1567566 -0.2215213 0.01749998 0.1554625 -0.225539 0.01749998 0.1604189 -0.220615 0.01749998 0.1595507 -0.2250494 0.01749998 0.1641381 -0.2200685 0.01749998 0.1637023 -0.2248858 0.01749998 0.1678858 -0.2198858 0.01749998 0.1678858 -0.2250494 0.01749998 0.1716335 -0.2200685 0.01749998 0.1720693 -0.225539 0.01749998 0.1753526 -0.220615 0.01749998 0.1762209 -0.226351 0.01749998 0.179015 -0.2215213 0.01749998 0.1803091 -0.227479 0.01749998 0.1825926 -0.2227805 0.01749998 0.1843028 -0.2860584 0.03499996 0.206857 -0.2881715 0.03499996 0.2113886 -0.2825927 0.03499996 0.2082926 -0.2843028 0.03499996 0.2129911 -0.279015 0.03499996 0.2094206 -0.2803092 0.03499996 0.2142502 -0.2753527 0.03499996 0.2102325 -0.2762209 0.03499996 0.2151566 -0.2716335 0.03499996 0.2107222 -0.2720693 0.03499996 0.2157031 -0.2678858 0.03499996 0.2108858 -0.2678858 0.03499996 0.2158858 -0.2641381 0.03499996 0.2107222 -0.2637023 0.03499996 0.2157031 -0.260419 0.03499996 0.2102325 -0.2595507 0.03499996 0.2151566 -0.2567566 0.03499996 0.2094206 -0.2554625 0.03499996 0.2142502 -0.253179 0.03499996 0.2082926 -0.2514688 0.03499996 0.2129911 -0.2497132 0.03499996 0.206857 -0.2476001 0.03499996 0.2113886 -0.2463858 0.03499996 0.2051249 -0.2438858 0.03499996 0.209455 -0.243222 0.03499996 0.2031093 -0.2403541 0.03499996 0.2072051 -0.2402459 0.03499996 0.2008257 -0.237032 0.03499996 0.204656 -0.2374802 0.03499996 0.1982914 -0.2339447 0.03499996 0.2018269 -0.2349459 0.03499996 0.1955257 -0.2311156 0.03499996 0.1987396 -0.2326623 0.03499996 0.1925496 -0.2285665 0.03499996 0.1954175 -0.2306467 0.03499996 0.1893858 -0.2263166 0.03499996 0.1918858 -0.2289146 0.03499996 0.1860584 -0.224383 0.03499996 0.1881715 -0.227479 0.03499996 0.1825926 -0.2227805 0.03499996 0.1843028 -0.226351 0.03499996 0.179015 -0.2215213 0.03499996 0.1803091 -0.225539 0.03499996 0.1753526 -0.220615 0.03499996 0.1762209 -0.2250494 0.03499996 0.1716335 -0.2200685 0.03499996 0.1720693 -0.2248858 0.03499996 0.1678858 -0.2198858 0.03499996 0.1678858 -0.2250494 0.03499996 0.1641381 -0.2200685 0.03499996 0.1637023 -0.225539 0.03499996 0.1604189 -0.220615 0.03499996 0.1595507 -0.226351 0.03499996 0.1567566 -0.2215213 0.03499996 0.1554625 -0.227479 0.03499996 0.1531789 -0.2227805 0.03499996 0.1514688 -0.2289146 0.03499996 0.1497132 -0.224383 0.03499996 0.1476001 -0.2306467 0.03499996 0.1463858 -0.2263166 0.03499996 0.1438858 -0.2326623 0.03499996 0.143222 -0.2285665 0.03499996 0.1403541 -0.2349459 0.03499996 0.1402459 -0.2311156 0.03499996 0.137032 -0.2374802 0.03499996 0.1374802 -0.2339447 0.03499996 0.1339446 -0.2402459 0.03499996 0.1349459 -0.237032 0.03499996 0.1311157 -0.243222 0.03499996 0.1326622 -0.2403541 0.03499996 0.1285665 -0.2463858 0.03499996 0.1306467 -0.2438858 0.03499996 0.1263166 -0.2497132 0.03499996 0.1289145 -0.2476001 0.03499996 0.124383 -0.253179 0.03499996 0.127479 -0.2514688 0.03499996 0.1227806 -0.2567566 0.03499996 0.126351 -0.2554625 0.03499996 0.1215214 -0.260419 0.03499996 0.1255391 -0.2595507 0.03499996 0.120615 -0.2641381 0.03499996 0.1250494 -0.2637023 0.03499996 0.1200684 -0.2678858 0.03499996 0.1248858 -0.2678858 0.03499996 0.1198858 -0.2716335 0.03499996 0.1250494 -0.2720693 0.03499996 0.1200684 -0.2753527 0.03499996 0.1255391 -0.2762209 0.03499996 0.120615 -0.279015 0.03499996 0.126351 -0.2803092 0.03499996 0.1215214 -0.2825927 0.03499996 0.127479 -0.2843028 0.03499996 0.1227806 -0.2860584 0.03499996 0.1289145 -0.2881715 0.03499996 0.124383 -0.2893858 0.03499996 0.1306467 -0.2918858 0.03499996 0.1263166 -0.2925496 0.03499996 0.1326622 -0.2954175 0.03499996 0.1285665 -0.2955257 0.03499996 0.1349459 -0.2987396 0.03499996 0.1311157 -0.2982914 0.03499996 0.1374802 -0.301827 0.03499996 0.1339446 -0.3008257 0.03499996 0.1402459 -0.304656 0.03499996 0.137032 -0.3031094 0.03499996 0.143222 -0.3072051 0.03499996 0.1403541 -0.3051249 0.03499996 0.1463858 -0.309455 0.03499996 0.1438858 -0.3068571 0.03499996 0.1497132 -0.3113886 0.03499996 0.1476001 -0.3082926 0.03499996 0.1531789 -0.3129911 0.03499996 0.1514688 -0.3094207 0.03499996 0.1567566 -0.3142502 0.03499996 0.1554625 -0.3102325 0.03499996 0.1604189 -0.3151566 0.03499996 0.1595507 -0.3107222 0.03499996 0.1641381 -0.3157032 0.03499996 0.1637023 -0.3108858 0.03499996 0.1678858 -0.3158858 0.03499996 0.1678858 -0.3107222 0.03499996 0.1716335 -0.3157032 0.03499996 0.1720693 -0.3102325 0.03499996 0.1753526 -0.3151566 0.03499996 0.1762209 -0.3094207 0.03499996 0.179015 -0.3142502 0.03499996 0.1803091 -0.3082926 0.03499996 0.1825926 -0.3129911 0.03499996 0.1843028 -0.3068571 0.03499996 0.1860584 -0.3113886 0.03499996 0.1881715 -0.3051249 0.03499996 0.1893858 -0.309455 0.03499996 0.1918858 -0.3031094 0.03499996 0.1925496 -0.3072051 0.03499996 0.1954175 -0.3008257 0.03499996 0.1955257 -0.304656 0.03499996 0.1987396 -0.2982914 0.03499996 0.1982914 -0.301827 0.03499996 0.2018269 -0.2955257 0.03499996 0.2008257 -0.2987396 0.03499996 0.204656 -0.2925496 0.03499996 0.2031093 -0.2954175 0.03499996 0.2072051 -0.2893858 0.03499996 0.2051249 -0.2918858 0.03499996 0.209455</float_array>
          <technique_common>
            <accessor source="#trapezoid_default_as_machined__6-mesh-positions-array" count="288" stride="3">
              <param name="X" type="float"/>
              <param name="Y" type="float"/>
              <param name="Z" type="float"/>
            </accessor>
          </technique_common>
        </source>
        <source id="trapezoid_default_as_machined__6-mesh-normals">
          <float_array id="trapezoid_default_as_machined__6-mesh-normals-array" count="1089">0 -1 0 0 -1 -6.95685e-7 0 -1 7.76584e-7 0 -1 3.47841e-7 0 -1 -7.76576e-7 0 -1 3.47844e-7 0 -1 7.76576e-7 0 -1 5.21773e-7 0 -1 -3.47837e-7 0 -1 -7.76581e-7 0 -1 -2.6088e-7 0 -1 -4.34791e-7 0 -1 -3.88295e-7 0 -1 0 0 -1 -3.8829e-7 0 -1 -1.73922e-7 0 -1 3.88281e-7 0 -1 -1.73924e-7 0 -1 3.8829e-7 0 -1 -1.94145e-7 0 -1 0 0 -1 0 0 -1 6.95681e-7 0 -1 -1.94148e-7 0 -1 3.88286e-7 0 -1 -7.76571e-7 0 -1 6.95691e-7 0 -1 6.95687e-7 0 -1 6.95689e-7 0 -1 1.73922e-7 0 -1 6.08735e-7 0 -1 2.60886e-7 0 -1 7.76571e-7 0 -1 1.73918e-7 0 -1 -3.47844e-7 0 -1 -3.47841e-7 0 -1 -1.82011e-7 0 -1 1.94145e-7 0 -1 6.95679e-7 0 -1 6.95685e-7 0 -1 -6.95683e-7 0 -1 6.95683e-7 0 1 0 0 1 3.47844e-7 0 1 1.21747e-6 0 1 5.21773e-7 0 1 1.55316e-6 0 1 -5.21761e-7 0 1 7.76571e-7 0 1 6.95689e-7 0 1 3.47837e-7 0 1 -7.7659e-7 0 1 -6.95689e-7 0 1 -3.8829e-7 0 1 -6.95681e-7 0 1 6.95681e-7 0 1 -3.64022e-7 0 1 -6.95685e-7 0 1 3.8829e-7 0 1 -1.39137e-6 0 1 -7.76581e-7 0 1 1.39136e-6 0 1 1.39136e-6 0 1 -1.39137e-6 0 1 1.39137e-6 0 1 -1.55315e-6 0 1 1.55315e-6 0 1 1.04355e-6 0 1 -6.95673e-7 0 1 -1.55316e-6 0 1 -8.69592e-7 0 1 -1.7392e-7 0 1 -3.47844e-7 0 1 7.76562e-7 0 1 -3.47848e-7 0 1 7.76581e-7 0 1 1.94145e-7 0 1 1.21339e-7 0 1 -3.88295e-7 0 1 7.7659e-7 0 1 -1.55314e-6 0 1 1.39137e-6 0 1 1.39138e-6 0 1 1.39138e-6 0 1 -1.55315e-6 0.9990484 0 -0.04361557 0.9990485 0 -0.04361587 0.9914445 0 -0.1305299 0.9914443 0 -0.1305308 0.9762973 0 -0.2164343 0.9762973 0 -0.2164342 0.9537152 0 -0.3007115 0.9537159 0 -0.3007094 0.9238785 0 -0.3826862 0.9238795 0 -0.3826836 0.887012 0 -0.4617467 0.8870104 0 -0.4617496 0.8433904 0 -0.5373014 0.8433926 0 -0.537298 0.7933565 0 -0.6087574 0.7933566 0 -0.6087573 0.7372773 0 -0.6755903 0.6755908 0 -0.7372768 0.6755908 0 -0.7372769 0.6087562 0 -0.7933574 0.6087608 0 -0.793354 0.5372974 0 -0.8433929 0.5373026 0 -0.8433896 0.4617493 0 -0.8870105 0.4617438 0 -0.8870134 0.3826825 0 -0.9238801 0.3826886 0 -0.9238775 0.3007032 0 -0.9537178 0.3007097 0 -0.9537158 0.2164338 0 -0.9762973 0.2164406 0 -0.9762958 0.1305323 0 -0.9914441 0.1305183 0 -0.9914459 0.04362463 0 -0.9990481 0.04361754 0 -0.9990484 -0.04361718 0 -0.9990484 -0.04362428 0 -0.9990481 -0.1305183 0 -0.9914459 -0.1305323 0 -0.9914441 -0.2164406 0 -0.9762958 -0.2164338 0 -0.9762973 -0.3007097 0 -0.9537158 -0.3007032 0 -0.9537178 -0.3826885 0 -0.9238775 -0.3826825 0 -0.92388 -0.4617453 0 -0.8870126 -0.4617511 0 -0.8870096 -0.5373024 0 -0.8433896 -0.5372975 0 -0.8433928 -0.6087607 0 -0.793354 -0.6087563 0 -0.7933574 -0.6755908 0 -0.7372768 -0.6755908 0 -0.7372769 -0.7372773 0 -0.6755903 -0.7933546 0 -0.6087598 -0.8433924 0 -0.5372982 -0.8433904 0 -0.5373013 -0.8870104 0 -0.4617496 -0.887012 0 -0.4617467 -0.9238795 0 -0.3826836 -0.9238785 0 -0.3826862 -0.953717 0 -0.3007059 -0.9537164 0 -0.3007078 -0.9762964 0 -0.2164381 -0.9762964 0 -0.2164381 -0.9914448 0 -0.1305269 -0.991445 0 -0.130526 -0.9990483 0 -0.04361981 -0.9990483 0 -0.04361951 -0.9990483 0 0.04361981 -0.9990483 0 0.04361981 -0.9914451 0 0.1305251 -0.9914448 0 0.1305269 -0.976296 0 0.2164396 -0.9762964 0 0.2164381 -0.953717 0 0.3007059 -0.9537164 0 0.3007078 -0.9238795 0 0.3826836 -0.9238806 0 0.3826812 -0.8870104 0 0.4617496 -0.887012 0 0.4617467 -0.8433904 0 0.5373014 -0.8433904 0 0.5373013 -0.793352 0 0.6087633 -0.7933546 0 0.6087598 -0.7372806 0 0.6755868 -0.7372741 0 0.6755939 -0.6755908 0 0.7372768 -0.6755908 0 0.7372769 -0.6087607 0 0.793354 -0.6087608 0 0.793354 -0.5373024 0 0.8433896 -0.5372925 0 0.8433961 -0.4617509 0 0.8870097 -0.4617511 0 0.8870096 -0.3826825 0 0.9238801 -0.3826825 0 0.92388 -0.3007032 0 0.9537178 -0.3007097 0 0.9537158 -0.2164338 0 0.9762973 -0.2164474 0 0.9762943 -0.1305253 0 0.991445 -0.04362428 0 0.9990481 -0.04361724 0 0.9990484 0.04361754 0 0.9990484 0.04362463 0 0.9990481 0.1305253 0 0.991445 0.2164474 0 0.9762943 0.2164338 0 0.9762973 0.3007097 0 0.9537158 0.3007032 0 0.9537178 0.3826825 0 0.9238801 0.3826825 0 0.92388 0.4617493 0 0.8870105 0.5372924 0 0.8433961 0.5373026 0 0.8433896 0.6087607 0 0.793354 0.6087608 0 0.793354 0.6755908 0 0.7372768 0.6755908 0 0.7372769 0.7372741 0 0.6755939 0.7372806 0 0.6755868 0.7933565 0 0.6087574 0.793354 0 0.6087607 0.8433904 0 0.5373014 0.8433904 0 0.5373013 0.887012 0 0.4617467 0.8870104 0 0.4617496 0.9238806 0 0.3826812 0.9238795 0 0.3826836 0.9537152 0 0.3007115 0.9537159 0 0.3007094 0.9762973 0 0.2164343 0.976297 0 0.2164358 0.9914443 0 0.1305308 0.9914445 0 0.1305289 0.9990485 0 0.04361587 0.9990485 0 0.04361587 -0.9990482 0 0.04362028 -0.9914458 0 0.1305191 -0.9914458 0 0.1305199 -0.9762954 0 0.2164426 -0.9762951 0 0.216444 -0.9537185 0 0.3007011 -0.953718 0 0.3007029 -0.9238782 0 0.3826867 -0.9238764 0 0.3826912 -0.887012 0 0.4617465 -0.8870121 0 0.4617463 -0.84339 0 0.537302 -0.8433919 0 0.5372991 -0.7933535 0 0.6087614 -0.7933582 0 0.6087551 -0.737275 0 0.6755927 -0.7372752 0 0.6755926 -0.6755917 0 0.737276 -0.6755952 0 0.7372728 -0.6087551 0 0.7933583 -0.6087591 0 0.7933551 -0.5372991 0 0.8433918 -0.5373038 0 0.8433889 -0.4617494 0 0.8870105 -0.3826819 0 0.9238802 -0.3826874 0 0.9238779 -0.3007011 0 0.9537184 -0.300707 0 0.9537166 -0.2164469 0 0.9762944 -0.216435 0 0.9762971 -0.1305275 0 0.9914447 -0.1305213 0 0.9914456 -0.04362362 0 0.9990481 -0.04361099 0 0.9990487 0.04361063 0 0.9990487 0.04362332 0 0.9990481 0.1305222 0 0.9914454 0.1305285 0 0.9914447 0.2164334 0 0.9762974 0.2164455 0 0.9762947 0.3007089 0 0.953716 0.3007032 0 0.9537178 0.382686 0 0.9238785 0.3826808 0 0.9238807 0.461748 0 0.8870112 0.5373036 0 0.8433889 0.5372992 0 0.8433917 0.6087607 0 0.7933539 0.6087568 0 0.7933568 0.6755952 0 0.7372728 0.6755918 0 0.7372759 0.737275 0 0.6755927 0.7372752 0 0.6755926 0.7933518 0 0.6087635 0.8433918 0 0.5372992 0.84339 0 0.537302 0.8870105 0 0.4617493 0.8870106 0 0.4617493 0.9238789 0 0.3826851 0.9238808 0 0.3826805 0.9537168 0 0.3007062 0.9537174 0 0.3007043 0.9762958 0 0.2164406 0.9762962 0 0.2164392 0.9914448 0 0.1305269 0.9914449 0 0.1305261 0.9990484 0 0.04361677 0.9990484 0 0.04361677 0.9990484 0 -0.04361677 0.9990484 0 -0.04361701 0.9914449 0 -0.1305261 0.9762958 0 -0.2164406 0.9762964 0 -0.2164378 0.9537163 0 -0.300708 0.9537174 0 -0.3007043 0.9238798 0 -0.3826829 0.9238798 0 -0.3826828 0.8870092 0 -0.4617519 0.8870106 0 -0.4617493 0.8433918 0 -0.5372992 0.84339 0 -0.537302 0.793354 0 -0.6087605 0.7933542 0 -0.6087604 0.7372779 0 -0.6755896 0.7372781 0 -0.6755895 0.6755917 0 -0.737276 0.6755883 0 -0.7372791 0.6087607 0 -0.7933539 0.6087648 0 -0.7933508 0.5372991 0 -0.8433918 0.5372947 0 -0.8433947 0.461753 0 -0.8870086 0.4617431 0 -0.8870139 0.382686 0 -0.9238785 0.3826808 0 -0.9238807 0.3007089 0 -0.953716 0.300709 0 -0.953716 0.2164334 0 -0.9762974 0.2164395 0 -0.9762961 0.1305285 0 -0.9914447 0.1305285 0 -0.9914447 0.04361701 0 -0.9990484 0.04361701 0 -0.9990484 -0.0436173 0 -0.9990484 -0.0436173 0 -0.9990484 -0.1305275 0 -0.9914447 -0.1305276 0 -0.9914448 -0.2164409 0 -0.9762957 -0.216435 0 -0.9762971 -0.3007069 0 -0.9537166 -0.300707 0 -0.9537166 -0.3826819 0 -0.9238802 -0.3826874 0 -0.9238779 -0.4617445 0 -0.8870131 -0.4617545 0 -0.8870078 -0.5372946 0 -0.8433947 -0.5372992 0 -0.8433917 -0.608763 0 -0.7933521 -0.6087591 0 -0.7933551 -0.6755883 0 -0.7372791 -0.6755918 0 -0.7372759 -0.7372779 0 -0.6755896 -0.7372781 0 -0.6755895 -0.7933558 0 -0.6087583 -0.7933558 0 -0.6087582 -0.84339 0 -0.537302 -0.8433919 0 -0.5372991 -0.887012 0 -0.4617465 -0.8870108 0 -0.461749 -0.9238772 0 -0.3826889 -0.9238774 0 -0.3826889 -0.9537185 0 -0.3007011 -0.9537173 0 -0.3007048 -0.9762957 0 -0.2164412 -0.9762951 0 -0.216444 -0.9914458 0 -0.1305191 -0.9914458 0 -0.130519 -0.9990482 0 -0.04362058 -0.9990482 0 -0.04362028 -0.9990482 0 0.04362034</float_array>
          <technique_common>
            <accessor source="#trapezoid_default_as_machined__6-mesh-normals-array" count="363" stride="3">
              <param name="X" type="float"/>
              <param name="Y" type="float"/>
              <param name="Z" type="float"/>
            </accessor>
          </technique_common>
        </source>
        <vertices id="trapezoid_default_as_machined__6-mesh-vertices">
          <input semantic="POSITION" source="#trapezoid_default_as_machined__6-mesh-positions"/>
        </vertices>
        <triangles count="576">
          <input semantic="VERTEX" source="#trapezoid_default_as_machined__6-mesh-vertices" offset="0"/>
          <input semantic="NORMAL" source="#trapezoid_default_as_machined__6-mesh-normals" offset="1"/>
          <p>0 0 1 0 2 0 1 0 3 0 2 0 2 0 3 0 4 0 3 0 5 0 4 0 4 0 5 0 6 0 5 1 7 1 6 1 6 0 7 0 8 0 7 1 9 1 8 1 8 2 9 2 10 2 9 0 11 0 10 0 10 0 11 0 12 0 11 3 13 3 12 3 12 4 13 4 14 4 13 5 15 5 14 5 14 6 15 6 16 6 15 0 17 0 16 0 16 0 17 0 18 0 17 0 19 0 18 0 18 0 19 0 20 0 19 7 21 7 20 7 20 0 21 0 22 0 21 8 23 8 22 8 22 9 23 9 24 9 23 10 25 10 24 10 24 0 25 0 26 0 25 0 27 0 26 0 26 0 27 0 28 0 27 11 29 11 28 11 28 12 29 12 30 12 29 13 31 13 30 13 30 14 31 14 32 14 31 15 33 15 32 15 32 16 33 16 34 16 33 17 35 17 34 17 34 18 35 18 36 18 35 0 37 0 36 0 36 19 37 19 38 19 37 3 39 3 38 3 38 20 39 20 40 20 39 0 41 0 40 0 40 21 41 21 42 21 41 0 43 0 42 0 42 19 43 19 44 19 43 22 45 22 44 22 44 12 45 12 46 12 45 0 47 0 46 0 46 23 47 23 48 23 47 0 49 0 48 0 48 0 49 0 50 0 49 0 51 0 50 0 50 24 51 24 52 24 51 0 53 0 52 0 52 0 53 0 54 0 53 0 55 0 54 0 54 25 55 25 56 25 55 22 57 22 56 22 56 0 57 0 58 0 57 0 59 0 58 0 58 0 59 0 60 0 59 26 61 26 60 26 60 0 61 0 62 0 61 0 63 0 62 0 62 0 63 0 64 0 63 0 65 0 64 0 64 9 65 9 66 9 65 0 67 0 66 0 66 9 67 9 68 9 67 27 69 27 68 27 68 0 69 0 70 0 69 0 71 0 70 0 70 0 71 0 72 0 71 0 73 0 72 0 72 0 73 0 74 0 73 0 75 0 74 0 74 0 75 0 76 0 75 0 77 0 76 0 76 0 77 0 78 0 77 0 79 0 78 0 78 0 79 0 80 0 79 28 81 28 80 28 80 4 81 4 82 4 81 0 83 0 82 0 82 0 83 0 84 0 83 0 85 0 84 0 84 0 85 0 86 0 85 5 87 5 86 5 86 4 87 4 88 4 87 3 89 3 88 3 88 0 89 0 90 0 89 29 91 29 90 29 90 0 91 0 92 0 91 29 93 29 92 29 92 0 93 0 94 0 93 30 95 30 94 30 94 0 95 0 96 0 95 31 97 31 96 31 96 32 97 32 98 32 97 0 99 0 98 0 98 0 99 0 100 0 99 10 101 10 100 10 100 24 101 24 102 24 101 5 103 5 102 5 102 0 103 0 104 0 103 33 105 33 104 33 104 12 105 12 106 12 105 34 107 34 106 34 106 0 107 0 108 0 107 0 109 0 108 0 108 19 109 19 110 19 109 35 111 35 110 35 110 23 111 23 112 23 111 3 113 3 112 3 112 36 113 36 114 36 113 35 115 35 114 35 114 37 115 37 116 37 115 1 117 1 116 1 116 24 117 24 118 24 117 0 119 0 118 0 118 24 119 24 120 24 119 0 121 0 120 0 120 0 121 0 122 0 121 0 123 0 122 0 122 14 123 14 124 14 123 0 125 0 124 0 124 0 125 0 126 0 125 38 127 38 126 38 126 0 127 0 128 0 127 0 129 0 128 0 128 0 129 0 130 0 129 39 131 39 130 39 130 0 131 0 132 0 131 0 133 0 132 0 132 0 133 0 134 0 133 0 135 0 134 0 134 0 135 0 136 0 135 0 137 0 136 0 136 0 137 0 138 0 137 0 139 0 138 0 138 0 139 0 140 0 139 40 141 40 140 40 140 0 141 0 142 0 141 41 143 41 142 41 142 0 143 0 0 0 143 1 1 1 0 1 144 42 145 42 146 42 145 43 147 43 146 43 146 42 147 42 148 42 147 43 149 43 148 43 148 42 149 42 150 42 149 44 151 44 150 44 150 42 151 42 152 42 151 45 153 45 152 45 152 46 153 46 154 46 153 42 155 42 154 42 154 42 155 42 156 42 155 47 157 47 156 47 156 48 157 48 158 48 157 49 159 49 158 49 158 42 159 42 160 42 159 50 161 50 160 50 160 51 161 51 162 51 161 52 163 52 162 52 162 42 163 42 164 42 163 42 165 42 164 42 164 53 165 53 166 53 165 54 167 54 166 54 166 53 167 53 168 53 167 55 169 55 168 55 168 56 169 56 170 56 169 57 171 57 170 57 170 58 171 58 172 58 171 59 173 59 172 59 172 48 173 48 174 48 173 42 175 42 174 42 174 48 175 48 176 48 175 42 177 42 176 42 176 42 177 42 178 42 177 42 179 42 178 42 178 60 179 60 180 60 179 42 181 42 180 42 180 42 181 42 182 42 181 61 183 61 182 61 182 42 183 42 184 42 183 42 185 42 184 42 184 42 185 42 186 42 185 62 187 62 186 62 186 42 187 42 188 42 187 42 189 42 188 42 188 42 189 42 190 42 189 42 191 42 190 42 190 42 191 42 192 42 191 42 193 42 192 42 192 42 193 42 194 42 193 42 195 42 194 42 194 42 195 42 196 42 195 63 197 63 196 63 196 42 197 42 198 42 197 64 199 64 198 64 198 42 199 42 200 42 199 59 201 59 200 59 200 42 201 42 202 42 201 42 203 42 202 42 202 42 203 42 204 42 203 42 205 42 204 42 204 42 205 42 206 42 205 59 207 59 206 59 206 42 207 42 208 42 207 59 209 59 208 59 208 46 209 46 210 46 209 42 211 42 210 42 210 42 211 42 212 42 211 55 213 55 212 55 212 65 213 65 214 65 213 49 215 49 214 49 214 66 215 66 216 66 215 42 217 42 216 42 216 42 217 42 218 42 217 42 219 42 218 42 218 42 219 42 220 42 219 67 221 67 220 67 220 42 221 42 222 42 221 68 223 68 222 68 222 69 223 69 224 69 223 47 225 47 224 47 224 42 225 42 226 42 225 42 227 42 226 42 226 42 227 42 228 42 227 70 229 70 228 70 228 51 229 51 230 51 229 71 231 71 230 71 230 60 231 60 232 60 231 72 233 72 232 72 232 73 233 73 234 73 233 74 235 74 234 74 234 75 235 75 236 75 235 42 237 42 236 42 236 53 237 53 238 53 237 55 239 55 238 55 238 76 239 76 240 76 239 42 241 42 240 42 240 77 241 77 242 77 241 42 243 42 242 42 242 53 243 53 244 53 243 62 245 62 244 62 244 60 245 60 246 60 245 42 247 42 246 42 246 78 247 78 248 78 247 42 249 42 248 42 248 42 249 42 250 42 249 42 251 42 250 42 250 79 251 79 252 79 251 42 253 42 252 42 252 42 253 42 254 42 253 42 255 42 254 42 254 80 255 80 256 80 255 81 257 81 256 81 256 42 257 42 258 42 257 42 259 42 258 42 258 42 259 42 260 42 259 82 261 82 260 82 260 42 261 42 262 42 261 42 263 42 262 42 262 42 263 42 264 42 263 42 265 42 264 42 264 69 265 69 266 69 265 42 267 42 266 42 266 69 267 69 268 69 267 83 269 83 268 83 268 42 269 42 270 42 269 42 271 42 270 42 270 42 271 42 272 42 271 42 273 42 272 42 272 42 273 42 274 42 273 42 275 42 274 42 274 42 275 42 276 42 275 42 277 42 276 42 276 42 277 42 278 42 277 42 279 42 278 42 278 42 279 42 280 42 279 83 281 83 280 83 280 84 281 84 282 84 281 42 283 42 282 42 282 42 283 42 284 42 283 42 285 42 284 42 284 42 285 42 286 42 285 49 287 49 286 49 286 65 287 65 144 65 287 55 145 55 144 55 62 85 262 85 60 85 262 86 264 86 60 86 60 87 264 87 58 87 264 88 266 88 58 88 58 89 266 89 56 89 266 90 268 90 56 90 56 91 268 91 54 91 268 92 270 92 54 92 54 93 270 93 52 93 270 94 272 94 52 94 52 95 272 95 50 95 272 96 274 96 50 96 50 97 274 97 48 97 274 98 276 98 48 98 48 99 276 99 46 99 276 100 278 100 46 100 46 101 278 101 44 101 278 101 280 101 44 101 44 102 280 102 42 102 280 103 282 103 42 103 42 104 282 104 40 104 282 105 284 105 40 105 40 106 284 106 38 106 284 107 286 107 38 107 38 108 286 108 36 108 286 109 144 109 36 109 36 110 144 110 34 110 144 111 146 111 34 111 34 112 146 112 32 112 146 113 148 113 32 113 32 114 148 114 30 114 148 115 150 115 30 115 30 116 150 116 28 116 150 117 152 117 28 117 28 118 152 118 26 118 152 119 154 119 26 119 26 120 154 120 24 120 154 121 156 121 24 121 24 122 156 122 22 122 156 123 158 123 22 123 22 124 158 124 20 124 158 125 160 125 20 125 20 126 160 126 18 126 160 127 162 127 18 127 18 128 162 128 16 128 162 129 164 129 16 129 16 130 164 130 14 130 164 131 166 131 14 131 14 132 166 132 12 132 166 133 168 133 12 133 12 134 168 134 10 134 168 135 170 135 10 135 10 136 170 136 8 136 170 137 172 137 8 137 8 138 172 138 6 138 172 138 174 138 6 138 6 139 174 139 4 139 174 139 176 139 4 139 4 140 176 140 2 140 176 141 178 141 2 141 2 142 178 142 0 142 178 143 180 143 0 143 0 144 180 144 142 144 180 145 182 145 142 145 142 146 182 146 140 146 182 147 184 147 140 147 140 148 184 148 138 148 184 149 186 149 138 149 138 150 186 150 136 150 186 151 188 151 136 151 136 152 188 152 134 152 188 153 190 153 134 153 134 154 190 154 132 154 190 155 192 155 132 155 132 156 192 156 130 156 192 157 194 157 130 157 130 158 194 158 128 158 194 159 196 159 128 159 128 160 196 160 126 160 196 161 198 161 126 161 126 162 198 162 124 162 198 163 200 163 124 163 124 164 200 164 122 164 200 165 202 165 122 165 122 166 202 166 120 166 202 167 204 167 120 167 120 168 204 168 118 168 204 169 206 169 118 169 118 170 206 170 116 170 206 171 208 171 116 171 116 172 208 172 114 172 208 173 210 173 114 173 114 174 210 174 112 174 210 175 212 175 112 175 112 176 212 176 110 176 212 177 214 177 110 177 110 178 214 178 108 178 214 179 216 179 108 179 108 180 216 180 106 180 216 181 218 181 106 181 106 182 218 182 104 182 218 183 220 183 104 183 104 184 220 184 102 184 220 185 222 185 102 185 102 186 222 186 100 186 222 186 224 186 100 186 100 187 224 187 98 187 224 188 226 188 98 188 98 189 226 189 96 189 226 190 228 190 96 190 96 191 228 191 94 191 228 191 230 191 94 191 94 192 230 192 92 192 230 193 232 193 92 193 92 194 232 194 90 194 232 195 234 195 90 195 90 196 234 196 88 196 234 197 236 197 88 197 88 198 236 198 86 198 236 198 238 198 86 198 86 199 238 199 84 199 238 200 240 200 84 200 84 201 240 201 82 201 240 202 242 202 82 202 82 203 242 203 80 203 242 204 244 204 80 204 80 205 244 205 78 205 244 206 246 206 78 206 78 207 246 207 76 207 246 208 248 208 76 208 76 209 248 209 74 209 248 210 250 210 74 210 74 211 250 211 72 211 250 212 252 212 72 212 72 213 252 213 70 213 252 214 254 214 70 214 70 215 254 215 68 215 254 216 256 216 68 216 68 217 256 217 66 217 256 218 258 218 66 218 66 219 258 219 64 219 258 220 260 220 64 220 64 221 260 221 62 221 260 222 262 222 62 222 263 223 61 223 265 223 61 224 59 224 265 224 265 225 59 225 267 225 59 226 57 226 267 226 267 227 57 227 269 227 57 228 55 228 269 228 269 229 55 229 271 229 55 230 53 230 271 230 271 231 53 231 273 231 53 232 51 232 273 232 273 233 51 233 275 233 51 234 49 234 275 234 275 235 49 235 277 235 49 236 47 236 277 236 277 237 47 237 279 237 47 238 45 238 279 238 279 239 45 239 281 239 45 240 43 240 281 240 281 241 43 241 283 241 43 242 41 242 283 242 283 243 41 243 285 243 41 244 39 244 285 244 285 245 39 245 287 245 39 246 37 246 287 246 287 246 37 246 145 246 37 247 35 247 145 247 145 248 35 248 147 248 35 249 33 249 147 249 147 250 33 250 149 250 33 251 31 251 149 251 149 252 31 252 151 252 31 253 29 253 151 253 151 254 29 254 153 254 29 255 27 255 153 255 153 256 27 256 155 256 27 257 25 257 155 257 155 258 25 258 157 258 25 259 23 259 157 259 157 260 23 260 159 260 23 261 21 261 159 261 159 262 21 262 161 262 21 263 19 263 161 263 161 264 19 264 163 264 19 265 17 265 163 265 163 266 17 266 165 266 17 267 15 267 165 267 165 267 15 267 167 267 15 268 13 268 167 268 167 269 13 269 169 269 13 270 11 270 169 270 169 271 11 271 171 271 11 272 9 272 171 272 171 273 9 273 173 273 9 274 7 274 173 274 173 275 7 275 175 275 7 207 5 207 175 207 175 276 5 276 177 276 5 277 3 277 177 277 177 278 3 278 179 278 3 279 1 279 179 279 179 280 1 280 181 280 1 281 143 281 181 281 181 282 143 282 183 282 143 283 141 283 183 283 183 284 141 284 185 284 141 285 139 285 185 285 185 286 139 286 187 286 139 287 137 287 187 287 187 288 137 288 189 288 137 289 135 289 189 289 189 290 135 290 191 290 135 291 133 291 191 291 191 292 133 292 193 292 133 293 131 293 193 293 193 293 131 293 195 293 131 294 129 294 195 294 195 295 129 295 197 295 129 296 127 296 197 296 197 297 127 297 199 297 127 298 125 298 199 298 199 299 125 299 201 299 125 300 123 300 201 300 201 301 123 301 203 301 123 302 121 302 203 302 203 303 121 303 205 303 121 304 119 304 205 304 205 305 119 305 207 305 119 306 117 306 207 306 207 307 117 307 209 307 117 308 115 308 209 308 209 309 115 309 211 309 115 310 113 310 211 310 211 311 113 311 213 311 113 312 111 312 213 312 213 313 111 313 215 313 111 314 109 314 215 314 215 315 109 315 217 315 109 316 107 316 217 316 217 317 107 317 219 317 107 318 105 318 219 318 219 319 105 319 221 319 105 320 103 320 221 320 221 321 103 321 223 321 103 322 101 322 223 322 223 323 101 323 225 323 101 324 99 324 225 324 225 325 99 325 227 325 99 326 97 326 227 326 227 327 97 327 229 327 97 328 95 328 229 328 229 329 95 329 231 329 95 330 93 330 231 330 231 331 93 331 233 331 93 332 91 332 233 332 233 333 91 333 235 333 91 334 89 334 235 334 235 335 89 335 237 335 89 336 87 336 237 336 237 337 87 337 239 337 87 338 85 338 239 338 239 339 85 339 241 339 85 340 83 340 241 340 241 341 83 341 243 341 83 342 81 342 243 342 243 343 81 343 245 343 81 344 79 344 245 344 245 345 79 345 247 345 79 346 77 346 247 346 247 347 77 347 249 347 77 348 75 348 249 348 249 349 75 349 251 349 75 350 73 350 251 350 251 351 73 351 253 351 73 352 71 352 253 352 253 353 71 353 255 353 71 354 69 354 255 354 255 355 69 355 257 355 69 356 67 356 257 356 257 357 67 357 259 357 67 358 65 358 259 358 259 359 65 359 261 359 65 360 63 360 261 360 261 361 63 361 263 361 63 362 61 362 263 362</p>
        </triangles>
      </mesh>
    </geometry>
  </library_geometries>
  <library_visual_scenes>
    <visual_scene id="Scene" name="Scene">
      <node id="trapezoid_default_as_machined__6" name="trapezoid_default_as_machined__6" type="NODE">
        <matrix sid="transform">1 0 0 0 0 1 0 0 0 0 1 0 0 0 0 1</matrix>
        <instance_geometry url="#trapezoid_default_as_machined__6-mesh" name="trapezoid_default_as_machined__6"/>
      </node>
    </visual_scene>
  </library_visual_scenes>
  <scene>
    <instance_visual_scene url="#Scene"/>
  </scene>
</COLLADA>