<?xml version="1.0" encoding="utf-8"?>
<COLLADA xmlns="http://www.collada.org/2005/11/COLLADASchema" version="1.4.1" xmlns:xsi="http://www.w3.org/2001/XMLSchema-instance">
  <asset>
    <contributor>
      <author>Blender User</author>
      <authoring_tool>Blender 3.0.1</authoring_tool>
    </contributor>
    <created>2026-06-04T16:19:19</created>
    <modified>2026-06-04T16:19:19</modified>
    <unit name="meter" meter="1"/>
    <up_axis>Z_UP</up_axis>
  </asset>
  <library_images/>
  <library_geometries>
    <geometry id="trapezoid_default_as_machined__7-mesh" name="trapezoid_default_as_machined__7">
      <mesh>
        <source id="trapezoid_default_as_machined__7-mesh-positions">
          <float_array id="trapezoid_default_as_machined__7-mesh-positions-array" count="396">-0.2472801 -0.03499996 0.1046231 -0.2057942 -0.01499998 0.08458101 -0.2046231 -0.03499996 0.1472801 -0.184581 -0.01499998 0.1057942 -0.2057942 0.01499998 0.08458101 -0.2472801 0.03499996 0.1046231 -0.184581 0.01499998 0.1057942 -0.2046231 0.03499996 0.1472801 -0.2608848 -0.01749998 0.1203991 -0.256869 -0.01749998 0.1211671 -0.2419437 -0.01749998 0.1020451 -0.2385475 -0.01749998 0.1298955 -0.2418869 -0.01749998 0.1275366 -0.2454149 -0.01749998 0.1254705 -0.2201719 -0.01749998 0.1731185 -0.2207902 -0.01749998 0.1771599 -0.2123567 -0.01749998 0.1632881 -0.2771599 -0.01749998 0.1207903 -0.2731185 -0.01749998 0.1201719 -0.2529333 -0.01749998 0.1222742 -0.2491059 -0.01749998 0.1237121 -0.235421 -0.01749998 0.13253 -0.2325299 -0.01749998 0.135421 -0.2298955 -0.01749998 0.1385475 -0.2217503 -0.01749998 0.1811341 -0.2230451 -0.01749998 0.1850122 -0.2246652 -0.01749998 0.188766 -0.2222741 -0.01749998 0.1529332 -0.2211672 -0.01749998 0.1568691 -0.2203991 -0.01749998 0.1608847 -0.288766 -0.01749998 0.1246652 -0.2850122 -0.01749998 0.1230451 -0.2811341 -0.01749998 0.1217503 -0.269039 -0.01749998 0.1198996 -0.2649512 -0.01749998 0.1199756 -0.2199756 -0.01749998 0.1649512 -0.2198997 -0.01749998 0.169039 -0.2275366 -0.01749998 0.1418869 -0.2254705 -0.01749998 0.1454149 -0.2237121 -0.01749998 0.149106 -0.2298955 0.01749998 0.1385475 -0.2325299 0.01749998 0.135421 -0.2419437 0.01749998 0.1020451 -0.235421 0.01749998 0.13253 -0.2385475 0.01749998 0.1298955 -0.2418869 0.01749998 0.1275366 -0.2246652 0.01749998 0.188766 -0.2230451 0.01749998 0.1850122 -0.2123567 0.01749998 0.1632881 -0.2217503 0.01749998 0.1811341 -0.2207902 0.01749998 0.1771599 -0.2454149 0.01749998 0.1254705 -0.2491059 0.01749998 0.1237121 -0.2529333 0.01749998 0.1222742 -0.2201719 0.01749998 0.1731185 -0.2198997 0.01749998 0.169039 -0.2199756 0.01749998 0.1649512 -0.2203991 0.01749998 0.1608847 -0.2211672 0.01749998 0.1568691 -0.2222741 0.01749998 0.1529332 -0.256869 0.01749998 0.1211671 -0.2608848 0.01749998 0.1203991 -0.2649512 0.01749998 0.1199756 -0.269039 0.01749998 0.1198996 -0.2731185 0.01749998 0.1201719 -0.2771599 0.01749998 0.1207903 -0.2811341 0.01749998 0.1217503 -0.2850122 0.01749998 0.1230451 -0.288766 0.01749998 0.1246652 -0.2237121 0.01749998 0.149106 -0.2254705 0.01749998 0.1454149 -0.2275366 0.01749998 0.1418869 -0.288766 0.03499996 0.1246652 -0.288766 -0.03499996 0.1246652 -0.2850122 0.03499996 0.1230451 -0.2811341 0.03499996 0.1217503 -0.2771599 0.03499996 0.1207903 -0.2731185 0.03499996 0.1201719 -0.269039 0.03499996 0.1198996 -0.2649512 0.03499996 0.1199756 -0.2608848 0.03499996 0.1203991 -0.256869 0.03499996 0.1211671 -0.2529333 0.03499996 0.1222742 -0.2491059 0.03499996 0.1237121 -0.2454149 0.03499996 0.1254705 -0.2418869 0.03499996 0.1275366 -0.2385475 0.03499996 0.1298955 -0.235421 0.03499996 0.13253 -0.2325299 0.03499996 0.135421 -0.2298955 0.03499996 0.1385475 -0.2275366 0.03499996 0.1418869 -0.2254705 0.03499996 0.1454149 -0.2237121 0.03499996 0.149106 -0.2222741 0.03499996 0.1529332 -0.2211672 0.03499996 0.1568691 -0.2203991 0.03499996 0.1608847 -0.2199756 0.03499996 0.1649512 -0.2198997 0.03499996 0.169039 -0.2201719 0.03499996 0.1731185 -0.2207902 0.03499996 0.1771599 -0.2217503 0.03499996 0.1811341 -0.2230451 0.03499996 0.1850122 -0.2246652 0.03499996 0.188766 -0.2850122 -0.03499996 0.1230451 -0.2811341 -0.03499996 0.1217503 -0.2771599 -0.03499996 0.1207903 -0.2731185 -0.03499996 0.1201719 -0.269039 -0.03499996 0.1198996 -0.2649512 -0.03499996 0.1199756 -0.2608848 -0.03499996 0.1203991 -0.256869 -0.03499996 0.1211671 -0.2529333 -0.03499996 0.1222742 -0.2491059 -0.03499996 0.1237121 -0.2454149 -0.03499996 0.1254705 -0.2418869 -0.03499996 0.1275366 -0.2385475 -0.03499996 0.1298955 -0.235421 -0.03499996 0.13253 -0.2325299 -0.03499996 0.135421 -0.2298955 -0.03499996 0.1385475 -0.2275366 -0.03499996 0.1418869 -0.2254705 -0.03499996 0.1454149 -0.2237121 -0.03499996 0.149106 -0.2222741 -0.03499996 0.1529332 -0.2211672 -0.03499996 0.1568691 -0.2203991 -0.03499996 0.1608847 -0.2199756 -0.03499996 0.1649512 -0.2198997 -0.03499996 0.169039 -0.2201719 -0.03499996 0.1731185 -0.2207902 -0.03499996 0.1771599 -0.2217503 -0.03499996 0.1811341 -0.2230451 -0.03499996 0.1850122 -0.2246652 -0.03499996 0.188766</float_array>
          <technique_common>
            <accessor source="#trapezoid_default_as_machined__7-mesh-positions-array" count="132" stride="3">
              <param name="X" type="float"/>
              <param name="Y" type="float"/>
              <param name="Z" type="float"/>
            </accessor>
          </technique_common>
        </source>
        <source id="trapezoid_default_as_machined__7-mesh-normals">
          <float_array id="trapezoid_default_as_machined__7-mesh-normals-array" count="507">0.2953436 -0.9085947 -0.2953435 0.2953435 -0.9085949 -0.2953436 0.2953437 0.9085947 -0.2953437 0.2953436 0.9085948 -0.2953436 0 1 0 0 1 0 0 1 1.86256e-7 0 1 -4.20129e-7 0 1 1.24382e-7 0 1 -2.1847e-6 0 1 -7.38422e-7 0 1 9.55785e-7 0 1 -3.5766e-7 0 1 7.75656e-7 0 1 -7.04184e-7 0 1 -9.3071e-7 0 1 3.42552e-7 0 1 3.15413e-7 0 -1 0 0 -1 -2.10061e-7 0 -1 0 0 -1 0 0 -1 -2.1847e-6 0 -1 5.40324e-7 0 -1 1.56093e-7 0 -1 -5.59878e-7 0 -1 9.55789e-7 0 -1 -1.31955e-7 0 -1 -7.04184e-7 0 -1 7.75656e-7 0 -1 -8.08734e-7 0 -1 -3.21479e-6 0 -1 6.34474e-7 -0.9004291 0 0.4350031 -0.9004289 0 0.4350032 -0.4350035 0 -0.9004289 -0.4350036 0 -0.9004288 -0.4350035 1.53515e-6 -0.9004289 -0.4350036 -1.73262e-6 -0.9004288 -0.4350035 0 -0.9004288 -0.4350033 0 -0.9004288 -0.4350031 0 -0.9004291 -0.4350032 0 -0.900429 0.3962666 0 0.9181356 0.3962609 0 0.918138 0.3166882 0 0.9485297 0.3166942 0 0.9485278 0.2348188 0 0.9720392 0.2348186 0 0.9720392 0.1512542 0 0.988495 0.1512477 0 0.988496 0.06657993 0 0.9977812 0.06657987 0 0.9977811 -0.01857465 0 0.9998275 -0.01856815 0 0.9998276 -0.1035929 0 0.9946199 -0.1035864 0 0.9946205 -0.1878619 0 0.9821955 -0.1878494 0 0.9821979 -0.2707605 0 0.9626467 -0.2707604 0 0.9626469 -0.3517016 0 0.9361122 -0.3516958 0 0.9361144 -0.4300881 0 0.902787 -0.4300828 0 0.9027895 -0.505347 0 0.8629162 -0.5053565 0 0.8629107 -0.57695 0 0.8167795 -0.5769542 0 0.8167765 -0.6443672 0 0.7647163 -0.6443634 0 0.7647196 -0.7071078 0 0.7071058 -0.7071076 0 0.707106 -0.7647168 0 0.6443666 -0.7647195 0 0.6443635 -0.8167763 0 0.5769544 -0.862914 0 0.505351 -0.8629138 0 0.5053511 -0.9027875 0 0.4300869 -0.9027886 0 0.4300845 -0.9361139 0 0.3516972 -0.9361139 0 0.3516973 -0.9626473 0 0.2707585 -0.9626478 0 0.2707569 -0.9821965 0 0.1878566 -0.9821963 0 0.1878578 -0.99462 0 0.103592 -0.9946199 0 0.103592 -0.9998276 0 0.0185694 -0.9998277 0 0.01856964 -0.9977813 0 -0.06657677 -0.9977813 0 -0.06657677 -0.9884957 0 -0.1512495 -0.9884955 0 -0.1512505 -0.9720391 0 -0.2348189 -0.9720384 0 -0.2348221 -0.9485286 0 -0.3166915 -0.9485286 0 -0.3166916 -0.9181382 0 -0.3962604 -0.9181362 0 -0.3962652 0.3962665 0 0.9181357 0.3962611 0 0.9181379 0.1512541 0 0.988495 0.1512478 0 0.9884959 -0.1035929 0 0.9946199 -0.1035864 0 0.9946205 -0.3517016 0 0.9361122 -0.3516959 0 0.9361144 -0.5053468 0 0.8629164 -0.5053567 0 0.8629106 -0.5769498 0 0.8167796 -0.5769544 0 0.8167765 -0.6443671 0 0.7647163 -0.6443634 0 0.7647196 -0.7647168 0 0.6443667 -0.7647196 0 0.6443634 -0.9027875 0 0.430087 -0.9027888 0 0.4300844 -0.9626473 0 0.2707586 -0.9626478 0 0.2707569 -0.9821965 0 0.1878566 -0.9821963 0 0.1878578 -0.9998276 0 0.0185694 -0.9998277 0 0.01856964 -0.9884957 0 -0.1512495 -0.9884955 0 -0.1512505 -0.9720392 0 -0.2348191 -0.9720384 0 -0.2348219 -0.9181382 0 -0.3962604 -0.9181361 0 -0.3962651 0.7071067 0 -0.7071068 0 -1 -6.72554e-7 0 -1 -6.13766e-7 0 -1 -2.06424e-6 0 -1 1.45435e-6 0 -1 -4.56204e-7 0 -1 4.1758e-7 0 -1 -1.70062e-7 0 -1 -1.25464e-6 0 -1 5.19621e-7 0 -1 -1.97532e-7 0 -1 -3.84541e-7 0 -1 -8.32554e-7 0 -1 2.06421e-6 0 -1 1.86319e-6 0 -1 -6.54656e-6 0 -1 7.25589e-6 0 1 1.45435e-6 0 1 1.61066e-6 0 1 -2.06424e-6 0 1 -6.13766e-7 0 1 -1.9227e-7 0 1 -1.9227e-7 0 1 -1.97532e-7 0 1 -5.01857e-6 0 1 1.81867e-6 0 1 2.48425e-6 0 1 2.06421e-6 0 1 -5.72828e-6 0 1 -8.32556e-7 0 1 3.8432e-7 0.9004288 0 0.4350035 0.9004288 1.88083e-6 0.4350034 0.9004288 0 0.4350033 0.9004288 -1.15508e-6 0.4350035 0.9004284 0 0.4350045 0.9004291 6.71363e-7 0.4350031 0.9004288 -1.09878e-6 0.4350036 0.900429 0 0.435003</float_array>
          <technique_common>
            <accessor source="#trapezoid_default_as_machined__7-mesh-normals-array" count="169" stride="3">
              <param name="X" type="float"/>
              <param name="Y" type="float"/>
              <param name="Z" type="float"/>
            </accessor>
          </technique_common>
        </source>
        <vertices id="trapezoid_default_as_machined__7-mesh-vertices">
          <input semantic="POSITION" source="#trapezoid_default_as_machined__7-mesh-positions"/>
        </vertices>
        <triangles count="260">
          <input semantic="VERTEX" source="#trapezoid_default_as_machined__7-mesh-vertices" offset="0"/>
          <input semantic="NORMAL" source="#trapezoid_default_as_machined__7-mesh-normals" offset="1"/>
          <p>0 0 1 0 2 0 1 1 3 1 2 1 4 2 5 2 6 2 5 3 7 3 6 3 8 4 9 4 10 4 11 5 10 5 12 5 10 4 13 4 12 4 14 4 15 4 16 4 17 4 18 4 10 4 9 4 19 4 10 4 19 4 20 4 10 4 10 4 20 4 13 4 11 6 21 6 10 6 21 7 22 7 10 7 10 8 22 8 23 8 15 4 24 4 16 4 24 9 25 9 16 9 16 10 25 10 26 10 27 4 28 4 16 4 28 11 29 11 16 11 30 4 31 4 10 4 31 4 32 4 10 4 10 12 32 12 17 12 18 4 33 4 10 4 33 13 34 13 10 13 10 14 34 14 8 14 29 4 35 4 16 4 35 15 36 15 16 15 16 16 36 16 14 16 23 4 37 4 10 4 37 4 38 4 10 4 10 4 38 4 16 4 38 4 39 4 16 4 16 17 39 17 27 17 40 18 41 18 42 18 41 19 43 19 42 19 43 20 44 20 42 20 42 21 44 21 45 21 46 18 47 18 48 18 47 22 49 22 48 22 48 23 49 23 50 23 45 18 51 18 42 18 51 18 52 18 42 18 42 24 52 24 53 24 50 18 54 18 48 18 54 18 55 18 48 18 48 25 55 25 56 25 56 18 57 18 48 18 57 26 58 26 48 26 48 27 58 27 59 27 53 18 60 18 42 18 60 18 61 18 42 18 42 28 61 28 62 28 62 29 63 29 42 29 63 18 64 18 42 18 42 30 64 30 65 30 65 18 66 18 42 18 66 18 67 18 42 18 42 31 67 31 68 31 59 18 69 18 48 18 69 18 70 18 48 18 48 18 70 18 42 18 70 18 71 18 42 18 42 32 71 32 40 32 42 33 10 33 48 33 10 34 16 34 48 34 42 35 68 35 72 35 73 36 30 36 0 36 30 37 10 37 0 37 72 38 5 38 42 38 5 39 4 39 42 39 42 40 4 40 10 40 4 41 1 41 10 41 10 42 1 42 0 42 72 43 68 43 74 43 68 44 67 44 74 44 74 45 67 45 75 45 67 46 66 46 75 46 75 47 66 47 76 47 66 48 65 48 76 48 76 49 65 49 77 49 65 50 64 50 77 50 77 51 64 51 78 51 64 52 63 52 78 52 78 53 63 53 79 53 63 54 62 54 79 54 79 55 62 55 80 55 62 56 61 56 80 56 80 57 61 57 81 57 61 58 60 58 81 58 81 59 60 59 82 59 60 60 53 60 82 60 82 61 53 61 83 61 53 62 52 62 83 62 83 63 52 63 84 63 52 64 51 64 84 64 84 65 51 65 85 65 51 66 45 66 85 66 85 67 45 67 86 67 45 68 44 68 86 68 86 69 44 69 87 69 44 70 43 70 87 70 87 71 43 71 88 71 43 72 41 72 88 72 88 73 41 73 89 73 41 74 40 74 89 74 89 75 40 75 90 75 40 75 71 75 90 75 90 76 71 76 91 76 71 77 70 77 91 77 91 78 70 78 92 78 70 79 69 79 92 79 92 80 69 80 93 80 69 81 59 81 93 81 93 82 59 82 94 82 59 83 58 83 94 83 94 84 58 84 95 84 58 85 57 85 95 85 95 86 57 86 96 86 57 87 56 87 96 87 96 88 56 88 97 88 56 89 55 89 97 89 97 90 55 90 98 90 55 91 54 91 98 91 98 92 54 92 99 92 54 93 50 93 99 93 99 94 50 94 100 94 50 95 49 95 100 95 100 96 49 96 101 96 49 97 47 97 101 97 101 98 47 98 102 98 47 99 46 99 102 99 30 100 73 100 31 100 73 101 103 101 31 101 31 45 103 45 32 45 103 46 104 46 32 46 32 48 104 48 17 48 104 47 105 47 17 47 17 102 105 102 18 102 105 103 106 103 18 103 18 52 106 52 33 52 106 51 107 51 33 51 33 53 107 53 34 53 107 54 108 54 34 54 34 104 108 104 8 104 108 105 109 105 8 105 8 57 109 57 9 57 109 58 110 58 9 58 9 60 110 60 19 60 110 59 111 59 19 59 19 106 111 106 20 106 111 107 112 107 20 107 20 63 112 63 13 63 112 64 113 64 13 64 13 108 113 108 12 108 113 109 114 109 12 109 12 110 114 110 11 110 114 111 115 111 11 111 11 112 115 112 21 112 115 113 116 113 21 113 21 72 116 72 22 72 116 71 117 71 22 71 22 114 117 114 23 114 117 115 118 115 23 115 23 75 118 75 37 75 118 75 119 75 37 75 37 77 119 77 38 77 119 76 120 76 38 76 38 116 120 116 39 116 120 117 121 117 39 117 39 81 121 81 27 81 121 80 122 80 27 80 27 118 122 118 28 118 122 119 123 119 28 119 28 120 123 120 29 120 123 121 124 121 29 121 29 87 124 87 35 87 124 86 125 86 35 86 35 122 125 122 36 122 125 123 126 123 36 123 36 91 126 91 14 91 126 90 127 90 14 90 14 124 127 124 15 124 127 125 128 125 15 125 15 126 128 126 24 126 128 127 129 127 24 127 24 97 129 97 25 97 129 96 130 96 25 96 25 128 130 128 26 128 130 129 131 129 26 129 4 130 6 130 1 130 6 130 3 130 1 130 125 18 124 18 2 18 124 18 123 18 2 18 2 131 123 131 122 131 131 18 130 18 2 18 130 18 129 18 2 18 2 132 129 132 128 132 128 18 127 18 2 18 127 133 126 133 2 133 2 134 126 134 125 134 115 135 114 135 0 135 122 18 121 18 2 18 121 18 120 18 2 18 2 136 120 136 119 136 119 18 118 18 2 18 118 18 117 18 2 18 2 137 117 137 0 137 117 138 116 138 0 138 0 139 116 139 115 139 114 18 113 18 0 18 113 140 112 140 0 140 0 141 112 141 111 141 111 18 110 18 0 18 110 18 109 18 0 18 0 142 109 142 108 142 108 18 107 18 0 18 107 143 106 143 0 143 0 144 106 144 105 144 105 145 104 145 0 145 104 18 103 18 0 18 0 146 103 146 73 146 93 4 94 4 7 4 94 4 95 4 7 4 95 4 96 4 7 4 7 147 96 147 97 147 102 4 7 4 101 4 7 148 100 148 101 148 7 4 89 4 90 4 97 149 98 149 7 149 98 4 99 4 7 4 7 150 99 150 100 150 90 4 91 4 7 4 91 4 92 4 7 4 7 151 92 151 93 151 82 152 83 152 5 152 83 153 84 153 5 153 5 4 84 4 85 4 85 4 86 4 5 4 86 4 87 4 5 4 5 4 87 4 7 4 87 154 88 154 7 154 7 155 88 155 89 155 76 156 77 156 5 156 77 157 78 157 5 157 5 4 78 4 79 4 72 4 74 4 5 4 74 4 75 4 5 4 5 158 75 158 76 158 79 159 80 159 5 159 80 4 81 4 5 4 5 160 81 160 82 160 102 161 46 161 7 161 46 162 48 162 7 162 26 163 131 163 16 163 131 164 2 164 16 164 16 165 2 165 48 165 2 166 3 166 48 166 48 167 3 167 7 167 3 168 6 168 7 168</p>
        </triangles>
      </mesh>
    </geometry>
  </library_geometries>
  <library_visual_scenes>
    <visual_scene id="Scene" name="Scene">
      <node id="trapezoid_default_as_machined__7" name="trapezoid_default_as_machined__7" type="NODE">
        <matrix sid="transform">1 0 0 0 0 1 0 0 0 0 1 0 0 0 0 1</matrix>
        <instance_geometry url="#trapezoid_default_as_machined__7-mesh" name="trapezoid_default_as_machined__7"/>
      </node>
    </visual_scene>
  </library_visual_scenes>
  <scene>
    <instance_visual_scene url="#Scene"/>
  </scene>
</COLLADA>