<?xml version="1.0" encoding="utf-8"?>
<COLLADA xmlns="http://www.collada.org/2005/11/COLLADASchema" version="1.4.1" xmlns:xsi="http://www.w3.org/2001/XMLSchema-instance">
  <asset>
    <contributor>
      <author>Blender User</author>
      <authoring_tool>Blender 3.0.1</authoring_tool>
    </contributor>
    <created>2026-06-04T16:19:20</created>
    <modified>2026-06-04T16:19:20</modified>
    <unit name="meter" meter="1"/>
    <up_axis>Z_UP</up_axis>
  </asset>
  <library_images/>
  <library_geometries>
    <geometry id="trapezoid_default_as_machined__8-mesh" name="trapezoid_default_as_machined__8">
      <mesh>
        <source id="trapezoid_default_as_machined__8-mesh-positions">
          <float_array id="trapezoid_default_as_machined__8-mesh-positions-array" count="864">-0.236165 0.01749998 0.1826775 -0.224383 0.01749998 0.1881715 -0.2375749 0.01749998 0.1853858 -0.2263166 0.01749998 0.1918858 -0.2392155 0.01749998 0.187961 -0.2285665 0.01749998 0.1954175 -0.2410742 0.01749998 0.1903834 -0.2311156 0.01749998 0.1987396 -0.2431371 0.01749998 0.1926345 -0.2339447 0.01749998 0.2018269 -0.2453882 0.01749998 0.1946973 -0.237032 0.01749998 0.204656 -0.2478106 0.01749998 0.1965561 -0.2403541 0.01749998 0.2072051 -0.2503858 0.01749998 0.1981967 -0.2438858 0.01749998 0.209455 -0.2530942 0.01749998 0.1996065 -0.2476001 0.01749998 0.2113886 -0.2559151 0.01749998 0.200775 -0.2514688 0.01749998 0.2129911 -0.2588272 0.01749998 0.2016932 -0.2554625 0.01749998 0.2142502 -0.2618081 0.01749998 0.2023541 -0.2595507 0.01749998 0.2151566 -0.2648354 0.01749998 0.2027526 -0.2637023 0.01749998 0.2157031 -0.2678858 0.01749998 0.2028858 -0.2678858 0.01749998 0.2158858 -0.2709363 0.01749998 0.2027526 -0.2720693 0.01749998 0.2157031 -0.2739635 0.01749998 0.2023541 -0.2762209 0.01749998 0.2151566 -0.2769445 0.01749998 0.2016932 -0.2803092 0.01749998 0.2142502 -0.2798565 0.01749998 0.200775 -0.2843028 0.01749998 0.2129911 -0.2826775 0.01749998 0.1996065 -0.2881715 0.01749998 0.2113886 -0.2853858 0.01749998 0.1981967 -0.2918858 0.01749998 0.209455 -0.287961 0.01749998 0.1965561 -0.2954175 0.01749998 0.2072051 -0.2903834 0.01749998 0.1946973 -0.2987396 0.01749998 0.204656 -0.2926346 0.01749998 0.1926345 -0.301827 0.01749998 0.2018269 -0.2946974 0.01749998 0.1903834 -0.304656 0.01749998 0.1987396 -0.2965561 0.01749998 0.187961 -0.3072051 0.01749998 0.1954175 -0.2981967 0.01749998 0.1853858 -0.309455 0.01749998 0.1918858 -0.2996066 0.01749998 0.1826775 -0.3113886 0.01749998 0.1881715 -0.3007751 0.01749998 0.1798565 -0.3129911 0.01749998 0.1843028 -0.3016932 0.01749998 0.1769444 -0.3142502 0.01749998 0.1803091 -0.3023541 0.01749998 0.1739635 -0.3151566 0.01749998 0.1762209 -0.3027526 0.01749998 0.1709362 -0.3157032 0.01749998 0.1720693 -0.3028858 0.01749998 0.1678858 -0.3158858 0.01749998 0.1678858 -0.3027526 0.01749998 0.1648353 -0.3157032 0.01749998 0.1637023 -0.3023541 0.01749998 0.1618081 -0.3151566 0.01749998 0.1595507 -0.3016932 0.01749998 0.1588271 -0.3142502 0.01749998 0.1554625 -0.3007751 0.01749998 0.1559151 -0.3129911 0.01749998 0.1514688 -0.2996066 0.01749998 0.1530942 -0.3113886 0.01749998 0.1476001 -0.2981967 0.01749998 0.1503858 -0.309455 0.01749998 0.1438858 -0.2965561 0.01749998 0.1478106 -0.3072051 0.01749998 0.1403541 -0.2946974 0.01749998 0.1453883 -0.304656 0.01749998 0.137032 -0.2926346 0.01749998 0.143137 -0.301827 0.01749998 0.1339446 -0.2903834 0.01749998 0.1410742 -0.2987396 0.01749998 0.1311157 -0.287961 0.01749998 0.1392155 -0.2954175 0.01749998 0.1285665 -0.2853858 0.01749998 0.1375749 -0.2918858 0.01749998 0.1263166 -0.2826775 0.01749998 0.136165 -0.2881715 0.01749998 0.124383 -0.2798565 0.01749998 0.1349965 -0.2843028 0.01749998 0.1227806 -0.2769445 0.01749998 0.1340784 -0.2803092 0.01749998 0.1215214 -0.2739635 0.01749998 0.1334175 -0.2762209 0.01749998 0.120615 -0.2709363 0.01749998 0.133019 -0.2720693 0.01749998 0.1200684 -0.2678858 0.01749998 0.1328858 -0.2678858 0.01749998 0.1198858 -0.2648354 0.01749998 0.133019 -0.2637023 0.01749998 0.1200684 -0.2618081 0.01749998 0.1334175 -0.2595507 0.01749998 0.120615 -0.2588272 0.01749998 0.1340784 -0.2554625 0.01749998 0.1215214 -0.2559151 0.01749998 0.1349965 -0.2514688 0.01749998 0.1227806 -0.2530942 0.01749998 0.136165 -0.2476001 0.01749998 0.124383 -0.2503858 0.01749998 0.1375749 -0.2438858 0.01749998 0.1263166 -0.2478106 0.01749998 0.1392155 -0.2403541 0.01749998 0.1285665 -0.2453882 0.01749998 0.1410742 -0.237032 0.01749998 0.1311157 -0.2431371 0.01749998 0.143137 -0.2339447 0.01749998 0.1339446 -0.2410742 0.01749998 0.1453883 -0.2311156 0.01749998 0.137032 -0.2392155 0.01749998 0.1478106 -0.2285665 0.01749998 0.1403541 -0.2375749 0.01749998 0.1503858 -0.2263166 0.01749998 0.1438858 -0.236165 0.01749998 0.1530942 -0.224383 0.01749998 0.1476001 -0.2349966 0.01749998 0.1559151 -0.2227805 0.01749998 0.1514688 -0.2340784 0.01749998 0.1588271 -0.2215213 0.01749998 0.1554625 -0.2334175 0.01749998 0.1618081 -0.220615 0.01749998 0.1595507 -0.233019 0.01749998 0.1648353 -0.2200685 0.01749998 0.1637023 -0.2328858 0.01749998 0.1678858 -0.2198858 0.01749998 0.1678858 -0.233019 0.01749998 0.1709362 -0.2200685 0.01749998 0.1720693 -0.2334175 0.01749998 0.1739635 -0.220615 0.01749998 0.1762209 -0.2340784 0.01749998 0.1769444 -0.2215213 0.01749998 0.1803091 -0.2349966 0.01749998 0.1798565 -0.2227805 0.01749998 0.1843028 -0.2453882 0.02249997 0.1946973 -0.237032 0.02249997 0.204656 -0.2431371 0.02249997 0.1926345 -0.2339447 0.02249997 0.2018269 -0.2410742 0.02249997 0.1903834 -0.2311156 0.02249997 0.1987396 -0.2392155 0.02249997 0.187961 -0.2285665 0.02249997 0.1954175 -0.2375749 0.02249997 0.1853858 -0.2263166 0.02249997 0.1918858 -0.236165 0.02249997 0.1826775 -0.224383 0.02249997 0.1881715 -0.2349966 0.02249997 0.1798565 -0.2227805 0.02249997 0.1843028 -0.2340784 0.02249997 0.1769444 -0.2215213 0.02249997 0.1803091 -0.2334175 0.02249997 0.1739635 -0.220615 0.02249997 0.1762209 -0.233019 0.02249997 0.1709362 -0.2200685 0.02249997 0.1720693 -0.2328858 0.02249997 0.1678858 -0.2198858 0.02249997 0.1678858 -0.233019 0.02249997 0.1648353 -0.2200685 0.02249997 0.1637023 -0.2334175 0.02249997 0.1618081 -0.220615 0.02249997 0.1595507 -0.2340784 0.02249997 0.1588271 -0.2215213 0.02249997 0.1554625 -0.2349966 0.02249997 0.1559151 -0.2227805 0.02249997 0.1514688 -0.236165 0.02249997 0.1530942 -0.224383 0.02249997 0.1476001 -0.2375749 0.02249997 0.1503858 -0.2263166 0.02249997 0.1438858 -0.2392155 0.02249997 0.1478106 -0.2285665 0.02249997 0.1403541 -0.2410742 0.02249997 0.1453883 -0.2311156 0.02249997 0.137032 -0.2431371 0.02249997 0.143137 -0.2339447 0.02249997 0.1339446 -0.2453882 0.02249997 0.1410742 -0.237032 0.02249997 0.1311157 -0.2478106 0.02249997 0.1392155 -0.2403541 0.02249997 0.1285665 -0.2503858 0.02249997 0.1375749 -0.2438858 0.02249997 0.1263166 -0.2530942 0.02249997 0.136165 -0.2476001 0.02249997 0.124383 -0.2559151 0.02249997 0.1349965 -0.2514688 0.02249997 0.1227806 -0.2588272 0.02249997 0.1340784 -0.2554625 0.02249997 0.1215214 -0.2618081 0.02249997 0.1334175 -0.2595507 0.02249997 0.120615 -0.2648354 0.02249997 0.133019 -0.2637023 0.02249997 0.1200684 -0.2678858 0.02249997 0.1328858 -0.2678858 0.02249997 0.1198858 -0.2709363 0.02249997 0.133019 -0.2720693 0.02249997 0.1200684 -0.2739635 0.02249997 0.1334175 -0.2762209 0.02249997 0.120615 -0.2769445 0.02249997 0.1340784 -0.2803092 0.02249997 0.1215214 -0.2798565 0.02249997 0.1349965 -0.2843028 0.02249997 0.1227806 -0.2826775 0.02249997 0.136165 -0.2881715 0.02249997 0.124383 -0.2853858 0.02249997 0.1375749 -0.2918858 0.02249997 0.1263166 -0.287961 0.02249997 0.1392155 -0.2954175 0.02249997 0.1285665 -0.2903834 0.02249997 0.1410742 -0.2987396 0.02249997 0.1311157 -0.2926346 0.02249997 0.143137 -0.301827 0.02249997 0.1339446 -0.2946974 0.02249997 0.1453883 -0.304656 0.02249997 0.137032 -0.2965561 0.02249997 0.1478106 -0.3072051 0.02249997 0.1403541 -0.2981967 0.02249997 0.1503858 -0.309455 0.02249997 0.1438858 -0.2996066 0.02249997 0.1530942 -0.3113886 0.02249997 0.1476001 -0.3007751 0.02249997 0.1559151 -0.3129911 0.02249997 0.1514688 -0.3016932 0.02249997 0.1588271 -0.3142502 0.02249997 0.1554625 -0.3023541 0.02249997 0.1618081 -0.3151566 0.02249997 0.1595507 -0.3027526 0.02249997 0.1648353 -0.3157032 0.02249997 0.1637023 -0.3028858 0.02249997 0.1678858 -0.3158858 0.02249997 0.1678858 -0.3027526 0.02249997 0.1709362 -0.3157032 0.02249997 0.1720693 -0.3023541 0.02249997 0.1739635 -0.3151566 0.02249997 0.1762209 -0.3016932 0.02249997 0.1769444 -0.3142502 0.02249997 0.1803091 -0.3007751 0.02249997 0.1798565 -0.3129911 0.02249997 0.1843028 -0.2996066 0.02249997 0.1826775 -0.3113886 0.02249997 0.1881715 -0.2981967 0.02249997 0.1853858 -0.309455 0.02249997 0.1918858 -0.2965561 0.02249997 0.187961 -0.3072051 0.02249997 0.1954175 -0.2946974 0.02249997 0.1903834 -0.304656 0.02249997 0.1987396 -0.2926346 0.02249997 0.1926345 -0.301827 0.02249997 0.2018269 -0.2903834 0.02249997 0.1946973 -0.2987396 0.02249997 0.204656 -0.287961 0.02249997 0.1965561 -0.2954175 0.02249997 0.2072051 -0.2853858 0.02249997 0.1981967 -0.2918858 0.02249997 0.209455 -0.2826775 0.02249997 0.1996065 -0.2881715 0.02249997 0.2113886 -0.2798565 0.02249997 0.200775 -0.2843028 0.02249997 0.2129911 -0.2769445 0.02249997 0.2016932 -0.2803092 0.02249997 0.2142502 -0.2739635 0.02249997 0.2023541 -0.2762209 0.02249997 0.2151566 -0.2709363 0.02249997 0.2027526 -0.2720693 0.02249997 0.2157031 -0.2678858 0.02249997 0.2028858 -0.2678858 0.02249997 0.2158858 -0.2648354 0.02249997 0.2027526 -0.2637023 0.02249997 0.2157031 -0.2618081 0.02249997 0.2023541 -0.2595507 0.02249997 0.2151566 -0.2588272 0.02249997 0.2016932 -0.2554625 0.02249997 0.2142502 -0.2559151 0.02249997 0.200775 -0.2514688 0.02249997 0.2129911 -0.2530942 0.02249997 0.1996065 -0.2476001 0.02249997 0.2113886 -0.2503858 0.02249997 0.1981967 -0.2438858 0.02249997 0.209455 -0.2478106 0.02249997 0.1965561 -0.2403541 0.02249997 0.2072051</float_array>
          <technique_common>
            <accessor source="#trapezoid_default_as_machined__8-mesh-positions-array" count="288" stride="3">
              <param name="X" type="float"/>
              <param name="Y" type="float"/>
              <param name="Z" type="float"/>
            </accessor>
          </technique_common>
        </source>
        <source id="trapezoid_default_as_machined__8-mesh-normals">
          <float_array id="trapezoid_default_as_machined__8-mesh-normals-array" count="1023">0 -1 0 0 -1 -5.35142e-7 0 -1 7.3391e-7 0 -1 -5.35139e-7 0 -1 7.33913e-7 0 -1 2.67572e-7 0 -1 -1.33786e-7 0 -1 1.33785e-7 0 -1 -2.00679e-7 0 -1 0 0 -1 1.37607e-7 0 -1 -2.6757e-7 0 -1 0 0 -1 -1.83476e-7 0 -1 -3.66952e-7 0 -1 3.66956e-7 0 -1 7.33904e-7 0 -1 -5.35149e-7 0 -1 5.35146e-7 0 -1 -7.33904e-7 0 -1 5.35139e-7 0 -1 -7.33917e-7 0 -1 5.35144e-7 0 -1 -7.33908e-7 0 -1 -2.67572e-7 0 -1 -1.33784e-7 0 -1 0 0 -1 0 0 -1 1.33788e-7 0 -1 0 0 -1 1.33784e-7 0 -1 -1.37607e-7 0 -1 0 0 -1 -3.66956e-7 0 -1 -5.35143e-7 0 -1 5.35143e-7 0 -1 7.33912e-7 0 1 0 0 1 -5.35144e-7 0 1 7.33904e-7 0 1 -1.07029e-6 0 1 1.46782e-6 0 1 1.07028e-6 0 1 1.46782e-6 0 1 -5.35139e-7 0 1 -7.33913e-7 0 1 5.35144e-7 0 1 -2.67572e-7 0 1 7.33913e-7 0 1 1.33785e-7 0 1 3.66948e-7 0 1 -1.83478e-7 0 1 -1.33784e-7 0 1 1.8348e-7 0 1 -3.66956e-7 0 1 -7.33887e-7 0 1 5.35149e-7 0 1 -1.07028e-6 0 1 1.07029e-6 0 1 -1.46783e-6 0 1 1.46783e-6 0 1 -1.46782e-6 0 1 1.07028e-6 0 1 -1.46781e-6 0 1 7.33921e-7 0 1 2.67572e-7 0 1 2.67567e-7 0 1 3.66956e-7 0 1 1.83476e-7 0 1 0 0 1 3.66952e-7 -0.9990483 0 -0.04361969 -0.9990482 0 -0.04361999 -0.9914447 0 -0.1305271 -0.9914447 0 -0.130528 -0.9762964 0 -0.216438 -0.9762965 0 -0.2164379 -0.9537166 0 -0.300707 -0.953716 0 -0.300709 -0.9238815 0 -0.3826789 -0.9238806 0 -0.3826812 -0.8870097 0 -0.4617508 -0.8870116 0 -0.4617473 -0.8433884 0 -0.5373044 -0.8433909 0 -0.5373006 -0.7933552 0 -0.6087592 -0.7933554 0 -0.6087589 -0.7372789 0 -0.6755885 -0.7372722 0 -0.6755958 -0.675594 0 -0.7372739 -0.6755901 0 -0.7372775 -0.608764 0 -0.7933514 -0.6087643 0 -0.7933512 -0.5373005 0 -0.8433909 -0.53729 0 -0.8433976 -0.4617462 0 -0.8870122 -0.4617466 0 -0.887012 -0.3826903 0 -0.9238767 -0.3826774 0 -0.9238821 -0.3007137 0 -0.9537144 -0.3006999 0 -0.9537189 -0.2164395 0 -0.9762961 -0.1305316 0 -0.9914442 -0.1305317 0 -0.9914442 -0.04361689 0 -0.9990484 0.0436173 0 -0.9990483 0.1305316 0 -0.9914442 0.1305317 0 -0.9914442 0.2164395 0 -0.9762961 0.3006999 0 -0.9537189 0.3007137 0 -0.9537144 0.3826739 0 -0.9238835 0.382687 0 -0.9238781 0.4617503 0 -0.88701 0.4617506 0 -0.8870098 0.5372872 0 -0.8433994 0.5372986 0 -0.8433921 0.608764 0 -0.7933514 0.6087643 0 -0.7933512 0.6755923 0 -0.7372755 0.6755966 0 -0.7372715 0.737272 0 -0.6755961 0.7372792 0 -0.6755883 0.7933528 0 -0.6087622 0.8433928 0 -0.5372976 0.843391 0 -0.5373005 0.8870114 0 -0.4617477 0.88701 0 -0.4617505 0.9238803 0 -0.3826816 0.9238816 0 -0.3826785 0.9537146 0 -0.3007135 0.9537153 0 -0.3007111 0.9762964 0 -0.216438 0.9762965 0 -0.2164379 0.9914447 0 -0.1305281 0.9914448 0 -0.130527 0.9990482 0 -0.04361999 0.9990483 0 -0.04361963 0.9990483 0 0.04361969 0.9990482 0 0.04361999 0.9914447 0 0.1305271 0.9914449 0 0.130526 0.9762961 0 0.2164396 0.9762961 0 0.2164395 0.9537152 0 0.3007113 0.953716 0 0.3007089 0.9238792 0 0.3826842 0.9238806 0 0.3826812 0.8870097 0 0.4617508 0.8870116 0 0.4617473 0.8433907 0 0.537301 0.8433953 0 0.5372936 0.79335 0 0.6087659 0.7933528 0 0.6087622 0.7372789 0 0.6755885 0.7372757 0 0.6755921 0.6755964 0 0.7372717 0.6755883 0 0.7372791 0.608764 0 0.7933514 0.6087643 0 0.7933512 0.5372927 0 0.8433958 0.537304 0 0.8433887 0.4617443 0 0.8870131 0.4617506 0 0.8870098 0.3826869 0 0.9238782 0.3826806 0 0.9238808 0.3007137 0 0.9537144 0.3006999 0 0.9537189 0.2164395 0 0.9762961 0.1305165 0 0.9914462 0.1305317 0 0.9914442 0.0436173 0 0.9990483 -0.04361689 0 0.9990484 -0.1305316 0 0.9914442 -0.1305167 0 0.9914462 -0.2164395 0 0.9762961 -0.3006999 0 0.9537189 -0.3007137 0 0.9537144 -0.3826838 0 0.9238794 -0.3826904 0 0.9238767 -0.4617462 0 0.8870122 -0.4617406 0 0.8870151 -0.5373059 0 0.8433875 -0.5372955 0 0.8433942 -0.608764 0 0.7933514 -0.6087643 0 0.7933512 -0.6755858 0 0.7372815 -0.6755943 0 0.7372736 -0.7372755 0 0.6755923 -0.7372792 0 0.6755883 -0.7933552 0 0.6087592 -0.7933525 0 0.6087626 -0.8433929 0 0.5372975 -0.8433887 0 0.5373041 -0.8870114 0 0.4617477 -0.88701 0 0.4617505 -0.9238803 0 0.3826816 -0.9238795 0 0.3826839 -0.9537173 0 0.3007048 -0.9537167 0 0.3007068 -0.9762961 0 0.2164396 -0.9762961 0 0.2164395 -0.9914449 0 0.1305261 -0.9914448 0 0.130527 -0.9990482 0 0.04361999 -0.9990483 0 0.04361963 0.9990484 0 0.04361695 0.9914449 0 0.1305261 0.9914449 0 0.130526 0.9762958 0 0.216441 0.9762961 0 0.2164397 0.9537169 0 0.3007059 0.9537176 0 0.3007041 0.9238806 0 0.382681 0.9238789 0 0.3826849 0.8870103 0 0.4617498 0.8870105 0 0.4617496 0.8433909 0 0.5373007 0.7933571 0 0.6087566 0.7372725 0 0.6755955 0.7372781 0 0.6755895 0.6755881 0 0.7372794 0.6755946 0 0.7372733 0.6087546 0 0.7933586 0.608762 0 0.7933531 0.5373024 0 0.8433896 0.4617489 0 0.8870107 0.4617495 0 0.8870104 0.3826848 0 0.9238791 0.3826752 0 0.923883 0.3007073 0 0.9537165 0.3007077 0 0.9537163 0.2164455 0 0.9762948 0.2164348 0 0.9762971 0.1305315 0 0.9914442 0.1305207 0 0.9914457 0.04362487 0 0.9990481 0.04361385 0 0.9990485 -0.04361414 0 0.9990485 -0.04362523 0 0.999048 -0.1305197 0 0.9914457 -0.1305307 0 0.9914443 -0.2164363 0 0.9762968 -0.2164469 0 0.9762945 -0.3007053 0 0.9537171 -0.3007055 0 0.9537171 -0.3826765 0 0.9238824 -0.382686 0 0.9238785 -0.4617503 0 0.8870099 -0.4617509 0 0.8870096 -0.5373024 0 0.8433896 -0.6087599 0 0.7933545 -0.6087531 0 0.7933597 -0.6755941 0 0.7372738 -0.6755886 0 0.7372789 -0.7372776 0 0.67559 -0.737273 0 0.6755949 -0.7933586 0 0.6087546 -0.7933549 0 0.6087596 -0.8433909 0 0.5373007 -0.8870117 0 0.4617471 -0.8870118 0 0.4617468 -0.9238764 0 0.3826912 -0.9238783 0 0.3826868 -0.9537185 0 0.300701 -0.9537181 0 0.3007023 -0.9762952 0 0.2164432 -0.9762951 0 0.2164442 -0.9914458 0 0.130519 -0.9990482 0 0.04362058 -0.9990482 0 0.04362028 -0.9990482 0 -0.04362034 -0.9990482 0 -0.04362028 -0.9914457 0 -0.1305198 -0.9914458 0 -0.130519 -0.9762952 0 -0.2164432 -0.9762954 0 -0.216443 -0.953718 0 -0.3007026 -0.9537181 0 -0.3007023 -0.923878 0 -0.3826872 -0.9238765 0 -0.3826907 -0.8870117 0 -0.4617471 -0.8870118 0 -0.4617468 -0.8433909 0 -0.5373007 -0.7933545 0 -0.60876 -0.7933569 0 -0.6087569 -0.737275 0 -0.6755928 -0.7372806 0 -0.6755867 -0.6755911 0 -0.7372766 -0.6755886 0 -0.7372789 -0.6087599 0 -0.7933545 -0.6087601 0 -0.7933545 -0.5373024 0 -0.8433896 -0.5372945 0 -0.8433947 -0.4617547 0 -0.8870077 -0.4617465 0 -0.887012 -0.3826813 0 -0.9238805 -0.382686 0 -0.9238785 -0.3007053 0 -0.9537171 -0.3007055 0 -0.9537171 -0.2164416 0 -0.9762957 -0.2164363 0 -0.9762968 -0.1305306 0 -0.9914443 -0.1305252 0 -0.9914451 -0.04361969 0 -0.9990482 -0.04361414 0 -0.9990485 0.04361379 0 -0.9990485 0.04361939 0 -0.9990482 0.130526 0 -0.9914449 0.1305316 0 -0.9914442 0.2164348 0 -0.9762971 0.2164402 0 -0.976296 0.3007073 0 -0.9537165 0.3007077 0 -0.9537163 0.3826848 0 -0.9238791 0.38268 0 -0.9238811 0.4617446 0 -0.887013 0.4617539 0 -0.8870082 0.5372945 0 -0.8433947 0.5373024 0 -0.8433896 0.6087616 0 -0.7933533 0.608762 0 -0.7933531 0.6755881 0 -0.7372794 0.6755916 0 -0.7372761 0.7372801 0 -0.6755872 0.7372756 0 -0.6755923 0.7933548 0 -0.6087595 0.793353 0 -0.608762 0.8433909 0 -0.5373007 0.8870103 0 -0.4617498 0.8870105 0 -0.4617496 0.9238789 0 -0.3826849 0.9238806 0 -0.382681 0.9537169 0 -0.3007059 0.953717 0 -0.3007056 0.976296 0 -0.2164399 0.9762961 0 -0.2164397 0.9914449 0 -0.1305261 0.9914448 0 -0.1305267 0.9990484 0 -0.04361671 0.9990484 0 0.04361671</float_array>
          <technique_common>
            <accessor source="#trapezoid_default_as_machined__8-mesh-normals-array" count="341" stride="3">
              <param name="X" type="float"/>
              <param name="Y" type="float"/>
              <param name="Z" type="float"/>
            </accessor>
          </technique_common>
        </source>
        <vertices id="trapezoid_default_as_machined__8-mesh-vertices">
          <input semantic="POSITION" source="#trapezoid_default_as_machined__8-mesh-positions"/>
        </vertices>
        <triangles count="576">
          <input semantic="VERTEX" source="#trapezoid_default_as_machined__8-mesh-vertices" offset="0"/>
          <input semantic="NORMAL" source="#trapezoid_default_as_machined__8-mesh-normals" offset="1"/>
          <p>0 0 1 0 2 0 1 1 3 1 2 1 2 2 3 2 4 2 3 0 5 0 4 0 4 0 5 0 6 0 5 3 7 3 6 3 6 4 7 4 8 4 7 0 9 0 8 0 8 0 9 0 10 0 9 0 11 0 10 0 10 0 11 0 12 0 11 0 13 0 12 0 12 0 13 0 14 0 13 0 15 0 14 0 14 0 15 0 16 0 15 0 17 0 16 0 16 0 17 0 18 0 17 5 19 5 18 5 18 0 19 0 20 0 19 6 21 6 20 6 20 0 21 0 22 0 21 7 23 7 22 7 22 0 23 0 24 0 23 8 25 8 24 8 24 0 25 0 26 0 25 0 27 0 26 0 26 0 27 0 28 0 27 9 29 9 28 9 28 0 29 0 30 0 29 0 31 0 30 0 30 0 31 0 32 0 31 6 33 6 32 6 32 10 33 10 34 10 33 11 35 11 34 11 34 12 35 12 36 12 35 0 37 0 36 0 36 13 37 13 38 13 37 0 39 0 38 0 38 0 39 0 40 0 39 0 41 0 40 0 40 14 41 14 42 14 41 0 43 0 42 0 42 15 43 15 44 15 43 0 45 0 44 0 44 16 45 16 46 16 45 0 47 0 46 0 46 0 47 0 48 0 47 17 49 17 48 17 48 0 49 0 50 0 49 18 51 18 50 18 50 19 51 19 52 19 51 0 53 0 52 0 52 0 53 0 54 0 53 0 55 0 54 0 54 0 55 0 56 0 55 0 57 0 56 0 56 0 57 0 58 0 57 0 59 0 58 0 58 0 59 0 60 0 59 0 61 0 60 0 60 0 61 0 62 0 61 0 63 0 62 0 62 0 63 0 64 0 63 0 65 0 64 0 64 0 65 0 66 0 65 0 67 0 66 0 66 0 67 0 68 0 67 0 69 0 68 0 68 0 69 0 70 0 69 0 71 0 70 0 70 0 71 0 72 0 71 0 73 0 72 0 72 0 73 0 74 0 73 20 75 20 74 20 74 21 75 21 76 21 75 0 77 0 76 0 76 0 77 0 78 0 77 22 79 22 78 22 78 23 79 23 80 23 79 0 81 0 80 0 80 0 81 0 82 0 81 0 83 0 82 0 82 0 83 0 84 0 83 20 85 20 84 20 84 19 85 19 86 19 85 0 87 0 86 0 86 0 87 0 88 0 87 0 89 0 88 0 88 0 89 0 90 0 89 24 91 24 90 24 90 4 91 4 92 4 91 25 93 25 92 25 92 0 93 0 94 0 93 0 95 0 94 0 94 0 95 0 96 0 95 26 97 26 96 26 96 0 97 0 98 0 97 0 99 0 98 0 98 0 99 0 100 0 99 27 101 27 100 27 100 0 101 0 102 0 101 28 103 28 102 28 102 29 103 29 104 29 103 30 105 30 104 30 104 31 105 31 106 31 105 0 107 0 106 0 106 32 107 32 108 32 107 0 109 0 108 0 108 0 109 0 110 0 109 0 111 0 110 0 110 33 111 33 112 33 111 0 113 0 112 0 112 15 113 15 114 15 113 0 115 0 114 0 114 33 115 33 116 33 115 0 117 0 116 0 116 19 117 19 118 19 117 0 119 0 118 0 118 0 119 0 120 0 119 20 121 20 120 20 120 0 121 0 122 0 121 1 123 1 122 1 122 16 123 16 124 16 123 0 125 0 124 0 124 0 125 0 126 0 125 0 127 0 126 0 126 0 127 0 128 0 127 0 129 0 128 0 128 0 129 0 130 0 129 0 131 0 130 0 130 0 131 0 132 0 131 34 133 34 132 34 132 0 133 0 134 0 133 35 135 35 134 35 134 0 135 0 136 0 135 1 137 1 136 1 136 36 137 36 138 36 137 0 139 0 138 0 138 0 139 0 140 0 139 0 141 0 140 0 140 0 141 0 142 0 141 0 143 0 142 0 142 0 143 0 0 0 143 0 1 0 0 0 144 37 145 37 146 37 145 38 147 38 146 38 146 37 147 37 148 37 147 37 149 37 148 37 148 37 149 37 150 37 149 37 151 37 150 37 150 37 151 37 152 37 151 37 153 37 152 37 152 37 153 37 154 37 153 37 155 37 154 37 154 39 155 39 156 39 155 37 157 37 156 37 156 37 157 37 158 37 157 37 159 37 158 37 158 37 159 37 160 37 159 37 161 37 160 37 160 37 161 37 162 37 161 40 163 40 162 40 162 41 163 41 164 41 163 40 165 40 164 40 164 37 165 37 166 37 165 37 167 37 166 37 166 37 167 37 168 37 167 42 169 42 168 42 168 37 169 37 170 37 169 37 171 37 170 37 170 37 171 37 172 37 171 37 173 37 172 37 172 37 173 37 174 37 173 37 175 37 174 37 174 43 175 43 176 43 175 37 177 37 176 37 176 37 177 37 178 37 177 38 179 38 178 38 178 37 179 37 180 37 179 37 181 37 180 37 180 37 181 37 182 37 181 44 183 44 182 44 182 37 183 37 184 37 183 37 185 37 184 37 184 45 185 45 186 45 185 37 187 37 186 37 186 37 187 37 188 37 187 46 189 46 188 46 188 45 189 45 190 45 189 37 191 37 190 37 190 37 191 37 192 37 191 47 193 47 192 47 192 48 193 48 194 48 193 47 195 47 194 47 194 37 195 37 196 37 195 49 197 49 196 49 196 37 197 37 198 37 197 37 199 37 198 37 198 50 199 50 200 50 199 37 201 37 200 37 200 37 201 37 202 37 201 37 203 37 202 37 202 51 203 51 204 51 203 52 205 52 204 52 204 53 205 53 206 53 205 37 207 37 206 37 206 37 207 37 208 37 207 37 209 37 208 37 208 37 209 37 210 37 209 37 211 37 210 37 210 37 211 37 212 37 211 37 213 37 212 37 212 37 213 37 214 37 213 37 215 37 214 37 214 54 215 54 216 54 215 37 217 37 216 37 216 37 217 37 218 37 217 37 219 37 218 37 218 55 219 55 220 55 219 56 221 56 220 56 220 37 221 37 222 37 221 37 223 37 222 37 222 37 223 37 224 37 223 37 225 37 224 37 224 37 225 37 226 37 225 37 227 37 226 37 226 37 227 37 228 37 227 37 229 37 228 37 228 37 229 37 230 37 229 37 231 37 230 37 230 37 231 37 232 37 231 57 233 57 232 57 232 37 233 37 234 37 233 58 235 58 234 58 234 59 235 59 236 59 235 37 237 37 236 37 236 60 237 60 238 60 237 37 239 37 238 37 238 37 239 37 240 37 239 40 241 40 240 40 240 37 241 37 242 37 241 37 243 37 242 37 242 61 243 61 244 61 243 62 245 62 244 62 244 63 245 63 246 63 245 37 247 37 246 37 246 37 247 37 248 37 247 37 249 37 248 37 248 37 249 37 250 37 249 37 251 37 250 37 250 37 251 37 252 37 251 37 253 37 252 37 252 37 253 37 254 37 253 37 255 37 254 37 254 37 255 37 256 37 255 37 257 37 256 37 256 64 257 64 258 64 257 37 259 37 258 37 258 37 259 37 260 37 259 38 261 38 260 38 260 37 261 37 262 37 261 37 263 37 262 37 262 45 263 45 264 45 263 65 265 65 264 65 264 45 265 45 266 45 265 66 267 66 266 66 266 37 267 37 268 37 267 47 269 47 268 47 268 67 269 67 270 67 269 37 271 37 270 37 270 37 271 37 272 37 271 37 273 37 272 37 272 37 273 37 274 37 273 47 275 47 274 47 274 68 275 68 276 68 275 37 277 37 276 37 276 69 277 69 278 69 277 37 279 37 278 37 278 37 279 37 280 37 279 37 281 37 280 37 280 37 281 37 282 37 281 37 283 37 282 37 282 70 283 70 284 70 283 37 285 37 284 37 284 37 285 37 286 37 285 38 287 38 286 38 286 70 287 70 144 70 287 37 145 37 144 37 164 71 134 71 162 71 134 72 136 72 162 72 162 73 136 73 160 73 136 74 138 74 160 74 160 75 138 75 158 75 138 76 140 76 158 76 158 77 140 77 156 77 140 78 142 78 156 78 156 79 142 79 154 79 142 80 0 80 154 80 154 81 0 81 152 81 0 82 2 82 152 82 152 83 2 83 150 83 2 84 4 84 150 84 150 85 4 85 148 85 4 86 6 86 148 86 148 87 6 87 146 87 6 88 8 88 146 88 146 89 8 89 144 89 8 90 10 90 144 90 144 91 10 91 286 91 10 92 12 92 286 92 286 93 12 93 284 93 12 94 14 94 284 94 284 95 14 95 282 95 14 96 16 96 282 96 282 97 16 97 280 97 16 98 18 98 280 98 280 99 18 99 278 99 18 100 20 100 278 100 278 101 20 101 276 101 20 101 22 101 276 101 276 102 22 102 274 102 22 103 24 103 274 103 274 104 24 104 272 104 24 104 26 104 272 104 272 105 26 105 270 105 26 105 28 105 270 105 270 106 28 106 268 106 28 107 30 107 268 107 268 108 30 108 266 108 30 108 32 108 266 108 266 109 32 109 264 109 32 110 34 110 264 110 264 111 34 111 262 111 34 112 36 112 262 112 262 113 36 113 260 113 36 114 38 114 260 114 260 115 38 115 258 115 38 116 40 116 258 116 258 117 40 117 256 117 40 118 42 118 256 118 256 119 42 119 254 119 42 120 44 120 254 120 254 121 44 121 252 121 44 122 46 122 252 122 252 123 46 123 250 123 46 123 48 123 250 123 250 124 48 124 248 124 48 125 50 125 248 125 248 126 50 126 246 126 50 127 52 127 246 127 246 128 52 128 244 128 52 129 54 129 244 129 244 130 54 130 242 130 54 131 56 131 242 131 242 132 56 132 240 132 56 133 58 133 240 133 240 134 58 134 238 134 58 135 60 135 238 135 238 136 60 136 236 136 60 137 62 137 236 137 236 138 62 138 234 138 62 139 64 139 234 139 234 140 64 140 232 140 64 141 66 141 232 141 232 142 66 142 230 142 66 143 68 143 230 143 230 144 68 144 228 144 68 145 70 145 228 145 228 146 70 146 226 146 70 147 72 147 226 147 226 148 72 148 224 148 72 149 74 149 224 149 224 150 74 150 222 150 74 151 76 151 222 151 222 152 76 152 220 152 76 153 78 153 220 153 220 154 78 154 218 154 78 155 80 155 218 155 218 156 80 156 216 156 80 157 82 157 216 157 216 158 82 158 214 158 82 159 84 159 214 159 214 160 84 160 212 160 84 161 86 161 212 161 212 162 86 162 210 162 86 163 88 163 210 163 210 164 88 164 208 164 88 165 90 165 208 165 208 166 90 166 206 166 90 167 92 167 206 167 206 168 92 168 204 168 92 168 94 168 204 168 204 169 94 169 202 169 94 170 96 170 202 170 202 171 96 171 200 171 96 171 98 171 200 171 200 172 98 172 198 172 98 172 100 172 198 172 198 173 100 173 196 173 100 174 102 174 196 174 196 175 102 175 194 175 102 175 104 175 194 175 194 176 104 176 192 176 104 177 106 177 192 177 192 178 106 178 190 178 106 179 108 179 190 179 190 180 108 180 188 180 108 181 110 181 188 181 188 182 110 182 186 182 110 183 112 183 186 183 186 184 112 184 184 184 112 185 114 185 184 185 184 186 114 186 182 186 114 187 116 187 182 187 182 188 116 188 180 188 116 189 118 189 180 189 180 190 118 190 178 190 118 191 120 191 178 191 178 192 120 192 176 192 120 193 122 193 176 193 176 194 122 194 174 194 122 195 124 195 174 195 174 196 124 196 172 196 124 197 126 197 172 197 172 198 126 198 170 198 126 199 128 199 170 199 170 200 128 200 168 200 128 201 130 201 168 201 168 202 130 202 166 202 130 203 132 203 166 203 166 204 132 204 164 204 132 205 134 205 164 205 135 206 163 206 137 206 163 207 161 207 137 207 137 208 161 208 139 208 161 209 159 209 139 209 139 210 159 210 141 210 159 211 157 211 141 211 141 212 157 212 143 212 157 213 155 213 143 213 143 214 155 214 1 214 155 215 153 215 1 215 1 216 153 216 3 216 153 217 151 217 3 217 3 217 151 217 5 217 151 153 149 153 5 153 5 218 149 218 7 218 149 219 147 219 7 219 7 220 147 220 9 220 147 221 145 221 9 221 9 222 145 222 11 222 145 223 287 223 11 223 11 224 287 224 13 224 287 225 285 225 13 225 13 225 285 225 15 225 285 226 283 226 15 226 15 227 283 227 17 227 283 228 281 228 17 228 17 229 281 229 19 229 281 230 279 230 19 230 19 231 279 231 21 231 279 232 277 232 21 232 21 233 277 233 23 233 277 234 275 234 23 234 23 235 275 235 25 235 275 236 273 236 25 236 25 237 273 237 27 237 273 238 271 238 27 238 27 239 271 239 29 239 271 240 269 240 29 240 29 241 269 241 31 241 269 242 267 242 31 242 31 243 267 243 33 243 267 244 265 244 33 244 33 245 265 245 35 245 265 246 263 246 35 246 35 247 263 247 37 247 263 248 261 248 37 248 37 249 261 249 39 249 261 250 259 250 39 250 39 250 259 250 41 250 259 251 257 251 41 251 41 252 257 252 43 252 257 253 255 253 43 253 43 254 255 254 45 254 255 255 253 255 45 255 45 256 253 256 47 256 253 257 251 257 47 257 47 258 251 258 49 258 251 259 249 259 49 259 49 259 249 259 51 259 249 260 247 260 51 260 51 261 247 261 53 261 247 262 245 262 53 262 53 263 245 263 55 263 245 264 243 264 55 264 55 265 243 265 57 265 243 266 241 266 57 266 57 267 241 267 59 267 241 268 239 268 59 268 59 268 239 268 61 268 239 269 237 269 61 269 61 270 237 270 63 270 237 271 235 271 63 271 63 272 235 272 65 272 235 273 233 273 65 273 65 274 233 274 67 274 233 275 231 275 67 275 67 276 231 276 69 276 231 277 229 277 69 277 69 278 229 278 71 278 229 279 227 279 71 279 71 280 227 280 73 280 227 281 225 281 73 281 73 282 225 282 75 282 225 283 223 283 75 283 75 283 223 283 77 283 223 284 221 284 77 284 77 285 221 285 79 285 221 286 219 286 79 286 79 287 219 287 81 287 219 288 217 288 81 288 81 289 217 289 83 289 217 290 215 290 83 290 83 291 215 291 85 291 215 292 213 292 85 292 85 293 213 293 87 293 213 294 211 294 87 294 87 295 211 295 89 295 211 296 209 296 89 296 89 297 209 297 91 297 209 298 207 298 91 298 91 299 207 299 93 299 207 300 205 300 93 300 93 301 205 301 95 301 205 302 203 302 95 302 95 303 203 303 97 303 203 304 201 304 97 304 97 305 201 305 99 305 201 306 199 306 99 306 99 307 199 307 101 307 199 308 197 308 101 308 101 309 197 309 103 309 197 310 195 310 103 310 103 311 195 311 105 311 195 312 193 312 105 312 105 313 193 313 107 313 193 314 191 314 107 314 107 315 191 315 109 315 191 316 189 316 109 316 109 317 189 317 111 317 189 318 187 318 111 318 111 319 187 319 113 319 187 320 185 320 113 320 113 321 185 321 115 321 185 322 183 322 115 322 115 323 183 323 117 323 183 324 181 324 117 324 117 325 181 325 119 325 181 326 179 326 119 326 119 327 179 327 121 327 179 328 177 328 121 328 121 328 177 328 123 328 177 329 175 329 123 329 123 330 175 330 125 330 175 331 173 331 125 331 125 332 173 332 127 332 173 333 171 333 127 333 127 334 171 334 129 334 171 335 169 335 129 335 129 336 169 336 131 336 169 337 167 337 131 337 131 338 167 338 133 338 167 339 165 339 133 339 133 339 165 339 135 339 165 340 163 340 135 340</p>
        </triangles>
      </mesh>
    </geometry>
  </library_geometries>
  <library_visual_scenes>
    <visual_scene id="Scene" name="Scene">
      <node id="trapezoid_default_as_machined__8" name="trapezoid_default_as_machined__8" type="NODE">
        <matrix sid="transform">1 0 0 0 0 1 0 0 0 0 1 0 0 0 0 1</matrix>
        <instance_geometry url="#trapezoid_default_as_machined__8-mesh" name="trapezoid_default_as_machined__8"/>
      </node>
    </visual_scene>
  </library_visual_scenes>
  <scene>
    <instance_visual_scene url="#Scene"/>
  </scene>
</COLLADA>