<?xml version="1.0" encoding="utf-8"?>
<COLLADA xmlns="http://www.collada.org/2005/11/COLLADASchema" version="1.4.1" xmlns:xsi="http://www.w3.org/2001/XMLSchema-instance">
  <asset>
    <contributor>
      <author>Blender User</author>
      <authoring_tool>Blender 3.0.1</authoring_tool>
    </contributor>
    <created>2026-06-04T16:19:08</created>
    <modified>2026-06-04T16:19:08</modified>
    <unit name="meter" meter="1"/>
    <up_axis>Z_UP</up_axis>
  </asset>
  <library_images/>
  <library_geometries>
    <geometry id="trapezoid__13-mesh" name="trapezoid__13">
      <mesh>
        <source id="trapezoid__13-mesh-positions">
          <float_array id="trapezoid__13-mesh-positions-array" count="1428">0.2401193 0.01499998 0.1500525 0.0959407 0.01499998 0.009799957 0.2386934 0.01499998 0.1524974 0.2386743 0.01499998 0.1525336 0.2417496 0.01499998 0.1477389 0.2435721 0.01499998 0.1455734 0.1040593 0.01499998 -0.009799957 0.2455734 0.01499998 0.1435721 0.2477388 0.01499998 0.1417496 0.2500525 0.01499998 0.1401194 0.2524974 0.01499998 0.1386934 0.2525336 0.01499998 0.1386743 0.2368334 0.01278257 0.1567167 0.09417629 0.01278257 0.01405954 0.2367864 0.0125938 0.1568481 0.09412407 0.01259392 0.0141856 0.2367431 0.01239997 0.156971 0.09407532 0.01239997 0.01430332 0.2367033 0.01220136 0.1570854 0.09403014 0.01220107 0.0144124 0.2366669 0.01199758 0.157191 0.09398859 0.01199758 0.01451277 0.2366341 0.01179063 0.1572871 0.09395074 0.01178991 0.01460415 0.2366046 0.0115785 0.1573744 0.09391665 0.0115785 0.0146864 0.2365788 0.01136374 0.1574516 0.09388649 0.01136362 0.0147593 0.2365564 0.01114583 0.1575191 0.09386014 0.01114583 0.01482278 0.2365375 0.01092535 0.1575764 0.09383785 0.01092547 0.01487672 0.236522 0.01070296 0.1576235 0.09381949 0.01070296 0.01492094 0.23651 0.01047903 0.1576603 0.09380519 0.01047873 0.01495546 0.2365015 0.01025319 0.1576867 0.093795 0.01025319 0.01498019 0.2364963 0.01002752 0.1577025 0.0937888 0.01002681 0.01499503 0.2364946 0.009799957 0.1577078 0.09378677 0.009799957 0.01499998 0.09441763 0.0134769 0.0134769 0.09435266 0.01331305 0.01363384 0.2369378 0.01314246 0.1564306 0.09429067 0.01314246 0.01378339 0.0942319 0.01296555 0.01392543 0.2370563 0.0134769 0.1561155 0.2371885 0.01378339 0.1557748 0.09455615 0.01378339 0.01314246 0.2373343 0.01405954 0.1554116 0.09470528 0.01405954 0.01278257 0.2374819 0.01428776 0.1550559 0.09486371 0.01430332 0.01239997 0.2374932 0.01430332 0.1550294 0.2376645 0.01451277 0.1546317 0.09503042 0.01451277 0.01199758 0.2378475 0.0146864 0.154222 0.09520399 0.0146864 0.0115785 0.2380412 0.01482278 0.1538038 0.09538322 0.01482278 0.01114583 0.2382445 0.01492094 0.1533808 0.09556668 0.01492094 0.01070296 0.2384561 0.01498019 0.1529563 0.09575295 0.01498019 0.01025319 0.2401193 -0.01239997 0.1500525 0.0959407 -0.01239997 0.009799957 0.2386934 -0.01239997 0.1524974 0.2386743 -0.01239997 0.1525336 0.2477388 -0.01239997 0.1417496 0.2500525 -0.01239997 0.1401194 0.1040593 -0.01239997 -0.009799957 0.2524974 -0.01239997 0.1386934 0.2525336 -0.01239997 0.1386743 0.2417496 -0.01239997 0.1477389 0.2435721 -0.01239997 0.1455734 0.2455734 -0.01239997 0.1435721 0.2542803 -0.01163846 0.137821 0.1047515 -0.0117917 -0.01147121 0.2541179 -0.0117917 0.1378951 0.104677 -0.01192975 -0.01129126 0.2539439 -0.01192975 0.1379756 0.1045978 -0.01205164 -0.01109999 0.2537598 -0.01205164 0.138062 0.1045144 -0.01215636 -0.01089876 0.2535673 -0.01215636 0.138154 0.1044276 -0.01224315 -0.01068919 0.2533678 -0.01224315 0.1382509 0.104338 -0.01231139 -0.01047289 0.253163 -0.01231139 0.1383521 0.1042463 -0.01236045 -0.01025146 0.2529547 -0.01236045 0.1384569 0.1041531 -0.01239007 -0.01002657 0.2527443 -0.01239007 0.1385645 0.2544298 -0.01147121 0.1377538 0.1048533 -0.0115565 -0.0117169 0.1048208 -0.01163846 -0.01163846 0.2550294 -0.009799957 0.1374931 0.1051362 -0.009799957 -0.01239997 0.2550269 -0.009913742 0.1374942 0.1051352 -0.009913384 -0.01239752 0.2550196 -0.01002657 0.1374973 0.1051321 -0.01002657 -0.01239007 0.2550073 -0.01013946 0.1375025 0.105127 -0.01013934 -0.01237773 0.2549902 -0.01025146 0.1375098 0.1051198 -0.01025146 -0.01236045 0.2549682 -0.01036262 0.1375191 0.1051107 -0.01036274 -0.01233834 0.2549415 -0.01047289 0.1375305 0.1050995 -0.01047289 -0.01231139 0.2549101 -0.01058173 0.1375439 0.1050864 -0.01058179 -0.01227962 0.2548739 -0.01068919 0.1375594 0.1050713 -0.01068919 -0.01224315 0.2548331 -0.01079529 0.1375769 0.1050543 -0.01079493 -0.01220208 0.2547881 -0.01089876 0.1375964 0.1050353 -0.01089876 -0.01215636 0.2547386 -0.01100063 0.1376178 0.1050145 -0.01100051 -0.01210618 0.2546849 -0.01109999 0.1376412 0.1049919 -0.01109999 -0.01205164 0.254627 -0.01119685 0.1376665 0.1049675 -0.01119697 -0.01199281 0.2545651 -0.01129126 0.1376938 0.1049414 -0.01129126 -0.01192975 0.2544991 -0.01138305 0.137723 0.1049137 -0.01138275 -0.01186269 0.1048843 -0.01147121 -0.0117917 0.1051362 0.009799957 -0.01239997 0.2550294 0.009799957 0.1374931 0.2364946 -0.009799957 0.1577078 0.09378677 -0.009799957 0.01499998 0.2541179 0.0117917 0.1378951 0.2542803 0.01163846 0.137821 0.255056 0.01428776 0.1374819 0.2544298 0.01147121 0.1377538 0.2550073 0.01013928 0.1375025 0.2550196 0.01002657 0.1374973 0.2549902 0.01025146 0.1375098 0.2549099 0.01058197 0.1375439 0.2549415 0.01047289 0.1375305 0.2549681 0.0103631 0.1375191 0.2547881 0.01089876 0.1375964 0.2548333 0.01079493 0.1375769 0.2548739 0.01068919 0.1375594 0.2546268 0.01119732 0.1376667 0.2546849 0.01109999 0.1376412 0.2547387 0.01100039 0.1376178 0.2544992 0.01138293 0.1377229 0.2545651 0.01129126 0.1376938 0.2550269 0.009913504 0.1374942 0.255056 -0.01428776 0.1374819 0.2378951 -0.0117917 0.1541178 0.237821 -0.01163846 0.1542803 0.2374819 -0.01428776 0.1550559 0.2377538 -0.01147121 0.1544298 0.2375025 -0.01013928 0.1550073 0.2374973 -0.01002657 0.1550196 0.2375098 -0.01025146 0.1549901 0.237544 -0.01058197 0.1549099 0.2375305 -0.01047289 0.1549414 0.2375192 -0.0103631 0.1549681 0.2375963 -0.01089876 0.1547881 0.2375769 -0.01079493 0.1548333 0.2375594 -0.01068919 0.1548739 0.2376667 -0.01119732 0.1546267 0.2376412 -0.01109999 0.1546849 0.2376178 -0.01100039 0.1547387 0.2377229 -0.01138293 0.1544992 0.2376938 -0.01129126 0.154565 0.2374942 -0.009913504 0.1550269 0.2374932 -0.009799957 0.1550294 0.2374932 0.009799957 0.1550294 0.2374942 0.009913742 0.1550269 0.2374973 0.01002657 0.1550196 0.2375025 0.01013946 0.1550073 0.2375098 0.01025146 0.1549901 0.2375191 0.01036262 0.1549682 0.2375305 0.01047289 0.1549414 0.2375439 0.01058173 0.15491 0.2375594 0.01068919 0.1548739 0.2375769 0.01079529 0.1548331 0.2375963 0.01089876 0.1547881 0.2376179 0.01100063 0.1547386 0.2376412 0.01109999 0.1546849 0.2376665 0.01119685 0.154627 0.2376938 0.01129126 0.154565 0.237723 0.01138305 0.1544991 0.2377538 0.01147121 0.1544298 0.237821 0.01163846 0.1542803 0.2378951 0.0117917 0.1541178 0.2379755 0.01192975 0.1539438 0.238062 0.01205164 0.1537598 0.238154 0.01215636 0.1535673 0.2382509 0.01224315 0.1533678 0.2383521 0.01231139 0.153163 0.2384569 0.01236045 0.1529546 0.2385646 0.01239007 0.1527443 0.2386743 0.01239997 0.1525336 0.2386934 0.01239997 0.1524974 0.2401193 0.01239997 0.1500525 0.2417496 0.01239997 0.1477389 0.2435721 0.01239997 0.1455734 0.2455734 0.01239997 0.1435721 0.2477388 0.01239997 0.1417496 0.2500525 0.01239997 0.1401194 0.2524974 0.01239997 0.1386934 0.2525336 0.01239997 0.1386743 0.2529563 0.01498019 0.1384561 0.2527443 0.01239007 0.1385645 0.2533808 0.01492094 0.1382445 0.2529547 0.01236045 0.1384569 0.2538039 0.01482278 0.1380412 0.253163 0.01231139 0.1383521 0.254222 0.0146864 0.1378475 0.2533678 0.01224315 0.1382509 0.2546317 0.01451277 0.1376644 0.2535673 0.01215636 0.138154 0.2550294 0.01430332 0.1374931 0.2537598 0.01205164 0.138062 0.2539439 0.01192975 0.1379756 0.2550294 -0.01430332 0.1374931 0.2546317 -0.01451277 0.1376644 0.254222 -0.0146864 0.1378475 0.2538039 -0.01482278 0.1380412 0.2533808 -0.01492094 0.1382445 0.2529563 -0.01498019 0.1384561 0.2525336 -0.01499998 0.1386743 0.2524974 -0.01499998 0.1386934 0.2500525 -0.01499998 0.1401194 0.2477388 -0.01499998 0.1417496 0.2455734 -0.01499998 0.1435721 0.2435721 -0.01499998 0.1455734 0.2417496 -0.01499998 0.1477389 0.2401193 -0.01499998 0.1500525 0.2386934 -0.01499998 0.1524974 0.2386743 -0.01499998 0.1525336 0.2384561 -0.01498019 0.1529563 0.2385646 -0.01239007 0.1527443 0.2382445 -0.01492094 0.1533808 0.2384569 -0.01236045 0.1529546 0.2380412 -0.01482278 0.1538038 0.2383521 -0.01231139 0.153163 0.2378475 -0.0146864 0.154222 0.2382509 -0.01224315 0.1533678 0.2376645 -0.01451277 0.1546317 0.238154 -0.01215636 0.1535673 0.2374932 -0.01430332 0.1550294 0.238062 -0.01205164 0.1537598 0.2379755 -0.01192975 0.1539438 0.2568481 -0.0125938 0.1367865 0.2569711 -0.01239997 0.1367431 0.2563713 -0.01204389 0.1369598 0.2570854 -0.01220136 0.1367033 0.2571911 -0.01199758 0.1366668 0.2572872 -0.01179063 0.1366341 0.2573744 -0.0115785 0.1366047 0.2574516 -0.01136374 0.1365788 0.2575191 -0.01114583 0.1365564 0.2575764 -0.01092535 0.1365375 0.2576236 -0.01070296 0.136522 0.2576603 -0.01047903 0.13651 0.2576867 -0.01025319 0.1365014 0.2577025 -0.01002752 0.1364963 0.2557748 -0.01378339 0.1371885 0.2561156 -0.0134769 0.1370562 0.2564306 -0.01314246 0.1369378 0.2567167 -0.01278257 0.1368334 0.2563713 0.01204389 0.1369598 0.2554116 -0.01405954 0.1373343 0.2570856 0.01220095 0.1367032 0.2569711 0.01239997 0.1367431 0.2568475 0.01259475 0.1367866 0.2567167 0.01278257 0.1368334 0.2557748 0.01378339 0.1371885 0.2554116 0.01405954 0.1373343 0.2564306 0.01314246 0.1369378 0.2561156 0.0134769 0.1370562 0.2573744 0.0115785 0.1366047 0.2572875 0.01178991 0.136634 0.2571911 0.01199758 0.1366668 0.2575762 0.0109263 0.1365376 0.2575191 0.01114583 0.1365564 0.2574515 0.01136404 0.1365789 0.2576867 0.01025319 0.1365014 0.2576603 0.01047879 0.13651 0.2576236 0.01070296 0.136522 0.2577078 -0.009799957 0.1364946 0.2577078 0.009799957 0.1364946 0.2577025 0.01002705 0.1364963 0.2369598 0.01204389 0.1563713 0.2369598 -0.01204389 0.1563713 0.2367032 -0.01220095 0.1570855 0.2367431 -0.01239997 0.156971 0.2367867 -0.01259475 0.1568474 0.2368334 -0.01278257 0.1567167 0.2371885 -0.01378339 0.1557748 0.2373343 -0.01405954 0.1554116 0.2369378 -0.01314246 0.1564306 0.2370563 -0.0134769 0.1561155 0.2366046 -0.0115785 0.1573744 0.236634 -0.01178991 0.1572874 0.2366669 -0.01199758 0.157191 0.2365376 -0.0109263 0.1575762 0.2365564 -0.01114583 0.1575191 0.2365788 -0.01136404 0.1574515 0.2365015 -0.01025319 0.1576867 0.23651 -0.01047879 0.1576603 0.236522 -0.01070296 0.1576235 0.2364963 -0.01002705 0.1577025 0.09532296 0.01192975 0.01129126 0.09490042 0.01047289 0.01231139 0.09488928 0.01036274 0.01233834 0.0948801 0.01025146 0.01236045 0.09487295 0.01013934 0.01237773 0.09486782 0.01002657 0.01239007 0.09486478 0.009913384 0.01239752 0.09486371 0.009799957 0.01239997 0.09486371 -0.009799957 0.01239997 0.0937888 -0.01002681 0.01499503 0.09486478 -0.009913384 0.01239752 0.093795 -0.01025319 0.01498019 0.09486782 -0.01002657 0.01239007 0.09380519 -0.01047873 0.01495546 0.09487295 -0.01013934 0.01237773 0.09381949 -0.01070296 0.01492094 0.0948801 -0.01025146 0.01236045 0.09383785 -0.01092547 0.01487672 0.09488928 -0.01036274 0.01233834 0.09386014 -0.01114583 0.01482278 0.09490042 -0.01047289 0.01231139 0.09388649 -0.01136362 0.0147593 0.0949136 -0.01058179 0.01227962 0.09391665 -0.0115785 0.0146864 0.1050864 0.01058179 -0.01227962 0.1061135 0.01136362 -0.0147593 0.1050995 0.01047289 -0.01231139 0.1061398 0.01114583 -0.01482278 0.1051107 0.01036274 -0.01233834 0.1061621 0.01092547 -0.01487672 0.1051198 0.01025146 -0.01236045 0.1061804 0.01070296 -0.01492094 0.105127 0.01013934 -0.01237773 0.1061947 0.01047873 -0.01495546 0.1051321 0.01002657 -0.01239007 0.106205 0.01025319 -0.01498019 0.1051352 0.009913384 -0.01239752 0.1062111 0.01002681 -0.01499503 0.1062132 0.009799957 -0.01499998 0.1062132 -0.009799957 -0.01499998 0.1062111 -0.01002681 -0.01499503 0.106205 -0.01025319 -0.01498019 0.1061947 -0.01047873 -0.01495546 0.1061804 -0.01070296 -0.01492094 0.1061621 -0.01092547 -0.01487672 0.09395074 -0.01178991 0.01460415 0.09492868 -0.01068919 0.01224315 0.09398859 -0.01199758 0.01451277 0.09494572 -0.01079493 0.01220208 0.09403014 -0.01220107 0.0144124 0.09496462 -0.01089876 0.01215636 0.09407532 -0.01239997 0.01430332 0.09498542 -0.01100051 0.01210618 0.09412407 -0.01259392 0.0141856 0.09500801 -0.01109999 0.01205164 0.09417629 -0.01278257 0.01405954 0.09503239 -0.01119697 0.01199281 0.0942319 -0.01296555 0.01392543 0.0950585 -0.01129126 0.01192975 0.09429067 -0.01314246 0.01378339 0.09508627 -0.01138275 0.01186269 0.09435266 -0.01331305 0.01363384 0.09511572 -0.01147121 0.0117917 0.09441763 -0.0134769 0.0134769 0.09514665 -0.0115565 0.0117169 0.09455615 -0.01378339 0.01314246 0.09517914 -0.01163846 0.01163846 0.09524846 -0.0117917 0.01147121 0.09470528 -0.01405954 0.01278257 0.09532296 -0.01192975 0.01129126 0.09486371 -0.01430332 0.01239997 0.09540218 -0.01205164 0.01109999 0.09503042 -0.01451277 0.01199758 0.09548556 -0.01215636 0.01089876 0.09520399 -0.0146864 0.0115785 0.09557235 -0.01224315 0.01068919 0.09538322 -0.01482278 0.01114583 0.09566193 -0.01231139 0.01047289 0.09556668 -0.01492094 0.01070296 0.09575366 -0.01236045 0.01025146 0.09575295 -0.01498019 0.01025319 0.09584683 -0.01239007 0.01002657 0.0959407 -0.01499998 0.009799957 0.1040593 -0.01499998 -0.009799957 0.104247 -0.01498019 -0.01025319 0.1044333 -0.01492094 -0.01070296 0.1046168 -0.01482278 -0.01114583 0.1047959 -0.0146864 -0.0115785 0.1049696 -0.01451277 -0.01199758 0.1051362 -0.01430332 -0.01239997 0.1052947 -0.01405954 -0.01278257 0.1054438 -0.01378339 -0.01314246 0.09540218 0.01205164 0.01109999 0.09548556 0.01215636 0.01089876 0.09557235 0.01224315 0.01068919 0.09566193 0.01231139 0.01047289 0.09575366 0.01236045 0.01025146 0.09584683 0.01239007 0.01002657 0.0959407 0.01239997 0.009799957 0.1040593 0.01239997 -0.009799957 0.1041531 0.01239007 -0.01002657 0.104247 0.01498019 -0.01025319 0.1042463 0.01236045 -0.01025146 0.1044333 0.01492094 -0.01070296 0.104338 0.01231139 -0.01047289 0.1046168 0.01482278 -0.01114583 0.1044276 0.01224315 -0.01068919 0.1047959 0.0146864 -0.0115785 0.1045144 0.01215636 -0.01089876 0.1049696 0.01451277 -0.01199758 0.1045978 0.01205164 -0.01109999 0.1051362 0.01430332 -0.01239997 0.104677 0.01192975 -0.01129126 0.1052947 0.01405954 -0.01278257 0.1047515 0.0117917 -0.01147121 0.1054438 0.01378339 -0.01314246 0.1048208 0.01163846 -0.01163846 0.0949136 0.01058179 0.01227962 0.09492868 0.01068919 0.01224315 0.09494572 0.01079493 0.01220208 0.09496462 0.01089876 0.01215636 0.09498542 0.01100051 0.01210618 0.09500801 0.01109999 0.01205164 0.09503239 0.01119697 0.01199281 0.0950585 0.01129126 0.01192975 0.09508627 0.01138275 0.01186269 0.09511572 0.01147121 0.0117917 0.09514665 0.0115565 0.0117169 0.09517914 0.01163846 0.01163846 0.09524846 0.0117917 0.01147121 0.1048533 0.0115565 -0.0117169 0.1055823 0.0134769 -0.0134769 0.1048843 0.01147121 -0.0117917 0.1056473 0.01331305 -0.01363384 0.1049137 0.01138275 -0.01186269 0.1057093 0.01314246 -0.01378339 0.1049414 0.01129126 -0.01192975 0.1057681 0.01296555 -0.01392543 0.1049675 0.01119697 -0.01199281 0.1058236 0.01278257 -0.01405954 0.1049919 0.01109999 -0.01205164 0.1058759 0.01259392 -0.0141856 0.1050145 0.01100051 -0.01210618 0.1059246 0.01239997 -0.01430332 0.1050353 0.01089876 -0.01215636 0.1059698 0.01220107 -0.0144124 0.1050543 0.01079493 -0.01220208 0.1060114 0.01199758 -0.01451277 0.1050713 0.01068919 -0.01224315 0.1060492 0.01178991 -0.01460415 0.1060833 0.0115785 -0.0146864 0.1061398 -0.01114583 -0.01482278 0.1061135 -0.01136362 -0.0147593 0.1060833 -0.0115785 -0.0146864 0.1060492 -0.01178991 -0.01460415 0.1060114 -0.01199758 -0.01451277 0.1059698 -0.01220107 -0.0144124 0.1059246 -0.01239997 -0.01430332 0.1058759 -0.01259392 -0.0141856 0.1058236 -0.01278257 -0.01405954 0.1057681 -0.01296555 -0.01392543 0.1057093 -0.01314246 -0.01378339 0.1056473 -0.01331305 -0.01363384 0.1055823 -0.0134769 -0.0134769</float_array>
          <technique_common>
            <accessor source="#trapezoid__13-mesh-positions-array" count="476" stride="3">
              <param name="X" type="float"/>
              <param name="Y" type="float"/>
              <param name="Z" type="float"/>
            </accessor>
          </technique_common>
        </source>
        <source id="trapezoid__13-mesh-normals">
          <float_array id="trapezoid__13-mesh-normals-array" count="2592">0 1 0 0 1 1.4146e-5 0 1 -1.23316e-7 0 1 2.03978e-5 -0.5879234 0.5556145 0.5879104 -0.5879229 0.5556053 0.5879197 -0.6045204 0.5187422 0.6045342 -0.6045273 0.5187479 0.6045225 -0.6199353 0.4810032 0.6199324 -0.6199022 0.4810888 0.6198992 -0.6341701 0.4423241 0.634175 -0.6342076 0.4422171 0.634212 -0.6471824 0.4028857 0.6471771 -0.6472544 0.402659 0.6472461 -0.6590071 0.3624953 0.6590196 -0.6590114 0.3624992 0.6590132 -0.6695891 0.3213972 0.6695927 -0.6695756 0.3214858 0.6695637 -0.6788644 0.2797919 0.6788665 -0.6788601 0.2798206 0.678859 -0.6868382 0.2377073 0.6868395 -0.6868427 0.237666 0.6868494 -0.6935169 0.1951325 0.6935111 -0.6935401 0.1949516 0.6935388 -0.6988682 0.152197 0.6988701 -0.6988837 0.1520664 0.6988829 -0.7028929 0.1089528 0.7029018 -0.702902 0.1089418 0.7028944 -0.705589 0.06546926 0.7055905 -0.7055925 0.06541365 0.7055922 -0.706938 0.02189439 0.7069366 -0.7069419 0.02180457 0.7069355 -0.5107716 0.691489 0.510838 -0.5316206 0.6593646 0.5316183 -0.5609946 0.6087436 0.5609959 -0.5513804 0.6260066 0.5514485 -0.5702682 0.5912538 0.5702748 -0.5213258 0.6756023 0.5213263 -0.4777247 0.737266 0.4777217 -0.4777126 0.7372797 0.4777128 -0.430449 0.7933614 0.4304549 -0.4304724 0.7933416 0.430468 -0.3816883 0.8418006 0.381688 -0.3799338 0.8433886 0.379929 -0.3551567 0.8647598 0.3550412 -0.32651 0.8870057 0.3265151 -0.3264836 0.8870272 0.3264832 -0.2706161 0.9238687 0.270617 -0.2705807 0.9238904 0.2705789 -0.212633 0.9537168 0.2126302 -0.2126358 0.9537135 0.2126418 -0.1530413 0.9762981 0.1530376 -0.153043 0.976296 0.1530486 -0.09229612 0.9914447 0.09229803 -0.09229356 0.9914453 0.09229439 -0.03084379 0.9990484 0.03084003 -0.03084284 0.9990484 0.03084266 0 1 -2.3482e-5 0 1 6.93525e-6 0 1 -3.94516e-7 0 1 1.97306e-7 -0.4777271 0.7372603 0.4777283 -0.4304239 0.7933902 0.4304268 -0.4304569 0.7933571 0.4304548 -0.3799794 0.8433454 0.3799791 -0.3799144 0.8434044 0.3799135 -0.3265646 0.886968 0.3265632 -0.3264666 0.8870398 0.3264659 -0.2706091 0.9238718 0.2706135 -0.2706105 0.9238738 0.2706052 -0.2126023 0.9537278 0.2126114 -0.2126272 0.9537191 0.2126252 -0.1530465 0.9762967 0.1530414 -0.1530487 0.9762955 0.1530464 -0.09230422 0.9914434 0.09230345 -0.09229707 0.9914448 0.09229576 -0.03084665 0.9990481 0.03084409 -0.0308417 0.9990484 0.03084385 -0.5213123 0.6756312 0.5213023 -0.510835 0.6914542 0.5108215 -0.4776917 0.7373089 0.4776884 -0.7069392 0.02177602 0.7069391 -0.7069456 0.02168929 0.7069353 -0.7055957 0.06527054 0.7056022 -0.7055914 0.06537836 0.7055965 -0.70287 0.1092438 0.7028796 -0.7029187 0.1087649 0.7029051 -0.6988751 0.1521695 0.6988691 -0.6988688 0.1521537 0.6988789 -0.6935483 0.1949123 0.6935417 -0.6935351 0.1949383 0.6935476 -0.6868487 0.2376876 0.686836 -0.6868298 0.2377256 0.6868416 -0.6788381 0.2799559 0.6788251 -0.678777 0.2801904 0.6787896 -0.6696014 0.3213404 0.6696076 -0.6696088 0.3213576 0.669592 -0.6590074 0.3625187 0.6590064 -0.6589749 0.3626036 0.6589922 -0.6472405 0.4026834 0.6472448 -0.6472337 0.4027114 0.6472342 -0.6341686 0.4423334 0.6341699 -0.6342197 0.442197 0.6342138 -0.6199162 0.4810446 0.6199194 -0.6200134 0.4807984 0.6200132 -0.604499 0.5188125 0.6044954 -0.6044865 0.5188344 0.604489 -0.5879579 0.5555309 0.5879549 -0.5879731 0.5554907 0.5879777 -0.5702258 0.5913455 0.5702219 -0.5702427 0.5913032 0.570249 -0.5514168 0.6259998 0.5514199 -0.5515672 0.6257418 0.5515621 -0.5315284 0.6595076 0.531533 -0.7071069 0 0.7071068 -0.7071068 0 0.7071068 -0.7071067 0 0.7071068 0.4115477 -0.003887534 0.9113799 0.4078245 -0.002501487 0.9130569 0.3879438 0 0.9216831 0.3905962 -2.18748e-5 0.9205622 0.3913264 -6.30358e-5 0.920252 0.3927639 -4.39399e-5 0.9196395 0.3909515 -2.17176e-5 0.9204113 0.3955535 -2.9563e-4 0.9184429 0.394267 -1.61585e-4 0.918996 0.3943063 -1.23256e-4 0.9189791 0.4000101 -8.13274e-4 0.9165104 0.3983578 -5.12028e-4 0.9172301 0.3965972 -3.85795e-4 0.9179927 0.4046187 -0.001699149 0.914484 0.4031698 -0.001373171 0.9151241 0.4013586 -9.74154e-4 0.9159205 0.3897728 0 0.9209111 0.3972346 -2.98403e-5 0.9177172 0.3893668 0 0.9210828 0.389591 2.96222e-6 0.920988 0.3871632 0 0.9220111 0.3911707 2.1907e-5 0.9203183 0.391065 2.18326e-5 0.920363 0.3928676 4.37427e-5 0.9195951 0.3915716 7.58468e-5 0.9201477 0.3942264 1.06188e-4 0.9190133 0.3944189 1.81111e-4 0.9189307 0.3956673 2.78065e-4 0.918394 0.3967776 3.93374e-4 0.9179148 0.3982677 5.13232e-4 0.9172691 0.3999407 7.86808e-4 0.9165408 0.4013777 0.001012921 0.9159121 0.4030769 0.001371324 0.9151651 0.4047117 0.001754522 0.9144427 0.4078186 0.002514123 0.9130595 0.9112804 0.003912091 0.4117678 0.9131368 0.002476394 0.407646 0.9209318 0 0.3897239 0.9206784 0 0.3903222 0.9196377 7.56945e-5 0.3927677 0.9201451 2.92816e-5 0.3915778 0.9201196 3.48003e-5 0.3916375 0.9183984 3.32646e-4 0.3956569 0.9189622 1.61448e-4 0.3943457 0.9193771 1.12048e-4 0.3933774 0.9165797 7.22855e-4 0.3998516 0.9172569 5.75845e-4 0.3982957 0.9177841 3.25802e-4 0.3970798 0.9143897 0.001698791 0.4048317 0.9151355 0.001428127 0.403144 0.9159159 0.001003086 0.4013692 0.9206233 0 0.3904522 0.9210731 5.94701e-5 0.3893899 0.9213042 0 0.3888427 0.9204831 0 0.3907826 0.9205427 0 0.3906421 0.9209609 0 0.3896552 0.9202702 -4.36677e-5 0.3912838 0.9200147 -2.91883e-5 0.3918837 0.9198486 -1.01127e-4 0.3922737 0.9192155 -1.11838e-4 0.393755 0.918977 -1.60885e-4 0.3943111 0.9183846 -2.96636e-4 0.3956891 0.9177254 -3.33569e-4 0.3972155 0.9173058 -5.77164e-4 0.3981829 0.9166047 -7.26503e-4 0.3997943 0.9159016 -9.98285e-4 0.4014018 0.9151257 -0.001316368 0.4031666 0.9143981 -0.00180751 0.4048122 0.913139 -0.00248897 0.4076409 0.9112804 -0.003912091 0.4117678 0.9093169 -0.005820512 0.4160637 0.9197471 0.007363319 0.3924426 0.9070886 -0.008070826 0.4208623 0.9170668 0.006870508 0.3986747 0.9035763 -0.005768835 0.4283884 0.9123092 0.004593849 0.4094765 0.9001206 -0.003685951 0.4356256 0.9070271 0.002528131 0.4210647 0.896764 -0.001871168 0.4425053 0.9012337 9.67289e-4 0.4333322 0.8934438 -6.5653e-4 0.4491744 0.8950291 2.8362e-6 0.4460077 0.890156 0 0.4556561 0.8885478 -3.17658e-4 0.4587839 0.8868861 0 0.4619882 0.8849178 0 0.4657474 0.8849179 0 0.4657472 0.8638077 0 0.5038217 0.817455 0 0.5759925 0.8174553 0 0.5759922 0.7650982 0 0.6439138 0.7071039 0 0.7071098 0.7071041 0 0.7071095 0.6439221 0 0.7650911 0.6439175 0 0.7650951 0.5759869 0 0.8174589 0.5759867 0 0.8174591 0.5038243 0 0.8638062 0.5038184 0 0.8638096 0.4658882 0 0.8848436 0.4654606 0 0.8850687 0.4588273 0 0.8885256 0.4620839 -6.53692e-4 0.886836 0.4460812 9.83693e-4 0.894992 0.4553321 -0.001986086 0.8903195 0.4336577 0.002564072 0.9010741 0.4485941 -0.003821074 0.8937275 0.421598 0.004640042 0.906771 0.4414834 -0.006148576 0.8972484 0.410363 0.007112622 0.9118945 0.4337829 -0.008811771 0.9009744 0.3999202 0.009748518 0.9164982 0.4259054 -0.01152598 0.9046944 0.39395 0.01008403 0.9190766 0.4205695 -0.008437335 0.9072211 0.4161575 -0.005849361 0.9092738 0.4116279 0.003887355 0.9113437 0.4161375 0.005867004 0.9092829 0.3918009 -0.007367193 0.9200206 0.4208806 0.008070647 0.9070802 0.3986209 -0.006928622 0.9170897 0.4284899 0.005862057 0.9035276 0.4094766 -0.004593849 0.9123092 0.435595 0.003709256 0.9001352 0.4210401 -0.002539873 0.9070386 0.4426191 0.001917898 0.8967078 0.4333726 -9.90553e-4 0.9012143 0.4491727 6.44824e-4 0.8934447 0.44597 4.75725e-6 0.895048 0.4555562 0 0.8902071 0.4588229 3.26504e-4 0.8885277 0.4620928 0 0.8868317 0.4654604 0 0.8850687 0.4658884 0 0.8848436 0.8885439 0 0.4587919 0.8868941 6.36053e-4 0.4619724 0.8949737 -9.83745e-4 0.4461181 0.8902676 0.001974165 0.4554337 0.9010996 -0.002587318 0.4336045 0.8937124 0.003891766 0.4486233 0.9067586 -0.004639804 0.4216248 0.8973069 0.00612539 0.4413649 0.9118945 -0.007112622 0.4103631 0.9009607 0.00876528 0.4338123 0.9164948 -0.009701967 0.3999291 0.9047369 0.01152527 0.4258149 0.9190876 -0.01075738 0.3939067 0.9071858 0.008529484 0.420644 0.9093216 0.00585556 0.4160528 0.3378663 -0.00372219 0.9411869 0.3371008 -0.005228638 0.9414541 0.3368742 -0.006580293 0.9415267 0.3368847 -0.00738126 0.941517 0.3369091 -0.007716655 0.9415057 0.3370301 -0.007906556 0.9414608 0.3368621 -0.007517933 0.9415241 0.3361772 -0.006595671 0.9417757 0.3353943 -0.005622744 0.942061 0.3342009 -0.004391133 0.9424917 0.3326578 -0.002911269 0.9430431 0.3312476 -0.001844406 0.9435421 0.3635147 -0.002182722 0.931586 0.3516858 2.16406e-4 0.9361181 0.3432196 -3.25751e-4 0.9392552 0.3393707 -0.002341032 0.9406498 0.3689415 0 0.9294527 0.3919232 -0.01570272 0.919864 0.3775928 -0.007760107 0.9259393 0.3371601 0.005260765 0.9414327 0.3377995 0.003789246 0.9412106 0.3394256 0.002278208 0.9406301 0.3775674 0.007760167 0.9259496 0.391922 0.01570266 0.9198645 0.3689244 0 0.9294595 0.3887174 0 0.921357 0.3945149 3.32805e-5 0.9188895 0.3431833 3.18121e-4 0.9392684 0.351686 -2.14079e-4 0.9361181 0.3635147 0.002182722 0.931586 0.3369466 0.007902741 0.9414907 0.3369002 0.007189929 0.9415129 0.3368488 0.006615042 0.9415355 0.3362069 0.006557464 0.9417653 0.3367217 0.007362365 0.9415755 0.337079 0.008043169 0.941442 0.3327662 0.002969145 0.9430047 0.3341901 0.004386305 0.9424955 0.3354161 0.005622744 0.9420534 0.3294668 -4.23117e-4 0.9441671 0.3287534 0 0.9444158 0.3287649 0 0.9444119 0.3294085 4.2401e-4 0.9441874 0.3312574 0.001840233 0.9435386 0.9411713 0.003936469 0.3379071 0.9414583 0.005142927 0.3370903 0.9415339 0.006590902 0.336854 0.9415138 0.007298231 0.3368954 0.9414656 0.007796466 0.337019 0.9414645 0.008053541 0.337016 0.9415539 0.007229328 0.336785 0.9417635 0.006527721 0.3362129 0.9420809 0.005499601 0.3353408 0.9425411 0.004509747 0.3340601 0.9429914 0.003076612 0.3328029 0.9435819 0.00170207 0.331135 0.9315586 0.002182602 0.3635847 0.9361168 -2.04783e-4 0.3516891 0.9392881 2.8504e-4 0.3431296 0.9406462 0.002319812 0.3393809 0.929454 0 0.3689379 0.919865 0.01570028 0.3919209 0.9259636 0.007731616 0.3775336 0.9414581 -0.005132377 0.3370908 0.9411886 -0.003916621 0.3378592 0.9406374 -0.002288877 0.3394055 0.9259616 -0.007731676 0.3775386 0.9198656 -0.01570028 0.3919194 0.9294511 0 0.3689455 0.921203 0 0.3890823 0.9221202 -5.16817e-5 0.3869037 0.9392833 -2.6469e-4 0.3431425 0.9361169 2.04783e-4 0.351689 0.9315586 -0.002182602 0.3635847 0.9414745 -0.007822632 0.3369935 0.9415089 -0.007272779 0.3369099 0.9415379 -0.006561934 0.3368434 0.9417749 -0.006830394 0.336175 0.9415512 -0.007506966 0.3367865 0.9414666 -0.007741332 0.3370174 0.9430218 -0.002859592 0.3327186 0.9425273 -0.004741668 0.3340957 0.9420746 -0.005301892 0.3353616 0.9441213 5.64104e-4 0.329598 0.9444213 0 0.3287379 0.9444153 0 0.3287549 0.9441537 -7.53665e-4 0.3295046 0.9435571 -0.001663148 0.3312058 -0.9238776 0 -0.3826881 -0.9238786 0 -0.3826861 -0.9238805 -4.55942e-5 -0.3826811 -0.9238811 9.11876e-5 -0.38268 -0.9238779 0 -0.3826876 -0.923883 -1.82378e-4 -0.3826753 -0.9238805 9.11885e-5 -0.3826812 -0.9238762 0 -0.3826918 -0.9238815 0 -0.3826787 -0.9238801 0 -0.3826823 -0.9238786 -9.11882e-5 -0.3826857 -0.9238811 0 -0.3826797 -0.92388 0 -0.3826824 -0.9238786 0 -0.3826857 -0.9238811 1.82378e-4 -0.3826797 -0.9238794 -9.11885e-5 -0.3826841 -0.9238844 0 -0.3826718 -0.9238794 0 -0.3826841 -0.9238781 0 -0.3826869 -0.9238792 4.5594e-5 -0.3826845 -0.9238809 0 -0.3826802 -0.9238818 0 -0.3826782 -0.9238786 0 -0.3826858 -0.9238773 4.55942e-5 -0.3826889 -0.9238818 -9.11885e-5 -0.3826782 -0.9238767 0 -0.3826903 -0.9238826 0 -0.3826761 -0.9238766 -1.82375e-4 -0.3826907 -0.9238784 0 -0.3826865 -0.9238826 1.82376e-4 -0.3826761 -0.9238785 -9.11883e-5 -0.3826859 -0.9238769 -1.82377e-4 -0.3826899 -0.9238789 0 -0.3826849 -0.9238802 0 -0.382682 -0.9238794 9.11885e-5 -0.3826838 -0.9238781 -1.82376e-4 -0.3826869 -0.9238791 0 -0.3826847 -0.923878 0 -0.3826872 -0.9238795 9.11884e-5 -0.3826835 -0.9238805 0 -0.3826811 -0.9238792 1.82377e-4 -0.3826845 -0.9238777 0 -0.3826879 -0.9238811 0 -0.38268 -0.9238798 0 -0.382683 -0.9238805 0 -0.3826811 -0.923877 0 -0.3826899 -0.9238826 0 -0.382676 -0.9238799 0 -0.3826826 -0.9238767 9.15364e-5 -0.3826907 -0.9238829 -4.55078e-5 -0.3826754 -0.9238806 0 -0.3826809 -0.9238778 4.55073e-5 -0.3826879 -0.923883 0 -0.3826752 -0.923882 0 -0.3826778 -0.9238725 0 -0.3827004 -0.9238749 0 -0.3826947 -0.9238867 0 -0.3826662 -0.9238811 4.5508e-5 -0.3826798 -0.9238762 0 -0.3826915 -0.9238798 -4.55074e-5 -0.382683 -0.9238826 9.1537e-5 -0.382676 -0.9238829 0 -0.3826754 -0.9238722 0 -0.3827013 -0.9238807 -4.55074e-5 -0.3826806 -0.9238793 9.15389e-5 -0.3826841 -0.9238804 -2.27539e-5 -0.3826814 -0.9238801 9.22404e-5 -0.3826825 -0.9238803 0 -0.3826816 -0.9238772 0 -0.3826893 -0.9238814 0 -0.3826791 -0.9238814 1.14095e-5 -0.3826791 -0.923883 0 -0.3826751 -0.923877 0 -0.3826897 -0.9238723 0 -0.382701 -0.9238815 0 -0.3826786 -0.9238808 0 -0.3826803 -0.9238792 0 -0.3826844 -0.9238854 2.28187e-5 -0.3826696 -0.9238811 -2.85236e-6 -0.3826799 -0.9238798 0 -0.382683 -0.923877 -4.61275e-6 -0.3826899 -0.9238703 -5.70466e-6 -0.3827059 -0.9238797 2.85236e-6 -0.382683 -0.9238795 0 -0.3826835 -0.9238796 0 -0.3826833 -0.9238797 0 -0.382683 -0.9238805 -5.70469e-6 -0.3826811 -0.9238817 0 -0.3826783 -0.9238822 0 -0.3826771 -0.9238757 1.14094e-5 -0.3826927 -0.9238796 0 -0.3826836 -0.9238846 -1.14094e-5 -0.3826712 -0.9238741 0 -0.3826966 -0.9238768 0 -0.3826903 -0.9238812 2.28188e-5 -0.3826795 -0.9238817 0 -0.3826781 -0.9238833 0 -0.3826747 -0.9238814 -4.56379e-5 -0.3826791 -0.9238823 0 -0.3826767 -0.923882 0 -0.3826777 -0.9238731 -4.56372e-5 -0.382699 -0.923877 1.14094e-5 -0.3826897 -0.9238812 0 -0.3826795 -0.9238812 0 -0.3826793 -0.9238842 0 -0.3826723 -0.9238798 0 -0.3826831 -0.92388 0 -0.3826823 -0.9238811 0 -0.3826799 -0.9238716 0 -0.3827027 -0.9238762 1.42617e-5 -0.3826914 -0.9238807 -1.14094e-5 -0.3826808 -0.9238809 -1.06964e-6 -0.3826802 -0.9238818 5.7047e-6 -0.382678 -0.9238799 -1.14095e-5 -0.3826827 -0.9238757 0 -0.3826927 -0.9238744 1.14092e-5 -0.3826957 -0.9238845 1.14094e-5 -0.3826716 -0.9238814 -2.28189e-5 -0.3826791 -0.9238767 0 -0.3826905 -0.9238818 2.28189e-5 -0.3826779 -0.9238821 0 -0.3826775 -0.9238763 0 -0.3826913 -0.9238803 -4.56378e-5 -0.3826816 -0.9238792 0 -0.3826845 -0.923879 -9.11888e-5 -0.3826851 -0.9238796 0 -0.3826834 -0.9238837 4.5594e-5 -0.3826737 -0.9238809 -9.1189e-5 -0.3826802 -0.9238787 0 -0.3826854 -0.9238728 -9.11882e-5 -0.3826996 -0.9238818 4.55942e-5 -0.3826782 -0.9238849 0 -0.3826704 -0.9238758 0 -0.3826928 -0.9238786 9.11876e-5 -0.3826858 -0.9238799 -4.55944e-5 -0.3826826 -0.9238846 0 -0.3826712 -0.9238725 0 -0.3827005 -0.9238827 0 -0.3826757 -0.9238813 9.11901e-5 -0.3826794 -0.9238798 -4.55941e-5 -0.382683 -0.9238769 0 -0.3826899 -0.9238812 -2.28188e-5 -0.3826795 -0.9238801 1.14095e-5 -0.3826825 -0.923882 9.22406e-5 -0.3826775 -0.9238809 0 -0.3826802 -0.9238813 0 -0.3826792 -0.9238727 -4.5507e-5 -0.3827 -0.9238864 9.15362e-5 -0.3826671 -0.9238826 -9.1537e-5 -0.382676 -0.9238788 4.55073e-5 -0.3826855 -0.9238801 0 -0.3826822 -0.9238746 -9.15362e-5 -0.3826956 -0.9238867 9.15374e-5 -0.3826662 -0.9238749 -4.55074e-5 -0.3826947 -0.9238837 -4.55076e-5 -0.3826733 -0.923877 4.55075e-5 -0.3826899 -0.9238767 0 -0.3826907 -0.9238789 0 -0.3826851 -0.9238806 1.83074e-4 -0.3826809 -0.9238824 0 -0.3826768 -0.9238767 6.8391e-5 -0.3826906 -0.9238766 1.82375e-4 -0.3826907 -0.9238767 -9.1188e-5 -0.3826903 -0.9238809 -1.82378e-4 -0.3826802 -0.9238823 0 -0.3826771 -0.923879 0 -0.3826851 -0.9238786 4.55938e-5 -0.3826858 -0.9238789 -1.82378e-4 -0.382685 -0.9238837 0 -0.3826733 -0.9238849 -9.11894e-5 -0.3826704 -0.9238758 4.55939e-5 -0.3826928 -0.9238749 0 -0.3826948 -0.9238766 9.11874e-5 -0.3826907 -0.9238826 9.1188e-5 -0.3826761 -0.9238787 -4.55941e-5 -0.3826854 -0.9238846 -9.11882e-5 -0.3826712 -0.9238728 0 -0.3827 -0.923879 9.11888e-5 -0.3826851 -0.9238817 -2.28188e-5 -0.3826783 -0.9238803 4.56378e-5 -0.3826816 -0.923873 1.71141e-5 -0.3826991 0.7069393 0.02165377 -0.7069427 0.7069314 0.02179253 -0.7069463 0.7056026 0.06528729 -0.7055938 0.7055926 0.06552088 -0.7055822 0.7028988 0.1089183 -0.7029013 0.7028907 0.1089718 -0.7029011 0.6988674 0.1522257 -0.6988646 0.6988748 0.1521501 -0.6988736 0.6935427 0.1948875 -0.6935542 0.6935151 0.1951604 -0.693505 0.6868433 0.2377031 -0.6868359 0.6868369 0.2377425 -0.6868287 0.6788241 0.2800158 -0.6788145 0.6788634 0.2797397 -0.678889 0.6695961 0.3213924 -0.669588 0.6695466 0.3215721 -0.6695511 0.6590328 0.3624123 -0.6590396 0.6590484 0.3623622 -0.6590514 0.6472172 0.4027829 -0.6472062 0.6472448 0.4026793 -0.6472432 0.6341756 0.4423371 -0.6341603 0.6341689 0.4423271 -0.6341741 0.6200017 0.480817 -0.6200105 0.6199325 0.4810166 -0.6199247 0.6044298 0.5189476 -0.6044486 0.6045113 0.5187921 -0.6045007 0.5879651 0.5555136 -0.5879641 0.5879302 0.5555762 -0.5879399 0.570296 0.5911922 -0.5703108 0.5701973 0.5914237 -0.5701694 0.5514466 0.625953 -0.551443 0.5514696 0.6259024 -0.5514776 0.5316294 0.6593431 -0.5316361 0.5107865 0.6914882 -0.510824 0.5213008 0.6756398 -0.5213026 0.4777308 0.7372563 -0.4777306 0.4776812 0.7373178 -0.4776854 0.4304766 0.7933328 -0.4304801 0.4304884 0.7933215 -0.4304893 0.3799207 0.8433982 -0.379921 0.3799096 0.8434123 -0.3799008 0.3264813 0.8870276 -0.3264845 0.3265209 0.8870001 -0.3265196 0.270612 0.9238713 -0.2706123 0.2705876 0.9238853 -0.2705891 0.2126309 0.9537169 -0.2126318 0.2126302 0.9537177 -0.212629 0.1530374 0.9762983 -0.15304 0.1530508 0.9762946 -0.1530496 0.09228479 0.9914472 -0.09228193 0.09229397 0.9914446 -0.09230202 0.03084856 0.999048 -0.03084892 0.0308445 0.9990483 -0.03084141 0.7071068 0 -0.7071068 0.0308454 -0.9990482 -0.03084409 0.03084856 -0.999048 -0.03084892 0.09228652 -0.9914463 -0.0922895 0.09229224 -0.9914454 -0.09229439 0.153051 -0.9762954 -0.1530446 0.1530373 -0.9762975 -0.1530449 0.2126629 -0.953702 -0.2126669 0.212598 -0.9537326 -0.2125939 0.2706079 -0.9238733 -0.2706094 0.2705917 -0.9238831 -0.2705919 0.3264968 -0.887016 -0.3265005 0.3265054 -0.8870117 -0.3265035 0.3799089 -0.8434106 -0.3799052 0.3799213 -0.8433998 -0.3799166 0.4304606 -0.7933516 -0.4304614 0.4305043 -0.7933026 -0.4305079 0.4777098 -0.7372806 -0.4777141 0.4777021 -0.7372934 -0.477702 0.7069389 -0.02174884 -0.7069402 0.7069342 -0.02165359 -0.7069478 0.7055897 -0.06565362 -0.7055728 0.7055977 -0.06528687 -0.7055988 0.7028961 -0.1089529 -0.7028986 0.7028864 -0.1090791 -0.7028887 0.6989002 -0.1519236 -0.6988976 0.6988677 -0.1522256 -0.6988644 0.6935302 -0.195026 -0.6935278 0.6934992 -0.1952006 -0.6935096 0.6868748 -0.2375394 -0.686861 0.6868438 -0.2377029 -0.6868354 0.6788664 -0.2797842 -0.6788677 0.6788201 -0.2800136 -0.6788194 0.6695771 -0.3214302 -0.6695888 0.6695575 -0.3215358 -0.6695578 0.6590348 -0.3624228 -0.6590318 0.659034 -0.3624118 -0.6590388 0.6471724 -0.4028948 -0.6471814 0.6472569 -0.4026433 -0.6472535 0.6341344 -0.4424411 -0.6341289 0.6342189 -0.4422025 -0.6342109 0.6199755 -0.4808844 -0.6199843 0.6199592 -0.4809441 -0.6199543 0.6045178 -0.5187655 -0.6045169 0.6044834 -0.5188273 -0.6044982 0.5879474 -0.555552 -0.5879456 0.5879645 -0.5555088 -0.5879691 0.5701959 -0.5914047 -0.5701904 0.5702962 -0.591187 -0.570316 0.5513823 -0.6260753 -0.5513685 0.5514476 -0.6259475 -0.5514484 0.5213223 -0.6756039 -0.5213276 0.5316132 -0.6593361 -0.5316609 0.5107597 -0.6915634 -0.5107491 0 -1 0 0 -1 -2.3482e-5 0 -1 6.93525e-6 0 -1 0 0 -1 0 -0.7069393 -0.02163666 0.7069432 -0.706936 -0.02168893 0.706945 -0.7056068 -0.06529444 0.705589 -0.7055914 -0.06537836 0.7055965 -0.7028978 -0.1089663 0.7028948 -0.7028856 -0.1090696 0.7028911 -0.6988893 -0.152071 0.6988764 -0.6988688 -0.1521537 0.6988789 -0.6935126 -0.1951491 0.6935107 -0.6935396 -0.1949396 0.6935427 -0.6868551 -0.2376356 0.6868474 -0.6868298 -0.2377256 0.6868416 -0.6788175 -0.2800278 0.6788161 -0.6788402 -0.2799066 0.6788433 -0.6695283 -0.3216488 0.6695327 -0.6696088 -0.3213576 0.669592 -0.6590046 -0.362513 0.6590123 -0.6590121 -0.3624689 0.6590291 -0.6472446 -0.4026836 0.6472406 -0.6472337 -0.4027114 0.6472342 -0.6341477 -0.4423997 0.6341444 -0.63422 -0.442197 0.6342138 -0.6199811 -0.4808834 0.6199796 -0.6200134 -0.4807984 0.6200132 -0.6044762 -0.5188681 0.6044705 -0.6044896 -0.5188377 0.6044831 -0.5878518 -0.5557539 0.5878503 -0.5879731 -0.5554907 0.5879777 -0.5702049 -0.5913844 0.5702027 -0.5702983 -0.5912054 0.5702947 -0.5514121 -0.6260096 0.5514134 -0.5515672 -0.6257418 0.5515621 -0.531528 -0.6595082 0.5315325 -0.5213123 -0.6756312 0.5213023 -0.510835 -0.6914542 0.5108215 -0.4776977 -0.7372993 0.4776973 -0.4777281 -0.737262 0.4777245 -0.430478 -0.7933343 0.430476 -0.4304028 -0.7934132 0.4304056 -0.3799296 -0.8433904 0.3799293 -0.3799643 -0.8433594 0.3799633 -0.32652 -0.8870025 0.3265138 -0.3265112 -0.8870053 0.3265153 -0.2706289 -0.9238616 0.2706285 -0.2705907 -0.923884 0.2705903 -0.2126344 -0.9537157 0.2126337 -0.2125951 -0.9537313 0.2126029 -0.1530579 -0.9762915 0.1530625 -0.1530373 -0.9763007 0.1530253 -0.09229713 -0.9914452 0.09229147 -0.09230417 -0.991443 0.0923078 -0.03084182 -0.9990483 0.03084415 -0.03084653 -0.9990482 0.03084379 -0.03084254 -0.9990484 0.03084313 -0.03084379 -0.9990484 0.03084003 -0.09229731 -0.9914446 0.09229809 -0.09229242 -0.9914454 0.09229427 -0.1530491 -0.9762942 0.1530547 -0.1530352 -0.9763 0.1530314 -0.2126358 -0.9537135 0.2126418 -0.212633 -0.9537168 0.2126302 -0.2705803 -0.923889 0.2705836 -0.2706165 -0.92387 0.2706122 -0.3264836 -0.8870272 0.3264832 -0.32651 -0.8870057 0.3265151 -0.3551567 -0.8647598 0.3550412 -0.3799338 -0.8433886 0.379929 -0.3816883 -0.8418006 0.381688 -0.4304585 -0.7933567 0.4304541 -0.4304628 -0.7933463 0.4304688 -0.4777131 -0.7372806 0.4777107 -0.4777241 -0.7372651 0.4777237 -0.5213259 -0.6756026 0.5213257 -0.5316225 -0.6593045 0.531691 -0.510766 -0.6915478 0.510764 -0.706943 -0.02186208 0.7069326 -0.7069347 -0.02188575 0.7069402 -0.7055996 -0.06532311 0.7055935 -0.70559 -0.06541389 0.7055947 -0.7029023 -0.1089041 0.7028999 -0.7028979 -0.1089424 0.7028985 -0.6988869 -0.1520387 0.6988858 -0.6988632 -0.1522271 0.6988685 -0.693511 -0.1951585 0.6935098 -0.6935266 -0.1950331 0.6935293 -0.6868274 -0.2377836 0.6868239 -0.6868436 -0.237672 0.6868464 -0.6788552 -0.2798522 0.6788507 -0.67887 -0.2797511 0.6788776 -0.6695774 -0.32146 0.6695742 -0.6695712 -0.3214934 0.6695643 -0.6590061 -0.3625121 0.6590113 -0.659049 -0.3623691 0.6590471 -0.6472118 -0.4027772 0.6472151 -0.6472477 -0.4026689 0.6472467 -0.6341922 -0.4422557 0.6342005 -0.6341624 -0.4423645 0.6341544 -0.6199709 -0.4808969 0.6199793 -0.6198978 -0.4811032 0.6198924 -0.6044552 -0.518917 0.6044494 -0.6045475 -0.5187035 0.6045403 -0.587897 -0.555654 0.5878996 -0.587914 -0.5556174 0.5879172 -0.5609948 -0.6087418 0.5609976 -0.5701957 -0.5913372 0.5702608 -0.5514717 -0.6259001 0.5514782 0 -1 2.03978e-5 0 -1 1.4146e-5 0 -1 1.34708e-7 0.7069338 -0.02184253 -0.7069424 0.7069402 -0.02184718 -0.7069359 0.7055914 -0.06537622 -0.7055968 0.7055913 -0.06552207 -0.7055833 0.702907 -0.1088401 -0.7029051 0.7028884 -0.1090038 -0.7028984 0.698895 -0.1520122 -0.6988835 0.6988775 -0.1520904 -0.698884 0.6935151 -0.1951167 -0.6935174 0.6935291 -0.1950298 -0.6935278 0.6868256 -0.237784 -0.6868256 0.6868486 -0.2376447 -0.6868508 0.6788635 -0.279802 -0.6788632 0.6788451 -0.2799042 -0.6788396 0.6695765 -0.321456 -0.669577 0.6695726 -0.3214632 -0.6695775 0.6590023 -0.3625244 -0.6590085 0.6590501 -0.362365 -0.6590484 0.6472053 -0.4028079 -0.6472026 0.6472183 -0.4027549 -0.6472226 0.6341865 -0.4422959 -0.634178 0.6341712 -0.4423181 -0.6341779 0.6198955 -0.4810961 -0.6199001 0.6199508 -0.4809677 -0.6199445 0.6044847 -0.5188382 -0.6044876 0.60455 -0.5186888 -0.6045505 0.5879506 -0.5555511 -0.5879433 0.5879422 -0.5555565 -0.5879464 0.5702614 -0.5912804 -0.570254 0.561005 -0.6087572 -0.5609707 0.55144 -0.6259555 -0.551447 0.5316608 -0.6592964 -0.5316627 0.521321 -0.675633 -0.5212911 0.5107734 -0.6915301 -0.5107805 0.4777291 -0.7372598 -0.477727 0.4777199 -0.7372715 -0.4777181 0.4304481 -0.7933645 -0.4304504 0.4304587 -0.7933554 -0.4304562 0.3817102 -0.8417801 -0.3817118 0.379914 -0.8433994 -0.3799248 0.3552793 -0.864636 -0.3552199 0.3265278 -0.8869935 -0.3265304 0.3264913 -0.8870223 -0.3264888 0.2706075 -0.9238739 -0.2706078 0.2705823 -0.9238873 -0.2705875 0.2126328 -0.9537168 -0.2126306 0.2126386 -0.9537131 -0.2126412 0.1530457 -0.9762964 -0.1530438 0.1530382 -0.9762984 -0.1530387 0.09229791 -0.9914445 -0.09229856 0.09229195 -0.9914459 -0.09228914 0.03084295 -0.9990484 -0.03084319 0.03084367 -0.9990482 -0.03084379 0.7071068 0 -0.7071068 0.03084284 0.9990483 -0.03084534 0.03084415 0.9990483 -0.03084439 0.09228837 0.9914466 -0.09228557 0.09230148 0.9914438 -0.09230208 0.1530382 0.9762984 -0.1530387 0.1530457 0.9762964 -0.1530438 0.2126306 0.9537166 -0.2126333 0.2126407 0.9537132 -0.2126384 0.2706016 0.9238759 -0.2706069 0.2705882 0.9238854 -0.2705885 0.3265138 0.8870058 -0.3265113 0.3265053 0.88701 -0.326508 0.3552793 0.864636 -0.3552199 0.379914 0.8433994 -0.3799248 0.3817102 0.8417801 -0.3817118 0.4304456 0.7933697 -0.430443 0.4304612 0.7933501 -0.4304636 0.4777187 0.7372698 -0.4777218 0.4777302 0.7372615 -0.4777233 0.5107734 0.6915301 -0.5107805 0.521321 0.675633 -0.5212911 0.5316608 0.6592964 -0.5316627 0.55144 0.6259555 -0.551447 0.561005 0.6087572 -0.5609707 0.5702614 0.5912804 -0.570254 0.5879422 0.5555565 -0.5879464 0.5879215 0.5556026 -0.5879236 0.6045249 0.5187455 -0.6045269 0.6044566 0.5189107 -0.6044535 0.619953 0.4809576 -0.6199502 0.6199436 0.4809793 -0.6199428 0.6341525 0.4423689 -0.6341612 0.6341865 0.4422959 -0.634178 0.6472276 0.4027287 -0.6472296 0.6472238 0.4027421 -0.647225 0.6590639 0.3623172 -0.6590608 0.6590023 0.3625244 -0.6590085 0.6695516 0.3215546 -0.6695546 0.6695764 0.3214561 -0.6695772 0.6788506 0.2798736 -0.6788465 0.6788635 0.279802 -0.6788632 0.6868402 0.2377066 -0.6868378 0.6868355 0.237711 -0.686841 0.6935115 0.1951584 -0.6935093 0.6935151 0.1951167 -0.6935174 0.6988787 0.1520843 -0.6988841 0.6988765 0.1521614 -0.6988695 0.7029049 0.1088137 -0.7029113 0.702907 0.1088401 -0.7029051 0.7055913 0.06545197 -0.7055898 0.7055938 0.06537646 -0.7055943 0.7069416 0.02181941 -0.7069354 0.7069338 0.02184253 -0.7069424</float_array>
          <technique_common>
            <accessor source="#trapezoid__13-mesh-normals-array" count="864" stride="3">
              <param name="X" type="float"/>
              <param name="Y" type="float"/>
              <param name="Z" type="float"/>
            </accessor>
          </technique_common>
        </source>
        <vertices id="trapezoid__13-mesh-vertices">
          <input semantic="POSITION" source="#trapezoid__13-mesh-positions"/>
        </vertices>
        <triangles count="952">
          <input semantic="VERTEX" source="#trapezoid__13-mesh-vertices" offset="0"/>
          <input semantic="NORMAL" source="#trapezoid__13-mesh-normals" offset="1"/>
          <p>0 0 1 0 2 0 1 1 3 1 2 1 0 0 4 0 1 0 4 0 5 0 1 0 1 0 5 0 6 0 5 0 7 0 6 0 6 2 7 2 8 2 8 0 9 0 6 0 9 0 10 0 6 0 6 3 10 3 11 3 12 4 13 4 14 4 13 5 15 5 14 5 14 6 15 6 16 6 15 7 17 7 16 7 16 8 17 8 18 8 17 9 19 9 18 9 18 10 19 10 20 10 19 11 21 11 20 11 20 12 21 12 22 12 21 13 23 13 22 13 22 14 23 14 24 14 23 15 25 15 24 15 24 16 25 16 26 16 25 17 27 17 26 17 26 18 27 18 28 18 27 19 29 19 28 19 28 20 29 20 30 20 29 21 31 21 30 21 30 22 31 22 32 22 31 23 33 23 32 23 32 24 33 24 34 24 33 25 35 25 34 25 34 26 35 26 36 26 35 27 37 27 36 27 36 28 37 28 38 28 37 29 39 29 38 29 38 30 39 30 40 30 39 31 41 31 40 31 42 32 43 32 44 32 43 33 45 33 44 33 44 34 45 34 12 34 45 35 46 35 12 35 12 36 46 36 13 36 44 37 47 37 42 37 47 38 48 38 42 38 42 39 48 39 49 39 48 40 50 40 49 40 49 41 50 41 51 41 50 42 52 42 51 42 51 43 52 43 53 43 52 44 54 44 53 44 54 45 55 45 53 45 53 46 55 46 56 46 55 47 57 47 56 47 56 48 57 48 58 48 57 49 59 49 58 49 58 50 59 50 60 50 59 51 61 51 60 51 60 52 61 52 62 52 61 53 63 53 62 53 62 54 63 54 64 54 63 55 3 55 64 55 64 56 3 56 1 56 65 0 66 0 67 0 66 57 68 57 67 57 69 0 70 0 71 0 70 0 72 0 71 0 71 58 72 58 73 58 65 0 74 0 66 0 74 0 75 0 66 0 66 0 75 0 71 0 75 59 76 59 71 59 71 60 76 60 69 60 77 61 78 61 79 61 78 62 80 62 79 62 79 63 80 63 81 63 80 64 82 64 81 64 81 65 82 65 83 65 82 66 84 66 83 66 83 67 84 67 85 67 84 68 86 68 85 68 85 69 86 69 87 69 86 70 88 70 87 70 87 71 88 71 89 71 88 72 90 72 89 72 89 73 90 73 91 73 90 74 92 74 91 74 91 75 92 75 93 75 92 76 71 76 93 76 93 77 71 77 73 77 94 78 95 78 77 78 95 79 96 79 77 79 77 80 96 80 78 80 97 81 98 81 99 81 98 82 100 82 99 82 99 83 100 83 101 83 100 84 102 84 101 84 101 85 102 85 103 85 102 86 104 86 103 86 103 87 104 87 105 87 104 88 106 88 105 88 105 89 106 89 107 89 106 90 108 90 107 90 107 91 108 91 109 91 108 92 110 92 109 92 109 93 110 93 111 93 110 94 112 94 111 94 111 95 112 95 113 95 112 96 114 96 113 96 113 97 114 97 115 97 114 98 116 98 115 98 115 99 116 99 117 99 116 100 118 100 117 100 117 101 118 101 119 101 118 102 120 102 119 102 119 103 120 103 121 103 120 104 122 104 121 104 121 105 122 105 123 105 122 106 124 106 123 106 123 107 124 107 125 107 124 108 126 108 125 108 125 109 126 109 127 109 126 110 128 110 127 110 127 111 128 111 94 111 128 112 129 112 94 112 94 113 129 113 95 113 130 114 98 114 131 114 98 114 97 114 131 114 40 115 41 115 132 115 41 116 133 116 132 116 134 117 135 117 136 117 135 118 137 118 136 118 138 119 139 119 136 119 138 120 136 120 140 120 141 121 142 121 136 121 142 122 143 122 136 122 136 123 143 123 140 123 144 124 145 124 136 124 145 125 146 125 136 125 136 126 146 126 141 126 147 127 148 127 136 127 148 128 149 128 136 128 136 129 149 129 144 129 137 130 150 130 136 130 150 131 151 131 136 131 136 132 151 132 147 132 139 133 152 133 136 133 152 134 131 134 136 134 136 135 131 135 97 135 153 136 99 136 101 136 101 137 103 137 153 137 103 138 105 138 153 138 153 139 105 139 107 139 107 140 109 140 153 140 109 141 111 141 153 141 153 142 111 142 113 142 113 143 115 143 153 143 115 144 117 144 153 144 153 145 117 145 119 145 119 146 121 146 153 146 121 147 123 147 153 147 153 148 123 148 125 148 125 149 127 149 153 149 127 150 94 150 153 150 153 151 94 151 77 151 154 152 155 152 156 152 155 153 157 153 156 153 158 154 159 154 156 154 158 155 156 155 160 155 161 156 162 156 156 156 162 157 163 157 156 157 156 158 163 158 160 158 164 159 165 159 156 159 165 160 166 160 156 160 156 161 166 161 161 161 167 162 168 162 156 162 168 163 169 163 156 163 156 164 169 164 164 164 157 165 170 165 156 165 170 166 171 166 156 166 156 167 171 167 167 167 159 168 172 168 156 168 172 169 173 169 156 169 156 170 173 170 174 170 52 171 175 171 176 171 176 172 177 172 52 172 177 173 178 173 52 173 52 174 178 174 179 174 179 175 180 175 52 175 180 176 181 176 52 176 52 177 181 177 182 177 182 178 183 178 52 178 183 179 184 179 52 179 52 180 184 180 185 180 185 181 186 181 52 181 186 182 187 182 52 182 52 183 187 183 188 183 188 184 189 184 52 184 189 185 190 185 52 185 52 186 190 186 191 186 191 187 192 187 52 187 192 188 193 188 52 188 52 189 193 189 54 189 193 190 194 190 54 190 54 191 194 191 55 191 194 192 195 192 55 192 55 193 195 193 57 193 195 194 196 194 57 194 57 195 196 195 59 195 196 196 197 196 59 196 59 197 197 197 61 197 197 198 198 198 61 198 61 199 198 199 63 199 198 200 199 200 63 200 63 201 199 201 3 201 199 202 200 202 3 202 3 203 200 203 2 203 200 204 201 204 2 204 2 205 201 205 0 205 201 205 202 205 0 205 0 206 202 206 4 206 202 207 203 207 4 207 4 208 203 208 5 208 203 208 204 208 5 208 5 209 204 209 7 209 204 210 205 210 7 210 7 211 205 211 8 211 205 212 206 212 8 212 8 213 206 213 9 213 206 214 207 214 9 214 9 215 207 215 10 215 207 216 208 216 10 216 10 217 208 217 11 217 208 218 209 218 11 218 11 219 209 219 210 219 209 220 211 220 210 220 210 221 211 221 212 221 211 222 213 222 212 222 212 223 213 223 214 223 213 224 215 224 214 224 214 225 215 225 216 225 215 226 217 226 216 226 216 227 217 227 218 227 217 228 219 228 218 228 218 229 219 229 220 229 219 230 221 230 220 230 220 231 221 231 136 231 221 232 222 232 136 232 136 233 222 233 134 233 77 234 79 234 153 234 79 235 81 235 153 235 153 236 81 236 223 236 81 237 83 237 223 237 223 238 83 238 224 238 83 239 85 239 224 239 224 240 85 240 225 240 85 241 87 241 225 241 225 242 87 242 226 242 87 243 89 243 226 243 226 244 89 244 227 244 89 245 91 245 227 245 227 246 91 246 228 246 91 247 93 247 228 247 228 248 93 248 229 248 93 249 73 249 229 249 229 250 73 250 230 250 73 251 72 251 230 251 230 216 72 216 231 216 72 215 70 215 231 215 231 213 70 213 232 213 70 214 69 214 232 214 232 212 69 212 233 212 69 211 76 211 233 211 233 209 76 209 234 209 76 210 75 210 234 210 234 208 75 208 235 208 75 208 74 208 235 208 235 206 74 206 236 206 74 207 65 207 236 207 236 205 65 205 237 205 65 205 67 205 237 205 237 203 67 203 238 203 67 204 68 204 238 204 238 252 68 252 239 252 68 253 240 253 239 253 239 254 240 254 241 254 240 255 242 255 241 255 241 256 242 256 243 256 242 257 244 257 243 257 243 258 244 258 245 258 244 259 246 259 245 259 245 260 246 260 247 260 246 261 248 261 247 261 247 262 248 262 249 262 248 263 250 263 249 263 249 264 250 264 156 264 250 265 251 265 156 265 156 266 251 266 154 266 252 267 253 267 254 267 253 268 255 268 254 268 254 269 255 269 256 269 256 270 257 270 254 270 257 271 258 271 254 271 254 272 258 272 259 272 259 273 260 273 254 273 260 274 261 274 254 274 254 275 261 275 262 275 262 276 263 276 254 276 263 277 264 277 254 277 254 278 264 278 265 278 254 279 266 279 267 279 267 280 268 280 254 280 268 281 269 281 254 281 254 282 269 282 252 282 270 283 153 283 254 283 153 284 271 284 254 284 254 285 271 285 266 285 272 286 273 286 270 286 273 287 274 287 270 287 270 288 274 288 275 288 276 289 277 289 270 289 277 290 136 290 270 290 270 291 136 291 153 291 136 292 97 292 153 292 153 293 97 293 99 293 275 294 278 294 270 294 278 295 279 295 270 295 270 296 279 296 276 296 280 297 281 297 270 297 281 298 282 298 270 298 270 299 282 299 272 299 283 300 284 300 270 300 284 301 285 301 270 301 270 302 285 302 280 302 286 303 287 303 270 303 287 304 288 304 270 304 270 305 288 305 283 305 265 306 289 306 254 306 289 307 290 307 254 307 254 308 290 308 270 308 290 309 291 309 270 309 270 310 291 310 286 310 14 311 16 311 292 311 16 312 18 312 292 312 292 313 18 313 20 313 20 314 22 314 292 314 22 315 24 315 292 315 292 316 24 316 26 316 26 317 28 317 292 317 28 318 30 318 292 318 292 319 30 319 32 319 32 320 34 320 292 320 34 321 36 321 292 321 292 322 36 322 38 322 292 323 48 323 47 323 47 324 44 324 292 324 44 325 12 325 292 325 292 326 12 326 14 326 293 327 52 327 292 327 52 328 50 328 292 328 292 329 50 329 48 329 294 330 295 330 293 330 295 331 296 331 293 331 293 332 296 332 297 332 298 333 299 333 293 333 299 334 156 334 293 334 293 335 156 335 52 335 156 336 174 336 52 336 52 337 174 337 175 337 297 338 300 338 293 338 300 339 301 339 293 339 293 340 301 340 298 340 302 341 303 341 293 341 303 342 304 342 293 342 293 343 304 343 294 343 305 344 306 344 293 344 306 345 307 345 293 345 293 346 307 346 302 346 308 347 309 347 293 347 309 348 310 348 293 348 293 349 310 349 305 349 38 350 40 350 292 350 40 351 132 351 292 351 292 352 132 352 293 352 132 353 311 353 293 353 293 354 311 354 308 354 49 355 51 355 312 355 313 356 314 356 31 356 31 357 314 357 33 357 314 358 315 358 33 358 33 359 315 359 35 359 315 360 316 360 35 360 35 361 316 361 37 361 316 362 317 362 37 362 37 363 317 363 39 363 317 364 318 364 39 364 39 365 318 365 41 365 318 366 319 366 41 366 41 367 319 367 133 367 319 367 320 367 133 367 133 368 320 368 321 368 320 369 322 369 321 369 321 370 322 370 323 370 322 371 324 371 323 371 323 372 324 372 325 372 324 373 326 373 325 373 325 374 326 374 327 374 326 375 328 375 327 375 327 376 328 376 329 376 328 377 330 377 329 377 329 378 330 378 331 378 330 379 332 379 331 379 331 380 332 380 333 380 332 381 334 381 333 381 333 376 334 376 335 376 336 382 337 382 338 382 337 376 339 376 338 376 338 376 339 376 340 376 339 383 341 383 340 383 340 384 341 384 342 384 341 385 343 385 342 385 342 386 343 386 344 386 343 387 345 387 344 387 344 388 345 388 346 388 345 389 347 389 346 389 346 390 347 390 348 390 347 372 349 372 348 372 348 366 349 366 130 366 349 368 350 368 130 368 130 391 350 391 98 391 350 391 351 391 98 391 98 366 351 366 100 366 351 368 352 368 100 368 100 392 352 392 102 392 352 393 353 393 102 393 102 390 353 390 104 390 353 394 354 394 104 394 104 395 354 395 106 395 354 396 355 396 106 396 106 397 355 397 108 397 355 398 356 398 108 398 108 399 356 399 110 399 335 400 334 400 357 400 334 401 358 401 357 401 357 402 358 402 359 402 358 403 360 403 359 403 359 404 360 404 361 404 360 405 362 405 361 405 361 406 362 406 363 406 362 407 364 407 363 407 363 408 364 408 365 408 364 409 366 409 365 409 365 410 366 410 367 410 366 411 368 411 367 411 367 412 368 412 369 412 368 413 370 413 369 413 369 414 370 414 371 414 370 415 372 415 371 415 371 416 372 416 373 416 372 417 374 417 373 417 373 418 374 418 375 418 374 419 376 419 375 419 375 420 376 420 377 420 376 421 378 421 377 421 378 422 379 422 377 422 377 423 379 423 380 423 379 424 381 424 380 424 380 425 381 425 382 425 381 426 383 426 382 426 382 427 383 427 384 427 383 428 385 428 384 428 384 429 385 429 386 429 385 430 387 430 386 430 386 431 387 431 388 431 387 432 389 432 388 432 388 433 389 433 390 433 389 434 391 434 390 434 390 435 391 435 392 435 391 436 393 436 392 436 392 437 393 437 394 437 393 394 66 394 394 394 394 438 66 438 395 438 66 439 71 439 395 439 395 440 71 440 396 440 71 441 92 441 396 441 396 442 92 442 397 442 92 443 90 443 397 443 397 444 90 444 398 444 90 445 88 445 398 445 398 446 88 446 399 446 88 447 86 447 399 447 399 448 86 448 400 448 86 449 84 449 400 449 400 450 84 450 401 450 84 451 82 451 401 451 401 423 82 423 402 423 82 452 80 452 402 452 402 442 80 442 403 442 312 453 51 453 404 453 51 454 53 454 404 454 404 455 53 455 405 455 53 456 56 456 405 456 405 457 56 457 406 457 56 458 58 458 406 458 406 459 58 459 407 459 58 460 60 460 407 460 407 461 60 461 408 461 60 462 62 462 408 462 408 463 62 463 409 463 62 464 64 464 409 464 409 465 64 465 410 465 64 440 1 440 410 440 410 439 1 439 411 439 1 438 6 438 411 438 411 394 6 394 412 394 6 437 413 437 412 437 412 466 413 466 414 466 413 467 415 467 414 467 414 468 415 468 416 468 415 469 417 469 416 469 416 470 417 470 418 470 417 471 419 471 418 471 418 472 419 472 420 472 419 473 421 473 420 473 420 474 421 474 422 474 421 475 423 475 422 475 422 426 423 426 424 426 423 476 425 476 424 476 424 428 425 428 426 428 425 443 427 443 426 443 426 477 427 477 428 477 31 478 29 478 313 478 29 380 27 380 313 380 313 381 27 381 429 381 27 376 25 376 429 376 429 375 25 375 430 375 25 373 23 373 430 373 430 479 23 479 431 479 23 480 21 480 431 480 431 375 21 375 432 375 21 481 19 481 432 481 432 482 19 482 433 482 19 483 17 483 433 483 433 484 17 484 434 484 17 485 15 485 434 485 434 486 15 486 435 486 15 487 13 487 435 487 435 488 13 488 436 488 13 489 46 489 436 489 436 490 46 490 437 490 46 483 45 483 437 483 437 491 45 491 438 491 45 492 43 492 438 492 438 493 43 493 439 493 43 494 42 494 439 494 439 495 42 495 440 495 42 496 49 496 440 496 440 422 49 422 441 422 49 497 312 497 441 497 428 498 427 498 442 498 427 499 443 499 442 499 442 500 443 500 444 500 443 501 445 501 444 501 444 502 445 502 446 502 445 408 447 408 446 408 446 503 447 503 448 503 447 504 449 504 448 504 448 413 449 413 450 413 449 505 451 505 450 505 450 506 451 506 452 506 451 408 453 408 452 408 452 507 453 507 454 507 453 508 455 508 454 508 454 415 455 415 456 415 455 509 457 509 456 509 456 405 457 405 458 405 457 510 459 510 458 510 458 511 459 511 460 511 459 512 461 512 460 512 460 513 461 513 336 513 461 514 462 514 336 514 336 515 462 515 337 515 356 478 463 478 110 478 463 376 464 376 110 376 110 516 464 516 112 516 464 517 465 517 112 517 112 518 465 518 114 518 465 519 466 519 114 519 114 520 466 520 116 520 466 521 467 521 116 521 116 522 467 522 118 522 467 377 468 377 118 377 118 375 468 375 120 375 468 523 469 523 120 523 120 524 469 524 122 524 469 525 470 525 122 525 122 526 470 526 124 526 470 485 471 485 124 485 124 527 471 527 126 527 471 489 472 489 126 489 126 528 472 528 128 528 472 529 473 529 128 529 128 530 473 530 129 530 473 492 474 492 129 492 129 493 474 493 95 493 474 531 475 531 95 531 95 532 475 532 96 532 475 533 403 533 96 533 96 534 403 534 78 534 403 535 80 535 78 535 320 536 173 536 322 536 173 537 172 537 322 537 322 538 172 538 324 538 172 539 159 539 324 539 324 540 159 540 326 540 159 541 158 541 326 541 326 542 158 542 328 542 158 543 160 543 328 543 328 544 160 544 330 544 160 545 163 545 330 545 330 546 163 546 332 546 163 547 162 547 332 547 332 548 162 548 334 548 162 549 161 549 334 549 334 550 161 550 358 550 161 551 166 551 358 551 358 552 166 552 360 552 166 553 165 553 360 553 360 554 165 554 362 554 165 555 164 555 362 555 362 556 164 556 364 556 164 557 169 557 364 557 364 558 169 558 366 558 169 559 168 559 366 559 366 560 168 560 368 560 168 561 167 561 368 561 368 562 167 562 370 562 167 563 171 563 370 563 370 564 171 564 372 564 171 565 170 565 372 565 372 566 170 566 374 566 170 567 157 567 374 567 374 568 157 568 376 568 157 569 378 569 376 569 157 570 155 570 378 570 155 571 154 571 378 571 378 572 154 572 379 572 154 573 251 573 379 573 379 574 251 574 381 574 251 575 250 575 381 575 381 576 250 576 383 576 250 577 248 577 383 577 383 578 248 578 385 578 248 579 246 579 385 579 385 580 246 580 387 580 246 581 244 581 387 581 387 582 244 582 389 582 244 583 242 583 389 583 389 584 242 584 391 584 242 585 240 585 391 585 391 586 240 586 393 586 240 587 68 587 393 587 393 588 68 588 66 588 320 589 319 589 173 589 319 589 174 589 173 589 410 590 200 590 199 590 410 591 199 591 409 591 199 592 198 592 409 592 409 593 198 593 408 593 198 594 197 594 408 594 408 595 197 595 407 595 197 596 196 596 407 596 407 597 196 597 406 597 196 598 195 598 406 598 406 599 195 599 405 599 195 600 194 600 405 600 405 601 194 601 404 601 194 602 193 602 404 602 404 603 193 603 312 603 193 604 192 604 312 604 312 605 192 605 441 605 192 606 191 606 441 606 441 607 191 607 440 607 174 608 319 608 175 608 319 609 318 609 175 609 175 610 318 610 176 610 318 611 317 611 176 611 176 612 317 612 177 612 317 613 316 613 177 613 177 614 316 614 178 614 316 615 315 615 178 615 178 616 315 616 179 616 315 617 314 617 179 617 179 618 314 618 180 618 314 619 313 619 180 619 180 620 313 620 181 620 313 621 429 621 181 621 181 622 429 622 182 622 429 623 430 623 182 623 182 624 430 624 183 624 430 625 431 625 183 625 183 626 431 626 184 626 431 627 432 627 184 627 184 628 432 628 185 628 432 629 433 629 185 629 185 630 433 630 186 630 433 631 434 631 186 631 186 632 434 632 187 632 434 633 435 633 187 633 187 634 435 634 188 634 435 635 436 635 188 635 188 636 436 636 189 636 436 637 437 637 189 637 189 638 437 638 190 638 437 639 438 639 190 639 190 640 438 640 191 640 438 641 439 641 191 641 191 642 439 642 440 642 203 643 202 643 410 643 202 643 201 643 410 643 410 644 201 644 200 644 207 643 411 643 208 643 411 645 209 645 208 645 207 643 206 643 411 643 206 643 205 643 411 643 411 646 205 646 410 646 205 643 204 643 410 643 410 647 204 647 203 647 130 648 131 648 152 648 130 649 152 649 348 649 152 650 139 650 348 650 348 651 139 651 346 651 139 652 138 652 346 652 346 653 138 653 344 653 138 654 140 654 344 654 344 655 140 655 342 655 140 656 143 656 342 656 342 657 143 657 340 657 143 658 142 658 340 658 340 659 142 659 338 659 142 660 141 660 338 660 338 661 141 661 336 661 141 662 146 662 336 662 336 663 146 663 460 663 146 664 145 664 460 664 460 665 145 665 458 665 145 666 144 666 458 666 458 667 144 667 456 667 144 668 149 668 456 668 456 669 149 669 454 669 149 670 148 670 454 670 454 671 148 671 452 671 148 672 147 672 452 672 452 673 147 673 450 673 147 674 151 674 450 674 450 675 151 675 448 675 151 676 150 676 448 676 448 677 150 677 446 677 150 678 137 678 446 678 446 679 137 679 444 679 444 680 137 680 442 680 137 681 135 681 442 681 442 682 135 682 428 682 135 683 134 683 428 683 428 684 134 684 426 684 134 685 222 685 426 685 426 686 222 686 424 686 222 687 221 687 424 687 424 688 221 688 422 688 221 689 219 689 422 689 422 690 219 690 420 690 219 691 217 691 420 691 420 692 217 692 418 692 217 693 215 693 418 693 418 694 215 694 416 694 215 695 213 695 416 695 416 696 213 696 414 696 213 697 211 697 414 697 414 698 211 698 412 698 211 699 209 699 412 699 412 700 209 700 411 700 394 701 238 701 239 701 394 702 239 702 392 702 239 703 241 703 392 703 392 704 241 704 390 704 241 705 243 705 390 705 390 706 243 706 388 706 243 707 245 707 388 707 388 708 245 708 386 708 245 709 247 709 386 709 386 710 247 710 384 710 247 711 249 711 384 711 384 712 249 712 382 712 249 713 156 713 382 713 382 714 156 714 380 714 156 715 299 715 380 715 299 716 298 716 380 716 380 717 298 717 377 717 298 718 301 718 377 718 377 719 301 719 375 719 300 720 371 720 301 720 371 721 373 721 301 721 301 722 373 722 375 722 132 723 133 723 311 723 133 724 321 724 311 724 311 725 321 725 308 725 321 726 323 726 308 726 308 727 323 727 309 727 323 728 325 728 309 728 309 729 325 729 310 729 325 730 327 730 310 730 310 731 327 731 305 731 327 732 329 732 305 732 305 733 329 733 306 733 329 734 331 734 306 734 306 735 331 735 307 735 331 736 333 736 307 736 307 737 333 737 302 737 333 738 335 738 302 738 302 739 335 739 303 739 335 740 357 740 303 740 303 741 357 741 304 741 357 742 359 742 304 742 304 743 359 743 294 743 359 744 361 744 294 744 294 745 361 745 295 745 361 746 363 746 295 746 295 747 363 747 296 747 363 748 365 748 296 748 296 749 365 749 297 749 365 750 367 750 297 750 297 751 367 751 300 751 367 752 369 752 300 752 300 753 369 753 371 753 231 643 395 643 230 643 395 754 229 754 230 754 235 643 236 643 394 643 236 643 237 643 394 643 394 755 237 755 238 755 231 643 232 643 395 643 232 643 233 643 395 643 395 643 233 643 394 643 233 643 234 643 394 643 394 756 234 756 235 756 351 757 289 757 352 757 289 758 265 758 352 758 352 759 265 759 353 759 265 760 264 760 353 760 353 761 264 761 354 761 264 762 263 762 354 762 354 763 263 763 355 763 263 764 262 764 355 764 355 765 262 765 356 765 262 766 261 766 356 766 356 767 261 767 463 767 261 768 260 768 463 768 463 769 260 769 464 769 260 770 259 770 464 770 464 771 259 771 465 771 259 772 258 772 465 772 465 773 258 773 466 773 258 774 257 774 466 774 466 775 257 775 467 775 257 776 256 776 467 776 467 777 256 777 468 777 256 778 255 778 468 778 468 779 255 779 469 779 255 780 253 780 469 780 253 781 252 781 469 781 469 782 252 782 470 782 252 783 269 783 470 783 470 784 269 784 471 784 471 785 269 785 472 785 269 786 268 786 472 786 472 787 268 787 473 787 473 788 268 788 474 788 268 789 267 789 474 789 474 790 267 790 475 790 267 791 266 791 475 791 475 792 266 792 403 792 266 793 271 793 403 793 403 794 271 794 402 794 271 795 153 795 402 795 402 796 153 796 401 796 153 797 223 797 401 797 223 798 224 798 401 798 401 799 224 799 400 799 224 800 225 800 400 800 400 801 225 801 399 801 225 802 226 802 399 802 399 803 226 803 398 803 226 804 227 804 398 804 398 805 227 805 397 805 227 806 228 806 397 806 397 807 228 807 396 807 228 808 229 808 396 808 396 809 229 809 395 809 289 810 351 810 290 810 351 589 350 589 290 589 6 811 11 811 210 811 6 812 210 812 413 812 210 813 212 813 413 813 413 814 212 814 415 814 212 815 214 815 415 815 415 816 214 816 417 816 214 817 216 817 417 817 417 818 216 818 419 818 216 819 218 819 419 819 419 820 218 820 421 820 218 821 220 821 421 821 421 822 220 822 423 822 220 823 136 823 423 823 423 824 136 824 425 824 136 825 277 825 425 825 277 826 276 826 425 826 425 827 276 827 427 827 276 828 279 828 427 828 427 829 279 829 443 829 443 830 279 830 445 830 279 831 278 831 445 831 445 832 278 832 447 832 447 833 278 833 449 833 278 834 275 834 449 834 449 835 275 835 451 835 451 836 275 836 453 836 275 837 274 837 453 837 453 838 274 838 455 838 274 839 273 839 455 839 273 840 272 840 455 840 455 841 272 841 457 841 272 842 282 842 457 842 457 843 282 843 459 843 282 844 281 844 459 844 459 845 281 845 461 845 281 846 280 846 461 846 461 847 280 847 462 847 280 848 285 848 462 848 462 849 285 849 337 849 285 850 284 850 337 850 337 851 284 851 339 851 284 852 283 852 339 852 339 853 283 853 341 853 283 854 288 854 341 854 341 855 288 855 343 855 288 856 287 856 343 856 343 857 287 857 345 857 287 858 286 858 345 858 345 859 286 859 347 859 286 860 291 860 347 860 347 861 291 861 349 861 291 862 290 862 349 862 349 863 290 863 350 863</p>
        </triangles>
      </mesh>
    </geometry>
  </library_geometries>
  <library_visual_scenes>
    <visual_scene id="Scene" name="Scene">
      <node id="trapezoid__13" name="trapezoid__13" type="NODE">
        <matrix sid="transform">1 0 0 0 0 1 0 0 0 0 1 0 0 0 0 1</matrix>
        <instance_geometry url="#trapezoid__13-mesh" name="trapezoid__13"/>
      </node>
    </visual_scene>
  </library_visual_scenes>
  <scene>
    <instance_visual_scene url="#Scene"/>
  </scene>
</COLLADA>