<?xml version="1.0" encoding="utf-8"?>
<COLLADA xmlns="http://www.collada.org/2005/11/COLLADASchema" version="1.4.1" xmlns:xsi="http://www.w3.org/2001/XMLSchema-instance">
  <asset>
    <contributor>
      <author>Blender User</author>
      <authoring_tool>Blender 3.0.1</authoring_tool>
    </contributor>
    <created>2026-06-04T16:19:14</created>
    <modified>2026-06-04T16:19:14</modified>
    <unit name="meter" meter="1"/>
    <up_axis>Z_UP</up_axis>
  </asset>
  <library_images/>
  <library_geometries>
    <geometry id="trapezoid__9-mesh" name="trapezoid__9">
      <mesh>
        <source id="trapezoid__9-mesh-positions">
          <float_array id="trapezoid__9-mesh-positions-array" count="1344">-0.1040593 0.01499998 -0.009799957 -0.2334616 0.01499998 0.1196023 -0.0959407 0.01499998 0.009799957 -0.2244325 0.01499998 0.1382918 -0.2227387 0.0134769 0.141798 -0.09455615 0.01378339 0.01314246 -0.2228928 0.01378339 0.1414791 -0.09470528 0.01405954 0.01278257 -0.2230586 0.01405954 0.1411359 -0.09486371 0.01430332 0.01239997 -0.2232348 0.01430332 0.1407711 -0.09503042 0.01451277 0.01199758 -0.2234202 0.01451277 0.1403874 -0.09520399 0.0146864 0.0115785 -0.2236133 0.0146864 0.1399878 -0.09538322 0.01482278 0.01114583 -0.2238126 0.01482278 0.1395752 -0.09556668 0.01492094 0.01070296 -0.2240166 0.01492094 0.1391529 -0.09575295 0.01498019 0.01025319 -0.2242238 0.01498019 0.138724 -0.2220371 0.009799957 0.1432503 -0.09378677 0.009799957 0.01499998 -0.2220394 0.01002681 0.1432456 -0.0937888 0.01002681 0.01499503 -0.2220462 0.01025319 0.1432315 -0.093795 0.01025319 0.01498019 -0.2220576 0.01047873 0.1432079 -0.09380519 0.01047873 0.01495546 -0.2220735 0.01070296 0.143175 -0.09381949 0.01070296 0.01492094 -0.2220939 0.01092547 0.1431328 -0.09383785 0.01092547 0.01487672 -0.2221187 0.01114583 0.1430814 -0.09386014 0.01114583 0.01482278 -0.222148 0.01136362 0.1430208 -0.09388649 0.01136362 0.0147593 -0.2221816 0.0115785 0.1429513 -0.09391665 0.0115785 0.0146864 -0.2222195 0.01178991 0.1428729 -0.09395074 0.01178991 0.01460415 -0.2222616 0.01199758 0.1427857 -0.09398859 0.01199758 0.01451277 -0.2223078 0.01220107 0.1426901 -0.09403014 0.01220107 0.0144124 -0.2223581 0.01239997 0.142586 -0.09407532 0.01239997 0.01430332 -0.2224122 0.01259392 0.1424738 -0.09412407 0.01259392 0.0141856 -0.2224703 0.01278257 0.1423536 -0.09417629 0.01278257 0.01405954 -0.2225321 0.01296555 0.1422256 -0.0942319 0.01296555 0.01392543 -0.2225975 0.01314246 0.1420903 -0.09429067 0.01314246 0.01378339 -0.2226665 0.01331305 0.1419476 -0.09435266 0.01331305 0.01363384 -0.09441763 0.0134769 0.0134769 -0.0959407 -0.01239997 0.009799957 -0.1040593 -0.01239997 -0.009799957 -0.2244325 -0.01239997 0.1382918 -0.2334616 -0.01239997 0.1196023 -0.1051362 -0.009799957 -0.01239997 -0.2346593 -0.009799957 0.1171231 -0.1051352 -0.009913384 -0.01239752 -0.2346582 -0.009913384 0.1171255 -0.1051321 -0.01002657 -0.01239007 -0.2346548 -0.01002657 0.1171326 -0.105127 -0.01013934 -0.01237773 -0.2346491 -0.01013934 0.1171443 -0.1051198 -0.01025146 -0.01236045 -0.2346411 -0.01025146 0.1171607 -0.1051107 -0.01036274 -0.01233834 -0.234631 -0.01036274 0.1171818 -0.1050995 -0.01047289 -0.01231139 -0.2346186 -0.01047289 0.1172076 -0.1050864 -0.01058179 -0.01227962 -0.2346039 -0.01058179 0.1172378 -0.1050713 -0.01068919 -0.01224315 -0.2345871 -0.01068919 0.1172726 -0.1050543 -0.01079493 -0.01220208 -0.2345682 -0.01079493 0.1173118 -0.1050353 -0.01089876 -0.01215636 -0.2345471 -0.01089876 0.1173554 -0.1050145 -0.01100051 -0.01210618 -0.234524 -0.01100051 0.1174032 -0.1049919 -0.01109999 -0.01205164 -0.2344989 -0.01109999 0.1174553 -0.1049675 -0.01119697 -0.01199281 -0.2344717 -0.01119697 0.1175113 -0.1049414 -0.01129126 -0.01192975 -0.2344427 -0.01129126 0.1175715 -0.1049137 -0.01138275 -0.01186269 -0.2344118 -0.01138275 0.1176354 -0.1048843 -0.01147121 -0.0117917 -0.2343791 -0.01147121 0.1177031 -0.1048533 -0.0115565 -0.0117169 -0.2343447 -0.0115565 0.1177744 -0.1048208 -0.01163846 -0.01163846 -0.2343086 -0.01163846 0.1178492 -0.2342315 -0.0117917 0.1180087 -0.1047515 -0.0117917 -0.01147121 -0.2341486 -0.01192975 0.1181803 -0.104677 -0.01192975 -0.01129126 -0.2340605 -0.01205164 0.1183627 -0.1045978 -0.01205164 -0.01109999 -0.2339678 -0.01215636 0.1185545 -0.1045144 -0.01215636 -0.01089876 -0.2338712 -0.01224315 0.1187544 -0.1044276 -0.01224315 -0.01068919 -0.2337716 -0.01231139 0.1189606 -0.104338 -0.01231139 -0.01047289 -0.2336696 -0.01236045 0.1191718 -0.1042463 -0.01236045 -0.01025146 -0.233566 -0.01239007 0.1193863 -0.1041531 -0.01239007 -0.01002657 -0.1051362 0.009799957 -0.01239997 -0.2346593 0.009799957 0.1171231 -0.2220371 -0.009799957 0.1432503 -0.09378677 -0.009799957 0.01499998 -0.223326 0.01079493 0.1405824 -0.2233071 0.01068919 0.1406216 -0.2232903 0.01058179 0.1406564 -0.2232757 0.01047289 0.1406866 -0.2232632 0.01036274 0.1407123 -0.223253 0.01025146 0.1407334 -0.2232451 0.01013934 0.1407499 -0.2232394 0.01002657 0.1407616 -0.223236 0.009913384 0.1407687 -0.2232348 0.009799957 0.1407711 -0.2232348 -0.009799957 0.1407711 -0.2220394 -0.01002681 0.1432456 -0.223236 -0.009913384 0.1407687 -0.2220462 -0.01025319 0.1432315 -0.2232394 -0.01002657 0.1407616 -0.2220576 -0.01047873 0.1432079 -0.2232451 -0.01013934 0.1407499 -0.2220735 -0.01070296 0.143175 -0.223253 -0.01025146 0.1407334 -0.2220939 -0.01092547 0.1431328 -0.2232632 -0.01036274 0.1407123 -0.2221187 -0.01114583 0.1430814 -0.2232757 -0.01047289 0.1406866 -0.222148 -0.01136362 0.1430208 -0.2232903 -0.01058179 0.1406564 -0.2221816 -0.0115785 0.1429513 -0.2233071 -0.01068919 0.1406216 -0.2222195 -0.01178991 0.1428729 -0.223326 -0.01079493 0.1405824 -0.2222616 -0.01199758 0.1427857 -0.2233471 -0.01089876 0.1405388 -0.2223078 -0.01220107 0.1426901 -0.2357126 -0.0115785 0.1149429 -0.2357462 -0.01136362 0.1148734 -0.2357754 -0.01114583 0.1148128 -0.2358003 -0.01092547 0.1147614 -0.2358207 -0.01070296 0.1147192 -0.2358366 -0.01047873 0.1146863 -0.235848 -0.01025319 0.1146627 -0.2358548 -0.01002681 0.1146486 -0.2358571 -0.009799957 0.1146439 -0.2358571 0.009799957 0.1146439 -0.2358548 0.01002681 0.1146486 -0.2346582 0.009913384 0.1171255 -0.235848 0.01025319 0.1146627 -0.2346548 0.01002657 0.1171326 -0.2358366 0.01047873 0.1146863 -0.2346491 0.01013934 0.1171443 -0.2358207 0.01070296 0.1147192 -0.2346411 0.01025146 0.1171607 -0.2358003 0.01092547 0.1147614 -0.234631 0.01036274 0.1171818 -0.2357754 0.01114583 0.1148128 -0.2346186 0.01047289 0.1172076 -0.2357462 0.01136362 0.1148734 -0.2346039 0.01058179 0.1172378 -0.2357126 0.0115785 0.1149429 -0.2345871 0.01068919 0.1172726 -0.2356747 0.01178991 0.1150213 -0.2345682 0.01079493 0.1173118 -0.2356326 0.01199758 0.1151084 -0.2345471 0.01089876 0.1173554 -0.2355864 0.01220107 0.1152041 -0.2223581 -0.01239997 0.142586 -0.2233701 -0.01100051 0.140491 -0.2224122 -0.01259392 0.1424738 -0.2233953 -0.01109999 0.1404389 -0.2224703 -0.01278257 0.1423536 -0.2234224 -0.01119697 0.1403828 -0.2225321 -0.01296555 0.1422256 -0.2234514 -0.01129126 0.1403227 -0.2225975 -0.01314246 0.1420903 -0.2234823 -0.01138275 0.1402587 -0.2226665 -0.01331305 0.1419476 -0.223515 -0.01147121 0.140191 -0.2227387 -0.0134769 0.141798 -0.2233471 0.01089876 0.1405388 -0.2233701 0.01100051 0.140491 -0.2233953 0.01109999 0.1404389 -0.2234224 0.01119697 0.1403828 -0.2234514 0.01129126 0.1403227 -0.2234823 0.01138275 0.1402587 -0.223515 0.01147121 0.140191 -0.2235495 0.0115565 0.1401197 -0.2235495 -0.0115565 0.1401197 -0.2235856 -0.01163846 0.1400449 -0.2228928 -0.01378339 0.1414791 -0.2236627 -0.0117917 0.1398855 -0.2230586 -0.01405954 0.1411359 -0.2237456 -0.01192975 0.1397139 -0.2232348 -0.01430332 0.1407711 -0.2238337 -0.01205164 0.1395314 -0.2234202 -0.01451277 0.1403874 -0.2239264 -0.01215636 0.1393396 -0.2236133 -0.0146864 0.1399878 -0.2240229 -0.01224315 0.1391398 -0.2238126 -0.01482278 0.1395752 -0.2241226 -0.01231139 0.1389335 -0.2240166 -0.01492094 0.1391529 -0.2242246 -0.01236045 0.1387224 -0.2242238 -0.01498019 0.138724 -0.2243282 -0.01239007 0.1385079 -0.2244325 -0.01499998 0.1382918 -0.2334616 -0.01499998 0.1196023 -0.2336704 -0.01498019 0.1191701 -0.2338775 -0.01492094 0.1187413 -0.2340816 -0.01482278 0.118319 -0.2342809 -0.0146864 0.1179064 -0.234474 -0.01451277 0.1175068 -0.2346593 -0.01430332 0.1171231 -0.2348356 -0.01405954 0.1167583 -0.2350014 -0.01378339 0.1164151 -0.2351555 -0.0134769 0.1160961 -0.2355362 0.01239997 0.1153082 -0.234524 0.01100051 0.1174032 -0.2354819 0.01259392 0.1154204 -0.2344989 0.01109999 0.1174553 -0.2354239 0.01278257 0.1155406 -0.2344717 0.01119697 0.1175113 -0.2353621 0.01296555 0.1156685 -0.2344427 0.01129126 0.1175715 -0.2352966 0.01314246 0.1158039 -0.2344118 0.01138275 0.1176354 -0.2352277 0.01331305 0.1159465 -0.2343791 0.01147121 0.1177031 -0.2351555 0.0134769 0.1160961 -0.2343447 0.0115565 0.1177744 -0.2343086 0.01163846 0.1178492 -0.2350014 0.01378339 0.1164151 -0.2342315 0.0117917 0.1180087 -0.2348356 0.01405954 0.1167583 -0.2341486 0.01192975 0.1181803 -0.2346593 0.01430332 0.1171231 -0.2340605 0.01205164 0.1183627 -0.234474 0.01451277 0.1175068 -0.2339678 0.01215636 0.1185545 -0.2342809 0.0146864 0.1179064 -0.2338712 0.01224315 0.1187544 -0.2340816 0.01482278 0.118319 -0.2337716 0.01231139 0.1189606 -0.2338775 0.01492094 0.1187413 -0.2336696 0.01236045 0.1191718 -0.2336704 0.01498019 0.1191701 -0.233566 0.01239007 0.1193863 -0.2334616 0.01239997 0.1196023 -0.2244325 0.01239997 0.1382918 -0.2243282 0.01239007 0.1385079 -0.2242246 0.01236045 0.1387224 -0.2241226 0.01231139 0.1389335 -0.2240229 0.01224315 0.1391398 -0.2239264 0.01215636 0.1393396 -0.2238337 0.01205164 0.1395314 -0.2237456 0.01192975 0.1397139 -0.2236627 0.0117917 0.1398855 -0.2235856 0.01163846 0.1400449 -0.2356747 -0.01178991 0.1150213 -0.2356326 -0.01199758 0.1151084 -0.2355864 -0.01220107 0.1152041 -0.2355362 -0.01239997 0.1153082 -0.2354819 -0.01259392 0.1154204 -0.2354239 -0.01278257 0.1155406 -0.2353621 -0.01296555 0.1156685 -0.2352966 -0.01314246 0.1158039 -0.2352277 -0.01331305 0.1159465 -0.09455615 -0.01378339 0.01314246 -0.09470528 -0.01405954 0.01278257 -0.09532296 -0.01192975 0.01129126 -0.1054438 0.01378339 -0.01314246 -0.1052947 0.01405954 -0.01278257 -0.104677 0.01192975 -0.01129126 -0.1061135 -0.01136362 -0.0147593 -0.1061398 -0.01114583 -0.01482278 -0.1061621 -0.01092547 -0.01487672 -0.1061804 -0.01070296 -0.01492094 -0.1061947 -0.01047873 -0.01495546 -0.106205 -0.01025319 -0.01498019 -0.1062111 -0.01002681 -0.01499503 -0.1062132 -0.009799957 -0.01499998 -0.1062132 0.009799957 -0.01499998 -0.1051352 0.009913384 -0.01239752 -0.1062111 0.01002681 -0.01499503 -0.1051321 0.01002657 -0.01239007 -0.106205 0.01025319 -0.01498019 -0.105127 0.01013934 -0.01237773 -0.1061947 0.01047873 -0.01495546 -0.1051198 0.01025146 -0.01236045 -0.1061804 0.01070296 -0.01492094 -0.1051107 0.01036274 -0.01233834 -0.1061621 0.01092547 -0.01487672 -0.1050995 0.01047289 -0.01231139 -0.0949136 0.01058179 0.01227962 -0.09490042 0.01047289 0.01231139 -0.09488928 0.01036274 0.01233834 -0.0948801 0.01025146 0.01236045 -0.09487295 0.01013934 0.01237773 -0.09486782 0.01002657 0.01239007 -0.09486478 0.009913384 0.01239752 -0.09486371 0.009799957 0.01239997 -0.09486371 -0.009799957 0.01239997 -0.09486478 -0.009913384 0.01239752 -0.0937888 -0.01002681 0.01499503 -0.09486782 -0.01002657 0.01239007 -0.093795 -0.01025319 0.01498019 -0.09487295 -0.01013934 0.01237773 -0.09380519 -0.01047873 0.01495546 -0.0948801 -0.01025146 0.01236045 -0.09381949 -0.01070296 0.01492094 -0.09488928 -0.01036274 0.01233834 -0.09383785 -0.01092547 0.01487672 -0.09490042 -0.01047289 0.01231139 -0.09540218 -0.01205164 0.01109999 -0.09486371 -0.01430332 0.01239997 -0.09548556 -0.01215636 0.01089876 -0.09503042 -0.01451277 0.01199758 -0.09557235 -0.01224315 0.01068919 -0.09520399 -0.0146864 0.0115785 -0.09566193 -0.01231139 0.01047289 -0.09538322 -0.01482278 0.01114583 -0.09575366 -0.01236045 0.01025146 -0.09556668 -0.01492094 0.01070296 -0.09584683 -0.01239007 0.01002657 -0.09575295 -0.01498019 0.01025319 -0.0959407 -0.01499998 0.009799957 -0.1040593 -0.01499998 -0.009799957 -0.104247 -0.01498019 -0.01025319 -0.1044333 -0.01492094 -0.01070296 -0.1046168 -0.01482278 -0.01114583 -0.1047959 -0.0146864 -0.0115785 -0.1049696 -0.01451277 -0.01199758 -0.1051362 -0.01430332 -0.01239997 -0.1052947 -0.01405954 -0.01278257 -0.1054438 -0.01378339 -0.01314246 -0.1045978 0.01205164 -0.01109999 -0.1051362 0.01430332 -0.01239997 -0.1045144 0.01215636 -0.01089876 -0.1049696 0.01451277 -0.01199758 -0.1044276 0.01224315 -0.01068919 -0.1047959 0.0146864 -0.0115785 -0.104338 0.01231139 -0.01047289 -0.1046168 0.01482278 -0.01114583 -0.1042463 0.01236045 -0.01025146 -0.1044333 0.01492094 -0.01070296 -0.1041531 0.01239007 -0.01002657 -0.104247 0.01498019 -0.01025319 -0.1040593 0.01239997 -0.009799957 -0.0959407 0.01239997 0.009799957 -0.09584683 0.01239007 0.01002657 -0.09575366 0.01236045 0.01025146 -0.09566193 0.01231139 0.01047289 -0.09557235 0.01224315 0.01068919 -0.09548556 0.01215636 0.01089876 -0.09540218 0.01205164 0.01109999 -0.09532296 0.01192975 0.01129126 -0.09524846 0.0117917 0.01147121 -0.09517914 0.01163846 0.01163846 -0.1055823 -0.0134769 -0.0134769 -0.1056473 -0.01331305 -0.01363384 -0.1057093 -0.01314246 -0.01378339 -0.1057681 -0.01296555 -0.01392543 -0.1058236 -0.01278257 -0.01405954 -0.1058759 -0.01259392 -0.0141856 -0.1059246 -0.01239997 -0.01430332 -0.1059698 -0.01220107 -0.0144124 -0.1060114 -0.01199758 -0.01451277 -0.1060492 -0.01178991 -0.01460415 -0.1060833 -0.0115785 -0.0146864 -0.09514665 0.0115565 0.0117169 -0.09511572 0.01147121 0.0117917 -0.09508627 0.01138275 0.01186269 -0.0950585 0.01129126 0.01192975 -0.09503239 0.01119697 0.01199281 -0.09500801 0.01109999 0.01205164 -0.09498542 0.01100051 0.01210618 -0.09496462 0.01089876 0.01215636 -0.09494572 0.01079493 0.01220208 -0.09492868 0.01068919 0.01224315 -0.1061398 0.01114583 -0.01482278 -0.1061135 0.01136362 -0.0147593 -0.1050864 0.01058179 -0.01227962 -0.1060833 0.0115785 -0.0146864 -0.1050713 0.01068919 -0.01224315 -0.1060492 0.01178991 -0.01460415 -0.1050543 0.01079493 -0.01220208 -0.1060114 0.01199758 -0.01451277 -0.1050353 0.01089876 -0.01215636 -0.1059698 0.01220107 -0.0144124 -0.1050145 0.01100051 -0.01210618 -0.1059246 0.01239997 -0.01430332 -0.1049919 0.01109999 -0.01205164 -0.1058759 0.01259392 -0.0141856 -0.1049675 0.01119697 -0.01199281 -0.1058236 0.01278257 -0.01405954 -0.1049414 0.01129126 -0.01192975 -0.1057681 0.01296555 -0.01392543 -0.1049137 0.01138275 -0.01186269 -0.1057093 0.01314246 -0.01378339 -0.1048843 0.01147121 -0.0117917 -0.1056473 0.01331305 -0.01363384 -0.1048533 0.0115565 -0.0117169 -0.1055823 0.0134769 -0.0134769 -0.1048208 0.01163846 -0.01163846 -0.1047515 0.0117917 -0.01147121 -0.09386014 -0.01114583 0.01482278 -0.09388649 -0.01136362 0.0147593 -0.0949136 -0.01058179 0.01227962 -0.09391665 -0.0115785 0.0146864 -0.09492868 -0.01068919 0.01224315 -0.09395074 -0.01178991 0.01460415 -0.09494572 -0.01079493 0.01220208 -0.09398859 -0.01199758 0.01451277 -0.09496462 -0.01089876 0.01215636 -0.09403014 -0.01220107 0.0144124 -0.09498542 -0.01100051 0.01210618 -0.09407532 -0.01239997 0.01430332 -0.09500801 -0.01109999 0.01205164 -0.09412407 -0.01259392 0.0141856 -0.09503239 -0.01119697 0.01199281 -0.09417629 -0.01278257 0.01405954 -0.0950585 -0.01129126 0.01192975 -0.0942319 -0.01296555 0.01392543 -0.09508627 -0.01138275 0.01186269 -0.09429067 -0.01314246 0.01378339 -0.09511572 -0.01147121 0.0117917 -0.09435266 -0.01331305 0.01363384 -0.09514665 -0.0115565 0.0117169 -0.09441763 -0.0134769 0.0134769 -0.09517914 -0.01163846 0.01163846 -0.09524846 -0.0117917 0.01147121</float_array>
          <technique_common>
            <accessor source="#trapezoid__9-mesh-positions-array" count="448" stride="3">
              <param name="X" type="float"/>
              <param name="Y" type="float"/>
              <param name="Z" type="float"/>
            </accessor>
          </technique_common>
        </source>
        <source id="trapezoid__9-mesh-normals">
          <float_array id="trapezoid__9-mesh-normals-array" count="2430">0 1 0 0.4777103 0.7372817 0.4777117 0.4304621 0.7933512 0.4304605 0.4304504 0.7933622 0.4304522 0.3799355 0.843383 0.3799397 0.37993 0.84339 0.3799298 0.3264846 0.8870268 0.3264836 0.3265088 0.8870087 0.3265084 0.270592 0.923884 0.2705892 0.2706041 0.9238756 0.2706056 0.2126342 0.9537152 0.2126357 0.2126279 0.9537186 0.2126272 0.1530389 0.9762992 0.1530327 0.1530485 0.9762942 0.1530545 0.09229081 0.9914458 0.09229117 0.09229737 0.991445 0.09229397 0.03084301 0.9990484 0.03084307 0.03084248 0.9990484 0.03084319 0.7069354 0.02163696 0.7069472 0.7069404 0.02190864 0.7069338 0.7055937 0.06545442 0.7055872 0.7055927 0.065454 0.7055882 0.7029043 0.1088183 0.7029113 0.7029075 0.1088178 0.7029082 0.6988787 0.1520909 0.6988826 0.698864 0.1522668 0.698859 0.6935195 0.1950901 0.6935204 0.6935321 0.1949999 0.6935332 0.6868478 0.2376365 0.6868544 0.6868281 0.237806 0.6868155 0.6788549 0.279814 0.6788669 0.678883 0.2797287 0.6788739 0.6695758 0.3214473 0.669582 0.6695636 0.3215234 0.6695576 0.6590272 0.362446 0.6590266 0.6590525 0.3623586 0.6590494 0.6471817 0.4028736 0.6471853 0.6472578 0.4026361 0.647257 0.6341906 0.4422628 0.6341971 0.6341767 0.4423276 0.6341658 0.619963 0.4809104 0.6199766 0.6198971 0.4811119 0.6198863 0.604477 0.518857 0.6044791 0.6045702 0.5186434 0.6045693 0.5879248 0.5555952 0.5879272 0.5879327 0.5555772 0.5879365 0.5702338 0.5913261 0.570234 0.5702147 0.591368 0.5702098 0.5514792 0.6258924 0.5514794 0.5514574 0.6259259 0.5514631 0.5316386 0.6593319 0.5316407 0.5316529 0.659314 0.5316488 0.5108264 0.6914593 0.5108234 0.5107432 0.6915787 0.510745 0.4777158 0.7372772 0.4777133 0 1 0 0.7069441 0.02169358 0.7069366 0.7069272 0.02205169 0.7069426 0.7056047 0.06526035 0.7055942 0.7055816 0.06561696 0.7055842 0.7029259 0.1086494 0.7029158 0.7028913 0.1090031 0.7028955 0.6988841 0.1520367 0.6988891 0.6988682 0.1522135 0.6988664 0.6935426 0.1948893 0.6935538 0.693502 0.1952381 0.6934963 0.6868377 0.2377359 0.6868301 0.6868237 0.2377334 0.6868451 0.6788905 0.2797041 0.6788765 0.678813 0.280034 0.678818 0.6695747 0.3214684 0.6695728 0.6696571 0.3211535 0.6696415 0.6589972 0.3625147 0.6590188 0.6590589 0.3623747 0.6590342 0.6472277 0.4027042 0.6472448 0.6472404 0.4027186 0.6472231 0.6341164 0.4424611 0.634133 0.6342694 0.4420379 0.6342751 0.6199221 0.4810584 0.6199028 0.6199594 0.4809175 0.6199748 0.6044702 0.5188721 0.604473 0.6045868 0.5186246 0.6045688 0.5879056 0.5556522 0.5878927 0.5878891 0.5556492 0.5879119 0.5702801 0.5912379 0.5702791 0.5702782 0.5912501 0.5702685 0.551501 0.6258656 0.551488 0.5513606 0.6260808 0.5513841 0.5317518 0.659169 0.5317296 0.5315434 0.6594663 0.5315693 0.5108662 0.6914124 0.510847 0.5107894 0.6915071 0.5107957 0.477666 0.7373387 0.4776682 0.4777135 0.7372767 0.4777163 0.4304659 0.7933489 0.4304612 0.4304475 0.793366 0.4304481 0.379913 0.8434042 0.3799153 0.3799818 0.8433457 0.3799765 0.3264537 0.8870469 0.3264595 0.3265661 0.8869679 0.3265619 0.2705845 0.923888 0.270583 0.2705893 0.9238841 0.2705914 0.2126331 0.9537158 0.2126346 0.2126366 0.9537155 0.2126321 0.153031 0.9763001 0.1530347 0.1530597 0.9762918 0.1530588 0.09229439 0.9914457 0.09228903 0.09230339 0.9914433 0.09230554 0.03084182 0.9990485 0.0308389 0.03084212 0.9990484 0.03084164 0.7071068 0 0.7071068 0.7071067 0 0.7071068 0.7071068 0 0.7071068 -0.9004283 0 0.4350047 -0.9004204 0 0.4350209 -0.9004302 0 0.4350005 -0.9004217 0 0.4350182 -0.9004294 1.86405e-4 0.4350023 -0.9004259 -3.72809e-4 0.4350094 -0.9004306 0 0.4349998 -0.9004305 0 0.4349999 -0.9004294 0 0.4350023 -0.9004284 3.72819e-4 0.4350043 -0.9004295 0 0.4350022 -0.9004238 0 0.4350138 -0.9004313 -1.86406e-4 0.434998 -0.9004282 3.72814e-4 0.4350045 -0.9004272 0 0.4350069 -0.9004306 -3.72815e-4 0.4349998 -0.9004307 0 0.4349994 -0.9004291 0 0.4350028 -0.9004284 1.86407e-4 0.4350045 -0.9004284 0 0.4350045 -0.9004351 -3.72812e-4 0.4349905 -0.9004317 1.86405e-4 0.4349976 -0.9004194 -3.72825e-4 0.4350229 -0.9004262 -3.72828e-4 0.4350087 -0.9004273 0 0.4350067 -0.9004328 0 0.4349952 -0.9004206 0 0.4350206 -0.9004436 0 0.4349728 -0.9004271 0 0.435007 -0.9004151 0 0.4350317 -0.9004168 0 0.4350282 -0.9004229 0 0.4350159 -0.9004263 0 0.4350087 -0.9004397 0 0.4349811 -0.9004114 -9.32055e-5 0.4350394 -0.900416 0 0.43503 -0.900435 0 0.4349905 -0.9004328 -1.86406e-4 0.4349952 -0.9004214 0 0.4350188 -0.9004373 3.72813e-4 0.4349857 -0.9004226 -1.86408e-4 0.4350161 -0.9004249 1.86406e-4 0.4350116 -0.9004216 -3.72816e-4 0.4350185 -0.9004322 1.86405e-4 0.4349964 -0.9004261 0 0.4350093 -0.9004295 0 0.435002 -0.9004294 0 0.4350022 -0.9004284 0 0.4350046 -0.900433 0 0.4349951 -0.9004282 -3.7281e-4 0.4350047 -0.9004193 0 0.4350233 -0.9004215 0 0.4350185 -0.9004328 3.72811e-4 0.4349952 -0.9004337 0 0.4349931 -0.9004307 -3.7283e-4 0.4349992 -0.9004168 3.72805e-4 0.4350283 -0.9004405 1.86398e-4 0.4349793 -0.9004217 -3.72826e-4 0.4350182 -0.9004428 0 0.4349746 -0.9004385 9.30253e-5 0.4349834 -0.9004637 -1.8709e-4 0.4349313 -0.900426 9.3024e-5 0.4350094 -0.9004037 0 0.4350555 -0.9004408 -9.30255e-5 0.4349787 -0.9004328 0 0.4349952 -0.9004313 0 0.4349982 -0.9004174 0 0.4350271 -0.9004439 9.30211e-5 0.4349723 -0.9004145 0 0.4350331 -0.9004319 0 0.4349969 -0.9004259 -1.87121e-4 0.4350094 -0.9004427 9.30209e-5 0.4349746 -0.900424 0 0.4350134 -0.9004114 9.32055e-5 0.4350394 -0.9004459 0 0.4349681 -0.9004473 0 0.4349651 -0.900406 0 0.4350506 -0.9004248 -9.3202e-5 0.4350118 -0.9004374 0 0.4349858 -0.9004473 9.31995e-5 0.4349651 -0.9004203 0 0.4350212 -0.9004214 -1.86403e-4 0.4350188 -0.9004317 0 0.4349976 -0.9004197 9.32112e-5 0.4350222 -0.9004244 0 0.4350128 -0.9004493 0 0.4349611 -0.9004374 -1.87123e-4 0.4349856 -0.9004129 0 0.4350365 -0.9004404 0 0.4349796 -0.9004139 9.32975e-5 0.4350345 -0.900435 0 0.4349908 -0.9004184 0 0.4350249 -0.9004147 0 0.4350326 -0.9004503 -9.32819e-5 0.4349589 -0.900421 0 0.4350197 -0.9004122 0 0.435038 -0.9004238 0 0.4350137 -0.9004589 4.66414e-5 0.4349413 -0.9004062 1.16621e-5 0.4350504 -0.9004241 0 0.4350132 -0.9004342 0 0.4349924 -0.9004486 0 0.4349625 -0.9004067 2.68775e-6 0.4350491 -0.9004542 0 0.434951 -0.9004353 5.83093e-6 0.4349898 -0.9004443 0 0.4349716 -0.900429 0 0.4350031 -0.9004287 0 0.4350037 -0.9004321 0 0.4349967 -0.9004198 -2.33221e-5 0.4350221 -0.9004276 -2.33235e-5 0.4350062 -0.9004193 0 0.4350232 -0.9004312 0 0.4349985 -0.9004133 0 0.4350356 -0.9004355 -4.6645e-5 0.4349896 -0.9004469 0 0.4349659 -0.9004215 0 0.4350185 -0.9004189 0 0.4350239 -0.9004204 0 0.4350209 -0.9004509 9.32916e-5 0.4349577 -0.9004335 4.66473e-5 0.4349937 -0.9004327 -9.32897e-5 0.4349955 -0.9004253 0 0.4350109 -0.9004261 9.32939e-5 0.4350091 -0.9004351 0 0.4349905 -0.9004209 9.30331e-5 0.4350199 -0.9004282 0 0.4350047 -0.900426 0 0.4350094 -0.900439 1.87104e-4 0.4349822 -0.9004351 1.87123e-4 0.4349904 -0.9004396 -9.30254e-5 0.4349811 -0.9004207 0 0.4350202 -0.900424 0 0.4350134 -0.9004489 0 0.434962 -0.9004248 9.30239e-5 0.4350117 -0.900435 -9.30249e-5 0.4349905 -0.9004031 0 0.4350568 -0.9004481 1.8639e-4 0.4349634 -0.9004318 -4.66472e-5 0.4349973 -0.9004293 9.32894e-5 0.4350026 -0.9004158 -4.66464e-5 0.4350304 -0.9004361 0 0.4349884 -0.9004338 4.66473e-5 0.4349931 -0.9004315 0 0.4349979 -0.9004199 0 0.4350221 -0.9004526 -9.32918e-5 0.4349542 -0.9004352 1.16613e-5 0.4349902 -0.9004476 0 0.4349648 -0.9004224 0 0.4350168 -0.9004312 -2.33224e-5 0.4349985 -0.9004278 9.52073e-6 0.4350057 -0.9004188 0 0.4350241 -0.9004319 1.16612e-5 0.4349968 -0.90042 0 0.4350218 -0.9004288 0 0.4350035 -0.9004289 0 0.4350033 -0.9004266 -1.16623e-5 0.4350081 -0.9004244 0 0.4350126 -0.9004193 -2.33245e-5 0.4350232 -0.900443 0 0.4349743 -0.9004309 0 0.4349991 -0.900415 0 0.4350321 -0.9004064 -4.66483e-5 0.4350498 -0.9004324 0 0.434996 -0.9004418 -9.32907e-5 0.4349766 -0.9004127 0 0.4350368 -0.9004327 0 0.4349955 -0.9004151 9.32976e-5 0.4350321 -0.9004266 -4.6647e-5 0.4350079 -0.900435 9.329e-5 0.4349908 -0.9004276 0 0.4350058 -0.9004069 6.99096e-5 0.4350487 -0.9004106 0 0.4350411 -0.9004297 0 0.4350017 -0.9004237 0 0.4350141 -0.9004337 -9.31981e-5 0.4349935 -0.900416 -1.86412e-4 0.43503 -0.9004123 0 0.4350377 -0.9004439 9.31992e-5 0.4349722 -0.9004511 0 0.4349575 -0.9004225 -9.32018e-5 0.4350165 -0.90041 -1.86401e-4 0.4350425 -0.9004481 -1.8639e-4 0.4349634 -0.9004254 1.16616e-5 0.4350104 0.9238776 0 -0.3826881 0.9238817 0 -0.3826783 0.9238766 1.82375e-4 -0.3826907 0.9238818 0 -0.3826782 0.9238784 0 -0.3826865 0.9238826 -1.82376e-4 -0.3826761 0.9238785 9.11883e-5 -0.3826859 0.9238769 1.82377e-4 -0.3826899 0.9238789 0 -0.3826849 0.9238802 0 -0.382682 0.9238794 -9.11885e-5 -0.3826838 0.9238781 1.82376e-4 -0.3826869 0.9238794 0 -0.3826841 0.9238811 0 -0.3826797 0.9238786 0 -0.3826857 0.9238791 0 -0.3826847 0.923878 0 -0.3826872 0.9238795 -9.11884e-5 -0.3826835 0.9238805 0 -0.3826811 0.9238792 -1.82377e-4 -0.3826845 0.9238777 0 -0.3826879 0.9238811 0 -0.38268 0.9238798 0 -0.382683 0.9238805 0 -0.3826811 0.9238826 0 -0.3826761 0.9238767 0 -0.3826903 0.9238818 9.11885e-5 -0.3826782 0.9238773 -4.55942e-5 -0.3826889 0.9238786 0 -0.3826858 0.9238816 0 -0.3826786 0.9238809 0 -0.3826802 0.9238789 -4.5594e-5 -0.3826849 0.9238781 0 -0.3826869 0.9238794 0 -0.3826838 0.9238842 0 -0.3826723 0.9238794 9.11885e-5 -0.3826841 0.9238811 -1.82378e-4 -0.3826797 0.92388 0 -0.3826824 0.9238786 9.11882e-5 -0.3826857 0.9238801 0 -0.3826823 0.9238762 0 -0.3826918 0.9238805 -4.55942e-5 -0.3826811 0.9238831 1.82378e-4 -0.3826748 0.9238777 -4.5594e-5 -0.3826879 0.9238811 -9.11876e-5 -0.38268 0.9238808 4.55942e-5 -0.3826806 0.9238786 0 -0.3826861 0.9238823 0 -0.3826767 0.923882 0 -0.3826777 0.9238731 4.56372e-5 -0.382699 0.923877 -1.14094e-5 -0.3826897 0.9238812 0 -0.3826795 0.9238812 0 -0.3826793 0.9238842 0 -0.3826723 0.9238798 0 -0.3826831 0.92388 0 -0.3826823 0.9238811 0 -0.3826799 0.9238716 0 -0.3827027 0.9238762 -1.42617e-5 -0.3826914 0.9238807 1.14094e-5 -0.3826808 0.9238797 0 -0.382683 0.9238796 0 -0.3826833 0.9238795 0 -0.3826835 0.9238797 -2.85236e-6 -0.382683 0.9238809 1.06964e-6 -0.3826802 0.9238818 -5.7047e-6 -0.382678 0.9238799 1.14095e-5 -0.3826827 0.9238757 0 -0.3826927 0.9238744 -1.14092e-5 -0.3826957 0.9238845 -1.14094e-5 -0.3826716 0.9238814 2.28189e-5 -0.3826791 0.9238767 0 -0.3826905 0.9238818 -2.28189e-5 -0.3826779 0.9238821 0 -0.3826775 0.923883 0 -0.3826751 0.9238763 0 -0.3826913 0.9238723 0 -0.382701 0.9238822 0 -0.3826771 0.9238803 4.56378e-5 -0.3826816 0.9238814 4.56379e-5 -0.3826791 0.9238772 0 -0.3826893 0.9238833 0 -0.3826747 0.9238815 0 -0.3826787 0.9238768 -1.14094e-5 -0.3826903 0.9238741 0 -0.3826966 0.9238845 1.14094e-5 -0.3826715 0.9238796 0 -0.3826836 0.9238759 -1.14094e-5 -0.3826924 0.9238815 2.85235e-6 -0.3826786 0.9238702 7.88848e-6 -0.3827061 0.9238765 5.70467e-6 -0.3826908 0.9238799 0 -0.3826827 0.9238812 0 -0.3826797 0.9238855 -1.14094e-5 -0.382669 0.9238792 0 -0.3826844 0.9238808 0 -0.3826803 0.9238814 0 -0.3826789 0.923877 0 -0.3826897 0.923883 2.28187e-5 -0.3826751 0.9238814 0 -0.3826791 0.9238803 0 -0.3826816 0.923882 -9.22406e-5 -0.3826775 0.9238809 0 -0.3826802 0.9238813 0 -0.3826792 0.9238727 4.5507e-5 -0.3827 0.9238864 -9.15362e-5 -0.3826671 0.923882 0 -0.3826778 0.9238826 9.1537e-5 -0.382676 0.9238788 -4.55073e-5 -0.3826855 0.9238762 0 -0.3826915 0.9238801 0 -0.3826822 0.9238746 9.15362e-5 -0.3826956 0.9238867 -9.15374e-5 -0.3826662 0.9238749 4.55074e-5 -0.3826947 0.9238826 -9.1537e-5 -0.382676 0.9238837 4.55076e-5 -0.3826733 0.9238806 0 -0.3826809 0.923877 -4.55075e-5 -0.3826899 0.9238767 0 -0.3826907 0.9238789 0 -0.3826851 0.9238806 -1.83074e-4 -0.3826809 0.9238824 0 -0.3826768 0.9238767 -6.8391e-5 -0.3826906 0.9238811 -9.22405e-5 -0.38268 0.9238804 0 -0.3826814 0.9238793 -9.15389e-5 -0.3826841 0.9238807 4.55074e-5 -0.3826806 0.9238722 0 -0.3827013 0.9238829 0 -0.3826754 0.9238798 4.55074e-5 -0.382683 0.9238762 9.15352e-5 -0.3826915 0.9238811 -4.5508e-5 -0.3826798 0.9238867 0 -0.3826662 0.9238749 0 -0.3826947 0.9238725 0 -0.3827004 0.9238847 0 -0.3826712 0.9238778 -4.55073e-5 -0.3826879 0.9238829 4.55078e-5 -0.3826754 0.9238767 -9.15364e-5 -0.3826907 0.9238799 0 -0.3826826 0.9238826 0 -0.382676 0.9238773 0 -0.3826889 0.9238817 -1.42482e-5 -0.3826785 0.9238792 0 -0.3826845 0.9238766 -1.82375e-4 -0.3826907 0.9238767 9.1188e-5 -0.3826903 0.9238809 1.82378e-4 -0.3826802 0.9238823 0 -0.3826771 0.923879 0 -0.3826851 0.9238786 -4.55938e-5 -0.3826858 0.9238789 1.82378e-4 -0.382685 0.9238837 0 -0.3826733 0.9238849 9.11894e-5 -0.3826704 0.9238758 -4.55939e-5 -0.3826928 0.9238749 0 -0.3826948 0.9238818 -4.55942e-5 -0.3826782 0.9238766 -9.11874e-5 -0.3826907 0.9238799 4.55944e-5 -0.3826826 0.9238826 -9.1188e-5 -0.3826761 0.9238787 4.55941e-5 -0.3826854 0.9238846 9.11882e-5 -0.3826712 0.9238827 0 -0.3826757 0.9238813 -9.11901e-5 -0.3826794 0.9238728 0 -0.3827 0.923879 -9.11888e-5 -0.3826851 0.9238817 2.28188e-5 -0.3826783 0.9238803 -4.56378e-5 -0.3826816 0.923873 -1.71141e-5 -0.3826991 0.923879 9.11888e-5 -0.3826851 0.9238796 0 -0.3826834 0.9238837 -4.5594e-5 -0.3826737 0.9238809 9.1189e-5 -0.3826802 0.9238787 0 -0.3826854 0.9238728 9.11882e-5 -0.3826996 0.9238849 0 -0.3826704 0.9238758 0 -0.3826928 0.9238786 -9.11876e-5 -0.3826858 0.9238846 0 -0.3826712 0.9238725 0 -0.3827005 0.9238798 4.55941e-5 -0.382683 0.9238769 0 -0.3826899 0.9238812 2.28188e-5 -0.3826795 0.9238801 -1.14095e-5 -0.3826825 -0.4776934 0.737305 -0.4776928 -0.4305019 0.7933066 -0.4305029 -0.4304567 0.7933526 -0.4304636 -0.3799092 0.8434124 -0.3799007 -0.3799268 0.8433932 -0.3799259 -0.3265131 0.8870075 -0.326507 -0.3265045 0.8870101 -0.3265085 -0.2705944 0.9238814 -0.2705956 -0.2706121 0.923872 -0.2706098 -0.2126049 0.9537296 -0.2126003 -0.2126198 0.9537218 -0.2126212 -0.153047 0.9762941 -0.1530573 -0.153059 0.9762922 -0.153057 -0.09229183 0.9914461 -0.09228706 -0.09229916 0.9914439 -0.09230381 -0.03084427 0.9990482 -0.03084456 -0.03084677 0.9990481 -0.03084456 -0.7069461 0.02188831 -0.7069287 -0.7069267 0.02170681 -0.7069538 -0.7055947 0.06548315 -0.7055835 -0.7055984 0.06530243 -0.7055966 -0.702904 0.1088967 -0.7028994 -0.7028861 0.1090743 -0.7028897 -0.6988946 0.1519537 -0.6988967 -0.6988831 0.1521311 -0.6988695 -0.693523 0.1949991 -0.6935425 -0.6935068 0.1951739 -0.6935095 -0.6868484 0.2376918 -0.6868347 -0.6868655 0.2375144 -0.686879 -0.6788347 0.2800025 -0.6788093 -0.6788234 0.2799945 -0.6788239 -0.6695422 0.3215963 -0.6695439 -0.6695809 0.3214298 -0.6695851 -0.6590582 0.3623235 -0.659063 -0.6590638 0.3623212 -0.6590588 -0.6472459 0.4026538 -0.6472578 -0.6471625 0.402957 -0.6471526 -0.6341982 0.4422507 -0.634198 -0.6342004 0.4422444 -0.6342002 -0.619904 0.4810988 -0.6198895 -0.6200021 0.4808036 -0.6200205 -0.6044716 0.518877 -0.6044673 -0.6044757 0.5188694 -0.6044697 -0.5879242 0.5556086 -0.5879152 -0.5879803 0.5554682 -0.5879918 -0.5703262 0.591144 -0.5703305 -0.5702136 0.5913746 -0.570204 -0.5514512 0.6259359 -0.551458 -0.5514576 0.6259272 -0.5514616 -0.5316152 0.6593777 -0.5316075 -0.531559 0.6594709 -0.5315481 -0.5108312 0.6914384 -0.5108469 -0.510778 0.6915277 -0.5107793 -0.4777221 0.7372725 -0.4777142 -0.7071068 0 -0.7071068 -0.7069461 -0.02188831 -0.7069287 -0.7069266 -0.02170681 -0.7069538 -0.7055891 -0.06548261 -0.7055892 -0.705604 -0.06530296 -0.705591 -0.702904 -0.1088967 -0.7028994 -0.7028862 -0.1090744 -0.7028897 -0.698889 -0.1519525 -0.6989025 -0.6988886 -0.1521323 -0.6988638 -0.6934985 -0.1951731 -0.6935181 -0.6935313 -0.1949999 -0.693534 -0.686878 -0.2375211 -0.6868642 -0.6868359 -0.2376852 -0.6868495 -0.6787952 -0.280167 -0.678781 -0.6788629 -0.27983 -0.6788523 -0.6695761 -0.3214317 -0.6695892 -0.6695471 -0.3215944 -0.6695399 -0.6590533 -0.3623208 -0.6590694 -0.6590687 -0.3623239 -0.6590524 -0.6472035 -0.4028083 -0.6472041 -0.6472049 -0.4028026 -0.6472063 -0.6342027 -0.442254 -0.6341913 -0.6341959 -0.4422411 -0.6342068 -0.619958 -0.4809598 -0.6199434 -0.6199481 -0.4809427 -0.6199666 -0.6044675 -0.5188735 -0.6044745 -0.6044799 -0.518873 -0.6044626 -0.5879794 -0.55548 -0.5879817 -0.5879251 -0.5555969 -0.5879253 -0.5703262 -0.591144 -0.5703305 -0.5702136 -0.5913746 -0.5702041 -0.5514546 -0.6259398 -0.5514501 -0.5514541 -0.6259232 -0.5514694 -0.5315549 -0.6594839 -0.5315359 -0.5316191 -0.6593647 -0.5316196 -0.5108312 -0.6914384 -0.5108469 -0.510778 -0.6915277 -0.5107793 -0.4777425 -0.7372446 -0.4777369 -0.4776615 -0.7373462 -0.477661 -0.43047 -0.7933382 -0.4304766 -0.4304886 -0.793321 -0.4304899 -0.3799374 -0.8433845 -0.3799345 -0.3798987 -0.8434211 -0.3798921 -0.3265131 -0.8870075 -0.326507 -0.3265045 -0.8870101 -0.3265085 -0.270617 -0.9238682 -0.2706182 -0.2705895 -0.9238852 -0.2705872 -0.212623 -0.9537204 -0.2126241 -0.2126018 -0.953731 -0.2125974 -0.1530742 -0.9762864 -0.1530788 -0.1530318 -0.9762999 -0.1530355 -0.0923084 -0.991443 -0.09230357 -0.09228259 -0.9914469 -0.09228724 -0.03084701 -0.999048 -0.03084737 -0.03084397 -0.9990484 -0.03084176 0 -1 0 0 -1 0 0.4777135 -0.7372767 0.4777163 0.4304353 -0.793382 0.4304306 0.4304781 -0.7933328 0.4304788 0.3799425 -0.8433801 0.3799393 0.3799523 -0.8433697 0.3799526 0.3265062 -0.8870103 0.3265064 0.3265135 -0.8870046 0.3265149 0.2706069 -0.9238749 0.2706055 0.2705669 -0.9238973 0.2705689 0.212615 -0.9537239 0.2126164 0.2126548 -0.9537073 0.2126503 0.1530444 -0.9762959 0.1530481 0.1530463 -0.976296 0.1530454 0.09229439 -0.9914457 0.09228903 0.09230339 -0.9914433 0.09230554 0.03083908 -0.9990487 0.0308361 0.03084486 -0.9990482 0.03084444 0.7069387 -0.02205199 0.7069311 0.7069327 -0.02169328 0.7069481 0.7056047 -0.06526035 0.7055942 0.7055816 -0.06561696 0.7055842 0.7029259 -0.1086494 0.7029158 0.7028913 -0.1090031 0.7028955 0.6988841 -0.1520367 0.6988891 0.6988682 -0.1522135 0.6988664 0.693548 -0.1948909 0.693548 0.6934967 -0.1952365 0.6935021 0.6868378 -0.2377359 0.6868301 0.6868237 -0.2377333 0.6868451 0.6788905 -0.2797042 0.6788765 0.6788131 -0.280034 0.678818 0.6696133 -0.3213077 0.6696114 0.6696186 -0.3213144 0.6696029 0.6589973 -0.3625147 0.6590188 0.6590589 -0.3623747 0.6590342 0.6472324 -0.402707 0.6472382 0.6472356 -0.4027157 0.6472296 0.6341667 -0.442317 0.6341834 0.6342192 -0.4421822 0.6342248 0.6199177 -0.4810551 0.6199098 0.6199637 -0.4809209 0.6199678 0.6045265 -0.518741 0.6045292 0.6045306 -0.5187556 0.6045126 0.5878393 -0.5557688 0.5878487 0.5879554 -0.5555326 0.5879558 0.5702838 -0.5912417 0.5702716 0.5702746 -0.5912463 0.5702761 0.5514323 -0.6259669 0.5514417 0.5514293 -0.6259795 0.5514304 0.5316888 -0.6592704 0.5316668 0.5316063 -0.659365 0.5316321 0.5108029 -0.6915059 0.5107837 0.5108528 -0.6914135 0.5108591 0.4776579 -0.7373478 0.4776623 0.7069354 -0.02181798 0.7069415 0.7069403 -0.02172756 0.7069394 0.705595 -0.065364 0.7055943 0.7055914 -0.06554436 0.7055812 0.7029001 -0.1089082 0.7029015 0.7029116 -0.1087279 0.7029179 0.6988692 -0.1521793 0.698873 0.6988736 -0.1521784 0.6988688 0.6935291 -0.1950022 0.6935356 0.6935226 -0.1950879 0.6935181 0.6868331 -0.2377219 0.6868396 0.6868428 -0.2377206 0.6868304 0.678872 -0.2797306 0.6788842 0.6788659 -0.2798121 0.6788567 0.6695758 -0.3214473 0.6695819 0.6695636 -0.3215234 0.6695576 0.6590488 -0.3623673 0.6590483 0.6590309 -0.3624373 0.6590278 0.6472053 -0.4027978 0.6472089 0.6472342 -0.4027119 0.6472334 0.6341906 -0.4422628 0.6341971 0.6341767 -0.4423276 0.6341658 0.6198842 -0.4811208 0.6198922 0.6199759 -0.4809015 0.6199707 0.6045358 -0.5187266 0.6045323 0.6045113 -0.518774 0.604516 0.5879248 -0.5555952 0.5879272 0.5879327 -0.5555772 0.5879365 0.5702375 -0.5913299 0.5702264 0.570211 -0.5913642 0.5702174 0.5514463 -0.6259455 0.5514521 0.5514904 -0.6258728 0.5514904 0.5316402 -0.659334 0.5316367 0.5316513 -0.659312 0.5316529 0.510793 -0.6915045 0.5107955 0.5107765 -0.6915335 0.5107728 0.4777118 -0.7372828 0.4777088 0.4777103 -0.7372817 0.4777117 0.4304771 -0.7933335 0.4304783 0.4304355 -0.7933798 0.4304344 0.3799362 -0.8433849 0.3799349 0.3799292 -0.8433881 0.3799346 0.3264973 -0.8870163 0.3264992 0.326496 -0.8870191 0.3264927 0.2706032 -0.9238772 0.2706006 0.2705928 -0.9238823 0.2705942 0.2126252 -0.95372 0.2126239 0.212637 -0.953714 0.2126391 0.1530388 -0.9762988 0.1530355 0.1530485 -0.9762948 0.1530518 0.09229087 -0.9914463 0.09228557 0.09229725 -0.9914444 0.09229958 0.03084158 -0.9990483 0.0308445 0.03084385 -0.9990484 0.03084176 0 -1 0 -0.4777438 -0.7372424 -0.477739 -0.4304589 -0.7933534 -0.4304596 -0.4304382 -0.7933731 -0.4304441 -0.3799149 -0.8434056 -0.3799102 -0.3799486 -0.843372 -0.3799512 -0.3264973 -0.8870168 -0.3264979 -0.3265125 -0.8870068 -0.3265098 -0.2705845 -0.9238876 -0.2705844 -0.2705949 -0.9238826 -0.2705906 -0.2126494 -0.9537087 -0.2126503 -0.2126283 -0.9537169 -0.2126342 -0.1530328 -0.9763005 -0.1530305 -0.1530431 -0.976297 -0.1530426 -0.09230226 -0.9914436 -0.09230291 -0.09229582 -0.991445 -0.09229457 -0.03084146 -0.9990484 -0.0308417 -0.030842 -0.9990484 -0.03084164 -0.7069353 -0.0217626 -0.7069435 -0.7069402 -0.02176278 -0.7069385 -0.7055876 -0.06555652 -0.7055838 -0.7055981 -0.06528919 -0.7055981 -0.7029007 -0.1089034 -0.7029017 -0.7029003 -0.1089043 -0.702902 -0.6988743 -0.1521615 -0.6988717 -0.6988848 -0.1520761 -0.6988797 -0.6934956 -0.1952363 -0.6935032 -0.693537 -0.1949824 -0.6935333 -0.6868259 -0.2377822 -0.6868259 -0.6868388 -0.2377018 -0.6868408 -0.6788783 -0.2797173 -0.6788833 -0.6788489 -0.2798907 -0.6788412 -0.669595 -0.3213703 -0.6695997 -0.6695761 -0.3214591 -0.6695759 -0.6590401 -0.3624001 -0.659039 -0.6589961 -0.3625656 -0.6589919 -0.6472282 -0.4027161 -0.6472368 -0.6472277 -0.402729 -0.6472294 -0.6341546 -0.4423848 -0.634148 -0.6341728 -0.4423239 -0.6341723 -0.6199772 -0.4808804 -0.6199858 -0.6199484 -0.4809666 -0.6199477 -0.6044898 -0.5188335 -0.6044865 -0.604538 -0.5187176 -0.6045379 -0.5879283 -0.5555925 -0.5879263 -0.5879791 -0.5554865 -0.5879757 -0.5702166 -0.5913509 -0.5702256 -0.5702732 -0.5912587 -0.5702647 -0.5514405 -0.6259614 -0.5514398 -0.5514278 -0.6259788 -0.5514327 -0.5315985 -0.6593973 -0.5315998 -0.5317115 -0.6592144 -0.5317134 -0.5107128 -0.6916254 -0.5107121 -0.5108268 -0.6914604 -0.5108214 -0.477696 -0.7372981 -0.4777008 -0.7071068 0 -0.7071068 -0.7071068 0 -0.7071068 -0.7069352 0.0217626 -0.7069435 -0.7069402 0.02176278 -0.7069385 -0.705589 0.06546711 -0.7055908 -0.7055969 0.0653786 -0.7055912 -0.7028938 0.1089919 -0.7028948 -0.7029072 0.1088158 -0.7029088 -0.698881 0.1520735 -0.6988841 -0.6988781 0.1521642 -0.6988673 -0.6935105 0.1951509 -0.6935124 -0.6935222 0.1950678 -0.693524 -0.6868233 0.2377814 -0.6868289 -0.6868414 0.2377027 -0.6868379 -0.6788809 0.2797183 -0.6788802 -0.6788463 0.2798896 -0.6788443 -0.6695782 0.3214518 -0.6695774 -0.6695929 0.3213776 -0.6695983 -0.6590212 0.3624792 -0.6590144 -0.659015 0.3624865 -0.6590166 -0.6472305 0.4027176 -0.6472335 -0.6472253 0.4027275 -0.6472326 -0.6342048 0.4422407 -0.6341983 -0.6341226 0.4424679 -0.634122 -0.6199505 0.4809494 -0.6199591 -0.6199752 0.4808977 -0.6199744 -0.6045179 0.518768 -0.6045145 -0.6045099 0.5187831 -0.6045097 -0.5879264 0.5555907 -0.58793 -0.587981 0.5554883 -0.5879721 -0.5702166 0.5913509 -0.5702257 -0.5702732 0.5912587 -0.5702647 -0.5514079 0.6260139 -0.5514127 -0.5514604 0.6259262 -0.5514597 -0.5316299 0.6593466 -0.5316313 -0.5316802 0.6592651 -0.531682 -0.5107458 0.6915807 -0.5107396 -0.5107938 0.6915052 -0.5107938 -0.4777095 0.7372804 -0.4777147 -0.477728 0.7372629 -0.4777233 -0.4304426 0.7933682 -0.4304488 -0.4304547 0.7933585 -0.4304549 -0.3799436 0.8433797 -0.3799389 -0.3799199 0.8433979 -0.3799224 -0.3264973 0.8870168 -0.3264979 -0.3265125 0.8870068 -0.3265098 -0.2705959 0.9238817 -0.2705929 -0.2705835 0.9238885 -0.270582 -0.2126309 0.9537156 -0.2126374 -0.2126467 0.9537099 -0.212647 -0.1530395 0.976298 -0.1530399 -0.1530365 0.9762996 -0.1530332 -0.09229815 0.9914442 -0.0923016 -0.09229993 0.9914445 -0.09229594 -0.03084284 0.9990484 -0.03084307 -0.03084057 0.9990484 -0.03084021</float_array>
          <technique_common>
            <accessor source="#trapezoid__9-mesh-normals-array" count="810" stride="3">
              <param name="X" type="float"/>
              <param name="Y" type="float"/>
              <param name="Z" type="float"/>
            </accessor>
          </technique_common>
        </source>
        <vertices id="trapezoid__9-mesh-vertices">
          <input semantic="POSITION" source="#trapezoid__9-mesh-positions"/>
        </vertices>
        <triangles count="896">
          <input semantic="VERTEX" source="#trapezoid__9-mesh-vertices" offset="0"/>
          <input semantic="NORMAL" source="#trapezoid__9-mesh-normals" offset="1"/>
          <p>0 0 1 0 2 0 1 0 3 0 2 0 4 1 5 1 6 1 5 2 7 2 6 2 6 3 7 3 8 3 7 4 9 4 8 4 8 5 9 5 10 5 9 6 11 6 10 6 10 7 11 7 12 7 11 8 13 8 12 8 12 9 13 9 14 9 13 10 15 10 14 10 14 11 15 11 16 11 15 12 17 12 16 12 16 13 17 13 18 13 17 14 19 14 18 14 18 15 19 15 20 15 19 16 2 16 20 16 20 17 2 17 3 17 21 18 22 18 23 18 22 19 24 19 23 19 23 20 24 20 25 20 24 21 26 21 25 21 25 22 26 22 27 22 26 23 28 23 27 23 27 24 28 24 29 24 28 25 30 25 29 25 29 26 30 26 31 26 30 27 32 27 31 27 31 28 32 28 33 28 32 29 34 29 33 29 33 30 34 30 35 30 34 31 36 31 35 31 35 32 36 32 37 32 36 33 38 33 37 33 37 34 38 34 39 34 38 35 40 35 39 35 39 36 40 36 41 36 40 37 42 37 41 37 41 38 42 38 43 38 42 39 44 39 43 39 43 40 44 40 45 40 44 41 46 41 45 41 45 42 46 42 47 42 46 43 48 43 47 43 47 44 48 44 49 44 48 45 50 45 49 45 49 46 50 46 51 46 50 47 52 47 51 47 51 48 52 48 53 48 52 49 54 49 53 49 53 50 54 50 55 50 54 51 56 51 55 51 55 52 56 52 4 52 56 53 57 53 4 53 4 54 57 54 5 54 58 0 59 0 60 0 59 55 61 55 60 55 62 56 63 56 64 56 63 57 65 57 64 57 64 58 65 58 66 58 65 59 67 59 66 59 66 60 67 60 68 60 67 61 69 61 68 61 68 62 69 62 70 62 69 63 71 63 70 63 70 64 71 64 72 64 71 65 73 65 72 65 72 66 73 66 74 66 73 67 75 67 74 67 74 68 75 68 76 68 75 69 77 69 76 69 76 70 77 70 78 70 77 71 79 71 78 71 78 72 79 72 80 72 79 73 81 73 80 73 80 74 81 74 82 74 81 75 83 75 82 75 82 76 83 76 84 76 83 77 85 77 84 77 84 78 85 78 86 78 85 79 87 79 86 79 86 80 87 80 88 80 87 81 89 81 88 81 88 82 89 82 90 82 89 83 91 83 90 83 90 84 91 84 92 84 91 85 93 85 92 85 92 86 93 86 94 86 93 87 95 87 94 87 94 88 95 88 96 88 95 89 97 89 96 89 96 90 97 90 98 90 97 91 99 91 98 91 99 92 100 92 98 92 98 93 100 93 101 93 100 94 102 94 101 94 101 95 102 95 103 95 102 96 104 96 103 96 103 97 104 97 105 97 104 98 106 98 105 98 105 99 106 99 107 99 106 100 108 100 107 100 107 101 108 101 109 101 108 102 110 102 109 102 109 103 110 103 111 103 110 104 112 104 111 104 111 105 112 105 113 105 112 106 114 106 113 106 113 107 114 107 115 107 114 108 61 108 115 108 115 109 61 109 59 109 62 110 116 110 63 110 116 111 117 111 63 111 118 112 119 112 21 112 119 110 22 110 21 110 120 113 121 113 37 113 37 114 121 114 35 114 121 115 122 115 35 115 35 113 122 113 33 113 122 116 123 116 33 116 33 117 123 117 31 117 123 118 124 118 31 118 31 119 124 119 29 119 124 120 125 120 29 120 29 121 125 121 27 121 125 122 126 122 27 122 27 123 126 123 25 123 126 124 127 124 25 124 25 125 127 125 23 125 127 126 128 126 23 126 23 127 128 127 21 127 128 128 129 128 21 128 21 129 129 129 118 129 129 130 130 130 118 130 118 131 130 131 131 131 130 132 132 132 131 132 131 117 132 117 133 117 132 133 134 133 133 133 133 134 134 134 135 134 134 135 136 135 135 135 135 113 136 113 137 113 136 136 138 136 137 136 137 137 138 137 139 137 138 138 140 138 139 138 139 139 140 139 141 139 140 140 142 140 141 140 141 141 142 141 143 141 142 142 144 142 143 142 143 141 144 141 145 141 144 143 146 143 145 143 145 144 146 144 147 144 146 120 148 120 147 120 147 145 148 145 149 145 148 146 150 146 149 146 149 147 150 147 151 147 81 113 79 113 152 113 152 148 79 148 153 148 79 149 77 149 153 149 153 150 77 150 154 150 77 151 75 151 154 151 154 132 75 132 155 132 75 152 73 152 155 152 155 153 73 153 156 153 73 120 71 120 156 120 156 154 71 154 157 154 71 155 69 155 157 155 157 156 69 156 158 156 69 157 67 157 158 157 158 158 67 158 159 158 67 159 65 159 159 159 159 160 65 160 160 160 65 119 63 119 160 119 160 130 63 130 161 130 63 130 117 130 161 130 161 159 117 159 162 159 117 132 163 132 162 132 162 127 163 127 164 127 163 161 165 161 164 161 164 123 165 123 166 123 165 162 167 162 166 162 166 113 167 113 168 113 167 163 169 163 168 163 168 164 169 164 170 164 169 165 171 165 170 165 170 166 171 166 172 166 171 167 173 167 172 167 172 149 173 149 174 149 173 168 175 168 174 168 174 114 175 114 176 114 175 145 177 145 176 145 176 169 177 169 178 169 177 170 179 170 178 170 178 141 179 141 180 141 179 146 181 146 180 146 180 171 181 171 182 171 151 172 150 172 183 172 150 173 184 173 183 173 183 174 184 174 185 174 184 175 186 175 185 175 185 176 186 176 187 176 186 177 188 177 187 177 187 178 188 178 189 178 188 179 190 179 189 179 189 180 190 180 191 180 190 181 192 181 191 181 191 182 192 182 193 182 192 183 194 183 193 183 193 184 194 184 195 184 37 185 39 185 120 185 39 145 41 145 120 145 120 146 41 146 196 146 41 186 43 186 196 186 196 187 43 187 197 187 43 188 45 188 197 188 197 189 45 189 198 189 45 190 47 190 198 190 198 191 47 191 199 191 47 192 49 192 199 192 199 146 49 146 200 146 49 193 51 193 200 193 200 194 51 194 201 194 51 195 53 195 201 195 201 138 53 138 202 138 53 196 55 196 202 196 202 197 55 197 203 197 55 198 4 198 203 198 194 199 204 199 195 199 204 200 205 200 195 200 195 201 205 201 206 201 205 202 207 202 206 202 206 203 207 203 208 203 207 204 209 204 208 204 208 205 209 205 210 205 209 206 211 206 210 206 210 207 211 207 212 207 211 208 213 208 212 208 212 209 213 209 214 209 213 210 215 210 214 210 214 211 215 211 216 211 215 212 217 212 216 212 216 213 217 213 218 213 217 214 219 214 218 214 218 215 219 215 220 215 219 216 221 216 220 216 220 217 221 217 222 217 221 218 60 218 222 218 222 219 60 219 223 219 60 220 61 220 223 220 223 221 61 221 224 221 61 222 114 222 224 222 224 223 114 223 225 223 114 224 112 224 225 224 225 225 112 225 226 225 112 226 110 226 226 226 226 227 110 227 227 227 110 228 108 228 227 228 227 229 108 229 228 229 108 230 106 230 228 230 228 231 106 231 229 231 106 232 104 232 229 232 229 233 104 233 230 233 104 234 102 234 230 234 230 235 102 235 231 235 102 236 100 236 231 236 231 237 100 237 232 237 182 238 181 238 233 238 181 239 234 239 233 239 233 240 234 240 235 240 234 241 236 241 235 241 235 240 236 240 237 240 236 242 238 242 237 242 237 243 238 243 239 243 238 244 240 244 239 244 239 245 240 245 241 245 240 246 242 246 241 246 241 247 242 247 243 247 242 239 244 239 243 239 243 248 244 248 245 248 244 249 246 249 245 249 246 250 247 250 245 250 245 251 247 251 248 251 247 252 249 252 248 252 248 253 249 253 250 253 249 254 251 254 250 254 250 255 251 255 252 255 251 256 253 256 252 256 252 257 253 257 254 257 253 258 255 258 254 258 254 229 255 229 256 229 255 230 257 230 256 230 256 259 257 259 258 259 257 260 259 260 258 260 258 261 259 261 260 261 259 262 261 262 260 262 260 263 261 263 262 263 261 264 263 264 262 264 262 265 263 265 1 265 263 266 264 266 1 266 1 267 264 267 3 267 264 268 265 268 3 268 3 218 265 218 20 218 265 269 266 269 20 269 20 270 266 270 18 270 266 271 267 271 18 271 18 272 267 272 16 272 267 273 268 273 16 273 16 274 268 274 14 274 268 275 269 275 14 275 14 276 269 276 12 276 269 277 270 277 12 277 12 231 270 231 10 231 270 278 271 278 10 278 10 279 271 279 8 279 271 280 272 280 8 280 8 281 272 281 6 281 272 282 273 282 6 282 6 283 273 283 4 283 273 234 274 234 4 234 4 284 274 284 203 284 152 138 275 138 81 138 275 141 276 141 81 141 81 146 276 146 83 146 276 171 277 171 83 171 83 285 277 285 85 285 277 286 278 286 85 286 85 287 278 287 87 287 278 288 279 288 87 288 87 152 279 152 89 152 279 289 280 289 89 289 89 290 280 290 91 290 280 291 281 291 91 291 91 292 281 292 93 292 281 144 282 144 93 144 93 138 282 138 95 138 282 293 283 293 95 293 95 294 283 294 97 294 283 134 232 134 97 134 97 295 232 295 99 295 232 296 100 296 99 296 284 297 285 297 286 297 287 298 288 298 289 298 76 299 290 299 74 299 290 300 291 300 74 300 74 300 291 300 72 300 291 301 292 301 72 301 72 302 292 302 70 302 292 303 293 303 70 303 70 304 293 304 68 304 293 305 294 305 68 305 68 306 294 306 66 306 294 307 295 307 66 307 66 308 295 308 64 308 295 309 296 309 64 309 64 310 296 310 62 310 296 311 297 311 62 311 62 312 297 312 116 312 297 312 298 312 116 312 116 310 298 310 299 310 298 311 300 311 299 311 299 313 300 313 301 313 300 314 302 314 301 314 301 308 302 308 303 308 302 315 304 315 303 315 303 316 304 316 305 316 304 317 306 317 305 317 305 318 306 318 307 318 306 319 308 319 307 319 307 320 308 320 309 320 310 321 36 321 311 321 36 322 34 322 311 322 311 323 34 323 312 323 34 324 32 324 312 324 312 325 32 325 313 325 32 326 30 326 313 326 313 327 30 327 314 327 30 328 28 328 314 328 314 329 28 329 315 329 28 330 26 330 315 330 315 331 26 331 316 331 26 332 24 332 316 332 316 333 24 333 317 333 24 311 22 311 317 311 317 334 22 334 318 334 22 334 119 334 318 334 318 310 119 310 319 310 119 335 320 335 319 335 319 336 320 336 321 336 320 326 322 326 321 326 321 337 322 337 323 337 322 338 324 338 323 338 323 339 324 339 325 339 324 340 326 340 325 340 325 341 326 341 327 341 326 342 328 342 327 342 327 343 328 343 329 343 286 344 285 344 330 344 285 345 331 345 330 345 330 346 331 346 332 346 331 347 333 347 332 347 332 348 333 348 334 348 333 349 335 349 334 349 334 350 335 350 336 350 335 351 337 351 336 351 336 352 337 352 338 352 337 353 339 353 338 353 338 354 339 354 340 354 339 355 341 355 340 355 340 356 341 356 58 356 341 357 342 357 58 357 58 358 342 358 59 358 342 359 343 359 59 359 59 315 343 315 115 315 343 360 344 360 115 360 115 361 344 361 113 361 344 362 345 362 113 362 113 363 345 363 111 363 345 364 346 364 111 364 111 365 346 365 109 365 346 366 347 366 109 366 109 367 347 367 107 367 347 368 348 368 107 368 107 369 348 369 105 369 348 370 349 370 105 370 105 371 349 371 103 371 349 372 350 372 103 372 103 373 350 373 101 373 350 374 351 374 101 374 101 375 351 375 98 375 289 376 288 376 352 376 288 377 353 377 352 377 352 378 353 378 354 378 353 379 355 379 354 379 354 348 355 348 356 348 355 380 357 380 356 380 356 381 357 381 358 381 357 382 359 382 358 382 358 383 359 383 360 383 359 384 361 384 360 384 360 374 361 374 362 374 361 385 363 385 362 385 362 356 363 356 364 356 363 357 0 357 364 357 364 358 0 358 365 358 0 359 2 359 365 359 365 315 2 315 366 315 2 360 19 360 366 360 366 386 19 386 367 386 19 387 17 387 367 387 367 388 17 388 368 388 17 389 15 389 368 389 368 390 15 390 369 390 15 391 13 391 369 391 369 392 13 392 370 392 13 393 11 393 370 393 370 373 11 373 371 373 11 394 9 394 371 394 371 395 9 395 372 395 9 396 7 396 372 396 372 396 7 396 373 396 7 377 5 377 373 377 373 397 5 397 374 397 98 398 351 398 96 398 351 399 375 399 96 399 96 400 375 400 94 400 375 401 376 401 94 401 94 402 376 402 92 402 376 403 377 403 92 403 92 404 377 404 90 404 377 405 378 405 90 405 90 406 378 406 88 406 378 407 379 407 88 407 88 408 379 408 86 408 379 403 380 403 86 403 86 409 380 409 84 409 380 410 381 410 84 410 84 411 381 411 82 411 381 412 382 412 82 412 82 413 382 413 80 413 382 414 383 414 80 414 80 415 383 415 78 415 383 416 384 416 78 416 78 417 384 417 76 417 384 418 385 418 76 418 76 419 385 419 290 419 374 420 5 420 386 420 5 421 57 421 386 421 386 422 57 422 387 422 57 423 56 423 387 423 387 424 56 424 388 424 56 425 54 425 388 425 388 411 54 411 389 411 54 426 52 426 389 426 389 427 52 427 390 427 52 428 50 428 390 428 390 429 50 429 391 429 50 430 48 430 391 430 391 431 48 431 392 431 48 403 46 403 392 403 392 432 46 432 393 432 46 433 44 433 393 433 393 413 44 413 394 413 44 434 42 434 394 434 394 435 42 435 395 435 42 436 40 436 395 436 395 437 40 437 310 437 40 438 38 438 310 438 310 439 38 439 36 439 308 440 396 440 309 440 396 300 397 300 309 300 309 441 397 441 398 441 397 442 399 442 398 442 398 443 399 443 400 443 399 444 401 444 400 444 400 445 401 445 402 445 401 446 403 446 402 446 402 447 403 447 404 447 403 325 405 325 404 325 404 327 405 327 406 327 405 448 407 448 406 448 406 449 407 449 408 449 407 450 409 450 408 450 408 451 409 451 410 451 409 452 411 452 410 452 410 453 411 453 412 453 411 454 413 454 412 454 412 455 413 455 414 455 413 456 415 456 414 456 414 457 415 457 416 457 415 458 417 458 416 458 416 459 417 459 418 459 417 460 419 460 418 460 418 461 419 461 420 461 419 462 287 462 420 462 420 463 287 463 421 463 287 464 289 464 421 464 328 440 422 440 329 440 422 322 423 322 329 322 329 321 423 321 424 321 423 300 425 300 424 300 424 327 425 327 426 327 425 329 427 329 426 329 426 465 427 465 428 465 427 466 429 466 428 466 428 327 429 327 430 327 429 467 431 467 430 467 430 468 431 468 432 468 431 469 433 469 432 469 432 470 433 470 434 470 433 452 435 452 434 452 434 471 435 471 436 471 435 472 437 472 436 472 436 473 437 473 438 473 437 454 439 454 438 454 438 474 439 474 440 474 439 469 441 469 440 469 440 475 441 475 442 475 441 458 443 458 442 458 442 459 443 459 444 459 443 476 445 476 444 476 444 477 445 477 446 477 445 478 284 478 446 478 446 397 284 397 447 397 284 479 286 479 447 479 205 480 447 480 207 480 447 481 286 481 207 481 207 482 286 482 209 482 286 483 330 483 209 483 209 484 330 484 211 484 330 485 332 485 211 485 211 486 332 486 213 486 332 487 334 487 213 487 213 488 334 488 215 488 334 489 336 489 215 489 215 490 336 490 217 490 336 491 338 491 217 491 217 492 338 492 219 492 338 493 340 493 219 493 219 494 340 494 221 494 340 495 58 495 221 495 221 496 58 496 60 496 130 497 318 497 132 497 318 498 319 498 132 498 132 499 319 499 134 499 319 500 321 500 134 500 134 501 321 501 136 501 321 502 323 502 136 502 136 503 323 503 138 503 323 504 325 504 138 504 138 505 325 505 140 505 325 506 327 506 140 506 140 507 327 507 142 507 327 508 329 508 142 508 142 509 329 509 144 509 329 510 424 510 144 510 144 511 424 511 146 511 424 512 426 512 146 512 146 513 426 513 148 513 426 514 428 514 148 514 148 515 428 515 150 515 428 516 430 516 150 516 150 517 430 517 184 517 430 518 432 518 184 518 184 519 432 519 186 519 432 520 434 520 186 520 186 521 434 521 188 521 434 522 436 522 188 522 188 523 436 523 190 523 436 524 438 524 190 524 190 525 438 525 192 525 438 526 440 526 192 526 192 527 440 527 194 527 440 528 442 528 194 528 194 529 442 529 204 529 442 530 444 530 204 530 204 531 444 531 205 531 444 532 446 532 205 532 205 533 446 533 447 533 317 534 318 534 129 534 318 534 130 534 129 534 317 535 129 535 316 535 129 536 128 536 316 536 316 537 128 537 315 537 128 538 127 538 315 538 315 539 127 539 314 539 127 540 126 540 314 540 314 541 126 541 313 541 126 542 125 542 313 542 313 543 125 543 312 543 125 544 124 544 312 544 312 545 124 545 311 545 124 546 123 546 311 546 311 547 123 547 310 547 123 548 122 548 310 548 310 549 122 549 395 549 122 550 121 550 395 550 395 551 121 551 394 551 121 552 120 552 394 552 394 553 120 553 393 553 120 554 196 554 393 554 393 555 196 555 392 555 196 556 197 556 392 556 392 557 197 557 391 557 197 558 198 558 391 558 391 559 198 559 390 559 198 560 199 560 390 560 390 561 199 561 389 561 199 562 200 562 389 562 389 563 200 563 388 563 200 564 201 564 388 564 388 565 201 565 387 565 201 566 202 566 387 566 387 567 202 567 386 567 202 568 203 568 386 568 386 569 203 569 374 569 203 570 274 570 374 570 274 571 273 571 374 571 374 572 273 572 373 572 273 573 272 573 373 573 373 574 272 574 372 574 272 575 271 575 372 575 372 576 271 576 371 576 271 577 270 577 371 577 371 578 270 578 370 578 270 579 269 579 370 579 370 580 269 580 369 580 269 581 268 581 369 581 369 582 268 582 368 582 268 583 267 583 368 583 368 584 267 584 367 584 267 585 266 585 367 585 367 586 266 586 366 586 266 587 265 587 366 587 366 588 265 588 365 588 364 589 365 589 264 589 365 590 265 590 264 590 247 591 421 591 249 591 421 592 289 592 249 592 249 593 289 593 251 593 289 594 352 594 251 594 251 595 352 595 253 595 352 596 354 596 253 596 253 597 354 597 255 597 354 598 356 598 255 598 255 599 356 599 257 599 356 600 358 600 257 600 257 601 358 601 259 601 358 602 360 602 259 602 259 603 360 603 261 603 360 604 362 604 261 604 261 605 362 605 263 605 362 606 364 606 263 606 263 607 364 607 264 607 117 608 116 608 163 608 116 609 299 609 163 609 163 610 299 610 165 610 299 611 301 611 165 611 165 612 301 612 167 612 301 613 303 613 167 613 167 614 303 614 169 614 303 615 305 615 169 615 169 616 305 616 171 616 305 617 307 617 171 617 171 618 307 618 173 618 307 619 309 619 173 619 173 620 309 620 175 620 309 621 398 621 175 621 175 622 398 622 177 622 398 623 400 623 177 623 177 624 400 624 179 624 400 625 402 625 179 625 179 626 402 626 181 626 402 627 404 627 181 627 181 628 404 628 234 628 404 629 406 629 234 629 234 630 406 630 236 630 406 631 408 631 236 631 236 632 408 632 238 632 408 633 410 633 238 633 238 634 410 634 240 634 410 635 412 635 240 635 240 636 412 636 242 636 412 637 414 637 242 637 242 638 414 638 244 638 414 639 416 639 244 639 244 640 416 640 246 640 416 641 418 641 246 641 246 642 418 642 247 642 418 643 420 643 247 643 247 644 420 644 421 644 119 645 118 645 320 645 118 646 131 646 320 646 320 647 131 647 322 647 131 648 133 648 322 648 322 649 133 649 324 649 133 650 135 650 324 650 324 651 135 651 326 651 135 652 137 652 326 652 326 653 137 653 328 653 137 654 139 654 328 654 328 655 139 655 422 655 139 656 141 656 422 656 422 657 141 657 423 657 141 658 143 658 423 658 423 659 143 659 425 659 143 660 145 660 425 660 425 661 145 661 427 661 145 662 147 662 427 662 427 663 147 663 429 663 147 664 149 664 429 664 429 665 149 665 431 665 149 666 151 666 431 666 431 667 151 667 433 667 151 668 183 668 433 668 433 669 183 669 435 669 183 670 185 670 435 670 435 671 185 671 437 671 185 672 187 672 437 672 437 673 187 673 439 673 187 674 189 674 439 674 439 675 189 675 441 675 189 676 191 676 441 676 441 677 191 677 443 677 191 678 193 678 443 678 443 679 193 679 445 679 193 680 195 680 445 680 195 681 206 681 445 681 445 682 206 682 284 682 206 683 208 683 284 683 284 684 208 684 285 684 208 685 210 685 285 685 285 686 210 686 331 686 210 687 212 687 331 687 331 688 212 688 333 688 212 689 214 689 333 689 333 690 214 690 335 690 214 691 216 691 335 691 335 692 216 692 337 692 216 693 218 693 337 693 337 694 218 694 339 694 218 695 220 695 339 695 339 696 220 696 341 696 220 697 222 697 341 697 341 698 222 698 342 698 222 589 223 589 342 589 223 699 343 699 342 699 232 700 351 700 231 700 351 701 350 701 231 701 231 702 350 702 230 702 350 703 349 703 230 703 230 704 349 704 229 704 349 705 348 705 229 705 229 706 348 706 228 706 348 707 347 707 228 707 228 708 347 708 227 708 347 709 346 709 227 709 227 710 346 710 226 710 346 711 345 711 226 711 226 712 345 712 225 712 345 713 344 713 225 713 225 714 344 714 224 714 344 715 343 715 224 715 224 716 343 716 223 716 160 717 297 717 159 717 297 718 296 718 159 718 159 719 296 719 158 719 296 720 295 720 158 720 158 721 295 721 157 721 295 722 294 722 157 722 157 723 294 723 156 723 294 724 293 724 156 724 156 725 293 725 155 725 293 726 292 726 155 726 155 727 292 727 154 727 292 728 291 728 154 728 154 729 291 729 153 729 291 730 290 730 153 730 153 731 290 731 152 731 290 732 385 732 152 732 152 733 385 733 275 733 385 734 384 734 275 734 275 735 384 735 276 735 384 736 383 736 276 736 276 737 383 737 277 737 383 738 382 738 277 738 277 739 382 739 278 739 382 740 381 740 278 740 278 741 381 741 279 741 381 742 380 742 279 742 279 743 380 743 280 743 380 744 379 744 280 744 280 745 379 745 281 745 379 746 378 746 281 746 281 747 378 747 282 747 378 748 377 748 282 748 282 749 377 749 283 749 377 750 376 750 283 750 283 751 376 751 232 751 376 752 375 752 232 752 232 753 375 753 351 753 161 754 298 754 160 754 298 755 297 755 160 755 298 756 161 756 300 756 161 757 162 757 300 757 300 758 162 758 302 758 162 759 164 759 302 759 302 760 164 760 304 760 164 761 166 761 304 761 304 762 166 762 306 762 166 763 168 763 306 763 306 764 168 764 308 764 168 765 170 765 308 765 308 766 170 766 396 766 170 767 172 767 396 767 396 768 172 768 397 768 172 769 174 769 397 769 397 770 174 770 399 770 174 771 176 771 399 771 399 772 176 772 401 772 176 773 178 773 401 773 401 774 178 774 403 774 178 775 180 775 403 775 403 776 180 776 405 776 180 777 182 777 405 777 405 778 182 778 407 778 182 779 233 779 407 779 407 780 233 780 409 780 233 781 235 781 409 781 409 782 235 782 411 782 235 783 237 783 411 783 411 784 237 784 413 784 237 785 239 785 413 785 413 786 239 786 415 786 239 787 241 787 415 787 415 788 241 788 417 788 241 789 243 789 417 789 417 790 243 790 419 790 243 791 245 791 419 791 245 792 248 792 419 792 419 793 248 793 287 793 248 794 250 794 287 794 287 795 250 795 288 795 250 796 252 796 288 796 288 797 252 797 353 797 252 798 254 798 353 798 353 799 254 799 355 799 254 800 256 800 355 800 355 801 256 801 357 801 256 802 258 802 357 802 357 803 258 803 359 803 258 804 260 804 359 804 359 805 260 805 361 805 260 806 262 806 361 806 361 807 262 807 363 807 262 808 1 808 363 808 363 809 1 809 0 809</p>
        </triangles>
      </mesh>
    </geometry>
  </library_geometries>
  <library_visual_scenes>
    <visual_scene id="Scene" name="Scene">
      <node id="trapezoid__9" name="trapezoid__9" type="NODE">
        <matrix sid="transform">1 0 0 0 0 1 0 0 0 0 1 0 0 0 0 1</matrix>
        <instance_geometry url="#trapezoid__9-mesh" name="trapezoid__9"/>
      </node>
    </visual_scene>
  </library_visual_scenes>
  <scene>
    <instance_visual_scene url="#Scene"/>
  </scene>
</COLLADA>