<?xml version="1.0" encoding="utf-8"?>
<COLLADA xmlns="http://www.collada.org/2005/11/COLLADASchema" version="1.4.1" xmlns:xsi="http://www.w3.org/2001/XMLSchema-instance">
  <asset>
    <contributor>
      <author>Blender User</author>
      <authoring_tool>Blender 3.0.1</authoring_tool>
    </contributor>
    <created>2026-06-04T16:19:15</created>
    <modified>2026-06-04T16:19:15</modified>
    <unit name="meter" meter="1"/>
    <up_axis>Z_UP</up_axis>
  </asset>
  <library_images/>
  <library_geometries>
    <geometry id="trapezoid_default_as_machined__2-mesh" name="trapezoid_default_as_machined__2">
      <mesh>
        <source id="trapezoid_default_as_machined__2-mesh-positions">
          <float_array id="trapezoid_default_as_machined__2-mesh-positions-array" count="864">-0.2289146 -0.01749998 0.1860584 -0.224383 -0.01749998 0.1881715 -0.227479 -0.01749998 0.1825926 -0.2227805 -0.01749998 0.1843028 -0.226351 -0.01749998 0.179015 -0.2215213 -0.01749998 0.1803091 -0.225539 -0.01749998 0.1753526 -0.220615 -0.01749998 0.1762209 -0.2250494 -0.01749998 0.1716335 -0.2200685 -0.01749998 0.1720693 -0.2248858 -0.01749998 0.1678858 -0.2198858 -0.01749998 0.1678858 -0.2250494 -0.01749998 0.1641381 -0.2200685 -0.01749998 0.1637023 -0.225539 -0.01749998 0.1604189 -0.220615 -0.01749998 0.1595507 -0.226351 -0.01749998 0.1567566 -0.2215213 -0.01749998 0.1554625 -0.227479 -0.01749998 0.1531789 -0.2227805 -0.01749998 0.1514688 -0.2289146 -0.01749998 0.1497132 -0.224383 -0.01749998 0.1476001 -0.2306467 -0.01749998 0.1463858 -0.2263166 -0.01749998 0.1438858 -0.2326623 -0.01749998 0.143222 -0.2285665 -0.01749998 0.1403541 -0.2349459 -0.01749998 0.1402459 -0.2311156 -0.01749998 0.137032 -0.2374802 -0.01749998 0.1374802 -0.2339447 -0.01749998 0.1339446 -0.2402459 -0.01749998 0.1349459 -0.237032 -0.01749998 0.1311157 -0.243222 -0.01749998 0.1326622 -0.2403541 -0.01749998 0.1285665 -0.2463858 -0.01749998 0.1306467 -0.2438858 -0.01749998 0.1263166 -0.2497132 -0.01749998 0.1289145 -0.2476001 -0.01749998 0.124383 -0.253179 -0.01749998 0.127479 -0.2514688 -0.01749998 0.1227806 -0.2567566 -0.01749998 0.126351 -0.2554625 -0.01749998 0.1215214 -0.260419 -0.01749998 0.1255391 -0.2595507 -0.01749998 0.120615 -0.2641381 -0.01749998 0.1250494 -0.2637023 -0.01749998 0.1200684 -0.2678858 -0.01749998 0.1248858 -0.2678858 -0.01749998 0.1198858 -0.2716335 -0.01749998 0.1250494 -0.2720693 -0.01749998 0.1200684 -0.2753527 -0.01749998 0.1255391 -0.2762209 -0.01749998 0.120615 -0.279015 -0.01749998 0.126351 -0.2803092 -0.01749998 0.1215214 -0.2825927 -0.01749998 0.127479 -0.2843028 -0.01749998 0.1227806 -0.2860584 -0.01749998 0.1289145 -0.2881715 -0.01749998 0.124383 -0.2893858 -0.01749998 0.1306467 -0.2918858 -0.01749998 0.1263166 -0.2925496 -0.01749998 0.1326622 -0.2954175 -0.01749998 0.1285665 -0.2955257 -0.01749998 0.1349459 -0.2987396 -0.01749998 0.1311157 -0.2982914 -0.01749998 0.1374802 -0.301827 -0.01749998 0.1339446 -0.3008257 -0.01749998 0.1402459 -0.304656 -0.01749998 0.137032 -0.3031094 -0.01749998 0.143222 -0.3072051 -0.01749998 0.1403541 -0.3051249 -0.01749998 0.1463858 -0.309455 -0.01749998 0.1438858 -0.3068571 -0.01749998 0.1497132 -0.3113886 -0.01749998 0.1476001 -0.3082926 -0.01749998 0.1531789 -0.3129911 -0.01749998 0.1514688 -0.3094207 -0.01749998 0.1567566 -0.3142502 -0.01749998 0.1554625 -0.3102325 -0.01749998 0.1604189 -0.3151566 -0.01749998 0.1595507 -0.3107222 -0.01749998 0.1641381 -0.3157032 -0.01749998 0.1637023 -0.3108858 -0.01749998 0.1678858 -0.3158858 -0.01749998 0.1678858 -0.3107222 -0.01749998 0.1716335 -0.3157032 -0.01749998 0.1720693 -0.3102325 -0.01749998 0.1753526 -0.3151566 -0.01749998 0.1762209 -0.3094207 -0.01749998 0.179015 -0.3142502 -0.01749998 0.1803091 -0.3082926 -0.01749998 0.1825926 -0.3129911 -0.01749998 0.1843028 -0.3068571 -0.01749998 0.1860584 -0.3113886 -0.01749998 0.1881715 -0.3051249 -0.01749998 0.1893858 -0.309455 -0.01749998 0.1918858 -0.3031094 -0.01749998 0.1925496 -0.3072051 -0.01749998 0.1954175 -0.3008257 -0.01749998 0.1955257 -0.304656 -0.01749998 0.1987396 -0.2982914 -0.01749998 0.1982914 -0.301827 -0.01749998 0.2018269 -0.2955257 -0.01749998 0.2008257 -0.2987396 -0.01749998 0.204656 -0.2925496 -0.01749998 0.2031093 -0.2954175 -0.01749998 0.2072051 -0.2893858 -0.01749998 0.2051249 -0.2918858 -0.01749998 0.209455 -0.2860584 -0.01749998 0.206857 -0.2881715 -0.01749998 0.2113886 -0.2825927 -0.01749998 0.2082926 -0.2843028 -0.01749998 0.2129911 -0.279015 -0.01749998 0.2094206 -0.2803092 -0.01749998 0.2142502 -0.2753527 -0.01749998 0.2102325 -0.2762209 -0.01749998 0.2151566 -0.2716335 -0.01749998 0.2107222 -0.2720693 -0.01749998 0.2157031 -0.2678858 -0.01749998 0.2108858 -0.2678858 -0.01749998 0.2158858 -0.2641381 -0.01749998 0.2107222 -0.2637023 -0.01749998 0.2157031 -0.260419 -0.01749998 0.2102325 -0.2595507 -0.01749998 0.2151566 -0.2567566 -0.01749998 0.2094206 -0.2554625 -0.01749998 0.2142502 -0.253179 -0.01749998 0.2082926 -0.2514688 -0.01749998 0.2129911 -0.2497132 -0.01749998 0.206857 -0.2476001 -0.01749998 0.2113886 -0.2463858 -0.01749998 0.2051249 -0.2438858 -0.01749998 0.209455 -0.243222 -0.01749998 0.2031093 -0.2403541 -0.01749998 0.2072051 -0.2402459 -0.01749998 0.2008257 -0.237032 -0.01749998 0.204656 -0.2374802 -0.01749998 0.1982914 -0.2339447 -0.01749998 0.2018269 -0.2349459 -0.01749998 0.1955257 -0.2311156 -0.01749998 0.1987396 -0.2326623 -0.01749998 0.1925496 -0.2285665 -0.01749998 0.1954175 -0.2306467 -0.01749998 0.1893858 -0.2263166 -0.01749998 0.1918858 -0.2860584 -0.03499996 0.206857 -0.2881715 -0.03499996 0.2113886 -0.2893858 -0.03499996 0.2051249 -0.2918858 -0.03499996 0.209455 -0.2925496 -0.03499996 0.2031093 -0.2954175 -0.03499996 0.2072051 -0.2955257 -0.03499996 0.2008257 -0.2987396 -0.03499996 0.204656 -0.2982914 -0.03499996 0.1982914 -0.301827 -0.03499996 0.2018269 -0.3008257 -0.03499996 0.1955257 -0.304656 -0.03499996 0.1987396 -0.3031094 -0.03499996 0.1925496 -0.3072051 -0.03499996 0.1954175 -0.3051249 -0.03499996 0.1893858 -0.309455 -0.03499996 0.1918858 -0.3068571 -0.03499996 0.1860584 -0.3113886 -0.03499996 0.1881715 -0.3082926 -0.03499996 0.1825926 -0.3129911 -0.03499996 0.1843028 -0.3094207 -0.03499996 0.179015 -0.3142502 -0.03499996 0.1803091 -0.3102325 -0.03499996 0.1753526 -0.3151566 -0.03499996 0.1762209 -0.3107222 -0.03499996 0.1716335 -0.3157032 -0.03499996 0.1720693 -0.3108858 -0.03499996 0.1678858 -0.3158858 -0.03499996 0.1678858 -0.3107222 -0.03499996 0.1641381 -0.3157032 -0.03499996 0.1637023 -0.3102325 -0.03499996 0.1604189 -0.3151566 -0.03499996 0.1595507 -0.3094207 -0.03499996 0.1567566 -0.3142502 -0.03499996 0.1554625 -0.3082926 -0.03499996 0.1531789 -0.3129911 -0.03499996 0.1514688 -0.3068571 -0.03499996 0.1497132 -0.3113886 -0.03499996 0.1476001 -0.3051249 -0.03499996 0.1463858 -0.309455 -0.03499996 0.1438858 -0.3031094 -0.03499996 0.143222 -0.3072051 -0.03499996 0.1403541 -0.3008257 -0.03499996 0.1402459 -0.304656 -0.03499996 0.137032 -0.2982914 -0.03499996 0.1374802 -0.301827 -0.03499996 0.1339446 -0.2955257 -0.03499996 0.1349459 -0.2987396 -0.03499996 0.1311157 -0.2925496 -0.03499996 0.1326622 -0.2954175 -0.03499996 0.1285665 -0.2893858 -0.03499996 0.1306467 -0.2918858 -0.03499996 0.1263166 -0.2860584 -0.03499996 0.1289145 -0.2881715 -0.03499996 0.124383 -0.2825927 -0.03499996 0.127479 -0.2843028 -0.03499996 0.1227806 -0.279015 -0.03499996 0.126351 -0.2803092 -0.03499996 0.1215214 -0.2753527 -0.03499996 0.1255391 -0.2762209 -0.03499996 0.120615 -0.2716335 -0.03499996 0.1250494 -0.2720693 -0.03499996 0.1200684 -0.2678858 -0.03499996 0.1248858 -0.2678858 -0.03499996 0.1198858 -0.2641381 -0.03499996 0.1250494 -0.2637023 -0.03499996 0.1200684 -0.260419 -0.03499996 0.1255391 -0.2595507 -0.03499996 0.120615 -0.2567566 -0.03499996 0.126351 -0.2554625 -0.03499996 0.1215214 -0.253179 -0.03499996 0.127479 -0.2514688 -0.03499996 0.1227806 -0.2497132 -0.03499996 0.1289145 -0.2476001 -0.03499996 0.124383 -0.2463858 -0.03499996 0.1306467 -0.2438858 -0.03499996 0.1263166 -0.243222 -0.03499996 0.1326622 -0.2403541 -0.03499996 0.1285665 -0.2402459 -0.03499996 0.1349459 -0.237032 -0.03499996 0.1311157 -0.2374802 -0.03499996 0.1374802 -0.2339447 -0.03499996 0.1339446 -0.2349459 -0.03499996 0.1402459 -0.2311156 -0.03499996 0.137032 -0.2326623 -0.03499996 0.143222 -0.2285665 -0.03499996 0.1403541 -0.2306467 -0.03499996 0.1463858 -0.2263166 -0.03499996 0.1438858 -0.2289146 -0.03499996 0.1497132 -0.224383 -0.03499996 0.1476001 -0.227479 -0.03499996 0.1531789 -0.2227805 -0.03499996 0.1514688 -0.226351 -0.03499996 0.1567566 -0.2215213 -0.03499996 0.1554625 -0.225539 -0.03499996 0.1604189 -0.220615 -0.03499996 0.1595507 -0.2250494 -0.03499996 0.1641381 -0.2200685 -0.03499996 0.1637023 -0.2248858 -0.03499996 0.1678858 -0.2198858 -0.03499996 0.1678858 -0.2250494 -0.03499996 0.1716335 -0.2200685 -0.03499996 0.1720693 -0.225539 -0.03499996 0.1753526 -0.220615 -0.03499996 0.1762209 -0.226351 -0.03499996 0.179015 -0.2215213 -0.03499996 0.1803091 -0.227479 -0.03499996 0.1825926 -0.2227805 -0.03499996 0.1843028 -0.2289146 -0.03499996 0.1860584 -0.224383 -0.03499996 0.1881715 -0.2306467 -0.03499996 0.1893858 -0.2263166 -0.03499996 0.1918858 -0.2326623 -0.03499996 0.1925496 -0.2285665 -0.03499996 0.1954175 -0.2349459 -0.03499996 0.1955257 -0.2311156 -0.03499996 0.1987396 -0.2374802 -0.03499996 0.1982914 -0.2339447 -0.03499996 0.2018269 -0.2402459 -0.03499996 0.2008257 -0.237032 -0.03499996 0.204656 -0.243222 -0.03499996 0.2031093 -0.2403541 -0.03499996 0.2072051 -0.2463858 -0.03499996 0.2051249 -0.2438858 -0.03499996 0.209455 -0.2497132 -0.03499996 0.206857 -0.2476001 -0.03499996 0.2113886 -0.253179 -0.03499996 0.2082926 -0.2514688 -0.03499996 0.2129911 -0.2567566 -0.03499996 0.2094206 -0.2554625 -0.03499996 0.2142502 -0.260419 -0.03499996 0.2102325 -0.2595507 -0.03499996 0.2151566 -0.2641381 -0.03499996 0.2107222 -0.2637023 -0.03499996 0.2157031 -0.2678858 -0.03499996 0.2108858 -0.2678858 -0.03499996 0.2158858 -0.2716335 -0.03499996 0.2107222 -0.2720693 -0.03499996 0.2157031 -0.2753527 -0.03499996 0.2102325 -0.2762209 -0.03499996 0.2151566 -0.279015 -0.03499996 0.2094206 -0.2803092 -0.03499996 0.2142502 -0.2825927 -0.03499996 0.2082926 -0.2843028 -0.03499996 0.2129911</float_array>
          <technique_common>
            <accessor source="#trapezoid_default_as_machined__2-mesh-positions-array" count="288" stride="3">
              <param name="X" type="float"/>
              <param name="Y" type="float"/>
              <param name="Z" type="float"/>
            </accessor>
          </technique_common>
        </source>
        <source id="trapezoid_default_as_machined__2-mesh-normals">
          <float_array id="trapezoid_default_as_machined__2-mesh-normals-array" count="1092">0 1 0 0 1 -6.95679e-7 0 1 -6.95681e-7 0 1 6.95683e-7 0 1 -6.95687e-7 0 1 6.95685e-7 0 1 -7.76581e-7 0 1 -3.47841e-7 0 1 7.76576e-7 0 1 -3.47844e-7 0 1 -7.76576e-7 0 1 -5.21773e-7 0 1 3.47837e-7 0 1 7.76581e-7 0 1 2.6088e-7 0 1 4.34796e-7 0 1 3.88295e-7 0 1 0 0 1 3.8829e-7 0 1 1.73922e-7 0 1 -3.88281e-7 0 1 1.73924e-7 0 1 -3.8829e-7 0 1 1.94145e-7 0 1 0 0 1 0 0 1 1.94148e-7 0 1 -3.88295e-7 0 1 7.76571e-7 0 1 -6.95683e-7 0 1 -6.95691e-7 0 1 -6.95689e-7 0 1 7.76574e-7 0 1 -1.73922e-7 0 1 -6.08735e-7 0 1 -2.60886e-7 0 1 -3.88286e-7 0 1 -1.73918e-7 0 1 3.47844e-7 0 1 3.47841e-7 0 1 1.82011e-7 0 1 3.47843e-7 0 1 -1.94145e-7 0 -1 3.8829e-7 0 -1 -6.95681e-7 0 -1 -1.94143e-7 0 -1 0 0 -1 -1.21339e-7 0 -1 -1.39136e-6 0 -1 7.7659e-7 0 -1 3.88295e-7 0 -1 -7.76571e-7 0 -1 1.55314e-6 0 -1 -1.39138e-6 0 -1 1.55316e-6 0 -1 -1.39137e-6 0 -1 -1.39138e-6 0 -1 1.55315e-6 0 -1 -6.95689e-7 0 -1 -3.47844e-7 0 -1 -1.21747e-6 0 -1 -5.21773e-7 0 -1 -1.55314e-6 0 -1 5.21761e-7 0 -1 -3.47837e-7 0 -1 6.95689e-7 0 -1 6.95681e-7 0 -1 3.64022e-7 0 -1 -3.8829e-7 0 -1 1.39137e-6 0 -1 7.76581e-7 0 -1 -1.39136e-6 0 -1 -1.39137e-6 0 -1 1.39137e-6 0 -1 -1.39137e-6 0 -1 -1.55317e-6 0 -1 -1.55315e-6 0 -1 -1.04355e-6 0 -1 6.95673e-7 0 -1 8.69582e-7 0 -1 1.7392e-7 0 -1 3.47844e-7 0 -1 -7.76562e-7 0 -1 3.47848e-7 0 -1 -7.76581e-7 0.9990484 0 -0.04361552 0.9990485 0 -0.04361587 0.9914445 0 -0.1305298 0.9914443 0 -0.1305308 0.9762973 0 -0.2164342 0.9762973 0 -0.2164343 0.9537152 0 -0.3007115 0.9537159 0 -0.3007095 0.9238785 0 -0.3826862 0.9238795 0 -0.3826836 0.887012 0 -0.4617467 0.8870104 0 -0.4617496 0.8433904 0 -0.5373013 0.8433924 0 -0.5372982 0.7933566 0 -0.6087573 0.7933565 0 -0.6087574 0.7372773 0 -0.6755903 0.6755908 0 -0.7372769 0.6755908 0 -0.7372768 0.6087563 0 -0.7933574 0.6087607 0 -0.793354 0.5372975 0 -0.8433928 0.5373024 0 -0.8433896 0.4617493 0 -0.8870105 0.4617438 0 -0.8870134 0.3826825 0 -0.92388 0.3826885 0 -0.9238775 0.3007032 0 -0.9537178 0.3007097 0 -0.9537158 0.2164338 0 -0.9762973 0.2164406 0 -0.9762958 0.1305323 0 -0.9914441 0.1305183 0 -0.9914459 0.04362463 0 -0.9990481 0.04361754 0 -0.9990484 -0.04361724 0 -0.9990484 -0.04362428 0 -0.9990481 -0.1305183 0 -0.9914459 -0.1305323 0 -0.9914441 -0.2164406 0 -0.9762958 -0.2164338 0 -0.9762973 -0.3007097 0 -0.9537158 -0.3007032 0 -0.9537178 -0.3826886 0 -0.9238775 -0.3826825 0 -0.9238801 -0.4617455 0 -0.8870126 -0.4617509 0 -0.8870097 -0.5373026 0 -0.8433896 -0.5372974 0 -0.8433929 -0.6087608 0 -0.793354 -0.6087562 0 -0.7933574 -0.6755908 0 -0.7372769 -0.6755908 0 -0.7372768 -0.7372773 0 -0.6755903 -0.7933546 0 -0.6087598 -0.8433926 0 -0.537298 -0.8433904 0 -0.5373014 -0.8870104 0 -0.4617496 -0.887012 0 -0.4617467 -0.9238795 0 -0.3826836 -0.9238785 0 -0.3826862 -0.953717 0 -0.3007058 -0.9537163 0 -0.3007079 -0.9762964 0 -0.2164381 -0.9762964 0 -0.2164381 -0.9914448 0 -0.1305269 -0.991445 0 -0.130526 -0.9990483 0 -0.04361981 -0.9990483 0 -0.04361951 -0.9990483 0 0.04361981 -0.9990483 0 0.04361981 -0.9914451 0 0.1305251 -0.9914448 0 0.1305269 -0.976296 0 0.2164396 -0.9762964 0 0.2164381 -0.953717 0 0.3007058 -0.9537163 0 0.3007079 -0.9238795 0 0.3826836 -0.9238806 0 0.3826812 -0.8870104 0 0.4617496 -0.887012 0 0.4617467 -0.8433904 0 0.5373013 -0.8433904 0 0.5373014 -0.793352 0 0.6087633 -0.7933546 0 0.6087598 -0.7372806 0 0.6755868 -0.7372741 0 0.6755939 -0.6755908 0 0.7372769 -0.6755908 0 0.7372768 -0.6087608 0 0.793354 -0.6087607 0 0.793354 -0.5373026 0 0.8433896 -0.5372924 0 0.8433961 -0.4617511 0 0.8870096 -0.4617509 0 0.8870097 -0.3826825 0 0.92388 -0.3826825 0 0.9238801 -0.3007032 0 0.9537178 -0.3007097 0 0.9537158 -0.2164338 0 0.9762973 -0.2164474 0 0.9762943 -0.1305253 0 0.991445 -0.04362428 0 0.9990481 -0.04361718 0 0.9990484 0.04361754 0 0.9990484 0.04362463 0 0.9990481 0.1305253 0 0.991445 0.2164474 0 0.9762943 0.2164338 0 0.9762973 0.3007097 0 0.9537158 0.3007032 0 0.9537178 0.3826825 0 0.92388 0.3826825 0 0.9238801 0.4617493 0 0.8870105 0.5372925 0 0.8433961 0.5373024 0 0.8433896 0.6087608 0 0.793354 0.6087607 0 0.793354 0.6755908 0 0.7372769 0.6755908 0 0.7372768 0.7372741 0 0.6755939 0.7372806 0 0.6755868 0.7933566 0 0.6087573 0.7933539 0 0.6087608 0.8433904 0 0.5373013 0.8433904 0 0.5373014 0.887012 0 0.4617467 0.8870104 0 0.4617496 0.9238806 0 0.3826812 0.9238795 0 0.3826836 0.9537152 0 0.3007115 0.9537159 0 0.3007095 0.9762973 0 0.2164342 0.9762969 0 0.2164358 0.9914443 0 0.1305308 0.9914445 0 0.1305289 0.9990485 0 0.04361587 0.9990485 0 0.04361587 -0.9990482 0 0.04362034 -0.9914458 0 0.130519 -0.9914458 0 0.1305199 -0.9762954 0 0.2164427 -0.9762951 0 0.2164439 -0.9537185 0 0.3007012 -0.953718 0 0.3007029 -0.9238783 0 0.3826867 -0.9238764 0 0.3826912 -0.8870121 0 0.4617463 -0.887012 0 0.4617465 -0.84339 0 0.537302 -0.8433918 0 0.5372992 -0.7933535 0 0.6087613 -0.7933581 0 0.6087552 -0.7372752 0 0.6755926 -0.737275 0 0.6755927 -0.6755918 0 0.7372759 -0.6755952 0 0.7372728 -0.6087552 0 0.7933583 -0.6087591 0 0.7933552 -0.5372992 0 0.8433917 -0.5373036 0 0.8433889 -0.4617494 0 0.8870105 -0.382682 0 0.9238801 -0.3826873 0 0.923878 -0.3007012 0 0.9537184 -0.3007069 0 0.9537166 -0.2164471 0 0.9762943 -0.2164348 0 0.9762971 -0.1305276 0 0.9914448 -0.1305212 0 0.9914456 -0.04362368 0 0.9990481 -0.04361093 0 0.9990486 0.04361063 0 0.9990487 0.04362332 0 0.9990481 0.1305223 0 0.9914454 0.1305285 0 0.9914447 0.2164334 0 0.9762974 0.2164455 0 0.9762947 0.300709 0 0.953716 0.3007031 0 0.9537178 0.3826861 0 0.9238784 0.3826806 0 0.9238807 0.461748 0 0.8870112 0.5373038 0 0.8433889 0.5372991 0 0.8433918 0.6087608 0 0.7933539 0.6087567 0 0.793357 0.6755952 0 0.7372728 0.6755917 0 0.737276 0.7372752 0 0.6755926 0.737275 0 0.6755927 0.7933565 0 0.6087573 0.7933518 0 0.6087636 0.8433919 0 0.5372991 0.84339 0 0.537302 0.8870106 0 0.4617493 0.8870105 0 0.4617493 0.923879 0 0.3826851 0.9238807 0 0.3826806 0.9537169 0 0.3007061 0.9537175 0 0.3007044 0.9762958 0 0.2164405 0.9762961 0 0.2164392 0.9914448 0 0.1305269 0.9914449 0 0.1305261 0.9990484 0 0.04361677 0.9990484 0 0.04361677 0.9990484 0 -0.04361677 0.9990484 0 -0.04361706 0.9914449 0 -0.1305261 0.9762958 0 -0.2164405 0.9762964 0 -0.2164379 0.9537163 0 -0.3007079 0.9537175 0 -0.3007044 0.9238798 0 -0.3826828 0.9238798 0 -0.3826829 0.8870092 0 -0.4617518 0.8870105 0 -0.4617493 0.8433919 0 -0.5372991 0.84339 0 -0.537302 0.7933542 0 -0.6087604 0.793354 0 -0.6087605 0.7372781 0 -0.6755895 0.7372779 0 -0.6755896 0.6755918 0 -0.7372759 0.6755883 0 -0.7372791 0.6087608 0 -0.7933539 0.6087648 0 -0.7933508 0.5372992 0 -0.8433917 0.5372946 0 -0.8433947 0.461753 0 -0.8870086 0.4617431 0 -0.8870139 0.3826861 0 -0.9238784 0.3826806 0 -0.9238807 0.300709 0 -0.953716 0.3007089 0 -0.953716 0.2164334 0 -0.9762974 0.2164394 0 -0.9762961 0.1305285 0 -0.9914447 0.1305285 0 -0.9914447 0.04361701 0 -0.9990484 0.04361701 0 -0.9990484 -0.0436173 0 -0.9990484 -0.0436173 0 -0.9990484 -0.1305276 0 -0.9914448 -0.1305275 0 -0.9914447 -0.216441 0 -0.9762958 -0.2164348 0 -0.9762971 -0.300707 0 -0.9537166 -0.3007069 0 -0.9537166 -0.382682 0 -0.9238801 -0.3826873 0 -0.923878 -0.4617445 0 -0.8870131 -0.4617545 0 -0.8870078 -0.5372947 0 -0.8433947 -0.5372991 0 -0.8433918 -0.6087631 0 -0.7933521 -0.6087591 0 -0.7933552 -0.6755883 0 -0.7372791 -0.6755917 0 -0.737276 -0.7372781 0 -0.6755895 -0.7372779 0 -0.6755896 -0.7933558 0 -0.6087582 -0.7933558 0 -0.6087583 -0.84339 0 -0.537302 -0.8433918 0 -0.5372992 -0.8870121 0 -0.4617463 -0.8870106 0 -0.4617491 -0.9238774 0 -0.3826889 -0.9238772 0 -0.3826889 -0.9537185 0 -0.3007012 -0.9537173 0 -0.3007047 -0.9762957 0 -0.2164413 -0.9762951 0 -0.2164439 -0.9914458 0 -0.130519 -0.9914458 0 -0.1305191 -0.9990482 0 -0.04362058 -0.9990482 0 -0.04362034 -0.9990482 0 0.04362028</float_array>
          <technique_common>
            <accessor source="#trapezoid_default_as_machined__2-mesh-normals-array" count="364" stride="3">
              <param name="X" type="float"/>
              <param name="Y" type="float"/>
              <param name="Z" type="float"/>
            </accessor>
          </technique_common>
        </source>
        <vertices id="trapezoid_default_as_machined__2-mesh-vertices">
          <input semantic="POSITION" source="#trapezoid_default_as_machined__2-mesh-positions"/>
        </vertices>
        <triangles count="576">
          <input semantic="VERTEX" source="#trapezoid_default_as_machined__2-mesh-vertices" offset="0"/>
          <input semantic="NORMAL" source="#trapezoid_default_as_machined__2-mesh-normals" offset="1"/>
          <p>0 0 1 0 2 0 1 1 3 1 2 1 2 0 3 0 4 0 3 0 5 0 4 0 4 0 5 0 6 0 5 2 7 2 6 2 6 0 7 0 8 0 7 0 9 0 8 0 8 0 9 0 10 0 9 0 11 0 10 0 10 0 11 0 12 0 11 0 13 0 12 0 12 0 13 0 14 0 13 0 15 0 14 0 14 0 15 0 16 0 15 3 17 3 16 3 16 0 17 0 18 0 17 4 19 4 18 4 18 0 19 0 20 0 19 5 21 5 20 5 20 0 21 0 22 0 21 0 23 0 22 0 22 0 23 0 24 0 23 0 25 0 24 0 24 0 25 0 26 0 25 5 27 5 26 5 26 0 27 0 28 0 27 5 29 5 28 5 28 6 29 6 30 6 29 0 31 0 30 0 30 0 31 0 32 0 31 7 33 7 32 7 32 8 33 8 34 8 33 9 35 9 34 9 34 10 35 10 36 10 35 0 37 0 36 0 36 0 37 0 38 0 37 0 39 0 38 0 38 0 39 0 40 0 39 11 41 11 40 11 40 0 41 0 42 0 41 12 43 12 42 12 42 13 43 13 44 13 43 14 45 14 44 14 44 0 45 0 46 0 45 0 47 0 46 0 46 0 47 0 48 0 47 15 49 15 48 15 48 16 49 16 50 16 49 17 51 17 50 17 50 18 51 18 52 18 51 19 53 19 52 19 52 20 53 20 54 20 53 21 55 21 54 21 54 22 55 22 56 22 55 0 57 0 56 0 56 23 57 23 58 23 57 7 59 7 58 7 58 24 59 24 60 24 59 0 61 0 60 0 60 25 61 25 62 25 61 0 63 0 62 0 62 23 63 23 64 23 63 2 65 2 64 2 64 18 65 18 66 18 65 0 67 0 66 0 66 26 67 26 68 26 67 0 69 0 68 0 68 0 69 0 70 0 69 0 71 0 70 0 70 27 71 27 72 27 71 0 73 0 72 0 72 0 73 0 74 0 73 0 75 0 74 0 74 28 75 28 76 28 75 29 77 29 76 29 76 0 77 0 78 0 77 0 79 0 78 0 78 0 79 0 80 0 79 30 81 30 80 30 80 0 81 0 82 0 81 0 83 0 82 0 82 0 83 0 84 0 83 0 85 0 84 0 84 13 85 13 86 13 85 0 87 0 86 0 86 13 87 13 88 13 87 31 89 31 88 31 88 0 89 0 90 0 89 0 91 0 90 0 90 0 91 0 92 0 91 0 93 0 92 0 92 0 93 0 94 0 93 0 95 0 94 0 94 0 95 0 96 0 95 0 97 0 96 0 96 0 97 0 98 0 97 0 99 0 98 0 98 0 99 0 100 0 99 31 101 31 100 31 100 32 101 32 102 32 101 0 103 0 102 0 102 0 103 0 104 0 103 0 105 0 104 0 104 0 105 0 106 0 105 9 107 9 106 9 106 8 107 8 108 8 107 7 109 7 108 7 108 0 109 0 110 0 109 33 111 33 110 33 110 0 111 0 112 0 111 33 113 33 112 33 112 0 113 0 114 0 113 34 115 34 114 34 114 0 115 0 116 0 115 35 117 35 116 35 116 6 117 6 118 6 117 0 119 0 118 0 118 0 119 0 120 0 119 14 121 14 120 14 120 36 121 36 122 36 121 9 123 9 122 9 122 0 123 0 124 0 123 37 125 37 124 37 124 16 125 16 126 16 125 38 127 38 126 38 126 0 127 0 128 0 127 0 129 0 128 0 128 23 129 23 130 23 129 39 131 39 130 39 130 23 131 23 132 23 131 7 133 7 132 7 132 40 133 40 134 40 133 41 135 41 134 41 134 42 135 42 136 42 135 5 137 5 136 5 136 36 137 36 138 36 137 0 139 0 138 0 138 36 139 36 140 36 139 0 141 0 140 0 140 0 141 0 142 0 141 0 143 0 142 0 142 18 143 18 0 18 143 0 1 0 0 0 144 43 145 43 146 43 145 44 147 44 146 44 146 45 147 45 148 45 147 46 149 46 148 46 148 47 149 47 150 47 149 46 151 46 150 46 150 43 151 43 152 43 151 48 153 48 152 48 152 49 153 49 154 49 153 46 155 46 154 46 154 50 155 50 156 50 155 46 157 46 156 46 156 46 157 46 158 46 157 46 159 46 158 46 158 51 159 51 160 51 159 46 161 46 160 46 160 46 161 46 162 46 161 46 163 46 162 46 162 52 163 52 164 52 163 48 165 48 164 48 164 46 165 46 166 46 165 46 167 46 166 46 166 46 167 46 168 46 167 53 169 53 168 53 168 46 169 46 170 46 169 46 171 46 170 46 170 46 171 46 172 46 171 46 173 46 172 46 172 54 173 54 174 54 173 46 175 46 174 46 174 54 175 54 176 54 175 55 177 55 176 55 176 46 177 46 178 46 177 46 179 46 178 46 178 46 179 46 180 46 179 46 181 46 180 46 180 46 181 46 182 46 181 46 183 46 182 46 182 46 183 46 184 46 183 46 185 46 184 46 184 46 185 46 186 46 185 46 187 46 186 46 186 46 187 46 188 46 187 56 189 56 188 56 188 57 189 57 190 57 189 46 191 46 190 46 190 46 191 46 192 46 191 46 193 46 192 46 192 46 193 46 194 46 193 58 195 58 194 58 194 57 195 57 196 57 195 44 197 44 196 44 196 46 197 46 198 46 197 59 199 59 198 59 198 46 199 46 200 46 199 59 201 59 200 59 200 46 201 46 202 46 201 60 203 60 202 60 202 46 203 46 204 46 203 61 205 61 204 61 204 62 205 62 206 62 205 46 207 46 206 46 206 46 207 46 208 46 207 63 209 63 208 63 208 51 209 51 210 51 209 58 211 58 210 58 210 46 211 46 212 46 211 64 213 64 212 64 212 49 213 49 214 49 213 65 215 65 214 65 214 46 215 46 216 46 215 46 217 46 216 46 216 43 217 43 218 43 217 66 219 66 218 66 218 50 219 50 220 50 219 44 221 44 220 44 220 67 221 67 222 67 221 66 223 66 222 66 222 68 223 68 224 68 223 69 225 69 224 69 224 51 225 51 226 51 225 46 227 46 226 46 226 51 227 51 228 51 227 46 229 46 228 46 228 46 229 46 230 46 229 46 231 46 230 46 230 70 231 70 232 70 231 46 233 46 232 46 232 46 233 46 234 46 233 71 235 71 234 71 234 46 235 46 236 46 235 46 237 46 236 46 236 46 237 46 238 46 237 72 239 72 238 72 238 46 239 46 240 46 239 46 241 46 240 46 240 46 241 46 242 46 241 46 243 46 242 46 242 46 243 46 244 46 243 46 245 46 244 46 244 46 245 46 246 46 245 46 247 46 246 46 246 46 247 46 248 46 247 73 249 73 248 73 248 46 249 46 250 46 249 74 251 74 250 74 250 46 251 46 252 46 251 69 253 69 252 69 252 46 253 46 254 46 253 46 255 46 254 46 254 46 255 46 256 46 255 46 257 46 256 46 256 46 257 46 258 46 257 69 259 69 258 69 258 46 259 46 260 46 259 69 261 69 260 69 260 75 261 75 262 75 261 46 263 46 262 46 262 46 263 46 264 46 263 44 265 44 264 44 264 57 265 57 266 57 265 58 267 58 266 58 266 76 267 76 268 76 267 46 269 46 268 46 268 46 269 46 270 46 269 46 271 46 270 46 270 46 271 46 272 46 271 77 273 77 272 77 272 46 273 46 274 46 273 78 275 78 274 78 274 54 275 54 276 54 275 63 277 63 276 63 276 46 277 46 278 46 277 46 279 46 278 46 278 46 279 46 280 46 279 79 281 79 280 79 280 49 281 49 282 49 281 80 283 80 282 80 282 70 283 70 284 70 283 81 285 81 284 81 284 82 285 82 286 82 285 83 287 83 286 83 286 84 287 84 144 84 287 46 145 46 144 46 170 85 82 85 168 85 82 86 84 86 168 86 168 87 84 87 166 87 84 88 86 88 166 88 166 89 86 89 164 89 86 90 88 90 164 90 164 91 88 91 162 91 88 92 90 92 162 92 162 93 90 93 160 93 90 94 92 94 160 94 160 95 92 95 158 95 92 96 94 96 158 96 158 97 94 97 156 97 94 98 96 98 156 98 156 99 96 99 154 99 96 100 98 100 154 100 154 101 98 101 152 101 98 101 100 101 152 101 152 102 100 102 150 102 100 103 102 103 150 103 150 104 102 104 148 104 102 105 104 105 148 105 148 106 104 106 146 106 104 107 106 107 146 107 146 108 106 108 144 108 106 109 108 109 144 109 144 110 108 110 286 110 108 111 110 111 286 111 286 112 110 112 284 112 110 113 112 113 284 113 284 114 112 114 282 114 112 115 114 115 282 115 282 116 114 116 280 116 114 117 116 117 280 117 280 118 116 118 278 118 116 119 118 119 278 119 278 120 118 120 276 120 118 121 120 121 276 121 276 122 120 122 274 122 120 123 122 123 274 123 274 124 122 124 272 124 122 125 124 125 272 125 272 126 124 126 270 126 124 127 126 127 270 127 270 128 126 128 268 128 126 129 128 129 268 129 268 130 128 130 266 130 128 131 130 131 266 131 266 132 130 132 264 132 130 133 132 133 264 133 264 134 132 134 262 134 132 135 134 135 262 135 262 136 134 136 260 136 134 137 136 137 260 137 260 138 136 138 258 138 136 138 138 138 258 138 258 139 138 139 256 139 138 139 140 139 256 139 256 140 140 140 254 140 140 141 142 141 254 141 254 142 142 142 252 142 142 143 0 143 252 143 252 144 0 144 250 144 0 145 2 145 250 145 250 146 2 146 248 146 2 147 4 147 248 147 248 148 4 148 246 148 4 149 6 149 246 149 246 150 6 150 244 150 6 151 8 151 244 151 244 152 8 152 242 152 8 153 10 153 242 153 242 154 10 154 240 154 10 155 12 155 240 155 240 156 12 156 238 156 12 157 14 157 238 157 238 158 14 158 236 158 14 159 16 159 236 159 236 160 16 160 234 160 16 161 18 161 234 161 234 162 18 162 232 162 18 163 20 163 232 163 232 164 20 164 230 164 20 165 22 165 230 165 230 166 22 166 228 166 22 167 24 167 228 167 228 168 24 168 226 168 24 169 26 169 226 169 226 170 26 170 224 170 26 171 28 171 224 171 224 172 28 172 222 172 28 173 30 173 222 173 222 174 30 174 220 174 30 175 32 175 220 175 220 176 32 176 218 176 32 177 34 177 218 177 218 178 34 178 216 178 34 179 36 179 216 179 216 180 36 180 214 180 36 181 38 181 214 181 214 182 38 182 212 182 38 183 40 183 212 183 212 184 40 184 210 184 40 185 42 185 210 185 210 186 42 186 208 186 42 186 44 186 208 186 208 187 44 187 206 187 44 188 46 188 206 188 206 189 46 189 204 189 46 190 48 190 204 190 204 191 48 191 202 191 48 191 50 191 202 191 202 192 50 192 200 192 50 193 52 193 200 193 200 194 52 194 198 194 52 195 54 195 198 195 198 196 54 196 196 196 54 197 56 197 196 197 196 198 56 198 194 198 56 198 58 198 194 198 194 199 58 199 192 199 58 200 60 200 192 200 192 201 60 201 190 201 60 202 62 202 190 202 190 203 62 203 188 203 62 204 64 204 188 204 188 205 64 205 186 205 64 206 66 206 186 206 186 207 66 207 184 207 66 208 68 208 184 208 184 209 68 209 182 209 68 210 70 210 182 210 182 211 70 211 180 211 70 212 72 212 180 212 180 213 72 213 178 213 72 214 74 214 178 214 178 215 74 215 176 215 74 216 76 216 176 216 176 217 76 217 174 217 76 218 78 218 174 218 174 219 78 219 172 219 78 220 80 220 172 220 172 221 80 221 170 221 80 222 82 222 170 222 83 223 169 223 85 223 169 224 167 224 85 224 85 225 167 225 87 225 167 226 165 226 87 226 87 227 165 227 89 227 165 228 163 228 89 228 89 229 163 229 91 229 163 230 161 230 91 230 91 231 161 231 93 231 161 232 159 232 93 232 93 233 159 233 95 233 159 234 157 234 95 234 95 235 157 235 97 235 157 236 155 236 97 236 97 237 155 237 99 237 155 238 153 238 99 238 99 239 153 239 101 239 153 240 151 240 101 240 101 241 151 241 103 241 151 242 149 242 103 242 103 243 149 243 105 243 149 244 147 244 105 244 105 245 147 245 107 245 147 246 145 246 107 246 107 246 145 246 109 246 145 247 287 247 109 247 109 248 287 248 111 248 287 249 285 249 111 249 111 250 285 250 113 250 285 251 283 251 113 251 113 252 283 252 115 252 283 253 281 253 115 253 115 254 281 254 117 254 281 255 279 255 117 255 117 256 279 256 119 256 279 257 277 257 119 257 119 258 277 258 121 258 277 259 275 259 121 259 121 260 275 260 123 260 275 261 273 261 123 261 123 262 273 262 125 262 273 263 271 263 125 263 125 264 271 264 127 264 271 265 269 265 127 265 127 266 269 266 129 266 269 267 267 267 129 267 129 267 267 267 131 267 267 268 265 268 131 268 131 269 265 269 133 269 265 270 263 270 133 270 133 271 263 271 135 271 263 272 261 272 135 272 135 273 261 273 137 273 261 274 259 274 137 274 137 275 259 275 139 275 259 276 257 276 139 276 139 277 257 277 141 277 257 278 255 278 141 278 141 279 255 279 143 279 255 280 253 280 143 280 143 281 253 281 1 281 253 282 251 282 1 282 1 283 251 283 3 283 251 284 249 284 3 284 3 285 249 285 5 285 249 286 247 286 5 286 5 287 247 287 7 287 247 288 245 288 7 288 7 289 245 289 9 289 245 290 243 290 9 290 9 291 243 291 11 291 243 292 241 292 11 292 11 293 241 293 13 293 241 294 239 294 13 294 13 294 239 294 15 294 239 295 237 295 15 295 15 296 237 296 17 296 237 297 235 297 17 297 17 298 235 298 19 298 235 299 233 299 19 299 19 300 233 300 21 300 233 301 231 301 21 301 21 302 231 302 23 302 231 303 229 303 23 303 23 304 229 304 25 304 229 305 227 305 25 305 25 306 227 306 27 306 227 307 225 307 27 307 27 308 225 308 29 308 225 309 223 309 29 309 29 310 223 310 31 310 223 311 221 311 31 311 31 312 221 312 33 312 221 313 219 313 33 313 33 314 219 314 35 314 219 315 217 315 35 315 35 316 217 316 37 316 217 317 215 317 37 317 37 318 215 318 39 318 215 319 213 319 39 319 39 320 213 320 41 320 213 321 211 321 41 321 41 322 211 322 43 322 211 323 209 323 43 323 43 324 209 324 45 324 209 325 207 325 45 325 45 326 207 326 47 326 207 327 205 327 47 327 47 328 205 328 49 328 205 329 203 329 49 329 49 330 203 330 51 330 203 331 201 331 51 331 51 332 201 332 53 332 201 333 199 333 53 333 53 334 199 334 55 334 199 335 197 335 55 335 55 336 197 336 57 336 197 337 195 337 57 337 57 338 195 338 59 338 195 339 193 339 59 339 59 340 193 340 61 340 193 341 191 341 61 341 61 342 191 342 63 342 191 343 189 343 63 343 63 344 189 344 65 344 189 345 187 345 65 345 65 346 187 346 67 346 187 347 185 347 67 347 67 348 185 348 69 348 185 349 183 349 69 349 69 350 183 350 71 350 183 351 181 351 71 351 71 352 181 352 73 352 181 353 179 353 73 353 73 354 179 354 75 354 179 355 177 355 75 355 75 356 177 356 77 356 177 357 175 357 77 357 77 358 175 358 79 358 175 359 173 359 79 359 79 360 173 360 81 360 173 361 171 361 81 361 81 362 171 362 83 362 171 363 169 363 83 363</p>
        </triangles>
      </mesh>
    </geometry>
  </library_geometries>
  <library_visual_scenes>
    <visual_scene id="Scene" name="Scene">
      <node id="trapezoid_default_as_machined__2" name="trapezoid_default_as_machined__2" type="NODE">
        <matrix sid="transform">1 0 0 0 0 1 0 0 0 0 1 0 0 0 0 1</matrix>
        <instance_geometry url="#trapezoid_default_as_machined__2-mesh" name="trapezoid_default_as_machined__2"/>
      </node>
    </visual_scene>
  </library_visual_scenes>
  <scene>
    <instance_visual_scene url="#Scene"/>
  </scene>
</COLLADA>