<?xml version="1.0" encoding="utf-8"?>
<COLLADA xmlns="http://www.collada.org/2005/11/COLLADASchema" version="1.4.1" xmlns:xsi="http://www.w3.org/2001/XMLSchema-instance">
  <asset>
    <contributor>
      <author>Blender User</author>
      <authoring_tool>Blender 3.0.1</authoring_tool>
    </contributor>
    <created>2026-06-04T16:19:22</created>
    <modified>2026-06-04T16:19:22</modified>
    <unit name="meter" meter="1"/>
    <up_axis>Z_UP</up_axis>
  </asset>
  <library_images/>
  <library_geometries>
    <geometry id="trapezoid_single_eye_default_as_machined__2-mesh" name="trapezoid_single_eye_default_as_machined__2">
      <mesh>
        <source id="trapezoid_single_eye_default_as_machined__2-mesh-positions">
          <float_array id="trapezoid_single_eye_default_as_machined__2-mesh-positions-array" count="1428">0.2541179 0.0117917 0.1378951 0.2542803 0.01163846 0.137821 0.255056 0.01428776 0.1374819 0.2544298 0.01147121 0.1377538 0.2550073 0.01013928 0.1375025 0.2550196 0.01002657 0.1374973 0.2549902 0.01025146 0.1375098 0.2549099 0.01058197 0.1375439 0.2549415 0.01047289 0.1375305 0.2549681 0.0103631 0.1375191 0.2547881 0.01089876 0.1375964 0.2548333 0.01079493 0.1375769 0.2548739 0.01068919 0.1375594 0.2546268 0.01119732 0.1376667 0.2546849 0.01109999 0.1376412 0.2547387 0.01100039 0.1376178 0.2544992 0.01138293 0.1377229 0.2545651 0.01129126 0.1376938 0.2550269 0.009913504 0.1374942 0.2550294 0.009799957 0.1374931 0.2550294 -0.009799957 0.1374931 0.255056 -0.01428776 0.1374819 0.2550269 -0.009913742 0.1374942 0.2550196 -0.01002657 0.1374973 0.2550073 -0.01013946 0.1375025 0.2549902 -0.01025146 0.1375098 0.2549682 -0.01036262 0.1375191 0.2549415 -0.01047289 0.1375305 0.2549101 -0.01058173 0.1375439 0.2548739 -0.01068919 0.1375594 0.2548331 -0.01079529 0.1375769 0.2547881 -0.01089876 0.1375964 0.2547386 -0.01100063 0.1376178 0.2546849 -0.01109999 0.1376412 0.254627 -0.01119685 0.1376665 0.2545651 -0.01129126 0.1376938 0.2544991 -0.01138305 0.137723 0.2544298 -0.01147121 0.1377538 0.2542803 -0.01163846 0.137821 0.2568481 -0.0125938 0.1367865 0.2569711 -0.01239997 0.1367431 0.2563713 -0.01204389 0.1369598 0.2570854 -0.01220136 0.1367033 0.2571911 -0.01199758 0.1366668 0.2572872 -0.01179063 0.1366341 0.2573744 -0.0115785 0.1366047 0.2574516 -0.01136374 0.1365788 0.2575191 -0.01114583 0.1365564 0.2575764 -0.01092535 0.1365375 0.2576236 -0.01070296 0.136522 0.2576603 -0.01047903 0.13651 0.2576867 -0.01025319 0.1365014 0.2577025 -0.01002752 0.1364963 0.2557748 -0.01378339 0.1371885 0.2561156 -0.0134769 0.1370562 0.2564306 -0.01314246 0.1369378 0.2567167 -0.01278257 0.1368334 0.2563713 0.01204389 0.1369598 0.2554116 -0.01405954 0.1373343 0.2570856 0.01220095 0.1367032 0.2569711 0.01239997 0.1367431 0.2568475 0.01259475 0.1367866 0.2567167 0.01278257 0.1368334 0.2557748 0.01378339 0.1371885 0.2554116 0.01405954 0.1373343 0.2564306 0.01314246 0.1369378 0.2561156 0.0134769 0.1370562 0.2573744 0.0115785 0.1366047 0.2572875 0.01178991 0.136634 0.2571911 0.01199758 0.1366668 0.2575762 0.0109263 0.1365376 0.2575191 0.01114583 0.1365564 0.2574515 0.01136404 0.1365789 0.2576867 0.01025319 0.1365014 0.2576603 0.01047879 0.13651 0.2576236 0.01070296 0.136522 0.2577078 -0.009799957 0.1364946 0.2577078 0.009799957 0.1364946 0.2577025 0.01002705 0.1364963 0.2378951 -0.0117917 0.1541178 0.237821 -0.01163846 0.1542803 0.2374819 -0.01428776 0.1550559 0.2377538 -0.01147121 0.1544298 0.2375025 -0.01013928 0.1550073 0.2374973 -0.01002657 0.1550196 0.2375098 -0.01025146 0.1549901 0.237544 -0.01058197 0.1549099 0.2375305 -0.01047289 0.1549414 0.2375192 -0.0103631 0.1549681 0.2375963 -0.01089876 0.1547881 0.2375769 -0.01079493 0.1548333 0.2375594 -0.01068919 0.1548739 0.2376667 -0.01119732 0.1546267 0.2376412 -0.01109999 0.1546849 0.2376178 -0.01100039 0.1547387 0.2377229 -0.01138293 0.1544992 0.2376938 -0.01129126 0.154565 0.2374942 -0.009913504 0.1550269 0.2374932 -0.009799957 0.1550294 0.2374932 0.009799957 0.1550294 0.2374819 0.01428776 0.1550559 0.2374942 0.009913742 0.1550269 0.2374973 0.01002657 0.1550196 0.2375025 0.01013946 0.1550073 0.2375098 0.01025146 0.1549901 0.2375191 0.01036262 0.1549682 0.2375305 0.01047289 0.1549414 0.2375439 0.01058173 0.15491 0.2375594 0.01068919 0.1548739 0.2375769 0.01079529 0.1548331 0.2375963 0.01089876 0.1547881 0.2376179 0.01100063 0.1547386 0.2376412 0.01109999 0.1546849 0.2376665 0.01119685 0.154627 0.2376938 0.01129126 0.154565 0.237723 0.01138305 0.1544991 0.2377538 0.01147121 0.1544298 0.237821 0.01163846 0.1542803 0.2367864 0.0125938 0.1568481 0.2367431 0.01239997 0.156971 0.2369598 0.01204389 0.1563713 0.2367033 0.01220136 0.1570854 0.2366669 0.01199758 0.157191 0.2366341 0.01179063 0.1572871 0.2366046 0.0115785 0.1573744 0.2365788 0.01136374 0.1574516 0.2365564 0.01114583 0.1575191 0.2365375 0.01092535 0.1575764 0.236522 0.01070296 0.1576235 0.23651 0.01047903 0.1576603 0.2365015 0.01025319 0.1576867 0.2364963 0.01002752 0.1577025 0.2371885 0.01378339 0.1557748 0.2370563 0.0134769 0.1561155 0.2369378 0.01314246 0.1564306 0.2368334 0.01278257 0.1567167 0.2369598 -0.01204389 0.1563713 0.2373343 0.01405954 0.1554116 0.2367032 -0.01220095 0.1570855 0.2367431 -0.01239997 0.156971 0.2367867 -0.01259475 0.1568474 0.2368334 -0.01278257 0.1567167 0.2371885 -0.01378339 0.1557748 0.2373343 -0.01405954 0.1554116 0.2369378 -0.01314246 0.1564306 0.2370563 -0.0134769 0.1561155 0.2366046 -0.0115785 0.1573744 0.236634 -0.01178991 0.1572874 0.2366669 -0.01199758 0.157191 0.2365376 -0.0109263 0.1575762 0.2365564 -0.01114583 0.1575191 0.2365788 -0.01136404 0.1574515 0.2365015 -0.01025319 0.1576867 0.23651 -0.01047879 0.1576603 0.236522 -0.01070296 0.1576235 0.2364946 0.009799957 0.1577078 0.2364946 -0.009799957 0.1577078 0.2364963 -0.01002705 0.1577025 0.2378951 0.0117917 0.1541178 0.2379755 0.01192975 0.1539438 0.2374932 0.01430332 0.1550294 0.238062 0.01205164 0.1537598 0.2376645 0.01451277 0.1546317 0.238154 0.01215636 0.1535673 0.2378475 0.0146864 0.154222 0.2382509 0.01224315 0.1533678 0.2380412 0.01482278 0.1538038 0.2383521 0.01231139 0.153163 0.2382445 0.01492094 0.1533808 0.2384569 0.01236045 0.1529546 0.2384561 0.01498019 0.1529563 0.2385646 0.01239007 0.1527443 0.2386743 0.01499998 0.1525336 0.2386743 0.01239997 0.1525336 0.2386934 0.01499998 0.1524974 0.2386934 0.01239997 0.1524974 0.2401193 0.01499998 0.1500525 0.2401193 0.01239997 0.1500525 0.2417496 0.01499998 0.1477389 0.2417496 0.01239997 0.1477389 0.2435721 0.01499998 0.1455734 0.2435721 0.01239997 0.1455734 0.2455734 0.01499998 0.1435721 0.2455734 0.01239997 0.1435721 0.2477388 0.01499998 0.1417496 0.2477388 0.01239997 0.1417496 0.2500525 0.01499998 0.1401194 0.2500525 0.01239997 0.1401194 0.2524974 0.01499998 0.1386934 0.2524974 0.01239997 0.1386934 0.2525336 0.01499998 0.1386743 0.2525336 0.01239997 0.1386743 0.2529563 0.01498019 0.1384561 0.2527443 0.01239007 0.1385645 0.2533808 0.01492094 0.1382445 0.2529547 0.01236045 0.1384569 0.2538039 0.01482278 0.1380412 0.253163 0.01231139 0.1383521 0.254222 0.0146864 0.1378475 0.2533678 0.01224315 0.1382509 0.2546317 0.01451277 0.1376644 0.2535673 0.01215636 0.138154 0.2550294 0.01430332 0.1374931 0.2537598 0.01205164 0.138062 0.2539439 0.01192975 0.1379756 0.2541179 -0.0117917 0.1378951 0.2539439 -0.01192975 0.1379756 0.2550294 -0.01430332 0.1374931 0.2537598 -0.01205164 0.138062 0.2546317 -0.01451277 0.1376644 0.2535673 -0.01215636 0.138154 0.254222 -0.0146864 0.1378475 0.2533678 -0.01224315 0.1382509 0.2538039 -0.01482278 0.1380412 0.253163 -0.01231139 0.1383521 0.2533808 -0.01492094 0.1382445 0.2529547 -0.01236045 0.1384569 0.2529563 -0.01498019 0.1384561 0.2527443 -0.01239007 0.1385645 0.2525336 -0.01499998 0.1386743 0.2525336 -0.01239997 0.1386743 0.2524974 -0.01499998 0.1386934 0.2524974 -0.01239997 0.1386934 0.2500525 -0.01499998 0.1401194 0.2500525 -0.01239997 0.1401194 0.2477388 -0.01499998 0.1417496 0.2477388 -0.01239997 0.1417496 0.2455734 -0.01499998 0.1435721 0.2455734 -0.01239997 0.1435721 0.2435721 -0.01499998 0.1455734 0.2435721 -0.01239997 0.1455734 0.2417496 -0.01499998 0.1477389 0.2417496 -0.01239997 0.1477389 0.2401193 -0.01499998 0.1500525 0.2401193 -0.01239997 0.1500525 0.2386934 -0.01499998 0.1524974 0.2386934 -0.01239997 0.1524974 0.2386743 -0.01499998 0.1525336 0.2386743 -0.01239997 0.1525336 0.2384561 -0.01498019 0.1529563 0.2385646 -0.01239007 0.1527443 0.2382445 -0.01492094 0.1533808 0.2384569 -0.01236045 0.1529546 0.2380412 -0.01482278 0.1538038 0.2383521 -0.01231139 0.153163 0.2378475 -0.0146864 0.154222 0.2382509 -0.01224315 0.1533678 0.2376645 -0.01451277 0.1546317 0.238154 -0.01215636 0.1535673 0.2374932 -0.01430332 0.1550294 0.238062 -0.01205164 0.1537598 0.2379755 -0.01192975 0.1539438 0.09455615 0.01378339 0.01314246 0.09470528 0.01405954 0.01278257 0.09532296 0.01192975 0.01129126 0.09490042 0.01047289 0.01231139 0.09488928 0.01036274 0.01233834 0.09383785 0.01092547 0.01487672 0.09381949 0.01070296 0.01492094 0.0948801 0.01025146 0.01236045 0.09380519 0.01047873 0.01495546 0.09487295 0.01013934 0.01237773 0.093795 0.01025319 0.01498019 0.09486782 0.01002657 0.01239007 0.0937888 0.01002681 0.01499503 0.09486478 0.009913384 0.01239752 0.09378677 0.009799957 0.01499998 0.09486371 0.009799957 0.01239997 0.09378677 -0.009799957 0.01499998 0.09486371 -0.009799957 0.01239997 0.0937888 -0.01002681 0.01499503 0.09486478 -0.009913384 0.01239752 0.093795 -0.01025319 0.01498019 0.09486782 -0.01002657 0.01239007 0.09380519 -0.01047873 0.01495546 0.09487295 -0.01013934 0.01237773 0.09381949 -0.01070296 0.01492094 0.0948801 -0.01025146 0.01236045 0.09383785 -0.01092547 0.01487672 0.09488928 -0.01036274 0.01233834 0.09386014 -0.01114583 0.01482278 0.09490042 -0.01047289 0.01231139 0.09388649 -0.01136362 0.0147593 0.0949136 -0.01058179 0.01227962 0.09391665 -0.0115785 0.0146864 0.1050864 0.01058179 -0.01227962 0.1061135 0.01136362 -0.0147593 0.1050995 0.01047289 -0.01231139 0.1061398 0.01114583 -0.01482278 0.1051107 0.01036274 -0.01233834 0.1061621 0.01092547 -0.01487672 0.1051198 0.01025146 -0.01236045 0.1061804 0.01070296 -0.01492094 0.105127 0.01013934 -0.01237773 0.1061947 0.01047873 -0.01495546 0.1051321 0.01002657 -0.01239007 0.106205 0.01025319 -0.01498019 0.1051352 0.009913384 -0.01239752 0.1062111 0.01002681 -0.01499503 0.1051362 0.009799957 -0.01239997 0.1062132 0.009799957 -0.01499998 0.1051362 -0.009799957 -0.01239997 0.1062132 -0.009799957 -0.01499998 0.1051352 -0.009913384 -0.01239752 0.1062111 -0.01002681 -0.01499503 0.1051321 -0.01002657 -0.01239007 0.106205 -0.01025319 -0.01498019 0.105127 -0.01013934 -0.01237773 0.1061947 -0.01047873 -0.01495546 0.1051198 -0.01025146 -0.01236045 0.1061804 -0.01070296 -0.01492094 0.1051107 -0.01036274 -0.01233834 0.1061621 -0.01092547 -0.01487672 0.1050995 -0.01047289 -0.01231139 0.09540218 0.01205164 0.01109999 0.09486371 0.01430332 0.01239997 0.09548556 0.01215636 0.01089876 0.09503042 0.01451277 0.01199758 0.09557235 0.01224315 0.01068919 0.09520399 0.0146864 0.0115785 0.09566193 0.01231139 0.01047289 0.09538322 0.01482278 0.01114583 0.09575366 0.01236045 0.01025146 0.09556668 0.01492094 0.01070296 0.09584683 0.01239007 0.01002657 0.09575295 0.01498019 0.01025319 0.0959407 0.01239997 0.009799957 0.0959407 0.01499998 0.009799957 0.1040593 0.01239997 -0.009799957 0.1040593 0.01499998 -0.009799957 0.1041531 0.01239007 -0.01002657 0.104247 0.01498019 -0.01025319 0.1042463 0.01236045 -0.01025146 0.1044333 0.01492094 -0.01070296 0.104338 0.01231139 -0.01047289 0.1046168 0.01482278 -0.01114583 0.1044276 0.01224315 -0.01068919 0.1047959 0.0146864 -0.0115785 0.1045144 0.01215636 -0.01089876 0.1049696 0.01451277 -0.01199758 0.1045978 0.01205164 -0.01109999 0.1051362 0.01430332 -0.01239997 0.104677 0.01192975 -0.01129126 0.1052947 0.01405954 -0.01278257 0.1047515 0.0117917 -0.01147121 0.1054438 0.01378339 -0.01314246 0.1048208 0.01163846 -0.01163846 0.09386014 0.01114583 0.01482278 0.09388649 0.01136362 0.0147593 0.0949136 0.01058179 0.01227962 0.09391665 0.0115785 0.0146864 0.09492868 0.01068919 0.01224315 0.09395074 0.01178991 0.01460415 0.09494572 0.01079493 0.01220208 0.09398859 0.01199758 0.01451277 0.09496462 0.01089876 0.01215636 0.09403014 0.01220107 0.0144124 0.09498542 0.01100051 0.01210618 0.09407532 0.01239997 0.01430332 0.09500801 0.01109999 0.01205164 0.09412407 0.01259392 0.0141856 0.09503239 0.01119697 0.01199281 0.09417629 0.01278257 0.01405954 0.0950585 0.01129126 0.01192975 0.0942319 0.01296555 0.01392543 0.09508627 0.01138275 0.01186269 0.09429067 0.01314246 0.01378339 0.09511572 0.01147121 0.0117917 0.09435266 0.01331305 0.01363384 0.09514665 0.0115565 0.0117169 0.09441763 0.0134769 0.0134769 0.09517914 0.01163846 0.01163846 0.09524846 0.0117917 0.01147121 0.09395074 -0.01178991 0.01460415 0.09492868 -0.01068919 0.01224315 0.09398859 -0.01199758 0.01451277 0.09494572 -0.01079493 0.01220208 0.09403014 -0.01220107 0.0144124 0.09496462 -0.01089876 0.01215636 0.09407532 -0.01239997 0.01430332 0.09498542 -0.01100051 0.01210618 0.09412407 -0.01259392 0.0141856 0.09500801 -0.01109999 0.01205164 0.09417629 -0.01278257 0.01405954 0.09503239 -0.01119697 0.01199281 0.0942319 -0.01296555 0.01392543 0.0950585 -0.01129126 0.01192975 0.09429067 -0.01314246 0.01378339 0.09508627 -0.01138275 0.01186269 0.09435266 -0.01331305 0.01363384 0.09511572 -0.01147121 0.0117917 0.09441763 -0.0134769 0.0134769 0.09514665 -0.0115565 0.0117169 0.09455615 -0.01378339 0.01314246 0.09517914 -0.01163846 0.01163846 0.09524846 -0.0117917 0.01147121 0.09470528 -0.01405954 0.01278257 0.09532296 -0.01192975 0.01129126 0.09486371 -0.01430332 0.01239997 0.09540218 -0.01205164 0.01109999 0.09503042 -0.01451277 0.01199758 0.09548556 -0.01215636 0.01089876 0.09520399 -0.0146864 0.0115785 0.09557235 -0.01224315 0.01068919 0.09538322 -0.01482278 0.01114583 0.09566193 -0.01231139 0.01047289 0.09556668 -0.01492094 0.01070296 0.09575366 -0.01236045 0.01025146 0.09575295 -0.01498019 0.01025319 0.09584683 -0.01239007 0.01002657 0.0959407 -0.01499998 0.009799957 0.0959407 -0.01239997 0.009799957 0.1040593 -0.01499998 -0.009799957 0.1040593 -0.01239997 -0.009799957 0.104247 -0.01498019 -0.01025319 0.1041531 -0.01239007 -0.01002657 0.1044333 -0.01492094 -0.01070296 0.1042463 -0.01236045 -0.01025146 0.1046168 -0.01482278 -0.01114583 0.104338 -0.01231139 -0.01047289 0.1047959 -0.0146864 -0.0115785 0.1044276 -0.01224315 -0.01068919 0.1049696 -0.01451277 -0.01199758 0.1045144 -0.01215636 -0.01089876 0.1051362 -0.01430332 -0.01239997 0.1045978 -0.01205164 -0.01109999 0.1052947 -0.01405954 -0.01278257 0.104677 -0.01192975 -0.01129126 0.1054438 -0.01378339 -0.01314246 0.1061398 -0.01114583 -0.01482278 0.1061135 -0.01136362 -0.0147593 0.1050864 -0.01058179 -0.01227962 0.1060833 -0.0115785 -0.0146864 0.1050713 -0.01068919 -0.01224315 0.1060492 -0.01178991 -0.01460415 0.1050543 -0.01079493 -0.01220208 0.1060114 -0.01199758 -0.01451277 0.1050353 -0.01089876 -0.01215636 0.1059698 -0.01220107 -0.0144124 0.1050145 -0.01100051 -0.01210618 0.1059246 -0.01239997 -0.01430332 0.1049919 -0.01109999 -0.01205164 0.1058759 -0.01259392 -0.0141856 0.1049675 -0.01119697 -0.01199281 0.1058236 -0.01278257 -0.01405954 0.1049414 -0.01129126 -0.01192975 0.1057681 -0.01296555 -0.01392543 0.1049137 -0.01138275 -0.01186269 0.1057093 -0.01314246 -0.01378339 0.1048843 -0.01147121 -0.0117917 0.1056473 -0.01331305 -0.01363384 0.1048533 -0.0115565 -0.0117169 0.1055823 -0.0134769 -0.0134769 0.1048208 -0.01163846 -0.01163846 0.1047515 -0.0117917 -0.01147121 0.1048533 0.0115565 -0.0117169 0.1055823 0.0134769 -0.0134769 0.1048843 0.01147121 -0.0117917 0.1056473 0.01331305 -0.01363384 0.1049137 0.01138275 -0.01186269 0.1057093 0.01314246 -0.01378339 0.1049414 0.01129126 -0.01192975 0.1057681 0.01296555 -0.01392543 0.1049675 0.01119697 -0.01199281 0.1058236 0.01278257 -0.01405954 0.1049919 0.01109999 -0.01205164 0.1058759 0.01259392 -0.0141856 0.1050145 0.01100051 -0.01210618 0.1059246 0.01239997 -0.01430332 0.1050353 0.01089876 -0.01215636 0.1059698 0.01220107 -0.0144124 0.1050543 0.01079493 -0.01220208 0.1060114 0.01199758 -0.01451277 0.1050713 0.01068919 -0.01224315 0.1060492 0.01178991 -0.01460415 0.1060833 0.0115785 -0.0146864</float_array>
          <technique_common>
            <accessor source="#trapezoid_single_eye_default_as_machined__2-mesh-positions-array" count="476" stride="3">
              <param name="X" type="float"/>
              <param name="Y" type="float"/>
              <param name="Z" type="float"/>
            </accessor>
          </technique_common>
        </source>
        <source id="trapezoid_single_eye_default_as_machined__2-mesh-normals">
          <float_array id="trapezoid_single_eye_default_as_machined__2-mesh-normals-array" count="2592">0.4115477 -0.003887534 0.9113799 0.4078245 -0.002501487 0.9130569 0.3879438 0 0.9216831 0.3905962 -2.18748e-5 0.9205622 0.3913264 -6.30358e-5 0.920252 0.3927639 -4.39399e-5 0.9196395 0.3909515 -2.17176e-5 0.9204113 0.3955535 -2.9563e-4 0.9184429 0.394267 -1.61585e-4 0.918996 0.3943063 -1.23256e-4 0.9189791 0.4000101 -8.13274e-4 0.9165104 0.3983578 -5.12028e-4 0.9172301 0.3965972 -3.85795e-4 0.9179927 0.4046187 -0.001699149 0.914484 0.4031698 -0.001373171 0.9151241 0.4013586 -9.74154e-4 0.9159205 0.3897728 0 0.9209111 0.3972346 -2.98403e-5 0.9177172 0.3893668 0 0.9210828 0.389591 2.96222e-6 0.920988 0.3871632 0 0.9220111 0.3911707 2.1907e-5 0.9203183 0.391065 2.18326e-5 0.920363 0.3928676 4.37427e-5 0.9195951 0.3915716 7.58468e-5 0.9201477 0.3942264 1.06188e-4 0.9190133 0.3944189 1.81111e-4 0.9189307 0.3956673 2.78065e-4 0.918394 0.3967776 3.93374e-4 0.9179148 0.3982677 5.13232e-4 0.9172691 0.3999407 7.86808e-4 0.9165408 0.4013777 0.001012921 0.9159121 0.4030769 0.001371324 0.9151651 0.4047117 0.001754522 0.9144427 0.4078186 0.002514123 0.9130595 0.3378663 -0.00372219 0.9411869 0.3371008 -0.005228638 0.9414541 0.3368742 -0.006580293 0.9415267 0.3368847 -0.00738126 0.941517 0.3369091 -0.007716655 0.9415057 0.3370301 -0.007906556 0.9414608 0.3368621 -0.007517933 0.9415241 0.3361772 -0.006595671 0.9417757 0.3353943 -0.005622744 0.942061 0.3342009 -0.004391133 0.9424917 0.3326578 -0.002911269 0.9430431 0.3312476 -0.001844406 0.9435421 0.3635147 -0.002182722 0.931586 0.3516858 2.16406e-4 0.9361181 0.3432196 -3.25751e-4 0.9392552 0.3393707 -0.002341032 0.9406498 0.3689415 0 0.9294527 0.3919232 -0.01570272 0.919864 0.3775928 -0.007760107 0.9259393 0.3371601 0.005260765 0.9414327 0.3377995 0.003789246 0.9412106 0.3394256 0.002278208 0.9406301 0.3775674 0.007760167 0.9259496 0.391922 0.01570266 0.9198645 0.3689244 0 0.9294595 0.3887174 0 0.921357 0.3945149 3.32805e-5 0.9188895 0.3431833 3.18121e-4 0.9392684 0.351686 -2.14079e-4 0.9361181 0.3635147 0.002182722 0.931586 0.3369466 0.007902741 0.9414907 0.3369002 0.007189929 0.9415129 0.3368488 0.006615042 0.9415355 0.3362069 0.006557464 0.9417653 0.3367217 0.007362365 0.9415755 0.337079 0.008043169 0.941442 0.3327662 0.002969145 0.9430047 0.3341901 0.004386305 0.9424955 0.3354161 0.005622744 0.9420534 0.3294668 -4.23117e-4 0.9441671 0.3287534 0 0.9444158 0.3287649 0 0.9444119 0.3294085 4.2401e-4 0.9441874 0.3312574 0.001840233 0.9435386 0.9112804 0.003912091 0.4117678 0.9131368 0.002476394 0.407646 0.9209318 0 0.3897239 0.9206784 0 0.3903222 0.9196377 7.56945e-5 0.3927677 0.9201451 2.92816e-5 0.3915778 0.9201196 3.48003e-5 0.3916375 0.9183984 3.32646e-4 0.3956569 0.9189622 1.61448e-4 0.3943457 0.9193771 1.12048e-4 0.3933774 0.9165797 7.22855e-4 0.3998516 0.9172569 5.75845e-4 0.3982957 0.9177841 3.25802e-4 0.3970798 0.9143897 0.001698791 0.4048317 0.9151355 0.001428127 0.403144 0.9159159 0.001003086 0.4013692 0.9206233 0 0.3904522 0.9210731 5.94701e-5 0.3893899 0.9213042 0 0.3888427 0.9204831 0 0.3907826 0.9205427 0 0.3906421 0.9209609 0 0.3896552 0.9202702 -4.36677e-5 0.3912838 0.9200147 -2.91883e-5 0.3918837 0.9198486 -1.01127e-4 0.3922737 0.9192155 -1.11838e-4 0.393755 0.918977 -1.60885e-4 0.3943111 0.9183846 -2.96636e-4 0.3956891 0.9177254 -3.33569e-4 0.3972155 0.9173058 -5.77164e-4 0.3981829 0.9166047 -7.26503e-4 0.3997943 0.9159016 -9.98285e-4 0.4014018 0.9151257 -0.001316368 0.4031666 0.9143981 -0.00180751 0.4048122 0.913139 -0.00248897 0.4076409 0.9411713 0.003936469 0.3379071 0.9414583 0.005142927 0.3370903 0.9415339 0.006590902 0.336854 0.9415138 0.007298231 0.3368954 0.9414656 0.007796466 0.337019 0.9414645 0.008053541 0.337016 0.9415539 0.007229328 0.336785 0.9417635 0.006527721 0.3362129 0.9420809 0.005499601 0.3353408 0.9425411 0.004509747 0.3340601 0.9429914 0.003076612 0.3328029 0.9435819 0.00170207 0.331135 0.9315586 0.002182602 0.3635847 0.9361168 -2.04783e-4 0.3516891 0.9392881 2.8504e-4 0.3431296 0.9406462 0.002319812 0.3393809 0.929454 0 0.3689379 0.919865 0.01570028 0.3919209 0.9259636 0.007731616 0.3775336 0.9414581 -0.005132377 0.3370908 0.9411886 -0.003916621 0.3378592 0.9406374 -0.002288877 0.3394055 0.9259616 -0.007731676 0.3775386 0.9198656 -0.01570028 0.3919194 0.9294511 0 0.3689455 0.921203 0 0.3890823 0.9221202 -5.16817e-5 0.3869037 0.9392833 -2.6469e-4 0.3431425 0.9361169 2.04783e-4 0.351689 0.9315586 -0.002182602 0.3635847 0.9414745 -0.007822632 0.3369935 0.9415089 -0.007272779 0.3369099 0.9415379 -0.006561934 0.3368434 0.9417749 -0.006830394 0.336175 0.9415512 -0.007506966 0.3367865 0.9414666 -0.007741332 0.3370174 0.9430218 -0.002859592 0.3327186 0.9425273 -0.004741668 0.3340957 0.9420746 -0.005301892 0.3353616 0.9441213 5.64104e-4 0.329598 0.9444213 0 0.3287379 0.9444153 0 0.3287549 0.9441537 -7.53665e-4 0.3295046 0.9435571 -0.001663148 0.3312058 0.9112804 -0.003912091 0.4117678 0.9093169 -0.005820512 0.4160637 0.9197471 0.007363319 0.3924426 0.9070886 -0.008070826 0.4208623 0.9170668 0.006870508 0.3986747 0.9035763 -0.005768835 0.4283884 0.9123092 0.004593849 0.4094765 0.9001206 -0.003685951 0.4356256 0.9070271 0.002528131 0.4210647 0.896764 -0.001871168 0.4425053 0.9012337 9.67289e-4 0.4333322 0.8934438 -6.5653e-4 0.4491744 0.8950291 2.8362e-6 0.4460077 0.890156 0 0.4556561 0.8885478 -3.17658e-4 0.4587839 0.8868861 0 0.4619882 0.8849178 0 0.4657474 0.8849179 0 0.4657472 0.8638077 0 0.5038217 0.817455 0 0.5759925 0.8174553 0 0.5759922 0.7650982 0 0.6439138 0.7071039 0 0.7071098 0.7071041 0 0.7071095 0.6439221 0 0.7650911 0.6439175 0 0.7650951 0.5759869 0 0.8174589 0.5759867 0 0.8174591 0.5038243 0 0.8638062 0.5038184 0 0.8638096 0.4658882 0 0.8848436 0.4654606 0 0.8850687 0.4588273 0 0.8885256 0.4620839 -6.53692e-4 0.886836 0.4460812 9.83693e-4 0.894992 0.4553321 -0.001986086 0.8903195 0.4336577 0.002564072 0.9010741 0.4485941 -0.003821074 0.8937275 0.421598 0.004640042 0.906771 0.4414834 -0.006148576 0.8972484 0.410363 0.007112622 0.9118945 0.4337829 -0.008811771 0.9009744 0.3999202 0.009748518 0.9164982 0.4259054 -0.01152598 0.9046944 0.39395 0.01008403 0.9190766 0.4205695 -0.008437335 0.9072211 0.4161575 -0.005849361 0.9092738 0.4116279 0.003887355 0.9113437 0.4161375 0.005867004 0.9092829 0.3918009 -0.007367193 0.9200206 0.4208806 0.008070647 0.9070802 0.3986209 -0.006928622 0.9170897 0.4284899 0.005862057 0.9035276 0.4094766 -0.004593849 0.9123092 0.435595 0.003709256 0.9001352 0.4210401 -0.002539873 0.9070386 0.4426191 0.001917898 0.8967078 0.4333726 -9.90553e-4 0.9012143 0.4491727 6.44824e-4 0.8934447 0.44597 4.75725e-6 0.895048 0.4555562 0 0.8902071 0.4588229 3.26504e-4 0.8885277 0.4620928 0 0.8868317 0.4654604 0 0.8850687 0.4658884 0 0.8848436 0.8885439 0 0.4587919 0.8868941 6.36053e-4 0.4619724 0.8949737 -9.83745e-4 0.4461181 0.8902676 0.001974165 0.4554337 0.9010996 -0.002587318 0.4336045 0.8937124 0.003891766 0.4486233 0.9067586 -0.004639804 0.4216248 0.8973069 0.00612539 0.4413649 0.9118945 -0.007112622 0.4103631 0.9009607 0.00876528 0.4338123 0.9164948 -0.009701967 0.3999291 0.9047369 0.01152527 0.4258149 0.9190876 -0.01075738 0.3939067 0.9071858 0.008529484 0.420644 0.9093216 0.00585556 0.4160528 -0.9238776 0 -0.3826881 -0.9238786 0 -0.3826861 -0.9238805 -4.55942e-5 -0.3826811 -0.9238811 9.11876e-5 -0.38268 -0.9238779 0 -0.3826876 -0.923883 -1.82378e-4 -0.3826753 -0.9238805 9.11885e-5 -0.3826812 -0.9238762 0 -0.3826918 -0.9238815 0 -0.3826787 -0.9238801 0 -0.3826823 -0.9238786 -9.11882e-5 -0.3826857 -0.9238811 0 -0.3826797 -0.92388 0 -0.3826824 -0.9238786 0 -0.3826857 -0.9238811 1.82378e-4 -0.3826797 -0.9238794 -9.11885e-5 -0.3826841 -0.9238844 0 -0.3826718 -0.9238794 0 -0.3826841 -0.9238781 0 -0.3826869 -0.9238792 4.5594e-5 -0.3826845 -0.9238809 0 -0.3826802 -0.9238818 0 -0.3826782 -0.9238786 0 -0.3826858 -0.9238773 4.55942e-5 -0.3826889 -0.9238818 -9.11885e-5 -0.3826782 -0.9238767 0 -0.3826903 -0.9238826 0 -0.3826761 -0.9238766 -1.82375e-4 -0.3826907 -0.9238784 0 -0.3826865 -0.9238826 1.82376e-4 -0.3826761 -0.9238785 -9.11883e-5 -0.3826859 -0.9238769 -1.82377e-4 -0.3826899 -0.9238789 0 -0.3826849 -0.9238802 0 -0.382682 -0.9238794 9.11885e-5 -0.3826838 -0.9238781 -1.82376e-4 -0.3826869 -0.9238791 0 -0.3826847 -0.923878 0 -0.3826872 -0.9238795 9.11884e-5 -0.3826835 -0.9238805 0 -0.3826811 -0.9238792 1.82377e-4 -0.3826845 -0.9238777 0 -0.3826879 -0.9238811 0 -0.38268 -0.9238798 0 -0.382683 -0.9238805 0 -0.3826811 -0.9238823 0 -0.3826767 -0.923882 0 -0.3826777 -0.9238731 -4.56372e-5 -0.382699 -0.923877 1.14094e-5 -0.3826897 -0.9238812 0 -0.3826795 -0.9238812 0 -0.3826793 -0.9238842 0 -0.3826723 -0.9238798 0 -0.3826831 -0.92388 0 -0.3826823 -0.9238811 0 -0.3826799 -0.9238716 0 -0.3827027 -0.9238762 1.42617e-5 -0.3826914 -0.9238807 -1.14094e-5 -0.3826808 -0.9238797 0 -0.382683 -0.9238796 0 -0.3826833 -0.9238795 0 -0.3826835 -0.9238797 2.85236e-6 -0.382683 -0.9238809 -1.06964e-6 -0.3826802 -0.9238818 5.7047e-6 -0.382678 -0.9238799 -1.14095e-5 -0.3826827 -0.9238757 0 -0.3826927 -0.9238744 1.14092e-5 -0.3826957 -0.9238845 1.14094e-5 -0.3826716 -0.9238814 -2.28189e-5 -0.3826791 -0.9238767 0 -0.3826905 -0.9238818 2.28189e-5 -0.3826779 -0.9238821 0 -0.3826775 -0.923883 0 -0.3826751 -0.9238763 0 -0.3826913 -0.9238723 0 -0.382701 -0.9238822 0 -0.3826771 -0.9238803 -4.56378e-5 -0.3826816 -0.9238792 0 -0.3826845 -0.923879 -9.11888e-5 -0.3826851 -0.9238796 0 -0.3826834 -0.9238837 4.5594e-5 -0.3826737 -0.9238809 -9.1189e-5 -0.3826802 -0.9238787 0 -0.3826854 -0.9238728 -9.11882e-5 -0.3826996 -0.9238818 4.55942e-5 -0.3826782 -0.9238849 0 -0.3826704 -0.9238758 0 -0.3826928 -0.9238786 9.11876e-5 -0.3826858 -0.9238799 -4.55944e-5 -0.3826826 -0.9238846 0 -0.3826712 -0.9238725 0 -0.3827005 -0.9238827 0 -0.3826757 -0.9238813 9.11901e-5 -0.3826794 -0.9238798 -4.55941e-5 -0.382683 -0.9238769 0 -0.3826899 -0.9238812 -2.28188e-5 -0.3826795 -0.9238803 0 -0.3826816 -0.9238801 1.14095e-5 -0.3826825 -0.923877 0 -0.3826899 -0.9238826 0 -0.382676 -0.9238799 0 -0.3826826 -0.9238767 9.15364e-5 -0.3826907 -0.9238829 -4.55078e-5 -0.3826754 -0.9238806 0 -0.3826809 -0.9238778 4.55073e-5 -0.3826879 -0.923883 0 -0.3826752 -0.923882 0 -0.3826778 -0.9238725 0 -0.3827004 -0.9238749 0 -0.3826947 -0.9238867 0 -0.3826662 -0.9238811 4.5508e-5 -0.3826798 -0.9238762 0 -0.3826915 -0.9238798 -4.55074e-5 -0.382683 -0.9238826 9.1537e-5 -0.382676 -0.9238829 0 -0.3826754 -0.9238722 0 -0.3827013 -0.9238807 -4.55074e-5 -0.3826806 -0.9238793 9.15389e-5 -0.3826841 -0.9238804 -2.27539e-5 -0.3826814 -0.9238801 9.22404e-5 -0.3826825 -0.9238772 0 -0.3826893 -0.9238814 0 -0.3826791 -0.9238814 1.14095e-5 -0.3826791 -0.923877 0 -0.3826897 -0.9238815 0 -0.3826786 -0.9238808 0 -0.3826803 -0.9238792 0 -0.3826844 -0.9238854 2.28187e-5 -0.3826696 -0.9238811 -2.85236e-6 -0.3826799 -0.9238798 0 -0.382683 -0.923877 -4.61275e-6 -0.3826899 -0.9238703 -5.70466e-6 -0.3827059 -0.9238805 -5.70469e-6 -0.3826811 -0.9238817 0 -0.3826783 -0.9238757 1.14094e-5 -0.3826927 -0.9238796 0 -0.3826836 -0.9238846 -1.14094e-5 -0.3826712 -0.9238741 0 -0.3826966 -0.9238768 0 -0.3826903 -0.9238812 2.28188e-5 -0.3826795 -0.9238817 0 -0.3826781 -0.9238833 0 -0.3826747 -0.9238814 -4.56379e-5 -0.3826791 -0.9238766 1.82375e-4 -0.3826907 -0.9238767 -9.1188e-5 -0.3826903 -0.9238809 -1.82378e-4 -0.3826802 -0.9238823 0 -0.3826771 -0.923879 0 -0.3826851 -0.9238786 4.55938e-5 -0.3826858 -0.9238789 -1.82378e-4 -0.382685 -0.9238837 0 -0.3826733 -0.9238849 -9.11894e-5 -0.3826704 -0.9238758 4.55939e-5 -0.3826928 -0.9238749 0 -0.3826948 -0.9238766 9.11874e-5 -0.3826907 -0.9238826 9.1188e-5 -0.3826761 -0.9238787 -4.55941e-5 -0.3826854 -0.9238846 -9.11882e-5 -0.3826712 -0.9238728 0 -0.3827 -0.923879 9.11888e-5 -0.3826851 -0.9238817 -2.28188e-5 -0.3826783 -0.9238803 4.56378e-5 -0.3826816 -0.923873 1.71141e-5 -0.3826991 -0.923882 9.22406e-5 -0.3826775 -0.9238809 0 -0.3826802 -0.9238813 0 -0.3826792 -0.9238727 -4.5507e-5 -0.3827 -0.9238864 9.15362e-5 -0.3826671 -0.9238826 -9.1537e-5 -0.382676 -0.9238788 4.55073e-5 -0.3826855 -0.9238801 0 -0.3826822 -0.9238746 -9.15362e-5 -0.3826956 -0.9238867 9.15374e-5 -0.3826662 -0.9238749 -4.55074e-5 -0.3826947 -0.9238837 -4.55076e-5 -0.3826733 -0.923877 4.55075e-5 -0.3826899 -0.9238767 0 -0.3826907 -0.9238789 0 -0.3826851 -0.9238806 1.83074e-4 -0.3826809 -0.9238824 0 -0.3826768 -0.9238767 6.8391e-5 -0.3826906 0 -1 0 0 -1 2.03978e-5 0 -1 1.34708e-7 0 -1 1.4146e-5 0.7069338 -0.02184253 -0.7069424 0.7069402 -0.02184718 -0.7069359 0.7055914 -0.06537622 -0.7055968 0.7055913 -0.06552207 -0.7055833 0.702907 -0.1088401 -0.7029051 0.7028884 -0.1090038 -0.7028984 0.698895 -0.1520122 -0.6988835 0.6988775 -0.1520904 -0.698884 0.6935151 -0.1951167 -0.6935174 0.6935291 -0.1950298 -0.6935278 0.6868256 -0.237784 -0.6868256 0.6868486 -0.2376447 -0.6868508 0.6788635 -0.279802 -0.6788632 0.6788451 -0.2799042 -0.6788396 0.6695765 -0.321456 -0.669577 0.6695726 -0.3214632 -0.6695775 0.6590023 -0.3625244 -0.6590085 0.6590501 -0.362365 -0.6590484 0.6472053 -0.4028079 -0.6472026 0.6472183 -0.4027549 -0.6472226 0.6341865 -0.4422959 -0.634178 0.6341712 -0.4423181 -0.6341779 0.6198955 -0.4810961 -0.6199001 0.6199508 -0.4809677 -0.6199445 0.6044847 -0.5188382 -0.6044876 0.60455 -0.5186888 -0.6045505 0.5879506 -0.5555511 -0.5879433 0.5879422 -0.5555565 -0.5879464 0.5702614 -0.5912804 -0.570254 0.561005 -0.6087572 -0.5609707 0.55144 -0.6259555 -0.551447 0.5316608 -0.6592964 -0.5316627 0.521321 -0.675633 -0.5212911 0.5107734 -0.6915301 -0.5107805 0.4777291 -0.7372598 -0.477727 0.4777199 -0.7372715 -0.4777181 0.4304481 -0.7933645 -0.4304504 0.4304587 -0.7933554 -0.4304562 0.3817102 -0.8417801 -0.3817118 0.379914 -0.8433994 -0.3799248 0.3552793 -0.864636 -0.3552199 0.3265278 -0.8869935 -0.3265304 0.3264913 -0.8870223 -0.3264888 0.2706075 -0.9238739 -0.2706078 0.2705823 -0.9238873 -0.2705875 0.2126328 -0.9537168 -0.2126306 0.2126386 -0.9537131 -0.2126412 0.1530457 -0.9762964 -0.1530438 0.1530382 -0.9762984 -0.1530387 0.09229791 -0.9914445 -0.09229856 0.09229195 -0.9914459 -0.09228914 0.03084295 -0.9990484 -0.03084319 0.03084367 -0.9990482 -0.03084379 0.7071068 0 -0.7071068 0.7071068 0 -0.7071068 0.03084284 0.9990483 -0.03084534 0.03084415 0.9990483 -0.03084439 0.09228837 0.9914466 -0.09228557 0.09230148 0.9914438 -0.09230208 0.1530382 0.9762984 -0.1530387 0.1530457 0.9762964 -0.1530438 0.2126306 0.9537166 -0.2126333 0.2126407 0.9537132 -0.2126384 0.2706016 0.9238759 -0.2706069 0.2705882 0.9238854 -0.2705885 0.3265138 0.8870058 -0.3265113 0.3265053 0.88701 -0.326508 0.3552793 0.864636 -0.3552199 0.379914 0.8433994 -0.3799248 0.3817102 0.8417801 -0.3817118 0.4304456 0.7933697 -0.430443 0.4304612 0.7933501 -0.4304636 0.4777187 0.7372698 -0.4777218 0.4777302 0.7372615 -0.4777233 0.5107734 0.6915301 -0.5107805 0.521321 0.675633 -0.5212911 0.5316608 0.6592964 -0.5316627 0.55144 0.6259555 -0.551447 0.561005 0.6087572 -0.5609707 0.5702614 0.5912804 -0.570254 0.5879422 0.5555565 -0.5879464 0.5879215 0.5556026 -0.5879236 0.6045249 0.5187455 -0.6045269 0.6044566 0.5189107 -0.6044535 0.619953 0.4809576 -0.6199502 0.6199436 0.4809793 -0.6199428 0.6341525 0.4423689 -0.6341612 0.6341865 0.4422959 -0.634178 0.6472276 0.4027287 -0.6472296 0.6472238 0.4027421 -0.647225 0.6590639 0.3623172 -0.6590608 0.6590023 0.3625244 -0.6590085 0.6695516 0.3215546 -0.6695546 0.6695764 0.3214561 -0.6695772 0.6788506 0.2798736 -0.6788465 0.6788635 0.279802 -0.6788632 0.6868402 0.2377066 -0.6868378 0.6868355 0.237711 -0.686841 0.6935115 0.1951584 -0.6935093 0.6935151 0.1951167 -0.6935174 0.6988787 0.1520843 -0.6988841 0.6988765 0.1521614 -0.6988695 0.7029049 0.1088137 -0.7029113 0.702907 0.1088401 -0.7029051 0.7055913 0.06545197 -0.7055898 0.7055938 0.06537646 -0.7055943 0.7069416 0.02181941 -0.7069354 0.7069338 0.02184253 -0.7069424 0 1 0 0 1 1.4146e-5 0 1 2.03978e-5 0 1 -1.23316e-7 -0.5879234 0.5556145 0.5879104 -0.5879229 0.5556053 0.5879197 -0.6045204 0.5187422 0.6045342 -0.6045273 0.5187479 0.6045225 -0.6199353 0.4810032 0.6199324 -0.6199022 0.4810888 0.6198992 -0.6341701 0.4423241 0.634175 -0.6342076 0.4422171 0.634212 -0.6471824 0.4028857 0.6471771 -0.6472544 0.402659 0.6472461 -0.6590071 0.3624953 0.6590196 -0.6590114 0.3624992 0.6590132 -0.6695891 0.3213972 0.6695927 -0.6695756 0.3214858 0.6695637 -0.6788644 0.2797919 0.6788665 -0.6788601 0.2798206 0.678859 -0.6868382 0.2377073 0.6868395 -0.6868427 0.237666 0.6868494 -0.6935169 0.1951325 0.6935111 -0.6935401 0.1949516 0.6935388 -0.6988682 0.152197 0.6988701 -0.6988837 0.1520664 0.6988829 -0.7028929 0.1089528 0.7029018 -0.702902 0.1089418 0.7028944 -0.705589 0.06546926 0.7055905 -0.7055925 0.06541365 0.7055922 -0.706938 0.02189439 0.7069366 -0.7069419 0.02180457 0.7069355 -0.5107716 0.691489 0.510838 -0.5316206 0.6593646 0.5316183 -0.5609946 0.6087436 0.5609959 -0.5513804 0.6260066 0.5514485 -0.5702682 0.5912538 0.5702748 -0.5213258 0.6756023 0.5213263 -0.4777247 0.737266 0.4777217 -0.4777126 0.7372797 0.4777128 -0.430449 0.7933614 0.4304549 -0.4304724 0.7933416 0.430468 -0.3816883 0.8418006 0.381688 -0.3799338 0.8433886 0.379929 -0.3551567 0.8647598 0.3550412 -0.32651 0.8870057 0.3265151 -0.3264836 0.8870272 0.3264832 -0.2706161 0.9238687 0.270617 -0.2705807 0.9238904 0.2705789 -0.212633 0.9537168 0.2126302 -0.2126358 0.9537135 0.2126418 -0.1530413 0.9762981 0.1530376 -0.153043 0.976296 0.1530486 -0.09229612 0.9914447 0.09229803 -0.09229356 0.9914453 0.09229439 -0.03084379 0.9990484 0.03084003 -0.03084284 0.9990484 0.03084266 -0.03084254 -0.9990484 0.03084313 -0.03084379 -0.9990484 0.03084003 -0.09229731 -0.9914446 0.09229809 -0.09229242 -0.9914454 0.09229427 -0.1530491 -0.9762942 0.1530547 -0.1530352 -0.9763 0.1530314 -0.2126358 -0.9537135 0.2126418 -0.212633 -0.9537168 0.2126302 -0.2705803 -0.923889 0.2705836 -0.2706165 -0.92387 0.2706122 -0.3264836 -0.8870272 0.3264832 -0.32651 -0.8870057 0.3265151 -0.3551567 -0.8647598 0.3550412 -0.3799338 -0.8433886 0.379929 -0.3816883 -0.8418006 0.381688 -0.4304585 -0.7933567 0.4304541 -0.4304628 -0.7933463 0.4304688 -0.4777131 -0.7372806 0.4777107 -0.4777241 -0.7372651 0.4777237 -0.5213259 -0.6756026 0.5213257 -0.5316225 -0.6593045 0.531691 -0.510766 -0.6915478 0.510764 -0.706943 -0.02186208 0.7069326 -0.7069347 -0.02188575 0.7069402 -0.7055996 -0.06532311 0.7055935 -0.70559 -0.06541389 0.7055947 -0.7029023 -0.1089041 0.7028999 -0.7028979 -0.1089424 0.7028985 -0.6988869 -0.1520387 0.6988858 -0.6988632 -0.1522271 0.6988685 -0.693511 -0.1951585 0.6935098 -0.6935266 -0.1950331 0.6935293 -0.6868274 -0.2377836 0.6868239 -0.6868436 -0.237672 0.6868464 -0.6788552 -0.2798522 0.6788507 -0.67887 -0.2797511 0.6788776 -0.6695774 -0.32146 0.6695742 -0.6695712 -0.3214934 0.6695643 -0.6590061 -0.3625121 0.6590113 -0.659049 -0.3623691 0.6590471 -0.6472118 -0.4027772 0.6472151 -0.6472477 -0.4026689 0.6472467 -0.6341922 -0.4422557 0.6342005 -0.6341624 -0.4423645 0.6341544 -0.6199709 -0.4808969 0.6199793 -0.6198978 -0.4811032 0.6198924 -0.6044552 -0.518917 0.6044494 -0.6045475 -0.5187035 0.6045403 -0.587897 -0.555654 0.5878996 -0.587914 -0.5556174 0.5879172 -0.5609948 -0.6087418 0.5609976 -0.5701957 -0.5913372 0.5702608 -0.5514717 -0.6259001 0.5514782 -0.7069393 -0.02163666 0.7069432 -0.706936 -0.02168893 0.706945 -0.7056068 -0.06529444 0.705589 -0.7055914 -0.06537836 0.7055965 -0.7028978 -0.1089663 0.7028948 -0.7028856 -0.1090696 0.7028911 -0.6988893 -0.152071 0.6988764 -0.6988688 -0.1521537 0.6988789 -0.6935126 -0.1951491 0.6935107 -0.6935396 -0.1949396 0.6935427 -0.6868551 -0.2376356 0.6868474 -0.6868298 -0.2377256 0.6868416 -0.6788175 -0.2800278 0.6788161 -0.6788402 -0.2799066 0.6788433 -0.6695283 -0.3216488 0.6695327 -0.6696088 -0.3213576 0.669592 -0.6590046 -0.362513 0.6590123 -0.6590121 -0.3624689 0.6590291 -0.6472446 -0.4026836 0.6472406 -0.6472337 -0.4027114 0.6472342 -0.6341477 -0.4423997 0.6341444 -0.63422 -0.442197 0.6342138 -0.6199811 -0.4808834 0.6199796 -0.6200134 -0.4807984 0.6200132 -0.6044762 -0.5188681 0.6044705 -0.6044896 -0.5188377 0.6044831 -0.5878518 -0.5557539 0.5878503 -0.5879731 -0.5554907 0.5879777 -0.5702049 -0.5913844 0.5702027 -0.5702983 -0.5912054 0.5702947 -0.5514121 -0.6260096 0.5514134 -0.5515672 -0.6257418 0.5515621 -0.531528 -0.6595082 0.5315325 -0.5213123 -0.6756312 0.5213023 -0.510835 -0.6914542 0.5108215 -0.4776977 -0.7372993 0.4776973 -0.4777281 -0.737262 0.4777245 -0.430478 -0.7933343 0.430476 -0.4304028 -0.7934132 0.4304056 -0.3799296 -0.8433904 0.3799293 -0.3799643 -0.8433594 0.3799633 -0.32652 -0.8870025 0.3265138 -0.3265112 -0.8870053 0.3265153 -0.2706289 -0.9238616 0.2706285 -0.2705907 -0.923884 0.2705903 -0.2126344 -0.9537157 0.2126337 -0.2125951 -0.9537313 0.2126029 -0.1530579 -0.9762915 0.1530625 -0.1530373 -0.9763007 0.1530253 -0.09229713 -0.9914452 0.09229147 -0.09230417 -0.991443 0.0923078 -0.03084182 -0.9990483 0.03084415 -0.03084653 -0.9990482 0.03084379 0 -1 -2.3482e-5 0 -1 6.93525e-6 0 -1 0 0 -1 0 0.0308454 -0.9990482 -0.03084409 0.03084856 -0.999048 -0.03084892 0.09228652 -0.9914463 -0.0922895 0.09229224 -0.9914454 -0.09229439 0.153051 -0.9762954 -0.1530446 0.1530373 -0.9762975 -0.1530449 0.2126629 -0.953702 -0.2126669 0.212598 -0.9537326 -0.2125939 0.2706079 -0.9238733 -0.2706094 0.2705917 -0.9238831 -0.2705919 0.3264968 -0.887016 -0.3265005 0.3265054 -0.8870117 -0.3265035 0.3799089 -0.8434106 -0.3799052 0.3799213 -0.8433998 -0.3799166 0.4304606 -0.7933516 -0.4304614 0.4305043 -0.7933026 -0.4305079 0.4777098 -0.7372806 -0.4777141 0.4777021 -0.7372934 -0.477702 0.7069389 -0.02174884 -0.7069402 0.7069342 -0.02165359 -0.7069478 0.7055897 -0.06565362 -0.7055728 0.7055977 -0.06528687 -0.7055988 0.7028961 -0.1089529 -0.7028986 0.7028864 -0.1090791 -0.7028887 0.6989002 -0.1519236 -0.6988976 0.6988677 -0.1522256 -0.6988644 0.6935302 -0.195026 -0.6935278 0.6934992 -0.1952006 -0.6935096 0.6868748 -0.2375394 -0.686861 0.6868438 -0.2377029 -0.6868354 0.6788664 -0.2797842 -0.6788677 0.6788201 -0.2800136 -0.6788194 0.6695771 -0.3214302 -0.6695888 0.6695575 -0.3215358 -0.6695578 0.6590348 -0.3624228 -0.6590318 0.659034 -0.3624118 -0.6590388 0.6471724 -0.4028948 -0.6471814 0.6472569 -0.4026433 -0.6472535 0.6341344 -0.4424411 -0.6341289 0.6342189 -0.4422025 -0.6342109 0.6199755 -0.4808844 -0.6199843 0.6199592 -0.4809441 -0.6199543 0.6045178 -0.5187655 -0.6045169 0.6044834 -0.5188273 -0.6044982 0.5879474 -0.555552 -0.5879456 0.5879645 -0.5555088 -0.5879691 0.5701959 -0.5914047 -0.5701904 0.5702962 -0.591187 -0.570316 0.5513823 -0.6260753 -0.5513685 0.5514476 -0.6259475 -0.5514484 0.5213223 -0.6756039 -0.5213276 0.5316132 -0.6593361 -0.5316609 0.5107597 -0.6915634 -0.5107491 0.7069393 0.02165377 -0.7069427 0.7069314 0.02179253 -0.7069463 0.7056026 0.06528729 -0.7055938 0.7055926 0.06552088 -0.7055822 0.7028988 0.1089183 -0.7029013 0.7028907 0.1089718 -0.7029011 0.6988674 0.1522257 -0.6988646 0.6988748 0.1521501 -0.6988736 0.6935427 0.1948875 -0.6935542 0.6935151 0.1951604 -0.693505 0.6868433 0.2377031 -0.6868359 0.6868369 0.2377425 -0.6868287 0.6788241 0.2800158 -0.6788145 0.6788634 0.2797397 -0.678889 0.6695961 0.3213924 -0.669588 0.6695466 0.3215721 -0.6695511 0.6590328 0.3624123 -0.6590396 0.6590484 0.3623622 -0.6590514 0.6472172 0.4027829 -0.6472062 0.6472448 0.4026793 -0.6472432 0.6341756 0.4423371 -0.6341603 0.6341689 0.4423271 -0.6341741 0.6200017 0.480817 -0.6200105 0.6199325 0.4810166 -0.6199247 0.6044298 0.5189476 -0.6044486 0.6045113 0.5187921 -0.6045007 0.5879651 0.5555136 -0.5879641 0.5879302 0.5555762 -0.5879399 0.570296 0.5911922 -0.5703108 0.5701973 0.5914237 -0.5701694 0.5514466 0.625953 -0.551443 0.5514696 0.6259024 -0.5514776 0.5316294 0.6593431 -0.5316361 0.5107865 0.6914882 -0.510824 0.5213008 0.6756398 -0.5213026 0.4777308 0.7372563 -0.4777306 0.4776812 0.7373178 -0.4776854 0.4304766 0.7933328 -0.4304801 0.4304884 0.7933215 -0.4304893 0.3799207 0.8433982 -0.379921 0.3799096 0.8434123 -0.3799008 0.3264813 0.8870276 -0.3264845 0.3265209 0.8870001 -0.3265196 0.270612 0.9238713 -0.2706123 0.2705876 0.9238853 -0.2705891 0.2126309 0.9537169 -0.2126318 0.2126302 0.9537177 -0.212629 0.1530374 0.9762983 -0.15304 0.1530508 0.9762946 -0.1530496 0.09228479 0.9914472 -0.09228193 0.09229397 0.9914446 -0.09230202 0.03084856 0.999048 -0.03084892 0.0308445 0.9990483 -0.03084141 0 1 6.93525e-6 0 1 -2.3482e-5 0 1 -3.94516e-7 0 1 1.97306e-7 -0.4777271 0.7372603 0.4777283 -0.4304239 0.7933902 0.4304268 -0.4304569 0.7933571 0.4304548 -0.3799794 0.8433454 0.3799791 -0.3799144 0.8434044 0.3799135 -0.3265646 0.886968 0.3265632 -0.3264666 0.8870398 0.3264659 -0.2706091 0.9238718 0.2706135 -0.2706105 0.9238738 0.2706052 -0.2126023 0.9537278 0.2126114 -0.2126272 0.9537191 0.2126252 -0.1530465 0.9762967 0.1530414 -0.1530487 0.9762955 0.1530464 -0.09230422 0.9914434 0.09230345 -0.09229707 0.9914448 0.09229576 -0.03084665 0.9990481 0.03084409 -0.0308417 0.9990484 0.03084385 -0.5213123 0.6756312 0.5213023 -0.510835 0.6914542 0.5108215 -0.4776917 0.7373089 0.4776884 -0.7069392 0.02177602 0.7069391 -0.7069456 0.02168929 0.7069353 -0.7055957 0.06527054 0.7056022 -0.7055914 0.06537836 0.7055965 -0.70287 0.1092438 0.7028796 -0.7029187 0.1087649 0.7029051 -0.6988751 0.1521695 0.6988691 -0.6988688 0.1521537 0.6988789 -0.6935483 0.1949123 0.6935417 -0.6935351 0.1949383 0.6935476 -0.6868487 0.2376876 0.686836 -0.6868298 0.2377256 0.6868416 -0.6788381 0.2799559 0.6788251 -0.678777 0.2801904 0.6787896 -0.6696014 0.3213404 0.6696076 -0.6696088 0.3213576 0.669592 -0.6590074 0.3625187 0.6590064 -0.6589749 0.3626036 0.6589922 -0.6472405 0.4026834 0.6472448 -0.6472337 0.4027114 0.6472342 -0.6341686 0.4423334 0.6341699 -0.6342197 0.442197 0.6342138 -0.6199162 0.4810446 0.6199194 -0.6200134 0.4807984 0.6200132 -0.604499 0.5188125 0.6044954 -0.6044865 0.5188344 0.604489 -0.5879579 0.5555309 0.5879549 -0.5879731 0.5554907 0.5879777 -0.5702258 0.5913455 0.5702219 -0.5702427 0.5913032 0.570249 -0.5514168 0.6259998 0.5514199 -0.5515672 0.6257418 0.5515621 -0.5315284 0.6595076 0.531533 -0.7071069 0 0.7071068 -0.7071068 0 0.7071068 -0.7071067 0 0.7071068</float_array>
          <technique_common>
            <accessor source="#trapezoid_single_eye_default_as_machined__2-mesh-normals-array" count="864" stride="3">
              <param name="X" type="float"/>
              <param name="Y" type="float"/>
              <param name="Z" type="float"/>
            </accessor>
          </technique_common>
        </source>
        <vertices id="trapezoid_single_eye_default_as_machined__2-mesh-vertices">
          <input semantic="POSITION" source="#trapezoid_single_eye_default_as_machined__2-mesh-positions"/>
        </vertices>
        <triangles count="952">
          <input semantic="VERTEX" source="#trapezoid_single_eye_default_as_machined__2-mesh-vertices" offset="0"/>
          <input semantic="NORMAL" source="#trapezoid_single_eye_default_as_machined__2-mesh-normals" offset="1"/>
          <p>0 0 1 0 2 0 1 1 3 1 2 1 4 2 5 2 2 2 4 3 2 3 6 3 7 4 8 4 2 4 8 5 9 5 2 5 2 6 9 6 6 6 10 7 11 7 2 7 11 8 12 8 2 8 2 9 12 9 7 9 13 10 14 10 2 10 14 11 15 11 2 11 2 12 15 12 10 12 3 13 16 13 2 13 16 14 17 14 2 14 2 15 17 15 13 15 5 16 18 16 2 16 18 17 19 17 2 17 2 18 19 18 20 18 21 19 22 19 23 19 23 20 24 20 21 20 24 21 25 21 21 21 21 22 25 22 26 22 26 23 27 23 21 23 27 24 28 24 21 24 21 25 28 25 29 25 29 26 30 26 21 26 30 27 31 27 21 27 21 28 31 28 32 28 32 29 33 29 21 29 33 30 34 30 21 30 21 31 34 31 35 31 35 32 36 32 21 32 36 33 37 33 21 33 21 34 37 34 38 34 39 35 40 35 41 35 40 36 42 36 41 36 41 37 42 37 43 37 43 38 44 38 41 38 44 39 45 39 41 39 41 40 45 40 46 40 46 41 47 41 41 41 47 42 48 42 41 42 41 43 48 43 49 43 49 44 50 44 41 44 50 45 51 45 41 45 41 46 51 46 52 46 41 47 53 47 54 47 54 48 55 48 41 48 55 49 56 49 41 49 41 50 56 50 39 50 57 51 21 51 41 51 21 52 58 52 41 52 41 53 58 53 53 53 59 54 60 54 57 54 60 55 61 55 57 55 57 56 61 56 62 56 63 57 64 57 57 57 64 58 2 58 57 58 57 59 2 59 21 59 2 60 20 60 21 60 21 61 20 61 22 61 62 62 65 62 57 62 65 63 66 63 57 63 57 64 66 64 63 64 67 65 68 65 57 65 68 66 69 66 57 66 57 67 69 67 59 67 70 68 71 68 57 68 71 69 72 69 57 69 57 70 72 70 67 70 73 71 74 71 57 71 74 72 75 72 57 72 57 73 75 73 70 73 52 74 76 74 41 74 76 75 77 75 41 75 41 76 77 76 57 76 77 77 78 77 57 77 57 78 78 78 73 78 79 79 80 79 81 79 80 80 82 80 81 80 83 81 84 81 81 81 83 82 81 82 85 82 86 83 87 83 81 83 87 84 88 84 81 84 81 85 88 85 85 85 89 86 90 86 81 86 90 87 91 87 81 87 81 88 91 88 86 88 92 89 93 89 81 89 93 90 94 90 81 90 81 91 94 91 89 91 82 92 95 92 81 92 95 93 96 93 81 93 81 94 96 94 92 94 84 95 97 95 81 95 97 96 98 96 81 96 81 97 98 97 99 97 100 98 101 98 102 98 102 99 103 99 100 99 103 100 104 100 100 100 100 101 104 101 105 101 105 102 106 102 100 102 106 103 107 103 100 103 100 104 107 104 108 104 108 105 109 105 100 105 109 106 110 106 100 106 100 107 110 107 111 107 111 108 112 108 100 108 112 109 113 109 100 109 100 110 113 110 114 110 114 111 115 111 100 111 115 112 116 112 100 112 100 113 116 113 117 113 118 114 119 114 120 114 119 115 121 115 120 115 120 116 121 116 122 116 122 117 123 117 120 117 123 118 124 118 120 118 120 119 124 119 125 119 125 120 126 120 120 120 126 121 127 121 120 121 120 122 127 122 128 122 128 123 129 123 120 123 129 124 130 124 120 124 120 125 130 125 131 125 120 126 132 126 133 126 133 127 134 127 120 127 134 128 135 128 120 128 120 129 135 129 118 129 136 130 100 130 120 130 100 131 137 131 120 131 120 132 137 132 132 132 138 133 139 133 136 133 139 134 140 134 136 134 136 135 140 135 141 135 142 136 143 136 136 136 143 137 81 137 136 137 136 138 81 138 100 138 81 139 99 139 100 139 100 140 99 140 101 140 141 141 144 141 136 141 144 142 145 142 136 142 136 143 145 143 142 143 146 144 147 144 136 144 147 145 148 145 136 145 136 146 148 146 138 146 149 147 150 147 136 147 150 148 151 148 136 148 136 149 151 149 146 149 152 150 153 150 136 150 153 151 154 151 136 151 136 152 154 152 149 152 131 153 155 153 120 153 155 154 156 154 120 154 120 155 156 155 136 155 156 156 157 156 136 156 136 157 157 157 152 157 117 158 158 158 100 158 158 159 159 159 100 159 100 160 159 160 160 160 159 161 161 161 160 161 160 162 161 162 162 162 161 163 163 163 162 163 162 164 163 164 164 164 163 165 165 165 164 165 164 166 165 166 166 166 165 167 167 167 166 167 166 168 167 168 168 168 167 169 169 169 168 169 168 170 169 170 170 170 169 171 171 171 170 171 170 172 171 172 172 172 171 173 173 173 172 173 172 174 173 174 174 174 173 175 175 175 174 175 174 176 175 176 176 176 175 176 177 176 176 176 176 177 177 177 178 177 177 178 179 178 178 178 178 179 179 179 180 179 179 179 181 179 180 179 180 180 181 180 182 180 181 181 183 181 182 181 182 182 183 182 184 182 183 183 185 183 184 183 184 184 185 184 186 184 185 185 187 185 186 185 186 186 187 186 188 186 187 187 189 187 188 187 188 188 189 188 190 188 189 189 191 189 190 189 190 190 191 190 192 190 191 191 193 191 192 191 192 192 193 192 194 192 193 193 195 193 194 193 194 194 195 194 196 194 195 195 197 195 196 195 196 196 197 196 198 196 197 197 199 197 198 197 198 198 199 198 200 198 199 199 201 199 200 199 200 200 201 200 202 200 201 201 203 201 202 201 202 202 203 202 2 202 203 203 204 203 2 203 2 204 204 204 0 204 38 205 205 205 21 205 205 206 206 206 21 206 21 207 206 207 207 207 206 208 208 208 207 208 207 209 208 209 209 209 208 210 210 210 209 210 209 211 210 211 211 211 210 212 212 212 211 212 211 213 212 213 213 213 212 214 214 214 213 214 213 215 214 215 215 215 214 216 216 216 215 216 215 217 216 217 217 217 216 218 218 218 217 218 217 219 218 219 219 219 218 220 220 220 219 220 219 221 220 221 221 221 220 222 222 222 221 222 221 187 222 187 223 187 222 186 224 186 223 186 223 184 224 184 225 184 224 185 226 185 225 185 225 183 226 183 227 183 226 182 228 182 227 182 227 180 228 180 229 180 228 181 230 181 229 181 229 179 230 179 231 179 230 179 232 179 231 179 231 177 232 177 233 177 232 178 234 178 233 178 233 176 234 176 235 176 234 176 236 176 235 176 235 174 236 174 237 174 236 175 238 175 237 175 237 223 238 223 239 223 238 224 240 224 239 224 239 225 240 225 241 225 240 226 242 226 241 226 241 227 242 227 243 227 242 228 244 228 243 228 243 229 244 229 245 229 244 230 246 230 245 230 245 231 246 231 247 231 246 232 248 232 247 232 247 233 248 233 249 233 248 234 250 234 249 234 249 235 250 235 81 235 250 236 251 236 81 236 81 237 251 237 79 237 252 238 253 238 254 238 255 239 256 239 257 239 257 240 256 240 258 240 256 241 259 241 258 241 258 242 259 242 260 242 259 243 261 243 260 243 260 244 261 244 262 244 261 245 263 245 262 245 262 246 263 246 264 246 263 247 265 247 264 247 264 248 265 248 266 248 265 249 267 249 266 249 266 250 267 250 268 250 267 250 269 250 268 250 268 251 269 251 270 251 269 252 271 252 270 252 270 253 271 253 272 253 271 254 273 254 272 254 272 255 273 255 274 255 273 256 275 256 274 256 274 257 275 257 276 257 275 258 277 258 276 258 276 259 277 259 278 259 277 260 279 260 278 260 278 261 279 261 280 261 279 262 281 262 280 262 280 263 281 263 282 263 281 264 283 264 282 264 282 259 283 259 284 259 285 265 286 265 287 265 286 259 288 259 287 259 287 259 288 259 289 259 288 266 290 266 289 266 289 267 290 267 291 267 290 268 292 268 291 268 291 269 292 269 293 269 292 270 294 270 293 270 293 271 294 271 295 271 294 272 296 272 295 272 295 273 296 273 297 273 296 255 298 255 297 255 297 249 298 249 299 249 298 251 300 251 299 251 299 274 300 274 301 274 300 274 302 274 301 274 301 249 302 249 303 249 302 251 304 251 303 251 303 275 304 275 305 275 304 276 306 276 305 276 305 273 306 273 307 273 306 277 308 277 307 277 307 278 308 278 309 278 308 279 310 279 309 279 309 280 310 280 311 280 310 281 312 281 311 281 311 282 312 282 313 282 254 283 253 283 314 283 253 284 315 284 314 284 314 285 315 285 316 285 315 286 317 286 316 286 316 287 317 287 318 287 317 288 319 288 318 288 318 289 319 289 320 289 319 290 321 290 320 290 320 291 321 291 322 291 321 292 323 292 322 292 322 293 323 293 324 293 323 294 325 294 324 294 324 295 325 295 326 295 325 296 327 296 326 296 326 297 327 297 328 297 327 298 329 298 328 298 328 277 329 277 330 277 329 299 331 299 330 299 330 300 331 300 332 300 331 301 333 301 332 301 332 302 333 302 334 302 333 303 335 303 334 303 334 304 335 304 336 304 335 305 337 305 336 305 336 306 337 306 338 306 337 307 339 307 338 307 338 308 339 308 340 308 339 309 341 309 340 309 340 310 341 310 342 310 341 311 343 311 342 311 342 312 343 312 344 312 343 313 345 313 344 313 344 314 345 314 346 314 257 315 347 315 255 315 347 263 348 263 255 263 255 264 348 264 349 264 348 259 350 259 349 259 349 258 350 258 351 258 350 256 352 256 351 256 351 316 352 316 353 316 352 317 354 317 353 317 353 258 354 258 355 258 354 318 356 318 355 318 355 319 356 319 357 319 356 320 358 320 357 320 357 321 358 321 359 321 358 322 360 322 359 322 359 323 360 323 361 323 360 324 362 324 361 324 361 325 362 325 363 325 362 326 364 326 363 326 363 327 364 327 365 327 364 320 366 320 365 320 365 328 366 328 367 328 366 329 368 329 367 329 367 330 368 330 369 330 368 331 370 331 369 331 369 332 370 332 371 332 370 333 252 333 371 333 371 334 252 334 372 334 252 335 254 335 372 335 284 336 283 336 373 336 283 337 374 337 373 337 373 338 374 338 375 338 374 339 376 339 375 339 375 340 376 340 377 340 376 341 378 341 377 341 377 342 378 342 379 342 378 343 380 343 379 343 379 344 380 344 381 344 380 345 382 345 381 345 381 346 382 346 383 346 382 347 384 347 383 347 383 348 384 348 385 348 384 349 386 349 385 349 385 350 386 350 387 350 386 351 388 351 387 351 387 352 388 352 389 352 388 353 390 353 389 353 389 354 390 354 391 354 390 355 392 355 391 355 391 356 392 356 393 356 392 357 394 357 393 357 394 334 395 334 393 334 393 358 395 358 396 358 395 359 397 359 396 359 396 360 397 360 398 360 397 310 399 310 398 310 398 361 399 361 400 361 399 312 401 312 400 312 400 362 401 362 402 362 401 363 403 363 402 363 402 364 403 364 404 364 403 365 405 365 404 365 404 366 405 366 406 366 405 367 407 367 406 367 406 368 407 368 408 368 407 369 409 369 408 369 408 299 409 299 410 299 409 277 411 277 410 277 410 298 411 298 412 298 411 297 413 297 412 297 412 296 413 296 414 296 413 370 415 370 414 370 414 371 415 371 416 371 415 313 417 313 416 313 416 372 417 372 418 372 417 373 419 373 418 373 418 374 419 374 420 374 419 375 421 375 420 375 420 376 421 376 422 376 421 377 423 377 422 377 422 378 423 378 424 378 423 379 425 379 424 379 424 358 425 358 426 358 425 380 427 380 426 380 426 371 427 371 428 371 312 315 429 315 313 315 429 259 430 259 313 259 313 381 430 381 431 381 430 382 432 382 431 382 431 383 432 383 433 383 432 384 434 384 433 384 433 385 434 385 435 385 434 386 436 386 435 386 435 387 436 387 437 387 436 260 438 260 437 260 437 258 438 258 439 258 438 388 440 388 439 388 439 389 440 389 441 389 440 390 442 390 441 390 441 391 442 391 443 391 442 322 444 322 443 322 443 392 444 392 445 392 444 326 446 326 445 326 445 393 446 393 447 393 446 394 448 394 447 394 447 395 448 395 449 395 448 329 450 329 449 329 449 330 450 330 451 330 450 396 452 396 451 396 451 397 452 397 453 397 452 398 428 398 453 398 453 399 428 399 454 399 428 400 427 400 454 400 346 401 345 401 455 401 345 402 456 402 455 402 455 403 456 403 457 403 456 404 458 404 457 404 457 405 458 405 459 405 458 344 460 344 459 344 459 406 460 406 461 406 460 407 462 407 461 407 461 349 462 349 463 349 462 408 464 408 463 408 463 409 464 409 465 409 464 344 466 344 465 344 465 410 466 410 467 410 466 411 468 411 467 411 467 351 468 351 469 351 468 412 470 412 469 412 469 341 470 341 471 341 470 413 472 413 471 413 471 414 472 414 473 414 472 415 474 415 473 415 473 416 474 416 285 416 474 417 475 417 285 417 285 418 475 418 286 418 223 419 412 419 221 419 412 420 219 420 221 420 223 419 225 419 412 419 225 419 227 419 412 419 412 419 227 419 410 419 227 419 229 419 410 419 410 421 229 421 231 421 231 419 233 419 410 419 233 419 235 419 410 419 410 422 235 422 237 422 302 423 76 423 304 423 76 424 52 424 304 424 304 425 52 425 306 425 52 426 51 426 306 426 306 427 51 427 308 427 51 428 50 428 308 428 308 429 50 429 310 429 50 430 49 430 310 430 310 431 49 431 312 431 49 432 48 432 312 432 312 433 48 433 429 433 48 434 47 434 429 434 429 435 47 435 430 435 47 436 46 436 430 436 430 437 46 437 432 437 46 438 45 438 432 438 432 439 45 439 434 439 45 440 44 440 434 440 434 441 44 441 436 441 44 442 43 442 436 442 436 443 43 443 438 443 43 444 42 444 438 444 438 445 42 445 440 445 42 446 40 446 440 446 40 447 39 447 440 447 440 448 39 448 442 448 39 449 56 449 442 449 442 450 56 450 444 450 444 451 56 451 446 451 56 452 55 452 446 452 446 453 55 453 448 453 448 454 55 454 450 454 55 455 54 455 450 455 450 456 54 456 452 456 54 457 53 457 452 457 452 458 53 458 428 458 53 459 58 459 428 459 428 460 58 460 426 460 58 461 21 461 426 461 426 462 21 462 424 462 21 463 207 463 424 463 207 464 209 464 424 464 424 465 209 465 422 465 209 466 211 466 422 466 422 467 211 467 420 467 211 468 213 468 420 468 420 469 213 469 418 469 213 470 215 470 418 470 418 471 215 471 416 471 215 472 217 472 416 472 416 473 217 473 414 473 217 474 219 474 414 474 414 475 219 475 412 475 76 476 302 476 77 476 302 477 300 477 77 477 329 478 190 478 192 478 329 479 192 479 331 479 192 480 194 480 331 480 331 481 194 481 333 481 194 482 196 482 333 482 333 483 196 483 335 483 196 484 198 484 335 484 335 485 198 485 337 485 198 486 200 486 337 486 337 487 200 487 339 487 200 488 202 488 339 488 339 489 202 489 341 489 202 490 2 490 341 490 341 491 2 491 343 491 2 492 64 492 343 492 64 493 63 493 343 493 343 494 63 494 345 494 63 495 66 495 345 495 345 496 66 496 456 496 456 497 66 497 458 497 66 498 65 498 458 498 458 499 65 499 460 499 460 500 65 500 462 500 65 501 62 501 462 501 462 502 62 502 464 502 464 503 62 503 466 503 62 504 61 504 466 504 466 505 61 505 468 505 61 506 60 506 468 506 60 507 59 507 468 507 468 508 59 508 470 508 59 509 69 509 470 509 470 510 69 510 472 510 69 511 68 511 472 511 472 512 68 512 474 512 68 513 67 513 474 513 474 514 67 514 475 514 67 515 72 515 475 515 475 516 72 516 286 516 72 517 71 517 286 517 286 518 71 518 288 518 71 519 70 519 288 519 288 520 70 520 290 520 70 521 75 521 290 521 290 522 75 522 292 522 75 523 74 523 292 523 292 524 74 524 294 524 74 525 73 525 294 525 294 526 73 526 296 526 73 527 78 527 296 527 296 528 78 528 298 528 78 529 77 529 298 529 298 530 77 530 300 530 176 531 327 531 174 531 327 532 172 532 174 532 184 531 186 531 329 531 186 531 188 531 329 531 329 533 188 533 190 533 176 531 178 531 327 531 178 531 180 531 327 531 327 531 180 531 329 531 180 531 182 531 329 531 329 534 182 534 184 534 135 535 362 535 118 535 362 536 360 536 118 536 118 537 360 537 119 537 360 538 358 538 119 538 119 539 358 539 121 539 358 540 356 540 121 540 121 541 356 541 122 541 356 542 354 542 122 542 122 543 354 543 123 543 354 544 352 544 123 544 123 545 352 545 124 545 352 546 350 546 124 546 124 547 350 547 125 547 350 548 348 548 125 548 125 549 348 549 126 549 348 550 347 550 126 550 126 551 347 551 127 551 347 552 257 552 127 552 127 553 257 553 128 553 257 554 258 554 128 554 128 555 258 555 129 555 258 556 260 556 129 556 129 557 260 557 130 557 260 558 262 558 130 558 130 559 262 559 131 559 262 560 264 560 131 560 131 561 264 561 155 561 264 562 266 562 155 562 370 563 368 563 134 563 368 564 366 564 134 564 134 565 366 565 135 565 366 566 364 566 135 566 135 567 364 567 362 567 134 568 133 568 370 568 133 569 132 569 370 569 370 570 132 570 252 570 132 571 137 571 252 571 252 572 137 572 253 572 137 573 100 573 253 573 253 574 100 574 315 574 100 575 160 575 315 575 160 576 162 576 315 576 315 577 162 577 317 577 162 578 164 578 317 578 317 579 164 579 319 579 164 580 166 580 319 580 319 581 166 581 321 581 166 582 168 582 321 582 321 583 168 583 323 583 168 584 170 584 323 584 323 585 170 585 325 585 170 586 172 586 325 586 325 587 172 587 327 587 410 588 237 588 239 588 410 589 239 589 408 589 239 590 241 590 408 590 408 591 241 591 406 591 241 592 243 592 406 592 406 593 243 593 404 593 243 594 245 594 404 594 404 595 245 595 402 595 245 596 247 596 402 596 402 597 247 597 400 597 247 598 249 598 400 598 400 599 249 599 398 599 249 600 81 600 398 600 398 601 81 601 396 601 81 602 143 602 396 602 143 603 142 603 396 603 396 604 142 604 393 604 142 605 145 605 393 605 393 606 145 606 391 606 144 607 387 607 145 607 387 608 389 608 145 608 145 609 389 609 391 609 156 610 268 610 157 610 268 611 270 611 157 611 157 612 270 612 152 612 270 613 272 613 152 613 152 614 272 614 153 614 272 615 274 615 153 615 153 616 274 616 154 616 274 617 276 617 154 617 154 618 276 618 149 618 276 619 278 619 149 619 149 620 278 620 150 620 278 621 280 621 150 621 150 622 280 622 151 622 280 623 282 623 151 623 151 624 282 624 146 624 282 625 284 625 146 625 146 626 284 626 147 626 284 627 373 627 147 627 147 628 373 628 148 628 373 629 375 629 148 629 148 630 375 630 138 630 375 631 377 631 138 631 138 632 377 632 139 632 377 633 379 633 139 633 139 634 379 634 140 634 379 635 381 635 140 635 140 636 381 636 141 636 381 637 383 637 141 637 141 638 383 638 144 638 383 639 385 639 144 639 144 640 385 640 387 640 299 641 19 641 18 641 299 642 18 642 297 642 18 643 5 643 297 643 297 644 5 644 295 644 5 645 4 645 295 645 295 646 4 646 293 646 4 647 6 647 293 647 293 648 6 648 291 648 6 649 9 649 291 649 291 650 9 650 289 650 9 651 8 651 289 651 289 652 8 652 287 652 8 653 7 653 287 653 287 654 7 654 285 654 7 655 12 655 285 655 285 656 12 656 473 656 12 657 11 657 473 657 473 658 11 658 471 658 11 659 10 659 471 659 471 660 10 660 469 660 10 661 15 661 469 661 469 662 15 662 467 662 15 663 14 663 467 663 467 664 14 664 465 664 14 665 13 665 465 665 465 666 13 666 463 666 13 667 17 667 463 667 463 668 17 668 461 668 17 669 16 669 461 669 461 670 16 670 459 670 16 671 3 671 459 671 459 672 3 672 457 672 457 673 3 673 455 673 3 674 1 674 455 674 455 675 1 675 346 675 1 676 0 676 346 676 346 677 0 677 344 677 0 678 204 678 344 678 344 679 204 679 342 679 204 680 203 680 342 680 342 681 203 681 340 681 203 682 201 682 340 682 340 683 201 683 338 683 201 684 199 684 338 684 338 685 199 685 336 685 199 686 197 686 336 686 336 687 197 687 334 687 197 688 195 688 334 688 334 689 195 689 332 689 195 690 193 690 332 690 332 691 193 691 330 691 193 692 191 692 330 692 330 693 191 693 328 693 179 419 177 419 326 419 177 419 175 419 326 419 326 694 175 694 173 694 187 419 328 419 189 419 328 695 191 695 189 695 187 419 185 419 328 419 185 419 183 419 328 419 328 696 183 696 326 696 183 419 181 419 326 419 326 697 181 697 179 697 326 698 173 698 171 698 326 699 171 699 324 699 171 700 169 700 324 700 324 701 169 701 322 701 169 702 167 702 322 702 322 703 167 703 320 703 167 704 165 704 320 704 320 705 165 705 318 705 165 706 163 706 318 706 318 707 163 707 316 707 163 708 161 708 316 708 316 709 161 709 314 709 161 710 159 710 314 710 314 711 159 711 254 711 159 712 158 712 254 712 254 713 158 713 372 713 158 714 117 714 372 714 372 715 117 715 371 715 99 716 267 716 101 716 267 717 265 717 101 717 101 718 265 718 102 718 265 719 263 719 102 719 102 720 263 720 103 720 263 721 261 721 103 721 103 722 261 722 104 722 261 723 259 723 104 723 104 724 259 724 105 724 259 725 256 725 105 725 105 726 256 726 106 726 256 727 255 727 106 727 106 728 255 728 107 728 255 729 349 729 107 729 107 730 349 730 108 730 349 731 351 731 108 731 108 732 351 732 109 732 351 733 353 733 109 733 109 734 353 734 110 734 353 735 355 735 110 735 110 736 355 736 111 736 355 737 357 737 111 737 111 738 357 738 112 738 357 739 359 739 112 739 112 740 359 740 113 740 359 741 361 741 113 741 113 742 361 742 114 742 361 743 363 743 114 743 114 744 363 744 115 744 363 745 365 745 115 745 115 746 365 746 116 746 365 747 367 747 116 747 116 748 367 748 117 748 367 749 369 749 117 749 117 750 369 750 371 750 269 477 267 477 98 477 267 477 99 477 98 477 269 751 98 751 271 751 98 752 97 752 271 752 271 753 97 753 273 753 97 754 84 754 273 754 273 755 84 755 275 755 84 756 83 756 275 756 275 757 83 757 277 757 83 758 85 758 277 758 277 759 85 759 279 759 85 760 88 760 279 760 279 761 88 761 281 761 88 762 87 762 281 762 281 763 87 763 283 763 87 764 86 764 283 764 283 765 86 765 374 765 86 766 91 766 374 766 374 767 91 767 376 767 91 768 90 768 376 768 376 769 90 769 378 769 90 770 89 770 378 770 378 771 89 771 380 771 89 772 94 772 380 772 380 773 94 773 382 773 94 774 93 774 382 774 382 775 93 775 384 775 93 776 92 776 384 776 384 777 92 777 386 777 92 778 96 778 386 778 386 779 96 779 388 779 96 780 95 780 388 780 388 781 95 781 390 781 95 782 82 782 390 782 390 783 82 783 392 783 82 784 394 784 392 784 82 785 80 785 394 785 80 786 79 786 394 786 394 787 79 787 395 787 79 788 251 788 395 788 395 789 251 789 397 789 251 790 250 790 397 790 397 791 250 791 399 791 250 792 248 792 399 792 399 793 248 793 401 793 248 794 246 794 401 794 401 795 246 795 403 795 246 796 244 796 403 796 403 797 244 797 405 797 244 798 242 798 405 798 405 799 242 799 407 799 242 800 240 800 407 800 407 801 240 801 409 801 240 802 238 802 409 802 409 803 238 803 411 803 226 531 224 531 413 531 224 531 222 531 413 531 413 804 222 804 220 804 234 531 411 531 236 531 411 805 238 805 236 805 234 531 232 531 411 531 232 531 230 531 411 531 411 531 230 531 413 531 230 806 228 806 413 806 413 807 228 807 226 807 38 808 454 808 205 808 454 809 427 809 205 809 205 810 427 810 206 810 427 811 425 811 206 811 206 812 425 812 208 812 425 813 423 813 208 813 208 814 423 814 210 814 423 815 421 815 210 815 210 816 421 816 212 816 421 817 419 817 212 817 212 818 419 818 214 818 419 819 417 819 214 819 214 820 417 820 216 820 417 821 415 821 216 821 216 822 415 822 218 822 415 823 413 823 218 823 218 824 413 824 220 824 37 825 451 825 38 825 451 826 453 826 38 826 38 827 453 827 454 827 20 828 301 828 22 828 301 829 303 829 22 829 22 830 303 830 23 830 303 831 305 831 23 831 23 832 305 832 24 832 305 833 307 833 24 833 24 834 307 834 25 834 307 835 309 835 25 835 25 836 309 836 26 836 309 837 311 837 26 837 26 838 311 838 27 838 311 839 313 839 27 839 27 840 313 840 28 840 313 841 431 841 28 841 28 842 431 842 29 842 431 843 433 843 29 843 29 844 433 844 30 844 433 845 435 845 30 845 30 846 435 846 31 846 435 847 437 847 31 847 31 848 437 848 32 848 437 849 439 849 32 849 32 850 439 850 33 850 439 851 441 851 33 851 33 852 441 852 34 852 441 853 443 853 34 853 34 854 443 854 35 854 443 855 445 855 35 855 35 856 445 856 36 856 445 857 447 857 36 857 36 858 447 858 37 858 447 859 449 859 37 859 37 860 449 860 451 860 299 861 301 861 19 861 301 861 20 861 19 861 155 862 266 862 156 862 266 863 268 863 156 863</p>
        </triangles>
      </mesh>
    </geometry>
  </library_geometries>
  <library_visual_scenes>
    <visual_scene id="Scene" name="Scene">
      <node id="trapezoid_single_eye_default_as_machined__2" name="trapezoid_single_eye_default_as_machined__2" type="NODE">
        <matrix sid="transform">1 0 0 0 0 1 0 0 0 0 1 0 0 0 0 1</matrix>
        <instance_geometry url="#trapezoid_single_eye_default_as_machined__2-mesh" name="trapezoid_single_eye_default_as_machined__2"/>
      </node>
    </visual_scene>
  </library_visual_scenes>
  <scene>
    <instance_visual_scene url="#Scene"/>
  </scene>
</COLLADA>