<?xml version="1.0" encoding="utf-8"?>
<COLLADA xmlns="http://www.collada.org/2005/11/COLLADASchema" version="1.4.1" xmlns:xsi="http://www.w3.org/2001/XMLSchema-instance">
  <asset>
    <contributor>
      <author>Blender User</author>
      <authoring_tool>Blender 3.0.1</authoring_tool>
    </contributor>
    <created>2026-06-04T16:19:13</created>
    <modified>2026-06-04T16:19:13</modified>
    <unit name="meter" meter="1"/>
    <up_axis>Z_UP</up_axis>
  </asset>
  <library_images/>
  <library_geometries>
    <geometry id="trapezoid__8-mesh" name="trapezoid__8">
      <mesh>
        <source id="trapezoid__8-mesh-positions">
          <float_array id="trapezoid__8-mesh-positions-array" count="864">-0.2328858 0.02249997 0.1678858 -0.2328858 0.01749998 0.1678858 -0.233019 0.02249997 0.1709362 -0.233019 0.01749998 0.1709362 -0.2334175 0.02249997 0.1739635 -0.2334175 0.01749998 0.1739635 -0.2340784 0.02249997 0.1769444 -0.2340784 0.01749998 0.1769444 -0.2349966 0.02249997 0.1798565 -0.2349966 0.01749998 0.1798565 -0.236165 0.02249997 0.1826775 -0.236165 0.01749998 0.1826775 -0.2375749 0.02249997 0.1853858 -0.2375749 0.01749998 0.1853858 -0.2392155 0.02249997 0.187961 -0.2392155 0.01749998 0.187961 -0.2410742 0.02249997 0.1903834 -0.2410742 0.01749998 0.1903834 -0.2431371 0.02249997 0.1926345 -0.2431371 0.01749998 0.1926345 -0.2453882 0.02249997 0.1946973 -0.2453882 0.01749998 0.1946973 -0.2478106 0.02249997 0.1965561 -0.2478106 0.01749998 0.1965561 -0.2503858 0.02249997 0.1981967 -0.2503858 0.01749998 0.1981967 -0.2530942 0.02249997 0.1996065 -0.2530942 0.01749998 0.1996065 -0.2559151 0.02249997 0.200775 -0.2559151 0.01749998 0.200775 -0.2588272 0.02249997 0.2016932 -0.2588272 0.01749998 0.2016932 -0.2618081 0.02249997 0.2023541 -0.2618081 0.01749998 0.2023541 -0.2648354 0.02249997 0.2027526 -0.2648354 0.01749998 0.2027526 -0.2678858 0.02249997 0.2028858 -0.2678858 0.01749998 0.2028858 -0.2709363 0.02249997 0.2027526 -0.2709363 0.01749998 0.2027526 -0.2739635 0.02249997 0.2023541 -0.2739635 0.01749998 0.2023541 -0.2769445 0.02249997 0.2016932 -0.2769445 0.01749998 0.2016932 -0.2798565 0.02249997 0.200775 -0.2798565 0.01749998 0.200775 -0.2826775 0.02249997 0.1996065 -0.2826775 0.01749998 0.1996065 -0.2853858 0.02249997 0.1981967 -0.2853858 0.01749998 0.1981967 -0.287961 0.02249997 0.1965561 -0.287961 0.01749998 0.1965561 -0.2903834 0.02249997 0.1946973 -0.2903834 0.01749998 0.1946973 -0.2926346 0.02249997 0.1926345 -0.2926346 0.01749998 0.1926345 -0.2946974 0.02249997 0.1903834 -0.2946974 0.01749998 0.1903834 -0.2965561 0.02249997 0.187961 -0.2965561 0.01749998 0.187961 -0.2981967 0.02249997 0.1853858 -0.2981967 0.01749998 0.1853858 -0.2996066 0.02249997 0.1826775 -0.2996066 0.01749998 0.1826775 -0.3007751 0.02249997 0.1798565 -0.3007751 0.01749998 0.1798565 -0.3016932 0.02249997 0.1769444 -0.3016932 0.01749998 0.1769444 -0.3023541 0.02249997 0.1739635 -0.3023541 0.01749998 0.1739635 -0.3027526 0.02249997 0.1709362 -0.3027526 0.01749998 0.1709362 -0.3028858 0.02249997 0.1678858 -0.3028858 0.01749998 0.1678858 -0.3027526 0.02249997 0.1648353 -0.3027526 0.01749998 0.1648353 -0.3023541 0.02249997 0.1618081 -0.3023541 0.01749998 0.1618081 -0.3016932 0.02249997 0.1588271 -0.3016932 0.01749998 0.1588271 -0.3007751 0.02249997 0.1559151 -0.3007751 0.01749998 0.1559151 -0.2996066 0.02249997 0.1530942 -0.2996066 0.01749998 0.1530942 -0.2981967 0.02249997 0.1503858 -0.2981967 0.01749998 0.1503858 -0.2965561 0.02249997 0.1478106 -0.2965561 0.01749998 0.1478106 -0.2946974 0.02249997 0.1453883 -0.2946974 0.01749998 0.1453883 -0.2926346 0.02249997 0.143137 -0.2926346 0.01749998 0.143137 -0.2903834 0.02249997 0.1410742 -0.2903834 0.01749998 0.1410742 -0.287961 0.02249997 0.1392155 -0.287961 0.01749998 0.1392155 -0.2853858 0.02249997 0.1375749 -0.2853858 0.01749998 0.1375749 -0.2826775 0.02249997 0.136165 -0.2826775 0.01749998 0.136165 -0.2798565 0.02249997 0.1349965 -0.2798565 0.01749998 0.1349965 -0.2769445 0.02249997 0.1340784 -0.2769445 0.01749998 0.1340784 -0.2739635 0.02249997 0.1334175 -0.2739635 0.01749998 0.1334175 -0.2709363 0.02249997 0.133019 -0.2709363 0.01749998 0.133019 -0.2678858 0.02249997 0.1328858 -0.2678858 0.01749998 0.1328858 -0.2648354 0.02249997 0.133019 -0.2648354 0.01749998 0.133019 -0.2618081 0.02249997 0.1334175 -0.2618081 0.01749998 0.1334175 -0.2588272 0.02249997 0.1340784 -0.2588272 0.01749998 0.1340784 -0.2559151 0.02249997 0.1349965 -0.2559151 0.01749998 0.1349965 -0.2530942 0.02249997 0.136165 -0.2530942 0.01749998 0.136165 -0.2503858 0.02249997 0.1375749 -0.2503858 0.01749998 0.1375749 -0.2478106 0.02249997 0.1392155 -0.2478106 0.01749998 0.1392155 -0.2453882 0.02249997 0.1410742 -0.2453882 0.01749998 0.1410742 -0.2431371 0.02249997 0.143137 -0.2431371 0.01749998 0.143137 -0.2410742 0.02249997 0.1453883 -0.2410742 0.01749998 0.1453883 -0.2392155 0.02249997 0.1478106 -0.2392155 0.01749998 0.1478106 -0.2375749 0.02249997 0.1503858 -0.2375749 0.01749998 0.1503858 -0.236165 0.02249997 0.1530942 -0.236165 0.01749998 0.1530942 -0.2349966 0.02249997 0.1559151 -0.2349966 0.01749998 0.1559151 -0.2340784 0.02249997 0.1588271 -0.2340784 0.01749998 0.1588271 -0.2334175 0.02249997 0.1618081 -0.2334175 0.01749998 0.1618081 -0.233019 0.02249997 0.1648353 -0.233019 0.01749998 0.1648353 -0.2198858 0.01749998 0.1678858 -0.2200685 0.02249997 0.1720693 -0.2200685 0.01749998 0.1720693 -0.220615 0.02249997 0.1762209 -0.220615 0.01749998 0.1762209 -0.2215213 0.02249997 0.1803091 -0.2215213 0.01749998 0.1803091 -0.2227805 0.02249997 0.1843028 -0.2227805 0.01749998 0.1843028 -0.224383 0.02249997 0.1881715 -0.224383 0.01749998 0.1881715 -0.2263166 0.02249997 0.1918858 -0.2263166 0.01749998 0.1918858 -0.2285665 0.02249997 0.1954175 -0.2285665 0.01749998 0.1954175 -0.2311156 0.02249997 0.1987396 -0.2311156 0.01749998 0.1987396 -0.2339447 0.02249997 0.2018269 -0.2339447 0.01749998 0.2018269 -0.237032 0.02249997 0.204656 -0.237032 0.01749998 0.204656 -0.2403541 0.02249997 0.2072051 -0.2403541 0.01749998 0.2072051 -0.2438858 0.02249997 0.209455 -0.2438858 0.01749998 0.209455 -0.2476001 0.02249997 0.2113886 -0.2476001 0.01749998 0.2113886 -0.2514688 0.02249997 0.2129911 -0.2514688 0.01749998 0.2129911 -0.2554625 0.02249997 0.2142502 -0.2554625 0.01749998 0.2142502 -0.2595507 0.02249997 0.2151566 -0.2595507 0.01749998 0.2151566 -0.2637023 0.02249997 0.2157031 -0.2637023 0.01749998 0.2157031 -0.2678858 0.02249997 0.2158858 -0.2678858 0.01749998 0.2158858 -0.2720693 0.02249997 0.2157031 -0.2720693 0.01749998 0.2157031 -0.2762209 0.02249997 0.2151566 -0.2762209 0.01749998 0.2151566 -0.2803092 0.02249997 0.2142502 -0.2803092 0.01749998 0.2142502 -0.2843028 0.02249997 0.2129911 -0.2843028 0.01749998 0.2129911 -0.2881715 0.02249997 0.2113886 -0.2881715 0.01749998 0.2113886 -0.2918858 0.02249997 0.209455 -0.2918858 0.01749998 0.209455 -0.2954175 0.02249997 0.2072051 -0.2954175 0.01749998 0.2072051 -0.2987396 0.02249997 0.204656 -0.2987396 0.01749998 0.204656 -0.301827 0.02249997 0.2018269 -0.301827 0.01749998 0.2018269 -0.304656 0.02249997 0.1987396 -0.304656 0.01749998 0.1987396 -0.3072051 0.02249997 0.1954175 -0.3072051 0.01749998 0.1954175 -0.309455 0.02249997 0.1918858 -0.309455 0.01749998 0.1918858 -0.3113886 0.02249997 0.1881715 -0.3113886 0.01749998 0.1881715 -0.3129911 0.02249997 0.1843028 -0.3129911 0.01749998 0.1843028 -0.3142502 0.02249997 0.1803091 -0.3142502 0.01749998 0.1803091 -0.3151566 0.02249997 0.1762209 -0.3151566 0.01749998 0.1762209 -0.3157032 0.02249997 0.1720693 -0.3157032 0.01749998 0.1720693 -0.3158858 0.02249997 0.1678858 -0.3158858 0.01749998 0.1678858 -0.3157032 0.02249997 0.1637023 -0.3157032 0.01749998 0.1637023 -0.3151566 0.02249997 0.1595507 -0.3151566 0.01749998 0.1595507 -0.3142502 0.02249997 0.1554625 -0.3142502 0.01749998 0.1554625 -0.3129911 0.02249997 0.1514688 -0.3129911 0.01749998 0.1514688 -0.3113886 0.02249997 0.1476001 -0.3113886 0.01749998 0.1476001 -0.309455 0.02249997 0.1438858 -0.309455 0.01749998 0.1438858 -0.3072051 0.02249997 0.1403541 -0.3072051 0.01749998 0.1403541 -0.304656 0.02249997 0.137032 -0.304656 0.01749998 0.137032 -0.301827 0.02249997 0.1339446 -0.301827 0.01749998 0.1339446 -0.2987396 0.02249997 0.1311157 -0.2987396 0.01749998 0.1311157 -0.2954175 0.02249997 0.1285665 -0.2954175 0.01749998 0.1285665 -0.2918858 0.02249997 0.1263166 -0.2918858 0.01749998 0.1263166 -0.2881715 0.02249997 0.124383 -0.2881715 0.01749998 0.124383 -0.2843028 0.02249997 0.1227806 -0.2843028 0.01749998 0.1227806 -0.2803092 0.02249997 0.1215214 -0.2803092 0.01749998 0.1215214 -0.2762209 0.02249997 0.120615 -0.2762209 0.01749998 0.120615 -0.2720693 0.02249997 0.1200684 -0.2720693 0.01749998 0.1200684 -0.2678858 0.02249997 0.1198858 -0.2678858 0.01749998 0.1198858 -0.2637023 0.02249997 0.1200684 -0.2637023 0.01749998 0.1200684 -0.2595507 0.02249997 0.120615 -0.2595507 0.01749998 0.120615 -0.2554625 0.02249997 0.1215214 -0.2554625 0.01749998 0.1215214 -0.2514688 0.02249997 0.1227806 -0.2514688 0.01749998 0.1227806 -0.2476001 0.02249997 0.124383 -0.2476001 0.01749998 0.124383 -0.2438858 0.02249997 0.1263166 -0.2438858 0.01749998 0.1263166 -0.2403541 0.02249997 0.1285665 -0.2403541 0.01749998 0.1285665 -0.237032 0.02249997 0.1311157 -0.237032 0.01749998 0.1311157 -0.2339447 0.02249997 0.1339446 -0.2339447 0.01749998 0.1339446 -0.2311156 0.02249997 0.137032 -0.2311156 0.01749998 0.137032 -0.2285665 0.02249997 0.1403541 -0.2285665 0.01749998 0.1403541 -0.2263166 0.02249997 0.1438858 -0.2263166 0.01749998 0.1438858 -0.224383 0.02249997 0.1476001 -0.224383 0.01749998 0.1476001 -0.2227805 0.02249997 0.1514688 -0.2227805 0.01749998 0.1514688 -0.2215213 0.02249997 0.1554625 -0.2215213 0.01749998 0.1554625 -0.220615 0.02249997 0.1595507 -0.220615 0.01749998 0.1595507 -0.2200685 0.02249997 0.1637023 -0.2200685 0.01749998 0.1637023 -0.2198858 0.02249997 0.1678858</float_array>
          <technique_common>
            <accessor source="#trapezoid__8-mesh-positions-array" count="288" stride="3">
              <param name="X" type="float"/>
              <param name="Y" type="float"/>
              <param name="Z" type="float"/>
            </accessor>
          </technique_common>
        </source>
        <source id="trapezoid__8-mesh-normals">
          <float_array id="trapezoid__8-mesh-normals-array" count="1023">-0.9990483 0 -0.04361969 -0.9990482 0 -0.04361999 -0.9914447 0 -0.1305271 -0.9914447 0 -0.130528 -0.9762964 0 -0.216438 -0.9762965 0 -0.2164379 -0.9537166 0 -0.300707 -0.953716 0 -0.300709 -0.9238815 0 -0.3826789 -0.9238806 0 -0.3826812 -0.8870097 0 -0.4617508 -0.8870116 0 -0.4617473 -0.8433884 0 -0.5373044 -0.8433909 0 -0.5373006 -0.7933552 0 -0.6087592 -0.7933554 0 -0.6087589 -0.7372789 0 -0.6755885 -0.7372722 0 -0.6755958 -0.675594 0 -0.7372739 -0.6755901 0 -0.7372775 -0.608764 0 -0.7933514 -0.6087643 0 -0.7933512 -0.5373005 0 -0.8433909 -0.53729 0 -0.8433976 -0.4617462 0 -0.8870122 -0.4617466 0 -0.887012 -0.3826903 0 -0.9238767 -0.3826774 0 -0.9238821 -0.3007137 0 -0.9537144 -0.3006999 0 -0.9537189 -0.2164395 0 -0.9762961 -0.1305316 0 -0.9914442 -0.1305317 0 -0.9914442 -0.04361689 0 -0.9990484 0.0436173 0 -0.9990483 0.1305316 0 -0.9914442 0.1305317 0 -0.9914442 0.2164395 0 -0.9762961 0.3006999 0 -0.9537189 0.3007137 0 -0.9537144 0.3826739 0 -0.9238835 0.382687 0 -0.9238781 0.4617503 0 -0.88701 0.4617506 0 -0.8870098 0.5372872 0 -0.8433994 0.5372986 0 -0.8433921 0.608764 0 -0.7933514 0.6087643 0 -0.7933512 0.6755923 0 -0.7372755 0.6755966 0 -0.7372715 0.737272 0 -0.6755961 0.7372792 0 -0.6755883 0.7933528 0 -0.6087622 0.8433928 0 -0.5372976 0.843391 0 -0.5373005 0.8870114 0 -0.4617477 0.88701 0 -0.4617505 0.9238803 0 -0.3826816 0.9238816 0 -0.3826785 0.9537146 0 -0.3007135 0.9537153 0 -0.3007111 0.9762964 0 -0.216438 0.9762965 0 -0.2164379 0.9914447 0 -0.1305281 0.9914448 0 -0.130527 0.9990482 0 -0.04361999 0.9990483 0 -0.04361963 0.9990483 0 0.04361969 0.9990482 0 0.04361999 0.9914447 0 0.1305271 0.9914449 0 0.130526 0.9762961 0 0.2164396 0.9762961 0 0.2164395 0.9537152 0 0.3007113 0.953716 0 0.3007089 0.9238792 0 0.3826842 0.9238806 0 0.3826812 0.8870097 0 0.4617508 0.8870116 0 0.4617473 0.8433907 0 0.537301 0.8433953 0 0.5372936 0.79335 0 0.6087659 0.7933528 0 0.6087622 0.7372789 0 0.6755885 0.7372757 0 0.6755921 0.6755964 0 0.7372717 0.6755883 0 0.7372791 0.608764 0 0.7933514 0.6087643 0 0.7933512 0.5372927 0 0.8433958 0.537304 0 0.8433887 0.4617443 0 0.8870131 0.4617506 0 0.8870098 0.3826869 0 0.9238782 0.3826806 0 0.9238808 0.3007137 0 0.9537144 0.3006999 0 0.9537189 0.2164395 0 0.9762961 0.1305165 0 0.9914462 0.1305317 0 0.9914442 0.0436173 0 0.9990483 -0.04361689 0 0.9990484 -0.1305316 0 0.9914442 -0.1305167 0 0.9914462 -0.2164395 0 0.9762961 -0.3006999 0 0.9537189 -0.3007137 0 0.9537144 -0.3826838 0 0.9238794 -0.3826904 0 0.9238767 -0.4617462 0 0.8870122 -0.4617406 0 0.8870151 -0.5373059 0 0.8433875 -0.5372955 0 0.8433942 -0.608764 0 0.7933514 -0.6087643 0 0.7933512 -0.6755858 0 0.7372815 -0.6755943 0 0.7372736 -0.7372755 0 0.6755923 -0.7372792 0 0.6755883 -0.7933552 0 0.6087592 -0.7933525 0 0.6087626 -0.8433929 0 0.5372975 -0.8433887 0 0.5373041 -0.8870114 0 0.4617477 -0.88701 0 0.4617505 -0.9238803 0 0.3826816 -0.9238795 0 0.3826839 -0.9537173 0 0.3007048 -0.9537167 0 0.3007068 -0.9762961 0 0.2164396 -0.9762961 0 0.2164395 -0.9914449 0 0.1305261 -0.9914448 0 0.130527 -0.9990482 0 0.04361999 -0.9990483 0 0.04361963 0.9990484 0 0.04361695 0.9914449 0 0.1305261 0.9914449 0 0.130526 0.9762958 0 0.216441 0.9762961 0 0.2164397 0.9537169 0 0.3007059 0.9537176 0 0.3007041 0.9238806 0 0.382681 0.9238789 0 0.3826849 0.8870103 0 0.4617498 0.8870105 0 0.4617496 0.8433909 0 0.5373007 0.7933571 0 0.6087566 0.7372725 0 0.6755955 0.7372781 0 0.6755895 0.6755881 0 0.7372794 0.6755946 0 0.7372733 0.6087546 0 0.7933586 0.608762 0 0.7933531 0.5373024 0 0.8433896 0.4617489 0 0.8870107 0.4617495 0 0.8870104 0.3826848 0 0.9238791 0.3826752 0 0.923883 0.3007073 0 0.9537165 0.3007077 0 0.9537163 0.2164455 0 0.9762948 0.2164348 0 0.9762971 0.1305315 0 0.9914442 0.1305207 0 0.9914457 0.04362487 0 0.9990481 0.04361385 0 0.9990485 -0.04361414 0 0.9990485 -0.04362523 0 0.999048 -0.1305197 0 0.9914457 -0.1305307 0 0.9914443 -0.2164363 0 0.9762968 -0.2164469 0 0.9762945 -0.3007053 0 0.9537171 -0.3007055 0 0.9537171 -0.3826765 0 0.9238824 -0.382686 0 0.9238785 -0.4617503 0 0.8870099 -0.4617509 0 0.8870096 -0.5373024 0 0.8433896 -0.6087599 0 0.7933545 -0.6087531 0 0.7933597 -0.6755941 0 0.7372738 -0.6755886 0 0.7372789 -0.7372776 0 0.67559 -0.737273 0 0.6755949 -0.7933586 0 0.6087546 -0.7933549 0 0.6087596 -0.8433909 0 0.5373007 -0.8870117 0 0.4617471 -0.8870118 0 0.4617468 -0.9238764 0 0.3826912 -0.9238783 0 0.3826868 -0.9537185 0 0.300701 -0.9537181 0 0.3007023 -0.9762952 0 0.2164432 -0.9762951 0 0.2164442 -0.9914458 0 0.130519 -0.9990482 0 0.04362058 -0.9990482 0 0.04362028 -0.9990482 0 -0.04362034 -0.9990482 0 -0.04362028 -0.9914457 0 -0.1305198 -0.9914458 0 -0.130519 -0.9762952 0 -0.2164432 -0.9762954 0 -0.216443 -0.953718 0 -0.3007026 -0.9537181 0 -0.3007023 -0.923878 0 -0.3826872 -0.9238765 0 -0.3826907 -0.8870117 0 -0.4617471 -0.8870118 0 -0.4617468 -0.8433909 0 -0.5373007 -0.7933545 0 -0.60876 -0.7933569 0 -0.6087569 -0.737275 0 -0.6755928 -0.7372806 0 -0.6755867 -0.6755911 0 -0.7372766 -0.6755886 0 -0.7372789 -0.6087599 0 -0.7933545 -0.6087601 0 -0.7933545 -0.5373024 0 -0.8433896 -0.5372945 0 -0.8433947 -0.4617547 0 -0.8870077 -0.4617465 0 -0.887012 -0.3826813 0 -0.9238805 -0.382686 0 -0.9238785 -0.3007053 0 -0.9537171 -0.3007055 0 -0.9537171 -0.2164416 0 -0.9762957 -0.2164363 0 -0.9762968 -0.1305306 0 -0.9914443 -0.1305252 0 -0.9914451 -0.04361969 0 -0.9990482 -0.04361414 0 -0.9990485 0.04361379 0 -0.9990485 0.04361939 0 -0.9990482 0.130526 0 -0.9914449 0.1305316 0 -0.9914442 0.2164348 0 -0.9762971 0.2164402 0 -0.976296 0.3007073 0 -0.9537165 0.3007077 0 -0.9537163 0.3826848 0 -0.9238791 0.38268 0 -0.9238811 0.4617446 0 -0.887013 0.4617539 0 -0.8870082 0.5372945 0 -0.8433947 0.5373024 0 -0.8433896 0.6087616 0 -0.7933533 0.608762 0 -0.7933531 0.6755881 0 -0.7372794 0.6755916 0 -0.7372761 0.7372801 0 -0.6755872 0.7372756 0 -0.6755923 0.7933548 0 -0.6087595 0.793353 0 -0.608762 0.8433909 0 -0.5373007 0.8870103 0 -0.4617498 0.8870105 0 -0.4617496 0.9238789 0 -0.3826849 0.9238806 0 -0.382681 0.9537169 0 -0.3007059 0.953717 0 -0.3007056 0.976296 0 -0.2164399 0.9762961 0 -0.2164397 0.9914449 0 -0.1305261 0.9914448 0 -0.1305267 0.9990484 0 -0.04361671 0.9990484 0 0.04361671 0 -1 0 0 -1 -5.35142e-7 0 -1 7.3391e-7 0 -1 -5.35139e-7 0 -1 7.33913e-7 0 -1 2.67572e-7 0 -1 -1.33786e-7 0 -1 1.33785e-7 0 -1 -2.00679e-7 0 -1 0 0 -1 1.37607e-7 0 -1 -2.6757e-7 0 -1 0 0 -1 -1.83476e-7 0 -1 -3.66952e-7 0 -1 3.66956e-7 0 -1 7.33904e-7 0 -1 -5.35149e-7 0 -1 5.35146e-7 0 -1 -7.33904e-7 0 -1 5.35139e-7 0 -1 -7.33917e-7 0 -1 5.35144e-7 0 -1 -7.33908e-7 0 -1 -2.67572e-7 0 -1 -1.33784e-7 0 -1 0 0 -1 0 0 -1 1.33788e-7 0 -1 0 0 -1 1.33784e-7 0 -1 -1.37607e-7 0 -1 0 0 -1 -3.66956e-7 0 -1 -5.35143e-7 0 -1 5.35143e-7 0 -1 7.33912e-7 0 1 0 0 1 -5.35144e-7 0 1 7.33904e-7 0 1 -1.07029e-6 0 1 1.46782e-6 0 1 1.07028e-6 0 1 1.46782e-6 0 1 -5.35139e-7 0 1 -7.33913e-7 0 1 5.35144e-7 0 1 -2.67572e-7 0 1 7.33913e-7 0 1 1.33785e-7 0 1 3.66948e-7 0 1 -1.83478e-7 0 1 -1.33784e-7 0 1 1.8348e-7 0 1 -3.66956e-7 0 1 -7.33887e-7 0 1 5.35149e-7 0 1 -1.07028e-6 0 1 1.07029e-6 0 1 -1.46783e-6 0 1 1.46783e-6 0 1 -1.46782e-6 0 1 1.07028e-6 0 1 -1.46781e-6 0 1 7.33921e-7 0 1 2.67572e-7 0 1 2.67567e-7 0 1 3.66956e-7 0 1 1.83476e-7 0 1 0 0 1 3.66952e-7</float_array>
          <technique_common>
            <accessor source="#trapezoid__8-mesh-normals-array" count="341" stride="3">
              <param name="X" type="float"/>
              <param name="Y" type="float"/>
              <param name="Z" type="float"/>
            </accessor>
          </technique_common>
        </source>
        <vertices id="trapezoid__8-mesh-vertices">
          <input semantic="POSITION" source="#trapezoid__8-mesh-positions"/>
        </vertices>
        <triangles count="576">
          <input semantic="VERTEX" source="#trapezoid__8-mesh-vertices" offset="0"/>
          <input semantic="NORMAL" source="#trapezoid__8-mesh-normals" offset="1"/>
          <p>0 0 1 0 2 0 1 1 3 1 2 1 2 2 3 2 4 2 3 3 5 3 4 3 4 4 5 4 6 4 5 5 7 5 6 5 6 6 7 6 8 6 7 7 9 7 8 7 8 8 9 8 10 8 9 9 11 9 10 9 10 10 11 10 12 10 11 11 13 11 12 11 12 12 13 12 14 12 13 13 15 13 14 13 14 14 15 14 16 14 15 15 17 15 16 15 16 16 17 16 18 16 17 17 19 17 18 17 18 18 19 18 20 18 19 19 21 19 20 19 20 20 21 20 22 20 21 21 23 21 22 21 22 22 23 22 24 22 23 23 25 23 24 23 24 24 25 24 26 24 25 25 27 25 26 25 26 26 27 26 28 26 27 27 29 27 28 27 28 28 29 28 30 28 29 29 31 29 30 29 30 30 31 30 32 30 31 30 33 30 32 30 32 31 33 31 34 31 33 32 35 32 34 32 34 33 35 33 36 33 35 33 37 33 36 33 36 34 37 34 38 34 37 34 39 34 38 34 38 35 39 35 40 35 39 36 41 36 40 36 40 37 41 37 42 37 41 37 43 37 42 37 42 38 43 38 44 38 43 39 45 39 44 39 44 40 45 40 46 40 45 41 47 41 46 41 46 42 47 42 48 42 47 43 49 43 48 43 48 44 49 44 50 44 49 45 51 45 50 45 50 46 51 46 52 46 51 47 53 47 52 47 52 48 53 48 54 48 53 49 55 49 54 49 54 50 55 50 56 50 55 51 57 51 56 51 56 52 57 52 58 52 57 52 59 52 58 52 58 53 59 53 60 53 59 54 61 54 60 54 60 55 61 55 62 55 61 56 63 56 62 56 62 57 63 57 64 57 63 58 65 58 64 58 64 59 65 59 66 59 65 60 67 60 66 60 66 61 67 61 68 61 67 62 69 62 68 62 68 63 69 63 70 63 69 64 71 64 70 64 70 65 71 65 72 65 71 66 73 66 72 66 72 67 73 67 74 67 73 68 75 68 74 68 74 69 75 69 76 69 75 70 77 70 76 70 76 71 77 71 78 71 77 72 79 72 78 72 78 73 79 73 80 73 79 74 81 74 80 74 80 75 81 75 82 75 81 76 83 76 82 76 82 77 83 77 84 77 83 78 85 78 84 78 84 79 85 79 86 79 85 80 87 80 86 80 86 81 87 81 88 81 87 82 89 82 88 82 88 83 89 83 90 83 89 84 91 84 90 84 90 85 91 85 92 85 91 86 93 86 92 86 92 87 93 87 94 87 93 88 95 88 94 88 94 89 95 89 96 89 95 90 97 90 96 90 96 91 97 91 98 91 97 92 99 92 98 92 98 93 99 93 100 93 99 94 101 94 100 94 100 95 101 95 102 95 101 96 103 96 102 96 102 97 103 97 104 97 103 97 105 97 104 97 104 98 105 98 106 98 105 99 107 99 106 99 106 100 107 100 108 100 107 100 109 100 108 100 108 101 109 101 110 101 109 101 111 101 110 101 110 102 111 102 112 102 111 103 113 103 112 103 112 104 113 104 114 104 113 104 115 104 114 104 114 105 115 105 116 105 115 106 117 106 116 106 116 107 117 107 118 107 117 108 119 108 118 108 118 109 119 109 120 109 119 110 121 110 120 110 120 111 121 111 122 111 121 112 123 112 122 112 122 113 123 113 124 113 123 114 125 114 124 114 124 115 125 115 126 115 125 116 127 116 126 116 126 117 127 117 128 117 127 118 129 118 128 118 128 119 129 119 130 119 129 120 131 120 130 120 130 121 131 121 132 121 131 122 133 122 132 122 132 123 133 123 134 123 133 124 135 124 134 124 134 125 135 125 136 125 135 126 137 126 136 126 136 127 137 127 138 127 137 128 139 128 138 128 138 129 139 129 140 129 139 130 141 130 140 130 140 131 141 131 142 131 141 132 143 132 142 132 142 133 143 133 0 133 143 134 1 134 0 134 144 135 145 135 146 135 145 136 147 136 146 136 146 137 147 137 148 137 147 138 149 138 148 138 148 139 149 139 150 139 149 140 151 140 150 140 150 141 151 141 152 141 151 142 153 142 152 142 152 143 153 143 154 143 153 144 155 144 154 144 154 145 155 145 156 145 155 146 157 146 156 146 156 146 157 146 158 146 157 82 159 82 158 82 158 147 159 147 160 147 159 148 161 148 160 148 160 149 161 149 162 149 161 150 163 150 162 150 162 151 163 151 164 151 163 152 165 152 164 152 164 153 165 153 166 153 165 154 167 154 166 154 166 154 167 154 168 154 167 155 169 155 168 155 168 156 169 156 170 156 169 157 171 157 170 157 170 158 171 158 172 158 171 159 173 159 172 159 172 160 173 160 174 160 173 161 175 161 174 161 174 162 175 162 176 162 175 163 177 163 176 163 176 164 177 164 178 164 177 165 179 165 178 165 178 166 179 166 180 166 179 167 181 167 180 167 180 168 181 168 182 168 181 169 183 169 182 169 182 170 183 170 184 170 183 171 185 171 184 171 184 172 185 172 186 172 185 173 187 173 186 173 186 174 187 174 188 174 187 175 189 175 188 175 188 176 189 176 190 176 189 177 191 177 190 177 190 178 191 178 192 178 191 179 193 179 192 179 192 179 193 179 194 179 193 180 195 180 194 180 194 181 195 181 196 181 195 182 197 182 196 182 196 183 197 183 198 183 197 184 199 184 198 184 198 185 199 185 200 185 199 186 201 186 200 186 200 187 201 187 202 187 201 188 203 188 202 188 202 188 203 188 204 188 203 189 205 189 204 189 204 190 205 190 206 190 205 191 207 191 206 191 206 192 207 192 208 192 207 193 209 193 208 193 208 194 209 194 210 194 209 195 211 195 210 195 210 196 211 196 212 196 211 197 213 197 212 197 212 197 213 197 214 197 213 198 215 198 214 198 214 199 215 199 216 199 215 200 217 200 216 200 216 201 217 201 218 201 217 202 219 202 218 202 218 203 219 203 220 203 219 204 221 204 220 204 220 205 221 205 222 205 221 206 223 206 222 206 222 207 223 207 224 207 223 208 225 208 224 208 224 209 225 209 226 209 225 210 227 210 226 210 226 211 227 211 228 211 227 212 229 212 228 212 228 212 229 212 230 212 229 213 231 213 230 213 230 214 231 214 232 214 231 215 233 215 232 215 232 216 233 216 234 216 233 217 235 217 234 217 234 218 235 218 236 218 235 219 237 219 236 219 236 220 237 220 238 220 237 221 239 221 238 221 238 222 239 222 240 222 239 223 241 223 240 223 240 224 241 224 242 224 241 225 243 225 242 225 242 226 243 226 244 226 243 227 245 227 244 227 244 228 245 228 246 228 245 229 247 229 246 229 246 230 247 230 248 230 247 231 249 231 248 231 248 232 249 232 250 232 249 233 251 233 250 233 250 234 251 234 252 234 251 235 253 235 252 235 252 236 253 236 254 236 253 237 255 237 254 237 254 238 255 238 256 238 255 239 257 239 256 239 256 240 257 240 258 240 257 241 259 241 258 241 258 242 259 242 260 242 259 243 261 243 260 243 260 244 261 244 262 244 261 245 263 245 262 245 262 246 263 246 264 246 263 247 265 247 264 247 264 248 265 248 266 248 265 249 267 249 266 249 266 250 267 250 268 250 267 251 269 251 268 251 268 252 269 252 270 252 269 253 271 253 270 253 270 254 271 254 272 254 271 255 273 255 272 255 272 256 273 256 274 256 273 257 275 257 274 257 274 257 275 257 276 257 275 258 277 258 276 258 276 259 277 259 278 259 277 260 279 260 278 260 278 261 279 261 280 261 279 262 281 262 280 262 280 263 281 263 282 263 281 264 283 264 282 264 282 265 283 265 284 265 283 266 285 266 284 266 284 267 285 267 286 267 285 268 287 268 286 268 286 268 287 268 144 268 287 269 145 269 144 269 11 270 154 270 13 270 154 271 156 271 13 271 13 272 156 272 15 272 156 270 158 270 15 270 15 270 158 270 17 270 158 273 160 273 17 273 17 274 160 274 19 274 160 270 162 270 19 270 19 270 162 270 21 270 162 270 164 270 21 270 21 270 164 270 23 270 164 270 166 270 23 270 23 270 166 270 25 270 166 270 168 270 25 270 25 270 168 270 27 270 168 270 170 270 27 270 27 270 170 270 29 270 170 275 172 275 29 275 29 270 172 270 31 270 172 276 174 276 31 276 31 270 174 270 33 270 174 277 176 277 33 277 33 270 176 270 35 270 176 278 178 278 35 278 35 270 178 270 37 270 178 270 180 270 37 270 37 270 180 270 39 270 180 279 182 279 39 279 39 270 182 270 41 270 182 270 184 270 41 270 41 270 184 270 43 270 184 276 186 276 43 276 43 280 186 280 45 280 186 281 188 281 45 281 45 282 188 282 47 282 188 270 190 270 47 270 47 283 190 283 49 283 190 270 192 270 49 270 49 270 192 270 51 270 192 270 194 270 51 270 51 284 194 284 53 284 194 270 196 270 53 270 53 285 196 285 55 285 196 270 198 270 55 270 55 286 198 286 57 286 198 270 200 270 57 270 57 270 200 270 59 270 200 287 202 287 59 287 59 270 202 270 61 270 202 288 204 288 61 288 61 289 204 289 63 289 204 270 206 270 63 270 63 270 206 270 65 270 206 270 208 270 65 270 65 270 208 270 67 270 208 270 210 270 67 270 67 270 210 270 69 270 210 270 212 270 69 270 69 270 212 270 71 270 212 270 214 270 71 270 71 270 214 270 73 270 214 270 216 270 73 270 73 270 216 270 75 270 216 270 218 270 75 270 75 270 218 270 77 270 218 270 220 270 77 270 77 270 220 270 79 270 220 270 222 270 79 270 79 270 222 270 81 270 222 270 224 270 81 270 81 270 224 270 83 270 224 270 226 270 83 270 83 270 226 270 85 270 226 290 228 290 85 290 85 291 228 291 87 291 228 270 230 270 87 270 87 270 230 270 89 270 230 292 232 292 89 292 89 293 232 293 91 293 232 270 234 270 91 270 91 270 234 270 93 270 234 270 236 270 93 270 93 270 236 270 95 270 236 290 238 290 95 290 95 289 238 289 97 289 238 270 240 270 97 270 97 270 240 270 99 270 240 270 242 270 99 270 99 270 242 270 101 270 242 294 244 294 101 294 101 274 244 274 103 274 244 295 246 295 103 295 103 270 246 270 105 270 246 270 248 270 105 270 105 270 248 270 107 270 248 296 250 296 107 296 107 270 250 270 109 270 250 270 252 270 109 270 109 270 252 270 111 270 252 297 254 297 111 297 111 270 254 270 113 270 254 298 256 298 113 298 113 299 256 299 115 299 256 300 258 300 115 300 115 301 258 301 117 301 258 270 260 270 117 270 117 302 260 302 119 302 260 270 262 270 119 270 119 270 262 270 121 270 262 270 264 270 121 270 121 303 264 303 123 303 264 270 266 270 123 270 123 285 266 285 125 285 266 270 268 270 125 270 125 303 268 303 127 303 268 270 270 270 127 270 127 289 270 289 129 289 270 270 272 270 129 270 129 270 272 270 131 270 272 290 274 290 131 290 131 270 274 270 133 270 274 271 276 271 133 271 133 286 276 286 135 286 276 270 278 270 135 270 135 270 278 270 137 270 278 270 280 270 137 270 137 270 280 270 139 270 280 270 282 270 139 270 139 270 282 270 141 270 282 270 284 270 141 270 141 270 284 270 143 270 284 304 286 304 143 304 143 270 286 270 1 270 286 305 144 305 1 305 1 270 144 270 3 270 144 271 146 271 3 271 3 306 146 306 5 306 146 270 148 270 5 270 5 270 148 270 7 270 148 270 150 270 7 270 7 270 150 270 9 270 150 270 152 270 9 270 9 270 152 270 11 270 152 270 154 270 11 270 20 307 163 307 18 307 163 308 161 308 18 308 18 307 161 307 16 307 161 307 159 307 16 307 16 307 159 307 14 307 159 307 157 307 14 307 14 307 157 307 12 307 157 307 155 307 12 307 12 307 155 307 10 307 155 307 153 307 10 307 10 309 153 309 8 309 153 307 151 307 8 307 8 307 151 307 6 307 151 307 149 307 6 307 6 307 149 307 4 307 149 307 147 307 4 307 4 307 147 307 2 307 147 310 145 310 2 310 2 311 145 311 0 311 145 310 287 310 0 310 0 307 287 307 142 307 287 307 285 307 142 307 142 307 285 307 140 307 285 312 283 312 140 312 140 307 283 307 138 307 283 307 281 307 138 307 138 307 281 307 136 307 281 307 279 307 136 307 136 307 279 307 134 307 279 307 277 307 134 307 134 313 277 313 132 313 277 307 275 307 132 307 132 307 275 307 130 307 275 308 273 308 130 308 130 307 273 307 128 307 273 307 271 307 128 307 128 307 271 307 126 307 271 314 269 314 126 314 126 307 269 307 124 307 269 307 267 307 124 307 124 315 267 315 122 315 267 307 265 307 122 307 122 307 265 307 120 307 265 316 263 316 120 316 120 315 263 315 118 315 263 307 261 307 118 307 118 307 261 307 116 307 261 317 259 317 116 317 116 318 259 318 114 318 259 317 257 317 114 317 114 307 257 307 112 307 257 319 255 319 112 319 112 307 255 307 110 307 255 307 253 307 110 307 110 320 253 320 108 320 253 307 251 307 108 307 108 307 251 307 106 307 251 307 249 307 106 307 106 321 249 321 104 321 249 322 247 322 104 322 104 323 247 323 102 323 247 307 245 307 102 307 102 307 245 307 100 307 245 307 243 307 100 307 100 307 243 307 98 307 243 307 241 307 98 307 98 307 241 307 96 307 241 307 239 307 96 307 96 307 239 307 94 307 239 307 237 307 94 307 94 324 237 324 92 324 237 307 235 307 92 307 92 307 235 307 90 307 235 307 233 307 90 307 90 325 233 325 88 325 233 326 231 326 88 326 88 307 231 307 86 307 231 307 229 307 86 307 86 307 229 307 84 307 229 307 227 307 84 307 84 307 227 307 82 307 227 307 225 307 82 307 82 307 225 307 80 307 225 307 223 307 80 307 80 307 223 307 78 307 223 307 221 307 78 307 78 307 221 307 76 307 221 327 219 327 76 327 76 307 219 307 74 307 219 328 217 328 74 328 74 329 217 329 72 329 217 307 215 307 72 307 72 330 215 330 70 330 215 307 213 307 70 307 70 307 213 307 68 307 213 310 211 310 68 310 68 307 211 307 66 307 211 307 209 307 66 307 66 331 209 331 64 331 209 332 207 332 64 332 64 333 207 333 62 333 207 307 205 307 62 307 62 307 205 307 60 307 205 307 203 307 60 307 60 307 203 307 58 307 203 307 201 307 58 307 58 307 201 307 56 307 201 307 199 307 56 307 56 307 199 307 54 307 199 307 197 307 54 307 54 307 197 307 52 307 197 307 195 307 52 307 52 334 195 334 50 334 195 307 193 307 50 307 50 307 193 307 48 307 193 308 191 308 48 308 48 307 191 307 46 307 191 307 189 307 46 307 46 315 189 315 44 315 189 335 187 335 44 335 44 315 187 315 42 315 187 336 185 336 42 336 42 307 185 307 40 307 185 317 183 317 40 317 40 337 183 337 38 337 183 307 181 307 38 307 38 307 181 307 36 307 181 307 179 307 36 307 36 307 179 307 34 307 179 317 177 317 34 317 34 338 177 338 32 338 177 307 175 307 32 307 32 339 175 339 30 339 175 307 173 307 30 307 30 307 173 307 28 307 173 307 171 307 28 307 28 307 171 307 26 307 171 307 169 307 26 307 26 340 169 340 24 340 169 307 167 307 24 307 24 307 167 307 22 307 167 308 165 308 22 308 22 340 165 340 20 340 165 307 163 307 20 307</p>
        </triangles>
      </mesh>
    </geometry>
  </library_geometries>
  <library_visual_scenes>
    <visual_scene id="Scene" name="Scene">
      <node id="trapezoid__8" name="trapezoid__8" type="NODE">
        <matrix sid="transform">1 0 0 0 0 1 0 0 0 0 1 0 0 0 0 1</matrix>
        <instance_geometry url="#trapezoid__8-mesh" name="trapezoid__8"/>
      </node>
    </visual_scene>
  </library_visual_scenes>
  <scene>
    <instance_visual_scene url="#Scene"/>
  </scene>
</COLLADA>